ply
format ascii 1.0
element vertex 2048
property float x
property float y
property float z
end_header
0.00272 -0.116 -0.205
-0.186  0.814  0.214
-0.0117 -0.930  0.196
 0.242  0.317  0.230
0.0119 -0.846 -0.413
-0.286 -0.548 -0.0699
 0.285 -0.553 -0.0685
-0.213  0.110  0.187
 0.243  0.754  0.191
-0.00568 -0.326  0.164
 0.340  0.101 -0.114
-0.317  0.110 -0.195
-0.00729 -0.462 -0.378
-0.275 -0.930 -0.108
 0.266 -0.934 -0.100
-0.0938  0.461  0.226
 0.108 0.0195  0.135
 0.155  0.110 -0.381
-0.0170 -0.628  0.184
 0.215 -0.273 -0.0701
-0.217 -0.271 -0.0953
-0.123 0.0944 -0.393
-0.0794  0.113 -0.0572
 0.198 -0.818  0.115
-0.212 -0.817  0.103
0.0119  0.231  0.226
 0.137  0.533  0.186
-0.0574 -0.140 0.0248
-0.196 -0.821 -0.293
 0.190 -0.816 -0.278
-0.328 0.0242 0.0143
 0.167 -0.0503 -0.0699
0.0151  0.717  0.184
0.0937  0.113 -0.177
 0.297 0.0992 0.0986
-0.238  0.316  0.202
-0.217 -0.737 -0.0813
 0.213 -0.743 -0.0909
-0.0455 0.0211  0.259
0.00713 -0.655 -0.343
0.0181 -0.283 -0.304
-0.194  0.624  0.186
-0.147 0.0195 -0.221
 0.280 0.0207 -0.272
 0.161  0.113 -0.0140
-0.0505  0.113  0.116
0.0264 0.0195 -0.317
0.0173 -0.784  0.118
-0.162 -0.0941 -0.0989
-0.257  0.478  0.229
0.0696  0.389  0.226
0.0185 -0.000200 -0.00911
-0.161 0.0195 0.0389
-0.233  0.113 -0.0668
-0.0164 -0.476  0.202
0.0961 -0.181 -0.104
 0.139  0.149  0.212
 0.266  0.466  0.231
-0.281 -0.404 -0.100
 0.273 -0.408 -0.0909
-0.00728  0.572  0.186
-0.0938  0.317  0.186
-0.0409  0.113 -0.235
-0.242  0.104 -0.317
0.0139  0.112 -0.418
 0.295 0.0195 -0.0140
 0.269 -0.832 -0.00540
-0.0121 0.0195 -0.144
0.0119 -0.779 -0.295
-0.268 -0.817 -0.181
-0.103 -0.836  0.177
 0.223  0.113 -0.197
 0.142 0.0195 -0.254
 0.122  0.797  0.216
 0.130  0.659  0.212
0.0732 -0.133 0.0127
0.0147 -0.228 0.0847
-0.274 -0.841 -0.00545
 0.122  0.279  0.186
 0.227 0.0210  0.179
0.0828 0.0427  0.256
-0.252  0.113 0.0581
-0.108  0.715  0.202
-0.320 0.0195 -0.110
-0.137  0.202  0.219
 0.264 -0.822 -0.181
0.0504  0.113 0.0485
-0.127 0.0195  0.154
 0.247 0.0195 -0.125
-0.120 -0.204 -0.0761
-0.0163 -0.920 -0.325
-0.262 0.0195  0.130
-0.0935 -0.817 -0.350
-0.0457  0.816  0.193
0.0574 -0.0674 -0.105
-0.147 0.0195 -0.0813
 0.190 0.0195 0.0534
0.0158 -0.823  0.226
-0.190  0.113 -0.173
0.0937 -0.848 -0.331
0.0552  0.113 -0.0716
-0.267 0.0195 -0.240
-0.0583 -0.0546 -0.0700
 0.156  0.113  0.101
 0.223  0.592  0.223
0.0157 -0.0672 0.0801
0.0862 0.0289 -0.408
0.0360  0.113  0.188
0.0792  0.113 -0.302
-0.0980 -0.141 -0.173
 0.180  0.394  0.186
-0.0890 0.0195 -0.312
 0.108 -0.848  0.164
-0.185  0.413  0.186
 0.247  0.113 -0.312
 0.127 0.0195 -0.139
-0.142  0.113 -0.269
-0.267 -0.645 -0.107
-0.0554 0.0195 0.0629
-0.151  0.113 0.0870
-0.225  0.717  0.223
-0.103  0.567  0.226
-0.123  0.101  0.239
-0.339  0.110 -0.0620
0.0504  0.490  0.226
-0.216 -0.847 -0.0957
-0.190 0.0195 -0.341
 0.206 -0.846 -0.100
 0.262  0.113 -0.0332
-0.311 -0.801 -0.0909
0.00713 0.0195  0.145
-0.0264 0.0195 -0.412
0.00714 -0.218 -0.228
 0.323 -0.851 -0.104
-0.0217  0.399  0.186
 0.199 0.0195 -0.336
 0.258 -0.649 -0.0688
0.0154 -0.559 -0.369
-0.233 0.0195 -0.0332
-0.219 0.0195 -0.153
-0.176  0.514  0.186
0.0192 -0.370 -0.355
 0.113 0.0195 -0.0188
 0.180  0.113 -0.110
0.0552 0.0195 -0.211
 0.328 0.0195 -0.172
-0.0602  0.113 -0.326
 0.240  0.112  0.170
 0.166  0.113 -0.269
 0.313  0.106 -0.215
0.0408  0.639  0.226
-0.0265  0.113  0.255
-0.156  0.113 -0.00434
-0.00248  0.113 -0.153
-0.0121 -0.0298 -0.252
0.00873 -0.873  0.125
0.0312  0.307  0.186
-0.0601  0.644  0.226
0.0840 -0.127 -0.173
0.0552 0.0195 -0.0861
0.0412  0.814  0.183
-0.0602  0.113 0.0293
-0.00729 -0.703  0.142
-0.108  0.113 -0.144
0.0103 -0.0840 -0.0290
 0.330  0.112 0.0214
-0.204 0.0198  0.192
-0.257  0.392  0.234
 0.162 0.0688  0.226
 0.343 0.0218 -0.0833
0.0648 0.0195 0.0629
-0.0650  0.231  0.186
 0.166  0.466  0.226
-0.0715 -0.134 -0.0907
-0.0794 0.0195 -0.0332
 0.276 0.0195  0.106
-0.233  0.558  0.225
 0.262  0.394  0.186
-0.326  0.110 0.0184
-0.127 0.0195  0.235
-0.0188 -0.780 -0.370
 0.191  0.254  0.221
-0.161  0.279  0.226
0.0780  0.206  0.187
 0.223 0.0195 -0.201
-0.0121 -0.0626 -0.145
 0.281 -0.781 -0.0764
-0.0265  0.495  0.186
-0.243 0.0195 0.0534
 0.154  0.726  0.177
0.0171 -0.399  0.184
 0.133 -0.121 -0.0697
 0.162 -0.229 -0.108
0.0177 -0.188 0.0146
-0.0890 0.0195 -0.153
 0.223  0.113 0.0341
-0.103  0.384  0.226
 0.219  0.524  0.186
-0.257 -0.335 -0.0724
-0.118  0.793  0.180
-0.114 -0.129 -0.0272
-0.272  0.113 -0.134
-0.0219 -0.553  0.197
0.0889  0.596  0.186
0.0840  0.113  0.125
0.0792  0.113 -0.379
 0.290 -0.481 -0.104
 0.248 -0.337 -0.0973
-0.292 -0.473 -0.0727
-0.224  0.113 -0.240
0.0119 -0.856 -0.299
-0.117 0.0196 -0.392
-0.0313  0.336  0.226
-0.132  0.113  0.159
 0.267  0.113 -0.120
-0.315 -0.877 -0.0739
 0.127  0.341  0.226
 0.190 0.0195 -0.0620
-0.0554 0.0195  0.183
-0.0650  0.113  0.188
 0.196  0.806  0.212
-0.136  0.651  0.225
-0.323 0.0383 -0.182
-0.176  0.113 -0.346
 0.127 0.0195 -0.326
0.0167 0.0195  0.222
0.0840  0.715  0.209
0.0538  0.113  0.258
-0.0315 -0.817  0.172
-0.269  0.109  0.128
0.0119  0.113 -0.331
 0.317 0.0431 0.0521
0.00713  0.113 -0.0188
-0.302 0.0671 0.0798
-0.0554 0.0195 -0.216
-0.0149 -0.716 -0.313
 0.205  0.700  0.219
-0.151 -0.845  0.126
 0.113  0.442  0.186
-0.219 -0.839 -0.230
0.0264  0.113 -0.254
-0.195 0.0195  0.111
0.0189 -0.919 -0.385
-0.179  0.749  0.182
 0.242 -0.840 0.0580
0.00835 -0.118 0.0314
 0.180  0.322  0.186
-0.0361  0.750  0.216
-0.176  0.113 -0.105
-0.166  0.356  0.226
-0.282 0.0832 -0.265
 0.149  0.212  0.186
-0.334 0.0860 -0.130
-0.0121  0.113 -0.0861
-0.250 0.0236 -0.306
 0.151  0.586  0.226
 0.113  0.113 -0.110
-0.195 0.0195 -0.269
 0.191  0.641  0.191
-0.0168 -0.271  0.128
 0.342  0.101 -0.0479
-0.229 -0.845 0.0432
-0.0513 0.0811 -0.413
-0.0938  0.514  0.186
 0.161 0.0195  0.178
-0.0313 0.0195 -0.0813
0.0937  0.113 -0.0188
-0.146 -0.848 -0.326
-0.0361 -0.848 -0.350
 0.262 -0.855 -0.0678
 0.237 -0.848 -0.234
0.0313 -0.816 -0.346
-0.0121 -0.173 -0.179
0.0441 -0.819  0.169
-0.257 0.0195 -0.0957
0.0216  0.113  0.111
 0.214  0.452  0.186
-0.171  0.461  0.226
0.00233  0.442  0.226
-0.170 -0.227 -0.108
-0.0203 -0.322 -0.336
0.0408  0.562  0.226
 0.127 0.0195 0.0437
0.0792 0.0195  0.198
 0.214 0.0195 -0.264
-0.280 -0.847 -0.120
-0.00728  0.658  0.186
-0.101 -0.0817 -0.108
-0.156 0.0195 -0.158
-0.0361 0.0195 -0.346
 0.223 0.0195 -0.00916
-0.0361  0.274  0.226
-0.257  0.113 -0.00434
-0.113 0.0195 0.0870
-0.0986  0.113 -0.211
 0.190 0.0195  0.116
 0.145 0.0483 -0.386
-0.0986  0.264  0.226
0.0169 -0.885  0.227
-0.204  0.113  0.125
-0.296 0.0195 -0.0476
-0.176  0.582  0.226
 0.223  0.113  0.111
 0.146 -0.816 -0.326
-0.000882 -0.00749 0.0557
0.0742 -0.124 -0.0893
0.0696 0.0195 -0.274
 0.276 -0.606 -0.108
 0.113  0.113 0.0390
 0.113  0.113 -0.235
 0.137  0.113  0.159
-0.170 0.0671  0.220
-0.227 -0.902 -0.0724
 0.311 -0.901 -0.0720
 0.116 0.00892 -0.0784
0.0744  0.293  0.226
 0.137  0.113 -0.322
-0.166 -0.0368 -0.0724
0.0135 0.0688  0.265
-0.248  0.437  0.186
-0.137  0.605  0.186
 0.202 0.0864 -0.353
-0.210 -0.788 -0.110
0.0744  0.533  0.186
 0.185 0.0195 -0.125
 0.166  0.113 -0.168
-0.128 -0.141 -0.107
0.0312 0.0195 -0.389
0.0840  0.346  0.186
 0.108  0.500  0.226
-0.0195 -0.0672 0.0210
-0.118  0.113 -0.336
-0.233  0.767  0.191
 0.251 0.0527 -0.311
 0.132 0.0196  0.235
-0.0185 -0.606 -0.361
 0.110  0.108  0.247
 0.262 0.0195 0.0341
-0.176 0.0195 -0.0284
0.0264  0.365  0.186
-0.233  0.509  0.186
0.0696 0.0195 -0.144
 0.122 0.0195 -0.197
-0.214 0.0195 -0.211
-0.0505 0.0195  0.125
 0.192  0.113  0.205
 0.267 -0.848 -0.129
-0.0901 0.00450 -0.0977
-0.0205 -0.241 -0.273
 0.108  0.235  0.226
 0.288 0.0768 -0.262
0.0696  0.764  0.180
-0.127  0.418  0.186
 0.110 -0.0598 -0.0829
 0.214  0.370  0.226
-0.0313 0.0195 -0.274
-0.0206 -0.0863 -0.248
-0.258 -0.805 -0.0704
-0.335 0.0575 -0.0336
-0.0152 -0.142 -0.0141
 0.243 -0.687 -0.108
 0.175  0.524  0.226
 0.144 -0.821  0.128
-0.0457  0.562  0.226
-0.00729  0.113 0.0485
0.0177 -0.0625 -0.195
0.0744 0.0195 -0.346
 0.276 0.0195 -0.0764
0.0119  0.778  0.216
-0.274 -0.603 -0.0704
 0.228  0.113 -0.259
 0.221 -0.894 -0.0692
-0.0384  0.201  0.225
-0.173 0.0640 -0.371
 0.109 -0.150 -0.0261
 0.203 -0.798 -0.0722
-0.204  0.360  0.186
-0.137  0.519  0.226
-0.272 0.0195 -0.173
-0.166  0.317  0.186
-0.0740 0.0816  0.256
-0.0482 -0.143 -0.207
-0.0938  0.113 0.0726
-0.257  0.113 -0.197
-0.0361 0.0195 0.000461
0.0408  0.418  0.186
 0.171  0.113 0.0485
 0.195  0.113 -0.0572
-0.286  0.113 -0.0813
0.0600  0.113 -0.134
0.0441 -0.152 -0.207
0.0156 -0.114 -0.152
-0.240 0.0671  0.165
-0.157  0.685  0.188
 0.281  0.113 0.0485
 0.305  0.113 -0.158
-0.0121  0.113  0.154
 0.129 -0.209 -0.0698
-0.249 -0.682 -0.0704
-0.132  0.476  0.186
-0.0986  0.649  0.186
-0.161  0.240  0.188
 0.190  0.752  0.211
 0.272 0.0195 -0.177
-0.195  0.113 -0.293
-0.0199 -0.0332 -0.0272
-0.137 0.0195 -0.274
-0.0505  0.113 -0.177
-0.0505  0.447  0.186
 0.122  0.399  0.226
0.00715 -0.859  0.176
0.0118 -0.921  0.146
-0.00247  0.264  0.186
-0.103  0.113 -0.00916
-0.0746  0.586  0.186
-0.151  0.113 -0.211
-0.137 0.0195 -0.341
 0.159  0.794  0.177
 0.248  0.533  0.229
0.00674 0.00980 -0.192
 0.269 0.0640  0.134
-0.00122  0.198  0.187
0.0648  0.663  0.186
 0.336 0.0527 -0.00961
-0.0214 -0.207 0.0436
0.0792  0.442  0.226
0.0403 0.0671 -0.415
 0.113 -0.127 -0.129
-0.123  0.113 -0.0861
0.00233  0.113 -0.206
 0.190  0.567  0.186
-0.126  0.154  0.203
0.0175 -0.515  0.201
 0.309 0.0195 -0.220
-0.0842  0.769  0.216
 0.171 0.0195 -0.177
0.0744  0.259  0.186
-0.204  0.113 0.0149
-0.0204 -0.413 -0.366
-0.0159 -0.826  0.123
0.0142 -0.781  0.196
 0.261  0.495  0.186
 0.155 -0.0928 -0.107
-0.0553  0.509  0.226
 0.150 -0.0163 -0.107
-0.0794  0.113 -0.374
 0.228  0.341  0.186
-0.0938  0.113 -0.288
 0.219  0.113 -0.144
 0.161 0.0195 0.00526
-0.127  0.317  0.226
-0.0187 -0.885 -0.401
-0.161  0.113  0.202
0.00522  0.688  0.225
0.0184 -0.0200 -0.150
-0.0794  0.365  0.186
0.00713 -0.510 -0.373
-0.0890 0.0195 -0.259
0.0264  0.466  0.186
-0.113 0.0195 0.0245
-0.214  0.423  0.226
-0.0602  0.715  0.189
-0.0505  0.408  0.226
 0.261  0.413  0.232
 0.314 -0.818 -0.0680
-0.204  0.505  0.226
 0.327 0.0719 -0.181
-0.200 0.0195 -0.0716
-0.00247  0.615  0.226
 0.233 0.0195 0.0773
0.0888  0.625  0.226
 0.210 0.0655  0.193
 0.175  0.495  0.186
-0.00248  0.538  0.226
-0.0217  0.113 -0.384
 0.111 0.0820 -0.400
 0.195  0.113 -0.312
-0.251  0.380  0.186
0.0592 -0.0321 -0.0705
-0.211  0.281  0.224
-0.0457  0.307  0.186
0.0648 0.0195 -0.0284
-0.0698  0.113 -0.105
0.0408  0.605  0.186
 0.204  0.418  0.226
-0.204  0.577  0.186
-0.0169 -0.751  0.130
0.0119 -0.589  0.187
0.0840  0.485  0.186
-0.126 -0.110 -0.0703
-0.282 -0.845 -0.0530
0.0119  0.288  0.226
0.0504  0.113 -0.201
0.0216  0.394  0.226
 0.113  0.548  0.226
0.0888  0.113  0.174
 0.295 0.0195 -0.129
-0.291 0.0195 0.0534
-0.0885  0.214  0.225
 0.195  0.113  0.149
0.0167 0.0195 -0.240
0.0264 0.0195 0.0918
-0.195  0.113 -0.0380
0.0600 0.0195  0.135
-0.209  0.466  0.186
 0.142  0.113 -0.0716
 0.295  0.113 -0.0813
-0.284 -0.576 -0.109
-0.123  0.274  0.186
-0.141  0.759  0.210
-0.127  0.351  0.186
-0.0457  0.113 -0.0236
-0.0698 0.0195 -0.379
 0.209  0.490  0.226
-0.0213 -0.0960 0.0718
-0.0409  0.113 -0.283
 0.238  0.113 -0.0764
 0.214  0.113 -0.0140
-0.239 -0.312 -0.109
0.0937  0.399  0.186
 0.147  0.298  0.226
 0.161  0.442  0.186
 0.132  0.365  0.186
-0.0677 -0.144 -0.0206
 0.201 -0.847 0.0786
-0.0457  0.538  0.186
-0.309  0.110 0.0624
0.0736  0.806  0.215
-0.272 -0.784 -0.110
0.0476  0.201  0.224
 0.272  0.439  0.189
0.0456  0.740  0.216
 0.221  0.280  0.198
-0.0199 -0.822 -0.297
-0.320 0.0671 0.0351
0.0360  0.226  0.186
0.00233 0.0195 -0.0476
-0.0202 -0.373  0.176
0.00216 0.0242  0.266
 0.272  0.113 -0.240
0.0176 -0.654  0.170
-0.292 -0.519 -0.105
 0.268 -0.368 -0.0695
 0.282 -0.452 -0.0696
-0.306 0.0508 -0.222
-0.0202 -0.423  0.195
0.0296 -0.146 0.000108
0.0744  0.113  0.217
-0.151  0.399  0.226
-0.0217  0.774  0.180
0.0119 0.0195 -0.100
-0.00729  0.113  0.202
-0.204 0.0195 0.0245
-0.325 -0.849 -0.108
-0.222 0.0671 -0.334
 0.142  0.751  0.213
-0.103 0.0195  0.193
-0.296  0.113 -0.0284
 0.190  0.113 -0.230
 0.175 0.0195 -0.298
-0.0938  0.113  0.135
 0.233 -0.707 -0.0680
-0.00549 0.0591 -0.418
-0.0903 -0.154 -0.130
 0.226 -0.296 -0.107
-0.0190 -0.816 -0.399
 0.235  0.566  0.187
-0.0936 -0.169 -0.0691
-0.0457  0.630  0.186
 0.164  0.675  0.180
-0.162  0.806  0.178
-0.0794  0.332  0.226
 0.147  0.605  0.186
 0.340 0.0479 -0.119
-0.0885 0.0575 -0.407
-0.278 0.0671  0.118
0.0739 -0.817 -0.359
-0.204  0.380  0.226
-0.281 0.0195 0.0101
-0.339 0.0572 -0.0964
 0.161  0.630  0.227
0.0119  0.346  0.226
0.0264  0.543  0.186
-0.176  0.113 0.0485
-0.115  0.224  0.187
-0.161  0.567  0.186
 0.118  0.769  0.180
-0.0457 0.0195 -0.173
 0.113  0.113 0.0918
0.0119 -0.855 -0.354
 0.258 -0.804 -0.106
 0.234 -0.819 0.0199
 0.345 0.0671 -0.0763
-0.298 -0.920 -0.0720
-0.248  0.349  0.229
0.0456 0.0195  0.255
 0.170 -0.848 -0.307
-0.185 -0.241 -0.0693
-0.0602 -0.848  0.183
-0.163 0.0210 -0.376
 0.174 0.0257  0.219
 0.287 -0.505 -0.0680
 0.152  0.111  0.230
 0.175 0.0195 -0.221
 0.233 0.0195 -0.0716
-0.0169 0.0195 0.0966
 0.283 -0.529 -0.105
 0.175  0.279  0.186
 0.122  0.457  0.226
-0.337 0.0211 -0.0605
-0.00240  0.818  0.193
-0.0217  0.351  0.186
0.00714  0.490  0.226
-0.194  0.706  0.184
-0.0986 0.0195 -0.216
-0.171 0.0195  0.154
0.0648 0.0195 0.0197
 0.252 0.0196  0.145
-0.0603 -0.0929 -0.0957
0.0166 -0.293  0.144
-0.299  0.112 -0.234
 0.108 0.0195 0.0822
 0.161  0.380  0.226
 0.262 0.0195 -0.221
-0.204  0.327  0.226
0.0264  0.113 -0.105
0.0456  0.113 0.000461
0.0692 -0.0143 -0.109
-0.290 0.0197 0.0963
 0.151 0.0195 0.0966
-0.151 0.0195  0.106
 0.262  0.113 -0.177
0.0502  0.681  0.226
-0.260 -0.819 0.0282
 0.195  0.322  0.226
-0.149 -0.0141 -0.107
-0.0421  0.683  0.225
0.0724 -0.129 -0.0307
 0.261  0.371  0.226
0.0195 -0.899 -0.317
0.0181 -0.0692 -0.248
-0.0986  0.750  0.180
-0.0220 -0.668  0.164
-0.259 0.0640 -0.295
 0.175 -0.241 -0.0694
-0.256 -0.845 -0.211
 0.229  0.779  0.221
0.0910  0.674  0.220
0.0833 -0.160 -0.0696
 0.171 0.0195 -0.370
 0.103  0.639  0.186
-0.0584 -0.153 -0.166
 0.258 -0.817 -0.0427
-0.128 -0.816  0.145
-0.262 -0.366 -0.105
-0.211 -0.803 -0.0706
-0.219 0.0195  0.145
-0.0209 -0.0771 -0.192
-0.155 -0.820 -0.296
-0.170  0.627  0.225
-0.0409  0.113 0.0726
 0.147  0.113 -0.211
-0.113  0.562  0.186
 0.257  0.113 0.0101
-0.307 -0.899 -0.108
-0.0746  0.413  0.186
-0.190  0.274  0.189
 0.209 0.0195 -0.158
-0.102 0.0527  0.248
-0.0698  0.596  0.226
-0.127  0.601  0.226
-0.166  0.452  0.186
0.0744  0.113 -0.249
-0.0698 0.0195  0.222
0.0648  0.113 0.0870
-0.238  0.113 0.0966
 0.122 0.0195  0.193
0.0312 0.0195 -0.158
0.00234  0.432  0.186
0.0696  0.250  0.226
 0.228 0.0195 -0.302
0.0648  0.529  0.226
 0.151 0.0195 -0.0476
-0.0209 -0.130 -0.162
-0.0184 -0.928 -0.371
0.0179 -0.188 -0.201
-0.0505  0.457  0.226
 0.244 0.0655  0.166
0.0151 -0.443  0.199
-0.165 0.0209  0.221
-0.0217  0.113 0.0101
-0.253  0.432  0.230
-0.0585 -0.0387 -0.108
-0.127 0.0195 -0.129
0.00233 0.0195 -0.360
0.0360 0.0195  0.174
-0.132  0.113 -0.0380
 0.154  0.701  0.211
-0.281  0.113 0.0293
-0.262 -0.817 -0.139
 0.171 -0.848  0.112
-0.285 -0.433 -0.0704
 0.199 -0.845 -0.249
0.0160 -0.800 -0.387
0.0552  0.722  0.181
-0.142  0.721  0.179
-0.0986  0.666  0.225
-0.240 -0.701 -0.105
0.0178 -0.261  0.110
-0.320 -0.837 -0.0704
 0.228  0.711  0.188
-0.206  0.607  0.220
-0.00728  0.615  0.186
0.0792  0.346  0.226
0.0888  0.755  0.216
 0.209 -0.779 -0.108
0.0192 -0.418 -0.369
-0.200 -0.848 -0.264
 0.313 0.0816 0.0621
-0.100 -0.185 -0.107
-0.0698  0.779  0.180
 0.229 -0.816 -0.211
0.0187 -0.236 -0.268
-0.0667 -0.0111 -0.0695
 0.200 -0.264 -0.106
-0.288 -0.455 -0.108
 0.271  0.113  0.125
-0.00229 -0.154 -0.214
 0.223  0.413  0.186
-0.171  0.113  0.149
-0.228  0.113 -0.163
-0.137 0.0195 -0.0380
0.00233  0.113 -0.293
-0.0553  0.269  0.186
0.0456  0.113  0.149
-0.185  0.113 -0.249
0.0312  0.755  0.180
-0.102 -0.0635 -0.0725
-0.255 -0.850 -0.0812
-0.237 -0.909 -0.110
0.0504 -0.149 -0.168
-0.0217  0.715  0.198
 0.204  0.557  0.226
-0.192 -0.845  0.123
-0.0204 -0.894  0.219
0.0841 -0.817  0.164
-0.256  0.476  0.186
 0.156  0.237  0.222
0.0174 -0.207 0.0494
0.0182 -0.0769 0.0160
 0.233 -0.309 -0.0709
0.0168  0.113  0.246
0.0178 -0.314 -0.333
 0.204  0.604  0.187
 0.108  0.231  0.186
 0.226 -0.902 -0.107
-0.0265  0.788  0.216
 0.305  0.113 -0.0428
-0.0199 -0.809  0.219
0.00750 -0.810  0.159
0.0656 -0.0872 -0.0724
0.0981  0.809  0.186
-0.176 0.0195 -0.192
 0.276  0.110 -0.278
-0.267 0.0195 -0.134
-0.0746 0.0195 0.0197
-0.0205 -0.289 -0.316
 0.127  0.113 -0.274
0.0840  0.586  0.226
-0.0191 -0.758 -0.304
-0.315 0.0195 -0.149
-0.219 0.0195 -0.105
0.0744  0.437  0.186
-0.233  0.113 -0.125
-0.0890  0.452  0.186
-0.00729 -0.815 -0.350
 0.228  0.457  0.226
-0.209 0.0195 -0.307
-0.243  0.113 -0.274
-0.0121 0.0195 -0.307
-0.137  0.113 0.0293
-0.0650  0.668  0.186
-0.0169  0.389  0.226
-0.113  0.113  0.193
-0.132  0.457  0.226
 0.118  0.317  0.186
0.0552 -0.848 -0.346
-0.126 -0.149 -0.0577
 0.273 -0.602 -0.0693
0.0178 -0.0400 -0.0229
-0.0137 -0.0360 0.0782
-0.336  0.112 -0.100
0.0197 -0.885 -0.404
0.0311  0.682  0.186
-0.0505  0.370  0.226
-0.0265  0.231  0.186
-0.0890 0.0195  0.125
 0.108 0.0195 -0.274
-0.157  0.109 -0.379
 0.239  0.731  0.221
0.0740 0.0912 -0.410
-0.0986  0.113 0.0293
-0.0188 -0.883 -0.314
0.0264 0.0195 0.0534
-0.199 0.0575  0.197
-0.101 -0.846 -0.326
 0.163 -0.0525 -0.108
0.0173 -0.732  0.136
 0.175  0.241  0.189
-0.241  0.513  0.227
-0.331 0.0768 8.94e-05
 0.195 0.0195  0.159
0.0192 -0.611 -0.361
 0.129 -0.209 -0.108
-0.0553 -0.817 -0.362
-0.200 -0.847 0.0833
-0.00247 0.00940 0.0211
-0.0118 -0.000507 -0.225
-0.239 -0.301 -0.0728
-0.224 -0.818 -0.260
 0.302 0.0527 0.0858
-0.0200 -0.104 -0.0187
 0.340 0.0287 -0.0386
0.0937 0.0144 -0.109
-0.286 -0.779 -0.0726
 0.108 0.0195 -0.379
-0.151  0.113 -0.317
 0.190  0.113 0.0149
 0.257 0.0195 -0.0428
 0.269 -0.371 -0.107
 0.191  0.712  0.184
-0.0265  0.113 -0.125
-0.0698  0.485  0.186
-0.0409 0.0195 -0.120
 0.124 0.0560  0.241
 0.286 0.0195 0.0629
-0.166  0.543  0.226
-0.243 0.0195 -0.269
 0.113  0.113  0.202
0.0552  0.113 -0.350
0.0840 0.0195 -0.187
-0.142 0.0195 0.000461
 0.150 -0.0162 -0.0694
-0.166 0.0195 -0.312
-0.0213 -0.172 0.00640
-0.246  0.113  0.158
 0.281 -0.923 -0.0677
 0.108 -0.0963 -0.108
-0.161 -0.0545 -0.105
 0.247 -0.839 -0.0989
 0.186 0.0532 -0.365
-0.0214 -0.783  0.184
-0.0796  0.812  0.207
0.00229 -0.154 0.0338
 0.251 -0.817 -0.146
 0.329 0.0195 0.00526
 0.302 0.0480 -0.243
-0.258 -0.848 -0.158
-0.156 -0.218 -0.0701
0.0792  0.113 0.0245
 0.103 -0.0937 -0.0712
 0.103  0.735  0.180
 0.127  0.113 -0.0332
-0.0169 0.0195  0.207
-0.0505  0.240  0.226
0.0937  0.113 -0.336
0.0744 0.0195  0.101
 0.147  0.113 -0.125
 0.291  0.113 -0.00434
 0.122  0.269  0.226
 0.147 0.0195  0.145
 0.195  0.356  0.186
-0.209 0.0195 0.0773
 0.238  0.113 0.0773
-0.0201 -0.567 -0.371
-0.236  0.552  0.189
0.0769 -0.144 -0.141
 0.146 -0.847  0.153
-0.250 -0.929 -0.0812
-0.294  0.110 0.0956
-0.0189 -0.379 -0.354
-0.113  0.793  0.216
 0.315 -0.865 -0.0716
-0.136 -0.847  0.163
-0.139  0.650  0.189
 0.261 -0.639 -0.107
-0.0212 -0.923  0.161
 0.282 -0.832 -0.0863
0.00713  0.730  0.216
-0.181  0.722  0.214
 0.229  0.790  0.187
 0.328 0.0640 0.0251
-0.00409 -0.688 -0.335
-0.332 0.0527 -0.143
-0.131 -0.817 -0.337
 0.221 -0.819 0.0854
 0.316 -0.891 -0.106
 0.253  0.536  0.194
-0.0197 -0.223 0.0759
0.0504  0.778  0.216
-0.116 -0.127 -0.138
-0.320 0.0747 -0.189
0.0189 -0.107 -0.236
 0.195  0.620  0.222
-0.0895 -0.131 -0.0532
 0.256 -0.847 0.0240
 0.163 -0.0906 -0.0723
-0.173 -0.819  0.109
0.0863 0.0843  0.256
-0.245 -0.819 0.0603
 0.335 0.0912 -0.153
-0.136 -0.205 -0.107
-0.175 -0.848 -0.302
 0.315 0.0527 -0.208
-0.113  0.351  0.226
-0.204  0.113 0.0870
0.0456  0.113 -0.403
0.0155 -0.152 -0.166
 0.122  0.113 0.00526
 0.305 0.0195 -0.0476
-0.142  0.113  0.125
-0.103  0.529  0.226
-0.252 0.0195 0.0870
 0.223 0.0195 0.0437
-0.257 0.0195 -0.206
-0.0121  0.529  0.186
0.0408  0.274  0.186
0.0600  0.375  0.186
-0.0121  0.572  0.226
-0.163 -0.819  0.146
 0.108  0.303  0.226
 0.247 0.0195 -0.254
-0.219  0.113 0.0485
 0.127  0.567  0.186
 0.103  0.113 -0.144
 0.283 -0.447 -0.108
 0.237 -0.845 -0.185
 0.143  0.201  0.219
-0.0746 -0.816  0.178
0.0155 0.0291 -0.418
0.0185 -0.0150 -0.244
0.0192 -0.712 -0.318
 0.233 0.0195  0.116
-0.228  0.408  0.186
-0.0600 0.0383 -0.412
-0.234  0.728  0.191
 0.219  0.113 -0.105
-0.0554  0.113  0.236
-0.0121  0.113 -0.254
0.0216  0.113 0.0678
0.0888 0.0195  0.231
-0.200  0.307  0.186
-0.0602 0.0195 -0.293
-0.123  0.418  0.226
 0.175  0.113 -0.341
0.0504  0.418  0.226
-0.204  0.533  0.186
-0.0505  0.307  0.226
 0.219 0.0195 -0.105
0.0312  0.317  0.226
-0.149  0.800  0.209
-0.269 -0.638 -0.0728
 0.147  0.476  0.186
 0.161  0.798  0.211
-0.0167 -0.837  0.196
 0.122  0.723  0.215
-0.320 0.0195 -0.0188
 0.121 -0.154 -0.110
-0.0193 -0.252 0.0997
 0.250 -0.800 -0.0722
-0.329  0.105 -0.164
-0.255 -0.817 -0.0201
 0.230 -0.817 -0.248
 0.122 -0.817  0.154
-0.237  0.347  0.186
-0.174  0.652  0.193
0.0161 -0.927 -0.336
-0.208  0.104 -0.344
-0.0265 -0.127 0.0149
-0.272 0.0367 -0.279
0.0247  0.810  0.215
0.0172 -0.113 0.0640
-0.211 -0.818 0.0683
0.0840 0.0195  0.164
-0.138  0.197  0.185
0.0174 -0.833  0.123
-0.0169 -0.510  0.203
 0.168  0.659  0.210
0.0312 -0.127 -0.187
-0.195  0.113 -0.139
 0.185 0.0195 -0.0188
-0.151  0.113 -0.129
0.0119 0.0195 -0.283
-0.0890  0.279  0.186
 0.310  0.113 -0.125
0.0648  0.312  0.186
-0.0169  0.113 -0.0524
-0.0191 -0.890  0.133
-0.0938 0.0195 -0.346
 0.233  0.375  0.186
 0.147  0.553  0.226
 0.161  0.336  0.226
 0.118 0.0195 -0.230
-0.180  0.418  0.226
0.0456  0.605  0.226
-0.262 0.0195 -0.0524
-0.0409  0.596  0.186
 0.108  0.113 -0.0764
-0.0121  0.113  0.106
0.0312  0.509  0.186
-0.220  0.779  0.220
-0.161  0.389  0.186
-0.147  0.113 -0.177
 0.180 0.0195 -0.259
-0.219  0.113 -0.206
-0.233  0.113 -0.0284
-0.0794 0.0195  0.159
-0.0152 -0.0147 -0.150
 0.226 0.0723 -0.334
0.0744 -0.848  0.174
 0.151  0.303  0.186
-0.113 0.0198 -0.0620
-0.161  0.245  0.224
 0.305 0.0195 0.0293
 0.150  0.761  0.176
0.0174 -0.481  0.198
 0.333 0.0196 -0.139
-0.0191 -0.534 -0.373
-0.0121  0.307  0.186
-0.0215 0.0480  0.263
-0.0313 0.0195 -0.0476
-0.248 -0.817 -0.227
 0.195  0.288  0.226
 0.166  0.432  0.226
-0.0842  0.735  0.216
-0.127  0.317  0.186
-0.329  0.113 -0.0284
-0.0217  0.113 -0.350
 0.147  0.639  0.186
-0.0698 -0.127 -0.187
 0.242 -0.927 -0.0780
0.0190 -0.786 -0.352
-0.200  0.803  0.185
 0.118  0.113  0.125
 0.296 -0.788 -0.105
 0.109 -0.822 -0.346
-0.0959  0.111 -0.404
0.0878  0.209  0.222
0.0119 -0.812 -0.293
0.0781 -0.00460 -0.0697
-0.0821 -0.847 -0.357
 0.103 -0.127 -0.0572
-0.278 -0.608 -0.108
-0.181  0.758  0.214
-0.161 0.0195  0.188
0.0181 -0.0291 0.0720
-0.0879 -0.153 0.00438
-0.0211 -0.0721 -0.0273
-0.0197 -0.121 0.0498
-0.242 0.0335  0.163
-0.0169 -0.783  0.124
0.0407 -0.127 0.0243
 0.285 -0.572 -0.0955
-0.269 -0.366 -0.0707
-0.0776 -0.129 -0.147
 0.229 0.0387 -0.331
 0.216 -0.861 -0.0725
-0.250 -0.832 -0.108
 0.257 0.0931  0.150
-0.310  0.113 -0.120
-0.103 -0.127 -0.0909
 0.314  0.113 0.0528
-0.0265 0.0195 -0.379
0.0175 -0.620  0.181
0.0211 -0.817  0.192
0.0169 -0.684  0.153
 0.340 0.0671 -0.0385
-0.108  0.634  0.226
-0.0431  0.113 -0.413
-0.285 -0.505 -0.0727
-0.140 0.0673  0.233
-0.284 -0.819 -0.105
0.0451 0.0816  0.261
-0.293 0.0496 -0.252
0.0119  0.336  0.186
-0.0650 0.0195 0.0966
-0.286 0.0195 -0.0813
 0.127  0.113 -0.365
 0.166  0.113  0.174
 0.243 0.0195 -0.163
 0.132  0.615  0.226
 0.137  0.245  0.186
0.0360  0.113 -0.0332
-0.272  0.113 -0.0524
-0.0217  0.471  0.226
0.0985 0.0195 0.0101
-0.0265 0.0195  0.169
-0.0746 0.0195 -0.187
0.0168  0.783  0.180
-0.113 0.0195 -0.0140
0.0840 0.0195 -0.245
-0.142  0.572  0.226
 0.151  0.495  0.226
 0.113  0.113 -0.394
 0.252  0.113 -0.211
-0.142 0.0195 0.0726
0.0157 -0.0771 -0.152
-0.129  0.125  0.219
0.0103 -0.363  0.179
0.0559 0.0387 -0.413
 0.233  0.399  0.226
-0.00689 -0.350 -0.351
-0.237 -0.822 -0.198
-0.200 0.0511 -0.350
 0.257  0.356  0.197
-0.113  0.113 -0.370
 0.309 -0.820 -0.0993
-0.222 -0.875 -0.109
 0.286  0.113 -0.201
 0.142 -0.848 -0.326
 0.114 0.0435 -0.399
-0.0232 0.0181 -0.198
 0.275 -0.845 -0.0333
-0.0707 -0.109 -0.0706
-0.234 -0.845 0.0744
 0.249 -0.681 -0.0765
-0.0650 0.0195 -0.0861
-0.0199 -0.788 -0.297
-0.0165 -0.263 -0.298
-0.215 -0.750 -0.109
-0.0189 -0.637 -0.357
 0.227  0.309  0.187
-0.311 0.0431 0.0558
-0.303 0.0816 -0.229
0.0185 -0.481 -0.378
0.0153 -0.910  0.208
-0.0117 -0.195 -0.210
 0.225  0.112 -0.334
-0.222 -0.870 -0.0765
 0.204 0.0351  0.197
-0.194 -0.246 -0.105
 0.335 0.0960 -0.00489
0.0796 -0.154 -0.106
 0.196  0.809  0.181
 0.299 -0.917 -0.0957
0.00712 -0.851  0.235
 0.219  0.524  0.226
0.0154 -0.112 -0.0168
0.0792 -0.154 -0.00915
 0.178 0.0912 -0.371
-0.00769 -0.0964 0.0157
 0.151  0.341  0.186
 0.132 0.0195 -0.360
-0.228 0.0195  0.106
-0.118  0.113 -0.249
 0.195  0.428  0.186
-0.0938 0.0195 0.0485
 0.238  0.471  0.186
-0.233 0.0195 -0.235
0.0985  0.514  0.186
-0.0457  0.113  0.164
-0.0361 0.0195 -0.240
-0.262  0.113 -0.100
 0.144  0.124  0.192
0.0215  0.586  0.226
 0.189  0.745  0.181
0.0264  0.113 -0.182
-0.0121 0.0195 -0.0188
0.0168  0.639  0.186
0.0840  0.481  0.226
-0.276 0.0195 -0.0236
-0.0313  0.678  0.186
0.0360 0.0195 -0.120
0.0937  0.298  0.186
-0.123  0.245  0.226
-0.186 0.0960  0.207
-0.0746  0.113 0.0966
-0.0698  0.113 -0.153
-0.113 0.0195 -0.293
-0.276  0.113 -0.173
-0.0457  0.207  0.186
-0.0217  0.423  0.226
 0.103 0.0195 -0.0524
-0.147  0.751  0.180
-0.165 -0.0673 -0.0693
 0.102  0.670  0.189
 0.323  0.112 -0.187
 0.105 -0.191 -0.0735
-0.0170 -0.597  0.192
-0.0800  0.113  0.254
-0.161  0.283  0.186
-0.00247  0.658  0.226
-0.0196 -0.109 -0.228
-0.118  0.389  0.186
-0.286  0.113 -0.206
-0.252 0.0195 0.0245
-0.200  0.113  0.159
-0.158 -0.103 -0.0701
 0.252 0.0195 0.000461
-0.0601  0.750  0.180
 0.257 0.0195 -0.293
 0.161  0.557  0.186
-0.290 -0.486 -0.109
0.0504  0.452  0.226
-0.0794  0.298  0.226
-0.00728  0.264  0.226
0.00714  0.389  0.186
-0.224 0.0195 -0.00435
0.0504  0.113 -0.312
-0.0161 -0.221 -0.251
-0.0169  0.298  0.226
 0.151  0.113 0.0149
 0.124 -0.125 -0.101
-0.204  0.572  0.226
-0.166  0.485  0.186
-0.108 0.0195 -0.187
-0.108  0.113 -0.182
 0.156 0.0195 0.0534
 0.185  0.360  0.226
0.0360  0.113 -0.283
-0.0313  0.113 -0.206
-0.0192 -0.861  0.124
-0.132 0.0195  0.202
-0.103  0.113  0.106
-0.123 0.0195  0.116
0.0985 0.0195 0.0534
-0.0698  0.113 -0.201
0.0985  0.557  0.186
-0.200  0.495  0.186
-0.281  0.113 -0.259
-0.262  0.408  0.209
-0.340 0.0864 -0.0856
 0.229 -0.722 -0.106
-0.337 0.0864 -0.0431
 0.144  0.183  0.186
 0.257 0.0864 -0.303
-0.256 -0.673 -0.101
 0.302  0.110 -0.243
-0.0508 0.0529  0.259
0.00754 -0.557  0.193
-0.0105 -0.834  0.158
-0.241 -0.841 0.0159
-0.0191 -0.495 -0.373
-0.204  0.699  0.212
-0.176  0.601  0.186
0.0456  0.231  0.226
0.0828 0.0628 -0.409
 0.315 0.0195 -0.0909
0.00553 -0.164 -0.00314
 0.329  0.113 -0.0716
 0.213 -0.770 -0.0724
-0.225 0.0256 -0.332
 0.135 0.0112 -0.100
-0.117 -0.106 -0.109
-0.192 0.0832 -0.356
-0.0718  0.678  0.221
0.0602 -0.0963 -0.100
-0.228  0.476  0.226
 0.251 -0.332 -0.0685
 0.130  0.804  0.189
-0.132  0.274  0.226
 0.180  0.524  0.186
 0.161  0.113 -0.298
 0.195  0.113 -0.259
 0.142  0.113 0.0534
 0.151  0.113 -0.240
0.00392 -0.740 -0.303
 0.171  0.113 -0.0764
-0.0121 0.0195 0.0534
0.0312 0.0195 0.0245
-0.200  0.457  0.226
-0.0974 -0.818  0.154
 0.220 -0.872 -0.101
 0.300 0.0195 -0.163
 0.113  0.481  0.186
 0.203 -0.817 -0.0957
0.0181 -0.447 -0.376
-0.300  0.113 0.000461
0.0552 0.0195 -0.322
0.0456 0.0195 -0.350
 0.228 0.0195 -0.0380
-0.0313  0.649  0.226
-0.0602 0.0195 -0.0572
0.0888  0.113 -0.0476
0.0792  0.113 -0.206
-0.0361  0.113  0.193
0.00219  0.686  0.186
-0.0505  0.113 -0.0620
-0.0505  0.356  0.186
0.0600 0.0195 -0.384
-0.0890  0.113  0.164
-0.166  0.490  0.226
 0.137 0.0195 -0.283
 0.209 0.0195 -0.235
-0.166 0.0195 -0.264
0.0985 0.0195 -0.322
-0.176  0.113  0.121
 0.147 0.0195 -0.225
 0.267  0.113 -0.0716
-0.0265  0.428  0.186
-0.200  0.533  0.226
-0.123  0.509  0.186
 0.118  0.113 -0.206
-0.0164 -0.00840 -0.0113
 0.161 -0.827 -0.288
-0.0986 0.0195  0.241
-0.311 0.0256 -0.209
 0.207 -0.841 -0.277
-0.207 -0.822 -0.108
 0.286 0.0463  0.112
 0.246  0.345  0.230
-0.0166 -0.0675 0.0727
-0.339 0.0527 -0.0620
 0.223 0.0195  0.145
 0.122  0.586  0.226
 0.171 0.0195 -0.336
-0.190 0.0195 -0.153
-0.0746  0.615  0.186
-0.283 -0.548 -0.100
-0.286 -0.841 -0.0813
-0.0209 -0.0578 -0.253
 0.213 0.0976  0.191
-0.0142 0.0770  0.265
-0.176  0.113 -0.0764
-0.0746  0.567  0.226
-0.233 0.0195 -0.0620
-0.0169  0.231  0.226
-0.176 0.0195 0.000461
 0.190 0.0195 -0.0909
0.0456 0.0195  0.222
-0.0794  0.408  0.226
-0.0746  0.113 -0.0236
-0.233  0.113 -0.0957
 0.169 -0.832  0.137
0.00713  0.113 0.0101
0.0589 -0.128 -0.200
 0.180  0.586  0.226
-0.156  0.418  0.186
0.0264 0.0195  0.121
 0.156  0.113  0.130
 0.195  0.113 -0.168
0.0985  0.113 -0.274
-0.0890 -0.127 -0.00916
-0.0165 -0.0909 -0.147
-0.113  0.759  0.216
0.0643 -0.822  0.189
-0.217 -0.764 -0.0728
-0.147  0.697  0.211
-0.242 0.0560 -0.317
-0.234 -0.714 -0.0796
-0.0165 -0.865  0.227
0.00241 -0.131 0.00569
0.0259 -0.845  0.194
 0.193 -0.818 0.0849
 0.114 -0.832 -0.319
0.0309  0.199  0.193
-0.127 0.00595 -0.104
0.0648  0.231  0.186
0.000152  0.196  0.215
-0.340 0.0216 -0.0885
 0.276 0.0479 -0.278
 0.272 -0.627 -0.0813
-0.213 0.0816  0.186
0.00146 -0.831 -0.371
-0.155  0.667  0.213
-0.113 0.0195 -0.240
0.0985  0.370  0.186
0.0168  0.113  0.217
-0.263 0.0527  0.137
 0.161 0.0195 -0.139
0.0456  0.779  0.180
-0.296 0.0195 -0.125
0.0408  0.341  0.186
-0.0505 0.0195 -0.322
0.00233 0.0195 -0.331
 0.161  0.274  0.226
 0.113  0.365  0.226
 0.286 0.0195 -0.201
 0.262 0.0195 0.0773
-0.137  0.113 0.0629
-0.190  0.336  0.186
 0.185  0.394  0.226
-0.0986  0.432  0.226
-0.259 -0.339 -0.100
 0.137 0.0207 -0.388
0.0465 -0.847  0.170
-0.0842  0.113 -0.235
-0.0890  0.548  0.186
0.0360  0.360  0.226
0.0264 0.0195 -0.0332
-0.0457  0.384  0.186
 0.156  0.113 -0.0476
 0.209  0.113 0.0870
-0.276  0.113 0.0726
0.0600 0.0195 -0.173
-0.00729 0.0195 -0.254
-0.0505 0.0195 0.0341
 0.262 0.0195 -0.100
0.0600  0.113  0.174
-0.315  0.113 -0.0764
0.0840 0.0195 -0.298
-0.222 -0.722 -0.105
-0.233 0.0195 -0.177
 0.300 0.0257 0.0927
0.0456  0.293  0.226
-0.127  0.113 -0.115
-0.243 0.0195 -0.120
-0.296  0.113 -0.149
0.0264  0.113 -0.355
-0.233  0.113 0.0101
 0.175 0.0195 0.0773
 0.195  0.113 0.0629
-0.142  0.341  0.226
0.0985  0.113 0.0629
 0.147 0.0195 -0.163
 0.286  0.113 0.0773
 0.211 -0.826 0.0602
-0.103 -0.0937 -0.0726
0.00713 -0.259 -0.284
-0.185  0.255  0.215
 0.147 0.0195 -0.0764
-0.222  0.294  0.196
-0.145 -0.114 -0.109
0.0840 -0.154 -0.168
0.00274 -0.808  0.115
0.000728 0.00690 -0.166
-0.305 0.0195 0.0293
-0.0842  0.726  0.180
 0.246 -0.847 -0.00681
-0.267  0.107 -0.284
-0.113 0.0480 -0.397
-0.257  0.495  0.207
-0.0168  0.106 -0.417
 0.108 -0.154 -0.0572
0.0598 0.0575  0.259
-0.152  0.782  0.186
 0.199 -0.848  0.106
0.0195 -0.835  0.168
-0.0196 -0.667 -0.344
0.0504  0.715  0.207
-0.255 0.0816  0.148
 0.271  0.436  0.222
 0.207 0.0527 -0.348
0.0581 -0.0391 -0.105
 0.104 -0.0676 -0.108
-0.0507 -0.819  0.191
-0.00729 0.0195  0.241
-0.0643 -0.0626 -0.0957
-0.277 -0.392 -0.0728
 0.247  0.428  0.186
 0.171  0.586  0.186
-0.180  0.113  0.183
-0.214  0.113 -0.274
-0.190 0.0195 0.0581
-0.267  0.113 -0.225
-0.214  0.113 -0.312
 0.214  0.113 -0.293
0.00714  0.485  0.186
0.0840  0.548  0.226
-0.0554  0.730  0.216
0.0552  0.113 -0.230
-0.0890  0.113 -0.0861
 0.122  0.113 -0.163
-0.171 0.0195 -0.134
0.0216  0.586  0.186
-0.0986  0.113 -0.0380
-0.0794  0.113 0.0101
0.0360 0.0195 -0.192
-0.176 0.0195 0.0918
 0.114 -0.152 -0.140
-0.137  0.126  0.189
 0.134 0.0912 -0.390
 0.247 -0.817 -0.00822
 0.283 -0.425 -0.0695
-0.0462 -0.128 -0.00369
-0.190  0.298  0.226
-0.141  0.237  0.207
 0.270  0.413  0.203
-0.211 -0.841 -0.0699
 0.243 -0.923 -0.107
-0.0194 -0.859  0.172
 0.241  0.562  0.213
-0.0657 -0.827 -0.340
 0.253 -0.837 -0.205
-0.118 -0.154 -0.0861
0.0523 -0.138 -0.0117
 0.334 0.0527 -0.164
 0.249  0.328  0.207
0.0785 -0.845 -0.358
0.0213 -0.140 -0.214
0.00232 -0.787  0.172
-0.0344 -0.149 0.0344
-0.0121 -0.833  0.233
-0.0265 -0.154 -0.192
-0.104 -0.845  0.151
0.0696 0.0195 -0.0620
 0.250  0.507  0.227
-0.126  0.177  0.215
 0.182 -0.248 -0.0945
 0.103 -0.154 -0.0861
-0.259 -0.832 -0.0522
-0.0310 0.0527 -0.415
 0.329  0.113 -0.0284
 0.289 -0.478 -0.0694
-0.0409  0.793  0.180
0.0396 -0.841 -0.366
 0.233  0.113  0.145
 0.204 -0.824 -0.0690
-0.0650  0.113 -0.398
 0.203  0.112 -0.350
-0.257  0.375  0.211
-0.129 -0.832 -0.315
-0.332 0.0480 -0.00938
-0.0190 -0.792 -0.345
-0.286 -0.578 -0.0829
-0.230  0.322  0.230
0.00715 -0.924  0.178
-0.179 -0.833 -0.278
 0.268  0.479  0.206
-0.329  0.113 -0.139
-0.157 -0.0126 -0.0764
 0.237 -0.819 -0.185
-0.113 -0.154 -0.0332
-0.0192 -0.101 -0.203
 0.141  0.176  0.212
 0.278 -0.817 -0.0594
-0.279 -0.432 -0.0957
-0.0966 -0.154 -0.105
0.0984 -0.127 -0.0236
 0.219  0.332  0.226
 0.103 -0.127 -0.153
 0.199 0.0195 -0.288
-0.137 0.0195 -0.197
 0.199 0.0195 0.0293
-0.0698  0.113 0.0629
-0.0698  0.113 -0.298
-0.200 0.0195 -0.182
 0.156  0.408  0.226
-0.0977  0.809  0.189
 0.195  0.113 -0.134
-0.00728  0.322  0.226
0.0168  0.466  0.226
 0.118  0.408  0.186
0.0600  0.113  0.116
-0.103  0.485  0.226
0.0189 -0.346 -0.346
-0.127  0.543  0.226
-0.214 0.0195 0.0485
 0.199  0.466  0.226
 0.156  0.384  0.186
-0.0890  0.240  0.186
 0.272 0.0195 -0.245
 0.246 -0.817 0.0428
0.00713  0.113 -0.0620
0.0103 -0.584 -0.365
0.00713  0.113 -0.129
-0.0986  0.423  0.186
-0.0265  0.113 -0.163
-0.204  0.113 -0.0620
0.0696  0.113 -0.168
-0.156 0.0195 -0.105
 0.253 -0.664 -0.108
-0.156 0.0195 -0.0572
-0.276 -0.931 -0.0812
 0.276 -0.822 -0.139
-0.0313  0.500  0.226
0.0840 0.0195  0.125
-0.204  0.113 -0.0140
 0.257  0.113 -0.0957
-0.0121 -0.856 -0.413
-0.0794  0.113 -0.177
-0.161  0.113 -0.293
-0.118  0.113 -0.298
-0.118  0.442  0.186
 0.151  0.269  0.186
-0.0430 -0.128 -0.175
-0.305 0.0195 -0.182
-0.252 0.0195 -0.0140
0.0119  0.113 -0.230
0.0168  0.514  0.226
0.00234  0.370  0.226
 0.238  0.113 -0.168
-0.0794 0.0196 -0.403
 0.247  0.113  0.101
-0.118  0.113 0.0822
 0.321 0.0287 -0.195
-0.0602  0.798  0.216
0.0168 -0.154 -0.192
-0.0263 -0.817 -0.367
0.00753 -0.0460 -0.255
-0.314 -0.826 -0.108
-0.00247  0.735  0.180
-0.224 0.0431  0.178
-0.221  0.789  0.187
-0.0161 -0.195 0.0215
0.0726 -0.832 -0.336
0.0937 0.0195 -0.134
 0.110 0.0271  0.246
0.0180 -0.0450 -0.146
 0.219  0.282  0.229
 0.212 -0.827 -0.233
-0.244  0.536  0.216
 0.143 -0.108 -0.0909
0.00712 -0.800  0.219
 0.224 -0.734 -0.0700
 0.114 0.0784  0.245
-0.230 -0.288 -0.108
-0.334 0.0315 -0.127
-0.0121 -0.851 -0.305
0.0167 0.0960  0.264
-0.210  0.601  0.189
-0.0619 -0.0151 -0.0995
-0.146  0.101  0.230
 0.313 0.0768 -0.215
-0.00728 -0.400  0.190
-0.0361 0.0195  0.236
-0.00729 -0.931 -0.346
-0.299 0.0431 0.0864
-0.117 -0.837 -0.344
 0.160 -0.0685 -0.0857
-0.234 0.0912  0.169
-0.227  0.750  0.208
 0.305  0.113 0.0293
0.0175 -0.342  0.167
-0.312 -0.902 -0.0812
 0.322 -0.842 -0.0813
 0.132  0.774  0.216
 0.133  0.227  0.202
-0.315 0.0195 -0.0716
0.00233 -0.0577 -0.0306
0.0696  0.663  0.226
 0.158  0.701  0.178
-0.157 0.0463 -0.379
0.0157 -0.534 -0.372
 0.261  0.514  0.204
 0.312 0.0231 0.0656
-0.00729 -0.725  0.131
 0.157 -0.0341 -0.0913
-0.161 -0.828 -0.321
0.0637 -0.0626 -0.0723
 0.129  0.659  0.187
-0.171  0.514  0.226
 0.152 -0.216 -0.0701
-0.224 -0.847 -0.260
 0.167 -0.819 -0.313
 0.263 0.0415  0.142
0.0894  0.110 -0.408
-0.0938  0.481  0.186
-0.0794 0.0195 -0.00435
 0.127  0.423  0.226
-0.103  0.605  0.226
-0.268 -0.841 -0.181
-0.291 0.0195 -0.235
-0.281 0.0195 -0.201
 0.195 0.0195 -0.182
-0.233  0.113  0.121
-0.137  0.572  0.186
-0.190 0.0195  0.135
-0.103  0.322  0.226
 0.103 0.0195  0.106
 0.161  0.113 0.0773
 0.190  0.113 -0.288
-0.132 0.0195 -0.365
 0.127 0.0195 -0.0572
-0.132  0.113 -0.00916
0.0792  0.505  0.226
0.0168  0.255  0.226
-0.0265  0.625  0.226
-0.0217 0.0195  0.121
0.0792 0.0195 -0.221
0.0648  0.399  0.186
 0.229  0.588  0.196
0.0888  0.113 -0.115
0.0261 0.0479  0.263
-0.200  0.351  0.226
-0.214  0.332  0.186
-0.200  0.384  0.186
-0.118 0.0195 0.0629
0.0216 0.0195  0.250
0.0696  0.735  0.216
-0.0842  0.113 -0.322
0.0408 0.0195 -0.235
 0.177 0.0992  0.217
-0.00247  0.235  0.186
-0.0553  0.341  0.226
-0.0794  0.380  0.226
 0.214 0.0195 -0.129
0.0168  0.610  0.186
-0.0650  0.113 -0.129
-0.0457 0.0195 -0.144
-0.0457  0.601  0.226
-0.148  0.214  0.199
-0.103 0.0195  0.164
0.0792  0.730  0.180
 0.101  0.809  0.210
-0.0602 -0.154 0.000461
-0.00247 -0.901 -0.392
-0.156 0.0195  0.130
-0.180 0.0195 -0.216
-0.166 0.0195 -0.346
-0.127  0.113 -0.216
 0.118 0.0195 -0.173
 0.199  0.113 0.0390
 0.151  0.113 -0.346
-0.180  0.365  0.186
0.0792  0.113  0.149
0.0840  0.418  0.226
-0.291 0.0195 -0.153
-0.247 -0.827 -0.174
-0.257  0.113 0.0341
 0.204  0.293  0.186
-0.143 0.0431  0.231
-0.0874 0.0179 -0.0764
-0.121 -0.153 -0.128
-0.201 -0.844 -0.289
-0.290 0.0864  0.101
0.0504 -0.154 0.0101
0.0123 -0.779 -0.375
-0.296 -0.784 -0.105
 0.290 -0.505 -0.100
-0.0165 -0.0387 -0.145
0.00393 -0.0939 -0.250
0.0175 -0.707  0.145
0.0648 -0.154 -0.187
 0.271 -0.848 -0.153
 0.299 -0.795 -0.0681
-0.0596 -0.0860 -0.0724
 0.258 -0.859 -0.0925
 0.156  0.779  0.197
-0.137 0.0335 -0.388
 0.132  0.240  0.226
-0.103 0.0912  0.248
-0.207 -0.784 -0.0861
-0.110 -0.0594 -0.105
-0.153  0.640  0.212
 0.226 -0.847 0.0412
0.00353 -0.223 0.0602
 0.209  0.394  0.186
 0.204 0.0195 0.0966
 0.204  0.113  0.125
 0.132  0.113 0.0773
-0.113  0.113 0.0581
-0.257  0.113 -0.0716
0.0937  0.279  0.226
 0.243  0.113 -0.00916
 0.243  0.113 -0.115
-0.0746 0.0195  0.198
0.0168  0.279  0.186
-0.0698  0.514  0.186
0.0696  0.226  0.226
 0.122  0.605  0.186
-0.252  0.113 -0.163
0.0792  0.322  0.226
 0.151 0.0195  0.121
0.0744  0.557  0.186
 0.156 0.0195 0.0293
 0.190  0.113 -0.0140
0.0360 0.0195  0.198
-0.0794 0.0195 0.0678
 0.113  0.755  0.216
 0.238 0.0195 0.0197
-0.180 0.0195 -0.0861
-0.0746  0.625  0.226
-0.0746 0.0195 -0.331
-0.0265  0.113  0.125
0.00713  0.113 0.0870
-0.0457  0.113 -0.346
-0.0457  0.113 -0.307
 0.142  0.113 -0.149
-0.0554  0.113 -0.0861
 0.267 0.0195 -0.139
 0.328 0.0399 0.0250
-0.224 0.0195  0.174
0.0696  0.113 0.000461
0.0408  0.529  0.226
0.0792 0.0195 -0.0861
 0.147  0.113 -0.100
-0.127 0.0195 -0.153
-0.0121 0.0195 -0.0957
 0.295  0.113 -0.105
 0.175  0.307  0.226
0.0840 0.0195 -0.0140
 0.147  0.356  0.226
-0.166  0.380  0.226
-0.185 0.0196  0.206
-0.0986  0.582  0.186
 0.238 0.0195 -0.278
 0.219  0.113 0.0629
-0.200 0.0195  0.159
 0.238  0.509  0.186
-0.228 0.0195 -0.288
 0.274 0.0768 -0.281
 0.108  0.327  0.226
0.0552 0.0195  0.159
-0.151  0.336  0.186
-0.171  0.113 -0.230
-0.190  0.113 -0.326
-0.156  0.620  0.186
-0.180 0.0195 -0.293
-0.228  0.452  0.186
 0.195  0.466  0.186
 0.127 0.0195  0.121
 0.103 0.0195 -0.211
-0.151  0.113 -0.105
-0.0409 0.0195 0.0966
-0.0601  0.274  0.226
-0.166 0.0195 -0.235
-0.0217  0.113 -0.0140
 0.108  0.346  0.186
-0.161  0.601  0.226
 0.214  0.113  0.164
-0.267 0.0195  0.106
-0.142  0.375  0.186
-0.190  0.553  0.186
 0.204  0.548  0.186
-0.00248  0.113  0.231
0.0648  0.562  0.226
0.0648  0.620  0.226
0.0312  0.274  0.226
0.0264  0.113  0.135
-0.0698  0.293  0.186
-0.0698 0.0195 -0.245
0.0648 0.0195  0.236
-0.0169  0.113  0.178
0.0487  0.810  0.214
-0.0713  0.206  0.210
-0.154 -0.819  0.123
-0.263 -0.822 -0.0860
 0.118  0.113 -0.336
 0.297 0.0752 0.0988
 0.108  0.524  0.226
0.00713 0.0195  0.169
 0.113  0.113  0.159
-0.272  0.113 -0.0284
-0.252  0.408  0.186
 0.171 0.0195 -0.0764
 0.281 0.0195 -0.0428
-0.0169  0.596  0.226
 0.341 0.0671 -0.105
-0.0313  0.543  0.226
-0.0698  0.490  0.226
0.0168  0.423  0.226
-0.00728  0.370  0.186
-0.192 -0.827 0.0928
-0.132 0.0195 0.0389
-0.147  0.500  0.186
-0.110  0.221  0.210
-0.255 -0.847 -0.0185
-0.0938 -0.154 -0.0188
-0.334 0.0912 -0.0189
 0.185 -0.841 -0.268
0.00243 0.0816 -0.419
-0.0938 -0.154 -0.0476
-0.251  0.519  0.202
-0.257 -0.841 0.0351
 0.174  0.813  0.191
 0.151 0.0195  0.222
0.0119 -0.0855 -0.196
-0.0361 -0.154 0.0101
0.00212 0.0480  0.266
 0.105  0.216  0.207
 0.283 -0.524 -0.0812
-0.185  0.636  0.209
 0.228 -0.288 -0.0829
-0.0505 0.0816  0.259
 0.158 0.0415  0.227
-0.103  0.113  0.236
-0.0842 0.0195 -0.115
-0.0794  0.715  0.202
 0.137  0.715  0.189
-0.267 -0.624 -0.0941
 0.170  0.633  0.199
-0.278 -0.827 -0.153
-0.335 0.0339 -0.0296
-0.267 0.0832 -0.284
 0.102 -0.827  0.175
-0.224  0.529  0.226
0.0173 -0.276  0.129
0.0168  0.663  0.186
-0.280 -0.827 -0.0381
 0.337  0.110 -0.139
0.00553 0.0176 -0.00115
 0.242 0.0912 -0.321
-0.00250 -0.305  0.151
0.0895 -0.135 -0.114
 0.193 0.0543  0.205
-0.233 -0.847 -0.209
0.0359 0.0195 -0.412
0.00716 -0.400 -0.360
-0.252  0.351  0.206
 0.182  0.731  0.215
 0.245 0.0217 -0.318
-0.181 0.0319 -0.365
-0.0213 -0.789  0.206
0.0539 -0.819 -0.341
0.0178 -0.100 0.0183
-0.167 -0.234 -0.0861
 0.176 -0.816  0.111
 0.252 -0.843 -0.0347
-0.248 0.0832 -0.308
0.0182 -0.682 -0.337
 0.244 -0.826 -0.228
 0.228  0.548  0.226
 0.284 -0.424 -0.104
0.0838 0.0197  0.254
-0.269 0.0864  0.129
0.0156 -0.221 -0.251
 0.104 0.0496  0.249
 0.234 0.0463  0.174
-0.0158 -0.446  0.192
 0.281 -0.547 -0.0905
 0.247 -0.839 -0.0749
 0.173  0.655  0.188
-0.134 0.00227 -0.0727
-0.203 -0.817 -0.252
 0.157  0.219  0.207
-0.0890  0.793  0.216
 0.271 -0.401 -0.0691
 0.113 0.0195  0.222
-0.256 -0.655 -0.0861
-0.262 -0.848 -0.134
-0.132  0.240  0.186
-0.0263 -0.144 -0.214
-0.217 -0.271 -0.0723
-0.0169  0.682  0.227
 0.273 0.0212  0.129
 0.108  0.778  0.216
 0.305 0.0719 -0.236
-0.0801 -0.127 -0.0326
-0.157 -0.0340 -0.0954
0.0115 -0.818 -0.335
 0.211 -0.819 -0.272
-0.132  0.113 -0.384
-0.263 -0.859 -0.100
-0.00725 -0.152 -0.166
-0.0127 -0.131 -0.183
 0.108 -0.0818 -0.0909
-0.141 0.0816 -0.386
-0.0265  0.812  0.181
-0.280 0.0608 -0.268
0.00714 -0.824 -0.409
-0.0986 0.0195 -0.379
 0.218  0.802  0.209
 0.223  0.715  0.220
-0.309 -0.814 -0.0728
-0.0360 -0.847  0.192
0.00232 -0.0237 -0.0205
0.0173 -0.750  0.124
0.0937 -0.154 -0.125
-0.224  0.301  0.223
 0.201 -0.254 -0.0829
-0.178 0.0976 -0.367
-0.0484 -0.831  0.168
 0.186 -0.827 -0.298
0.0792  0.798  0.180
-0.242  0.371  0.228
-0.289 -0.452 -0.0813
0.00235 -0.638  0.180
 0.147 -0.213 -0.0941
-0.139  0.781  0.215
-0.272 -0.848 -0.0332
 0.339 0.0818 -0.126
0.0119 -0.178 -0.183
-0.00249 -0.902 -0.315
 0.152 -0.843  0.122
 0.258 -0.816 -0.125
-0.0790 -0.152 -0.0705
-0.127  0.719  0.213
 0.237  0.305  0.212
-0.310 0.0672 0.0591
 0.244 0.0228  0.166
-0.00729 -0.577  0.190
 0.278 -0.845 -0.0576
-0.0224 0.0188 -0.221
0.00713 -0.840 -0.338
-0.00460 -0.903  0.145
0.00340 -0.870 -0.404
-0.311 0.0928 -0.209
0.0724 -0.138 -0.0723
 0.111  0.665  0.225
-0.263 -0.785 -0.0893
 0.334 0.0755 0.00359
-0.317  0.112 0.0386
-0.0888 -0.169 -0.0909
-0.135 -0.837  0.138
0.0631 -0.110 -0.0764
-0.0776 -0.135 0.0126
-0.253  0.456  0.230
-0.227  0.572  0.189
 0.263 -0.785 -0.0953
-0.0883 -0.132 -0.127
-0.264  0.428  0.198
0.0985  0.715  0.193
-0.155 -0.841  0.152
 0.145 0.0816  0.233
-0.0121 -0.534  0.202
 0.203  0.600  0.227
-0.0409  0.722  0.181
0.00233 -0.878 -0.312
-0.0309 0.0912  0.262
-0.0247  0.200  0.187
-0.327 0.0575 -0.172
0.0263  0.682  0.226
-0.113 0.0721  0.244
 0.337 0.0768 -0.0190
0.00234 -0.419  0.195
 0.243  0.732  0.192
 0.340 0.0216 -0.105
-0.214 -0.833 -0.274
0.0119  0.807  0.180
 0.173 -0.229 -0.0877
-0.215 -0.847 0.0993
0.0646 0.0912  0.258
0.0888 -0.154 -0.0332
 0.237 -0.844 0.0128
-0.250 -0.804 -0.0909
0.0408  0.113  0.241
0.0175 -0.137 -0.0153
0.0665 -0.131 -0.155
-0.196 -0.258 -0.0765
-0.335 0.0671 -0.119
-0.202  0.799  0.216
-0.0167 -0.915  0.214
-0.00303 -0.493  0.203
0.00232 -0.0843 0.0778
0.0119 -0.321  0.152
-0.225  0.111 -0.331
-0.261 0.0199 -0.287
-0.220  0.705  0.199
-0.0793 -0.836  0.186
-0.137  0.630  0.226
-0.128 -0.120 -0.0953
 0.110 -0.109 -0.0909
 0.142 -0.825  0.158
-0.0121 -0.800 -0.387
 0.343 0.0849 -0.0640
-0.292 -0.527 -0.0720
-0.0650  0.529  0.226
 0.284 0.0928  0.115
0.0985  0.113 -0.370
-0.174  0.731  0.193
-0.0746  0.113  0.145
 0.171  0.610  0.226
 0.175 0.0195  0.149
 0.204 0.0195  0.178
 0.161  0.514  0.186
-0.113  0.113  0.145
-0.0602 0.0195  0.149
