ply
format ascii 1.0
element vertex 2048
property float x
property float y
property float z
end_header
 0.237  0.108  0.127
-0.699 -0.687 -0.199
-0.720  0.495 -0.162
 0.689 -0.688 -0.208
-0.00204 -0.689  0.129
-0.475 -0.102  0.135
 0.715  0.489 -0.173
-0.112  0.499 -0.162
 0.651 -0.260  0.130
-0.427 -0.567  0.135
 0.675  0.181  0.135
 0.250 -0.672 -0.221
 0.305  0.499 -0.0515
-0.412  0.449  0.136
-0.236 -0.687 -0.221
 0.463 -0.646  0.135
-0.333  0.166 -0.130
-0.682  0.201 0.0614
 0.455  0.175 -0.142
-0.107  0.272  0.134
 0.586  0.499  0.133
0.0610  0.180 -0.142
-0.559 -0.350 -0.0493
-0.420  0.481 -0.176
-0.699 -0.687  0.101
-0.711  0.495  0.135
0.0767  0.500  0.129
 0.476 -0.0523 0.0352
 0.526 -0.442 -0.0574
-0.404  0.166  0.135
-0.467 -0.689 -0.0830
-0.573 0.0104 -0.0678
 0.431  0.267  0.136
 0.695 -0.672 0.0430
 0.234 -0.689 0.0430
0.0137 -0.664 -0.146
-0.230 -0.689 0.0352
 0.412 -0.331  0.130
 0.463 -0.689 -0.107
 0.681  0.251 -0.114
-0.567  0.256 -0.141
-0.178  0.499  0.133
 0.250  0.273 -0.0357
-0.648 -0.457  0.135
 0.105  0.424 -0.146
 0.518  0.410 -0.0672
-0.435 -0.323  0.135
-0.147  0.279 -0.103
 0.612 -0.488  0.135
-0.640 -0.244  0.126
 0.537 -0.230 -0.0514
-0.585  0.410 -0.00421
 0.274  0.418  0.135
 0.113  0.272  0.134
-0.653 0.0107  0.127
 0.649 -0.0261  0.134
-0.611 -0.555 -0.0339
-0.301  0.499 -0.0200
 0.598 0.0646 -0.0602
-0.00203  0.112  0.126
-0.508 -0.166 -0.0418
-0.0493  0.410 0.0194
-0.215  0.118  0.126
 0.671  0.347 0.0431
-0.427  0.273 -0.0121
 0.501  0.101  0.124
-0.262  0.273 0.0352
 0.367  0.354 -0.131
 0.620 -0.583 -0.0818
-0.00205  0.248 0.00365
-0.301  0.355 -0.106
-0.548  0.272  0.134
 0.518  0.248 -0.00423
 0.712  0.500 -0.00421
-0.538 -0.689 0.0667
 0.494 -0.189  0.135
 0.415  0.500  0.129
 0.432  0.498 -0.173
 0.171  0.410 0.0115
 0.439 -0.488  0.126
-0.0808 -0.689 -0.0200
 0.360  0.165 0.00365
-0.468 -0.455 0.0266
 0.132 -0.605  0.127
 0.274  0.260  0.136
0.0846 -0.689 -0.00421
-0.445 0.0954 -0.0331
 0.148  0.165 0.0115
-0.144 -0.608  0.135
 0.300  0.171 -0.140
-0.535 -0.687 -0.221
-0.506 0.0474  0.126
-0.269  0.494 -0.175
 0.313 -0.664 -0.0830
-0.561  0.465  0.136
-0.317 -0.689 -0.0909
 0.441 -0.568 -0.0206
-0.676  0.347  0.114
-0.718  0.474 -0.0128
-0.0325  0.371 -0.131
-0.676  0.355 -0.107
-0.700 -0.678 -0.0515
-0.167  0.165 -0.0121
-0.451  0.499 0.00366
-0.561  0.500 -0.146
-0.483  0.370 -0.106
-0.686  0.181 -0.107
-0.341 -0.689  0.129
-0.388 -0.689 -0.216
 0.593 -0.371 0.0485
0.0531  0.499 -0.0279
 0.541 -0.689 0.0115
 0.573  0.489 -0.176
 0.321 -0.614  0.126
 0.450 0.0631 -0.0416
 0.549 -0.684 -0.223
-0.586 -0.0795 0.0392
 0.598 -0.121 0.0391
-0.199  0.410 0.0115
-0.569  0.273 -0.00422
 0.229  0.476 -0.174
 0.387 -0.687 -0.221
-0.569 -0.575  0.135
 0.679  0.170 -0.00422
 0.156  0.296 -0.131
 0.604 -0.630  0.135
 0.565  0.273  0.122
 0.534  0.284 -0.133
-0.278  0.410  0.122
-0.442 -0.583 -0.00421
-0.341  0.165 0.0115
 0.155 -0.664 -0.114
-0.467 -0.0304 0.00413
 0.392  0.410 0.0352
-0.183 -0.664 -0.0988
 0.392 -0.689 0.0194
-0.104 -0.689 -0.216
 0.646  0.386 -0.0830
 0.510  0.499 0.0273
 0.463 -0.350 0.0118
-0.601  0.134  0.135
-0.431  0.249 -0.140
 0.713  0.481  0.135
-0.519 -0.210 0.0827
 0.417 0.000211  0.135
-0.199  0.168 -0.136
-0.0650  0.185 -0.141
-0.0414  0.457  0.136
 0.690 -0.689 -0.0830
 0.376  0.118  0.135
-0.538 -0.394  0.126
-0.638  0.111 -0.0113
-0.128  0.499 -0.0357
-0.335  0.272  0.134
 0.612 0.0853 0.0752
 0.116  0.142  0.135
 0.179  0.165 -0.107
-0.372  0.410 0.0273
 0.597  0.168 -0.136
 0.494  0.410  0.106
-0.468 -0.275 -0.00390
-0.585 -0.689 -0.0987
0.00583  0.499 -0.146
-0.388 -0.689 0.0194
-0.530  0.150 -0.101
-0.417 -0.444  0.133
-0.120  0.273 0.0115
 0.400  0.273 -0.0515
-0.490  0.190 0.0430
-0.195  0.398 -0.131
 0.195  0.499  0.106
 0.590 -0.518 0.0240
-0.653 -0.115  0.127
 0.510 -0.394  0.135
 0.252  0.363 -0.131
-0.592 -0.244 0.000391
-0.263 -0.604  0.130
-0.112  0.165 0.0903
 0.179  0.499 -0.0593
 0.534 -0.00766  0.126
-0.592 -0.427 0.0270
 0.469 -0.167 0.0264
0.0951 -0.687 -0.221
-0.676  0.323 0.00365
 0.526 -0.118 -0.0587
 0.100  0.273 -0.0357
 0.423  0.499 -0.0436
-0.262  0.248 -0.0908
 0.597  0.499 -0.0672
 0.313  0.499 0.0589
-0.451 -0.684  0.135
0.00583  0.250  0.133
-0.632  0.499 0.0509
0.0610  0.410 0.0352
 0.575 -0.258 0.0534
 0.589 -0.689 -0.122
 0.258  0.165 -0.0278
-0.0572  0.165 -0.0357
-0.443  0.273  0.114
 0.521 -0.552 0.0972
-0.514 -0.575 -0.0816
-0.538 -0.457 -0.0591
 0.620  0.248 0.0352
0.00584  0.269 -0.139
 0.636 -0.134  0.136
 0.598 -0.0154 0.0428
-0.417 -0.0156  0.130
-0.581  0.398 -0.131
-0.104 -0.689 0.0824
 0.478  0.190 0.0746
 0.282  0.410 -0.00421
-0.498  0.410 0.0746
 0.670  0.297  0.133
-0.207  0.248  0.129
-0.653 -0.354  0.134
-0.317  0.112  0.126
 0.510 -0.291  0.135
-0.325  0.499  0.106
-0.560 -0.306 0.0791
 0.556 -0.329 -0.0413
 0.313  0.248 0.0430
 0.471 -0.0865  0.135
-0.631 -0.606 0.0509
 0.644 -0.378  0.135
-0.506 -0.496  0.135
-0.136  0.410 0.0903
-0.632  0.499 -0.0751
 0.179  0.274 0.0352
 0.226 -0.646  0.135
 0.604  0.410 0.0824
 0.226  0.190 0.0667
 0.531 -0.00768 -0.0681
-0.553 -0.0392  0.135
 0.124  0.413  0.133
 0.337  0.499 -0.146
-0.435 -0.220  0.135
-0.112  0.410 -0.0751
 0.462 -0.448 0.0202
-0.538  0.499 -0.0436
 0.282  0.269 -0.139
-0.625 0.00804 0.0189
 0.526 -0.545 -0.0636
-0.446  0.103 0.0646
-0.0808 -0.664 -0.114
0.0373  0.165 0.0352
-0.506  0.166  0.135
-0.479 -0.356 0.0553
-0.0808  0.499 0.0588
-0.561 -0.142  0.135
-0.459  0.190 -0.0515
0.0216  0.410 -0.0515
 0.581  0.166  0.136
-0.356  0.274 -0.0751
-0.372  0.499 -0.0830
-0.585  0.190 0.0509
 0.440 0.0717 0.0521
 0.368  0.413  0.133
 0.466  0.350 -0.131
 0.116  0.499 0.0430
-0.395  0.406 -0.103
 0.581  0.190 -0.0436
 0.636  0.499 0.0509
-0.246  0.165 0.0509
-0.0421 -0.604  0.130
 0.376 -0.689  0.114
 0.469 -0.261 0.0413
 0.381  0.249 -0.139
-0.0572  0.273 -0.0672
-0.475 -0.130 0.0375
-0.567 -0.513 0.0659
 0.413 -0.233  0.127
-0.651  0.229 -0.0357
-0.199  0.499 0.0430
-0.207 -0.677  0.135
 0.132 -0.689 0.0903
-0.270  0.165 -0.0515
 0.502  0.499 -0.0909
-0.00204 -0.689 0.0273
 0.435  0.158 -0.0492
 0.313  0.165 0.0824
 0.415  0.248 0.0352
 0.400  0.410 -0.0672
-0.616 -0.669  0.135
 0.541 -0.689  0.106
 0.694 -0.688  0.132
-0.364  0.248 0.0509
0.0767  0.331 -0.106
-0.640  0.267  0.136
-0.183  0.499 -0.107
-0.594 -0.151 -0.0144
-0.522  0.499 0.0588
-0.270  0.410 -0.0436
0.0295  0.190 -0.0593
-0.686  0.418 0.0483
-0.467 -0.664 -0.170
0.0137  0.499 0.0667
 0.626 -0.598 0.0194
 0.518 0.0950 -0.0880
-0.640  0.426  0.136
 0.437 -0.606 0.0589
 0.195 -0.689 -0.0357
 0.620 -0.689 -0.0278
 0.203  0.410 -0.0751
 0.597  0.273 -0.0672
-0.653 -0.551  0.134
 0.597  0.410 -0.00421
-0.00204 -0.689 -0.0593
 0.108  0.410 -0.0515
 0.526 -0.630 -0.0819
-0.191  0.248 -0.0357
 0.408  0.499 0.0430
0.0767  0.248 0.0430
-0.333  0.442 -0.151
-0.616 -0.663 -0.201
-0.278  0.187  0.136
-0.686  0.261 -0.137
-0.309 -0.689 -0.177
-0.396 -0.689 -0.130
-0.0257  0.499 -0.0593
 0.666  0.386  0.135
-0.624 -0.689 0.0352
 0.413 -0.149  0.133
-0.160 -0.664 -0.00421
 0.313 -0.664 0.00367
-0.530 -0.689 -0.0278
 0.667  0.166 -0.0909
-0.525 -0.0563 -0.0513
-0.600 0.0646 0.0887
 0.553 -0.459 0.0830
 0.694  0.453 -0.0987
-0.0572  0.273 0.0667
-0.695  0.441 -0.0856
-0.643  0.464 -0.163
 0.234 -0.689 -0.122
-0.309 -0.664 0.0115
 0.688  0.427 0.0352
-0.498  0.410 -0.0357
 0.392  0.190 0.0981
-0.477 -0.362 -0.0269
-0.498 -0.622  0.108
 0.417 -0.567  0.135
 0.116  0.499 -0.114
 0.471  0.410 0.0115
-0.215  0.318 -0.131
-0.443  0.168 -0.136
-0.417 0.0685  0.133
 0.368 -0.689 -0.138
 0.573 -0.220  0.126
 0.316  0.416 -0.140
 0.558  0.379 -0.131
-0.0230 -0.687 -0.221
-0.515 0.0719 -0.0846
 0.211  0.243 -0.104
 0.631  0.313 -0.131
 0.195  0.248  0.114
 0.279  0.499  0.133
-0.0414  0.181  0.136
 0.533 -0.0892 0.0782
-0.293  0.410 0.0430
0.0452  0.410  0.114
 0.108  0.190 -0.0751
-0.609  0.165 -0.122
 0.499  0.448 -0.153
 0.679  0.270 -0.0147
0.0866  0.256 -0.141
-0.483  0.500 -0.130
 0.638  0.164 0.0669
 0.394  0.429 -0.148
 0.502  0.190 -0.0751
 0.573 -0.338  0.126
-0.380  0.190 -0.0593
-0.0414  0.165 0.0430
-0.624 -0.622 -0.0818
-0.678  0.174  0.135
-0.490  0.273 0.0352
 0.384 -0.689 -0.0593
 0.651 -0.567  0.130
-0.522  0.273 -0.0672
-0.498 -0.268  0.135
-0.341 -0.604  0.130
-0.246 -0.664 -0.0515
 0.242  0.499 -0.00422
-0.442 -0.614 -0.0795
 0.593 -0.436 0.00410
-0.528 -0.241 -0.0447
 0.510  0.481  0.135
-0.167 -0.664 -0.177
 0.211  0.410 0.0903
0.0373 -0.622  0.135
-0.451  0.499 0.0903
-0.136  0.165 -0.0830
 0.187  0.174  0.136
 0.305 -0.689 0.0824
 0.612 -0.689 0.0746
-0.0808  0.265 -0.141
-0.489 -0.531 0.0682
 0.457  0.256 -0.141
 0.350  0.272  0.134
-0.481 -0.00597 0.0759
-0.254 -0.664 -0.130
-0.488 -0.509 -0.0320
 0.171 -0.689 -0.185
0.0689 -0.664 -0.0751
 0.463 -0.678 -0.223
 0.321  0.248 -0.0515
 0.574 -0.168 -0.0271
0.0531  0.191  0.122
-0.199  0.426  0.136
 0.481 -0.292 -0.0344
-0.323  0.256 -0.141
 0.633  0.449 -0.153
-0.136  0.108  0.133
-0.719  0.498 0.0595
-0.624  0.292 -0.106
-0.483 0.00833 -0.0578
-0.349  0.410 -0.0436
 0.305 -0.664 -0.170
-0.286 -0.664 0.0824
-0.372  0.499 0.00366
-0.412  0.190 0.0509
 0.460 -0.00833 -0.0234
0.0183  0.424 -0.146
 0.478 -0.689 0.0667
-0.262  0.500 -0.0830
-0.132  0.358 -0.131
-0.561  0.331 -0.106
 0.486  0.273 -0.0751
 0.528 -0.163 0.0738
 0.504 -0.322 0.0663
-0.627  0.499  0.133
-0.664 -0.664 -0.138
 0.651 0.0474  0.130
 0.677  0.235 0.0801
-0.246  0.499  0.106
 0.477 -0.514 0.0532
 0.437 -0.638 -0.0436
-0.167  0.187  0.136
-0.593  0.410 0.0824
 0.497 -0.400 0.0633
-0.403  0.339 -0.131
-0.207  0.243 -0.139
-0.525 -0.0985 0.0827
-0.215  0.499 -0.0278
 0.345  0.165 -0.0672
-0.569  0.190 -0.0200
-0.102  0.429 -0.148
 0.108  0.190 0.0746
 0.431 0.0711  0.135
-0.325  0.273 -0.00422
 0.258  0.187  0.136
 0.637  0.113 0.0114
0.0531 -0.689 0.0824
 0.500 -0.373 -0.0513
0.0688  0.481 -0.176
 0.565 -0.149  0.135
 0.573 -0.0707  0.135
 0.478  0.273 0.0588
-0.677  0.403 -0.0278
-0.597 -0.493 -0.00250
-0.585 -0.504  0.135
-0.594 -0.194 0.0519
-0.468 -0.203 0.00440
-0.260  0.429 -0.148
-0.569 -0.244  0.135
-0.651  0.299 0.0667
-0.128  0.410 0.0194
-0.183  0.481 -0.176
-0.590 0.0792 -0.0717
-0.270  0.273  0.106
-0.467 -0.386  0.126
-0.333  0.165 0.0824
 0.549  0.191 0.0746
 0.158  0.476 -0.174
-0.443  0.410 0.0273
 0.712  0.500 0.0667
 0.424  0.140 0.0436
 0.510  0.174  0.136
 0.620 -0.684 -0.223
-0.498  0.229 -0.139
-0.435 -0.660 -0.0252
 0.607 -0.00451 -0.0264
 0.329  0.410 0.0667
-0.442 -0.614 0.0589
-0.522 -0.689 -0.130
 0.526 -0.614  0.135
 0.476 -0.506 -0.0178
-0.683  0.170 -0.00159
-0.417 -0.142  0.130
 0.589 -0.558 0.0824
-0.593 -0.346 0.0116
 0.599 -0.312 0.0119
-0.676  0.292 -0.0594
-0.554 -0.446 0.0824
 0.604  0.237 -0.138
 0.572 -0.490 -0.0365
 0.469 0.0136 0.0757
 0.179  0.248 -0.0436
-0.475  0.434 -0.150
 0.528  0.171 -0.140
 0.387  0.171 -0.140
 0.305  0.112  0.126
-0.631  0.143 0.0746
 0.494 -0.664 -0.162
-0.396 -0.664 0.0824
 0.163 -0.664 0.0194
-0.104  0.190 0.0273
-0.561  0.273 0.0667
 0.671  0.323 -0.0751
-0.199  0.248 0.0430
-0.624  0.248 0.0273
 0.644  0.118  0.126
 0.568 -0.0699 -0.0350
 0.556 0.0645  0.109
 0.471 -0.591 -0.0819
 0.258 -0.664 -0.0436
 0.234  0.499 -0.0987
-0.577  0.499 0.0115
-0.585  0.248 -0.0672
-0.589 -0.0474 -0.0335
 0.589 -0.417  0.135
-0.585 -0.346  0.135
-0.616  0.410 -0.0751
-0.451 -0.689 0.0430
 0.671  0.370 -0.0200
 0.400  0.499 -0.107
 0.486 -0.689 -0.0436
-0.601 -0.689 -0.0278
-0.475  0.426  0.136
-0.530 -0.687  0.133
 0.477 -0.201 -0.0309
 0.149  0.363 -0.131
-0.128  0.248 0.0746
 0.439  0.433  0.136
 0.124  0.410 0.0667
 0.646  0.229 -0.0593
-0.476 -0.0921 -0.0194
 0.108 -0.689 -0.154
-0.590 -0.00855 0.0727
 0.455  0.273 -0.0121
-0.483 -0.285 0.0600
 0.472 -0.120 -0.0214
 0.171  0.106  0.130
-0.112  0.500  0.129
 0.345  0.495  0.135
-0.129  0.221 -0.139
 0.447 -0.409  0.126
 0.594  0.135 -0.0790
 0.423  0.299 -0.106
 0.557  0.499 0.0746
-0.498  0.495  0.135
 0.400 -0.630  0.135
-0.215  0.190 -0.0751
-0.0546  0.468 -0.167
 0.549 -0.689 -0.0593
-0.388  0.499 0.0667
0.0373  0.273 -0.0515
 0.339  0.285 -0.106
 0.502 -0.504  0.135
 0.691  0.441 -0.0278
-0.262  0.180 -0.142
-0.388  0.410 0.0903
 0.585 -0.183 0.0494
 0.226  0.420 -0.143
-0.0651  0.112  0.135
 0.581  0.410 -0.0751
0.0373 -0.664 -0.208
-0.656  0.103  0.130
-0.475  0.103  0.126
-0.128 -0.664 -0.0593
-0.506 -0.173  0.135
-0.0572  0.410 -0.0436
-0.0257  0.165 -0.0909
 0.628  0.499 -0.0121
-0.293  0.499 0.0509
 0.557  0.273 0.0588
 0.534  0.410 0.00367
-0.490 -0.559  0.135
 0.447  0.181  0.136
-0.687 -0.664 0.0430
-0.254  0.248 -0.0278
-0.144 -0.684  0.135
 0.455  0.406 -0.103
 0.243  0.198 -0.138
 0.597 0.0160  0.126
-0.719  0.498 -0.0748
 0.179 -0.687  0.133
-0.511 -0.301 -0.0510
-0.0493  0.410 0.0824
 0.203  0.331 -0.106
 0.250  0.273 0.0273
 0.636 -0.197  0.135
-0.686  0.260 0.0273
-0.564  0.190  0.134
-0.419  0.163 -0.0116
-0.452 0.0381 -0.00783
0.00583  0.323 -0.106
0.00583  0.500  0.129
 0.683 -0.689 -0.146
 0.431 -0.689 -0.170
-0.0572 -0.664 0.0431
 0.140  0.243 -0.104
-0.624  0.148 -0.0595
-0.616 -0.0392  0.135
-0.578 -0.136 0.0692
 0.439  0.190 0.00366
 0.486 0.0317  0.135
-0.489 -0.423 -0.0315
 0.518 -0.261 0.0796
 0.211  0.190 0.00366
-0.0723  0.331 -0.106
 0.297  0.190 0.0273
 0.604  0.190 0.0194
 0.329  0.221 -0.106
-0.427  0.274 -0.0830
-0.561  0.205 -0.106
-0.577 -0.630  0.108
-0.572 -0.385 0.0753
-0.0729 -0.684  0.135
 0.557  0.499 -0.0121
 0.368  0.248 -0.00423
 0.360  0.499 0.00366
 0.203  0.499 0.0430
-0.0651  0.499 -0.0121
 0.581  0.248 -0.0121
0.0767  0.165 -0.0121
-0.472  0.136 -0.0767
0.00583  0.190 0.0824
 0.624 0.0497 -0.00357
-0.617 -0.550 0.0269
 0.604 -0.646 -0.0819
 0.620  0.248  0.114
-0.388 -0.664 -0.0751
-0.0651  0.248 0.00365
 0.345  0.181  0.136
-0.451  0.163 0.0977
0.0295  0.273 0.0824
-0.529  0.409 -0.0983
 0.455  0.500 0.0824
-0.545 -0.646 -0.0819
-0.0250  0.229 -0.106
-0.649  0.411 -0.134
-0.549 -0.516 -0.0516
 0.595 -0.223 -0.0146
-0.167  0.190 0.0430
-0.578 -0.282 -0.0443
 0.392  0.273 0.0903
 0.597 -0.370 -0.0115
 0.502  0.273  0.114
-0.341 -0.689 -0.0357
-0.175 -0.689 0.0588
-0.427  0.499 -0.0515
 0.502  0.190 0.0194
-0.144  0.449  0.136
 0.305  0.410 -0.0593
 0.620  0.499 -0.122
-0.349  0.499 -0.138
 0.455 -0.689 0.0115
-0.480  0.316 -0.131
 0.598 -0.551 -0.0360
-0.435  0.410 -0.0593
-0.651  0.370 0.0509
-0.624  0.221 -0.106
 0.313  0.355 -0.106
-0.632 -0.606  0.126
 0.250  0.248 0.0824
 0.573 -0.535  0.135
 0.620 -0.687  0.133
 0.417 -0.0628  0.126
 0.675 -0.664 -0.0121
 0.471 -0.338  0.126
-0.388  0.248  0.122
-0.475 -0.0234  0.135
 0.100 -0.654  0.135
-0.506 -0.407 0.0654
-0.586 -0.441 -0.0305
 0.289  0.190 -0.0751
 0.463 -0.569 0.0981
 0.563 -0.320 0.0678
0.0535  0.379 -0.131
-0.593 0.0160  0.126
-0.572 -0.248 0.0588
-0.475  0.248 -0.0436
-0.490  0.248 0.0903
-0.530 -0.323  0.126
 0.634  0.150 -0.0364
 0.292  0.468 -0.167
-0.246  0.386 -0.106
-0.624 -0.189  0.135
-0.601 -0.402  0.126
 0.430 -0.660 0.0824
 0.455  0.132 0.0918
 0.649 -0.436  0.134
 0.494 -0.456 0.0742
-0.685  0.266 0.0981
-0.552 -0.132 -0.0555
-0.601 -0.291  0.126
 0.671  0.357 -0.126
-0.545  0.118  0.135
-0.215  0.410 -0.0593
 0.329 -0.672 -0.221
 0.408  0.410 0.0903
-0.215  0.410 0.0667
-0.443 -0.672 -0.221
-0.309  0.248 0.0667
 0.630 -0.659 0.0220
 0.612 -0.664 -0.170
0.0452  0.243 -0.104
-0.301 -0.646  0.135
 0.557  0.236 -0.106
 0.486 -0.0653 -0.0219
-0.470 -0.561 -0.0487
 0.715  0.495 -0.0672
-0.569 -0.664 -0.170
 0.178  0.213 -0.139
-0.631 -0.638 0.00365
 0.132 -0.689 -0.0357
-0.593 -0.0943  0.135
-0.475 -0.449  0.135
 0.478 -0.244  0.135
-0.388  0.180 -0.142
-0.696  0.447 -0.143
-0.0887  0.426  0.136
-0.664  0.499 0.00366
 0.258  0.410 -0.0908
 0.595 -0.0671 0.0195
-0.285  0.296 -0.131
-0.301  0.410 -0.0908
 0.573  0.315 -0.106
-0.587 -0.202 -0.0375
 0.482 -0.420 -0.0250
 0.508 -0.0381 0.0810
 0.140  0.248 0.00365
-0.0572  0.248  0.122
-0.144 -0.689 -0.130
-0.435 -0.512  0.126
 0.613  0.371 -0.131
-0.238  0.190 -0.0121
-0.378  0.108  0.127
 0.682  0.418 0.0903
-0.200 -0.604  0.130
 0.646  0.315 -0.0200
-0.0729 -0.689 -0.170
 0.660  0.499 -0.168
 0.573  0.410  0.129
-0.372  0.248 -0.0278
 0.471 -0.0313  0.126
-0.120  0.191 -0.0358
 0.680  0.417 -0.140
 0.352 -0.664 0.0667
-0.215 -0.689 -0.162
-0.420 -0.622  0.135
 0.258  0.499 0.0667
-0.356  0.441  0.136
-0.207  0.165 0.0903
 0.116  0.248 0.0824
0.0610  0.499 0.0273
-0.553  0.410 0.0430
-0.538  0.410  0.114
 0.108  0.499 -0.0593
 0.116  0.410 0.00367
 0.218 -0.664 -0.170
-0.199 -0.689 -0.0357
-0.136  0.499 0.0667
-0.0257  0.499 0.0273
-0.356 -0.664 -0.162
-0.349  0.174  0.136
 0.549 -0.664 -0.154
-0.325  0.165 -0.0436
 0.644  0.198 -0.138
 0.274  0.410 0.0589
 0.329 -0.669  0.136
-0.540  0.449 -0.153
 0.392  0.190 -0.0357
-0.316  0.214 -0.106
-0.635 0.0792 0.0341
 0.429  0.112 -0.00345
-0.286  0.165 0.0115
 0.541  0.273 -0.0672
 0.211  0.191 -0.0515
 0.445 0.0375 0.00695
 0.171  0.499 -0.114
-0.506  0.499 0.00366
 0.266  0.248 -0.0908
 0.581  0.111  0.126
 0.376  0.499 0.0903
 0.636  0.410 0.0352
-0.0565  0.409 -0.0983
-0.456  0.214 -0.106
 0.548 -0.391 0.0807
-0.601 -0.569 0.0904
 0.510 -0.449  0.126
-0.593  0.499 0.0903
-0.355  0.364 -0.131
 0.511  0.498 -0.173
 0.480 -0.124 0.0586
 0.155  0.457  0.136
 0.500  0.392 -0.131
 0.109  0.206 -0.138
 0.493 -0.215 0.0697
 0.646  0.339 0.0903
0.0925 -0.664 0.0431
-0.104  0.248 -0.0908
0.0374 -0.664 -0.0121
-0.435  0.248 0.0667
 0.628  0.465  0.136
-0.215  0.273 -0.0830
-0.651  0.339 -0.0515
0.0610  0.260  0.136
 0.250 -0.664 0.0903
-0.603 -0.285 0.0331
-0.498 -0.475 0.0664
-0.523 -0.0382 0.0840
 0.568 -0.409 -0.0352
-0.420  0.434 -0.150
 0.494 -0.134  0.126
 0.565  0.442 -0.151
 0.597 -0.291  0.135
 0.173  0.429 -0.148
-0.481 -0.0764 0.0382
-0.00993  0.248 -0.0515
-0.144  0.168 -0.136
 0.644 -0.0785  0.126
 0.590 0.0325 0.0756
-0.524 -0.357 0.0838
 0.620  0.190 -0.0907
0.0531 -0.684  0.135
 0.392  0.190 -0.0907
-0.561 -0.441  0.135
-0.435  0.499 -0.107
-0.0887  0.499 -0.114
 0.447  0.410 -0.0357
-0.230  0.499 -0.130
-0.561  0.499 -0.0909
 0.140  0.499 0.0903
-0.528 -0.552 0.0973
-0.104 -0.689 0.0273
-0.609  0.499 -0.122
-0.593 -0.0983 -0.0147
 0.132  0.191  0.122
-0.569 0.0711  0.135
-0.498 -0.689 0.0194
-0.160  0.273  0.129
-0.553  0.410 -0.0515
-0.522  0.190 -0.0672
-0.653 -0.296  0.127
 0.565 -0.575 -0.0816
-0.0808  0.190 -0.0907
-0.656 -0.664 -0.0830
-0.596 -0.384 -0.0245
 0.431 -0.687  0.133
 0.195 -0.605  0.127
 0.258 -0.605  0.127
-0.286 -0.667 -0.219
 0.408 -0.664 -0.114
 0.321  0.191 -0.0200
-0.443 -0.664 -0.122
-0.465 0.0565 0.0787
 0.644 -0.664 -0.122
-0.254  0.457  0.136
 0.626 -0.614 0.0903
-0.341 -0.667 -0.219
-0.481  0.276 -0.0982
 0.502  0.315 -0.106
-0.585  0.248  0.106
 0.203  0.433  0.136
-0.455 0.0218 0.0410
 0.321  0.449  0.136
-0.687  0.499 -0.122
-0.503  0.171 -0.140
-0.624  0.355 -0.106
-0.0257  0.191 -0.00423
-0.517 -0.160 0.0698
 0.211  0.248 0.00365
-0.528 -0.266 0.0823
 0.526 -0.0943  0.135
 0.683  0.499 -0.122
-0.471 0.0605 -0.0600
-0.00205  0.413  0.133
-0.683  0.170 -0.0567
 0.203 -0.664 -0.0908
 0.545 -0.218 0.0831
-0.417 -0.275  0.130
-0.380  0.243 -0.139
0.0610  0.165 -0.0909
-0.427  0.165 -0.0830
 0.337  0.248 0.0903
 0.583 -0.119 -0.0375
-0.653 -0.407  0.127
 0.274  0.307 -0.106
0.0689  0.449  0.136
-0.579  0.140 -0.0903
 0.447  0.221 -0.106
-0.523 -0.384 -0.0557
 0.489 0.0192 -0.0610
-0.647  0.243 0.0746
-0.349 -0.664 0.0431
 0.463  0.499 -0.122
 0.148  0.410 -0.0830
-0.325  0.410 0.0824
-0.664 -0.689 0.00367
-0.0414 -0.664 -0.0830
-0.380  0.489  0.135
 0.526  0.410 0.0667
 0.478  0.499 -0.0121
-0.561 -0.689 0.0115
 0.463  0.410 0.0667
-0.577 -0.689 0.0981
-0.167  0.499 -0.00422
 0.352 -0.689 -0.0200
-0.262  0.499 0.0115
 0.140  0.499 -0.0200
-0.694 -0.689 -0.107
 0.590 -0.278 -0.0232
 0.573 -0.0615 0.0651
-0.112  0.187  0.136
-0.646  0.407 0.0115
0.00582  0.166 -0.130
-0.267  0.108  0.127
-0.159  0.409 -0.0983
 0.179  0.190 0.0824
-0.136  0.273 -0.0358
-0.136  0.499 -0.0909
-0.483 -0.338  0.126
 0.565 -0.472  0.135
-0.254 -0.661  0.135
0.0610 -0.664 -0.130
0.0216  0.499 -0.0751
-0.538 -0.0864  0.135
-0.00992  0.273 0.0509
0.00584  0.166  0.135
-0.286  0.165 -0.0987
-0.309  0.273 -0.0515
 0.660 -0.689 0.0903
-0.490 -0.689 0.0824
 0.289  0.499 0.0115
-0.632  0.190 0.0352
-0.701  0.457  0.103
 0.680  0.186 0.0503
 0.368  0.248 -0.0908
-0.676  0.394 0.0902
-0.173 -0.687 -0.221
-0.475  0.481 -0.176
 0.258 -0.687  0.133
-0.454 -0.554 0.0408
 0.646  0.213 0.00367
 0.679  0.243 0.0267
 0.476 -0.246 -0.0105
-0.577 -0.606 -0.0819
-0.507 -0.110 -0.0531
-0.104 -0.638  0.135
-0.609 -0.689 -0.154
0.0924  0.191 0.0273
 0.297 -0.689 -0.122
-0.656 -0.664  0.106
-0.0257 -0.689 -0.130
0.0374 -0.664 0.0431
 0.604  0.191 0.0902
 0.108 -0.689 -0.0909
-0.0729  0.190 0.0746
-0.530  0.248 -0.0200
 0.557 -0.0153 0.0832
-0.223 -0.689 0.0903
-0.476 -0.503 0.0292
-0.421 -0.370  0.135
 0.646  0.284 -0.0593
 0.636 -0.331  0.126
 0.620  0.499 0.0981
-0.175  0.248 0.0903
-0.632  0.273 -0.0278
-0.561 -0.197  0.126
0.0688  0.499 -0.130
-0.459 0.0396  0.135
-0.595  0.472 -0.171
 0.510  0.500 0.0903
-0.459 -0.165  0.126
 0.478 -0.547 -0.0433
-0.445 -0.570 0.0897
 0.675  0.499 -0.0357
 0.101  0.371 -0.131
-0.519  0.350 -0.131
 0.565 -0.638  0.108
-0.372  0.307 -0.106
 0.507 -0.166 -0.0440
-0.479 -0.327 0.0169
0.0767  0.273 -0.0830
 0.187  0.260 -0.142
 0.578 -0.427 0.0493
-0.615 0.00642 -0.0283
-0.0421  0.420 -0.143
 0.534  0.499 -0.130
 0.485  0.148 -0.0905
 0.644  0.266 -0.141
-0.616  0.260 -0.142
-0.653 -0.687 -0.221
-0.676  0.394 -0.0751
-0.512  0.274 -0.135
-0.552 0.00838  0.101
-0.199  0.442 -0.151
 0.486 -0.614  0.108
-0.649  0.146 0.0291
0.0839 -0.608  0.135
-0.474 -0.388 0.0192
 0.218  0.410 0.0430
-0.490  0.499 -0.0830
 0.384  0.499 -0.154
 0.526 -0.228  0.126
-0.254  0.339 -0.106
-0.514 -0.689 -0.0751
-0.631 -0.591 -0.00423
 0.644  0.499 -0.0751
-0.545  0.499  0.106
 0.305  0.248 -0.00423
-0.672  0.499 -0.0436
0.0452  0.248 -0.00423
 0.266 -0.664 -0.0908
 0.140  0.165 -0.0357
-0.00204  0.410 0.0273
-0.00991 -0.689 0.0746
-0.435  0.410 0.0746
 0.437 -0.630 0.00367
-0.648 -0.664 -0.0357
-0.341  0.499 0.0588
 0.361  0.394 -0.106
 0.549  0.135 -0.0958
 0.439 -0.291  0.135
-0.421 -0.0628  0.135
-0.609 -0.571 -0.0794
-0.628 0.0499 -0.00369
 0.518 -0.664 -0.114
-0.631 -0.653 0.0667
-0.527 -0.00394 -0.0709
-0.442 -0.646 0.0194
 0.413 -0.449  0.133
-0.428  0.386 -0.131
 0.620  0.413  0.133
 0.203 -0.667 -0.219
 0.196  0.371 -0.131
0.00584  0.213 -0.139
-0.433  0.103 0.0120
-0.325  0.481 -0.176
-0.0650 -0.664 0.0903
 0.305 -0.689 -0.0357
 0.360 -0.664 -0.0987
 0.627 -0.598 -0.0279
 0.423  0.118  0.135
-0.585  0.499 -0.0436
-0.632 -0.504  0.135
-0.372  0.165 -0.0987
 0.455  0.499 0.0352
 0.274  0.190 0.0903
 0.368  0.190 0.0430
 0.360  0.273 0.0352
-0.380  0.190 0.00366
-0.530  0.248 0.0273
-0.388 -0.689 -0.0278
 0.400  0.410 -0.0200
-0.498  0.410 0.0273
-0.315  0.275 -0.0983
-0.616 0.0711  0.135
-0.230  0.187  0.136
-0.483 -0.638 -0.0819
-0.674  0.299  0.133
-0.593 -0.475 0.0542
0.0137  0.378 -0.106
-0.641  0.193  0.114
 0.618  0.103 -0.0431
-0.522 -0.663 -0.170
-0.490  0.260  0.136
-0.00991 -0.638  0.126
 0.439  0.165 -0.0987
 0.476 0.0570 0.0919
-0.175  0.235 -0.106
 0.644 -0.689 -0.0751
 0.646  0.284 0.0194
-0.483 -0.212  0.126
-0.661  0.221 -0.139
 0.526 0.0309 0.0969
-0.429  0.144 0.0496
-0.0335  0.273 -0.0200
0.0295 -0.689 -0.107
 0.274 -0.664 0.0431
-0.396 -0.689  0.122
-0.325 -0.689 0.0824
 0.347  0.455 -0.155
-0.286 -0.689 0.0430
-0.451  0.248 0.0194
-0.246  0.248 0.0746
-0.372  0.273 0.0115
-0.160  0.273 0.0430
-0.00205  0.165 -0.0357
 0.179  0.273 -0.0830
-0.167  0.190 -0.0593
-0.380  0.165 0.0746
 0.413 -0.378  0.133
0.0925 -0.664 0.0903
-0.426  0.298 -0.131
-0.388  0.273 0.0824
-0.00992  0.273 -0.0908
 0.524 -0.0612 -0.0488
-0.514 0.000220  0.126
-0.489 -0.214 -0.0356
 0.660  0.236  0.135
-0.484 -0.141 -0.0110
 0.549 -0.575  0.126
-0.136  0.460 -0.158
 0.549  0.449  0.136
-0.244  0.274 -0.135
 0.633  0.163  0.120
 0.502  0.243 -0.139
-0.0572  0.500  0.129
-0.160  0.190 0.0903
-0.605 -0.133 0.0263
-0.656 -0.0628  0.130
-0.664  0.386  0.135
-0.215  0.190 0.0273
 0.597  0.273 0.0824
-0.483  0.410 -0.0830
-0.207  0.165 -0.0357
-0.286  0.165 0.0746
-0.412  0.499 0.0273
-0.152  0.410 -0.0515
 0.478  0.248 0.0194
-0.420 -0.689 -0.170
 0.573 -0.689 0.0509
0.0925  0.499 0.0824
 0.226  0.473  0.135
 0.415  0.190 0.0588
 0.266 -0.664 -0.146
-0.475  0.499 0.0430
 0.562 0.0374 -0.0679
-0.254 -0.689 -0.00421
-0.286 -0.664 -0.0278
-0.325  0.499 -0.0593
-0.00205  0.499 -0.0121
-0.616  0.190 -0.0436
 0.408 -0.664 -0.0200
 0.573 -0.493 0.0587
-0.490 -0.678 -0.223
 0.468  0.499  0.133
-0.686  0.260 -0.0909
-0.671  0.499 -0.168
-0.167 -0.646  0.126
-0.616 0.0390 0.0507
-0.412  0.190 0.0981
-0.685  0.253 -0.0197
-0.656  0.499 0.0981
 0.163 -0.646  0.126
 0.510 -0.689 -0.201
 0.445  0.114 -0.0459
-0.603 -0.298 -0.0101
-0.104  0.299 -0.106
-0.207  0.363 -0.106
 0.473 -0.392 0.0240
 0.649 -0.514  0.134
 0.621 0.0493 0.0412
-0.683  0.213 0.0180
-0.268  0.206 -0.106
 0.611 -0.553 0.0438
-0.530 -0.606  0.135
 0.514 -0.483 -0.0464
 0.140 -0.684 -0.223
-0.577  0.190 -0.0672
 0.486 -0.684  0.135
-0.592  0.206 -0.138
 0.400 -0.689 0.0667
-0.160  0.410 0.0509
-0.0335 -0.689 -0.00421
-0.0257  0.499 -0.114
 0.266  0.499 -0.130
 0.549  0.190 -0.0751
 0.589  0.499 0.0430
-0.0257  0.273 0.0981
 0.195 -0.664 0.0509
-0.443  0.190 0.0194
 0.557 -0.386  0.135
-0.609  0.457  0.136
-0.0965  0.248 -0.0278
0.0538  0.409 -0.0983
-0.467 -0.638  0.135
-0.128  0.265 -0.141
 0.597  0.414 -0.137
 0.679  0.213 -0.0845
0.0268  0.464 -0.163
 0.281  0.150  0.135
 0.228  0.274 -0.135
 0.636  0.229 -0.106
-0.574 -0.0527 0.0720
-0.489 -0.224 0.0531
0.0689  0.150  0.126
0.0689 -0.689 -0.185
 0.492 0.0604 -0.0755
 0.477  0.107 -0.0751
-0.442 -0.614 -0.0357
 0.431 -0.189  0.126
 0.376 -0.664 -0.185
-0.621 0.0720 -0.0409
 0.424  0.338 -0.131
 0.316  0.312 -0.131
-0.359  0.207 -0.106
-0.575 -0.340 0.0570
-0.487 -0.0490 -0.0297
 0.273  0.411 -0.134
-0.183  0.410 0.0981
-0.160  0.248 -0.0672
-0.577 -0.689 -0.209
 0.565 -0.663 -0.0905
 0.455 -0.591  0.135
 0.518 -0.0471  0.135
-0.605 -0.385 0.0264
-0.490 -0.0628  0.126
-0.367  0.472 -0.171
-0.608 -0.149  0.126
 0.431 -0.110  0.135
-0.508 -0.321 0.0659
-0.0572 -0.664 -0.201
-0.0257 -0.689 -0.177
 0.678  0.226 -0.0307
-0.341 -0.689 -0.130
-0.270 -0.689 -0.0987
 0.644 -0.689 -0.185
-0.136 -0.664 0.0667
 0.581 -0.689 -0.185
-0.624 -0.689 -0.0672
-0.223 -0.689 -0.114
 0.171 -0.689 -0.0751
-0.356 -0.664 -0.00421
-0.651  0.284 0.0194
-0.341  0.273 0.0824
-0.467 -0.689 -0.0200
-0.656 -0.689 0.0667
 0.266  0.165 0.0430
-0.207  0.273 -0.00422
 0.352  0.273 -0.0357
 0.471  0.250  0.133
 0.475 -0.363 0.0557
-0.669  0.299 -0.128
-0.683  0.213 -0.0594
-0.166  0.332 -0.131
 0.289 -0.664  0.114
-0.365  0.411 -0.134
 0.124  0.339 -0.106
 0.621 0.00845 0.0118
 0.573  0.266 -0.141
 0.596 -0.225 0.0373
 0.711  0.471 0.0273
-0.686  0.434  0.136
-0.701  0.457 0.0561
0.0777  0.296 -0.131
0.0767  0.273 0.0981
-0.545 -0.204 -0.0587
 0.637  0.193 -0.0357
 0.437 -0.583 0.0194
-0.496 -0.463 -0.0446
 0.642  0.407 -0.0462
 0.652 -0.661  0.123
-0.545  0.292 -0.106
 0.423  0.378 -0.106
-0.661  0.171 -0.140
-0.233  0.464 -0.163
-0.0808  0.500 -0.0515
 0.203 -0.663 0.00362
-0.601 -0.543  0.135
 0.179  0.410 0.0589
 0.439  0.273 0.0746
-0.293  0.473  0.135
 0.242  0.165 -0.0672
-0.0965  0.410 0.0746
 0.549 -0.275  0.135
-0.475  0.499 -0.0436
-0.632  0.410 -0.0357
 0.124 -0.689 0.0115
-0.651  0.355 -0.0121
-0.238  0.410 -0.00421
-0.0178  0.410 -0.0672
 0.218  0.248 -0.0594
-0.585 -0.689 0.0509
 0.218  0.499 -0.0436
 0.384  0.499 -0.0593
-0.388  0.410 -0.0593
0.0295  0.410 0.0746
 0.195 -0.689 -0.138
 0.518 -0.689 0.0509
-0.0651  0.190 0.0115
-0.514 -0.433  0.135
 0.155  0.248 0.0981
 0.518  0.273 0.0746
 0.549 -0.433  0.126
 0.360  0.165 -0.107
 0.502  0.410 -0.0278
 0.289  0.248 0.0981
-0.281  0.251 -0.139
 0.513 -0.505 0.0724
 0.494  0.441  0.136
-0.601  0.329 -0.131
 0.242  0.410 -0.0515
-0.700 -0.678 -0.154
 0.418  0.206 -0.133
 0.649 -0.609  0.134
-0.656 -0.157  0.130
 0.620  0.273 -0.0121
-0.451  0.191  0.129
 0.534  0.355 -0.106
 0.465  0.468 -0.167
-0.222  0.221 -0.106
 0.455 -0.149  0.126
 0.627  0.122 0.0609
 0.155  0.267  0.136
-0.491 -0.259 -0.0368
 0.613  0.499 -0.168
 0.289 -0.664 -0.208
 0.384  0.473  0.135
 0.558 -0.266 -0.0483
0.0925  0.187  0.136
-0.566 -0.0966 0.0730
-0.325  0.315 -0.106
-0.301  0.499 -0.146
 0.155  0.410  0.106
-0.104 -0.689 -0.0830
-0.426  0.206 -0.138
-0.317  0.190 0.0352
 0.493 -0.335 -0.0361
 0.567 -0.149 0.0672
-0.609  0.273 0.0824
 0.475 -0.310 0.0141
 0.132  0.165 -0.0987
 0.203 -0.664  0.106
-0.0965  0.150  0.126
 0.155  0.500  0.129
 0.620 -0.557 -0.00136
-0.647  0.198 -0.0804
 0.701  0.463 -0.138
-0.601 -0.189 0.000344
 0.299  0.275 -0.0983
-0.503  0.198 -0.103
 0.706  0.466 0.0903
-0.530  0.481 -0.176
 0.679  0.170 -0.0515
-0.538 -0.646  0.126
 0.124  0.292 -0.106
 0.431 -0.527  0.135
 0.369  0.296 -0.131
-0.676  0.339 0.0430
 0.671  0.316 -0.121
-0.278 -0.664 -0.170
-0.300  0.403 -0.131
 0.407  0.166 0.0115
-0.561  0.165 -0.122
 0.500 -0.253 -0.0429
 0.250 -0.689 -0.0121
 0.594 -0.184 0.00508
 0.337 -0.689 -0.177
 0.242  0.165 0.0981
 0.360  0.165 0.0903
-0.475 -0.689 -0.130
-0.349 -0.664 -0.0987
 0.646  0.315 0.0509
 0.268  0.206 -0.106
 0.652 -0.664 0.0589
 0.108  0.248 -0.0672
 0.463  0.248 -0.0436
-0.00992  0.190 0.0352
 0.148  0.165 0.0746
 0.218  0.273 0.0746
 0.196  0.499 -0.168
-0.167  0.248 0.0115
 0.141  0.403 -0.131
0.0925  0.248 -0.00423
-0.262 -0.689  0.106
 0.578  0.199 -0.103
 0.313  0.250  0.133
 0.549  0.206 -0.138
 0.305  0.213 -0.139
 0.581 -0.677  0.135
-0.0414  0.165 0.0981
 0.384  0.250  0.133
 0.472 -0.459 -0.0214
0.0629  0.206 -0.106
 0.218  0.166 -0.130
-0.163  0.424 -0.146
-0.160 -0.689 0.0981
-0.0572 -0.646  0.126
-0.124  0.398 -0.131
-0.553 0.0871 -0.0869
-0.0647  0.246 -0.0983
 0.677  0.196 0.0923
-0.519  0.416 -0.140
 0.646  0.221 0.0509
-0.648  0.142  0.135
 0.470  0.150  0.126
-0.718  0.474 -0.115
 0.692  0.447  0.129
-0.530 -0.220  0.135
-0.647  0.155 -0.0141
-0.545 -0.275  0.126
-0.475 -0.591 -0.0819
 0.597 -0.126  0.126
-0.689 -0.666  0.134
-0.443 0.0626 0.0453
-0.696  0.447 -0.0331
 0.573 -0.0155  0.135
-0.459 -0.291  0.126
-0.561 -0.535  0.126
 0.534  0.248  0.122
-0.471 -0.175 0.0332
 0.510 -0.338  0.135
-0.160 -0.689 -0.0593
-0.293  0.206 -0.138
 0.289  0.273 0.0667
-0.567 -0.0959 -0.0455
 0.108 -0.664 -0.0593
-0.317 -0.664 -0.0593
 0.612 -0.0549  0.135
0.0689 -0.689 -0.0436
-0.00203 -0.664 -0.107
 0.442  0.416 -0.140
 0.163 -0.664 -0.154
-0.246  0.190 0.0824
0.0846  0.410 0.0746
 0.124  0.499 -0.154
-0.477 -0.245 0.0212
 0.140  0.273 0.0431
 0.597 -0.591  0.135
-0.364 -0.689 0.0746
-0.215 -0.689 -0.0751
 0.447 -0.689 -0.0278
0.0295 -0.689 -0.177
-0.254  0.410 0.0746
-0.467  0.465  0.136
 0.148  0.191 -0.0672
-0.191 -0.689 0.00367
-0.427  0.248 -0.0436
-0.0257  0.190 -0.0593
 0.345 -0.689 -0.0672
 0.360  0.499 -0.0987
 0.415  0.273 -0.00422
 0.345  0.410 -0.0672
0.0767  0.499 -0.0909
 0.502 -0.689 0.00367
-0.104  0.410 -0.0357
 0.494  0.499 -0.0515
0.0373  0.190 -0.0200
 0.595 -0.489 -0.00313
-0.522  0.500 -0.138
 0.534 -0.181  0.135
-0.136  0.165 0.0430
-0.420  0.273 0.0273
 0.423  0.165 0.0981
 0.526 -0.646  0.108
-0.175  0.499 -0.0436
-0.0335  0.499 0.0667
-0.317  0.248 0.0273
 0.297  0.191  0.129
0.0662  0.449 -0.153
 0.510 -0.543  0.135
-0.191 -0.664 -0.138
-0.648  0.499 -0.130
-0.0887  0.386 -0.106
 0.405  0.464 -0.163
0.0373  0.106  0.130
 0.510  0.221 -0.106
 0.612 0.0553  0.135
-0.0887  0.273 0.0981
 0.134  0.256 -0.141
-0.421 -0.181  0.135
-0.0493  0.418  0.135
-0.309  0.150  0.135
-0.575  0.111  0.110
-0.514  0.433  0.136
-0.483 -0.598  0.135
 0.329  0.410  0.129
-0.128  0.413  0.133
-0.490 -0.689  0.129
-0.333  0.410  0.129
-0.104  0.180 -0.142
 0.637  0.403 -0.131
 0.437 -0.576 -0.0593
-0.443  0.147 -0.0516
 0.140  0.273 -0.0751
 0.447 -0.638 -0.0819
-0.616 -0.638  0.108
 0.646  0.370 0.0667
 0.471 -0.441  0.126
 0.682  0.419 -0.0594
 0.536  0.468 -0.167
-0.530  0.410 -0.0121
-0.485 -0.307 -0.0216
 0.116  0.190 -0.00422
-0.420  0.410  0.114
-0.175  0.265 -0.141
-0.647  0.243 -0.0830
 0.242  0.165 0.0115
 0.541  0.410 -0.0357
 0.400  0.499 -0.0121
 0.266  0.165 -0.0987
 0.242  0.410 0.0115
 0.695 -0.672 0.0824
-0.404  0.499 -0.130
 0.547  0.499  0.133
 0.368  0.499 0.0430
 0.549 -0.689 -0.122
 0.289  0.273 -0.0357
 0.430 -0.660 0.0431
 0.408  0.248 -0.0908
 0.670  0.336  0.133
0.0531  0.499 0.0667
 0.211  0.248 0.0430
-0.136  0.499 -0.130
-0.246  0.248  0.129
-0.593  0.410  0.122
0.0846  0.410  0.114
-0.664 -0.664 -0.177
-0.175  0.118  0.126
 0.541  0.190 0.0194
-0.420  0.489  0.135
-0.286  0.499  0.106
-0.603  0.190  0.134
-0.278  0.410 -0.00421
 0.604 -0.689 -0.0751
 0.549  0.499 0.0273
 0.502  0.190 -0.0357
-0.301  0.500 -0.0909
 0.455  0.191 0.0430
 0.642  0.407 -0.00683
-0.0887  0.165 -0.0121
-0.490  0.190 0.00366
-0.632  0.190 0.0746
 0.671  0.378 0.0194
 0.510  0.248 0.0430
 0.667  0.499 0.0746
-0.601  0.190 0.00366
-0.356  0.410 -0.0830
 0.455  0.499 -0.0672
 0.187  0.499 -0.0200
 0.667  0.499 0.0273
 0.646  0.339 0.0115
0.0846  0.410 -0.0200
-0.631 -0.614 -0.0357
-0.498  0.190 -0.0357
 0.626 -0.630 -0.0515
 0.132  0.190 0.0430
-0.561 -0.689 -0.130
-0.230  0.499 0.0667
 0.541 -0.315  0.126
-0.451  0.347 -0.106
 0.329  0.410 0.0273
-0.388 -0.664 -0.185
-0.514 -0.362  0.126
 0.518 0.0553  0.135
 0.179  0.191 0.0272
 0.329  0.142  0.135
 0.437 -0.606 0.0981
 0.612 -0.165  0.135
-0.207 -0.664 -0.208
 0.492 -0.175 0.0677
-0.568 0.0450 0.0991
-0.514  0.190  0.106
 0.525  0.420 -0.143
-0.341  0.191 -0.0751
-0.577 -0.677  0.135
-7.30e-05  0.194 -0.0982
-0.671  0.166 0.0981
 0.642  0.243 -0.0226
 0.462 -0.103 0.0119
 0.242  0.410  0.114
-0.514 -0.614 -0.0819
-0.183  0.307 -0.106
-0.293 -0.684  0.135
-0.577  0.500  0.129
 0.612 -0.449  0.135
 0.479  0.296 -0.131
 0.447  0.410  0.106
 0.439  0.273 -0.0830
0.0367  0.346 -0.106
-0.683  0.221 -0.107
-0.420 -0.689 -0.00421
-0.624  0.410 0.0430
 0.218  0.394 -0.106
-0.0500  0.243 -0.139
-0.600 -0.230 0.0351
 0.249  0.243 -0.139
-0.664  0.489  0.135
 0.531 0.0539 -0.0823
-0.268  0.364 -0.131
-0.334  0.206 -0.138
-0.419  0.235 -0.106
 0.675  0.489  0.135
-0.230  0.165 -0.114
-0.433  0.128 -0.0180
-0.503 0.0321 0.0911
-0.653 -0.638  0.134
-0.595 -0.537 0.0567
-0.698  0.453 0.0115
 0.423  0.248 0.0981
-0.0572  0.248 -0.0357
 0.570 -0.212 -0.0478
-0.317 -0.664 -0.146
 0.100  0.108  0.133
-0.412 -0.689 -0.0593
-0.676  0.386 0.0273
 0.203  0.190 -0.0907
-0.506 -0.664 -0.107
 0.124 -0.664 -0.177
-0.104  0.273 0.0588
 0.242 -0.689 -0.0672
-0.0572 -0.664 -0.146
-0.222  0.198 -0.138
 0.313  0.165 -0.0909
-0.128 -0.664 -0.0987
 0.534  0.273 0.0273
-0.309  0.190 -0.00422
 0.423  0.248 -0.0357
-0.0965 -0.664 -0.154
 0.163  0.248 0.0588
0.0846  0.165 0.0903
-0.0414  0.273 0.0194
-0.364  0.165 -0.0357
-0.670  0.244  0.135
-0.593  0.248 -0.0200
 0.646  0.339 -0.0515
-0.396  0.273 -0.0436
 0.518  0.248 -0.0515
 0.400  0.433  0.136
0.0925  0.165 -0.0515
-0.538  0.248 -0.0908
 0.218  0.273  0.129
-0.545 -0.484 0.0776
 0.671  0.363  0.106
 0.100 -0.689  0.122
-0.476 -0.0396 0.0444
 0.473 -0.0216 0.0569
 0.290  0.371 -0.131
 0.682  0.181 -0.122
-0.254  0.158  0.135
-0.568 -0.393 -0.0481
-0.579 -0.324 -0.0296
-0.462  0.127 0.0923
-0.144  0.166  0.114
 0.502 -0.570 -0.0793
 0.598 -0.279 0.0320
 0.163  0.339 -0.106
 0.472 -0.168 -0.0110
-0.638  0.324 -0.131
-0.296  0.449 -0.153
-0.356 -0.638  0.135
 0.636  0.355 -0.106
-0.568 -0.547 -0.0587
 0.124  0.481  0.135
 0.690 -0.689 -0.0357
 0.511 -0.00339 0.0960
-0.442  0.406 -0.103
 0.471  0.221 -0.139
-0.538  0.370 -0.106
 0.604  0.410 -0.0436
-0.545 -0.411 0.0728
0.0137 -0.664  0.106
-0.128  0.248  0.114
 0.247  0.279 -0.103
-0.579 -0.516 -0.0303
-0.135  0.331 -0.106
 0.555 -0.141 -0.0504
 0.623 -0.572 0.0870
-0.603  0.272  0.134
 0.518 -0.591  0.108
 0.423 -0.684 -0.223
 0.651 -0.472  0.130
 0.605  0.122 0.0903
-0.490 -0.186 0.0671
 0.452 0.0326 0.0430
-0.624  0.107 0.0692
 0.519  0.158 -0.102
-0.651  0.292  0.106
 0.463  0.273  0.106
 0.494  0.185 -0.140
-0.435 -0.110  0.135
-0.262  0.410 -0.0830
 0.423  0.269 -0.139
 0.599 -0.145 0.0115
-0.0309  0.171 -0.140
 0.289  0.499 0.0981
0.00584 -0.605  0.127
-0.545  0.213 -0.139
 0.596 -0.102 0.00661
 0.432 0.0713 0.0116
 0.678  0.206 0.0186
-0.511 -0.337 -0.0455
 0.368  0.323 -0.106
-0.496 0.0812  0.105
 0.671  0.307 0.0981
-0.475  0.150  0.126
 0.570 0.00190 -0.0657
 0.612 0.0947  0.135
 0.362  0.206 -0.106
-0.459 -0.543  0.126
0.0373  0.235 -0.138
 0.549  0.326 -0.131
-0.553 -0.488  0.126
-0.609 -0.228  0.135
-0.206  0.409 -0.0983
0.00526  0.350 -0.131
-0.506  0.315 -0.106
-0.650  0.205 0.00367
-0.402  0.285 -0.106
-0.459  0.500  0.129
-0.649  0.402 -0.0987
 0.445  0.103 0.0693
-0.325  0.190  0.114
 0.486  0.190  0.114
 0.612  0.134  0.135
 0.572 0.0792 -0.0796
 0.471  0.413  0.133
-0.231  0.354 -0.131
 0.226  0.142  0.126
 0.478  0.247 -0.0983
 0.580 -0.443 -0.0349
-0.460 -0.544 0.00669
-0.0260  0.346 -0.106
 0.548 -0.176 -0.0499
 0.697  0.457 -0.0593
-0.609  0.394 -0.106
-0.568 -0.190 0.0761
-0.692  0.427 0.0824
-0.191 -0.664  0.106
-0.632 0.0396  0.126
-0.254 -0.664 -0.201
-0.230  0.410  0.129
 0.596 -0.402 0.0301
 0.671  0.394 -0.114
-0.641  0.247 -0.00422
-0.604  0.158  0.108
 0.565  0.166 -0.107
 0.477 -0.490 0.0265
-0.579 -0.433 0.0596
-0.427 -0.409  0.135
 0.555 -0.464 -0.0549
-0.474 -0.456 -0.0181
 0.242 -0.664 0.0194
 0.471 -0.551 0.0688
-0.380  0.363 -0.106
-0.144  0.165 -0.0436
 0.642  0.243 0.0798
0.0216  0.273 0.0115
-0.286  0.248 -0.0594
0.0951  0.171 -0.140
 0.389  0.163  0.120
-0.0926  0.346 -0.131
 0.187  0.481  0.135
 0.534 -0.664 -0.193
 0.289 -0.689 0.0115
-0.577  0.499 0.0588
-0.601 -0.664 -0.130
 0.504 -0.0735 0.0652
-0.396 -0.664 0.0431
-0.262 -0.664 0.0194
 0.471  0.190 -0.0593
-0.160  0.410 0.00367
-0.223 -0.664 0.0115
-0.646  0.407  0.106
-0.128 -0.664 -0.0200
 0.171  0.499 0.0273
-0.278 -0.664 -0.0751
-0.651  0.355 0.0824
0.00583  0.248 0.0981
-0.144 -0.667 -0.219
 0.282 -0.689 -0.177
 0.155 -0.664 -0.0278
-0.356  0.190 0.0667
-0.136  0.248 0.0352
 0.274  0.248 0.0352
 0.469 -0.196 0.0465
 0.526  0.248 -0.0908
 0.643  0.278  0.122
 0.100 -0.689 0.0667
-0.341  0.499 -0.0278
-0.490  0.248 -0.0751
-0.0887 -0.664 0.0589
 0.321  0.489 -0.176
-0.624  0.248 -0.0515
-0.651  0.363 -0.0830
 0.510  0.191 0.0588
 0.573  0.191  0.106
 0.565 -0.606  0.135
 0.557  0.410 0.0824
-0.467  0.410 0.0903
 0.549 0.0396  0.135
 0.604 -0.236  0.126
 0.124 -0.664 0.0589
 0.604  0.331 -0.106
 0.494 -0.689 0.0981
-0.0650 -0.689 -0.0515
 0.455  0.465  0.136
-0.00204 -0.689 -0.0200
 0.148  0.273 -0.0200
-0.207  0.165 0.0509
 0.645  0.307 -0.0987
0.0688  0.248 -0.0594
-0.650  0.402 0.0667
0.00584  0.273 -0.0200
-0.522 -0.487 -0.0464
-0.624 -0.689 -0.122
 0.384 -0.689 -0.107
-0.152  0.499 0.0352
 0.510  0.410 0.0352
0.0137  0.165 -0.00423
0.0295 -0.689 -0.0436
-0.640  0.499 -0.0278
0.0216  0.292 -0.106
-0.601  0.273 0.0115
-0.585 -0.0234  0.135
 0.565  0.499 -0.0515
-0.538  0.499 0.0194
0.0610  0.273 0.0667
 0.140  0.499 -0.0751
-0.293  0.273 0.0115
 0.376 -0.664 -0.0357
 0.565  0.410 0.0194
-0.695  0.499 0.0194
-0.00992  0.190  0.114
 0.100  0.273 0.0509
 0.534 -0.134  0.135
 0.408  0.273 0.0588
-0.514  0.273 0.0824
-0.676  0.315 0.0981
-0.104  0.457  0.136
-0.199  0.499 -0.146
-0.136 -0.689 0.0115
 0.203  0.273 -0.0200
-0.0965 -0.664 -0.0436
 0.620  0.248 -0.0751
 0.345  0.165 0.0509
-0.545  0.248 -0.0515
-0.676  0.307 -0.0278
-0.215  0.499 0.0115
 0.494  0.273 -0.0121
-0.191  0.165 -0.0672
 0.376  0.248 -0.0436
 0.431  0.410 0.0509
-0.333  0.410 -0.0121
-0.451  0.499 -0.146
 0.565  0.190 -0.0121
 0.541 -0.669  0.135
 0.636 -0.689 0.00367
 0.620  0.190 0.0509
 0.486 -0.664 -0.0988
-0.577  0.273 -0.0908
-0.333  0.500 -0.107
 0.549  0.181  0.136
-0.498 -0.307  0.126
-0.309  0.273 0.0981
 0.447 -0.689 -0.138
-0.278  0.190 0.0981
-0.443  0.118  0.126
-0.420  0.248  0.106
-0.475  0.191 -0.0830
 0.140  0.410 0.0352
-0.112  0.190 -0.0751
 0.671  0.355 -0.0908
-0.183  0.158  0.124
 0.192  0.464 -0.163
-0.650  0.221 0.0352
-0.651  0.315 0.0352
 0.423 -0.654  0.124
 0.675 -0.689 0.0194
 0.444 0.00278 0.0118
 0.476 0.0953 0.0994
-0.683  0.170 0.0457
0.0380  0.498 -0.173
 0.715  0.495 -0.138
-0.0572  0.363 -0.106
-0.260  0.285 -0.106
-0.681  0.202 -0.0153
-0.506 -0.689 -0.193
 0.606  0.274 -0.135
-0.556 -0.309 -0.0518
-0.420  0.363 -0.106
-0.451 -0.354  0.126
-0.545 -0.269 -0.0558
-0.586 -0.475 -0.0366
 0.117  0.401 -0.106
 0.140 -0.669  0.136
-0.223 -0.630  0.126
-0.0965 -0.605  0.127
-0.693 -0.665 -0.0200
 0.381  0.279 -0.103
 0.163  0.150  0.126
-0.144  0.499  0.114
-0.600 -0.526 0.00419
 0.566 -0.378 -0.0506
 0.526 -0.480  0.126
-0.593 -0.638 -0.0819
-0.471 0.0948 -0.0656
 0.589 -0.189  0.126
-0.0329  0.494 -0.175
 0.376 -0.661  0.135
 0.599  0.455 -0.155
 0.580 -0.0941 0.0523
 0.478 -0.480  0.126
 0.565  0.402 -0.106
-0.599  0.364 -0.131
 0.313  0.191 0.0588
 0.413 -0.268  0.133
-0.0204  0.464 -0.163
-0.0414 -0.689  0.122
 0.171  0.165 -0.0672
-0.160 -0.689 -0.0987
-0.467 -0.689 -0.193
-0.647  0.278 -0.0725
-0.490 -0.558 0.0901
-0.683  0.416 -0.134
-0.471  0.201 -0.134
 0.467 -0.376 -0.0103
-0.524 0.0303 -0.0687
-0.493 -0.441 0.0705
 0.431 -0.0313  0.126
-0.617  0.115 -0.0532
 0.672  0.214 -0.126
 0.352  0.175 -0.142
 0.384  0.191 0.0115
-0.309  0.248 -0.0278
 0.447  0.191 0.0982
-0.0650 -0.689 0.0667
-0.689  0.423 -0.0567
 0.108 -0.664 -0.130
0.0610 -0.689 0.0430
 0.163 -0.689 0.0430
 0.614  0.162 -0.0706
-0.681  0.238 0.0715
-0.364 -0.664 0.0981
-0.672 -0.689 -0.0357
-0.325 -0.664  0.106
-0.144 -0.689 -0.177
 0.337 -0.664 -0.154
 0.565  0.248 -0.0751
 0.297 -0.638  0.135
-0.215  0.165 0.00365
-0.0336  0.248 0.0509
-0.451  0.273 0.0430
0.0531  0.248 0.0981
-0.593  0.273 -0.0436
-0.569  0.248 0.0194
 0.289  0.165 -0.0515
 0.618  0.190  0.134
 0.633 0.0791 0.0117
 0.329  0.273 -0.00422
0.0373  0.190 0.0588
-0.341  0.248  0.106
 0.581  0.248 0.0588
-0.451  0.273 -0.0436
 0.266  0.273 -0.0672
-0.469 -0.290 0.0269
 0.678  0.270 -0.0856
 0.576  0.350 -0.131
 0.699  0.499 0.0981
 0.652  0.426  0.136
0.0767  0.378 -0.106
 0.587 -0.462 0.0584
 0.575 -0.221 0.0681
-0.574 -0.549 0.0842
 0.716  0.482 -0.0357
-0.0801  0.498 -0.173
 0.688 -0.665 -0.170
-0.266  0.398 -0.131
 0.391  0.326 -0.131
 0.328  0.386 -0.106
 0.463 -0.370  0.135
-0.522 -0.575  0.126
 0.620 -0.409  0.126
 0.541 -0.356 -0.0564
 0.583 -0.532 0.0614
 0.174  0.171 -0.140
 0.692 -0.667 -0.109
-0.567  0.429 -0.148
 0.491 -0.108 -0.0460
 0.155  0.213 -0.106
-0.135  0.229 -0.106
 0.588 0.0741 0.0964
0.0295  0.273  0.129
 0.242  0.500  0.122
-0.601 -0.598  0.135
-0.451 -0.591  0.126
 0.463  0.118  0.136
-0.506 0.0946  0.135
-0.00204 -0.664 -0.208
-0.468 0.0897 0.0888
-0.451 0.0711  0.126
 0.502 -0.0155  0.135
 0.549  0.118  0.135
-0.0362  0.272  0.134
 0.612 -0.370  0.126
-0.0720  0.296 -0.131
-0.591 -0.305 0.0573
-0.585 -0.0628  0.126
 0.612  0.394 -0.106
 0.116  0.165  0.106
-0.538 -0.553 -0.0728
-0.583 -0.162 0.0472
-0.553 -0.354  0.126
 0.455 0.0239  0.126
-0.467 -0.504  0.135
 0.604 -0.0864  0.126
 0.628 0.00808  0.135
-0.466 -0.104 0.0181
-0.530 -0.118  0.126
-0.473 -0.420 0.0103
-0.603 -0.0179 -0.00823
 0.461 -0.275 0.0119
 0.357  0.424 -0.146
 0.607 0.0326 -0.0270
-0.490  0.235 -0.106
-0.383  0.449 -0.153
 0.636 -0.689 0.0430
 0.392 -0.689 -0.170
-0.599 -0.0630 -0.00540
-0.629 -0.576  0.107
 0.593  0.150  0.109
 0.140 -0.689 -0.130
-0.427 -0.689 -0.107
 0.360  0.449  0.136
-0.349  0.339 -0.106
-0.420 -0.689 0.0981
-0.545 0.0474  0.135
 0.636  0.165 -0.107
-0.0650 -0.664 -0.00421
 0.597 -0.664 -0.201
 0.226 -0.689  0.122
-0.246 -0.664 0.0509
 0.329 -0.689 -0.0987
 0.660 -0.664 -0.0593
-0.301 -0.689 -0.0436
-0.246  0.165 -0.0751
 0.368 -0.689 0.0430
 0.437 -0.606 -0.0200
 0.321  0.165 0.0273
 0.195  0.499 -0.0909
-0.372  0.410 -0.0200
 0.195  0.165 0.0667
 0.486  0.248 0.0981
-0.230  0.273 -0.0278
-0.309  0.165 -0.0751
 0.423  0.499 -0.0830
-0.372  0.150  0.135
-0.490  0.273 -0.0278
 0.486  0.499 0.0667
 0.439  0.248 0.00365
-0.160 -0.664 0.0431
-0.679 -0.664 0.0824
 0.471 -0.689 -0.162
-0.676  0.355 -0.0357
0.0767  0.500 -0.00422
