ply
format ascii 1.0
element vertex 2048
property float x
property float y
property float z
end_header
 0.371  0.435 -0.145
-0.339 -0.842  0.372
 0.364 -0.620 -0.418
-0.375  0.828  0.418
-0.378 -0.0512 -0.411
 0.364 -0.262  0.420
-0.333  0.821 -0.418
-0.378 0.0222  0.413
-0.333 -0.842 -0.374
 0.334  0.831  0.419
 0.318 -0.843  0.176
 0.217 -0.0604 -0.418
 0.144  0.288  0.420
-0.378  0.399 -0.0351
-0.378 -0.409 0.0199
-0.00292  0.831 0.00159
-0.0488  0.371 -0.418
 0.246  0.827 -0.417
-0.104 -0.400  0.420
-0.0855 -0.437 -0.418
 0.372 0.00385 0.0108
0.0614 -0.843 -0.191
 0.371 -0.428 -0.0260
-0.260  0.417  0.420
-0.378 -0.0145 0.0108
 0.371  0.775 0.0383
-0.378  0.775 0.0199
0.0338 -0.769  0.406
-0.0213  0.702  0.420
-0.346 -0.777 -0.00147
0.0522 -0.0696  0.420
 0.371  0.500  0.259
-0.375  0.475 -0.416
 0.355 -0.611  0.420
 0.369  0.243 -0.416
-0.378 -0.510 -0.301
 0.371 0.0590  0.396
 0.372 -0.765 -0.136
-0.378 -0.529  0.332
-0.0488 -0.843  0.112
-0.0304  0.683 -0.418
 0.371 -0.327 -0.320
-0.0672 0.0498 -0.418
 0.245  0.518 -0.418
-0.378 -0.226  0.249
-0.378  0.252  0.213
-0.378  0.187 -0.228
0.0797 -0.666 -0.418
-0.113  0.160  0.420
 0.371  0.233  0.176
-0.378 -0.244 -0.210
-0.378  0.573  0.222
-0.177  0.831  0.222
 0.371  0.692 -0.219
-0.196  0.831 -0.191
 0.371 -0.216  0.148
-0.378  0.637 -0.219
 0.107  0.831  0.231
 0.181  0.546  0.420
 0.371 -0.593  0.167
 0.144 -0.455  0.420
-0.150 -0.189 -0.418
-0.186 -0.161  0.420
 0.126 -0.299 -0.418
 0.371 -0.0971 -0.219
 0.263 -0.843 -0.347
 0.371  0.160 -0.182
 0.153  0.831 -0.191
-0.186 -0.843 -0.173
-0.168 -0.639  0.420
-0.186 -0.657 -0.418
-0.260  0.261 -0.418
 0.135  0.169 -0.418
 0.372  0.307  0.413
-0.0580 -0.838 -0.382
 0.181 -0.843 0.00160
-0.260  0.637  0.420
-0.375 -0.324 -0.416
 0.263 -0.804  0.385
-0.0213  0.472  0.420
-0.378 -0.593  0.130
-0.378 -0.584 -0.0994
 0.371  0.518 0.0475
 0.371 -0.565 -0.200
-0.333 -0.345  0.421
-0.242 -0.843  0.185
 0.371  0.720  0.249
-0.324  0.224  0.420
-0.242  0.628 -0.418
 0.153 -0.244  0.420
-0.378 -0.0420 -0.210
 0.126 -0.843  0.231
-0.378 0.0406  0.204
 0.372 -0.409  0.240
-0.378  0.803  0.222
-0.171  0.831  0.418
-0.378  0.178 -0.0260
 0.371 0.0498 -0.366
 0.371 -0.244 -0.0902
 0.227 -0.483 -0.418
 0.371  0.665 -0.411
-0.378 -0.207 0.0291
-0.141 -0.843  0.350
 0.371 -0.0237  0.222
 0.190  0.831 0.00160
-0.370 -0.769 -0.200
-0.196  0.831 0.00160
 0.364  0.601  0.420
 0.371  0.279 -0.0351
-0.378  0.582 0.0108
 0.162  0.748  0.420
-0.375 -0.663 -0.416
-0.0213  0.831 -0.301
-0.378  0.380 -0.255
 0.273 -0.0971  0.420
0.0797  0.114  0.420
 0.172 -0.639  0.420
-0.375  0.831 -0.237
 0.371 -0.161 -0.411
 0.135  0.362 -0.418
0.0430 -0.115 -0.418
 0.371  0.408 -0.320
-0.378 -0.161  0.413
-0.242 0.0865 -0.418
 0.371 -0.611 -0.00760
-0.150  0.812 -0.418
-0.352 -0.676  0.421
-0.205 0.0131  0.420
-0.0304 -0.244  0.420
-0.378  0.417  0.295
-0.378 -0.749  0.222
0.0155 -0.565  0.420
 0.144  0.692 -0.418
 0.309  0.831 -0.118
 0.372 -0.446  0.406
-0.378 -0.428  0.185
-0.269 -0.464 -0.418
-0.214  0.435 -0.418
-0.0488 -0.843 -0.0535
0.0430  0.536 -0.418
-0.378 -0.409 -0.173
 0.273  0.831  0.185
-0.378  0.527  0.413
 0.371 -0.712  0.295
-0.0304  0.831  0.314
 0.355 -0.769 0.0383
-0.0213  0.206 -0.418
 0.364  0.831 -0.311
-0.378  0.426  0.121
-0.232 -0.492  0.420
 0.245  0.151  0.420
 0.236 -0.843 -0.154
0.0614 -0.510 -0.418
-0.0763  0.325  0.420
 0.110 -0.842 -0.380
 0.371  0.592 -0.0994
 0.371  0.380  0.121
 0.371 -0.161  0.295
 0.254  0.408  0.420
 0.371 -0.721 -0.283
-0.177 -0.843 0.0291
-0.378  0.500 -0.154
-0.378 0.0865 -0.347
-0.0396  0.831 -0.145
 0.371  0.546 -0.255
-0.378  0.674 -0.366
0.0897  0.831 -0.410
-0.205 -0.327 -0.418
 0.273 -0.272 -0.418
-0.104  0.555 -0.418
-0.223 -0.0604 -0.418
 0.371 -0.474 -0.338
-0.0213 -0.281 -0.418
-0.378  0.692  0.350
 0.217 -0.721 -0.418
 0.371  0.637  0.130
 0.371  0.151 0.0567
-0.196 -0.843 -0.329
-0.131  0.573  0.420
 0.371 -0.391 -0.191
-0.0580 -0.593 -0.418
-0.378  0.132  0.314
-0.315 -0.180 -0.418
-0.378 -0.125  0.148
-0.378  0.674  0.121
 0.371 -0.143 0.0108
-0.378 -0.0696  0.305
-0.0396 0.0406  0.420
-0.378 0.0590 -0.109
 0.371 0.0314 -0.127
 0.371 -0.373  0.103
 0.372 -0.538  0.295
 0.371  0.334  0.277
 0.273  0.344 -0.418
-0.378  0.325 -0.384
-0.0213  0.831  0.176
-0.0396 -0.843  0.249
-0.378 -0.125 -0.0994
-0.378  0.720 -0.109
-0.378  0.142  0.112
-0.378 -0.308 -0.0719
0.0522 -0.354  0.420
 0.371  0.307 -0.228
-0.269  0.831  0.121
-0.205 -0.299  0.420
 0.371  0.132  0.268
 0.116  0.426  0.420
-0.232 -0.758  0.420
-0.378 -0.657 -0.274
 0.263  0.132 -0.418
 0.346 -0.765 -0.418
-0.378  0.527 -0.292
 0.107 0.0131 -0.418
 0.199 0.0131  0.420
 0.227  0.831  0.341
 0.371  0.472  0.387
-0.378  0.307 0.0659
-0.0580 -0.843 -0.246
0.0246  0.233  0.420
-0.196  0.261  0.420
 0.227 -0.354  0.420
-0.378 -0.308  0.112
-0.378  0.270 -0.118
-0.0763 -0.0879  0.420
 0.371  0.527 -0.384
-0.232  0.831 -0.320
-0.378 -0.143 -0.311
0.0797 -0.843  0.103
 0.371 -0.721  0.158
-0.378 -0.345  0.295
-0.315  0.831 -0.118
 0.254 -0.519  0.420
-0.378  0.353  0.406
-0.378  0.197 -0.411
0.0706  0.831  0.396
 0.318 -0.391 -0.418
 0.236  0.831 -0.292
 0.181 -0.180 -0.418
 0.371  0.729 -0.0810
-0.269  0.831  0.341
 0.336 -0.832 -0.237
 0.144 -0.838  0.385
 0.372 -0.749  0.413
0.0797  0.831 -0.0902
 0.371 -0.244 -0.228
-0.104  0.831 0.0842
-0.333 -0.842  0.103
-0.150  0.206 -0.418
-0.378 -0.648 0.0199
 0.371  0.160 -0.311
0.0338  0.582  0.420
-0.232  0.132  0.420
 0.371  0.187  0.387
-0.315 -0.843 -0.0994
 0.371  0.720  0.387
 0.371 -0.299  0.305
-0.0763 -0.721  0.420
 0.371 -0.262 0.0291
-0.0396 -0.712 -0.418
-0.378 -0.657  0.305
 0.254  0.637 -0.418
 0.309 -0.843 -0.0443
 0.162 -0.843 -0.255
 0.236 -0.602 -0.418
 0.371 -0.0696  0.112
 0.371 -0.492  0.103
 0.337  0.831  0.295
 0.153  0.831  0.121
-0.378 -0.363 -0.283
 0.371 -0.0971 -0.0994
-0.104 -0.519  0.420
 0.371 0.0498  0.130
-0.278 -0.0879  0.420
 0.371  0.426 -0.0260
 0.254  0.674  0.421
 0.355  0.784 -0.418
-0.0304  0.821 -0.418
-0.297 -0.843 -0.255
 0.371 -0.0604  0.369
 0.371 -0.0696 -0.338
-0.269 -0.740 -0.418
 0.371 -0.648 -0.118
0.0614 -0.843 -0.0168
 0.371 0.0130 -0.255
-0.159  0.334 -0.418
0.0338  0.105 -0.418
-0.0672 -0.0879 -0.418
 0.336 -0.838  0.305
-0.378 -0.446 -0.393
-0.141  0.417  0.420
 0.263  0.279  0.420
-0.287 -0.575 -0.418
-0.159 -0.765 -0.418
-0.251 -0.843  0.305
 0.371  0.601  0.305
 0.153 -0.115  0.420
 0.227  0.243 -0.418
 0.227 -0.843  0.277
-0.378 -0.694 -0.0810
-0.278 -0.593  0.420
 0.371 -0.510 -0.0994
-0.131  0.692  0.420
0.0522  0.288 -0.418
-0.378  0.261  0.323
 0.273 -0.685  0.420
-0.378 -0.721  0.103
 0.263 -0.207  0.420
-0.251  0.748  0.420
 0.208 -0.373 -0.418
-0.378  0.683  0.231
 0.190 -0.843  0.112
-0.260  0.738 -0.418
 0.372  0.151 -0.0535
 0.371  0.279 0.0750
-0.150  0.702 -0.418
-0.378  0.380 -0.145
-0.131 -0.843  0.185
 0.371  0.803  0.148
-0.378 -0.262 -0.320
0.0155 -0.382 -0.418
-0.378  0.546  0.112
-0.352 -0.474  0.421
-0.378 -0.547 -0.200
 0.371 -0.602 -0.301
-0.375 -0.768 -0.308
-0.378 -0.538  0.222
 0.371  0.803 -0.200
 0.144 -0.843 -0.0994
-0.0121 -0.455  0.420
-0.378 -0.464 -0.0810
-0.378 -0.538 0.0383
-0.375  0.831  0.112
 0.135 -0.740  0.420
 0.371  0.720 -0.320
 0.135  0.647  0.420
0.0430  0.831 -0.219
 0.162  0.582 -0.418
 0.371  0.491  0.148
-0.122  0.831 -0.274
-0.378  0.610 -0.118
0.0430 -0.666  0.420
-0.0672  0.832  0.413
0.0338 -0.843  0.323
-0.122  0.831 -0.0718
-0.378  0.353  0.194
 0.282 0.0314 -0.418
 0.371  0.637 -0.00760
-0.378 -0.749  0.350
-0.361  0.123  0.420
-0.378  0.582 -0.411
0.0430 -0.769 -0.402
0.0430 -0.171  0.420
-0.378 0.0681 -0.210
-0.297  0.831 -0.00758
-0.378 -0.143 -0.200
-0.339 -0.842  0.234
-0.378  0.151  0.213
-0.378 -0.0420 -0.311
 0.371 -0.171 -0.311
 0.371 -0.262 -0.402
 0.371  0.344 -0.402
-0.104 -0.336 -0.418
 0.273 -0.843 0.0567
-0.378  0.270 -0.301
-0.378 -0.262  0.350
-0.287 -0.244  0.420
 0.116 -0.428 -0.418
-0.378  0.481 0.0199
 0.126  0.481 -0.418
-0.223 -0.843 -0.0627
-0.251  0.527 -0.418
-0.378 0.00387  0.112
0.0338  0.831 0.0934
0.0155  0.362  0.420
-0.242 -0.391  0.420
 0.371 -0.354 -0.0994
-0.177 -0.501 -0.418
0.0246 -0.843 -0.329
-0.378  0.757 -0.301
 0.364  0.132 -0.418
-0.150  0.831  0.323
 0.371  0.344 -0.109
-0.205  0.509  0.420
-0.378 -0.765 -0.410
 0.372  0.827 -0.0443
-0.0855 -0.843 -0.154
 0.300 -0.00530  0.420
 0.371  0.408  0.213
 0.126  0.831 -0.283
-0.378  0.601  0.314
-0.378 -0.556 -0.393
 0.328 -0.501 -0.418
-0.150 0.00388 -0.418
-0.0947  0.454 -0.418
 0.371 -0.299  0.194
 0.371 -0.474 -0.237
 0.355 -0.143  0.420
-0.378 -0.428  0.341
-0.333 0.0314 -0.418
-0.0580 -0.813  0.385
 0.372  0.252 -0.127
-0.378 -0.115 0.0108
 0.107 -0.547  0.420
-0.378 0.0773 0.0291
-0.214  0.831 -0.0902
 0.371  0.243  0.295
 0.199  0.831  0.249
-0.378  0.288 -0.210
 0.371 -0.703 -0.0260
-0.375  0.628  0.418
-0.369 -0.575  0.421
 0.369  0.435 -0.416
 0.372  0.628 -0.311
0.0155 0.00388 -0.418
-0.378 0.0406  0.323
 0.273  0.555  0.420
-0.378 -0.216  0.121
-0.141  0.114 -0.418
-0.378  0.683 0.0291
 0.107 0.0222  0.420
-0.0304 -0.189 -0.418
 0.371  0.142  0.167
-0.378 -0.336  0.204
 0.217  0.831 -0.109
0.0522  0.748 -0.418
-0.378 -0.648  0.204
 0.371 -0.519 -0.00760
0.00628  0.445 -0.418
 0.282  0.831 -0.0259
 0.371  0.573  0.204
-0.131 -0.244  0.420
-0.287 0.0590  0.420
 0.273 -0.134 -0.418
-0.378  0.270 -0.0260
-0.378  0.803  0.314
-0.378 -0.657 -0.182
0.0430  0.628 -0.418
-0.378  0.481  0.194
 0.355 -0.0237 -0.418
-0.0396 -0.336  0.420
0.0706  0.711  0.420
-0.251 -0.244 -0.418
 0.273  0.831 -0.210
 0.371  0.417  0.314
 0.371  0.270 -0.311
 0.371  0.509 -0.0627
0.0797 -0.198 -0.418
-0.0855 -0.843 0.0291
 0.372 -0.620  0.332
 0.245  0.793  0.420
 0.371 -0.345  0.387
-0.333  0.831 -0.320
-0.324 -0.769  0.418
-0.297  0.831  0.240
 0.339 -0.777  0.231
 0.282  0.435 -0.418
-0.378  0.509 -0.0627
 0.236  0.831 0.0934
 0.135 -0.0879 -0.418
-0.0304 -0.510 -0.418
-0.297  0.408 -0.418
 0.371 -0.134  0.213
-0.378 -0.455  0.103
-0.0304  0.132  0.420
-0.232  0.178 -0.418
 0.282  0.720 -0.418
 0.371 -0.510  0.194
 0.107  0.831 0.0291
 0.371 -0.694 -0.200
-0.378  0.426 -0.329
0.0155 -0.843 -0.118
 0.273 -0.428  0.420
-0.278  0.298  0.420
-0.177 -0.843  0.259
-0.378 -0.0512  0.194
 0.371 -0.657 0.0659
-0.0855  0.288 -0.418
 0.107 -0.584 -0.418
 0.371 0.0222  0.295
-0.324  0.702  0.421
 0.172  0.197  0.420
 0.336 -0.804 -0.320
 0.333 -0.842 -0.127
-0.378  0.500  0.332
-0.378  0.766 -0.182
-0.223 -0.838  0.385
-0.0855 -0.602  0.420
-0.378 -0.0420 -0.0810
-0.141 0.0681  0.420
 0.371 -0.299 -0.164
 0.282 -0.290  0.420
-0.378 -0.207 -0.118
 0.371  0.316  0.194
 0.371  0.720  0.112
-0.196 -0.418 -0.418
-0.378  0.224 0.0842
-0.260 -0.843 0.0475
 0.371  0.105 -0.246
 0.371  0.362 0.0383
0.00628 -0.843  0.176
 0.172 0.0681 -0.418
 0.126  0.831  0.314
-0.378  0.619 -0.301
 0.371 -0.648  0.240
 0.162 -0.648 -0.418
-0.378  0.169 -0.329
-0.251 -0.676  0.420
 0.346  0.399  0.420
-0.378 -0.0788  0.396
-0.370  0.832 -0.0535
 0.309 -0.685 -0.418
-0.297  0.831 -0.210
-0.287  0.500  0.420
 0.144 -0.327  0.420
-0.378 -0.327 -0.200
-0.113  0.831  0.167
 0.372  0.445 -0.228
 0.371  0.536 -0.173
 0.135 -0.731 -0.418
-0.378  0.178 -0.145
 0.227 -0.843 -0.0718
0.0246 -0.602 -0.418
-0.378 -0.299 0.0108
 0.162  0.105  0.420
-0.177 -0.0788  0.420
 0.337 -0.529  0.420
0.0614 -0.272  0.420
-0.378  0.435  0.413
-0.0763 -0.171  0.420
-0.232  0.832 -0.402
-0.196  0.344  0.420
 0.135  0.279 -0.418
-0.186  0.831  0.121
0.0522  0.371 -0.418
-0.333  0.114 -0.418
 0.199  0.435 -0.418
 0.254 -0.843 -0.237
0.0706  0.509  0.420
 0.371 -0.400 -0.283
 0.371 -0.575 0.0659
 0.371 -0.171 -0.136
-0.104  0.491  0.420
 0.263 0.0681  0.420
-0.150 -0.758  0.420
0.0155  0.775  0.420
-0.150 -0.0971 -0.418
-0.150 -0.843 -0.0994
 0.371  0.665 -0.136
-0.375 -0.768 -0.115
-0.287  0.821  0.420
0.0522  0.831 -0.338
 0.162  0.831 -0.375
 0.217 -0.749  0.420
-0.306 -0.363 -0.418
-0.378  0.757 -0.402
-0.104  0.831 -0.356
 0.190  0.362  0.420
 0.371 -0.391  0.323
-0.104 -0.00530  0.420
 0.371 -0.235  0.240
-0.00290 -0.843 0.0291
-0.0763  0.831  0.249
 0.318  0.831 0.0567
0.0338  0.831  0.268
-0.378 -0.455 -0.237
-0.196 -0.843  0.121
-0.104 -0.253 -0.418
-0.141 -0.843 -0.237
-0.168 -0.446  0.420
-0.168  0.500 -0.418
-0.0672  0.224  0.420
 0.371 -0.0329 -0.173
-0.0580  0.831 -0.228
-0.378  0.555 -0.219
-0.131 -0.565 -0.418
-0.122  0.831 -0.164
 0.190  0.454  0.420
-0.378  0.472 -0.228
 0.371 0.0590 -0.0535
0.0614  0.197 -0.418
-0.0947  0.831 0.00160
-0.378 -0.143  0.277
 0.153 -0.843  0.305
 0.371 -0.354 0.00159
-0.378 -0.235 -0.0443
-0.113 -0.685 -0.418
 0.300  0.472  0.420
 0.333 -0.840  0.383
 0.199  0.748 -0.418
-0.242  0.353 -0.418
-0.315  0.683 -0.418
-0.378 -0.611 -0.338
-0.315  0.573  0.420
 0.371  0.435 0.0659
 0.300  0.206  0.420
-0.378 -0.207 -0.375
 0.318  0.573 -0.418
-0.378  0.187  0.378
-0.104 -0.843 -0.320
-0.342 -0.804  0.305
-0.223 -0.795 -0.382
 0.371 -0.547 -0.375
 0.346 -0.772  0.341
 0.371 -0.676 -0.366
 0.199 -0.786 -0.382
-0.104  0.766  0.420
-0.315 -0.843 -0.182
-0.378  0.748  0.103
-0.297 -0.0420 -0.418
-0.0855  0.628 -0.418
 0.371 -0.0880  0.277
-0.378 -0.446  0.268
-0.269 -0.171  0.420
 0.371  0.793  0.231
 0.371 0.0773 0.0383
0.0797 -0.843 -0.265
 0.371  0.674  0.323
-0.342 -0.804  0.167
 0.144  0.832  0.413
 0.371  0.775  0.332
 0.371 -0.235  0.350
 0.371 -0.400 -0.366
 0.300  0.831 -0.366
 0.371 -0.464  0.332
-0.260 -0.648 -0.418
0.0338 0.0131  0.420
-0.361 -0.235  0.421
-0.378  0.344  0.268
 0.371 0.0681  0.231
-0.0855  0.738 -0.418
0.0706 -0.483  0.420
 0.135 -0.843 -0.182
 0.107  0.353  0.421
 0.372  0.371 -0.191
-0.378  0.408 0.0383
 0.236 -0.602  0.420
 0.371  0.656  0.213
 0.190 -0.843  0.194
 0.371  0.197 -0.246
 0.371 -0.0145 -0.0627
-0.378 0.0498 -0.283
 0.371  0.215 0.00159
0.0522 -0.317 -0.418
 0.371 -0.161 -0.0627
 0.144 -0.0420  0.420
 0.309  0.757  0.421
 0.371  0.491 -0.320
-0.104 -0.843  0.286
-0.378 -0.134 -0.384
 0.371  0.619 -0.210
-0.378  0.279  0.413
 0.328  0.665  0.420
 0.369 -0.769 -0.210
 0.371 -0.171 -0.237
 0.371 -0.336 -0.402
-0.315 -0.843 -0.0259
-0.131 -0.317  0.420
-0.159  0.628 -0.418
 0.371 -0.409  0.167
 0.371 -0.437 -0.0994
 0.371 -0.244 -0.311
 0.371  0.711 -0.00760
-0.205  0.582  0.420
-0.369  0.399 -0.418
-0.315 -0.0145  0.420
 0.371  0.793 -0.127
 0.336 -0.813  0.112
 0.190 -0.843 -0.338
 0.339 -0.777 -0.0351
-0.378  0.748  0.406
-0.343 -0.253 -0.418
-0.378 -0.703 -0.338
-0.315  0.316 -0.418
-0.378  0.748  0.176
 0.371  0.105 -0.136
-0.378 -0.584 -0.0168
-0.0488  0.509 -0.418
0.00628  0.831 -0.0902
 0.181 -0.253 -0.418
-0.306  0.206 -0.418
-0.378  0.206  0.277
 0.372 -0.676  0.378
-0.378 -0.584  0.286
-0.378  0.748  0.268
-0.378  0.711 -0.228
-0.378  0.114 -0.0627
 0.371  0.114  0.350
-0.0763  0.647  0.420
 0.144  0.831 -0.0535
 0.371 -0.189 0.0659
 0.371  0.564 -0.00760
 0.371  0.555  0.360
-0.223  0.831  0.286
-0.297  0.582 -0.418
-0.378  0.445 -0.109
 0.371 -0.336 -0.237
 0.300  0.224 -0.418
-0.378 0.00387 -0.366
 0.330 -0.842 -0.379
-0.0978 -0.777 -0.386
0.0705 -0.842  0.383
 0.190 -0.547  0.420
-0.287 -0.446  0.420
 0.254 -0.843  0.139
-0.0213 -0.639  0.421
 0.107  0.582  0.420
-0.378 -0.171  0.341
-0.223 -0.180 -0.418
 0.309  0.123  0.420
-0.287 -0.115 -0.418
 0.126 -0.180  0.420
-0.378 -0.253  0.185
-0.378  0.417  0.222
 0.371 -0.538 -0.265
0.0797  0.831  0.167
-0.0396  0.114 -0.418
-0.378 -0.492 -0.145
-0.378 -0.0880 0.0750
 0.372 -0.0604 0.0383
 0.116 -0.843 0.0291
 0.291 -0.0512 -0.418
 0.371  0.582 0.0750
-0.378 -0.474 -0.00759
-0.378 -0.712 -0.00759
-0.378  0.656 -0.0351
-0.0304  0.831 0.0659
-0.324  0.831 0.0567
 0.144 -0.492 -0.418
-0.186  0.270 -0.418
-0.378  0.123 -0.255
 0.371 -0.630 -0.228
 0.309 -0.354  0.420
-0.378 -0.400  0.406
-0.378  0.610 0.0842
-0.378  0.279  0.130
-0.378 -0.336 -0.347
-0.378 -0.620  0.369
-0.269 -0.843 -0.347
 0.369 -0.00837  0.418
 0.208 -0.843  0.360
 0.346  0.527  0.420
-0.370  0.832 -0.164
-0.131 -0.838 -0.382
 0.369 -0.446 -0.416
 0.126  0.775 -0.418
 0.273 -0.786 -0.382
 0.300  0.831 -0.274
-0.251 -0.843 -0.154
0.00628  0.831  0.378
 0.300  0.831  0.121
-0.223 0.0222 -0.418
 0.371 -0.281 0.0934
-0.150 -0.575  0.421
-0.378  0.344 -0.320
 0.291 -0.207 -0.418
 0.208  0.325 -0.418
-0.378  0.481  0.268
 0.371 -0.584 -0.0994
-0.378 -0.529  0.112
-0.196  0.757 -0.418
 0.318  0.288 -0.418
-0.378  0.334  0.341
 0.208 -0.290  0.420
-0.0580  0.389  0.421
 0.371 -0.0512 -0.274
-0.113  0.389 -0.418
-0.0488 -0.0237 -0.418
-0.378  0.334 -0.0535
-0.378 -0.373 -0.0902
-0.361  0.261 -0.418
 0.190 0.00388 -0.418
-0.186  0.564 -0.418
 0.371  0.215  0.112
-0.378 -0.272 -0.136
0.0522  0.445  0.420
-0.378 0.0957  0.249
-0.196  0.711  0.421
 0.282 -0.446 -0.418
 0.371  0.279  0.350
-0.232  0.831 -0.246
 0.371 -0.0880 -0.0260
-0.378 -0.00531 -0.154
0.0430  0.169  0.420
-0.378 -0.0145  0.249
0.0155  0.647  0.420
 0.135  0.831 -0.127
0.0706 -0.0420 -0.418
-0.00290 -0.106  0.420
 0.371 -0.226 -0.0260
-0.00290 -0.843 -0.210
 0.372 -0.758  0.103
 0.300  0.831  0.350
0.0155 0.0773  0.420
 0.371  0.215 -0.0719
 0.371  0.362  0.350
-0.378 -0.703  0.167
-0.297  0.362  0.420
 0.282 -0.843  0.231
 0.371  0.729 -0.164
-0.168 -0.373  0.420
-0.378 -0.602 -0.237
-0.378  0.738 -0.0351
 0.355  0.243  0.420
-0.333  0.527 -0.418
-0.288  0.169  0.420
-0.342 -0.795 -0.255
-0.378  0.518 -0.366
 0.309 -0.769  0.418
-0.352 -0.501 -0.418
-0.0305 -0.772 -0.392
 0.337 -0.106 -0.418
-0.306 -0.520  0.421
0.0889 -0.620  0.420
-0.378  0.187  0.158
-0.378  0.674 -0.154
 0.199  0.831 -0.237
 0.371  0.757 -0.246
 0.190 -0.556 -0.418
-0.0396 -0.843 -0.311
0.0614  0.831 -0.0168
-0.0213  0.279  0.421
-0.378  0.105  0.167
 0.371 0.0130 0.0750
0.0889  0.224  0.420
-0.186  0.197  0.420
-0.378 -0.437 -0.329
-0.0213  0.298 -0.418
 0.282  0.831  0.249
 0.217 -0.308 -0.418
-0.378 0.0681  0.103
0.0614 -0.418  0.420
 0.371  0.344 -0.0260
 0.372 -0.125 0.0750
-0.0580 -0.843  0.185
-0.131  0.270  0.420
-0.269 -0.308  0.420
-0.378 -0.327  0.360
 0.273  0.344  0.420
 0.371 -0.657  0.176
 0.371  0.334 -0.320
 0.181 -0.437 -0.418
 0.371 -0.125  0.148
 0.107 -0.363 -0.418
-0.378  0.601  0.148
 0.227 -0.0512  0.420
-0.223  0.831  0.176
 0.371  0.243 -0.200
 0.371  0.178  0.222
-0.378 -0.703 -0.228
 0.371  0.647 0.0659
-0.0947  0.160 -0.418
0.0614 -0.843  0.240
-0.324 -0.843 0.0383
-0.278 -0.804  0.385
-0.0672  0.582  0.420
 0.371  0.592 -0.384
-0.0396 -0.519  0.420
-0.378 -0.648 0.0842
 0.371 -0.712  0.231
-0.378  0.353  0.130
-0.297  0.472 -0.418
-0.0396 -0.843  0.314
 0.371 -0.584  0.240
0.0981  0.582 -0.418
-0.168 -0.253 -0.418
 0.199  0.831  0.185
 0.300 -0.602 -0.418
 0.208 -0.455  0.420
 0.181  0.518 -0.418
 0.339 -0.777  0.167
-0.378 -0.373  0.112
-0.0580  0.831 -0.0718
 0.371  0.187 -0.384
-0.333 -0.842 -0.311
-0.306 -0.786 -0.382
 0.372  0.123  0.413
 0.371 -0.143  0.360
 0.371  0.729 -0.393
-0.375 -0.299  0.418
 0.126 -0.843 -0.320
-0.122 -0.843 -0.0443
-0.232 -0.529 -0.418
-0.378 -0.198 -0.283
 0.371  0.261  0.231
-0.0947 -0.161 -0.418
-0.378 -0.0145  0.350
 0.371 -0.299 -0.0260
0.0889 -0.843 -0.136
0.0338  0.831 -0.145
 0.372 -0.483  0.249
-0.113 -0.666  0.420
-0.196 -0.843 -0.265
 0.126 -0.152 -0.418
 0.371  0.748  0.176
-0.378  0.206 -0.0902
-0.00290 -0.0420  0.420
-0.378  0.151 0.0291
-0.378 0.0314 -0.0535
-0.0121  0.564 -0.418
 0.199  0.647  0.420
 0.190  0.142 -0.418
-0.122  0.831  0.378
-0.378 -0.0971 -0.154
 0.371 -0.501 -0.182
 0.227  0.692 -0.418
 0.254 -0.843 -0.0168
 0.135 -0.843  0.167
-0.378 -0.721  0.277
-0.159  0.628  0.420
-0.324  0.831  0.305
-0.378  0.142 -0.384
-0.232  0.831  0.396
-0.378 -0.721 -0.164
-0.378  0.784 -0.0902
-0.324 -0.134  0.421
 0.372  0.827 0.0934
 0.364  0.832  0.350
 0.372 -0.765 -0.347
-0.370  0.647 -0.418
-0.324 -0.694 -0.418
0.0889 -0.786  0.384
-0.343  0.831  0.369
 0.371  0.812 -0.366
 0.372  0.307 -0.155
-0.205  0.674 -0.418
0.0981  0.123 -0.418
-0.378  0.803 -0.366
-0.378 -0.538 -0.0535
 0.318 -0.843 0.0200
 0.371  0.546  0.121
-0.177 0.0681 -0.418
 0.371  0.114 -0.00760
 0.135  0.509  0.421
 0.371  0.637  0.369
-0.223  0.831 0.0751
0.0706 0.0590 -0.418
 0.371 -0.575  0.369
 0.371 -0.125 -0.274
-0.378 -0.171  0.185
 0.263 -0.529 -0.418
 0.217  0.233  0.420
-0.378 -0.0971 -0.274
-0.378  0.142 -0.191
 0.227  0.831 -0.173
 0.371  0.114 -0.347
 0.263 -0.345 -0.418
 0.371 -0.216 -0.366
 0.181  0.647 -0.418
0.0981 -0.694  0.420
-0.00290 -0.0788 -0.418
-0.168  0.831 -0.127
-0.0947 -0.519 -0.418
-0.378  0.573 -0.0719
-0.150 -0.843 0.0842
-0.378 -0.419 -0.0443
-0.378 -0.0696 -0.0260
 0.371 0.0498 -0.301
-0.122 -0.134  0.420
-0.378  0.536 0.0475
-0.378 -0.253 0.0659
 0.371  0.114  0.103
-0.297 -0.290 -0.418
 0.291 -0.843 -0.191
 0.190 -0.161  0.420
-0.378 -0.0971  0.240
-0.186 -0.712  0.420
 0.291 -0.843  0.341
 0.190 -0.786  0.384
0.0246  0.831 -0.402
 0.328  0.509 -0.418
-0.196 0.0865  0.420
-0.214 -0.547  0.421
 0.371 -0.547  0.121
-0.113 -0.620 -0.418
 0.227  0.573 -0.418
-0.378  0.628  0.249
-0.378  0.546  0.295
-0.378 -0.492 -0.356
 0.371  0.491 -0.127
-0.378 -0.161  0.103
 0.318 -0.226  0.420
-0.378 -0.281 -0.375
-0.378  0.243 -0.246
 0.126 -0.382  0.420
-0.378  0.344 -0.191
 0.208  0.307  0.420
-0.177  0.831 -0.301
0.0522  0.831  0.341
0.0614  0.683 -0.418
0.0614  0.481 -0.418
-0.378 -0.180 -0.0627
 0.371 -0.428 0.0842
 0.371  0.307 0.0199
 0.227  0.831 -0.0443
 0.371 -0.0420  0.167
-0.378  0.353 0.0199
-0.00290  0.527  0.420
-0.0121 -0.455 -0.418
 0.371  0.417 -0.0902
0.0797 -0.843  0.185
-0.104 -0.843  0.130
-0.378  0.463 0.0750
-0.0855  0.831  0.332
-0.168  0.142  0.420
 0.300 0.0865 -0.418
0.0338 -0.262 -0.418
 0.135 -0.843 0.0842
-0.378 -0.354 -0.145
-0.141 -0.455 -0.418
-0.342 -0.786  0.249
-0.324  0.831  0.139
0.00628 -0.290  0.420
-0.378 0.0222 0.0567
 0.107  0.169  0.420
 0.371  0.647 -0.0810
-0.232 -0.593 -0.418
 0.371 -0.519  0.350
 0.371  0.298  0.139
-0.232 -0.226  0.420
 0.371  0.288 -0.366
 0.371 -0.290  0.369
-0.159  0.472  0.420
-0.141  0.831 -0.219
0.0430  0.288  0.420
 0.273 -0.740 -0.418
-0.378  0.491  0.130
0.00628 -0.843 -0.274
-0.0121  0.187  0.420
-0.00290  0.417  0.420
-0.333 -0.418 -0.418
 0.254  0.610  0.421
-0.378  0.592 -0.173
-0.287  0.831 -0.384
 0.346 -0.0696  0.420
 0.364  0.775  0.420
-0.205 -0.731 -0.418
0.0246 -0.822 -0.382
-0.378  0.775 -0.246
 0.371 -0.721 -0.0994
-0.378 -0.765 0.0659
 0.372  0.821 -0.255
-0.306 -0.843  0.323
0.0154 -0.832  0.385
 0.337  0.389 -0.418
-0.375 -0.768  0.133
-0.0848  0.831 -0.410
-0.378  0.748  0.341
 0.245 -0.843 -0.292
 0.371  0.647  0.268
-0.251 -0.843  0.240
-0.378 -0.519  0.277
-0.378 -0.115  0.350
-0.378 -0.391  0.259
 0.371  0.435  0.158
-0.104 -0.0328 -0.418
-0.378 -0.593  0.194
-0.0121 -0.694  0.420
-0.378 0.0773 -0.402
-0.0213  0.628 -0.418
0.0430  0.831 -0.283
 0.371  0.380 -0.246
 0.371  0.187  0.286
-0.278  0.831  0.185
-0.378  0.435 -0.274
-0.378 -0.483  0.194
-0.378 -0.281  0.259
-0.168  0.399 -0.418
-0.196  0.408  0.420
 0.116 -0.244 -0.418
0.0981 -0.106  0.420
-0.251 -0.409 -0.418
-0.251 -0.843  0.112
0.0889 -0.843  0.314
 0.371 -0.00531  0.360
-0.0121 -0.134 -0.418
 0.371  0.500 -0.00760
-0.0121 0.0590 -0.418
0.0246 -0.843 0.0934
-0.0672 -0.446  0.420
 0.371  0.702 0.0475
 0.371  0.766 -0.0168
-0.214 -0.115 -0.418
-0.378  0.389 -0.0902
 0.245  0.831 0.0383
0.0981  0.831 -0.210
-0.378  0.325 -0.109
-0.378  0.362 0.0750
 0.300  0.812 -0.418
 0.371  0.160 -0.109
 0.126  0.702  0.420
-0.378  0.702 -0.311
 0.371 -0.639 -0.173
 0.217 -0.125 -0.418
 0.371  0.215 -0.301
 0.309  0.628 -0.418
-0.0304 -0.657 -0.418
-0.0121  0.831  0.231
 0.227 0.0590 -0.418
-0.378  0.555 -0.127
-0.159  0.757  0.420
 0.254  0.187 -0.418
 0.309  0.169 -0.418
 0.291 -0.593  0.420
-0.378 -0.400 -0.228
-0.378  0.683  0.406
 0.372 -0.765  0.277
 0.116  0.784  0.420
-0.0396  0.784  0.420
 0.337 -0.685  0.420
 0.371 -0.648 -0.0627
-0.369  0.702 -0.418
 0.273 -0.152  0.420
 0.371 -0.216  0.295
-0.378 -0.391 -0.393
 0.371 -0.299 -0.109
-0.378  0.445 -0.164
-0.378  0.683  0.286
-0.378 -0.308 -0.283
 0.318 0.0681  0.420
 0.236 -0.180 -0.418
-0.378 -0.648  0.139
-0.0213 -0.769  0.406
-0.0580  0.527  0.420
-0.346 -0.777 -0.0566
 0.371 -0.428 0.0291
0.0246 -0.666 -0.418
-0.0213 -0.171  0.420
 0.372  0.827 0.0108
0.0889 -0.843 -0.0810
 0.371  0.573 -0.311
 0.371 -0.354  0.240
 0.371  0.775 -0.320
-0.378  0.325 -0.255
-0.214  0.831  0.341
-0.378 -0.694  0.350
 0.337 0.0314 -0.418
-0.278 0.0314 -0.418
 0.371 -0.437 -0.154
-0.159 -0.519  0.420
-0.378  0.674  0.176
-0.0121 -0.400  0.420
 0.282 -0.843 -0.109
-0.361 -0.602 -0.418
-0.342 -0.804 -0.154
-0.324  0.445  0.420
 0.336 -0.795 -0.0994
-0.378  0.582 -0.356
 0.318  0.831 -0.182
-0.378 -0.419 -0.118
-0.378  0.656 -0.0902
 0.172 -0.843 -0.0535
 0.364  0.832  0.194
 0.217 -0.843 0.0659
-0.378 0.0681  0.369
-0.378 -0.161 -0.145
 0.371 -0.143 -0.182
-0.378 -0.0420  0.139
-0.0304 -0.354 -0.418
0.0246  0.831  0.148
 0.371 0.0590 -0.219
 0.355 -0.769 -0.265
-0.205  0.656  0.420
 0.371 -0.216 -0.164
-0.378 -0.556 -0.145
-0.0763  0.831 -0.311
-0.378 -0.630 -0.0719
-0.378 -0.336 0.0659
0.0889  0.831 -0.154
-0.131 -0.843 -0.182
-0.113 -0.391 -0.418
 0.162  0.831 0.0475
-0.378 0.00387 -0.237
-0.378  0.224 0.00159
-0.378 -0.0880 -0.338
0.0155 -0.843  0.268
-0.242  0.831 -0.0443
 0.135 -0.0328 -0.418
0.0614 -0.409 -0.418
0.0155 -0.538 -0.418
 0.208 0.0773  0.420
 0.371 -0.565 -0.0351
-0.251  0.831 0.0200
-0.0396 -0.409 -0.418
-0.232  0.463  0.421
 0.172  0.601  0.420
-0.287  0.784 -0.418
 0.371  0.729  0.305
 0.263 -0.657 -0.418
-0.378  0.399  0.167
-0.378  0.279 -0.356
 0.254  0.831  0.295
-0.131  0.831  0.249
 0.199  0.831  0.387
-0.287  0.142 -0.418
-0.186 -0.843  0.323
 0.371  0.683  0.167
-0.378  0.243 -0.182
 0.371 -0.345  0.148
 0.135  0.831  0.185
 0.371  0.509  0.332
0.0981  0.435 -0.418
-0.0855  0.831 -0.118
-0.260  0.831 -0.118
-0.104 -0.786  0.385
 0.371  0.454 -0.366
-0.352 -0.0971 -0.418
-0.343  0.784  0.421
-0.378 -0.721 -0.283
-0.378  0.610  0.369
 0.346 -0.207 -0.418
-0.205 -0.786  0.385
 0.371 -0.703 -0.411
-0.378  0.408  0.369
 0.282  0.832  0.413
 0.245  0.775 -0.418
-0.183 -0.842 -0.380
 0.217 -0.838 -0.382
-0.315 -0.639  0.420
 0.371 -0.657  0.295
-0.324 -0.198  0.421
-0.375 -0.768  0.409
 0.199 -0.843 -0.118
 0.371 -0.299 -0.274
 0.245  0.399 -0.418
 0.371  0.683 -0.283
-0.113  0.243 -0.418
-0.378 -0.547 -0.338
 0.199  0.711  0.420
 0.371  0.564  0.268
 0.371 -0.630  0.130
-0.378  0.307  0.231
-0.168 -0.0237  0.420
-0.260 -0.843 -0.0259
-0.0763  0.831  0.130
-0.378 0.0957 -0.145
0.0889  0.334 -0.418
0.0155  0.243 -0.418
-0.378 -0.575 0.0750
-0.378 -0.336 -0.0260
-0.159  0.831 0.0383
-0.0763 -0.299  0.420
0.0981  0.647 -0.418
0.0889 -0.216  0.420
-0.378 -0.409 0.0750
 0.181 -0.712  0.420
-0.287 -0.712  0.420
 0.371  0.463  0.222
 0.172  0.206 -0.418
-0.378 -0.207 -0.173
0.0155  0.334 -0.418
 0.153 -0.813 -0.382
 0.333 -0.842  0.231
-0.346 -0.777 -0.350
-0.375 -0.0329  0.418
-0.205  0.793  0.420
 0.318 -0.843 -0.283
0.0430 -0.721 -0.418
 0.336 -0.795 -0.154
 0.364 -0.382  0.420
 0.328 -0.281 -0.418
-0.378 -0.740 -0.0535
-0.361  0.831  0.259
-0.232  0.215  0.421
 0.371 -0.391 -0.136
 0.371 -0.648 -0.283
 0.245 -0.253  0.420
-0.378  0.215 -0.311
 0.172 -0.843  0.249
 0.190 -0.843 -0.173
 0.172  0.831  0.295
-0.186  0.160 -0.418
 0.318 -0.843 0.0751
-0.333 0.0773  0.420
-0.232 -0.0696  0.420
0.0614 -0.565 -0.418
 0.107 -0.290  0.420
-0.378 0.00387 -0.0994
 0.107 -0.843 -0.0351
-0.378 -0.703 0.0567
-0.378 0.0498  0.268
-0.0672  0.454  0.420
 0.371 -0.676 0.0199
-0.104  0.334 -0.418
 0.371 -0.373 -0.0535
-0.0304  0.344  0.420
 0.371 -0.721  0.360
 0.372  0.500 -0.237
 0.371 -0.464  0.176
 0.371  0.637 -0.255
 0.371 -0.703 -0.145
 0.371  0.362  0.231
 0.371  0.536 -0.109
-0.378 -0.483  0.314
 0.371 -0.519 -0.320
-0.150 -0.299 -0.418
 0.371 -0.125 -0.329
-0.378 -0.189  0.295
-0.297 -0.226 -0.418
-0.260 -0.345 -0.418
 0.116  0.831 -0.356
-0.214 -0.843 -0.219
 0.318  0.831  0.167
 0.153 -0.382 -0.418
-0.269 -0.161 -0.418
-0.141  0.215  0.420
-0.205  0.224 -0.418
 0.236 -0.428 -0.418
-0.141  0.288 -0.418
 0.371  0.160  0.121
 0.371  0.160  0.332
-0.113 -0.843  0.231
 0.371  0.123  0.213
 0.371  0.261 -0.246
-0.159 -0.712 -0.418
 0.309  0.619  0.420
-0.278  0.683  0.420
-0.131 -0.0604  0.420
-0.214 -0.843 0.0659
 0.371  0.408 0.0199
-0.378  0.252 -0.0719
 0.371 -0.382 0.0475
-0.378 -0.161 -0.00759
-0.00290  0.831 -0.255
0.0981  0.831  0.121
0.0614  0.380  0.421
 0.371 -0.501 0.0383
-0.378 -0.253 -0.0902
-0.0947 0.0498  0.420
 0.126 -0.772 -0.392
 0.217  0.831 -0.338
 0.107  0.729 -0.418
 0.318 -0.483  0.420
-0.378 -0.244 -0.265
-0.333  0.362 -0.418
 0.371  0.610 -0.145
 0.371 -0.630 -0.347
-0.150 -0.804  0.385
-0.131 -0.712  0.420
-0.370 -0.519  0.421
 0.191  0.831 -0.415
-0.369 -0.721  0.420
 0.371 0.0681 -0.411
 0.369  0.831 -0.158
 0.369 -0.769 -0.0719
-0.378  0.546  0.369
-0.315 -0.843  0.158
-0.378  0.821 -0.00759
 0.369  0.298 -0.416
 0.236 -0.769 -0.410
-0.378  0.821  0.158
 0.371 -0.0604 -0.393
-0.342 -0.832 -0.0627
-0.333 -0.400  0.421
-0.378 -0.765  0.295
-0.186 -0.235  0.421
 0.371 -0.400  0.369
-0.378  0.233  0.139
-0.159  0.445 -0.418
-0.378  0.803 -0.311
-0.378 -0.602 0.0291
 0.236 -0.00530 -0.418
0.0706 -0.843 -0.311
-0.361  0.582  0.421
 0.300  0.674 -0.418
 0.181 -0.501  0.420
-0.315 -0.749 -0.418
-0.297 -0.843  0.277
-0.378 -0.299  0.158
-0.0580 -0.244 -0.418
-0.0488 0.0865  0.420
0.0889  0.279  0.420
 0.227  0.831  0.139
 0.371 -0.501 -0.0535
-0.378 -0.529 -0.0994
 0.371 0.00386  0.139
-0.324 -0.0604  0.420
-0.131  0.748 -0.418
-0.278  0.831 0.0751
 0.371 0.00387 -0.375
-0.00290  0.500 -0.418
-0.186  0.831 -0.0443
0.0614 0.0681  0.420
 0.371 0.0681 0.0842
0.0430 -0.843 -0.0718
-0.0672 -0.758 -0.418
 0.372  0.674 -0.329
 0.291  0.831 -0.320
-0.260 -0.538  0.420
-0.378 -0.611 -0.173
-0.378  0.527  0.204
-0.306 -0.510 -0.418
-0.361 -0.189 -0.418
 0.245  0.454  0.420
 0.371 -0.345 -0.154
-0.251  0.399 -0.418
-0.150  0.371  0.420
 0.371  0.426  0.268
 0.371  0.426  0.378
 0.172 -0.317 -0.418
-0.223 -0.446  0.420
-0.378  0.472 -0.320
 0.273 -0.843  0.286
-0.214 -0.281 -0.418
-0.177 -0.575 -0.418
-0.150 -0.843 -0.283
-0.378  0.197  0.222
-0.343  0.160 -0.418
-0.242  0.334  0.420
 0.135 -0.198 -0.418
0.0246 -0.492  0.420
0.00628  0.831 -0.347
0.0338 -0.189 -0.418
-0.297  0.775  0.420
-0.0947 -0.843  0.332
-0.378 -0.464 0.0383
 0.371 -0.712 0.0934
0.0430 -0.611  0.420
-0.378 -0.639 -0.0260
-0.378  0.142  0.259
0.0614 -0.529  0.420
-0.378 -0.00531  0.295
-0.0396  0.831  0.360
-0.378  0.132 -0.0168
-0.0396  0.729 -0.418
-0.378  0.637 0.0199
 0.371 -0.235 0.0842
 0.371 0.0498  0.350
 0.328  0.831 -0.0168
 0.371 -0.327 0.0842
-0.0304  0.160 -0.418
-0.0763 -0.843 -0.200
-0.0304  0.656  0.420
-0.361  0.832 -0.109
-0.378 -0.0880 -0.228
 0.372 -0.180  0.112
 0.263 -0.740  0.421
 0.371  0.206 -0.118
 0.346  0.831  0.249
 0.144  0.831 -0.237
-0.269  0.592  0.420
 0.371 -0.501 -0.384
-0.378 -0.198 -0.219
-0.251  0.307 -0.418
-0.278  0.831 -0.329
-0.378  0.371 -0.375
 0.371 -0.226  0.194
 0.371  0.325 -0.274
 0.371 -0.593 -0.145
-0.306  0.270 -0.418
-0.378 -0.483 -0.191
-0.378 -0.446 -0.283
 0.116  0.831  0.360
 0.300  0.389  0.420
-0.378  0.142  0.360
-0.150  0.831 -0.366
-0.159 -0.143 -0.418
 0.371 -0.409 -0.237
 0.144  0.114 -0.418
 0.172 -0.134 -0.418
 0.371  0.114 -0.191
-0.0763  0.270  0.420
 0.181  0.252 -0.418
 0.371 -0.189  0.249
 0.371 -0.180  0.204
-0.378 -0.657 -0.347
 0.282 -0.639  0.420
 0.236  0.472 -0.418
 0.371  0.151 -0.237
-0.378 -0.0512 -0.145
 0.300  0.831 -0.0718
 0.333 -0.789  0.383
 0.371 -0.180  0.396
 0.371 -0.106  0.396
-0.342 -0.804 0.0567
 0.136  0.831 -0.415
-0.343  0.831  0.213
 0.328 -0.336 -0.418
-0.324 -0.584  0.420
-0.223  0.831  0.240
-0.0855  0.674 -0.418
 0.371  0.463  0.332
-0.378  0.573 -0.292
-0.0396 -0.565  0.420
-0.378  0.169 -0.283
 0.318  0.344 -0.418
-0.378 -0.391  0.305
-0.251  0.674 -0.418
 0.371  0.564 -0.0627
-0.378  0.610 -0.255
 0.371  0.463  0.112
-0.378 -0.143  0.222
 0.236  0.288 -0.418
 0.162  0.831 -0.311
-0.378 -0.556  0.158
 0.217 -0.226 -0.418
 0.371  0.362 -0.356
-0.324  0.527  0.420
-0.378 -0.483  0.139
 0.371 -0.556  0.204
 0.371  0.775  0.112
-0.122 0.0406 -0.418
-0.378 0.0130 -0.311
 0.371 0.0130  0.194
-0.0304  0.417 -0.418
 0.371  0.610 0.0291
-0.251 -0.0237 -0.418
-0.378 0.0865  0.314
 0.371 -0.00531 -0.210
 0.217  0.105 -0.418
-0.242  0.132 -0.418
 0.371  0.463 0.0199
-0.214 -0.843 0.00160
-0.0580 -0.843 -0.118
0.0797  0.784 -0.418
-0.378  0.812 0.0475
 0.371  0.325 0.0659
 0.181  0.831 -0.0810
 0.190 -0.0788  0.420
-0.232 0.0590  0.420
-0.0304 -0.843 -0.173
 0.371  0.601 -0.0351
 0.337  0.720  0.420
 0.371 0.0957  0.295
-0.378 -0.0512 0.0475
-0.131  0.831 -0.0259
 0.371 -0.115  0.314
-0.378 0.0957 -0.292
 0.371 0.0957  0.176
-0.378  0.206 -0.366
 0.371 0.0957 -0.0810
-0.378 0.0681 -0.0260
 0.371  0.472 -0.274
-0.168  0.298  0.420
0.0430 -0.843 0.0291
-0.278 -0.363  0.420
 0.162  0.831  0.341
-0.232 -0.685 -0.418
 0.371 -0.593 -0.255
 0.371  0.224 -0.356
 0.371 -0.262 -0.136
 0.190 -0.685 -0.418
-0.378  0.371  0.314
 0.199  0.160  0.420
 0.162 -0.593 -0.418
-0.159 -0.281  0.420
-0.378  0.316  0.167
 0.371 -0.501  0.148
 0.172  0.399 -0.418
 0.371  0.472 -0.173
 0.135  0.224  0.420
-0.242  0.555  0.420
-0.378 -0.299  0.323
 0.371  0.215  0.332
 0.371 -0.529 -0.145
 0.371  0.711  0.204
 0.199  0.775  0.420
 0.172 -0.758 -0.418
 0.318  0.748 -0.418
 0.371  0.592 -0.246
 0.371 -0.694 -0.320
-0.159 -0.843  0.148
 0.371 -0.0971  0.185
 0.199 -0.843  0.314
-0.378 -0.198  0.378
-0.378 -0.216  0.332
 0.245  0.831  0.222
 0.371 -0.189  0.332
 0.254  0.831 -0.136
-0.232 -0.843 -0.301
 0.328  0.279  0.420
0.0246 -0.0420 -0.418
 0.371 0.0957 -0.301
0.0155 -0.843 -0.0168
 0.371 -0.299 -0.375
-0.378  0.784  0.378
-0.0855 -0.843 0.0751
-0.378 -0.391 -0.320
-0.378  0.472  0.369
 0.107  0.243 -0.418
-0.378 0.0314 -0.402
-0.378  0.509 -0.0168
-0.113 -0.446  0.420
-0.378 -0.00531  0.204
-0.0488 -0.0420  0.420
 0.371  0.215 0.0475
-0.0947 -0.216  0.420
-0.0580  0.831 -0.0259
0.0155 -0.244  0.420
-0.315  0.123  0.421
-0.278  0.215  0.420
-0.113  0.619  0.420
-0.378  0.252 0.0475
-0.378  0.555 -0.0260
-0.232 -0.0236  0.420
 0.371 -0.492  0.295
0.0246  0.831  0.204
 0.217  0.573  0.421
-0.150  0.831 0.0842
-0.378 -0.584  0.341
-0.232 -0.143  0.420
-0.378 -0.171 -0.347
-0.378 -0.373  0.176
-0.375 -0.709 -0.416
 0.371  0.592  0.130
0.0614 -0.464 -0.418
 0.372  0.353  0.413
-0.378  0.389 -0.191
-0.131 -0.843 0.0291
-0.287  0.628 -0.418
-0.278 -0.694 -0.418
-0.324  0.298  0.420
0.00628 -0.843  0.222
-0.378  0.261  0.277
-0.159 -0.391 -0.418
-0.0488  0.463 -0.418
-0.375 -0.768  0.179
-0.378  0.720 -0.154
 0.208 -0.409  0.420
 0.371 -0.0971 -0.145
 0.371  0.546  0.167
-0.150 -0.0512 -0.418
 0.371 -0.0237  0.268
 0.371  0.187  0.176
-0.378  0.288 -0.164
-0.214 -0.639  0.420
 0.162  0.325 -0.418
-0.177  0.831  0.286
-0.378  0.748  0.222
 0.371 -0.584  0.286
 0.336 -0.832 -0.191
 0.371 -0.299 -0.210
-0.242  0.831 -0.191
-0.0763  0.692  0.420
-0.378 -0.373  0.360
 0.371 -0.446 -0.283
-0.378 -0.657 -0.228
-0.315  0.729 -0.418
-0.0947  0.500 -0.418
-0.378  0.729 0.0291
 0.371 -0.593 -0.375
 0.371  0.674 -0.0443
 0.371 -0.0145 -0.301
-0.378 -0.0971 -0.0627
 0.190  0.831 0.0842
-0.0488  0.261 -0.418
-0.0763 -0.363  0.420
-0.196 -0.0237 -0.418
-0.378 -0.382 -0.0168
-0.0121 -0.843 -0.0810
-0.214  0.831 -0.136
 0.371 -0.0329 0.0842
 0.371 -0.0512 -0.0994
0.0797 -0.152 -0.418
0.0889  0.831 -0.255
 0.371  0.316 -0.0627
0.00628  0.831 -0.182
-0.0488  0.592 -0.418
-0.378  0.445 -0.00759
0.00623  0.316  0.421
-0.269  0.831  0.277
-0.378  0.307  0.305
 0.337 -0.575 -0.418
 0.371 -0.749  0.194
 0.337  0.178  0.420
-0.378  0.656  0.323
-0.378  0.454 -0.366
-0.333  0.435 -0.418
 0.371 -0.382  0.277
 0.337 -0.317  0.420
-0.324 -0.464 -0.418
-0.378 -0.538 -0.265
-0.361  0.187  0.421
 0.336 -0.838 -0.0810
 0.371 -0.510  0.396
-0.333 -0.281  0.420
-0.378  0.288  0.369
-0.0672 -0.769  0.406
 0.336 -0.786 -0.366
 0.371  0.491 -0.411
0.0155 -0.731  0.420
 0.371  0.637 -0.375
 0.372  0.821  0.396
 0.371 -0.161 -0.366
 0.371 -0.400 -0.411
-0.378 0.0773  0.414
 0.355  0.832 -0.402
 0.369  0.831 -0.102
 0.369 -0.559  0.418
-0.242 -0.838 -0.382
-0.375  0.806 -0.416
 0.364 -0.529 -0.418
-0.342 -0.838 -0.246
 0.116 -0.843  0.350
 0.346 0.0314  0.420
-0.342 -0.795  0.121
-0.159 -0.804 -0.382
-0.352 -0.143 -0.418
0.0889 -0.804 -0.382
-0.352  0.831 -0.274
-0.378 -0.666  0.387
-0.378 -0.519  0.378
 0.144 -0.795  0.385
-0.378 -0.758 0.0199
-0.122  0.821  0.420
 0.346  0.197 -0.418
-0.104  0.793 -0.418
-0.375  0.539 -0.416
 0.318 -0.843 -0.329
-0.375 -0.115  0.418
0.0614 -0.843 -0.374
0.0797 -0.765  0.420
 0.336 -0.795 0.0659
-0.242  0.793 -0.418
 0.371 -0.731 -0.228
-0.378  0.793 0.0934
 0.355  0.610 -0.418
 0.372 -0.758 0.00159
-0.306  0.408  0.421
-0.168 0.0314  0.421
-0.104 -0.106 -0.418
-0.333 0.0222  0.420
 0.371  0.748 -0.118
-0.122  0.831  0.121
 0.371 -0.125  0.259
-0.214  0.831 -0.366
 0.371  0.389 -0.154
 0.372 -0.253  0.130
-0.333  0.831 -0.237
 0.199 -0.676  0.420
-0.378  0.637 -0.338
-0.378 -0.721 -0.375
 0.371  0.683 -0.173
 0.300 -0.547 -0.418
 0.309 -0.115  0.420
 0.217 -0.639 -0.418
-0.378  0.656 -0.283
-0.378  0.206  0.341
 0.245 -0.474  0.420
-0.131  0.831  0.204
 0.371 -0.455 -0.375
 0.126 -0.529 -0.418
 0.245  0.831  0.378
-0.205  0.334 -0.418
-0.177 -0.843  0.185
 0.309 -0.843  0.268
 0.245 -0.843  0.341
 0.181  0.711 -0.418
 0.309 -0.171  0.420
-0.168 -0.198  0.421
-0.306 -0.657 -0.418
-0.150 -0.409  0.420
 0.153 -0.602  0.420
 0.291 -0.391  0.420
-0.278 -0.843  0.204
 0.371  0.224  0.259
-0.378 -0.317 -0.127
 0.371  0.518  0.378
 0.162 -0.843 -0.301
-0.378  0.518 -0.109
-0.232 -0.712  0.420
 0.282  0.500 -0.418
-0.378 -0.281 -0.228
-0.260  0.261  0.420
-0.378  0.399 -0.292
 0.371  0.601  0.249
 0.263  0.555 -0.418
-0.378 -0.161 -0.237
 0.371  0.619  0.194
-0.196  0.831  0.378
-0.378  0.527  0.259
-0.378  0.371  0.231
 0.371 -0.676  0.332
-0.378  0.463  0.231
-0.378 -0.676 -0.145
 0.217 -0.843 -0.255
 0.282  0.261 -0.418
 0.227 -0.843  0.213
-0.232  0.491 -0.418
-0.00290  0.812  0.420
0.0155 -0.843 -0.173
-0.0763  0.197 -0.418
-0.0947  0.831  0.286
0.0338  0.683  0.420
-0.378  0.472 -0.0443
-0.378  0.647 0.0659
 0.181 -0.843 0.0475
 0.371  0.472 -0.0810
 0.172 -0.0512 -0.418
 0.371 -0.620 0.0475
 0.371  0.481 0.0659
-0.0396  0.831 -0.338
-0.378 0.0498  0.139
 0.190 -0.0328  0.420
-0.00290 -0.317 -0.418
 0.371 -0.575 0.0108
-0.0121 -0.843  0.139
-0.378 0.0222 -0.200
0.0246  0.408 -0.418
 0.371 -0.317 0.0199
0.0338  0.491  0.421
 0.371 -0.464 0.0108
 0.162 0.0314  0.420
0.0430  0.831 -0.0535
0.0338  0.831 0.0200
0.0981 -0.703 -0.418
-0.378 -0.198 0.0842
-0.378 0.0865  0.204
 0.227  0.114  0.420
-0.131  0.518 -0.418
 0.371 -0.446  0.121
 0.371  0.399 0.0842
-0.378  0.408 0.0842
0.0614 -0.843  0.139
 0.135  0.831 0.0842
0.0706  0.831  0.286
 0.236 -0.843 0.0291
-0.278 -0.843 -0.0627
-0.0763  0.408 -0.418
0.0706 -0.281 -0.418
 0.300 -0.00530 -0.418
-0.0580 -0.843  0.350
-0.378 -0.00531  0.158
-0.378 0.0222  0.369
-0.159 -0.843 -0.00758
-0.0121 -0.584 -0.418
0.00628 -0.492 -0.418
-0.378 -0.253 -0.00759
 0.107 -0.501  0.420
 0.273 -0.0879 -0.418
-0.269 0.0957  0.420
0.0797  0.831 -0.301
-0.378  0.426 -0.0719
-0.0855 0.0131 -0.418
 0.273 -0.556  0.420
-0.378  0.821  0.350
 0.371  0.380  0.268
 0.371  0.362  0.158
 0.126  0.132  0.420
-0.113 -0.207 -0.418
-0.113 -0.843 -0.118
-0.104 -0.758  0.420
 0.371 -0.0604  0.204
-0.0580  0.831 0.0199
 0.116 -0.843 -0.246
-0.315 0.0773 -0.418
-0.00290 -0.354  0.420
 0.371  0.325 -0.191
-0.232  0.564 -0.418
-0.251 -0.0971 -0.418
 0.371 -0.382 -0.329
 0.371  0.527 -0.338
 0.282 -0.843 -0.311
-0.333 -0.308 -0.418
 0.371  0.344  0.103
-0.104  0.435  0.420
-0.378 -0.244 -0.393
 0.107 -0.437  0.420
 0.371  0.692  0.286
 0.371 -0.336  0.277
 0.371 -0.189 -0.200
 0.282  0.169  0.420
 0.309 -0.171 -0.418
 0.107 -0.474 -0.418
 0.107 -0.345  0.420
-0.378  0.628 -0.154
 0.371 -0.565 -0.320
-0.378  0.592  0.268
-0.378 -0.419  0.121
 0.371  0.674  0.112
 0.371  0.463  0.286
-0.378  0.757 -0.136
-0.0763 -0.843 -0.283
 0.144  0.831 0.0108
-0.0488  0.784 -0.418
-0.333  0.831 0.0108
 0.208 -0.843 -0.0351
-0.378  0.187 0.0475
-0.378  0.610 -0.0535
-0.361  0.243  0.421
-0.168  0.831  0.158
 0.371 -0.666 -0.246
-0.251  0.803  0.420
 0.153 -0.843  0.130
-0.186 -0.843 -0.118
-0.361  0.399  0.420
 0.336 -0.795 0.00159
 0.355 -0.666 -0.418
-0.278 -0.769  0.406
-0.370  0.831 -0.338
-0.333  0.831 -0.0718
0.0338  0.832  0.413
-0.342 -0.804 -0.301
-0.369 -0.437  0.420
 0.371  0.812  0.305
-0.342 -0.786 -0.0994
-0.333 -0.842  0.194
-0.342 -0.813 -0.0259
 0.371  0.683 -0.375
-0.0947 -0.822 -0.382
-0.122 -0.749 -0.418
 0.369  0.831 0.0536
0.00628 -0.765 -0.418
-0.0121  0.831 -0.384
 0.371 -0.740 -0.0443
-0.195  0.831 -0.415
 0.291 -0.838 -0.382
-0.369  0.307 -0.418
-0.378  0.628 -0.384
-0.339 -0.804  0.383
-0.343  0.344  0.420
-0.352 -0.772  0.332
 0.364  0.546 -0.418
-0.278 -0.843  0.377
 0.372 -0.765  0.148
 0.328  0.831 -0.338
 0.371 -0.455  0.222
-0.378  0.463  0.158
 0.217  0.169 -0.418
 0.371  0.334  0.323
 0.371 -0.620  0.213
 0.371 -0.409 -0.0719
 0.371  0.187 -0.0260
-0.378 -0.0237 -0.265
-0.0855 -0.565 -0.418
 0.371 -0.0604  0.305
 0.254 0.0865 -0.418
0.0706 -0.584  0.420
 0.107 0.0865  0.420
0.0797  0.831 0.0567
 0.144  0.399  0.421
 0.371  0.518 -0.283
 0.371  0.784 -0.274
-0.159  0.546  0.420
 0.371  0.546  0.231
-0.378 -0.0971  0.176
-0.378  0.445  0.323
 0.371 -0.694  0.130
 0.217 -0.529 -0.418
 0.172  0.261  0.420
 0.371  0.187 -0.154
 0.371 -0.272  0.222
-0.214 -0.630 -0.418
 0.371  0.252  0.378
 0.245  0.206  0.420
-0.223 -0.446 -0.418
-0.159 -0.843  0.295
 0.371 -0.198 -0.283
 0.371 -0.685  0.204
-0.378 -0.620  0.231
 0.273 -0.575 -0.418
 0.371  0.187 0.0842
 0.369 -0.706  0.418
 0.371 -0.694 -0.0719
 0.371 0.0314 -0.0810
 0.371 -0.0604 -0.0535
0.0797 -0.0420  0.420
0.0889  0.831 -0.0443
-0.0121 -0.804  0.385
-0.0855 -0.712 -0.418
0.0430 -0.216  0.420
 0.371 -0.115 -0.0535
 0.227 0.0406  0.420
0.00628  0.729  0.420
0.0614  0.555  0.420
 0.371 -0.602 0.0934
 0.371 -0.272 -0.0535
-0.378  0.757 0.0567
0.0522 -0.226 -0.418
 0.318 -0.0420  0.420
 0.107 -0.0604 -0.418
0.0246 -0.327  0.420
-0.297 -0.843 0.0108
-0.00290  0.831  0.286
 0.107  0.481  0.420
-0.131  0.518  0.421
 0.371  0.766  0.259
-0.113  0.389  0.420
-0.378  0.389  0.268
-0.378 -0.409 -0.356
-0.141 -0.648 -0.418
-0.378 -0.584 -0.366
-0.378  0.683 -0.255
 0.371  0.564 -0.136
-0.324  0.748  0.420
 0.371  0.435 -0.292
-0.378  0.288  0.194
 0.245  0.831 -0.237
-0.378 -0.235 -0.347
 0.371 -0.327  0.332
 0.371 -0.740  0.323
 0.181 -0.216  0.420
 0.245 -0.657  0.420
-0.378 -0.721  0.378
-0.378  0.729 -0.338
 0.328  0.831 -0.246
-0.378  0.775  0.130
 0.245 -0.694 -0.418
 0.371  0.142  0.378
-0.378 -0.299 -0.173
-0.177 -0.327  0.420
 0.236 -0.180  0.420
-0.223  0.380  0.420
 0.282 -0.843  0.112
 0.217  0.371 -0.418
 0.217  0.426  0.420
 0.371 -0.262  0.268
-0.378  0.656  0.378
-0.378 -0.198  0.213
 0.263 -0.400 -0.418
-0.378  0.169 0.0842
 0.372  0.775 -0.384
-0.297 -0.832 -0.382
-0.168 -0.838  0.385
 0.328 -0.731 -0.418
 0.300 -0.843 -0.246
 0.336 -0.804  0.194
-0.378  0.435 -0.411
-0.378 -0.611  0.413
 0.372 -0.765  0.369
 0.227  0.831 -0.384
 0.199  0.793 -0.418
0.0614  0.803  0.420
-0.187 -0.772 -0.392
0.0889 -0.769 -0.402
 0.371 -0.740 0.0567
-0.324 -0.731  0.420
 0.372  0.500  0.413
 0.346 -0.772 -0.301
-0.0672 -0.327 -0.418
-0.378  0.105 -0.0994
 0.371  0.288 -0.118
 0.371 -0.630  0.369
 0.162  0.831 -0.154
-0.187 -0.584  0.421
 0.328 -0.400  0.420
-0.378 -0.253  0.112
-0.378 -0.483  0.259
 0.282 -0.843  0.167
-0.378  0.417 -0.136
 0.217  0.628 -0.418
 0.371 -0.226  0.387
-0.297 -0.611 -0.418
-0.378 -0.373 -0.182
-0.306 -0.317  0.420
-0.378  0.169 -0.109
 0.371  0.573 -0.182
 0.371 -0.180  0.158
-0.343  0.215 -0.418
