ply
format ascii 1.0
element vertex 2048
property float x
property float y
property float z
end_header
 0.603 -0.461 0.0259
-0.587  0.550 -0.594
-0.582 -0.114  0.595
 0.590  0.541 -0.597
 0.407  0.554  0.583
-0.353 -0.546 -0.557
-0.334  0.554  0.196
0.0596 -0.544  0.594
 0.315 -0.147 -0.597
-0.589 -0.0222 -0.151
 0.604  0.227 0.0128
 0.590 -0.114  0.595
-0.392 -0.546  0.144
-0.00595  0.554 -0.361
-0.00596 0.0827  0.596
-0.229 0.0761 -0.597
0.0858 -0.546 -0.184
 0.230  0.554 0.0980
-0.581  0.385  0.594
 0.577 -0.546 -0.479
-0.0737  0.552  0.594
 0.505 -0.546  0.491
-0.425 -0.546  0.589
-0.589  0.423 -0.171
 0.604  0.135 -0.420
-0.589 -0.173 -0.564
 0.236  0.286 -0.597
-0.589  0.181  0.222
-0.589 -0.435 -0.223
 0.145 -0.540 -0.597
 0.210 -0.546  0.216
 0.518  0.554 -0.203
 0.596  0.553  0.235
-0.589 -0.219  0.203
 0.604 -0.120  0.209
 0.604  0.207  0.399
 0.604 -0.193 -0.236
-0.589  0.188 -0.466
-0.196 -0.238  0.596
-0.104 -0.271 -0.597
 0.223 -0.219  0.596
-0.248  0.482 -0.597
 0.309  0.220  0.596
-0.347  0.135  0.595
-0.268 -0.546 -0.210
-0.268  0.554 -0.145
-0.104 -0.546  0.301
 0.400 -0.546 -0.216
 0.309  0.553 -0.446
 0.604 -0.258 -0.590
-0.0191  0.553  0.295
0.0661 0.0172 -0.597
-0.589  0.522  0.334
-0.589 -0.481  0.347
-0.360  0.553  0.517
-0.0715 -0.546 -0.413
0.00716  0.554 -0.0658
-0.0387  0.292 -0.597
 0.603 -0.376  0.308
 0.250  0.554 -0.184
-0.406  0.554 -0.374
-0.130 -0.546 0.0193
-0.589 -0.442 -0.492
 0.243  0.554  0.373
 0.374 -0.402 -0.597
0.0727  0.332  0.596
0.0989  0.528 -0.597
 0.604 -0.0287 -0.0331
-0.576  0.554 0.0521
 0.420  0.102 -0.597
-0.589 -0.415 0.0390
 0.590  0.378  0.596
-0.360 -0.278 -0.597
-0.589  0.115  0.485
-0.392  0.273 -0.597
 0.603  0.391 -0.374
-0.589  0.201 -0.0396
-0.176  0.312  0.596
 0.309 -0.448  0.596
-0.189 -0.546  0.530
-0.581 -0.356  0.595
 0.584  0.299 -0.597
-0.589 -0.212 -0.328
 0.348 -0.0156  0.595
 0.466 -0.546  0.216
 0.604  0.476 0.0128
 0.171  0.548  0.596
-0.458 0.0368 -0.597
 0.577 -0.343  0.595
-0.589  0.417 -0.400
 0.132 -0.284 -0.597
 0.302 -0.546 0.00623
 0.604 -0.442 -0.217
 0.256 -0.546 -0.400
-0.360 -0.546  0.373
 0.531  0.128  0.596
 0.604  0.148 -0.197
 0.597 -0.0287 -0.597
-0.589 -0.0418 0.0717
-0.589 -0.245 -0.112
-0.452 -0.546 -0.0920
-0.589 -0.0615  0.353
 0.603 -0.238 0.0259
 0.604 -0.0156  0.399
 0.204 -0.546  0.432
-0.353 -0.0811  0.596
-0.157  0.554 0.0718
-0.445 -0.546 -0.335
0.0137 -0.278  0.596
 0.603  0.358 -0.164
 0.604  0.319  0.203
 0.571  0.554  0.452
-0.589  0.188 -0.256
-0.589 -0.0156 -0.393
 0.394  0.443 -0.597
-0.589  0.351 0.0980
 0.604 0.0892  0.163
 0.604 -0.330 -0.400
-0.582  0.345 -0.597
-0.589 -0.284  0.406
 0.394  0.554 -0.0200
-0.130 -0.487 -0.597
-0.176  0.553  0.419
-0.366 -0.343  0.596
 0.105 -0.546 0.0455
-0.242 -0.120 -0.597
-0.163 -0.0353  0.596
-0.366  0.358  0.596
-0.216  0.554 -0.335
 0.604 -0.140 -0.433
 0.387  0.554  0.209
0.0792 -0.0877  0.596
 0.420 -0.199  0.595
 0.604 -0.232  0.445
-0.589  0.279  0.393
-0.386  0.554 -0.000317
 0.184 0.0827  0.596
 0.236 0.0892 -0.597
-0.576 -0.546  0.177
 0.512  0.554 -0.433
-0.0977  0.554 -0.525
 0.604  0.391  0.380
-0.445  0.554 -0.197
-0.425  0.450 -0.597
0.0530  0.554  0.458
-0.589 -0.520  0.524
-0.216  0.292 -0.597
 0.604 -0.0222 -0.282
-0.261 -0.546 -0.406
 0.263  0.397  0.596
-0.556  0.554  0.557
-0.0911  0.554 -0.210
-0.0649 -0.0942 -0.597
-0.104 -0.546 -0.158
-0.491  0.240  0.595
-0.130 -0.396  0.596
-0.301 -0.546 -0.0134
 0.368 -0.546  0.393
 0.407  0.554  0.412
 0.544 -0.415 -0.597
 0.387 -0.546 -0.511
0.0727 -0.546  0.327
0.0661  0.554  0.131
 0.590 -0.546  0.327
-0.425 -0.127 -0.597
-0.0387 -0.546  0.452
 0.250 -0.546 -0.151
 0.164  0.553 -0.367
0.0923 -0.546 -0.400
-0.0715  0.122 -0.597
 0.459 -0.546 -0.0396
 0.420  0.351  0.596
 0.531 -0.546 -0.321
 0.479 -0.147 -0.597
-0.589  0.548 -0.302
-0.471 0.0302  0.595
-0.0191 -0.546  0.163
-0.589  0.378  0.262
-0.504  0.554  0.203
-0.183  0.553  0.249
 0.158 -0.396  0.596
0.0923  0.553 -0.210
 0.603 -0.350  0.150
-0.550 -0.324 -0.597
-0.261 -0.546  0.249
-0.183  0.122  0.595
 0.374  0.554 -0.302
 0.604 -0.324 -0.112
-0.229  0.515  0.596
-0.589 -0.252 0.0455
 0.269  0.548 -0.597
-0.373  0.554  0.347
-0.268 -0.415 -0.597
 0.112  0.194 -0.597
 0.433  0.273 -0.597
-0.471 -0.455 -0.597
-0.445 -0.212  0.596
 0.164  0.554 -0.0593
 0.604  0.260 -0.302
-0.589 -0.389  0.229
 0.158 -0.101 -0.597
-0.589 -0.00251  0.216
0.0530 -0.409 -0.597
 0.604 -0.540 -0.0986
-0.589 -0.00906 -0.551
 0.603 -0.527  0.157
 0.603 -0.442  0.439
 0.119  0.371 -0.597
 0.571  0.522  0.596
 0.604  0.155 -0.564
-0.530  0.207 -0.597
-0.589 -0.540 -0.348
 0.453 -0.435  0.596
-0.563  0.554 -0.0920
-0.261  0.554 -0.472
-0.589  0.102 0.0783
-0.530 -0.546 0.0390
 0.171  0.554  0.249
-0.587  0.552 -0.446
-0.0649  0.436 -0.597
 0.223 -0.422 -0.597
-0.589  0.325 -0.289
-0.275 -0.455  0.596
 0.604  0.423 -0.511
-0.589  0.410  0.445
-0.589 -0.291 -0.466
-0.589 -0.120 -0.0462
 0.479  0.554 0.0914
-0.589 0.0958  0.334
-0.0715  0.207  0.596
-0.00595 -0.546 -0.583
-0.144 -0.546 -0.295
 0.184 -0.546 -0.282
-0.465 -0.546  0.262
 0.407 -0.265 -0.597
 0.604 0.0237  0.543
 0.394 -0.546 -0.354
0.00715 -0.415  0.596
 0.171  0.227  0.596
-0.589 -0.0222  0.491
 0.223 -0.0746  0.595
-0.00595 -0.546 -0.0396
-0.497 -0.546  0.426
-0.589 -0.474 -0.0921
-0.504 -0.546 -0.472
 0.604 -0.494  0.570
-0.471  0.554 -0.518
 0.341 -0.310  0.596
-0.589 -0.356 -0.335
-0.0387  0.410  0.596
-0.589  0.430 -0.0134
-0.0846 -0.147  0.596
 0.276  0.554  0.511
 0.604  0.443  0.150
 0.335 -0.546  0.137
-0.334 -0.0156 -0.597
-0.222 -0.546  0.399
 0.604 -0.173 -0.0921
 0.210 -0.540  0.596
 0.604 -0.140  0.347
-0.491  0.554  0.419
 0.603 -0.245  0.255
 0.604  0.194  0.249
 0.479 -0.0353  0.595
-0.373  0.142 -0.597
-0.589 -0.160  0.471
 0.603  0.482 -0.276
 0.374 -0.546  0.537
 0.603  0.239  0.588
-0.432  0.476  0.596
 0.276 -0.546 -0.583
 0.276 -0.278 -0.597
-0.150 -0.546  0.170
 0.413 -0.0287 -0.597
-0.0125 -0.546 -0.295
 0.387  0.109  0.596
-0.589 0.0630 -0.0527
-0.589 -0.147 -0.197
 0.413  0.553 -0.531
 0.512  0.554  0.334
 0.604 0.0761  0.308
0.0399 -0.193 -0.597
 0.603  0.495 -0.125
 0.603  0.115 -0.0528
-0.589 0.0499 -0.282
 0.604  0.273 -0.472
-0.353  0.554 -0.570
 0.603 -0.0812 0.0848
-0.504 -0.546 -0.210
0.0399  0.553 -0.485
 0.604 0.0106 -0.452
-0.124  0.554 -0.0527
 0.604 -0.0615 -0.158
 0.243  0.423 -0.597
-0.589  0.469  0.163
 0.603  0.345 -0.0331
 0.400  0.554 -0.158
0.0530  0.502  0.596
 0.440  0.227  0.596
 0.499 -0.546 -0.577
 0.315  0.188 -0.597
-0.465 -0.422  0.596
-0.589 -0.533 -0.577
-0.589  0.227 0.0848
-0.281  0.554 0.0718
-0.589 -0.396  0.478
 0.178  0.553 -0.505
-0.589 -0.291 -0.230
-0.281 0.0302  0.595
-0.589  0.279  0.530
 0.446 -0.546 0.0849
0.0530  0.194  0.596
-0.589  0.299 -0.112
-0.320  0.371 -0.597
-0.589  0.319 -0.472
 0.531  0.554 -0.0462
 0.518  0.423 -0.597
-0.0649  0.553  0.150
 0.604  0.135  0.498
-0.288  0.266  0.595
-0.216 -0.546 -0.0986
-0.589 -0.127 -0.439
-0.589 -0.238  0.576
-0.588 0.0504  0.588
-0.242 -0.265 -0.597
 0.604  0.332 0.0848
-0.196 -0.546 -0.505
-0.386 -0.546 -0.190
 0.538 -0.232  0.595
-0.314 -0.193  0.596
 0.604 -0.435 -0.335
 0.472 -0.546  0.334
-0.589  0.102 -0.164
-0.0584 -0.514  0.596
-0.307  0.554 -0.256
 0.604  0.305  0.491
 0.105 -0.546  0.163
 0.105  0.554  0.353
 0.600  0.551  0.102
 0.276 -0.546  0.321
 0.603  0.240 -0.125
-0.334 -0.546  0.517
-0.589  0.115 -0.557
-0.589 -0.356 -0.0789
-0.386 -0.546 -0.446
-0.412 -0.546 0.0193
 0.604 -0.435 -0.466
 0.604 -0.140 -0.570
-0.0715 -0.389 -0.597
-0.445  0.554  0.105
 0.604  0.227  0.131
 0.282  0.554 -0.0462
 0.282 -0.0156 -0.597
 0.604 -0.120  0.471
 0.499  0.554 -0.315
-0.281 -0.546 0.0980
-0.0453  0.554 0.0390
 0.164  0.554  0.478
 0.538 -0.546 -0.190
 0.604  0.450  0.478
 0.604 -0.00906  0.222
-0.0715  0.553  0.458
0.0989 -0.546  0.471
-0.589  0.148 -0.361
-0.589  0.443 -0.544
 0.164 -0.546 -0.485
 0.603 -0.350 0.0324
 0.145  0.417  0.596
-0.581  0.175  0.594
 0.138 -0.546 -0.0855
 0.603 -0.238  0.137
 0.604  0.489  0.327
 0.341  0.554  0.321
 0.112 -0.219  0.596
 0.604 -0.324 -0.223
-0.589 -0.337  0.131
-0.589  0.436 -0.289
-0.150  0.201 -0.597
-0.261  0.553  0.327
 0.604 -0.514 -0.583
 0.604 -0.428 -0.0789
 0.603  0.495 -0.420
-0.589 -0.127  0.144
-0.589 -0.153  0.295
 0.604  0.299  0.321
 0.604  0.102 -0.295
-0.471 -0.225 -0.597
 0.604  0.115 0.0586
 0.538 0.0761 -0.597
-0.294  0.553  0.432
 0.604 -0.343  0.491
-0.589 -0.304  0.295
 0.604 -0.350 -0.531
 0.472  0.554  0.498
-0.379 -0.383 -0.597
-0.111  0.554 -0.380
 0.230 -0.546 0.0849
 0.492  0.450  0.596
-0.288  0.214 -0.597
 0.341  0.469  0.596
 0.604 -0.252 -0.328
 0.603 -0.455  0.236
-0.589  0.528 -0.197
-0.235 -0.356  0.596
 0.348  0.554  0.111
-0.189 -0.0222 -0.597
 0.125  0.554 0.0390
 0.341  0.351 -0.597
-0.268  0.554 -0.0331
-0.589 -0.0942 -0.289
 0.315 -0.127  0.595
 0.512 -0.540  0.596
 0.289 -0.546 -0.276
 0.544 -0.546 0.0390
 0.479 -0.546 -0.413
 0.604  0.404  0.262
-0.0387  0.305  0.596
-0.170  0.430  0.596
-0.582 -0.422 -0.597
 0.250  0.553 -0.308
 0.604 0.0368 -0.190
-0.589  0.319 -0.000326
-0.0191 -0.0549  0.596
-0.589  0.292  0.183
 0.512 -0.304 -0.597
-0.589  0.541  0.445
0.00715 -0.317 -0.597
-0.484 -0.0811  0.596
-0.320  0.469  0.596
 0.354 -0.546 -0.125
-0.307 -0.546 -0.315
-0.471  0.338 -0.597
-0.497  0.554 -0.0134
-0.130  0.358 -0.597
 0.204 -0.206 -0.597
 0.400  0.554 -0.400
-0.0387 0.00404 -0.597
-0.229 -0.520 -0.597
-0.157  0.553  0.517
-0.314 -0.546 -0.118
0.0792 0.0303  0.596
-0.268  0.384  0.596
 0.243 -0.343  0.596
-0.589 -0.455  0.131
 0.171 -0.546  0.308
-0.550 -0.0877 -0.597
0.0727  0.554  0.236
-0.589 -0.383  0.360
 0.289  0.554  0.196
-0.360 -0.546  0.262
0.0137  0.188 -0.597
 0.210  0.188 -0.597
-0.589  0.246 -0.367
-0.124  0.553  0.327
-0.216  0.554  0.150
-0.589  0.260  0.281
 0.387 -0.546  0.275
-0.104 0.0433  0.595
 0.282 -0.546  0.504
-0.379  0.227  0.595
-0.0322  0.528 -0.597
 0.577 -0.546  0.426
-0.0715 -0.546 -0.511
 0.499  0.554  0.229
0.0596 -0.546 -0.511
0.00715 -0.179  0.596
-0.589 -0.448 -0.380
-0.458  0.148  0.595
 0.525  0.201 -0.597
-0.248 -0.0811  0.596
0.0661  0.279 -0.597
-0.183 -0.369 -0.597
-0.111 -0.284  0.596
 0.518  0.286  0.596
-0.465  0.332  0.595
 0.204 -0.546 -0.00687
 0.603  0.351 -0.276
 0.433 -0.337  0.595
-0.452 -0.546 -0.583
 0.577  0.554 -0.505
-0.587 -0.544 -0.254
 0.604 -0.252  0.353
 0.472  0.522 -0.597
 0.604 -0.0549  0.308
 0.604 0.0237 0.0783
0.0989 -0.317  0.596
-0.163 -0.546 -0.393
-0.589 0.0761 -0.472
 0.335 0.0630 -0.597
-0.157 -0.160 -0.597
 0.499 -0.147  0.595
0.0137  0.553 -0.269
 0.145 0.0696 -0.597
-0.510  0.495 -0.597
-0.189  0.554 -0.544
-0.216  0.554 -0.236
-0.504 -0.304  0.596
 0.604 -0.271 -0.472
-0.589 0.0368  0.419
-0.589 -0.448  0.583
-0.465  0.554 -0.302
0.0465  0.430 -0.597
-0.314  0.554 -0.387
 0.243  0.155  0.596
-0.589 0.0892  0.170
-0.137 0.0565 -0.597
-0.589  0.476  0.511
-0.432  0.554 -0.105
0.0530 -0.101 -0.597
-0.589 -0.540  0.426
 0.354 -0.500 -0.597
-0.458 -0.330 -0.597
0.0792 -0.546 -0.276
-0.00595 -0.546 0.0521
-0.00595 -0.546 -0.184
 0.604 -0.107 -0.315
-0.589 -0.160 0.0586
-0.550 -0.546  0.295
 0.230  0.312  0.596
 0.584  0.554 -0.348
 0.302 0.0761  0.596
 0.374  0.554  0.498
 0.459 -0.448 -0.597
-0.255 -0.544  0.594
 0.125 -0.481  0.596
-0.589  0.515  0.242
 0.440  0.364 -0.597
 0.604 -0.533 -0.269
 0.604 0.0433 -0.544
-0.163  0.456 -0.597
 0.138 -0.383 -0.597
-0.589  0.188  0.334
-0.0191 -0.546  0.327
 0.604 0.0827  0.426
 0.505 -0.0615 -0.597
 0.178  0.553 -0.236
 0.604 -0.507 -0.387
 0.309 -0.546  0.222
-0.537 -0.546 -0.118
0.0465 -0.546  0.242
0.0792  0.553 -0.335
-0.589 -0.481  0.236
-0.399  0.554  0.262
-0.202  0.227  0.596
-0.589 -0.533 -0.452
-0.0977 -0.546  0.524
-0.589  0.260 -0.557
-0.530  0.554 -0.367
-0.307 -0.179 -0.597
 0.604 -0.0811 -0.505
 0.604 0.0303 -0.0986
0.0989  0.553 -0.118
-0.163 -0.494  0.596
-0.353 -0.468 -0.597
 0.322  0.332  0.596
-0.537 -0.546  0.589
-0.399  0.553  0.439
 0.604  0.299 -0.380
 0.551 -0.546  0.249
-0.491 -0.546  0.118
-0.563  0.476  0.595
-0.386 0.0499  0.595
-0.216 -0.546 0.0390
-0.0125  0.554 -0.151
-0.589  0.279 -0.197
-0.235  0.391 -0.597
 0.269  0.541  0.596
 0.492 0.0499  0.596
 0.256  0.554  0.288
-0.452 -0.546  0.347
-0.353  0.554 -0.158
 0.604 -0.212  0.543
-0.255  0.553  0.524
 0.184  0.554 -0.590
 0.525 -0.219 -0.597
-0.425 -0.546  0.471
-0.589  0.207  0.439
-0.347 -0.514  0.596
-0.275  0.181  0.595
0.0203 0.0892 -0.597
-0.589 -0.199  0.367
-0.144  0.554 -0.282
-0.589 -0.284  0.504
 0.603 -0.422  0.105
-0.589 0.0106  0.308
 0.603  0.253 -0.217
-0.137 -0.546  0.406
 0.603 -0.461  0.321
-0.202 -0.153  0.596
-0.183 -0.546 -0.216
 0.282 -0.546 -0.498
-0.379 -0.428  0.596
-0.589 -0.363 -0.525
-0.471  0.553  0.557
-0.569 -0.546 -0.0396
-0.576  0.554  0.137
-0.589 -0.0156 -0.0200
 0.597  0.456 -0.597
 0.309  0.554  0.432
 0.348  0.266 -0.597
0.0137  0.554  0.373
-0.406  0.554 -0.459
0.0530  0.417  0.596
-0.589 -0.376 -0.439
 0.446 -0.546 -0.289
 0.158 -0.127  0.596
 0.440 -0.350 -0.597
 0.197 0.00404 -0.597
0.0989  0.554  0.530
 0.544  0.554 0.0390
 0.151 -0.546  0.537
 0.602  0.547 -0.191
0.0137 -0.546  0.524
 0.472  0.554 -0.105
-0.438  0.552 -0.595
 0.603  0.436 -0.0659
-0.589 -0.350 -0.171
 0.433  0.554 -0.243
 0.223  0.554 0.0128
0.0661 -0.507 -0.597
 0.171 -0.546 -0.374
 0.282 -0.546  0.406
 0.604  0.220 -0.407
 0.604  0.417 0.0717
-0.484  0.115 -0.597
-0.288 -0.546  0.327
0.0792  0.115  0.596
0.0203  0.351 -0.597
 0.603 -0.324  0.229
-0.589 -0.278 -0.0331
-0.550 -0.0222  0.596
-0.589 -0.252 -0.590
-0.0256 -0.468 -0.597
-0.589  0.174 -0.125
 0.112  0.553 -0.446
-0.589 -0.219 -0.426
 0.223  0.469  0.596
-0.373 -0.252  0.596
-0.589  0.338  0.334
 0.178 -0.546 -0.190
 0.151  0.266 -0.597
 0.171  0.463 -0.597
-0.517 -0.173  0.596
 0.387 -0.107 -0.597
 0.354 -0.546 -0.426
 0.387 -0.546 -0.000317
 0.322  0.554 0.0259
 0.263 -0.00254  0.595
-0.0911 -0.546 0.0914
 0.413 -0.507  0.596
 0.368  0.541 -0.597
 0.531 -0.455  0.595
-0.288 -0.337 -0.597
-0.471  0.554  0.340
-0.268  0.554 -0.564
-0.0846 -0.546  0.222
 0.453 -0.546  0.412
 0.125 -0.186 -0.597
 0.210  0.554  0.177
-0.524  0.554 -0.236
 0.604  0.535  0.524
 0.496  0.552  0.594
-0.347  0.548  0.596
 0.177 -0.00907  0.595
-0.0780 -0.546 -0.249
0.00711  0.554  0.190
 0.544  0.554  0.163
-0.589  0.364  0.517
 0.604 -0.369 -0.289
-0.510 -0.546 -0.380
 0.289 -0.527  0.596
 0.407 -0.120  0.595
 0.197  0.358 -0.597
 0.289 -0.356 -0.597
 0.564 -0.0222  0.595
 0.236 -0.0877 -0.597
-0.0387 -0.206 -0.597
 0.604 -0.00251 -0.374
-0.589  0.102  0.249
-0.537 0.0499 -0.597
-0.412  0.554  0.183
 0.499  0.554  0.412
 0.604  0.181 -0.315
-0.150  0.528  0.596
 0.604  0.312  0.399
 0.604 -0.0615  0.537
 0.263  0.553 -0.518
-0.589  0.450  0.367
-0.294 -0.546  0.177
 0.204 -0.317 -0.597
-0.373  0.554 -0.302
 0.269 -0.546 -0.0658
0.0727 -0.546 -0.0265
0.0792  0.554 -0.0331
 0.302 -0.435 -0.597
-0.589  0.391 -0.0986
 0.603 -0.153 0.0521
-0.589 -0.252  0.131
-0.478 -0.0549 -0.597
-0.386 -0.160  0.596
-0.0453  0.554 -0.466
-0.589 -0.199 -0.0134
 0.426  0.181 -0.597
-0.111  0.378  0.596
-0.366 -0.546 -0.367
 0.302  0.476 -0.597
-0.484  0.417  0.595
 0.604  0.214  0.478
 0.309  0.554 -0.131
 0.348  0.554 -0.216
-0.327  0.476 -0.597
-0.261  0.554  0.242
-0.589 -0.461  0.432
 0.604  0.351 -0.466
 0.584 -0.546  0.504
 0.151  0.305  0.596
-0.294  0.135 -0.597
 0.603 -0.160  0.131
 0.125 -0.546  0.386
 0.505 -0.376  0.595
-0.248 -0.546  0.478
 0.601 -0.544 -0.0200
-0.334 0.0630 -0.597
 0.138 -0.461 -0.597
 0.584  0.378 -0.597
-0.589 -0.0156 -0.472
-0.452  0.207 -0.597
-0.589  0.469 0.0848
 0.531 -0.546  0.131
-0.589  0.188  0.517
 0.604  0.220  0.321
-0.589  0.319 -0.393
 0.381 -0.193 -0.597
-0.589 -0.0484 -0.223
 0.603 0.0433 -0.00690
-0.130 -0.546 -0.0855
-0.589 -0.540 -0.177
 0.604 -0.134 -0.0265
-0.589 -0.520 0.0914
 0.525 -0.546 -0.0789
-0.0322  0.553  0.524
 0.604  0.115 -0.498
 0.604 -0.206 -0.511
 0.184  0.554 -0.145
-0.438 -0.546 -0.249
-0.491  0.554 -0.433
-0.196 -0.448 -0.597
-0.589 0.0368 -0.203
-0.314 -0.546 -0.492
 0.603  0.528 -0.0528
 0.603  0.154  0.588
 0.426 -0.533 -0.597
-0.589  0.515 -0.0331
 0.596  0.553  0.366
-0.589 -0.107  0.412
-0.373 -0.546 -0.0724
-0.353 -0.546 0.0652
0.0399 -0.546 -0.125
-0.425 -0.0353  0.596
-0.209  0.554 0.0128
 0.492  0.371  0.596
 0.394 -0.546  0.196
 0.604  0.227 -0.544
-0.589 -0.101 -0.138
 0.407  0.554  0.281
-0.432 -0.546 -0.511
 0.440 -0.546 -0.112
-0.0780  0.220 -0.597
-0.504 -0.546 -0.289
-0.589  0.476 -0.446
-0.196 -0.546  0.111
-0.294 -0.265  0.596
 0.603 -0.396  0.380
 0.328 -0.546 -0.197
 0.459 0.0303 -0.597
-0.589  0.155 0.0193
 0.604 -0.120 -0.203
 0.577 0.0696  0.596
-0.137  0.548 -0.597
0.0268 -0.546  0.386
 0.171 -0.297  0.596
-0.589  0.142  0.393
 0.223  0.553 -0.446
 0.604 -0.252 -0.0921
 0.600  0.453  0.593
-0.517 -0.514 -0.597
 0.604 -0.0287  0.137
 0.426  0.554  0.144
-0.209 -0.546  0.301
-0.517 -0.474  0.596
-0.150  0.554 -0.472
0.0268  0.554 0.0193
 0.604 -0.291  0.543
-0.589 -0.271 -0.374
 0.485  0.135 -0.597
-0.504 -0.160 -0.597
 0.604  0.115 -0.131
 0.603  0.417 -0.243
 0.604 -0.173  0.281
-0.589 -0.147 -0.361
 0.604  0.371  0.524
-0.589 -0.0353  0.150
-0.589 -0.232  0.281
-0.589 -0.448 -0.295
-0.373  0.554 0.0914
-0.589 -0.343 0.0259
-0.117 -0.0353 -0.597
-0.0780  0.553  0.222
-0.589 0.0630 -0.400
-0.589 -0.0680  0.249
 0.295  0.553 -0.374
 0.374  0.181  0.596
0.000602 -0.546 -0.426
-0.347 -0.0877 -0.597
 0.604 -0.363 -0.0396
 0.125  0.489  0.596
 0.604 -0.409  0.576
 0.604 -0.00906  0.478
-0.589 -0.199 -0.256
-0.0518  0.364 -0.597
 0.440  0.554  0.347
-0.556  0.286  0.595
 0.538  0.207  0.596
 0.604 -0.179 -0.335
-0.196  0.554 -0.138
-0.589 -0.225 -0.498
 0.420  0.443  0.596
 0.604  0.482  0.399
-0.124  0.286 -0.597
 0.604  0.148  0.327
 0.368 -0.330 -0.597
 0.236  0.554  0.445
-0.458 -0.546  0.190
-0.589  0.371  0.190
 0.446 -0.546  0.543
 0.119 -0.546  0.236
-0.589  0.220  0.157
-0.0584  0.553  0.380
 0.596  0.553 -0.263
 0.361 -0.546  0.465
-0.0649  0.135  0.596
 0.604 -0.0680 -0.433
 0.171  0.554  0.321
 0.164  0.554  0.406
-0.0715 -0.546 -0.341
 0.604 -0.402 -0.400
-0.589  0.188 -0.557
-0.353  0.554 -0.0855
-0.235 -0.546 -0.315
0.0792 -0.415  0.596
 0.604  0.161  0.163
-0.0911 -0.0353  0.596
-0.589 -0.415 -0.0396
 0.604 0.0761 -0.380
-0.589  0.482 -0.131
 0.499  0.325 -0.597
 0.459 -0.258  0.595
 0.119 -0.0418 -0.597
-0.589 -0.0877 -0.498
 0.604 -0.101 -0.0986
-0.589 0.0433 0.0390
-0.0518 -0.245  0.596
-0.511 0.0892  0.595
-0.00597  0.553  0.111
0.0792  0.128 -0.597
-0.432 -0.291  0.596
-0.176 -0.317  0.596
-0.412  0.378 -0.597
 0.604 -0.481 -0.138
-0.465  0.554  0.485
-0.589  0.358 -0.197
-0.0780 -0.546  0.367
-0.373  0.554 -0.230
-0.373 -0.206 -0.597
-0.373 -0.546 -0.276
-0.176 -0.546  0.236
 0.374  0.253  0.596
-0.445 -0.546 -0.406
-0.0846  0.482  0.596
0.0137  0.553 -0.551
 0.367 -0.245  0.595
 0.505  0.553 -0.544
 0.604 -0.291 -0.0200
-0.589  0.371 -0.518
-0.589 -0.435  0.295
-0.589  0.378 -0.335
-0.275 0.0237 -0.597
0.0596 -0.271 -0.597
 0.158 -0.546 0.0914
-0.478 -0.546  0.543
 0.603  0.463 -0.190
 0.361 -0.402  0.596
-0.301 -0.514 -0.597
-0.130 -0.199  0.596
0.0203 -0.487  0.596
 0.604  0.502  0.190
-0.550  0.554  0.380
-0.524  0.554 -0.564
 0.335  0.553 -0.538
 0.597 -0.546 0.0914
 0.601 -0.376 -0.594
 0.604 -0.232 -0.393
-0.216  0.220 -0.597
-0.510  0.273 -0.597
-0.0584 -0.396  0.596
-0.589 -0.324  0.209
-0.144 -0.546 -0.459
-0.589  0.260 -0.262
-0.0715 -0.546 -0.0200
-0.589  0.246 0.0193
-0.327  0.292 -0.597
-0.170  0.135 -0.597
 0.105  0.246  0.596
0.0596  0.553 -0.400
 0.544 -0.120 -0.597
 0.604 -0.442 -0.577
 0.525 -0.487 -0.597
 0.604 -0.291  0.412
-0.0780  0.554 -0.321
-0.589 -0.468 -0.164
-0.589  0.378 0.0324
-0.183 -0.546 -0.0396
-0.00596  0.535  0.596
-0.497 -0.546 -0.0200
-0.327 -0.546  0.432
0.0465 -0.0287  0.596
-0.163 -0.238 -0.597
 0.604  0.188 -0.466
 0.282 -0.252  0.596
 0.197 -0.494 -0.597
 0.197 -0.546 -0.544
-0.537 -0.546  0.491
 0.571  0.554 -0.118
-0.170 -0.546  0.465
 0.217  0.554  0.543
 0.223 -0.474  0.596
 0.604  0.476  0.262
-0.589 -0.278 -0.295
 0.453 -0.546 -0.525
-0.248  0.554 -0.406
 0.604  0.482 0.0848
 0.603  0.181 -0.0659
-0.589  0.201 -0.190
 0.328  0.554  0.255
 0.604  0.384  0.458
-0.0780  0.554 -0.138
 0.604 -0.0811  0.386
0.0334  0.554  0.543
 0.604 0.0565  0.236
-0.157  0.554 -0.197
-0.196 0.0564  0.595
-0.0649 -0.546 -0.0986
-0.589  0.253 -0.485
 0.387  0.553 -0.466
 0.604  0.240  0.196
-0.589 -0.173  0.563
-0.589 -0.297 -0.538
-0.550  0.436 -0.597
-0.582 -0.546  0.353
 0.584  0.554  0.301
-0.419  0.548  0.596
 0.604 -0.415 -0.145
 0.210 -0.546  0.367
-0.0125 0.0171  0.596
-0.589 -0.00906 -0.328
 0.603 -0.317  0.347
 0.295 -0.546 -0.341
-0.301 -0.330  0.596
-0.589  0.155  0.150
 0.603 -0.389  0.242
-0.386  0.292  0.595
-0.196  0.553  0.334
-0.465  0.554  0.268
-0.0584 -0.324 -0.597
 0.531 0.0106 -0.597
-0.589 0.0433  0.485
 0.453 -0.546  0.150
 0.603  0.430 -0.131
-0.130  0.554  0.144
-0.589  0.135 -0.0462
 0.269 -0.212 -0.597
-0.510  0.515  0.596
 0.322  0.142  0.596
 0.603 -0.206  0.203
 0.119 -0.546 -0.335
-0.589  0.463 -0.223
-0.543 -0.546 -0.525
 0.400  0.554 0.0718
-0.589 -0.356 -0.269
 0.604  0.292 0.0128
 0.440  0.161  0.596
-0.353  0.554 -0.505
 0.295 -0.546 0.0849
-0.445  0.554 0.0390
-0.589 0.0106 -0.0921
0.0923  0.553 -0.525
 0.138 -0.546 -0.0200
 0.603  0.345 -0.0986
 0.453 -0.546 -0.177
 0.132  0.155  0.596
0.0137  0.364  0.596
-0.202 -0.442  0.596
-0.334  0.554  0.262
-0.517 -0.238  0.596
 0.544 -0.546 -0.413
-0.556  0.554  0.288
 0.604  0.332 -0.544
-0.589  0.469  0.288
-0.589 0.0433  0.124
 0.164  0.554  0.131
 0.132 -0.546 -0.236
 0.603 -0.0222 0.0324
-0.307 -0.0353  0.596
 0.604 0.0696  0.498
-0.0846 -0.160 -0.597
0.0465 -0.546 -0.354
 0.354  0.554 -0.0855
 0.335 -0.238 -0.597
-0.268 -0.147  0.596
-0.0846 -0.533 -0.597
-0.530  0.554  0.498
 0.604  0.410 -0.439
 0.604  0.273  0.262
 0.604 -0.147  0.530
 0.603 -0.409  0.177
-0.589 -0.343  0.530
 0.472  0.554 -0.374
-0.124 -0.343 -0.597
-0.517 -0.546  0.216
 0.531  0.554  0.524
0.0268 -0.0418 -0.597
 0.603  0.253 -0.0462
0.0661 -0.153  0.596
 0.204  0.371  0.596
0.0399 -0.343  0.596
 0.381 -0.546 -0.0658
 0.309  0.122 -0.597
 0.604  0.358  0.144
-0.504  0.554  0.131
 0.348 -0.546 -0.302
-0.543  0.142 -0.597
-0.589 -0.101  0.498
-0.137 -0.546 -0.531
 0.604 -0.0811 -0.256
 0.407 -0.0418  0.595
-0.0125 -0.147 -0.597
-0.517  0.174  0.595
 0.250  0.554 -0.105
-0.327 -0.546 -0.420
-0.589 -0.225  0.478
 0.600  0.303  0.593
-0.392  0.509 -0.597
-0.248  0.456  0.596
-0.412 -0.487 -0.597
 0.158  0.553 -0.295
 0.603 -0.481  0.380
-0.589  0.319  0.242
 0.603  0.450 -0.354
 0.604 0.00404  0.340
0.0530  0.554  0.295
-0.0191  0.246  0.596
 0.243 0.0565  0.596
-0.248 -0.0418 -0.597
-0.209  0.554 -0.0527
 0.603 -0.461  0.498
-0.458 -0.494  0.596
 0.368 0.0433  0.596
 0.230  0.246  0.596
-0.294  0.554 -0.328
 0.604 -0.0222 -0.525
-0.589 -0.0746 -0.000326
-0.589 -0.179 -0.0724
-0.589  0.299 0.0586
-0.130  0.227  0.596
 0.604 -0.212 -0.177
 0.604 -0.140  0.412
-0.399 0.0172 -0.597
-0.00595 -0.546  0.583
-0.589  0.469  0.426
-0.170  0.554 -0.413
-0.0191  0.554 -0.216
 0.525 -0.546  0.367
 0.217 -0.546 -0.452
-0.209 -0.193 -0.597
 0.603  0.292 -0.158
 0.315  0.554 -0.269
 0.269  0.338 -0.597
 0.604 -0.219 -0.0396
0.0530 -0.546 0.0783
-0.0715  0.554 -0.0200
 0.604 -0.540 -0.335
 0.459  0.502  0.596
 0.512 -0.291  0.595
 0.263 -0.160  0.595
-0.589 -0.193 -0.145
 0.191 -0.546 -0.118
-0.229  0.553  0.386
-0.320  0.554 -0.452
-0.589  0.404  0.137
 0.368  0.410  0.596
 0.269  0.233 -0.597
-0.392 -0.546  0.321
-0.209  0.553  0.471
 0.105  0.554  0.183
 0.348 -0.546 0.0521
-0.530 -0.0222 -0.597
-0.517 -0.546  0.347
 0.603 -0.514  0.255
 0.603  0.502 -0.485
-0.589 -0.507 -0.518
 0.223 -0.546  0.537
-0.569  0.115  0.595
 0.590  0.554 -0.413
-0.589  0.325  0.471
 0.512  0.260 -0.597
 0.348  0.554  0.386
 0.400 -0.546  0.334
-0.327 -0.546 -0.223
0.0334  0.286  0.596
 0.538 -0.546 -0.525
 0.604 -0.330 -0.335
-0.504  0.554 -0.105
-0.294  0.554  0.131
 0.354 -0.0418 -0.597
-0.425  0.102 -0.597
 0.269 -0.546 -0.210
 0.571 -0.546  0.563
 0.604 -0.343 -0.459
-0.0977 -0.343  0.596
 0.335 -0.546  0.334
-0.176 -0.546 -0.145
-0.00597  0.553  0.445
 0.604 -0.0615 -0.361
-0.0125 -0.402 -0.597
 0.295 -0.0746 -0.597
-0.0977 -0.468  0.596
 0.604  0.404 0.0128
 0.440  0.554 0.0259
0.0399 -0.546  0.150
-0.589  0.102 -0.0986
-0.321 0.0761  0.595
-0.589 0.0499 -0.538
-0.510  0.554 0.0455
0.00715  0.476 -0.597
-0.0780 -0.546  0.150
 0.125 -0.0484  0.595
-0.406  0.404  0.596
-0.353  0.227 -0.597
-0.202 -0.310 -0.597
 0.603 -0.468  0.144
-0.425 -0.114  0.596
0.0137  0.148  0.596
 0.459  0.553 -0.492
 0.604 -0.284 -0.158
-0.510 -0.278 -0.597
-0.202  0.553  0.557
-0.163 -0.546  0.340
-0.202 -0.546 -0.439
 0.604  0.128  0.386
-0.589 -0.396  0.118
 0.604  0.358  0.308
-0.589 -0.0680 -0.426
 0.459  0.554 -0.171
-0.589  0.502 -0.557
 0.446 -0.546  0.478
 0.604 -0.147 -0.498
 0.282  0.456  0.596
 0.590 -0.317 -0.597
-0.589 -0.540 0.0324
 0.335 -0.546 -0.564
-0.586 -0.507  0.593
 0.132 -0.546 -0.145
 0.603  0.168 0.00619
 0.597 0.0827 -0.597
-0.327  0.554 -0.0265
-0.589 -0.0877 -0.348
0.000594 -0.120  0.596
-0.589  0.142 -0.420
-0.530  0.554 -0.505
 0.604  0.142 -0.361
-0.0977 -0.546  0.458
-0.589 -0.160  0.196
 0.250 -0.402  0.596
-0.589 -0.455  0.491
-0.458 -0.363  0.596
-0.589  0.109 -0.276
-0.589 -0.0680 -0.557
-0.0125 -0.546 -0.518
 0.538 -0.546 -0.0200
-0.183 -0.0811 -0.597
-0.589  0.161 0.0848
 0.603  0.174 -0.138
 0.604  0.286  0.124
-0.327  0.410  0.596
 0.538  0.554 0.0980
-0.255 -0.546 -0.498
 0.466 -0.258 -0.597
-0.589 -0.376  0.301
 0.348 -0.520  0.596
-0.589  0.397  0.327
 0.604  0.174 -0.256
 0.119 -0.546  0.589
 0.603  0.547 0.0319
 0.597 -0.193 -0.597
-0.589 -0.193  0.131
-0.386 -0.546 -0.131
 0.604  0.443  0.209
 0.472 -0.546  0.275
 0.518  0.482 -0.597
-0.445 -0.546 -0.190
-0.452  0.266 -0.597
-0.0387 0.0630 -0.597
 0.604 -0.540 -0.158
-0.569  0.554  0.203
-0.242 -0.546 -0.0396
 0.440 -0.193 -0.597
 0.112  0.463 -0.597
-0.589  0.384  0.393
-0.530 -0.212 -0.597
 0.276 -0.487 -0.597
 0.479  0.554  0.170
-0.589 -0.258  0.334
-0.399 -0.546  0.419
-0.589 -0.507 -0.400
-0.589  0.371 -0.0265
-0.399 -0.0615 -0.597
-0.589  0.273 -0.0593
 0.204 -0.546  0.137
-0.589  0.260  0.465
-0.196  0.509 -0.597
 0.282 -0.546  0.163
 0.505 -0.0877  0.595
-0.255 0.0827  0.595
-0.0649 -0.546 0.0390
-0.589  0.456 -0.0789
-0.261  0.319  0.596
-0.432 -0.409 -0.597
-0.497 -0.402 -0.597
 0.420 -0.546 -0.406
 0.604  0.417  0.327
-0.589  0.214 -0.308
-0.281  0.554 -0.203
 0.604  0.188  0.530
0.0399  0.553 -0.184
-0.445  0.554 -0.0396
 0.132 0.0565  0.596
-0.589 -0.468 0.0128
-0.589  0.312 -0.531
 0.374  0.207 -0.597
-0.268  0.319 -0.597
 0.394  0.325 -0.597
 0.230 -0.278  0.596
-0.327 -0.402  0.596
-0.589 -0.317 -0.413
-0.589 -0.271  0.236
 0.518 -0.546 -0.466
 0.604 -0.468 -0.269
 0.604  0.469  0.537
-0.589 -0.0484  0.563
0.0923 -0.546 -0.564
 0.600 -0.261  0.592
-0.589  0.128  0.543
 0.597  0.201 -0.597
 0.604 -0.527 -0.525
-0.589  0.246  0.216
-0.321  0.214  0.595
 0.604 0.0303 -0.328
0.00716  0.554 -0.439
-0.589  0.214 -0.413
 0.426  0.554 -0.0724
0.0989  0.384  0.596
-0.248 -0.546  0.144
-0.0846  0.273  0.596
 0.604 0.0827 -0.223
0.0530 -0.350 -0.597
 0.119  0.554 0.0980
 0.295 -0.0484  0.595
 0.603 -0.278  0.301
 0.119  0.312 -0.597
-0.183 -0.546 -0.564
-0.399  0.554 -0.538
-0.419  0.554 -0.269
 0.544  0.410  0.596
-0.589  0.332  0.563
 0.295 -0.546 -0.118
 0.604  0.253  0.367
-0.235 -0.546 -0.256
-0.412 -0.546  0.222
-0.157 -0.546  0.576
-0.353 -0.147 -0.597
-0.242 -0.206  0.596
 0.236 -0.160 -0.597
-0.589 -0.317  0.360
 0.309  0.397 -0.597
 0.394 -0.448  0.596
-0.589  0.371 -0.433
 0.604 -0.179  0.485
 0.479  0.554  0.288
-0.0911  0.515 -0.597
-0.478  0.430 -0.597
 0.466  0.305  0.596
-0.589  0.456 -0.341
-0.438  0.273  0.595
-0.484 -0.546 -0.531
 0.604 -0.481 -0.0593
-0.0715  0.554 -0.262
 0.603  0.338 -0.217
 0.472 -0.546 -0.230
 0.466 -0.546 -0.341
 0.479  0.109  0.596
 0.518 -0.546 -0.138
 0.603 -0.487 0.0914
-0.0649  0.554 0.0914
 0.459 -0.0942 -0.597
-0.589 0.0433  0.353
-0.144 -0.0877  0.596
-0.150  0.553  0.196
-0.275  0.554  0.183
-0.589 -0.343  0.458
-0.589 -0.173 -0.479
 0.459  0.417 -0.597
 0.171 -0.546  0.485
 0.492 -0.396 -0.597
0.0530 -0.546 -0.446
-0.301 -0.101  0.596
-0.589 -0.304 -0.0986
 0.604 0.0499 -0.276
 0.603  0.312 -0.321
 0.604 -0.265 -0.210
-0.281  0.535  0.596
-0.589  0.299 -0.341
-0.386 -0.546  0.537
-0.576  0.233  0.595
-0.563  0.292 -0.597
 0.604  0.188 0.0914
-0.589  0.142 -0.203
 0.269  0.554  0.137
 0.191  0.554 0.0586
-0.589 0.0827 -0.000326
-0.0322 -0.455  0.596
 0.604 -0.271  0.485
 0.236 -0.546  0.281
0.0530 -0.238  0.596
-0.484  0.554 -0.158
-0.589 -0.0746  0.190
-0.589  0.240 -0.151
-0.157 -0.546 0.0718
-0.589  0.535 -0.393
 0.472  0.214 -0.597
 0.243  0.554  0.236
 0.603 -0.291 0.0390
 0.367 -0.186  0.595
 0.151 -0.546 -0.433
-0.144  0.553  0.465
 0.604 -0.120  0.268
 0.191 -0.258 -0.597
 0.171 -0.448  0.596
-0.366 -0.0287  0.596
-0.0387  0.554 -0.538
 0.472 0.0827 -0.597
-0.0125 -0.330  0.596
 0.407 0.0499 -0.597
-0.0322 -0.546  0.236
-0.0780 -0.455 -0.597
-0.0125  0.423 -0.597
 0.604 0.0368  0.150
0.0137 -0.546  0.465
-0.589 -0.00251 -0.269
-0.0256  0.554 -0.308
 0.604 -0.396  0.524
-0.130 -0.546 -0.348
 0.604 -0.193 -0.446
 0.132  0.142 -0.597
 0.236 -0.546 -0.295
 0.604 0.0761  0.111
-0.0846  0.553  0.511
-0.412  0.553  0.498
-0.491 -0.546 -0.158
 0.544 -0.546 -0.269
 0.604 -0.193  0.399
 0.466 -0.494  0.596
-0.589 -0.442  0.183
-0.491 -0.107 -0.597
-0.589 -0.206 -0.197
-0.347 -0.546  0.190
-0.340 -0.546  0.131
 0.236  0.553 -0.256
-0.589 -0.101  0.308
 0.604 -0.356  0.439
-0.589  0.430  0.249
-0.589 -0.409  0.419
 0.112 -0.546 -0.498
 0.604  0.509 -0.557
-0.307 -0.546  0.583
-0.589 -0.514 -0.131
-0.471 -0.147  0.596
-0.399  0.325 -0.597
-0.589 -0.435 -0.439
-0.288 -0.546 -0.0658
-0.209 -0.00906  0.596
-0.589 -0.291  0.570
 0.164  0.554  0.537
-0.471  0.554 -0.249
-0.242  0.142 -0.597
 0.210 -0.153  0.595
-0.524 -0.546  0.163
-0.524 -0.120  0.596
 0.604  0.279 -0.525
-0.589 -0.487  0.288
-0.524  0.345 -0.597
 0.603  0.397 -0.321
 0.604  0.142  0.275
 0.230  0.553 -0.393
 0.604 -0.376 -0.217
 0.603 -0.500  0.432
-0.294  0.554 -0.0986
-0.569  0.554 -0.145
 0.518  0.554 -0.131
 0.604  0.436  0.426
-0.543 -0.546  0.393
 0.604 -0.284 -0.374
-0.510 -0.546 -0.0724
-0.111  0.109  0.596
-0.150  0.554 -0.00687
-0.589 -0.494 -0.0331
 0.604 -0.0549  0.196
0.0268 -0.546  0.301
-0.307  0.554 0.0259
-0.111 -0.520  0.596
 0.518 0.00400  0.596
-0.589  0.509 0.0193
 0.604 -0.0811 -0.0396
0.0137 0.0368 -0.597
 0.604 0.0630 -0.459
-0.0584 -0.546 -0.190
-0.445 -0.546 -0.0396
 0.105  0.554  0.465
 0.243 0.0368 -0.597
 0.571  0.246 -0.597
 0.426  0.495 -0.597
-0.425  0.161 -0.597
-0.360  0.554 -0.413
 0.433 -0.402 -0.597
-0.209 -0.546 -0.367
 0.604  0.345 -0.407
-0.229  0.148  0.595
-0.589  0.214  0.380
-0.137 -0.546 -0.243
 0.315 -0.356  0.596
 0.426  0.554  0.524
-0.537 -0.546 -0.426
-0.0453 -0.186  0.596
-0.0191  0.128 -0.597
 0.604 -0.0353 -0.203
0.0792 -0.147 -0.597
-0.202  0.554 0.0980
 0.604 0.0958  0.543
-0.589  0.148  0.275
 0.171  0.553 -0.452
 0.590 -0.0942 -0.597
-0.589  0.443 0.0390
 0.112  0.554  0.301
0.000594 -0.265 -0.597
 0.348  0.553 -0.407
 0.604 -0.448 -0.525
 0.295  0.554  0.380
-0.589  0.286  0.340
-0.589 -0.383  0.177
 0.407  0.495  0.596
 0.604 -0.514 -0.439
-0.261 -0.546 -0.158
-0.275 -0.546  0.406
-0.589 -0.383 -0.217
 0.603  0.410 -0.184
-0.150 -0.147  0.596
-0.589 -0.206  0.419
-0.458  0.554 -0.354
-0.530  0.554 -0.184
-0.589  0.423  0.517
-0.589 -0.153 -0.308
-0.589 0.0368 -0.138
 0.210  0.509 -0.597
-0.589  0.469 -0.498
-0.589  0.207  0.268
-0.406  0.554 -0.151
-0.419 -0.179 -0.597
-0.589 -0.494 -0.321
-0.209  0.345 -0.597
-0.582 0.0761 -0.597
-0.589  0.502 -0.276
 0.400  0.554 -0.348
-0.294  0.553  0.485
-0.458 0.0892  0.595
-0.124  0.312  0.596
-0.117  0.430  0.596
 0.603 -0.402 0.0324
 0.453 -0.546 -0.472
-0.0977  0.554 0.0390
0.0661  0.554 0.0783
0.0661 -0.546  0.524
 0.604 -0.0287 -0.0855
 0.604 -0.0811  0.137
-0.189 0.0303 -0.597
0.0399 -0.546 -0.0724
 0.158  0.554  0.183
-0.589 -0.120 -0.557
-0.170  0.378  0.596
 0.604 -0.179 -0.387
-0.406  0.148  0.595
 0.604 -0.120 -0.151
-0.301 -0.461 -0.597
 0.604  0.135  0.445
 0.538  0.128 -0.597
 0.374  0.305  0.596
 0.302  0.554 -0.184
-0.589 -0.107 0.0586
 0.600  0.551  0.154
 0.309  0.273  0.596
 0.492 -0.546 0.0390
 0.479  0.554 -0.0462
-0.589 0.0237  0.543
 0.601 -0.544  0.380
-0.576  0.554 -0.544
 0.558  0.332  0.596
-0.576  0.554 -0.000318
-0.314  0.535 -0.597
 0.603  0.509 -0.361
 0.603 -0.0620  0.588
-0.589  0.312  0.131
-0.517  0.319  0.595
-0.517  0.554  0.255
-0.144  0.553  0.380
 0.604  0.220 -0.348
 0.119  0.553 -0.262
 0.604  0.253  0.511
 0.315 -0.310 -0.597
-0.589 -0.396 -0.302
 0.217 -0.546 -0.243
 0.315  0.417  0.596
-0.144 -0.402 -0.597
-0.347  0.554 -0.348
-0.589 -0.0811  0.105
-0.589 0.0630  0.216
 0.236 -0.546  0.471
-0.275 -0.225 -0.597
 0.604  0.397  0.177
-0.0387 -0.546  0.399
-0.419 -0.396  0.596
 0.577 -0.199  0.595
-0.589  0.404 -0.577
 0.551  0.338 -0.597
-0.360  0.553  0.406
 0.604  0.502  0.485
-0.0518 -0.0942  0.596
 0.426 -0.546 0.0324
 0.197 -0.0549 -0.597
-0.163  0.554 -0.0855
0.0858 -0.219 -0.597
 0.407 -0.546  0.118
0.0923 -0.317 -0.597
-0.589  0.358 -0.138
 0.440  0.554 -0.433
 0.604  0.325  0.268
 0.407 -0.278  0.595
 0.603 -0.278  0.170
 0.164 -0.514  0.596
-0.550 -0.461 -0.597
-0.0977  0.397 -0.597
 0.604 -0.0549  0.432
 0.604 -0.291 -0.262
-0.170  0.188  0.596
-0.589 -0.494 -0.262
 0.571 -0.546 -0.564
-0.589 -0.376 -0.577
-0.589  0.535  0.524
-0.550  0.423  0.595
 0.603  0.509 -0.223
 0.328  0.554 -0.321
-0.589 -0.402 -0.171
-0.130 -0.546  0.124
 0.603 -0.179 -0.00686
-0.399  0.554 -0.0593
-0.589 -0.166 -0.407
 0.178  0.404 -0.597
-0.0649  0.553  0.275
 0.604 0.0827 -0.171
-0.589 -0.00906  0.439
-0.0453 -0.0484 -0.597
 0.603  0.456 -0.466
 0.499  0.378 -0.597
-0.419  0.554  0.308
-0.399 -0.546 -0.577
-0.196  0.554 -0.492
 0.328  0.554  0.517
 0.525  0.502  0.596
 0.604 -0.232 -0.282
 0.236 -0.546 -0.354
 0.479 -0.193  0.595
 0.302  0.502  0.596
-0.288 -0.546 -0.256
 0.223 -0.363 -0.597
 0.302 -0.546 -0.452
-0.589  0.417 -0.452
 0.604 -0.120 -0.387
 0.158  0.553 -0.190
-0.0256 -0.546 0.00623
 0.309 0.0171  0.596
-0.589 -0.232 -0.0527
-0.589 -0.369 -0.0200
 0.119 -0.363  0.596
 0.335 -0.546 -0.0462
-0.0191  0.456  0.596
 0.105  0.553 -0.380
-0.530 0.0433  0.595
 0.105  0.535  0.596
 0.204 -0.376  0.596
-0.314 -0.258 -0.597
 0.604  0.404 -0.557
-0.589  0.391 -0.269
 0.407 -0.546 -0.158
-0.589  0.207 -0.511
-0.216 -0.546 -0.177
-0.550 -0.140 -0.597
-0.196 -0.546  0.190
 0.394 -0.448 -0.597
 0.387  0.554  0.340
-0.294 -0.500  0.596
-0.576 -0.0418 -0.597
-0.209 -0.527  0.596
 0.322  0.554 -0.590
-0.406 -0.291 -0.597
 0.604 -0.252 -0.525
-0.130 -0.546  0.249
 0.204  0.554 -0.0920
0.0203  0.522 -0.597
0.0661  0.174 -0.597
 0.230  0.553 -0.570
-0.510 -0.356 -0.597
-0.589 -0.409 -0.538
 0.361  0.554  0.432
 0.604 -0.481 -0.479
 0.178  0.168  0.596
-0.373 -0.546 -0.492
-0.281 0.0892 -0.597
-0.589 0.0958 -0.217
 0.223  0.135 -0.597
 0.603 -0.0943 0.00623
-0.589 0.0303 -0.485
0.0661  0.364 -0.597
-0.589 -0.0615  0.426
-0.0191 -0.546 -0.112
-0.589 -0.0615 -0.0462
 0.604 -0.494 -0.321
-0.163  0.266  0.596
-0.281  0.404 -0.597
0.0792 -0.468  0.596
 0.512 -0.546  0.412
 0.158 -0.206  0.596
-0.353 -0.297  0.596
 0.132 0.00404 -0.597
-0.589 0.0827  0.406
-0.589 -0.428 -0.105
-0.117 -0.546 -0.0396
0.0989  0.417 -0.597
 0.433 0.0958  0.596
 0.604 -0.0680  0.262
-0.235  0.554 0.0586
0.000594 -0.101 -0.597
-0.412  0.345  0.595
 0.603 -0.540  0.203
-0.510 -0.409  0.596
-0.235  0.554 -0.190
 0.604 -0.166 -0.190
-0.589 -0.153  0.380
 0.453  0.554  0.399
 0.604 -0.186  0.334
-0.589 -0.166  0.249
 0.544  0.554  0.570
 0.328 -0.546  0.524
-0.366 -0.337 -0.597
 0.564 -0.546 -0.125
 0.217  0.201  0.596
 0.604 -0.225  0.498
-0.425  0.553  0.543
 0.518 -0.546  0.177
-0.589 -0.238  0.524
 0.604  0.417  0.563
 0.604  0.253 0.0521
-0.0453  0.554 -0.387
-0.209  0.554  0.209
-0.484 -0.00251 -0.597
 0.604 -0.435 -0.0134
-0.340  0.319  0.596
 0.604  0.181 -0.525
 0.518 -0.356 -0.597
-0.288 -0.546 -0.367
-0.589 -0.383  0.557
 0.374  0.554  0.150
-0.589 -0.265 -0.190
 0.197 -0.546 -0.328
-0.589 -0.442  0.373
 0.604 0.0303  0.452
-0.124  0.161 -0.597
 0.604 -0.0156  0.281
 0.309 0.0237 -0.597
-0.589  0.273 0.0980
-0.589  0.142  0.196
 0.604 0.0368 -0.407
 0.544  0.554  0.275
-0.589 -0.304 -0.335
 0.269  0.553 -0.420
-0.589  0.319  0.419
-0.589 -0.343  0.399
 0.426  0.279  0.596
 0.204 -0.546 0.0455
 0.551 -0.140  0.595
-0.530 -0.546 -0.249
 0.604  0.397  0.118
-0.157  0.397 -0.597
-0.150 -0.304 -0.597
-0.576 -0.546  0.255
 0.512 -0.546  0.308
 0.538  0.554 -0.289
-0.589 0.00404  0.380
-0.157 0.0827  0.595
-0.0977 0.0827 -0.597
0.0399  0.227 -0.597
 0.603  0.397 -0.0396
-0.0322  0.553  0.340
 0.230 -0.546 -0.0920
 0.243 -0.546 0.0193
-0.589 0.0237  0.177
-0.0649 0.0695  0.596
0.0792 -0.546 -0.0986
-0.0191  0.553  0.229
 0.105 0.0433 -0.597
 0.604 0.0892 -0.0921
 0.361 0.0237 -0.597
-0.0453  0.509  0.596
 0.557 -0.415  0.595
-0.550  0.554 -0.276
 0.604  0.240  0.439
-0.360 -0.546  0.478
 0.518 -0.546 -0.374
 0.328 -0.546 -0.387
-0.589 -0.481 -0.557
-0.366  0.436  0.596
-0.176  0.246 -0.597
 0.604 -0.448  0.550
 0.604  0.292  0.537
 0.558 -0.265 -0.597
-0.582  0.542  0.594
-0.556 -0.396  0.596
-0.587  0.465 -0.594
-0.582 -0.546 -0.302
 0.603  0.528 -0.302
-0.563 -0.206  0.596
-0.550  0.522 -0.597
 0.604 -0.206 -0.131
 0.604 -0.245  0.399
-0.589 -0.474 0.0848
-0.589 -0.153  0.517
 0.132 -0.546  0.432
-0.589  0.148  0.439
-0.222  0.554 -0.289
-0.366  0.364 -0.597
-0.517  0.554  0.334
-0.0977 -0.101  0.596
0.0923 -0.455 -0.597
-0.0715 -0.546  0.268
-0.589 -0.310 -0.145
 0.459  0.554  0.557
-0.255 -0.546  0.360
-0.589  0.312 -0.164
 0.604  0.181  0.360
-0.406 -0.238 -0.597
 0.394 -0.369  0.596
 0.604  0.161  0.216
-0.589 -0.337  0.262
-0.517  0.384  0.595
 0.315 -0.546  0.439
 0.466 -0.114  0.595
-0.235 -0.409  0.596
 0.348  0.155 -0.597
-0.458  0.207  0.595
 0.604  0.109 0.0128
0.00715  0.286 -0.597
-0.0191  0.220 -0.597
-0.0125  0.554 -0.498
-0.0387 -0.546 -0.374
-0.392 0.0696 -0.597
 0.604 0.0106 -0.249
-0.157 0.0106  0.595
-0.589 -0.0484 -0.295
0.0334 -0.546 -0.289
0.0465 -0.546 -0.557
-0.111  0.554 0.0980
-0.589 0.0433  0.275
 0.191  0.554 -0.0200
 0.132  0.554 -0.0265
-0.0387  0.554 -0.0527
-0.569 0.0172 -0.597
-0.589 -0.0353 0.0259
-0.111 -0.0877 -0.597
0.0727 -0.0287 -0.597
0.0268 0.0499  0.596
0.000570  0.553 0.0652
-0.0649  0.371  0.596
 0.603  0.207 -0.210
-0.589 -0.153 -0.249
 0.603 -0.284  0.124
 0.295  0.554  0.314
-0.589  0.509  0.196
-0.202 -0.147 -0.597
 0.348  0.436 -0.597
-0.248 -0.546 -0.452
-0.543 -0.396 -0.597
-0.517 -0.546 -0.335
 0.604 0.0368 -0.0527
-0.589 -0.101 -0.243
-0.0911  0.319 -0.597
 0.132  0.351  0.596
-0.366 -0.546 0.0128
 0.112 -0.546 0.0980
 0.236 -0.0222 -0.597
0.00715 -0.232  0.596
-0.255  0.554 -0.518
 0.335  0.554  0.471
 0.164  0.181 -0.597
-0.589  0.260 -0.420
 0.341 -0.546  0.183
 0.603 -0.252  0.209
-0.0977 -0.546 -0.302
-0.144  0.554 -0.538
 0.433 -0.304 -0.597
 0.433  0.554  0.203
-0.307  0.554 -0.511
 0.525  0.554  0.458
 0.604  0.233 -0.498
 0.302 -0.546  0.268
 0.564  0.489 -0.597
-0.314 -0.546  0.268
 0.603 -0.330  0.301
-0.438 -0.546  0.137
-0.189 -0.363  0.596
-0.222  0.378  0.596
-0.589  0.364  0.439
 0.217  0.423  0.596
-0.589 -0.232 -0.544
 0.322 -0.179  0.595
 0.223  0.553 -0.348
-0.458  0.554  0.222
-0.589  0.194 -0.354
-0.589  0.495  0.373
-0.589 -0.527  0.478
-0.524 -0.546  0.537
-0.242 -0.546  0.524
 0.604 -0.00251 -0.131
-0.0780  0.553  0.334
 0.335 -0.363 -0.597
 0.204  0.554  0.288
 0.603 -0.356  0.196
 0.603  0.430 -0.289
-0.327  0.168 -0.597
 0.558 -0.546  0.295
 0.374 -0.0746  0.595
 0.558 -0.0615 -0.597
0.0465 -0.546  0.432
 0.558  0.554  0.209
-0.189  0.554 -0.590
 0.223  0.515  0.596
-0.589  0.476 -0.400
-0.543  0.554 -0.433
0.0596  0.554  0.373
 0.178 0.0368  0.596
-0.589 0.0892  0.124
-0.589 0.0696  0.543
 0.577 0.0237  0.596
 0.440  0.554 -0.0200
-0.537 0.0958 -0.597
0.0596  0.554  0.183
0.0465 -0.455 -0.597
-0.589 -0.0353 -0.0921
-0.589  0.174 -0.0789
 0.505  0.554 -0.498
-0.412 -0.343  0.596
 0.604 -0.173  0.236
-0.589 -0.284  0.458
-0.530  0.554 -0.321
-0.144  0.554 -0.328
-0.301  0.135  0.595
 0.105  0.201  0.596
-0.209 -0.546  0.347
-0.589  0.122 -0.472
-0.137 -0.546 -0.197
 0.604 -0.0615 -0.315
 0.381 -0.546 -0.564
 0.603 -0.376  0.105
-0.589  0.148 -0.315
 0.505 -0.546  0.537
 0.112 -0.265  0.596
 0.564 -0.546  0.177
-0.288 -0.546  0.517
-0.294 -0.0418 -0.597
-0.202 -0.107  0.596
-0.589  0.541  0.399
 0.603 -0.507 0.0259
-0.419  0.554 -0.315
 0.197  0.554  0.373
-0.452 -0.546  0.426
-0.550  0.554  0.426
-0.589 -0.00251  0.262
 0.603  0.535 -0.452
 0.322 -0.546  0.570
-0.550 -0.0811  0.596
 0.551  0.554  0.360
 0.604 -0.212 -0.557
 0.604  0.102 -0.557
-0.550 -0.546  0.445
-0.589  0.522 -0.479
-0.550 -0.546 -0.197
 0.250 -0.546  0.576
 0.564 -0.546 -0.354
-0.242  0.541 -0.597
-0.248 -0.500  0.596
-0.288 -0.546 -0.570
-0.373 -0.546  0.583
-0.589  0.522 0.0783
-0.517  0.554 -0.0527
-0.392  0.554 -0.590
-0.0584 -0.546  0.543
-0.465 -0.179 -0.597
-0.412 -0.546  0.281
 0.368 -0.546 -0.262
-0.261 -0.310  0.596
-0.314 -0.546  0.478
 0.263  0.115  0.596
 0.472  0.554 -0.262
 0.564 -0.455 -0.597
 0.341  0.554 -0.0134
 0.105 -0.173  0.596
-0.216 -0.546  0.255
 0.204  0.553 -0.308
 0.407 -0.546 -0.308
-0.183 -0.546 -0.276
-0.399 -0.468  0.596
-0.353  0.554  0.308
 0.394  0.554 -0.105
-0.137 -0.546  0.504
-0.150 -0.546  0.288
-0.150 -0.527 -0.597
-0.491  0.227 -0.597
 0.282  0.312  0.596
-0.484 -0.546 -0.426
 0.446 -0.494 -0.597
-0.248 -0.481 -0.597
-0.563 -0.546 -0.485
 0.164  0.515 -0.597
 0.145 -0.546 0.0259
-0.0453 -0.546 0.0783
 0.112  0.553 -0.171
-0.0518 -0.546 -0.472
 0.335 -0.0942 -0.597
-0.340 -0.546 -0.0331
-0.589  0.332 -0.0462
-0.209 -0.0615  0.596
 0.604 0.0630 -0.131
0.0268 -0.546  0.203
0.0596  0.553 -0.0986
 0.164 -0.0680  0.595
-0.589 -0.0680 -0.184
-0.0911 -0.546 -0.551
 0.603  0.397 -0.0855
-0.589 -0.291 0.0652
0.0530  0.554  0.504
 0.387 -0.546 0.0718
0.0661 -0.546 -0.223
 0.603  0.305 -0.0528
 0.604 0.0565  0.347
-0.589 -0.317 -0.0134
-0.0780 -0.0156 -0.597
0.0399  0.553 -0.354
 0.289 0.0630 -0.597
 0.604 -0.0287 -0.413
 0.603 -0.166  0.183
 0.603 -0.500  0.478
 0.191 -0.546  0.268
-0.589  0.423  0.177
-0.392 -0.546 -0.236
-0.484 -0.546 -0.249
 0.604  0.482  0.445
-0.504 -0.0418  0.596
-0.281 -0.101 -0.597
-0.183 -0.193  0.596
 0.604  0.279  0.177
 0.604 0.0368  0.288
 0.328  0.554  0.150
-0.589  0.404 -0.210
-0.589 -0.330 -0.210
 0.413 -0.546  0.393
-0.111 -0.238  0.596
-0.137 -0.448  0.596
-0.504  0.161 -0.597
-0.320 -0.546 0.0259
-0.320 -0.140  0.596
 0.250  0.351  0.596
-0.452  0.554  0.380
-0.334 -0.428 -0.597
 0.603  0.312 -0.256
-0.130  0.554 -0.433
-0.117  0.240 -0.597
-0.458  0.528  0.596
-0.117  0.554  0.583
0.00715 -0.507 -0.597
-0.587 -0.203 -0.595
 0.604  0.502  0.576
 0.600 -0.307  0.592
 0.564 -0.284  0.595
-0.248  0.553  0.576
-0.347 -0.533 -0.597
-0.589  0.482  0.563
-0.563  0.338  0.595
-0.563  0.554  0.334
-0.589 -0.00885  0.589
-0.576 -0.546 -0.393
 0.433 -0.544  0.594
-0.104 -0.546 -0.387
-0.589 -0.383 -0.112
 0.544 -0.514  0.596
-0.589  0.142 -0.590
 0.525 -0.179  0.595
 0.479 -0.546  0.452
-0.222  0.450 -0.597
 0.558  0.161  0.596
-0.196  0.554 -0.380
-0.294  0.345  0.596
-0.412 -0.356 -0.597
 0.243  0.371 -0.597
-0.471  0.554  0.177
-0.261 -0.546  0.203
 0.433 -0.546  0.242
 0.400  0.148 -0.597
 0.256 -0.389 -0.597
-0.235 -0.337 -0.597
-0.589  0.246  0.419
 0.191 -0.448 -0.597
 0.197  0.286  0.596
 0.132  0.553 -0.341
