ply
format ascii 1.0
element vertex 2048
property float x
property float y
property float z
end_header
 0.418 -0.0188 -0.353
-0.877  0.176  0.294
 0.217  0.125  0.852
-0.0746 -0.968 0.0291
-0.516 -0.123 -0.542
 0.935 -0.0152  0.345
-0.0615  0.565 -0.763
-0.183  0.744  0.427
-0.153 0.0701  0.133
 0.556  0.459 0.0866
-0.0418 -0.416 -0.253
 0.372 -0.0356  0.303
-0.900  0.149 -0.273
-0.508  0.296  0.667
-0.263  0.299 -0.346
 0.704  0.376 -0.350
 0.255  0.397 -0.471
0.0993  0.453  0.182
-0.393  0.447  0.148
 0.852 -0.0215 -0.0907
-0.0528 -0.0431 -0.530
-0.398 -0.204 -0.121
-0.106  0.143  0.567
 0.111 -0.601 0.0702
-0.587  0.124 0.00964
 0.140 -0.178 0.00836
 0.275  0.199 -0.0616
-0.457  0.111  0.354
 0.295 0.0501 -0.686
 0.143  0.656  0.469
0.0177 -0.761 -0.217
-0.142 -0.382 0.0731
 0.540 0.0183 0.0252
-0.542  0.126 -0.314
-0.106  0.121  0.895
 0.668 -0.0865  0.517
0.0450  0.227 -0.282
 0.217  0.119  0.539
-0.199 0.00400 -0.226
-0.214  0.419  0.644
 0.100 -0.175  0.321
-0.0398  0.442 -0.482
0.0298  0.388  0.474
 0.142 -0.0535 -0.271
 0.436  0.303 -0.273
-0.199  0.281  0.340
-0.143 -0.698 0.0166
-0.292  0.412 -0.595
 0.207  0.520 -0.726
-0.775 0.0891 -0.510
-0.146  0.352 0.0741
 0.677 0.0345  0.273
-0.286 -0.0511 -0.665
-0.856  0.149 0.0244
 0.569 -0.0167 -0.574
-0.718 0.0801  0.484
 0.741  0.484 -0.0994
-0.154  0.570  0.219
 0.181 -0.397 -0.134
-0.342 0.0841 -0.0309
-0.00566 0.0498  0.344
-0.0903 -0.174 -0.0869
 0.300 -0.165  0.503
 0.351  0.334  0.150
-0.294 0.0720  0.710
0.0357  0.201 0.00999
-0.240 0.00740  0.398
 0.427 -0.155 -0.151
 0.135 -0.864 -0.0338
 0.291 -0.00742 0.0764
-0.319 0.0301 -0.429
 0.167 0.0441 -0.484
 0.460  0.189 -0.476
-0.655  0.196  0.230
-0.391  0.310  0.464
-0.498 -0.163 -0.320
0.0871 -0.380  0.109
 0.871 0.0190  0.134
0.0373  0.257  0.263
-0.177 -0.522 -0.115
-0.452 0.00672  0.141
0.0315  0.174  0.734
-0.713  0.160 -0.166
 0.613 -0.118 -0.389
 0.274  0.128 -0.295
 0.542  0.412 -0.126
-0.0230 -0.968 -0.176
 0.154 -0.620 -0.138
 0.249  0.531  0.309
0.0244 -0.0676  0.157
-0.566 0.0712 -0.514
-0.317  0.620  0.339
-0.579  0.225  0.467
 0.187 0.0238  0.251
0.0151 0.0480 -0.154
-0.0453 -0.0930 -0.327
 0.596 0.0256 -0.165
-0.158  0.186 -0.0313
-0.302  0.150  0.231
 0.332 0.0835  0.693
-0.0252  0.664  0.331
 0.471 -0.0804  0.500
0.0175 -0.771 0.0884
-0.163  0.193 -0.227
-0.376 0.0544 -0.240
-0.317  0.304 0.0267
0.0736 -0.250 -0.146
-0.0670 -0.557  0.103
0.0613  0.519 -0.611
 0.191 0.0448 -0.102
 0.193  0.279 0.0826
 0.501 0.0483  0.198
-0.725  0.154 -0.353
-0.156  0.395  0.479
 0.395  0.328 -0.0199
-0.110 -0.833 -0.105
-0.310 -0.127 -0.261
 0.340 0.0551 -0.510
-0.0133 -0.585 -0.212
-0.0473 -0.387 -0.0810
0.0971  0.368 -0.403
 0.739 0.0528 0.0254
-0.500  0.145 -0.147
-0.164 -0.0794 0.0358
-0.126  0.498 -0.620
 0.549  0.327 -0.395
-0.0820  0.329 -0.366
-0.00363 -0.251 0.0525
0.0546  0.113  0.501
 0.279 0.0692  0.393
-0.279 0.0877  0.546
 0.205  0.276 -0.317
 0.414 -0.00531 -0.0848
0.0238 -0.0642 -0.0336
-0.173 -0.0520 -0.418
 0.296 -0.0839 -0.236
-0.502  0.151  0.190
 0.537 0.0139  0.350
 0.781 -0.00990  0.386
-0.133 -0.677 -0.164
-0.379  0.374  0.619
-0.148  0.134  0.717
-0.0440 -0.576 -0.0529
 0.173 -0.466 0.0107
0.0275  0.328 0.0991
 0.264 -0.00810 -0.373
-0.160 -0.155 -0.238
 0.447 0.0562 -0.664
-0.0323  0.750  0.457
 0.188 -0.0943  0.148
 0.278  0.491 -0.589
-0.135  0.188  0.227
-0.239 -0.202 -0.0787
 0.172  0.135 0.0392
-0.233  0.467  0.141
 0.225 -0.111  0.375
 0.180  0.143  0.683
-0.0553  0.448  0.146
-0.562 0.0771  0.484
-0.740  0.156  0.357
 0.153 -0.716 -0.0179
-0.148 0.0393  0.285
0.0602 0.000833 -0.390
-0.193  0.409 -0.485
 0.248  0.432  0.193
-0.709  0.186 0.0664
0.0723  0.570  0.267
 0.335  0.221 -0.199
-0.117 0.0912  0.428
-0.171 -0.384 -0.161
0.0756 -0.491 -0.0987
-0.192 -0.0116 -0.563
 0.166  0.173 -0.210
-0.309 0.0175 0.0928
 0.593  0.384 -0.259
 0.119 -0.328 -0.0219
 0.437 -0.0464  0.111
-0.384 -0.0554 -0.524
-0.360  0.243  0.342
-0.826  0.182  0.156
 0.737 0.00732 -0.163
-0.0766  0.330  0.386
-0.322  0.357 -0.472
-0.589  0.150  0.345
-0.229  0.472 -0.707
 0.131 -0.776 -0.139
0.00880  0.178  0.156
0.0888 -0.380 -0.237
-0.00552 0.0734 -0.0139
 0.479 0.0139 -0.477
 0.360  0.194 -0.383
-0.379 -0.0834 -0.385
0.0608 -0.968 0.0214
 0.507 -0.0949 -0.285
-0.0356  0.403  0.591
-0.470 0.0845 -0.420
-0.366  0.532  0.249
-0.181  0.658  0.323
 0.629 0.0391  0.124
-0.177 -0.0640 -0.113
 0.664  0.460 0.00684
 0.133 0.0668  0.364
 0.158  0.457 -0.539
-0.431  0.118 0.0611
 0.923 -0.0250 0.0198
-0.170 -0.500 0.0135
-0.578  0.196  0.594
-0.822  0.127 -0.0984
-0.0202 -0.459 0.0331
 0.110 -0.968 -0.104
 0.432  0.333 -0.149
 0.176 -0.143 -0.186
-0.114 -0.822 0.0287
 0.469  0.382  0.144
-0.274 0.0283 -0.126
0.0995  0.151  0.893
-0.271  0.382  0.530
 0.705  0.440 -0.241
 0.373 -0.0528  0.428
0.0998 -0.531 -0.216
 0.305 -0.145 -0.126
-0.487  0.275  0.535
-0.253 0.0376  0.210
0.0780  0.160  0.614
-0.439 0.0610  0.480
-0.114 -0.968 -0.0934
 0.283 -0.0456  0.218
-0.107 -0.276 -0.00815
 0.651 0.0142  0.394
-0.343 0.0688  0.368
 0.640 0.0268 -0.0440
-0.0330 -0.387  0.130
0.0541 -0.876 -0.190
 0.805 0.0386  0.234
 0.309  0.267 0.0505
-0.194 -0.381 -0.0428
 0.333 0.0897  0.554
0.0512  0.343  0.346
-0.273  0.329  0.423
0.0847  0.553 -0.724
-0.456 0.0312 -0.564
 0.251 0.0903 -0.581
-0.608  0.118 -0.412
 0.982 -0.0208  0.141
-0.829  0.133 -0.405
-0.613  0.157 -0.103
0.0526 -0.508  0.113
 0.383 0.0199  0.192
-0.332  0.416  0.718
-0.0147  0.168 -0.201
0.0374 -0.179 -0.0606
-0.0454 -0.124 -0.215
-0.276 0.0253 -0.310
 0.502  0.391 -0.0196
-0.0861  0.255 0.0277
 0.259 -0.117 0.0570
0.00755 -0.646  0.105
 0.116  0.616  0.364
-0.0620 -0.129 0.0154
 0.314  0.344 -0.388
 0.152 0.0575 -0.209
-0.402 0.0721 -0.129
-0.0797  0.267  0.288
 0.408 0.0536 0.0627
 0.799 -0.0791  0.475
-0.417 -0.159 -0.240
-0.720  0.169 -0.0527
 0.592  0.243 -0.457
-0.409  0.112  0.240
-0.0244 -0.314 -0.164
 0.275  0.252  0.165
-0.0439  0.553  0.204
-0.559 -0.179 -0.454
0.0135 -0.0199  0.258
 0.296  0.109 -0.414
-0.287  0.214 -0.278
 0.528 -0.0281 -0.387
-0.780  0.164 -0.257
 0.582 -0.0304  0.469
 0.616 -0.0805 -0.497
-0.638  0.166 -0.247
-0.231 -0.0949 -0.334
-0.0636  0.245 -0.291
-0.613  0.187  0.121
 0.131  0.150  0.788
 0.495 -0.00792 -0.188
 0.176 -0.104  0.256
 0.180 -0.521 -0.0937
0.0702 -0.576 -0.0321
-0.241 0.0482 -0.0161
 0.736 0.0496  0.136
 0.122 -0.0495 -0.0762
 0.351  0.267 -0.0973
-0.130 -0.476 -0.201
-0.212  0.280 0.0272
-0.468 -0.105 -0.440
-0.292  0.403 0.0778
-0.0371  0.165  0.646
0.0665 -0.658 -0.187
-0.494  0.150 -0.0399
 0.248  0.140 -0.147
-0.222  0.116  0.632
-0.489  0.238  0.412
-0.171 -0.635 -0.0733
0.0126 -0.888 0.0717
 0.328 -0.0219 -0.0226
-0.444 -0.0745 -0.610
-0.0392 -0.355 0.0244
 0.194 0.0634 -0.319
-0.259 -0.0421 -0.479
-0.378 0.0656 -0.344
-0.103 -0.00536 0.0767
0.0688 -0.387 -0.102
 0.314  0.258 -0.315
 0.452  0.245 -0.388
-0.125 -0.0607 -0.626
-0.0685 -0.0418 -0.427
 0.401 -0.0921 -0.229
-0.266 -0.159 -0.172
0.0704  0.441 -0.486
-0.210  0.109  0.469
 0.642  0.455 -0.110
-0.0726  0.152  0.785
-0.0467 -0.858 -0.197
-0.0341  0.498 -0.574
 0.207 -0.170  0.462
 0.453 0.0264  0.294
-0.185  0.347 -0.405
-0.221  0.477 -0.563
 0.159  0.501 -0.631
 0.110 -0.788 0.0387
-0.201 0.0993  0.796
 0.113 0.0618 -0.567
-0.287  0.589  0.221
-0.341 0.0846  0.165
-0.705  0.117 -0.445
 0.462 -0.00898  0.414
-0.0465  0.537 -0.667
-0.131 -0.741 -0.0736
 0.183  0.494  0.243
-0.0887  0.145  0.144
-0.273  0.217  0.301
-0.513 -0.198 -0.229
-0.645  0.119  0.420
 0.394 -0.137  0.521
-0.475 0.0901 -0.224
 0.339  0.400 -0.521
0.0468  0.302 -0.351
 0.590 0.0231  0.227
-0.0777 -0.755 -0.199
 0.849 0.0511 -0.0261
-0.0888  0.713  0.386
-0.152  0.281 -0.320
0.0763 -0.459 0.0264
 0.154  0.105  0.450
0.00996 -0.145  0.100
-0.515  0.159 0.0824
 0.155  0.383  0.146
 0.382 0.0300 -0.427
 0.411 0.0591 -0.574
-0.106  0.394 -0.431
-0.767  0.114 0.0149
 0.234  0.566  0.396
0.0180 -0.491 -0.249
-0.209  0.124  0.187
-0.0577 -0.710 0.0577
-0.0197 -0.251 -0.0863
0.0187 -0.571 0.0478
 0.162 -0.617 -0.00792
-0.0654 0.0254  0.231
 0.115 -0.238 -0.0605
-0.329 0.0665  0.267
 0.517 0.0122 -0.0664
-0.148 -0.605 0.0308
 0.272  0.155  0.702
0.0698 -0.693 0.0528
 0.491  0.358 -0.222
 0.107  0.250 0.0581
-0.387 0.0593 -0.507
-0.0473 -0.480 -0.0810
 0.453 -0.00312 0.000315
-0.138 -0.0816 -0.337
-0.788  0.190  0.271
-0.112  0.447  0.561
 0.894 0.0155  0.248
 0.238  0.200 0.0237
0.00563  0.371 -0.418
 0.292 -0.0512  0.352
 0.193 -0.388 -0.0432
0.0994 0.0345  0.278
-0.120  0.450 -0.527
-0.172  0.342  0.405
-0.600 0.0220 -0.584
-0.126 -0.911 -0.0209
-0.726  0.196  0.156
0.0276  0.165  0.826
 0.701 0.00260  0.471
0.0513 0.0714  0.412
-0.0611  0.385  0.463
-0.112 -0.588 -0.163
 0.519 0.000839  0.112
-0.137  0.413  0.692
-0.232 -0.0245 0.0615
-0.140  0.480  0.145
-0.317  0.494  0.164
-0.00117  0.148  0.564
 0.167 -0.0156 -0.353
-0.515  0.150  0.279
-0.290 0.0295 -0.215
0.0378 -0.0839 -0.360
-0.526  0.115  0.411
 0.240  0.215 -0.240
-0.241 0.0397  0.299
 0.586  0.435 -0.0314
0.0224  0.693  0.415
-0.0445  0.110  0.476
-0.0483  0.213  0.214
-0.293 -0.0604 -0.395
0.0184 -0.0372 -0.118
0.0168  0.491  0.183
 0.723 0.0278 -0.0764
 0.254 0.0503 -0.469
0.0759 -0.204 0.0626
-0.233  0.156  0.714
 0.160 -0.378 0.0382
 0.302  0.107  0.473
-0.312 -0.0492 -0.572
-0.0663 -0.660 -0.218
 0.250 0.0544  0.304
 0.383  0.320 0.0705
 0.757 0.0233  0.307
 0.488 -0.118 -0.203
 0.133  0.231 -0.267
0.0508 -0.325 0.0517
-0.0531  0.360  0.104
-0.447  0.196  0.344
-0.230 0.0581 0.0863
 0.233  0.114  0.768
-0.644  0.121 0.0750
 0.187  0.373 -0.424
 0.228  0.338  0.141
-0.108  0.625  0.265
 0.530  0.329 -0.311
0.0388 -0.576 -0.112
-0.562  0.143 -0.206
-0.169 0.0603  0.365
 0.831 0.0199 0.0512
-0.112 -0.196 -0.180
0.0184  0.406  0.140
0.0909 -0.871 0.0400
 0.635  0.328 -0.363
-0.383 -0.110 -0.304
 0.143 -0.307 -0.102
-0.407  0.338  0.542
 0.154 -0.141 0.0866
 0.337 -0.0319 -0.334
-0.454 0.0958 -0.323
 0.129  0.133  0.534
0.0819 0.0461 -0.457
 0.648 0.0422 0.0380
 0.209 -0.0514 0.0723
-0.0336 -0.470  0.122
0.0944 -0.887 -0.116
 0.687  0.437 0.0837
 0.329 0.0355  0.335
 0.454  0.370 0.0453
-0.667  0.173  0.320
-0.103 -0.481 0.0595
-0.0880 0.0593  0.345
0.0709 -0.0271 -0.310
 0.346 -0.0675 0.0920
-0.427  0.102  0.160
-0.193  0.216  0.279
-0.647  0.154 -0.328
-0.888  0.188  0.213
 0.264 -0.0660 -0.309
 0.199 0.0556 -0.634
 0.399  0.241 -0.312
 0.132 -0.471 -0.155
-0.0892 -0.923 -0.160
0.0660  0.177 -0.209
 0.160 -0.688 -0.0937
-0.0697 -0.885 0.0542
-0.208 0.00129 -0.348
 0.229  0.110 -0.220
 0.108  0.321  0.106
-0.00592  0.240 0.0673
-0.108 -0.320 -0.0762
-0.0430 -0.204 -0.00761
-0.649  0.174 -0.0147
 0.315 -0.0904  0.478
 0.141 -0.154  0.387
 0.748  0.466 -0.178
 0.149 -0.262 0.0113
-0.576  0.182  0.228
-0.0289  0.612  0.260
 0.612 0.0241  0.322
 0.218  0.143 -0.0592
 0.438 0.0432  0.136
-0.411  0.255  0.403
-0.0981 -0.378 -0.212
 0.126  0.310 -0.346
-0.191 -0.455 -0.0700
 0.104  0.165  0.693
-0.835  0.150 -0.327
-0.191 -0.173 -0.135
-0.536  0.266  0.599
-0.213  0.403 0.0852
-0.0713  0.190 -0.0151
-0.110  0.525 -0.715
 0.312 -0.0103  0.154
-0.215  0.537  0.181
 0.151  0.592  0.298
 0.138 -0.543 0.00161
 0.239 -0.0733  0.299
 0.547  0.394  0.139
-0.343 -0.156 -0.196
-0.0778 -0.626 0.0585
 0.207 -0.108 -0.249
 0.391 -0.0238 0.0434
-0.478 0.0816  0.216
 0.257  0.468  0.264
 0.119 -0.187 -0.148
-0.0150  0.310  0.321
-0.288  0.682  0.375
0.0118 -0.446 -0.118
 0.339 0.0650 -0.604
 0.507 0.0248 -0.553
-0.342  0.294  0.406
-0.378 0.0846  0.438
 0.320  0.412 -0.595
-0.170  0.397  0.571
-0.339  0.355  0.506
 0.323  0.262 -0.0252
 0.575 -0.0968 -0.322
-0.360 0.0750 0.0897
 0.320  0.201 -0.126
 0.151  0.426 -0.469
-0.738  0.131  0.430
-0.0535 -0.519 -0.211
-0.0773 -0.253 -0.137
-0.384  0.169  0.285
-0.422 0.0842 -0.0560
 0.149  0.105 -0.0275
-0.686 0.0731 -0.504
 0.853 -0.0173  0.359
 0.123 -0.780 -0.0470
-0.346 -0.0483 -0.458
 0.962 -0.00818  0.271
-0.169 -0.0380 -0.493
-0.278  0.272  0.353
 0.239  0.125  0.611
-0.229 -0.0571 -0.616
 0.195 0.0223 -0.412
 0.384  0.278 -0.187
 0.480  0.382 -0.0966
-0.349 0.0271 -0.168
0.0488 -0.959 -0.148
0.0484  0.623  0.315
 0.289  0.163 -0.216
 0.123 -0.441 0.0826
 0.546 -0.0190 -0.487
 0.524 0.0313  0.272
 0.606  0.424 0.0401
 0.348 -0.112 -0.178
 0.221  0.330 -0.366
0.0187 -0.397 0.0478
 0.320  0.187 -0.285
0.0864 -0.730 -0.196
-0.253  0.360 -0.443
 0.206  0.193 0.0907
-0.161  0.156  0.642
-0.391 0.0684 -0.418
-0.151 -0.418 0.00870
-0.536  0.216  0.536
-0.194  0.122  0.564
-0.622  0.111 -0.541
 0.224  0.469 -0.646
-0.193  0.613  0.265
 0.457 -0.0105  0.206
-0.787  0.154 -0.158
 0.685 0.0495  0.201
0.0245  0.107 -0.214
-0.454 -0.0796 -0.529
0.00751 -0.656 -0.232
-0.0717 -0.0586 0.0359
 0.168  0.151  0.610
0.0696 -0.115 -0.0764
-0.528  0.119 -0.386
 0.135 -0.116  0.194
 0.356  0.101  0.626
-0.395  0.103  0.315
 0.392 -0.00827  0.373
 0.431 -0.0642 -0.297
 0.107  0.183 0.00629
0.0115  0.556 -0.728
0.0512  0.486 -0.540
-0.297 0.0605 0.0293
-0.810  0.170  0.345
 0.273 0.0839  0.831
 0.122 -0.529 0.0717
-0.615  0.191 0.0480
-0.608  0.142  0.479
-0.374 -0.0540 -0.611
0.0983 -0.459 -0.225
-0.0233  0.287 -0.338
 0.948 0.00924  0.198
 0.188 -0.448 -0.0835
 0.604  0.430 -0.167
 0.742  0.406 -0.296
-0.0770  0.196 -0.227
-0.0963 -0.114 -0.266
-0.181  0.522 -0.731
-0.190  0.469 -0.635
-0.121 -0.110 -0.103
-0.271 0.0879  0.148
 0.416 0.0456 -0.496
 0.200 0.0745  0.391
0.0980 -0.439 -0.0537
-0.313  0.395  0.600
-0.495 0.0708 -0.499
0.000355  0.133 0.0258
 0.230  0.461 -0.537
-0.344 0.0468 -0.0953
 0.673  0.448 -0.177
-0.328 -0.194 -0.135
 0.510  0.428 0.0419
-0.150 -0.574 -0.0426
-0.230 -0.141 -0.238
 0.854 -0.0449  0.443
-0.00241 -0.104 -0.270
 0.798 0.0106 -0.0549
 0.114 -0.928 -0.00368
 0.282 -0.0941  0.414
-0.267  0.605  0.288
 0.187 0.0979 -0.162
-0.834  0.146 -0.214
-0.0119 -0.958 0.0607
 0.344  0.355 -0.466
0.0547 -0.594 -0.230
0.0716 -0.814 -0.159
-0.228  0.366  0.476
 0.355 0.0213  0.107
-0.163  0.125  0.850
0.00487 -0.000715 -0.00917
-0.219  0.696  0.390
-0.193 0.0231  0.166
-0.643  0.159 -0.174
0.0656 -0.218 -0.00556
 0.243 -0.105 -0.188
-0.543  0.131 -0.0927
-0.393  0.383  0.687
 0.157 -0.130  0.318
-0.710  0.171 -0.254
0.0272 -0.334 -0.121
-0.232 -0.0263 -0.136
-0.828 0.0957 -0.463
-0.799  0.187 0.0923
-0.145 -0.813 -0.0330
-0.0921 -0.417  0.107
-0.871  0.178 0.0853
0.0149 -0.381 -0.235
-0.484  0.109 0.0177
-0.0462  0.298 0.0736
-0.0604  0.161  0.711
-0.0259 -0.186 -0.108
-0.754  0.215 -0.0147
-0.178 -0.116 -0.293
-0.0238 -0.814 0.0539
-0.511  0.155  0.347
 0.962 -0.00689 0.0733
0.0171 -0.184 0.0333
 0.461 -0.00553 -0.414
 0.561 0.0147  0.165
-0.136 -0.765 -0.137
-0.127 -0.901 -0.108
 0.116 -0.605 -0.193
-0.274  0.399 -0.496
-0.0669  0.397  0.531
-0.132  0.288  0.334
 0.119  0.504  0.221
-0.170 -0.455 -0.151
-0.0177 -0.539 -0.106
-0.0427 -0.571 0.0200
-0.156  0.705  0.369
 0.299 0.0254 -0.419
0.0549 -0.436 0.0912
0.00744 -0.570  0.114
-0.448  0.277  0.481
-0.554 0.0969  0.322
-0.145  0.287 0.0299
 0.146 -0.397 -0.192
 0.485 -0.00566 -0.122
 0.417  0.340  0.149
0.0376 -0.253  0.105
 0.130  0.520 -0.688
 0.458  0.279 -0.331
 0.695 0.0411 0.0849
-0.221  0.164  0.239
-0.106 -0.760 0.0503
 0.187 0.0551  0.323
-0.269  0.409  0.699
 0.143 -0.626 -0.0734
 0.523 -0.0299  0.427
-0.327 -0.0937 -0.334
-0.520 -0.127 -0.476
 0.499  0.237 -0.456
-0.108  0.523  0.183
 0.427  0.340 -0.0760
 0.396 0.0167  0.262
 0.130 0.0252 -0.416
 0.713  0.462 -0.0440
 0.679  0.396 -0.284
 0.279  0.418 -0.540
-0.467  0.129  0.115
-0.201 0.0159  0.242
-0.0542 0.0809  0.415
-0.104 -0.554 0.0493
 0.240 -0.0554  0.148
0.00908 -0.126 -0.0197
-0.262 -0.00281 -0.427
-0.497 0.0901  0.477
-0.545  0.166  0.140
-0.609  0.174  0.283
-0.00258 -0.907 -0.169
-0.518 0.0482 -0.574
 0.176 0.0672 -0.544
 0.687 0.0118  0.340
-0.677  0.170 -0.102
 0.326 -0.0188  0.259
-0.729  0.197  0.245
-0.438  0.347  0.614
-0.439 -0.107 -0.338
 0.541  0.266 -0.416
-0.0152 -0.303 0.0891
 0.131 -0.309 0.0509
-0.128  0.242 -0.275
 0.170  0.446  0.203
 0.578 0.000981  0.413
-0.447  0.118 -0.122
 0.199 -0.0464 -0.307
 0.644 -0.0464  0.464
0.0905 -0.381 0.00192
-0.214  0.266 -0.312
-0.291 0.0473 -0.0584
-0.0551 0.0439  0.292
-0.254  0.652  0.331
 0.408 -0.0836  0.488
 0.155  0.128  0.868
0.0488  0.277 0.0683
 0.548 0.0756  0.231
 0.797 0.0402  0.101
-0.0724 -0.229 -0.0579
-0.141  0.423  0.117
0.0527 -0.816 0.0433
-0.418 0.0624 -0.190
0.0845  0.685  0.427
-0.409  0.109 0.00220
 0.347 0.0183 0.0256
-0.0387  0.160  0.838
 0.389  0.262 -0.248
-0.523  0.178  0.406
-0.889  0.170  0.153
0.0224  0.722  0.473
-0.285 0.0540  0.388
0.0725  0.369  0.126
 0.123 -0.533 -0.157
 0.294  0.132 -0.354
 0.111 -0.138  0.272
-0.593 0.0476  0.530
 0.112 -0.661 0.0191
 0.130 -0.917 -0.0737
 0.183 -0.137 0.0269
 0.629  0.370 -0.317
 0.637  0.420 -0.233
-0.335 0.0452 -0.302
-0.524  0.123 -0.252
-0.773  0.110 -0.436
 0.267  0.351 -0.428
-0.0786  0.154 -0.180
0.0673  0.655  0.367
 0.350 -0.0613 -0.281
 0.573 0.0258 -0.0893
 0.447 0.0453  0.232
-0.333  0.434  0.134
0.0150  0.537 -0.658
-0.114 -0.0319 -0.520
 0.283  0.300 -0.348
-0.457  0.146  0.302
 0.182  0.109 -0.0970
0.0371  0.542  0.225
-0.106  0.108  0.487
-0.434 0.0849  0.411
 0.199  0.559  0.332
0.0708 0.0439  0.332
-0.0947 -0.826 -0.175
0.0839  0.267 -0.317
 0.392 -0.0287  0.155
 0.254  0.472 -0.701
 0.468 -0.00438  0.345
0.00771 -0.834 -0.180
-0.553  0.169 0.0342
-0.145 -0.575 -0.107
0.0563 -0.243 -0.0770
 0.552  0.394 -0.214
-0.0485 -0.511 0.00680
-0.0936  0.147  0.631
 0.231 -0.0767  0.207
 0.542 0.0115 -0.140
0.0278 -0.397  0.130
-0.232 -0.0661 -0.391
0.0869 -0.275 -0.00180
 0.290  0.334  0.156
0.0966 -0.501 -0.0132
-0.0860 -0.597 -0.217
 0.389 0.0552 -0.644
 0.779 0.0481  0.179
-0.151  0.407  0.634
-0.726 0.0475 -0.541
-0.151  0.135  0.174
-0.546 -0.196 -0.339
 0.292  0.108  0.655
-0.374  0.499  0.183
-0.526 0.0924 -0.443
-0.0516  0.134  0.531
 0.779 0.0174 -0.120
0.0258 0.00829  0.310
 0.360 -0.0193 -0.109
-0.260  0.355 0.0573
 0.175  0.203 0.0395
 0.630 0.0412 -0.117
0.0303  0.172  0.650
-0.501  0.233  0.490
-0.221 0.0690  0.394
-0.0951  0.581  0.223
-0.149 -0.755 -0.0151
-0.400 0.0490  0.160
 0.484 -0.0559 -0.325
-0.204  0.334 0.0530
-0.124  0.232  0.267
-0.0409 -0.305 -0.102
 0.525 -0.0535  0.501
 0.904 0.00968 0.0792
-0.283  0.257 0.0108
-0.695  0.206 0.00811
 0.121 0.0238  0.223
-0.143 -0.0455 -0.570
-0.114 -0.0581 -0.392
-0.305  0.532  0.208
0.0806 -0.313 -0.104
 0.428  0.313 -0.208
-0.598  0.119 -0.487
-0.467  0.304  0.584
 0.247  0.211  0.132
 0.273  0.102  0.526
-0.115 -0.968 -0.0326
 0.502 0.0381 -0.649
 0.850 0.0145  0.309
 0.125 -0.722 0.0343
-0.00260  0.201 -0.258
 0.130 -0.833 -0.123
0.0147 -0.277 -0.138
-0.510 -0.121 -0.360
-0.416 -0.0778 -0.450
-0.0627 -0.345 -0.0417
 0.347 0.00220 -0.382
 0.445  0.375 -0.0144
-0.131 -0.688 -0.105
 0.492  0.387 0.0890
-0.395 -0.173 -0.172
0.0141  0.459 -0.499
 0.150 -0.564 -0.0523
-0.0469  0.397 -0.435
-0.593  0.151 -0.283
-0.325  0.357 0.0517
-0.467  0.134  0.245
-0.0250  0.698  0.381
0.0923  0.160  0.832
 0.158  0.536  0.276
0.0475  0.299  0.303
-0.650 0.0999 -0.456
 0.248 -0.130  0.452
-0.291  0.353  0.474
-0.0518 -0.407 -0.00117
 0.473 -0.0118 0.0783
-0.547  0.121 -0.0351
 0.432  0.203 -0.423
 0.278  0.242 0.0938
-0.796  0.199  0.203
-0.737  0.145 -0.114
 0.463 -0.0809 -0.249
 0.263 0.0716 -0.523
-0.131  0.227 9.77e-05
-0.215  0.215 -0.239
 0.294  0.118  0.593
-0.104  0.313 0.0630
-0.276  0.108  0.610
 0.203 0.0807 -0.263
-0.312 -0.0414 -0.505
-0.0982 -0.433 -0.230
-0.304 -0.00890 -0.164
 0.600 0.0252 -0.00271
0.0640 -0.566  0.103
 0.254  0.289  0.126
 0.244  0.111  0.471
-0.157  0.511 -0.679
 0.164  0.151  0.737
0.0738  0.144  0.559
 0.353 -0.0300  0.197
-0.122 -0.532 -0.160
0.0210 -0.0873 -0.0903
0.0227  0.376  0.384
-0.328 0.0567  0.441
 0.731 -0.0255  0.409
 0.799 0.0535 0.000482
0.0572 -0.754 0.0507
-0.342 -0.0661 -0.662
 0.401 -0.0148 -0.0216
-0.582  0.147  0.428
-0.792  0.167 0.0391
-0.326  0.406  0.662
-0.183  0.454 -0.519
-0.0567  0.471 -0.529
-0.667  0.152  0.374
 0.748 0.0277 -0.0251
0.0157 -0.0546  0.212
-0.145  0.121  0.531
 0.107  0.153 -0.179
-0.0317  0.351  0.414
-0.0496 -0.760 0.0832
-0.233  0.578  0.246
 0.349 0.0657 -0.691
-0.231 0.00356 -0.283
-0.484 0.0368  0.177
-0.107 -0.682 0.0634
0.0812 -0.567 0.0226
-0.0135 -0.523 0.0918
-0.405 0.0741 -0.295
-0.669  0.195  0.121
-0.0736  0.652  0.304
-0.0157  0.408  0.510
-0.772  0.160 -0.313
-0.586  0.146 -0.156
 0.147  0.346 -0.388
 0.372  0.188 -0.438
-0.164 -0.636 -0.0133
 0.336 0.0851  0.434
 0.106 0.0832  0.414
-0.0366 -0.284 0.0206
-0.421 0.0698  0.113
-0.0213  0.172  0.754
-0.146  0.333 -0.367
-0.117 -0.118 0.0195
0.0459 -0.915 0.0298
-0.228 0.0974  0.524
0.0250  0.413 -0.449
-0.130  0.426 -0.471
-0.363  0.113  0.209
-0.221  0.245 -0.0155
-0.252 0.0355  0.147
-0.293  0.257 -0.314
 0.507  0.392 -0.165
 0.144 0.0174 -0.0869
-0.0383  0.227 0.0223
 0.110 -0.968 -0.0428
-0.137 -0.438 0.0712
 0.188  0.225 -0.259
 0.135 -0.667 -0.160
-0.356  0.100 -0.105
-0.719  0.183  0.303
-0.0147  0.333 -0.383
-0.0523 -0.705 -0.189
 0.834 0.0396  0.186
 0.408  0.217 -0.367
-0.517 -0.153 -0.427
-0.160 -0.500 -0.0623
 0.622 0.0399  0.185
-0.614  0.191  0.176
 0.590 0.0295 0.0513
 0.110 -0.726 -0.135
-0.271 -0.110 -0.299
0.0845 -0.180 -0.106
-0.125 -0.412 -0.175
-0.262  0.398  0.620
-0.470 -0.157 -0.273
 0.590 -0.0315 -0.526
 0.311  0.287  0.138
-0.270  0.340 -0.381
-0.230  0.421 -0.524
 0.335  0.155 -0.412
 0.203  0.415 -0.483
-0.0108 -0.0692 -0.381
 0.360  0.295 0.00662
0.0108  0.241  0.218
 0.194  0.136  0.800
 0.122 -0.836 0.0117
-0.370 0.0744 0.0199
-0.316 0.0637  0.214
 0.328 -0.0593  0.397
 0.245  0.384  0.167
-0.586  0.138 -0.344
-0.0917 -0.640 -0.174
-0.0871  0.289 -0.329
-0.0170  0.254  0.265
-0.304 0.0246 -0.357
 0.262 0.0788 -0.384
-0.261 0.0948  0.673
-0.458 -0.121 -0.389
 0.275  0.224 -0.280
 0.284 -0.0430  0.283
-0.170  0.154 -0.189
0.0518 -0.418 -0.250
0.0698  0.419  0.152
-0.0577 -0.459 -0.0155
-0.359  0.368  0.569
 0.235  0.104 -0.107
-0.339 0.0356 -0.501
-0.0530 -0.273 -0.0298
-0.263  0.120  0.190
-0.169 -0.382 -0.0902
-0.159 -0.552 0.0235
-0.664  0.127 -0.410
 0.757 0.0433  0.257
 0.571  0.426 -0.0823
 0.394 0.0103  0.321
 0.383  0.310 -0.0732
-0.485  0.116 -0.0845
-0.274 0.0513  0.257
0.0454 -0.703 -0.219
-0.165 -0.688 -0.0634
0.0882 -0.916 -0.161
-0.598  0.172 -0.0303
 0.107  0.497 -0.595
-0.0431 -0.480 -0.246
-0.0977 -0.861 -0.00466
 0.575 -0.0586 -0.466
0.0805 -0.484 0.0739
 0.185  0.108  0.494
-0.245 0.0178 -0.170
 0.484  0.325 -0.272
-0.388 0.0958  0.374
-0.131 -0.0455 -0.456
-0.0928 -0.257 0.0395
-0.180 0.0898  0.430
 0.141 -0.564 -0.117
 0.103  0.463 -0.522
-0.781  0.142 -0.383
-0.123 0.0378  0.103
-0.0522 -0.802 -0.203
 0.474 -0.0358  0.458
 0.101  0.103  0.463
-0.219  0.394  0.550
-0.0421 -0.677 0.0962
-0.211 0.0905  0.124
 0.281  0.232 0.0216
 0.514 0.00421  0.227
 0.199  0.465 -0.600
 0.465 -0.0164  0.154
-0.315 0.0574  0.324
0.0776  0.407 -0.444
 0.155 0.0741 -0.597
0.00981  0.249 -0.322
0.0182 -0.576 -0.0217
0.0789  0.171  0.758
 0.256  0.164 -0.0965
-0.232 -0.0452 -0.553
 0.303 -0.0728 0.0612
-0.0487 -0.620  0.102
-0.0667 -0.0684 -0.370
 0.877 -0.00266 0.0343
-0.739  0.163 -0.211
-0.0740  0.505 -0.612
 0.622 0.0270  0.269
-0.0948  0.361  0.424
 0.467 0.0449 -0.580
0.00460 -0.381 -0.116
0.0378 -0.212 -0.141
 0.766 -0.0510  0.438
0.0618 -0.439 -0.105
 0.291 -0.121 -0.171
 0.169 -0.0752 -0.232
 0.127 -0.0235 -0.321
0.0488 -0.543 -0.238
-0.263  0.515  0.182
-0.832  0.158 -0.265
 0.184 -0.482 -0.0377
-0.121  0.147  0.765
 0.421 -0.0530  0.446
-0.395  0.208  0.325
 0.215  0.157  0.645
 0.564 -0.0802 -0.370
-0.000148 0.0304  0.256
-0.283  0.432  0.123
-0.00307  0.125  0.515
0.0458 -0.634 0.0720
-0.476  0.105 -0.170
 0.142  0.272 -0.315
 0.691 0.0359 -0.0355
 0.555 0.0232 -0.0322
-0.0451  0.494  0.168
-0.186  0.448  0.127
0.0118 -0.498 -0.118
-0.735  0.129 -0.405
 0.202  0.148 -0.00997
-0.440 0.0601 -0.455
 0.503 0.00908 -0.0166
 0.746 0.0403 0.0768
-0.201  0.152  0.674
-0.126  0.420  0.520
 0.330 0.0443 -0.461
0.0168  0.504 -0.578
-0.0926  0.516 -0.659
-0.162 -0.625 -0.123
 0.496  0.314 -0.346
-0.146 -0.162 -0.156
 0.294  0.178 -0.167
-0.262  0.309 0.0355
-0.317  0.400 -0.524
 0.115  0.187 -0.219
0.0182 0.0974  0.469
-0.109 -0.145 -0.189
-0.488  0.113 -0.287
0.00954 -0.178 -0.0176
-0.575  0.184 0.0795
 0.296 0.0613 -0.576
-0.0858 -0.170 -0.00291
-0.521 -0.178 -0.275
-0.266 0.0356  0.344
-0.189 -0.429 -0.0234
 0.454 0.00435 -0.0536
 0.562  0.418 0.00992
-0.114  0.479 -0.574
-0.00287 -0.450 -0.227
 0.430 0.0228 -0.443
-0.324 0.0830  0.570
 0.436  0.362 0.0920
 0.221 -0.0228 -0.346
-0.0462  0.177  0.179
0.0465  0.339 -0.386
 0.890 -0.0384  0.387
-0.532  0.227  0.436
-0.0680 -0.512 0.0783
-0.0826 -0.0497 -0.475
-0.221  0.329  0.409
 0.529 -0.0322 -0.437
 0.143 -0.422 0.0186
-0.525  0.107  0.254
 0.439 -0.123 -0.193
-0.704  0.137 0.0528
 0.174 -0.485 -0.128
-0.715  0.163 -0.304
 0.112 -0.289 -0.0536
-0.153  0.258  0.300
0.0606  0.234 0.0438
 0.363  0.224 -0.268
 0.148 -0.490 0.0475
 0.565 0.0215  0.112
0.0560 -0.254 0.0320
 0.529  0.411 -0.0601
0.0712 -0.781 -0.197
 0.238 0.0535  0.352
-0.276 -0.0802 -0.349
 0.216  0.457  0.235
-0.342  0.336  0.460
 0.547  0.361 -0.276
 0.217  0.127  0.721
 0.166 -0.397 -0.0842
 0.120 -0.00461 -0.368
-0.486  0.105 -0.361
 0.138  0.386 -0.427
0.0208 -0.137 -0.0837
0.0187 -0.470 0.0963
 0.342 -0.0277 0.0529
-0.0195 -0.913 0.0395
-0.0882 -0.0327 -0.564
-0.187  0.381 -0.442
 0.113 -0.257 -0.116
 0.253 -0.0346 0.0946
 0.158 -0.667 -0.0135
-0.113 -0.553 -0.204
-0.223  0.243  0.319
-0.440 -0.163 -0.190
0.0747  0.541 -0.677
0.0102 -0.522 0.0455
 0.565 0.0212  0.305
0.00288 -0.315 0.0423
-0.453  0.129 -0.0224
-0.184 -0.0364 0.0513
-0.439  0.303  0.528
 0.386 -0.0228  0.233
-0.689  0.163 -0.209
0.0235 0.0374  0.382
-0.313  0.236  0.323
 0.539 0.0175 -0.594
-0.462  0.123  0.194
-0.649  0.147 -0.0565
-0.255 0.0220 -0.356
 0.405 0.0493 -0.691
 0.808 -0.00273  0.343
-0.552  0.144  0.378
-0.0558  0.143  0.580
 0.164  0.307  0.111
-0.307 0.0355 -0.262
-0.0814 -0.907 0.00506
 0.811 0.0298  0.283
-0.374 -0.141 -0.255
-0.250 -0.184 -0.123
-0.111 -0.876 -0.0523
-0.739  0.104 -0.478
 0.332 -0.0250  0.330
-0.114 -0.732 -0.175
-0.0433 -0.222 0.0469
 0.391 -0.0437 -0.317
0.00292 -0.0993  0.118
0.0134  0.155 -0.239
-0.233 -0.0512 -0.437
-0.0464 -0.921 -0.187
 0.821 -0.0261  0.411
-0.0921  0.134  0.850
-0.134  0.658  0.309
 0.363 -0.0941  0.467
-0.177  0.385  0.522
 0.257  0.269 -0.319
0.0998  0.598  0.321
-0.657  0.185 0.0744
 0.105 -0.398 0.0666
-0.0656 -0.347 -0.103
 0.564 -0.120 -0.280
-0.00645  0.570  0.231
 0.145  0.276 0.0770
 0.391 0.0319  0.142
 0.116  0.554  0.253
-0.109  0.382  0.482
 0.247 0.0875  0.424
 0.124  0.143  0.591
 0.696 0.0137 -0.115
-0.752  0.193  0.104
-0.229  0.227 -0.284
-0.115  0.166  0.183
-0.306  0.189  0.278
-0.168  0.466 -0.592
-0.0241 -0.207 -0.0524
 0.575  0.335 -0.329
-0.197 0.0180  0.291
-0.348  0.162  0.253
 0.340  0.313 0.0924
 0.380  0.270 -0.139
-0.0458  0.401  0.128
0.0954 -0.345 -0.0610
-0.564  0.125 -0.428
-0.156  0.528  0.189
-0.477  0.106  0.407
-0.0848 -0.778 -0.156
0.0758 -0.352 -0.135
-0.182 -0.382 0.0122
-0.0490 -0.329 0.0667
-0.116  0.354 -0.399
 0.433 -0.0140  0.269
-0.444 0.0640  0.187
-0.0662  0.319  0.340
-0.711  0.136 -0.0189
-0.221 -0.158 -0.188
-0.215 0.0499  0.350
-0.0254  0.342  0.356
-0.189 -0.422 -0.108
-0.263  0.177  0.257
-0.249 0.0203 -0.238
-0.413 -0.0621 -0.561
-0.258 0.0120 0.0782
 0.350  0.211 -0.314
-0.177  0.117  0.751
0.0833  0.269  0.267
-0.0824 -0.859 -0.143
-0.152  0.133  0.585
-0.252  0.564  0.202
-0.0182  0.169  0.689
-0.0578 -0.966 -0.144
-0.138  0.317  0.372
-0.665  0.198  0.183
-0.326  0.265  0.367
 0.125 -0.490 -0.201
-0.259  0.301  0.386
-0.277 -0.0455 -0.605
0.0863 -0.418 -0.206
 0.251 -0.0664  0.248
 0.492  0.269 -0.378
 0.177 -0.531 -0.0235
 0.155 -0.750 -0.0634
-0.775  0.182 -0.0405
-0.00255 -0.605 0.0832
-0.314 0.0454 -0.0122
 0.248  0.104 -0.626
 0.511 -0.00220  0.315
0.0296 -0.942 -0.188
-0.197  0.299 -0.342
-0.515  0.147 0.00224
0.0381  0.452  0.162
0.0941 -0.565 -0.182
-0.865  0.113 -0.0845
-0.0312 -0.747 -0.190
 0.257  0.134 -0.251
 0.223  0.241 -0.290
-0.0797  0.418 -0.463
 0.248 0.0298 -0.428
-0.0492 -0.106 -0.273
-0.104 0.0311  0.272
0.0268 -0.319 -0.166
-0.471  0.244  0.456
-0.217  0.637  0.297
 0.256 -0.0812 -0.260
0.0698  0.516  0.204
-0.422 0.0787 -0.355
-0.657  0.185  0.275
 0.226 0.0923 -0.336
-0.0506 -0.434 0.0935
 0.402 0.00173 -0.396
-0.00831 -0.527 -0.219
-0.564  0.162  0.280
-0.784  0.153 -0.205
-0.264  0.416 -0.558
 0.466  0.362 -0.162
-0.706  0.145  0.400
-0.0527  0.550 -0.711
 0.405  0.318 -0.113
 0.204 0.0368 -0.455
0.0471 -0.689 0.0930
-0.0637 -0.324 0.000305
-0.00463  0.176 0.0441
-0.879  0.136 -0.211
-0.298 0.0158 -0.468
0.0275 -0.833 0.0780
-0.148 -0.786 -0.0984
0.0932 -0.854 -0.169
 0.121  0.414  0.151
 0.844 0.0292 0.0944
 0.246 -0.0832  0.345
 0.377 -0.0204 -0.0606
-0.115 -0.594 0.0694
-0.133  0.121  0.134
 0.221 -0.135  0.415
-0.545  0.135 -0.139
0.00508  0.166  0.612
 0.110 0.0664 -0.487
0.0179  0.654  0.343
 0.119 -0.219 0.0135
-0.0716  0.234  0.258
 0.493 0.0602  0.154
 0.323  0.232 -0.0899
0.0134  0.604  0.276
 0.481 -0.0187 -0.374
-0.120 -0.313 -0.0325
0.0572 -0.376 0.0345
-0.134 -0.484 -0.152
 0.437 -0.0137 0.0504
-0.0452 -0.616 -0.202
 0.179 -0.128  0.391
 0.475 0.0335 -0.521
 0.352 0.0117  0.159
 0.259  0.201 -0.0189
 0.195 0.0937  0.432
0.0426 -0.908 -0.160
-0.178  0.224 -0.0154
-0.154 -0.460 -0.00957
 0.245 -0.157  0.489
-0.00401  0.371  0.121
 0.237 0.0354  0.265
-0.0143 0.0656  0.386
 0.189 -0.0918  0.206
-0.177 0.0918  0.165
-0.0302 -0.273 -0.143
-0.105 -0.773 0.00642
 0.104 -0.897 -0.0423
 0.114  0.514 -0.646
-0.489  0.298  0.626
-0.0380  0.367 -0.401
-0.461 -0.179 -0.234
-0.0378 -0.558 -0.239
-0.311  0.383  0.551
 0.134  0.114  0.493
 0.417 -0.0204  0.408
-0.415 0.0740 0.0306
-0.418 -0.0676 -0.494
 0.717 0.0507  0.233
-0.334 0.0405 -0.387
 0.125  0.634  0.404
-0.368 -0.220 -0.0922
 0.433 -0.0133  0.318
-0.0934  0.199  0.215
-0.133 -0.668 -0.0199
-0.471  0.138 0.0498
 0.253  0.209 0.0763
 0.758 0.00701  0.351
 0.210  0.188 -0.219
-0.121  0.179 -0.219
-0.279 -0.140 -0.231
-0.425 -0.137 -0.278
-0.385 -0.148 -0.210
-0.541 0.0989  0.451
 0.303 0.0118 0.0376
 0.195  0.136  0.578
0.0978  0.334 -0.374
 0.673 0.0446  0.125
-0.233  0.394 -0.473
 0.188 -0.428 -0.0234
-0.681  0.106  0.444
 0.143 -0.561 0.0427
-0.149 -0.485 0.0505
-0.0212  0.232 -0.287
 0.206  0.425  0.178
-0.0135  0.462  0.166
 0.580  0.335 -0.426
-0.0942 -0.210 -0.142
-0.141 -0.632 -0.161
 0.472  0.398 0.0131
 0.220 0.0611 -0.540
 0.496 0.0127  0.375
 0.443 0.00755 -0.127
0.0222 -0.00145 -0.145
-0.0387 -0.0290 -0.458
-0.367 0.0888  0.262
 0.291  0.160 -0.265
-0.653  0.141 0.0149
-0.132 0.0548  0.323
-0.422  0.230  0.360
-0.0564 -0.229 -0.106
 0.185  0.343  0.130
0.0729 0.0600  0.375
-0.351 0.0788  0.309
-0.668  0.164 -0.290
-0.877  0.141 -0.339
 0.170 0.0410 -0.289
-0.00313  0.368  0.444
0.0208  0.211  0.183
 0.505 0.00325 0.0514
-0.258 0.0506 0.0483
 0.510 -0.0964 -0.235
-0.157 -0.709 -0.0239
 0.561  0.413 -0.166
 0.476 0.00170  0.249
-0.391 0.0962 0.0606
 0.309 -0.0556 -0.299
 0.438  0.354  0.186
 0.707 -0.00768  0.375
-0.145  0.133  0.811
-0.461 -0.140 -0.317
 0.381 0.0460 -0.469
-0.160 -0.455 -0.101
-0.0253 -0.0481 -0.419
 0.414 -0.0211  0.198
 0.340 -0.0295  0.125
-0.0289  0.723  0.418
-0.599  0.153 -0.229
 0.394 -0.123 -0.190
 0.322 0.0617  0.386
 0.291  0.153 -0.123
-0.776  0.146  0.379
0.0294 -0.543 0.0869
 0.847 0.0285  0.245
-0.276  0.484  0.153
 0.177  0.327 -0.362
-0.302 -0.0493 -0.437
 0.107 -0.761 -0.174
-0.378 -0.0673 -0.431
 0.132 0.0515  0.323
-0.482 -0.108 -0.509
0.0388  0.158  0.584
 0.293 0.0496 -0.489
-0.0943  0.356 0.0893
 0.103 -0.183 0.0333
-0.158 -0.568 -0.149
 0.291 -0.126  0.468
 0.198  0.385  0.155
0.0834 -0.655 0.0826
 0.203 -0.0984  0.301
 0.286 -0.0215  0.120
-0.108  0.151  0.714
 0.335 0.0643 -0.556
 0.341 -0.0943 -0.218
 0.115 -0.618 0.0240
 0.353  0.277 -0.0548
 0.216 -0.123 0.0546
 0.128 -0.720 -0.0954
-0.845  0.193  0.208
-0.00250 -0.698 -0.226
-0.109 0.0743  0.389
-0.152  0.625  0.275
 0.699 0.0415 0.0140
-0.586  0.137 -0.0537
 0.605 -0.00373  0.379
-0.392 0.0708 -0.0870
0.00372  0.283  0.290
 0.181  0.161 0.0735
 0.387 0.0550 -0.527
-0.530  0.126 -0.179
-0.157 -0.0679 -0.373
0.0475 -0.522 -0.111
-0.280 0.00995 -0.390
0.0252 -0.808 -0.209
-0.591  0.124  0.382
-0.538  0.162  0.222
 0.105 -0.677 -0.191
-0.0631 -0.501 -0.0327
0.0940 -0.733 0.0628
-0.301  0.104  0.176
-0.380  0.334  0.498
-0.656  0.141 -0.368
 0.653 0.0211  0.309
-0.180 -0.559 -0.0694
-0.0725 -0.383 0.0898
 0.452  0.357 -0.118
-0.0221  0.636  0.298
0.0344 -0.286 0.0610
0.0537 -0.878 0.0629
 0.534 0.00695  0.394
-0.206  0.673  0.355
-0.178  0.227 -0.257
 0.401  0.304 -0.157
 0.421 0.0364  0.180
0.0435 -0.206 -0.0949
-0.656  0.200 0.0270
-0.0842  0.421  0.127
 0.135  0.155  0.664
-0.116  0.145  0.667
0.0931 -0.928 -0.104
 0.192  0.456 -0.513
 0.876 0.0302  0.186
 0.682 0.0118  0.433
 0.116 -0.803 -0.0957
 0.375 -0.0143 -0.353
 0.308  0.276 0.0924
0.0598 -0.576 -0.0737
 0.212 -0.0686 -0.266
-0.225  0.431  0.119
0.0852 -0.626 -0.212
 0.223  0.517  0.278
-0.435  0.119 -0.0774
-0.179  0.495  0.154
0.0829 -0.300 0.0388
-0.0246 -0.856 0.0473
-0.159 0.0196  0.234
0.0158 -0.569 -0.241
 0.165  0.424  0.167
-0.389  0.284  0.425
-0.118  0.535 -0.756
 0.182 -0.122  0.112
 0.521 0.000455 -0.521
-0.222  0.409  0.603
-0.0717 -0.783 0.0384
-0.188  0.124  0.606
 0.462  0.330 -0.233
0.0205 -0.967 0.0346
 0.237  0.108 -0.293
-0.353 -0.0463 -0.565
-0.381 0.0551  0.121
 0.167  0.244 0.0620
-0.0444  0.211 -0.258
-0.0249 -0.432 -0.103
-0.0571 -0.299 -0.0629
-0.620  0.139 -0.0155
-0.302  0.298  0.386
-0.322 0.0787 -0.0780
-0.264  0.389  0.572
 0.306  0.396 -0.494
 0.223  0.382 -0.443
-0.451 -0.0943 -0.477
-0.0357  0.521 -0.618
 0.148 -0.760 -0.104
 0.640 0.0236  0.355
0.00967 0.0695  0.420
 0.672  0.320 -0.383
 0.114 -0.763 -0.00954
 0.342 0.0662 -0.646
 0.593 0.0348 -0.0445
-0.616  0.125 0.0400
 0.524 -0.0758 -0.319
 0.248  0.131 -0.189
0.0480 -0.646 -0.226
-0.159  0.107  0.462
-0.160 -0.105 -0.116
0.000306 0.0401  0.300
 0.112 -0.860 -0.0686
 0.174 -0.438 -0.140
-0.210 -0.135 -0.274
0.0582 0.0352  0.270
-0.420 0.0952  0.201
 0.138 -0.574 -0.174
0.0614  0.480  0.184
-0.140 -0.118 -0.275
-0.169  0.249 -0.298
 0.338  0.303 0.0519
-0.315 0.0589 0.0915
-0.00479 -0.222 -0.112
-0.522  0.162 -0.0747
 0.661 0.0452  0.167
 0.418 0.0585  0.103
-0.109 -0.948 0.00302
-0.434  0.112  0.274
0.0931  0.165  0.653
-0.385 0.0345 -0.188
-0.322  0.607  0.236
 0.340 0.0112 0.0676
0.0710  0.173  0.717
0.0320  0.171  0.776
 0.580  0.430 -0.124
 0.162 -0.521 -0.148
-0.513  0.118 0.0788
-0.433 0.0694 -0.408
-0.409 0.0948 -0.166
-0.0230  0.333  0.115
-0.500  0.121  0.369
 0.943 -0.00613  0.139
 0.675  0.454 -0.0558
 0.163 -0.576 0.00310
-0.479  0.128  0.154
 0.411  0.346 0.0542
-0.0305 -0.383 -0.231
 0.259  0.340 -0.377
-0.0464 0.0565  0.346
-0.220  0.298  0.374
-0.0386 -0.585 0.0807
 0.826 0.0363  0.146
 0.402 -0.0404 0.0898
-0.117 -0.725 -0.000248
 0.515 0.00279  0.186
 0.360 -0.0340  0.370
-0.120 -0.719 0.0439
-0.0276 -0.418 0.0302
-0.757  0.181  0.319
-0.364 0.0987 -0.0628
-0.428 -0.186 -0.152
 0.131 -0.880 -0.0989
 0.304  0.161 -0.313
-0.339 0.0666 0.0446
0.0783 -0.904 0.00689
 0.432 0.0583 -0.626
0.0206 0.0706 -0.187
-0.0985 -0.963 -0.139
 0.152 -0.445 0.0511
-0.415  0.155  0.262
 0.202 -0.000380 -0.375
0.0896 -0.963 -0.148
-0.109 -0.0980 -0.313
-0.0531 -0.892 -0.158
-0.382 0.0757 -0.0321
0.0371 -0.730 -0.190
-0.0555  0.293  0.309
-0.0906 -0.916 -0.117
 0.123  0.156  0.738
-0.191 -0.0920 -0.326
 0.667  0.375 -0.331
-0.356  0.210  0.313
-0.453  0.240  0.392
0.0921 -0.511 -0.0680
 0.204  0.307  0.120
 0.356 0.00462  0.218
 0.210 -0.0624  0.122
 0.375 0.0329 0.0536
-0.538  0.167 -0.115
 0.290 0.0436  0.343
 0.205 0.0546 -0.492
-0.827  0.183  0.279
-0.748  0.149 -0.0733
 0.547 0.0183  0.207
-0.0931 -0.854 0.0435
-0.712  0.202  0.194
 0.174  0.295 -0.335
 0.386 -0.0704 -0.265
 0.247  0.172 -0.0507
 0.304  0.232 -0.0444
 0.134 -0.690 -0.0419
 0.125 -0.162  0.349
0.0580 -0.147 -0.0464
-0.431  0.109  0.114
 0.887 0.00325  0.322
-0.127 -0.818 -0.138
 0.204  0.166 0.0260
 0.195 -0.108  0.348
 0.397 -0.0274  0.338
-0.0803 -0.657 0.0849
-0.104  0.127  0.522
-0.156 -0.720 -0.105
0.0580 0.0952  0.464
-0.186  0.331 -0.368
-0.0266 -0.161 -0.0162
 0.506  0.394 -0.125
-0.0241 -0.730 0.0655
-0.355 0.0474 -0.428
-0.209  0.353  0.444
-0.0564  0.586  0.232
-0.0184  0.272 0.0886
0.0877  0.299 -0.344
 0.325  0.202 -0.232
 0.123 -0.678 -0.124
-0.577  0.183  0.156
 0.146  0.476  0.212
0.0707 -0.200 -0.0409
0.0989 -0.804 -0.132
-0.334 -0.109 -0.298
 0.156 -0.512 -0.0632
 0.381 0.0595 -0.606
 0.462  0.308 -0.304
 0.142  0.482 -0.583
 0.286 -0.0322  0.174
-0.298 -0.177 -0.155
0.0292  0.137  0.535
 0.112 -0.464 0.0517
-0.130 -0.657 0.0443
 0.132 0.0514 -0.458
 0.212 -0.0891  0.259
-0.114 -0.733 -0.131
-0.300 -0.185 -0.108
 0.342 0.0293 -0.426
 0.137 -0.162 0.0572
 0.247  0.122  0.565
-0.183  0.147  0.205
-0.110 -0.511 0.0846
 0.110 -0.810 -0.0161
-0.300 0.0291 -0.175
0.0183 -0.668 0.0743
-0.254  0.350  0.450
-0.143 -0.180 -0.212
-0.185  0.547  0.208
0.0412  0.207 -0.249
 0.166  0.134  0.551
-0.0537 -0.187 -0.0784
-0.511  0.270  0.567
0.0906 -0.273 -0.0871
-0.555  0.139 0.0597
-0.314 0.0326 -0.127
-0.253  0.408 0.0832
 0.424  0.248 -0.342
 0.227  0.299 -0.340
 0.441 -0.00566  0.380
-0.0473 -0.532 -0.0810
 0.445 -0.0422 -0.326
0.0188 0.0354 -0.0166
-0.196  0.367 0.0721
 0.288 -0.0275 -0.348
0.0272 -0.448 -0.252
-0.705  0.163  0.340
-0.306 0.0563  0.177
 0.156 -0.656 -0.122
0.00752 -0.448  0.127
-0.577 0.0475 -0.544
-0.218  0.501  0.165
-0.0229  0.426  0.151
 0.340 -0.0760  0.430
-0.165 -0.594 -0.00257
 0.249  0.154  0.670
 0.146  0.138  0.823
 0.286  0.191 -0.0982
 0.655 0.0348 -0.00872
-0.128  0.308 -0.344
 0.149 -0.792 -0.0735
-0.133  0.213 -0.248
-0.422 0.0744 0.0715
 0.170  0.614  0.323
 0.112  0.419 -0.460
 0.182  0.402 -0.453
-0.608  0.177 0.0120
0.00833 -0.122 -0.237
0.0538 -0.356 0.0755
 0.141 -0.383 -0.156
-0.0542  0.268 0.0501
 0.716 0.0326  0.280
-0.0367  0.163  0.795
0.0641 -0.469 -0.241
-0.196 0.0541  0.305
-0.0930 -0.464 -0.197
-0.0368 -0.959 0.0270
-0.117  0.340  0.395
-0.284 0.0326  0.420
0.0703  0.303 0.0875
-0.00267 -0.388  0.105
-0.552  0.120 -0.356
 0.317  0.269 0.0127
 0.107 -0.230 -0.0217
-0.125 -0.651 -0.131
 0.126 -0.323 -0.0701
 0.400  0.334  0.103
 0.478  0.244 -0.424
-0.0899  0.230 -0.268
0.0842  0.209 0.0230
0.0469  0.270 -0.328
 0.201 0.0393  0.284
-0.166  0.325 0.0548
0.0376 -0.594  0.108
-0.509  0.118 -0.114
-0.125 -0.575 0.0220
 0.159 -0.521 0.0272
 0.189 -0.131 -0.224
-0.0702  0.529  0.185
-0.0821 -0.249 -0.0210
 0.117 -0.720 -0.173
 0.127 -0.152  0.307
-0.380  0.252  0.381
 0.231  0.354 -0.415
 0.136  0.529 -0.725
-0.181 -0.511 -0.0217
0.0882 -0.759 0.0276
 0.628  0.389 -0.273
-0.329  0.409 0.0755
0.0813 -0.828 0.0206
 0.495  0.390 -0.0573
 0.704  0.472 -0.102
0.0119  0.310 -0.365
-0.0862 -0.706 -0.168
-0.503  0.144  0.235
-0.233  0.104  0.152
-0.146 -0.606 -0.0852
-0.424  0.280  0.451
 0.707 0.0547 0.0514
0.0251 -0.221 0.0255
 0.171 -0.584 -0.104
-0.142 -0.658 -0.0632
-0.341 -0.0779 -0.366
 0.331 -0.0550  0.356
-0.253 0.0775  0.116
-0.0123 -0.874 -0.201
 0.163 -0.134  0.356
0.0995 -0.214 -0.130
-0.451 0.0817 -0.191
 0.398  0.336 0.0198
0.0873 -0.491 -0.196
 0.510 0.0648  0.231
-0.231 -0.172 -0.154
-0.161 -0.665 -0.112
 0.323  0.203 -0.167
 0.316 -0.00206  0.107
-0.0951  0.732  0.418
0.0877 -0.450  0.105
-0.138 -0.859 -0.0310
-0.448 0.0934 0.0257
-0.0772 -0.356 0.0259
 0.181 -0.387 0.00767
0.0843 -0.967 -0.00845
-0.104  0.309  0.359
 0.514  0.347 -0.264
-0.639  0.160  0.349
-0.0241 -0.647 -0.204
-0.501  0.113 -0.208
-0.0274 -0.532 0.0303
 0.157 -0.428 -0.172
-0.255  0.263 -0.313
0.0842  0.488 -0.559
-0.439  0.108  0.320
-0.0934  0.436 -0.493
-0.0394 -0.576 -0.0904
 0.413  0.274 -0.284
0.00895 -0.615 -0.209
 0.115 -0.637 -0.148
-0.172  0.377  0.450
-0.204 -0.0733 -0.366
0.00104 -0.576 -0.110
 0.178  0.508 -0.663
-0.180 -0.485 -0.119
-0.119 -0.627 0.0201
-0.419 0.0931 -0.101
 0.279 -0.102 -0.208
-0.104 -0.0426 0.0471
-0.0751 -0.281 0.0111
0.00764 -0.511  0.121
0.0372 -0.253 -0.108
-0.395 0.0878  0.174
-0.295 0.0365 -0.0942
 0.148  0.153  0.699
0.0964  0.533  0.229
 0.165 -0.418 -0.0530
-0.193  0.186  0.257
 0.564 -0.0341 -0.395
-0.232  0.140  0.212
0.0925 -0.540 0.0920
-0.763  0.191  0.152
-0.192  0.106  0.517
 0.428 -0.0984  0.516
 0.362 -0.0264 0.0206
 0.224  0.105  0.502
 0.148 -0.160 -0.168
-0.133 -0.439 0.0341
 0.589 -0.0443  0.503
-0.0690  0.157  0.748
 0.155 -0.443 -0.0129
-0.224 0.0874  0.426
-0.342 0.0347  0.100
-0.510  0.154  0.147
-0.689  0.197  0.154
-0.127  0.552  0.201
 0.136 0.0367  0.282
-0.423 0.0937  0.353
0.00468 -0.215 -0.0748
-0.480 0.0945  0.444
-0.164  0.298  0.352
 0.490 -0.00447 -0.447
-0.301 0.0521  0.286
-0.274 0.0636 -0.0223
-0.0795  0.355 -0.392
-0.690  0.139 -0.383
 0.255 0.0968  0.801
 0.109 -0.439 -0.186
0.0930 -0.641 0.0436
 0.120  0.378  0.133
 0.142 -0.393 0.0704
 0.157  0.199 -0.235
-0.0488 -0.527  0.113
0.0929 -0.228 -0.0878
 0.115 -0.670 0.0548
-0.389 -0.0584 -0.644
-0.0581 -0.366 -0.0116
 0.220 -0.0898 -0.219
 0.354  0.232 -0.229
-0.129 -0.861 -0.120
-0.147 -0.0401 -0.533
0.0623 -0.732 0.0816
-0.331 -0.0594 -0.627
-0.197 -0.0499 -0.141
-0.175 -0.605 -0.0533
-0.572  0.174  0.115
0.0968  0.226 -0.271
-0.274 -0.122 -0.264
 0.609 0.0379 0.0929
 0.506 -0.00867  0.146
-0.153  0.446 -0.499
 0.697  0.470 0.0192
 0.421  0.354 -0.0423
0.0475 -0.381 -0.253
0.0970 -0.00946 -0.337
-0.416  0.305  0.490
-0.152  0.398 0.0927
0.0143 -0.176 0.0691
 0.511 -0.0203  0.386
-0.0729 -0.0940 0.0118
-0.692  0.174 -0.0301
-0.253 0.0292 -0.0451
-0.482  0.112 -0.0481
 0.567 0.00338  0.369
-0.189  0.264 0.00321
-0.187 -0.160 -0.175
 0.581 0.0262 -0.125
-0.0124 -0.937 -0.192
0.0994 -0.939 -0.0630
 0.571 0.0256  0.258
0.0267  0.175  0.686
-0.277 -0.0400 -0.563
-0.519  0.155 0.0388
-0.444 0.0939 -0.0281
-0.648  0.197  0.151
-0.264  0.243  0.335
0.0411  0.378 -0.421
 0.634  0.451 -0.0124
-0.0909 -0.143 -0.106
 0.121 -0.281 -0.0119
 0.115  0.440 -0.496
0.0149  0.524 -0.624
0.0488  0.599  0.288
 0.144 -0.603 -0.0357
-0.0815 -0.536 -0.196
-0.235 0.0326  0.263
-0.145 -0.387 0.0255
-0.437  0.254  0.428
 0.123 -0.112  0.161
-0.149  0.458 -0.562
 0.154 0.0525 -0.517
0.00436  0.539  0.209
 0.243 0.00866 -0.397
-0.0124 -0.791 0.0861
-0.297 -0.160 -0.191
 0.206 0.0994 -0.193
 0.796 0.0269 0.0492
 0.353  0.246 -0.134
0.0853 -0.578 -0.219
 0.374 0.0610 -0.570
-0.333 0.0624  0.405
-0.0137  0.205  0.192
-0.0899 -0.812 0.0535
-0.275 -0.198 -0.0826
-0.245  0.269 0.0179
 0.425 -0.0232  0.136
-0.395 0.0724 -0.379
 0.519  0.382 -0.205
-0.607  0.191  0.212
-0.146 -0.390 -0.196
-0.236 -0.0407 -0.518
 0.905 0.00806  0.137
 0.370  0.301 -0.0276
-0.535 0.0817 -0.476
 0.743 0.0554  0.179
-0.150 -0.543 -0.0239
 0.451  0.363 -0.0628
 0.156 -0.583 -0.143
-0.349 0.0678  0.134
 0.307 -0.0777  0.445
-0.110  0.286 0.0387
-0.492  0.105 -0.252
-0.261 0.0388  0.112
-0.332 0.0488 -0.0435
 0.289 -0.0682  0.383
-0.00131  0.441 -0.472
-0.434 0.0698  0.446
-0.143 -0.523 -0.128
 0.161 -0.460 -0.0630
 0.147 -0.512 -0.116
-0.356 0.0798  0.222
-0.0858 -0.594 0.0897
0.0522 -0.950 0.0511
-0.109 -0.674 -0.190
 0.437 0.0135  0.345
 0.241 -0.0416 -0.322
 0.544 -0.00786 -0.547
-0.177  0.590  0.243
-0.145 -0.531 0.0489
 0.109 -0.335 0.0625
 0.120  0.475 -0.551
-0.263  0.152  0.231
 0.334  0.166 -0.378
0.0876 0.0157 -0.407
-0.0355 -0.291 0.0620
-0.449  0.131 0.0131
-0.116 -0.793 -0.0206
-0.232  0.184  0.273
-0.128 -0.843 0.00281
-0.345 0.0419 -0.462
-0.288 0.0655  0.126
0.0624 -0.0461 -0.281
0.0401 -0.772 -0.182
 0.123  0.209 0.0233
-0.503  0.116 -0.332
-0.176 -0.181 -0.104
 0.465 0.0428  0.201
-0.536  0.169  0.174
-0.325 0.0382 -0.218
-0.697  0.152 -0.125
0.0998 0.0546  0.349
-0.158  0.407 -0.462
-0.235 -0.117 -0.306
-0.0794 -0.381 -0.242
-0.447 0.0921 -0.154
 0.123 -0.0141 -0.0780
-0.0177 -0.466 -0.106
-0.0982  0.262 -0.308
 0.465 -0.0728 -0.297
 0.256 -0.0632  0.179
 0.104 -0.366 -0.0336
-0.298  0.301 -0.351
-0.0572  0.164  0.148
 0.422 -0.0127 0.0144
-0.245  0.490 -0.585
-0.439 0.0848 -0.293
 0.162 0.0695  0.384
