ply
format ascii 1.0
element vertex 2048
property float x
property float y
property float z
end_header
 0.505 0.00229 0.0873
-0.712 0.0787  0.251
0.00317 -0.0169 -0.988
-0.000779  0.347  0.938
-0.209 -0.0714 -0.277
-0.0771 -0.0176  0.395
 0.254 -0.116 -0.282
 0.291 0.0464  0.830
-0.287 0.0475  0.823
0.0346 0.0782 -0.582
0.0444 0.0725 0.0115
-0.347 -0.0294 0.0911
0.00782  0.156  0.665
0.0346 0.0782 -0.296
 0.712 0.0790  0.252
-0.118 -0.144 -0.0134
0.000429 0.0200  0.890
 0.283 -0.00744 -0.0370
-0.580 0.0318 0.0482
-0.0476 -0.0707 -0.757
0.0325 -0.0805  0.193
0.0391 -0.0507  0.585
0.00457 -0.0877 -0.436
 0.115 -0.142 -0.0117
-0.327 -0.00862 -0.119
-0.0209 -0.0866 -0.188
-0.129 0.0244  0.711
 0.127 0.0214  0.734
 0.149 -0.0128 -0.162
-0.00485 0.0851  0.262
0.0512 0.0632 -0.830
0.00388  0.194  0.845
-0.0441 0.0729 -0.135
0.0508 0.0692  0.467
-0.0764 0.0288  0.119
0.0207 -0.0850 -0.607
-0.0584 0.0616 -0.426
0.0759 -0.0273  0.342
-0.170 -0.0157 -0.0879
 0.663 0.0537  0.107
-0.453 0.00543 -0.0367
 0.439 0.00543 -0.0468
-0.0641 0.0512  0.562
-0.0531 0.0667 -0.707
 0.348 -0.0272 0.0892
0.0804 0.0103 -0.700
-0.00398 -0.0876 0.0517
-0.0754 -0.0392 -0.315
 0.269 -0.104 -0.142
0.0783 -0.0551 -0.294
-0.0785 -0.00734 -0.548
0.0746 0.0369 -0.456
-0.218 -0.0349 0.0418
0.0149 -0.130 -0.865
-0.146 0.0347  0.847
0.0702 0.0478  0.144
-0.00431 -0.0291  0.728
-0.249 -0.115 -0.155
-0.0743 -0.0307  0.260
-0.0662 0.00838 -0.866
0.0218 -0.0809  0.459
 0.192 -0.0536 0.0474
-0.496 -0.00783  0.139
-0.613 0.0356  0.173
-0.0778 0.0239 -0.00796
0.00509 0.0883  0.776
0.0214 -0.0866 -0.0716
 0.165 0.0373  0.850
-0.116 -0.0176 -0.204
0.0603 0.0531  0.642
0.00408  0.315  0.825
0.0663 0.0539 -0.104
 0.138 -0.0277 -0.0508
0.0636 -0.0506 -0.803
-0.0142 0.0837  0.374
-0.0699 -0.0418 -0.653
-0.00382  0.235  0.740
-0.314 -0.00616 -0.0102
 0.260 -0.0282 -0.218
0.0796 0.0189  0.246
-0.0637 -0.0411  0.507
0.0779 -0.0177 -0.548
-0.0111 -0.0868  0.347
-0.221 -0.0179 -0.184
-0.0561 0.0646 -0.246
0.0771 -0.0229 0.0609
-0.0529 -0.0294  0.626
-0.0795 -0.0698 -0.105
0.0731 0.0397 -0.209
-0.0389 0.0621  0.680
0.0564 -0.00734 -0.903
-0.0532 0.0668  0.464
 0.572 0.0259  0.157
-0.0554 -0.0633  0.147
 0.306 -0.0113 -0.133
-0.257 -0.0608 -0.0754
-0.438 0.00759 0.0622
0.0741 0.0227  0.818
0.0392 -0.0770 -0.702
-0.295 -0.0764 -0.230
-0.0691 0.0189  0.792
-0.0588 0.0622 -0.612
-0.0743 -0.0307 -0.445
-0.210 0.0375  0.770
-0.0373 0.0761 -0.522
0.0762 -0.0721 -0.162
-0.0440 0.0719 -0.800
0.0786 0.0240 -0.358
0.00123 -0.0878 -0.336
 0.216 0.0378  0.772
-0.123 -0.0491 0.0271
-0.0284 -0.0819 -0.525
-0.00481 0.0841 0.0878
0.0737 -0.0191  0.501
-0.698 0.0668  0.162
-0.0198 -0.0582 -0.908
 0.583 0.0385 0.0613
-0.0712 0.0441  0.310
 0.424 0.00799 0.0417
 0.222 -0.0423 -0.0980
0.0307 0.0794 -0.734
-0.0213 0.0818 -0.0504
-0.000214  0.259  0.905
-0.00428 0.0567 -0.905
-0.0712 0.0441  0.215
0.0620 0.0597  0.338
0.0190 0.0829 -0.391
0.0460 0.0692  0.554
-0.0695 0.0477 -0.342
-0.0596 -0.0815 -0.0208
0.0391 -0.0770  0.278
0.0704 -0.0417 -0.411
 0.158 -0.120 -0.0807
 0.212 -0.0983 -0.211
 0.142 -0.0319 -0.243
 0.271 -0.0281 0.0501
0.0802 0.00504  0.418
 0.360 -0.0194 -0.0711
-0.160 -0.114 -0.0774
 0.662 0.0519  0.193
0.0774 -0.0689 -0.0133
 0.503 0.0105 0.00304
-0.645 0.0493 0.0940
-0.0795 0.00848 -0.766
-0.00603  0.106  0.602
 0.345 -0.00547 0.0124
0.0749 -0.0315  0.140
-0.00986 0.0846  0.167
-0.509 0.00926 0.0171
-0.223 0.0421  0.868
0.00545 0.0851 -0.660
-0.0347 -0.0728 -0.833
0.0585 -0.0607 -0.485
0.0802 0.0103 -0.620
0.0104 0.0847 -0.209
0.00470 -0.00960  0.813
0.0426 0.0549  0.719
0.0819 -0.0224 -0.102
-0.00968  0.157  0.739
 0.292 -0.0990 -0.214
-0.0746 -0.0717 -0.239
-0.381 0.00327 -0.0676
0.0545 -0.0144  0.675
-0.151 -0.0553 -0.149
0.00417 -0.0877 -0.262
-0.0794 0.00317 -0.0927
0.0801 0.0150 -0.0332
-0.383 -0.0180 0.0220
-0.000148  0.121  0.848
-0.0554 -0.0633 -0.382
0.0189 0.0825 -0.476
 0.218 -0.0530 -0.273
-0.566 0.0210  0.119
-0.230 -0.119 -0.225
-0.0284 -0.0819  0.232
-0.0467 -0.0696  0.441
 0.203 -0.0238 -0.0167
0.0794 0.0189 -0.771
-0.00225 -0.0710  0.531
-0.0744 -0.0599 0.0790
-0.198 -0.0462 -0.0254
0.0159 -0.0860  0.124
 0.222 -0.0106 -0.161
0.0560 -0.0633  0.400
0.0479 0.0709  0.206
-0.0764 0.0288 -0.485
-0.0300 0.0790 0.0238
-0.118 -0.0329 -0.0464
0.0802 0.0103 -0.271
-0.284 -0.0249 0.0563
-0.254 -0.00538 -0.114
-0.268 -0.116 -0.281
0.0743 0.00327  0.564
-0.0743 -0.0307  0.329
-0.0788 0.0189 -0.162
-0.277 -0.0499 -0.165
-0.0503 -0.0683 -0.594
0.0346 -0.0662 -0.863
 0.285 -0.0562 -0.276
-0.0154 -0.0860 -0.665
 0.156 -0.0552 -0.108
-0.0695 0.0476  0.379
0.00868  0.252  0.803
-0.0430 -0.00184 -0.934
-0.509 0.0216 0.0815
 0.240 0.0453  0.870
0.0565 0.0645 0.0768
-0.0565 0.00396  0.707
0.0159 -0.0860 -0.776
 0.133 -0.0441 0.0120
0.0535 0.0665  0.402
-0.0771 -0.0176  0.188
-0.0796 0.00848 -0.697
0.0603 -0.0816 -0.230
-0.274 -0.0517 -0.287
0.0453 -0.0731 -0.548
-0.148 0.0257  0.781
 0.445 -7.07e-05  0.110
0.0718 0.0442 -0.532
-0.0794 0.00317 -0.268
0.0645 -0.0519 -0.638
-0.0687 0.0315  0.633
-0.0297 0.0793 -0.304
0.0456 -0.000857  0.754
0.0760 -0.0270  0.204
-0.0777 0.0188  0.495
-0.0932 -0.0668 -0.171
-0.0687 -0.0144  0.568
0.0185 0.0833 -0.147
0.000221 -0.0434  0.665
0.0906 -0.0176 -0.188
0.0113  0.106  0.704
0.00429  0.351  0.877
-0.293 0.0509  0.884
-0.0247 0.0419  0.828
0.00501 0.0832  0.505
0.0578 -0.0795 0.0713
 0.143 0.0260  0.792
0.0536 -0.0661 -0.357
-0.207 -0.0437 -0.130
-0.0796 0.00848 0.0503
0.0568 0.0647  0.278
-0.248 -0.0136 -0.0288
-0.00563  0.157  0.799
0.0729 0.00848 -0.840
-0.171 -0.0344 -0.221
-0.0794 0.00317 -0.607
0.0640 0.0567 -0.667
 0.283 -0.0533 -0.169
-0.00485 0.0848  0.432
-0.0351 0.0548  0.738
0.0215 -0.0866 -0.0133
0.0671 -0.0485 -0.744
-0.0725 -0.0231 -0.813
-0.0384 0.0627 -0.860
 0.195 -0.0304 -0.207
 0.161 -0.110 -0.0235
-0.236 -0.0358 -0.236
 0.220 -0.0777 -0.154
 0.392 -0.0159 -0.0237
-0.0682 -0.0452 -0.508
-0.0682 -0.0452 -0.709
-0.162 -0.110 -0.0185
0.0959 -0.0652 -0.0661
-0.0561 0.0646 0.0768
-0.305 -0.0297 -0.0600
-0.0367 -0.0857 -0.0715
-0.0204 -0.0567  0.590
-0.0796 0.00848 -0.405
0.0243 0.0166 -0.949
 0.551 0.0301  0.106
0.0453 -0.0731  0.336
-0.0476 -0.0707  0.287
-0.0561 0.0646 -0.188
0.0477 0.0708 -0.0433
 0.497 -0.00616  0.141
0.0720 0.0392  0.516
0.0117 -0.0871 -0.125
0.0370 0.0449  0.783
-0.0385 -0.0769 -0.472
 0.614 0.0328  0.119
-0.0676 0.0509 -0.559
0.0188 0.0829 -0.791
-0.137 -0.0584 -0.0928
-0.661 0.0546  0.199
-0.0796 0.00848  0.442
0.0131 0.0881  0.649
 0.692 0.0653  0.151
0.0825 0.0251  0.700
0.0280 -0.0453 -0.929
-0.0446 -0.0730  0.386
-0.0657 0.0539 -0.0605
0.0688 -0.00331  0.617
 0.260 -0.00508 -0.0928
-0.211 -0.0677 -0.200
 0.530 0.0289 0.0450
0.0257 0.0311  0.841
-0.00987 0.0846  0.321
-0.0778 0.0239 -0.215
0.0482 -0.0546  0.532
0.0756 -0.0273  0.289
0.0664 0.0540 -0.157
 0.291 0.0498  0.884
-0.118 -0.0177 -0.131
0.0434 0.0464 -0.885
-0.403 0.00916 -0.0185
-0.128 -0.0364 -0.252
-0.0154 -0.0860 -0.718
-0.0635 0.0568  0.162
0.00117  0.199  0.695
-0.0302 -0.0108  0.770
 0.185 -0.0489 -0.0610
-0.0219 0.0820 -0.580
0.0759 0.0332 0.0393
-0.0257 0.0812 -0.750
-0.459 -0.00312 0.0147
0.0787 -0.0125 -0.485
0.0152 0.0836 -0.0874
-0.336 -0.0118 0.0427
-0.292 -0.0962 -0.183
 0.212 0.0357  0.824
-0.113 -0.113 -0.0558
-0.0558 -0.0821 0.0308
-0.196 0.0341  0.824
-0.00556  0.274  0.855
 0.260 -0.0486 -0.0637
-0.0898 0.0294  0.744
-0.403 -0.00852 0.0960
-0.0761 -0.0226  0.114
0.0538 0.0669 -0.345
 0.186 -0.0112 -0.125
-0.0201 -0.0849  0.177
0.0320 -0.0861 -0.183
0.00551 -0.0867  0.411
 0.257 -0.0344 -0.00250
 0.711 0.0738  0.201
-0.0260 0.0807  0.215
0.0116 -0.0869 -0.495
-0.0436 0.0720 -0.379
-0.262 -0.0750 -0.124
 0.395 -0.00931 0.0934
-0.0493 0.0682  0.516
0.0635 -0.0799 -0.113
0.0345 0.0781 -0.524
0.00881  0.205  0.787
 0.111 -0.0584 -0.209
-0.652 0.0543  0.146
-0.164 -0.0133 -0.172
-0.0323 -0.0807  0.107
0.0478 0.0708 -0.430
-0.175 -0.0464 0.0191
 0.262 -0.0579 -0.124
 0.472 -0.00135 0.0503
0.0801 0.0150  0.369
-0.0301 0.0793 -0.469
-0.00488 0.0851 -0.262
-0.0371 0.0757  0.124
0.0641 -0.0509  0.447
0.0343 0.0776  0.128
-0.0551 -0.0372 -0.881
0.0796 0.0189  0.183
 0.313 -0.0271 -0.0820
-0.0200 0.0786  0.564
-0.457 0.00406  0.107
0.0961 0.0195  0.771
-0.0779 -0.0340 0.0184
0.0642 0.0569 -0.614
 0.255 -0.122 -0.194
0.00569 0.0771 -0.839
-0.0657 0.0539 -0.659
0.0787 -0.0125 -0.326
-0.0519 -0.0835 -0.151
 0.620 0.0414  0.166
-0.102 0.0304  0.828
0.0801 0.0150  0.110
-0.00356  0.305  0.893
0.0356 0.0733  0.601
 0.224 -0.0127 -0.0586
-0.212 -0.0439 -0.0716
 0.334 -0.0262 -0.0292
0.000260 0.0853 -0.341
0.0784 0.0239  0.294
0.0772 0.0289 -0.405
-0.0427 -0.0752 -0.322
0.0671 -0.0485 -0.591
-0.0796 0.00848 -0.315
 0.116 -0.140 -0.0726
-0.0589 0.0621  0.268
0.0568 0.0648 -0.246
 0.456 0.0171 0.00800
0.0392 -0.0402  0.638
0.0592 0.0619 -0.773
-0.00396 -0.0876  0.295
-0.0405 0.0697  0.633
0.0904 -0.0207 -0.235
-0.0621 -0.0548  0.213
-0.143 -0.0710 -0.0378
-0.00396 -0.0876 -0.383
 0.111 -0.0639 -0.119
 0.321 -0.0238 0.0473
-0.249 0.0409  0.798
-0.614 0.0328  0.124
0.0683 0.0412  0.592
-0.0736 0.0230 -0.819
0.0702 0.0478 -0.306
 0.174 -0.0497 -0.151
-0.0873 -0.0663 -0.0568
 0.174 0.0286  0.755
-0.000648  0.215  0.885
0.0736 -0.0340 -0.691
-0.0152 -0.0429 -0.951
0.0796 0.0189 -0.130
-0.0175 -0.0880 -0.874
-0.0998 -0.0612 -0.0134
-0.0401 -0.0822 -0.271
-0.0185 0.0828 -0.421
-0.0531 0.0668 -0.0133
-0.0475 -0.0241  0.671
-0.0676 0.0509 -0.755
0.0792 -0.0127 0.00260
-0.0712 0.0441 -0.289
0.0483 -0.0708 -0.437
 0.134 -0.0699 -0.0355
-0.0376 -0.0708  0.486
-0.265 -0.0268 -0.204
0.0950 -0.0571 0.0325
-0.0600 -0.0577 -0.552
 0.365 -0.00764 0.0525
0.0159 -0.0860  0.241
-0.268 -0.0188 0.0149
0.0479 -0.0809 -0.273
0.0779 -0.0177 -0.374
-0.0185 0.0830 -0.172
0.0784 0.0239  0.458
 0.296 -0.0128 0.00498
-0.0902 -0.0491 -0.274
-0.0894 0.0192  0.682
0.0644 -0.0359 -0.845
-0.000202 0.0786  0.830
 0.251 0.0402  0.803
0.0102 -0.0814 -0.829
-0.360 0.00199 -0.0129
 0.117 0.0276  0.829
 0.211 -0.0998 -0.255
 0.153 -0.0473 -0.203
0.0668 -0.0483  0.241
-0.238 -0.00921 -0.0718
-0.0728 0.0404 -0.124
 0.167 -0.0499 -0.0160
-0.0418 -0.0749 -0.422
-0.0790 -0.00204 -0.363
-0.0416 0.0344 -0.904
0.00455 -0.0877 -0.553
 0.120 -0.0614 -0.162
-0.0340 0.0471  0.781
 0.400 -0.00223 -0.0730
0.0498 -0.0618  0.490
 0.138 -0.0156 -0.120
-0.243 -0.0886 -0.257
-0.0409 -0.0571  0.543
0.0434 -0.0761 -0.315
 0.291 -0.0983 -0.257
 0.265 -0.00911 -0.145
-0.0731 -0.0342 -0.750
0.0568 0.0648 -0.485
-0.0201 -0.0849 -0.623
-0.0796 0.00848 -0.0503
-0.0794 0.00317 -0.654
0.0759 0.0332 -0.581
0.0225 0.0817 0.0468
-0.339 0.000617 -0.0714
-0.0568 -0.0599 -0.799
-0.219 -0.107 -0.184
0.0510 -0.0684  0.141
-0.106 -0.0593 -0.210
-0.0728 -0.0334  0.442
0.0308 0.0797  0.310
-0.289 -0.0291 -0.106
-0.0712 0.0441  0.421
 0.397 -0.0155 0.0185
0.0596 -0.0810 0.0291
-0.0146 0.0836 -0.697
-0.164 -0.0257 -0.0403
 0.260 -0.124 -0.241
-0.00197 -0.00233  0.854
0.0206 0.0689  0.686
0.0798 -0.0234 -0.0504
-0.272 -0.119 -0.217
0.0262 0.0813  0.363
-0.0439 0.0726  0.342
0.0793 -0.00734 -0.660
-0.607 0.0335 0.0832
-0.00926  0.125  0.644
-0.0163 0.0126 -0.962
0.0411 0.0748 -0.183
 0.620 0.0457 0.0803
-0.0441 0.0729  0.400
0.0702 0.0478 -0.714
-0.212 -0.00891 -0.109
-0.159 -0.0132 -0.130
0.0378 -0.0221  0.712
-0.0529 -0.0660  0.329
0.0527 -0.0837 -0.0450
 0.532 0.0155  0.141
-0.259 -0.0136 -0.160
 0.126 -0.108 -0.0501
-0.00486 0.0851 -0.617
-0.0111  0.143  0.701
0.0993 -0.0173 -0.148
 0.228 -0.00793 -0.119
 0.191 -0.0140 -0.0822
-0.0372 0.0759 -0.0874
-0.115 -0.0245 -0.0862
 0.419 0.0119 -0.00798
-0.375 -0.00842 0.0668
-0.0746 -0.00508  0.529
-0.0682 -0.0452  0.366
0.0437 0.0719  0.509
 0.228 -0.0453 -0.188
0.000252 0.0843 -0.00222
-0.0796 0.00848  0.268
-0.0297 0.0793 -0.215
-0.0156 -0.0869 0.0132
-0.0145 -0.137 -0.838
-0.0794 0.0138  0.156
0.0742 -0.0498 0.0926
0.0425 -0.0749 -0.395
 0.108 -0.0394 -0.0266
 0.293 -0.0631 -0.232
0.0154 0.0839  0.225
-0.227 -0.0785 -0.143
-0.226 -0.0240 0.00416
-0.0835 -0.0179 -0.176
-0.0339 0.0778 -0.660
0.00850  0.125  0.755
0.00436  0.120  0.808
-0.702 0.0731  0.213
-0.555 0.0343 0.0834
-0.0676 0.0509 -0.517
 0.657 0.0463  0.151
-0.0796 0.00848  0.326
0.0380 0.0766 -0.690
-0.544 0.0258 0.0259
-0.0725 0.0189  0.596
-0.0785 -0.00734 -0.501
 0.344 -0.0141 -0.107
0.00526 -0.0524  0.622
-0.528 0.0147  0.140
0.0800 0.0103 -0.0800
0.0373 0.00995  0.803
-0.0591 -0.0812 -0.195
0.00801 0.0775  0.739
 0.224 -0.0330 0.0384
-0.494 -0.0106 0.0981
-0.292 -0.0861 -0.272
 0.109 -0.0404 -0.263
-0.0731 -0.0342 -0.406
-0.0550 0.0122  0.746
 0.225 -0.0455 -0.236
 0.122 -0.0175 -0.213
0.0471 -0.0440 -0.892
0.0210 -0.0850 0.0821
-0.0728 0.0404 0.0296
-0.189 -0.0414 -0.181
-0.0787 -0.00734 -0.130
 0.180 0.0307  0.803
-0.00515  0.231  0.840
-0.0315 -0.0861 -0.225
 0.212 -0.0424 -0.135
0.0713 0.0389 -0.808
-0.0845 -0.0190 -0.225
-0.0503 -0.0683 -0.684
-0.00390  0.289  0.798
-0.0731 -0.0342 -0.612
-0.280 -0.0326 -0.0186
0.0799 -0.00145 -0.738
-0.149 -0.134 -0.0464
-0.0445 -0.0819 0.0673
-0.0304 0.00464  0.817
0.0661 0.0538 -0.0137
-0.420 0.00494 -0.0564
-0.476 -0.000169 0.0662
0.0290 -0.0820 -0.644
-0.0794 0.00317  0.220
-0.247 -0.0434 -0.109
0.0719 0.0442  0.426
0.0798 0.00504 -0.435
-0.418 -0.0114 0.0344
0.0103 -0.0172  0.776
-0.234 -0.0471 -0.163
-0.0315 -0.0861 -0.119
 0.256 -0.0750 -0.260
-0.281 -0.00341 -0.0716
-0.135 -0.0556 -0.186
0.0154 0.0839  0.464
0.0664 0.0540 -0.379
-0.307 -0.0274 0.0237
 0.237 -0.113 -0.161
 0.286 -0.105 -0.176
 0.355 0.00268 -0.0398
-0.125 -0.107 -0.0135
-0.488 0.0135 -0.0135
-0.249 0.0474  0.835
0.0787 -0.0125 -0.586
-0.0209 -0.0866 -0.0239
-0.0641 0.0256  0.828
-0.217 -0.00901 -0.146
-0.0794 -0.0285 -0.0450
0.0745 -0.0313  0.405
-0.0712 0.0441 -0.379
 0.469 0.00740 -0.0256
0.0802 0.0103 -0.520
0.0681 0.0189  0.654
-8.33e-05  0.155  0.862
-0.343 -0.0244 -0.0443
-0.0762 -0.0229 0.0767
0.0708 0.0389  0.553
-0.0764 0.0288 0.0821
-0.0439 0.0726  0.305
-0.210 -0.0623 -0.241
-0.148 0.0248  0.744
0.0480 0.0710  0.243
0.0358 -0.0789  0.374
0.0775 -0.0176 -0.776
-0.0612 0.0597 -0.463
0.0317 0.0349 -0.918
0.0131 0.0666 -0.875
 0.158 -0.138 -0.0478
0.0786 -0.0124  0.464
-0.00944  0.199  0.739
-0.0211 -0.0336  0.696
0.0702 0.0478  0.223
-0.0385 0.0722  0.597
-0.0702 -0.0424 -0.351
-0.116 -0.0633 -0.140
0.0583 0.0465  0.678
-0.00507  0.258  0.769
0.0182 0.0827  0.403
-0.0284 -0.0819 -0.568
 0.154 -0.0188 -0.0822
0.0626 -0.0550  0.310
-0.146 -0.0390 -0.000210
-0.272 -0.0436 -0.251
-0.202 -0.0170 -0.0465
 0.158 -0.141 -0.00539
 0.171 -0.0388 0.0212
-0.0668 -0.0732 -0.294
-0.0751 0.0331 -0.723
-0.00616 0.0362 -0.935
 0.143 -0.0567 -0.0716
-0.106 0.0316  0.792
0.0608 -0.0577  0.193
-0.576 0.0293  0.153
-0.0335 -0.0875 -0.363
-0.178 -0.0506 -0.0857
0.0786 0.0240 -0.172
0.0800 0.0104 0.0736
-0.0439 0.0726 -0.342
0.0258 -0.0271 -0.959
 0.538 0.0129 0.0768
-0.363 -0.00764 -0.0965
-0.232 -0.0446 -0.274
-0.0550 0.0391  0.712
-0.154 -0.142 -0.00530
-0.0156 -0.0869 -0.151
-0.0785 -0.00734  0.358
-0.0529 -0.0660 -0.630
0.0508 0.0692  0.170
0.0164 -0.0752  0.501
0.0802 0.00504  0.328
0.0904 0.0287  0.734
-0.0118  0.109  0.675
 0.128 -0.110 -0.00347
-0.478 0.0196 0.0340
-0.00485 0.0851 -0.532
 0.280 -0.0300 -0.114
0.0758 -0.0270 -0.453
-0.0731 -0.0342  0.156
 0.430 0.00356 0.0760
0.0734 -0.0348 -0.511
 0.105 -0.0284 -0.0740
0.0646 -0.0518  0.368
-0.190 -0.0529 0.0515
-0.0153 -0.0856 -0.792
-0.0740 0.0370 -0.590
-0.0636 -0.0356 -0.847
-0.0370 -0.0176  0.732
0.00611 0.0568  0.793
-0.0790 -0.00204 -0.464
0.0346 0.0782  0.435
-0.349 -0.0262 0.0142
 0.197 0.0405  0.862
0.0290 -0.0820 -0.464
0.0681 -0.0269  0.538
0.0507 -0.0683 -0.776
 0.483 0.00926  0.113
-0.0417 -0.0347 -0.921
-0.0644 0.00376  0.660
0.0562 -0.0634 -0.675
-0.117 -0.0160 -0.167
-0.256 -0.0439 -0.0454
-0.0761 -0.0226 -0.580
0.0424 -0.0851 -0.140
0.0267 -0.0863 -0.236
-0.282 -0.0943 -0.150
 0.266 -0.0392 -0.249
0.0383 -0.0763  0.426
 0.255 0.0480  0.840
 0.164 -0.0154 -0.198
-0.534 0.0125  0.103
-0.0788 0.0189  0.395
-0.0619 -0.0546  0.409
-0.0712 0.0392  0.522
0.0214 -0.0866 0.0291
-0.136 0.0342  0.814
 0.254 -0.0442 -0.285
0.0642 0.0269  0.760
-0.0788 -0.0126 -0.00797
-0.0118 0.0684  0.713
0.0633 -0.0235  0.590
-0.0779 -0.0124  0.299
0.0742 0.0366 -0.0585
-0.259 0.0447  0.867
0.0191 0.0832  0.192
-0.231 -0.110 -0.281
-0.0777 -0.0124  0.469
0.0304 0.0788 0.0927
-0.0788 0.0189 -0.522
-0.429 0.0128 0.0132
0.000475 -0.0879 -0.215
-0.137 -0.0471 -0.219
 0.250 -0.0134 -0.0296
-0.0111 -0.0868 -0.305
0.0761 -0.0696 -0.257
0.0744 -0.0152 -0.816
-0.0788 0.0189 -0.437
-0.378 -0.0178 -0.0418
-0.000374  0.309  0.926
0.0358 -0.0789 -0.517
-0.0764 0.0288 -0.633
0.0635 -0.0799 -0.0764
 0.228 -0.0402 -0.0399
-0.0704 0.0433 -0.792
-0.0374 0.0764  0.246
-0.0157 0.0831  0.479
 0.239 -0.0455 -0.157
 0.313 -0.00125 -0.0610
-0.0499 -0.0417  0.587
 0.294 -0.0669 -0.199
0.0453 -0.0731 -0.739
-0.252 -0.0292 0.0462
-0.0284 -0.0819  0.142
0.0787 -0.0125  0.257
0.0725 -0.0493 -0.336
-0.0440 0.0728  0.188
0.0802 0.0103 -0.223
 0.255 -0.0230 -0.185
-0.0585 -0.00557 -0.895
0.0802 0.0103  0.143
-0.0621 -0.0548 -0.465
-0.0712 0.0441 -0.691
0.0668 -0.0483 -0.543
0.0253 -0.0834  0.310
0.0159 -0.0860 -0.676
0.0509 -0.0684 -0.612
-0.210 -0.0961 -0.236
-0.0728 0.0404  0.464
-0.310 -0.00194 -0.0432
0.0699 0.0476  0.483
-0.0608 0.0491 -0.834
0.00357  0.247  0.871
-0.121 -0.143 -0.0657
0.0197 -0.0645 -0.892
-0.309 -0.00184 -0.0873
 0.377 0.00366 0.00206
 0.191 -0.0485 -0.103
0.0227 0.0823  0.158
0.0106  0.167  0.702
-0.00631  0.311  0.855
-0.0751 0.0331  0.247
-0.0111 -0.0868 -0.750
-0.682 0.0615  0.134
-0.0702 -0.0545  0.113
-0.0627 0.0512  0.601
0.0207 -0.0850 -0.294
0.0153 0.0815  0.577
-0.00753 -0.0874  0.207
0.00807 -0.0874  0.156
-0.0728 0.0404  0.347
0.0779 -0.0177 0.0927
-0.185 0.0370  0.855
-0.123 -0.0601 -0.0627
0.0595 0.0623 0.0380
-0.0255 0.0805 0.0556
 0.488 0.0217 0.0291
0.0409 0.0748 -0.220
 0.291 -0.0320 -0.0557
0.0734 0.0398 -0.501
 0.192 -0.0184 -0.0505
-0.0649 -0.0467  0.476
-0.0608 0.0393  0.675
0.0132 -0.0347  0.696
-0.0589 0.0621 -0.315
-0.0755 -0.0225 -0.781
0.0104 0.0847 -0.760
0.0595 0.0622 -0.741
 0.181 -0.0115 -0.156
-0.0533 0.0382 -0.874
0.0747 -0.0314  0.172
-0.0621 -0.0548  0.181
 0.120 0.0239  0.703
0.0478 0.0708 -0.0751
-0.0728 0.0404 -0.0923
-0.280 -0.00695 -0.132
0.0759 0.0332 -0.649
0.0811 -0.0223 -0.266
-0.122 0.0326  0.760
-0.0110 -0.0868  0.384
0.0595 0.0622 -0.555
-0.0843 -0.0693 -0.140
0.0796 0.0189 -0.315
 0.210 -0.0670 -0.215
-0.0155 0.0833 -0.792
0.0645 0.0391 -0.845
-0.0148 0.0836 -0.384
 0.438 -0.00783 0.0133
-0.294 -0.0668 -0.193
 0.284 -0.0767 -0.146
-0.0133 0.0774  0.671
 0.582 0.0399 0.0926
-0.00996 0.0596  0.765
0.0346 0.0782 -0.264
0.0595 0.0623  0.117
 0.466 -0.00105 0.0873
 0.228 -0.0253 0.00752
0.0308 0.0797  0.268
-0.520 0.0265 0.0450
-0.178 0.0291  0.773
0.0205 0.0793  0.532
 0.490 0.0194 0.0658
 0.210 -0.0812 -0.183
0.0227 0.0823 -0.631
 0.409 0.00926 -0.0389
 0.351 -0.0307 0.0296
-0.153 -0.0544 -0.0663
-0.0307 -0.0796  0.416
 0.313 -0.00312 -0.0293
0.0308 -0.0793 -0.802
0.0668 -0.0483 -0.379
0.0358 0.0532  0.749
-0.0182 0.0237  0.865
0.0477 0.0710 -0.139
-0.0635 0.0568  0.120
0.00546  0.178  0.819
 0.249 -0.0869 -0.126
-0.0418 -0.0748  0.197
0.0152 0.0833 -0.0292
-0.408 0.000519 0.0657
 0.201 -0.0425 0.00767
-0.271 -0.119 -0.185
-0.277 -0.0338 -0.0732
-0.0695 0.0476 -0.156
-0.0340 0.0778 -0.267
-0.0843 0.0152  0.713
0.0736 0.0405  0.269
0.0290 -0.0820 -0.368
 0.102 -0.0469 0.00225
-0.0660 -0.0782 -0.0751
 0.170 -0.0293 -0.224
-0.253 -0.125 -0.246
 0.584 0.0369  0.124
-0.00978 0.0842  0.135
0.000471 0.0853 -0.500
0.0731 0.0397 -0.252
 0.201 -0.0394 -0.176
-0.0771 -0.0176 -0.718
 0.261 -0.00724 -0.0585
-0.435 -0.00685 -0.00906
 0.283 -0.0919 -0.286
0.0642 0.0569  0.308
0.0290 -0.0351  0.669
-0.0578 -0.0606  0.260
0.00804  0.279  0.824
0.0621 -0.0230 -0.877
-0.0751 0.0183  0.548
-0.169 0.0296  0.802
0.0759 0.0332  0.341
-0.0319 -0.0804  0.313
-0.0948 -0.0588 0.0183
-0.277 -0.00714 -0.0420
-0.0166 0.0788  0.617
0.0632 0.0111  0.718
0.0437 -0.0198 -0.931
0.0759 0.0332 -0.745
0.0397 -0.0777  0.108
-0.238 -0.0382 -0.202
0.0104 0.0847  0.289
0.0784 -0.0340 0.0237
-0.0731 -0.0342 -0.681
-0.0102 -0.0644  0.559
0.00990  0.173  0.755
 0.302 -0.0300 -0.0187
-0.270 -0.0763 -0.255
-0.0728 0.0404 -0.251
0.0727 -0.0741 -0.204
0.0403 -0.0696 -0.834
0.0585 0.0208 -0.885
 0.143 0.0342  0.755
-0.353 -0.0280 0.0608
-0.0223 -0.0157 -0.969
 0.567 0.0281 0.0390
 0.106 -0.0197 -0.120
 0.406 -0.0127 0.0529
0.000585 -0.103 -0.848
0.0104 0.0847 -0.713
-0.185 -0.0186 -0.200
 0.148 -0.0566 -0.140
 0.522 0.0199  0.114
-0.0726 -0.00194 -0.834
-0.0650 -0.0308  0.539
-0.0473 0.0709 -0.771
-0.0502 -0.0683 -0.510
0.0548 -0.0430  0.559
-0.00753 -0.0874 -0.588
-0.0339 0.0780 -0.607
0.0425 -0.0749  0.236
 0.262 -0.0492 -0.0930
 0.218 -0.0869 -0.281
-0.0621 -0.0548 -0.428
-0.293 0.0482  0.852
0.0475 -0.0843 0.00258
-0.0501 0.0690 -0.739
-0.327 -0.0243 -0.0814
0.0736 0.0405 0.0675
-0.0244 -0.0835 -0.448
0.0337 0.0724  0.635
0.0845 -0.0679 -0.0929
0.0802 0.0103 -0.467
 0.146 0.0291  0.821
-0.0743 -0.0307 -0.476
-0.0801 -0.0258 -0.0895
-0.672 0.0529  0.167
0.0620 0.0597  0.375
-0.00814  0.183  0.776
0.0111  0.136  0.718
 0.323 -0.0260 0.0184
 0.197 -0.0496 -0.0344
0.0765 -0.0225 -0.718
-0.180 -0.0490 -0.141
0.000530 0.0446  0.845
-0.0354 -0.0582 -0.882
 0.634 0.0516  0.109
-0.185 -0.0104 -0.140
 0.567 0.0210 0.0769
0.00319  0.146  0.834
-0.0391 0.0728  0.543
-0.0437 -0.0612  0.513
 0.154 0.0284  0.727
 0.537 0.0220 0.0179
-0.244 -0.121 -0.194
-0.00328  0.332  0.908
 0.231 -0.119 -0.218
0.0391 0.0623 -0.862
-0.145 -0.103 -0.0404
-0.0470 0.0703 -0.0451
-0.0530 0.0665  0.215
-0.0302 -0.0470  0.627
-0.0440 0.0726  0.437
-0.392 -0.0165 -0.0132
-0.0247 0.0602 -0.886
0.0177 -0.0885 -0.869
 0.217 -0.0429 -0.0663
0.0680 -0.0423  0.479
-0.0794 0.0138  0.193
0.0478 0.0708 -0.393
-0.639 0.0467  0.175
-0.0752 -0.0270  0.232
0.0683 0.0511  0.195
-0.0751 0.0331  0.284
0.0133 -0.0603  0.577
-0.100 -0.0645 -0.0822
0.000402 -0.0564 -0.928
0.0785 0.0136  0.506
-0.0765 -0.0445 0.0449
0.0345 0.0781 -0.661
0.0227 0.0823 -0.324
 0.258 -0.0405 -0.0334
-0.0748 -0.0158  0.497
0.000644  0.189  0.875
-0.281 -0.114 -0.243
-0.0309 0.0731 -0.834
0.0769 -0.0227 -0.612
 0.231 -0.120 -0.266
-0.0351 -0.0788 -0.395
 0.281 -0.0303 0.0235
-0.0788 0.0189 -0.559
0.0802 0.0103 -0.551
0.0280 0.0773 -0.817
-0.0154 -0.0860  0.257
0.0642 0.0268  0.792
-0.00906  0.210  0.765
-0.0690 0.0471  0.495
-0.0503 -0.0683 -0.351
-0.00995  0.178  0.718
-0.430 0.000715 0.0922
-0.557 0.0196 0.0593
-0.0300 0.0790 -0.0239
0.0761 -0.0224  0.432
0.0801 0.0150 -0.00143
-0.0312 0.0233 -0.931
-0.502 0.0128  0.121
 0.698 0.0727  0.228
0.0104 0.0847 -0.570
 0.352 -0.0236 -0.00777
0.0358 -0.0789  0.162
0.0207 -0.0850 -0.744
0.0596 0.0622 -0.587
-0.225 -0.0398 -0.0251
-0.0628 -0.0799 -0.125
-0.0751 0.0331 -0.0340
0.0309 -0.0504  0.611
-0.0838 -0.0252 -0.262
-0.199 -0.0282 -0.000563
 0.145 -0.0549 -0.172
0.0680 0.0509 -0.419
-0.388 -0.00125 0.0434
 0.137 0.0332  0.847
0.00457 -0.0877 -0.0982
-0.349 0.00248 -0.0451
0.0424 -0.0851 -0.209
-0.196 -0.0122 -0.175
0.0666 -0.0482 -0.437
 0.281 -0.0327 -0.0821
-0.223 -0.116 -0.252
 0.170 -0.0252 -0.0349
-0.0440 0.0728  0.151
-0.170 -0.0307 -0.0138
-0.326 -0.0188 0.0676
0.0539 -0.0301  0.617
-0.0476 -0.0707 -0.656
 0.515 0.00848 0.0342
0.0167 0.0155  0.868
-0.0154 -0.0860 -0.490
-0.150 -0.0227 -0.0636
-0.0532 0.0668 -0.586
-0.106 -0.0761 -0.0394
-0.225 -0.103 -0.156
-0.684 0.0653  0.188
-0.126 -0.0575 -0.0188
0.0255 -0.0185  0.749
0.0737 -0.0709 0.0502
0.0620 0.0597 -0.192
0.0116 -0.0869 -0.410
-0.0480 0.0299  0.765
0.0238 0.00101  0.829
0.0121  0.119  0.660
-0.0728 0.0404 -0.182
0.0308 0.0796 -0.352
 0.110 -0.0506 -0.238
-0.392 0.00573 0.0128
-0.00562  0.123  0.783
 0.370 -0.0194 -0.0448
-0.0144 -0.123 -0.862
-0.0222 0.0823 -0.241
 0.371 -0.0152 0.0814
0.0169 0.00396 -0.972
0.00717  0.221  0.818
-0.0124 0.0984  0.649
-0.000606 -0.0878 0.0982
-0.0786 -0.00744 0.0238
 0.445 -0.00626 0.0503
-0.0771 -0.0176 -0.331
 0.117 -0.0152 -0.183
0.0786 0.0240  0.209
0.0759 0.0332  0.389
-0.0794 0.0138 -0.188
0.0643 0.00828  0.686
-0.0554 -0.0633 -0.732
 0.243 -0.0401 -0.116
-0.0128 0.0719 -0.858
-0.0418 -0.0749 -0.709
-0.0622 -0.0218  0.600
0.0259 -0.0686  0.527
 0.115 -0.133 -0.0465
-0.481 0.0125 0.0935
-0.132 -0.0598 -0.119
-0.212 -0.0442 -0.0985
 0.684 0.0654  0.199
 0.117 0.0323  0.760
-0.310 -0.0291 -0.0336
-0.460 -0.00351 0.0450
-0.0104 -0.0761  0.500
-0.178 -0.0510 -0.113
-0.222 0.0372  0.829
0.0760 0.00366  0.537
0.0476 0.0704 -0.796
 0.375 -0.00714 -0.0892
0.0795 -0.00744 -0.125
-0.0771 -0.0176 -0.633
-0.126 -0.128 -0.0338
-0.00672  0.172  0.681
-0.0695 0.0477 -0.405
0.0723 -0.0383 -0.665
-0.00692 0.0987  0.755
-0.0256 0.0810 -0.554
0.0802 -0.0701 -0.135
-0.0222 0.0822 -0.723
-0.0785 -0.00734 -0.432
 0.377 0.00455 -0.0600
-0.0676 0.0509 0.00263
0.0745 -0.0311  0.315
-0.0743 -0.0307 -0.529
0.0104 0.0847  0.342
0.0758 -0.0278  0.379
 0.425 -0.00793 -0.0264
-0.0339 0.0780  0.273
 0.117 0.0330  0.803
0.0324 -0.0803  0.400
 0.676 0.0571  0.130
0.0412 0.0748 -0.464
 0.116 -0.114 -0.0773
-0.00467 -0.0838  0.458
0.000252 0.0843 0.0614
0.00393 0.0933  0.803
-0.232 -0.0373 -0.135
-0.361 -0.00488 0.0287
-0.0620 -0.0548 -0.773
-0.203 -0.0121 -0.0839
0.000344  0.149  0.640
-0.0744 -0.0716 -0.00103
 0.596 0.0355  0.156
-0.172 -0.0503 -0.0336
-0.578 0.0386  0.103
-0.0441 0.0729  0.368
0.0779 -0.0177 -0.400
0.0290 -0.0820 -0.342
-0.0712 0.0441  0.188
0.0731 0.0397 -0.278
-0.0301 0.0793 -0.495
-0.0339 0.0780 -0.633
0.0772 0.0289 -0.676
-0.158 -0.0156 -0.198
0.00540 0.0851 -0.235
-0.0780 -0.0126 -0.289
0.0664 0.0540 -0.130
0.0661 0.0538 0.0128
-0.137 -0.0222 -0.228
 0.276 0.0448  0.856
-0.665 0.0534  0.115
0.00944  0.109  0.734
-0.412 -0.0102 -0.0341
-0.0385 -0.0769  0.349
 0.313 -0.00125 -0.0877
-0.0107  0.135  0.670
0.0119 -0.137 -0.838
0.0188 0.0826 -0.450
0.0668 -0.0483  0.268
0.0608 -0.0577  0.167
-0.0371 0.0757 0.0981
 0.557 0.0274  0.135
-0.0794 0.00317  0.416
 0.157 -0.117 0.00344
-0.0485 -0.0566 -0.853
 0.228 -0.00842 -0.0928
-0.0156 -0.0869 -0.0556
0.000284 -0.0877 -0.527
-0.0813 -0.0432 -0.00813
0.00599  0.122  0.619
-0.00481 0.0841 0.0296
 0.133 -0.0561 -0.0131
-0.108 -0.0231 -0.242
0.0215 -0.0865 -0.156
-0.0788 0.0189 -0.347
0.0920 -0.0659 -0.188
-0.0613 0.0596  0.241
 0.334 -0.0254 -0.0555
 0.255 -0.0329 0.0237
0.0634 -0.00764  0.651
0.0766 -0.0226 -0.638
0.0793 -0.00734  0.183
-0.0219 0.0821 -0.146
-0.0785 -0.00734  0.135
-0.0778 0.0239 -0.670
 0.174 -0.0469 -0.177
-0.0252 -0.0414  0.659
-0.456 0.0157 -0.0128
 0.223 0.0446  0.850
 0.311 -0.0237 -0.111
-0.0204 0.0808  0.511
 0.631 0.0498  0.135
-0.302 -0.00400 -0.113
-0.210 -0.0954 -0.267
-0.0209 -0.0866 -0.0927
0.000311 -0.0877 -0.638
-0.117 -0.120 -0.0807
-0.0470 0.0704 0.0450
-0.0474 0.0709 -0.681
0.0562 -0.0634 -0.718
0.00583  0.211  0.718
-0.0684 -0.0606 -0.333
0.0447 0.0730 -0.608
 0.223 -0.0759 -0.258
0.0625 -0.0756 -0.294
0.0341 0.0338  0.812
-0.0200 -0.00813  0.797
0.0225 0.0817 -0.0539
0.0391 -0.0770 -0.490
-0.0439 0.0728 -0.167
-0.293 -0.0955 -0.213
 0.265 -0.0444 -0.146
-0.150 -0.138 -0.0748
 0.284 -0.111 -0.236
-0.0257 0.0812 -0.119
-0.607 0.0404  0.148
-0.0425 0.0256  0.792
0.0471 -0.0693  0.453
 0.471 -0.000562 0.0186
0.0667 -0.0482 -0.776
-0.166 -0.0494 -0.174
-0.354 -0.0199 -0.0758
-0.0529 0.0664  0.490
-0.207 0.0426  0.803
-0.0758 -0.0684 -0.266
 0.138 -0.125 -0.0651
0.0776 -0.0176  0.119
-0.0589 0.0621 0.0238
-0.0699 -0.0418  0.306
0.00806 -0.0874 -0.0349
0.0793 -0.00734 -0.289
 0.145 -0.0496 0.0335
0.0148 0.0839 -0.279
-0.0594 0.0528  0.643
0.0150 0.0571  0.770
 0.278 -0.116 -0.199
0.000379 -0.0238  0.753
-0.00782  0.220  0.797
-0.178 -0.0180 -0.0639
-0.00485 0.0846 -0.103
-0.289 -0.0712 -0.158
 0.243 -0.0533 -0.261
0.0793 -0.00734  0.358
0.0702 0.0478 -0.344
0.0820 -0.0421 -0.0130
-0.113 -0.0508 -0.233
 0.371 -0.00213 0.0259
0.0801 -0.0660 -0.230
 0.320 -0.00773 -0.000671
-0.245 -0.0599 -0.135
0.0620 0.0597  0.444
-0.0695 0.0477 -0.215
 0.157 -0.111 -0.0483
0.0642 0.0569 -0.445
-0.00395 0.0852  0.533
0.0116 -0.0869  0.357
 0.122 -0.0603 -0.0556
 0.353 -0.0280 0.0608
-0.352 -0.0237 -0.0208
-0.291 -0.00872 -0.0185
0.0538 0.0669 -0.510
-0.122 0.0307  0.734
-0.0743 -0.0307 -0.381
-0.00613  0.199  0.813
0.0663 0.0441  0.617
-0.110 -0.0456 0.00308
0.0694 -0.0583  0.116
-0.0570 -0.0379  0.563
-0.287 -0.0536 -0.225
0.0568 0.0648 -0.294
-0.100 0.0200  0.771
 0.223 0.0437  0.803
0.0734 0.0400  0.167
0.00806 -0.0874  0.188
-0.292 -0.0632 -0.251
 0.680 0.0631  0.172
-0.0871 -0.0662 -0.196
-0.0689 0.0268  0.729
 0.216 -0.0241 -0.195
0.0447 0.0730 -0.714
 0.188 0.0405  0.829
-0.192 -0.0566 0.00432
 0.143 -0.130 -0.0304
-0.430 0.0103 0.0390
 0.283 -0.0487 -0.211
3.46e-05  0.281  0.914
 0.285 -0.0227 -0.140
 0.239 -0.0293 -0.204
-0.0728 0.0404  0.146
-0.645 0.0423  0.125
-0.0339 -0.0774 -0.806
0.0489 -0.00616  0.728
 0.124 -0.0606 -0.0873
 0.448 -0.00282 -0.0184
-0.00857 0.0933  0.728
-0.0613 0.0597  0.326
-0.212 -0.0389 0.0176
-0.248 -0.0223 -0.181
-0.0418 -0.0748 -0.545
0.0147 0.0834 -0.686
0.0182 0.0834 -0.185
0.0536 -0.0444 -0.868
-0.0788 0.0189  0.358
-0.266 -0.0383 -0.225
0.0126 0.0676  0.715
-0.00679 -0.0874 -0.238
 0.100 -0.0626 -0.0243
0.0508 0.0692 -0.646
-0.0749 -0.0269  0.417
-0.211 -0.0368 -0.171
0.0424 -0.0851 -0.0874
0.0792 -0.0125 -0.215
-0.0764 0.0288 -0.750
-0.0532 0.0668 -0.538
-0.134 -0.0867 -0.0546
-0.0182 0.0832 -0.326
0.0262 0.0813 -0.125
-0.0684 0.0162  0.765
0.0123 0.0986  0.681
-0.0572 -0.0773 0.0874
 0.268 -0.106 -0.262
0.0342 0.0772  0.483
0.0792 -0.00734 -0.0239
-0.160 -0.0457 0.0375
-0.160 -0.120 0.00336
0.0954 0.0224  0.802
-0.226 -0.0132 -0.0489
-0.247 -0.0970 -0.140
-0.0562 -0.0827 -0.0967
 0.480 0.0199 0.00553
-0.0589 0.0621 -0.0821
 0.142 -0.0867 -0.0505
-0.503 0.00514 0.0399
-0.124 -0.129 0.00445
-0.0617 -0.0490 -0.820
 0.297 -0.0255 0.0499
-0.0751 -0.0682 0.0414
 0.419 0.0108 0.0182
 0.224 -0.113 -0.195
 0.281 -0.00361 -0.0716
 0.276 -0.00498 -0.124
0.0890 0.0278  0.836
 0.419 -0.000660 -0.0592
0.0358 -0.0789 -0.570
-0.0532 0.0668 -0.506
-0.0501 0.0690 -0.294
-0.489 0.0199 0.0642
0.0737 -0.0350 -0.564
-0.0428 -0.0188  0.708
0.0604 -0.0749 0.0946
-0.235 -0.0398 -0.0884
-0.0955 -0.0311 -0.0721
-0.588 0.0408 0.0711
0.0369 -0.0838 0.0606
-0.0676 0.0509 -0.633
-0.241 -0.0343 0.0197
0.0467 0.0131  0.781
0.0563 0.0397  0.707
-0.164 0.0378  0.824
0.0765 -0.0498 0.0607
 0.334 0.000519 -0.0767
-0.00532  0.327  0.883
 0.393 -0.0130 -0.0528
-0.000242 0.0560  0.823
-0.0221 0.0819  0.400
-0.611 0.0467  0.103
-0.0699 -0.0418 -0.568
 0.164 0.0272  0.781
-0.0106  0.114  0.707
-0.479 0.00563  0.121
-0.00486 0.0851 -0.739
0.0617 0.0595 -0.0596
-0.238 -0.0657 -0.254
-0.0788 0.0189 -0.384
0.0527 -0.0836 -0.162
0.00940  0.220  0.755
0.0663 0.0539 -0.692
0.0661 0.0538  0.246
0.0669 -0.0484  0.336
 0.149 -0.0345 -0.0135
 0.128 -0.0147 -0.151
-0.155 -0.0553 -0.111
-0.0560 -0.00606  0.686
0.0759 0.0332  0.124
0.0483 -0.0708 -0.654
0.00632  0.330  0.858
-0.141 -0.0297 -0.0433
-0.00277  0.221  0.861
 0.165 -0.0204 -0.0614
-0.000485  0.237  0.895
0.0307 0.0796 -0.771
 0.207 -0.0868 -0.236
 0.248 -0.0300 0.0463
0.0801 0.0152 0.0250
 0.104 -0.0729 -0.0456
-0.190 -0.0526 -0.0491
-0.110 -0.0616 -0.187
0.0801 0.00504  0.280
-0.264 -0.0444 -0.125
 0.201 0.0323  0.792
0.0109  0.178  0.728
-0.0690 0.0228 -0.847
 0.244 -0.0333 -0.244
-0.0257 0.0812  0.458
 0.554 0.0186 0.0562
0.0308 0.0796 -0.559
-0.370 -0.0206 0.00259
0.0320 -0.0862 -0.0345
-0.339 0.000322 -0.0242
-0.0554 -0.0633  0.359
-0.149 -0.0162 -0.109
0.0536 0.0667  0.147
0.0476 0.0705 -0.0115
-0.0731 -0.0342  0.283
-0.00753 -0.0874  0.318
0.000584 -0.0722 -0.881
0.0304 0.0788 -0.501
0.0260 0.0806 0.0238
-0.138 -0.0157 -0.188
-0.00192  0.104  0.824
-0.106 0.0277  0.713
0.0497 -0.0275  0.654
0.0344 0.0779  0.388
0.0144 0.0825  0.602
-0.254 -0.0409 -0.267
-0.207 -0.0289 -0.199
-0.0261 -0.0858 0.0450
0.0177 0.0563 -0.898
-0.0621 -0.0548 -0.529
0.0797 -0.00145 -0.251
0.0565 0.0596  0.603
 0.649 0.0518  0.172
0.000200 0.0971  0.569
0.0484 0.0209 -0.906
0.0838 0.0181  0.678
 0.132 -0.0512 -0.214
-0.0779 -0.0124 -0.395
-0.0304 -0.0584  0.569
-0.462 0.00995 0.0815
 0.156 -0.0497 0.00811
-0.0351 -0.0788 -0.739
-0.00377 -0.0877 -0.171
 0.143 -0.0147 -0.188
-0.0205 0.0747  0.643
0.00377  0.284  0.887
 0.364 0.00337 -0.0185
-0.402 -0.0147 0.00788
0.0207 -0.0850 -0.321
0.0290 -0.0820 -0.723
-0.0728 0.0404 -0.458
-0.00985 0.0845 -0.442
-0.0185 0.0831  0.299
-0.259 -0.0607 -0.0999
-0.550 0.0183  0.136
0.0702 -0.0417 -0.480
0.0117 -0.0871 0.00749
0.00382 -0.0343 -0.973
-0.0363 -0.0483  0.604
-0.0215 0.00641  0.846
 0.265 0.0483  0.876
-0.0104 -0.0826 -0.846
0.0154 -0.0837  0.437
-0.267 0.0434  0.811
-0.0898 0.0289  0.808
 0.116 0.0223  0.781
-0.591 0.0403  0.121
0.0286 -0.00773  0.786
-0.0317 0.0613  0.704
-0.0636 -0.0201 -0.869
0.00988  0.146  0.744
 0.604 0.0315 0.0875
0.0609 0.0589  0.520
 0.198 0.0349  0.759
-0.0635 0.0568  0.289
 0.267 -0.118 -0.175
-0.0183 0.0832  0.188
-0.0220 0.0816 0.00263
0.0802 0.0103 -0.392
-0.429 0.0129 -0.0185
0.0507 0.0690 -0.110
 0.270 0.0478  0.819
0.00206  0.353  0.902
0.0689 -0.0152 -0.853
0.0554 -0.0520  0.511
0.0357 -0.0789 -0.760
-0.310 -0.0156 -0.132
-0.0764 0.0288 -0.416
 0.164 -0.0533 -0.0875
-0.0694 0.00877  0.634
 0.228 -0.0152 -0.0350
-0.248 -0.0468 -0.289
-0.0764 0.0288 -0.273
 0.514 0.0251 0.0609
0.00890  0.241  0.776
-0.0442 -0.0726 -0.785
-0.0720 -0.0740 -0.167
0.0395 0.0725  0.578
-0.190 0.0312  0.792
-0.0517 0.0137 -0.904
0.0760 -0.0267 -0.427
-0.0374 0.0766 -0.411
0.0538 0.0225  0.828
 0.150 -0.0549 -0.0504
0.0736 0.0405 -0.627
 0.267 -0.0382 -0.197
0.0207 -0.0850 -0.538
-0.337 -0.00734 0.0153
-0.0144 0.0838 -0.670
-0.0751 0.0331 -0.0711
-0.0372 0.0759 -0.448
 0.302 -0.00312 -0.108
-0.100 -0.0414 -0.0241
-0.233 -0.00773 -0.130
-0.323 -0.0266 0.00782
0.00597  0.301  0.873
-0.497 -0.00597 0.0715
-0.206 0.0374  0.845
-0.148 -0.0134 -0.156
0.0544 0.0435 -0.866
-0.132 -0.0357 -0.0236
-0.0367 -0.0857 -0.00798
-0.127 0.0244  0.792
-0.218 -0.0553 -0.182
 0.121 -0.109 -0.0245
-0.382 0.00622 -0.0239
0.0582 -0.0605 -0.411
-0.116 -0.0626 -0.0981
-0.0316 -0.0805 -0.683
0.000260 0.0853 -0.135
-0.0788 0.0189  0.464
0.0380 -0.0666  0.508
-0.0666 -0.0488  0.135
 0.114 -0.0553 0.0211
-0.0558 -0.0827 -0.234
-0.252 -0.0180 -0.000426
0.0438 0.00248 -0.932
 0.467 0.0183 0.0344
-0.0157 0.0812  0.586
0.0526 -0.0829 -0.251
-0.202 -0.0216 -0.0247
-0.0200 0.0486  0.808
0.0759 0.0135 -0.818
 0.159 -0.140 -0.0732
-0.0389 0.00455  0.786
-0.0474 0.0198  0.813
 0.492 -0.00282 0.0697
-0.102 -0.0172 -0.147
-0.150 -0.0493 -0.201
-0.0762 -0.00184 -0.808
 0.217 -0.0391 -0.156
-0.0796 0.00848 0.00793
 0.111 -0.0336 -0.0478
-0.279 -0.0211 -0.149
 0.165 -0.0127 -0.119
-0.433 -0.00872 0.0186
-0.00985 0.0845 -0.771
-0.0695 0.0477 0.0715
-0.227 -0.0407 -0.0557
0.0310 -0.0597  0.564
-0.00381 -0.0877 -0.457
-0.226 -0.0187 -0.0173
0.0616 0.0548  0.566
0.0115  0.143  0.683
 0.107 -0.0235 -0.0977
-0.271 -0.113 -0.163
-0.0740 0.0370 -0.310
 0.246 -0.0990 -0.144
0.0792 -0.00734 -0.172
 0.264 -0.0179 0.0101
 0.264 -0.0187 -0.165
0.0630 -0.00164 -0.883
-0.397 0.00789 -0.0397
0.0716 0.0441 -0.559
0.0796 -0.0126 -0.0821
0.0709 0.0141  0.633
-0.0794 0.0138  0.103
-0.0509 0.0643  0.580
0.0736 0.0403 -0.479
0.0669 -0.0700 -0.315
-0.0485 -0.0709  0.128
-0.0418 -0.0748  0.255
0.0784 -0.0126 0.0291
0.0158 -0.0663  0.546
-0.265 -0.0322 -0.171
0.0786 0.0240  0.432
-0.0692 0.0376  0.585
-0.0730 -0.0391 0.0980
0.0756 0.0328 -0.603
0.0556 -0.0628  0.426
0.0146 0.0825  0.628
-0.0525 -0.0239  0.650
-0.00597  0.253  0.840
0.00783  0.173  0.787
0.0741 -0.0116  0.522
 0.222 -0.0492 -0.210
-0.276 -0.0337 -0.0399
0.0801 0.00504  0.164
 0.276 -0.0331 -0.0133
-0.0150 0.0633  0.739
-0.0385 -0.0769  0.169
0.0793 -0.00734  0.236
0.0786 0.0240 -0.294
 0.244 -0.00901 -0.150
-0.0787 -0.00734 -0.0292
0.00988  0.194  0.760
-0.0794 0.0138 -0.140
0.0743 0.0363 -0.0804
-0.0788 0.0189 -0.236
-0.0761 -0.0226  0.209
-0.0790 -0.00204 -0.0715
 0.196 -0.0472 -0.0822
 0.134 -0.0237 -0.0718
-0.0257 0.0812  0.426
-0.0257 -0.0694  0.522
-0.286 -0.00272 -0.0927
-0.191 -0.0105 -0.114
 0.176 -0.0498 -0.0400
0.0535 -0.00891  0.696
0.000306 -0.0877 -0.0766
 0.413 -0.00950 0.0816
-0.00965  0.178  0.744
 0.217 -0.0598 -0.176
0.0585 -0.0607 -0.527
 0.450 -0.00459 0.0714
0.000317 0.0849 -0.363
 0.173 -0.0400 -0.201
-0.227 0.0364  0.808
0.00575 0.0825 -0.808
-0.0558 0.0644 -0.363
0.0261 0.0809  0.246
-0.0154 -0.0860  0.119
-0.0248 -0.0834 -0.601
 0.217 -0.109 -0.232
0.0800 0.00504 -0.101
-0.0796 0.00848  0.294
-0.0779 -0.0124 -0.691
-0.0610 0.0594  0.438
-0.0335 0.0515  0.760
-0.00986 0.0846 -0.474
 0.244 -0.0922 -0.256
-0.587 0.0267 0.0875
 0.387 -0.00371 0.0606
-0.201 -0.0432 -0.151
 0.281 -0.00341 -0.103
-0.0612 0.0597  0.348
 0.487 0.0110 -0.0143
-0.476 0.0192 0.00363
-0.0500 0.0688 -0.103
0.0650 -0.0517  0.220
0.0358 -0.0789  0.257
0.0307 0.0796  0.336
0.0689 -0.0453 -0.723
 0.202 -0.0118 -0.167
-0.0728 0.0404 -0.612
0.00804 -0.0874  0.336
-0.0529 -0.0660 -0.444
 0.223 -0.0391 -0.00798
 0.460 0.0132 0.0608
-0.266 -0.0353 -0.105
0.0665 -0.0220  0.569
0.00549 -0.0864 -0.797
 0.441 0.0146 -0.00770
 0.404 0.00494 0.0336
0.0358 -0.0789 -0.623
-0.0532 0.0668 -0.273
-0.206 -0.0811 -0.251
 0.494 -0.00960  0.120
0.0590 0.0130  0.745
0.0447 0.0730  0.356
-0.299 -0.0294 -0.0806
0.0905 -0.0549 -0.251
0.0802 0.0103 -0.0586
-0.0102  0.103  0.623
 0.257 -0.124 -0.262
 0.447 0.0137 0.0420
0.0793 -0.00734  0.384
-0.0618 0.0555 -0.808
-0.627 0.0462 0.0818
0.0896 -0.0399 -0.0378
-0.336 -0.0188 -0.100
 0.423 -0.0101 -0.00251
0.0570 -0.0588  0.468
 0.291 -0.0616 -0.256
0.0241 0.0721 -0.849
-0.0905 -0.0222 -0.120
-0.281 -0.0730 -0.285
 0.572 0.0218 0.0980
0.0720 0.0442  0.458
0.00305  0.168  0.845
0.0262 0.0813 -0.601
0.0159 -0.0797  0.479
0.00238 0.0722  0.808
-0.404 -0.00351 -0.0681
-0.0778 0.0239  0.421
0.0799 -0.00145 -0.680
-0.127 0.0301  0.840
-0.221 -0.0621 -0.155
-0.192 -0.0556 0.0305
-0.238 -0.0365 -0.00815
0.0464 0.0698  0.532
-0.00488 0.0851  0.453
0.0628 -0.0550  0.289
0.0642 0.0569 -0.466
0.0802 0.0103 -0.642
-0.0682 -0.0452 -0.730
0.0538 0.0669 -0.324
-0.0111 -0.0868 -0.284
-0.0255 0.0805 0.0768
-0.00481 0.0841  0.109
-0.0794 0.00317 -0.628
0.0379 0.0764  0.412
0.0225 0.0817 0.0733
 0.122 -0.128 0.00505
0.0424 -0.0851 -0.109
0.0668 -0.0483  0.416
0.0194 0.00514  0.850
-0.562 0.0256 0.0388
 0.170 -0.0133 -0.178
-0.625 0.0497  0.119
-0.0657 0.0539 -0.0393
 0.322 -0.0197 0.0680
 0.190 -0.0574 -0.00268
-0.00985 0.0846 -0.220
-0.0558 0.0644 -0.394
-0.159 -0.138 -0.0279
 0.170 -0.0332 -0.00321
-0.123 -0.0601 -0.169
0.00696  0.267  0.788
0.0568 0.0648 -0.172
-0.0766 0.0187  0.516
-0.0105  0.157  0.718
0.0476 -0.0845 -0.0186
 0.255 -0.123 -0.215
0.0810 -0.0670 -0.0340
-0.0556 0.0592  0.623
-0.0314 -0.0858 -0.246
0.0794 -0.00734 -0.146
-0.0143 0.0838  0.352
0.0290 -0.0821 -0.442
0.0538 0.0669 -0.531
0.0779 -0.0177 -0.352
0.0802 0.0103 -0.573
0.0116 -0.0869  0.378
-0.136 -0.126 -0.0639
0.0598 -0.0516 -0.824
-0.0716 0.0133  0.696
-0.143 -0.0508 0.0189
0.0562 -0.0634  0.257
 0.207 -0.00989 -0.125
 0.103 0.0183  0.747
-0.161 -0.110 -0.0521
-0.0762 0.0288 -0.771
0.0776 -0.0176 -0.755
0.0290 -0.0820  0.140
0.0214 -0.0865 -0.215
-0.0780 -0.00194 -0.787
-0.355 -0.00931 0.0499
 0.240 -0.0712 -0.137
 0.241 0.0464  0.825
-0.0780 -0.0124 0.0503
-0.0695 0.0477 -0.437
0.0797 -0.00145 -0.415
-0.542 0.0255  0.117
-0.260 -0.00577 -0.0719
-0.0620 -0.0551 -0.667
-0.413 -0.0117 -0.0132
-0.125 -0.0954 -0.0376
-0.0224 0.0472 -0.910
0.0483 -0.0708  0.177
0.0694 0.0474 -0.788
-0.0788 0.0189 -0.464
 0.118 -0.0602 -0.183
0.0411 -0.0261  0.686
-0.210 -0.0907 -0.194
-0.220 -0.0487 -0.253
0.0153 0.0836  0.426
-0.0620 -0.0550 -0.582
-0.254 -0.00655 -0.135
-0.0112 -0.0871 -0.114
 0.255 -0.00577 -0.124
-0.456 0.0171 0.00795
 0.656 0.0564  0.130
-0.0589 0.0621 -0.225
-0.00481 0.0841 -0.0234
0.0653 -0.0522  0.135
 0.103 0.0211  0.691
-0.282 -0.0278 -0.126
0.0207 -0.0850  0.273
0.0699 0.0477 -0.0415
0.0642 0.0569 -0.217
-0.0561 0.0646 -0.644
-0.266 -0.104 -0.140
-0.0407 0.0745 -0.236
-0.0761 -0.0226 -0.352
-0.00483 0.0851  0.241
0.0504 0.0686 0.0962
-0.270 -0.0559 -0.146
 0.275 -0.112 -0.282
-0.0487 -0.0360 -0.901
-0.343 -0.0309 0.0397
 0.196 -0.0174 -0.191
-0.275 -0.0291 0.0378
 0.611 0.0463  0.104
0.0801 0.0150 -0.203
-0.00844  0.136  0.750
0.0781 -0.00714  0.485
-0.241 -0.112 -0.262
 0.269 -0.0759 -0.131
0.0793 -0.00734  0.209
0.0536 -0.0661  0.358
0.00458 -0.0877 -0.723
0.0814 -0.0486 0.00955
-0.705 0.0713  0.181
0.000283 -0.0877 -0.607
 0.328 -0.0264 -0.00272
 0.326 -0.0145 -0.121
 0.218 -0.103 -0.178
 0.234 -0.0477 -0.286
-0.0260 0.0267  0.842
 0.552 0.0337 0.0715
-0.00462 0.0850  0.221
-0.0201 0.0788 -0.818
0.00707  0.289  0.850
-0.0174 -0.0659 -0.889
-0.00987 0.0880  0.707
-0.0663 -0.0484 -0.374
-0.0822 -0.0326 -0.287
-0.0663 -0.0484  0.246
-0.0115 0.000715 -0.978
0.0116 -0.0869  0.214
 0.165 0.0383  0.813
0.0774 -0.0498 0.0396
-0.0794 0.0138 -0.0292
 0.135 -0.0954 -0.0335
 0.238 -0.0170 -0.176
-0.143 -0.111 -0.00275
 0.292 -0.00862 -0.0188
0.00543 0.0851  0.368
0.0796 0.0189 -0.252
-0.440 -0.00714 0.0393
-0.0525 0.0340  0.738
-0.138 -0.0150 -0.130
 0.503 0.0102  0.131
-0.0764 0.0288  0.331
-0.0752 -0.0270 -0.552
0.0480 0.0710 -0.759
-0.0771 -0.0176 -0.670
-0.0731 -0.0342  0.177
-0.270 0.0496  0.835
0.0211 -0.0851 -0.273
-0.313 -0.0285 -0.0135
0.0232 0.0616  0.731
 0.541 0.0148  0.119
 0.340 -0.0133 0.0548
0.0719 0.0442  0.289
-0.0340 0.0781 -0.707
-0.0566 0.0227 -0.886
0.00399 -0.0877 -0.659
-0.161 0.0351  0.756
-0.286 -0.104 -0.265
0.0723 0.00877  0.601
 0.135 0.0236  0.773
-0.472 0.00828 -0.0241
0.00549  0.247  0.756
-0.0329 0.0776  0.496
-0.333 -0.000857 -0.0914
-0.236 -0.118 -0.175
0.00415 -0.0877 0.0713
0.00750 -0.0874 -0.474
0.0197 0.0289 -0.934
0.0740 0.0362 -0.139
0.0745 0.0369 -0.386
-0.394 -0.0127 -0.0527
0.0424 -0.0800 0.0870
-0.00620  0.178  0.802
 0.293 -0.0674 -0.179
 0.223 -0.0998 -0.156
-0.638 0.0398  0.147
-0.0676 0.0509 -0.268
-0.0529 -0.0660 -0.481
 0.490 0.00268 0.0350
-0.0185 0.0831 -0.511
-0.271 -0.0120 -0.0200
0.0759 0.0332  0.410
 0.277 -0.0447 -0.233
-0.0751 0.0331 -0.363
0.0743 0.0369 -0.0208
-0.303 -0.0213 0.0588
-0.0242 -0.0836 -0.426
 0.276 -0.0767 -0.256
-0.0721 0.0292  0.564
0.0795 0.0155  0.744
-0.574 0.0241 0.0686
-0.684 0.0662  0.219
-0.0532 0.0668 -0.480
-0.0752 -0.0270 -0.499
 0.593 0.0273  0.109
 0.492 -0.00911 0.0997
-0.231 0.0379  0.788
0.0695 0.0266  0.729
-0.395 -0.0132 0.0703
0.0525 -0.0561 -0.842
-0.0202 0.0794  0.543
-0.434 0.00897 -0.0423
 0.292 -0.0861 -0.162
-0.233 0.0398  0.845
-0.126 -0.0184 -0.113
-0.254 -0.0333 -0.244
-0.317 -0.0138 0.0346
 0.295 -0.0291 -0.0952
0.0801 0.0150 -0.727
0.0750 -0.0311 -0.739
 0.117 -0.0421 -0.00873
0.0748 0.0370  0.361
0.0255 0.0795  0.501
-0.0257 0.0812  0.336
-0.0183 0.0832 -0.289
-0.329 0.000617 -0.0504
 0.150 -0.0292 -0.0349
 0.245 -0.00695 -0.0797
0.0647 -0.0516 -0.691
-0.472 0.0173 0.0553
0.0538 0.0669 -0.266
 0.587 0.0273 0.0770
0.0720 0.0442 -0.363
0.0308 0.0797 -0.204
0.0447 0.0730  0.298
-0.377 -0.0179 0.0432
0.0537 0.0197  0.808
0.0526 0.0558 -0.848
-0.0721 -0.0739 -0.220
-0.0592 -0.0813 0.0114
 0.191 -0.0356 0.0234
-0.0284 -0.0819 -0.504
-0.0284 -0.0269 -0.954
-0.0302 0.000322 -0.956
-0.512 0.0182  0.105
0.0753 -0.0342 0.0769
-0.526 0.0134 0.0270
-0.0636 -0.0146  0.619
-0.145 0.0278  0.722
0.0723 -0.0386 -0.352
 0.329 -0.0104 0.0287
0.0720 0.0442  0.321
-0.0642 -0.0516 -0.753
 0.192 -0.0448 -0.159
-0.168 -0.0412 -0.203
 0.460 -0.00194 0.00248
-0.0658 0.0290  0.659
0.0749 -0.0313  0.236
 0.224 -0.0584 -0.155
0.0666 -0.0783 -0.178
-0.557 0.0326  0.103
-0.0635 0.0568 -0.129
0.0517 -0.0282 -0.903
 0.106 -0.0256 -0.251
 0.273 -0.0343 -0.0499
0.0519 -0.0386  0.595
0.0479 0.0458  0.736
0.00764 0.0192 -0.959
0.0379 0.0764 -0.0910
-0.503 0.0233 0.0291
-0.0339 0.0778  0.384
0.0801 0.00504 -0.493
0.0201 0.0475  0.813
-0.0601 -0.0575  0.280
-0.0385 -0.0769  0.216
 0.389 0.00356 0.0213
-0.116 0.0250  0.808
-0.221 -0.0485 -0.232
0.00593 0.0333  0.877
-0.362 -0.0146 0.0798
-0.00743  0.268  0.818
 0.163 -0.0120 -0.148
0.0682 0.0510 0.0521
-0.0289 -0.0416 -0.933
0.0801 -0.0699 -0.114
0.0650 -0.0516 -0.501
0.0190 0.0830 -0.253
0.000274 0.0853  0.411
-0.481 0.00101 0.0293
0.0346 0.0782  0.181
-0.125 -0.0558 -0.202
-0.0340 0.0781 -0.183
0.0260 0.0806 -0.0133
 0.461 -0.00361 0.0344
 0.185 -0.0484 -0.135
-0.00736 -0.0550  0.607
 0.546 0.0293 0.0331
 0.429 -0.00862 0.0606
0.0721 -0.0382 -0.623
0.0802 0.0150 -0.155
0.0593 0.0620  0.425
0.0377 0.0761 0.0574
 0.355 -0.00734 0.0363
-0.0322 -0.0703 -0.852
0.0562 -0.0634 -0.585
0.0391 -0.0770 -0.421
0.0210 -0.0469  0.638
-0.524 0.00946 0.0821
-0.0751 0.0331  0.173
 0.293 -0.0180 0.0313
0.0380 0.0767 -0.335
0.0453 -0.0731 -0.458
-0.00125 -0.0901 -0.864
0.0894 -0.0337 -0.0640
 0.212 -0.0384 0.0238
-0.0629 -0.0798 -0.0561
-0.181 -0.0495 -0.0667
0.0453 -0.0731 -0.374
-0.704 0.0731  0.234
-0.0641 -0.0519 -0.637
0.0123 -0.0298  0.715
-0.0258 -0.0844 0.0713
-0.0371 -0.0124  0.750
-0.0424 -0.0707  0.467
-0.181 -0.0412 0.0379
-0.0615 -0.0536  0.458
-0.0531 0.0668  0.135
-0.0714 -0.0381 -0.771
0.0480 0.0660  0.619
-0.215 -0.105 -0.220
-0.450 -0.00430 0.0766
-0.0659 -0.0481  0.426
0.0801 0.00504 -0.361
 0.605 0.0411  0.139
-0.0649 -0.0714 -0.313
-0.163 -0.135 -0.0607
0.0585 -0.0607 -0.760
0.0307 0.0794  0.215
0.0683 0.0511 0.0839
-0.149 -0.120 -0.0328
 0.599 0.0423 0.0724
 0.206 -0.0185 -0.0377
0.0189 0.0825 0.00617
-0.0519 -0.00302 -0.914
0.0646 -0.0518 -0.564
-0.0794 0.0138  0.236
-0.180 -0.0499 -0.00804
-0.0262 -0.0864 -0.167
-0.148 -0.0200 -0.0824
-0.0833 -0.0584 -0.251
-0.0544 0.0477  0.691
-0.291 -0.00312 -0.0557
-0.0695 0.0477 -0.734
-0.0785 -0.00734  0.336
0.0348 -0.0593 -0.882
0.0883 -0.0403 -0.287
 0.384 -0.00194 0.0420
0.0617 0.0595 -0.0861
