ply
format ascii 1.0
element vertex 2048
property float x
property float y
property float z
end_header
-0.279  0.443 -0.366
 0.279 -0.827  0.474
-0.316 -0.683 -0.479
 0.274  0.759  0.467
-0.318 -0.0477  0.482
 0.281 -0.170 -0.122
-0.317 -0.683  0.199
 0.279  0.764 -0.198
-0.297  0.760  0.193
 0.280  0.139  0.439
 0.291 -0.728 -0.384
-0.315 -0.152 -0.192
 0.244  0.268 -0.440
0.0864 -0.362  0.475
-0.279  0.268  0.106
0.0164 -0.327 -0.475
 0.281  0.338 0.0181
 0.281 -0.590 0.0706
-0.0536  0.460  0.440
-0.0361  0.760 -0.466
-0.0886 -0.696 -0.139
-0.0886 0.0578 -0.440
-0.315 -0.292  0.176
0.0689  0.768  0.106
-0.292  0.765 -0.174
-0.0711 -0.688  0.481
 0.282 -0.205  0.228
 0.274 -0.0804 -0.476
-0.258 -0.415  0.475
0.0105 -0.0421  0.482
-0.315 -0.469 -0.104
 0.281  0.460  0.316
-0.300 -0.368 -0.440
-0.00110 -0.644 -0.478
-0.279  0.163 -0.209
-0.129  0.765  0.463
 0.281 -0.415 -0.332
 0.226  0.583 -0.440
0.0164 -0.696  0.176
-0.265  0.233  0.407
 0.281 -0.555  0.368
 0.281 0.0577  0.106
 0.281  0.128 -0.192
-0.278 -0.0155 0.0706
-0.279  0.530 -0.0169
-0.00110  0.408 -0.440
-0.00109  0.768 -0.192
-0.280  0.478  0.280
-0.296 -0.828  0.426
 0.281  0.618 0.0356
-0.298 -0.103 -0.459
-0.297  0.760 -0.437
 0.273 -0.117  0.475
 0.281  0.478 -0.210
-0.00113  0.215  0.440
 0.209 -0.696 -0.139
-0.317 -0.683 -0.239
 0.279  0.764  0.222
 0.282 -0.415 -0.0869
-0.141  0.768 0.000613
0.0689  0.768  0.351
-0.141 -0.222  0.475
 0.281  0.250  0.246
-0.281 -0.696 -0.0169
 0.139  0.583  0.441
-0.279 0.0399  0.281
-0.211  0.250 -0.440
 0.121 -0.696  0.386
 0.281 -0.415  0.193
 0.121 0.0928 -0.440
 0.209 -0.555 -0.475
-0.277  0.373 -0.157
0.0339 -0.117 -0.475
 0.281 -0.327  0.403
-0.270 -0.624  0.474
-0.141  0.583 -0.440
 0.174  0.320  0.440
-0.315 -0.485  0.246
-0.176 -0.537 -0.475
 0.226 -0.275 -0.475
-0.0711 -0.485  0.475
-0.315 -0.275 -0.0344
0.0864 -0.696 -0.297
-0.141 -0.696 -0.332
-0.314 -0.242  0.368
-0.106  0.768  0.246
 0.191  0.769 -0.384
-0.271  0.637  0.395
-0.141 -0.696  0.298
-0.279  0.567 -0.209
-0.159 0.0577  0.440
 0.244 -0.696  0.228
-0.277 0.0753 -0.382
 0.281 -0.0123  0.316
 0.281 -0.187 -0.315
-0.323 -0.344 -0.254
-0.315 -0.520 -0.332
 0.281 -0.292 0.0531
0.0689 -0.696 -0.0169
 0.191  0.768 -0.0344
-0.159  0.768 -0.314
-0.159 -0.222 -0.475
 0.281  0.303 -0.262
 0.121 -0.537  0.475
 0.281 -0.572 -0.244
-0.277 0.00518 -0.122
 0.281 0.0752 -0.367
-0.106 -0.696 0.0356
0.0339  0.600 -0.440
-0.315 -0.485 0.0706
 0.281  0.478  0.141
-0.279  0.163 -0.0344
-0.00110  0.233 -0.440
 0.104 -0.187  0.475
 0.281 -0.0998 0.0356
-0.241  0.409  0.433
 0.281  0.635  0.333
-0.315 -0.117  0.228
 0.121 0.0753  0.440
-0.278  0.603  0.141
-0.0186  0.635  0.440
 0.144 -0.717 -0.456
 0.280  0.425 -0.438
 0.281  0.180 -0.0169
 0.281 -0.0473 -0.227
-0.279  0.443  0.123
-0.0186 -0.485 -0.475
-0.284  0.299  0.261
-0.279  0.688 -0.0344
-0.141 -0.380 -0.475
 0.281 -0.666  0.481
 0.281  0.618 -0.122
 0.281  0.618 -0.297
-0.290  0.289 -0.310
-0.296 -0.828 -0.425
-0.279  0.635 -0.349
-0.314 -0.225 -0.349
-0.316 -0.0558 -0.309
-0.315 -0.117 -0.0344
 0.139 -0.415 -0.475
-0.229  0.768  0.333
 0.281 0.0227 -0.0519
 0.281 -0.327 -0.210
 0.156 -0.696  0.106
0.0514  0.768 -0.332
 0.281  0.478 -0.0344
-0.279  0.128  0.158
-0.166 -0.715 -0.478
 0.244 -0.450  0.475
-0.315 -0.698  0.345
-0.141  0.303  0.440
-0.159 -0.0635 -0.481
 0.139  0.460 -0.440
 0.237 -0.827 -0.474
-0.176 -0.0807  0.477
0.0339  0.768 -0.0519
-0.281  0.760  0.467
-0.159  0.425 -0.440
 0.280 -0.432 -0.473
 0.280  0.542  0.439
-0.279  0.338 -0.0169
-0.176 -0.696  0.158
 0.281 -0.572 -0.0694
0.0514 -0.696 -0.157
 0.139  0.768 -0.209
 0.281 -0.432 0.0531
 0.281  0.110  0.246
-0.141  0.768 -0.139
 0.281  0.754 0.0706
-0.315 -0.380  0.351
-0.176  0.548  0.440
 0.281  0.268 -0.122
0.0339  0.355  0.440
 0.104  0.320 -0.440
 0.281  0.635  0.176
-0.315 -0.555  0.368
-0.00109 -0.696  0.333
 0.281  0.198  0.123
-0.124 -0.362  0.475
-0.0186 -0.275  0.475
 0.281 -0.0823  0.176
-0.229 -0.696 -0.139
-0.315 -0.170  0.106
 0.277 -0.718  0.355
 0.244 -0.696 0.000611
-0.207 -0.741  0.479
 0.139 -0.0390 -0.470
 0.281 -0.572  0.211
-0.164  0.742 -0.453
 0.281  0.303  0.368
 0.133  0.765  0.463
 0.139 -0.0635  0.482
-0.00111  0.760  0.467
-0.0186 0.0753  0.440
0.0514 -0.644  0.479
-0.0711  0.768  0.123
-0.264  0.768 0.0706
-0.311 -0.0844  0.351
 0.261 -0.696 -0.262
 0.281 -0.135  0.351
 0.104  0.460  0.440
 0.139  0.768  0.211
 0.104 -0.222 -0.475
 0.281  0.198 -0.332
-0.269 -0.187  0.472
-0.315 -0.572 -0.0344
-0.277  0.110  0.384
-0.260 -0.702 -0.367
-0.0186 -0.696 -0.367
-0.315 -0.537 -0.209
-0.314 -0.625 0.0896
 0.191 -0.275  0.475
 0.281 -0.555 -0.367
 0.281 -0.0648 -0.349
 0.281  0.338  0.158
 0.191  0.768  0.333
-0.0886  0.320 -0.440
-0.279  0.618  0.263
 0.261  0.408  0.440
0.0864  0.768 -0.452
-0.194 -0.520  0.475
-0.297  0.760 -0.297
-0.278  0.178  0.281
 0.281 -0.292 -0.0870
0.0864 -0.555 -0.475
 0.281 -0.415  0.316
 0.281 -0.450 -0.210
 0.280  0.705 -0.438
-0.279 0.0400 -0.244
-0.293 -0.502 -0.450
-0.0361 -0.152  0.475
-0.276 -0.240 -0.466
 0.261 -0.661 -0.482
 0.261 0.0227  0.440
-0.287  0.452 -0.243
 0.281  0.740 -0.314
 0.121 -0.696  0.228
 0.281  0.425 -0.315
-0.0361 -0.696 -0.244
-0.106  0.180 -0.440
0.0164  0.768  0.246
-0.0361 -0.222 -0.475
 0.281 -0.292 -0.367
-0.0536  0.768  0.351
-0.106  0.163  0.440
0.0164 0.00540 -0.440
 0.182 -0.740  0.476
-0.251  0.554 -0.424
 0.174  0.180  0.440
 0.244  0.653  0.440
-0.315 -0.397 -0.0169
 0.281  0.390 -0.139
-0.279  0.233 -0.122
-0.0536  0.513 -0.440
-0.315 -0.345 -0.122
 0.281 -0.187  0.106
 0.280 -0.689  0.123
-0.315 -0.624 -0.139
 0.280  0.163 -0.438
-0.315 -0.397  0.141
 0.281 -0.292  0.298
 0.156  0.198 -0.440
-0.279  0.478 -0.122
 0.281  0.723 -0.0869
-0.317 -0.724  0.481
-0.278  0.603 -0.104
 0.281 -0.187 -0.437
-0.278  0.196 -0.367
-0.277  0.513  0.383
-0.159 -0.625  0.475
-0.315 -0.607 -0.402
-0.276 -0.310  0.467
 0.174  0.768 0.0881
-0.176  0.768  0.141
-0.159 -0.696 -0.227
 0.281 -0.310  0.176
0.0339 -0.467  0.475
-0.0536  0.768 -0.297
 0.281  0.355  0.263
 0.226 -0.555  0.475
-0.124  0.653  0.440
-0.194 0.0403 -0.440
-0.279 0.0227  0.176
 0.281  0.198  0.351
-0.314 -0.260 -0.192
 0.281  0.530 -0.367
-0.315 -0.292 0.0706
0.0164  0.110 -0.440
 0.156  0.688 -0.440
-0.251  0.361 -0.424
-0.279 0.0403 -0.0169
-0.223  0.657 -0.440
-0.285  0.665 -0.251
-0.0361 -0.590  0.475
-0.277  0.390  0.333
-0.315 -0.608  0.281
-0.314 -0.413 -0.349
-0.254 0.0210  0.428
 0.174 -0.696 -0.349
 0.281 -0.222 -0.210
 0.281  0.548  0.228
-0.277  0.390  0.211
 0.281 -0.0648 -0.104
-0.0536  0.653 -0.440
-0.0886 -0.590 -0.475
-0.229 -0.696 0.0706
-0.194 -0.696  0.386
 0.281 -0.625 -0.157
 0.191  0.373 -0.440
 0.281 -0.187 -0.0169
-0.0186  0.768 0.0356
 0.174 -0.135 -0.475
-0.0361 -0.696 -0.0519
-0.176 -0.696 -0.0519
-0.279  0.530 -0.314
-0.0886 -0.0149  0.446
-0.314 -0.242  0.263
-0.229 -0.696  0.246
-0.319 -0.0480 -0.209
0.0339  0.530  0.440
 0.139 -0.696 -0.209
-0.0536 -0.696  0.246
-0.0536 -0.0493 -0.484
-0.00109 -0.696 0.0531
-0.279  0.618 0.0356
-0.315 -0.205 -0.104
 0.104  0.250  0.440
 0.281 -0.502  0.141
-0.279  0.110 0.0531
 0.281 -0.625  0.298
 0.156 -0.644  0.479
-0.276 -0.0166 -0.419
 0.281  0.754  0.368
 0.273 -0.222  0.475
-0.282  0.287 -0.213
 0.281  0.320 -0.367
 0.244 0.0228 -0.440
-0.208  0.148  0.440
-0.223  0.132 -0.440
 0.191 -0.696  0.316
-0.229  0.768 -0.0519
-0.211 -0.310 -0.475
-0.315 -0.608 -0.297
-0.229 -0.644 -0.478
-0.315 -0.572  0.193
 0.281 0.0227  0.193
 0.281 0.0402 -0.279
-0.141  0.425  0.440
-0.0361 -0.397  0.476
 0.104  0.670  0.440
 0.281  0.215 -0.227
0.0689 -0.696 -0.402
 0.281  0.653 -0.210
 0.104  0.768 -0.122
 0.191  0.495  0.440
-0.279  0.128 -0.122
-0.0711 -0.696  0.123
-0.0536  0.768 -0.104
 0.281 0.0402 -0.157
-0.307 -0.485  0.431
-0.279  0.513  0.193
 0.273  0.233  0.440
-0.311 -0.0844 -0.122
-0.211  0.768  0.228
-0.324 -0.336  0.269
-0.314 -0.432 -0.227
-0.315 -0.135 -0.367
-0.229 -0.415 -0.475
 0.281 0.0753  0.368
-0.316 -0.0559  0.146
 0.281 -0.642 -0.332
-0.0711 -0.696 -0.455
-0.251  0.320  0.425
-0.324 -0.169  0.317
-0.318 -0.315 -0.348
 0.281 -0.345 -0.454
 0.121 -0.327 -0.475
 0.281 -0.240  0.386
 0.191 -0.170  0.475
 0.156 -0.432  0.475
-0.124  0.768 -0.227
-0.0536 -0.397 -0.475
 0.281  0.163 -0.104
 0.209  0.768 -0.122
-0.0536  0.320  0.440
 0.156 -0.696 -0.0344
-0.279  0.355 0.0706
 0.281  0.495 0.0531
0.0339  0.495 -0.440
 0.281  0.495 -0.122
 0.139  0.565 -0.440
 0.174  0.769 -0.297
-0.0711 -0.310 -0.475
-0.279  0.250 0.000615
 0.281 -0.0998  0.263
-0.141  0.768  0.368
0.0864  0.163  0.440
-0.278  0.705  0.281
 0.280 -0.689 -0.0869
0.0514  0.688 -0.440
-0.211  0.768 -0.209
 0.281  0.635 -0.384
-0.283  0.674 -0.157
 0.209  0.110 -0.440
 0.281 -0.135 -0.210
-0.279  0.443 0.0356
 0.104  0.768 0.000613
-0.0711  0.565  0.440
 0.281  0.565 -0.227
 0.281  0.565  0.123
 0.281 -0.520 0.0181
 0.281 -0.485  0.246
-0.315 -0.205 0.0181
-0.229 -0.696 -0.279
-0.279  0.425 -0.0519
0.0164  0.320 -0.440
 0.282 -0.362 0.000600
 0.281 -0.0123 0.0356
-0.0886 -0.696  0.368
0.0689  0.180 -0.440
 0.281 -0.362  0.106
 0.281 -0.520 -0.139
-0.279  0.530 0.0706
0.0514 -0.415 -0.475
0.0864 -0.644 -0.478
0.0864 -0.275  0.475
-0.194  0.705  0.440
 0.226  0.495 -0.440
-0.315 -0.485 -0.0169
 0.281  0.460  0.228
 0.281  0.548  0.316
 0.281  0.390 -0.227
 0.281  0.268 -0.0344
 0.281  0.565 -0.0344
 0.281 0.0752 0.0181
-0.124 -0.467 -0.475
 0.281  0.128 -0.279
 0.281 -0.275 -0.279
-0.106 -0.152 -0.475
 0.281  0.285 0.0881
 0.284 -0.754 -0.468
 0.174  0.408  0.440
-0.278  0.213  0.176
-0.284  0.108 -0.298
-0.279  0.688  0.123
-0.246  0.768 -0.367
0.0689 0.00539  0.440
-0.233  0.471 -0.436
 0.209 -0.696  0.403
-0.277  0.373 -0.297
-0.247 -0.764 -0.454
-0.229 -0.170 -0.475
-0.310 -0.0400  0.263
 0.209 0.0927  0.440
 0.221 -0.0421  0.482
-0.315 -0.151  0.403
-0.279  0.725  0.385
-0.316 -0.135 -0.280
 0.226  0.765 -0.462
-0.0186  0.768 -0.384
 0.273  0.767 -0.0169
-0.194 -0.310  0.475
 0.281 -0.467  0.403
-0.298 -0.0385 -0.0519
-0.315 -0.469  0.351
-0.106  0.768 -0.402
 0.282 -0.0473  0.403
 0.174 -0.644 -0.478
 0.289 -0.744  0.456
 0.281 -0.642  0.403
-0.281 -0.755  0.395
 0.244  0.768  0.141
-0.0186 -0.696  0.421
-0.176  0.338 -0.440
 0.209  0.768  0.421
 0.281  0.688  0.246
-0.272  0.274 -0.394
-0.297 -0.695  0.123
-0.315 -0.205  0.193
-0.279  0.268  0.333
-0.287  0.103  0.234
-0.246 -0.0493 -0.484
-0.311 -0.0844 0.0531
-0.210  0.619  0.440
 0.281  0.408  0.106
0.0864 -0.696  0.298
-0.279  0.303  0.176
 0.281  0.390  0.351
 0.281  0.688 0.000565
 0.121 -0.696 -0.122
-0.159 -0.450  0.475
 0.281  0.670  0.106
 0.281 -0.485 -0.297
 0.281 -0.205  0.316
-0.106 -0.117  0.475
 0.281  0.355 -0.0694
0.0339 -0.117  0.475
 0.281 -0.625 0.000565
 0.281  0.180  0.211
-0.176 -0.696 -0.402
 0.281 -0.0473  0.106
-0.316 -0.658  0.420
 0.281 -0.520 -0.437
 0.104  0.768  0.281
-0.176  0.233  0.440
-0.314 -0.225 -0.262
-0.297  0.760 0.000599
-0.317 -0.736 -0.407
-0.314 -0.413  0.281
-0.268 -0.578 -0.471
-0.278  0.584  0.333
-0.278  0.196 -0.279
 0.261  0.320  0.440
 0.261 -0.345  0.475
-0.278 -0.0155  0.351
-0.149 -0.701  0.448
-0.278  0.178 0.0881
-0.210  0.478  0.440
-0.141  0.670 -0.440
 0.281 -0.590 -0.467
-0.285  0.740 -0.0928
 0.273  0.338 -0.440
 0.174  0.705  0.440
-0.317 -0.683 -0.0811
 0.209  0.768  0.246
 0.281 -0.362 -0.139
 0.174 0.0227  0.440
 0.121 -0.696 0.0356
-0.0186  0.768  0.176
0.0514 -0.696  0.106
-0.293 -0.555  0.451
-0.0887  0.250  0.441
 0.281  0.145 0.0706
 0.281 -0.135 -0.384
0.0864  0.768 -0.262
 0.156 -0.502 -0.475
 0.281  0.425 0.0181
 0.281 -0.345  0.246
-0.124 -0.696  0.211
 0.281  0.320 -0.174
0.0864  0.408 -0.440
 0.209 -0.696  0.158
0.0164 -0.205  0.475
 0.104  0.635 -0.440
-0.194 -0.170  0.475
 0.191 -0.362 -0.475
-0.315 -0.537  0.123
-0.279  0.285 -0.0694
-0.0711  0.705  0.440
-0.272  0.693 -0.396
-0.307 -0.380  0.431
 0.226 -0.696 -0.402
 0.281  0.478  0.403
-0.319 -0.674 -0.332
 0.281 -0.450 -0.402
 0.206 -0.754 -0.444
-0.312 -0.292 -0.418
 0.104 -0.695  0.470
-0.246 -0.0390  0.471
-0.312 -0.187 -0.417
 0.280 -0.689 -0.192
-0.159 -0.625 -0.475
 0.251 -0.794  0.416
-0.279 0.0227 -0.332
-0.314 -0.413 -0.157
 0.282 -0.257  0.123
 0.281 -0.625 -0.402
 0.281  0.128  0.141
 0.191 -0.205 -0.475
 0.281  0.513 -0.297
 0.174 -0.362  0.475
-0.141  0.495 -0.440
-0.124  0.250 -0.440
 0.174 0.0403 -0.440
-0.00111 -0.555 -0.475
0.0164 -0.537  0.475
0.0339 -0.696  0.246
-0.194  0.768 0.0531
 0.121  0.768 -0.349
-0.106 -0.292  0.475
-0.159 -0.696 0.0881
0.0164  0.145  0.440
 0.281  0.618  0.263
-0.211  0.768 -0.122
 0.281 -0.275 -0.157
-0.0536  0.128 -0.440
0.0514  0.618  0.440
-0.279 0.0578 -0.174
-0.277  0.373  0.141
 0.281 -0.0473 -0.0344
 0.281  0.215 0.0531
-0.279  0.355 -0.0869
-0.0711  0.425 -0.440
-0.315 -0.380 0.0531
-0.0887  0.768 0.0531
0.0339 -0.205 -0.475
 0.281 0.0927 -0.0694
0.0339 -0.696 -0.0869
0.0689  0.768  0.193
 0.281  0.635 -0.0519
0.0339 -0.696 -0.227
-0.0711  0.768 -0.174
0.0164  0.443  0.440
-0.159 -0.696 -0.122
-0.0711 -0.696 -0.314
0.0339  0.688  0.440
-0.106 -0.696 -0.0694
 0.281 0.0577  0.298
 0.281  0.128  0.316
-0.124  0.495  0.440
 0.281 -0.345 -0.297
-0.141 -0.292 -0.475
 0.104 -0.696  0.158
-0.211 -0.696  0.316
 0.281 -0.397  0.386
-0.176  0.768 -0.384
 0.226 -0.485 -0.475
-0.211 -0.240  0.475
 0.191  0.250  0.440
-0.124  0.768 -0.0694
-0.0361  0.768 -0.0344
0.0164  0.768 -0.122
-0.279  0.303 -0.139
-0.246 -0.696  0.176
 0.281 -0.362 -0.384
 0.281  0.705  0.316
0.0514 -0.0420 -0.481
 0.281  0.754 -0.384
-0.314 -0.624 0.0182
-0.229  0.768 -0.279
-0.315 -0.537 -0.122
 0.209 -0.0423 -0.481
 0.260 -0.799 -0.413
-0.286  0.105  0.309
-0.279  0.547  0.263
 0.226  0.768 -0.244
-0.264 -0.782  0.469
 0.246 -0.707 -0.333
 0.281 -0.642  0.176
 0.156  0.760 -0.466
0.0514 -0.696  0.386
-0.315 -0.607 -0.227
 0.104  0.390  0.440
 0.226  0.653 -0.440
-0.317 -0.683  0.269
-0.0536  0.583 -0.440
 0.280 0.0927 -0.438
-0.315 -0.485  0.176
 0.281 -0.257 -0.0169
0.0689  0.250 -0.440
-0.229 -0.696 -0.209
-0.194 -0.380  0.475
 0.191 -0.696 -0.262
 0.281 -0.502 -0.0694
 0.281 0.00524 -0.349
-0.0361 -0.117 -0.475
 0.281 -0.432 -0.0169
-0.00109  0.768  0.106
-0.0186 -0.696 -0.139
 0.281 -0.117 -0.0344
 0.281 -0.432  0.123
0.0864 0.00540 -0.440
0.0514 0.0753  0.440
 0.281 -0.152  0.176
-0.159 -0.0149  0.446
-0.278  0.603 -0.0344
 0.281 -0.117  0.106
0.0689  0.768 -0.192
-0.0536  0.390  0.440
-0.315 -0.275 -0.122
0.0339  0.285  0.440
0.0689  0.768  0.421
-0.229 -0.485 -0.475
 0.104 -0.152 -0.475
-0.277  0.373 -0.227
 0.104  0.320  0.440
-0.246  0.768  0.141
 0.281 -0.555  0.298
-0.315 -0.310  0.386
-0.279  0.688  0.193
-0.124 -0.0152 -0.445
-0.278  0.603 -0.279
-0.229  0.765 -0.462
 0.281 -0.257 -0.437
 0.280 -0.508  0.475
 0.281  0.688  0.386
 0.226 -0.625  0.475
-0.297 -0.695 -0.174
-0.211  0.768  0.421
-0.278  0.178  0.368
-0.159  0.110 -0.440
 0.281 -0.572  0.438
-0.0536 -0.0635  0.482
 0.281  0.583  0.386
-0.297  0.760  0.316
 0.281 -0.677 0.0531
-0.258 -0.502  0.475
-0.317 -0.0434  0.403
-0.229 -0.678  0.486
-0.316 -0.0424 -0.479
-0.279 0.0403  0.106
-0.317 -0.683 0.0589
-0.311 -0.448 -0.418
-0.219 0.0828  0.440
-0.313 -0.0687 -0.373
-0.241  0.549  0.433
-0.279  0.233  0.246
-0.307 -0.257  0.431
-0.315 -0.362  0.211
 0.281  0.530 -0.432
 0.104 -0.117  0.475
-0.261 -0.704  0.430
-0.279  0.653  0.333
 0.226 -0.696 0.0881
-0.313 -0.747 -0.471
 0.281  0.460 -0.384
 0.104 -0.607  0.475
-0.315 -0.469 -0.279
-0.323 -0.548  0.253
 0.281  0.215 -0.402
-0.277  0.513 -0.382
-0.285  0.740 -0.233
-0.314 -0.432  0.211
-0.279 0.0578 -0.0869
 0.281  0.425 -0.0869
 0.281 -0.170  0.403
 0.281 -0.520 -0.209
0.0164 -0.696 -0.437
 0.174  0.768  0.158
-0.279  0.688 -0.314
-0.194 -0.696 0.0181
-0.279  0.513 -0.174
 0.281  0.688 -0.262
-0.0887 -0.555  0.475
 0.281 -0.222 -0.367
 0.156 -0.275 -0.475
 0.281  0.145 -0.367
 0.281  0.250  0.316
 0.191  0.303 -0.440
 0.281  0.268 -0.332
-0.0711 -0.520 -0.475
-0.315 -0.345  0.106
 0.282 -0.450 -0.139
0.0164 -0.327  0.476
0.0514  0.768 0.0356
-0.106  0.769  0.176
 0.281 -0.222 0.0531
 0.281 -0.0298 -0.297
 0.281 -0.0298 -0.402
0.0164 -0.696 -0.314
-0.0186  0.768  0.298
-0.315 -0.327 0.000580
-0.286  0.623  0.200
0.0164  0.768 -0.279
 0.281  0.215 -0.0694
 0.209 -0.696 -0.0694
-0.0711 -0.205  0.475
0.0689  0.548 -0.440
 0.281 -0.0123  0.246
-0.289  0.468 -0.309
-0.176  0.769  0.281
 0.226  0.768 -0.332
 0.281 -0.590  0.141
-0.229 -0.572  0.476
 0.281  0.530 -0.174
-0.00110  0.548 -0.440
 0.281 -0.415 -0.262
 0.281  0.390  0.211
 0.281 -0.275  0.438
 0.281 -0.117 -0.315
0.0164  0.768  0.386
-0.0886 -0.696 -0.209
 0.104 -0.467 -0.475
 0.156  0.768  0.386
-0.176  0.373  0.440
 0.281  0.355 -0.315
 0.281 -0.222 -0.0694
 0.281  0.198  0.281
 0.156 -0.222  0.475
 0.104 -0.467  0.475
 0.281  0.198 -0.157
-0.124  0.373 -0.440
 0.139 -0.590 -0.475
 0.191  0.618  0.441
 0.281 -0.0998 -0.157
 0.281 0.0752 -0.227
-0.0536  0.128  0.440
-0.315 -0.135  0.158
0.0689 -0.292 -0.475
-0.0886  0.768  0.403
-0.252 -0.824 -0.473
-0.0886 -0.625  0.475
-0.0361  0.355 -0.440
 0.244  0.768  0.298
-0.0186 0.0578 -0.440
-0.0536 0.00540 -0.440
0.0514 0.0578 -0.440
-0.0886  0.705 -0.440
-0.315 -0.345 -0.192
-0.229 -0.712 -0.484
-0.279  0.443  0.367
-0.251  0.186 -0.424
-0.315 -0.624  0.368
-0.319 -0.670 -0.402
-0.278 -0.0155 -0.279
-0.308 -0.0988  0.436
-0.106  0.760 -0.466
-0.316 -0.520  0.315
-0.279 0.0578  0.351
 0.244 -0.135 -0.475
-0.315 -0.275  0.316
-0.254 -0.700 -0.429
 0.281  0.723  0.158
-0.321 -0.177  0.256
0.0514  0.768 -0.402
-0.246 -0.0997  0.475
-0.277  0.355  0.383
 0.274 -0.696  0.281
0.0281  0.742 -0.453
 0.281 -0.642 -0.244
 0.244  0.768 -0.0694
-0.280  0.355  0.281
-0.272  0.134 -0.394
-0.287 0.0949 -0.222
-0.314 -0.625 -0.0680
-0.260 -0.702  0.368
-0.223  0.412 -0.440
-0.318 -0.540 -0.277
-0.298 -0.0385 0.0181
 0.281  0.754 -0.139
-0.284 -0.0298  0.211
-0.323 -0.371 -0.307
-0.241 0.0738 -0.431
0.0689 -0.0493  0.485
-0.0711  0.760  0.467
 0.230 -0.782  0.469
-0.258  0.618 -0.415
-0.280  0.320 -0.261
-0.315 -0.362 -0.384
-0.279  0.233 -0.192
 0.226  0.565  0.440
-0.316 -0.292 -0.279
 0.226  0.768 0.0181
 0.273  0.600  0.440
 0.273  0.705  0.440
-0.314 -0.225  0.123
-0.283  0.457  0.227
-0.276 -0.450 -0.466
-0.278  0.196 0.0181
-0.312 -0.663  0.480
-0.211 -0.590 -0.475
-0.0186 -0.644  0.479
-0.286  0.623 -0.203
 0.283 -0.679 -0.419
-0.124 -0.678 -0.484
 0.209 -0.678  0.485
 0.280  0.618 -0.438
-0.0361 0.00540  0.440
-0.211  0.600 -0.440
 0.277 -0.0298  0.457
 0.226  0.180 -0.440
-0.315 -0.644  0.159
-0.279  0.567  0.211
-0.314 -0.432 0.0881
-0.279  0.566 -0.366
-0.279  0.547 -0.104
-0.223  0.307 -0.440
-0.318 -0.722  0.421
-0.268 -0.333 -0.471
 0.192 -0.712 -0.484
-0.280  0.768  0.246
-0.251  0.180  0.425
-0.278 -0.0153 -0.192
-0.315 -0.520 -0.402
-0.277  0.390 0.0181
-0.124 -0.0635  0.482
0.0864 -0.696 -0.455
-0.124 -0.696 -0.419
-0.279  0.425 -0.174
-0.315 -0.152 0.0531
 0.281 -0.345 -0.0519
-0.106 -0.432  0.475
 0.281 -0.0998  0.421
-0.279 0.0928 -0.0344
 0.281 -0.520 0.0881
 0.121  0.768 -0.0694
 0.104 -0.696 -0.0694
0.0864  0.548  0.440
-0.279  0.355 -0.349
-0.279  0.513  0.123
-0.279  0.285 0.0531
 0.281 -0.257  0.246
 0.281 -0.642  0.246
0.0339 -0.502 -0.475
-0.278  0.584 -0.157
 0.281 -0.590 -0.297
 0.281  0.460 -0.262
 0.281  0.670 -0.139
 0.174 -0.485  0.475
 0.281  0.303  0.228
 0.281  0.250  0.386
 0.139  0.128  0.440
 0.174 -0.696  0.246
 0.191  0.768 -0.174
-0.0536  0.215 -0.440
 0.139  0.250 -0.440
 0.121  0.768  0.141
 0.281 -0.485  0.351
-0.124 -0.696  0.141
-0.315 -0.380 -0.0694
-0.315 -0.187 -0.0344
-0.315 -0.590  0.141
-0.0886 -0.240 -0.475
 0.191 -0.696 -0.192
 0.156 -0.696 -0.402
-0.176 -0.696 -0.174
 0.281  0.600 -0.174
-0.124  0.355  0.440
 0.104 -0.696 -0.349
-0.124  0.768  0.298
-0.124 -0.170  0.475
 0.281 -0.362  0.333
-0.194  0.320  0.440
 0.281  0.338  0.316
 0.281 -0.380 -0.192
 0.281  0.583 -0.349
 0.139  0.145 -0.440
 0.281 -0.310  0.351
-0.315 -0.205 -0.174
 0.281 -0.222 -0.139
-0.176  0.768 -0.262
 0.281  0.548 0.0181
 0.281  0.548 -0.0870
 0.139  0.513  0.440
 0.174 -0.572  0.475
 0.282 -0.152  0.281
 0.281 -0.0823  0.316
-0.0186  0.513  0.440
0.0689 -0.415  0.475
-0.0711 -0.696 -0.384
 0.281 -0.0298 -0.174
 0.281 -0.0298  0.158
-0.124  0.110  0.440
-0.211  0.768 0.000613
-0.0536 -0.696 0.000611
 0.104 -0.696 0.0881
 0.281  0.268 0.0356
-0.0711 -0.696  0.316
-0.0536  0.768  0.228
0.0689 -0.520  0.475
-0.00110  0.163 -0.440
0.0164 -0.257 -0.475
-0.0361 -0.696  0.193
0.0689 -0.362 -0.475
-0.00113  0.583  0.440
 0.191 -0.696 0.0181
 0.156  0.768 0.0181
0.0164 -0.696 -0.0344
0.0514 -0.696 0.0356
-0.0886  0.768 -0.349
-0.0186  0.268  0.440
 0.281  0.408 -0.0344
-0.124  0.583  0.440
 0.281 -0.152 0.0531
0.0864  0.478 -0.440
-0.315 -0.135 -0.0869
 0.281  0.355 0.0881
-0.279  0.670 0.0706
-0.159  0.769  0.193
 0.282 -0.222  0.176
 0.281 -0.660  0.351
-0.124 -0.696 -0.279
 0.281  0.268 -0.210
 0.281  0.425  0.158
 0.281  0.250 -0.279
 0.139 -0.696 -0.279
 0.139  0.390 -0.440
 0.281  0.110 -0.122
-0.00110  0.670 -0.440
 0.156  0.768  0.263
-0.0361  0.768  0.421
 0.156 -0.696  0.176
 0.139 -0.696  0.333
-0.315 -0.485 -0.192
 0.281  0.408  0.298
 0.139  0.768 -0.402
-0.176 -0.432 -0.475
 0.281  0.373 -0.384
 0.281 -0.572 -0.174
 0.281 -0.397  0.263
-0.194 -0.362 -0.475
 0.281 -0.520  0.193
 0.281  0.530  0.368
 0.226  0.198  0.440
 0.226 -0.607 -0.475
 0.139 -0.292  0.475
 0.209 -0.432 -0.475
 0.209  0.443 -0.440
-0.314 -0.102  0.106
-0.279 0.0578 0.0356
 0.281 0.00524 0.0881
 0.281 -0.520  0.421
-0.0886  0.768 -0.0169
-0.124 -0.502  0.475
-0.315 -0.555 0.0706
-0.277  0.408  0.263
-0.0886 -0.0998 -0.475
0.0164 0.0227  0.440
0.0514  0.233  0.440
-0.141  0.768 0.0706
 0.281  0.670 -0.314
-0.281 -0.696 -0.297
-0.141 -0.572  0.475
-0.280  0.513 -0.262
-0.277  0.705 0.0180
 0.261 -0.222 -0.475
 0.281  0.128  0.386
 0.244  0.460  0.440
 0.244 -0.292  0.475
 0.281  0.355  0.403
-0.279  0.163  0.228
-0.314 -0.260 0.0181
 0.281 -0.415  0.455
-0.234  0.270  0.437
0.0514 -0.590  0.475
 0.281 -0.117 -0.437
-0.315 -0.624  0.211
-0.229 -0.0998 -0.475
-0.159 -0.117 -0.475
-0.300 -0.432  0.442
-0.255  0.706  0.430
-0.283  0.248 -0.251
 0.273 0.0753  0.440
 0.261 -0.170  0.475
-0.246 -0.362  0.475
 0.281 -0.677 -0.139
-0.315 -0.469 -0.349
-0.00111 -0.0390 -0.470
-0.314 -0.102 -0.174
-0.281 -0.636 -0.473
 0.156 -0.709  0.440
 0.280 -0.613  0.475
-0.224  0.711 -0.439
-0.311 -0.0844 -0.262
-0.326 -0.185 -0.295
 0.274 -0.696  0.176
-0.277  0.566  0.383
-0.278  0.178 -0.139
-0.268 -0.257  0.472
-0.323 -0.330  0.334
-0.284 -0.0301 -0.349
 0.279 -0.753  0.395
-0.279  0.653 -0.0869
-0.285  0.740  0.117
-0.277  0.285  0.383
 0.286 -0.697  0.403
-0.317 -0.0434 -0.157
-0.307 -0.205  0.430
 0.191 -0.117  0.475
-0.278 -0.0155  0.123
-0.279 0.0928  0.106
-0.279  0.618 0.0881
 0.281 0.0227 -0.104
 0.281 0.0227  0.368
-0.0361 -0.327  0.475
 0.281  0.285  0.141
-0.279  0.478 -0.0694
 0.104  0.768 0.0531
-0.0186  0.705  0.440
 0.281 -0.310  0.106
 0.281  0.110  0.193
 0.281 -0.152  0.228
-0.229  0.768  0.281
-0.279 0.0400  0.228
 0.281 -0.502  0.298
-0.279  0.425 -0.122
 0.121 0.0227  0.440
-0.211 -0.222 -0.475
-0.279  0.443  0.176
 0.281 -0.222 -0.262
-0.279 0.0753  0.158
-0.0361 -0.696 -0.192
-0.211 -0.450  0.475
-0.211 -0.625  0.475
-0.124  0.768  0.123
-0.124 -0.537 -0.475
 0.156  0.768 -0.122
-0.00111 -0.415 -0.475
0.0164 -0.415  0.475
 0.281 -0.117 -0.104
-0.106 -0.696 -0.0169
0.0689  0.110 -0.440
-0.00109  0.768 -0.332
 0.281 -0.572 -0.0169
 0.281  0.618 0.0881
0.0514 -0.696  0.438
-0.0711 -0.467 -0.475
-0.315 -0.327 -0.0694
-0.176 -0.696  0.246
-0.229 -0.696 -0.0519
-0.0711  0.513  0.440
 0.226  0.145  0.440
 0.281  0.128 -0.0169
-0.315 -0.292  0.228
-0.0361 -0.537  0.475
 0.281 -0.362  0.193
-0.311 -0.0844  0.298
-0.141 -0.696  0.351
0.0864 -0.696 -0.244
 0.281  0.548  0.176
-0.176 -0.485 -0.475
 0.281 -0.625 -0.0694
 0.281 -0.380 0.0531
 0.281 -0.275 -0.227
 0.281  0.180 -0.279
-0.229 -0.537 -0.475
-0.297  0.760 -0.349
 0.156  0.635 -0.440
 0.281 -0.117 -0.262
-0.0536  0.768 -0.244
 0.281  0.635  0.386
-0.0711  0.768  0.298
-0.0536 -0.696 0.0531
-0.0186 -0.467  0.475
-0.0186 -0.696  0.123
 0.281 0.0402  0.246
-0.106  0.768 -0.297
 0.281 0.0227 -0.402
-0.315 -0.292  0.123
-0.106  0.110 -0.440
-0.159  0.180 -0.440
 0.281 -0.170 -0.0694
 0.281 -0.572 -0.122
-0.141 0.0578 -0.440
 0.281 0.0227 -0.227
-0.106 0.0577  0.440
-0.229 -0.696  0.123
-0.279  0.233 -0.0694
-0.124  0.705  0.440
-0.0711  0.653  0.440
 0.209 -0.222  0.475
-0.315 -0.345  0.158
 0.226  0.768 0.0881
-0.305 -0.609  0.435
-0.00110 -0.695  0.470
-0.315 -0.607 -0.349
-0.176 -0.678  0.486
-0.278  0.705  0.333
 0.281  0.705 -0.367
 0.104  0.726  0.445
-0.159  0.768  0.421
 0.121  0.726 -0.445
 0.226  0.726  0.446
 0.281  0.198  0.403
-0.258  0.478  0.416
-0.277 0.00518 -0.0694
-0.276 -0.152 -0.466
-0.311 -0.241 -0.417
 0.110 -0.0296  0.457
-0.319 -0.0481 0.0881
-0.283  0.321  0.318
-0.267 -0.698  0.318
-0.279  0.250 -0.349
-0.275 -0.765 -0.404
0.0339 -0.607 -0.475
 0.283 -0.679 -0.367
-0.314 -0.432 -0.0694
-0.314 -0.432  0.386
-0.194  0.425  0.440
 0.281  0.583 -0.402
 0.281 -0.397 -0.437
-0.279  0.567 0.0356
 0.280 -0.292 -0.473
-0.279  0.145 -0.332
-0.312 -0.0678 -0.425
 0.281 -0.572 -0.420
 0.281  0.755 -0.436
-0.307 -0.566 -0.430
 0.244  0.390 -0.440
-0.315 -0.187  0.368
-0.283  0.481  0.336
-0.277 0.0228 -0.382
-0.314 -0.449 0.0181
-0.280  0.768 -0.0519
-0.229  0.760  0.467
-0.314 -0.225  0.316
-0.302 -0.826  0.475
 0.180 -0.0296  0.457
-0.278  0.213  0.316
-0.271  0.396 -0.395
-0.280  0.724 -0.139
-0.319 -0.167 -0.242
0.0397 -0.688 -0.480
-0.277  0.408 0.0706
 0.281 -0.607  0.368
 0.281  0.460 -0.157
 0.281 -0.240 -0.315
 0.281 -0.170 -0.174
-0.106 -0.415 -0.475
0.0514  0.408  0.441
-0.00114  0.390  0.440
0.0689  0.355 -0.440
-0.279  0.320  0.106
-0.00111 -0.170 -0.475
-0.00110  0.460 -0.440
 0.281  0.233 0.000565
 0.281 -0.0823  0.368
-0.0361 -0.275 -0.475
-0.246 -0.696 0.0181
-0.279  0.145 0.0181
 0.281 0.0577  0.158
 0.156  0.653  0.440
 0.104  0.618  0.440
 0.281  0.688  0.193
 0.281  0.233  0.158
 0.139  0.768 -0.262
 0.281 -0.485 -0.244
-0.176  0.548 -0.440
 0.156  0.460  0.440
 0.226  0.768  0.368
 0.281  0.390 -0.279
 0.226 -0.327 -0.475
-0.159 -0.135  0.475
 0.281  0.163 -0.227
0.0689 -0.222  0.475
 0.139 -0.696  0.281
 0.139 -0.152  0.475
-0.194 -0.696 -0.314
 0.139  0.768  0.316
 0.281  0.425  0.386
 0.174  0.495 -0.440
 0.281  0.110 -0.332
-0.141  0.198  0.440
-0.279  0.478 0.0881
-0.0886 -0.696  0.176
-0.124 -0.696 -0.174
-0.279  0.163 -0.0869
-0.0886 -0.362 -0.475
0.0689  0.768  0.246
 0.104  0.768  0.386
0.0339 -0.696 -0.367
-0.315 -0.520 -0.0519
-0.176  0.768 -0.0344
-0.0186  0.618 -0.440
0.0164  0.768  0.333
-0.315 -0.537 0.000580
0.0689  0.495  0.440
-0.279  0.495 0.0181
 0.281  0.460 0.0881
 0.281 -0.0648  0.228
-0.0711 -0.362  0.475
0.0339  0.768  0.141
-0.0536  0.285 -0.440
-0.00109 -0.696  0.281
-0.0711 -0.187 -0.475
 0.281 -0.467 0.0881
 0.281  0.320 -0.0344
-0.0886  0.618 -0.440
-0.0886  0.478 -0.440
-0.0361 -0.590 -0.475
 0.281  0.530 0.0881
 0.281 -0.660 -0.0344
 0.281  0.688 -0.0519
 0.281 -0.0823 -0.402
-0.0711  0.198  0.440
-0.106 -0.696 0.0881
0.0514  0.443 -0.440
-0.315 -0.572 -0.0869
 0.281  0.425 -0.192
 0.281 -0.0473  0.281
 0.281  0.565 -0.139
 0.281  0.495  0.193
 0.191  0.548 -0.440
 0.281  0.513  0.281
-0.264 -0.696 -0.104
 0.281  0.618 -0.244
-0.264 -0.696 -0.244
 0.281 -0.607 -0.210
 0.139 -0.187 -0.475
 0.281  0.285  0.281
-0.176  0.768 -0.174
 0.121 -0.397  0.475
 0.281 -0.467  0.176
 0.156  0.338 -0.440
 0.209 -0.327  0.475
 0.281 -0.450  0.281
-0.315 -0.310 -0.157
 0.209  0.355  0.440
 0.139  0.215  0.440
 0.226 -0.696 -0.227
 0.281 -0.257  0.333
 0.209  0.233 -0.440
-0.315 -0.572 -0.157
-0.315 -0.520  0.211
-0.106  0.548 -0.440
 0.139 -0.0998 -0.475
 0.209 -0.0998 -0.475
-0.277  0.408 -0.262
-0.176  0.285 -0.440
 0.139 0.00540 -0.440
 0.226  0.285  0.440
 0.261 -0.712  0.485
 0.239 -0.700  0.329
-0.315 -0.555 -0.367
 0.121 -0.678 -0.484
-0.307 -0.327  0.431
-0.319 -0.670 0.000581
-0.254 0.0267 -0.427
-0.0886 -0.644 -0.478
-0.315 -0.397 -0.262
 0.281  0.705 0.0706
 0.186  0.765  0.463
 0.260  0.769 -0.279
-0.301 -0.826 -0.473
-0.279  0.547  0.158
-0.264 -0.712  0.485
-0.315 -0.502 -0.244
-0.281 0.0749 -0.333
0.0514  0.754  0.464
-0.287  0.662  0.246
-0.277 0.00518 0.0181
-0.195 -0.713  0.440
-0.314 -0.102 -0.332
 0.191 -0.0152 -0.445
-0.106 -0.0424 -0.481
-0.315 -0.117 -0.227
-0.277  0.320 -0.382
-0.211  0.513 -0.440
-0.258 -0.286 -0.474
-0.314 -0.242 -0.0694
-0.280  0.724  0.228
-0.310 -0.0400  0.316
-0.292  0.765  0.421
 0.156 -0.694  0.485
-0.258  0.233 -0.415
-0.242 -0.748  0.445
 0.279  0.764  0.415
-0.230  0.223  0.437
-0.0186 -0.695 -0.469
-0.321 -0.580  0.328
 0.231 -0.828  0.457
-0.293 -0.152  0.451
 0.274 -0.485 -0.474
 0.281  0.740  0.263
 0.281 -0.642  0.123
 0.281  0.723 -0.174
-0.264 -0.678 -0.484
 0.226  0.338 -0.440
-0.209 0.0240  0.441
-0.280  0.724 0.0706
-0.223  0.357  0.440
-0.194 -0.678 -0.484
-0.280  0.769  0.368
-0.258 0.0753  0.416
-0.208 -0.741 -0.447
 0.211 -0.731  0.441
-0.284  0.741 -0.390
-0.246  0.768 -0.419
 0.230 -0.742 -0.483
-0.319 -0.675 -0.139
 0.209  0.726 -0.445
 0.244  0.768  0.193
-0.264  0.768 -0.122
 0.191 -0.702 -0.432
-0.0711  0.768 -0.437
 0.261 -0.537 -0.475
-0.194 -0.0387  0.471
-0.290  0.654  0.165
-0.271  0.408  0.396
 0.280 -0.0700  0.478
 0.254 -0.753 -0.391
-0.299 -0.786 -0.443
-0.276 -0.397 -0.466
-0.254 -0.825  0.457
 0.280 -0.824 -0.460
-0.317 -0.0434 -0.104
-0.275 -0.0180  0.421
-0.315 -0.310 -0.227
 0.280  0.279  0.439
-0.321 -0.176 -0.339
 0.244 -0.782 -0.468
-0.211  0.198 -0.440
-0.287 0.0648 -0.290
-0.294 -0.718 -0.343
-0.123 -0.688  0.481
-0.106 -0.696  0.438
-0.265  0.472 -0.406
-0.280  0.724  0.158
-0.303 -0.772  0.429
-0.258  0.600  0.416
-0.284  0.630 -0.159
 0.244  0.769 -0.402
 0.276 -0.714 -0.484
0.0514 -0.688  0.481
 0.261 -0.0390 -0.470
-0.284  0.494 -0.213
-0.282  0.445  0.312
 0.191  0.768 -0.437
-0.0186  0.726 -0.445
-0.313 -0.644 -0.436
 0.240 -0.730 -0.432
-0.233  0.655  0.437
 0.245 -0.713  0.420
-0.319 -0.0481  0.193
-0.319 -0.670 -0.279
-0.315 -0.275 -0.332
-0.279  0.705 -0.210
 0.244  0.768 -0.174
-0.280  0.725 -0.279
-0.176  0.742  0.454
 0.226 -0.696 -0.297
 0.230 -0.742  0.484
-0.283  0.248  0.292
 0.279  0.764  0.170
-0.264  0.768 -0.209
-0.283  0.249 -0.300
-0.211 -0.702 -0.432
-0.298 -0.0389 -0.244
-0.281 -0.0763  0.477
 0.281  0.268 -0.419
 0.273 -0.828  0.426
 0.283 -0.697 -0.317
 0.279  0.764  0.327
-0.276 -0.537 -0.466
 0.281 -0.205  0.438
-0.268 -0.193 -0.471
-0.312 -0.537  0.418
-0.312 -0.729  0.372
-0.293  0.752 0.0414
-0.322 -0.570 -0.314
-0.246 -0.152  0.475
-0.279  0.145 -0.279
-0.279  0.233  0.367
-0.258  0.373  0.416
-0.285  0.280  0.224
 0.273  0.180  0.440
 0.281 -0.467  0.468
 0.279  0.764 -0.0928
-0.258  0.128  0.416
-0.293 -0.275 -0.449
-0.311 -0.0844  0.176
-0.279  0.250  0.193
 0.244 -0.696 -0.104
0.0864 -0.0635 -0.481
 0.274 -0.380 -0.474
-0.124  0.726 -0.445
-0.313 -0.0687 -0.00523
0.0514 -0.0152 -0.445
 0.174 -0.0635 -0.481
-0.194 -0.0424 -0.481
-0.0361 -0.0999  0.475
 0.274 -0.782  0.455
 0.281  0.443  0.433
-0.314 -0.432 -0.297
-0.314 -0.432  0.333
0.0397 -0.0295  0.457
-0.280  0.724 -0.332
0.0164 -0.0807 -0.477
-0.321 -0.580 -0.267
-0.283  0.499  0.231
 0.281  0.110 -0.402
-0.307 -0.129 -0.429
-0.315 -0.697 -0.373
 0.280 -0.170 -0.473
 0.289 -0.715 -0.437
-0.314 -0.225 -0.139
 0.286 -0.697  0.456
-0.278  0.213 -0.227
0.0164 -0.625  0.475
-0.124 -0.644  0.479
-0.0478 -0.0293  0.457
-0.279  0.567 -0.262
-0.278  0.213 -0.0344
-0.316 -0.643  0.333
-0.169 -0.717  0.479
-0.314 -0.449 -0.139
-0.286 -0.467  0.460
-0.316 -0.135  0.298
 0.280 0.0402 -0.438
-0.279  0.567  0.123
 0.244 0.0753 -0.440
-0.279  0.320 -0.192
-0.316 -0.643 -0.367
 0.281  0.670 -0.419
 0.280  0.233 -0.438
-0.246 -0.0166 -0.445
-0.314 -0.413 -0.104
 0.261  0.128 -0.440
-0.281 -0.696  0.281
-0.278  0.584 -0.0694
-0.256  0.733 -0.444
-0.317 -0.685  0.391
-0.264 -0.730 -0.485
 0.226 -0.0807  0.477
 0.121 -0.661  0.484
-0.323 -0.371  0.288
-0.278  0.213  0.106
-0.0886 -0.0807  0.477
 0.174 -0.0807  0.477
-0.278  0.213 -0.157
-0.284 -0.0298 -0.139
-0.279  0.355  0.176
-0.0536 -0.661 -0.482
-0.313 -0.449  0.264
-0.277  0.653 0.0180
-0.277  0.408 -0.0869
 0.281 0.0577  0.403
-0.124 -0.0807 -0.477
 0.281  0.163  0.246
-0.194  0.768  0.351
 0.121  0.768 -0.297
 0.281  0.233  0.106
-0.315 -0.502 -0.139
 0.121 -0.696 -0.419
0.0864  0.768 -0.367
 0.281  0.250 -0.174
 0.281  0.320 -0.227
 0.281 -0.485 -0.384
 0.226 -0.485  0.475
 0.281 -0.327 -0.104
-0.176 -0.257 -0.475
 0.191  0.145 -0.440
0.0864 -0.696  0.246
-0.315 -0.152  0.193
 0.281 -0.275  0.211
 0.281 -0.345  0.141
 0.281  0.548 -0.262
 0.281  0.233  0.211
 0.281  0.478  0.351
 0.121 -0.520 -0.475
-0.279  0.145  0.123
-0.315 -0.187  0.158
 0.174 -0.450 -0.475
-0.141  0.768 -0.367
-0.229 -0.696  0.403
-0.194 -0.696 -0.262
 0.121 -0.380 -0.475
 0.281  0.600  0.158
-0.159 -0.572 -0.475
 0.281 -0.187  0.351
 0.281  0.583  0.333
 0.281  0.583  0.211
 0.281  0.425  0.263
 0.281 -0.432  0.351
-0.176  0.688 -0.440
 0.281 -0.572  0.263
-0.0537  0.769 0.0181
-0.0536 -0.432  0.475
-0.00111 -0.362 -0.475
-0.279 0.0403 -0.139
-0.0711 0.0927  0.440
 0.191 -0.696 0.0706
 0.281  0.390 0.0356
 0.281  0.600 -0.0694
-0.00109 -0.696  0.386
-0.0186 -0.696 -0.279
 0.281 -0.0648 -0.262
0.0689  0.768 -0.139
 0.281 0.0577 -0.315
0.0339  0.180  0.440
 0.281 -0.555 0.0531
-0.194 -0.135 -0.475
 0.282 -0.327 0.0181
-0.278  0.584 0.000586
 0.281  0.338 -0.104
-0.279 0.0928 -0.157
 0.281  0.145 -0.0694
 0.104 -0.275 -0.475
0.0864  0.768 -0.0869
-0.277  0.373 -0.0519
 0.281 -0.0823 -0.0694
-0.0186  0.338  0.441
 0.281  0.163  0.158
 0.281 -0.555 -0.314
-0.315 -0.380 -0.227
 0.104 -0.696  0.421
 0.281  0.705 -0.227
 0.174 -0.310 -0.475
-0.314 -0.242 -0.297
 0.281 -0.170 -0.367
 0.281 -0.537  0.158
-0.279  0.460 -0.192
 0.281 -0.170 -0.227
-0.314 -0.225 -0.209
 0.281 0.0752  0.211
-0.141  0.768 -0.192
 0.226 -0.696  0.263
 0.209 -0.432  0.475
 0.281 -0.275 -0.332
 0.281  0.390  0.141
 0.281 -0.380  0.158
-0.124  0.460 -0.440
-0.106  0.408  0.440
 0.191  0.768 -0.0869
-0.194  0.768 -0.0869
 0.104  0.530 -0.440
-0.00112  0.769 0.000577
-0.194  0.583  0.440
0.0514 -0.310  0.475
0.0514  0.768 -0.0169
0.0339  0.215 -0.440
-0.141 -0.310  0.475
 0.281 0.0927 0.0531
-0.211  0.768 0.0881
-0.277  0.408 -0.0169
-0.106 -0.696 -0.367
-0.315 -0.572 0.0356
-0.0186  0.163  0.440
0.0164  0.495  0.440
 0.281  0.303 0.000565
-0.0186 -0.222  0.475
0.0164 -0.257  0.475
-0.0186 -0.696 -0.419
0.0164  0.768 0.0706
 0.281 -0.0473 0.0531
 0.281 -0.0123 -0.0169
-0.229  0.768 0.0356
 0.261 -0.696 -0.0344
 0.281  0.635 0.000565
-0.0186  0.768 -0.262
0.0164  0.768  0.193
0.0514  0.768 -0.104
-0.0536  0.768 0.0706
 0.281  0.320 0.0531
 0.282 -0.397 -0.0519
-0.141 -0.170 -0.475
-0.315 -0.502  0.106
-0.0886  0.233 -0.440
0.0164  0.768 -0.419
 0.281 -0.485 0.0531
-0.00109 -0.696  0.228
-0.211 -0.696 -0.0169
 0.281  0.163 0.0356
-0.211 -0.696 -0.0869
-0.315 -0.135 0.0181
 0.281 -0.415 0.0181
-0.314 -0.242 0.0531
-0.0711 -0.310  0.475
 0.281 -0.0823  0.123
-0.0886  0.768 -0.122
-0.0711 -0.696 -0.262
0.0339 -0.696  0.298
-0.0361 -0.696  0.298
 0.281 -0.520 -0.0344
 0.281 -0.415 0.0881
 0.226 -0.135  0.475
-0.176 0.0927  0.441
-0.0711 -0.696 -0.0869
 0.281 -0.0123 -0.244
 0.104 -0.696 0.000611
 0.281  0.478 -0.0869
-0.0886  0.303  0.440
 0.281  0.233 -0.104
 0.281 -0.117  0.193
0.0164 -0.696 0.0881
-0.0186 -0.696 -0.0169
0.0689 -0.696 0.0706
 0.281 0.0402 -0.0169
0.0164 -0.696 0.0181
 0.281 -0.0648 0.0181
 0.281 -0.467 -0.104
0.0689  0.443  0.441
-0.279 0.0753 0.000609
 0.282 -0.590 -0.349
0.0689 -0.170 -0.475
-0.315 -0.205 0.0881
0.0864 -0.696 -0.174
0.0514  0.768 -0.244
 0.281 -0.0823 0.0706
0.0864 0.0577  0.440
-0.141  0.145  0.441
 0.281 0.0577 -0.0870
 0.174  0.565  0.440
 0.281 -0.520 -0.262
 0.281  0.723  0.228
 0.281 -0.625  0.211
 0.281  0.723  0.106
 0.281 -0.292 -0.419
 0.281 0.0227 0.0531
-0.0186  0.768 -0.0694
-0.279  0.567  0.298
-0.264  0.768 -0.262
-0.124  0.768  0.211
-0.176 -0.485  0.475
 0.281 -0.397 -0.122
 0.281 -0.0473  0.333
 0.281 -0.677  0.228
 0.281 -0.292  0.141
 0.281 -0.502 -0.174
0.0689  0.303 -0.440
-0.124  0.303 -0.440
0.0864  0.670 -0.440
-0.159  0.635 -0.440
 0.281  0.635 -0.157
 0.281  0.548 -0.315
 0.281  0.635  0.123
 0.104  0.583 -0.440
-0.314 -0.225  0.228
 0.104 -0.607 -0.475
-0.141  0.768 -0.419
 0.281  0.425 -0.244
-0.279  0.495  0.158
 0.281 -0.292  0.386
 0.281 -0.572  0.106
 0.281  0.478 -0.349
 0.281 -0.590  0.403
 0.281 -0.642 -0.192
-0.176 -0.275  0.475
 0.281  0.635 -0.332
 0.191  0.600 -0.440
 0.121  0.180 -0.440
 0.281 -0.257 -0.122
 0.281 -0.152  0.438
 0.104  0.233 -0.440
 0.281 -0.240  0.281
 0.156 -0.327  0.475
 0.191  0.768  0.211
 0.281  0.303  0.176
 0.281  0.163  0.106
 0.156  0.373  0.440
 0.281 0.0927  0.123
-0.159  0.670  0.440
-0.124 -0.327 -0.475
 0.104  0.373 -0.440
-0.124  0.268  0.440
-0.141 -0.397  0.475
 0.281 -0.152 -0.419
 0.121  0.768  0.421
 0.104  0.768  0.176
 0.281 -0.135  0.141
 0.104 -0.696  0.351
-0.106  0.768  0.333
 0.281  0.355 -0.244
 0.191 -0.696  0.193
-0.194  0.268  0.440
 0.281 -0.415 -0.384
-0.0711 -0.135  0.475
 0.209  0.425  0.440
 0.191 -0.520 -0.475
-0.211 -0.696  0.211
 0.121  0.355  0.440
-0.279  0.285  0.141
-0.141  0.145 -0.440
 0.281  0.443  0.193
 0.281 -0.415 -0.174
 0.226 -0.187 -0.475
 0.281 -0.450 -0.349
 0.281  0.320 -0.297
-0.159 -0.696  0.193
-0.277  0.408 -0.314
 0.281  0.233 -0.349
 0.281 -0.362 -0.332
 0.281  0.285  0.333
 0.174 -0.696  0.386
 0.139 -0.696  0.141
 0.139 -0.240 -0.475
-0.277  0.408  0.158
 0.281 -0.257 -0.192
-0.176 -0.187 -0.475
 0.281 -0.152 -0.297
 0.281 -0.467 -0.437
 0.281 -0.432  0.228
 0.281 -0.327 -0.402
 0.281  0.303 -0.139
-0.279 0.0928 -0.104
 0.174  0.110  0.440
 0.281  0.145  0.351
-0.229  0.768  0.193
-0.141 -0.502 -0.475
 0.281  0.408 -0.349
 0.191 -0.397  0.475
 0.281 -0.345 -0.174
 0.281 0.0927 -0.297
 0.139  0.768 -0.157
-0.229  0.768 -0.157
 0.281 0.0927  0.281
 0.156  0.285 -0.440
 0.121 -0.257  0.475
-0.315 -0.170 -0.157
 0.281  0.688 -0.104
-0.124 -0.696 -0.104
 0.244  0.215 -0.440
 0.281  0.495  0.246
 0.244 -0.696 -0.157
-0.141  0.215 -0.440
 0.281  0.670  0.281
 0.281  0.583 -0.279
 0.226  0.513  0.440
 0.281 -0.310 -0.244
 0.156 -0.520  0.475
-0.159  0.513  0.440
 0.281 -0.520  0.333
 0.244  0.688 -0.440
 0.281 -0.275 0.0181
-0.279 0.0578  0.193
 0.281  0.740 -0.0519
 0.281 -0.660 0.0181
0.0339  0.390 -0.440
0.0339  0.145 -0.440
 0.281  0.653 -0.0870
 0.281  0.478 0.0181
0.0689 -0.696  0.176
-0.176 0.0753 -0.440
 0.244 -0.696 0.0531
-0.315 -0.502 0.0356
0.0689 -0.696 -0.332
-0.315 -0.310 -0.104
-0.106 -0.696  0.333
-0.00114 -0.135  0.475
-0.194 -0.696  0.106
-0.106  0.408 -0.440
 0.281  0.723 0.0181
-0.0536  0.768 -0.402
 0.281 0.00524  0.281
-0.0361  0.233  0.440
-0.124 0.0228  0.440
-0.0186  0.495 -0.440
 0.281 -0.310 -0.0344
0.0164 -0.696 -0.122
-0.0536 -0.696  0.438
-0.0536  0.618  0.440
 0.281  0.653 0.0531
-0.264 -0.696 0.0531
 0.139 -0.696 -0.0869
0.0514 -0.380  0.475
-0.315 -0.152 -0.0169
-0.279 0.0753 0.0706
 0.281 -0.0823 -0.297
-0.279  0.128 -0.0169
-0.0711  0.425  0.440
-0.00110  0.285 -0.440
0.0339  0.768  0.281
 0.281  0.425 0.0706
0.0514 -0.696  0.211
0.0514 -0.696 -0.262
-0.00111 -0.292 -0.475
-0.0361  0.180 -0.440
-0.0887 -0.257  0.475
 0.281  0.583 0.0531
 0.281  0.513 -0.0169
 0.281 -0.625 0.0881
-0.0361 -0.450 -0.475
-0.315 -0.362 0.0181
-0.0361  0.768  0.141
-0.279  0.285 -0.0169
 0.281 -0.117  0.298
-0.00113  0.110  0.440
 0.281 -0.222 0.000565
 0.281 -0.152 0.000565
 0.139  0.768 -0.0169
-0.159 -0.696 0.000611
-0.0361 -0.696 -0.104
 0.281 -0.0823 -0.210
 0.281 -0.0473  0.193
 0.209 -0.696 -0.0169
 0.281  0.198 0.0181
 0.281 -0.485 0.000565
-0.0361  0.548  0.440
-0.0186  0.768 -0.157
 0.281 -0.257 0.0706
-0.0711  0.355  0.440
0.0689  0.303  0.440
 0.281 -0.450 -0.0519
-0.315 -0.345 -0.0344
-0.0536 -0.696  0.158
-0.279  0.513 -0.0519
-0.0361 -0.537 -0.475
0.0339  0.268 -0.440
0.0514  0.128  0.440
-0.315 -0.170 -0.0694
-0.0711 -0.696 -0.174
 0.209  0.768 0.0531
-0.176 -0.696 0.0531
-0.00109 -0.696 -0.174
-0.0361  0.768 -0.349
-0.0536 -0.696  0.386
0.0514 -0.572 -0.475
0.0689  0.653  0.440
 0.281 0.0752 -0.139
0.0689  0.618 -0.440
 0.139  0.768 0.0706
-0.0711  0.163 -0.440
-0.279  0.250 0.0706
-0.0711 0.0928 -0.440
-0.0536  0.390 -0.440
-0.106 -0.205 -0.475
-0.00111 -0.362  0.476
-0.159  0.768 0.0356
0.0514 -0.467 -0.475
-0.0536 -0.240  0.475
-0.106 -0.275 -0.475
0.0339  0.768 -0.157
-0.0711 -0.696  0.211
-0.0711  0.768  0.193
-0.106  0.768 -0.157
0.0339 -0.170  0.475
0.0339  0.768 -0.367
0.0339  0.653 -0.440
 0.281  0.443 -0.0169
0.0689 -0.0998 -0.475
0.0164  0.320  0.440
-0.159  0.768 -0.104
-0.279  0.110 -0.0694
-0.0886  0.600  0.440
0.0689 -0.696 -0.209
 0.281 -0.117  0.386
 0.191 0.0577  0.440
0.0864 -0.696  0.123
 0.281 -0.135 -0.139
-0.246  0.769  0.403
-0.141  0.769  0.158
 0.244  0.769  0.438
 0.281 -0.660 -0.297
-0.159  0.768  0.106
 0.281  0.513 -0.227
 0.281 -0.187  0.263
 0.281 -0.0648  0.438
 0.281  0.250 0.0706
0.0864 -0.572  0.475
 0.281 -0.310 -0.315
 0.281 -0.380  0.228
 0.104  0.768  0.333
-0.279  0.338 -0.122
 0.281  0.355 -0.157
 0.281 -0.327  0.211
 0.281  0.163  0.298
 0.281 -0.345  0.368
-0.315 -0.327  0.193
 0.174 -0.696 -0.122
 0.281  0.180 -0.384
-0.176 -0.696  0.333
 0.281  0.355  0.193
 0.156  0.768  0.123
-0.279  0.163  0.176
-0.176 -0.415  0.475
 0.104 -0.327  0.475
 0.281 -0.310  0.263
0.0864  0.215  0.440
-0.314 -0.260 -0.244
 0.281  0.110 -0.244
 0.226 -0.380 -0.475
-0.277  0.373  0.246
-0.277  0.390  0.106
 0.121  0.768  0.246
-0.246 -0.696 -0.174
 0.174 -0.572 -0.475
-0.277  0.390 -0.192
 0.121 -0.696 -0.314
-0.229  0.768 -0.332
-0.279  0.145 -0.174
 0.281 -0.590  0.333
 0.281  0.320  0.123
 0.281 -0.397 -0.227
 0.139 -0.696 -0.157
 0.191 -0.537  0.475
 0.104  0.128 -0.440
 0.121  0.425  0.440
-0.141  0.768  0.263
-0.124 -0.696  0.263
-0.124 -0.696  0.386
-0.159 -0.187  0.475
 0.209 -0.240 -0.475
-0.194 -0.696  0.281
-0.176 -0.696 -0.349
-0.159 -0.696 -0.297
-0.124 -0.607 -0.475
 0.174 -0.696 -0.297
-0.176  0.768  0.386
 0.281 -0.240 -0.402
 0.191 -0.696  0.123
-0.229 -0.205  0.475
-0.194  0.768 -0.297
-0.159  0.338  0.440
 0.174  0.768  0.298
 0.281  0.198  0.176
-0.159 -0.345 -0.475
-0.159  0.600  0.440
-0.211 -0.696 -0.384
-0.211  0.768 -0.402
 0.281 -0.450 -0.279
 0.281 -0.502 -0.332
 0.244 -0.415 -0.475
 0.281  0.285 -0.0870
-0.194  0.478 -0.440
 0.244  0.460 -0.440
 0.281 -0.537 -0.104
-0.279  0.653 -0.297
 0.281  0.705 -0.297
 0.281  0.653 -0.279
-0.269 -0.799  0.426
-0.106  0.768 0.0181
-0.267  0.679  0.404
0.0689  0.705  0.440
-0.0711  0.768 -0.0519
-0.106  0.653 -0.440
0.0339  0.768 -0.209
 0.209 0.00538  0.440
-0.194  0.768  0.176
 0.191  0.670  0.440
-0.176 -0.590  0.475
 0.209  0.768  0.176
 0.281  0.303 -0.402
 0.209 -0.590  0.475
-0.211 -0.135  0.475
 0.281  0.478 -0.419
-0.176  0.233 -0.440
 0.281  0.670  0.421
-0.141 -0.696 -0.384
-0.106  0.768 0.0881
0.0164  0.705 -0.440
-0.319 -0.138 -0.318
-0.315 -0.607 -0.0169
 0.244  0.373  0.440
 0.209  0.768  0.123
-0.315 -0.502  0.281
-0.315 -0.397 -0.402
 0.281  0.390 -0.419
-0.277 0.00518 -0.227
-0.0536 0.0402  0.440
-0.176 0.00540 -0.440
-0.277 0.00518  0.298
 0.261 -0.572  0.475
 0.209 -0.696 -0.367
-0.279  0.320  0.210
-0.279 0.0227  0.368
 0.226 0.0402  0.440
 0.226 -0.187  0.475
-0.280  0.513  0.298
-0.316 -0.555  0.298
-0.315 -0.644 0.0545
-0.301 -0.771  0.468
-0.279  0.478 -0.350
-0.319 -0.151  0.355
-0.276  0.602 -0.382
-0.0186 -0.0152 -0.445
-0.264  0.768 0.0181
-0.279  0.530 -0.139
-0.264  0.768 -0.314
-0.260 -0.794 -0.433
-0.315 -0.485  0.386
-0.317 -0.658 -0.209
-0.264 -0.661  0.483
 0.226 -0.678 -0.484
-0.315 -0.485 -0.315
-0.315 -0.485 -0.384
 0.282 -0.694  0.318
-0.315 -0.485 -0.0694
-0.194 -0.0807 -0.477
