ply
format ascii 1.0
element vertex 2048
property float x
property float y
property float z
end_header
-0.247  0.423  0.289
0.0750 -0.770 -0.630
 0.366 -0.335  0.419
 0.297  0.120 -0.393
-0.371 -0.377 -0.0129
 0.365  0.757  0.441
 0.367 -0.767 -0.0470
-0.323 0.0659 -0.450
-0.164 -0.122  0.443
 0.278  0.219  0.320
0.0409 -0.258 -0.633
-0.358 -0.761 -0.371
 0.365 -0.267 -0.0811
-0.0451  0.121 -0.0299
0.0140  0.748  0.206
 0.337 -0.531 -0.410
-0.334 -0.346 -0.432
-0.372 -0.770 0.0661
-0.373 0.0404  0.158
-0.371  0.754  0.440
 0.319  0.100 -0.0214
0.00302  0.109 -0.593
0.0742  0.492  0.443
-0.373 -0.0789 -0.158
 0.160 -0.0704  0.443
 0.320 -0.207 -0.448
-0.143 -0.536 -0.610
-0.0877  0.194  0.443
-0.373 -0.301  0.303
 0.367 -0.0960  0.217
0.0262  0.330  0.209
-0.366  0.140  0.431
0.0174 -0.340  0.442
0.0231  0.121 -0.311
 0.358  0.475  0.426
-0.203 -0.144 -0.579
 0.366 -0.510 0.0483
 0.138 -0.505 -0.610
-0.373 -0.522 -0.235
-0.105  0.722  0.441
-0.106 0.0636  0.220
 0.364 -0.770 -0.318
 0.214  0.603  0.267
-0.233  0.121 -0.200
 0.142 0.0852  0.149
 0.368 -0.0619 -0.243
 0.205 -0.0278 -0.572
-0.205 -0.768 -0.575
 0.368 0.0404  0.438
 0.123  0.755  0.421
 0.365 -0.556 -0.183
 0.365 -0.326  0.192
-0.373 -0.181 0.0980
-0.179  0.637  0.247
-0.371 -0.0789  0.345
 0.257 -0.701 -0.528
-0.360  0.535  0.443
-0.311 -0.562 -0.473
-0.360 -0.141 -0.365
-0.199 -0.334  0.442
-0.373 -0.744 -0.158
 0.365 -0.352 -0.277
 0.117  0.143  0.441
 0.211  0.121 -0.200
0.00563  0.535  0.205
-0.130  0.501  0.441
-0.373 -0.582 -0.0129
-0.373 -0.301 -0.200
-0.360 0.0871 -0.0385
-0.213  0.228  0.264
-0.149 -0.335 -0.606
 0.233  0.408  0.281
-0.185 0.0574 -0.589
 0.219 -0.335 -0.565
-0.318  0.330  0.443
 0.365 -0.104 0.0212
-0.139  0.121 -0.414
 0.338 0.0873  0.175
-0.0280 0.0148  0.443
-0.207  0.121 0.0723
-0.0345 -0.0853 -0.636
 0.185 -0.258  0.443
 0.160  0.322  0.443
 0.367 -0.142  0.442
 0.134  0.123 -0.0385
 0.134  0.123 -0.473
 0.253  0.620  0.441
-0.207 0.0489  0.441
-0.0281  0.356  0.441
 0.253  0.758  0.311
-0.335 -0.207  0.443
-0.373 0.0489 -0.294
 0.362  0.288  0.444
-0.00251 -0.616 -0.640
0.0316 -0.173  0.443
-0.247  0.755  0.335
-0.371 -0.359  0.148
 0.323 -0.369 -0.439
-0.267 0.0642  0.277
 0.340 -0.0534 -0.405
-0.371 -0.215 -0.0641
0.00599 -0.420 -0.637
 0.362 0.0866 -0.193
0.0144  0.177  0.208
-0.233  0.637  0.441
-0.0792  0.123 -0.192
 0.200 -0.181 -0.575
 0.368 -0.420 -0.0811
-0.106  0.407  0.222
-0.371 -0.0619 -0.00438
 0.153  0.253  0.238
-0.251 -0.426 -0.543
 0.367 -0.198 -0.302
-0.299 -0.210 -0.488
-0.285  0.563  0.319
-0.104  0.755  0.293
 0.367 -0.232  0.303
-0.233  0.202  0.443
 0.365 -0.352 0.0467
-0.173  0.356  0.441
 0.258 -0.505 -0.530
-0.365 -0.616 -0.344
 0.367 -0.718 -0.183
 0.262  0.134  0.443
0.0145  0.646  0.441
0.0572  0.121 -0.158
 0.253 0.0851  0.285
 0.365 -0.0193 -0.0896
0.0815 -0.00225 -0.630
-0.258  0.123 -0.337
 0.160  0.121 -0.337
-0.0963 -0.241  0.441
 0.368 -0.207  0.124
-0.0791 -0.770 -0.630
-0.190  0.123 -0.0640
-0.307 -0.0733 -0.479
 0.211  0.484  0.441
 0.335 -0.667 -0.416
-0.368 -0.339  0.442
 0.138 -0.642 -0.608
 0.365 -0.599 -0.0555
0.0316  0.121 0.0809
-0.370 -0.394 -0.311
 0.113  0.432  0.225
-0.371 -0.139  0.226
-0.288 -0.690 -0.503
-0.0110  0.123 -0.448
-0.0865 -0.207 -0.630
 0.367 0.0233  0.285
-0.373 0.0660 -0.166
0.00608  0.773  0.371
-0.335 -0.00225  0.441
 0.254 0.0818 -0.526
-0.0981  0.262  0.220
-0.371 -0.454 -0.115
-0.258  0.458  0.441
 0.149  0.757  0.237
-0.368 -0.261 -0.324
 0.367 0.00629 0.0809
 0.365 -0.156 -0.141
-0.143 -0.664 -0.610
 0.365 -0.590 -0.303
-0.0620  0.646  0.210
0.0813  0.646  0.214
-0.0877  0.123  0.106
-0.323  0.234  0.366
 0.236  0.123 0.0809
-0.373 -0.599 -0.141
 0.113 -0.360 -0.618
 0.253 0.00630  0.443
-0.343 -0.465 -0.411
 0.367 -0.471 -0.286
 0.134  0.628  0.441
-0.373 -0.181 -0.235
-0.251 -0.306 -0.543
 0.277 -0.0960 -0.506
 0.290  0.509  0.335
-0.341  0.651  0.388
-0.233 -0.593 -0.558
-0.140  0.526  0.232
-0.373 -0.701 -0.0470
0.0231  0.236  0.444
-0.372 -0.480 0.0481
 0.365 -0.0875  0.337
 0.367 -0.258 -0.200
 0.303  0.339  0.346
 0.151 0.0875 -0.584
-0.0787 0.0319 -0.631
-0.227  0.121 -0.501
0.0743 -0.147 -0.629
-0.373 0.0489  0.345
-0.258 0.0623  0.158
 0.318  0.680  0.366
-0.0963  0.124 -0.524
-0.373 -0.693 -0.260
-0.371 -0.0705  0.132
-0.373 -0.249  0.200
-0.105  0.123 -0.303
 0.366 0.0858 -0.306
 0.367 -0.671 0.0316
 0.296 -0.241  0.441
 0.312 -0.770 -0.459
 0.366  0.174  0.443
-0.371 -0.0704 -0.269
-0.373 -0.190  0.337
 0.245  0.731  0.443
-0.224 -0.215  0.443
 0.117 0.0318  0.441
-0.0280  0.543  0.443
 0.366  0.617  0.443
-0.274  0.319  0.312
-0.233  0.748  0.443
-0.358 -0.0278 -0.371
-0.328  0.418  0.368
-0.155 -0.0505 -0.603
-0.371 -0.292 0.0637
-0.267 -0.0875  0.441
 0.245  0.123 -0.0981
 0.194  0.219  0.443
 0.262 -0.104  0.443
-0.0464 -0.327 -0.635
-0.373 -0.0278  0.251
-0.0990 -0.441 -0.627
 0.256 -0.340  0.442
 0.141  0.535  0.231
-0.312  0.116 0.0565
 0.290 -0.607 -0.492
 0.365 -0.232 0.0212
 0.176  0.151  0.250
-0.130  0.611  0.441
 0.173 -0.752 -0.596
-0.00223 0.0655  0.206
-0.248 -0.0221 -0.547
-0.181  0.128  0.250
-0.301  0.123 -0.115
 0.365 -0.377 -0.175
-0.130 -0.0193  0.443
-0.0366 -0.0875  0.443
-0.105 0.0830  0.443
 0.351 -0.275 -0.378
 0.321  0.381  0.443
 0.266 -0.257 -0.519
 0.366 -0.767 0.0616
 0.318  0.100  0.366
 0.219 -0.590 -0.565
0.0409 -0.514 -0.633
-0.371 -0.309 -0.0982
-0.264  0.660  0.304
-0.371 -0.104  0.441
 0.230  0.296  0.281
 0.299 -0.00225 -0.485
-0.308  0.123  0.346
-0.0107  0.424  0.206
 0.236 0.0871  0.175
0.0742  0.121 -0.397
 0.287  0.123 -0.260
0.0231  0.117  0.443
0.0913  0.398  0.441
 0.365 -0.0108  0.175
 0.125  0.123 -0.243
 0.253  0.305  0.443
0.0572 -0.0704  0.443
0.0743 -0.258  0.443
-0.105  0.288  0.441
-0.371 0.0318 0.0383
 0.367 -0.514 -0.0981
-0.337 -0.656 -0.426
-0.317 -0.770 -0.462
 0.132 -0.267 -0.610
 0.151 -0.164  0.441
-0.373 -0.403 -0.218
 0.108  0.758  0.328
 0.157  0.347  0.238
-0.0877 -0.334  0.443
 0.215 -0.428 -0.564
-0.0535 -0.522 -0.634
-0.166 -0.244 -0.601
 0.142  0.121 0.0638
-0.309  0.123 -0.260
 0.343 0.0404 -0.398
 0.134 -0.334  0.443
0.0401  0.123 -0.0640
 0.287  0.535  0.443
 0.367 -0.684 -0.0981
-0.104  0.168  0.219
-0.367  0.253  0.443
 0.321 0.0851 0.0809
-0.0114 -0.710 -0.637
 0.215  0.501  0.271
-0.0621  0.441  0.443
 0.347 -0.147 -0.386
 0.282 -0.420 -0.501
 0.330 -0.0449  0.443
-0.130  0.121 0.00414
 0.354 -0.428 -0.364
0.0816 0.0995  0.213
 0.156 -0.0960 -0.601
-0.361 0.0605  0.251
-0.371 -0.156 0.0127
 0.142  0.123 -0.132
-0.202  0.751  0.259
-0.186  0.370  0.253
-0.228  0.512  0.274
 0.367 -0.00225 -0.310
-0.180 -0.448 -0.593
 0.366 -0.413  0.110
-0.190  0.121 -0.277
-0.267  0.121 -0.0214
-0.371 -0.0193 -0.0811
 0.365 0.0233 -0.0129
 0.365 -0.642 -0.226
 0.282  0.611  0.325
-0.311 -0.417 -0.476
 0.367 0.0744 -0.0896
 0.236  0.398  0.443
-0.241  0.543  0.441
 0.366 -0.315  0.328
 0.367 -0.249  0.388
-0.372  0.398  0.443
 0.362 -0.683 -0.322
0.0316  0.731  0.441
-0.146  0.755  0.373
-0.0713  0.731  0.213
 0.365 -0.0875  0.132
 0.228  0.121 -0.00438
 0.367 -0.164 -0.0555
-0.0366  0.121 -0.115
-0.373 -0.190 -0.149
 0.365 -0.463 -0.183
-0.364 -0.505 -0.338
0.0828  0.121 -0.541
-0.147  0.121 -0.141
 0.365 -0.207  0.209
-0.370 -0.00225 -0.218
-0.251 -0.511 -0.543
 0.279  0.219  0.443
 0.202  0.123 -0.422
-0.0536  0.123 -0.371
-0.327  0.734  0.370
-0.292  0.100  0.443
 0.314  0.432  0.362
-0.337 -0.247 -0.422
-0.267 -0.136 -0.524
-0.284 -0.275  0.441
 0.368 -0.00224 -0.183
 0.151  0.543  0.441
 0.194  0.758  0.371
 0.365 -0.292  0.115
 0.367 -0.428 0.0127
-0.355 0.0752 -0.372
0.00558 0.0319 -0.639
-0.274  0.191  0.312
-0.328  0.512  0.368
-0.156 0.0878  0.158
-0.238 -0.215 -0.554
 0.191  0.688  0.256
-0.213 -0.684 -0.572
-0.271 0.0546 -0.520
 0.365 -0.0960 -0.318
 0.333  0.569  0.383
-0.0190  0.766  0.293
0.0354 -0.343 -0.636
0.0785 0.0791 -0.626
 0.282 -0.335 -0.501
-0.372 -0.770 -0.235
0.0487  0.313  0.443
-0.182  0.126  0.441
 0.365 -0.173  0.362
 0.365 -0.00225  0.362
-0.371 -0.616 -0.235
-0.371 -0.531 -0.0896
-0.233  0.123 -0.414
 0.194 0.0915  0.441
 0.365 -0.173 -0.226
 0.367 -0.335 -0.0385
-0.371 -0.105 -0.0726
-0.216  0.288  0.443
 0.245  0.123 -0.328
0.0941 -0.573 -0.625
0.0932  0.185  0.219
 0.330  0.236  0.378
-0.349 -0.556 -0.404
-0.0114 -0.181 -0.638
-0.331 -0.156 -0.437
 0.318  0.120 -0.136
-0.373 -0.403 0.0638
-0.373 -0.471 -0.0385
-0.00249  0.121 -0.209
 0.228 -0.181  0.443
 0.304  0.680  0.443
-0.207 0.0623  0.217
 0.200 -0.676 -0.575
-0.0992 -0.130 -0.625
0.0403  0.254  0.209
 0.257  0.680  0.300
0.0737 -0.693 -0.631
-0.0787 -0.607 -0.631
 0.330 0.0871  0.251
 0.108  0.219  0.441
 0.274 -0.173 -0.512
 0.323 -0.463 -0.443
 0.205 -0.258 -0.571
-0.0785  0.569  0.212
-0.0195 -0.241  0.443
-0.372 -0.770 -0.0129
-0.328  0.316  0.368
 0.365 -0.275 -0.277
 0.345 -0.752 -0.392
-0.373 -0.325  0.217
 0.168  0.697  0.443
-0.371 -0.326 -0.277
0.0657  0.121 0.0127
-0.0195  0.121  0.140
-0.139  0.424  0.441
-0.371 -0.377 -0.132
-0.371 -0.267  0.413
 0.106 -0.437 -0.622
-0.0723  0.771  0.362
0.0742  0.757  0.251
-0.318  0.697  0.443
 0.315 0.0852 -0.457
-0.292  0.254  0.443
-0.145  0.708  0.234
-0.175  0.296  0.247
-0.168  0.444  0.241
-0.0542  0.322  0.211
 0.350 -0.352 -0.372
-0.0785  0.475  0.212
 0.152  0.629  0.236
-0.359 0.0637  0.419
 0.367 -0.164  0.268
 0.194  0.123 -0.516
-0.250 -0.0108  0.441
-0.373 -0.463 -0.277
0.0146  0.450  0.443
-0.371 -0.207  0.260
 0.349 -0.599 -0.386
-0.318 0.0623  0.115
 0.219 -0.104 -0.565
-0.291 -0.346 -0.497
 0.365 -0.0875 -0.175
 0.365 -0.0960 -0.0811
-0.373 -0.667 -0.115
 0.142  0.458  0.443
0.0570  0.484  0.210
-0.373 -0.650 0.0127
0.0569 -0.0704 -0.633
0.0140  0.620  0.206
-0.371 -0.104 0.0638
-0.292  0.594  0.443
 0.304  0.757  0.362
 0.365 -0.275  0.243
-0.173 -0.267  0.443
-0.360 -0.338 -0.365
-0.0366  0.121 0.0553
 0.367 -0.309 -0.149
 0.365 -0.573 0.0127
0.0933  0.305  0.218
-0.0335  0.231  0.208
-0.0354  0.755  0.432
-0.113 0.0875 -0.601
 0.138 -0.181 -0.610
-0.326 -0.0136 -0.445
-0.283 -0.619 -0.506
0.0651  0.123  0.148
-0.198 -0.380 -0.582
-0.259 -0.750 -0.533
 0.302 -0.531 -0.481
 0.168 0.0851  0.226
 0.248 -0.770 -0.543
 0.301 -0.676 -0.478
-0.0792 -0.173  0.441
-0.0622  0.628  0.441
-0.156 -0.198  0.443
-0.0451  0.134  0.444
 0.314 -0.292 -0.455
0.0487 0.0489  0.443
 0.208  0.219  0.264
 0.203 -0.497 -0.576
-0.284 -0.156  0.443
 0.317 -0.122 -0.454
-0.361  0.464  0.421
 0.180  0.441  0.250
 0.359 -0.531 -0.344
-0.304 -0.494 -0.485
 0.144 -0.0278 -0.606
 0.366 -0.770 -0.249
-0.149 -0.176 -0.608
-0.323  0.110 -0.183
 0.211 0.0489 -0.568
-0.371 -0.173 -0.303
-0.0273 -0.249 -0.637
-0.373 -0.258  0.124
0.0913  0.123 -0.328
-0.156  0.202  0.441
-0.0195  0.121 -0.516
 0.279  0.467  0.441
 0.365 -0.488 -0.0214
-0.373 -0.00224 0.0980
 0.365 -0.173 0.0553
-0.173  0.671  0.441
-0.371 -0.275 -0.0300
0.0572  0.121 -0.252
 0.367 -0.625 -0.132
 0.367 -0.0449  0.277
 0.365 -0.531 -0.252
-0.373 -0.0108 -0.149
-0.373 -0.147  0.158
-0.156  0.121 -0.218
-0.0366  0.279  0.441
0.0827  0.560  0.441
-0.182  0.123 -0.345
0.0657  0.121 -0.465
-0.209  0.577  0.265
-0.341  0.583  0.392
-0.0394  0.123  0.208
-0.371 -0.767 -0.303
-0.241  0.356  0.441
 0.211  0.121 -0.269
-0.365 -0.684 -0.344
-0.373 -0.0193  0.388
 0.283  0.151  0.323
-0.165  0.754  0.443
-0.318  0.185  0.443
 0.330  0.117  0.443
 0.362 0.0807 0.0269
-0.0933 -0.0512 -0.629
-0.0877  0.123 -0.456
-0.280  0.475  0.314
0.0828  0.671  0.443
-0.373 -0.616 -0.0726
-0.371 -0.113 -0.218
-0.154  0.116 -0.556
-0.0933 -0.273 -0.629
 0.188  0.755  0.299
-0.0865 -0.693 -0.630
-0.314 -0.292 -0.467
-0.149 -0.752 -0.606
 0.287  0.121 0.0382
-0.373 -0.770 -0.0783
-0.275 -0.340  0.443
-0.373 0.0489 -0.0896
-0.199  0.484  0.443
 0.365 0.0233 -0.243
-0.146  0.219  0.231
 0.304 0.0574  0.441
-0.207 -0.0619  0.443
-0.373 -0.104  0.285
 0.177 0.00627  0.441
 0.365 -0.411 -0.252
-0.259  0.256  0.300
 0.368 -0.232 -0.141
-0.371 -0.232 0.0383
-0.0536  0.123 -0.252
 0.126  0.697  0.227
 0.248  0.109 -0.468
 0.262 -0.0363 -0.524
-0.367 -0.0875 -0.330
-0.0617  0.121 -0.586
-0.308  0.617  0.346
 0.366  0.694  0.443
-0.356 -0.403 -0.372
-0.373 -0.556 -0.302
-0.360  0.629  0.443
-0.300 0.0972 -0.393
-0.340 -0.718 -0.420
-0.200 -0.519 -0.579
-0.340 -0.0960 -0.420
0.0705  0.755  0.387
-0.124  0.347  0.227
0.0993  0.586  0.219
 0.162 -0.326 -0.599
0.0146  0.123 -0.379
-0.371 0.0659 -0.235
 0.367 -0.318 -0.218
 0.177  0.381  0.441
 0.365 -0.701 -0.0385
-0.373 -0.710 0.0291
-0.371 -0.0789  0.209
-0.0877  0.560  0.443
 0.365 -0.267  0.175
-0.301  0.390  0.443
0.0487  0.758  0.311
-0.130  0.121 -0.0811
 0.219 -0.0534  0.441
-0.284 0.0640  0.217
-0.143 -0.400 -0.610
 0.366  0.535  0.441
-0.205 -0.0733 -0.575
-0.209  0.688  0.265
 0.286  0.279  0.330
-0.122  0.143  0.441
-0.372 -0.320  0.383
-0.241  0.121 -0.0981
-0.373 -0.258 -0.132
-0.309  0.492  0.441
 0.194  0.123 -0.0640
-0.310  0.757  0.437
 0.287 0.0876  0.132
 0.365 -0.0619 -0.0299
-0.318 0.0623  0.311
 0.347 -0.207  0.443
 0.365 -0.0278 0.0297
0.0913  0.121 -0.0981
-0.0963 -0.0705  0.441
 0.365 -0.122 -0.260
-0.373 -0.471 -0.200
 0.367 0.0574  0.337
 0.365 -0.301 0.0127
 0.321 -0.301  0.443
 0.304  0.746  0.441
0.0576  0.705  0.212
-0.373 -0.0193 -0.302
-0.0682 0.0873  0.155
-0.0195  0.697  0.208
-0.179 -0.619 -0.592
0.0809  0.381  0.216
-0.00200 -0.770 -0.638
-0.264  0.131  0.304
 0.336  0.177  0.388
-0.287 -0.0165 -0.502
-0.329 0.0921 -0.320
-0.371 -0.249  0.345
 0.330 0.0851 -0.354
 0.365 -0.761 -0.141
-0.373 0.0233 -0.0214
 0.365 -0.164  0.166
 0.177  0.151  0.443
0.0231  0.586  0.443
 0.211  0.552  0.443
0.0913 -0.156  0.443
 0.185  0.757  0.430
-0.373 -0.531 -0.175
-0.0877  0.347  0.441
-0.147  0.121 0.0809
-0.373 -0.0108  0.328
0.00604  0.121 0.00414
-0.373 -0.659 -0.175
 0.142  0.123 -0.414
-0.0195 0.0745  0.441
 0.367 -0.369 -0.115
-0.241  0.134  0.441
0.0146  0.177  0.443
 0.202 -0.113  0.443
-0.0280  0.697  0.443
-0.348  0.364  0.399
 0.296  0.121 -0.192
-0.360 -0.201 -0.358
 0.263 -0.565 -0.526
-0.349 0.0233 -0.404
 0.339  0.347  0.397
-0.160 -0.110 -0.603
-0.272 -0.252 -0.522
 0.194 -0.334  0.443
 0.117 -0.0278  0.441
-0.208 -0.278 -0.575
-0.190  0.121 0.00414
-0.268 0.0869 0.0846
-0.0535 -0.386 -0.634
 0.367 -0.0704  0.405
-0.228  0.333  0.274
 0.150 -0.582 -0.606
 0.365 -0.402 -0.310
 0.367 0.0489  0.226
-0.280  0.381  0.314
 0.161 0.0319 -0.601
 0.177  0.120  0.115
0.0815 -0.215 -0.630
-0.296  0.700  0.334
-0.373 -0.164  0.430
 0.365 0.0574  0.132
-0.125  0.642  0.225
 0.161 -0.437 -0.601
0.0661 -0.625 -0.630
-0.360 0.0798 0.0698
0.0223 -0.122 -0.637
0.0742 -0.326  0.441
 0.230  0.168  0.281
 0.330  0.492  0.378
-0.164  0.121 -0.499
-0.190  0.758  0.328
-0.0273 -0.471 -0.637
 0.261  0.339  0.304
 0.333  0.629  0.387
-0.0195  0.484  0.208
-0.190  0.569  0.443
-0.250  0.717  0.293
-0.207 0.0851  0.132
-0.371 -0.130  0.371
 0.219  0.671  0.443
-0.373 -0.403 -0.0811
0.0231  0.381  0.443
 0.366  0.421  0.443
-0.219  0.171  0.267
 0.117  0.123  0.115
-0.373 -0.190  0.200
 0.367 -0.693 -0.252
-0.164  0.262  0.441
 0.243 -0.207 -0.547
-0.373 -0.531 0.0127
-0.373 -0.275  0.251
 0.365 -0.0789 0.0723
 0.228 0.0851  0.234
 0.323 -0.616 -0.439
-0.258  0.123 0.0382
-0.0366 -0.309  0.443
 0.346 -0.215 -0.398
-0.154 0.00628 -0.606
-0.251 -0.0847 -0.543
 0.365 -0.224 -0.252
-0.251 -0.647 -0.543
 0.126 -0.701 -0.613
-0.267  0.114 -0.457
-0.158  0.586  0.238
0.0569 -0.394 -0.633
 0.326 -0.718 -0.437
 0.362 0.0807  0.393
 0.354 -0.00225 -0.364
-0.203 -0.0165 -0.579
-0.124  0.117  0.227
-0.373 -0.258 -0.269
 0.219 -0.727 -0.565
 0.187  0.552  0.255
-0.228  0.631  0.274
 0.250  0.467  0.297
0.0139 -0.0363 -0.638
0.0654  0.543  0.211
-0.0282 0.0807 -0.629
-0.339  0.103  0.387
-0.372 -0.0441  0.437
 0.345 -0.480 -0.392
-0.207 -0.156  0.441
 0.365 -0.0108  0.234
 0.279 0.0868  0.209
 0.117  0.288  0.443
-0.147 0.0489  0.443
-0.371 -0.301  0.158
 0.257  0.535  0.300
 0.365 0.0404 -0.132
0.00603 -0.122  0.441
 0.117 -0.224  0.441
0.0146  0.509  0.443
-0.0622 -0.0278  0.441
0.0146 -0.0363  0.443
 0.321  0.577  0.441
0.0913 0.0830  0.441
 0.125 -0.113  0.441
 0.304  0.168  0.443
-0.373 -0.147 -0.107
 0.367 -0.207 -0.0896
-0.284 0.0318  0.441
 0.367 -0.130 0.0980
 0.266 0.0240 -0.519
 0.248  0.755  0.371
0.0933  0.245  0.218
-0.122 -0.292  0.441
-0.233 0.0461 -0.558
 0.365 -0.744 0.0127
-0.281  0.755  0.390
-0.0992 -0.343 -0.625
 0.365 -0.360  0.124
 0.368 -0.539 -0.0385
 0.245 0.0745  0.443
 0.279 -0.156  0.441
0.0145 -0.565 -0.636
 0.368 -0.0364 -0.141
-0.371 -0.420 -0.166
 0.367 -0.565 -0.115
 0.142  0.123 -0.533
-0.371 -0.0108  0.175
-0.371 -0.352 0.0467
-0.373 -0.122 -0.286
-0.190 -0.0107  0.443
 0.367 -0.215 -0.0300
-0.373 -0.0449 0.0467
-0.318 -0.0704  0.443
-0.0792 0.0319  0.443
0.0828  0.121 0.0638
 0.365 -0.156 0.00414
-0.233 -0.292  0.443
 0.330  0.236  0.441
-0.371 -0.164 -0.0470
 0.106 -0.104 -0.622
 0.177  0.121 0.0127
-0.371 -0.326 -0.0470
 0.365 -0.659 -0.175
 0.339  0.731  0.394
-0.129 -0.599 -0.615
 0.250 -0.625 -0.537
-0.355 -0.275 -0.380
-0.337 -0.400 -0.422
-0.370  0.197  0.436
0.0941 -0.301 -0.625
-0.199  0.124 -0.456
-0.357  0.305  0.419
 0.286 -0.744 -0.497
-0.373 0.0319  0.294
-0.241 -0.357 -0.551
 0.361 -0.147 -0.330
 0.330 -0.104  0.443
-0.157 0.0626  0.232
0.0407  0.432  0.211
 0.353 -0.701 -0.370
 0.185 -0.625 -0.586
-0.112 -0.497 -0.622
 0.367 -0.454 -0.132
 0.285 0.0875  0.328
-0.0877  0.123 -0.124
-0.314 -0.633 -0.467
-0.0281 -0.164  0.441
-0.113 -0.130  0.441
-0.233  0.407  0.443
 0.108  0.339  0.441
 0.194  0.121 -0.141
0.0657  0.185  0.443
 0.368 -0.0193  0.413
-0.258  0.121 -0.252
 0.168  0.271  0.441
-0.105  0.121 -0.362
 0.365 -0.224 0.0723
 0.236 -0.249  0.443
-0.373 -0.352 -0.192
-0.182  0.620  0.441
-0.0792  0.509  0.443
-0.0962  0.123 0.0553
 0.138  0.755  0.371
-0.373 0.0233  0.217
 0.296  0.121 -0.337
-0.0345 -0.657 -0.636
0.0262  0.109  0.209
0.0485 -0.463 -0.634
 0.119  0.484  0.227
-0.367 0.0872 0.0127
 0.317 -0.0619 -0.450
-0.225 0.0943  0.274
 0.152  0.398  0.236
-0.135  0.755  0.251
 0.156 -0.386 -0.601
-0.371 -0.607 -0.294
 0.335 -0.318 -0.416
 0.351 -0.0960 -0.378
-0.373 -0.215 -0.0129
-0.0107  0.373  0.205
 0.365 -0.0960  0.277
-0.205 -0.329 -0.575
 0.320 -0.565 -0.444
-0.317 -0.696 -0.462
 0.365 -0.386 -0.0385
 0.202  0.620  0.443
-0.301  0.123 -0.0640
 0.117  0.121 0.0127
-0.0366  0.194  0.443
 0.290  0.560  0.335
-0.371 -0.531 -0.0385
-0.327  0.116 -0.0129
 0.236 0.0851  0.115
 0.366 0.0743 -0.243
-0.334 -0.517 -0.432
-0.352 0.0871 -0.115
 0.321  0.330  0.441
 0.255 -0.309 -0.535
 0.250 -0.454 -0.537
 0.255 -0.394 -0.535
-0.300  0.268  0.337
 0.318  0.120 -0.0676
 0.319  0.100 -0.294
 0.293 -0.224 -0.487
0.0878 -0.497 -0.627
-0.271 -0.551 -0.520
 0.362 -0.284 -0.330
-0.370 -0.443 -0.324
-0.0451  0.757  0.251
 0.366 0.0853 -0.0335
 0.342  0.415  0.399
0.0401  0.123 -0.507
 0.167 -0.232 -0.599
 0.228  0.262  0.443
 0.185  0.432  0.443
-0.373 -0.164  0.285
 0.245  0.121 -0.397
-0.190  0.123 -0.175
 0.270  0.123 -0.0299
-0.373 -0.301 0.0127
-0.367 0.0233 -0.336
 0.254 -0.130 -0.533
0.0316 -0.232  0.441
 0.365 -0.0363  0.106
 0.194 0.0873  0.149
-0.373 -0.232 -0.226
-0.373 -0.122  0.115
-0.267  0.313  0.441
-0.309 0.0640  0.175
 0.365 -0.454 0.0553
-0.0707  0.121 -0.0726
0.0146  0.121 -0.132
-0.105  0.654  0.441
0.0316 -0.284  0.443
 0.304 -0.00223  0.443
-0.250 0.0745  0.441
-0.0281  0.121 -0.166
-0.0366  0.484  0.443
 0.117  0.121 -0.371
 0.367 -0.403 0.0553
 0.365 -0.471 -0.0726
 0.367 -0.147  0.320
-0.0622  0.236  0.441
-0.130  0.121 -0.260
 0.185 -0.207  0.443
 0.365 -0.582 -0.226
 0.326 0.0148 -0.437
 0.271  0.424  0.311
 0.342  0.296  0.399
-0.372 0.0487  0.106
 0.198 -0.548 -0.579
-0.297  0.751  0.332
-0.0464 -0.0371 -0.635
-0.354  0.700  0.410
-0.00255 -0.292 -0.640
-0.0714  0.373  0.213
-0.298 0.0857 -0.488
0.0223 -0.659 -0.637
-0.0373  0.603  0.210
 0.247  0.245  0.292
-0.0253  0.282  0.209
-0.198 -0.210 -0.582
0.0401 0.0851  0.166
 0.367 -0.0534 -0.294
-0.152  0.171  0.233
-0.188 -0.566 -0.589
-0.224  0.757  0.396
-0.0405 -0.142 -0.636
-0.329 -0.596 -0.439
 0.356 -0.267  0.440
-0.0394  0.182  0.208
-0.272 -0.184 -0.522
-0.312  0.469  0.352
-0.308  0.191  0.346
-0.224  0.285  0.270
-0.224  0.464  0.270
-0.186  0.498  0.253
-0.312  0.376  0.350
 0.322  0.100 -0.235
 0.365 -0.744 -0.0896
 0.355 -0.207 -0.352
 0.294 0.0489 -0.489
-0.00247  0.313  0.443
-0.182  0.123  0.115
0.0337 -0.198 -0.634
 0.253  0.121 -0.226
-0.267  0.671  0.443
 0.262  0.121 -0.158
-0.0195  0.121 -0.286
-0.0792  0.123 0.00415
 0.211  0.123 -0.362
-0.0621  0.390  0.443
 0.151 0.0659  0.441
-0.373 -0.437 -0.00437
 0.367 -0.650 -0.0640
-0.373 -0.0704  0.396
-0.0110  0.121 -0.0641
-0.371 -0.659 -0.294
-0.0195  0.121 -0.337
 0.113  0.134  0.225
-0.373 -0.488 -0.149
 0.287  0.271  0.443
0.0572 -0.122  0.443
-0.0923  0.683  0.216
 0.113 0.0319 -0.618
 0.208  0.117  0.264
-0.190 -0.724 -0.586
-0.0921  0.523  0.217
0.0998 0.0851 -0.584
-0.137 -0.284 -0.612
-0.238 -0.164 -0.554
 0.355 -0.0534 -0.358
 0.367 0.0744 0.0809
0.0488  0.100 -0.585
-0.340 -0.301 -0.420
-0.255  0.600  0.297
 0.198  0.347  0.262
-0.112 -0.00224 -0.622
 0.345  0.671  0.408
 0.117  0.714  0.441
 0.236 0.00629 -0.551
 0.368 -0.633 0.00411
-0.119  0.455  0.226
 0.208  0.731  0.264
0.0414 -0.726 -0.635
-0.329 -0.204 -0.439
 0.286 -0.488 -0.497
-0.0863  0.211  0.214
 0.251 -0.0789 -0.540
-0.366  0.583  0.431
0.0262  0.671  0.209
-0.225 -0.460 -0.561
 0.287  0.731  0.328
-0.284 -0.295 -0.508
-0.348 -0.181 -0.398
 0.190 -0.0704 -0.582
-0.0992 -0.394 -0.625
-0.225  0.384  0.274
-0.121  0.116  0.147
-0.266  0.523  0.304
 0.250  0.594  0.297
-0.325 0.0923 -0.226
-0.343 -0.770 -0.413
 0.142  0.123 -0.294
 0.368 0.0814  0.277
-0.204 0.0868 -0.522
 0.340 -0.394 -0.405
0.0742 -0.198  0.441
-0.0621 -0.130  0.443
0.0178  0.755  0.252
-0.373 -0.309  0.106
 0.365 -0.292  0.371
-0.182  0.123 -0.397
-0.373 -0.164 -0.192
 0.296  0.424  0.441
 0.365 -0.309 0.0638
-0.301  0.441  0.443
-0.275  0.123 -0.183
0.0913  0.450  0.443
0.0657  0.253  0.441
 0.114  0.348  0.224
-0.0195  0.611  0.443
 0.367 -0.497 -0.149
-0.373 -0.710 -0.0981
 0.365 -0.139 -0.183
-0.267 -0.198  0.444
 0.134 -0.267  0.441
-0.373 -0.565 -0.252
 0.168  0.586  0.441
 0.367 -0.284 -0.0385
 0.279 -0.0619  0.443
 0.365 0.0233 -0.0726
0.0743  0.126  0.443
-0.371 -0.215  0.141
-0.0622  0.121 -0.320
 0.365 0.0233 0.0383
-0.139  0.758  0.328
-0.373 -0.420 -0.260
 0.279 -0.284  0.441
 0.367 -0.113  0.388
-0.285  0.427  0.319
-0.122  0.245  0.443
 0.202  0.339  0.441
 0.365 -0.0193  0.320
-0.371 -0.335 -0.149
-0.196 0.0638  0.171
-0.295 -0.119 -0.493
 0.365 -0.727 -0.303
-0.0863 -0.553 -0.628
-0.155 -0.485 -0.604
0.0492  0.586  0.211
 0.365 0.0404 -0.294
 0.279  0.757  0.405
-0.0627  0.432  0.212
-0.355 -0.642 -0.387
 0.342  0.134  0.403
-0.316 0.0658  0.356
 0.318  0.279  0.364
-0.0584  0.771  0.315
 0.180  0.288  0.250
 0.163  0.194  0.241
 0.361 -0.480 -0.330
 0.301 -0.369 -0.478
 0.233  0.646  0.281
 0.226  0.560  0.278
-0.0796  0.100  0.215
 0.168 -0.701 -0.596
 0.366 0.0853 -0.136
 0.174  0.509  0.247
-0.303 -0.733 -0.483
-0.367 -0.727 -0.330
 0.278 -0.650 -0.507
-0.0110 0.0852  0.166
-0.323 -0.471 -0.450
-0.337 -0.0505 -0.422
-0.318 -0.326  0.443
-0.0373  0.552  0.210
-0.00271 -0.522 -0.638
 0.355 0.0404 -0.352
-0.124 -0.0875 -0.615
0.0231 0.0875 -0.627
 0.361 -0.343 -0.330
-0.295 0.0262 -0.493
-0.248 0.0868 -0.539
-0.351  0.225  0.408
-0.0376 0.00628 -0.634
-0.355 -0.693 -0.387
-0.301  0.120 -0.346
-0.0107 -0.377 -0.639
-0.104  0.121 -0.573
 0.167 -0.139 -0.599
0.0662  0.151  0.214
-0.263 -0.465 -0.529
 0.193 -0.301 -0.582
 0.236 -0.301  0.443
-0.300  0.523  0.337
 0.117 0.0851  0.192
 0.118 -0.744 -0.618
 0.332 -0.249 -0.422
-0.373 -0.122 -0.175
-0.216 -0.105  0.441
-0.371 -0.258  0.294
 0.367 -0.548 -0.294
 0.315  0.535  0.360
 0.168  0.123 -0.209
-0.130  0.364  0.443
 0.311 -0.164 -0.461
0.0743  0.603  0.443
-0.182  0.415  0.443
-0.326 -0.147  0.441
-0.326 0.0404  0.443
0.0761  0.755  0.430
 0.365 -0.318 -0.107
 0.296  0.637  0.444
-0.358  0.347  0.437
 0.245  0.356  0.443
 0.151  0.228  0.441
-0.199  0.121 -0.235
-0.373 -0.173 0.0553
-0.275  0.177  0.443
-0.371 -0.659 -0.226
-0.224  0.121 -0.0299
-0.373 -0.181  0.379
 0.202  0.123 -0.311
 0.185  0.121 0.0553
-0.371 -0.0960 -0.115
-0.373 -0.198 -0.107
 0.253  0.177  0.441
-0.216  0.680  0.443
 0.365 -0.104 -0.124
-0.182  0.123 -0.107
-0.373 -0.573 -0.0981
0.0657  0.121 -0.200
-0.139 -0.0619  0.441
-0.318  0.637  0.441
 0.270 -0.198  0.443
-0.371 -0.224  0.405
-0.373 -0.701 -0.218
-0.373 -0.573 -0.183
-0.371 -0.352 -0.0896
 0.367 -0.215 -0.192
 0.365 -0.318  0.251
-0.207  0.245  0.443
-0.132  0.305  0.229
-0.363 -0.548 -0.346
-0.152  0.404  0.236
-0.320  0.563  0.359
-0.207 0.0872 -0.566
-0.104  0.603  0.219
-0.371 -0.352 -0.318
-0.00254  0.578  0.205
-0.0535 -0.437 -0.634
-0.367  0.671  0.443
-0.182  0.714  0.441
-0.210 -0.420 -0.571
 0.293 -0.0449 -0.487
-0.329 0.0852 -0.277
 0.366  0.330  0.441
-0.320 -0.119 -0.456
-0.373 -0.394  0.106
-0.314 -0.249 -0.471
 0.323 -0.420 -0.439
-0.113  0.458  0.443
 0.193 -0.394 -0.582
-0.373 -0.360 -0.252
-0.351  0.506  0.404
-0.373 -0.113 0.0127
 0.277 0.0986 -0.438
 0.367 -0.0534  0.158
-0.371 -0.727 -0.0129
 0.302  0.381  0.348
 0.365 0.00628  0.124
 0.365 -0.275  0.303
-0.371 -0.701 -0.175
 0.367 -0.642 -0.269
 0.365 -0.232  0.260
-0.326 0.0623  0.217
-0.164  0.305  0.443
-0.0792 -0.292  0.443
 0.262  0.663  0.443
-0.371 -0.232 0.0894
-0.216  0.121 -0.311
-0.0621  0.123 -0.499
-0.371 -0.0193 -0.0214
 0.367 -0.198  0.396
 0.126  0.212  0.227
 0.108  0.121 -0.439
-0.0622  0.121 -0.422
-0.230 -0.730 -0.558
-0.0963  0.415  0.441
 0.365 -0.718 -0.141
 0.253  0.577  0.441
 0.296 0.0851  0.285
-0.368 -0.303 -0.324
 0.152  0.586  0.236
-0.373 -0.659 -0.0470
-0.371 -0.215 -0.303
 0.367 -0.0960  0.175
-0.241  0.586  0.441
 0.365 -0.599 -0.183
0.0572  0.121 -0.354
-0.371 -0.139  0.320
 0.365 -0.727 -0.226
 0.168  0.121 -0.260
-0.370 -0.0619 -0.0811
 0.367 -0.0449  0.362
-0.207 0.0915  0.443
0.0231  0.121 -0.422
-0.371 0.0404 -0.132
 0.367 -0.0449  0.209
-0.371 -0.428 -0.0470
 0.321 0.0851 -0.397
-0.156 0.0915  0.441
 0.365 -0.0619 -0.107
 0.134  0.185  0.443
-0.130  0.123 -0.0385
-0.326  0.126  0.443
 0.219 0.0319  0.443
 0.365 -0.522 0.00414
 0.365 0.0318  0.166
0.0742  0.121  0.106
 0.177  0.123 -0.456
 0.365 -0.207  0.166
-0.130  0.121 -0.183
0.0401  0.123 -0.0214
-0.373 -0.113  0.183
 0.365 -0.258  0.345
-0.326  0.569  0.443
 0.365 -0.139  0.200
 0.117  0.123 -0.166
-0.0536  0.322  0.441
 0.365 -0.360 -0.0726
 0.108  0.121 -0.507
-0.373 0.0148 -0.269
-0.00247 -0.198  0.443
0.0487  0.424  0.443
-0.373 -0.232 -0.166
0.0487  0.535  0.441
0.0146  0.121 -0.541
-0.0536  0.121 -0.541
-0.373 -0.0108 0.0212
-0.300 -0.167 -0.490
 0.365 -0.275 -0.124
 0.318  0.143  0.366
-0.130 -0.334  0.443
-0.335 0.0888 -0.0726
-0.233  0.121 -0.371
 0.365 -0.104 -0.0299
-0.187  0.540  0.253
-0.258  0.121 -0.294
 0.236  0.219  0.443
 0.366 -0.770 -0.206
 0.168  0.758  0.337
-0.0195  0.121 0.0980
 0.367 -0.241 -0.302
 0.357 -0.735 -0.346
 0.303  0.646  0.346
-0.0274  0.739  0.207
 0.351  0.211  0.416
-0.0703 0.0815 -0.632
-0.357 -0.514 -0.378
-0.237  0.755  0.281
-0.181  0.205  0.250
 0.287  0.121 -0.107
 0.113 -0.0534 -0.617
-0.229  0.120  0.108
0.0254  0.756  0.408
-0.373 0.0319  0.396
-0.324  0.157  0.364
-0.0451 0.0849  0.192
-0.00494  0.782  0.329
 0.349 -0.642 -0.386
 0.211 0.0853 -0.516
-0.245  0.560  0.289
-0.288  0.228  0.324
-0.278 0.0745  0.316
0.0316  0.124  0.124
 0.120  0.655  0.225
-0.314 -0.369 -0.471
-0.272 -0.0562 -0.522
-0.373 -0.744 -0.269
-0.180 -0.670 -0.593
 0.230  0.364  0.281
 0.367 -0.367  0.164
 0.238 -0.275 -0.551
-0.343 0.0631 -0.415
-0.170  0.677  0.244
 0.302  0.236  0.348
-0.373 -0.770 -0.189
-0.0331  0.779  0.380
-0.360 -0.241  0.443
 0.367 0.0404  0.396
 0.126 -0.139 -0.613
0.0577 -0.556 -0.631
 0.213  0.755  0.335
-0.373 -0.752 0.0297
-0.268 0.00912 -0.526
-0.264 -0.593 -0.531
-0.367 0.0872 -0.200
 0.295  0.458  0.337
-0.351  0.404  0.404
-0.233 -0.124 -0.558
-0.0787 -0.164 -0.631
 0.321  0.484  0.441
 0.355  0.569  0.421
-0.291 -0.768 -0.497
 0.342  0.535  0.403
 0.120  0.116 -0.568
0.0735  0.748  0.212
 0.296 -0.334  0.443
-0.339  0.282  0.387
-0.339  0.452  0.387
 0.324 0.0932 0.0326
-0.300  0.660  0.337
-0.0799  0.754  0.443
-0.233 0.0623  0.251
 0.362 -0.0799  0.443
 0.290 -0.275 -0.494
 0.118 -0.224 -0.618
-0.118  0.566  0.225
-0.0927 -0.644 -0.626
 0.133  0.168  0.229
 0.298  0.194  0.344
0.00599  0.228  0.208
 0.339  0.646  0.443
-0.371 -0.300  0.441
-0.0345 -0.742 -0.636
 0.323 -0.514 -0.443
 0.198  0.407  0.261
-0.149 0.0716 -0.608
-0.370 -0.127 -0.324
-0.335  0.200  0.381
 0.119 -0.539 -0.615
 0.347 0.0875  0.115
-0.175  0.755  0.292
 0.367 -0.156  0.405
 0.335 -0.113 -0.420
-0.349  0.745  0.410
 0.365 0.0489 -0.183
 0.329 -0.173 -0.427
-0.335  0.228  0.443
 0.324 0.0933 -0.0953
-0.00272 -0.335 -0.638
 0.174  0.722  0.247
 0.330 -0.156  0.441
 0.245  0.202  0.293
 0.214  0.450  0.267
 0.161 0.0876 -0.546
 0.362 -0.624 -0.322
-0.280 -0.514 -0.512
-0.250  0.486  0.293
 0.225 -0.531 -0.558
-0.309  0.121 -0.303
 0.141  0.313  0.231
-0.182  0.758  0.388
-0.106 -0.744 -0.622
-0.263 -0.704 -0.529
-0.00261  0.134  0.208
 0.133  0.100  0.229
-0.371 -0.284  0.371
 0.366 -0.729 0.0480
 0.320 0.0923 -0.183
-0.367 0.0660 -0.336
 0.152  0.467  0.236
-0.373 -0.130 -0.0299
-0.0620  0.271  0.210
 0.193 -0.454 -0.582
 0.160 0.0851  0.183
-0.267  0.123 -0.388
-0.371 -0.437 0.0467
 0.365 -0.215  0.362
-0.0195  0.432  0.441
 0.367 -0.446 -0.235
-0.371 -0.0449  0.311
-0.371 -0.284 -0.235
-0.371 -0.710 -0.294
-0.371 -0.147 -0.252
 0.367 -0.497 -0.235
 0.367 -0.318 -0.260
 0.108  0.121 -0.209
 0.177  0.501  0.443
-0.284  0.714  0.441
-0.216  0.450  0.441
 0.368 -0.139 0.0383
 0.339 0.0745  0.443
-0.373 -0.0534 -0.235
 0.367 -0.667 -0.0214
 0.125  0.415  0.441
 0.279  0.100  0.443
-0.309 0.0643  0.251
 0.202 0.0851  0.192
 0.365 -0.548 -0.0811
-0.0910  0.755  0.235
 0.367 -0.241  0.106
-0.0877  0.123 -0.0385
 0.367 -0.258 0.0553
-0.122  0.322  0.441
-0.301 -0.241  0.441
 0.108 -0.0789  0.441
 0.219  0.160  0.441
 0.365 -0.156 -0.277
 0.365 -0.309  0.158
 0.367 -0.676 -0.209
 0.367 -0.599 -0.260
 0.367 -0.173  0.226
 0.365 -0.198  0.320
-0.373 -0.394 0.0212
-0.139  0.705  0.443
 0.313 -0.190  0.441
-0.147  0.577  0.443
0.0572  0.121 -0.294
-0.0536 -0.224  0.443
-0.371 -0.284 -0.166
 0.368 -0.0278 -0.260
 0.194  0.123 -0.0214
 0.368 -0.104 -0.226
-0.371 -0.0534 0.0979
-0.113  0.123 -0.490
-0.0451  0.121 -0.209
-0.0707  0.124  0.141
0.00605  0.123 -0.482
 0.365 -0.139 -0.107
 0.365 -0.190 -0.124
 0.367 -0.531 -0.132
 0.365 -0.505 -0.0555
-0.371 -0.249 -0.0811
0.00605  0.271  0.443
0.0998  0.123 -0.0214
0.0742  0.356  0.441
0.0231 -0.0875  0.443
0.0827 -0.0108  0.441
0.0316 -0.00223  0.443
-0.373 -0.292 -0.0640
 0.367 -0.403 -0.132
-0.113 -0.190  0.443
 0.365 -0.0108 -0.0299
 0.287  0.364  0.443
-0.309 -0.113  0.441
-0.373 -0.0875  0.251
-0.0621 0.0660  0.443
-0.309  0.288  0.441
 0.368 -0.267 -0.00438
-0.0621  0.680  0.443
-0.373 -0.761 -0.124
0.0572  0.637  0.441
-0.371 -0.130  0.413
 0.314 -0.249 -0.455
 0.365 -0.326 0.0979
-0.373 -0.207  0.303
-0.258  0.509  0.443
 0.367 -0.318 -0.302
-0.112 -0.178 -0.620
-0.0371 0.0923 -0.588
0.0570  0.296  0.210
-0.319 0.0853 -0.363
0.0577 -0.292 -0.631
0.0485 0.0574 -0.634
-0.125 0.0748  0.189
-0.355 -0.104 -0.387
-0.181 0.0858  0.250
 0.226  0.116 -0.498
-0.202  0.410  0.259
-0.149 -0.701 -0.606
 0.261  0.117  0.304
-0.0900  0.755  0.328
-0.268 -0.340 -0.526
-0.300  0.327  0.337
 0.348  0.262  0.414
-0.233 -0.252 -0.558
 0.317 -0.0193 -0.450
 0.119  0.271  0.227
-0.285  0.606  0.319
-0.287 -0.383 -0.501
0.00599 -0.232 -0.637
 0.151  0.757  0.294
-0.368 0.0807 -0.269
-0.258  0.123 0.0809
 0.289 0.0972 0.0672
-0.368 0.0560  0.200
-0.352  0.492  0.443
 0.357 -0.377 -0.346
-0.367 0.0644  0.311
 0.165  0.663  0.244
-0.0253  0.640  0.209
 0.321 0.0871  0.320
-0.0708 0.0626  0.207
-0.198 -0.482 -0.582
 0.240  0.731  0.289
 0.109  0.101  0.148
-0.0107  0.331  0.206
-0.0394  0.515  0.208
-0.355 -0.224 -0.387
-0.0627 -0.113 -0.631
-0.0460 -0.590 -0.633
 0.279 0.0871 -0.473
-0.366 -0.650 -0.330
0.0347 -0.766 -0.636
 0.326  0.381  0.376
-0.0787 -0.471 -0.631
 0.330  0.526  0.443
-0.124 -0.369 -0.615
-0.367 0.0155  0.442
-0.0543 -0.224 -0.632
 0.354 -0.241 -0.364
0.0325 -0.607 -0.634
-0.0110  0.731  0.443
 0.257  0.381  0.300
 0.308 -0.326 -0.467
-0.256 -0.389 -0.540
 0.200 0.0148 -0.575
-0.216  0.160  0.443
-0.0860  0.137  0.216
-0.216  0.330  0.443
-0.242 0.0947 -0.483
 0.331 -0.752 -0.426
0.0401  0.123 -0.107
 0.368 -0.0619 -0.200
 0.368 -0.181 -0.166
 0.219  0.757  0.396
-0.373 0.00629 -0.0555
 0.365 -0.599 -0.0129
-0.284  0.121 -0.226
 0.202 -0.156  0.443
-0.343  0.722  0.443
-0.0536  0.722  0.441
-0.173 0.0233  0.441
 0.365 -0.122  0.243
 0.367 -0.531 -0.209
 0.367 -0.352 -0.200
-0.371 -0.326 -0.226
-0.373 -0.505 -0.115
-0.156  0.121 -0.371
0.0998  0.121 -0.269
 0.177  0.121 -0.397
-0.373 -0.0363  0.200
0.0316  0.121 -0.183
-0.0792  0.121 -0.277
-0.0110 -0.0619  0.441
 0.365 -0.0704  0.251
0.0316  0.121 0.0297
-0.0622  0.586  0.441
-0.371 0.0233 -0.192
-0.372 -0.602 0.0173
-0.371 -0.0875 -0.0299
0.0572  0.705  0.441
-0.371 -0.480 -0.0896
-0.373 -0.642 -0.141
 0.365 0.0148  0.209
-0.241  0.121 0.00414
-0.371 -0.0449 -0.0470
 0.168  0.123 -0.107
-0.373 -0.0363  0.354
 0.228 -0.386 -0.558
-0.139 -0.164  0.443
-0.292  0.211  0.443
 0.194 -0.0278  0.443
-0.0792  0.109  0.441
 0.108  0.586  0.441
-0.193 0.0176 -0.586
-0.258  0.228  0.441
-0.276 -0.426 -0.517
-0.134  0.755  0.425
 0.339  0.450  0.443
 0.203  0.262  0.262
-0.284 0.0626  0.133
 0.308 -0.437 -0.467
 0.294 -0.565 -0.489
 0.368 -0.480 0.0297
-0.348 -0.343 -0.398
-0.287  0.102 -0.426
-0.211  0.755  0.363
-0.373 -0.284 -0.294
-0.0692  0.755  0.284
 0.274 -0.377 -0.510
0.0139 -0.471 -0.638
-0.173 -0.309  0.441
 0.298 -0.130 -0.483
 0.163  0.117  0.241
 0.344 -0.718 -0.403
 0.367 -0.701 0.0127
-0.373 -0.531 -0.277
 0.366  0.236  0.441
0.0326 -0.156 -0.634
-0.326 0.0873 0.0809
 0.263 0.0854 0.0910
-0.327  0.100 -0.149
-0.111  0.755  0.382
-0.223 -0.542 -0.565
-0.354 -0.0619 -0.380
-0.295 -0.588 -0.493
0.0146  0.108  0.158
0.0809  0.509  0.216
-0.0711 -0.301 -0.630
 0.309 -0.480 -0.471
0.0661 -0.428 -0.630
-0.139  0.121 -0.524
-0.247  0.185  0.289
-0.317  0.117 0.0212
-0.326 -0.0733 -0.449
 0.305 -0.633 -0.473
-0.335  0.685  0.378
-0.349 -0.0193 -0.404
 0.345  0.603  0.408
-0.371 -0.284  0.192
 0.343 -0.565 -0.403
-0.180 -0.167 -0.593
-0.233 -0.249  0.441
-0.267  0.754  0.443
 0.365 -0.00225 -0.132
-0.371 -0.0619 -0.303
-0.371 -0.139 -0.141
-0.225  0.137  0.274
-0.371 -0.207 0.0638
-0.156  0.123 0.0467
 0.367 -0.198 0.0297
 0.338 0.0851  0.217
-0.139  0.121 -0.311
 0.202  0.121 0.0894
 0.368 -0.0534 -0.0640
-0.373 -0.607 -0.200
 0.365 -0.267 -0.235
-0.371 -0.156  0.124
 0.367 -0.360 -0.243
 0.125  0.123 -0.0896
-0.371 -0.335 0.00414
-0.373 -0.446 -0.0811
-0.173  0.160  0.443
 0.202  0.123 -0.235
 0.321  0.202  0.443
 0.159  0.731  0.441
-0.0281  0.646  0.441
-0.275  0.637  0.441
-0.335  0.381  0.441
 0.177  0.663  0.441
 0.299  0.117  0.342
0.0316 0.0830  0.441
-0.373 -0.386 -0.175
-0.0110  0.123 -0.243
-0.292  0.121 -0.149
 0.367 -0.369 0.0894
0.00605  0.680  0.443
-0.361  0.106  0.424
 0.367 -0.497 -0.192
 0.365 -0.437 -0.277
-0.371 -0.735 -0.226
-0.371 -0.343 0.0809
-0.182 -0.232  0.443
-0.373 -0.437 -0.209
 0.365 -0.735 -0.260
 0.177  0.123 -0.175
-0.373 -0.181  0.149
 0.365 -0.258  0.141
-0.130 -0.258  0.441
 0.365 -0.411 -0.183
 0.330  0.415  0.443
-0.284  0.560  0.443
 0.287  0.586  0.441
-0.371 -0.00225  0.141
 0.365 -0.0363 -0.00438
0.0913  0.526  0.441
-0.373 -0.0193  0.285
-0.371 -0.0789 0.0383
-0.0622  0.121 -0.158
 0.173 -0.530 -0.596
 0.365 -0.309 -0.0726
 0.286 -0.701 -0.497
-0.373 -0.590 -0.0470
 0.185 0.0404  0.441
0.00603 0.0233  0.441
-0.0707  0.271  0.443
-0.139  0.663  0.441
 0.151 -0.215  0.441
-0.373 -0.241  0.166
 0.296 -0.0960  0.443
-0.0451  0.123 0.0127
-0.0195 -0.0193  0.443
-0.224  0.714  0.441
 0.365 0.0404 0.0894
 0.168  0.121 -0.490
 0.365 -0.130 -0.0726
 0.365 -0.607 -0.0896
-0.258 -0.0449  0.441
-0.224  0.121 -0.166
 0.219  0.121 -0.166
 0.365 -0.394 0.00414
-0.137 -0.136 -0.610
0.0485  0.219  0.210
-0.0281  0.398  0.443
 0.211 -0.642 -0.568
-0.200  0.122 -0.524
0.0653 -0.104 -0.632
 0.354 -0.318 -0.364
-0.355 -0.437 -0.380
 0.108 -0.190  0.441
-0.0110 -0.275  0.443
 0.269  0.492  0.311
-0.373 0.0404 0.0724
 0.173 -0.0101 -0.596
-0.112 0.0404 -0.622
0.00593 -0.0704 -0.637
 0.296 0.0871  0.243
 0.107  0.552  0.222
 0.273  0.653  0.316
-0.240  0.677  0.285
-0.344 0.0873 0.0382
-0.357 -0.727 -0.378
0.0577 0.0233 -0.631
0.0264 -0.377 -0.635
0.0144  0.492  0.208
-0.118 -0.707 -0.620
 0.182  0.594  0.253
-0.168  0.751  0.241
 0.270  0.123 -0.371
 0.339 0.0871 -0.0555
0.0163  0.768  0.302
-0.0375 -0.292 -0.634
 0.142 -0.301  0.441
 0.112 -0.471 -0.620
 0.106 -0.642 -0.622
 0.156 -0.292 -0.601
-0.305  0.410  0.341
 0.195 -0.139 -0.579
-0.348  0.134  0.399
 0.155  0.755  0.400
 0.264  0.714  0.308
 0.298 -0.190 -0.483
 0.365 -0.301  0.413
-0.164 0.0851 -0.567
-0.349 -0.147 -0.404
 0.344 0.00627 -0.403
 0.339 0.0868 -0.269
 0.323  0.202  0.369
 0.302 -0.0960 -0.481
-0.368 -0.585 -0.330
0.00598  0.296  0.208
0.0767 0.0926  0.159
-0.358 0.0233 -0.371
-0.334 -0.440 -0.432
 0.233 -0.0534 -0.554
-0.146  0.475  0.231
 0.182  0.475  0.253
-0.329 -0.272 -0.443
-0.0877  0.160  0.441
-0.180 -0.286 -0.593
 0.208 -0.224 -0.572
 0.236 -0.241 -0.551
 0.228 -0.471 -0.558
 0.287 0.0851  0.166
-0.230 0.0120 -0.558
0.0813  0.415  0.214
 0.125  0.123 -0.337
0.0145 -0.00225 -0.636
 0.367 -0.454 -0.0214
 0.108  0.492  0.443
 0.219 -0.00225  0.441
 0.365 -0.198  0.268
-0.373 -0.411 -0.132
 0.365 -0.505 -0.286
-0.343 0.0623  0.175
-0.164  0.484  0.441
-0.318 -0.292  0.441
-0.113 0.0489  0.441
0.0913  0.123 -0.0640
 0.228 -0.215  0.441
 0.185 -0.292  0.441
 0.367 0.0148  0.320
 0.314 -0.394 -0.460
-0.0536  0.697  0.210
-0.314 -0.0363 -0.467
 0.368 0.00627 -0.277
0.00604  0.123 -0.0299
-0.373 -0.0108 -0.183
0.0828  0.313  0.444
-0.164  0.123 -0.456
-0.318 -0.0363  0.441
-0.139  0.758  0.294
-0.371 -0.224  0.371
-0.371 -0.139  0.260
 0.262  0.121 -0.192
 0.193 -0.360 -0.582
 0.279  0.501  0.441
 0.365 -0.0363 0.0723
-0.122  0.121 -0.218
 0.368 -0.00224 -0.218
-0.224  0.123 -0.0640
 0.194  0.185  0.443
-0.233  0.484  0.443
-0.143 -0.434 -0.610
 0.361 -0.446 -0.330
-0.373 -0.454 -0.149
 0.253  0.543  0.441
 0.219  0.705  0.443
 0.330 -0.241  0.441
 0.352 -0.173 -0.364
-0.0280 -0.122  0.443
-0.326 0.0205 -0.445
-0.373 -0.659 -0.0811
-0.371 -0.377 -0.0470
0.0913  0.121 -0.132
 0.365 -0.744 -0.0214
-0.0861  0.333  0.216
-0.371 -0.0364 -0.269
 0.330 0.0871  0.285
 0.367 -0.317  0.285
 0.365 -0.659 -0.132
 0.279  0.364  0.319
 0.355  0.381  0.443
-0.341  0.617  0.392
0.0815 -0.249 -0.630
 0.286  0.313  0.330
-0.311 -0.528 -0.473
-0.143 -0.221 -0.610
0.0813  0.347  0.214
 0.218  0.757  0.437
-0.160 -0.579 -0.603
 0.352  0.100  0.419
 0.169 -0.181 -0.596
 0.261  0.168  0.304
 0.114  0.382  0.224
 0.113 -0.00225 -0.618
 0.132 0.0853 -0.612
-0.271 -0.0989 -0.520
-0.292 -0.465 -0.499
0.0742  0.758  0.354
-0.373 0.0660 -0.0129
 0.169 -0.497 -0.596
 0.187 0.0925  0.255
-0.199  0.751  0.440
 0.180  0.381  0.250
 0.303  0.594  0.346
 0.333  0.450  0.383
0.0439  0.755  0.226
-0.342 0.0633  0.390
-0.0747 0.0904 -0.583
-0.0464 -0.625 -0.635
-0.255 0.0887  0.297
 0.274 -0.206 -0.510
 0.365 -0.0875 -0.286
 0.270  0.757  0.437
 0.101  0.755  0.271
0.0343  0.143  0.208
-0.361 -0.460 -0.352
-0.372 -0.488 -0.310
-0.372 -0.522 -0.310
-0.296 -0.647 -0.494
-0.357 -0.369 -0.378
 0.322  0.714  0.371
0.0941 -0.607 -0.625
-0.123 -0.636 -0.618
-0.0683  0.764  0.394
 0.348 0.0747 -0.380
-0.318  0.757  0.405
0.0224  0.373  0.207
0.0883 -0.385 -0.629
 0.190 -0.727 -0.582
-0.367 -0.0363 -0.330
 0.352 -0.556 -0.364
 0.352 -0.505 -0.364
 0.361 -0.181 -0.330
 0.337 -0.352 -0.414
-0.358 -0.590 -0.364
0.0933  0.722  0.218
-0.252  0.384  0.292
-0.0933 -0.239 -0.629
-0.288  0.109  0.324
 0.367 -0.369 -0.310
 0.144 -0.352 -0.608
-0.232 0.0878  0.105
 0.178 -0.573 -0.593
 0.208  0.151  0.264
-0.173 -0.511 -0.596
0.0343  0.552  0.208
 0.150 -0.727 -0.604
 0.152  0.432  0.236
-0.0619 -0.267 -0.633
-0.323 -0.326 -0.454
-0.307 -0.00509 -0.479
 0.330  0.288  0.441
 0.107 0.0659 -0.620
-0.250  0.307  0.293
 0.359 0.0857 -0.340
-0.361 -0.238 -0.359
 0.322  0.330  0.371
-0.280  0.279  0.314
-0.0982  0.714  0.219
 0.220  0.755  0.287
 0.355  0.714  0.421
-0.192  0.467  0.256
 0.133  0.731  0.229
-0.196  0.611  0.256
-0.361 -0.306 -0.359
 0.350 -0.394 -0.372
-0.238 -0.676 -0.554
 0.197  0.629  0.259
 0.332 -0.0789 -0.422
-0.232 -0.770 -0.558
-0.269  0.350  0.308
-0.123 -0.312 -0.618
 0.185 0.0871 -0.567
 0.233  0.689  0.281
-0.0314 -0.414 -0.635
 0.275  0.755  0.344
 0.191  0.194  0.256
 0.362 -0.0283  0.443
0.0813  0.611  0.214
 0.361 -0.0193 -0.336
 0.355 0.0868  0.337
-0.119  0.204  0.224
-0.329 0.0932 -0.0385
0.0526  0.755  0.274
 0.362  0.117  0.444
 0.356 -0.318  0.443
-0.354  0.256  0.410
-0.202  0.307  0.259
0.0745  0.458  0.215
-0.00530  0.759  0.403
 0.315  0.467  0.360
-0.332 -0.548 -0.433
-0.352 -0.0789  0.441
-0.264  0.225  0.304
-0.317 -0.193 -0.466
 0.245  0.501  0.293
 0.243 -0.735 -0.547
-0.343 0.0623  0.277
-0.0373  0.458  0.210
 0.270 -0.607 -0.516
-0.152  0.336  0.236
-0.192  0.160  0.255
-0.320  0.657  0.361
0.0911  0.756  0.302
 0.144 -0.463 -0.606
 0.151  0.123 0.0979
-0.143 0.0347 -0.610
-0.0793 -0.0789 -0.629
-0.252 -0.545 -0.544
-0.122 0.0853  0.150
-0.283  0.640  0.320
-0.0195 0.0915  0.208
-0.180 -0.329 -0.593
-0.371 -0.241 -0.0300
-0.146 0.0915  0.231
 0.134  0.356  0.443
-0.301 -0.181  0.441
-0.284  0.364  0.441
 0.363 -0.0620 -0.330
 0.125  0.526  0.444
0.0487  0.219  0.441
0.0487  0.160  0.441
0.0401  0.123 -0.226
-0.373 -0.0875  0.158
 0.306  0.305  0.353
 0.211  0.123 0.0382
-0.0962  0.123 -0.252
-0.373 -0.0449  0.149
 0.245 -0.0704  0.443
-0.371 -0.215 -0.252
 0.365 -0.113 0.0723
-0.371 -0.0364 -0.132
 0.134  0.254  0.443
-0.241  0.254  0.443
-0.343  0.603  0.441
 0.365 -0.565 -0.0214
 0.367 -0.249  0.226
 0.365 -0.0875  0.371
 0.365 -0.139  0.371
 0.367 -0.190 0.0809
-0.190  0.123 0.0467
 0.367 -0.701 -0.286
-0.0963  0.228  0.441
-0.373 -0.0704  0.277
 0.299  0.680  0.342
-0.0195  0.168  0.444
 0.245 -0.0363  0.441
 0.168  0.121 -0.0385
 0.365 -0.122  0.158
-0.371 -0.394 -0.277
 0.368 -0.130 -0.0129
-0.0451 -0.190  0.441
-0.156  0.123 -0.0214
 0.262 0.0851  0.234
-0.0112  0.202  0.208
-0.105 -0.583 -0.625
 0.134  0.688  0.443
-0.130  0.123 -0.345
 0.159  0.126  0.441
-0.250 -0.113  0.443
-0.164  0.123 -0.260
 0.185  0.296  0.443
-0.371 -0.676 -0.149
-0.0707 -0.0875  0.443
-0.371 -0.727 -0.124
-0.139  0.121 -0.473
0.0828  0.123 -0.490
-0.190 -0.0875  0.444
-0.122  0.109  0.441
-0.371 -0.198  0.422
-0.275  0.424  0.443
 0.367 -0.0789 -0.00436
 0.296 0.0873 0.0979
0.0657  0.123 -0.567
-0.0707 -0.258  0.443
 0.262 0.0489  0.441
 0.367 -0.0704  0.106
 0.367 0.0404 -0.0385
 0.185  0.467  0.444
-0.267  0.123 -0.0811
-0.0280  0.123 -0.388
-0.122  0.123 -0.124
-0.373 -0.232  0.277
 0.365 -0.00225  0.268
 0.365 -0.710 -0.0811
-0.105  0.121 -0.149
 0.367 -0.0619  0.320
0.00605 -0.301  0.443
 0.365 -0.249 -0.107
-0.113  0.123 -0.439
-0.309 0.0660  0.443
-0.139  0.279  0.444
-0.371 -0.0278 0.0723
-0.00252  0.202  0.444
-0.258 0.0851 -0.507
 0.287  0.123 -0.141
-0.224  0.123 0.0296
 0.313 0.0871  0.149
 0.368 -0.224 -0.0641
-0.326 0.0643  0.149
-0.373 -0.249 0.0638
 0.367 -0.335 0.0212
-0.0195  0.509  0.441
-0.0536 -0.0619  0.441
-0.224  0.518  0.441
-0.156  0.398  0.441
-0.373 -0.207  0.226
-0.250 -0.173  0.444
 0.151  0.121 -0.379
-0.233 0.0623  0.175
-0.207  0.603  0.441
-0.139 -0.104  0.443
 0.367 -0.565 -0.269
-0.326  0.458  0.443
 0.365 -0.352 -0.141
 0.330 0.0148  0.441
 0.365 -0.667 -0.286
 0.367 -0.113  0.354
-0.373 -0.0875 0.0894
