ply
format ascii 1.0
element vertex 2048
property float x
property float y
property float z
end_header
-0.379  0.379  0.409
 0.562 -0.452 -0.672
 0.556 -0.452  0.684
-0.588 -0.177 -0.644
 0.564  0.482 -0.133
-0.0420 -0.455 0.0178
-0.588 -0.433  0.677
 0.439  0.439  0.689
-0.102  0.488 -0.680
 0.563 -0.162 0.0478
-0.0270 -0.102  0.689
0.0570 -0.102 -0.509
-0.586 -0.157 0.0929
 0.562  0.199 -0.680
-0.0420  0.491 -0.0725
-0.420  0.229 -0.343
0.0997 0.0333  0.198
-0.252 -0.455 -0.418
 0.521 -0.0118  0.499
 0.364 -0.455 -0.253
-0.0320  0.488  0.685
 0.191 -0.452  0.408
 0.244  0.491  0.288
-0.420 -0.0569  0.484
-0.210 -0.0720 -0.118
 0.274  0.490 -0.448
-0.283 -0.455  0.379
 0.521 -0.0720 -0.358
-0.588 -0.445 -0.193
 0.158 -0.452 -0.680
 0.564  0.244  0.198
-0.420  0.214 0.0478
-0.283 0.0934 -0.683
0.0992  0.154 -0.163
 0.563 -0.403  0.318
 0.199  0.229 -0.683
-0.0996 -0.452  0.685
 0.379 -0.147 -0.683
-0.238  0.184  0.689
 0.214  0.154  0.646
 0.225 -0.222 -0.0123
-0.0699  0.321  0.252
 0.289 -0.222  0.689
-0.214 -0.237 -0.680
-0.419  0.489 -0.584
-0.0680  0.244 -0.433
-0.580 -0.454  0.243
-0.0680 -0.192  0.379
-0.403  0.491 -0.118
 0.563  0.124 -0.102
-0.420 -0.162 -0.373
0.0483 -0.412 -0.343
-0.210 0.0183  0.183
 0.259  0.448 -0.133
 0.521  0.259 -0.373
-0.463 -0.455 -0.659
-0.343 -0.412 0.0328
 0.469  0.488 -0.680
 0.562 -0.452 -0.0274
 0.556  0.491  0.364
-0.419  0.481  0.685
-0.0690 0.0934  0.439
-0.222  0.491 -0.343
-0.210  0.259 -0.148
 0.264 -0.182  0.297
 0.334 -0.455  0.153
-0.313  0.491  0.153
-0.328 -0.282  0.688
0.0570 -0.132 -0.223
-0.210 0.00323 -0.433
 0.564  0.199  0.677
-0.420 -0.237  0.288
 0.214  0.491  0.559
-0.0680 -0.192  0.108
 0.267 -0.207 -0.388
-0.588 -0.358 -0.448
-0.568 -0.154  0.677
 0.454  0.491  0.123
 0.564 -0.388 -0.403
-0.0269 -0.455  0.273
0.0332  0.491 -0.343
-0.147  0.490  0.424
 0.184 -0.452  0.685
-0.211 -0.313 -0.193
0.0997  0.289  0.469
-0.0570  0.244 -0.683
-0.0871 -0.455 -0.644
 0.169  0.490 -0.672
 0.334 -0.412 -0.509
-0.420 0.0484 -0.163
-0.0680  0.184 0.0478
 0.564 -0.252  0.529
 0.521 -0.252 -0.193
 0.521 -0.162  0.288
-0.588 -0.298  0.454
-0.378  0.154  0.319
 0.169 -0.455 -0.102
-0.568 -0.154 -0.148
 0.564  0.244  0.439
 0.514  0.491 -0.433
0.0997 -0.267  0.529
-0.111 -0.252 -0.418
-0.0721 -0.0118 -0.683
 0.138  0.491 0.0779
-0.420  0.184  0.544
 0.564 -0.192 -0.554
-0.378 -0.0869 -0.584
-0.0119  0.124  0.688
-0.283  0.319 -0.683
-0.194  0.278  0.484
-0.378 -0.0869 0.0629
 0.394 -0.0268  0.688
0.0633 -0.252 -0.683
-0.210 -0.328  0.213
0.0997 -0.0569  0.424
-0.210 -0.162  0.544
0.0997  0.124 -0.509
-0.358 -0.0118  0.688
 0.334 0.0634 -0.640
0.0570 0.00322 -0.0123
 0.564 0.0333  0.153
-0.418 -0.455  0.544
-0.111 0.0935 -0.268
-0.588 -0.373 0.0478
-0.379 -0.237 -0.0875
-0.0119 -0.455  0.484
-0.420  0.184 -0.554
0.0332  0.490  0.319
0.0994  0.364 -0.494
 0.564 0.0634 -0.509
-0.403 -0.412 -0.283
0.0987  0.319 -0.0274
-0.419 -0.285 -0.549
-0.237  0.323 0.0629
-0.252  0.315 -0.479
 0.364 -0.412 -0.0424
-0.420  0.454 -0.328
-0.0570  0.491  0.138
-0.238  0.394  0.689
 0.521  0.334 0.0177
 0.138 0.0333 -0.683
 0.138  0.334  0.689
 0.225 -0.282 -0.208
-0.253 -0.132  0.333
 0.138 -0.455  0.123
0.0572 -0.279  0.243
 0.544 -0.0269 -0.683
0.0593 -0.285 -0.0975
0.0997  0.229  0.183
-0.420 -0.0419  0.273
0.0997 0.0483 -0.328
-0.420  0.289 -0.133
-0.253 0.0483  0.484
 0.364 -0.404  0.633
0.0570  0.319 -0.253
 0.394  0.491  0.469
 0.409  0.448 -0.253
 0.521 -0.343  0.123
-0.420 0.0484 -0.403
 0.394  0.319 -0.640
-0.0871 -0.455 -0.193
 0.349 -0.343 -0.683
-0.420  0.349  0.213
-0.378 -0.267  0.469
 0.184 -0.0269  0.688
 0.521 -0.0569 -0.133
 0.563  0.289 -0.193
 0.225 -0.177 -0.569
 0.564 -0.102  0.664
-0.253 -0.147 -0.283
 0.496 -0.441  0.507
-0.210 -0.373  0.529
-0.0871  0.448 -0.478
-0.210 -0.282 0.0177
-0.253  0.139 -0.0123
-0.110 -0.267  0.677
-0.0681  0.289  0.619
 0.564 0.0934  0.333
-0.283 -0.455 -0.629
-0.588 -0.165  0.288
-0.237  0.491 -0.0123
 0.564  0.364  0.574
0.0182  0.490  0.499
 0.334  0.289  0.646
-0.253  0.289  0.243
-0.546 -0.267 -0.298
0.0967 -0.285 -0.507
-0.413  0.304  0.688
 0.564 0.0934 -0.313
-0.388 -0.455  0.198
 0.229 -0.455 -0.373
-0.177  0.448 -0.178
-0.111 -0.132 -0.554
-0.0680  0.124  0.213
 0.564  0.349 -0.524
-0.283 -0.452  0.685
-0.0690 -0.0419  0.288
-0.147  0.323 -0.298
-0.237  0.491 -0.569
-0.0680 0.0784 -0.509
 0.199  0.448 -0.298
 0.409  0.491 -0.0574
 0.225 -0.313  0.168
-0.0763  0.323 -0.0587
-0.378 -0.252  0.123
-0.420  0.394 0.0478
0.0987  0.124  0.514
-0.0683 -0.0569 -0.358
-0.0686 -0.0569  0.529
 0.108 -0.207  0.689
-0.111 -0.0419 0.0178
-0.268  0.491  0.544
-0.556 -0.154 -0.479
0.0992 -0.162  0.108
 0.564 -0.418 -0.193
-0.253 -0.267 -0.509
-0.378 0.0784  0.138
-0.433 -0.412 -0.118
-0.403 -0.455 -0.494
-0.420  0.334 -0.479
-0.0680  0.109 -0.102
-0.210 -0.298  0.379
-0.588 -0.343 -0.672
 0.108 -0.455 -0.494
-0.0680 -0.177 -0.102
-0.253  0.169 -0.313
0.0997 -0.237 -0.343
-0.211  0.169  0.349
-0.493 -0.298  0.646
-0.580 -0.454  0.514
-0.420 -0.117 -0.208
 0.529 -0.267  0.688
0.0997  0.154 0.0327
 0.379  0.139  0.689
0.0570  0.184  0.333
 0.304  0.448 0.0779
 0.410 -0.455  0.300
 0.521  0.169 0.0478
-0.192  0.448  0.273
-0.283 -0.455 -0.163
-0.253 -0.162  0.168
0.0180  0.379 -0.640
-0.546 -0.298  0.183
0.0997  0.229 -0.388
 0.564  0.424 -0.283
-0.107 -0.452 -0.353
-0.253  0.169 -0.539
-0.210 0.00323  0.634
 0.529 -0.298 -0.683
-0.224 -0.0569 -0.683
0.0570  0.379  0.153
 0.424  0.448  0.288
-0.546 -0.298 -0.0875
-0.463 -0.455  0.394
 0.484 -0.455 -0.524
 0.521 -0.222 -0.403
0.0997 -0.117  0.258
0.0997  0.349  0.303
0.0361 -0.391  0.638
 0.394  0.448 -0.539
-0.403  0.491  0.304
-0.433 -0.192 -0.683
 0.107  0.437 -0.163
-0.0690 -0.343 -0.539
 0.319  0.454 -0.683
 0.274  0.424  0.688
0.0987 -0.132 -0.0725
-0.388  0.139  0.688
 0.521 -0.282 -0.0424
 0.202 -0.313 -0.636
-0.420  0.481  0.514
-0.546 -0.165  0.514
 0.214 -0.455  0.258
 0.556 0.0483  0.688
-0.343 -0.328 -0.683
-0.0680 -0.298 -0.238
-0.253 0.0183  0.333
-0.0680  0.229 -0.193
-0.418 -0.162  0.689
0.0570 -0.373  0.379
 0.564  0.409  0.183
-0.211 -0.445 -0.0274
-0.420 0.0484 -0.629
-0.111  0.154  0.574
-0.0680 -0.0268 -0.193
0.0570  0.244 -0.584
 0.169  0.448  0.409
 0.424 -0.455 -0.388
0.00314  0.109 -0.641
-0.0699  0.321  0.102
-0.211  0.169  0.168
-0.111 -0.267  0.499
-0.237 -0.147  0.688
 0.256 -0.154  0.153
 0.229 -0.0870 -0.683
-0.253 -0.0118 0.0328
-0.111 -0.403  0.138
-0.210 -0.147 -0.433
-0.117  0.448  0.574
 0.521 -0.282  0.394
 0.564 -0.132  0.424
 0.529  0.349 -0.683
-0.111 -0.358 -0.0875
 0.521  0.334  0.333
0.0997 -0.0569  0.574
-0.420  0.304 -0.644
 0.123 -0.455  0.544
 0.154 -0.412 -0.238
-0.0680  0.229  0.394
-0.253 0.0934 -0.148
-0.252 -0.455  0.153
 0.264 -0.157 -0.153
-0.253 -0.328 -0.328
-0.378 0.0333 -0.0274
-0.0269  0.448 -0.208
-0.433 -0.452  0.685
-0.111 -0.177 -0.298
-0.0680 -0.328  0.319
 0.564 -0.343 -0.554
-0.358  0.491 -0.448
 0.138  0.491  0.677
 0.564  0.124  0.559
 0.562  0.489  0.644
-0.313  0.469 -0.683
0.0997 -0.192  0.394
-0.283  0.491  0.394
-0.493 -0.455  0.108
 0.469  0.304  0.689
0.0987  0.229  0.604
 0.424  0.169 -0.640
-0.420 0.0484  0.574
-0.313  0.491 -0.223
-0.0270 -0.147 -0.683
 0.266 -0.373 0.0478
-0.546 -0.328  0.318
 0.184 -0.328  0.301
-0.553 -0.455 -0.539
-0.107 -0.452  0.384
0.0482  0.491 -0.479
-0.420  0.319  0.529
 0.564  0.199 -0.524
-0.378  0.244  0.424
0.0962 -0.285 0.0491
-0.588 -0.433 -0.328
 0.556  0.491 0.0328
 0.225 -0.328 -0.493
 0.564 -0.0113 -0.0123
-0.210 -0.147 0.0177
 0.521 -0.0569 -0.554
0.0332 -0.403 -0.683
-0.378 -0.147  0.394
 0.267 -0.328 -0.328
-0.420  0.154 -0.0725
-0.420 -0.278 -0.253
-0.0680  0.304 -0.554
 0.544 -0.162 -0.683
-0.224 -0.455 -0.283
-0.0269 -0.455 -0.479
-0.162  0.323  0.349
 0.199  0.364 -0.641
 0.544 -0.455  0.198
-0.390 -0.287 -0.403
-0.378 0.0784 -0.283
-0.253 -0.0269 -0.554
-0.192  0.448  0.123
-0.378  0.319 -0.253
0.0997 0.0634  0.364
0.0332 -0.412 -0.163
 0.286 -0.409 -0.148
 0.563 -0.282  0.258
-0.379 -0.0870 -0.0875
-0.379  0.229  0.183
-0.111 -0.0719  0.168
-0.0699  0.321  0.493
0.0997  0.409  0.559
-0.0996 -0.298 -0.683
0.0482 0.00323  0.688
-0.420  0.184 -0.208
-0.0680 -0.222  0.243
-0.211 -0.207 -0.118
-0.420 -0.162  0.559
 0.289 0.0483  0.646
0.0570 0.00322 -0.193
 0.274 -0.455 -0.614
0.0570 0.0183 -0.448
0.0181  0.448 0.0328
 0.521 -0.132 -0.238
 0.564 -0.0269  0.288
-0.0680 0.0634 0.0929
-0.420 0.0935  0.424
 0.564  0.469 -0.569
 0.424 -0.207  0.646
-0.586 -0.452 -0.0524
-0.420 -0.147  0.198
 0.424 -0.455 0.0629
 0.521  0.244 -0.0725
-0.252  0.289  0.619
-0.210 -0.403 -0.539
-0.177  0.394 -0.641
 0.254 -0.433  0.581
-0.588 -0.192 -0.0274
 0.154  0.448 -0.418
-0.111  0.169 -0.599
 0.214  0.448  0.168
0.0997 -0.0720 -0.373
 0.439 -0.455 -0.133
 0.139  0.448 -0.0424
 0.564  0.394  0.454
0.0570  0.349 -0.373
-0.546 -0.252 -0.554
 0.259 -0.207 -0.683
 0.521 -0.358  0.604
0.0571 -0.0269 -0.614
 0.214  0.448 -0.554
-0.0996 0.00323  0.687
0.0784 -0.412  0.228
 0.521  0.139 -0.418
-0.210  0.214 -0.418
0.0633 -0.412 -0.0273
-0.378 -0.0569 -0.328
 0.521  0.169 -0.208
-0.313 -0.177 -0.641
-0.210 -0.0118 -0.313
 0.169 -0.313  0.689
0.0997 -0.252 -0.223
-0.358  0.491 0.00272
-0.0683 -0.0719  0.409
 0.225 -0.328 -0.0725
-0.0680 -0.298 0.0478
-0.117  0.491 0.0328
-0.420  0.289  0.319
 0.289  0.491  0.409
 0.123 -0.147 -0.683
 0.225 -0.177 -0.268
-0.0119  0.491 -0.584
 0.334  0.491  0.574
 0.521 -0.147  0.168
-0.102  0.448 -0.358
-0.0680 0.0634 -0.388
-0.298 -0.455  0.514
 0.107 0.0935  0.633
-0.463 -0.328 -0.683
-0.117  0.394  0.689
0.0182 -0.455  0.123
-0.580 -0.454  0.364
 0.529  0.491  0.529
-0.403  0.154 -0.683
-0.568 -0.154 -0.328
 0.121  0.154 -0.636
-0.111  0.214 -0.328
-0.253 -0.267  0.484
 0.409  0.448 -0.403
-0.378  0.154 -0.433
 0.564 -0.162 -0.103
 0.274 -0.102  0.688
-0.210 -0.282  0.604
 0.499 -0.455 -0.298
 0.409 -0.0268 -0.641
 0.521 0.0183 -0.223
0.0570  0.289 -0.133
-0.253 -0.343 -0.0875
 0.304  0.490 -0.328
-0.111 0.0634  0.334
 0.564 -0.313 -0.283
-0.111  0.214  0.273
-0.0680 -0.177  0.559
-0.420 -0.147 -0.493
0.0570 -0.0269  0.108
0.0570  0.124  0.138
-0.463 -0.412 -0.403
 0.334  0.229 -0.683
-0.253  0.169  0.574
-0.247  0.322 -0.238
 0.484 0.0634 -0.641
-0.253  0.108  0.258
 0.439 -0.237 -0.641
-0.0871  0.448  0.334
0.0332  0.274  0.689
 0.139  0.448  0.258
0.0570 -0.177  0.589
-0.478 -0.455 -0.0123
 0.521  0.108  0.454
 0.521  0.139  0.213
-0.588 -0.328  0.589
 0.229 -0.455 -0.494
-0.111 -0.0268 -0.493
 0.563  0.379 -0.388
-0.210 -0.222  0.258
-0.0690 -0.237 -0.584
-0.210  0.244 -0.614
-0.358 -0.412  0.304
-0.378 -0.0419 -0.478
0.0332 -0.412 -0.569
-0.283 0.0784  0.689
-0.207  0.448 -0.448
-0.588 -0.313 -0.193
 0.409 -0.413 -0.599
0.0633  0.490  0.183
-0.0690 -0.147 -0.448
-0.253 -0.358 0.0929
-0.252 -0.328 -0.613
0.00312 -0.282  0.646
 0.521  0.199  0.333
-0.378  0.334 -0.373
0.0570  0.124 -0.403
-0.111 -0.433  0.574
 0.439 -0.413  0.198
-0.162  0.281  0.153
-0.214 -0.452  0.288
-0.210 0.0784 -0.599
-0.378  0.409  0.589
-0.253  0.259 -0.0274
-0.162  0.285  0.684
0.0997 -0.192 -0.584
-0.556 -0.154  0.394
-0.413  0.424 -0.683
-0.210 -0.177 -0.569
-0.0680 -0.373 -0.418
 0.564 -0.117 -0.448
 0.564 -0.102  0.544
-0.111 -0.207 0.00273
 0.379 -0.298  0.689
-0.478 -0.455 -0.208
 0.454  0.491 -0.163
 0.244  0.108 -0.683
-0.378  0.334 -0.0424
 0.154 -0.222  0.301
-0.358 -0.455 -0.388
-0.378 -0.0268  0.168
-0.378 0.0634 -0.509
-0.210 -0.252  0.123
-0.0680  0.214 -0.0725
-0.111 -0.0118 -0.0875
-0.343  0.229  0.646
-0.211 0.0784 0.0779
 0.563  0.379 -0.0725
-0.379  0.304 0.0929
-0.0680  0.214  0.153
-0.111 -0.358  0.439
-0.253 -0.0720  0.228
0.0997 0.0634 -0.103
0.0570  0.199 -0.0725
0.0633  0.469 -0.683
-0.0690 0.0333  0.589
-0.373 -0.373  0.646
 0.454 -0.455  0.604
 0.563 -0.433  0.424
-0.328 -0.0118 -0.641
0.0182  0.394  0.689
0.0997  0.139 -0.268
-0.420  0.454  0.198
-0.162  0.323 -0.403
-0.210 -0.222 -0.358
-0.132  0.323 -0.193
-0.253  0.184  0.469
-0.420  0.439 -0.223
-0.378 -0.222 0.0177
-0.111 0.0634 -0.0123
 0.319  0.448  0.183
 0.244 -0.455 -0.0274
0.0997 -0.132  0.499
 0.544  0.379  0.689
-0.463 -0.412  0.288
 0.555 -0.454 0.0929
0.0934  0.490 -0.253
0.0934  0.319 -0.683
 0.521 -0.192  0.604
-0.545 -0.267 0.0328
 0.521 0.0333 -0.388
-0.0680 -0.328  0.198
-0.0119 -0.455 -0.268
-0.210  0.108 -0.388
 0.484  0.491 -0.313
0.0570  0.364  0.409
-0.420 0.0935  0.243
0.0570 -0.0118  0.303
-0.210 -0.0419  0.409
 0.521  0.259 -0.599
-0.210  0.169 -0.208
-0.253  0.274 -0.343
-0.378 0.0183  0.364
-0.210 -0.0569  0.544
-0.298  0.491 -0.118
-0.328  0.491  0.634
 0.563  0.319 -0.298
-0.110 0.0935 -0.672
 0.521 0.00323  0.379
-0.111 -0.147  0.469
 0.304  0.349 -0.683
 0.289 -0.328  0.646
 0.244  0.319  0.689
 0.319 -0.412 -0.403
 0.439  0.448  0.559
 0.514  0.491  0.258
-0.210 0.0183 -0.0574
-0.111 -0.343 -0.328
0.0570  0.199  0.439
-0.378 -0.0869  0.619
-0.253  0.274  0.364
 0.564 0.0183  0.589
 0.502  0.124  0.642
-0.343  0.379  0.689
 0.300 -0.413  0.297
-0.580 -0.445 -0.683
-0.546 -0.252 -0.448
-0.403 -0.0870 -0.683
-0.378 -0.252  0.604
 0.521 -0.343  0.499
-0.545 -0.358 -0.569
 0.521 -0.102 -0.0274
 0.521 -0.0269 0.0779
 0.521  0.259  0.108
-0.111  0.154 -0.418
-0.102  0.491  0.243
-0.111 0.0333  0.198
 0.469 -0.412 -0.0274
0.0997  0.274 0.0929
 0.564 0.0784 0.0628
-0.0681  0.184  0.484
-0.210 0.0784 -0.253
 0.521 -0.267 -0.494
-0.253 -0.0569  0.123
-0.102  0.334 -0.683
-0.211  0.214 0.0779
 0.259  0.448 -0.0123
-0.111 -0.117  0.634
-0.253 -0.177  0.424
-0.147  0.323 0.0178
-0.313  0.199 -0.683
 0.289 -0.454  0.677
-0.210 -0.0268 -0.208
-0.162  0.322  0.589
-0.388 -0.413 -0.584
 0.154  0.229  0.689
 0.319 -0.0419 -0.683
0.0570 0.0333  0.529
 0.521  0.379 -0.178
 0.229 0.0183 -0.641
-0.378  0.409 -0.539
-0.110  0.108  0.677
-0.586 -0.298  0.685
0.0570  0.394 -0.0875
 0.521  0.214  0.559
 0.199 -0.207  0.646
-0.102  0.491 -0.268
-0.283  0.491  0.273
0.0570  0.229 -0.479
-0.214 -0.403 -0.680
-0.0685 -0.177 -0.208
0.0570 -0.162 0.0177
-0.546 -0.165  0.198
 0.469 -0.403  0.689
-0.111 -0.433 -0.539
-0.192  0.323 -0.0724
0.0571 -0.387  0.514
 0.267 -0.373 -0.238
 0.267 -0.298  0.258
 0.108 -0.343 -0.641
-0.111 -0.313  0.589
0.0570  0.319  0.604
0.0996 -0.313  0.619
 0.184  0.490 -0.193
-0.493 -0.413  0.619
 0.564 -0.177 -0.328
0.0570 -0.192  0.303
-0.0996 -0.455 -0.0875
 0.424 0.0634  0.646
-0.358 -0.455 -0.0725
 0.304  0.491 -0.208
 0.364  0.448 -0.133
-0.588 -0.252  0.364
 0.563 -0.267 0.0779
0.0987  0.394 -0.298
-0.0119  0.448  0.243
-0.420 -0.132 -0.0123
 0.319  0.490 -0.584
 0.184 -0.413 -0.569
0.0570 -0.237 -0.433
 0.454 -0.102  0.688
-0.111 -0.418  0.243
-0.210 -0.147 -0.193
-0.343 -0.455  0.604
 0.349 -0.147  0.646
 0.564  0.349  0.108
 0.469 -0.373 -0.683
-0.210 -0.433  0.604
 0.454  0.491  0.394
 0.469  0.448 0.0328
-0.588 -0.445  0.123
0.0332  0.491 -0.133
 0.529  0.491 -0.223
-0.210 -0.237 -0.253
 0.564  0.274 -0.463
-0.0269  0.448  0.409
-0.162  0.323 -0.554
-0.0680  0.304 -0.358
 0.108 -0.0869  0.688
-0.0683 -0.0569 -0.599
 0.563 -0.445  0.589
-0.108 -0.202 -0.680
-0.343  0.448  0.469
-0.0680  0.154  0.334
 0.521  0.139 -0.584
 0.521  0.304  0.499
 0.564 0.0333 -0.133
0.0997 0.0634 0.0629
-0.253 -0.0870 -0.373
 0.274  0.214  0.689
-0.378  0.274 -0.539
0.0570 -0.177  0.198
-0.111  0.244  0.544
 0.138 -0.455 -0.403
0.0934 -0.455  0.454
0.0483  0.490  0.589
-0.378  0.109 0.0478
-0.111 -0.267 -0.118
 0.379  0.491 0.0328
-0.420  0.244 -0.0424
-0.313 -0.455 -0.524
-0.111 -0.102 -0.0574
0.0997 0.0333 -0.554
-0.403 -0.413  0.454
-0.379 -0.177 -0.268
 0.564  0.274  0.619
0.0570 -0.0720 -0.133
-0.0268 -0.343 -0.641
-0.214 -0.452  0.469
-0.545 -0.222  0.589
 0.484  0.491 -0.524
-0.328  0.448 -0.313
 0.475 -0.421  0.360
 0.259 -0.455 0.0929
 0.274 -0.455 -0.283
-0.546 -0.165 -0.238
 0.267 -0.165 0.0478
-0.545 -0.387 -0.133
-0.0119 -0.455  0.589
0.0783 -0.287  0.153
 0.556  0.454 -0.683
-0.237 -0.313  0.688
 0.226 -0.157 -0.479
 0.154 -0.412  0.334
 0.212 -0.404  0.168
0.0490 -0.117 -0.627
 0.195 -0.422  0.497
-0.111  0.214  0.649
 0.521 -0.313 -0.373
 0.521  0.334  0.213
 0.521 0.0483  0.258
-0.111 -0.147  0.273
-0.111 -0.0569 -0.268
 0.138  0.491  0.484
0.0570  0.274  0.273
-0.420 -0.162 0.0929
-0.0997 -0.358  0.688
-0.420 -0.237  0.394
 0.502  0.445 -0.0574
 0.154 -0.237 -0.683
-0.253 -0.343 -0.418
-0.373 -0.455  0.108
-0.328  0.491 -0.584
 0.484 -0.0118  0.688
0.0570  0.169  0.243
-0.237 -0.455 0.0629
 0.521 -0.0569  0.183
-0.111  0.229 -0.524
 0.364 -0.433 -0.683
-0.0420 -0.192  0.689
 0.454  0.214  0.689
-0.420  0.379 -0.118
-0.420  0.379  0.304
-0.493 -0.412  0.469
-0.388  0.491  0.394
 0.564 -0.373 -0.0725
0.0991 -0.298  0.409
 0.424  0.409 -0.683
 0.225 -0.298 0.0779
-0.192  0.490  0.604
-0.379  0.424  0.123
-0.252 -0.387 -0.223
-0.420 -0.278  0.198
 0.123 -0.0569 -0.683
 0.564  0.184 -0.313
0.0991  0.229 -0.298
-0.493 -0.455  0.198
0.0934 -0.452  0.685
-0.420 -0.278 -0.163
 0.521 -0.343 0.0328
0.0332  0.244 -0.683
-0.122  0.488  0.685
-0.192  0.488 -0.680
-0.378 0.0183  0.454
-0.210  0.169 -0.118
-0.210 0.0784 -0.509
 0.544  0.491  0.153
-0.313 -0.455 -0.283
-0.0685  0.315 -0.254
-0.588 -0.252  0.273
-0.359 -0.252 -0.637
-0.588 -0.445 -0.433
-0.253 -0.373  0.288
-0.107 -0.452 -0.443
 0.521 -0.343 -0.178
 0.564  0.184  0.123
-0.478 -0.455 -0.328
-0.111  0.139  0.138
-0.0680 -0.343  0.514
-0.0680 -0.282  0.424
-0.210 -0.0569  0.303
-0.378  0.244 -0.418
 0.349  0.491  0.273
-0.420  0.139 -0.358
-0.210 0.0935  0.559
 0.439  0.448  0.198
 0.394  0.491 -0.328
 0.229  0.448  0.484
0.0570 0.0784  0.288
 0.319  0.448  0.499
-0.210  0.169 -0.659
0.0570 0.0183  0.439
-0.253 0.00322 -0.133
-0.420 -0.0569  0.379
-0.0680 -0.373 -0.0123
 0.563 -0.237  0.183
-0.237  0.448  0.198
0.0570 -0.0870 -0.298
-0.192  0.490  0.499
-0.508 -0.237 -0.683
-0.0680 -0.343 -0.163
-0.0871  0.409 -0.640
 0.267 -0.252 -0.584
-0.0680 -0.117 0.0629
0.0633  0.169  0.689
 0.214  0.448 0.0629
-0.253 0.0934  0.379
-0.0690 0.00322  0.454
 0.256 -0.154 -0.0574
-0.210 -0.0720 -0.479
 0.319  0.154 -0.641
-0.545 -0.373  0.228
0.0997  0.319 -0.569
 0.364  0.491  0.364
0.0997  0.214  0.514
-0.211  0.214  0.273
-0.283 -0.0720  0.688
0.0997 -0.0720  0.183
-0.253 -0.358 0.00269
0.0633 -0.455  0.349
-0.418 -0.282  0.688
-0.0683  0.304  0.349
-0.298  0.394 -0.641
 0.514 -0.401 -0.614
 0.521 -0.358  0.243
-0.420 -0.0419 -0.0123
-0.111 -0.132 -0.373
-0.0690 -0.267 -0.494
 0.138  0.490 -0.569
 0.221 -0.391 -0.433
-0.211 -0.403 -0.148
-0.0872  0.323 -0.463
-0.420 0.0484  0.677
 0.564 -0.207  0.349
-0.538 -0.401 -0.248
 0.564  0.274  0.288
 0.564 -0.0269 -0.283
0.0570 -0.132 -0.418
-0.478 -0.412 -0.569
0.0997 -0.0870 0.0628
-0.111  0.154 -0.193
-0.111 -0.282  0.138
-0.0871  0.491 -0.163
-0.111  0.154 -0.0274
 0.439  0.259 -0.683
-0.388 -0.455 -0.178
-0.0269 -0.412  0.198
-0.253 -0.358  0.604
-0.177  0.448 -0.283
-0.420 -0.147  0.469
-0.420  0.214  0.273
-0.253 -0.373  0.454
 0.521 -0.132 -0.599
0.0570  0.394  0.243
0.0570 -0.207  0.484
0.0570  0.409  0.484
0.0934 -0.455 -0.283
0.00315  0.448 -0.418
 0.521  0.394 -0.584
-0.192  0.448 -0.0725
 0.184 -0.412 0.0629
 0.564 -0.252 -0.118
 0.199  0.491 -0.0875
0.0570 -0.207 -0.163
0.0570  0.334 0.0478
 0.139  0.409  0.646
-0.420 -0.147  0.319
-0.132  0.491 -0.599
 0.169 -0.412 -0.328
-0.546 -0.373  0.529
-0.253 -0.237 -0.0424
0.0570 0.0934 -0.208
0.00311 0.0333 -0.683
-0.0688 -0.237 -0.343
-0.420 0.0333 0.0478
 0.521  0.244 -0.253
-0.420  0.169  0.138
 0.138  0.490 -0.343
-0.0720  0.490  0.469
 0.424 -0.413 -0.479
 0.274  0.274 -0.641
0.0987  0.259 -0.208
 0.409 0.0634 -0.683
-0.0996 -0.455  0.469
 0.564 0.0934 -0.644
-0.420 -0.192 -0.599
 0.563  0.125 -0.0124
 0.564  0.260 0.0177
-0.588 -0.313  0.108
-0.588 -0.358  0.394
0.0997  0.289  0.364
-0.252  0.448 0.0629
 0.564 -0.252 -0.614
 0.379  0.448  0.123
-0.378  0.394 -0.433
 0.521 -0.102  0.349
 0.514 -0.177  0.688
 0.514 -0.455 -0.388
-0.211  0.244  0.559
 0.564 -0.358  0.677
-0.420  0.199  0.634
 0.267 -0.387 -0.554
-0.588 -0.237  0.514
-0.0681  0.289 0.0178
-0.0268  0.214  0.646
-0.0268 -0.0118  0.646
-0.267 -0.409 -0.343
 0.564  0.409  0.349
-0.111 -0.418 0.0478
-0.117  0.323  0.424
 0.364 -0.412 -0.178
 0.184 0.0634  0.646
0.0996  0.424 0.0478
-0.371  0.219 -0.627
 0.267 -0.237 -0.133
0.0570  0.394 -0.569
 0.189 -0.157  0.264
 0.564 -0.445 -0.463
 0.499 -0.455  0.288
-0.420  0.394  0.664
 0.484 -0.0719 -0.641
-0.0119 -0.222 -0.641
-0.253  0.259 -0.539
-0.210 -0.418  0.213
 0.234 -0.453  0.338
-0.388 -0.433 -0.683
 0.484  0.491  0.619
-0.509 -0.155 -0.648
 0.484 -0.412 -0.208
 0.359  0.440  0.633
-0.212 -0.224  0.676
-0.0119 -0.433  0.689
 0.439  0.449 -0.614
-0.0570  0.154 -0.683
-0.588 -0.177 -0.403
-0.0690 -0.102 -0.163
 0.521 0.0934 -0.178
 0.364 -0.267 -0.640
-0.177  0.491  0.349
 0.564  0.454 -0.358
 0.154 -0.391  0.642
-0.210  0.124  0.634
 0.199  0.490 -0.478
-0.358 0.0634 -0.683
 0.564  0.169  0.409
-0.420 -0.237 -0.343
 0.267 -0.252 -0.298
 0.394  0.334  0.689
 0.564  0.424 0.0779
 0.319 -0.0268  0.646
0.0934 -0.412 0.0478
 0.564  0.439 -0.494
-0.588 -0.237 -0.163
 0.289 -0.403 -0.683
-0.420 -0.222 -0.463
 0.225 -0.222  0.183
-0.207  0.469  0.689
-0.111 -0.0118  0.364
 0.564 0.0333 -0.584
 0.319  0.448 -0.509
 0.564  0.319  0.409
-0.283  0.319  0.688
 0.259  0.427 -0.637
-0.420  0.469 -0.493
0.0570  0.124 -0.584
 0.286 -0.409  0.198
-0.378  0.124 -0.613
 0.564 -0.0419  0.439
 0.521 -0.192  0.499
 0.564 -0.0269 -0.418
-0.545 -0.343 -0.0123
-0.253 -0.237 -0.599
-0.448 -0.412 0.0478
-0.588 -0.403  0.303
-0.420 0.0784  0.333
-0.253 -0.0870  0.604
-0.111  0.244 0.0779
 0.349  0.199  0.646
-0.420  0.379 -0.599
-0.253  0.229 -0.238
-0.378  0.244  0.574
-0.328 -0.412  0.168
-0.378  0.109  0.604
-0.268  0.448 -0.509
-0.177  0.448 -0.539
-0.420  0.184  0.454
-0.111 0.00325  0.123
0.0570  0.214 0.0628
0.0570 -0.132  0.424
0.0997  0.319  0.183
-0.253 0.0483 -0.343
-0.0680 -0.132  0.198
 0.529  0.491  0.439
-0.0570  0.448 0.0629
0.0997 -0.0720  0.333
-0.210 -0.0870 -0.584
-0.328  0.448 -0.0574
-0.378  0.349 -0.178
-0.420  0.364 -0.313
-0.523 -0.388 -0.683
 0.169 -0.147  0.689
 0.139  0.259 -0.640
-0.343  0.448  0.243
0.0997 -0.162 -0.479
-0.588 -0.237  0.153
 0.562 -0.373 -0.680
 0.169  0.491  0.318
 0.334 -0.412 0.0328
-0.111  0.259 -0.133
-0.111 0.00325 -0.569
-0.111 -0.0869 -0.659
-0.358  0.274 -0.683
 0.225 -0.237 -0.448
-0.237  0.323  0.424
 0.319 -0.177 -0.641
-0.373 -0.455  0.394
-0.253 0.0784  0.153
 0.169 -0.373 -0.683
-0.588 -0.282 -0.388
0.0783 -0.455 -0.644
-0.111  0.154  0.409
 0.214  0.490 -0.388
0.0570  0.199 -0.238
 0.198 -0.147 -0.641
-0.0119  0.448  0.559
 0.521 -0.313  0.318
-0.216 -0.409  0.684
-0.253 -0.147 -0.0875
0.0633  0.469  0.688
-0.0119  0.491 -0.672
-0.493 -0.154  0.653
 0.229 -0.388  0.689
-0.568 -0.455 0.0478
-0.283 -0.0869 -0.641
0.0572 -0.279 -0.283
-0.420 -0.278 0.0629
-0.147  0.281  0.258
-0.0871 -0.388 -0.683
 0.555 -0.454 -0.554
 0.244 -0.455 -0.193
 0.121  0.445 -0.509
 0.244  0.491  0.664
-0.586 -0.157  0.589
-0.526 -0.409  0.394
 0.564 -0.102  0.228
 0.319 -0.455 -0.0875
 0.521 -0.222 -0.283
0.0633  0.491 -0.0123
0.0182 -0.455 -0.0725
-0.111 0.0634 -0.148
 0.409  0.259  0.646
-0.378 -0.117 -0.418
-0.313  0.448 -0.403
 0.289  0.448  0.334
-0.328 -0.412 -0.208
-0.378 -0.0118  0.529
0.0997 -0.0269 -0.494
 0.514 -0.455 -0.0875
-0.378  0.199 -0.118
0.0989 0.0784 -0.0273
-0.210 -0.132 0.0929
-0.588 -0.207  0.439
 0.364 -0.455 -0.448
-0.253 -0.0870 0.0478
-0.545 -0.343 -0.313
 0.454 -0.313  0.688
0.0570  0.334  0.529
 0.564 -0.267  0.604
-0.0720  0.448 -0.554
-0.420  0.334  0.604
-0.111 -0.237  0.604
 0.138  0.491  0.574
-0.237  0.491 -0.238
-0.420 0.0634  0.499
0.0997 -0.162 -0.358
 0.521  0.199  0.484
0.0570 -0.237 0.00270
-0.378 -0.0419 -0.253
 0.521 -0.207 -0.0574
0.0483  0.491  0.108
-0.420  0.109 -0.223
-0.328  0.491 0.0779
 0.409 -0.455  0.138
0.0633  0.491 -0.599
 0.564 0.0333  0.454
-0.493 -0.455 -0.0875
-0.132  0.491 -0.0424
-0.253 -0.132 -0.524
-0.111 -0.282 -0.0424
-0.111  0.259  0.469
-0.0417 -0.412 -0.358
 0.364 -0.412  0.213
 0.563 -0.358  0.409
 0.334  0.448 -0.418
0.0483  0.490  0.394
-0.420  0.199 -0.479
0.0997 -0.267 -0.599
0.0570 -0.0269  0.228
0.0570  0.184 -0.343
0.0482  0.154 -0.683
 0.267 -0.328 -0.163
-0.373  0.349 -0.683
-0.283 -0.192  0.646
 0.564 -0.0269  0.677
-0.588 -0.445  0.589
-0.0690  0.108  0.529
-0.0996 -0.455 -0.268
-0.211 -0.388 -0.463
0.0987  0.394 -0.418
0.0987  0.364 -0.208
 0.521 -0.117 0.0929
-0.420 -0.132 -0.133
 0.103 -0.358  0.318
-0.359  0.445 -0.178
-0.0521 -0.400  0.633
-0.210 -0.433  0.379
-0.0721  0.319  0.689
 0.556  0.304  0.688
 0.521  0.169 -0.0574
 0.108  0.437  0.153
-0.217  0.332 -0.627
-0.247  0.322  0.514
0.0783  0.394 -0.683
 0.521  0.334 -0.448
 0.564  0.184  0.273
 0.521 -0.358 -0.494
-0.0420  0.427  0.642
-0.545 -0.177 0.0328
 0.564  0.274 -0.659
-0.111 -0.358 -0.253
-0.0680 -0.207  0.454
-0.111 -0.267  0.334
-0.111 -0.132  0.364
-0.0680  0.154 -0.539
-0.298 -0.412 -0.0574
-0.111 0.00325 -0.403
-0.378 0.0634 -0.102
 0.484  0.394  0.646
-0.478 -0.358  0.689
 0.469  0.364 -0.640
-0.253 0.0333  0.574
-0.210  0.124  0.454
-0.378 -0.222  0.228
-0.253 -0.207 -0.418
-0.210  0.154 -0.479
-0.0420  0.448 -0.283
-0.177  0.491  0.213
-0.378  0.199 -0.268
-0.358 -0.412  0.529
 0.349 0.0634  0.689
-0.253 -0.0419  0.484
-0.111 -0.0268  0.619
0.0997  0.184 -0.569
0.0570 0.0483  0.123
0.0570 -0.0569 -0.433
-0.253 -0.0720 -0.298
 0.349  0.448  0.424
 0.154  0.491  0.198
-0.358 -0.117  0.688
 0.564 -0.0720 -0.614
-0.378 -0.0118 -0.178
 0.562  0.489 -0.0474
-0.210 -0.0720 -0.0424
 0.138 -0.455  0.213
-0.210  0.108 -0.0725
-0.538 -0.308 -0.628
-0.403 -0.0118 -0.683
-0.111  0.229 0.00273
 0.564 -0.298  0.454
-0.298 -0.358  0.688
 0.108 -0.413 -0.178
0.0997  0.304 -0.448
 0.267 -0.328 -0.403
-0.588 -0.358 -0.373
 0.379 -0.455 -0.328
 0.424 -0.313 -0.683
0.0987  0.244 -0.0274
-0.378  0.304  0.469
 0.563 -0.192  0.123
-0.0269 -0.412 -0.208
0.0570 -0.252  0.349
 0.521 -0.132 -0.163
 0.304 -0.282 -0.683
 0.564  0.274 -0.539
 0.259  0.490 -0.268
-0.210 -0.237  0.544
0.0997 -0.192 -0.283
-0.545 -0.373  0.153
 0.169 -0.455  0.604
-0.214 -0.162 -0.680
-0.210 -0.298  0.303
 0.521  0.139 -0.494
 0.439  0.491 -0.463
-0.0680 0.0183 -0.328
 0.319  0.448 -0.0574
-0.403 -0.455 -0.0123
-0.0119  0.304 -0.683
-0.0420 -0.455 -0.584
-0.0680 -0.358 0.0929
-0.0119 -0.455  0.349
-0.420 -0.0118  0.619
 0.521 -0.0569 -0.223
-0.420  0.154 0.00272
-0.0270 -0.0720 -0.683
-0.224 0.0183 -0.683
-0.253 -0.343 -0.524
0.0783 -0.455 -0.118
-0.222  0.323  0.304
-0.253 -0.132  0.484
 0.244 -0.267  0.646
0.0633 -0.147  0.689
-0.210 0.00323  0.258
 0.199  0.379  0.689
-0.545 -0.313 -0.509
-0.420  0.379  0.484
 0.334 -0.412 -0.599
 0.225 -0.237 -0.524
 0.521 -0.132 -0.524
 0.469 -0.162 -0.683
-0.177  0.281 -0.463
-0.373  0.491 -0.373
0.0180 -0.207  0.646
 0.199  0.449  0.619
-0.420 -0.0719  0.559
 0.244 -0.0118  0.646
 0.521 0.0483 -0.0274
 0.267 -0.328 -0.599
-0.420  0.469  0.604
0.0995 0.00323  0.619
-0.298 -0.413 -0.463
-0.508 -0.237  0.688
-0.298 -0.412  0.243
-0.0690 -0.0870 -0.509
-0.111 -0.328 -0.478
-0.111 -0.207 -0.478
-0.253 -0.267 -0.133
-0.211 0.00325 0.0929
-0.253  0.154 0.0628
 0.214  0.169 -0.641
-0.253  0.229  0.183
-0.0687 -0.147 -0.614
 0.469 0.00322 -0.683
0.0987 -0.0118 -0.118
-0.132  0.448  0.484
-0.238  0.244 -0.683
0.0570  0.379 -0.0123
-0.237  0.409 -0.683
-0.588 -0.418 -0.614
-0.420  0.454 -0.0123
-0.588 -0.267 -0.0274
 0.521 -0.0118 -0.0725
-0.102  0.323  0.168
-0.253 -0.0870 -0.208
-0.111 -0.192  0.168
-0.0680  0.154 -0.253
-0.111 -0.282  0.243
-0.102  0.491 -0.418
-0.210 0.0483  0.424
-0.253 -0.207 -0.193
 0.267 -0.282 -0.0123
-0.102  0.448  0.183
-0.222  0.448  0.394
-0.378  0.109 -0.163
0.0997 -0.373  0.439
0.0997 0.00323 -0.253
0.0997  0.124  0.198
-0.378  0.154  0.243
 0.289  0.108  0.689
0.0570 -0.0870 0.00270
 0.120  0.169  0.642
-0.463 -0.412 -0.493
-0.177  0.394  0.646
-0.283  0.448  0.334
 0.424 -0.455 -0.208
-0.403 -0.328 -0.641
-0.546 -0.237 -0.223
 0.123 0.0483  0.688
-0.247  0.322 -0.148
 0.563 -0.403 0.0328
 0.563 -0.358  0.183
 0.314  0.488  0.685
 0.394 -0.0870  0.646
 0.199  0.304 -0.683
 0.169 -0.413 -0.494
 0.214  0.490 -0.614
 0.489 -0.452 -0.680
-0.111 -0.343 -0.599
-0.420  0.319  0.409
 0.564  0.425 0.00267
0.0573  0.424  0.619
-0.0593  0.309 -0.628
-0.211 0.0935 -0.672
-0.111 -0.192  0.664
-0.419  0.234 -0.680
-0.526 -0.409 -0.358
-0.0456 0.0784  0.642
 0.266 -0.387 -0.0424
 0.499  0.490 -0.614
-0.298  0.454  0.689
-0.538 -0.455  0.304
-0.378 -0.279 -0.479
-0.0554 -0.404 -0.112
 0.564  0.439  0.258
 0.522 -0.313 -0.614
0.0361 0.0935  0.642
-0.211  0.244  0.424
-0.580 -0.237 -0.683
 0.409  0.491  0.634
-0.193  0.278 -0.253
-0.147  0.323  0.514
 0.555 -0.454 -0.253
-0.313 -0.391 -0.637
-0.413  0.491  0.138
-0.538 -0.401 -0.473
 0.334 -0.373  0.689
-0.0685  0.315 -0.164
0.0491 -0.401  0.303
 0.514  0.124 -0.683
-0.214 -0.452 -0.358
-0.381 -0.285 -0.0123
-0.358  0.491  0.544
-0.283 -0.252 -0.683
 0.121  0.364 -0.637
-0.268 -0.409  0.559
 0.564  0.214 -0.403
 0.564  0.274  0.544
 0.564  0.139 -0.253
 0.521 -0.102  0.469
 0.521 -0.147 -0.373
 0.564 -0.177 -0.208
 0.521 0.0784  0.589
 0.521 -0.0569 -0.463
 0.521 0.0183 -0.313
0.0182 -0.412 -0.448
-0.253  0.214 -0.0875
-0.0680 -0.237 -0.163
0.00315 -0.412 0.0478
-0.210 -0.403  0.123
-0.111 0.0935 -0.343
-0.0680 -0.147 -0.0274
-0.253 0.0634 -0.418
-0.420 0.0484 -0.328
-0.111 0.0183 -0.223
-0.463 -0.267 -0.640
 0.169  0.289  0.646
-0.313 -0.412  0.424
-0.210 -0.222  0.394
-0.378  0.259 -0.178
-0.378 -0.102  0.168
-0.328 -0.412 -0.133
-0.177  0.448 -0.373
-0.420 0.0333  0.168
 0.289 -0.455 -0.539
 0.274  0.491  0.153
-0.378  0.214  0.499
-0.253  0.124  0.514
-0.210 -0.313 -0.479
-0.378 -0.192  0.514
 0.521 -0.177  0.394
-0.378 0.00325 0.0930
0.0570 0.0183 -0.373
0.0997  0.394  0.364
0.0997  0.169 -0.433
0.0570  0.199  0.138
0.0997 -0.207  0.243
-0.210  0.184 -0.0424
0.0570 -0.0269  0.379
0.0997 -0.0118  0.484
-0.420 0.00324 -0.509
-0.117  0.448 -0.118
-0.378 -0.117  0.529
-0.420  0.199  0.349
-0.253 0.0483 -0.554
0.0570 -0.237 -0.554
0.0997 -0.0720 -0.584
 0.521  0.409 -0.448
-0.253 -0.192 0.0478
 0.202 -0.222 -0.637
0.0570 -0.343  0.574
-0.252 -0.147 -0.613
 0.409 -0.412 -0.283
0.0570 -0.117  0.138
-0.378 -0.132 -0.328
-0.0269  0.440 -0.627
 0.521  0.379 -0.253
 0.168 0.0784 -0.641
-0.378  0.274 0.00273
0.0570 -0.207 0.0779
 0.454 -0.413  0.108
 0.212 -0.404 -0.118
 0.210 -0.394  0.290
 0.563 -0.388  0.529
 0.169  0.139 -0.683
-0.343 -0.413 -0.328
-0.420  0.274  0.138
-0.379 -0.162 -0.0875
-0.343 -0.132 -0.683
-0.111 -0.0719  0.243
-0.237  0.323 -0.388
0.0571  0.424 -0.373
0.0571  0.424 -0.253
0.00312  0.319  0.646
-0.211 -0.358 -0.268
-0.268  0.449 -0.614
-0.425 -0.207  0.623
-0.253  0.259 0.0478
-0.194  0.278 0.0929
0.0570 -0.222 -0.0725
-0.108 -0.0719  0.685
-0.588 -0.388 -0.0725
-0.420 -0.278  0.559
-0.253 -0.132  0.258
 0.267 -0.343  0.108
 0.334  0.394  0.689
 0.564  0.154  0.619
-0.403 -0.455  0.333
0.0332 -0.455  0.409
 0.364 -0.237  0.646
-0.111 -0.388 -0.193
-0.111 -0.388  0.304
 0.214 -0.455 -0.253
 0.108 -0.282  0.689
 0.564 0.0634  0.529
-0.433 -0.455  0.138
-0.210 -0.373  0.349
 0.563 -0.207  0.243
 0.229 -0.267 -0.683
-0.252  0.491  0.454
-0.253 -0.298  0.544
0.0332 -0.192 -0.683
0.0570 -0.237  0.424
 0.521 -0.192 -0.463
-0.252 -0.455 -0.569
-0.268  0.448 -0.283
0.0633  0.334  0.689
 0.521 -0.252 -0.343
-0.210 0.0784 -0.0123
 0.564 0.00322  0.213
-0.0690 0.0333  0.394
-0.192  0.448 0.0328
-0.0680  0.169 -0.133
0.0633 -0.455  0.574
0.00311 -0.282 -0.683
 0.169  0.491 0.0178
-0.0646 -0.391 -0.614
-0.210 0.0333 -0.178
-0.0680 0.0333 0.0328
0.0934  0.490 -0.0725
-0.0680 -0.237 -0.0725
-0.420 -0.0118 -0.0725
-0.588 -0.207 -0.584
-0.252 -0.455 -0.494
-0.343  0.289  0.688
 0.304 -0.455 -0.343
 0.514  0.244  0.689
 0.563  0.349 -0.133
-0.588 -0.207 -0.268
 0.564 -0.388 -0.253
0.0987 -0.222  0.138
-0.403 -0.412 -0.433
 0.484 -0.455  0.168
0.0570 -0.162 -0.539
-0.210 -0.192  0.318
-0.420  0.319 -0.569
 0.484  0.491  0.318
-0.379  0.394  0.183
 0.514 -0.222 -0.683
0.0483 -0.412  0.168
0.0570 -0.328  0.484
-0.588 -0.222 0.0779
 0.225 -0.192 -0.102
-0.252 0.00322 -0.613
 0.514  0.437 -0.123
 0.289 -0.405  0.633
-0.328  0.124  0.646
 0.544 -0.455  0.364
-0.0420  0.490  0.619
 0.563  0.289 -0.0424
0.0989 -0.279 -0.402
 0.108 0.0534 -0.628
 0.226 -0.157 -0.403
-0.210 -0.403 -0.614
-0.371 0.0484  0.633
 0.502  0.445  0.123
-0.526 -0.409 -0.0123
0.0993 -0.388  0.604
-0.343  0.440 -0.627
-0.0761  0.323  0.558
 0.214  0.439 -0.683
-0.523 -0.433  0.689
0.0894 -0.287 -0.0261
0.0361  0.445 -0.524
0.0361 -0.0419  0.642
-0.224 -0.455  0.544
-0.420 -0.0419  0.677
-0.568 -0.455 -0.268
 0.123  0.124  0.689
-0.478 -0.391 -0.636
 0.564  0.409  0.634
-0.268  0.199 -0.636
-0.111 -0.433 -0.0274
-0.545 -0.222  0.228
-0.0641 -0.391  0.559
 0.379 -0.433  0.689
 0.564  0.439 -0.208
-0.0268 -0.343  0.646
0.0570 0.0634  0.589
0.0180 -0.132  0.646
 0.564 -0.0720 -0.0875
-0.448 -0.412  0.213
 0.484  0.448 -0.208
 0.564  0.154  0.499
 0.521  0.229  0.394
 0.521  0.229  0.243
 0.564 -0.237 -0.448
 0.564 -0.0720 -0.509
 0.564 0.0634 -0.238
-0.343  0.448  0.379
 0.221 -0.391 -0.298
-0.111 -0.388  0.499
-0.111  0.244  0.349
-0.0680 -0.252  0.559
-0.111 -0.298 -0.178
 0.349 0.0183 -0.683
-0.0119 -0.455 -0.148
 0.379  0.244 -0.640
 0.379  0.394 -0.640
-0.298  0.394  0.646
-0.420  0.259  0.379
-0.253 -0.237  0.168
-0.210  0.214 -0.298
-0.253 -0.267 -0.373
-0.253 -0.177 -0.343
-0.210 -0.132  0.409
 0.267 -0.237  0.228
-0.253 -0.298  0.138
 0.394 -0.412 -0.118
-0.378 0.0935 -0.388
-0.378 -0.252  0.334
-0.313 -0.455  0.288
-0.420  0.244 -0.253
-0.252  0.448 -0.102
-0.378 -0.162 -0.539
 0.214  0.491  0.394
-0.378 0.0484  0.213
 0.439  0.448  0.439
0.0181  0.448 -0.0875
-0.378 -0.0719  0.439
 0.521  0.229 -0.448
-0.210 -0.313 0.0779
0.0570  0.274  0.409
0.0570 -0.252  0.574
0.0570 -0.0720  0.529
0.0570  0.108 0.0177
0.0997 -0.0870 -0.208
0.0997  0.364  0.108
0.0997 -0.192 -0.418
0.0997  0.154  0.454
0.0997  0.169  0.379
0.0570  0.124 -0.313
0.0997 -0.192  0.529
0.0997  0.244 -0.524
-0.378 -0.177  0.138
0.0570  0.108 -0.118
-0.298 0.0333  0.646
 0.349  0.108 -0.683
0.0783 -0.455 0.0929
0.0570  0.289  0.138
 0.379  0.491 -0.178
-0.222  0.491 -0.494
-0.177  0.491 -0.118
0.0997 -0.147  0.349
-0.210 -0.298 -0.659
 0.379 -0.455 0.00272
 0.522  0.424  0.394
 0.364  0.244  0.689
-0.378  0.244  0.334
-0.378 -0.0419  0.334
 0.319 -0.412 -0.268
0.0570  0.274  0.559
 0.454  0.448 -0.358
-0.268  0.491 -0.388
 0.229  0.491  0.108
 0.259  0.448  0.213
-0.420  0.259  0.228
0.0991  0.274 -0.343
-0.252  0.491 -0.163
-0.111 -0.298 -0.373
 0.199  0.491  0.243
 0.469 -0.252  0.646
-0.358  0.491 -0.268
-0.111 -0.192  0.514
-0.508 -0.455 -0.614
 0.123  0.490 -0.463
0.0570 0.0634 -0.494
-0.0570  0.491 -0.373
 0.521 0.0634  0.409
-0.210 -0.0419 -0.388
-0.111  0.109  0.288
-0.420 0.0935 -0.448
 0.521 -0.0118 -0.509
 0.564 -0.0269  0.544
0.0570  0.154 -0.0274
-0.111  0.109 0.0328
-0.147  0.448 0.0779
 0.138 -0.455  0.288
-0.111 -0.0569 -0.133
-0.378  0.109 -0.0574
-0.546 -0.222 -0.343
-0.117  0.323 -0.599
-0.210 -0.222 -0.524
 0.108  0.274  0.689
 0.409 -0.147  0.688
 0.521  0.304  0.153
-0.253  0.184  0.228
-0.253  0.274 -0.193
-0.0690 -0.192 -0.403
-0.237  0.491  0.318
 0.289  0.491  0.619
-0.192  0.349  0.688
-0.238 0.0333  0.689
 0.564 -0.0118 -0.178
-0.378 0.00325 -0.433
-0.0119  0.199 -0.683
 0.454 -0.412  0.273
0.0571  0.334 -0.614
-0.111 -0.0569  0.454
-0.130  0.278 -0.238
 0.522  0.349  0.619
-0.546 -0.283  0.409
-0.420 -0.222 -0.193
-0.420 -0.222  0.168
 0.499 -0.455 0.0629
 0.379  0.448 -0.463
0.00313 -0.455 -0.373
-0.0683 -0.0569 -0.0725
-0.588 -0.358  0.484
-0.448 -0.455  0.484
-0.283 -0.267  0.646
 0.514 -0.401  0.153
-0.0685  0.229  0.589
 0.225 -0.192 -0.343
-0.283 -0.0269 -0.683
0.0993  0.364  0.619
-0.371  0.437 -0.102
-0.588 -0.237  0.664
0.0934 -0.413 -0.388
 0.517 -0.401  0.454
-0.0686 -0.0569  0.123
0.0633 -0.328 -0.683
-0.379  0.394  0.258
 0.521  0.394 -0.343
 0.521 -0.177 0.00270
 0.521 -0.207 0.0629
-0.0690 -0.102 -0.283
-0.211 -0.282 -0.0875
-0.545 -0.177  0.333
-0.379  0.334  0.288
 0.319  0.448 -0.283
0.0987 -0.252 -0.148
0.0987 -0.162 -0.148
 0.563  0.229 -0.118
-0.379  0.154 0.0929
-0.111 0.0784  0.484
-0.253  0.184  0.394
 0.259  0.490 -0.539
-0.237  0.448  0.589
-0.379 -0.207 -0.418
 0.229  0.448 -0.208
-0.379  0.304  0.198
-0.379 -0.162 -0.193
 0.469 -0.413 -0.569
0.0570  0.108  0.469
-0.588 -0.237 -0.509
0.0570  0.409 -0.463
-0.102  0.490  0.529
-0.373  0.488 -0.680
-0.111 -0.252 -0.539
-0.211  0.124  0.213
 0.259  0.448 -0.343
-0.448 -0.455  0.604
-0.508 -0.455  0.574
0.0592 -0.353  0.264
 0.564 -0.177  0.649
-0.379  0.424  0.514
 0.244 -0.455  0.198
0.0593 -0.285 -0.188
 0.502  0.426 -0.634
 0.514 -0.0720  0.688
-0.420  0.439 -0.148
-0.193  0.278 -0.0274
-0.130  0.278  0.619
 0.216 -0.373 -0.627
 0.564 0.0934 -0.418
 0.521  0.184  0.168
 0.521 0.0784  0.153
-0.545 -0.313 -0.238
 0.521 -0.237 -0.554
 0.521  0.184 -0.358
 0.564  0.394 -0.629
-0.111 -0.373  0.198
-0.0680 -0.147  0.319
-0.0680 0.0935 -0.223
-0.0420  0.448 -0.0273
-0.0420 -0.282  0.689
 0.424  0.139  0.646
 0.289 -0.177  0.646
-0.210 -0.0569  0.168
 0.274  0.491  0.484
-0.253 -0.252  0.303
-0.253 -0.0419 -0.433
-0.253 -0.282  0.213
-0.210  0.184  0.514
-0.298  0.448 -0.163
-0.420 -0.0569 -0.373
 0.454  0.491 -0.253
0.0997  0.364  0.454
-0.420 -0.0419 0.0929
-0.546 -0.283  0.574
0.0997 0.0634 -0.448
0.0997 0.0483 -0.208
-0.192  0.491 0.0779
-0.252  0.491  0.108
-0.132  0.491 -0.479
 0.169 -0.412 -0.0574
-0.0570 -0.252 -0.683
 0.364  0.448  0.319
-0.210 -0.132  0.604
 0.304  0.491 -0.0123
 0.289  0.448  0.574
0.0992 -0.0269 -0.0575
 0.564 -0.388 -0.133
0.0570  0.379 -0.148
0.0570  0.274 -0.0725
-0.328 -0.0720 -0.683
 0.564 0.0483 -0.0725
 0.564 -0.0870 -0.268
0.0783 0.0183 -0.683
0.0482 -0.298  0.689
 0.266 -0.222 -0.193
 0.199 -0.0870  0.688
 0.138 -0.282  0.301
-0.111 -0.373  0.379
-0.0680  0.229 -0.373
 0.225 -0.313 -0.554
-0.588 -0.313 0.0328
0.0482  0.491 -0.403
-0.420 -0.0419 -0.433
-0.378  0.319 -0.433
-0.373 -0.455  0.258
 0.563  0.229 -0.208
 0.564  0.139 -0.539
-0.420  0.124 -0.539
-0.420 -0.0869  0.213
-0.420 -0.0869 -0.509
 0.564  0.124  0.258
 0.108  0.491  0.333
0.0783 -0.455  0.273
-0.0680 -0.117  0.574
 0.379  0.448  0.574
 0.521  0.334 -0.569
-0.420  0.259  0.514
 0.469  0.491 -0.102
 0.214 -0.455 -0.629
 0.564  0.409  0.514
0.0570 -0.0419 0.0478
-0.111 -0.207  0.288
0.0997 -0.132 -0.298
-0.283  0.491 -0.328
 0.184 -0.252  0.689
-0.588 -0.298 -0.463
 0.304 -0.282  0.689
-0.378  0.379 -0.268
0.0482  0.491 -0.193
0.0570 0.0784 -0.268
-0.210  0.184  0.619
-0.111 -0.237 -0.283
-0.210  0.214 -0.494
 0.259  0.334 -0.641
 0.521  0.154 -0.148
-0.0680  0.169  0.273
-0.111 -0.0118 -0.629
-0.493 -0.455 -0.268
0.0332 -0.412 -0.283
 0.499  0.274 -0.683
-0.343  0.491 -0.524
-0.0680  0.244 -0.253
 0.229 -0.418 -0.683
 0.304  0.334  0.689
 0.469  0.491  0.514
-0.378  0.184  0.589
-0.420  0.259  0.619
-0.253 -0.0118 -0.494
0.0570 -0.222 -0.494
-0.0690 0.0183  0.529
0.0570 0.00322 -0.313
0.00315  0.448  0.183
-0.420 0.0333 -0.223
-0.0680 -0.0118 -0.133
0.0182  0.491 -0.283
 0.259 -0.0269 -0.683
 0.564  0.185 0.00264
0.0987  0.334 -0.0875
-0.378 0.0183 -0.268
0.0332 -0.0870 -0.683
 0.521 0.0333 0.0629
-0.313  0.448 0.00274
 0.521 0.0934 -0.373
-0.420  0.379  0.108
-0.0570 0.0483 -0.683
-0.379 -0.177 -0.0274
-0.0680 -0.132  0.123
 0.108  0.491  0.409
 0.289  0.214 -0.641
-0.0680 -0.207 0.0478
-0.111 -0.0719  0.349
-0.372  0.437 0.0629
0.00315  0.448 0.0930
-0.298 -0.132  0.646
 0.502 -0.409  0.213
-0.177  0.323  0.409
-0.379 -0.0269 -0.118
 0.244 -0.343  0.301
-0.588 -0.403 -0.554
 0.564 -0.177 -0.614
 0.424  0.448 -0.118
 0.499 -0.455 -0.463
 0.521 -0.328 -0.118
0.0997  0.229  0.349
-0.253  0.214 -0.358
 0.289  0.274  0.689
 0.199 -0.267  0.301
-0.111 0.00325  0.304
-0.420  0.334 0.0328
-0.420  0.304 -0.328
0.0987  0.334 -0.313
-0.588 -0.298  0.228
-0.546 -0.358  0.439
 0.521  0.304 -0.0875
0.00314 -0.0118 -0.641
 0.502 -0.313  0.642
 0.500 -0.445  0.412
-0.0685 -0.298 -0.418
 0.364 -0.192  0.688
-0.343 -0.207  0.646
-0.420  0.481 -0.268
-0.546 -0.298  0.499
-0.378  0.394 0.00273
-0.0686 0.0333  0.243
0.0570  0.274 -0.298
-0.268 -0.455  0.604
-0.546 -0.165 -0.599
 0.424 -0.413 -0.343
 0.424 -0.252  0.688
 0.563 -0.445  0.273
-0.111 -0.102 -0.448
-0.0690 -0.207 -0.524
 0.379 -0.102 -0.641
 0.521 -0.358  0.364
 0.563 -0.267  0.318
 0.521 -0.237  0.138
 0.304 -0.412 -0.208
-0.420 -0.102  0.664
 0.563 -0.343 0.0779
 0.521  0.379 -0.0274
-0.588 -0.445  0.424
-0.580 -0.454 -0.133
-0.111 0.0784  0.589
 0.289  0.491 -0.644
-0.379  0.319  0.364
 0.424 -0.358 -0.641
-0.237  0.448  0.499
-0.253  0.169  0.303
0.0570  0.169  0.514
-0.253 0.00322  0.138
-0.211 -0.343 -0.133
-0.211 -0.433 -0.0875
 0.184 -0.0869 -0.641
-0.379 -0.0870 -0.0123
-0.211  0.229  0.364
 0.121 -0.409  0.394
-0.0721 -0.455  0.213
-0.413  0.491  0.454
-0.111 -0.418  0.634
-0.0721 -0.455 0.0779
-0.378 -0.237 -0.524
 0.556 0.0333 -0.683
-0.0593  0.219 -0.627
-0.268 -0.192 -0.683
-0.0593 -0.252  0.633
 0.409  0.491 -0.672
0.0490  0.209  0.633
 0.564 -0.0707 0.00270
-0.588 -0.358  0.677
-0.413  0.491 -0.418
-0.247  0.322 -0.539
-0.388 -0.311  0.644
 0.521 -0.0720  0.574
 0.138  0.439 -0.683
-0.379 -0.237 -0.238
-0.378  0.334 -0.613
 0.564  0.229 0.0779
-0.545 -0.222  0.394
 0.521  0.379  0.153
 0.564  0.169 -0.448
-0.545 -0.313 -0.418
 0.564 -0.313 -0.208
 0.521  0.364  0.424
-0.588 -0.403  0.183
-0.588 -0.313 -0.283
 0.564 -0.162  0.574
 0.564  0.334  0.469
-0.545 -0.237 -0.0575
 0.521 -0.0269  0.243
-0.225  0.243  0.687
 0.564 0.0333  0.349
 0.514 -0.455 -0.178
 0.564 -0.102 -0.193
-0.210 -0.102 -0.268
-0.111 -0.222  0.409
-0.111  0.124 -0.509
-0.111  0.244  0.183
 0.319  0.139  0.646
-0.111 -0.147 0.0328
-0.0680 -0.0268 -0.539
-0.0680 0.0935 -0.0424
-0.0680 -0.0268 -0.433
0.0570 -0.0870  0.604
-0.253  0.154 -0.0725
-0.0269  0.448 -0.343
 0.394  0.199 -0.683
-0.253  0.199 -0.148
-0.207  0.491 -0.403
-0.253 -0.207  0.574
-0.253  0.184 -0.448
 0.267 -0.282  0.138
-0.420  0.274 -0.388
-0.298 -0.455 -0.102
-0.378  0.319 -0.102
 0.424  0.448  0.499
-0.420 -0.222  0.484
 0.289 -0.455 -0.433
-0.328 -0.455  0.213
 0.409  0.491  0.228
-0.420 -0.0118  0.424
0.0570 0.0934  0.228
-0.0680 -0.298 -0.0875
0.0997 0.00323  0.349
0.0997 -0.222  0.604
0.0997  0.154 -0.373
0.0570 -0.222 -0.253
-0.210 0.0183 -0.524
-0.378  0.184 -0.0273
-0.253  0.108 -0.479
 0.267 -0.267 0.0478
-0.253  0.108 -0.283
-0.0269  0.491 0.0328
0.0570 0.0934  0.394
-0.283  0.491 0.0328
0.0997 -0.0118 -0.403
 0.439  0.491 0.0629
-0.132  0.491 -0.328
0.0997 -0.0419  0.273
-0.0680 -0.373 -0.298
 0.484  0.184  0.646
0.0997 0.0483  0.258
0.0997  0.154 0.0929
-0.508 -0.412 -0.178
-0.586 -0.157  0.153
-0.211 -0.388 -0.343
-0.343 0.0784  0.688
0.0934 -0.413 -0.238
 0.521 -0.313 -0.433
-0.418 -0.455 -0.388
-0.0690 0.0934  0.379
-0.420  0.274 0.0478
 0.199  0.448 -0.0123
-0.403  0.491  0.243
 0.229  0.448  0.334
 0.334 -0.455 0.0929
 0.521  0.199 -0.584
-0.111  0.229 -0.584
 0.439  0.319 -0.683
-0.283 -0.313 -0.683
 0.214  0.214  0.689
-0.0119  0.491 -0.524
 0.379  0.449 -0.614
-0.420 -0.147  0.258
-0.378  0.154  0.183
-0.0690 -0.147 -0.509
-0.253 0.0934  0.318
 0.225 -0.237 0.0779
-0.0680 -0.237 -0.223
 0.409  0.199  0.646
0.0570  0.169 -0.479
-0.211 -0.298 -0.268
-0.210 -0.192 0.0929
 0.409 -0.413 -0.539
 0.521  0.364  0.499
 0.123 -0.413 -0.569
-0.0269 -0.412  0.138
 0.108 -0.343  0.689
-0.420  0.184 -0.614
-0.588 -0.358 -0.509
 0.154 -0.298 -0.683
 0.225 -0.267 -0.0725
0.0332  0.490  0.258
-0.111 -0.343  0.138
 0.484 -0.412 -0.148
 0.564 -0.147  0.349
0.0633 -0.455  0.514
 0.521 0.00323  0.318
-0.0570  0.491  0.198
 0.469  0.259  0.646
 0.394  0.491  0.529
 0.108  0.490 -0.403
0.0633  0.491 0.0478
-0.0871  0.448 -0.208
0.0570  0.108 0.0779
-0.0269  0.448 -0.478
