ply
format ascii 1.0
element vertex 2048
property float x
property float y
property float z
end_header
0.0130 -0.258  0.370
-0.0113  0.130 -0.701
-0.426  0.725  0.541
 0.422  0.625  0.353
 0.181 -0.591 -0.362
-0.271  0.135 -0.0855
 0.312 0.0502 -0.202
-0.0407  0.292  0.553
-0.209 -0.575 0.00323
-0.0552  0.721  0.208
-0.155 -0.240 -0.406
 0.163  0.137  0.200
0.0785 -0.270 -0.0404
-0.327  0.396  0.277
 0.366  0.249  0.533
 0.158 -0.591  0.190
0.0613  0.671  0.560
-0.134 -0.585 -0.551
-0.282 0.0996 -0.452
 0.164 -0.109 -0.483
-0.343  0.142  0.508
 0.171  0.466  0.215
-0.164  0.113  0.221
-0.352  0.696  0.243
0.0895 -0.386 -0.572
-0.173 -0.139 -0.109
-0.223  0.517  0.554
-0.0120 0.0224  0.450
-0.200 -0.488 -0.274
-0.110 -0.569  0.277
0.0469 -0.542 -0.121
 0.175 -0.320 -0.303
0.0293 -0.00359 0.0104
 0.207  0.727  0.222
 0.251  0.137 -0.441
 0.178  0.437  0.553
-0.0621 -0.106 -0.606
-0.0698  0.350  0.220
 0.311  0.721  0.556
-0.0672 -0.371  0.134
-0.194  0.734  0.418
-0.0777 -0.116  0.201
 0.311  0.292  0.299
-0.405  0.365  0.517
-0.303 -0.0246 -0.257
 0.185  0.134  0.425
 0.150 -0.101 -0.177
 0.222  0.135 -0.0188
-0.0812 -0.320 -0.192
 0.181 0.0451 -0.641
 0.404  0.523  0.543
-0.179  0.539  0.212
-0.0333 -0.589 -0.354
-0.193 0.0511 -0.637
0.0673 -0.591 -0.597
-0.407  0.564  0.393
-0.0261 -0.589 0.0904
0.0318 -0.180 -0.325
-0.114 -0.377 -0.545
-0.0261  0.488  0.553
 0.195 -0.590 -0.00287
-0.106  0.135 0.0322
-0.303  0.209  0.315
 0.105  0.736  0.382
0.0733 -0.0437  0.287
-0.143  0.135  0.534
-0.208 -0.0730 -0.498
 0.263 -0.0696 -0.332
-0.0819 -0.212 0.0326
0.0741 -0.153  0.113
 0.163  0.255  0.554
0.00308  0.134  0.272
 0.178 -0.478 -0.217
 0.390  0.412  0.409
0.00272 -0.437  0.280
0.0759  0.612  0.210
 0.310  0.576  0.235
-0.157 -0.124 -0.282
0.0667 -0.218 -0.571
-0.106  0.692  0.559
-0.0105 -0.415 -0.0188
0.0905  0.299  0.222
-0.237  0.350  0.553
-0.0118 -0.152 -0.152
-0.128 -0.589 -0.143
-0.141 -0.0275 0.0185
 0.273  0.733  0.374
-0.0793 -0.123  0.388
 0.208 -0.0279 -0.0371
-0.252  0.137 -0.296
-0.383  0.568  0.553
 0.162 -0.444 -0.430
0.0613 -0.287  0.201
-0.266  0.706  0.559
0.0541  0.137 0.0831
0.0475 -0.590  0.302
-0.0276 0.0270  0.161
 0.236  0.583  0.554
0.0617 -0.459  0.127
-0.172 -0.465 -0.431
0.0614  0.135  0.527
-0.201  0.732  0.258
0.0269 -0.0198 -0.696
-0.0391 -0.481 -0.627
0.0680 -0.350 -0.189
-0.0424 -0.150 -0.452
-0.397  0.726  0.382
0.0663 -0.116  0.417
-0.253 -0.0124 -0.0791
-0.0479  0.736  0.396
0.0104  0.481  0.215
 0.439  0.670  0.491
 0.329  0.155  0.420
 0.138 -0.254 -0.450
-0.230  0.134  0.418
 0.324  0.386  0.554
 0.257 0.00588 -0.501
-0.223  0.313  0.221
-0.0916  0.134  0.382
-0.335  0.555  0.261
-0.161 -0.547  0.135
0.0905 -0.589 -0.252
 0.315  0.430  0.266
-0.0681 -0.470 -0.187
-0.183 -0.356 -0.318
-0.372  0.271  0.419
 0.232 0.0949 -0.310
-0.0837 -0.243 -0.565
 0.167 -0.182 -0.295
-0.0688 -0.0154  0.295
 0.178  0.730  0.520
-0.229 -0.0111 -0.372
-0.0692 -0.279  0.262
 0.156  0.137 -0.543
-0.159  0.136 -0.538
-0.0771 -0.543 -0.0261
-0.179 -0.589 -0.361
0.0541 -0.589 -0.456
 0.206 -0.590 -0.150
0.0408 -0.174  0.268
 0.162 -0.157 -0.0578
 0.214  0.343  0.220
-0.391  0.404  0.393
 0.114 -0.0694 -0.612
 0.258  0.135  0.534
-0.0843  0.219  0.226
 0.220  0.124 -0.151
0.0759  0.350  0.554
-0.178 -0.249 -0.248
0.0247 -0.155 -0.00810
0.0774 0.0598  0.368
-0.0803 -0.286 -0.0695
-0.0583 -0.488  0.182
0.0190 -0.267 0.0839
 0.257  0.179  0.271
-0.121  0.408  0.554
-0.0479  0.590  0.211
0.0542 -0.542 0.00296
0.0652 0.0876 -0.614
 0.267 -0.0640 -0.194
-0.306 0.0881 -0.193
-0.0823 0.0314 -0.713
 0.104 -0.213 -0.189
-0.220  0.103 0.0544
 0.310 0.0343 -0.379
-0.202 -0.0429 -0.183
-0.167 0.0824 -0.0596
-0.0639 -0.0809 -0.0548
 0.192  0.583  0.211
-0.0261 -0.589 -0.230
 0.373  0.517  0.340
 0.138 0.0387 0.0298
0.0468  0.733  0.265
-0.121  0.576  0.554
-0.346  0.270  0.553
-0.172  0.423  0.217
-0.0811 0.0899 -0.612
-0.0460 -0.115 0.0886
-0.0156 -0.362 -0.616
0.0378 -0.107 -0.533
 0.128 -0.488 -0.532
 0.112  0.532  0.554
-0.237  0.233  0.554
-0.167 -0.105 -0.395
 0.317  0.698  0.213
-0.325  0.466  0.554
 0.382  0.728  0.404
-0.208 -0.589 -0.226
 0.103 -0.590 0.0916
0.0523 -0.0515  0.162
-0.157 -0.401 -0.210
-0.0479  0.137  0.156
-0.158 -0.355 -0.445
 0.359  0.278  0.398
-0.295  0.732  0.338
0.0846 -0.0784 -0.0676
-0.0208 -0.205  0.167
0.0557 -0.541  0.201
-0.0564 -0.172 -0.259
-0.248 0.0172 -0.548
0.0836 -0.146 -0.417
-0.0369 -0.590 -0.631
 0.410  0.553  0.438
-0.137 -0.0171 -0.560
-0.237  0.641  0.209
 0.279 0.0445 -0.0980
 0.185 -0.444 -0.320
-0.00833 -0.401 -0.128
 0.163 -0.568 -0.469
 0.162  0.130  0.321
-0.417  0.481  0.462
 0.201 -0.0361 -0.413
-0.105 -0.212 -0.145
-0.317 0.0466 -0.359
0.0249  0.734  0.484
-0.0386  0.118  0.497
 0.338  0.619  0.554
 0.265  0.299  0.553
 0.178  0.241  0.224
-0.0378 -0.484 0.0558
0.0613  0.114  0.185
-0.239  0.187  0.235
 0.159 0.00175 -0.536
 0.177  0.107 0.0977
 0.199 -0.00275 -0.146
 0.197 -0.590 -0.254
-0.0675 -0.171  0.288
-0.373  0.487  0.332
0.0985  0.137 -0.0101
 0.164 -0.376 -0.216
0.0613  0.241  0.554
-0.143  0.277  0.553
0.0368 -0.372 0.0776
-0.117 -0.134 -0.523
 0.375  0.702  0.298
-0.280  0.481  0.216
-0.0479 -0.589  0.192
 0.230 0.00147 -0.266
-0.438  0.660  0.448
0.0905  0.401  0.218
-0.0617 0.0225 0.0578
0.0104  0.583  0.554
-0.113 -0.589 -0.281
-0.0843 -0.589 -0.463
 0.100 0.0538 -0.703
 0.120 -0.589 -0.0698
-0.245  0.135  0.534
 0.140 -0.356 -0.472
-0.375  0.632  0.315
-0.150 -0.0433 -0.0866
0.0591 -0.469 -0.186
-0.330  0.146  0.410
-0.288  0.733  0.447
-0.106  0.735  0.316
-0.335  0.307  0.319
-0.0113  0.125 0.00695
 0.185 -0.0876 -0.274
-0.113 -0.490 -0.563
-0.0115 -0.318 -0.00190
-0.209 -0.557 -0.0990
0.0176  0.134  0.389
0.0129 -0.338  0.268
 0.302  0.481  0.553
 0.398  0.358  0.499
-0.0118 -0.171  0.438
-0.224 0.0656 -0.148
-0.0940 -0.158 -0.362
-0.0181 -0.0728  0.458
-0.0329 0.00860 -0.627
-0.281  0.612  0.553
-0.0710 -0.183 -0.0611
-0.237  0.134  0.323
-0.0916  0.474  0.215
-0.202 -0.138 -0.200
-0.293 -0.00162 -0.163
0.0748 -0.0825 0.0311
 0.297  0.134 -0.240
 0.150  0.133 -0.637
0.00890 0.0354  0.301
 0.101 -0.298 -0.538
-0.0333 -0.589 -0.121
 0.141  0.734  0.287
 0.215 -0.0904 -0.105
-0.216 0.0246 -0.461
-0.135  0.137  0.120
-0.110 -0.0413 -0.650
-0.240 -0.0975 -0.338
-0.0735 0.000159  0.386
-0.225  0.117 -0.382
 0.161 0.0782 -0.0575
 0.188 -0.557 0.0961
-0.106 -0.543 0.0613
-0.143  0.692  0.201
 0.160 -0.247 -0.362
0.0474 -0.379  0.194
0.0976  0.115  0.440
0.0487 -0.502 -0.620
0.0280 -0.0882 -0.631
 0.112 -0.589 -0.164
 0.162 -0.108 -0.375
 0.227 0.0517 -0.425
-0.194  0.731  0.512
-0.0126 -0.482 -0.0911
 0.317 0.0267 -0.288
-0.169 -0.560 -0.457
-0.152 -0.510 -0.202
-0.0126 -0.539  0.258
-0.131 -0.255 -0.491
0.0598 -0.267  0.293
-0.150  0.117  0.317
-0.0552  0.204  0.554
0.0872 -0.159 -0.259
-0.249 0.0431 -0.303
 0.174 -0.178 -0.143
-0.0157 -0.202 -0.602
0.0701 -0.0362  0.375
-0.113  0.735  0.455
0.0541 -0.589 -0.347
 0.214  0.734  0.440
 0.351  0.358  0.341
-0.0261  0.401  0.553
 0.387  0.582  0.283
-0.0661 -0.209  0.380
0.0891 -0.196 -0.0865
0.0309 -0.324 -0.114
 0.234 0.0667 -0.559
0.0351 -0.292 -0.602
-0.00370 -0.590 -0.520
 0.143  0.665  0.199
-0.166 -0.196 -0.332
-0.112 -0.139 -0.201
 0.172 -0.256 -0.246
0.0689 -0.193  0.359
 0.178  0.161  0.553
-0.339  0.730  0.520
0.0366 0.0584  0.112
 0.403  0.725  0.547
-0.0486 -0.288  0.140
 0.141  0.612  0.553
0.0978  0.134  0.265
-0.0115  0.262  0.224
-0.253 0.0805 -0.0228
0.0777 -0.139 -0.155
 0.106 -0.159 -0.517
 0.342  0.169  0.533
0.0765 -0.218 0.0473
-0.218 -0.0459 -0.265
 0.127 -0.00997 -0.0416
-0.285  0.270  0.261
0.0207 -0.000872  0.223
-0.186 -0.446 -0.344
 0.401  0.440  0.535
-0.155 0.0590 0.0282
0.0586 0.00485 -0.617
 0.236  0.685  0.560
-0.238  0.136 -0.194
-0.0770  0.135  0.251
-0.0200 -0.0387  0.108
-0.0898 -0.122 -0.124
 0.166 -0.343 -0.382
0.0188 -0.459  0.202
-0.0806 -0.188  0.111
 0.261  0.514  0.213
-0.0482 -0.365  0.214
 0.132 -0.583 -0.543
-0.0678 -0.0321  0.201
0.00305  0.665  0.198
-0.135  0.495  0.553
 0.294  0.732  0.455
0.0663 -0.142  0.198
-0.0261  0.678  0.560
 0.214  0.364  0.553
-0.286 -0.00697 -0.435
-0.201  0.423  0.554
-0.316 0.0873 -0.274
-0.397  0.648  0.552
 0.121 -0.554  0.252
 0.192 -0.524 -0.316
-0.0524 -0.0561 0.0336
 0.177 -0.517 -0.399
-0.238 -0.0791 -0.121
-0.194  0.734  0.338
-0.0896  0.122 -0.687
-0.241 0.0963 -0.538
 0.153 -0.0840 -0.0232
-0.113 -0.543  0.199
-0.0808 -0.0940  0.302
 0.191 -0.548 -0.0699
0.0177 0.0532 -0.725
0.0843 -0.273 -0.143
 0.232 0.00175 -0.346
-0.140 -0.161 -0.443
-0.310  0.197  0.553
 0.185  0.734  0.353
 0.112 -0.0730 -0.529
0.0733 -0.109  0.331
-0.143  0.134 -0.631
 0.421  0.590  0.506
-0.164 0.0635 -0.565
-0.239 -0.0809 -0.415
-0.147 -0.591 -0.0666
-0.317  0.623  0.228
-0.170 -0.320 -0.218
 0.258  0.648  0.209
 0.333  0.510  0.274
 0.116 -0.0131 -0.667
 0.229  0.134  0.360
 0.120  0.525  0.213
 0.287  0.131 -0.350
 0.265  0.732  0.273
-0.135  0.277  0.223
-0.366  0.211  0.468
0.0107 -0.101 -0.0643
-0.0614 0.0983  0.317
 0.306  0.220  0.326
-0.216  0.135 -0.470
-0.293 -0.0328 -0.335
-0.130 -0.132 -0.0454
-0.405  0.728  0.462
0.0539 0.0773 0.00968
 0.141 0.0692 -0.581
 0.102  0.729  0.531
-0.0206 -0.522 -0.156
 0.234 0.0575 -0.215
 0.360  0.220  0.463
0.0831  0.137 -0.674
0.0262 -0.429 -0.620
 0.229  0.503  0.554
 0.258  0.134  0.447
0.0177  0.379  0.219
 0.179 0.0949 -0.484
0.0322  0.736  0.360
 0.341  0.641  0.269
-0.236 0.0153 -0.217
0.0468 -0.589  0.141
-0.0362 -0.116 -0.523
-0.0298 -0.405 0.0666
 0.265  0.259  0.249
-0.0450 0.0730  0.222
 0.274 -0.0197 -0.424
-0.121  0.134  0.462
-0.259  0.379  0.219
0.0978  0.134  0.367
-0.290 0.0652 -0.107
-0.215  0.648  0.554
 0.218 -0.121 -0.215
 0.251  0.408  0.218
0.0249  0.197  0.227
-0.147 -0.422 -0.487
-0.0188 -0.589 -0.0334
-0.00388 -0.331  0.340
-0.0711 0.0662  0.421
 0.119 -0.542  0.149
-0.424  0.583  0.462
-0.265 -0.0777 -0.218
 0.228  0.137 -0.521
-0.202 0.00457 -0.00993
-0.252  0.568  0.211
-0.414  0.503  0.537
0.0397 -0.489 0.0631
-0.0116 -0.173 -0.384
-0.134 -0.591 0.00609
 0.147 -0.182 -0.405
-0.208  0.137 -0.0334
-0.173 -0.269 -0.332
-0.332  0.394  0.554
0.0978  0.226  0.225
-0.299  0.116 -0.375
 0.273  0.226  0.554
-0.274  0.731  0.251
-0.0113 -0.489 -0.0121
 0.120 -0.541 0.0397
-0.0843 -0.541 -0.0987
 0.355  0.438  0.326
 0.112  0.135  0.127
-0.0989  0.335  0.554
 0.164 -0.177 -0.223
-0.0938 -0.591  0.117
 0.222 -0.0569 -0.490
 0.228 0.0641 -0.0341
-0.187 -0.517 -0.369
 0.213 0.00232 -0.584
 0.105 -0.589 -0.405
-0.375  0.559  0.323
 0.171  0.137 0.0321
-0.0406  0.423  0.217
 0.380  0.730  0.476
-0.361  0.727  0.309
 0.309  0.554  0.553
-0.0108 -0.357 -0.0625
 0.270 -0.0192 -0.130
-0.172  0.204  0.554
-0.0440 -0.591  0.297
 0.272  0.120 -0.102
 0.201 -0.0464 -0.215
-0.0261  0.135 0.0759
-0.0422 -0.279 0.0495
-0.144 -0.0893 -0.471
-0.194 -0.556 0.0724
 0.116 -0.148 -0.340
0.0939 -0.159 -0.0239
 0.150 -0.0476 -0.0966
 0.111 -0.423 -0.199
 0.141 -0.542 -0.121
 0.179 -0.0651 -0.549
0.0569 -0.334  0.133
-0.208 -0.0590 -0.0499
-0.194 0.0100 -0.109
-0.0947 -0.553 -0.599
-0.0590 -0.417 -0.606
-0.0392 -0.324 -0.136
 0.217  0.117 -0.384
-0.0777 -0.400 -0.191
0.0371 -0.167 -0.211
0.0112 -0.105 0.0496
-0.0625 -0.589 0.0249
-0.0540 -0.260  0.334
 0.134 -0.589 -0.310
0.0331 -0.153 -0.593
0.0295 -0.590 0.0484
0.0235 -0.143 -0.476
0.0411 -0.214  0.137
 0.296 -0.0169 -0.237
-0.0405 -0.125 -0.00624
 0.108 -0.233 -0.516
-0.0433 -0.0623 -0.657
-0.0693 -0.0375 -0.590
0.0399 -0.0125 0.0851
-0.0919 0.0774 -0.00370
-0.150  0.197  0.227
-0.0625  0.619  0.554
-0.137 -0.0799 -0.588
-0.150 -0.0948 -0.157
 0.415  0.641  0.434
 0.297  0.145  0.358
-0.0916 -0.589 -0.201
 0.112 -0.291 -0.203
-0.148 -0.197 -0.213
-0.173 -0.590  0.186
0.0395  0.554  0.212
 0.104 -0.0207 0.0362
 0.282  0.328  0.248
0.0176  0.134  0.462
 0.286 0.0535 -0.460
-0.132 0.0212 -0.0287
-0.198 -0.0179 -0.591
 0.139 -0.430 -0.498
 0.115 -0.507 -0.194
0.0513 0.0498  0.430
 0.291  0.130 -0.173
 0.193 -0.546 -0.202
 0.369  0.323  0.549
-0.202  0.110 -0.596
-0.127 -0.321 -0.509
-0.283 0.0437 -0.490
-0.0177  0.104 -0.631
0.0520  0.109  0.312
 0.116  0.101 0.0479
0.0828 -0.452 -0.587
-0.369  0.347  0.365
-0.00401 0.0524 0.0331
 0.149  0.321  0.554
-0.0604 -0.300 -0.593
-0.0479  0.134  0.433
-0.172  0.627  0.210
-0.00423  0.161  0.553
 0.259 -0.0807 -0.266
-0.195  0.107  0.128
-0.396  0.356  0.439
-0.339  0.464  0.280
-0.0700 -0.177 -0.573
-0.303  0.685  0.201
-0.0196 -0.332 0.0826
 0.205 -0.126 -0.324
-0.144 0.0485 -0.682
-0.288  0.137 -0.237
0.0249 -0.589  0.236
-0.172  0.343  0.554
0.0625 -0.111  0.265
0.0759  0.605  0.554
-0.114  0.547  0.212
-0.288  0.525  0.554
-0.0257 -0.145  0.229
 0.198 0.00700 -0.471
-0.256 -0.0208 -0.492
-0.186  0.134  0.469
0.0177  0.137  0.141
-0.181 0.00128 -0.514
0.0759  0.415  0.554
0.0357 0.0725  0.229
0.0541 -0.589 -0.0698
-0.205 -0.554 -0.281
-0.113  0.736  0.389
-0.110 -0.591 -0.346
-0.325  0.661  0.558
 0.184  0.132 -0.0863
 0.127 -0.589 -0.00425
 0.233  0.124 -0.230
-0.109 -0.262 -0.204
-0.105 0.0295 -0.606
 0.156  0.313  0.221
-0.266  0.437  0.553
-0.00423 -0.589 -0.296
-0.0798 -0.274 -0.00555
 0.105  0.175  0.553
-0.135  0.732  0.258
-0.00449 -0.0522 -0.0164
-0.223  0.706  0.203
 0.400  0.639  0.550
-0.0853 -0.0226 -0.0146
-0.204  0.129 -0.0976
 0.164 -0.0251 -0.617
 0.171 -0.408 -0.377
-0.0464  0.526  0.213
0.0511 -0.0569  0.438
0.0493 -0.0567 -0.579
-0.173 -0.349 -0.382
-0.0705 0.0885 0.0709
-0.186 0.0798 -0.507
-0.0421 0.0437  0.345
-0.403  0.625  0.374
0.0243 -0.575 -0.643
 0.179 0.0206 -0.0891
-0.113 -0.199 -0.516
 0.183 -0.393 -0.281
-0.201 -0.0350 -0.439
-0.0116 -0.459 -0.159
0.0336 -0.0890  0.114
-0.185 -0.546 -0.157
-0.0894 -0.0790 -0.542
-0.0552 -0.589 -0.558
0.0220 0.000440  0.401
 0.384  0.300  0.477
 0.120  0.728  0.228
-0.0161 -0.0754 -0.575
 0.213 0.0589 -0.141
 0.404  0.423  0.469
-0.149 -0.483 -0.501
 0.118 -0.0957 -0.122
0.0686  0.736  0.433
-0.0841 -0.540 -0.163
-0.0771  0.525  0.554
 0.185  0.134  0.258
-0.274  0.299  0.554
-0.0705 -0.515  0.104
0.0720 0.0309 0.0535
-0.172  0.135 0.0322
 0.346  0.730  0.353
 0.127 -0.196 -0.467
-0.341  0.257  0.356
-0.0677 -0.277  0.200
-0.0650  0.729  0.531
-0.0115 -0.589 -0.412
-0.0687 -0.430  0.113
-0.157  0.627  0.554
-0.346  0.731  0.425
-0.172  0.692  0.560
 0.339  0.220  0.390
-0.0452 0.0803  0.127
0.0468 -0.589 -0.208
 0.258  0.437  0.554
-0.121  0.116  0.178
-0.386  0.271  0.506
0.0359 -0.315 -0.0411
-0.0276 -0.541 -0.0698
-0.0473 -0.422  0.191
-0.112 -0.0794 0.00240
-0.290  0.118 -0.142
 0.111 -0.0229 -0.572
0.0217  0.718  0.558
-0.107 -0.159 -0.291
 0.151 -0.591 -0.213
-0.191 -0.372 -0.252
0.0249  0.722  0.208
0.00573 -0.444 0.0324
 0.201  0.108 -0.590
 0.243 -0.0793 -0.389
-0.403  0.690  0.333
-0.411  0.421  0.467
0.0481 -0.285 0.0334
-0.135  0.128 -0.0343
-0.164 -0.543 -0.0334
 0.216  0.101 0.0504
-0.0625  0.144  0.549
-0.186 -0.139 -0.337
-0.208  0.134  0.258
-0.184 -0.0849 -0.225
-0.136 -0.591 -0.404
0.0877 -0.123 -0.564
 0.140 -0.129 -0.266
-0.123 -0.168 -0.0945
0.0485 -0.153 0.0517
-0.318 0.0363 -0.222
0.0528 -0.408 -0.184
-0.0783 -0.122  0.141
 0.160 -0.0489 -0.490
0.0706 -0.0579  0.229
 0.192 -0.109 -0.429
-0.00646 -0.384  0.307
 0.387  0.576  0.360
0.00309  0.135  0.200
 0.402  0.699  0.355
0.0322  0.313  0.222
0.0894 0.0223 -0.00331
-0.145 -0.162 -0.156
-0.0811 -0.0726  0.243
-0.143 -0.589 0.0759
-0.176 -0.415 -0.397
-0.255 0.0836 -0.259
 0.216  0.186  0.228
-0.133  0.337  0.221
0.0596 -0.207 -0.0332
 0.170 -0.00659 0.00300
-0.274  0.731  0.505
0.0487 -0.124 -0.106
0.00308 -0.589 -0.587
0.0127 0.0536 -0.638
-0.307  0.341  0.267
-0.157 -0.000966 -0.652
-0.359  0.414  0.324
0.0368 -0.213  0.405
-0.406  0.498  0.407
 0.241 0.0587 -0.368
-0.0428 -0.533 0.0229
0.0615 -0.393  0.127
-0.182 -0.306 -0.274
0.0697 -0.0536 -0.655
 0.176 -0.313 -0.231
0.0205 -0.118  0.454
-0.190 -0.466 -0.220
 0.388  0.350  0.441
0.00305 -0.182 -0.273
-0.164  0.481  0.214
-0.0187  0.736  0.331
-0.0115  0.733  0.258
 0.156 -0.589 0.0467
 0.120  0.678  0.560
 0.156  0.734  0.447
0.0759  0.735  0.316
-0.316  0.173  0.359
-0.241 0.0735 -0.418
0.0832 -0.541 -0.0480
0.0692  0.669  0.199
 0.132 -0.114 -0.428
 0.107  0.117 -0.584
 0.156  0.372  0.219
 0.318  0.350  0.289
 0.309 0.0784 -0.262
 0.273  0.731  0.512
-0.0223 0.0798  0.453
-0.346  0.202  0.401
-0.0266 -0.179 -0.325
 0.153 -0.591  0.132
-0.411  0.423  0.525
-0.257 -0.0927 -0.283
-0.288  0.134  0.491
-0.0552  0.735  0.455
-0.135  0.732  0.512
-0.223  0.255  0.224
-0.0798 -0.0727  0.360
 0.180 0.0576 -0.529
0.0265 -0.268  0.153
0.0164 -0.219  0.210
-0.0916 -0.272 -0.125
-0.119  0.128 -0.578
0.0776 -0.123 -0.481
 0.293 -0.0153 -0.354
 0.258 0.0997 -0.489
 0.157 -0.488 -0.467
-0.0437 -0.0189 -0.695
-0.144  0.120  0.401
-0.447  0.684  0.506
0.0778 -0.537  0.109
0.0856 -0.590  0.224
0.00561 -0.385  0.236
0.0388  0.134 -0.638
 0.258  0.583  0.211
-0.202 -0.529 -0.221
-0.0350 -0.180 0.00768
0.0460  0.106 -0.704
-0.0471 0.0866 -0.712
 0.130 0.0893 -0.669
-0.0188  0.134  0.345
 0.207  0.292  0.554
-0.0625 -0.589 -0.0698
-0.205 -0.0644 -0.370
0.0468  0.539  0.554
 0.120  0.452  0.554
-0.0221 -0.372 -0.175
 0.207  0.219  0.554
-0.274  0.134  0.382
 0.134  0.183  0.227
0.0546 -0.349 -0.597
-0.109 -0.433 -0.559
0.0322 0.0474  0.168
-0.0437 -0.168 -0.204
-0.0780 -0.366 -0.588
 0.100 -0.546 -0.585
0.0656 -0.546  0.262
 0.134  0.134  0.527
-0.0340 -0.00950 0.00750
 0.222  0.284  0.223
 0.149 -0.542 -0.0334
0.0263 -0.00200  0.345
-0.208 -0.137 -0.261
-0.360  0.195  0.527
 0.144  0.130 -0.0448
-0.305 0.0532 -0.413
 0.287  0.112 -0.402
-0.168 -0.0901 -0.533
-0.0575 -0.169  0.189
 0.323  0.732  0.404
-0.233 0.0876 -0.332
 0.398  0.517  0.397
-0.0617 -0.0626  0.155
 0.155 -0.284 -0.406
0.0686  0.503  0.214
 0.423  0.706  0.433
 0.192  0.634  0.554
 0.141  0.605  0.210
-0.245  0.568  0.554
-0.00423  0.226  0.553
-0.0916  0.401  0.218
-0.121  0.226  0.554
-0.163 -0.0863 -0.0315
0.00461 -0.364 0.0249
-0.114 0.0218 0.0405
-0.0193 -0.128 -0.103
-0.0485 -0.227  0.213
-0.221 -0.0354 -0.543
 0.123 0.0848 -0.0181
 0.332  0.263  0.350
-0.124 -0.444 -0.202
-0.273 -0.0487 -0.387
-0.0600 -0.0506  0.430
-0.0688 -0.164 0.0634
-0.0973 -0.322 -0.555
0.0202 -0.537 -0.0431
-0.190 -0.0900 -0.310
 0.196 -0.517 -0.252
-0.0422 -0.126  0.448
-0.0288 -0.534 -0.638
0.0723 -0.296 -0.0919
-0.203 -0.591 -0.0561
 0.296 0.0584 -0.150
 0.280  0.135 -0.296
0.0759 -0.589 -0.543
-0.225 0.0330 -0.597
-0.427  0.584  0.517
-0.190 -0.591  0.114
0.00430 -0.488  0.250
 0.214 -0.0447 -0.325
0.0610 -0.500  0.165
-0.0186 -0.240  0.126
-0.194 -0.436 -0.288
-0.0285 -0.310  0.297
 0.193 -0.133 -0.164
-0.0911 -0.233 -0.0682
0.0755 -0.535 -0.166
-0.392  0.308  0.463
 0.296 0.00794 -0.173
 0.189 -0.451 -0.267
-0.205 0.0582 -0.00744
 0.179 0.0672 0.0106
 0.285  0.467  0.224
-0.172 -0.182 -0.281
-0.155 -0.161 -0.391
-0.301  0.530  0.223
-0.0168 -0.136 -0.603
-0.0182 -0.270 -0.607
0.0654 -0.167 -0.371
 0.158 -0.190 -0.353
 0.163  0.133  0.374
-0.121 -0.589  0.229
-0.200 -0.102 -0.0816
-0.246 0.0729 -0.208
0.0301 -0.591 -0.135
0.0108 -0.0314 -0.606
-0.217 0.0138 -0.158
 0.176 -0.545 0.0238
 0.242 -0.0840 -0.151
0.0733 -0.110  0.156
-0.244 0.0336 -0.0460
-0.164 -0.589 -0.296
 0.280  0.350  0.553
-0.0188 -0.589 -0.172
-0.263  0.154  0.282
-0.0916  0.137 0.0831
-0.186  0.372  0.219
 0.395  0.631  0.302
-0.237  0.518  0.213
0.0201 -0.00959  0.134
 0.257  0.105 -0.0515
-0.314 0.0132 -0.318
 0.160 -0.591 -0.113
-0.226 0.0800 -0.469
-0.147 -0.306 -0.462
0.0387 -0.00247  0.280
 0.111 0.0277 -0.594
0.0599 -0.0542 -0.0280
-0.0812 -0.154 -0.416
 0.118 -0.114 0.00133
-0.173 -0.0532 -0.133
-0.223  0.733  0.462
-0.164  0.546  0.554
0.0541  0.255  0.224
0.0468  0.135  0.243
-0.0625  0.734  0.287
-0.266  0.733  0.382
 0.149  0.394  0.554
0.0252 -0.162 -0.420
0.0614  0.445  0.216
0.0697 -0.160  0.309
-0.0916  0.680  0.199
-0.0696 -0.542  0.229
-0.339  0.539  0.554
 0.188 -0.148 -0.259
 0.198  0.134 -0.443
-0.215 0.0784 -0.0956
 0.176 -0.568 -0.413
 0.242 0.0576 -0.266
-0.136 -0.209 -0.467
 0.119 -0.364 -0.519
-0.135 -0.542 -0.121
-0.0989  0.134  0.323
 0.323  0.135  0.498
0.0618 -0.240  0.249
 0.178 -0.459 -0.373
 0.227 -0.0167 -0.538
 0.168 -0.591 -0.0514
-0.0421 0.0499  0.268
 0.177 -0.110 -0.0715
0.0759  0.495  0.554
 0.134  0.430  0.216
0.0540  0.292  0.553
-0.0843  0.444  0.554
-0.0540 -0.326  0.248
0.0614  0.135 0.0322
0.00309 -0.589 -0.463
0.00308 -0.589 -0.0844
 0.310  0.627  0.227
 0.185  0.634  0.209
 0.258  0.733  0.324
-0.245  0.733  0.331
0.00241 -0.443 -0.0613
0.0200 -0.288  0.327
 0.229  0.474  0.214
 0.171  0.518  0.213
 0.121 -0.0612 0.00942
-0.124 -0.0843 -0.103
 0.377  0.467  0.362
-0.0404 0.00813  0.105
-0.223  0.117 -0.147
 0.112 -0.132 -0.192
0.0942 -0.590  0.276
 0.112  0.135  0.207
0.0680 0.0886 0.0602
0.0556 -0.425  0.174
 0.214  0.732  0.273
0.0249  0.415  0.554
0.0249  0.612  0.210
-0.0552  0.137 -0.653
0.0905  0.350  0.220
-0.164 -0.543 0.0175
 0.360  0.546  0.554
-0.114  0.598  0.211
 0.309 0.0779 -0.312
-0.0261  0.539  0.553
 0.174 -0.270 -0.295
 0.330  0.219  0.552
-0.0524 -0.00818  0.243
 0.209 0.0203 -0.0171
-0.309  0.443  0.245
 0.345  0.730  0.512
0.0535 -0.167  0.417
-0.160 -0.591 -0.243
-0.0526 -0.591 -0.281
0.0240 -0.329 -0.163
-0.239 -0.00387 -0.323
-0.0752 0.0244 0.00876
-0.160 -0.0386 -0.619
 0.141  0.114  0.243
-0.0743 -0.218  0.316
0.0527 -0.249  0.340
-0.113 -0.589  0.178
0.00942 -0.0577 -0.667
0.0941  0.131  0.487
-0.106 -0.126 -0.455
-0.0237 -0.0200  0.179
0.0992 -0.590 -0.478
-0.172  0.137  0.178
 0.249 0.0253 -0.0628
-0.166 0.0920 -0.646
-0.0699 -0.530  0.157
0.0395 -0.589 -0.00425
-0.199 -0.554 -0.332
 0.243  0.699  0.203
-0.186 -0.559 -0.401
0.0688 -0.218  0.294
0.0149 -0.0250  0.450
-0.0242 -0.225  0.402
 0.153 -0.401 -0.455
-0.258 -0.0777 -0.166
-0.244 0.0338 -0.356
-0.0617  0.117 -0.000453
-0.0278 -0.00153  0.331
-0.423  0.684  0.383
-0.297 -0.0250 -0.207
-0.170  0.112 0.0759
-0.0561 -0.118  0.267
-0.138 -0.539 -0.534
 0.193 -0.591 -0.303
 0.177 -0.145 -0.106
-0.0619 -0.248 0.0828
-0.0697 -0.320  0.171
0.0707 -0.539 0.0494
 0.282  0.227  0.284
-0.0479  0.168  0.229
 0.163 -0.0659 -0.145
0.0885 -0.591 -0.108
 0.221 0.0177 -0.184
-0.0847 -0.505 -0.602
0.0187 -0.158  0.212
 0.324  0.306  0.554
0.0175 -0.130  0.270
-0.258  0.110 -0.494
 0.289 -0.0363 -0.281
-0.201  0.148  0.551
-0.0406 -0.589 -0.485
 0.163  0.568  0.554
-0.194  0.134  0.345
-0.138 -0.135 -0.354
 0.144 -0.313 -0.449
-0.0698  0.634  0.210
-0.0901 -0.591 -0.0152
-0.368  0.445  0.553
-0.129 0.0850 -0.602
 0.311  0.729  0.257
 0.242 0.0367 -0.310
 0.207  0.430  0.216
 0.381  0.481  0.552
-0.259  0.437  0.216
-0.0854 0.0738  0.375
-0.0797 -0.153  0.331
-0.121 -0.544 -0.0553
 0.138 -0.0883 -0.567
-0.179 -0.589 0.0395
-0.166 -0.0507 -0.492
-0.392  0.461  0.378
 0.213 0.0625 -0.473
 0.116 -0.430 -0.541
 0.224 0.00850 -0.404
-0.0107 -0.146 0.0322
-0.207 -0.122 -0.139
-0.343  0.649  0.260
 0.136 -0.333 -0.209
-0.0186 -0.526  0.212
-0.190 -0.591 -0.127
0.0258 -0.225 -0.597
-0.105 -0.215 -0.195
 0.119 -0.198 -0.124
-0.229 0.0190 -0.415
 0.230 -0.0737 -0.435
-0.113 -0.541  0.134
 0.141 0.0434 -0.680
-0.281 0.00532 -0.117
 0.198 0.0880 -0.0997
-0.325 0.0403 -0.269
-0.0266 -0.186 -0.0392
-0.0220 0.0169 -0.718
0.0485 -0.306  0.267
 0.179 -0.364 -0.322
0.0391 -0.0614 0.0753
-0.104 -0.00575 -0.682
-0.0791 -0.145 -0.164
 0.238 -0.0499 -0.0938
-0.104 -0.0559 -0.0506
 0.287  0.168  0.553
 0.193 -0.0729 -0.364
 0.135 -0.148 -0.462
-0.316  0.150  0.550
0.0977  0.115  0.323
 0.175 -0.423 -0.219
-0.0368 -0.422 -0.180
-0.301  0.130 -0.288
 0.112 -0.589  0.156
-0.194 -0.419 -0.234
0.0537 0.0160 -0.712
-0.0145 -0.0749 0.0779
 0.149 -0.236 -0.407
-0.169 -0.298 -0.369
-0.301 0.00550 -0.391
-0.0325 -0.322 -0.0889
-0.0973 -0.0413 0.0302
0.0808 -0.263 -0.564
0.0112 -0.473 -0.630
-0.180 -0.515 -0.416
 0.353  0.699  0.559
 0.358  0.318  0.372
-0.0586 -0.162  0.421
 0.388  0.375  0.542
 0.160 -0.113 -0.325
 0.134 0.0399 -0.0268
-0.420  0.528  0.458
 0.144 -0.591 -0.264
-0.0284 0.00128  0.398
-0.173 -0.119 -0.448
0.0372 0.0722  0.286
-0.377  0.316  0.400
-0.00418 -0.178  0.254
-0.165 -0.545 -0.0844
-0.0333  0.321  0.222
 0.374  0.419  0.365
 0.135 -0.466 -0.205
-0.208  0.598  0.210
 0.141  0.495  0.553
-0.172  0.459  0.554
-0.0188 -0.589  0.156
-0.128 0.0985 -0.674
0.0322  0.197  0.553
-0.0698 -0.589 -0.383
0.0720 -0.202  0.104
 0.273  0.525  0.554
 0.120 -0.541 -0.0771
-0.131 -0.0540 -0.532
 0.188 -0.548 -0.155
 0.214  0.134  0.294
-0.186  0.226  0.225
-0.0261  0.734  0.491
-0.0794 -0.117 -0.501
 0.131 -0.115 -0.527
-0.129 -0.364 -0.206
-0.135 -0.381 -0.504
 0.422  0.682  0.552
 0.418  0.667  0.385
-0.0843  0.306  0.222
-0.186 -0.403 -0.321
-0.303  0.731  0.287
-0.274  0.661  0.558
-0.420  0.615  0.429
 0.331  0.729  0.309
0.0369 0.0948  0.141
-0.173 -0.0456 -0.00939
-0.206 -0.115 -0.372
-0.185 0.0943 0.0142
 0.200  0.713  0.558
-0.223  0.726  0.548
 0.302 0.0985 -0.204
0.0726 -0.0801  0.389
0.0322  0.134  0.345
-0.121  0.117  0.236
-0.245  0.134  0.462
0.0106 -0.505 0.0253
-0.143 0.0851 -0.0184
0.0686  0.727  0.222
0.00954 -0.510 -0.121
 0.294  0.634  0.554
-0.114  0.134  0.280
0.0177 -0.589 -0.245
0.0103  0.372  0.554
-0.0333  0.134  0.389
-0.274 0.0682 -0.0622
-0.112 -0.272 -0.529
 0.141  0.735  0.338
-0.325  0.597  0.553
 0.154 -0.198 -0.179
0.0235 -0.415 0.0685
-0.0681 -0.473  0.127
0.0298 -0.532 -0.165
-0.0427 0.0837 0.0347
-0.332  0.313  0.554
 0.126 -0.306 -0.500
 0.171  0.706  0.204
 0.125  0.119  0.401
 0.229  0.135 -0.106
-0.0793 -0.222 -0.0119
-0.112 -0.489 -0.194
-0.0552 -0.331  0.111
0.0554 0.0990  0.434
 0.136 -0.591  0.230
0.0929 -0.197 -0.539
-0.0387 -0.313 -0.0381
 0.237  0.227  0.230
0.0753 -0.167 -0.321
-0.304 0.0433 -0.145
 0.302 0.0855 -0.357
-0.123 -0.146 -0.250
-0.0483 -0.367 0.0827
 0.180 -0.0566 -0.448
-0.0683 -0.0945  0.422
0.0152 -0.309  0.101
 0.148 -0.543  0.112
-0.0863 -0.147 -0.0392
-0.175 -0.168 -0.237
 0.163  0.137 -0.594
 0.141 -0.590 -0.436
0.00537 -0.320 0.0466
-0.185 0.0431 -0.0799
0.0235 -0.374 -0.178
-0.332  0.506  0.264
 0.204 -0.589 -0.196
0.0780 -0.591 -0.0278
-0.00177 -0.587  0.312
 0.236  0.137 -0.325
-0.0488 0.0666 -0.633
-0.436  0.670  0.550
 0.193 -0.0688 -0.0474
-0.156 -0.269 -0.215
0.0717 -0.101 -0.600
-0.0126 0.00822  0.272
 0.154 0.00550 -0.651
 0.171 -0.210 -0.251
-0.357  0.583  0.290
 0.310 0.0230 -0.332
-0.0188  0.634  0.554
-0.0803  0.118  0.481
-0.179  0.328  0.221
-0.0972 -0.108 -0.578
 0.138 -0.545  0.189
0.0931 -0.495 -0.585
 0.430  0.713  0.477
0.0620 -0.188 0.0175
-0.160 -0.284 -0.411
-0.191 -0.0710 -0.412
0.00308  0.125  0.512
 0.112 -0.544 -0.00427
-0.250  0.127 -0.0238
-0.0282 -0.249  0.170
-0.0406  0.674  0.199
-0.163 -0.497 -0.460
 0.269  0.365  0.226
 0.375  0.311  0.423
-0.245  0.175  0.554
 0.344  0.570  0.280
-0.261 0.0549 -0.528
 0.252 -0.0290 -0.472
-0.257 -0.0409 -0.452
-0.255  0.227  0.240
0.0613 -0.336  0.178
 0.134  0.115  0.287
 0.149 -0.534 -0.188
-0.281  0.255  0.554
 0.316  0.430  0.554
-0.0625  0.736  0.338
0.0741 -0.314 -0.578
 0.105 -0.589 -0.208
-0.0989  0.135 -0.638
-0.346  0.699  0.559
-0.281  0.135 -0.339
-0.149 -0.116 -0.209
0.0177 -0.589 0.0977
-0.0916  0.137  0.149
0.0322  0.735  0.309
 0.229  0.733  0.360
 0.149  0.735  0.389
 0.251  0.134  0.404
0.0468 -0.589 -0.390
 0.185  0.510  0.553
-0.0105 -0.408 -0.0844
 0.229  0.730  0.520
-0.326  0.723  0.220
-0.0268 -0.0959 0.0243
0.0353 -0.152 -0.155
0.0491 -0.122 0.0888
 0.120  0.357  0.553
-0.0771  0.117  0.185
 0.125 -0.247 -0.207
0.0566 -0.429 0.0939
 0.190 -0.0358 -0.580
 0.224 0.0811 -0.179
-0.210 -0.575 -0.179
-0.135 -0.0228 -0.0503
 0.125 -0.539 -0.548
 0.138 -0.183 -0.0872
0.0263 -0.378 -0.614
0.0531 0.0490  0.333
-0.310 0.0855 -0.339
-0.0412 0.0463  0.395
-0.188 -0.0591 -0.560
0.0162 -0.532 -0.640
-0.259  0.137 -0.449
-0.0639 -0.205  0.260
-0.126 -0.129 -0.416
-0.0855 -0.112 -0.00963
0.0978  0.135 0.0832
-0.0843 -0.589 -0.143
-0.0545 -0.172 -0.375
0.0614  0.135  0.141
-0.192 -0.480 -0.318
 0.297 0.0663 -0.406
-0.166 0.0141 0.0142
 0.216 -0.0393 -0.260
-0.0771  0.568  0.553
-0.266  0.394  0.554
 0.236  0.627  0.554
0.0905 -0.589 -0.310
 0.137 -0.591 -0.368
-0.0248 -0.459  0.204
-0.241 0.00841 -0.260
-0.151 -0.548  0.178
 0.279 0.0943 -0.447
 0.198 -0.587 0.0569
 0.404  0.403  0.512
-0.0478 -0.549  0.286
 0.181 -0.0818 -0.229
 0.176  0.167  0.228
0.0209 0.0820  0.455
 0.419  0.612  0.465
 0.252 -0.00931 -0.0899
-0.00428 -0.177 -0.231
 0.271 -0.0423 -0.388
-0.213 -0.0914 -0.448
-0.0805 -0.0732  0.200
-0.242 -0.106 -0.240
 0.120  0.113  0.163
-0.0678 -0.304 -0.109
 0.258 0.0681 -0.518
-0.0224 0.0410  0.202
-0.246 0.0793 -0.375
-0.355  0.171  0.479
0.0447 -0.187  0.169
0.0610 -0.0145  0.217
-0.0693 -0.591  0.152
-0.261 -0.0434 -0.127
0.0778 -0.154 -0.207
-0.0239 -0.434 -0.624
0.0685 -0.539 -0.615
 0.202 -0.591 -0.104
-0.433  0.706  0.440
 0.146 -0.546 -0.501
 0.185  0.137 -0.485
0.0268 -0.183 -0.0457
 0.116 -0.0475 -0.0591
-0.385  0.527  0.349
 0.271  0.138  0.325
 0.170 -0.0466 -0.0128
0.0125  0.736  0.398
-0.208  0.134  0.506
 0.207  0.134  0.462
-0.194  0.135 -0.507
 0.109 -0.591 -0.578
-0.0456 0.0584 0.0904
 0.372  0.262  0.462
 0.134  0.248  0.224
-0.0406  0.248  0.554
 0.124 -0.102 -0.469
 0.171  0.357  0.554
 0.178  0.734  0.309
-0.113 -0.541 -0.00425
-0.131 -0.306 -0.210
-0.170  0.115  0.280
0.0731 -0.138  0.381
-0.389  0.729  0.521
-0.0770 -0.257 0.0330
 0.156  0.197  0.554
 0.241 0.0909 -0.00417
 0.369  0.574  0.321
 0.233 -0.113 -0.259
 0.293  0.401  0.244
-0.0493 -0.0447 -0.0169
-0.162 -0.415 -0.448
-0.0290 -0.0924 -0.628
0.0410  0.118  0.494
-0.151 -0.586 -0.485
-0.0820  0.111  0.423
 0.183 -0.357 -0.259
 0.213 -0.109 -0.371
 0.332  0.321  0.321
-0.156 0.0924 -0.534
0.0784 -0.248 -0.00457
0.0539 -0.147 -0.447
0.0638 -0.0125  0.314
-0.190 0.00972 -0.627
 0.222  0.134  0.513
 0.179  0.112  0.170
 0.105 -0.145 -0.380
 0.302  0.134  0.462
0.0206 -0.546  0.283
-0.179 -0.307 -0.316
-0.168 -0.233 -0.353
-0.0301 -0.0271  0.447
-0.104 0.0643 -0.700
-0.0677 -0.527 0.0629
 0.277 -0.0309 -0.171
-0.239 0.0928 0.0144
 0.155 0.0990 0.0250
 0.411  0.457  0.498
 0.163 0.0896 -0.644
-0.0781 -0.103 -0.0886
-0.157  0.154  0.230
-0.199 -0.548 -0.0553
-0.148 -0.121 -0.499
 0.409  0.571  0.540
-0.151 -0.198 -0.410
-0.0563 -0.221 -0.587
-0.0759 -0.464 -0.601
-0.214 -0.123 -0.307
 0.175 -0.558  0.144
-0.0914 -0.267 -0.166
 0.149  0.137 -0.00427
-0.0588 -0.357 -0.187
-0.294  0.392  0.238
-0.370  0.234  0.533
0.0921 -0.239 -0.121
 0.177 -0.0708 -0.185
 0.405  0.619  0.400
 0.251  0.137 -0.266
-0.118 -0.591 -0.232
-0.00420 0.0868 -0.716
 0.151 -0.587 -0.504
0.0323 -0.505  0.195
-0.259  0.495  0.553
 0.207  0.554  0.554
-0.296  0.568  0.553
0.0502 -0.174 -0.288
-0.0843  0.735  0.425
-0.100 -0.00847 -0.590
 0.265  0.137 -0.208
0.0729 -0.102  0.200
-0.0625 -0.589 -0.325
-0.215  0.137 0.0321
-0.201  0.137 -0.565
-0.230  0.137 -0.419
 0.105  0.137 0.0322
-0.121  0.112 0.0685
-0.0110 -0.185  0.201
-0.0882 -0.0784 -0.621
-0.0596 -0.176 -0.301
 0.325  0.180  0.387
 0.141  0.727  0.542
-0.0590 -0.459 0.0857
0.0272 -0.307 0.00493
-0.128  0.655  0.556
 0.107 0.0603 0.0467
-0.0243 -0.354  0.248
-0.266  0.135 -0.390
 0.382  0.372  0.405
-0.0675 -0.444  0.155
0.0293 -0.442 -0.180
-0.0406  0.137 0.0322
 0.199 -0.0302 -0.178
-0.0328 -0.104 -0.0670
-0.00877 -0.350 -0.106
-0.115 -0.538 -0.568
-0.272 -0.0647 -0.348
-0.0934  0.179  0.228
 0.165 -0.133 -0.406
-0.164 -0.123 -0.0646
-0.374  0.299  0.548
-0.0593 -0.222  0.115
 0.207 -0.585 -0.0641
0.0902 -0.257 -0.189
-0.0222 -0.538 -0.0114
0.0517 -0.237  0.103
 0.199  0.137 0.0610
0.0602 -0.311 -0.165
-0.0552 -0.589  0.258
 0.228 0.00897 -0.223
 0.168 -0.225 -0.289
 0.265  0.713  0.558
-0.0989  0.135  0.534
0.0176  0.678  0.560
 0.315  0.138  0.538
0.0905  0.160  0.229
 0.127 -0.263 -0.488
 0.198 -0.554 -0.288
 0.188 -0.0817 -0.325
 0.343  0.665  0.237
-0.130 -0.465 -0.531
 0.162 -0.531 -0.452
-0.0115  0.137 -0.653
 0.122 -0.139 -0.231
-0.0552 -0.540 -0.135
-0.391  0.387  0.547
 0.131 -0.0361 -0.638
 0.248 0.0201 -0.538
-0.108 -0.546  0.240
0.0550 -0.258 0.0625
-0.432  0.724  0.491
 0.267 0.0641 -0.0652
0.0814 -0.0218 -0.0192
-0.118 -0.0851 -0.511
 0.115 -0.383 -0.201
 0.347  0.190  0.440
0.0539 -0.124 0.0248
0.0460 -0.254  0.186
-0.0332 -0.0304 -0.605
-0.0639 -0.371  0.178
-0.0611 -0.551 -0.623
 0.240 -0.0987 -0.317
-0.0110 -0.401 0.0249
0.0548 -0.407 -0.604
-0.0783 -0.0510  0.393
-0.0842 -0.589 -0.587
-0.360  0.304  0.366
-0.179 -0.384 -0.365
 0.141  0.113 0.0759
0.0817 -0.0702 -0.555
-0.294 0.0415 -0.452
 0.167 -0.152 -0.346
0.0627 -0.0114 0.0529
-0.156 -0.525 -0.487
 0.290  0.539  0.219
 0.223  0.134 0.0205
-0.123 -0.175 -0.486
-0.424  0.619  0.533
-0.0791 -0.0360 -0.674
 0.152 -0.591 -0.162
0.0932 0.0779 0.0117
0.0398 0.0390 0.0782
0.00484 -0.488 -0.0480
 0.146 0.0286 -0.562
0.0686 -0.589 -0.143
 0.214  0.423  0.553
0.0179 0.0452  0.251
-0.143 0.0951 0.0379
-0.0453 0.0949  0.163
 0.251  0.733  0.455
-0.0843 -0.589 -0.419
-0.157  0.735  0.404
-0.0261  0.357  0.553
0.0905  0.306  0.554
0.0126 -0.127 -0.511
0.00309  0.135  0.105
 0.213 0.0672 -0.592
0.0622 -0.495  0.112
0.0832  0.539  0.212
0.0322  0.415  0.217
-0.0625  0.386  0.554
0.0249  0.135 -0.674
-0.172  0.134  0.433
 0.223  0.139  0.250
 0.192  0.394  0.218
-0.143  0.734  0.302
 0.120  0.466  0.215
 0.172 -0.162 -0.180
-0.121  0.233  0.225
-0.0546 -0.0934  0.120
 0.185 -0.481 -0.341
-0.135  0.357  0.553
 0.149  0.135  0.141
0.0246 -0.174 -0.369
-0.325  0.224  0.344
 0.162 -0.291 -0.368
0.0630 -0.285 -0.00280
-0.355  0.375  0.328
0.0978  0.137 -0.616
-0.0374 -0.590 -0.441
-0.0625  0.134  0.287
 0.168 0.0838 -0.556
 0.194 0.0164 -0.615
-0.186  0.270  0.223
-0.0340 -0.0417 0.0711
0.0194 -0.0598  0.136
-0.266  0.105 -0.0525
-0.237 0.0699 -0.567
 0.280  0.685  0.201
0.0209 -0.540 -0.0820
 0.338  0.270  0.553
-0.00428 -0.306 -0.609
-0.259  0.732  0.287
-0.0758 -0.174  0.147
-0.279 -0.0488 -0.181
-0.0722 -0.0167 0.0470
-0.201 -0.0190 -0.144
-0.401  0.343  0.477
-0.123 -0.532 -0.187
-0.232 -0.0631 -0.0860
-0.293 -0.0390 -0.296
-0.143 -0.253 -0.454
 0.194 -0.0746 -0.509
-0.150 -0.545 0.0977
 0.224  0.104 -0.554
 0.112 -0.589 0.0540
-0.130 -0.413 -0.525
 0.200 -0.552 -0.109
 0.160 -0.0599 -0.582
 0.215 0.0793 -0.393
 0.207  0.135 -0.0552
0.0723 -0.537  0.161
 0.168 -0.276 -0.333
-0.0889 -0.262 -0.0409
-0.179 -0.589 -0.0261
-0.0956  0.130 -0.0128
 0.336  0.598  0.252
 0.155 -0.371 -0.430
 0.265  0.729  0.234
 0.108 -0.466 -0.561
-0.169 0.0292 -0.548
0.0647 -0.0203  0.258
-0.0203 -0.0476  0.145
0.0560 -0.590 0.0995
-0.00866 -0.451 -0.113
-0.0320 -0.255  0.365
0.0556 -0.182 -0.577
 0.182 -0.546 -0.0143
-0.179 -0.0716 -0.172
-0.157 0.0500 -0.0419
-0.159 -0.591 -0.437
-0.0936 -0.141 -0.553
 0.172 -0.0807 -0.413
0.00579 -0.0954 -0.551
 0.176 -0.0136 -0.106
-0.430  0.612  0.491
-0.373  0.385  0.360
-0.204  0.171  0.228
-0.105 0.0580 0.0481
0.0846 -0.114 -0.113
 0.404  0.728  0.506
 0.209 -0.0384 -0.376
-0.0844  0.113  0.112
 0.135 -0.138 -0.303
 0.226  0.124 -0.193
0.0990 -0.356 -0.551
-0.312  0.586  0.227
-0.113 -0.589 -0.0844
0.0589  0.724  0.553
 0.278  0.136 -0.136
 0.288 -0.0385 -0.324
0.0359 -0.360  0.225
-0.158 -0.587  0.223
-0.221 -0.0238 -0.0454
-0.274 0.0318 -0.0909
0.0977 -0.541 0.0759
-0.211 -0.0598 -0.303
-0.208 0.0889 -0.436
 0.141 -0.218 -0.440
 0.185 -0.517 -0.362
-0.0511 -0.143 -0.589
 0.311 0.0164 -0.245
0.00562 0.00138 -0.624
0.00442 -0.422  0.243
0.0101 -0.164 -0.180
-0.324  0.134  0.477
0.0608 -0.0281 -0.682
-0.200 -0.589 -0.319
-0.0681  0.134 -0.617
-0.0803 0.0386  0.363
 0.251  0.137 -0.0699
-0.285  0.175  0.303
0.0120 0.0364  0.398
-0.390  0.685  0.559
-0.409  0.539  0.546
-0.0534 -0.293 0.0168
0.0319 0.0948 -0.630
-0.0600 -0.00828  0.348
-0.00893 -0.0324 -0.692
 0.358  0.238  0.430
-0.257  0.299  0.225
-0.335  0.366  0.298
-0.113  0.134  0.425
 0.382  0.612  0.331
-0.0270 -0.260 0.0876
0.0732 0.000347  0.381
-0.0137 -0.144 -0.478
-0.244  0.728  0.228
-0.164  0.137 -0.00429
0.0108 0.0169  0.167
 0.382  0.288  0.512
0.0349 -0.590  0.177
0.0752 -0.0728  0.338
0.0103  0.137 0.0686
-0.128  0.532  0.554
0.0322 -0.589 -0.288
 0.307  0.489  0.244
-0.201  0.474  0.214
-0.0188  0.437  0.554
0.0831 -0.263 -0.0773
0.00434 -0.371 -0.0115
 0.302  0.590  0.553
-0.0737 -0.174  0.388
 0.360  0.214  0.523
-0.390  0.679  0.300
 0.113 -0.172 -0.0532
-0.206 0.0495 -0.500
0.0905  0.114  0.229
0.0395  0.343  0.554
-0.128  0.466  0.215
0.0541  0.357  0.220
 0.222  0.734  0.404
 0.120 -0.589 -0.128
 0.258  0.262  0.554
 0.171 -0.590 0.0992
-0.0552  0.137  0.207
-0.118 -0.408 -0.199
 0.243  0.137 -0.361
0.0561 -0.129  0.234
-0.00989 -0.283  0.111
 0.279  0.187  0.300
0.0399 0.0893 0.0843
0.0624 -0.180 -0.0575
 0.309  0.730  0.520
-0.0845  0.105  0.355
0.0239 -0.312  0.294
-0.320  0.724  0.553
 0.255 -0.0839 -0.230
0.00547 -0.232  0.177
-0.166 -0.386 -0.425
0.0729 -0.146  0.149
 0.149  0.731  0.251
0.0810 0.0851 -0.698
-0.423  0.503  0.491
 0.281  0.293  0.257
-0.353  0.726  0.273
 0.141 -0.119 -0.0270
 0.170 -0.313 -0.339
 0.189 -0.143 -0.223
0.0526 0.0593 -0.634
 0.292 0.0949 -0.150
0.0199 -0.0294  0.165
 0.106  0.674  0.199
-0.358  0.240  0.404
-0.0151 -0.0765  0.115
-0.0143 0.00382  0.236
 0.259  0.216  0.257
0.0614 -0.377  0.160
0.0529 -0.0967 -0.0674
-0.0710 -0.240  0.287
-0.379  0.249  0.477
0.0126 -0.327 -0.0664
-0.211 -0.562 -0.135
-0.314 0.0437 -0.180
 0.183  0.136  0.119
-0.170 -0.539 -0.190
-0.241 -0.0907 -0.374
 0.180 -0.408 -0.318
0.0541  0.114  0.112
-0.0139  0.724  0.553
0.0542 -0.466 0.0917
0.0354 0.0219  0.112
 0.192  0.135 -0.543
-0.146  0.718  0.558
-0.133 0.0504 -0.591
-0.0437  0.109  0.229
 0.387  0.669  0.309
0.0723 -0.0802  0.287
 0.127  0.568  0.554
-0.237  0.134  0.382
0.0120 -0.100 0.0869
-0.00423 -0.589  0.258
 0.423  0.627  0.498
0.0978 -0.589 0.0176
0.0269 -0.0395  0.106
-0.0261  0.583  0.554
-0.0188  0.568  0.212
-0.0625 -0.589 -0.223
0.0395  0.605  0.554
-0.0115  0.134  0.440
0.0978 -0.543 -0.106
-0.00420 -0.589  0.214
-0.0648 -0.401  0.156
0.0905  0.262  0.224
-0.0698  0.137 0.0540
-0.114 -0.543 0.0977
-0.128  0.724  0.211
-0.0428 -0.194  0.416
-0.143  0.437  0.553
-0.230  0.734  0.418
 0.338  0.517  0.554
0.0686  0.568  0.553
 0.236  0.394  0.554
 0.112  0.137 -0.652
 0.129 -0.0358 -0.544
 0.389  0.452  0.393
 0.197 0.0455 -0.108
-0.128 -0.542 0.0322
0.0237 -0.163  0.440
 0.287  0.732  0.302
-0.0265 0.0526 -0.723
-0.274  0.134  0.346
 0.210 0.0949 0.0129
-0.0814 -0.210 0.0824
 0.163  0.134  0.506
 0.404  0.452  0.448
-0.233 -0.0470 -0.504
 0.247 0.0796 -0.339
 0.234  0.102 -0.259
-0.198 -0.452 -0.252
0.0655 -0.276  0.250
-0.274  0.137 -0.186
-0.411  0.659  0.361
-0.223  0.379  0.218
 0.177 -0.299 -0.274
 0.222  0.137 -0.485
 0.400  0.387  0.470
 0.109 -0.121 -0.152
-0.273 0.00982 -0.483
-0.0721 -0.136 -0.466
0.0870 -0.547  0.233
-0.0774 -0.575  0.292
 0.131 -0.393 -0.502
-0.176  0.119 -0.620
-0.135  0.134  0.345
-0.0220 0.0411 -0.638
-0.305  0.295  0.277
-0.201  0.131 0.0767
0.00374 -0.398  0.275
-0.219 -0.0153 -0.412
 0.224 -0.111 -0.165
-0.166 -0.111 -0.359
-0.0702 -0.296  0.231
0.0335 -0.112 -0.606
-0.287  0.561  0.213
-0.0150 -0.524 -0.0990
 0.367  0.401  0.553
 0.214 0.0211 -0.442
-0.0718 -0.139 0.0919
 0.157 0.0353 -0.0535
-0.0908 -0.410 -0.578
0.0470 -0.173 -0.244
-0.129 0.0166 -0.581
-0.154 -0.121 -0.247
-0.0415 0.0365  0.127
-0.105 0.00813 -0.0101
0.0218 -0.539  0.212
-0.259  0.135 -0.135
 0.368  0.376  0.366
-0.121  0.137  0.207
 0.305 -0.00556 -0.274
0.0677 -0.503 -0.183
-0.0440 -0.0855 -0.556
0.0332 -0.197  0.242
-0.199  0.510  0.213
-0.164 -0.444 -0.210
0.0796 -0.311 -0.195
-0.0340 -0.0713 -0.0346
-0.122 -0.108 -0.132
 0.115 0.0130 0.0393
0.00472 -0.364 0.0602
0.0616 -0.0281 -0.596
-0.182 -0.0971 -0.497
0.0237 0.0942 0.00252
 0.202 -0.118 -0.122
-0.135 -0.589 -0.0334
-0.172 -0.589 -0.0917
0.0686  0.731  0.520
-0.119 -0.108 -0.0208
0.0905  0.134  0.411
-0.133 -0.108 -0.541
-0.149 -0.379 -0.472
0.0517 -0.0252  0.422
 0.229  0.665  0.199
-0.0932 -0.357 -0.194
-0.277 -0.0691 -0.250
 0.158  0.109 -0.522
-0.0723 -0.114  0.236
-0.174 -0.204 -0.237
-0.0598 -0.400 0.0954
-0.0118 -0.339 -0.151
-0.0474 -0.162 -0.412
 0.432  0.659  0.527
 0.120 -0.541 -0.170
-0.0626 -0.543 -0.0698
-0.0799  0.515  0.213
 0.394  0.648  0.368
 0.210 -0.0463 -0.531
 0.192 -0.568 -0.330
-0.369  0.672  0.263
0.0925 -0.00275 -0.594
-0.208 -0.0488 -0.217
 0.140 -0.0175 0.0176
-0.169 -0.0838 -0.436
0.00340 -0.350  0.312
-0.324 0.0492 -0.303
-0.134 -0.143 -0.305
 0.180 -0.00547 -0.498
0.0541  0.117  0.272
-0.0539 -0.159 -0.0350
-0.421  0.722  0.412
 0.230 0.0360 -0.575
-0.0329 -0.495 -0.174
-0.0320 -0.398 -0.616
-0.0728 -0.0354  0.236
-0.0269 -0.440 0.0622
 0.163 -0.207 -0.323
-0.196 -0.113 -0.412
-0.289  0.318  0.250
-0.307 -0.00143 -0.230
-0.205 0.0445 -0.108
-0.180 -0.568  0.161
-0.0379 0.00194  0.140
-0.00418 0.00325 0.0193
0.0368 -0.0874  0.451
 0.176 -0.589  0.158
 0.338  0.423  0.300
 0.186 -0.0348 -0.145
-0.0982 -0.226 -0.114
 0.416  0.699  0.397
 0.149 -0.207 -0.215
-0.182 -0.292 -0.233
0.0346 -0.529 0.0291
-0.230 0.0467 -0.176
0.0724 -0.153 -0.561
0.0576 -0.466  0.164
 0.166 -0.408 -0.411
-0.183  0.109 -0.0734
0.0706 -0.566  0.294
-0.0426 -0.175  0.265
 0.156  0.137 0.0977
-0.0689 -0.127  0.297
0.0935 0.0789 -0.597
-0.181  0.724  0.553
 0.103 -0.336 -0.199
0.0588 0.0445 0.0178
-0.0140 -0.481 0.0253
 0.105 -0.154 -0.303
-0.114 -0.108 -0.486
-0.0899 -0.444 -0.193
-0.192 -0.0304 -0.472
-0.140  0.114 -0.555
-0.00431 -0.206  0.421
-0.303 -0.00968 -0.358
-0.311  0.477  0.242
0.0320 -0.420  0.198
-0.157  0.111  0.119
0.0648  0.125 -0.618
 0.393  0.387  0.434
-0.146 -0.591 -0.353
0.00741 -0.00500  0.192
-0.0333  0.135  0.534
-0.0705 -0.539  0.195
-0.0111 -0.444 0.00303
-0.0115 -0.546  0.293
-0.0789 -0.102  0.170
-0.225 -0.0271 -0.238
 0.195 -0.481 -0.252
0.0955 -0.422 -0.567
 0.183 0.0313 0.00165
 0.172  0.110  0.136
0.0542 -0.569 -0.629
-0.150 -0.0797 -0.125
-0.240  0.109 -0.281
-0.0536 -0.590 -0.601
-0.165  0.659  0.203
 0.169 -0.178 -0.0994
 0.112 0.0543 -0.00537
-0.0462 -0.164 0.0349
 0.117 -0.393 -0.534
 0.178 -0.518 -0.214
0.0834 -0.0727 -0.631
-0.379  0.729  0.418
-0.246 0.0758 -0.296
 0.382  0.666  0.559
 0.191 0.0713 -0.623
 0.308  0.176  0.355
 0.147 -0.117 -0.233
 0.145 -0.432 -0.208
-0.162 -0.342 -0.414
 0.201 0.0836 -0.507
-0.229 0.0486 -0.437
 0.172 -0.371 -0.354
 0.205 0.0533 -0.0125
-0.0138  0.737  0.377
-0.135 -0.589 0.0395
0.0527 -0.350  0.104
-0.244 -0.101 -0.207
0.00874 0.0467  0.440
-0.0305 -0.495  0.199
 0.301  0.112 -0.326
-0.0471 0.0519  0.301
 0.433  0.665  0.448
 0.260  0.314  0.228
0.0617 -0.311  0.225
-0.00441 -0.502 -0.635
-0.0133  0.522  0.213
 0.127 -0.0740 -0.0985
-0.180 -0.0202 -0.109
-0.194  0.134  0.294
-0.412  0.595  0.402
 0.101 -0.0438 -0.653
-0.0417 -0.182 -0.589
0.0308 -0.292  0.129
 0.163 -0.589 -0.0116
0.0142 -0.413 -0.174
 0.164 -0.591 -0.324
-0.0937 -0.160 -0.243
-0.237  0.109 -0.213
-0.0180 -0.419  0.206
 0.235 -0.0141 -0.0620
 0.191 -0.554 0.0632
-0.186  0.114 -0.482
 0.194  0.102 -0.449
-0.194 -0.515 -0.336
 0.264 -0.0725 -0.300
 0.134 -0.131 -0.362
-0.217 -0.104 -0.113
-0.0112 -0.109  0.457
-0.161 -0.591 -0.148
-0.0180 -0.303 0.0301
0.0819 -0.446 -0.193
-0.237  0.677  0.198
-0.0474 -0.157 -0.173
0.0347 -0.168 0.0256
-0.441  0.694  0.470
-0.0114 -0.145  0.274
 0.184  0.104 0.0397
-0.310  0.111 -0.252
-0.0104 -0.300  0.331
-0.231 0.0906 -0.168
-0.315  0.240  0.317
-0.0791 -0.0374  0.317
-0.375  0.730  0.477
0.00970 -0.197  0.176
-0.0343 -0.00303  0.294
 0.200 0.0379 -0.491
-0.136 -0.550  0.222
 0.257  0.130 -0.476
0.0522 -0.0251  0.188
 0.142 -0.284 -0.214
0.0108 -0.526 0.000344
-0.0548 -0.202 -0.0205
-0.132 -0.0536 -0.626
-0.219 -0.127 -0.228
 0.315  0.256  0.323
-0.0539 -0.304  0.277
-0.135 -0.583  0.258
0.00415 -0.386 -0.0625
0.0101 0.0444  0.200
 0.159 -0.101 -0.516
-0.306  0.137  0.378
-0.169 -0.150 -0.362
0.0156 0.00503  0.311
 0.273 0.0569 -0.491
-0.0391 0.0529  0.446
 0.145 -0.0760 -0.480
0.0702 -0.257 0.0257
0.0978  0.137  0.178
0.0322  0.135  0.171
-0.0145 0.0294  0.418
-0.0671 0.00363 -0.705
-0.0552  0.137 0.0904
-0.157 -0.446 -0.467
-0.180 -0.103 -0.272
0.00288 -0.342 -0.0261
-0.303  0.495  0.553
 0.253 -0.0464 -0.126
-0.274  0.733  0.418
0.0543 -0.159 -0.0215
-0.0771  0.576  0.211
-0.189 -0.500 -0.216
-0.0261  0.134  0.287
-0.0625 -0.589 -0.186
0.0176  0.525  0.554
0.0905 -0.589 -0.514
-0.0916  0.634  0.554
0.0395 -0.589 -0.485
-0.0334  0.736  0.425
-0.230  0.137 -0.500
