ply
format ascii 1.0
element vertex 2048
property float x
property float y
property float z
end_header
0.0969  0.361 -0.220
-0.113 -0.970  0.215
-0.130 -0.217  0.206
-0.0997  0.785  0.277
 0.105 -0.593 -0.217
-0.193  0.778 -0.224
 0.291  0.785 -0.0372
-0.125  0.284  0.210
 0.175 -0.111 -0.165
0.0932 -0.587  0.222
 0.236 -0.970 -0.0395
-0.215 0.0331 -0.114
-0.143 -0.933 -0.194
-0.244 -0.554 -0.00123
 0.223  0.174 0.0889
 0.158  0.531  0.182
-0.121 -0.294 -0.210
-0.229  0.444 -0.0802
 0.197 -0.269  0.137
 0.102  0.679 -0.281
-0.285  0.707 0.0560
0.00178  0.786 -0.0111
0.0336 0.0171  0.239
 0.241 -0.689 0.00797
0.0207  0.101 -0.240
 0.131 -0.856  0.203
 0.164  0.785  0.242
-0.146 -0.699  0.193
 0.228  0.534 -0.0763
 0.210 -0.362 -0.117
-0.198 0.0428  0.142
-0.133 -0.673 -0.202
-0.141  0.553  0.197
0.0969 -0.872 -0.220
-0.244 -0.834 0.00788
-0.243 -0.188 -0.0103
-0.119 -0.458  0.213
0.00183 -0.971 -0.00144
-0.127  0.277 -0.206
-0.244  0.235 0.00788
0.0998  0.306  0.219
 0.200  0.178 -0.133
-0.0619  0.537 -0.234
 0.237 -0.0535 0.0363
 0.233 -0.481 0.0617
0.0497  0.632  0.334
-0.0362 -0.102 -0.238
 0.321  0.630 0.0992
 0.233  0.377 0.0617
-0.300  0.627 -0.141
0.0670 -0.391  0.233
-0.0550 -0.477 -0.236
-0.227 -0.352 0.0862
0.0704 -0.304 -0.231
0.0669 -0.179  0.233
-0.219  0.399  0.106
-0.226 -0.391 -0.0868
 0.261  0.640 -0.214
 0.146  0.786 -0.136
-0.0260  0.428  0.241
 0.187 -0.737 -0.149
 0.236 -0.208 -0.0392
-0.0365  0.786 -0.289
-0.172  0.786 -0.0400
-0.0329 -0.824  0.239
-0.183 -0.137 -0.159
 0.216  0.361 -0.104
 0.219 -0.526 -0.0960
 0.156  0.787 0.0564
-0.162 -0.971 -0.0303
0.0114  0.786  0.153
 0.123  0.535 -0.208
-0.152  0.786  0.124
 0.177 0.0396  0.165
-0.00751  0.178  0.243
 0.137 -0.971 0.0853
-0.0456 -0.805 -0.237
-0.179  0.629 -0.287
-0.229 -0.702 -0.0802
 0.234 -0.837 0.0617
-0.112 -0.0632  0.215
-0.237  0.544 0.0557
 0.216 0.0235 -0.104
-0.274  0.632  0.189
-0.187 -0.538 -0.153
 0.238  0.654  0.235
-0.194 -0.863  0.147
-0.127  0.113 -0.206
-0.198 -0.564  0.142
 0.189 -0.699  0.149
-0.213 -0.121  0.119
 0.330  0.640 -0.0555
-0.108  0.632  0.319
-0.0308  0.646 -0.339
 0.128 -0.448 -0.204
0.0403 -0.966  0.238
-0.00771 -0.971 -0.232
0.0885 -0.971 -0.117
 0.185 -0.115  0.154
-0.244 -0.0343 0.00788
-0.230 -0.709 0.0796
-0.0463 -0.603  0.238
-0.212  0.190 -0.120
0.0704 -0.728 -0.231
 0.238 -0.343 0.0268
 0.131  0.165  0.203
 0.233  0.521 0.0617
-0.133  0.415 -0.202
0.0112  0.255 -0.241
 0.259  0.758  0.142
0.0770 -0.0247 -0.228
0.0585 -0.718  0.235
-0.206  0.187  0.130
 0.204 -0.872 -0.128
0.0114  0.786 -0.146
-0.208 -0.827 -0.126
-0.244  0.101 0.00788
 0.240  0.264 -0.0108
-0.183  0.566 -0.159
 0.163 -0.484  0.178
-0.0463 -0.323  0.238
-0.0854 0.0717  0.226
0.0304  0.756  0.295
0.0404  0.544  0.238
-0.0172 -0.622 -0.240
 0.179 -0.246 -0.160
-0.219 -0.971 0.0851
-0.282  0.736 -0.0772
-0.212  0.325 -0.120
-0.208 -0.259 -0.126
-0.127 -0.0214 -0.206
0.0704 -0.179 -0.231
 0.241 0.0717 0.00800
-0.00781 -0.971  0.124
-0.182  0.707  0.230
-0.141  0.428  0.197
 0.145 0.0717 -0.191
-0.00773  0.428 -0.242
-0.149 -0.420 -0.190
 0.177  0.396  0.165
 0.217 -0.593  0.102
 0.259  0.747 -0.145
-0.324  0.625 -0.0205
-0.0656 -0.971 -0.0978
 0.123  0.246 -0.208
 0.201  0.287  0.132
-0.244  0.361 -0.00123
-0.213 -0.237  0.119
 0.124  0.668  0.225
-0.162 -0.343  0.181
 0.234 -0.786 -0.0562
 0.219 -0.641 -0.0961
-0.233 -0.468 0.0728
 0.167  0.765 -0.246
-0.0267 -0.237 -0.239
 0.201 -0.387  0.132
0.0866  0.428  0.225
-0.0362 -0.362 -0.238
-0.114  0.786 -0.146
 0.229 -0.179 0.0740
-0.236  0.553 -0.0584
 0.166  0.438 -0.175
-0.00750  0.303  0.243
-0.0382 -0.150  0.239
-0.243 -0.304 -0.0103
 0.140 -0.970  0.194
 0.114 -0.294  0.214
-0.0165 -0.477  0.241
 0.262  0.698 0.0180
 0.238  0.438 -0.0297
-0.256  0.766  0.142
-0.119  0.178  0.213
-0.118  0.720 -0.273
 0.120 -0.0375  0.211
-0.206  0.293  0.130
-0.143 -0.779 -0.194
 0.187  0.601 -0.149
 0.236 -0.439 -0.0392
0.0207  0.601 -0.240
-0.0463  0.611  0.238
 0.234 -0.102 -0.0562
-0.215 -0.940 -0.114
-0.0849  0.786 0.0467
0.0396 -0.516 -0.237
-0.220  0.684 -0.196
 0.197 -0.895  0.137
-0.0550  0.178 -0.236
 0.237  0.168 -0.0392
 0.108 -0.971 -0.0111
 0.185  0.786 -0.0400
 0.241  0.601 -0.00139
-0.102 -0.574 -0.218
 0.240 -0.574 -0.0108
-0.109 -0.185 -0.216
 0.183 -0.966 -0.155
-0.226 -0.603 -0.0868
 0.202  0.605  0.132
-0.0267 0.0138 -0.239
-0.198  0.496  0.142
-0.0619  0.345 -0.234
 0.232 -0.956 0.0680
-0.123 -0.971  0.105
0.0596  0.786 -0.271
-0.135 -0.795  0.201
 0.145 -0.352 -0.191
0.0886 -0.970 -0.220
 0.185  0.625 -0.271
 0.127  0.786  0.153
-0.234 -0.111 -0.0670
-0.244 -0.930 -0.00123
-0.314  0.625 0.0943
-0.189 -0.429  0.152
-0.202  0.601  0.136
 0.187  0.284 -0.149
-0.239  0.787 0.0371
-0.130 -0.564  0.206
 0.185 -0.798  0.154
 0.289  0.782 0.0560
-0.0326 -0.699  0.239
-0.252  0.786 -0.150
-0.226 -0.487 -0.0868
-0.0849  0.625 -0.252
-0.0550 -0.709 -0.236
-0.233 -0.612 0.0728
-0.241  0.447 0.0264
0.0200 -0.0728  0.241
0.0596  0.786 0.0756
 0.159  0.626  0.298
 0.166 -0.0150 -0.175
-0.198 -0.766  0.142
0.0396  0.505 -0.237
0.0866 -0.487  0.225
 0.210 -0.0343  0.121
0.0802 0.0942  0.228
 0.239 -0.882 -0.0202
 0.158 -0.201  0.182
 0.145 -0.670 -0.191
-0.209  0.626  0.258
0.0336 -0.262  0.239
 0.171 -0.535 -0.170
-0.0682 -0.904 -0.233
-0.181 -0.0439  0.163
-0.244 -0.660 -0.00123
-0.0849  0.786  0.182
-0.0552  0.698  0.291
-0.0849 -0.971 0.0178
0.0692  0.786 -0.0689
0.0770  0.168 -0.228
-0.244 -0.391 0.00788
-0.112 -0.882  0.215
 0.168 -0.606  0.174
 0.281  0.656 -0.127
0.0576 -0.391 -0.235
0.0404 -0.872  0.238
-0.224  0.110 0.0928
 0.235 -0.294 -0.0486
-0.0396 -0.930  0.238
0.0144  0.717 -0.300
-0.198 -0.651  0.142
-0.0753  0.786 -0.0689
 0.239  0.351 -0.0203
0.0530  0.627 -0.334
-0.0639  0.505  0.235
 0.220 0.0652 0.0954
 0.150 -0.805 -0.187
-0.162  0.110  0.181
-0.133  0.502 -0.202
 0.126 -0.763  0.208
 0.141 -0.375  0.195
-0.249  0.675 -0.0138
-0.200 -0.0568 -0.137
 0.115  0.621 -0.221
 0.210  0.467  0.121
 0.191 -0.458 -0.144
-0.167  0.351  0.177
-0.239 -0.111 0.0398
0.0585  0.235  0.236
-0.0552 -0.00540  0.237
-0.232  0.113 -0.0736
-0.187 -0.721 -0.153
0.0969  0.447 -0.220
0.0596  0.786  0.220
-0.224 -0.0343 0.0928
-0.143  0.194 -0.194
 0.131 -0.673  0.203
-0.0986  0.361  0.221
 0.220 -0.754 0.0955
 0.233 -0.269 0.0617
-0.0560  0.786 -0.204
-0.196  0.486 -0.142
 0.287  0.655  0.169
-0.177 -0.940  0.168
 0.109  0.730  0.276
-0.133 -0.500 -0.202
-0.237  0.303 0.0557
0.0207  0.341 -0.240
 0.185  0.203  0.154
-0.187 -0.625 -0.153
-0.238 -0.776 -0.0497
0.0491 -0.102 -0.236
-0.248  0.623 0.0467
-0.172  0.787  0.230
-0.146 -0.140  0.194
 0.215  0.724  0.204
0.0789  0.786 -0.194
 0.191  0.515 -0.144
0.0207 -0.882 -0.240
 0.225  0.235 -0.0829
 0.289  0.707 -0.0590
-0.0552 -0.227  0.237
 0.222  0.101 -0.0895
-0.170 -0.346 -0.173
-0.234 -0.872 -0.0670
-0.261  0.689  0.130
-0.0329 -0.400  0.239
-0.133 -0.856 -0.202
 0.166 -0.971 -0.0785
-0.229  0.619 -0.0996
 0.145  0.158 -0.191
0.0596 -0.971  0.162
0.0404 -0.641  0.238
 0.114  0.592  0.214
 0.213  0.438 -0.111
 0.279  0.700 0.0949
0.0404 -0.795  0.238
-0.241 0.0331 -0.0293
0.0596 -0.971 0.0853
-0.121  0.661  0.241
-0.232  0.248 -0.0736
-0.230 -0.872 0.0796
0.0576 -0.651 -0.235
-0.239 -0.246 0.0400
 0.232  0.258 0.0679
0.0336 -0.542  0.239
 0.161  0.351 -0.179
-0.0550 0.0910 -0.236
 0.212  0.698 -0.212
-0.233 -0.795 0.0728
0.0496  0.361  0.237
0.0643 -0.805 -0.233
-0.183 0.0942 -0.159
-0.160  0.348 -0.181
-0.233 -0.179 0.0728
 0.226 -0.680 0.0818
-0.0246  0.640  0.337
-0.0721  0.235  0.232
-0.226 -0.198 -0.0868
-0.109  0.634 -0.322
-0.0271  0.786  0.259
-0.146  0.618 -0.197
 0.123 -0.226 -0.208
-0.133 -0.0953 -0.202
 0.192 -0.970  0.141
 0.180  0.113  0.160
 0.230  0.620 -0.0874
-0.183  0.268 -0.159
-0.235 0.0428 0.0644
 0.233 -0.709 -0.0628
-0.191 -0.465 -0.148
-0.0789 -0.757  0.229
 0.175 -0.971 0.0178
0.0307 -0.971 -0.0689
 0.335  0.648 0.0172
-0.141 0.0331  0.197
 0.118 -0.102 -0.211
-0.155 -0.233 -0.186
-0.0367 -0.971 -0.165
 0.141  0.252  0.195
 0.195 -0.179 -0.138
 0.187 -0.603 -0.149
-0.172 -0.265  0.172
-0.162  0.226  0.181
-0.173 -0.497  0.173
-0.0267 -0.545 -0.239
-0.119 -0.294  0.213
 0.158  0.329  0.183
 0.204 -0.0535 -0.128
-0.112 -0.381  0.215
 0.238 -0.0246 -0.0297
-0.235  0.187 0.0644
-0.0788 -0.516  0.229
-0.289  0.785 -0.0258
 0.224  0.782 -0.195
-0.236  0.625 -0.231
-0.152 -0.971 -0.127
-0.0682  0.463 -0.233
-0.0165 0.0717  0.241
 0.210 -0.526  0.121
-0.258  0.713 -0.139
 0.238 -0.776 0.0268
0.0998 -0.917  0.219
-0.242 -0.737 0.0170
-0.152  0.786 0.0275
 0.220 -0.0985 0.0953
-0.232  0.374 -0.0736
 0.239 -0.121 0.0173
-0.109 -0.368 -0.216
 0.156 -0.882 -0.183
 0.136 -0.137  0.199
 0.185  0.625  0.201
-0.183 -0.888 -0.159
-0.161  0.620  0.189
 0.223  0.786 -0.0978
-0.229  0.787 -0.0785
-0.0656 -0.971  0.162
-0.0464  0.786  0.114
0.00175 -0.160 -0.242
0.0396 0.0331 -0.237
0.0335  0.470  0.239
0.00175 -0.439 -0.242
 0.237  0.457 0.0363
-0.241  0.178 -0.0293
-0.0880 -0.970 -0.223
0.0307  0.625  0.268
-0.119 -0.632  0.213
-0.120  0.775 -0.226
 0.105 -0.516 -0.217
-0.217 -0.326 -0.108
 0.134 -0.737 -0.200
0.0399  0.688  0.294
-0.234 -0.970 -0.0555
0.0307 -0.971 -0.175
0.0692  0.786 0.00820
-0.244 -0.487 0.00788
 0.210 -0.805 -0.117
0.0998 0.0267  0.219
 0.262  0.625 0.0660
 0.216 -0.256 -0.104
-0.228  0.717  0.182
-0.185 -0.188  0.157
-0.127 0.0460 -0.206
-0.236 -0.0439 -0.0584
 0.235 -0.362 -0.0486
-0.0463 -0.0825  0.238
0.0200 -0.333  0.241
-0.172  0.685 -0.241
 0.225 -0.921 -0.0829
 0.242  0.786 0.00816
 0.201  0.537  0.132
-0.0682  0.261 -0.233
 0.129  0.627 -0.313
 0.237 -0.420 0.0363
 0.191 0.0717 -0.144
-0.229  0.625 -0.165
 0.236 -0.622 0.0458
0.0669  0.158  0.233
-0.120  0.727  0.223
-0.0647  0.688 -0.293
 0.120  0.483  0.211
-0.179 0.0106 -0.164
 0.173 -0.320  0.170
 0.228  0.303 -0.0763
 0.129  0.688 -0.223
 0.204  0.786  0.124
 0.237  0.139 0.0363
-0.321  0.654 -0.0783
 0.201 -0.185  0.132
-0.0367 -0.971 0.0660
0.0836  0.101 -0.225
-0.191  0.422 -0.148
-0.0550 -0.294 -0.236
0.0933 -0.0953  0.222
-0.280  0.766 0.0819
-0.217 -0.760 -0.108
0.00175 -0.737 -0.242
0.0836  0.293 -0.225
 0.136 0.0845  0.199
 0.131 -0.538  0.204
 0.109  0.746 -0.279
 0.120 -0.432  0.211
-0.227  0.486 0.0862
-0.213 -0.506  0.119
-0.0722  0.139  0.232
 0.168 -0.0568  0.174
-0.244  0.582 -0.00123
-0.268  0.625 -0.0496
0.0643 -0.458 -0.233
 0.211  0.786  0.199
 0.145  0.727  0.221
-0.238 -0.256 -0.0497
 0.107  0.656  0.314
-0.191  0.786 -0.136
-0.0854  0.563  0.226
 0.175 -0.400 -0.165
 0.145 -0.160 -0.191
0.0114  0.786 -0.233
-0.201  0.786 0.0853
-0.00751 -0.757  0.243
-0.0891 -0.763 -0.224
-0.0923 -0.121  0.224
 0.206  0.357  0.127
 0.241 -0.487 -0.00137
 0.139 -0.940 -0.196
-0.241  0.476 -0.0293
-0.213 -0.921  0.119
 0.238 -0.641 -0.0297
-0.0823 -0.0632 -0.227
 0.212 -0.445  0.116
 0.112 0.0235 -0.214
 0.137  0.787 -0.00143
-0.00783  0.786 -0.0881
-0.0560  0.786 -0.127
-0.143 -0.971 0.0371
0.0112 -0.294 -0.241
 0.234 0.00425 0.0549
 0.131  0.386  0.203
-0.202 -0.304  0.136
-0.185  0.438  0.157
-0.237 -0.526 0.0557
-0.156  0.486  0.185
 0.175  0.625 -0.204
-0.179  0.155 -0.164
 0.134 -0.294 -0.200
-0.167 -0.612  0.177
 0.219 -0.429 -0.0960
 0.235 0.0524 -0.0486
 0.226 -0.362 0.0821
 0.222 -0.150 -0.0896
 0.232 -0.542 0.0680
 0.231 -0.583 -0.0689
 0.187 -0.670 -0.149
0.0640  0.226 -0.233
-0.0855  0.419  0.227
-0.0922 -0.699  0.224
-0.191 -0.195 -0.148
0.0576 -0.246 -0.235
-0.222  0.245 0.0995
 0.173 -0.426  0.170
-0.215  0.544 -0.114
 0.281  0.756 -0.0912
 0.179  0.226 -0.160
 0.238  0.216 0.0269
-0.202 -0.371  0.136
0.0885  0.786 -0.127
-0.0945 -0.971 -0.156
0.00175  0.197 -0.242
 0.241  0.544 0.00797
-0.0172 -0.0439 -0.240
-0.258  0.625  0.133
-0.0891 -0.127 -0.224
-0.210  0.787  0.172
-0.230 -0.410 0.0796
0.0934  0.786  0.281
0.0693  0.625 -0.262
-0.327  0.653 0.0454
0.0491  0.419 -0.236
-0.0640  0.293  0.235
-0.229  0.786 -0.0207
-0.0271  0.786 0.0467
 0.179 -0.304 -0.160
-0.00750  0.235  0.243
-0.0849  0.786 -0.0111
 0.244  0.679 -0.168
 0.158 -0.259  0.182
0.0396 -0.574 -0.237
-0.00779  0.625 -0.290
-0.155 -0.590 -0.186
-0.200 -0.404 -0.137
0.0981  0.625  0.259
 0.239 -0.217 0.0173
-0.0259 -0.535  0.240
 0.237 -0.892 0.0363
 0.176  0.660  0.249
-0.241  0.284 -0.0293
 0.213 -0.831  0.116
 0.228 -0.863 -0.0763
-0.249  0.727 0.0109
0.0932 -0.818  0.222
-0.236 -0.439 -0.0584
 0.236  0.322 0.0458
0.0643 -0.921 -0.233
-0.222  0.663  0.196
0.0105 -0.593  0.243
-0.0891 -0.628 -0.224
-0.0958 -0.423 -0.221
-0.232 -0.542 -0.0736
 0.236  0.677  0.176
-0.0823  0.409 -0.227
 0.198 -0.644  0.137
0.0933  0.531  0.222
0.0336 -0.127  0.239
-0.0172  0.486 -0.240
0.0336 -0.436  0.239
0.0596 -0.971 0.0178
-0.274  0.646 -0.192
 0.156  0.496 -0.183
 0.163  0.470  0.178
 0.241 -0.940 0.00797
-0.0958  0.213 -0.221
 0.284  0.662 -0.0180
-0.0463  0.370  0.238
-0.127  0.566 -0.206
-0.00773 -0.680 -0.242
-0.0362  0.601 -0.238
-0.151 -0.853  0.189
0.0200 -0.208  0.241
-0.229  0.502 -0.0802
-0.215 -0.660 -0.114
 0.183  0.129 -0.155
0.0115 -0.971  0.191
 0.134  0.400 -0.200
-0.213  0.544  0.119
-0.219  0.341  0.106
-0.162  0.656  0.278
 0.139  0.303 -0.196
-0.175 -0.291 -0.169
-0.224  0.748 -0.190
 0.214 -0.970 -0.109
 0.180 -0.551  0.160
-0.00751  0.573  0.243
-0.215 -0.140 -0.114
-0.242  0.505 0.0170
0.0112 -0.815 -0.241
 0.117  0.786 0.0949
 0.146  0.786 -0.0785
-0.123 -0.971 -0.0689
0.0998 -0.349  0.219
0.0269  0.415  0.240
 0.173 -0.850  0.170
 0.216 -0.747 -0.104
0.0643  0.553 -0.233
-0.0823 0.0235 -0.227
0.00175  0.544 -0.242
-0.185 -0.709  0.157
-0.0854 -0.824  0.226
-0.167  0.284  0.177
-0.0172  0.303 -0.240
 0.218  0.409  0.102
-0.243 -0.131 -0.0103
 0.116  0.786 -0.233
 0.228  0.476 -0.0763
-0.236 -0.333 -0.0584
-0.198  0.120  0.142
 0.233  0.625 -0.165
-0.0823 -0.853 -0.227
-0.151 -0.420  0.189
 0.145  0.582 -0.191
0.0999 -0.243  0.220
-0.289  0.727 -0.0248
 0.225 -0.0247 -0.0829
 0.237  0.110 -0.0392
-0.106  0.612  0.220
-0.240 -0.970 0.0343
0.0144  0.775 -0.300
 0.176  0.669 -0.242
 0.150 -0.603 -0.187
-0.181  0.553  0.163
0.0200  0.110  0.241
-0.142  0.727 -0.223
 0.252  0.625  0.143
 0.210  0.563 -0.117
-0.0721 -0.651  0.232
-0.227 -0.275 0.0859
 0.215  0.223  0.109
 0.152 -0.718  0.187
-0.240 -0.599 -0.0362
 0.222  0.158 -0.0895
-0.210 -0.815  0.125
-0.0260 -0.275  0.241
-0.109  0.325 -0.216
-0.162 -0.0921  0.181
 0.164 -0.927  0.178
0.0114  0.786 0.0949
 0.117 -0.971  0.133
-0.172 -0.971  0.124
 0.108 -0.971 -0.165
-0.179 -0.808 -0.164
-0.00783  0.786  0.201
 0.241 -0.834 -0.00142
 0.108  0.786  0.201
 0.234  0.573 0.0549
 0.240  0.486 -0.0107
-0.160  0.454 -0.181
-0.0267 -0.853 -0.239
 0.241 -0.294 0.00797
 0.288  0.746 0.0187
-0.143 -0.153 -0.194
-0.0788 -0.429  0.229
-0.114  0.786  0.228
-0.242  0.409 -0.0198
 0.217 -0.237  0.102
-0.0175  0.736  0.296
-0.0619 -0.176 -0.234
-0.0849  0.786 -0.271
-0.191 -0.971 0.0178
-0.220 -0.0214 -0.102
0.0669 -0.304  0.233
 0.234 -0.497 -0.0562
-0.242 -0.603 0.0170
-0.232 -0.821 -0.0736
0.0933 -0.968  0.223
-0.162  0.786 -0.184
-0.116  0.663 -0.237
 0.235  0.582 -0.0486
-0.240 -0.892 0.0333
 0.210 -0.333  0.121
 0.145 -0.0632 -0.191
 0.217 0.0138  0.102
-0.279  0.661 -0.107
-0.0848  0.625  0.268
 0.118 -0.391 -0.211
-0.300  0.653  0.141
 0.147 0.00747  0.191
0.0969 -0.680 -0.220
-0.212  0.113 -0.120
-0.0165 -0.651  0.241
 0.191  0.380 -0.144
 0.216 -0.102 -0.104
-0.118  0.707  0.270
 0.222 -0.208 -0.0896
0.0867 -0.660  0.225
-0.229  0.300 -0.0802
-0.141 -0.921  0.197
-0.239 -0.304 0.0400
-0.0891  0.142 -0.224
-0.146 -0.0247  0.193
-0.206 -0.00538  0.130
 0.226  0.648 -0.254
-0.0363  0.736 -0.297
 0.210 -0.304 -0.117
-0.241 -0.718 -0.0293
-0.208 -0.577 -0.126
 0.213 -0.689 -0.111
 0.239  0.399 0.0173
-0.0260 -0.882  0.240
-0.0987 0.0138  0.221
-0.204  0.374 -0.131
-0.112 -0.169  0.215
-0.279  0.664 0.0904
-0.121 -0.728 -0.210
 0.262  0.625 -0.0496
-0.275  0.781 -0.0972
-0.0714  0.746  0.288
 0.194  0.786 -0.156
 0.215 -0.933  0.109
 0.100  0.200  0.220
-0.0823  0.582 -0.227
-0.0656  0.625 -0.300
-0.232 0.0557 -0.0736
 0.120 -0.182  0.211
 0.238  0.216 -0.0297
0.0596  0.786  0.143
0.0981 -0.971 -0.0689
0.0115 -0.971 0.0564
-0.0174 -0.971 -0.0881
-0.143  0.786  0.172
 0.233  0.625  0.191
 0.204  0.787 0.0467
-0.0742 -0.535 -0.230
-0.0560 -0.971  0.114
-0.123  0.786 -0.0496
-0.0945  0.786  0.133
 0.185 -0.971 -0.0303
0.0207 -0.343 -0.240
 0.233  0.786 -0.0496
-0.00773  0.149 -0.242
 0.108  0.786 0.0467
-0.181  0.786 -0.0881
 0.241 0.0235 -0.00139
0.0496  0.592  0.237
-0.242  0.149 0.0170
-0.244 -0.439 -0.00123
0.0496  0.284  0.237
-0.191 -0.971 -0.0785
-0.160 -0.0471 -0.181
-0.237 -0.0632 0.0557
0.0588  0.698 -0.294
-0.235  0.380 0.0644
 0.210  0.120  0.121
 0.180 -0.0118  0.160
-0.233 -0.921 0.0728
-0.242 -0.882 -0.0198
 0.123  0.736 -0.226
-0.0923  0.467  0.224
0.0903  0.496 -0.223
-0.151 -0.747  0.189
-0.168  0.178  0.177
-0.0456 -0.429 -0.237
-0.133  0.625 -0.262
 0.166 -0.487 -0.175
 0.187 0.0235 -0.149
-0.00751  0.496  0.243
-0.0175  0.679 -0.299
0.00151  0.361  0.243
-0.00778 -0.970  0.242
-0.239 -0.660 0.0468
-0.124  0.101  0.210
 0.105 -0.343 -0.217
0.0307 -0.971 -0.117
-0.185 -0.140  0.157
-0.172 -0.971 0.0756
-0.123  0.787 0.0756
 0.290  0.648 -0.176
-0.0849 -0.971 0.0756
-0.243 -0.0824 -0.0103
-0.233  0.438 0.0728
 0.108 -0.971 0.0371
-0.119  0.226  0.213
 0.185 -0.750  0.154
0.0867 -0.535  0.225
-0.212  0.239 -0.120
-0.242 -0.786 0.0170
0.0336 -0.484  0.239
 0.146  0.786 -0.184
 0.204 -0.921 -0.128
0.0396 -0.0536 -0.237
-0.0367 -0.971  0.201
0.0211  0.786 0.0467
0.0211  0.786  0.249
 0.175  0.786  0.162
 0.226 -0.882 0.0821
 0.226 -0.410 0.0821
-0.0823 -0.256 -0.227
-0.193  0.730 -0.224
 0.241 -0.169 -0.0108
 0.240 -0.400 -0.0108
-0.0920 -0.256  0.224
-0.213 -0.0728  0.119
 0.235  0.390 -0.0486
 0.105 -0.824 -0.217
0.0430 -0.970 -0.235
-0.00773  0.380 -0.242
-0.240 -0.513 -0.0362
-0.226 -0.285 -0.0868
-0.175  0.219 -0.169
0.0112 -0.208 -0.241
-0.289  0.778 0.0214
 0.240 -0.0824 -0.0107
 0.232  0.104 0.0680
 0.262  0.786  0.104
-0.237  0.255 0.0557
-0.170 -0.673 -0.173
 0.177  0.261  0.165
0.0999  0.354  0.220
 0.321  0.628 -0.100
-0.203  0.746  0.213
 0.213  0.274 -0.111
-0.285  0.679 0.0187
-0.213 -0.612  0.119
-0.213 -0.689  0.119
-0.297  0.625 0.0179
 0.166  0.544 -0.175
 0.233 -0.721 0.0617
 0.166 -0.198 -0.175
-0.290  0.672 -0.0365
-0.143 -0.971  0.162
-0.0721 -0.564  0.232
-0.185  0.390  0.157
0.0496 -0.921  0.237
-0.220 -0.436 -0.102
-0.160 -0.971 -0.172
-0.167 -0.564  0.177
-0.228  0.612 0.0866
0.0836 -0.131 -0.225
-0.240 0.00425 0.0333
-0.240 -0.352 0.0333
 0.177  0.569  0.165
 0.100 -0.705  0.220
 0.152  0.206  0.187
 0.179 -0.352 -0.160
-0.216 -0.439  0.113
-0.210  0.656 -0.251
-0.113  0.661 -0.283
-0.170 -0.0953 -0.173
 0.225 -0.333 -0.0829
 0.200 -0.545 -0.133
 0.291  0.625 0.00822
0.0396 -0.766 -0.237
-0.0107  0.688  0.297
0.0211  0.656 -0.319
0.0112 -0.930 -0.241
-0.105  0.515  0.218
 0.186  0.701  0.230
-0.219 -0.747  0.106
-0.232  0.171 -0.0736
 0.122  0.675  0.270
-0.0823 -0.333 -0.227
 0.136 -0.628  0.199
 0.228  0.737 -0.190
0.0493  0.746 -0.295
0.0866 -0.863  0.225
 0.136 -0.811  0.199
-0.234 0.00425 -0.0670
 0.220  0.557 0.0954
-0.185  0.616 -0.160
 0.262  0.713  0.136
0.0934 -0.143  0.223
0.0496 0.0620  0.237
 0.141  0.434  0.195
-0.160 -0.471 -0.181
 0.261  0.756 -0.0211
 0.204  0.625  0.249
-0.0854 -0.343  0.226
-0.179  0.521 -0.164
-0.130  0.332  0.206
-0.208 -0.500 -0.126
 0.201 -0.0792  0.132
 0.163 -0.657  0.178
-0.239 -0.375 -0.0430
 0.231 -0.792 0.0679
-0.194 -0.970 -0.141
 0.116  0.756  0.238
-0.229 -0.971 -0.0111
 0.220 -0.638 0.0955
-0.215 -0.0921 -0.114
-0.109 -0.908 -0.216
 0.134 -0.563 -0.200
-0.216 -0.188  0.113
-0.00751 -0.111  0.243
 0.118 -0.0343 -0.211
-0.172 -0.786  0.172
 0.118 -0.641 -0.211
0.0105 -0.709  0.242
-0.102  0.370 -0.218
-0.0722 -0.872  0.232
 0.238 -0.737 -0.0297
 0.290  0.672 0.0400
-0.0920 -0.921  0.224
-0.238 -0.169 -0.0497
 0.193 -0.474  0.143
 0.210  0.486 -0.117
-0.102 -0.805 -0.218
 0.161  0.717 -0.239
0.0734 -0.0568  0.231
 0.179 -0.786 -0.160
-0.0396  0.110  0.239
-0.230 -0.227 0.0796
-0.230 -0.131 0.0796
 0.194 -0.971 0.0853
-0.0722 -0.959  0.232
-0.247  0.667 -0.164
-0.121 -0.458 -0.210
 0.193 0.0749  0.143
-0.189  0.245  0.152
 0.198  0.165  0.138
 0.168 -0.153  0.174
 0.243  0.786 -0.156
-0.155 0.0749 -0.186
-0.0838  0.746 -0.288
 0.179 -0.853 -0.160
 0.234 -0.317 0.0617
 0.208  0.226 -0.122
-0.242  0.284 0.0170
-0.162 -0.660  0.181
 0.163  0.152  0.178
-0.0653  0.627  0.330
-0.116  0.454 -0.213
-0.250  0.661  0.161
-0.135 -0.497  0.201
-0.0396  0.544  0.239
 0.226  0.457 0.0820
-0.0396  0.207  0.239
-0.121 -0.246 -0.210
-0.227 -0.554 0.0862
 0.197  0.736 -0.224
 0.126 -0.493  0.208
-0.210  0.786 -0.175
 0.146  0.656 -0.271
0.0500 -0.971 -0.0303
 0.239 -0.246 -0.0203
 0.320  0.625 0.0564
0.0403  0.786 -0.0303
 0.117  0.786 -0.0400
0.0307  0.786 -0.107
-0.241  0.399 0.0264
-0.239  0.786  0.105
-0.0657  0.786  0.220
-0.133  0.787 -0.107
0.0269  0.203  0.240
 0.237 -0.160 0.0363
0.0396  0.303 -0.237
0.0396  0.139 -0.237
-0.0456 -0.583 -0.237
0.0207 -0.477 -0.240
 0.291  0.660 0.0870
-0.0463 -0.971 -0.213
 0.241 -0.535 0.00800
-0.0456 -0.660 -0.237
0.00175 0.0524 -0.242
-0.0957 -0.683 -0.221
 0.185  0.786 -0.213
 0.236 0.0524 0.0457
0.0115  0.625  0.316
 0.105  0.573 -0.217
0.0585  0.505  0.235
0.0302 -0.699 -0.238
-0.0267  0.235 -0.239
0.0112 -0.00538 -0.241
-0.0172 -0.497 -0.240
-0.198  0.351  0.142
-0.106  0.663  0.280
-0.102 0.0813 -0.218
 0.106  0.264  0.217
-0.237 -0.757 0.0557
 0.238  0.524 -0.0297
 0.136 -0.898  0.199
-0.240  0.219 -0.0362
-0.127 -0.542 -0.206
0.0814  0.691  0.287
 0.141 -0.0953  0.195
-0.208  0.280 -0.126
 0.136  0.296  0.199
-0.181 0.00424  0.163
 0.215 -0.153  0.109
-0.241  0.120 -0.0293
-0.159  0.765 -0.245
-0.191  0.625  0.220
 0.134  0.448 -0.200
-0.0328 0.0331  0.239
-0.217  0.473 -0.108
 0.298  0.625  0.142
0.0770 -0.545 -0.228
-0.187  0.319 -0.153
-0.0586  0.786  0.290
-0.223 -0.901 -0.0949
-0.0639 -0.477  0.235
 0.112 -0.911 -0.214
-0.126 -0.970 -0.206
0.0693  0.656 -0.310
-0.269  0.736  0.109
 0.158 -0.770  0.182
-0.241 -0.169 0.0264
-0.0362 -0.930 -0.238
-0.142  0.625  0.297
 0.208  0.129 -0.122
 0.231  0.197 -0.0688
-0.0259 -0.0343  0.240
 0.179 -0.0536 -0.160
-0.0165 -0.188  0.242
-0.241 -0.0150 -0.0293
-0.238  0.625  0.229
 0.233 -0.256 -0.0628
0.0704 0.0620 -0.231
-0.230  0.149 0.0796
0.0734 -0.442  0.231
 0.156  0.625  0.239
-0.172  0.669  0.239
 0.233  0.351 -0.0628
0.0903 -0.0632 -0.223
-0.277  0.625 0.0757
 0.181  0.354  0.160
-0.213  0.438  0.119
-0.143 -0.375 -0.194
 0.161 0.0331 -0.179
 0.223  0.348 0.0888
 0.141 -0.326  0.195
 0.238  0.786  0.168
0.0404  0.786  0.182
-0.258  0.625 -0.136
-0.0890  0.508 -0.224
-0.179  0.386 -0.164
-0.125 -0.343  0.210
0.0596  0.786 -0.156
-0.0463  0.786 -0.0400
 0.137 -0.971 -0.0496
 0.191  0.447 -0.144
 0.156  0.110 -0.183
 0.123 -0.775 -0.208
0.0693  0.625  0.288
 0.137 -0.971 -0.136
-0.229  0.625  0.162
 0.120  0.785 -0.273
-0.208 -0.365 -0.126
 0.223  0.625 -0.213
 0.195  0.322 -0.138
-0.240 -0.699 0.0333
 0.195 -0.0150 -0.138
 0.150  0.216 -0.187
-0.151 0.0717  0.189
-0.138  0.152 -0.198
 0.225  0.409 -0.0829
-0.00773 -0.391 -0.242
0.0969 -0.275 -0.220
0.0704  0.332 -0.231
-0.196 -0.766 -0.142
0.0269 -0.394  0.240
-0.0855 -0.198  0.227
-0.216 -0.853  0.113
 0.234 -0.545 -0.0562
-0.204  0.152 -0.131
-0.119 -0.728  0.213
-0.0920 -0.603  0.224
-0.153  0.749  0.231
 0.120  0.126  0.211
 0.241  0.168 0.00801
0.0207  0.457 -0.240
 0.123  0.188 -0.208
 0.185 -0.355  0.154
 0.222 -0.477 -0.0895
 0.239 -0.323 -0.0203
 0.128  0.707 -0.269
-0.0552  0.457  0.237
 0.145 -0.256 -0.191
 0.141  0.569  0.195
 0.281  0.625  0.105
-0.215  0.428 -0.114
0.0643  0.380 -0.233
-0.282  0.688 -0.0772
0.00489  0.627 -0.341
0.00151 -0.911  0.243
0.0836 -0.420 -0.225
 0.112 -0.188 -0.214
 0.175  0.786 0.00820
 0.156  0.787  0.105
 0.183 -0.901 -0.155
-0.143  0.787 -0.0111
-0.0560  0.786 0.0756
-0.00773 -0.776 -0.242
0.0789 -0.971  0.124
-0.204  0.585 -0.131
-0.204 0.0749 -0.131
 0.194  0.786 0.0853
 0.204 -0.410 -0.128
 0.241 -0.612 -0.00139
-0.00779  0.625  0.278
 0.272  0.625 -0.0881
-0.133 -0.971 -0.00144
-0.0752 -0.971 -0.0207
-0.0463 -0.971 0.00819
0.0307 -0.971  0.133
 0.198 0.0203  0.138
-0.0367  0.786 -0.00144
-0.0560  0.786  0.153
 0.243  0.787 0.0564
-0.239 -0.211 -0.0427
-0.0463  0.786 -0.165
-0.0463  0.786 -0.242
 0.146 -0.971 0.0467
-0.241 0.0524 0.0264
 0.241  0.313 -0.0108
-0.244 -0.265 -0.00123
-0.0456 -0.747 -0.237
-0.239 -0.564 0.0468
 0.241 -0.449 0.00799
0.0496 -0.680  0.237
-0.191  0.786  0.133
0.0933  0.632 -0.330
-0.00751 -0.439  0.243
 0.226  0.662 -0.200
-0.234  0.592 -0.0670
0.0585 -0.343  0.236
-0.179 -0.423 -0.164
 0.216 -0.574 -0.104
 0.275  0.688 -0.105
 0.235 -0.160 -0.0486
-0.189 -0.0921  0.152
 0.267  0.782 -0.125
 0.231 -0.824 -0.0690
0.0396  0.187 -0.237
 0.171  0.187 -0.171
 0.236  0.178 0.0457
-0.124  0.785 -0.267
-0.0550 -0.0343 -0.236
 0.234 0.0138 -0.0562
 0.229  0.612 0.0835
-0.239 -0.834 0.0468
 0.210 -0.718  0.121
 0.171 -0.632 -0.170
 0.237 -0.564 0.0363
 0.239  0.612 0.0366
-0.212 -0.214 -0.120
 0.191 -0.140 -0.144
 0.213 0.0621 -0.110
-0.185  0.313  0.157
-0.177 -0.304  0.168
 0.204 -0.506 -0.128
-0.181 -0.227  0.163
-0.181 -0.391  0.163
0.0576 -0.843 -0.235
0.0207 -0.612 -0.240
-0.170 -0.760 -0.173
 0.166  0.390 -0.175
-0.124 -0.670  0.210
 0.262  0.708 -0.139
 0.181  0.306  0.160
0.0704  0.592 -0.231
 0.231 -0.670 -0.0689
-0.238  0.322 -0.0497
 0.178  0.609  0.166
-0.162  0.524  0.181
 0.205 -0.227 -0.128
 0.241 -0.786 -0.0108
 0.139 -0.506 -0.196
-0.222 0.0331 0.0995
-0.170 -0.510 -0.173
 0.148  0.616  0.193
 0.233 -0.622 -0.0628
-0.0329  0.264  0.239
-0.141  0.370  0.197
-0.165  0.296 -0.177
-0.239 0.0781 -0.0430
-0.0329  0.332  0.239
0.0704 -0.352 -0.231
 0.131 -0.577  0.204
 0.233  0.625 -0.127
-0.237  0.582 0.0557
-0.244  0.544 -0.00123
-0.143 -0.818 -0.194
-0.0329 -0.362  0.239
-0.208 -0.866 -0.126
 0.328  0.656 -0.0206
 0.289  0.736 0.0560
-0.143 -0.192 -0.194
0.0693 -0.971 -0.175
-0.0463  0.625  0.278
0.00179  0.786 -0.0496
-0.0271 -0.971  0.162
 0.145 -0.121 -0.191
-0.268  0.625 -0.0111
 0.146  0.786  0.201
 0.226  0.293 0.0821
-0.0165 -0.227  0.242
0.0496  0.322  0.237
-0.237  0.341 0.0557
-0.242  0.322 0.0170
 0.146 -0.971 -0.0111
-0.130 -0.256  0.206
-0.155 -0.628 -0.186
-0.183 -0.850 -0.159
-0.00750 -0.795  0.243
0.0404 -0.757  0.238
0.0337 -0.0214  0.239
-0.121 -0.612 -0.210
-0.316  0.656 0.00819
 0.273  0.629  0.194
0.0981  0.625 -0.290
-0.0550  0.129 -0.236
0.0396 -0.429 -0.237
-0.196 -0.921 -0.142
 0.118  0.707  0.246
-0.240 -0.821 -0.0362
-0.0456  0.380 -0.237
-0.00773 -0.583 -0.242
 0.118 -0.140 -0.211
0.0800 -0.782  0.228
-0.160  0.126 -0.181
 0.240 -0.362 -0.0108
 0.139 0.00425 -0.196
-0.0752  0.656 -0.319
-0.152  0.656 -0.271
-0.142  0.625 -0.299
-0.0550  0.303 -0.236
-0.297  0.625 -0.0785
 0.234 -0.121 0.0549
-0.121 -0.333 -0.210
-0.0396  0.158  0.238
 0.173 -0.387  0.170
 0.239  0.351 0.0173
 0.185 -0.211  0.154
-0.227  0.563 0.0862
-0.227  0.524 0.0862
-0.215 -0.709 -0.114
-0.172  0.625  0.259
 0.215  0.512  0.109
 0.225  0.573 -0.0829
-0.242 -0.217 0.0170
0.0114  0.787  0.287
 0.235 -0.930 -0.0486
-0.0854  0.187  0.226
-0.227 -0.0824 0.0862
-0.112 -0.766  0.215
 0.123  0.786  0.258
 0.225 -0.0728 -0.0829
 0.276  0.736  0.102
-0.220  0.656  0.239
 0.197 -0.856  0.137
-0.0619  0.219 -0.234
0.0704 -0.497 -0.231
-0.149 -0.275 -0.190
-0.229 -0.664 -0.0802
0.0903  0.255 -0.223
-0.191 -0.330 -0.148
-0.103  0.612 -0.219
-0.250  0.759 -0.00739
-0.237 -0.0247 0.0557
 0.218  0.665  0.205
 0.214 -0.971 -0.0689
 0.183  0.652  0.284
-0.0380 -0.737  0.239
 0.176  0.653 -0.293
0.0588  0.782  0.291
-0.0782  0.332  0.229
 0.156 -0.971  0.133
0.0491 -0.150 -0.236
0.0998 -0.397  0.219
 0.117  0.101 -0.211
-0.264  0.746 -0.125
 0.233  0.264 -0.0628
-0.172  0.625 -0.252
-0.249  0.727  0.154
-0.233 0.0813 0.0728
 0.220 -0.474 0.0954
-0.179 -0.249 -0.164
-0.241 -0.477 -0.0293
-0.216  0.139  0.113
-0.141  0.592  0.197
-0.240 -0.449 0.0333
 0.229 -0.217 0.0740
 0.220 -0.272 0.0954
0.0800 -0.214  0.228
 0.197  0.762  0.221
-0.212 -0.176 -0.120
-0.212 -0.970  0.120
-0.0891  0.296 -0.224
 0.237 -0.970 0.0271
-0.160  0.492 -0.181
-0.133  0.357 -0.202
-0.127 -0.0600 -0.206
 0.126  0.518  0.208
-0.229 -0.741 -0.0802
 0.306  0.654  0.121
 0.201  0.393  0.132
-0.175 0.0460 -0.169
0.0336 -0.831  0.239
-0.312  0.648 -0.115
 0.229 -0.921 0.0740
-0.212 -0.542 -0.120
 0.229  0.206 0.0741
 0.225 -0.294 -0.0830
 0.216 -0.843 -0.104
-0.240 -0.937 -0.0362
-0.160  0.252 -0.181
 0.173  0.431  0.170
 0.234 -0.892 -0.0562
-0.118  0.756  0.270
 0.262  0.660 0.0100
 0.169  0.743  0.242
-0.204 -0.301 -0.131
-0.0788 -0.0632  0.229
 0.169 -0.962  0.174
0.0585  0.399  0.235
-0.155 -0.551 -0.186
-0.155  0.576 -0.186
-0.223  0.573 -0.0949
 0.208 -0.612 -0.122
-0.219 -0.381  0.106
 0.206 -0.789  0.127
-0.130 -0.111  0.206
-0.181  0.625 -0.194
 0.189  0.476  0.149
 0.222 -0.381 -0.0895
-0.151 -0.526  0.189
0.0307  0.656  0.316
-0.210 0.0717  0.125
0.0770 -0.217 -0.228
 0.240  0.750  0.171
-0.142  0.682  0.220
-0.146  0.255  0.193
 0.255  0.682 -0.0177
-0.0958 -0.0278 -0.221
-0.240 -0.657 -0.0362
-0.146 -0.0632  0.193
0.0770 -0.622 -0.228
 0.281  0.786 0.0217
 0.189 -0.593  0.149
-0.239 -0.558 -0.0430
 0.112 -0.477 -0.214
 0.150  0.255 -0.187
-0.212  0.508 -0.120
 0.231 -0.410 -0.0689
-0.226  0.216 -0.0868
0.0998 -0.628  0.219
-0.0823 -0.391 -0.227
-0.167 -0.449  0.177
-0.0742 0.0620 -0.230
-0.245  0.736 -0.163
-0.234 -0.632 -0.0670
-0.185 -0.535  0.157
-0.156 -0.892  0.185
-0.149 -0.737 -0.190
-0.194 -0.911  0.147
-0.229 -0.143 -0.0802
 0.114  0.447  0.214
0.0934 -0.750  0.223
 0.128 -0.698 -0.204
0.0873  0.717 -0.288
-0.138 -0.898 -0.198
0.0866  0.573  0.225
-0.275  0.699 0.0948
 0.161 -0.728 -0.179
 0.134  0.342 -0.200
 0.253  0.733 0.00448
-0.289  0.727 0.0271
-0.200 -0.683 -0.137
 0.281  0.727 -0.0214
 0.117  0.624  0.229
 0.216  0.197 -0.104
 0.131 -0.240  0.203
-0.146 -0.285  0.193
-0.116  0.174 -0.213
-0.241  0.701 -0.168
0.0491 -0.00539 -0.236
 0.215 -0.558  0.109
-0.240  0.354 -0.0362
-0.0550  0.496 -0.236
0.0105 0.0428  0.243
 0.117  0.786 -0.156
-0.114 -0.971 -0.127
0.0105 -0.516  0.243
-0.0174 -0.971 -0.136
-0.306  0.625 0.0564
-0.116 0.0106 -0.213
-0.181  0.786 0.0564
0.0981  0.786 -0.0881
-0.0945  0.786 0.0949
-0.191  0.786 -0.0111
0.0211  0.625 -0.271
0.0885  0.786  0.162
-0.248  0.656 -0.213
-0.0849  0.786 -0.165
-0.0945 -0.971  0.143
 0.108  0.656 -0.310
-0.0174 -0.971 -0.0303
-0.0656  0.786 0.0178
0.0885  0.786 -0.0207
-0.114  0.787 0.0275
 0.156  0.625 -0.233
 0.214  0.786 -0.0207
0.0885  0.787  0.239
-0.0174 -0.971 -0.194
0.0307  0.786  0.124
-0.210  0.786 -0.107
-0.258  0.786 -0.0593
0.0788  0.786  0.114
-0.0721 0.0331  0.232
0.0404  0.786 -0.184
 0.233  0.139 -0.0628
-0.0174  0.786  0.133
-0.277  0.625 -0.107
 0.235 -0.0536 -0.0486
 0.191 -0.815 -0.144
-0.141 -0.959  0.197
 0.166  0.293 -0.175
 0.121  0.665 -0.247
 0.289  0.746 -0.0590
-0.0823 -0.458 -0.227
 0.239  0.139 -0.0202
0.0866  0.632  0.328
 0.236  0.293 -0.0392
0.00175 -0.0728 -0.242
0.0302  0.380 -0.238
-0.122  0.688 -0.261
-0.0463  0.625 -0.262
 0.236  0.419 0.0458
 0.236 -0.237 0.0458
-0.00773 -0.121 -0.242
 0.128  0.496 -0.204
 0.156 -0.449 -0.183
 0.241  0.438 0.00797
-0.156 -0.381  0.185
-0.156 -0.237  0.185
 0.241 -0.0343 0.00797
-0.00749 -0.304  0.243
-0.00750  0.399  0.243
0.00175 -0.256 -0.242
 0.105  0.216 -0.217
0.0669 -0.256  0.233
0.00151 -0.362  0.243
-0.0267  0.110 -0.239
-0.00773  0.582 -0.242
 0.126 -0.725  0.208
-0.162 -0.179  0.181
 0.150 -0.410 -0.187
 0.126 -0.937  0.208
 0.112  0.313 -0.214
 0.238 -0.506 0.0268
 0.241  0.120 0.00802
 0.238 -0.815 0.0268
 0.239 -0.516 -0.0202
-0.285  0.765 -0.0590
 0.201 -0.233  0.132
-0.0845  0.656  0.324
-0.243 -0.362 -0.0103
-0.242 -0.526 0.0170
-0.132  0.656  0.305
 0.291  0.625 -0.117
-0.189 -0.815  0.152
 0.271  0.786 -0.0785
0.00149 -0.160  0.243
 0.179  0.486 -0.160
 0.204 -0.971 0.0371
 0.141 -0.288  0.195
0.0969 -0.757 -0.220
-0.199  0.695 -0.220
0.0496 -0.227  0.237
 0.134 -0.862 -0.200
0.0105  0.601  0.243
-0.237  0.467 0.0557
-0.238 -0.901 -0.0497
-0.239 -0.400 0.0400
-0.0464  0.656  0.316
0.0585  0.447  0.235
 0.204 -0.651 -0.128
0.00152 -0.554  0.243
0.0687  0.619  0.241
 0.139  0.653  0.307
 0.233  0.483 0.0617
0.00178  0.786 -0.271
-0.0718  0.669  0.290
-0.227 -0.516 0.0862
 0.244  0.713  0.165
 0.147 -0.426  0.191
-0.204  0.688  0.213
-0.0552 -0.121  0.237
 0.127  0.625 -0.252
-0.166  0.720 -0.245
-0.212  0.618 -0.130
-0.0552 -0.188  0.237
 0.211 -0.458 -0.117
 0.264  0.662  0.146
-0.216 -0.323  0.113
 0.195 -0.333 -0.138
-0.135  0.467  0.202
-0.177 -0.747  0.168
-0.185 -0.352  0.157
-0.119  0.409  0.213
-0.105  0.313  0.218
-0.124 -0.00538  0.210
-0.134  0.695 -0.222
-0.230  0.216 0.0796
 0.189 -0.150  0.148
-0.0362  0.457 -0.238
-0.0682 -0.0953 -0.233
 0.171 -0.160 -0.170
 0.171 0.0717 -0.170
-0.191  0.200 -0.148
0.0932  0.232  0.222
-0.121  0.534 -0.210
 0.166  0.601 -0.175
 0.166 -0.689 -0.175
-0.196 -0.0247 -0.142
 0.106 -0.00540  0.217
0.0396 0.0717 -0.237
0.0396 -0.188 -0.237
0.0932 0.0588  0.222
-0.102  0.245 -0.218
-0.149 -0.699 -0.190
 0.233 -0.0279 0.0617
 0.131  0.329  0.203
-0.183 -0.571 -0.159
-0.119  0.756 -0.255
 0.319  0.656 0.0467
0.0336  0.171  0.239
 0.177 -0.519  0.165
 0.213 -0.301  0.116
-0.249  0.786 -0.117
-0.189 -0.477  0.152
-0.127 -0.127 -0.206
 0.231  0.438 -0.0689
 0.152 0.0428  0.186
 0.177 -0.288  0.165
-0.172 -0.834  0.172
-0.205  0.627 -0.265
-0.209 -0.971 -0.107
 0.183  0.563 -0.155
0.0269  0.512  0.240
 0.180  0.537  0.160
 0.166 -0.921 -0.175
-0.155 -0.320 -0.186
 0.158  0.107  0.182
0.0269  0.242  0.240
-0.251  0.695 0.0148
 0.313  0.654 -0.119
-0.181 0.0910  0.163
-0.155 0.00745 -0.186
-0.0721 -0.795  0.232
 0.204 -0.766 -0.128
-0.0396 -0.439  0.238
0.0304  0.679 -0.298
 0.216 -0.892 -0.104
-0.227 -0.641 0.0862
-0.219 -0.477  0.106
 0.169 -0.818  0.174
 0.200  0.409 -0.133
 0.123 0.0532 -0.208
-0.222 -0.583 0.0995
 0.281  0.625 -0.156
-0.244 -0.333 0.00788
-0.210 -0.410  0.125
-0.216 -0.786  0.113
 0.137 -0.971  0.162
-0.223  0.341 -0.0949
-0.210 -0.971 0.0467
 0.127  0.625  0.297
-0.229 -0.779 -0.0802
-0.238  0.505 -0.0497
 0.292  0.707 0.0213
-0.196  0.653  0.271
-0.156  0.322  0.185
-0.133 -0.971 -0.156
 0.161 -0.574 -0.179
 0.195 -0.709 -0.138
 0.258  0.655  0.207
-0.189  0.149  0.152
 0.177 -0.240  0.165
-0.146 -0.468  0.193
-0.220  0.162 -0.102
-0.183  0.451 -0.159
 0.206  0.425  0.127
-0.241 -0.0824 0.0264
-0.237 -0.275 0.0557
-0.220 -0.243 -0.101
-0.0920 -0.487  0.224
-0.189 -0.593  0.152
 0.206  0.194  0.127
-0.165  0.412 -0.177
 0.144  0.621 -0.202
 0.206 -0.673  0.127
-0.0639 -0.689  0.235
0.0836 0.0331 -0.225
 0.193 -0.416  0.143
-0.240  0.576 -0.0362
-0.175 -0.166 -0.169
-0.206  0.467  0.130
-0.135  0.129  0.201
 0.236 -0.815 -0.0392
-0.153  0.786 -0.223
 0.231 -0.599 0.0679
 0.231 -0.449 -0.0689
 0.131 -0.461  0.204
-0.206 -0.0439  0.130
-0.119 -0.535  0.213
-0.206 -0.150  0.130
-0.236 -0.294 -0.0584
-0.285  0.656 -0.164
-0.167  0.592  0.177
-0.172 0.0331  0.172
-0.206 -0.265  0.130
-0.223 -0.863 -0.0949
-0.239  0.158 0.0468
0.0969 -0.940 -0.220
-0.230 -0.00538 0.0796
0.0643 -0.593 -0.233
 0.114 -0.0728  0.214
 0.181 -0.879  0.160
 0.215 -0.201  0.109
0.00180  0.746 -0.301
 0.193 -0.0503  0.143
-0.170 -0.394 -0.173
 0.177 -0.182  0.165
 0.173  0.499  0.170
-0.234 -0.940 -0.0670
 0.164 -0.359  0.178
-0.239  0.207 0.0400
-0.235 -0.323 0.0644
0.0903 -0.381 -0.223
-0.0891  0.441 -0.224
 0.169  0.232  0.174
0.0496  0.101  0.237
 0.114 -0.882  0.214
 0.320  0.625 -0.0303
 0.215  0.652  0.259
-0.138  0.470 -0.198
-0.314  0.656 0.0943
 0.231 -0.0889 0.0679
 0.146  0.656  0.259
-0.0552 -0.265  0.237
-0.204 -0.734 -0.131
 0.128  0.752  0.266
-0.160 -0.885 -0.181
0.0211 -0.971 -0.213
-0.0742 -0.795 -0.230
-0.0742 -0.593 -0.230
-0.328  0.654 -0.0298
 0.118 -0.966 -0.211
-0.184  0.619  0.168
0.0933  0.492  0.222
 0.252  0.624 -0.0206
 0.120 0.0492  0.211
-0.0174  0.623 -0.252
 0.233 -0.188 -0.0628
-0.285  0.782 0.0561
 0.223 -0.712 0.0889
-0.268  0.756 0.0185
0.0770 -0.0921 -0.228
-0.230  0.625  0.114
-0.196  0.544 -0.142
 0.207  0.765 -0.216
-0.242 -0.632 -0.0198
-0.242 -0.795 -0.0198
 0.293  0.756 -0.0302
-0.0463  0.786  0.182
0.0692  0.786 -0.223
 0.193  0.248  0.143
-0.162  0.786 -0.117
-0.0463  0.786 -0.0785
 0.233  0.786  0.133
 0.156  0.625 -0.281
-0.239  0.625  0.191
 0.291  0.625 -0.0592
-0.152  0.786 -0.0785
-0.0945 -0.971 -0.0785
-0.242  0.447 -0.0198
-0.0267  0.274 -0.239
-0.0267  0.515 -0.239
-0.0362  0.409 -0.238
-0.220  0.786  0.143
-0.258  0.625 -0.175
 0.204  0.625 -0.175
0.0493  0.717  0.292
 0.239 -0.670 -0.0202
0.0211  0.786 -0.0785
-0.0175  0.786 -0.136
-0.0619 -0.946 -0.234
0.0596 -0.971 -0.0592
-0.00781 -0.971 0.0275
-0.249  0.786 0.0756
 0.146  0.787 0.0275
-0.200 -0.971 -0.0496
0.0404  0.625  0.297
-0.133  0.787  0.201
0.0307  0.786 0.0178
-0.00781 -0.971 -0.0592
-0.0656 -0.971 -0.146
 0.236 -0.188 0.0458
-0.191 -0.272 -0.148
-0.0946  0.786 -0.242
0.0693  0.625 -0.300
 0.291  0.625 0.0757
-0.172  0.786  0.182
0.0866  0.620 -0.231
 0.166  0.786  0.133
 0.175  0.787 -0.127
-0.104 -0.971 -0.184
-0.287  0.625  0.124
 0.146  0.787 -0.0303
0.0885  0.786 0.0853
0.0404 -0.971 -0.146
 0.175  0.787 -0.0689
 0.262  0.625 0.0179
 0.108  0.786 0.00819
-0.0945  0.625 -0.281
-0.210  0.786 0.0275
-0.104  0.786 -0.0785
-0.0267  0.332 -0.239
-0.258  0.625 0.0178
-0.0165 -0.00539  0.241
 0.240 -0.911 -0.0108
0.0885  0.786 -0.165
 0.237 -0.371 0.0363
-0.242 -0.747 -0.0198
-0.220  0.625 -0.194
 0.238 -0.593 0.0269
0.0302 -0.545 -0.238
-0.242  0.149 -0.0198
-0.196 -0.237 -0.142
-0.0986  0.129  0.221
 0.235  0.322 -0.0486
0.00175 -0.651 -0.242
0.0494  0.612 -0.238
 0.152 -0.564  0.186
 0.152 -0.526  0.186
-0.252  0.717 -0.0177
 0.229  0.409 0.0740
 0.240  0.573 -0.0108
-0.0550 -0.400 -0.236
-0.0456 -0.323 -0.237
-0.237  0.772 -0.174
0.0105 -0.882  0.242
 0.235 -0.853 -0.0486
-0.112  0.582  0.216
 0.201 -0.127  0.132
-0.0650  0.632 -0.334
 0.147 -0.166  0.191
-0.243 -0.689 -0.0103
-0.244  0.207 -0.00123
 0.216  0.534 -0.104
-0.0165 -0.333  0.242
-0.0165  0.467  0.241
 0.236 -0.391 -0.0392
-0.223 -0.516 -0.0949
0.0873  0.765 -0.288
 0.219 -0.776 -0.0960
-0.119 -0.593  0.213
-0.0165  0.129  0.241
-0.316  0.625 -0.0496
-0.239 -0.497 0.0468
0.0969 0.0717 -0.220
0.0704 -0.689 -0.231
 0.237 -0.583 -0.0392
-0.0640 -0.362  0.235
0.0735  0.261  0.231
0.0704 -0.882 -0.231
0.0403 -0.593  0.238
 0.237 0.0813 0.0363
 0.215 -0.970  0.108
-0.0742 -0.362 -0.230
-0.235 -0.949 0.0644
-0.112 -0.834  0.215
-0.223 -0.632 -0.0949
 0.126  0.229  0.208
 0.323  0.654 0.0811
 0.219 -0.718 -0.0962
0.0491 -0.275 -0.236
-0.0267 -0.169 -0.239
-0.239 -0.413 -0.0430
-0.238  0.409 -0.0497
 0.281  0.771 0.0882
-0.0638 -0.843  0.235
-0.114  0.625  0.288
-0.0267 -0.468 -0.239
-0.0267  0.187 -0.239
-0.0918  0.698 -0.284
0.0207 -0.400 -0.240
 0.114  0.409  0.214
 0.216 -0.940 -0.104
 0.153  0.784 -0.227
 0.325  0.654 -0.0815
0.0112  0.293 -0.241
-0.115  0.698  0.230
-0.240 -0.940 0.0333
 0.226 -0.516 0.0822
 0.225 -0.554 -0.0829
-0.0682 -0.230 -0.233
 0.247  0.627  0.226
 0.215 -0.375  0.109
 0.241  0.226 -0.00140
-0.0785 -0.314  0.229
-0.181 -0.971  0.152
 0.239 -0.285 -0.0203
 0.241 -0.872 0.00797
-0.233 -0.680 0.0728
 0.238  0.582 0.0269
0.0500 -0.971  0.210
-0.244 0.0235 -0.00123
 0.293  0.662 -0.0465
-0.220  0.373 -0.101
 0.210 -0.150 -0.117
-0.0721 -0.0343  0.232
0.0836  0.197 -0.225
 0.112 -0.545 -0.214
-0.219  0.168  0.106
-0.0789 -0.169  0.229
 0.241  0.390 -0.0108
-0.141  0.654 -0.306
 0.239  0.303 0.0173
 0.173 0.0845  0.170
-0.116 -0.943 -0.213
 0.200  0.351 -0.133
-0.228  0.765  0.182
-0.119 -0.140  0.213
0.0585 0.0331  0.235
-0.200 -0.153 -0.137
-0.222 -0.824 0.0995
-0.210  0.235  0.125
 0.213  0.390 -0.111
0.0585 -0.00539  0.235
 0.225 -0.121 -0.0829
-0.0853 -0.285  0.226
-0.239 -0.632 0.0400
 0.225  0.505 -0.0829
-0.224  0.274 0.0928
-0.216 -0.718  0.113
0.0903 -0.246 -0.223
-0.245  0.699  0.160
-0.198  0.573  0.142
-0.0855 -0.458  0.227
0.0903  0.129 -0.223
-0.216 -0.660  0.113
 0.222 -0.612 -0.0896
 0.118  0.284 -0.211
 0.195 -0.574 -0.138
-0.240  0.563 0.0333
-0.130  0.496  0.206
-0.0956 -0.0953 -0.221
 0.142  0.659 -0.228
-0.194  0.216  0.147
-0.0329 -0.506  0.239
-0.240 0.0813 0.0333
 0.150 -0.323 -0.187
-0.189 -0.680  0.152
 0.173 -0.686  0.170
 0.179 -0.429 -0.160
-0.0108  0.765  0.297
-0.239 -0.863 0.0400
-0.167 -0.121  0.177
-0.124 -0.429  0.210
 0.166 -0.757 -0.175
 0.161 -0.227 -0.179
 0.171 -0.0825 -0.170
-0.104  0.786 -0.204
 0.175  0.158 -0.166
 0.187 -0.487 -0.149
 0.161  0.467 -0.179
 0.145 -0.834 -0.191
 0.183 -0.275 -0.155
 0.145 -0.632 -0.191
0.0704 -0.776 -0.231
-0.269  0.711 -0.112
 0.231 -0.227 -0.0690
-0.199  0.775  0.217
 0.281  0.625 -0.0207
 0.215  0.300  0.109
0.0953  0.756  0.281
-0.236  0.476 -0.0584
-0.242  0.245 -0.0198
-0.149  0.322 -0.190
-0.242 -0.0439 -0.0198
0.0302 -0.660 -0.238
 0.217 -0.805  0.102
 0.240 -0.966 -0.0108
-0.232 -0.224 -0.0736
-0.226  0.399 -0.0868
-0.241 -0.275 0.0264
-0.244 -0.160 -0.00123
-0.189  0.284  0.152
 0.187 -0.930 -0.149
-0.244 0.0620 -0.00123
 0.107 -0.208  0.217
 0.194  0.656 -0.262
 0.244  0.727 -0.168
 0.180 -0.0792  0.160
 0.106  0.101  0.217
-0.285  0.756 -0.0221
-0.204 -0.792 -0.131
 0.189  0.139  0.148
0.0704  0.438 -0.231
-0.240 -0.118 -0.0362
-0.289  0.628 -0.169
-0.240 -0.0696 -0.0362
-0.245  0.654  0.226
 0.255  0.784 -0.0178
-0.224 0.0620 0.0928
 0.215  0.146  0.109
-0.287  0.704 -0.0430
 0.215 -0.413  0.109
-0.198  0.534  0.142
-0.123  0.787  0.124
-0.152  0.786 0.0756
0.00151  0.332  0.243
-0.219  0.303  0.106
 0.238 -0.747 0.0268
 0.238  0.245 0.0268
-0.230 -0.843 0.0794
-0.182  0.736  0.230
 0.226 -0.439 0.0821
-0.0891  0.113 -0.224
-0.0945 -0.971  0.172
 0.239  0.274 0.0173
 0.235 0.0813 -0.0486
 0.185  0.786 -0.184
0.0336 -0.291  0.239
-0.0267 0.0813 -0.239
-0.0647  0.717 -0.293
 0.206  0.329  0.127
 0.197 -0.924  0.137
-0.285  0.736 0.0560
 0.237 -0.921 0.0363
 0.236  0.293 0.0458
 0.226 -0.00539 0.0821
-0.144  0.660 -0.231
0.0500  0.786 0.0467
 0.222 -0.179 -0.0895
-0.229  0.786 -0.0496
-0.114  0.787 -0.00145
 0.237 -0.0825 0.0363
-0.0560  0.786  0.259
0.0934 -0.172  0.223
-0.123 -0.971 -0.0400
 0.225 0.00424 -0.0829
0.0307 -0.971 0.0178
0.0789 -0.971 -0.0111
-0.109 -0.648 -0.216
 0.320  0.625 0.0275
0.0885 -0.971 0.0853
 0.229 -0.150 0.0740
0.0770 0.00424 -0.228
-0.0362 -0.0728 -0.238
 0.241 -0.140 -0.0108
 0.118 -0.0632 -0.211
-0.143 -0.971 0.0660
0.0692  0.786 -0.0978
-0.0656 -0.971  0.201
-0.0656 -0.971 -0.0689
-0.0367  0.625 -0.300
0.0735 -0.606  0.231
-0.0891 -0.166 -0.224
0.0800 -0.937  0.228
 0.212  0.576  0.115
-0.233 -0.583 0.0728
-0.239  0.786 0.00820
0.0307  0.786 -0.271
-0.222 -0.150 0.0995
-0.0918  0.707  0.281
0.0998  0.171  0.219
0.00149 -0.940  0.243
-0.213  0.264  0.119
 0.204  0.786  0.153
 0.145  0.756  0.221
0.0866 -0.892  0.225
-0.238 -0.747 -0.0497
-0.229  0.531 -0.0802
-0.233  0.409 0.0728
 0.210  0.592 -0.117
-0.240 -0.850 -0.0362
-0.220  0.713 -0.196
 0.232  0.133 0.0680
0.0307 -0.971  0.162
-0.109 -0.214 -0.216
-0.114 -0.971 0.0371
 0.137 -0.971 -0.165
-0.162 -0.208  0.181
-0.236 -0.468 -0.0584
 0.193 -0.503  0.143
 0.187  0.255 -0.149
-0.0463  0.625  0.307
-0.240  0.383 -0.0362
-0.143 -0.346 -0.194
0.0999  0.383  0.220
 0.127  0.625  0.268
-0.241  0.370 0.0264
-0.0788 -0.400  0.229
 0.134  0.371 -0.200
-0.189  0.178  0.152
-0.219  0.370  0.106
-0.162  0.625  0.220
-0.133  0.386 -0.202
-0.0362 -0.959 -0.238
0.0969  0.419 -0.220
 0.233 -0.737 -0.0628
-0.153  0.720  0.231
-0.0456 -0.776 -0.237
0.0112 -0.843 -0.241
-0.202 -0.333  0.136
0.0770  0.467 -0.228
 0.179  0.332 -0.160
-0.200  0.625  0.191
 0.214 -0.971 -0.0207
0.0734 -0.124  0.231
 0.198 -0.558  0.137
-0.0841  0.621  0.236
 0.156 -0.285 -0.183
 0.262  0.656 -0.165
 0.107 -0.786  0.217
-0.0823  0.178 -0.227
-0.0550 0.0235 -0.236
 0.212 -0.619  0.115
-0.0463  0.582  0.238
-0.0945  0.787  0.249
0.0669 -0.506  0.233
0.0866  0.139  0.225
 0.185  0.786  0.210
0.0529  0.661  0.299
-0.119 -0.930  0.213
-0.160 -0.914 -0.181
-0.160 -0.134 -0.181
-0.167 -0.689  0.177
 0.181 -0.455  0.160
