ply
format ascii 1.0
element vertex 2048
property float x
property float y
property float z
end_header
 0.356 -0.559  0.343
-0.450  0.158 -0.639
-0.188  0.625  0.571
 0.503 0.0942 -0.376
-0.433 -0.699 -0.503
-0.389 -0.126  0.193
 0.437 -0.698 -0.567
 0.384  0.266  0.320
-0.371 -0.695  0.416
-0.0457 -0.126 -0.297
0.0575 -0.121  0.495
 0.131 0.0937 -0.714
 0.277 -0.121 0.0586
-0.377  0.312  0.305
 0.258  0.647  0.527
-0.516 0.0326 -0.217
 0.341 -0.315 -0.369
-0.00197  0.289  0.458
-0.356 -0.306 -0.473
-0.0315 -0.268  0.173
-0.290 -0.381  0.398
-0.151 0.0757 -0.526
 0.239 -0.00314 -0.242
-0.255 -0.0515 -0.0739
-0.186 0.0794  0.340
 0.424  0.138 -0.660
 0.507 -0.00476 -0.0940
 0.248 -0.289  0.313
 0.156 0.0851  0.317
0.0138 -0.103 -0.0368
 0.440 -0.105  0.259
0.0972 0.0493 -0.464
-0.286 0.0293 -0.320
 0.230  0.403  0.461
-0.358  0.546  0.419
 0.285 -0.0995 -0.471
0.0354  0.542  0.565
-0.506 -0.0165 0.0242
-0.186  0.416  0.485
 0.362 -0.462 -0.537
-0.470  0.105 -0.422
-0.0463 -0.287  0.392
-0.263 -0.114 -0.476
-0.207 -0.203  0.271
-0.0167 0.0797  0.466
-0.261 0.0954 -0.703
-0.388 -0.505 -0.424
 0.384  0.511  0.382
-0.150 -0.123 0.0837
 0.274 0.0935 -0.540
 0.142 -0.166  0.205
-0.338 -0.537  0.292
-0.0688 0.0846 -0.719
 0.488 -0.0277 0.0896
-0.207  0.268  0.375
-0.299 -0.201 -0.320
 0.175  0.240  0.411
-0.0606 -0.0659 -0.464
 0.124 -0.101 -0.375
 0.338 -0.0564 -0.100
-0.328 0.0995 -0.525
0.0711 -0.0387 -0.203
 0.411 0.00611 -0.253
-0.327  0.148  0.276
-0.104 -0.0553 -0.145
-0.307 -0.350  0.237
 0.302 -0.417  0.402
 0.307  0.127  0.272
 0.264 -0.182 -0.316
0.0872 -0.294  0.299
-0.362 0.00644 -0.180
 0.354 0.0375 -0.413
 0.382 -0.598 -0.456
 0.179 -0.0615 -0.0920
 0.389 -0.695  0.413
 0.291 -0.136  0.227
0.000616 0.0871 -0.583
0.0637 -0.212 0.0567
-0.362 -0.0604 0.0499
-0.136 0.00990 -0.333
 0.319 -0.406  0.253
 0.280  0.116 -0.694
-0.324  0.401  0.418
 0.466 0.0958 -0.520
-0.0246  0.435  0.483
 0.317 -0.262 -0.504
 0.174  0.533  0.500
0.0430  0.160  0.363
-0.0723 -0.0511  0.452
 0.218 0.00538 -0.387
-0.187 -0.283  0.395
0.0353 0.00198 -0.333
-0.0905  0.180  0.405
-0.396 -0.577 -0.555
-0.195 -0.115 -0.346
-0.237 -0.0471 -0.210
-0.305  0.645  0.498
 0.352  0.377  0.390
-0.256 -0.126  0.170
-0.355 -0.431 -0.529
0.0942  0.378  0.489
 0.149 -0.107 0.0329
 0.362  0.623  0.446
-0.416 -0.0418 -0.0710
-0.0765 -0.204  0.281
-0.0760 -0.192  0.477
0.0689 -0.232  0.417
-0.107  0.531  0.515
 0.380 -0.0841  0.145
-0.427 0.0290 -0.312
 0.148 0.0929 -0.585
 0.373 -0.454 -0.408
-0.487 -0.0451  0.148
-0.241  0.531  0.476
-0.242 0.0588 -0.439
-0.125 -0.121 -0.0392
 0.132  0.620  0.579
 0.371 -0.0517 0.0227
0.0686 -0.00892  0.449
-0.351 -0.389 -0.385
-0.0652 0.0822  0.328
-0.00926 -0.131 -0.152
-0.366 0.0448 -0.421
-0.513 0.0289 -0.0877
-0.135 -0.298  0.225
-0.120  0.319  0.459
 0.506 0.0570 -0.203
 0.301  0.527  0.483
 0.174 -0.293  0.217
-0.0665  0.614  0.589
 0.267  0.241  0.337
-0.165  0.114 -0.637
-0.0538 -0.213 0.0566
-0.362 -0.551  0.406
-0.308 -0.146  0.282
-0.0204 0.0426 -0.456
-0.135 -0.191  0.181
-0.486  0.108 -0.536
-0.298 -0.213 -0.435
-0.0421 -0.0303 -0.239
0.0362 -0.193  0.230
 0.321 -0.210 -0.406
0.0683  0.207  0.476
-0.163 -0.0481 -0.427
-0.268 -0.117 0.0402
 0.176 -0.276  0.395
 0.138 -0.000998 -0.296
0.0680 -0.0703 -0.462
 0.330 -0.379 -0.472
 0.194 -0.0982 -0.292
 0.323 0.00297 -0.316
-0.381 -0.628  0.329
 0.182 -0.0744 -0.460
-0.256  0.167  0.352
-0.342  0.138 -0.650
-0.300 -0.432  0.306
-0.0538  0.344  0.537
 0.267  0.317  0.410
-0.272 -0.300  0.322
-0.307  0.304  0.386
 0.411 -0.572 -0.552
 0.194 -0.128  0.123
0.0689 -0.254  0.150
 0.371 0.0872 -0.573
-0.142 -0.0497 -0.249
0.0641 -0.0901 -0.291
0.0279  0.104 -0.694
0.0869 -0.102 -0.108
 0.422 0.0132 -0.148
-0.260 0.0779 -0.597
-0.402 -0.604 -0.458
0.0135 -0.160  0.127
 0.215 0.0350 -0.484
0.0210 -0.223  0.330
-0.341 -0.277 -0.369
 0.417 0.0650 -0.337
 0.257 -0.0970 -0.0346
 0.205  0.156  0.364
-0.0389 -0.294  0.291
0.0229 -0.0989 -0.380
 0.475 -0.0880  0.166
 0.477 -0.0382 -0.00798
 0.195 -0.203  0.277
 0.359 -0.656  0.329
-0.0718  0.226  0.487
 0.286 -0.321  0.395
-0.0668 -0.0613 -0.365
-0.240 -0.284  0.218
-0.136 0.0449 -0.438
0.0872  0.276  0.409
 0.234 -0.121 -0.394
 0.305 -0.484  0.306
 0.305  0.457  0.410
 0.316 -0.0345 -0.197
-0.128 -0.293  0.321
-0.285 -0.119 -0.385
-0.234  0.338  0.434
-0.377  0.398  0.342
-0.448 -0.101  0.261
 0.270 -0.314  0.227
-0.320  0.234  0.308
0.0686  0.116  0.460
0.0916  0.470  0.492
 0.365  0.198  0.261
 0.509 0.0518 -0.294
0.0572 0.0694  0.359
-0.338 -0.121  0.118
 0.105 -0.144  0.122
-0.00945 -0.133 0.0448
 0.178 -0.0335 -0.177
 0.385 0.0971 -0.482
-0.310 -0.468  0.388
 0.313 -0.506  0.405
-0.334 -0.0781 -0.0331
0.0687  0.296  0.513
-0.0878 0.0948 -0.597
0.0130 -0.199  0.481
0.0278 -0.298  0.232
-0.00932  0.225  0.393
 0.153  0.319  0.450
 0.361 -0.154  0.277
 0.347 -0.618  0.413
-0.508 0.0951 -0.344
-0.0464 -0.163 -0.0568
 0.257 -0.0674 -0.131
 0.205 0.0854 -0.650
 0.132 -0.00618 -0.383
-0.398  0.102 -0.594
-0.224 0.00309 -0.375
 0.392  0.361  0.315
 0.407 -0.676 -0.483
-0.353 -0.00148 -0.275
-0.0445 -0.181  0.204
-0.104  0.441  0.514
-0.0349  0.494  0.544
-0.157 0.0806 -0.715
-0.192 -0.0899 0.00485
-0.180  0.183  0.386
-0.264  0.449  0.470
-0.308 -0.0517 -0.141
-0.466 -0.00309 -0.151
0.0371 0.0335 -0.522
 0.409 -0.0172 -0.0548
 0.443 0.0640 -0.427
-0.424 0.0772 -0.486
-0.0730 -0.108 -0.203
 0.319  0.317  0.341
 0.293 -0.142  0.143
-0.403 -0.502 -0.518
-0.186  0.542  0.539
0.0105 -0.104 -0.229
0.00744 -0.0525  0.484
-0.259  0.101  0.302
-0.456 -0.0667 0.0670
-0.201 -0.0780 -0.130
 0.361 -0.518 -0.463
 0.123  0.178  0.396
-0.429 0.0351 -0.218
 0.312  0.124 -0.619
-0.0469 0.0174 -0.377
 0.109 -0.222  0.255
 0.280 0.0658 -0.445
-0.0767 -0.146  0.112
0.0346 -0.178 -0.0132
 0.465  0.145 -0.584
0.0155  0.620  0.574
0.0772 0.0663 -0.615
-0.205 -0.000638 -0.268
-0.0832 0.0333 -0.516
-0.310  0.565  0.496
 0.296 -0.252 -0.337
 0.320 -0.181 -0.481
 0.155  0.432  0.461
0.0132  0.370  0.456
 0.104  0.561  0.528
0.0353  0.372  0.541
-0.377  0.473  0.395
 0.304 -0.354  0.311
0.0427 -0.291  0.366
-0.254 -0.129 -0.296
-0.0167  0.154  0.428
 0.154 -0.260  0.321
-0.246 0.0530 -0.524
 0.237  0.480  0.453
 0.112 -0.0914 -0.0336
 0.146 0.0401 -0.523
-0.121 -0.118 -0.324
-0.121  0.250  0.391
0.0650 -0.120 0.0299
-0.0675 -0.221  0.359
-0.240  0.605  0.508
 0.323  0.184  0.323
-0.0439 -0.125  0.461
-0.351 -0.443 -0.454
 0.433 -0.0737 0.0625
 0.212 -0.0185 -0.315
 0.237  0.574  0.494
-0.404 -0.0729  0.142
-0.0678 -0.0857 -0.0722
 0.390  0.430  0.343
-0.297 0.00358 -0.226
-0.308  0.487  0.423
0.00805 -0.0263 -0.455
-0.0612 0.0213  0.438
-0.436 -0.0233 -0.00118
-0.500 0.0446 -0.289
 0.354  0.111 -0.686
-0.194 -0.162  0.129
-0.338 -0.223 -0.497
-0.166  0.486  0.483
 0.241  0.102  0.291
-0.435 -0.638 -0.564
-0.0807 -0.114 0.0188
-0.312 0.0480 -0.471
-0.352  0.612  0.452
0.0353 -0.153 -0.0855
-0.208 -0.266  0.314
-0.0428  0.149  0.359
 0.489  0.118 -0.454
-0.123  0.123  0.373
0.0113 -0.0609 -0.158
-0.190 -0.157  0.214
-0.0614  0.284  0.415
 0.370  0.540  0.447
-0.0392  0.568  0.539
-0.281  0.238  0.371
-0.129  0.598  0.540
 0.212 -0.182  0.204
 0.355 -0.110  0.209
-0.0315  0.108 -0.644
-0.349 -0.627  0.412
 0.188 -0.0671 -0.379
 0.133 -0.0531 -0.238
-0.315 -0.362  0.314
-0.320 -0.154  0.211
-0.0768  0.126  0.455
 0.204  0.351  0.410
-0.340 -0.359 -0.519
-0.0769 0.000167 -0.442
0.0685 -0.118 -0.175
-0.172 -0.0341 -0.183
-0.0752 -0.238  0.125
-0.165  0.371  0.433
-0.286 -0.311  0.393
0.0686 -0.0387 -0.384
-0.0397 -0.00594 -0.311
-0.228 -0.0679 -0.408
 0.339 -0.384 -0.383
 0.189  0.587  0.556
-0.141 -0.212  0.249
-0.459 0.0555 -0.374
 0.343 -0.299 -0.451
 0.359 -0.105 0.0821
 0.323 -0.417  0.336
-0.00183 -0.246  0.426
 0.318 -0.0535 -0.0219
 0.104 -0.296  0.220
 0.265 -0.171  0.281
 0.184 -0.114 -0.0266
-0.0789 -0.260  0.235
-0.198 0.0958 -0.573
-0.255  0.405  0.416
-0.453 -0.101  0.189
-0.173 -0.0737 -0.0591
-0.372 -0.122  0.277
 0.267  0.397  0.404
-0.138 -0.0684 -0.366
 0.108  0.112  0.371
-0.0834  0.376  0.453
 0.328  0.638  0.503
 0.303 0.0468 -0.370
 0.260  0.166  0.308
-0.121 -0.289  0.388
 0.299 -0.159 -0.369
 0.227  0.102 -0.589
 0.331 0.0547 -0.486
 0.169 0.0481 -0.436
-0.387 -0.0350 -0.131
 0.141 -0.0835 -0.142
-0.191 0.0351 -0.491
-0.229 -0.112  0.101
-0.00920 0.0716  0.364
 0.132 -0.123 -0.295
 0.385 -0.0165 -0.194
-0.322 0.0221 -0.377
0.0353 0.0323 -0.422
-0.320 -0.320 -0.414
0.0414  0.473  0.534
 0.123  0.110 -0.644
 0.425 -0.633 -0.532
-0.0771  0.288  0.508
 0.327 0.0182 -0.252
-0.175 -0.0963 -0.286
 0.102 -0.287  0.392
-0.293 -0.171 -0.486
 0.369  0.448  0.409
-0.127 -0.101 -0.100
0.00558  0.235  0.491
-0.320 -0.181 -0.384
 0.260 -0.118 -0.335
 0.187 -0.299  0.282
 0.258 0.0253 -0.325
 0.212 -0.0985 0.0416
-0.408  0.121 -0.671
0.0575 0.0579  0.434
-0.484 0.00334 -0.0344
 0.374 -0.425 -0.473
-0.256 -0.149  0.244
-0.334  0.349  0.350
 0.322 -0.325 -0.513
-0.373 -0.691  0.339
-0.187 -0.265  0.247
-0.205 -0.0761 -0.467
-0.00926 -0.250  0.116
 0.182  0.467  0.507
 0.482 0.0340 -0.147
-0.0979 -0.0349 -0.308
0.0721  0.594  0.584
0.0581 -0.169  0.171
-0.106  0.112 -0.659
-0.0750 -0.125 -0.142
 0.362 -0.392 -0.525
0.00560 -0.0827 -0.313
 0.398 -0.518 -0.521
 0.193 0.0788 -0.712
 0.271 -0.154 -0.433
 0.258 -0.0201 -0.177
-0.0748 -0.235  0.420
-0.240  0.121 -0.637
 0.131  0.497  0.532
 0.439 0.0345 -0.204
 0.299 -0.268 -0.398
-0.172  0.270  0.426
 0.325 -0.0971 0.0219
 0.239 -0.280  0.393
0.0350  0.245  0.436
 0.230  0.279  0.369
 0.211  0.218  0.350
 0.153 -0.176  0.144
-0.303 -0.0678 0.0197
-0.380 -0.555 -0.495
 0.238  0.514  0.506
-0.326 0.0929 -0.611
-0.0167 0.0672 -0.527
 0.443 -0.0546  0.123
-0.373 0.0616 -0.362
-0.0191 -0.0488 -0.401
 0.392  0.135 -0.608
0.00523 -0.213  0.181
-0.108 -0.0819 -0.430
-0.398 -0.624 -0.517
0.0427  0.168  0.429
-0.304 -0.0850 0.0783
0.0683 -0.0750  0.457
 0.201 0.0565 -0.558
-0.00173 -0.212  0.275
 0.125 -0.0489 -0.460
-0.358 -0.527  0.351
-0.166  0.143  0.335
-0.395  0.114 -0.525
-0.471  0.148 -0.579
-0.365 -0.358 -0.443
-0.261 -0.0200 -0.279
-0.358 -0.0263 -0.0719
0.0351  0.426  0.478
0.0873 -0.0193 -0.259
0.0775 0.0208 -0.380
-0.0347 -0.195  0.140
-0.312 -0.267 -0.457
-0.0462  0.333  0.474
-0.00925 -0.00868  0.442
-0.386 -0.0712 -0.00415
 0.347 -0.532  0.291
-0.329 -0.411  0.258
 0.374 0.0273 -0.358
0.0954 0.0490 -0.561
-0.343 -0.467  0.284
-0.375  0.245  0.286
-0.339 -0.587  0.365
 0.229 -0.135  0.171
 0.376 -0.0114 -0.111
-0.146 -0.00182 -0.394
 0.325 -0.566  0.394
0.0204 -0.294  0.291
-0.362 0.0881 -0.462
0.0991  0.336  0.432
-0.332 -0.418  0.366
-0.194 0.0172 -0.434
-0.496 0.0974 -0.479
 0.146 -0.153 0.0704
0.0724 -0.111 -0.346
-0.449 0.00793 -0.0959
-0.516 0.0281 -0.154
 0.197 -0.298  0.341
0.0504  0.217  0.387
-0.299 0.0615 -0.415
 0.298 -0.0253 -0.130
 0.295 -0.234 -0.453
-0.264 -0.342  0.276
-0.327  0.289  0.328
-0.0167  0.292  0.515
 0.316  0.577  0.455
 0.506 0.00980 -0.0372
0.0257 -0.0300 -0.239
-0.431 0.0623 -0.427
 0.274 -0.0511 -0.0662
 0.452 0.0608 -0.288
-0.298 -0.235 -0.376
0.0730 -0.137 -0.0274
-0.00184 -0.199 0.0344
 0.417 -0.0841  0.190
0.0575 -0.217  0.281
-0.138 -0.141 0.0300
-0.277 -0.152 -0.432
0.0392  0.321  0.433
-0.0137 -0.0848 -0.0929
0.0130 -0.112  0.459
-0.0395 -0.0494 -0.184
 0.384 0.0431 -0.289
 0.334  0.262  0.351
-0.00934 0.0720 -0.724
-0.381 -0.450 -0.405
-0.138 0.0658 -0.601
0.0681 -0.0907 -0.228
-0.269 -0.0197 -0.170
 0.182  0.371  0.465
0.0859 -0.208  0.203
-0.120 0.0707  0.350
-0.292  0.353  0.415
0.0689 -0.00915 -0.443
0.0278 0.0750 -0.643
0.0727 -0.0394 -0.316
 0.341  0.100 -0.526
-0.316  0.102 -0.690
-0.349 -0.334 -0.366
-0.315 -0.491  0.336
 0.249 -0.330  0.353
 0.335  0.488  0.448
 0.249 -0.0784 -0.428
-0.0535  0.230  0.429
 0.424  0.124 -0.544
-0.0410 -0.104 -0.0232
-0.256  0.286  0.403
 0.148  0.291  0.402
-0.0954 -0.181  0.227
-0.134  0.393  0.487
-0.416 -0.691 -0.568
 0.212  0.104  0.339
-0.127 -0.145  0.136
-0.314 -0.0662 -0.0873
 0.290  0.353  0.373
-0.231 0.0182 -0.317
 0.393 0.0777 -0.407
-0.0241  0.187  0.472
 0.426 -0.0597 0.00285
 0.343 -0.500  0.358
 0.129  0.232  0.381
-0.201 -0.132 0.0402
0.0873 0.0786 -0.683
 0.194 -0.115 -0.351
 0.450 0.00455 -0.0846
 0.272 0.0824 -0.613
-0.270 -0.347  0.351
-0.0290 -0.296  0.220
-0.0241 -0.108 -0.353
 0.316 -0.340 -0.411
 0.154  0.172  0.349
 0.251 -0.108  0.105
0.0575 -0.187  0.448
0.0875 -0.0577 -0.140
-0.244 -0.137 -0.353
-0.389 -0.657  0.381
-0.215 -0.306  0.270
-0.206 0.0872 -0.690
-0.144 -0.00543 -0.281
-0.211  0.197  0.343
 0.300 -0.351  0.257
 0.229 0.0539 -0.430
-0.0544 -0.186 0.00907
-0.234 -0.0968 -0.0521
0.0872 -0.0877 -0.413
 0.467 0.0514 -0.354
-0.0678 0.0751  0.433
-0.255  0.633  0.552
 0.142 -0.0549 -0.405
 0.287 -0.0217 -0.257
 0.317 0.0758 -0.568
 0.438  0.108 -0.474
-0.106 -0.0658 -0.212
0.0201  0.114  0.381
 0.227 -0.0896 -0.0788
 0.350 -0.669  0.380
-0.352  0.119 -0.571
 0.499 -0.0176 0.0380
-0.0878 -0.165  0.175
 0.138 -0.105 -0.0791
-0.0167  0.379  0.521
-0.0964 -0.159 0.0641
-0.0972 -0.0190 -0.257
 0.227 -0.285  0.215
 0.278  0.446  0.460
0.0130 -0.0779 -0.441
 0.132 -0.296  0.269
 0.335 -0.609  0.336
-0.367 -0.506 -0.473
-0.374 0.0231 -0.229
-0.0315 -0.187  0.448
-0.218 -0.303  0.351
 0.327 -0.100  0.142
-0.252 -0.0634 -0.144
-0.215  0.483  0.502
-0.0663 -0.0931 -0.261
-0.00166  0.531  0.525
-0.292  0.516  0.485
-0.342 -0.394 -0.480
-0.268  0.153  0.301
-0.387 0.0407 -0.280
-0.0940 -0.00947 -0.387
 0.335 -0.416 -0.435
 0.234 -0.321  0.271
 0.229 -0.145 -0.301
 0.384 -0.606 -0.513
 0.221 -0.0527 -0.201
 0.405 -0.558 -0.488
0.0373 -0.218  0.128
-0.121  0.182  0.362
 0.465 -0.0806  0.219
 0.177 -0.0106 -0.353
-0.261  0.556  0.518
0.0285  0.342  0.499
-0.0609  0.401  0.502
 0.384  0.246  0.268
 0.192 -0.00363 -0.266
0.0378 0.0491 -0.472
 0.251 0.0762 -0.496
-0.345  0.508  0.453
0.0682 -0.260  0.202
-0.0404 -0.0665 -0.134
-0.0983 -0.262  0.291
 0.113 -0.0836 -0.323
-0.408 -0.0861 0.0774
 0.307 -0.359  0.366
-0.0315 -0.146 -0.108
-0.474 0.0424 -0.188
 0.358 -0.366 -0.429
 0.102 -0.188  0.152
-0.268 0.0178 -0.397
-0.159  0.323  0.414
-0.230  0.119  0.341
-0.274  0.204  0.320
-0.352 -0.501  0.396
0.0605 -0.0915 -0.0559
 0.192 -0.0754 -0.141
-0.434 -0.655 -0.477
-0.336 0.0395 -0.318
 0.123 -0.0710 -0.189
0.0504 0.0758 -0.549
-0.485 -0.0277 0.0831
-0.0538 -0.0741 -0.316
 0.169  0.114 -0.673
-0.180 0.0230 -0.356
 0.370 -0.0606 -0.0599
-0.345 -0.104  0.178
 0.387 -0.478 -0.481
-0.460 0.0254 -0.263
-0.175 -0.0225 -0.318
-0.298 -0.140  0.143
-0.281 -0.0920 -0.0324
-0.246 -0.279  0.392
 0.313 -0.203 -0.332
-0.411 -0.0417 0.0392
-0.363  0.385  0.390
-0.0173 -0.189 0.0927
-0.261 -0.189  0.275
0.0724  0.108 -0.644
-0.461 -0.0797  0.122
0.0716 -0.176 0.0999
0.0383 -0.136 0.0701
 0.388 -0.691  0.352
-0.322 -0.276 -0.507
 0.390 -0.138  0.233
 0.264 -0.167  0.197
0.0204 -0.220  0.381
 0.190 0.0723 -0.507
-0.00927  0.479  0.503
 0.103 -0.126 0.0669
0.0278  0.103  0.430
 0.379  0.578  0.416
-0.0165  0.581  0.583
0.0998 0.0661 -0.514
-0.339  0.178  0.315
-0.0939  0.487  0.536
 0.229 -0.0894 -0.472
 0.300 -0.461  0.351
-0.0614 0.0762 -0.548
 0.353 0.0800 -0.447
 0.387 -0.0617 0.0788
 0.229  0.119 -0.679
 0.111 0.0357 -0.418
 0.219  0.305  0.423
 0.166 -0.201  0.230
-0.0747  0.176  0.463
 0.364  0.220  0.315
-0.324 -0.0304 -0.201
 0.139  0.595  0.535
-0.0309 -0.224  0.325
-0.109  0.560  0.565
-0.0905 0.0478 -0.458
 0.348  0.154  0.282
-0.150 -0.295  0.276
-0.00918 0.0251 -0.501
-0.0538 -0.0855 -0.419
-0.116  0.617  0.584
0.00578 0.0182 -0.385
 0.377  0.340  0.357
-0.237 -0.0874 -0.363
 0.348 -0.00386 -0.162
-0.133 0.0341 -0.506
-0.250 0.0955 -0.551
-0.338  0.449  0.431
 0.310 -0.151  0.282
-0.00926 -0.135  0.497
 0.122  0.384  0.448
-0.200  0.409  0.438
 0.382 -0.500 -0.423
-0.370 -0.581  0.321
-0.0759 0.0766 -0.642
-0.260 -0.0741 -0.444
 0.200  0.635  0.550
 0.287  0.506  0.441
0.0799 -0.262  0.262
 0.324 -0.453  0.266
-0.450  0.118 -0.491
0.000672 -0.0170 -0.286
 0.140  0.481  0.486
 0.353  0.103 -0.636
-0.313  0.553  0.449
0.0500 0.0720 -0.723
-0.440  0.105 -0.570
 0.101  0.218  0.418
-0.356  0.431  0.370
0.0278 -0.00912  0.476
0.0652  0.508  0.511
 0.266 0.0130 -0.387
-0.200  0.460  0.460
-0.136  0.449  0.474
-0.292 0.0846 -0.496
-0.177  0.602  0.530
 0.112  0.429  0.506
-0.229 -0.166  0.168
 0.146 -0.201  0.280
0.0445 -0.0689 -0.342
-0.344 -0.272 -0.421
-0.0756  0.332  0.435
0.0127  0.435  0.520
 0.271  0.600  0.530
 0.487 0.0318 -0.257
-0.272 -0.135  0.103
0.000637 -0.167 -0.0465
 0.303 -0.0876 0.0823
-0.379 -0.531 -0.548
 0.190 -0.139 0.0551
-0.385 -0.0311 -0.0323
 0.503 0.0879 -0.326
 0.221 -0.161  0.246
 0.371  0.309  0.304
0.0354 -0.0717 -0.118
 0.338 -0.138  0.174
-0.248 -0.0809 0.0153
-0.113 -0.0435 -0.458
 0.288 -0.412  0.289
-0.377 -0.388 -0.518
-0.0381 -0.228  0.214
-0.0780 0.00739 -0.342
-0.134 -0.100 0.00298
0.00559 -0.283  0.395
-0.418 0.0693 -0.348
-0.419 0.00881 -0.133
-0.137 -0.0741 -0.177
 0.312  0.391  0.418
-0.0612 -0.0909  0.490
0.0676  0.251  0.496
-0.506 0.0730 -0.386
-0.182 -0.0891 -0.412
-0.0976  0.267  0.441
-0.419 -0.126  0.230
-0.322 -0.169 -0.436
-0.177 -0.0175 -0.233
 0.309 0.0323 -0.427
 0.422 -0.699 -0.522
0.0427 -0.138 -0.130
-0.294 0.0730 -0.564
-0.0747 -0.138  0.495
-0.00917 0.0780 -0.673
0.0127 0.0464 -0.561
 0.312  0.242  0.313
-0.339 -0.448  0.329
0.0945 0.0772  0.331
-0.0909 -0.291  0.351
 0.281 -0.320  0.289
-0.299 -0.156 -0.333
-0.0383  0.258  0.464
 0.157 -0.0758 -0.345
 0.360 -0.0762 -0.0163
-0.193  0.233  0.403
0.0204 0.0504  0.469
 0.285 -0.215 -0.376
-0.355 -0.151  0.242
-0.417  0.144 -0.607
 0.472  0.102 -0.411
-0.279  0.286  0.352
 0.444  0.117 -0.616
 0.404 -0.0968  0.107
-0.365  0.560  0.464
-0.187 -0.0712 -0.362
-0.340  0.602  0.496
 0.166 0.0287 -0.482
-0.373  0.323  0.356
 0.345  0.493  0.402
0.0207 0.0959  0.337
 0.216 -0.0838 -0.00298
 0.363  0.580  0.470
-0.371  0.259  0.330
-0.0241 0.0335  0.471
-0.355 -0.0753 0.0939
 0.275  0.125 -0.647
-0.276 0.0972 -0.658
-0.165 -0.182  0.277
-0.359 0.0669 -0.503
 0.282 -0.00304 -0.214
 0.274  0.184  0.349
 0.337  0.429  0.380
 0.278  0.303  0.358
 0.125 -0.292  0.340
-0.266 0.0419 -0.477
 0.257 -0.111 0.0101
-0.155 -0.0841 -0.135
 0.271 -0.0123 -0.301
-0.243 -0.119 -0.405
 0.154 0.0752 -0.628
 0.397 -0.556 -0.442
-0.150 -0.257  0.373
 0.348 0.00912 -0.207
-0.459 -0.0338 -0.0477
0.0676  0.340  0.534
 0.420 -0.624 -0.487
 0.206 -0.0955 -0.421
 0.170 0.0342 -0.392
 0.177 -0.150  0.178
 0.349 0.0426 -0.322
 0.133  0.123  0.333
-0.392 0.0784 -0.404
-0.335 -0.0186 -0.123
-0.252 -0.00321 -0.233
-0.0757 -0.250  0.169
 0.284 -0.394  0.336
-0.0737 -0.0440 -0.426
 0.200  0.548  0.535
-0.113 0.0762 -0.704
-0.286  0.605  0.486
-0.0763  0.472  0.495
0.0799 -0.257  0.366
 0.282  0.128  0.321
-0.0884 -0.0989 -0.380
-0.468 -0.0735  0.230
-0.00183  0.334  0.533
-0.00939  0.333  0.440
 0.390 -0.614 -0.558
 0.104 -0.107 0.00917
-0.106 -0.296  0.262
0.0771 -0.160 0.0499
 0.288 -0.143 -0.485
0.0578  0.363  0.449
 0.300 0.0583 -0.519
-0.132  0.112  0.329
-0.0389 -0.233  0.449
0.0651  0.124  0.345
0.0353 -0.233  0.449
-0.0915 0.0309 -0.408
 0.334  0.360  0.352
-0.290 -0.391  0.269
-0.339 -0.0990 0.0436
-0.400 -0.0184 -0.174
0.00585  0.271  0.414
 0.346 -0.151  0.226
 0.472 -0.0553 0.0472
-0.188 -0.111 -0.0354
 0.482 -0.0230 -0.0569
-0.314 0.0244 -0.281
 0.428 0.0276 -0.308
-0.365  0.117 -0.684
0.0427 -0.164  0.495
-0.373  0.137 -0.614
-0.405 -0.530 -0.466
-0.151  0.531  0.506
 0.319 -0.335 -0.465
 0.390 -0.119  0.279
 0.487 0.0162 -0.198
0.0354  0.584  0.546
-0.260  0.490  0.450
-0.0832 -0.132 -0.0267
 0.331 -0.447  0.380
 0.233 -0.150  0.118
-0.393 -0.462 -0.536
-0.0977  0.222  0.422
 0.119 -0.0685 -0.0994
-0.340 -0.401 -0.435
 0.215  0.153  0.320
-0.300 -0.0502 -0.0437
-0.289 -0.109 -0.429
-0.0535  0.442  0.521
-0.408 -0.668 -0.524
-0.421 -0.589 -0.503
 0.172  0.113  0.357
-0.213 0.0430 -0.403
-0.275  0.334  0.375
-0.0760 -0.116 -0.330
-0.0613 -0.131 0.0603
-0.497 -0.0123 -0.0786
-0.264 -0.297  0.254
 0.420 0.0845 -0.523
 0.391 0.0569 -0.449
0.0136  0.158  0.462
 0.193  0.422  0.483
 0.116  0.578  0.570
 0.311 -0.0763 -0.0610
 0.341 -0.578  0.305
-0.0516 0.0187 -0.477
-0.483 0.0264 -0.122
-0.300  0.442  0.408
 0.198 0.0152 -0.428
-0.479 0.0507 -0.335
0.0634 0.0335  0.471
 0.256  0.245  0.383
-0.460 0.0645 -0.285
-0.230 -0.0993 -0.318
-0.0131  0.179  0.374
-0.0536  0.111  0.378
 0.192  0.406  0.438
-0.300  0.116  0.303
-0.0684  0.542  0.562
 0.439 -0.0168 -0.0176
-0.0956  0.416  0.468
-0.122  0.494  0.496
-0.306 -0.129 -0.483
-0.178 -0.145  0.167
 0.275  0.597  0.486
 0.331 -0.275 -0.353
0.0944 -0.0202 -0.353
-0.208  0.366  0.455
-0.165 -0.259  0.321
0.0204 -0.119 -0.292
 0.368 -0.00430 -0.256
-0.196  0.308  0.396
0.0726  0.521  0.553
0.0720  0.282  0.450
 0.234  0.117 -0.633
 0.362  0.299  0.350
 0.375 -0.557 -0.532
 0.223 -0.0342 -0.155
-0.388 -0.103  0.112
-0.0612 -0.00187  0.476
 0.420 -0.0354 -0.0935
-0.353 -0.647  0.358
 0.182 -0.0168 -0.225
 0.348 -0.0684 0.0598
 0.124 -0.181  0.241
 0.297 0.0203 -0.285
 0.456 -0.0153 -0.123
-0.384 -0.425 -0.495
-0.146  0.204  0.404
 0.152 0.0798 -0.544
-0.360 -0.111  0.223
 0.386 -0.0332 -0.0213
 0.139 0.0159 -0.450
-0.162 0.0565 -0.566
 0.314 -0.173 -0.429
 0.168  0.185  0.389
-0.430  0.100 -0.448
-0.387 -0.566 -0.445
0.0916  0.177  0.365
-0.207  0.638  0.534
 0.308  0.572  0.498
-0.219 -0.0527 -0.0974
0.00740 -0.0613 -0.365
-0.0247 -0.0890 -0.273
-0.242  0.397  0.456
-0.278 -0.172 -0.376
-0.391 0.0274 -0.343
 0.405 -0.0277 -0.138
0.0878 -0.126 -0.298
-0.279 0.00672 -0.356
0.0923 -0.000922 -0.313
-0.00689 0.00345 -0.346
 0.216  0.254  0.402
-0.285  0.612  0.530
-0.0346  0.120  0.463
 0.162  0.360  0.429
-0.232 -0.178  0.209
-0.214 -0.0390 -0.143
 0.235 -0.0250 -0.279
 0.345 -0.453 -0.458
-0.209 0.0550 -0.545
-0.217 0.0751 -0.606
 0.439 -0.0313 0.0344
-0.417 0.00889 -0.250
-0.206 0.0942  0.305
 0.245  0.348  0.431
 0.316  0.100 -0.658
 0.117 -0.261  0.290
 0.339 -0.290 -0.404
-0.277  0.120 -0.615
 0.382  0.467  0.364
-0.199 0.0581 -0.455
-0.0793 -0.251  0.328
-0.116 0.0802 -0.551
 0.120  0.347  0.469
-0.480 -0.0683  0.187
-0.497 0.0637 -0.240
-0.282 -0.130  0.204
-0.300  0.167  0.330
-0.00122 -0.160  0.460
0.0696 0.0217 -0.482
 0.274 -0.366  0.392
 0.190 -0.267  0.247
 0.354 -0.0422 -0.138
-0.433 0.0244 -0.177
-0.465  0.125 -0.616
-0.0142 -0.0912 -0.402
-0.396 0.0598 -0.451
 0.485 -0.0681  0.103
-0.182 -0.299  0.222
0.0501 0.0908 -0.593
 0.235 -0.136 0.0772
 0.132 -0.0401 -0.279
 0.434 -0.0942  0.137
-0.240  0.249  0.354
-0.00925 0.0505  0.435
-0.0241 -0.118 -0.190
-0.187 -0.147 0.0771
-0.383 0.0879 -0.557
 0.319 -0.543  0.321
-0.0609  0.297  0.457
-0.0279  0.112  0.344
0.0353 -0.268  0.173
-0.157  0.568  0.557
-0.327 -0.319 -0.502
-0.219 -0.127  0.140
-0.292 -0.102  0.120
 0.123  0.253  0.428
-0.281  0.416  0.448
-0.0442 0.0571 -0.494
 0.177 0.00940 -0.311
 0.250 0.0610 -0.553
-0.162 -0.0622 -0.0997
 0.403 -0.676 -0.554
 0.272 -0.368  0.286
-0.0457  0.184  0.434
 0.346 -0.443 -0.499
 0.373 -0.626  0.380
 0.510 0.0349 -0.115
-0.178 -0.292  0.354
-0.369  0.208  0.305
 0.207 -0.269  0.305
0.0726  0.410  0.468
0.0353  0.274  0.471
 0.199  0.590  0.515
-0.0909 -0.0924 -0.295
-0.156  0.491  0.524
 0.207 -0.165  0.148
0.0792  0.324  0.467
 0.131 -0.0230 -0.331
-0.328 -0.401  0.321
 0.406 -0.0993  0.234
-0.0409 -0.200  0.259
 0.392  0.398  0.370
-0.0815 -0.204  0.190
-0.312 -0.350  0.381
 0.375 -0.655  0.414
 0.397 -0.116  0.166
-0.156 0.0630 -0.487
0.00904  0.195  0.417
 0.297 -0.225 -0.494
-0.205 -0.0595 -0.186
-0.246 0.0331 -0.354
-0.184 -0.196  0.229
-0.233  0.434  0.437
-0.0316  0.101 -0.704
-0.275  0.565  0.475
0.0678 -0.189 0.0214
0.0204 0.0213  0.438
-0.264 -0.171 -0.316
-0.0467  0.531  0.523
0.0326 -0.181 0.0858
0.0573  0.427  0.514
 0.291 -0.0767 0.0341
-0.151 -0.168  0.224
-0.0843  0.153  0.357
-0.00925 -0.0749  0.453
 0.287 0.0448 -0.480
-0.333 -0.0172 -0.239
 0.178  0.234  0.370
 0.360 -0.116  0.122
-0.458 -0.0547 0.0273
-0.335 -0.222 -0.451
 0.474  0.134 -0.533
 0.130 -0.126 -0.0191
0.00842 -0.0471 -0.197
0.0353 -0.252  0.402
 0.286 -0.0490 -0.167
-0.0688  0.596  0.549
-0.0389 -0.214  0.412
 0.170 -0.0791 -0.0435
-0.377 -0.410 -0.451
 0.183 -0.260  0.351
 0.198 0.0687 -0.598
-0.213 -0.135 -0.304
 0.102 0.0983 -0.608
 0.162 -0.0934 -0.397
 0.120  0.295  0.447
0.0352 -0.232  0.202
-0.469 0.0163 -0.220
-0.0315 -0.0392  0.482
-0.121 -0.197  0.282
-0.0831 -0.0878 -0.160
-0.0247 0.0520 -0.577
-0.312 -0.304 -0.358
 0.250 0.0315 -0.457
-0.231  0.526  0.515
-0.405 -0.0887  0.200
-0.334  0.244  0.345
-0.352  0.181  0.273
 0.189  0.495  0.478
 0.387  0.109 -0.522
-0.0616  0.152  0.395
 0.170 -0.122 0.0898
-0.325  0.342  0.392
-0.342 -0.0560 0.0113
0.0689 -0.239  0.314
 0.249  0.142  0.342
-0.0401 0.0301 -0.416
-0.135  0.534  0.548
 0.328 -0.0389 -0.0621
 0.302 -0.465  0.403
 0.248 -0.116 -0.448
 0.386 0.0224 -0.215
-0.321 -0.257 -0.339
-0.367 -0.0147 -0.215
 0.298 0.0343 -0.330
0.0867  0.475  0.532
-0.445  0.130 -0.538
 0.146 0.0135 -0.341
-0.269 -0.327  0.228
-0.164  0.445  0.503
-0.0398 0.0894 -0.587
-0.321 -0.432  0.403
-0.305 -0.169  0.248
-0.0334 -0.119 0.0141
 0.362 -0.578  0.406
-0.344 -0.612  0.328
-0.129  0.353  0.434
0.0227 0.0128 -0.462
-0.388 -0.458 -0.447
-0.0244  0.298  0.424
-0.0587 -0.171 0.0730
0.0303 -0.0441 -0.426
-0.0770 -0.128 -0.0666
-0.00920  0.243  0.438
-0.408 -0.106  0.264
-0.172 0.0857 -0.665
 0.358 -0.344 -0.510
 0.177  0.106 -0.615
 0.467 0.0813 -0.464
-0.326 -0.530  0.406
 0.272 -0.114 -0.382
-0.200 -0.167  0.256
 0.332 -0.250 -0.446
 0.196  0.292  0.388
-0.209 -0.105 -0.386
 0.153  0.564  0.555
 0.229 -0.0463 -0.111
 0.393  0.115 -0.677
-0.0903 0.0965  0.369
 0.449 0.0200 -0.261
 0.338  0.277  0.314
 0.307  0.223  0.348
 0.169 -0.262  0.284
-0.368 -0.0616 -0.0528
 0.424 0.0797 -0.381
0.0254 -0.261  0.134
 0.304 -0.0908 -0.0164
-0.118  0.312  0.419
-0.360 -0.461 -0.502
 0.278 -0.314  0.331
0.0278 -0.0532  0.449
 0.209 -0.0526 -0.440
-0.334 0.0786 -0.559
-0.0954  0.216  0.382
 0.360  0.139 -0.659
-0.218 -0.0951 0.0377
-0.113 -0.0186 -0.352
 0.155  0.631  0.548
-0.207 -0.0397 -0.247
 0.476 -0.0479  0.145
0.0504  0.543  0.527
-0.00187 -0.0910  0.490
-0.488 -0.0327 -0.0173
 0.344 -0.292 -0.507
-0.113 -0.257  0.358
 0.330  0.522  0.424
 0.244 -0.283  0.353
-0.0760 -0.294  0.306
 0.293  0.355  0.412
0.0642 -0.190  0.137
0.0943 -8.84e-05 -0.413
-0.329 0.0738 -0.438
 0.118 -0.0328 -0.207
 0.278  0.409  0.444
 0.126 -0.202  0.206
-0.395 -0.0118 -0.0869
-0.378  0.349  0.320
-0.0824 -0.0571 -0.255
-0.188 -0.296  0.299
0.0653 -0.247  0.111
 0.193 0.0952  0.304
-0.222 -0.0774 -0.0182
 0.161 -0.0441 -0.438
-0.145 -0.0743 -0.452
 0.175 -0.162  0.114
-0.179 -0.182  0.182
-0.0535 -0.160  0.143
-0.126 -0.0558 -0.405
 0.420 0.0724 -0.479
-0.219 0.0883 -0.645
-0.201  0.155  0.367
0.0353 0.0870  0.466
 0.230  0.390  0.417
-0.111 -0.0774 -0.339
-0.293  0.478  0.468
 0.234 -0.282  0.268
-0.303  0.132 -0.667
-0.309 0.0645 -0.528
-0.203  0.361  0.416
-0.158  0.212  0.367
0.0526 -0.167 -0.0465
-0.106 0.0616 -0.496
-0.308 -0.269 -0.406
 0.102 -0.0705 -0.362
 0.286  0.644  0.500
-0.0746  0.343  0.503
-0.0991 -0.185  0.143
 0.319  0.142  0.307
-0.0414 -0.0336 -0.446
-0.134 -0.0779 -0.0642
 0.301  0.110 -0.581
-0.241  0.360  0.402
 0.175  0.292  0.433
 0.323  0.188  0.284
 0.323 0.0141 -0.353
-0.330 -0.219 -0.392
-0.329 -0.345 -0.451
0.00594  0.142  0.358
-0.328 -0.546  0.329
 0.265 -0.159 -0.387
-0.0410 0.0371 -0.533
 0.139 -0.0801 -0.435
-0.357 -0.481 -0.428
-0.316 0.00606 -0.327
-0.474 0.0950 -0.381
-0.189  0.538  0.498
-0.0810 -0.296  0.220
 0.201  0.209  0.389
 0.395 -0.654 -0.517
 0.341  0.325  0.372
-0.206 -0.00967 -0.343
-0.319 -0.130  0.242
 0.244  0.516  0.466
-0.165 0.0239 -0.464
 0.362 -0.501 -0.535
 0.268 -0.139 -0.301
-0.147  0.408  0.454
-0.00190 -0.199  0.238
 0.323  0.618  0.469
 0.135 0.0722  0.347
0.00805 -0.144 -0.113
0.0504  0.471  0.496
 0.207 -0.308  0.240
-0.121 -0.170  0.106
-0.288  0.516  0.446
-0.349 -0.492  0.314
 0.163 -0.0693 -0.180
-0.199 -0.261  0.366
 0.279 -0.135  0.108
 0.147 -0.265  0.219
-0.165 -0.103 -0.368
-0.266  0.642  0.513
-0.320  0.401  0.380
 0.235 -0.196  0.276
-0.364  0.513  0.400
-0.00452 -0.150 0.0945
0.0877 -0.115 -0.0711
-0.0105 -0.178  0.178
-0.0910  0.107 -0.694
-0.121 0.0231 -0.378
-0.264  0.204  0.364
-0.153  0.359  0.469
 0.124 -0.256  0.387
 0.257 0.0923 -0.658
0.0730 -0.292  0.334
-0.124 0.0801 -0.646
-0.359  0.420  0.407
-0.131  0.102 -0.611
-0.393 0.0411 -0.389
-0.284 0.0467 -0.377
-0.344 -0.467  0.370
 0.308 -0.167  0.241
-0.228  0.117 -0.699
0.0160 -0.122 0.0180
-0.0779 -0.0315 -0.342
-0.180 0.0687 -0.598
-0.0392  0.402  0.468
-0.427 -0.601 -0.558
-0.223 -0.0183 -0.307
 0.101 -0.173  0.205
 0.312  0.398  0.380
-0.0778 -0.112 -0.106
-0.172  0.327  0.450
-0.515 0.00525 -0.120
-0.125 -0.0395 -0.189
-0.164  0.144  0.373
 0.223 -0.309  0.373
 0.211  0.532  0.485
 0.162 -0.116 -0.330
 0.242 0.0421 -0.389
 0.339 -0.482  0.324
-0.330 -0.00787 -0.164
-0.322 -0.504  0.282
-0.487  0.133 -0.506
0.0883  0.214  0.382
-0.273 -0.0690 -0.113
0.0322 -0.224 0.0749
-0.289 -0.385  0.328
 0.267 -0.130  0.186
-0.0770 -0.158 0.0224
0.0640  0.154  0.462
 0.391 -0.0840 0.0479
 0.374  0.496  0.426
 0.102 0.0694 -0.718
 0.257 -0.0357 -0.234
0.0790 -0.0814 -0.175
-0.0165  0.529  0.561
-0.0742 -0.169 -0.0287
 0.370 0.0659 -0.498
0.0577  0.624  0.565
 0.305  0.606  0.514
 0.425 -0.00906 -0.179
-0.338  0.457  0.394
-0.158 0.0377 -0.408
-0.445 -0.0191 -0.122
-0.210 -0.0212 -0.200
0.0633 -0.0472  0.482
 0.131 -0.168  0.107
 0.315 0.0874 -0.609
 0.269 -0.0699 -0.0106
-0.297 -0.0114 -0.286
 0.340 0.0549 -0.370
0.0863 -0.189  0.241
-0.241  0.249  0.392
 0.369 -0.0770  0.108
-0.105  0.356  0.478
 0.170 -0.0463 -0.246
 0.149  0.447  0.506
-0.242 -0.141  0.207
-0.358 -0.340 -0.410
-0.374 -0.410 -0.406
 0.380 -0.0469 -0.0937
-0.237  0.312  0.383
-0.371 -0.596  0.411
0.0651  0.102 -0.704
-0.0488 -0.239 0.0977
-0.114 -0.132 0.0895
-0.268 -0.160  0.182
 0.329 -0.440  0.306
-0.421 -0.0619 0.00555
-0.149  0.240  0.418
 0.318  0.429  0.431
-0.420 -0.105  0.155
-0.0679 -0.155  0.462
0.0427 -0.0855 -0.419
-0.247 0.0230 -0.428
-0.430 -0.0104 -0.0550
 0.249  0.205  0.331
 0.231 -0.0161 -0.203
 0.471 0.000537 -0.160
 0.131  0.142  0.378
 0.345  0.563  0.432
 0.201  0.499  0.514
-0.222  0.497  0.468
 0.183 -0.174  0.256
0.0667 -0.191  0.485
-0.468 -0.0181 0.0265
-0.149 -0.0484 -0.146
-0.143  0.630  0.552
-0.201  0.311  0.434
-0.188 0.0767 -0.518
-0.00925 -0.267  0.203
-0.0467  0.222  0.389
-0.0334 -0.208  0.179
-0.203  0.230  0.360
0.0359 -0.212  0.418
0.0573  0.370  0.489
 0.472 0.0497 -0.218
-0.0167 -0.184 0.00320
 0.291 -0.106  0.130
-0.287 0.0355 -0.446
-0.332 0.0882 -0.484
 0.258 -0.343  0.311
-0.380  0.145 -0.650
0.0678 0.0412 -0.442
 0.407 0.0948 -0.572
-0.121 -0.0654 -0.111
-0.169  0.268  0.388
-0.375 0.0148 -0.311
-0.151 -0.177  0.150
 0.365 -0.388 -0.466
 0.149 0.0633 -0.494
 0.137 0.0576 -0.579
0.00580  0.404  0.471
 0.427 -0.0469 -0.0412
 0.256  0.482  0.485
 0.239 -0.0956 -0.356
 0.296  0.278  0.337
-0.339 0.0655 -0.402
 0.252  0.345  0.389
 0.405  0.113 -0.635
 0.286 0.00697 -0.353
 0.445 -0.0405 0.0752
-0.135 -0.262  0.296
0.0204  0.266  0.504
0.0276  0.586  0.584
-0.0160  0.342  0.499
 0.304 -0.268 -0.465
 0.184 0.0897 -0.564
-0.268 -0.345  0.313
-0.0887 -0.0332 -0.219
 0.223  0.603  0.550
0.0945 -0.0667 -0.213
-0.00925  0.117  0.429
-0.219 -0.119 0.00867
 0.400 -0.0478 0.0456
-0.335 -0.576  0.308
 0.250 -0.0572 -0.167
-0.393 0.0184 -0.196
-0.353 -0.0533 -0.0970
0.0205 0.0684 -0.526
-0.346 -0.165  0.275
0.00910  0.146  0.396
-0.348 -0.0911  0.138
-0.238 -0.147  0.114
-0.234 0.0662 -0.571
 0.240 -0.138 -0.359
-0.310 -0.151 -0.406
-0.00926 -0.293  0.313
-0.204  0.130  0.316
0.0600 -0.0989 -0.380
 0.353 -0.542  0.398
-0.156 -0.122 -0.0176
 0.447  0.152 -0.634
-0.0499 -0.0167 -0.277
-0.122 0.0447 -0.540
0.0872  0.180  0.405
-0.0462 0.0786 -0.673
-0.0167 -0.296  0.262
0.0649 -0.296  0.269
0.0593 0.0647 -0.514
-0.267  0.445  0.427
 0.338 -0.477  0.401
 0.298  0.305  0.389
-0.0241  0.255  0.500
 0.325 -0.213 -0.461
 0.318 0.0771 -0.459
-0.357 -0.0355 -0.153
-0.225  0.168  0.325
-0.317 -0.367  0.277
 0.181 -0.0304 -0.289
-0.403 -0.0635  0.106
-0.187  0.117 -0.679
-0.231 0.0412 -0.493
-0.352 -0.307 -0.429
 0.117 0.0823 -0.556
-0.0244  0.605  0.556
0.0958 -0.142 0.0144
-0.110 -0.0910 -0.135
-0.308  0.323  0.352
-0.212 -0.0676 -0.0529
-0.336 -0.0422 -0.0426
0.0634  0.247  0.460
0.0996 -0.0531 -0.410
-0.211  0.568  0.540
-0.429 0.0497 -0.270
-0.292 -0.201 -0.399
 0.253  0.427  0.424
0.0209 -0.0866 -0.0807
-0.269 -0.170  0.217
 0.390 -0.638 -0.470
 0.311 -0.0133 -0.162
-0.129  0.560  0.523
-0.135 -0.0871 -0.311
 0.142  0.376  0.477
-0.166  0.101  0.317
 0.325 -0.504  0.282
0.0573 0.0525 -0.576
-0.475 0.0705 -0.412
0.0204  0.193  0.474
 0.384 0.0198 -0.323
-0.366  0.580  0.430
-0.0315 -0.222  0.366
 0.448 -0.103  0.189
-0.0767  0.214  0.453
 0.437 -0.0685  0.164
 0.222  0.323  0.391
 0.360  0.614  0.484
-0.503 0.0885 -0.428
 0.364  0.374  0.337
 0.104 -0.0760 -0.447
-0.172 -0.0717 -0.167
-0.435  0.124 -0.639
 0.317 -0.00994 -0.279
 0.200  0.340  0.445
-0.330  0.279  0.363
0.0731 -0.0617 -0.250
0.00508  0.468  0.535
 0.303 -0.150  0.178
-0.104 -0.0924 -0.0340
-0.324 -0.0309 -0.0908
 0.117 0.0755 -0.635
 0.430 -0.648 -0.565
-0.113 0.00363 -0.419
0.0275  0.311  0.466
 0.497 0.0642 -0.243
0.0205  0.511  0.552
-0.136  0.112 -0.680
 0.314 -0.520  0.365
-0.508 0.00317 -0.00644
-0.271 -0.00809 -0.312
0.0652  0.249  0.399
-0.0716 -0.0537 -0.165
 0.139 -0.142  0.134
 0.121  0.418  0.462
-0.0991 0.0956  0.330
-0.245 -0.107 -0.442
 0.145 -0.0911 -0.0170
-0.334 -0.138  0.174
 0.272 -0.0759 -0.0928
-0.0800 -0.227  0.251
 0.133 -0.156  0.171
 0.336 -0.0613 0.0227
-0.155 -0.122 -0.313
 0.271  0.470  0.433
 0.314 -0.383  0.399
 0.330 -0.118 0.0995
-0.133 -0.0912 -0.402
 0.499 0.0765 -0.413
-0.201 -0.0435 -0.451
-0.230  0.453  0.484
-0.151 0.0905 -0.571
 0.206 -0.0677 -0.0588
-0.260 -0.0626 -0.0338
 0.329 -0.247 -0.399
 0.184 0.0594 -0.467
-0.260  0.482  0.486
-0.184 0.00547 -0.402
-0.368 -0.567  0.373
-0.421 0.0866 -0.521
-0.278  0.249  0.337
 0.503 0.000357 -0.00250
-0.259 -0.0994 0.0858
 0.394 0.0120 -0.174
 0.296 -0.447  0.290
-0.330  0.205  0.290
-0.317  0.110 -0.566
 0.385 0.0618 -0.355
 0.492 -0.00104 -0.127
-0.326 -0.173 -0.473
-0.148 0.0114 -0.433
 0.323 0.0249 -0.390
-0.399  0.103 -0.484
-0.00394 -0.215  0.123
 0.144 -0.0893 -0.306
-0.304 -0.123 0.0930
-0.0729 0.0916  0.465
 0.513 0.0209 -0.161
 0.243 -0.181  0.226
 0.186 0.0791  0.338
0.0328 -0.270  0.209
 0.260  0.554  0.475
 0.286 -0.184 -0.471
-0.159 -0.104 -0.0729
-0.0488 -0.104 -0.229
 0.305 -0.299 -0.357
-0.417 -0.558 -0.532
-0.245 -0.282  0.307
-0.0142 -0.233  0.158
-0.229  0.109 -0.604
-0.194  0.511  0.523
 0.308 -0.312 -0.391
-0.259  0.125 -0.682
-0.337  0.212  0.330
 0.102 -0.0467 -0.174
 0.278 0.0728 -0.579
-0.259 -0.331  0.380
 0.188  0.181  0.343
 0.410 -0.00154 -0.110
0.0233 -0.181  0.189
-0.362  0.290  0.349
-0.165 -0.0340 -0.286
 0.275 -0.103 -0.424
-0.0538  0.125  0.428
 0.332  0.110 -0.564
-0.295 -0.231 -0.339
-0.186  0.571  0.514
0.00905  0.402  0.506
 0.377 0.0789 -0.539
0.0498  0.136  0.389
-0.0832  0.584  0.579
-0.0531 -0.170  0.493
 0.348 0.0892 -0.482
 0.288 -0.203 -0.438
-0.327 0.0479 -0.353
-0.242  0.597  0.542
 0.444 -0.00569 -0.0510
-0.0315 -0.0586 -0.361
-0.0679 -0.0888  0.456
-0.426 0.0834 -0.392
 0.115 -0.150 0.0433
 0.273 -0.189 -0.350
 0.407 0.0900 -0.437
-0.143  0.296  0.444
 0.144  0.514  0.499
0.0281  0.247  0.401
 0.430  0.138 -0.592
 0.346  0.221  0.284
 0.242 -0.0860 -0.391
-0.449 -0.693 -0.555
-0.240 -0.0874 -0.473
-0.128 -0.0279 -0.222
-0.131 -0.203  0.214
 0.370 -0.552 -0.489
 0.183 -0.159  0.212
 0.168 -0.0941 -0.101
-0.284 0.0100 -0.258
 0.220 0.0867 -0.691
 0.166 -0.00177 -0.386
 0.203 -0.195  0.237
 0.339 -0.350 -0.371
 0.251 -0.320  0.397
 0.237 -0.326  0.231
0.0996 -0.165 0.0816
 0.138  0.208  0.405
-0.0712  0.111 -0.664
0.0649 -0.105 -0.0145
 0.235 0.0773 -0.612
-0.0613  0.502  0.509
0.0687 -0.143  0.470
-0.0439 -0.0989 -0.380
-0.452 0.0779 -0.464
 0.312 -0.115  0.179
 0.465 0.0189 -0.118
 0.341 -0.128  0.252
-0.359  0.352  0.378
-0.299 -0.0216 -0.251
-0.197  0.116  0.351
-0.323  0.524  0.431
 0.175  0.621  0.575
0.0870 0.0335 -0.516
-0.396 -0.0814 0.0448
-0.487 0.0816 -0.319
-0.241 -0.276  0.358
-0.181 -0.103 0.0375
-0.139 -0.0246 -0.328
-0.398 -0.492 -0.481
 0.270 -0.361  0.338
 0.153  0.413  0.491
-0.0149 -0.00802  0.477
-0.110 0.0571 -0.580
 0.387  0.124 -0.575
 0.489 0.0168 -0.0732
 0.285 -0.398  0.251
0.0675 0.0913  0.432
-0.210 -0.102 -0.289
 0.355 -0.0390 -0.0368
 0.155  0.328  0.416
-0.389 0.0526 -0.319
 0.367 -0.624  0.319
 0.235 0.0657 -0.467
-0.0575 -0.209  0.115
 0.362 -0.408 -0.392
 0.286 0.0571 -0.411
0.0700 -0.105 -0.139
-0.0464  0.363  0.508
 0.118 0.0190 -0.363
 0.240  0.634  0.554
 0.227 -0.110 -0.295
-0.278  0.130  0.326
 0.472  0.106 -0.554
 0.329 -0.0160 -0.245
-0.143 -0.291  0.358
-0.108 0.0142 -0.452
 0.505 -0.0244 -0.0308
-0.122 -0.119 0.0516
 0.194 -0.130 -0.307
-0.164 -0.138  0.136
-0.293 -0.321  0.347
 0.236 0.0927 -0.555
 0.235 -0.00650 -0.339
-0.440 -0.659 -0.536
-0.372 -0.372 -0.487
-0.167 -0.0593 -0.207
-0.144  0.293  0.405
-0.168 -0.00847 -0.364
 0.169  0.105 -0.706
-0.0502  0.253  0.403
 0.139 -0.262  0.262
-0.513 0.0535 -0.177
-0.362 -0.544  0.321
 0.213 -0.0650 -0.168
 0.311 -0.154 -0.461
 0.355 0.0305 -0.274
-0.276 -0.360  0.247
 0.102 -0.0887 -0.146
-0.0364 -0.223  0.285
 0.346  0.395  0.359
-0.294 -0.00717 -0.193
-0.224  0.192  0.375
 0.154 -0.291  0.358
-0.238 0.0781 -0.502
-0.305 -0.451  0.336
 0.286 0.0789 -0.485
 0.170 -0.0957 0.00774
-0.423 -0.0479 0.0710
-0.0755 -0.00399 -0.310
-0.301 -0.111  0.163
 0.172  0.529  0.536
-0.182 -0.0595 -0.395
-0.435 -0.0668  0.155
-0.372 -0.536 -0.451
 0.308  0.459  0.449
-0.0538 -0.0231  0.444
-0.105 0.0700 -0.619
 0.189  0.440  0.454
-0.0389 0.000849 -0.451
-0.310 -0.468  0.273
 0.367  0.270  0.290
 0.125 -0.133 0.0967
 0.345 -0.421 -0.528
0.0724 -0.0491 -0.283
-0.365 -0.124  0.159
0.0130 0.0594 -0.599
-0.0566 0.0439 -0.454
 0.196 -0.0817 -0.342
 0.155  0.204  0.363
-0.323 -0.312 -0.458
-0.0383  0.219  0.485
-0.375 -0.598  0.351
 0.443 0.00919 -0.227
 0.262 -0.0454 -0.200
-0.233 -0.277  0.262
-0.265 0.0879 -0.521
0.00534  0.368  0.492
-0.358  0.271  0.300
 0.198 -0.121 0.00360
 0.105  0.544  0.558
0.0878 -0.0804 -0.0738
-0.261 -0.108 -0.348
0.0357 -0.203  0.166
 0.264 0.0517 -0.516
-0.239 -0.0802 -0.101
 0.318 -0.0530 -0.134
 0.319  0.101 -0.692
-0.279 -0.0526 -0.163
 0.289  0.545  0.456
-0.424 0.0461 -0.376
 0.174 -0.133 0.0254
 0.102  0.133  0.344
 0.185  0.138  0.325
-0.311 -0.0922 -0.00280
 0.170  0.264  0.385
0.0947  0.619  0.579
-0.390 0.00721 -0.274
 0.125  0.266  0.396
 0.345  0.549  0.468
-0.254 -0.0410 -0.109
-0.277 -0.159  0.283
 0.364 -0.589  0.358
-0.237 -0.136 0.0789
-0.105  0.408  0.500
0.0916  0.366  0.447
-0.121 -0.107 -0.288
 0.342 -0.639  0.366
 0.259 0.0909 -0.701
-0.429 -0.0924  0.123
 0.391 -0.0691 -0.00403
-0.0738  0.268  0.470
-0.249 0.0439 -0.387
-0.293 -0.325  0.269
-0.246 -0.321  0.343
-0.212  0.605  0.556
 0.280 -0.210 -0.325
-0.0688  0.113  0.341
-0.363 -0.335 -0.514
-0.276  0.368  0.389
0.00596  0.567  0.541
 0.230 0.0278 -0.344
-0.283 0.0543 -0.509
-0.0724  0.371  0.544
 0.333 -0.458  0.348
0.0714 -0.151  0.123
 0.314 -0.305 -0.487
 0.468 -0.0183 0.0233
-0.270  0.316  0.410
 0.271 0.0989  0.307
-0.464 0.0304 -0.155
 0.382 -0.662  0.373
0.0575 0.0213  0.438
-0.380 -0.492 -0.541
 0.244 -0.0657 -0.0366
 0.191 -0.0510 -0.220
 0.319 -0.0290 -0.103
-0.509 0.0210 -0.186
-0.0748 -0.222 0.0840
 0.386 0.000935 -0.140
 0.357  0.132 -0.619
-0.172 -0.0798 -0.333
-0.110 -0.113 -0.0682
-0.0123 0.0839  0.432
 0.296 0.00828 -0.244
0.0328  0.103 -0.625
 0.366 -0.543 -0.439
0.0575 -0.283  0.395
-0.341  0.319  0.374
 0.392 -0.510 -0.454
-0.0388  0.556  0.571
-0.315 -0.181 -0.347
-0.00927  0.321  0.472
0.0675 -0.144 -0.108
-0.296  0.446  0.453
-0.423 -0.0927  0.234
-0.348 -0.445 -0.407
-0.299 -0.0198 -0.146
 0.415 -0.0582 0.0972
-0.0903 -0.126 -0.297
-0.126 -0.182  0.248
 0.320 -0.218 -0.362
-0.105 -0.214  0.233
-0.490 -0.0662  0.113
0.0427 -0.115 -0.197
 0.256  0.207  0.366
 0.297 -0.430  0.259
-0.389 -0.658  0.343
-0.334  0.579  0.449
 0.375 -0.439 -0.443
 0.339 -0.414 -0.485
 0.215 -0.111 0.0819
 0.217 -0.308  0.316
 0.278 -0.0840 -0.0609
-0.211 -0.140  0.178
-0.291 0.0904 -0.620
 0.353 -0.681  0.411
-0.323  0.144  0.308
-0.237  0.141  0.309
 0.408 0.0419 -0.266
-0.293  0.175  0.297
 0.201  0.118 -0.662
 0.214  0.122  0.308
 0.406 -0.555 -0.521
-0.216 -0.304  0.313
-0.317  0.125 -0.611
-0.300 -0.333  0.306
 0.494 0.0514 -0.324
-0.332  0.633  0.483
-0.260 -0.0930 -0.393
0.0720  0.400  0.501
 0.258  0.102 -0.578
0.0982  0.102 -0.706
-0.193 -0.268  0.215
-0.394 -0.697  0.364
 0.444  0.121 -0.518
 0.114  0.310  0.418
-0.311  0.602  0.512
 0.244  0.138  0.303
-0.401 -0.139  0.255
 0.151  0.399  0.448
-0.226  0.389  0.420
 0.316  0.492  0.418
 0.167 0.0506 -0.550
-0.374 -0.520 -0.517
-0.199 -0.113 0.0861
-0.0241 -0.252  0.402
0.0648 -0.00815 -0.296
-0.214 -0.0104 -0.233
0.0328 -0.0854  0.455
-0.302  0.352  0.369
 0.383 0.0404 -0.397
0.0615  0.188  0.373
 0.151 -0.0305 -0.304
-0.0682  0.554  0.531
 0.355 -0.0240 -0.0886
 0.466 0.0588 -0.259
0.0673  0.373  0.533
-0.00184 -0.225  0.306
 0.246 -0.154 -0.331
 0.375 0.00692 -0.287
0.0940  0.110 -0.669
 0.222 -0.0758 -0.127
0.0646  0.557  0.569
0.0353 -0.0557 -0.381
 0.362  0.543  0.412
 0.261 -0.347  0.235
 0.351 -0.490 -0.422
 0.257 0.0127 -0.285
 0.270 0.0274 -0.431
-0.293  0.204  0.350
-0.0117 -0.0409  0.448
 0.412 -0.587 -0.502
-0.00186  0.104 -0.630
-0.171  0.596  0.566
 0.368 -0.699  0.388
 0.468 -0.00397 -0.0288
 0.297 -0.125 -0.454
-0.446 -0.0334 0.0486
-0.0689  0.197  0.377
 0.266 -0.305  0.264
 0.382 -0.00779 -0.227
-0.467 0.00576 -0.0620
 0.326 0.0312 -0.296
-0.437  0.140 -0.581
 0.273  0.511  0.490
 0.436 -0.697 -0.492
-0.212 0.0287 -0.460
 0.459 -0.0381 -0.0377
 0.222  0.422  0.434
-0.460 -0.0471  0.123
-0.0340 -0.261  0.134
 0.291  0.639  0.532
-0.389 -0.590 -0.502
-0.230  0.299  0.418
 0.176 -0.0477 -0.137
-0.0910 -0.153  0.142
 0.139 0.0815 -0.658
-0.242  0.196  0.331
-0.420 -0.0312 -0.105
-0.311 -0.253 -0.487
-0.149 -0.159 0.0932
0.0130  0.211  0.444
-0.397 -0.692  0.397
 0.230  0.177  0.364
 0.192 -0.178  0.178
 0.435 0.0539 -0.398
-0.0837 -0.0562 -0.392
-0.417  0.151 -0.663
-0.185 -0.298  0.254
-0.512 0.00579 -0.0500
 0.223  0.365  0.448
 0.419 0.0372 -0.353
0.0427 -0.0226 -0.457
-0.487 0.0284 -0.245
-0.266 -0.106 0.00566
 0.170  0.604  0.531
 0.140 -0.0224 -0.230
-0.435 0.0655 -0.320
-0.236 0.00443 -0.270
-0.345 -0.471  0.403
-0.00183 -0.116 -0.330
0.0155 0.0571 -0.494
 0.221 -0.133 -0.333
-0.359  0.104 -0.519
-0.294 -0.187 -0.458
-0.356 -0.108 0.0931
 0.389  0.481  0.402
-0.143 -0.111 -0.346
0.0278 -0.135  0.497
0.0355  0.392  0.464
-0.235 -0.315  0.224
-0.0313  0.420  0.513
 0.147 -0.0367 -0.185
0.0353 -0.135  0.463
 0.347  0.328  0.330
-0.215  0.334  0.401
 0.330 -0.587  0.358
-0.301 0.0738 -0.454
 0.353 0.0478 -0.449
 0.384 -0.458 -0.513
-0.258 0.0731 -0.477
 0.265 -0.0911 0.0565
-0.413  0.125 -0.550
-0.151  0.175  0.352
 0.273  0.114 -0.607
-0.351 0.0893 -0.584
-0.0464  0.277  0.508
 0.339 -0.273 -0.469
-0.297 -0.143 -0.362
 0.102  0.151  0.389
 0.391  0.145 -0.665
0.0957  0.501  0.504
-0.103 -0.136 -0.00172
-0.0726  0.315  0.524
-0.338 -0.0739 0.0672
 0.139 -0.0566 -0.125
-0.370 -0.00918 -0.121
 0.161 0.0103 -0.427
-0.107  0.457  0.484
-0.0387 0.0837  0.367
 0.116 -0.119 -0.0493
 0.393 -0.494 -0.541
-0.180 0.0469 -0.429
-0.148  0.618  0.581
-0.515 0.0749 -0.265
-0.127 0.0555 -0.473
-0.257 -0.0835 -0.0749
 0.125  0.541  0.515
-0.477 -0.0813  0.149
 0.320 -0.000865 -0.195
 0.301 -0.266 -0.434
-0.301  0.263  0.372
 0.326 0.0701 -0.429
 0.482 0.0717 -0.288
-0.103  0.580  0.537
 0.318  0.132 -0.651
-0.111 -0.225  0.271
 0.238  0.242  0.350
-0.255 0.0168 -0.296
0.0575  0.195  0.438
0.0130 0.0747 -0.696
-0.189  0.509  0.485
-0.318 -0.0537 -0.0176
 0.263 -0.150  0.141
-0.0572 -0.0578  0.485
-0.253 -0.0354 -0.234
-0.434 -0.00744 -0.177
 0.341 -0.0795 0.0899
 0.355 -0.346 -0.453
 0.114  0.622  0.552
 0.259 -0.0361 -0.126
-0.307 -0.213 -0.496
-0.215  0.586  0.509
-0.368  0.497  0.434
-0.183 -0.0454 -0.142
 0.341 -0.0136 -0.133
