ply
format ascii 1.0
element vertex 2048
property float x
property float y
property float z
end_header
 0.333 -0.0229  0.312
-0.382 -0.202 -0.858
-0.383 -0.214  0.899
 0.296  0.194 -0.522
-0.384 -0.0313 -0.0661
 0.155  0.108  0.898
 0.325 -0.223 -0.854
-0.197 0.0137  0.454
 0.130 -0.0944 -0.143
-0.0240  0.103 -0.858
-0.178 -0.0944 -0.471
-0.217  0.119  0.820
 0.237  0.228 0.0135
 0.325 -0.224  0.890
-0.368  0.116 -0.692
 0.121 -0.0944  0.589
-0.0915 -0.0944  0.136
 0.313  0.113 -0.851
 0.140 -0.0944 -0.558
-0.378 -0.0941  0.233
 0.328  0.114  0.653
 0.334 -0.0354 -0.348
-0.383 -0.0923  0.641
-0.140 0.0142 -0.201
-0.0521 -0.0918  0.898
 0.163  0.159 -0.249
 0.334 -0.0366 0.0372
 0.111  0.111  0.231
-0.381 0.00609 -0.336
-0.149 -0.0944 -0.741
-0.00471  0.112  0.676
0.0146 -0.0944  0.358
 0.159  0.119  0.474
 0.111 -0.0944 -0.808
-0.130 -0.0944  0.657
 0.121  0.119 -0.673
0.0242 0.0132 -0.384
-0.108  0.112 -0.635
 0.333 -0.00203 -0.652
-0.384 -0.0873 -0.586
 0.130 -0.0944  0.107
 0.333 -0.00749  0.835
-0.383 0.00143  0.899
 0.330 -0.0925  0.541
 0.140 -0.0944  0.801
-0.313 -0.00323 -0.858
-0.383  0.109  0.695
-0.0240 0.0138 -0.0275
-0.265 0.0142 0.0977
-0.384 -0.0873  0.435
 0.312  0.118  0.165
 0.312 0.0124 -0.153
-0.0408  0.111  0.897
-0.246 -0.0944  0.811
-0.188 -0.0944  0.300
-0.207 -0.0944 -0.0564
-0.0144 0.0142  0.522
 0.188 -0.0944  0.416
 0.128 0.0979 -0.0757
 0.169 -0.0944 -0.317
 0.139  0.117 -0.471
-0.207  0.119 -0.789
 0.334  0.109  0.461
-0.284 -0.0944 -0.230
 0.169  0.119  0.724
-0.00472 -0.0944 -0.249
-0.246 0.0142 -0.587
 0.313 -0.0944 -0.509
 0.292  0.196 -0.352
-0.0336 -0.0944 -0.558
 0.275 -0.0505 -0.858
-0.255 0.0137  0.618
 0.149 0.0843 -0.858
 0.275 -0.0944  0.705
 0.296  0.194 -0.156
-0.0240 0.0138  0.242
 0.255  0.119  0.319
-0.0433 -0.0698 -0.858
 0.275 -0.0944  0.175
-0.188 0.0142 -0.355
-0.303 0.0142  0.319
-0.323 -0.0944 -0.731
 0.111  0.110 0.0771
-0.383 -0.0923 0.0721
0.00492 -0.0944 -0.702
 0.227 -0.0944 -0.702
-0.352 -0.0944 -0.442
 0.101 0.0142 -0.240
0.0146 -0.0944  0.724
 0.207 -0.0944 -0.0179
-0.0722 -0.0944 -0.114
 0.223 0.0466 -0.567
-0.0915 -0.0944  0.464
0.0724 -0.0120  0.900
-0.178 -0.00295  0.900
-0.265 -0.0944  0.522
-0.169  0.112  0.677
0.0531 0.0132 -0.596
-0.169 0.0142  0.204
 0.275  0.119 -0.702
 0.230 0.0591 -0.374
 0.304  0.103 0.0214
 0.110 0.0434  0.364
-0.0722 0.0132  0.377
 0.294  0.119  0.792
-0.0915 0.0142 -0.480
0.0627 -0.0944 -0.0179
-0.0818 -0.0944 -0.365
 0.130 -0.0944  0.281
0.0145 0.0142  0.107
-0.383 0.00299  0.541
 0.205  0.218 -0.622
 0.236 -0.0794  0.899
-0.255 0.0142 -0.124
-0.159 0.0142 0.0110
-0.384 -0.0505  0.772
-0.383  0.109 -0.827
-0.369 0.0103 -0.201
-0.351  0.119  0.840
-0.169 -0.0216 -0.858
 0.110 0.0281  0.643
0.0724 -0.0944 -0.442
0.0628  0.119  0.801
-0.236 -0.0944  0.165
 0.265 -0.0944 -0.211
-0.0143 -0.0944  0.599
-0.284 0.0142 -0.452
-0.236  0.119 -0.664
 0.217  0.119  0.589
-0.00473 0.0132 -0.153
-0.169 -0.0944 -0.615
-0.120 -0.0944  0.792
0.0627 -0.0944  0.474
 0.198 -0.0944 -0.442
 0.333 -0.0197  0.437
-0.383 0.00299  0.156
 0.203  0.224 -0.432
-0.159 -0.0944 -0.268
0.0338 -0.0944  0.185
-0.0818  0.119  0.772
-0.246 -0.0944 -0.365
 0.226 0.0529 -0.249
 0.333 -0.00749  0.633
-0.0722 0.0132  0.647
-0.0529 -0.0944 0.0207
 0.304 -0.0944 -0.0950
 0.216 0.0263 -0.0275
-0.0143  0.119 -0.712
 0.333 0.0276 -0.770
-0.275 -0.0944  0.387
-0.382 0.0150 -0.753
 0.121 0.0855 -0.336
-0.255 -0.0944  0.666
-0.0722 0.0142 -0.317
 0.275 0.0747  0.899
-0.275 -0.0944 -0.538
 0.191  0.208 -0.105
 0.101 0.0162  0.503
0.0531 -0.00323 -0.858
 0.294 0.0142 -0.461
 0.101 0.0142 0.00137
-0.332 -0.104  0.899
 0.330 -0.0951 -0.756
-0.0625 -0.0944  0.262
-0.383 0.00299 -0.509
-0.358 0.0175 -0.624
-0.0625 0.0142 -0.596
-0.323 0.0142  0.445
-0.265 0.0142 -0.259
 0.246 -0.0944  0.310
 0.333 0.00937  0.187
-0.246 -0.0944 0.0496
 0.217 -0.0944  0.531
-0.140 0.0132  0.551
-0.188 0.0142  0.329
-0.294 0.0142 -0.0179
-0.384 -0.0891 -0.854
 0.111 -0.0944 -0.664
0.0820  0.119 -0.779
-0.159 -0.0944  0.551
-0.275  0.119  0.705
 0.120 0.0131 -0.442
-0.378 -0.0941 -0.172
-0.284 0.0458  0.899
0.0338 -0.0944  0.830
-0.120 0.0142 -0.0950
 0.169 -0.0944  0.686
 0.251 0.0964 -0.124
0.0820 0.0142  0.194
 0.333 0.0276  0.734
0.0627 -0.0944 -0.336
-0.101  0.119 -0.779
 0.112  0.112  0.573
-0.169 -0.0944 -0.162
-0.360 0.0125  0.656
 0.198  0.123 0.0193
 0.256  0.218 -0.256
 0.207  0.119  0.156
 0.333 -0.117  0.892
-0.150  0.102  0.899
-0.342 -0.0944 -0.317
 0.284 -0.0944 -0.615
-0.303 -0.0944 -0.0950
-0.120 0.0142  0.107
-0.384 -0.0505  0.329
 0.273  0.132 -0.442
 0.293  0.169 -0.0564
 0.335 0.0651  0.560
 0.156  0.147 -0.567
-0.275 -0.0952 -0.837
 0.246 -0.0944 0.0785
0.0338 -0.0944 0.0785
0.0916 0.0142 -0.124
0.0338 -0.0944 -0.114
-0.0915 -0.0944  0.358
-0.275 0.0939 -0.858
 0.188  0.201 -0.336
 0.188  0.119 -0.750
 0.336 0.0747  0.368
-0.188 -0.0944  0.435
0.0338 0.0132 -0.490
-0.294 -0.0944  0.290
-0.284 0.0142  0.223
 0.332 0.00276 -0.248
-0.159 0.0257 -0.630
 0.327 0.00724 -0.0500
 0.333 -0.00124 -0.554
 0.303 -0.0943  0.801
-0.120 0.0651 -0.858
-0.0754 0.00312  0.899
 0.287  0.163 -0.615
0.0531 0.0843  0.899
 0.185 0.00312  0.899
-0.0240 -0.0944 -0.461
 0.159 -0.0120 -0.858
 0.207 -0.0944 -0.798
-0.284 -0.0944 -0.635
 0.159  0.119  0.329
 0.335 0.0940  0.271
0.0338 0.0142  0.416
-0.149 -0.0944 0.0496
-0.384 0.0458  0.772
-0.188 0.0142 -0.480
 0.255 -0.0944 -0.365
-0.284 0.0142 -0.355
 0.335 0.0458 0.0978
-0.383 0.00299 0.0592
-0.376 0.00823  0.252
-0.148 -0.0936  0.895
0.0917 -0.0944 -0.230
 0.275 -0.0944  0.454
0.0242 0.0142  0.608
 0.119 0.0362 -0.533
 0.121 -0.0917  0.899
-0.303  0.119 -0.760
 0.269  0.126 -0.288
 0.146  0.129 -0.162
 0.330 -0.0925  0.252
0.0370  0.112 -0.635
0.0145 0.0132 -0.288
 0.207  0.119  0.821
 0.329 -0.124 -0.855
-0.101 0.0132  0.464
0.0531 -0.0944 -0.586
 0.101 -0.0944  0.387
 0.246 -0.0944  0.618
 0.246  0.119  0.503
-0.246 -0.0698  0.899
-0.0722 -0.0944 -0.654
-0.101 0.0132  0.290
0.0435 0.0142  0.310
 0.333 -0.0876  0.377
-0.178 0.0177  0.665
 0.330 -0.0905 -0.274
 0.217 -0.0944 -0.124
-0.188 -0.0944  0.734
 0.198 -0.0944  0.223
-0.120 -0.0944 -0.538
-0.120 -0.0944 -0.0372
 0.227 -0.0944 -0.529
-0.0625 -0.0944 -0.760
-0.0529 0.0142 -0.230
0.0820  0.119  0.705
 0.219  0.235 -0.529
-0.130 -0.0944 -0.827
0.0242 -0.0944  0.271
-0.0818 -0.0944 -0.201
 0.330 -0.0925  0.107
-0.255 0.0142  0.531
 0.207  0.119  0.242
-0.381 0.00609 -0.423
 0.334 -0.0761 -0.427
0.0242 -0.0944 -0.808
 0.101 0.0162  0.107
 0.275 0.0362 -0.858
-0.149 -0.0944  0.223
-0.313 -0.0944  0.127
0.0627 0.0939 -0.858
 0.246  0.116  0.688
-0.0368 0.0151 -0.857
 0.284 0.0651 -0.633
 0.227  0.115 -0.844
 0.236 0.0142 -0.114
 0.213  0.233 -0.182
-0.342 -0.0944  0.714
-0.313 0.0940 -0.633
 0.275 0.0142 -0.317
-0.361 -0.0944  0.560
 0.188 -0.0944 -0.625
-0.217 -0.0944 -0.692
0.0627 -0.0944  0.657
-0.0529 0.0140 0.0592
-0.149  0.119 -0.712
 0.255  0.119 0.0881
-0.0722 0.0134  0.175
 0.261  0.114 -0.538
-0.384 -0.0409 -0.692
 0.227  0.119  0.396
-0.0143 -0.0944  0.435
 0.217  0.119 -0.644
-0.0722 -0.0944  0.714
-0.197 0.0142 -0.0661
 0.220 0.0413 -0.480
 0.333 -0.0886  0.648
-0.371 -0.0944 -0.00825
-0.384 -0.0698 -0.249
 0.327  0.113 -0.763
-0.384 0.0275 -0.837
-0.384 -0.00321  0.396
 0.261  0.114 -0.201
 0.284 -0.0944 0.00138
 0.217 -0.0944  0.782
-0.303 0.0142 -0.529
 0.153  0.141 -0.383
-0.0336 -0.0944  0.522
-0.00472 -0.0944 -0.384
-0.0914 0.0940  0.673
-0.351 0.0140 -0.124
 0.333 -0.0752 -0.166
 0.333 -0.0146  0.529
 0.251 0.0964 -0.0372
 0.265 -0.00295  0.900
 0.333 -0.0531  0.736
 0.110  0.111  0.414
 0.125 0.0202 -0.624
 0.169 -0.0944 -0.211
-0.169 -0.0944 -0.346
 0.130 -0.0944 -0.384
-0.130 0.0142 -0.558
 0.149 -0.0944  0.483
 0.140 -0.0944 -0.0564
-0.111 0.0142 -0.384
0.0916 0.0137 -0.317
-0.197 0.0555 -0.858
-0.294 -0.0944 -0.0179
-0.217 0.0142 -0.191
-0.342  0.119  0.763
-0.342 -0.0944  0.821
 0.125 0.0917 -0.259
-0.101 -0.0944 -0.461
-0.275 -0.0944 -0.442
 0.333 -0.0800 -0.681
-0.00473 -0.0313  0.900
-0.384 -0.0602 -0.374
 0.123  0.115  0.156
 0.110 0.0300  0.277
 0.131  0.117  0.646
-0.255 0.0142  0.406
-0.207 -0.0944 -0.789
-0.140  0.119  0.821
-0.0336 0.0138 -0.432
 0.159 -0.0944 -0.741
-0.217 -0.0944  0.599
-0.236 -0.0944 -0.288
0.0917 -0.0944  0.743
-0.384 -0.0873 -0.509
-0.384 -0.0978 -0.779
-0.275  0.119  0.868
0.0435 0.0458  0.673
 0.284 0.0141 0.0108
 0.269  0.126 -0.365
 0.178  0.184 -0.490
 0.274  0.207 -0.439
 0.333 0.0747 -0.692
-0.382 0.0751  0.898
 0.123 0.0845 -0.000565
 0.125 0.0912 -0.605
-0.169 0.0142 -0.269
-0.236 0.0651  0.673
-0.0143 0.0555 -0.633
-0.0143 -0.0944 -0.172
-0.313 -0.0216  0.899
-0.188  0.119  0.753
 0.163  0.159 -0.0564
 0.112 0.0672 -0.182
 0.332  0.109  0.869
-0.384 -0.0698  0.156
-0.323 -0.0944  0.474
 0.333 -0.0400 -0.817
 0.294  0.120  0.589
-0.323 0.0142  0.580
 0.333 -0.0461  0.898
-0.313 0.0142  0.156
-0.384 0.0458 -0.683
 0.108 0.0194  0.573
0.0338 0.0142 0.0206
 0.111 -0.0944  0.175
-0.0818 -0.0944  0.580
-0.0143  0.119  0.753
-0.197 0.0142 0.0785
0.0338 -0.0944 -0.519
-0.0625 -0.0944 -0.297
 0.255  0.119 -0.770
 0.255 -0.0944  0.387
-0.197 -0.0944 -0.538
 0.111 -0.0944 0.0399
-0.169 -0.0944  0.146
 0.130  0.119  0.821
 0.159 -0.0873 -0.858
-0.351 0.0140 -0.269
-0.149 0.0132  0.387
-0.226 0.0142  0.262
-0.255 -0.0944  0.233
-0.0240 0.0135 -0.538
-0.0240 -0.0944  0.782
-0.384 -0.0313  0.705
 0.111 0.0458  0.899
-0.0337 0.0135  0.435
-0.246 -0.0944 -0.172
-0.303 -0.0944  0.599
-0.332 -0.0944  0.348
0.00493  0.119  0.840
 0.110 0.0369  0.437
-0.352 -0.0944 -0.664
-0.217 0.0843  0.899
 0.328 0.0243  0.898
-0.384 -0.00293  0.830
 0.333 -0.0237  0.127
 0.255 0.0142 -0.191
-0.0240  0.119 -0.779
0.0242 0.0142 -0.0758
-0.0240 0.0138  0.319
-0.101 -0.0313 -0.858
-0.0433 -0.0944  0.185
-0.217 0.0142  0.146
-0.0240 -0.0944 -0.0661
 0.207 0.0458 -0.858
0.0242 0.0132 -0.220
-0.303 0.0555  0.673
-0.178 -0.0944  0.368
-0.0529 0.0142 -0.105
 0.275  0.119  0.252
 0.265 -0.0944 -0.452
-0.236 -0.0120 -0.858
 0.265 -0.0944 -0.297
-0.236 0.0142 -0.403
 0.121 0.0855 -0.413
-0.384 -0.0873 -0.105
0.0724 -0.0698 -0.858
0.0346 -0.0867  0.899
-0.384 -0.147  0.890
 0.303  0.119  0.724
-0.178  0.103 -0.633
-0.381  0.112 -0.760
 0.294 0.0142 -0.394
 0.295  0.182 0.00978
-0.313 -0.0944 0.0592
 0.334 0.0226  0.262
 0.275 -0.0944 -0.798
-0.226 0.0142 0.0110
0.0627 -0.0944  0.541
-0.00473 0.0142  0.175
-0.384 -0.0313  0.483
 0.333 0.0551  0.811
-0.0240 0.0458  0.899
 0.128 0.0253 -0.0693
 0.227 0.0256 -0.630
 0.237  0.228 -0.371
-0.384 -0.0216 -0.577
 0.195  0.214 -0.0372
-0.313 -0.0944 -0.162
 0.265 0.0142 -0.529
 0.335 0.0457  0.435
 0.169  0.119  0.541
 0.333 -0.0691  0.188
-0.303 0.0142 -0.201
-0.384 -0.0313 0.00139
 0.256  0.217 -0.101
 0.320  0.116 0.0881
-0.0336  0.116 -0.647
 0.246 0.0650 0.0217
 0.333 -0.0351 -0.0986
 0.227  0.119  0.753
 0.236 0.0142 -0.423
 0.188 -0.0944  0.589
-0.284 -0.0944  0.743
0.0627 -0.0944 -0.731
-0.0915 0.0142 -0.0372
-0.0818 0.0132  0.580
-0.275  0.119  0.792
-0.313 -0.0944 -0.374
0.0628  0.119 -0.702
0.0724 -0.0944  0.329
0.0820 -0.0944  0.233
 0.334 0.0523  0.671
-0.149  0.118 -0.836
 0.128 0.0253 -0.368
-0.384 -0.0602  0.859
 0.294  0.119  0.387
-0.188 -0.0940 -0.854
 0.333 -0.00749 -0.717
 0.333 0.0458 -0.837
-0.384 -0.0313  0.618
-0.323 -0.0944  0.204
 0.294  0.175 -0.230
 0.111 0.0275 -0.858
 0.216 0.0353 -0.317
 0.246 -0.0944  0.840
-0.246 -0.00297  0.900
 0.333 -0.00749  0.372
 0.334 -0.0711  0.472
-0.130 0.0362  0.899
-0.0722 -0.0944  0.840
-0.384 -0.0313 -0.818
0.0531 -0.0944 -0.182
-0.207 0.0132  0.580
-0.207 -0.0944 -0.413
-0.255 -0.0944 -0.750
 0.121 -0.0944 -0.480
 0.313 -0.0944 -0.336
-0.246 -0.0944  0.329
-0.159 -0.0944 -0.0950
0.0338 0.0142  0.483
 0.246 -0.0944 -0.0661
 0.110  0.111  0.511
 0.178 -0.0944  0.146
-0.149 0.0142 -0.432
 0.255  0.119  0.859
-0.313 -0.0944 -0.490
 0.334 -0.0575 -0.619
-0.178 0.0142 -0.143
-0.323 0.0142 -0.403
 0.249  0.221 -0.580
 0.313 -0.0944  0.319
-0.217  0.113 -0.850
-0.303 0.0142 -0.0854
-0.101 0.0458 -0.633
-0.384 0.0943 -0.637
 0.334 -0.0293 -0.477
-0.217 0.0555 -0.633
 0.227 -0.0120 -0.858
-0.159 0.0142  0.271
 0.265  0.119  0.445
-0.149 -0.0944 -0.673
-0.0818  0.116 -0.844
-0.0915 -0.0944 -0.596
-0.0240 -0.0944  0.127
-0.0722 0.0142 -0.172
0.0531 0.0142  0.541
0.0146 -0.0944 0.0207
 0.178 -0.0602  0.899
 0.169  0.119 -0.808
 0.335 0.0458  0.503
 0.169 -0.0944  0.358
0.0724 0.0142 -0.182
 0.188 -0.0944 0.0399
-0.130 -0.0944  0.281
-0.130 0.0132  0.628
-0.0915 -0.0944 0.0688
0.0820 -0.0944 -0.0757
 0.185  0.183 0.0142
 0.284 0.0142 -0.587
-0.384 -0.0409 -0.143
 0.198 0.0651  0.899
 0.163  0.142 -0.627
 0.188  0.119 0.0785
-0.376 0.00822  0.320
 0.320  0.116  0.531
 0.188  0.201 -0.567
-0.0914  0.119 -0.692
 0.156  0.147 -0.307
-0.384 0.0275  0.714
 0.112  0.112  0.293
0.0724 0.0555 -0.633
 0.333 -0.0741 -0.561
 0.255  0.102 -0.596
-0.332 0.0142  0.512
 0.246 -0.106 -0.849
 0.329 -0.0898 -0.0417
 0.332  0.109 -0.644
-0.384 -0.0313  0.107
 0.334 -0.0450  0.587
-0.332  0.109 -0.858
 0.101  0.118  0.877
-0.275 0.0363 -0.633
0.0338 0.0142  0.233
-0.0143 -0.0944 -0.644
-0.0722  0.119  0.830
-0.101 -0.0944  0.522
-0.313 -0.0944 -0.789
-0.332 -0.0944 -0.548
-0.207 -0.0944  0.512
 0.188 -0.0944  0.290
-0.246 0.0142  0.348
 0.130  0.119 -0.741
-0.0722 -0.0944  0.647
-0.0143 0.0363  0.673
-0.226 -0.0944  0.107
-0.0818 0.0132  0.233
-0.226 -0.0944 -0.606
-0.169 -0.0944  0.840
 0.265 0.0142 -0.0564
 0.335 0.0651  0.204
 0.194  0.114  0.661
-0.246  0.119 -0.721
 0.333 -0.0146  0.693
 0.256  0.217 -0.0436
-0.0529 0.0134  0.117
 0.230 0.0587 -0.162
-0.226 -0.0944 -0.230
0.0627 -0.0944  0.599
-0.197 -0.0944  0.666
-0.00472 -0.0944 -0.307
 0.275 0.0142 -0.259
 0.217 -0.0944  0.474
0.0531 -0.0944 -0.644
 0.217 -0.0944  0.724
-0.384 -0.0505 -0.461
 0.335 0.0458 0.0399
-0.0144 0.0142  0.377
-0.360 0.0127 -0.0371
 0.174  0.178 -0.172
 0.292  0.196 -0.294
-0.342 0.0142 0.0206
 0.255  0.133 0.0198
-0.342 0.0142 -0.471
 0.275 -0.0944 -0.741
 0.244 0.0839 -0.452
-0.384 -0.0873  0.493
 0.248 0.0900 -0.326
 0.110 0.0608 -0.471
-0.120 -0.0313  0.899
-0.342 -0.0944 -0.220
-0.329 -0.104 -0.858
-0.378 -0.0941 -0.721
 0.159  0.119  0.387
-0.217 -0.0944 -0.124
 0.236 -0.0944 -0.586
-0.255 0.0142 -0.500
 0.169 -0.0944  0.849
0.0627 -0.0944 -0.278
-0.111 0.0142 0.0399
 0.111 -0.0944  0.686
0.0627 0.0132 -0.442
-0.111  0.119  0.724
 0.279  0.145 -0.124
-0.0336 -0.0944  0.310
-0.120 0.0458  0.673
-0.342 0.0142  0.107
0.0435 -0.0944  0.772
-0.0240 0.0138  0.580
-0.0143 0.0132 -0.336
-0.101 -0.0944 -0.712
-0.0240 -0.0944 0.0688
-0.149 0.0132  0.493
0.0338  0.119 -0.750
-0.178 -0.0944 -0.00825
-0.275 0.0142 0.0399
-0.0143 -0.0944  0.676
-0.101 0.0142 -0.269
 0.275 -0.0944 -0.673
-0.294 -0.0944 -0.288
-0.217 0.0142 -0.297
 0.140 -0.0944 -0.259
 0.330 -0.0925 0.0399
 0.125 0.0917 -0.519
 0.333 -0.0789  0.851
 0.203  0.224 -0.240
 0.333 -0.0146  0.780
-0.217  0.119  0.705
0.00491 -0.0313 -0.858
-0.332 -0.0944 -0.606
-0.332 -0.0944  0.416
 0.181  0.190 -0.394
 0.226 0.0528 -0.0757
-0.377 -0.147 -0.850
0.0346 0.0285  0.899
-0.313  0.119 -0.692
 0.265  0.119  0.194
-0.275 -0.0944  0.859
 0.333 -0.0236  0.233
-0.332  0.109  0.674
-0.320  0.111  0.897
 0.130  0.119  0.763
-0.207 0.0142 -0.548
-0.284 -0.0944 -0.692
-0.130 -0.0944  0.396
-0.0143 -0.0944  0.859
-0.120 -0.0944 -0.307
-0.236 -0.0944 -0.480
-0.342 0.0142 -0.567
 0.110 0.0502  0.164
-0.342 -0.0944 -0.0564
0.0146  0.119 -0.818
-0.00472 -0.0944  0.223
-0.378 -0.0941  0.377
 0.207 -0.0944 -0.249
 0.333 -0.0160 -0.417
-0.384 -0.0409  0.223
 0.293  0.170 -0.403
 0.334 -0.0376 -0.205
-0.323 0.0142  0.262
 0.320  0.116  0.223
 0.335 0.0651  0.618
 0.110  0.103  0.347
 0.323 -0.0943 -0.220
 0.284 -0.0944  0.570
 0.284 -0.0944  0.512
-0.384  0.103  0.792
-0.342 0.0362  0.899
 0.284 -0.0944 -0.153
-0.0915 0.0940  0.899
 0.284 -0.0944 -0.558
 0.330 -0.169  0.899
-0.332 -0.0944  0.657
-0.352 -0.0409 -0.858
 0.283  0.151 -0.490
 0.237  0.228 -0.304
-0.384 0.0555  0.849
-0.332 0.0458 -0.858
 0.159  0.119  0.213
 0.333 -0.0381 -0.0246
 0.326 0.00770 -0.310
 0.227  0.171 -0.629
-0.384 -0.0216 -0.288
 0.112 0.0672 -0.114
 0.149 -0.0944  0.637
-0.197 -0.0944  0.242
 0.335 0.0284  0.320
-0.130 -0.0944 -0.220
-0.0625 -0.0944  0.416
-0.0529 -0.0944 -0.509
-0.384 -0.0505 -0.201
0.0338 -0.0944  0.416
0.0531 -0.0944  0.127
 0.169  0.119 -0.692
 0.121 -0.0944 -0.606
-0.275 0.0142  0.464
-0.130 0.0132  0.339
 0.178 -0.0944 -0.490
-0.255  0.119 -0.808
 0.110 0.0736  0.618
-0.246 0.0142 -0.0372
-0.130 -0.0944 -0.384
-0.0818 -0.0944 -0.808
-0.101 -0.0944  0.204
-0.140 0.0142 -0.500
 0.149 -0.0944  0.734
 0.217 -0.0944 -0.191
 0.333 0.0744  0.763
0.0820 -0.0944  0.849
 0.110 0.0361 0.0476
0.0531 0.0142  0.368
-0.0529 0.0132  0.483
 0.269  0.126 -0.0757
0.0724 0.0132 -0.529
-0.332 0.0142 -0.317
 0.163  0.159 -0.124
 0.130 -0.0409  0.899
 0.287  0.157 -0.558
0.0531  0.119  0.859
 0.207  0.118  0.877
 0.275  0.118  0.646
 0.312  0.118  0.310
0.0113  0.113  0.892
-0.294 -0.0505 -0.858
-0.351 0.0138  0.194
-0.00473 0.0555 -0.858
-0.133 0.0151 -0.857
 0.128 0.0253 -0.281
 0.313 0.00298 -0.858
 0.241 0.0777 -0.509
 0.322 -0.0689 -0.858
 0.142  0.123 -0.0275
-0.313 0.0142  0.637
-0.384 -0.0794  0.281
-0.384 0.0651 -0.779
 0.101  0.118 -0.836
-0.332  0.119 -0.808
-0.371 0.0651  0.673
 0.171  0.171 -0.442
 0.132  0.104 -0.211
 0.251 0.0964 -0.249
 0.278 -0.102  0.884
-0.384 -0.0698 -0.635
 0.181  0.190 -0.288
0.0274 -0.0923 -0.858
-0.375 0.00803  0.454
 0.294 -0.0944 -0.403
 0.107 0.0727  0.668
 0.333 0.00937  0.572
-0.384 -0.0505  0.560
-0.342 0.0142  0.377
 0.333 -0.0951 -0.815
0.0531  0.119  0.753
 0.284 -0.0944  0.233
 0.284 -0.0944  0.127
-0.197 0.0142  0.396
-0.0433 0.0142 -0.384
0.0531 -0.0944 -0.384
-0.197 -0.0944 0.0592
0.0531 0.0940  0.673
-0.0722 -0.0944 -0.249
-0.255 -0.0944 -0.0661
-0.207 0.0135  0.503
-0.0433 -0.0944  0.368
0.0146 -0.0944  0.551
-0.140 -0.0944  0.608
 0.130 -0.0944  0.541
0.0820 -0.0944 -0.134
-0.284 -0.0944  0.435
-0.140 -0.0944  0.445
-0.361 -0.0944  0.117
-0.159 0.0142  0.156
 0.188 -0.0944 -0.394
-0.265 0.0142  0.165
 0.111 -0.0944  0.435
 0.121 -0.0944 -0.307
 0.149 -0.0944 -0.432
-0.275 0.0142 -0.307
 0.169  0.119  0.281
-0.236 0.0142 -0.346
-0.0143 0.0132 -0.606
-0.197 0.0142 -0.596
 0.178 -0.0944 -0.673
-0.197 -0.0944  0.782
 0.111 -0.0944 -0.721
 0.236 -0.0944 0.0303
 0.130 -0.0944 -0.00825
-0.0240 -0.0944 -0.818
0.0435 0.0142 -0.0275
-0.0722 -0.0944 -0.0468
-0.0915 -0.0794 -0.858
-0.265 0.0844 -0.633
-0.0336 0.0138 -0.278
-0.246 -0.0602 -0.858
0.0724 0.0132 -0.374
0.0242 -0.0944 -0.452
 0.236 -0.0944  0.666
-0.236 -0.0944  0.425
-0.130 0.0142 -0.153
-0.382 -0.0987  0.899
-0.384 0.0940  0.743
 0.332 0.00277 0.00217
 0.335 0.0362  0.146
-0.197 -0.0868  0.899
 0.333 -0.172 -0.847
 0.313 -0.0944  0.753
 0.333 0.00283 0.0749
 0.281  0.113 -0.640
 0.333 -0.0314 -0.759
 0.303 0.0138 -0.201
 0.110  0.111  0.463
-0.384 -0.0505 -0.770
-0.275 0.0142  0.281
-0.332 -0.0944  0.522
-0.303 0.0142 -0.596
-0.275 -0.0944 0.0978
-0.0433  0.119  0.714
-0.0818 0.0142 -0.423
0.0242 -0.0944  0.503
 0.101 -0.0313 -0.858
0.0627 0.0142  0.637
-0.0529 -0.0944 -0.403
 0.207  0.119  0.319
0.0338 0.0142 -0.124
 0.333 0.0748  0.715
-0.342 -0.0944  0.763
 0.188 -0.0944 -0.577
-0.207 -0.0944 -0.741
 0.217 -0.0944 -0.317
 0.246 -0.0944  0.262
-0.284 0.0458 -0.858
-0.384 -0.0602 -0.326
-0.188 0.0651  0.673
 0.236 -0.0944  0.127
-0.149 0.0132  0.445
-0.236  0.119  0.753
-0.217 0.0142 -0.240
 0.130 -0.0944  0.233
-0.265 0.0178  0.665
-0.384 -0.0794  0.734
0.0724 0.0142 0.0688
 0.178 -0.0944 -0.162
-0.149 -0.0944  0.329
 0.246 0.0142 -0.355
 0.169 -0.0944 -0.114
-0.236 -0.0944  0.753
-0.284 -0.0944  0.175
 0.159 0.0362 -0.858
-0.149 -0.0944 0.0978
0.0242 -0.0944 -0.0661
-0.0144 0.0142 0.0303
-0.0722 0.0142 0.0110
0.0435 0.0142  0.146
0.0820 -0.0944 0.0881
 0.188 -0.0944 0.0881
 0.159  0.119  0.117
 0.227 -0.0602 -0.858
-0.178  0.119  0.849
 0.265 -0.0944 -0.500
-0.275 -0.0944 -0.134
0.00491 0.0142  0.281
0.0242 -0.0944 -0.760
-0.111 -0.0944 -0.143
-0.0818 -0.0944  0.763
-0.0850 0.0151 -0.857
-0.0915 0.0142 -0.529
 0.335 0.0843  0.127
-0.101 0.0132  0.522
-0.0433 -0.0944 -0.692
-0.101 0.0132  0.416
-0.120 -0.0944 -0.779
 0.265  0.119  0.551
-0.178 0.0555  0.899
0.0917 -0.0944 -0.519
-0.226 -0.0944  0.705
-0.275 -0.0944 -0.586
-0.226 -0.0944 -0.00825
 0.188  0.119  0.435
-0.0915 -0.0944  0.310
 0.255 -0.0944  0.753
0.0917 -0.0944  0.792
-0.0433 0.0747  0.673
 0.203  0.224 -0.480
 0.283  0.151 -0.326
 0.320 0.00934 -0.509
 0.333 0.0458 -0.654
 0.128 0.0253 -0.166
-0.313 0.0142 -0.153
 0.149  0.119 0.0502
-0.303  0.119  0.830
 0.127 0.0184 -0.577
0.0820 0.0142 -0.0661
0.0820 0.0142  0.406
 0.335  0.103  0.406
 0.253  0.216 -0.627
-0.384 -0.00293  0.772
-0.380 0.00634  0.589
 0.284 0.0142 -0.114
 0.130  0.118  0.697
 0.284  0.119  0.127
 0.169  0.119  0.849
 0.212 0.0201 0.0192
 0.110 0.0542  0.529
-0.140 -0.0602 -0.858
-0.384 -0.0602 -0.548
 0.108 0.0194  0.323
-0.384 -0.0120 -0.240
 0.217 -0.0313  0.900
 0.153  0.141 -0.509
-0.384 -0.0794  0.686
 0.265  0.119 -0.818
-0.342 -0.0944 -0.124
 0.217  0.119 -0.798
 0.219 0.0192 -0.525
-0.342 -0.0944  0.262
 0.333 -0.0158 -0.599
 0.333 0.0744 -0.788
-0.378 0.0747 -0.858
 0.333 -0.00141  0.485
0.0242 0.0253 -0.630
 0.256  0.217 -0.188
-0.378 -0.0957  0.792
-0.0625 -0.0409  0.899
 0.333 -0.0287 -0.160
 0.292  0.196 -0.583
 0.111 -0.0940 -0.854
-0.149  0.119 -0.664
-0.120 -0.0944  0.859
 0.333 -0.0886  0.600
 0.110 0.0669  0.251
 0.227 0.0141 -0.278
 0.219 0.0192 -0.217
-0.352 -0.0944  0.608
 0.109 0.0426 -0.410
-0.342 -0.0602  0.900
-0.0722 0.0747 -0.858
 0.110 0.0554  0.483
 0.334 -0.0502  0.353
-0.360 0.0125 -0.374
 0.333 -0.0748 -0.475
 0.237  0.228 -0.140
 0.255  0.103 -0.413
0.0724 0.0142  0.262
 0.292  0.196 -0.477
 0.297  0.189 -0.0950
 0.246 0.0362  0.899
 0.334  0.109  0.576
-0.284  0.118 -0.655
 0.333 0.0358 -0.721
 0.275 0.0939 -0.858
-0.384 -0.0794 -0.0468
 0.306 0.0178 -0.624
0.0980  0.109 -0.634
 0.334 -0.0476 -0.278
 0.117 0.00312  0.899
 0.261  0.114 -0.490
-0.188  0.119 -0.731
-0.149 -0.0944 -0.577
-0.226 -0.0944  0.368
-0.149 -0.0944  0.753
-0.255 0.0142 -0.211
-0.255 -0.0944  0.618
-0.159 0.0132  0.589
 0.207 -0.0944 -0.741
-0.0433 0.0142 -0.500
-0.0722 0.0555  0.899
 0.335 0.0844 0.0592
0.0338 0.0132 -0.558
0.0146 -0.0944 -0.558
0.0146 -0.0944 -0.606
-0.140 -0.0944 -0.500
-0.120 0.0142  0.175
 0.188  0.119  0.782
-0.0143 0.0132 -0.201
-0.149 0.0142 -0.336
-0.207 0.0142 -0.442
 0.159 -0.0944  0.185
-0.236 -0.0944  0.271
 0.111 -0.0944 -0.191
-0.207 -0.0944 -0.191
 0.198 -0.0944  0.647
-0.384 0.0651 -0.721
-0.149 -0.0944  0.695
-0.130 -0.0944 -0.635
-0.188 -0.0944 -0.654
-0.384 -0.0120 -0.105
-0.140 0.0142 -0.0564
-0.384 -0.0505 0.0399
-0.0529 0.0747 -0.633
-0.217 0.0142 -0.105
-0.0336 -0.0944  0.734
-0.332 -0.0944 0.0207
 0.142  0.123 -0.346
-0.0240 -0.0944 -0.741
0.0242 -0.0944  0.637
0.0338 -0.0944 -0.230
 0.188 -0.0944 -0.0564
-0.0915 0.0142 -0.211
0.0627 0.0142  0.589
-0.0529 -0.0944  0.483
-0.0433  0.119  0.792
-0.236 0.0458  0.899
 0.217 -0.0944  0.185
0.0917 -0.0944 -0.403
 0.149 -0.0944  0.319
-0.226 -0.0944  0.849
-0.149 0.0142 0.0592
-0.384 -0.0216 -0.731
0.0338 0.0132 -0.326
 0.149 -0.0944 0.0592
-0.0240 -0.0944 -0.346
 0.275 -0.0602  0.899
-0.0818  0.119 -0.741
 0.236 0.0939  0.899
-0.342  0.119 -0.741
-0.178  0.119  0.801
 0.236 -0.0944 -0.654
-0.303 -0.0944  0.242
 0.217 -0.0944  0.368
 0.246  0.119  0.792
-0.226 -0.0944 -0.827
0.0820 -0.0944 -0.770
 0.334 -0.0668  0.286
 0.135  0.110 -0.558
-0.352 -0.0943 -0.808
-0.313  0.119  0.724
 0.272  0.133 -0.0275
 0.272  0.133 -0.240
-0.197  0.119 -0.683
 0.262  0.214 -0.538
 0.327 0.00724 -0.0982
-0.364  0.113  0.892
0.0628  0.119 -0.818
 0.320  0.115 -0.692
 0.294 -0.0980 -0.836
 0.108 0.0194  0.236
-0.383 -0.0923  0.323
 0.243  0.225 -0.461
-0.361 -0.0944 -0.365
-0.285 -0.0891  0.899
 0.327  0.113  0.827
-0.381 0.00609 -0.153
 0.162  0.152 -0.000584
 0.159 0.0362  0.899
 0.121  0.119 -0.798
-0.352 -0.0944  0.165
 0.241 0.0777 -0.201
 0.146  0.129 -0.432
 0.333 -0.0398 -0.670
-0.159 0.0843 -0.858
-0.246  0.112  0.676
 0.178 -0.0505 -0.858
 0.294  0.115  0.885
0.0724 -0.0698  0.900
 0.178  0.178 -0.613
0.00492 0.0100 -0.857
 0.333 0.0156  0.407
 0.272  0.133 -0.162
 0.114 0.0729 -0.297
-0.371 0.0555 -0.633
 0.153  0.141 -0.200
-0.226  0.118  0.877
 0.321 0.0647  0.899
 0.333 -0.0532  0.669
 0.101 0.0132 -0.500
-0.149 -0.0944 -0.442
 0.217  0.119 -0.721
-0.284 0.0142  0.560
-0.159  0.119  0.724
-0.294 -0.0944  0.551
 0.113  0.108 0.0343
 0.149  0.135 -0.0941
-0.197 0.0142 -0.0179
0.0338 -0.0944  0.686
-0.265 -0.0944 0.0110
-0.384 -0.0216  0.358
0.0146  0.119  0.724
-0.313 0.0142 0.0785
0.0531 -0.0944 -0.480
-0.0529 0.0132  0.551
-0.384 -0.0505  0.657
-0.120 0.0142 -0.307
 0.246  0.119 -0.673
0.0820 -0.0944 -0.692
-0.303 0.0142 -0.278
-0.140 0.0142  0.233
-0.169 -0.0944  0.474
-0.178 -0.0944  0.194
-0.178 0.0142 -0.403
 0.188  0.119  0.503
 0.284 -0.0944  0.290
-0.178 -0.0944 -0.712
-0.236 -0.0944  0.551
 0.236  0.119  0.127
 0.236 0.0747 -0.858
-0.275 0.0142 -0.558
-0.0625 -0.0944 0.0978
0.0917 -0.0944  0.512
-0.0915 -0.0944 -0.00825
-0.0143 -0.0944 -0.00825
0.0435 -0.0409  0.900
0.0145 0.0142  0.339
-0.130 -0.0944  0.493
-0.111  0.119  0.849
-0.384 -0.0120 -0.664
0.0242 -0.0944 -0.355
-0.0915 0.0142 -0.124
0.0146 0.0747  0.673
 0.198  0.119  0.368
 0.140 -0.0944 -0.692
-0.169 -0.0944  0.637
 0.236 -0.0944 -0.423
-0.275 -0.0944 -0.394
 0.236  0.119  0.271
-0.197 0.0142  0.233
0.0242 0.0141  0.656
-0.351  0.118 -0.655
 0.290  0.164 -0.268
 0.119 0.0362 -0.0315
 0.109 0.0539 -0.240
 0.333 -0.0670  0.775
 0.227  0.161 0.0191
-0.0433  0.119 -0.827
 0.255  0.142 -0.629
 0.213  0.233 -0.336
 0.110 0.0981  0.122
 0.110 0.0608 -0.0661
 0.236 0.0142 -0.587
 0.107 0.0474 -0.596
 0.331  0.109 -0.808
-0.140 0.0844  0.673
 0.327  0.114  0.364
-0.384  0.103  0.859
 0.290  0.164 -0.182
0.0242  0.112 -0.856
-0.284 0.0940  0.899
-0.0433 0.0257 -0.630
 0.188  0.201 -0.201
-0.265 -0.0944 -0.798
-0.236 -0.0944 -0.567
-0.294 -0.0944  0.705
 0.227 -0.0944  0.425
-0.265 0.0142 -0.0757
 0.169 -0.0944  0.551
-0.255  0.119  0.830
 0.284 -0.0944  0.666
0.0917 -0.0944 -0.577
 0.101  0.119  0.792
0.0146 -0.0944  0.310
0.0145 0.0132 -0.423
-0.384 -0.0409  0.445
0.0724 -0.0944 0.0303
-0.0625 -0.0944 -0.153
-0.111 -0.0944  0.242
-0.0240 -0.0944  0.637
-0.207 -0.0505 -0.858
-0.384 -0.0409  0.811
-0.384 -0.0313 -0.615
-0.140 -0.0944 0.00138
-0.00472 -0.0944 -0.134
 0.255 0.0142 -0.490
 0.159  0.119  0.580
-0.217 -0.0944  0.474
-0.207 0.0142  0.185
 0.178 -0.0944  0.454
-0.169 0.0142 -0.105
 0.227 -0.0944  0.580
 0.178 -0.0944  0.772
 0.101 0.0843 -0.858
 0.111 -0.0944  0.339
-0.197 -0.0944  0.560
-0.265  0.119 -0.770
-0.217 0.0142 -0.509
 0.246 -0.0944  0.503
-0.303 0.0142  0.368
 0.313 -0.0944  0.695
0.0627 -0.0944  0.290
 0.275 -0.0944 -0.0372
-0.0144 0.0132 -0.0854
-0.0433 0.0142 -0.143
-0.384 -0.00321 -0.461
-0.0625 -0.0216 -0.858
-0.00473 0.0142 0.0688
-0.101 -0.0944 0.0303
-0.0625 0.0132  0.300
-0.101 0.0142 -0.587
-0.00472 -0.0944  0.175
0.0242  0.119  0.792
-0.0240 -0.0944  0.271
0.0242  0.119 -0.692
0.0627 -0.0944 -0.818
-0.0818 -0.0944 -0.548
-0.384 -0.0216 -0.365
 0.294 -0.0944  0.840
-0.0915 0.0132  0.329
-0.159 -0.0944 -0.789
-0.384 -0.0873 -0.403
-0.384 -0.0409  0.271
-0.111 -0.0944  0.705
 0.169  0.119  0.175
-0.332 -0.0944  0.300
-0.169 -0.0944 -0.230
-0.217 0.0142  0.300
-0.294 -0.0944  0.782
-0.0144 0.0142  0.136
-0.120 -0.0944 -0.259
-0.111 -0.0944 -0.423
-0.384 -0.0409  0.522
0.0145 0.0142  0.570
-0.0625 -0.0944 -0.471
-0.101 -0.0944  0.425
 0.334 -0.0535 -0.383
-0.217 0.0134  0.541
-0.169 0.0142  0.117
0.0724 0.0555 -0.858
-0.294  0.119 -0.798
 0.149 -0.0944 -0.798
-0.236 0.0142  0.474
 0.101 -0.0944 -0.268
 0.255 -0.0944 -0.114
 0.255  0.119  0.599
-0.332 -0.0944 -0.278
-0.178 0.0142 -0.307
-0.246 0.0142 -0.461
-0.332 -0.0944  0.859
 0.284 0.0555 0.0213
 0.139  0.117 -0.288
-0.217 0.0253  0.671
 0.236  0.119  0.637
 0.110 0.0548  0.110
 0.303 0.0138 -0.355
-0.236 0.0275 -0.858
0.00491 0.0747  0.899
 0.110 0.0801  0.389
 0.335 0.0844  0.512
-0.384 -0.0313  0.175
-0.110 -0.0868  0.899
 0.294  0.119  0.503
 0.110 0.0599 -0.375
 0.226 0.0529 -0.413
 0.230 0.0591 -0.288
 0.226 0.0529 -0.124
0.0242 0.0747 -0.633
 0.323 -0.0943  0.503
-0.275 0.00286 -0.858
 0.199  0.219 -0.374
 0.333 0.0276  0.860
 0.127 0.0190 -0.211
 0.208  0.228 -0.0757
 0.327  0.113  0.692
-0.352 0.00285 -0.858
 0.330 -0.0925  0.416
-0.332 0.0458 -0.633
0.0916 0.0132 -0.606
-0.381 0.00609 -0.548
-0.0433  0.119  0.859
-0.381 0.00639  0.117
 0.323 -0.0943 0.00138
 0.275  0.119 0.0501
 0.227 0.0141 -0.0757
 0.334 -0.0524 -0.708
 0.313 -0.0794  0.900
0.0627 0.0137 -0.240
-0.383 0.00299  0.213
 0.333 0.00926 -0.825
-0.246 0.0137  0.580
-0.149  0.119 -0.750
 0.335 0.0747  0.329
-0.0240 -0.0944  0.821
 0.178 -0.0944  0.811
 0.178  0.184 -0.529
0.0435 0.0142  0.185
-0.0143 -0.0944 -0.211
-0.207 -0.0944 -0.365
-0.130 -0.0944 -0.182
-0.275 -0.0944 -0.490
0.0917 -0.0944 -0.365
-0.313  0.119  0.792
 0.188  0.115 -0.844
-0.313 -0.0944 -0.413
-0.265 -0.0944  0.483
-0.284 -0.0944 -0.191
0.0724 0.0458  0.899
-0.197 -0.0944 -0.268
-0.0143 0.0132 -0.240
-0.246 0.0142  0.223
-0.384 -0.0698  0.194
 0.246 -0.0944 -0.153
 0.284  0.116  0.688
-0.342 0.0142  0.339
-0.246 -0.0944 -0.326
-0.323 -0.0944 -0.692
-0.384 -0.0698 -0.288
 0.111 -0.0944  0.647
 0.128 0.0253 -0.320
0.0338 0.0135 -0.182
-0.0433  0.119 -0.741
0.0531 0.0132 -0.288
-0.383 -0.0923 0.0335
-0.294 -0.0944 -0.0564
-0.00473 0.0132 -0.490
-0.383 0.00300 0.0207
 0.330 -0.0925  0.146
 0.110 0.0881  0.200
0.0724 -0.0944  0.416
0.0916  0.119  0.753
-0.120 -0.0944 -0.0950
-0.159 -0.0944  0.792
 0.293  0.169 -0.442
 0.111 0.0843  0.899
 0.335 0.0555  0.242
 0.237  0.229 -0.410
-0.351 0.0138 -0.0854
 0.284 -0.0944  0.628
 0.334  0.109  0.615
-0.0818 -0.0944  0.801
-0.384 0.0275 -0.798
 0.169 -0.0944 -0.0179
 0.191  0.208 -0.143
-0.217  0.103 -0.633
 0.130 -0.0944 -0.105
-0.159 0.0458 -0.858
-0.169 -0.0944  0.512
 0.284 0.0362  0.899
-0.130 -0.0944 -0.346
 0.111 -0.0944  0.474
 0.265  0.119  0.753
-0.303 -0.0944  0.821
-0.384 -0.0505 -0.423
-0.0143 -0.0944  0.474
 0.265 -0.0120 -0.858
 0.323 -0.0943 -0.615
 0.331 0.00311 -0.383
0.0916 0.0142 -0.278
 0.160 -0.0935  0.895
 0.333 -0.0672  0.814
-0.140  0.119 -0.798
-0.384 -0.0873 -0.683
-0.0529  0.112  0.676
 0.249  0.221 -0.503
 0.304 -0.0944 -0.442
-0.384 -0.0505 -0.500
 0.333 -0.0525  0.631
 0.333 -0.0695 0.0699
 0.304 -0.0216  0.900
-0.360  0.118  0.724
 0.132  0.117  0.262
 0.334 -0.0519  0.523
-0.384 -0.0216  0.869
 0.335 0.0555  0.281
-0.178 0.0132  0.628
 0.246 0.0142 -0.00826
-0.206 0.0227  0.898
-0.384 -0.0978  0.859
 0.225  0.235 -0.268
 0.132  0.117  0.608
 0.200  0.219 -0.000295
 0.294  0.119 -0.779
 0.294  0.119  0.348
-0.120  0.109 -0.858
 0.333 0.0153  0.665
-0.0433  0.119 -0.683
-0.384 -0.0873  0.589
-0.188 -0.0505  0.899
-0.0144 -0.0940 -0.854
-0.384 0.0844 -0.673
 0.330 -0.0888 -0.717
0.0820 0.0458  0.673
 0.333  0.103  0.792
 0.323 -0.0943  0.213
0.0916 0.0132 -0.567
-0.00392 -0.0935  0.895
-0.384 -0.0497  0.895
 0.293  0.196 -0.0243
 0.169  0.118 -0.655
 0.327 0.00734 -0.445
 0.287  0.200 -0.625
 0.125 0.0327 -0.112
 0.231  0.232 -0.214
-0.384 -0.0505 -0.105
 0.110 0.0732  0.582
-0.370 -0.180  0.898
 0.334 -0.0374  0.393
-0.378 -0.0941 -0.220
 0.287  0.199 -0.195
-0.188  0.115  0.884
-0.384 0.0362  0.888
 0.281  0.203 -0.124
 0.333 -0.0596 0.00466
-0.384 -0.00321  0.734
 0.101 0.0162  0.156
 0.272  0.133 -0.403
 0.128 0.0979 -0.124
-0.381 0.00609 -0.0661
 0.334 -0.0526 -0.242
 0.167  0.165 -0.336
 0.256  0.217 -0.333
 0.276  0.139 -0.586
 0.239 0.0764 -0.615
 0.274  0.207 -0.0725
 0.329 -0.0882 -0.368
 0.333 -0.00333 -0.191
 0.117 0.0792 -0.558
 0.244 0.0839 -0.548
-0.360 0.0127  0.618
 0.335 0.0284  0.542
 0.330 0.0747 -0.858
-0.287 0.00311  0.899
 0.143  0.122 -0.605
-0.294  0.112  0.676
-0.178 0.0555 -0.633
 0.140  0.115 -0.844
 0.147  0.121 0.00949
-0.140 0.0555 -0.633
 0.267  0.210 0.0154
 0.312 0.0123 -0.278
 0.333 -0.0385 -0.0634
 0.333 -0.00749  0.739
 0.304 -0.0944 -0.297
 0.333 0.00937  0.110
 0.230 0.0591 -0.00907
 0.146  0.129 -0.248
-0.0425 0.0160  0.898
 0.274  0.207 -0.227
-0.140 0.0177  0.665
 0.335 0.0939  0.175
 0.108 0.0194  0.467
-0.351 0.0140 -0.519
-0.351 0.0140  0.551
 0.294 -0.0944 -0.240
-0.284 0.0142  0.599
 0.207  0.119  0.724
 0.217 -0.0944 -0.471
-0.169 0.0142 -0.220
 0.188  0.119  0.609
 0.294 -0.0944 -0.191
 0.275 0.0142 -0.423
 0.149 -0.0944 -0.346
 0.149 -0.0944  0.387
-0.217 -0.0944 -0.452
-0.00473 0.0142  0.416
0.0724 0.0142 0.0206
-0.00472  0.119 -0.750
-0.0915 0.0132  0.618
-0.0529 0.0142 -0.346
0.0338 -0.0944 -0.413
-0.111 -0.0944 -0.664
-0.111 0.0142 -0.452
0.0145 0.0142  0.445
 0.304 -0.0313 -0.858
-0.111 0.0132  0.368
-0.284 -0.0409  0.899
-0.0722 0.0132  0.435
-0.111  0.119  0.801
-0.284  0.119 -0.712
 0.265  0.119  0.821
 0.149 -0.0944 -0.509
 0.275 -0.0944  0.358
 0.335 0.0651  0.474
-0.178 -0.0944 -0.297
 0.304 -0.0944 -0.692
-0.226 -0.0944  0.213
-0.284 0.0142  0.425
 0.130 -0.0944  0.146
-0.159 0.0458  0.673
0.0917 -0.0944  0.146
 0.227  0.119  0.213
-0.140 -0.0944  0.821
 0.188 -0.0944 -0.278
-0.284 -0.0944 -0.355
 0.188 -0.0944 -0.712
 0.255 0.0458 -0.633
-0.384 0.0651  0.801
-0.207 0.0940  0.673
-0.197 -0.0944  0.339
 0.130 -0.0944  0.763
 0.304 -0.0944  0.474
-0.323 0.0142 -0.0564
-0.101 0.0142  0.136
-0.384 -0.0313 0.0688
-0.0818 0.0142 0.0785
0.0627 0.0142 -0.0950
-0.140 0.0138  0.300
 0.227  0.119  0.348
 0.150  0.119 -0.770
-0.236 -0.0944 -0.664
 0.178 -0.0944 -0.779
 0.101  0.119 -0.721
-0.342 0.0142  0.474
-0.226 -0.0944 -0.519
-0.275 -0.0944  0.262
-0.178  0.119 -0.770
 0.227 -0.0944  0.869
0.0531 0.0142 0.0977
0.00492 -0.0944 0.0978
0.0338 -0.0505 -0.858
 0.217 -0.0944 -0.0854
-0.0240 -0.0944 -0.423
-0.111  0.119 -0.721
0.00492 -0.0944  0.801
0.0338 -0.0944 -0.317
-0.284 -0.0944 0.0399
-0.0143 -0.0944  0.387
-0.130 -0.0944  0.185
-0.207 -0.0944  0.136
-0.0529 -0.0944  0.146
-0.178 0.0142 0.0399
-0.0433 -0.0944 -0.268
-0.0625 -0.0944  0.339
0.00492 -0.0944  0.763
-0.236 0.0142  0.117
-0.384 -0.0216 -0.182
0.00492 -0.0944 -0.500
-0.384 -0.0120  0.290
-0.0529 0.0132  0.213
-0.0722 -0.0944  0.223
-0.0818 0.0142 -0.365
-0.0915 -0.0944 -0.0757
0.0724 0.0142  0.329
 0.159 -0.0944 0.0207
-0.0143 -0.0944 -0.586
-0.0336 -0.0944  0.570
-0.384 -0.0313 -0.529
 0.333 -0.00749 -0.784
-0.101 0.0138  0.204
-0.0625 -0.0944  0.551
-0.0915 -0.0944  0.618
-0.0722 -0.0944 -0.432
 0.217 -0.0944 0.0592
 0.101 -0.0944 -0.0275
 0.275 -0.0944 0.0592
0.0145 0.0132 -0.529
-0.00472 -0.0944 -0.789
 0.130 -0.0505 -0.858
-0.384 -0.0120  0.676
-0.169 0.0134  0.416
0.0531 -0.0944  0.213
-0.0337 0.0135  0.281
 0.336 0.0362  0.637
-0.226 0.0132  0.637
-0.178 0.0132  0.522
 0.335 0.0458  0.589
-0.255 0.0747  0.899
0.0820  0.119  0.840
 0.335 0.0555  0.396
 0.246 -0.0944  0.551
-0.217 -0.0944  0.637
-0.178 -0.0944 -0.760
-0.303 0.0142  0.194
-0.226 0.0142  0.425
-0.197 -0.0944 -0.326
 0.246 -0.0944  0.204
 0.236  0.119  0.175
-0.265 0.0142  0.319
-0.294 -0.0944 -0.750
0.0917 -0.0944 -0.625
 0.217 -0.0944  0.329
 0.217  0.119  0.522
 0.101 -0.0944  0.262
 0.149 -0.0944 -0.625
-0.352 -0.0944  0.454
 0.236 0.0142 -0.461
-0.313 0.0142  0.541
-0.246 -0.0944 -0.423
-0.207  0.119  0.782
0.0820  0.119 -0.673
-0.332 0.0363  0.673
-0.352 -0.0943 -0.750
 0.294  0.119  0.425
 0.275 -0.0944  0.782
 0.330 0.0747 0.0215
 0.110 0.0350  0.609
-0.00472  0.103 -0.633
-0.130 0.0141 -0.615
 0.178  0.184 -0.0757
 0.265 0.0141 -0.615
-0.226 0.0141 -0.615
0.0435  0.119  0.705
-0.352 -0.0944 -0.519
-0.149  0.119  0.868
 0.140  0.119  0.445
 0.334 -0.0382  0.173
 0.216 0.0265 -0.394
0.0113 0.00312  0.899
 0.282  0.152 -0.000747
-0.383 0.00299 -0.606
 0.334 -0.0802 -0.0744
-0.323  0.119  0.859
-0.226 -0.0313  0.899
 0.333 0.0281 -0.683
0.0916 0.0132 -0.413
 0.294  0.119  0.281
 0.333 -0.0380  0.850
 0.219  0.235 -0.577
0.0916  0.109  0.674
 0.110 0.0795  0.449
 0.247 0.0907 -0.000574
-0.332 0.0747  0.673
0.0748  0.111  0.897
 0.333 0.000334 0.0360
-0.0818  0.118  0.877
-0.351 0.0140 -0.172
 0.333 0.0747  0.869
-0.207 0.0100 -0.857
-0.352 -0.0944 0.0592
 0.303 0.0138 -0.0275
 0.184  0.195 -0.240
 0.284 0.0142 -0.172
0.0756 0.0218 -0.857
-0.361 -0.0944  0.204
 0.191  0.208 -0.509
 0.334 -0.0521 -0.450
-0.351 0.0140 0.0592
-0.351 0.0137  0.156
 0.132  0.117  0.194
-0.384 -0.0698  0.117
-0.384 -0.0602 -0.837
-0.120  0.112  0.676
-0.265 0.0844  0.673
 0.169 -0.0944 -0.827
 0.124  0.115  0.541
-0.383 -0.104 -0.815
 0.333 0.00937  0.293
 0.110 0.0789  0.299
 0.334 -0.0372  0.263
 0.219  0.235 -0.0275
 0.303  0.119  0.464
 0.268  0.210 -0.407
 0.333 0.0173  0.772
 0.255 0.0256 0.0209
-0.384 -0.00294 -0.854
 0.187  0.102  0.899
 0.321  0.103  0.899
 0.334 -0.0511  0.428
-0.149 -0.0940 -0.854
-0.169 -0.0944 -0.827
 0.149 -0.00295  0.900
 0.218  0.235 -0.114
 0.310 -0.100  0.875
 0.127 0.0184 -0.480
0.0242 0.0362 -0.858
-0.371  0.109 -0.858
-0.371 -0.0944 -0.615
-0.371 -0.0944 -0.480
 0.333 -0.0123 -0.277
 0.331 0.00295 -0.480
 0.128 0.0979 -0.384
-0.0754  0.109 -0.634
-0.294  0.115 -0.844
 0.223 0.0466 -0.191
 0.244 0.0839 -0.0950
 0.333 -0.00142  0.880
 0.128 0.0979 -0.442
-0.367 -0.117 -0.858
 0.334 -0.0593  0.558
 0.287  0.157 -0.0950
 0.318 -0.102 -0.786
 0.101 0.0135 -0.355
 0.334 -0.0270  0.559
 0.107 0.0474 -0.500
-0.384 0.0275  0.821
 0.332  0.112 0.0431
-0.383 -0.0923 -0.448
-0.226 -0.0873 -0.858
-0.369 0.0102 -0.307
 0.223 0.0466 -0.346
 0.333 -0.00141  0.157
 0.335 0.0284  0.378
 0.111 -0.0944  0.869
 0.323 -0.0941 -0.143
 0.334 -0.0584 -0.120
 0.110 0.0456  0.306
 0.110 0.0261  0.400
 0.110 0.0491 0.0793
 0.329 -0.103  0.818
-0.226 0.0843 -0.858
-0.361 -0.0217  0.899
 0.334 -0.0540  0.119
-0.382 0.0150  0.856
-0.0240 -0.0698  0.899
 0.160  0.153 -0.480
0.0659 0.0177 -0.624
-0.383 0.00299  0.637
-0.383 -0.0923 -0.342
-0.158 0.0227  0.898
-0.351 0.0139  0.301
-0.382 0.0150 -0.686
-0.178  0.109 -0.858
 0.207  0.119 -0.673
 0.204 0.0151 -0.857
-0.384 0.0275 -0.637
 0.320 0.00968 -0.587
 0.333 0.0848 -0.827
 0.216 0.0265 -0.442
 0.273  0.105 0.0216
 0.140  0.116 -0.635
 0.208 -0.0918  0.899
 0.333 0.00937  0.447
 0.220 0.0413 -0.605
 0.333 0.0173  0.705
 0.236  0.119  0.435
 0.323 -0.0943 -0.538
0.0820 -0.0944  0.714
-0.332 0.0142 -0.442
-0.159 -0.0944 -0.201
-0.207 -0.0944  0.175
-0.384 0.0651  0.734
-0.294 -0.0944  0.493
-0.384 0.0940 -0.712
 0.333 0.0844 -0.721
 0.159 -0.0944  0.608
 0.304 -0.0944  0.368
-0.265 -0.0944  0.300
0.0917 -0.0944  0.300
-0.313 0.0142  0.117
-0.0144 0.0142  0.213
-0.169 -0.0944 -0.0661
-0.111 0.0131  0.656
-0.0336  0.119  0.821
 0.246 -0.0409  0.899
0.0242  0.119 -0.779
-0.0818 -0.0944  0.387
-0.130 0.0142 0.00137
0.0627 -0.0944 -0.211
-0.0818 0.0651  0.673
-0.0625 -0.0944  0.676
-0.0722 0.0142 -0.567
-0.0433 -0.0944 -0.374
-0.0529 -0.0944 -0.721
-0.384 -0.0313  0.416
-0.384 -0.0602 -0.798
 0.255  0.119  0.387
-0.120 0.0142 -0.413
-0.0625 0.0132  0.512
-0.0722 0.0132  0.262
0.0242 -0.0944  0.156
-0.265 -0.0944 -0.0275
 0.255 -0.0944 -0.00825
-0.120  0.119  0.753
0.0724  0.119 -0.750
-0.217  0.119 -0.712
 0.188  0.119  0.204
-0.342  0.119 -0.779
 0.132  0.118 0.0977
-0.149 0.0651  0.899
 0.111  0.119 -0.770
-0.313 0.0142 -0.500
 0.217  0.119 -0.760
-0.275 0.0142 -0.606
 0.246 0.0142 -0.394
-0.303 -0.0944 -0.452
-0.303 -0.0944  0.377
 0.217 -0.0944  0.281
 0.217  0.119 0.0689
 0.227 -0.0944 -0.394
-0.332 -0.0944 -0.346
 0.294 -0.0944 -0.471
 0.188 -0.0944  0.522
 0.217 -0.0944 -0.615
-0.332 0.0142  0.233
-0.275 -0.0944  0.146
 0.188 -0.0944  0.252
-0.332 -0.0944 -0.191
 0.140 -0.0944  0.840
 0.169 -0.0944 -0.249
 0.130 -0.0944 -0.750
-0.207 -0.0944 -0.577
-0.284 0.0142 -0.114
-0.246 0.0142 -0.182
 0.159  0.119 -0.731
 0.198 -0.0944 -0.538
 0.227 -0.0944 -0.220
-0.371 -0.0944 -0.134
 0.207 -0.0944  0.676
 0.207  0.119  0.117
 0.207 0.0843 -0.858
 0.111 -0.0944 -0.452
 0.101 -0.0944 -0.336
-0.342 -0.0944 -0.471
-0.361 -0.0944 -0.288
-0.342 -0.0944  0.377
-0.361 -0.0944 -0.558
-0.303  0.119  0.753
 0.284 -0.0944 -0.355
 0.236 -0.0944 -0.259
-0.178 -0.0944  0.869
0.0145 0.0142 -0.0468
-0.352 -0.0944 -0.0854
-0.0240 0.0844  0.899
 0.230 0.0103  0.898
-0.0336 -0.0944 -0.0950
0.0435 -0.0944  0.368
-0.0433 -0.0944 -0.201
-0.384 -0.0602  0.608
-0.384 -0.0602  0.474
-0.0143 0.0132 -0.374
0.00491 0.0142  0.493
-0.111 0.0137  0.242
-0.361 0.0940  0.673
 0.332  0.112  0.139
-0.0625 0.0142 -0.269
-0.0144 0.0142 0.0977
-0.0433 -0.0944 -0.0179
-0.384 -0.0409 -0.0275
-0.111 0.0132  0.560
0.00492 -0.0944 0.0592
-0.0625 0.0142 -0.0468
-0.384 -0.0602 0.0785
0.0242 -0.0944 -0.00825
-0.0336 0.0142 0.00137
0.0627 -0.0944 -0.105
 0.335 0.0362 0.0688
-0.0433 0.0142 -0.182
0.0435 0.0132 -0.413
0.0338 -0.0944 -0.721
0.0627 0.0142  0.474
-0.101 -0.0944 -0.394
-0.0625 0.0132  0.608
-0.111 -0.0944  0.589
-0.0722 -0.0505 -0.858
-0.384 -0.0313 -0.336
-0.0625 -0.0944 0.0496
0.0146 -0.0944 -0.0372
-0.384 -0.0409  0.136
-0.0336 -0.0944 -0.143
 0.265 -0.0795 -0.858
-0.384 -0.0216  0.319
-0.384 -0.0216 -0.490
0.0820 -0.0944 -0.654
-0.0722  0.119  0.724
 0.236 -0.0944 -0.0372
0.0916 0.0142 -0.0372
0.0820 -0.0409  0.900
-0.384 -0.0120 -0.702
-0.101 0.0142 -0.162
-0.384 -0.0409 -0.230
0.00491 0.0132 -0.567
-0.120 -0.0944  0.127
-0.323 -0.0944 0.0881
0.0146 -0.0944  0.589
-0.101 -0.0944  0.830
-0.264 0.0227  0.898
 0.217  0.190 0.0194
 0.335 0.0651  0.165
 0.227 0.0141 -0.558
 0.236 0.0142 -0.249
 0.217 -0.0944 -0.770
 0.284 -0.0944 -0.770
 0.284 -0.0944  0.734
 0.159 -0.0944 -0.374
 0.121 -0.0944 -0.529
 0.275  0.119  0.165
 0.294 0.0142 -0.0854
-0.265 0.0142 -0.394
-0.342 -0.0944 -0.779
 0.265 -0.0944 -0.644
-0.332 0.0142 -0.211
-0.0433 0.0132  0.637
0.0435 -0.0944 0.0399
 0.207 0.0362  0.899
0.0435 -0.0944  0.319
-0.140 0.0142 -0.374
-0.149 -0.0944 -0.317
0.0435  0.119 -0.664
-0.0529 0.0132  0.329
-0.0722  0.119 -0.770
0.0820 -0.0944 -0.471
-0.0240 0.0138  0.464
0.0627 -0.0944 -0.509
-0.384 -0.0409  0.734
0.0531 -0.0944  0.262
0.0145 0.0132 -0.355
-0.323 0.0142 -0.00826
-0.0625 0.0134  0.146
-0.0818 -0.0944  0.165
-0.0818 0.0142 -0.240
0.0435 -0.0944  0.859
0.0435 -0.0944  0.714
0.0531 -0.0944 -0.789
0.0146  0.119 -0.721
-0.384 -0.0602 -0.741
-0.159 -0.0602  0.899
-0.236 -0.0944 0.0207
0.0435  0.119  0.830
 0.198  0.119  0.406
 0.198  0.119  0.271
-0.384 -0.0602 -0.606
-0.0915 0.0132  0.493
-0.384 -0.0313 -0.394
0.0242 -0.0944 -0.259
-0.169 0.0142 -0.0275
-0.246 0.0142 0.0496
0.0435 -0.0944 -0.615
-0.111 -0.0944 -0.567
-0.0625 -0.0944  0.454
 0.284  0.119 -0.750
 0.236  0.119  0.560
-0.275 -0.0944 -0.664
-0.323 -0.0944  0.628
-0.246 -0.0944  0.580
 0.121 -0.0944 -0.779
-0.313 -0.0944 -0.664
-0.303 -0.0944 -0.519
-0.284 -0.0944  0.657
 0.236  0.119  0.474
 0.294 -0.0944  0.262
 0.275 -0.0944 -0.326
 0.265 -0.0944  0.425
 0.265 0.0142 -0.288
-0.217 0.0142  0.339
-0.188 -0.0944 -0.134
-0.188 -0.0944  0.396
-0.236 -0.0944 -0.394
0.0627 0.0142 -0.134
-0.294 0.0142  0.252
-0.188 0.0142 -0.182
0.0820 0.0142  0.290
-0.313 -0.0944  0.445
 0.101 -0.0944  0.204
-0.313 0.0142  0.290
 0.265 -0.0944 -0.394
 0.265 0.0651 -0.858
 0.207 -0.0944 -0.664
 0.227 -0.0944 -0.355
-0.217 0.0142 -0.471
-0.323 -0.0944  0.560
-0.236  0.119 -0.779
-0.188 0.0142  0.281
 0.246 -0.0944  0.348
 0.246 -0.0944 -0.750
-0.303 -0.0944  0.339
 0.121 -0.0944  0.503
 0.255 -0.0944  0.589
-0.284 0.0142 -0.490
-0.178 0.0142 -0.558
-0.303 -0.0944 -0.558
-0.159 -0.0944 -0.644
-0.159 -0.0944  0.666
 0.294 -0.0944 -0.124
 0.159  0.119  0.792
 0.159 -0.0944 -0.288
-0.246 0.0142 -0.317
 0.275 0.0142 -0.558
-0.246  0.119  0.782
-0.384 0.0555 -0.750
-0.265 -0.0944 -0.721
 0.140 -0.0944  0.454
-0.217  0.119 -0.818
-0.149 0.0142 -0.471
0.0724 -0.0944  0.686
 0.178  0.119  0.753
-0.217 -0.0944  0.821
-0.265 0.0142 -0.529
0.0724 -0.0944 -0.307
 0.333 -0.0309 -0.634
 0.333 -0.0784 -0.641
-0.383 0.00299  0.483
 0.335 0.0844  0.657
 0.236 0.0142 -0.307
 0.236 0.0142 -0.0468
0.0916 0.0132 -0.452
-0.323 -0.0944 -0.818
 0.237 0.0715 -0.577
-0.384 -0.00321 -0.0275
-0.0143  0.118  0.877
 0.102 0.0544 -0.625
 0.312  0.118 -0.721
 0.294  0.119 -0.827
-0.246  0.119  0.714
-0.120  0.119 -0.673
 0.255 0.0142 -0.0854
 0.130 -0.00323 -0.858
-0.351 0.0137  0.406
-0.0915 0.0141 -0.615
 0.227 0.0141 -0.182
 0.167  0.165 -0.403
 0.244 0.0839 -0.384
 0.230 0.0591 -0.538
-0.351 0.0140 -0.346
-0.111  0.115  0.885
-0.360  0.118  0.811
 0.149  0.112  0.674
-0.384 0.0362  0.686
 0.246 0.0275 -0.858
 0.334  0.109  0.335
 0.167  0.165 -0.211
 0.334 -0.0625 -0.736
-0.0240 -0.0120 -0.858
 0.110 0.0909  0.551
 0.208  0.228 -0.297
 0.248 0.0901 -0.153
 0.287  0.157 -0.355
 0.195  0.214 -0.538
-0.303 -0.102 -0.842
 0.167  0.165 -0.0275
 0.332 -0.0311 -0.845
