ply
format ascii 1.0
element vertex 2048
property float x
property float y
property float z
end_header
-0.317 -0.623 0.0496
 0.653  0.662  0.240
-0.645  0.667 -0.152
 0.653 -0.371 -0.170
-0.00517  0.139 -0.167
-0.648 0.0324  0.262
-0.112  0.654  0.262
 0.200 -0.310  0.262
 0.618  0.223 -0.167
 0.253  0.654 -0.167
 0.652 -0.708  0.272
 0.177 -0.620 -0.176
-0.636 -0.241 -0.176
 0.653 -0.0360  0.269
 0.276  0.332  0.225
-0.165 0.0172  0.262
-0.545  0.215 -0.165
-0.631  0.494  0.274
-0.210  0.542 -0.167
-0.127 -0.287 -0.165
-0.632 -0.412  0.273
 0.276 -0.173 -0.165
-0.644 -0.708 -0.163
 0.641  0.625 -0.176
0.0405 -0.643  0.194
-0.309  0.352  0.187
 0.652  0.306  0.179
-0.279 -0.318  0.255
 0.653 -0.707 -0.0900
 0.653 -0.363  0.179
 0.208 0.00681  0.141
 0.322  0.659  0.164
-0.302 0.00681 -0.0645
 0.299  0.321 -0.165
 0.360 -0.623 0.0953
-0.408  0.659  0.103
 0.652 -0.0741 -0.0569
-0.0128  0.332 0.0724
-0.648 -0.704  0.181
-0.401 -0.431 -0.174
-0.124 -0.620 -0.169
0.0100  0.659 -0.0188
-0.628 -0.469 -0.00359
 0.421 -0.318 0.0268
-0.0280 -0.318  0.103
-0.648  0.428 0.00401
-0.279  0.268 -0.165
-0.648 -0.0208 -0.00359
 0.390 0.0704 -0.167
0.0404  0.435 -0.167
 0.436 -0.561 -0.176
-0.408 0.0271  0.171
-0.454  0.466 -0.167
-0.439 -0.298 0.0572
-0.0280 0.00681 0.0420
 0.443  0.332 0.0344
 0.443 0.0261 0.0724
 0.124 -0.363 -0.174
-0.203 -0.630  0.262
 0.633  0.496 0.0344
-0.629  0.207  0.103
-0.648 -0.218  0.141
 0.451  0.638 -0.0416
-0.363 -0.203 -0.165
-0.648  0.664  0.118
-0.0128 -0.0893 -0.166
 0.653  0.131 0.0344
 0.109  0.638  0.225
 0.504  0.413 -0.165
-0.454 -0.636  0.262
 0.421 -0.298  0.247
 0.633 -0.568 0.0801
 0.200 -0.318 0.0420
 0.497 -0.218 -0.165
-0.195  0.658 0.0496
 0.185 0.0271 -0.118
-0.507 -0.0437 -0.167
-0.340 -0.636 -0.167
-0.378  0.659 -0.110
-0.461  0.332 0.0268
-0.226 -0.318 0.0192
 0.185  0.352 0.0116
 0.337 -0.378 -0.174
-0.507 -0.643 -0.0264
-0.0913  0.349  0.260
0.0252 -0.643 -0.0340
-0.522  0.332  0.217
 0.365 0.0261  0.260
 0.633 -0.272 -0.00359
 0.641  0.473  0.275
0.0252 0.0271  0.240
 0.466  0.332  0.247
-0.218  0.351 -0.00358
-0.469 -0.298  0.255
 0.238 -0.643  0.240
-0.507  0.654  0.262
-0.568 -0.538 -0.174
 0.443 -0.630  0.262
 0.200  0.638 0.0268
-0.203 -0.112 -0.167
 0.637  0.147  0.273
 0.633  0.314 -0.00359
-0.317  0.654  0.262
-0.636  0.451 -0.176
 0.177 -0.643 0.0648
-0.0508 -0.454 -0.176
 0.651 -0.518  0.273
 0.474  0.654  0.262
-0.119 -0.622 0.0724
0.0937  0.332  0.217
-0.104  0.332 -0.140
 0.633 -0.150  0.133
 0.162  0.207 -0.166
-0.648 0.0704 -0.163
-0.180  0.108 -0.167
-0.393  0.124 -0.166
 0.626 -0.546 -0.173
-0.461 0.00681 0.00401
-0.107 -0.299  0.260
 0.588  0.658 0.0800
 0.497 -0.622 -0.0112
-0.203 0.0271 0.0952
-0.241 -0.492 -0.176
0.0785  0.610 -0.167
 0.352  0.489 -0.167
-0.648 -0.295 -0.0112
 0.588 0.0401 -0.165
 0.299 -0.643 -0.0569
-0.0812  0.659 -0.156
-0.507 -0.318 -0.110
 0.451  0.223 -0.167
-0.545  0.638 -0.0264
 0.653 -0.447 -0.0264
-0.648 -0.546  0.148
0.0100 -0.298 -0.0797
-0.648 -0.704 0.0135
 0.101 -0.203 -0.167
 0.653 -0.211 -0.170
 0.193  0.504 -0.167
 0.653  0.375 -0.148
 0.633 -0.234  0.263
 0.527 0.0261  0.202
-0.637 -0.120  0.275
 0.504 -0.409 -0.176
-0.648 -0.393 -0.170
-0.648  0.184  0.269
-0.648 -0.378  0.126
-0.309  0.420 -0.167
-0.648  0.261 -0.0645
-0.431  0.314 -0.167
 0.497  0.565 -0.165
 0.223 -0.477 -0.174
-0.575 0.0271  0.118
-0.271 -0.325 -0.173
-0.127 0.00681 -0.0721
 0.117 0.0271 0.0192
 0.276 0.00681 -0.00359
 0.314 -0.299  0.133
0.0404 -0.298  0.255
0.0557  0.332 -0.0645
-0.0584  0.659  0.126
-0.530 -0.643  0.118
 0.428 -0.0893 -0.165
-0.648  0.390  0.171
-0.226 -0.622 -0.0645
 0.535 -0.299  0.126
 0.653 -0.703  0.127
 0.652 -0.00563 0.0800
-0.629 -0.150 -0.0645
-0.172  0.352  0.141
-0.233  0.659 -0.0872
 0.527 -0.643  0.148
-0.648  0.656  0.269
 0.299  0.177 -0.165
0.0480 -0.553 -0.176
 0.162  0.367 -0.166
-0.637 -0.272  0.274
-0.628  0.116 -0.0340
 0.573 -0.0969 -0.167
-0.648 -0.599 -0.0797
 0.307  0.332 0.0724
 0.633  0.504 -0.102
-0.317 -0.622  0.187
0.0252 0.0271 -0.0949
 0.253 -0.298 -0.102
-0.522  0.610 -0.165
-0.317 -0.298  0.118
 0.535 0.00681 -0.0264
-0.0660  0.519 -0.166
 0.527 -0.318 -0.0797
-0.188 -0.318  0.148
-0.309 0.0228  0.262
 0.314  0.638 -0.0493
-0.332 -0.0741 -0.167
 0.653  0.565  0.148
-0.629  0.534  0.141
 0.653  0.666 -0.0348
-0.568  0.351 -0.118
-0.469 -0.622 -0.156
 0.238  0.643  0.262
 0.459  0.658  0.133
 0.101 -0.318  0.126
 0.307 -0.0284 -0.167
 0.535  0.332  0.126
 0.535 -0.642 -0.162
-0.648  0.565 -0.00359
-0.522 0.00703  0.255
-0.648 -0.0741  0.148
-0.370 -0.318 -0.0493
0.0785  0.638 0.0877
-0.586 -0.625  0.260
 0.124 -0.0740 -0.165
-0.0812 -0.622  0.225
 0.299 -0.584 -0.176
 0.633  0.184  0.148
 0.405 0.0271 -0.0493
-0.104 -0.298 -0.0264
-0.355  0.549 -0.167
-0.226  0.659  0.171
 0.421  0.352 -0.0949
-0.340  0.332 0.0496
-0.583  0.332 0.0496
 0.147 -0.643 -0.0569
 0.653 -0.576 -0.0416
-0.408  0.344  0.262
 0.383 -0.264 -0.166
 0.653  0.420  0.133
-0.325 0.0271 0.0800
 0.413  0.654 -0.167
 0.208 0.0228  0.262
-0.340  0.638 0.00401
-0.648 -0.0512 -0.133
 0.653  0.139 -0.0873
 0.200  0.659  0.148
 0.345 0.0261  0.141
-0.112  0.207 -0.167
 0.307  0.352 -0.0493
-0.530  0.659  0.133
0.0785 0.0271  0.133
-0.560 0.0261 -0.0872
0.0253  0.276 -0.165
 0.185  0.332  0.141
-0.553 -0.158 -0.167
 0.383  0.332  0.164
 0.535  0.332 -0.0721
-0.515  0.101 -0.167
-0.416  0.332  0.141
-0.0736 0.0271  0.148
 0.573 -0.623  0.255
-0.629  0.329  0.269
0.0557 -0.622 0.0800
-0.393 -0.623 -0.0644
 0.124 -0.298 -0.0569
-0.553 -0.298 0.0800
 0.633 -0.439 0.0877
-0.112 -0.643 -0.0416
-0.104 -0.173 -0.165
-0.157 -0.409 -0.176
-0.393 -0.314 -0.173
-0.628  0.557 -0.125
-0.643  0.283 -0.176
 0.550  0.659 -0.118
-0.210  0.367 -0.167
-0.648 -0.523  0.269
0.0937 0.0780 -0.167
-0.203  0.352  0.255
-0.104  0.352 0.0116
-0.560 -0.318  0.194
-0.309  0.352 -0.0797
-0.294 0.0476 -0.167
-0.423 -0.622 0.0953
-0.628 -0.120 0.0420
 0.360  0.658 0.0496
-0.629  0.124  0.179
 0.565 -0.318  0.240
 0.436 -0.643 -0.102
 0.633 0.0628  0.202
-0.203 -0.643  0.141
-0.0660 0.0476 -0.165
0.0480 -0.298 0.0268
 0.360 -0.298 -0.0645
 0.489 0.00681 -0.133
-0.545 -0.431 -0.174
-0.211 -0.298 -0.0873
 0.428 -0.318  0.141
 0.653 -0.264  0.103
 0.573  0.352  0.255
 0.314 -0.318  0.247
 0.653 -0.150 0.0268
-0.469 -0.226 -0.165
 0.636 -0.710 0.0163
-0.00516  0.659  0.247
-0.279  0.154 -0.167
-0.431 -0.120 -0.167
-0.408 0.00197 -0.167
 0.367  0.639  0.260
 0.208 -0.298  0.148
-0.0204 -0.643 -0.156
 0.170  0.638 -0.102
 0.647 -0.409  0.275
-0.210 -0.218 -0.165
-0.195 -0.00577 -0.166
0.0937  0.332 0.0724
-0.347 -0.530 -0.174
-0.00515 -0.211 -0.165
 0.653 0.0476 -0.0340
 0.550  0.658  0.187
 0.307 -0.298 0.0268
 0.634  0.254  0.269
 0.269 0.0704 -0.165
-0.112  0.638 -0.0569
-0.211 0.0265 -0.0112
-0.648 0.0932 0.0800
-0.646  0.669 -0.0249
-0.228 -0.630 -0.170
-0.393 -0.318  0.187
 0.269  0.420 -0.167
 0.367 -0.477 -0.176
 0.481  0.124 -0.165
 0.337 -0.643  0.194
-0.648 -0.477 -0.110
-0.142  0.451 -0.167
0.00243  0.352  0.171
 0.550 0.0261 0.0724
-0.286  0.625 -0.167
-0.648 -0.568 0.0496
 0.633 -0.591  0.179
 0.512  0.306 -0.167
 0.653  0.420 -0.0493
 0.633 -0.355 -0.0720
 0.633 -0.0512  0.171
 0.147 -0.622  0.202
 0.550  0.638 -0.0112
-0.423  0.638  0.209
-0.0128 -0.325 -0.173
 0.519 -0.298 0.0268
 0.653  0.245 0.0724
-0.628 -0.371 -0.0720
 0.177 -0.279 -0.167
-0.446 -0.523 -0.176
 0.276  0.557 -0.165
-0.385  0.223 -0.165
 0.223 -0.0816 -0.165
 0.527 -0.523 -0.176
-0.309  0.659  0.103
 0.565 -0.643 0.0572
 0.109  0.659 -0.0188
-0.112 -0.0741 -0.167
-0.553 -0.318 -0.0188
-0.401 0.0263 -0.0720
-0.210 -0.643 0.0420
-0.134 -0.523 -0.176
 0.653  0.268 -0.0873
 0.390 -0.622 -0.0188
-0.142 -0.298 0.0648
-0.629  0.177 -0.133
 0.365  0.349  0.260
0.0785 -0.643 -0.125
 0.652 -0.0436 -0.156
 0.633 -0.348 0.0572
-0.233 0.0271  0.187
-0.629 -0.614 -0.176
-0.647 -0.140 -0.174
 0.428 -0.348 -0.176
 0.558 -0.295 -0.167
-0.629  0.451 0.0952
-0.256  0.332 0.0952
 0.633 -0.188 -0.0796
 0.177  0.337  0.262
-0.431  0.658 -0.0112
-0.648  0.382 -0.0797
 0.200  0.332 -0.0873
-0.560 -0.623 -0.102
-0.0888  0.638 0.0344
-0.545  0.489 -0.167
 0.542  0.352 0.0192
 0.375  0.390 -0.167
 0.653  0.572 -0.0340
 0.653  0.595 0.0572
-0.648 -0.659 0.0953
-0.647 -0.704  0.274
-0.294 -0.416 -0.174
0.0937  0.511 -0.167
 0.653 -0.127  0.255
-0.172  0.654 -0.167
 0.185  0.108 -0.167
 0.633 -0.462  0.202
-0.0432  0.397 -0.165
-0.648  0.306  0.133
 0.588 -0.643 -0.0873
-0.469  0.658 -0.102
-0.188  0.276 -0.165
 0.443  0.481 -0.167
-0.648 -0.447  0.187
 0.269 -0.643 0.0724
 0.466 -0.643 0.0800
0.0404 -0.462 -0.176
 0.375 -0.173 -0.167
 0.580  0.131 -0.167
-0.648  0.261 0.0268
 0.223 -0.386 -0.174
-0.0736 0.0271  0.240
-0.454  0.351 -0.0872
0.0100  0.659 -0.110
 0.352 0.0268 0.0420
-0.134 0.00681 0.0344
 0.618 -0.454 -0.174
-0.648 0.0324  0.171
-0.591  0.638  0.202
-0.568 -0.333 -0.174
-0.628 -0.241 -0.0873
-0.492 0.00681  0.141
-0.0280 -0.643  0.103
-0.515  0.352  0.103
-0.0508 -0.553 -0.176
-0.0812  0.352  0.141
-0.172  0.352 -0.0873
-0.0280 -0.318  0.202
 0.291 0.00681  0.209
 0.550  0.489 -0.165
-0.286 -0.150 -0.165
-0.0204  0.595 -0.166
-0.591  0.638 0.0496
-0.411 0.0261  0.260
-0.423 0.0271 0.0800
 0.466  0.658 0.0420
-0.591 -0.623 -0.0112
-0.00518  0.338  0.262
 0.651  0.387  0.273
 0.231  0.261 -0.165
-0.515 -0.622  0.202
 0.653  0.215 -0.0188
 0.269  0.658 0.0952
-0.477 -0.378 -0.174
 0.421 -0.643  0.171
-0.648 -0.310  0.179
 0.633  0.382 0.0496
-0.484 -0.298  0.133
 0.109  0.298 -0.167
-0.309 -0.622 -0.0872
 0.367  0.245 -0.167
-0.648  0.238  0.187
 0.193 0.00681 -0.0340
-0.628 -0.371 0.0420
-0.648 -0.203 0.0496
-0.347  0.331 -0.156
-0.492  0.375 -0.167
-0.317 -0.318 0.0344
-0.648 -0.485 0.0877
0.0481 -0.0284 -0.167
-0.648 -0.0132 0.0877
-0.104 -0.298  0.148
-0.638 -0.709 -0.0775
 0.443 0.00681  0.156
 0.124 -0.298  0.225
 0.139 -0.462 -0.176
-0.446  0.572 -0.167
 0.291 -0.257 -0.167
 0.653  0.549  0.232
-0.0204  0.332 -0.0264
0.0785  0.192 -0.166
 0.653 -0.485 -0.102
 0.193 -0.196 -0.167
 0.653 -0.325  0.263
-0.499  0.658 0.0420
 0.459 0.00681  0.247
-0.522  0.332 -0.0416
 0.124 0.0114  0.262
-0.195  0.638  0.247
-0.355 0.00681 0.00401
-0.477 0.00681 -0.102
 0.633 -0.690 -0.170
 0.388 -0.630 -0.170
 0.596  0.314 -0.166
-0.294 -0.298 -0.0797
-0.401 -0.622  0.187
-0.190 -0.299  0.260
-0.226  0.451 -0.165
 0.633 0.0780 0.0953
-0.648 -0.621  0.187
0.0557 -0.279 -0.166
 0.633 -0.287 -0.118
-0.648  0.473 -0.0645
 0.215 -0.643 -0.0112
 0.633 -0.279  0.194
-0.648  0.162 0.0344
 0.428  0.314 -0.167
 0.261 0.00681 -0.0949
-0.150  0.638  0.148
 0.200  0.587 -0.165
-0.648 -0.0436  0.232
-0.522  0.299 -0.165
 0.653 -0.599  0.263
-0.537 0.0261 0.0268
-0.119  0.587 -0.167
 0.652 0.0932 -0.174
-0.626  0.367 -0.172
 0.527  0.192 -0.166
 0.603  0.549 -0.165
-0.648 -0.158  0.194
-0.401  0.332 -0.0264
 0.653 -0.500 0.0344
 0.109 -0.622 0.0192
-0.104 -0.643  0.148
 0.618  0.352 -0.0797
 0.459  0.351  0.110
-0.294 -0.249 -0.165
 0.413 -0.00577 -0.165
 0.329 -0.104 -0.165
 0.101 0.0271 -0.0721
 0.231 0.00681 0.0648
-0.416 -0.623 0.0116
 0.352  0.580 -0.165
-0.431 -0.298 -0.102
0.00244 0.00681  0.126
-0.0204  0.352 -0.102
 0.653 -0.507  0.141
-0.0508 0.0271 -0.0721
 0.147 0.0271  0.187
 0.481 -0.318  0.202
-0.484 -0.643 0.0496
 0.101 -0.643  0.141
 0.208 -0.318 -0.0416
-0.591 0.0172 -0.167
-0.264  0.658 0.00400
-0.477 -0.299 -0.0188
 0.231  0.351 0.0800
 0.147 0.0266 0.0952
-0.628  0.572 0.0724
-0.226 0.00681 -0.0949
 0.618  0.451 -0.165
 0.238 -0.643 -0.133
 0.474 -0.298 -0.133
 0.626  0.637  0.171
-0.629  0.108  0.269
 0.367  0.659 -0.102
-0.648  0.481  0.194
-0.648 -0.310 -0.118
0.0481 0.00681 -0.0112
-0.309 0.0271  0.171
-0.0812  0.124 -0.165
 0.653  0.321  0.103
0.0177  0.659  0.141
-0.648 0.0552 -0.0873
 0.633  0.451  0.202
 0.633 -0.0740 0.0496
 0.345 0.00681 -0.110
 0.633 -0.667  0.209
 0.565  0.654  0.262
-0.325 -0.636  0.262
-0.568  0.638 -0.110
 0.653 0.0324 -0.125
-0.393 -0.303  0.262
-0.568 0.0271  0.194
 0.215 -0.553 -0.175
-0.378  0.473 -0.167
 0.276  0.638 0.0192
0.0937  0.638 -0.0948
-0.461  0.215 -0.165
-0.165  0.352 0.0648
 0.653 -0.599 -0.125
 0.459 -0.469 -0.174
-0.286  0.496 -0.167
-0.631  0.418  0.274
 0.147  0.443 -0.167
0.0861  0.375 -0.167
-0.157 -0.622  0.202
 0.276  0.351  0.141
 0.633 -0.127 -0.125
-0.553 -0.234 -0.167
-0.401 -0.591 -0.174
 0.124  0.352 -0.102
 0.367 -0.318 0.0800
-0.648 -0.523 -0.170
-0.0280 -0.643 0.0192
-0.393  0.390 -0.165
-0.648 -0.302 0.0648
 0.443 -0.298 -0.0416
-0.648  0.352 -0.0112
 0.565 -0.188 -0.167
-0.294 -0.643  0.118
 0.596 -0.643 -0.0112
 0.642 0.0482  0.275
-0.648 -0.150  0.110
 0.611 0.00681 0.0192
-0.165 0.00681  0.156
-0.628  0.200 -0.0264
 0.367  0.352 0.0344
 0.633  0.610 -0.0948
 0.253  0.659 -0.0872
 0.215 -0.623  0.126
 0.124 -0.568 -0.175
-0.598  0.332  0.202
-0.423  0.654 -0.167
-0.628  0.610 -0.0645
-0.0660 -0.622 -0.102
 0.322 -0.622 0.0268
 0.653 -0.621 0.0344
 0.466  0.659 -0.110
 0.253 -0.320 -0.176
 0.413  0.638  0.187
 0.261 -0.318 0.0877
 0.504 -0.0740 -0.165
-0.0432 -0.0208 -0.167
-0.264 -0.0512 -0.166
-0.629  0.557  0.209
 0.383  0.659 -0.0188
0.0405 -0.318  0.179
-0.0204  0.638 0.0572
 0.329  0.648 -0.167
 0.322 -0.643 -0.125
-0.0660  0.276 -0.165
 0.132  0.638  0.156
-0.0432 -0.298 0.0116
 0.299 -0.439 -0.174
-0.210 -0.561 -0.174
0.0633 -0.112 -0.165
-0.302 -0.643 -0.0188
-0.241 -0.622  0.202
-0.0964  0.352 -0.0721
 0.512 -0.623  0.217
 0.580 -0.393 -0.174
-0.188  0.638 -0.0188
0.0177 0.0401 -0.165
 0.603 -0.318  0.118
 0.527  0.351  0.194
 0.147  0.658 0.0800
 0.124  0.332 -0.0340
 0.253  0.332 0.0116
-0.332  0.638  0.194
-0.492 0.0324 -0.167
-0.271  0.332  0.254
-0.553 -0.623 0.0496
-0.286 0.0261 0.00401
 0.304 -0.625  0.260
-0.628 -0.0512 -0.0645
-0.0736 -0.318 -0.0873
 0.550 0.0271 -0.102
-0.233  0.332  0.171
0.0252 -0.630  0.262
-0.629 -0.188  0.255
 0.246 -0.298  0.209
-0.648 -0.348  0.247
 0.596 -0.623  0.118
 0.223 -0.00563 -0.167
 0.147 -0.00563 -0.167
-0.0584 -0.378 -0.176
-0.613 -0.462 -0.174
 0.580  0.382 -0.167
-0.325  0.352  0.118
-0.172 -0.340 -0.176
 0.652  0.321  0.247
-0.583  0.352  0.118
 0.519  0.658 0.0952
-0.469 -0.622  0.148
-0.648  0.352 0.0800
-0.241 -0.318 0.0877
0.0633 0.0265 0.0648
-0.648 -0.553 -0.0264
 0.200  0.659 -0.0416
-0.0584 -0.272 -0.167
 0.653 -0.196 0.0800
-0.226 -0.393 -0.175
-0.286 -0.591 -0.174
 0.504  0.641 -0.167
-0.643  0.260  0.275
 0.269  0.352 -0.110
-0.537 -0.315  0.260
 0.652 -0.416 -0.118
 0.329 -0.318 -0.140
-0.591  0.108 -0.167
0.0556 -0.355 -0.176
0.00244  0.207 -0.165
 0.261  0.489 -0.165
0.0253  0.519 -0.165
 0.375  0.352 -0.0416
 0.428  0.572 -0.165
 0.633  0.131  0.194
 0.633 -0.211  0.187
-0.340  0.332  0.247
 0.375 -0.636  0.262
 0.459  0.332 -0.0416
 0.231  0.192 -0.167
-0.0280 -0.643  0.187
 0.481 0.0271 0.0116
-0.0584  0.638  0.209
-0.172 -0.622 -0.0112
-0.0432  0.638 -0.0569
-0.286  0.351 -0.00359
 0.117  0.332  0.141
-0.188  0.207 -0.165
-0.469 0.0271  0.217
-0.355 0.0271 -0.133
-0.648 -0.599  0.262
 0.519 -0.643 -0.0721
-0.150 0.0476 -0.165
 0.390  0.332 0.0952
 0.284 -0.298 -0.0416
 0.337  0.352 -0.110
-0.537 -0.599 -0.174
 0.269 -0.643  0.179
-0.648  0.504 0.0268
-0.621 0.0284 0.0344
 0.504 -0.340 -0.176
 0.284 0.0261  0.110
-0.284  0.354 -0.161
 0.383  0.638  0.110
 0.652  0.207  0.209
 0.504 0.0261  0.133
 0.580 -0.299 0.0573
-0.484  0.638  0.179
 0.598 -0.620 -0.169
-0.0204 0.00681  0.194
-0.188 -0.643 -0.118
-0.461 -0.623 -0.0721
 0.147 -0.299 0.0800
 0.155 -0.318 -0.118
-0.466 -0.293 -0.162
 0.653  0.641  0.110
 0.231  0.327 -0.162
 0.653  0.169 -0.148
-0.591 -0.0588 -0.165
-0.598 -0.622  0.118
-0.134  0.352  0.209
 0.588 -0.318 -0.0188
-0.355 0.00681  0.217
-0.243 0.0261  0.260
 0.633 -0.507 -0.0416
-0.648 -0.431 -0.0569
-0.0888  0.332 0.0724
-0.401  0.352 0.0648
 0.474 -0.614 -0.173
-0.210  0.638  0.110
-0.385  0.332 -0.102
-0.294 -0.298  0.194
-0.583  0.580 -0.167
-0.507 -0.485 -0.176
 0.132  0.572 -0.167
 0.367 -0.298  0.209
-0.370 -0.298 0.0800
 0.588 0.0261  0.126
0.0481  0.659  0.209
 0.132  0.648 -0.167
 0.185  0.638  0.225
-0.233  0.332 -0.118
 0.481 -0.135 -0.167
 0.390 -0.416 -0.174
 0.443  0.390 -0.167
-0.0204  0.336 -0.167
-0.454  0.146 -0.167
-0.0964 0.0271 0.0876
 0.322  0.116 -0.165
-0.568  0.428 -0.167
 0.633 -0.371 -0.00359
 0.633  0.473 0.0953
-0.142 -0.318 -0.110
-0.591  0.351 -0.0569
-0.598 0.00681 -0.0340
 0.633  0.542 0.0877
-0.628 -0.196 -0.0112
-0.446  0.352  0.194
-0.317  0.638 -0.102
-0.469  0.638  0.110
0.0633  0.352 0.0192
-0.499 -0.318 0.0496
-0.0356 -0.622 -0.0416
 0.101 -0.622  0.247
-0.492  0.527 -0.167
 0.223 -0.622 -0.0720
-0.256 0.00681 0.0648
-0.165 -0.318 -0.0188
0.0861 -0.622 -0.0645
-0.648  0.610  0.179
-0.629 -0.257  0.209
 0.253  0.659  0.202
 0.375 0.00681  0.194
 0.588  0.351  0.156
 0.481 -0.318 0.0953
0.0328 -0.298  0.103
-0.648 -0.196 -0.133
 0.573  0.625 -0.167
-0.568 -0.299 -0.110
 0.147 -0.643 -0.125
-0.598 -0.318  0.141
-0.378  0.610 -0.166
 0.611  0.659 0.0116
 0.596 0.0271 -0.0493
 0.314  0.659  0.232
-0.648  0.603 -0.163
 0.497 0.0628 -0.167
 0.405  0.131 -0.165
 0.489  0.352 -0.110
 0.428  0.352  0.202
-0.172 -0.469 -0.174
 0.284 -0.500 -0.176
-0.150  0.527 -0.165
 0.170  0.276 -0.167
 0.155  0.332  0.202
 0.436 -0.188 -0.167
-0.484  0.638 -0.0416
-0.172  0.659 -0.102
-0.446 -0.0589 -0.167
-0.134  0.659 0.0724
0.0633  0.638 0.0268
 0.653 0.0628 0.0268
 0.588 -0.0360 -0.167
-0.385 -0.299 0.0192
 0.633 -0.203 -0.0188
 0.421 -0.623 0.0420
 0.329 0.00681 -0.0493
-0.648  0.489 -0.125
-0.575 -0.622  0.187
-0.648 -0.629 0.0344
 0.626 0.00505  0.225
-0.629 -0.439  0.126
-0.648 0.0780  0.217
 0.390 0.00681  0.103
 0.565 0.00681  0.247
 0.580 -0.643  0.187
-0.568  0.337  0.262
-0.150 -0.318  0.217
-0.134 0.0271  0.209
-0.0381 -0.299  0.260
-0.0888 -0.318 0.0877
-0.628 -0.104 -0.110
 0.633 -0.386  0.126
 0.489 -0.310  0.262
-0.325  0.101 -0.165
 0.596  0.332 0.0420
-0.233 0.0552 -0.165
-0.355 -0.264 -0.167
-0.218 -0.279 -0.167
 0.230 0.0271  0.194
0.0404  0.352 0.0952
0.0861 0.0271  0.194
-0.0812 0.0271 -0.0188
 0.124  0.131 -0.167
 0.653  0.481 -0.0416
0.0937 0.0271 -0.133
-0.302 -0.477 -0.174
 0.375 -0.553 -0.176
-0.256  0.659  0.225
-0.332  0.184 -0.167
 0.497 0.0271 -0.0721
 0.633  0.504  0.171
-0.256  0.659 0.0724
-0.370 -0.142 -0.165
 0.367  0.329 -0.167
 0.208  0.658 0.0876
 0.307 -0.623  0.126
-0.0508  0.352  0.202
-0.416 0.0628 -0.167
 0.653  0.200 -0.0948
-0.00518 -0.409 -0.176
0.0252 -0.643  0.133
 0.436 0.00681 -0.102
 0.383 -0.622 -0.0796
 0.580  0.659 -0.0645
 0.329  0.332  0.194
 0.398  0.192 -0.167
 0.231 -0.249 -0.167
 0.611  0.659 -0.133
 0.633 -0.127 -0.0340
-0.646  0.669  0.196
 0.633 -0.0208 -0.0340
-0.648  0.177  0.202
 0.652 0.00198  0.148
-0.648  0.154 -0.0797
-0.408  0.638 0.0420
 0.512  0.351 0.0724
-0.150  0.367 -0.165
-0.0432  0.458 -0.167
 0.124 -0.135 -0.165
-0.606  0.519 -0.167
-0.484 -0.298  0.194
-0.210  0.603 -0.166
 0.360 -0.298 -0.00361
-0.484 0.0271 0.0800
-0.385 -0.636  0.262
 0.633  0.443 -0.102
 0.117 -0.623 0.0800
-0.648  0.656 0.0572
0.0480 -0.614 -0.176
-0.127 -0.636  0.262
-0.583  0.283 -0.167
 0.653  0.572 -0.140
-0.648 -0.659 -0.110
-0.629 -0.500  0.217
 0.603 -0.333 -0.176
-0.591  0.659  0.133
-0.416 -0.622 -0.125
-0.00517  0.654 -0.167
-0.00515 -0.515 -0.174
0.0861 -0.424 -0.174
-0.507 -0.120 -0.165
0.0937 -0.500 -0.174
-0.648 -0.393 -0.0112
-0.340  0.261 -0.165
 0.550 -0.447 -0.176
-0.347 -0.318  0.225
 0.633  0.124  0.133
-0.370  0.659  0.148
0.0100 -0.298 -0.0188
-0.302  0.658 -0.0416
-0.165 -0.158 -0.167
 0.160 -0.625  0.260
 0.588 -0.318 -0.0949
0.0481  0.331 -0.156
-0.606 -0.318 -0.0569
 0.428 -0.318 -0.0949
 0.101 -0.318 0.0420
 0.653 -0.135  0.187
-0.583 0.00681  0.247
0.0633 -0.318 -0.0645
-0.363  0.332  0.171
-0.241 -0.318  0.209
-0.454 -0.643  0.202
 0.618  0.351  0.209
-0.598 -0.318  0.240
-0.104 -0.340 -0.175
-0.233  0.332 -0.0569
-0.629 0.0780  0.133
-0.628 -0.249 0.0192
-0.648 -0.416 0.0724
-0.628 -0.0588 0.0572
-0.648  0.603  0.118
-0.142  0.332 -0.0416
-0.553  0.332  0.164
-0.286  0.659  0.164
-0.264 -0.318  0.148
-0.378 -0.643 0.0648
 0.413  0.638 0.0268
0.0329 -0.622 -0.0948
-0.165 0.00681 -0.118
-0.647  0.225 -0.174
 0.633  0.595  0.263
-0.591  0.648  0.262
-0.487  0.349  0.260
 0.542 0.00506 -0.156
-0.648  0.603  0.240
 0.489  0.638  0.179
-0.648  0.162  0.133
-0.527 -0.293 -0.162
-0.0584  0.184 -0.165
-0.408  0.527 -0.165
-0.256  0.207 -0.165
-0.507  0.443 -0.165
-0.363  0.638 -0.0493
 0.276 -0.643 -0.00359
-0.355 -0.0208 -0.166
 0.653  0.397  0.187
 0.314  0.352 0.0116
-0.347 -0.643  0.141
 0.329  0.435 -0.167
-0.370  0.659  0.240
 0.653  0.549 0.0192
 0.633 -0.0740  0.118
-0.515 0.0261 -0.0264
-0.648 0.00198 -0.110
-0.648  0.283 0.0800
-0.279 0.00681 -0.118
-0.104 -0.234 -0.165
-0.378 -0.318 -0.118
 0.633  0.428 0.00401
 0.633 -0.667 0.0877
 0.653  0.367 -0.0112
 0.633 0.0856 -0.118
-0.628 -0.0208  0.179
-0.431 -0.318  0.110
0.0633  0.352  0.148
-0.134 -0.622 -0.110
0.0633  0.659 -0.140
0.0481 -0.643 0.0268
-0.119  0.638 -0.118
-0.628  0.511 0.0801
 0.652  0.101  0.240
-0.629 -0.576  0.103
 0.347 0.0333 -0.162
-0.492  0.332 -0.125
 0.542 -0.318  0.179
 0.459 -0.623  0.133
-0.629 -0.104  0.202
-0.591  0.657 -0.166
 0.405 0.00681 0.00401
-0.643  0.549  0.275
-0.628 0.0932 0.0268
-0.461  0.332  0.103
0.0785  0.659  0.156
 0.443 -0.643 -0.0112
-0.104 -0.318 0.0268
 0.193 0.0271 0.0192
 0.274 0.0261  0.260
-0.317 -0.299 -0.0188
-0.218  0.332 0.0496
-0.629 -0.561 -0.133
-0.598  0.658 -0.0569
 0.653 -0.546  0.225
-0.340 -0.333 -0.176
 0.246 -0.606 -0.175
 0.633 -0.659 -0.0493
 0.208 -0.142 -0.165
-0.625 -0.319 -0.167
0.0481  0.352  0.255
-0.188 0.0265 0.0420
-0.355 -0.643 -0.00359
-0.629 -0.553  0.202
 0.314 -0.298  0.194
 0.124 -0.264 -0.167
-0.416 -0.241 -0.165
-0.134  0.638  0.202
-0.575  0.162 -0.167
 0.653  0.116 -0.0188
-0.150 0.00681 0.0877
 0.170  0.332 0.0876
0.0861 -0.318 -0.0112
-0.0204 -0.158 -0.167
 0.565  0.238 -0.166
 0.652 -0.500 -0.156
 0.550  0.332 -0.125
-0.172 -0.643 -0.0645
 0.215  0.352  0.225
 0.653 -0.188  0.240
 0.653 -0.325 -0.0264
-0.499  0.352  0.171
 0.170 -0.643  0.156
-0.264 -0.643  0.247
-0.378 0.00681 0.0572
-0.00518 -0.298  0.156
0.0253  0.659 0.0800
 0.474 -0.318 0.00401
0.0252 0.0271  0.171
 0.360 -0.0589 -0.167
 0.653 -0.546 -0.0873
-0.347 -0.298  0.164
-0.515  0.659 -0.133
-0.370 -0.386 -0.174
-0.233  0.124 -0.167
-0.325 -0.298 -0.125
-0.648 -0.401  0.217
0.0481  0.108 -0.167
-0.0356 -0.298 -0.0493
-0.0660  0.659 -0.102
 0.421  0.638 -0.0872
-0.172 -0.0665 -0.167
 0.653  0.314 -0.0569
-0.0964 0.00681 -0.118
 0.550 -0.591 -0.174
 0.345  0.351  0.118
 0.360 -0.318  0.156
 0.565  0.638  0.126
 0.631 0.00705 -0.172
-0.631 -0.0208 -0.175
0.0709  0.648  0.262
-0.507 -0.642  0.255
 0.633 -0.659 -0.125
-0.648  0.405 -0.140
 0.653 -0.150 -0.170
 0.653 -0.0664  0.225
 0.428 -0.298  0.194
 0.261 -0.120 -0.167
-0.484 -0.431 -0.176
 0.284 -0.371 -0.176
 0.177 -0.355 -0.176
-0.104 -0.447 -0.174
 0.596 -0.257 -0.165
-0.264  0.549 -0.165
 0.208  0.332 -0.0340
-0.347 0.0271  0.133
-0.332  0.654 -0.167
-0.218 -0.298 -0.0340
 0.299 0.0265 0.0496
-0.648  0.428  0.209
 0.633 -0.409 0.0344
-0.347 -0.439 -0.174
 0.238  0.116 -0.167
-0.256 -0.104 -0.167
-0.347  0.332 -0.0188
 0.653  0.192 0.0800
 0.652 -0.0360 -0.0949
 0.322  0.382 -0.167
 0.550  0.572 -0.165
-0.271 -0.622 -0.125
-0.648 -0.272  0.133
0.0481 -0.226 -0.166
-0.302  0.638 0.0420
-0.172 -0.643 0.0800
-0.0508  0.638 -0.00359
 0.504 -0.643 0.0420
-0.648  0.527 -0.0416
 0.633 -0.279 0.0496
 0.653  0.314 0.0496
0.0937  0.428 -0.167
 0.428 -0.318 0.0800
 0.519 -0.643 0.0953
-0.119 -0.0208 -0.167
 0.633  0.375  0.103
-0.423  0.260 -0.167
-0.628 -0.127 -0.0112
0.00246 -0.272 -0.166
-0.423 -0.173 -0.165
-0.119  0.268 -0.165
 0.647  0.200  0.275
-0.648  0.268 -0.118
-0.0660 -0.318 -0.140
-0.648 -0.469  0.262
-0.545  0.659  0.225
 0.383 -0.320 -0.176
-0.0584  0.648  0.262
-0.626 -0.647  0.232
-0.628 -0.675 -0.0264
-0.0280 0.00795  0.260
-0.515 -0.538 -0.176
 0.200  0.641 -0.167
-0.591  0.351 -0.00359
 0.436 -0.264 -0.167
 0.443 0.0628 -0.167
 0.155 -0.298  0.148
 0.512  0.253 -0.167
 0.588 0.0261  0.179
-0.256 0.00681  0.118
-0.629 -0.249 0.0724
-0.648  0.314  0.202
 0.633 -0.416 -0.0645
-0.507 -0.643 -0.125
-0.648  0.603 0.0344
-0.0204 0.00681 -0.0340
-0.0812 -0.622 -0.00358
0.0481  0.638 -0.0493
 0.497 -0.298 -0.0416
 0.573  0.352 -0.0416
 0.497  0.638 -0.0720
 0.284  0.638 -0.125
 0.653 -0.325  0.103
-0.0280  0.659  0.171
-0.256 -0.622 0.0877
-0.439  0.659  0.148
 0.451 0.00681 -0.0264
-0.0584 -0.622 0.0648
-0.264 -0.318 -0.118
-0.621 0.00504  0.133
 0.139  0.351 0.0496
 0.652 -0.226 -0.110
-0.439 -0.340 -0.175
 0.652 -0.0969 0.00398
 0.519  0.638  0.225
-0.575 0.00681 0.0572
 0.307  0.658 0.0572
 0.653  0.519 -0.148
 0.633  0.557 -0.0948
-0.628  0.306 0.00401
 0.653 -0.218 0.0268
-0.256 0.0271 -0.0493
-0.530 0.00681  0.103
 0.474  0.332  0.187
 0.109 -0.318  0.179
-0.370  0.332  0.103
-0.150  0.638 0.0268
 0.633  0.276  0.118
-0.648  0.625 -0.110
-0.0888  0.638 0.0877
 0.246 -0.298 0.0268
 0.633  0.261  0.217
-0.271 -0.298 0.0496
-0.355  0.658 0.0496
-0.629  0.397 0.0648
-0.629  0.108 -0.0949
-0.446 -0.643 -0.0264
-0.0685 -0.630 -0.170
-0.507  0.351 0.00401
 0.466 -0.623  0.187
-0.271 -0.318 -0.0340
-0.575 -0.643 -0.0569
 0.269 -0.318  0.148
-0.175 -0.630 -0.170
 0.527 -0.318 -0.133
 0.653 -0.416  0.225
 0.653  0.260 -0.170
 0.653  0.329 -0.110
-0.477 -0.576 -0.176
 0.631 -0.320  0.161
-0.477  0.276 -0.167
-0.628 -0.614 -0.125
-0.264 -0.546 -0.176
 0.573 -0.492 -0.174
 0.443  0.169 -0.165
 0.253  0.603 -0.167
-0.628 -0.0740 -0.0188
-0.134  0.162 -0.166
-0.309  0.580 -0.166
-0.469 0.0261 -0.0493
 0.322 -0.196 -0.167
-0.568 -0.104 -0.167
 0.291 0.0248 -0.167
-0.401 0.00681 -0.0188
-0.385  0.332  0.217
 0.542 -0.143 -0.167
-0.469 0.0780 -0.167
-0.127 0.0932 -0.165
-0.233  0.299 -0.165
-0.256  0.659 -0.133
-0.568 -0.386 -0.174
 0.162 -0.507 -0.176
-0.355 -0.622 -0.110
-0.628 -0.393 -0.118
-0.393 -0.507 -0.174
 0.633 -0.431  0.148
-0.0204 -0.318 -0.118
0.0709  0.253 -0.165
-0.648 0.0248 -0.0264
-0.00516 -0.318 0.0572
 0.208  0.390 -0.167
 0.307  0.511 -0.165
0.00242 -0.591 -0.176
 0.633  0.268 -0.0264
 0.603  0.638  0.232
-0.560  0.344 -0.167
 0.653 -0.659  0.255
 0.633 -0.492 0.0801
 0.633  0.603 0.0116
 0.653 -0.561  0.126
 0.147 0.00681 -0.0645
0.0937 -0.643  0.202
0.0252  0.332 -0.110
 0.109  0.659 0.0344
0.0176  0.332 0.0116
-0.628  0.428 -0.0569
-0.195 -0.298  0.202
 0.527  0.332  0.247
 0.648 -0.614 -0.176
 0.155 0.00681 0.0496
-0.648  0.131 -0.140
-0.629 -0.203  0.202
 0.504 0.00681 0.0648
 0.215 -0.299 0.0953
 0.474  0.638 0.0877
 0.631  0.665 -0.0797
-0.553  0.658 0.0192
 0.512  0.638 0.0496
 0.652 -0.120 -0.0797
-0.626  0.354  0.143
-0.469  0.637 -0.157
 0.633  0.595  0.110
-0.628 -0.378  0.171
-0.226 -0.643 -0.0188
-0.628  0.261 -0.0188
-0.180  0.659  0.202
 0.155 -0.643 0.0192
-0.0280 -0.622  0.232
-0.142  0.314 -0.167
 0.367 -0.318  0.255
 0.650 -0.710 0.0642
 0.481 0.00681  0.202
 0.611 -0.299  0.240
-0.613  0.332 -0.118
-0.431 -0.318 -0.0188
-0.598 -0.272 -0.167
-0.598 -0.211 -0.167
 0.527 -0.622 -0.118
-0.309 0.000915 -0.162
-0.628 -0.340 -0.0188
 0.652 -0.0893 -0.174
-0.157 -0.584 -0.174
 0.170  0.332 -0.133
 0.504 0.0172  0.262
-0.416  0.352 -0.141
 0.626 -0.318 0.0192
-0.248 -0.181 -0.167
 0.633 -0.348  0.225
 0.653 -0.272  0.240
-0.628 -0.340 0.0877
 0.633 -0.553 -0.00359
-0.648 -0.0817 0.0953
-0.401 -0.0816 -0.165
-0.515 0.0271  0.179
-0.416  0.184 -0.165
-0.522 -0.318  0.156
-0.271 0.00681  0.209
-0.461  0.659  0.232
 0.238  0.638 -0.0188
 0.177 -0.318  0.187
-0.104 -0.561 -0.174
 0.413  0.428 -0.165
 0.550 0.0932 -0.165
-0.302  0.352 0.0724
-0.0508 -0.622  0.141
-0.530  0.659 0.0800
 0.466 -0.622 -0.0493
-0.553 0.0704 -0.166
 0.109 -0.643 -0.0264
 0.367 -0.298 -0.118
-0.553 -0.643  0.225
 0.132 0.0476 -0.167
-0.628  0.245  0.133
 0.383  0.527 -0.167
-0.648 -0.439 -0.140
 0.360  0.162 -0.167
-0.492  0.177 -0.167
-0.446 -0.298  0.164
 0.497  0.332 -0.0112
-0.648  0.451  0.156
 0.177 -0.0437 -0.167
 0.466 -0.523 -0.176
-0.0280 0.00681 -0.110
-0.180 -0.318 0.0877
 0.238 -0.643 0.0344
 0.307 -0.298 -0.102
0.0633 -0.173 -0.166
 0.631 -0.619 -0.0872
-0.165 0.00681 -0.0416
-0.648 -0.127  0.156
-0.203  0.352  0.103
 0.360  0.659  0.194
 0.634 -0.0810  0.269
 0.633 -0.500  0.232
-0.431 -0.318  0.232
-0.648  0.230 0.0648
 0.246  0.638 0.0572
 0.652 -0.310 -0.0797
-0.648  0.511  0.232
 0.603  0.352 -0.00361
 0.519  0.367 -0.167
0.00243  0.382 -0.167
-0.332 -0.622 0.0953
-0.210 -0.439 -0.176
-0.112 -0.393 -0.175
-0.454  0.659 0.0572
 0.535 0.0271 0.0268
-0.0128  0.352  0.126
 0.261  0.352 -0.0340
-0.499  0.352 0.0572
 0.231  0.332  0.156
 0.653  0.595  0.217
-0.648 -0.492  0.171
 0.588 -0.318  0.194
 0.413  0.268 -0.167
 0.200  0.154 -0.167
 0.504  0.473 -0.165
-0.157 -0.643  0.156
 0.193 -0.643  0.225
-0.0964  0.435 -0.167
 0.185 -0.447 -0.176
-0.248 -0.643  0.156
-0.218  0.169 -0.167
 0.633  0.428 0.0801
-0.648 -0.530  0.103
 0.375 -0.622 0.0268
 0.653  0.656 0.0648
-0.0736 -0.318  0.217
-0.0736 0.00681 0.0268
-0.648 0.0704 -0.0112
-0.0432 0.00681  0.110
-0.104  0.382 -0.167
-0.648  0.146  0.240
 0.653 -0.621 -0.0264
-0.188 0.0271  0.202
-0.591  0.638 -0.0112
-0.626 -0.320 0.0268
 0.633 -0.104  0.156
-0.628 -0.690 0.0648
 0.428 0.0271  0.217
-0.370 -0.643  0.217
-0.0356  0.638 -0.133
-0.378 -0.622  0.110
 0.653 -0.120  0.103
0.0937  0.332 -0.133
 0.653 -0.698 -0.0264
0.0328  0.625 -0.167
 0.633  0.504  0.240
 0.101  0.344  0.262
 0.413 0.00795  0.260
0.0861 -0.320 -0.169
-0.629  0.283  0.232
 0.413  0.658 0.0800
-0.522 -0.299 0.0116
 0.618 0.0261 0.0724
 0.405  0.659  0.240
-0.621 0.0290  0.209
-0.446 0.0290 -0.156
-0.264 0.00957 -0.167
 0.215 0.0401 -0.165
 0.443  0.352 -0.141
-0.628  0.223 -0.125
 0.383  0.352  0.217
 0.375 -0.112 -0.167
-0.332  0.489 -0.165
-0.279 0.0932 -0.167
-0.203  0.496 -0.165
 0.193  0.451 -0.165
-0.0736  0.580 -0.166
-0.628 -0.234 -0.0416
0.0937 -0.606 -0.175
 0.633 -0.279 -0.0493
 0.322  0.238 -0.166
 0.474  0.659 -0.00359
0.0176  0.565 -0.165
 0.246  0.659  0.141
-0.0204  0.511 -0.167
-0.416 0.0261 0.0344
-0.648  0.336 -0.0873
 0.322 -0.318 0.0877
-0.340  0.332 -0.110
-0.210  0.659 -0.140
 0.633  0.230  0.141
 0.200 -0.318 -0.110
-0.165 -0.226 -0.165
-0.271 -0.622 -0.0569
 0.504 -0.264 -0.165
 0.132 -0.318 -0.00359
 0.633 -0.507  0.187
-0.385  0.306 -0.167
 0.322  0.332  0.240
 0.436 -0.393 -0.176
 0.139 0.0271 -0.125
-0.302 0.00681  0.126
 0.436  0.527 -0.165
 0.611 -0.643 0.0496
0.00243 0.0932 -0.167
-0.648 0.0324 0.0800
-0.0128 -0.622 -0.102
0.0252 -0.643 -0.148
 0.653 -0.614 0.0800
-0.648 -0.652  0.141
-0.568 -0.622 -0.148
 0.291 0.0271  0.156
 0.512 -0.640  0.260
 0.421  0.332  0.254
 0.633  0.397  0.232
-0.629 -0.158 -0.110
-0.629 -0.196 -0.0721
-0.628 -0.0969 -0.156
-0.119 0.00681  0.164
 0.633 -0.173 -0.133
 0.367 -0.218 -0.167
-0.591  0.223 -0.165
-0.648 -0.652 -0.0645
-0.378  0.659 -0.162
-0.127  0.659 -0.162
 0.238  0.337  0.262
-0.218 -0.325 -0.173
-0.477 0.00795  0.260
 0.238 0.0271 0.0116
-0.0584  0.230 -0.167
 0.633  0.534 -0.0493
 0.633  0.390 -0.110
-0.628 -0.515 -0.0112
-0.628  0.390 -0.0264
-0.628 -0.454 0.0572
 0.246 0.0271 -0.133
 0.653 -0.454 0.0496
-0.363 0.00681  0.171
-0.0128  0.332  0.217
-0.226 -0.298  0.133
0.0100 0.0271 0.00399
-0.0888 -0.622  0.110
 0.139  0.511 -0.165
-0.119 0.00681  0.247
 0.636  0.407 -0.174
-0.583 -0.643 0.0800
-0.286  0.332  0.133
-0.195 -0.643  0.217
 0.558 -0.622 -0.0264
-0.598 -0.165 -0.165
-0.264  0.420 -0.165
 0.497  0.519 -0.167
-0.606  0.659 0.0877
-0.522  0.565 -0.167
-0.568 -0.318 0.0420
 0.653 0.0476 -0.0797
-0.188  0.332 -0.0493
 0.535  0.659 -0.0569
 0.345 -0.643 -0.0645
 0.633  0.184 -0.0569
-0.648 -0.249 -0.133
 0.101 0.0271 -0.0264
-0.646  0.669 -0.0705
 0.398  0.481 -0.167
 0.653  0.169 -0.0188
 0.223 -0.643  0.179
 0.580  0.177 -0.167
 0.101 -0.00563 -0.167
 0.155 -0.310  0.262
-0.530 -0.643  0.164
 0.647 -0.454  0.275
-0.423  0.659 -0.110
-0.545 0.0172 -0.167
 0.299 0.0271 -0.110
-0.0204  0.276 -0.165
-0.423 0.0271  0.126
0.00243 -0.0208 -0.167
 0.314  0.659 0.00401
-0.648 -0.0132 0.0420
 0.177 -0.643  0.110
 0.421 -0.298 -0.141
 0.284 0.00681 -0.0493
 0.633  0.382  0.148
 0.132 0.00681  0.133
 0.109 0.00681 0.0800
 0.631  0.131 -0.161
-0.648 -0.302 -0.0569
 0.652 0.0780  0.164
-0.629 -0.143  0.232
 0.398 -0.643 0.0800
 0.573  0.332  0.194
-0.545 -0.623 -0.0112
 0.215  0.332 0.0420
 0.618 -0.120 -0.167
 0.421 -0.622 -0.140
 0.132  0.648  0.262
 0.611 -0.196 -0.165
-0.636 -0.568 -0.176
 0.653  0.215 -0.140
 0.413 -0.643  0.232
 0.170 -0.576 -0.175
-0.309 -0.188 -0.167
-0.0660 -0.196 -0.167
-0.621  0.660  0.232
-0.256 -0.439 -0.176
-0.0964 -0.500 -0.174
 0.542 -0.363 -0.174
-0.355  0.413 -0.167
 0.390  0.603 -0.167
 0.162  0.610 -0.167
-0.469  0.420 -0.167
 0.124  0.230 -0.165
0.0709  0.473 -0.165
 0.621 -0.293 -0.162
-0.127 -0.318  0.110
-0.0964  0.659  0.148
 0.329 -0.279 -0.166
 0.474  0.283 -0.166
-0.446  0.638 -0.0645
-0.165  0.413 -0.165
 0.519  0.146 -0.165
-0.439 -0.454 -0.174
 0.261 -0.561 -0.176
-0.545  0.261 -0.165
 0.345  0.283 -0.167
 0.466  0.618 -0.167
-0.568 -0.469 -0.174
 0.162  0.638 0.00401
 0.633 -0.234  0.148
-0.210 0.0271  0.148
 0.383  0.352 -0.118
 0.155 0.00681 -0.0112
-0.279 -0.643 0.0192
 0.185 0.0271  0.209
-0.628 -0.355 -0.140
 0.398 -0.515 -0.176
-0.530  0.397 -0.167
 0.497 -0.299  0.148
 0.527  0.638  0.148
 0.322 -0.477 -0.176
-0.180  0.351 0.0192
-0.469 -0.318 0.0877
-0.385 0.0271  0.103
 0.633 -0.0588 -0.0112
 0.345 -0.318 0.0420
 0.314 0.0628 -0.167
-0.545 -0.0665 -0.167
-0.0356  0.332 0.0344
-0.648  0.139 0.0953
-0.484 -0.0817 -0.167
0.0100 0.00681 0.0648
-0.127 -0.135 -0.167
 0.261  0.359 -0.165
-0.515 0.00681 -0.125
-0.332 -0.120 -0.165
-0.626  0.354  0.227
-0.195  0.659 -0.0645
-0.112 -0.318  0.194
 0.147  0.638 -0.0645
 0.307  0.658  0.118
-0.648  0.511 -0.0873
 0.284 -0.643  0.225
-0.165 -0.318 -0.0721
 0.618  0.658  0.133
-0.591 -0.318 0.0953
-0.317 -0.287 -0.167
-0.621  0.637  0.156
 0.132 -0.320 -0.169
-0.626  0.664 0.0141
 0.633  0.108 -0.0569
 0.474  0.327 -0.162
 0.633 -0.538 0.0420
 0.633 -0.606  0.225
 0.653  0.618 -0.133
 0.633  0.253 0.0344
0.0556 0.0271 -0.0493
 0.101  0.332 0.0116
0.0633 0.00681  0.247
-0.401 0.00681  0.209
 0.322 -0.318 -0.0493
-0.347  0.638 0.0953
 0.504  0.638 -0.118
-0.416  0.659  0.247
-0.401 -0.298  0.148
0.0176  0.352 -0.0721
 0.200 -0.622 -0.125
-0.545  0.352 0.0572
0.0481  0.638 -0.102
-0.210 -0.622  0.103
 0.633  0.276 -0.125
-0.628  0.192 -0.0872
0.0861  0.659 -0.0569
 0.307  0.659 -0.0872
 0.276  0.638  0.240
 0.132  0.352 0.0952
-0.271 -0.636 -0.167
-0.643 -0.196 -0.176
-0.648 -0.112 -0.0569
 0.519 -0.318  0.232
 0.633 0.0402  0.141
-0.643 -0.0437  0.275
-0.629  0.443 -0.133
-0.648  0.116  0.141
-0.648  0.405  0.103
 0.345 -0.642 -0.162
-0.439 -0.299 -0.0569
 0.542 0.00681  0.126
-0.294  0.332 -0.0416
-0.142 -0.299 0.0192
 0.208 -0.325 -0.173
 0.596  0.352 -0.141
-0.598 -0.643 -0.110
 0.636 -0.561  0.273
-0.648 -0.515 -0.0493
-0.203 -0.298 0.0572
 0.633  0.610 -0.0340
-0.628  0.466 0.0268
 0.653  0.473 0.00401
-0.648 -0.310  0.110
 0.633  0.565  0.194
 0.653  0.420 -0.133
 0.633 -0.599 0.00401
-0.628 -0.0436  0.110
 0.653 -0.0360  0.118
-0.112 -0.643  0.202
-0.256  0.352 0.0572
-0.0508 -0.298  0.171
-0.0584 0.0271  0.194
-0.401  0.638  0.171
 0.588  0.638 -0.102
 0.155  0.332 -0.0797
-0.355 -0.318  0.118
-0.461 -0.643 0.0953
-0.233 -0.643 -0.125
-0.104  0.332  0.187
-0.0888 -0.643 0.0420
 0.459 -0.643 -0.140
 0.383 -0.643 -0.118
0.0557  0.638  0.126
-0.553  0.332 0.0952
 0.390 -0.318 -0.0264
0.0633 -0.298  0.148
-0.0812  0.659 -0.0264
-0.188 -0.318 -0.118
0.0633 0.0476 -0.165
0.0557 0.00681  0.103
 0.633 -0.523 -0.118
-0.0660 -0.318 -0.0188
-0.317 -0.298 0.0724
-0.0812 -0.0436 -0.166
 0.261 -0.318 -0.0112
-0.210 0.00681  0.232
-0.157  0.638 -0.0493
 0.633 -0.234 -0.0493
0.0100 -0.127 -0.165
-0.134  0.352 -0.118
-0.264  0.352 -0.0949
 0.413 -0.643 -0.0569
 0.652 -0.0893 -0.110
-0.522 -0.318 -0.0493
-0.0660  0.352 -0.102
 0.367 0.0271 -0.0797
-0.648  0.382 0.0192
-0.446 -0.409 -0.174
-0.423  0.435 -0.167
-0.0432  0.352 0.0952
-0.119  0.638 -0.00359
-0.606 0.0271 0.0876
-0.325 0.00681 -0.0264
 0.633 -0.241  0.217
 0.162 -0.165 -0.167
-0.218  0.238 -0.165
-0.469 -0.318 0.0192
-0.461 0.00681  0.110
-0.492 0.00681 0.0344
0.0709 -0.318 0.0953
 0.653 0.0172 -0.00359
0.0481  0.332 -0.0188
 0.307 -0.333 -0.174
-0.0432 -0.120 -0.166
-0.530 -0.623 -0.0721
-0.628 -0.704  0.219
 0.337 -0.622  0.232
0.0785 -0.318  0.255
 0.360 -0.623  0.164
-0.340 0.0476 -0.167
-0.203  0.332  0.217
-0.378 0.00681 -0.102
-0.241  0.352  0.232
 0.633 -0.257 -0.0872
 0.653 -0.707  0.229
-0.423 -0.643 -0.0873
-0.515 0.00681 -0.0645
-0.385  0.658 -0.0188
 0.413  0.658  0.148
 0.421  0.351 0.0648
-0.401  0.351 0.0116
 0.398 -0.299  0.103
 0.565 -0.623  0.148
-0.461 -0.623 0.0192
 0.177 -0.318  0.103
-0.628  0.299 -0.0948
-0.507 -0.623 0.0116
 0.147  0.321 -0.167
 0.633 -0.249 -0.140
-0.629 -0.188  0.110
-0.553  0.332 -0.00359
-0.647  0.367  0.273
 0.653  0.648 0.00401
 0.314 0.0271  0.247
-0.631 -0.654  0.273
 0.653  0.359 -0.0569
-0.629 -0.667  0.187
 0.626 -0.297 0.0877
-0.636  0.184 -0.176
-0.621 0.0284 -0.140
 0.618  0.638 0.0496
-0.648 -0.302  0.247
 0.637  0.669  0.196
-0.626 -0.646 0.00401
-0.621  0.330 -0.0340
 0.466 0.00957 -0.167
 0.367  0.637 -0.156
-0.317 -0.303  0.262
-0.499 -0.320 -0.176
-0.591  0.352  0.164
-0.606  0.638 -0.133
-0.507  0.245 -0.167
-0.165  0.565 -0.167
-0.621 0.00504 -0.0797
 0.269 -0.409 -0.174
-0.378 0.0780 -0.165
 0.238  0.542 -0.167
 0.558 -0.241 -0.167
-0.188 0.0628 -0.167
 0.542 -0.0589 -0.167
-0.370  0.169 -0.166
0.0176 -0.0588 -0.165
-0.0888 0.00681 -0.0569
-0.648  0.458  0.262
-0.0736 -0.0893 -0.167
-0.629 -0.606  0.225
-0.226 -0.0665 -0.167
-0.0356  0.549 -0.166
 0.291  0.352  0.179
-0.628 0.0780 -0.0493
-0.340  0.139 -0.166
 0.413 -0.127 -0.167
 0.246 0.00681 -0.0340
-0.591 0.0271  0.156
 0.390 0.0261 0.0573
0.0481  0.390 -0.166
-0.104  0.332  0.110
-0.248  0.511 -0.165
-0.648  0.542 0.0420
 0.573 0.0271 0.0116
-0.629  0.519  0.194
-0.648  0.572  0.164
-0.302 -0.530 -0.176
 0.603 -0.318 -0.0569
-0.401 -0.355 -0.175
-0.648 -0.348  0.194
-0.648 -0.180  0.156
 0.170 -0.318 -0.0188
0.0785  0.352  0.110
0.0785 -0.0740 -0.165
 0.345  0.638 0.0953
-0.127  0.352 0.0800
 0.162 -0.298 -0.0721
-0.271 0.0271  0.156
-0.461 -0.158 -0.165
 0.132  0.638 -0.118
 0.633  0.466  0.156
 0.238  0.332 -0.0721
 0.223 0.00681 -0.0797
 0.291  0.638  0.202
 0.535  0.534 -0.165
 0.653  0.527  0.133
 0.497  0.332  0.110
 0.558 -0.623  0.103
-0.0584  0.618 -0.166
 0.443 0.0271 0.0268
 0.367  0.451 -0.167
-0.507 -0.241 -0.165
 0.314 -0.546 -0.176
-0.648 -0.165 0.0344
-0.606 0.0704 -0.166
0.0709 -0.643 -0.0112
 0.633  0.443 0.0420
 0.550 -0.299 0.0877
0.0633 -0.622  0.232
-0.499  0.638 -0.00359
 0.633 -0.492 -0.00359
-0.286 -0.318 0.00401
-0.172 -0.546 -0.176
-0.264 -0.218 -0.165
-0.112  0.511 -0.167
-0.302  0.332 -0.125
 0.155 -0.211 -0.167
 0.603  0.489 -0.165
0.0405  0.177 -0.165
 0.215  0.352 -0.133
-0.560 0.00681 -0.0493
 0.299 -0.135 -0.167
 0.314 -0.643 -0.0188
-0.294  0.306 -0.165
 0.588 -0.561 -0.176
-0.150 -0.303  0.262
-0.648 -0.561  0.247
 0.580 -0.643 -0.140
-0.446  0.332  0.254
-0.332 -0.622  0.225
-0.648 -0.0817  0.262
 0.633 -0.705  0.194
 0.626 0.00505  0.179
 0.238 -0.298  0.255
-0.628  0.625 -0.0188
 0.642 0.00260  0.275
 0.641 -0.409 -0.176
-0.598 -0.318 -0.00359
-0.626  0.316 -0.161
 0.603 0.00795  0.260
 0.653 0.0400 -0.170
 0.653 -0.652 -0.0873
-0.648 -0.0893 0.0268
 0.276 -0.318  0.194
-0.628 -0.447 -0.0948
-0.628  0.146 0.00400
 0.653 -0.218  0.118
 0.633 -0.165 0.0953
 0.633 -0.546  0.156
 0.618 -0.500 -0.176
 0.246 0.00681  0.164
-0.0660  0.638  0.164
 0.223  0.659 -0.140
-0.233  0.641 -0.167
-0.0660  0.332 -0.0569
 0.269 -0.622 -0.0416
 0.489  0.352 -0.0569
-0.515  0.332  0.141
-0.142  0.332  0.156
 0.177 0.00681  0.171
 0.291  0.332 -0.0188
 0.512  0.332 0.0344
-0.515  0.659  0.194
 0.223  0.638 -0.102
 0.200  0.659  0.194
-0.286  0.638  0.209
 0.405  0.659 -0.118
-0.279 -0.622  0.171
-0.112 0.0271 -0.148
0.0557 -0.622  0.164
-0.370 -0.643 -0.140
-0.218  0.332  0.133
 0.185  0.352  0.187
-0.530 -0.298  0.209
 0.253 -0.622  0.209
0.0481  0.332 0.0496
-0.0280  0.638  0.110
0.00245 -0.622 0.00401
-0.325  0.638  0.133
-0.195  0.659  0.141
0.00244 -0.643  0.217
-0.598  0.352 0.0800
 0.550 -0.318 0.0116
0.0861  0.352 -0.0797
 0.637  0.665 -0.173
 0.633  0.154 -0.118
 0.636  0.582 -0.174
-0.0964 -0.622 -0.0720
 0.405  0.659 -0.0569
 0.307 -0.622  0.179
-0.104 -0.643 -0.125
 0.588 -0.298 -0.141
-0.628  0.496 -0.0264
-0.648  0.496  0.110
-0.638 -0.709  0.143
-0.165  0.344  0.262
 0.124 -0.622 -0.156
 0.291  0.352  0.255
-0.629 -0.614  0.141
-0.629 -0.0133  0.247
 0.246 0.00681  0.240
-0.172 0.00681 0.0116
-0.629 0.0628  0.247
-0.241 0.00681 0.00401
 0.633 -0.158  0.269
-0.629  0.192  0.171
-0.629  0.192  0.232
-0.629 -0.431  0.232
-0.537  0.351 -0.0721
 0.360 0.0261 0.0877
 0.459 -0.299  0.126
 0.580  0.638  0.171
 0.459  0.351  0.156
-0.401 -0.318 0.0496
-0.431  0.351 -0.0416
 0.276 -0.299 0.0573
 0.652  0.260  0.156
-0.575 -0.643 0.0192
 0.652 -0.158 -0.102
 0.436 -0.606 -0.176
-0.165 -0.295 -0.167
 0.170 0.0269  0.255
 0.269 -0.318 -0.140
 0.651  0.288  0.273
 0.200 -0.636  0.262
 0.474 -0.180 -0.165
-0.408 -0.553 -0.176
 0.383 -0.378 -0.176
 0.443 -0.431 -0.174
0.0480 -0.393 -0.174
 0.497 -0.447 -0.174
-0.00514  0.466 -0.165
 0.466 -0.0969 -0.167
-0.454  0.382 -0.165
 0.162  0.162 -0.165
-0.628  0.367 -0.133
0.0861  0.116 -0.165
0.00241 -0.469 -0.174
-0.408  0.580 -0.165
 0.230 -0.439 -0.176
-0.127 -0.623 0.0344
-0.575  0.390 -0.165
 0.436 -0.0512 -0.167
-0.317  0.375 -0.165
0.0252 -0.165 -0.167
 0.550  0.351 0.0573
-0.104 0.0268 0.0496
-0.112 -0.298 -0.0645
-0.647 -0.353 -0.174
-0.628 -0.127 0.0801
 0.337 -0.591 -0.175
0.0861 -0.538 -0.175
-0.530 0.00681  0.148
 0.535 -0.485 -0.174
-0.439  0.610 -0.167
 0.276  0.332 -0.0645
 0.603 0.0271 -0.0873
 0.489 -0.318 -0.0873
 0.652  0.344  0.187
-0.363 -0.622  0.179
 0.139  0.638  0.194
 0.383 0.00681  0.156
-0.423  0.332 0.0952
-0.648 -0.469 -0.0645
 0.367  0.124 -0.165
 0.231 -0.188 -0.167
-0.446 0.0271  0.164
-0.218  0.413 -0.165
 0.653  0.336 -0.156
0.0329 -0.318  0.217
 0.215 -0.318  0.194
0.0861  0.332  0.179
 0.413 0.00681  0.187
-0.648 0.0856  0.179
-0.0660 -0.416 -0.176
 0.139 -0.318  0.118
-0.218  0.659  0.209
 0.421  0.351  0.164
 0.436 0.0261  0.110
 0.653 -0.477 -0.0645
 0.633 -0.599  0.141
-0.271  0.458 -0.165
-0.606 -0.378 -0.174
-0.648 -0.621 0.0877
 0.558 0.0271 -0.0569
-0.530  0.332 -0.133
 0.653  0.481 -0.140
-0.629 -0.523 -0.125
-0.598  0.481 -0.167
 0.633 -0.348  0.133
 0.633 -0.401 0.0801
 0.193 -0.643 0.0268
0.0177  0.658 0.0420
-0.0432  0.131 -0.167
 0.633  0.177  0.110
-0.537 -0.643 0.0800
 0.276 -0.643  0.110
 0.139  0.638  0.118
-0.628  0.207 0.0116
 0.231 -0.0436 -0.165
0.0633 0.0271 -0.0873
-0.401 -0.0360 -0.166
 0.481 -0.318 0.0420
 0.558 -0.643 0.0192
 0.269 -0.0208 -0.165
 0.618  0.169 -0.165
-0.378  0.268 -0.165
 0.314  0.565 -0.167
-0.545 -0.196 -0.165
-0.621 -0.424 -0.173
 0.329 -0.623 0.0648
 0.550 0.0476 -0.165
-0.431 -0.623 -0.163
-0.294 0.0265 0.0420
0.0252 -0.298 -0.148
 0.284  0.351  0.103
 0.170  0.405 -0.167
 0.405  0.230 -0.166
 0.603  0.351  0.110
-0.454 -0.622 -0.110
-0.507  0.658 -0.0949
 0.276  0.108 -0.167
 0.329 -0.234 -0.167
-0.575 -0.299 -0.0721
 0.360  0.207 -0.167
-0.180  0.321 -0.167
-0.606 -0.299 -0.102
-0.408 -0.279 -0.167
 0.653 0.0324 0.0572
-0.210 0.00681 -0.133
-0.636  0.124 -0.176
-0.363 0.00703  0.255
0.0633 0.00506 -0.156
-0.165 -0.640  0.260
-0.408 -0.643  0.232
 0.634  0.667  0.273
-0.648 -0.431 0.0344
 0.653 -0.371  0.247
 0.653 -0.416  0.110
 0.653 -0.644  0.187
 0.653 -0.431 0.0116
-0.648 -0.538 0.0116
-0.648 0.00198  0.202
-0.0128 -0.363 -0.175
 0.580 0.000915 -0.162
-0.0812  0.332 -0.0112
-0.0432  0.659 0.0344
-0.248  0.638  0.148
 0.565 -0.622 -0.0645
 0.345 -0.318 -0.0949
-0.134 -0.622  0.133
-0.210 -0.523 -0.176
-0.598 -0.591 -0.174
0.0481  0.223 -0.167
