ply
format ascii 1.0
element vertex 2048
property float x
property float y
property float z
end_header
-0.0943 -0.288  0.112
0.0819  0.565 -0.287
-0.0185  -1.00 0.0117
 0.109  0.331  0.331
 0.462 -0.0603 0.0153
-0.155 0.0999 -0.298
-0.218 0.0280  0.416
0.0892 -0.312 -0.276
-0.336 -0.257 -0.295
 0.155  0.189 -0.0637
 0.260 -0.463 0.0445
-0.112  0.527 0.0466
-0.212 0.0609 0.0598
-0.0120 -0.660 0.0192
 0.256  0.463 0.0779
0.0508 0.0277  0.241
 0.148 -0.111 -0.0171
-0.150 -0.456 -0.151
 0.133  0.169 -0.360
-0.115 -0.164 -0.143
-0.313 -0.175  0.247
 0.275 -0.134  0.231
-0.0843  0.314 -0.126
-0.191  0.296  0.187
 0.233  0.203  0.165
0.0415  0.349 0.0871
-0.379 -0.121 -0.105
 0.182  0.375 -0.198
0.0768 -0.332 -0.0354
-0.281 -0.441 0.0376
0.0302 -0.0245 -0.248
 0.283 -0.349 -0.164
-0.129  0.500 -0.249
 0.139  0.610  0.197
 0.361 -0.257 0.0233
 0.120 -0.287  0.190
-0.118 -0.159 -0.363
0.00496 0.0547 0.0270
 0.261 -0.106 -0.194
-0.125 -0.0801  0.200
 0.282 0.0453 -0.0146
-0.275 -0.285 -0.108
-0.0716 -0.101  0.386
-0.165  0.101  0.247
0.0856  0.533 0.0252
0.0182  0.176 -0.208
-0.0674  0.540  0.231
-0.239 -0.00516 -0.160
-0.121  0.329 -0.325
-0.0838  0.215 0.0501
0.0819  0.381 -0.352
-0.00683  0.201  0.259
-0.0390 -0.136 0.0250
-0.147 -0.310 -0.267
-0.115  0.117 -0.0989
-0.0549 -0.255  0.284
0.000235 -0.482 0.0259
 0.109 -0.115  0.156
-0.219 -0.114 -0.0133
0.0106  0.457 -0.158
0.0769 -0.193 -0.152
-0.0177 -0.830 0.0257
-0.245 -0.0566 -0.322
 0.262  0.172 -0.191
 0.376 0.0262  0.129
0.0728  0.450  0.219
-0.0218 0.0706  0.384
-0.0907 -0.338 -0.0492
 0.300 -0.100 0.0563
 0.386 -0.150 -0.0990
 0.112 -0.435 -0.173
 0.156 0.0499 -0.181
 0.167  0.343 -0.0187
-0.308 0.0418  0.281
 0.306 -0.347  0.141
 0.165  0.523 -0.149
-0.0487 -0.0259 -0.0969
 0.141  0.101 0.0934
-0.0649  0.373  0.233
 0.209 -0.290 0.0400
 0.235  0.482  0.227
-0.226  0.283 -0.0863
-0.0913  0.365 0.0186
-0.0213 -0.374 -0.196
-0.226 -0.277  0.190
0.0354  0.272 -0.0545
-0.117 -0.0509 -0.259
 0.427 -0.178  0.122
-0.0297  0.591 -0.183
-0.271 -0.0415  0.140
0.0611  0.212  0.133
0.0237  0.319 -0.218
0.0525 -0.238 0.0746
-0.157  0.434 -0.116
-0.227 -0.166 -0.227
-0.200 -0.0845  0.335
-0.350 -0.0714 -0.232
-0.409 -0.257 -0.129
 0.132 0.0245 -0.0453
-0.0664 0.0712  0.156
-0.000102  0.260 -0.339
-0.188 -0.171  0.115
0.0322  0.135 -0.0768
-0.142 -0.223 -0.00691
 0.250 -0.0167  0.177
-0.0200  0.489 -0.320
-0.0115  0.491  0.124
-0.118 -0.0365 0.0467
-0.0109 -0.0717  0.138
-0.166 -0.439 -0.0228
 0.261 -0.221  0.137
0.0183  0.439 -0.0291
0.0550  0.535  0.312
 0.174  0.302  0.112
 0.164  0.251 -0.174
-0.0699  0.261  0.167
 0.260 -0.148 -0.0597
 0.188 -0.291 -0.0842
-0.0632 0.0797 -0.208
-0.325 -0.100  0.347
-0.0839  0.243 -0.234
 0.112 -0.0190 0.0716
 0.145 -0.436 0.00215
0.00409 -0.223 -0.0554
-0.206 -0.353 0.0936
0.0580  0.328  0.212
-0.0693 0.0154  0.286
-0.0431  0.555 -0.0501
-0.184  0.282 0.0285
-0.0633 -0.189  0.175
 0.194 -0.207 -0.182
-0.160 -0.306 -0.147
0.0170  0.606  0.177
 0.221 -0.0406 -0.0963
0.0684 -0.0742 -0.143
 0.118 -0.352 0.0827
-0.192 -0.276 -0.370
-0.174 -0.0740  0.454
-0.0539  0.403 -0.250
-0.130  0.159  0.340
-0.219 -0.459 -0.243
-0.105 -0.403 0.0724
 0.152  0.498  0.149
-0.118  0.215 -0.340
-0.276 -0.398 -0.0883
 0.392 0.00560 -0.0443
-0.0652  0.215 -0.0724
0.0443 0.0636 -0.178
0.0741  0.168 0.0225
-0.0105 -0.295  0.189
-0.0141 -0.322 0.0316
-0.265 -0.0116 -0.0521
0.0207  0.393  0.303
0.0400 -0.0770 -0.0257
0.0136 -0.157 -0.236
 0.224 -0.0115 0.0687
0.0852  0.464 -0.242
0.0906  0.152  0.220
 0.216  0.174 0.0607
 0.290 -0.254 -0.0641
0.0394 0.0786  0.130
 0.109 -0.217 -0.0255
-0.220 -0.152 -0.115
0.00745 -0.268 -0.189
-0.209 -0.0190  0.230
-0.138  0.149  0.117
 0.132  0.162 -0.252
0.0130  0.277  0.334
 0.129  0.410 0.0784
-0.144  0.162 -0.202
 0.204 -0.124  0.111
-0.0292 -0.129 -0.0911
0.0704  0.360 -0.101
0.0930 -0.103  0.258
-0.173 -0.0878 -0.181
0.0708 -0.341 -0.153
0.0771 -0.133 0.0541
-0.137 -0.197 -0.270
 0.308 -0.0529 -0.0372
-0.147 -0.00171  0.139
-0.123  0.335  0.111
 0.165 -0.196  0.196
-0.248  0.143  0.287
-0.248 -0.342 -0.00916
0.0429  0.151  0.330
-0.154 0.00839  0.340
-0.140 0.0155 -0.100
0.0744  0.223 -0.138
-0.127 0.0554 0.00770
-0.309 -0.179 -0.152
-0.228 -0.148  0.203
-0.0577 -0.410 -0.110
 0.120  0.135 -0.146
-0.0290  0.154  0.104
-0.107 -0.116  0.104
-0.142 -0.0985 -0.0759
0.0907 -0.423 -0.0795
0.0364 0.0388 -0.0741
0.0703 -0.0252  0.160
-0.0184  0.111  0.230
-0.263 -0.253 -0.207
-0.163  0.213 -0.0921
-0.0414 -0.210 0.0857
 0.199 -0.184 0.0126
 0.117  0.431 -0.160
-0.0530  0.463 -0.0888
0.0856  0.230 -0.297
-0.0624 -0.313 -0.138
 0.203 -0.351  0.122
-0.0247  0.413 0.0691
-0.0311 -0.00335  0.203
-0.116 -0.0671  0.292
0.0941  0.271 0.0679
-0.0276  0.348  0.150
-0.0766 -0.0861 -0.177
 0.375 -0.106 -0.00138
 0.241  0.443 -0.220
-0.0114  0.277 0.0664
-0.175 -0.298 -0.0559
-0.202 0.0788 -0.156
-0.110 -0.160  0.248
0.0191 -0.0416 0.0575
-0.00470 -0.377 -0.0442
 0.107 -0.232  0.261
0.0831  0.549  0.120
0.0534  0.132 -0.284
 0.198 0.0862 -0.0362
 0.186  0.415  0.159
 0.344 -0.196 0.0870
 0.192 -0.124 -0.112
-0.0458 -0.0521 -0.00427
 0.164 -0.261  0.112
-0.0617 0.0538 -0.0592
-0.0277 -0.193 -0.157
 0.273  0.130  0.113
-0.0199  0.373 -0.144
 0.168 -0.349 -0.0196
-0.000537 -0.571 0.0254
-0.0457  0.451  0.196
0.0546  0.455 0.0605
-0.108  0.390 -0.174
 0.127 -0.192 -0.236
-0.0579 -0.246 0.00302
-0.0219  0.172 0.00629
-0.0553 0.00822 0.0878
-0.125 -0.323 0.0297
-0.110 -0.311  0.195
 0.231 -0.0845 0.00592
-0.106 -0.254 -0.212
 0.142  0.339  0.233
0.0338 -0.126  0.199
0.0120  0.350 -0.0219
 0.363 -0.0532 0.0964
0.0897  0.377 -0.223
 0.249  0.295  0.155
-0.280 -0.0809  0.275
-0.184 -0.258  0.118
 0.149  0.249 0.00535
 0.222  0.186 -0.117
-0.219 -0.0677 -0.0997
 0.175  0.145  0.187
0.0245  0.413 -0.282
-0.126  0.290 -0.0555
 0.206  0.300 -0.229
-0.0632  0.156 -0.244
-0.0410  0.238 -0.150
-0.0163  0.113 -0.142
0.0479 -0.177  0.134
-0.0564  0.320 -0.255
-0.147  0.256  0.117
0.0867  0.388  0.147
0.0630 -0.260 -0.100
-0.0936 -0.414 -0.201
 0.106 -0.269 -0.175
-0.0474  0.264 -0.00689
 0.291 -0.216 0.00946
0.00436  0.511 0.00829
 0.159  0.222 0.0966
-0.0123 -0.910 0.00678
0.0877  0.319 -0.0130
-0.0160 -0.741 0.00874
-0.112 0.000999  0.212
0.0535  0.316 -0.294
0.0564 -0.156 -0.0295
-0.161 -0.117 -0.270
-0.137 -0.137  0.356
-0.119 -0.188 0.0702
0.0971  0.288 -0.210
0.0508  0.252  0.237
0.0956 0.000835 -0.141
-0.0788 -0.189 -0.0738
 0.203 -0.350 -0.136
-0.129 -0.378 -0.133
0.0729 0.0480 -0.250
 0.187 -0.0181 -0.00751
0.0788 -0.296  0.123
0.0470 -0.241  0.189
-0.0929  0.186  0.180
-0.326 -0.350 -0.0515
-0.301 -0.139 -0.226
-0.100 0.0993  0.299
-0.146  0.213 0.00179
-0.184 -0.240 -0.208
 0.161 -0.0784 0.0553
 0.191  0.141 -0.184
0.00700  0.177  0.177
-0.125  0.357  0.186
0.0217  0.307 -0.140
 0.135  0.491 0.0673
-0.178 -0.0975  0.254
 0.136 -0.223 -0.113
-0.162  0.294 -0.129
-0.0836  0.149 -0.0356
-0.0939 -0.330 -0.213
 0.334 -0.169 -0.0466
-0.342 -0.230 -0.105
-0.111  0.429  0.256
0.0449 -0.268 -0.00856
-0.241 -0.223 -0.136
-0.124 0.0481 -0.168
-0.109 -0.359  0.135
 0.101  0.290 -0.114
0.00528  0.420  0.149
-0.133  0.369 -0.0856
 0.284 -0.0506  0.110
0.0903 -0.388 0.0207
-0.126 -0.0988 0.00566
-0.213 -0.0731  0.175
-0.199 -0.417 -0.0860
-0.00228 -0.0800 -0.182
-0.116 -0.448 -0.0832
 0.257 -0.102  0.159
-0.0894 -0.398 -0.000436
0.0599  0.197 -0.0447
0.0112 -0.368 -0.118
 0.123 -0.302 0.0167
-0.125 -0.133  0.430
0.0137 -0.283  0.280
0.0969  0.123  0.152
0.0663 0.00683 0.0198
-0.00723 -0.268  0.120
-0.0232  0.520 -0.143
-0.225 0.0125  0.166
 0.105 -0.224  0.138
-0.108 0.0821 0.0735
 0.184 0.0533 0.0583
 0.141 -0.215 0.0449
-0.234 -0.147  0.276
-0.222 -0.335 -0.0984
 0.143  0.165 0.0482
-0.0240 -0.312 -0.0722
-0.188 -0.416 0.0427
-0.00949 -0.145 0.0929
-0.0864  0.147 -0.159
-0.245 -0.217 -0.276
0.0328  0.124 0.0622
 0.147 -0.128  0.216
0.0465 -0.340 -0.221
-0.105 -0.00598 -0.0239
-0.140 -0.237 -0.150
 0.130 -0.0475 -0.0487
 0.261 -0.166 0.0515
 0.209 -0.420 0.0726
-0.242 -0.462 -0.0188
-0.0573  0.473 0.0468
-0.0517 -0.0662 0.0799
 0.313 -0.130 -0.105
 0.122  0.594 0.0338
-0.0446 -0.250 -0.100
 0.247 -0.346 0.0605
 0.148  0.320 -0.167
0.0486  0.140 -0.155
 0.132 -0.351 -0.118
0.0963  0.463  0.120
0.0242  0.390  0.221
-0.177 -0.174 -0.178
 0.194  0.428 0.0573
-0.00337 0.00707  0.136
6.23e-05  0.268 -0.269
-0.289 0.0272  0.138
-0.0839  0.280 0.0908
 0.112  0.215 -0.210
-0.180 0.00954 0.0250
 0.111  0.387 -0.288
-0.136 0.0792  0.157
0.0358  0.225 0.0323
-0.141  0.236  0.187
-0.0666 -0.345 0.0805
0.0252  0.194 -0.276
0.0409 -0.108 -0.0893
0.00947 -0.387 0.0249
-0.257 -0.111 -0.282
-0.235 0.0834  0.255
-0.00435  0.180 -0.134
-0.0220  0.292 -0.0884
-0.190 -0.179 -0.0279
0.0637 -0.319 0.0572
-0.150  0.119 0.0342
-0.157 -0.438 -0.221
 0.170 -0.0301  0.107
0.0452  0.376 -0.164
-0.00500 0.0250 -0.204
-0.0648 -0.261  0.212
-0.176 0.0389  0.220
-0.182 -0.355 -0.00510
-0.161 -0.0858  0.133
-0.0509  0.346 0.0865
-0.0113 -0.203 0.0258
0.0342  0.135  0.265
-0.162 -0.252 -0.300
-0.0648 0.0663 -0.140
-0.0192 0.0879 0.0934
 0.132  0.494 -0.199
0.0346  0.417 -0.102
0.0505 0.0403 0.0763
-0.0838 -0.116 -0.0466
-0.299 -0.0194  0.307
 0.199 0.0152 -0.126
-0.211 -0.291 -0.269
0.0897  0.369  0.262
-0.153 -0.163 -0.0869
-0.0919 -0.129  0.169
-0.367 -0.149 -0.164
-0.0198 0.0261  0.335
-0.0304  0.115 -0.0703
-0.00178 -0.0254 -0.0503
0.0171  0.246 -0.115
0.0743 -0.0121 -0.0563
-0.119  0.285 0.0200
 0.381 -0.156 0.0500
 0.228 -0.256 0.0933
0.0583  0.479  0.278
-0.206 -0.241 -0.0452
 0.141 -0.143 0.0467
0.0570 -0.0699  0.103
 0.107 -0.0622 0.0229
-0.0670  0.388 -0.102
-0.122 0.0452  0.259
0.0136 0.0615  0.188
 0.262  0.191  0.222
-0.134 -0.134 -0.206
0.0591  0.491 -0.296
 0.101 -0.179 -0.0776
-0.156 -0.355 -0.189
-0.00188  0.547  0.158
-0.00188  0.204 -0.0652
 0.249 0.0512 0.0407
-0.0380  0.330 0.0154
 0.112 -0.291 -0.0726
0.00416 -0.303 -0.136
-0.0926  0.197 -0.283
0.0230  0.538 -0.0463
-0.270 -0.116 -0.0974
-0.155 -0.309 0.0922
-0.183 -0.0110 0.0851
-0.111 0.0867 -0.255
0.0682 0.0301  0.302
 0.250 -0.0793 -0.0551
0.0423 -0.319 -0.0863
 0.176 -0.342 0.0601
0.000218  0.388 -0.222
 0.304 -0.118 -0.00386
-0.00812  0.114  0.150
-0.0455 -0.180 -0.0215
 0.114  0.276 -0.0546
0.0197 -0.117 0.0324
 0.103  0.501  0.241
 0.203 -0.352 -0.0735
 0.161  0.556  0.174
-0.152 0.0471 0.0999
 0.212 -0.127 0.0489
-0.0880  0.199  0.119
-0.293 -0.174 -0.0913
-0.0967 -0.0570 -0.0660
-0.110 -0.165 0.0134
-0.0458  0.185 -0.186
-0.0307  0.212 0.0817
-0.162 -0.360 -0.0842
0.0947  0.205 0.0678
-0.135 0.000753 -0.288
-0.106 -0.287 -0.103
 0.160 -0.167 -0.143
 0.260 -0.0171 -0.0230
-0.0960  0.306  0.202
0.0427 -0.0337 -0.104
0.0456  0.498 -0.187
0.00156 -0.124 -0.0384
0.00211 -0.267 0.0551
 0.226 -0.0684 0.0912
0.0276 -0.119  0.138
-0.00882 0.0155  0.256
-0.185  0.272 -0.0427
-0.266 -0.126  0.323
0.0319  0.259  0.108
 0.248 -0.160  0.144
 0.327 -0.0102  0.132
0.0433  0.139  0.122
 0.233 -0.278 -0.0462
-0.258 -0.236 -0.0753
-0.132 -0.0845  0.387
0.0228  0.120 -0.232
0.0125 -0.233 -0.136
 0.108  0.162 -0.0935
 0.215  0.249  0.130
 0.149  0.169  0.125
 0.227 -0.0972  0.223
-0.0923 -0.164 -0.309
0.0319 0.0228 -0.132
 0.200  0.443 -0.175
0.0958 -0.0832 -0.0880
 0.290 -0.0262  0.221
-0.0640 -0.289 0.0601
-0.0152 -0.140 -0.183
-0.0899 0.0199 0.0393
-0.107 -0.260  0.255
 0.210 -0.133 -0.0231
 0.155  0.185 -0.164
-0.0596  0.161 -0.0980
-0.159 -0.304  0.161
-0.0835 -0.0360  0.253
-0.0914  0.127  0.187
-0.0588 -0.0303 -0.165
 0.249 -0.138 -0.126
-0.0822  0.159 0.0685
0.0928 0.0614  0.216
 0.102 -0.150  0.105
-0.0256  0.327 -0.182
 0.432 -0.110 0.0261
0.0493 -0.203 -0.0988
-0.0128 -0.279 -0.0161
-0.265 -0.00327  0.261
 0.204 -0.225  0.153
 0.420 -0.264 0.0295
0.0197  0.421 0.0276
-0.172 -0.0620 -0.000592
0.0894  0.243 0.0142
-0.0954 -0.0350  0.105
0.0439  0.298 -0.351
0.0155  0.109 -0.0263
-0.131 -0.385 -0.0396
0.0430  0.301 0.0208
 0.264 -0.268 0.0102
0.0874  0.249 -0.353
-0.294 -0.224 -0.319
-0.0708 -0.334 0.0100
0.0877  0.147 -0.330
-0.0311 -0.314  0.258
0.0275  0.364  0.162
-0.120 -0.292 -0.0296
 0.126  0.353  0.178
 0.338 0.0204 -0.0265
-0.0573 0.0755  0.330
0.00629  0.488 0.0681
 0.197  0.108  0.105
0.0143 -0.0387  0.193
0.0159  0.555 -0.183
-0.133 -0.230  0.115
-0.0408  0.453 -0.280
-0.0827 -0.119 -0.125
0.0735  0.386  0.327
 0.187 -0.0643 -0.0560
-0.174  0.144 -0.265
 0.112 -0.0861 0.0855
-0.0969  0.440 -0.237
-0.192 -0.0121  0.378
0.0985  0.129 0.0659
-0.154  0.144  0.290
-0.0887 -0.233 0.0501
-0.134 -0.0125  0.267
-0.0876  0.112  0.118
-0.146 -0.200 -0.326
-0.0757 -0.0917  0.330
-0.327 -0.276 -0.135
0.0260 -0.323 -0.0109
0.0124 -0.222 -0.222
0.0255 0.0627  0.283
-0.145 0.0956 -0.142
 0.230  0.438  0.122
 0.118  0.368 -0.00609
-0.155 -0.0678 -0.298
 0.212  0.371 0.00291
-0.179 -0.199 -0.127
 0.101 -0.173  0.161
-0.167 -0.0399  0.313
-0.210 -0.144 -0.280
-0.0159  0.357 -0.269
0.0344  0.126  0.185
-0.0263  0.501 -0.0577
-0.0749  0.215 -0.0118
0.0436  0.588  0.131
-0.223 -0.0488 -0.0437
 0.102 0.0589 -0.172
-0.0992 -0.207 -0.182
0.0550  0.178 -0.105
-0.0262 -0.0752 -0.0589
-0.287 -0.250 -0.258
0.0158 0.00198 -0.295
 0.142  0.543 0.0489
-0.322 -0.106 -0.266
-0.163  0.117  0.194
-0.110 -0.290 -0.166
0.0579  0.495 -0.00455
-0.217 -0.377 -0.0420
-0.0417  0.218  0.144
0.0426  0.407 0.0844
-0.00215  0.140  0.361
0.0378 -0.179 0.0370
0.0622 -0.0483 -0.191
0.0376  0.381 -0.0595
-0.0733 -0.255  0.157
 0.141 -0.393 0.0533
 0.411 -0.0696 -0.0214
0.000235 -0.000315 0.0259
 0.113 -0.172 0.00933
-0.0756 -0.155 0.0619
0.0507 -0.214 -0.0142
-0.160 -0.364 0.0448
 0.116 -0.291 0.0702
 0.118  0.224 -0.0377
-0.0330 -0.144  0.167
 0.200  0.498  0.188
-0.139 -0.0985 0.0589
 0.134  0.419  0.132
-0.223 -0.0629  0.261
0.0651  0.279 -0.158
 0.118  0.162 -0.198
-0.211 -0.300 -0.323
0.0676  0.190 -0.189
 0.182 -0.297 -0.0114
-0.0963 0.0512  0.198
-0.281 -0.0611 -0.0686
-0.109  0.183 -0.0903
0.0346  0.458  0.123
-0.223 -0.283 -0.0763
0.0163  0.186 0.0709
-0.0609 -0.141  0.120
-0.0223  0.354  0.205
-0.196 -0.106 -0.0683
-0.0320  0.141 0.0511
 0.104  0.522 -0.262
-0.0479  0.520  0.166
-0.147 -0.199 -0.216
0.0391 0.0876 -0.130
 0.104  0.364 -0.172
0.0440  0.513  0.108
-0.123  0.238 -0.0428
 0.103  0.466  0.177
 0.132  0.166 -0.305
 0.141  0.302 0.00526
 0.113  0.590  0.155
-0.0711  0.337 -0.307
0.0567 -0.0793 0.0433
-0.0750 -0.124  0.229
0.0860 -0.110  0.204
-0.0750  0.301 -0.0691
0.0706  0.239  0.179
-0.163 -0.0437  0.210
0.0666  0.201 -0.241
 0.255 -0.353 -0.119
-0.0636 -0.276 -0.188
0.0872 -0.381 -0.184
-0.00380 -0.108 -0.133
0.0424  0.272  0.285
-0.0389 -0.360 -0.102
-0.193 -0.464 -0.191
 0.160  0.166 -0.114
 0.123  0.246 -0.135
0.0913 -0.0875 -0.0345
-0.0559  0.160  0.152
0.0665 -0.366 -0.107
0.0230 -0.358 -0.172
-0.00132  0.449 -0.0805
 0.315 -0.170 0.0513
-0.202 -0.125 -0.158
-0.0818 -0.413 -0.0632
0.0881 0.0891 0.0984
0.0272 -0.281  0.229
-0.0471 -0.235 -0.0496
-0.00932  0.374  0.102
0.0734 -0.386 -0.0464
-0.0558 -0.401 -0.162
0.0874  0.325 0.0789
-0.0766 -0.203  0.124
 0.150  0.468 -0.145
-0.177 -0.156 -0.237
0.0373 -0.0368 0.00768
-0.0994  0.117 -0.201
-0.00388  0.236  0.305
-0.116 -0.340 -0.0986
-0.0706 0.0193 -0.118
-0.217 -0.149  0.152
0.0936 -0.260 0.0253
 0.152 -0.269 -0.131
 0.292 -0.346 0.0873
-0.224 -0.204 -0.182
-0.179 -0.0887 -0.129
-0.136 -0.166  0.116
-0.0348  0.396  0.171
-0.0540 -0.166 -0.122
-0.104 -0.435 -0.136
-0.0358  0.165 -0.0476
0.0236  0.149 0.0181
-0.195 -0.0198 -0.183
-0.000751  0.132  0.310
-0.00768 0.0626 -0.135
0.0563  0.421  0.180
 0.122 -0.319  0.137
-0.0351  0.225 0.0244
 0.265 -0.186  0.185
-0.232 -0.438 0.0262
 0.180  0.418  0.106
0.0750  0.419 -0.197
0.0530  0.318 -0.0705
0.0607  0.231 -0.0896
 0.241 0.00593 0.0185
-0.0539 -0.0239 0.0481
 0.100 -0.241 -0.0700
-0.0838  0.417  0.201
-0.0945 -0.357 -0.165
 0.135  0.330  0.288
-0.181 -0.0878  0.399
-0.0617  0.403 -0.193
0.0190 -0.180 -0.173
 0.265 -0.151 0.00304
 0.198 0.0378 -0.0211
 0.204  0.350 -0.238
-0.222 0.0356  0.244
0.0211  0.369 -0.113
0.00474 -0.269 -0.0756
-0.107  0.305 -0.282
-0.0110 0.0537 -0.0664
 0.215 -0.119 -0.158
-0.0583 -0.0218 -0.0423
-0.101  0.309  0.152
 0.200 -0.0499 0.0290
-0.0409  0.346 -0.106
-0.0811 -0.105 0.0587
0.0900 -0.251  0.219
0.0674  0.322 -0.189
-0.341 -0.152 -0.0985
 0.349 -0.0804 -0.0348
0.0156 -0.0961 0.0941
-0.218 -0.107 -0.313
0.0731  0.141 -0.199
-0.127 -0.111  0.272
-0.0527 -0.0320  0.130
0.00514  0.236 -0.0280
-0.125 -0.0570 -0.0206
 0.100 -0.0415 -0.116
-0.175 -0.233 -0.256
0.0733  0.416 -0.0723
-0.00684  0.325 0.0789
0.0810  0.320  0.260
 0.113 -0.347 -0.0646
-0.139 -0.0807  0.334
-0.230 -0.0517 -0.148
-0.124  0.242 0.0768
-0.00546  0.272 0.0166
0.0577  0.355 -0.265
 0.333 -0.231 -0.0616
0.000128 -0.0101 -0.102
-0.190 -0.117  0.201
0.0431  0.217 -0.317
-0.0420 -0.372 -0.00180
0.0300  0.312  0.116
0.0151 -0.00935 0.0936
0.0650 0.00108  0.200
-0.198 -0.119  0.294
0.0582  0.161 0.0803
0.0771 0.0766  0.161
 0.175 -0.389 0.0884
 0.347 -0.0271 -0.0480
0.0669  0.358 -0.312
-0.132 0.0298  0.174
0.0894 -0.124 0.00823
 0.240 -0.0534  0.147
 0.154 -0.234  0.169
-0.179 0.0427  0.392
-0.127 0.0879  0.204
 0.164 -0.285 0.0684
-0.0128 -0.0723 0.0390
0.0101 -0.195  0.111
-0.293 -0.241 -0.109
0.00276 -0.317 -0.185
 0.140 0.0109 -0.159
-0.152  0.419 -0.161
0.0522 -0.349 0.0218
 0.178 -0.430 0.0365
0.0296 0.0278 -0.250
-0.0815 -0.0725 0.0239
-0.0304 -0.347 -0.148
0.0235 0.0883 -0.0774
0.0194  0.179 -0.0186
-0.164 -0.260 -0.0284
0.0885  0.524  0.280
-0.174 -0.461 -0.0642
-0.130  0.145  0.163
-0.0449  0.377 0.0157
-0.156 -0.0427  0.161
0.0631 -0.178 0.0771
-0.0386 -0.258 0.0861
 0.232 -0.158 0.0923
0.0295 -0.00122 -0.0226
-0.0101  0.412 -0.119
-0.154 -0.0570  0.256
-0.0865 -0.107  0.440
0.0553 -0.278 -0.0572
-0.162 -0.122 -0.0402
0.0375 0.0727  0.236
0.0700  0.121 -0.117
-0.210 -0.246  0.159
0.0511  0.297 0.0689
 0.237 -0.135  0.186
 0.344 -0.0907 0.0707
-0.0665 -0.169 -0.169
-0.0644  0.229 -0.194
 0.150 -0.301 -0.0464
-0.213 -0.355 0.0471
 0.158 -0.0581 -0.0123
0.0166 -0.269  0.161
-0.175 -0.215  0.134
-0.126  0.465 -0.209
-0.107  0.398 -0.128
-0.174 -0.276 -0.180
-0.179  0.333 -0.110
 0.333 -0.225 0.0432
-0.226 -0.156 -0.0478
 0.109  0.418 -0.364
 0.253 -0.104 0.0488
 0.111  0.197 0.0192
-0.0399 -0.331 -0.197
0.0886  0.422 0.0984
0.0470 -0.333 -0.267
 0.158 -0.347  0.105
0.00998 -0.616 0.0205
-0.0981  0.411 0.0240
-0.335 -0.110 -0.212
0.0225  0.179  0.132
-0.158 0.0548 -0.117
 0.189  0.176  0.156
-0.264 -0.187 -0.163
0.0120 -0.526 0.0212
-0.118  0.185 0.0536
 0.316 -0.249 -0.00911
 0.115  0.202 -0.126
-0.126 -0.0670 0.0897
-0.0318 -0.0957 0.000409
-0.0631 -0.369 0.0409
-0.164 -0.333 -0.229
-0.138 -0.00237 0.0882
0.0766  0.271 -0.0191
-0.105  0.239 -0.294
-0.114 -0.0977 -0.225
0.0461 -0.133 0.0880
-0.0431  0.260 -0.0524
-0.0632  0.490  0.212
-0.233 -0.0991 -0.137
 0.134 -0.243 0.00997
0.0196 -0.0600 -0.0714
 0.134 -0.262  0.240
-0.00431 -0.425 0.00474
0.0847 -0.330 -0.198
-0.0302 -0.175  0.120
 0.247 -0.347  0.113
-0.0881 -0.375 -0.106
0.0681 -0.134  0.162
0.0314  0.215  0.218
0.0127  0.297 -0.0233
-0.297 -0.177  0.204
 0.106  0.332 -0.0962
0.0869  0.333 -0.232
 0.110  0.454 -0.199
-0.164  0.266  0.162
-0.0388  0.143 -0.202
 0.264  0.165 0.0856
-0.0669  0.527 0.0450
-0.129 -0.420 -0.00409
 0.391 -0.180 0.0877
 0.168  0.380 0.00748
-0.177  0.312 -0.0634
 0.148 -0.0887 -0.0567
0.0113  0.354 -0.192
0.0171 -0.0121  0.232
 0.121 -0.233 -0.217
-0.0303 -0.340 -0.0370
-0.0423  0.219  0.189
 0.121 -0.279  0.117
-0.0825  0.312 0.0178
-0.111 0.0443 -0.125
-0.0359 -0.00582  0.308
0.00341 -0.0530 -0.226
-0.319 -0.0843  0.305
-0.0704  0.175 0.0285
-0.263 -0.165  0.247
0.00904 -0.196 -0.0195
-0.197 -0.177 -0.0855
0.0526  0.447 -0.268
-0.192  0.247 -0.0876
 0.216 -0.134 -0.0675
-0.339 -0.373 -0.0876
 0.272 -0.0623  0.201
-0.0560  0.102 -0.105
 0.137  0.291 0.0892
-0.0208 -0.786 0.0191
-0.0637  0.249  0.120
0.0862 0.0450  0.264
0.00113  0.452 -0.308
-0.0552  0.115 -0.164
0.0617  0.457 -0.0277
0.0243 0.0358  0.112
 0.203 -0.342 0.00740
-0.145  0.340  0.149
-0.122 -0.363 -0.00205
0.0844  0.161 -0.138
-0.0974  0.342 -0.0848
-0.268 -0.364 -0.0425
 0.158 -0.350 -0.0822
 0.182 0.00905 0.0536
-0.194 -0.305  0.113
 0.268 -0.0653 -0.00879
-0.151 -0.166 -0.0114
 0.153  0.275 -0.0307
0.0882  0.147 -0.261
-0.0912  0.249 0.0226
-0.0449  0.307 -0.145
-0.215 -0.0677 0.00650
-0.242 -0.0928 -0.0712
 0.108 -0.409 -0.211
-0.0748 -0.202 0.0220
0.0932 -0.216 0.0161
-0.00598  0.469 -0.00375
-0.325 0.0312  0.320
 0.248 -0.118  0.105
-0.104  0.433 -0.187
0.0951 -0.183 -0.191
0.0973  0.369  0.218
-0.0307 -0.101 0.0972
-0.0280 -0.177 0.0598
0.00884 -0.705 0.0106
-0.123  0.226  0.139
0.0837  0.391 -0.144
-0.0809 -0.298  0.165
-0.104  0.484 0.0418
-0.0742  0.197 -0.235
 0.108  0.225 -0.260
-0.0368 -0.198 -0.200
-0.0903 -0.185  0.219
 0.174  0.145 0.0711
 0.113  0.455 0.0797
-0.132 0.0148  0.301
-0.0289  0.475  0.160
-0.0965 -0.0785 -0.119
-0.114 -0.0732  0.246
-0.0556 -0.0805 -0.139
-0.0880 0.0590  0.287
 0.226  0.141 0.0876
-0.0280  0.337 -0.226
0.0389 -0.225 0.0351
-0.112 -0.246 0.0151
 0.157  0.455  0.149
-0.0720 -0.324  0.120
0.0975  0.253 -0.185
0.0820 -0.251 -0.138
-0.0328 -0.211 -0.115
-0.0626  0.251 0.0674
0.0140 -0.118 -0.207
0.0197  0.146 -0.117
-0.112 -0.108  0.313
 0.106 0.0993 -0.187
 0.191 -0.0956 -0.00671
-0.262 -0.137 -0.244
0.0830 -0.267  0.179
 0.212  0.302  0.133
 0.177  0.308 -0.196
0.0830 -0.318 -0.101
 0.142  0.397 -0.168
0.0699 0.0347 -0.149
-0.0322  0.214 -0.0283
-0.311 -0.142 -0.174
-0.154 -0.408 -0.0682
-0.131  0.120 -0.238
-0.0132 -0.0695  0.181
 0.194 -0.0933 0.0789
-0.233 -0.216 -0.235
-0.0539 -0.295 0.00516
0.0121  0.403 -0.161
 0.111  0.184 -0.0510
-0.0122  0.177  0.224
0.0668  0.348  0.166
-0.0231 -0.300 0.0671
-0.151 -0.0252 0.00586
-0.0655 -0.368 -0.0670
-0.0112  0.151 -0.0805
0.0342 -0.127 -0.00650
0.0871 -0.399 -0.123
0.0127 -0.223 0.0686
0.0858  0.143  0.116
0.0509  0.236 -0.0304
0.0494  0.376 -0.207
-0.211 -0.0791  0.434
-0.0634 -0.148 -0.0740
-0.00439  0.248 -0.0782
0.0887 -0.289 -0.0334
 0.269  0.474  0.117
 0.142  0.281 -0.152
0.0329 -0.296 0.0388
0.0112  0.480 -0.0545
-0.108 -0.123  0.390
-0.0181  0.154 -0.164
 0.111 -0.337 -0.0106
0.00616  0.276 -0.378
-0.183  0.460 -0.137
0.00574 0.0284  0.219
0.0892 0.0700 -0.218
 0.183  0.304 0.000606
 0.104  0.169 0.0887
-0.237 -0.103  0.288
0.0244 -0.365 -0.0721
-0.0862 -0.0825 -0.0168
 0.123 -0.150  0.189
0.0206 -0.307 -0.0522
-0.0244 0.0705  0.158
0.0438  0.380  0.257
0.0421  0.439 -0.180
 0.220  0.167 -0.155
0.0333  0.259 0.0629
-0.0710  0.338  0.149
-0.204 -0.189  0.151
-0.0712 -0.107 -0.0868
-0.191 -0.0107  0.194
-0.0636 -0.121 -0.0103
-0.0100 -0.0633 0.0819
-0.172 -0.0767  0.186
 0.132 -0.111  0.121
0.00636 0.0960 0.0332
0.0753 -0.272 0.0840
-0.101 0.0880 -0.126
-0.00408 -0.0367 0.00340
 0.106  0.204 -0.170
-0.197 0.0208 0.0619
 0.300 -0.00508 -0.0193
-0.0775  0.268 -0.199
-0.261 -0.0455  0.285
-0.147 -0.408 0.0394
-0.0233 -0.262  0.210
-0.00195  0.107  0.191
0.0760 -0.227  0.107
-0.0403 -0.270 -0.136
-0.112 -0.0135 -0.0889
-0.143 -0.324 -0.0549
0.0597  0.423  0.128
-0.176 0.0517 -0.172
 0.201  0.451  0.175
0.0825 -0.174 0.0409
-0.282 -0.268 -0.145
-0.0356 -0.964 0.0227
-0.138 -0.104 -0.117
-0.125 -0.290 -0.296
-0.124 -0.0330  0.233
-0.168  0.247 -0.0155
 0.104 -0.419 -0.00351
 0.258 0.0118 0.0751
-0.0214 -0.299  0.295
0.0922 -0.320 0.0878
-0.170 -0.0345  0.116
0.0801 -0.195 -0.0464
-0.208 -0.275 -0.231
-0.0215 -0.256  0.168
0.0637  0.156 -0.0608
0.0821 0.0164 0.0564
-0.0968 -0.238 0.0982
 0.148 -0.334 0.0154
 0.232 -0.00951 -0.121
-0.368 -0.276 -0.130
-0.237 -0.401 -0.0751
-0.0926 -0.170  0.153
-0.00328  0.198 0.0309
0.0394 -0.0613  0.138
-0.0133  0.219 -0.124
 0.212 -0.125  0.151
-0.0830  0.267 -0.0481
-0.0495  0.141 -0.132
-0.400 -0.105 -0.136
-0.0429 -0.407 -0.0538
0.0402  0.415 -0.245
 0.197  0.216  0.114
0.0717  0.283 -0.0873
-0.193 0.0789  0.227
-0.137 -0.197 -0.160
0.0685  0.497 0.0343
-0.0195 -0.0362  0.155
-0.156 -0.331 -0.115
0.0624  0.478  0.101
0.0472 -0.117 -0.0503
 0.135  0.200 0.0705
-0.0955 -0.120 -0.166
 0.174 -0.0102 -0.107
0.0342  0.127 -0.190
-0.0811 -0.0180 0.00580
0.0251  0.172 -0.0578
0.0245  0.390  0.131
0.0418 -0.00959 0.0494
 0.131 -0.194  0.174
-0.0954 -0.150 -0.103
-0.0577  0.433 0.0532
-0.0417 -0.00713  0.257
 0.147  0.358 -0.188
-0.0825  0.130 -0.0795
-0.118 -0.320 0.0689
 0.301 -0.0921 -0.0346
 0.115 -0.0123 -0.0378
-0.382 -0.231 -0.108
0.0528 -0.268  0.144
-0.0641 -0.152  0.202
0.00872 -0.152 0.0584
0.0741 0.0879 -0.166
 0.146 -0.0495 0.0780
 0.245 -0.268 -0.0829
0.0157  0.288 -0.0999
 0.152  0.131 -0.169
0.0896 -0.322 -0.238
-0.172 -0.0706  0.289
-0.104  0.219 -0.0748
-0.0447 0.0811  0.125
 0.183 0.0714  0.110
0.0724  0.208 0.0233
-0.0822 -0.0341  0.214
-0.226  0.130  0.256
-0.130  0.175 -0.167
-0.174 0.0669 0.0740
0.00562 -0.0855 -0.00678
-0.188 -0.329 -0.0788
-0.222 -0.0360  0.166
-0.270 -0.0758 -0.299
0.00145 -0.268 -0.119
-0.207 -0.172 -0.153
 0.190 -0.168 -0.175
-0.129 -0.101 -0.0363
-0.196 -0.0579 -0.170
-0.127  0.309 -0.122
0.0439 0.0470 -0.214
-0.0531 -0.285  0.111
-0.0362  0.180 0.0494
-0.195 -0.436 0.00957
0.0386  0.209 0.0937
-0.128 -0.106  0.137
-0.129 0.0862 0.0370
-0.0743 -0.322 -0.0807
 0.131 -0.185 -0.109
-0.0198  0.426 -0.261
 0.158 -0.101 0.0191
-0.0386 -0.245  0.124
-0.0251  0.455 0.0601
 0.214  0.177  0.186
0.0825  0.508  0.116
0.0243  0.233  0.258
-0.0793 -0.362 -0.0165
0.000243  0.324 0.0107
 0.220 -0.205  0.182
0.0690 -0.375 -0.00908
 0.347 -0.126 -0.123
0.0596 -0.0995 0.00981
 0.353 -0.158 -0.0813
0.00814  0.110 -0.109
0.0570  0.384  0.191
 0.158 -0.177 0.0358
 0.374 -0.0200  0.114
 0.261 -0.113 0.00549
0.0466 -0.233 -0.0748
 0.245 -0.349 -0.171
0.0515 0.0607  0.196
-0.133  0.408 -0.100
-0.0825 0.0402 0.0714
-0.0917 0.0885  0.183
0.00776 0.0452  0.146
0.0271  0.229 -0.0655
-0.271 -0.163 -0.217
-0.106 -0.314 -0.136
 0.168 -0.207 0.00962
-0.0295 -0.865 0.0160
-0.0659 -0.362 -0.135
-0.00108  0.457  0.140
0.0229 -0.259 0.0877
-0.0339  0.557 -0.151
0.0516 -0.0465 -0.0461
-0.0623  0.188 0.0826
-0.105  0.133  0.326
-0.137 -0.463 -0.112
-0.00228  0.240 0.0595
0.00336  0.397 -0.0671
-0.290 -0.461 0.00591
-0.183 -0.0367  0.350
-0.0830 -0.122 0.0228
-0.131  0.104  0.276
0.0322  0.176 -0.144
 0.224 -0.156 0.0273
0.0569 -0.116  0.228
-0.119  0.188 -0.00994
-0.112  0.112  0.148
0.0804 -0.252 -0.0373
-0.150 -0.0822  0.425
 0.131 -0.177 -0.0242
 0.255 -0.0922  0.249
 0.179  0.220 -0.191
-0.298 -0.373 -0.0705
0.00523 0.0448 -0.174
-0.0491 -0.252 0.0499
-0.0105 -0.334 -0.103
0.0296  0.327 -0.172
 0.195  0.266 -0.216
-0.115 -0.115  0.464
 0.348 -0.130 0.0114
 0.261 -0.192 0.00600
 0.307 -0.143 0.0243
0.0674  0.375 0.0969
-0.113 -0.338  0.168
-0.0336 -0.382 -0.136
0.0381  0.450 0.0112
 0.119  0.491  0.132
0.00289  0.494 -0.156
 0.135  0.249 0.0851
0.0438  0.189 0.0387
-0.0665  0.303 -0.222
-0.122 -0.231 -0.237
0.0905 -0.353 0.0564
-0.0898  0.401  0.237
-0.137 0.0141  0.240
0.0534 0.0255 -0.279
0.0105  0.290 -0.241
-0.0472 -0.261  0.248
-0.204 -0.461 -0.0426
-0.134 -0.0509 -0.0622
-0.183 -0.266 -0.271
0.0319  0.501 -0.0313
-0.264 0.0915  0.277
-0.0231 -0.235 -0.00692
-0.0350 -0.138 -0.0280
0.0818  0.319  0.307
 0.277 0.0765 0.0357
-0.271 -0.183 -0.126
-0.00982 -0.240 0.0318
-0.148 0.0430  0.354
 0.163 -0.0478 0.0328
0.0970  0.332  0.228
 0.175  0.183 0.0423
0.00808  0.179 -0.244
-0.0605  0.515 -0.0652
 0.142  0.129  0.178
-0.198 -0.125  0.239
-0.0204 -0.310  0.222
 0.150 -0.265  0.148
 0.390 -0.273 0.00482
-0.0637  0.119 0.0901
-0.137 -0.440 -0.182
0.0770  0.249 -0.0536
-0.0595 -0.0520 -0.0724
0.0390  0.272 -0.130
-0.0289  0.184 -0.0866
0.00262  0.436 0.0799
-0.192 -0.286  0.157
-0.0870  0.173 -0.132
 0.230 -0.279 -0.00211
-0.171 -0.0882 -0.0274
 0.183  0.185 -0.0882
0.0677  0.150  0.257
 0.132 -0.337 0.0515
 0.129 -0.274 -0.101
-0.338 -0.160 -0.138
 0.168 -0.159  0.215
-0.117 -0.116  0.194
 0.193  0.409 -0.188
 0.159 -0.298 0.0337
-0.109 0.0520 0.0417
0.0500 -0.334 -0.123
0.0953  0.294 0.0132
-0.00471 -0.353 -0.0135
 0.104 -0.431 -0.133
 0.122 -0.134 0.0779
-0.0554 -0.0280  0.285
-0.0464 -0.118 0.0569
-0.173 -0.213 -0.0250
-0.0437 -0.209 -0.0760
0.0123 -0.224 -0.172
-0.183 -0.157 -0.115
-0.313 0.000507  0.131
0.0219  0.423  0.110
 0.254  0.180 -0.156
-0.220 -0.196 -0.123
 0.328 -0.0631 0.0960
0.0873 -0.0491  0.105
-0.125 -0.304  0.149
0.0630 -0.0610 -0.0901
-0.113 -0.319 -0.243
-0.0919 -0.362  0.103
0.0820 -0.286 -0.126
-0.0358 -0.0244 0.0801
 0.190 -0.124 0.0194
0.0742  0.259  0.209
-0.111 -0.112 -0.0907
-0.149 -0.167 0.0758
0.0540  0.382  0.293
 0.274 -0.128 -0.168
0.0920  0.340  0.193
0.0466  0.500  0.306
0.0449 -0.206  0.106
-0.0524 -0.222 -0.144
0.0628  0.190 -0.00697
-0.0749 -0.0540 -0.194
-0.259 0.00839  0.148
 0.167 -0.352 -0.127
 0.157 -0.203 -0.136
-0.212 -0.339 0.00812
0.0180 -0.150  0.122
0.0226 -0.00105 -0.0620
0.0145 -0.355 -0.231
-0.0157  0.112 0.0664
-0.207 -0.193 -0.213
-0.117 -0.185 -0.233
-0.0391 0.00724 -0.0524
 0.142  0.157 0.0915
-0.0306 0.0602  0.349
 0.222  0.437 0.0867
-0.148 -0.247 -0.213
 0.281 -0.148 -0.0295
-0.0106 -0.150 0.00699
0.0948 -0.308 0.0419
-0.125 -0.283 0.0943
-0.227 -0.130  0.312
0.0953  0.568 0.0222
-0.134 -0.0958 -0.254
-0.0358 0.0870 -0.176
 0.229  0.409 -0.215
 0.117  0.292 -0.0199
0.0352 -0.0767 -0.156
0.0571  0.107 0.0990
-0.144 -0.133  0.104
-0.00679  0.370  0.171
-0.0883 -0.307 0.0406
0.0686  0.534 -0.301
0.0550  0.311 -0.106
-0.0444 -0.268 -0.0286
-0.0562  0.374 -0.172
-0.0486  0.382  0.201
0.0310  0.268 0.0178
-0.0118  0.187  0.126
0.00947  0.127  0.121
-0.149 0.0599  0.241
0.0697 -0.339 -0.0749
-0.0623 -0.212 -0.0266
0.0845  0.439  0.148
-0.0515  0.188 -0.00706
-0.286 -0.103  0.304
0.0652  0.139  0.151
-0.0719 -0.316 -0.238
-0.215 -0.127 -0.0893
0.0742 -0.390 -0.0820
 0.132  0.338 0.00835
-0.112 -0.0558 0.0172
 0.177 -0.451 0.00616
0.0564 -0.0942  0.192
0.0106 -0.267 -0.154
 0.114 -0.103  0.224
 0.109 -0.0528 -0.0208
-0.171 -0.341 0.0952
0.0861  0.252 -0.102
 0.160 -0.0286 -0.0467
 0.279 -0.259 -0.0203
-0.128 -0.363 -0.0746
0.0805 -0.0953 0.0721
-0.0843  0.285  0.126
0.0479  0.434  0.238
-0.0874 -0.200 0.0798
0.0320  0.128  0.221
 0.270 -0.148 -0.0995
 0.150 0.0552 -0.0490
-0.0459 -0.204 0.0448
-0.0448 -0.0138  0.166
0.0233 -0.345 -0.0384
-0.0495  0.495 -0.302
0.0888 -0.155 -0.0101
 0.120 -0.140 -0.00280
-0.125 -0.427 -0.213
 0.185 -0.0593 0.0810
0.0845  0.172 0.0560
-0.0866 -0.309 -0.0298
0.0610  0.394 -0.0973
 0.231 -0.0398 0.0152
0.0773 -0.378 -0.149
-0.0377  0.294 0.0138
 0.244 -0.137 0.0635
-0.114  0.156 0.0837
-0.160  0.153 -0.234
 0.217 -0.0791 -0.0430
 0.348 -0.155 0.0394
-0.177  0.127 -0.300
0.0168 0.0443  0.248
0.0929 -0.258  0.116
0.0342  0.350 -0.143
 0.107  0.484  0.210
0.000760 0.0837 -0.00771
0.00797 -0.187 0.0595
 0.241 -0.123 -0.0356
-0.0230 -0.141  0.125
0.0620  0.140  0.203
-0.0164 -0.314 -0.0108
0.0545 -0.135 0.0205
-0.0381  0.431 -0.111
-0.151  0.243 -0.0797
-0.187 -0.0518  0.247
0.0484  0.208  0.165
 0.114  0.165 -0.163
0.0426 0.0742  0.165
-0.302 -0.206 -0.100
-0.204 0.0601  0.413
0.0496 -0.295 0.0790
 0.301 -0.205 0.0409
0.0358  0.426 -0.0691
-0.172  0.275 -0.0751
0.0362  0.114  0.145
0.0267 -0.0554 -0.200
 0.133  0.131 0.0687
 0.225  0.456  0.199
-0.0834 -0.0798  0.298
 0.122  0.142  0.138
-0.121 -0.177 -0.333
0.0454  0.357  0.121
-0.0550  0.138 -0.0571
-0.120 -0.405 -0.0672
-0.172  0.249 0.0188
-0.151 -0.0895 0.0989
0.0405  0.211 -0.109
 0.237 -0.0791  0.122
-0.0154 -0.286  0.152
-0.208 -0.133  0.122
 0.106  0.399 -0.335
-0.0814 -0.0285 -0.0856
-0.181 -0.276 -0.315
-0.232 0.0187 -0.184
0.0149 -0.184 -0.207
0.0107 -0.162 -0.0182
-0.175 -0.140 -0.183
0.000292 0.00970 -0.251
-0.0189 -0.107 0.0304
 0.401 -0.128 -0.121
-0.0561 -0.141 -0.152
0.0238  0.529  0.131
0.0957  0.338 0.0145
-0.00731 -0.393 -0.00569
-0.134 0.0297  0.135
0.0939  0.151 -0.296
0.0722 -0.0965 -0.0619
-0.00237 -0.111 0.0690
-0.234 -0.150  0.238
-0.109 0.0163 0.00175
0.0283  0.329 -0.0436
0.0155 0.0264 0.0112
0.0921  0.115 -0.148
0.0154 -0.455 0.0113
0.0878 -0.323 0.0101
-0.139 -0.142 -0.0645
-0.197 0.0120  0.237
-0.0410  0.505 0.0485
 0.264 -0.154  0.198
0.0924 -0.289  0.154
 0.163  0.585  0.197
-0.0446 -0.340 0.0454
0.0683 -0.131  0.114
0.0488  0.401  0.345
-0.0169 -0.0378 -0.0921
 0.415 -0.0954 0.00157
-0.0299  0.350  0.114
0.0167 -0.199 -0.138
0.0612 -0.243 0.0162
-0.0217 -0.383 -0.0729
-0.0648 -0.272 0.0272
 0.108  0.303 -0.0744
-0.162 -0.292 -0.291
0.00971  0.155 0.0828
 0.222  0.152 -0.187
-0.0652  0.276 0.0195
-0.139 -0.262  0.124
0.0183  0.273 -0.314
-0.111  0.337  0.208
 0.148 -0.303 -0.0112
 0.322 -0.343  0.103
-0.00822 0.0863  0.132
-0.0417  0.342 -0.284
 0.209  0.198  0.140
 0.140 -0.0740 0.0276
 0.371 0.0288 -0.0288
 0.141 -0.347 -0.0390
 0.307 -0.153 -0.0581
0.0243  0.111 0.0932
-0.187 -0.0808 -0.0889
-0.149  0.120 -0.266
 0.107 -0.143 0.0442
-0.0748 -0.420 -0.139
 0.105  0.243 -0.321
-0.0109 -0.0268  0.124
-0.138 -0.0399  0.112
-0.156 -0.0747  0.221
-0.0802 -0.271 0.0870
-0.147 -0.222 -0.180
-0.0283 -0.174 0.0228
-0.138  0.206 0.0334
-0.0918  0.337  0.123
 0.196 -0.244  0.127
0.00467  0.314 -0.190
-0.108 -0.425 -0.0440
-0.258 -0.0682  0.254
-0.308 0.0130  0.297
0.0101 -0.242 -0.0999
-0.109 -0.400 0.0267
-0.0757  0.276  0.196
0.0778 -0.298 -0.0717
0.0999 -0.215 -0.183
 0.126  0.454  0.132
 0.150  0.492 -0.169
-0.122  0.255 0.00746
-0.0542  0.437 -0.252
 0.399 -0.195  0.116
0.0658  0.143 0.0530
0.0597  0.240 0.0583
 0.105 -0.0355 0.0437
 0.175 -0.0943 -0.0357
-0.125 -0.340 -0.205
-0.130 -0.197  0.104
-0.250 0.0127  0.236
-0.115  0.473 -0.261
 0.189  0.335 -0.212
0.0707 0.0893  0.129
 0.125 -0.409 0.0204
0.0589 -0.0905 -0.116
-0.109 0.00831  0.257
0.0228 -0.151 0.0268
-0.0513 -0.321 -0.0203
 0.338 -0.108 -0.0116
0.0807 -0.174  0.132
-0.214 -0.298 -0.358
-0.115  0.210  0.186
0.0695 -0.275 0.0517
 0.266 -0.0845 0.0721
-0.190 -0.454 -0.228
-0.245 -0.0573  0.154
-0.0958 -0.177 0.0476
-0.344 -0.239 -0.321
-0.0534 -0.0914 0.0248
-0.000168 -0.117 -0.101
0.0748 -0.114 -0.0243
 0.122 -0.0779 -0.00430
-0.0674 -0.201 -0.189
-0.194 -0.271 -0.0522
-0.0527 0.0338  0.307
-0.00519  0.507  0.152
-0.138 -0.436 -0.0402
0.0530 -0.299 -0.0321
0.0439 -0.00614 -0.122
-0.0568  0.321 -0.0880
-0.288 -0.241 -0.289
-0.0815 -0.0625 0.0550
-0.0609 -0.189 -0.143
-0.151 -0.0891  0.165
 0.245 -0.239  0.115
-0.0954 -0.151 -0.339
 0.131  0.563  0.156
-0.0308 -0.341 0.0106
0.0411  0.344 -0.205
 0.237 -0.105 0.0775
-0.0529 -0.0986 -0.0317
0.00510  0.409 -0.0243
 0.141 -0.101 0.0831
 0.226 -0.133 -0.103
-0.143 -0.0163 0.0415
 0.261 0.0380 0.0132
-0.0408 -0.294 -0.0470
-0.0345 -0.117 -0.138
-0.0970 -0.265  0.215
-0.283 -0.164 -0.177
-0.103  0.202  0.153
 0.128  0.308 -0.140
-0.0718  0.355 -0.111
-0.0323  0.398 -0.226
0.0877  0.228 -0.0273
-0.0174 -0.257 -0.0430
-0.0820 -0.0354 -0.0246
 0.249 -0.205  0.165
 0.345 -0.0341  0.116
0.0737  0.380 -0.252
-0.163 -0.0841  0.372
0.0209 -0.278  0.198
-0.0830 -0.208  0.192
-0.208  0.314 -0.0737
 0.149 -0.146 0.0154
-0.00151  0.580  0.173
 0.378 -0.136 0.0249
-0.0406 0.00765 -0.120
-0.178 -0.150 -0.0197
 0.202  0.427  0.134
-0.119  0.142 -0.194
-0.0497  0.343  0.173
-0.152 -0.134 -0.233
-0.175 -0.153 -0.0657
-0.165 -0.426 0.0131
-0.0990  0.397 -0.0971
0.0158 -0.230 0.0997
-0.107  0.217 -0.000970
0.0669  0.265 0.0166
-0.0916 -0.322  0.148
-0.191 -0.122 -0.0272
-0.171 -0.246  0.144
-0.0282  0.185 -0.159
0.0795  0.207 -0.101
-0.00408 -0.0561 -0.0418
0.0438  0.329 -0.251
0.0515  0.439  0.101
-0.107  0.314 -0.0647
-0.183  0.115  0.224
-0.0389  0.377 -0.112
0.0601  0.140 -0.0914
 0.161 0.0245 -0.0320
 0.149  0.244 -0.0354
0.0218 -0.256  0.123
0.0238  0.465 0.0811
-0.134 0.0338  0.327
-0.195  0.313 -0.129
-0.110 -0.180 -0.270
0.00571  0.138 -0.0573
 0.324 -0.203 0.0631
-0.0864  0.304 -0.258
0.0884  0.195 -0.143
0.0384 -0.0398  0.172
-0.178 -0.0138  0.230
-0.0248 -0.237 0.0675
-0.115 -0.214 0.0114
 0.406 -0.159 0.0687
0.0878 -0.0875 0.0254
-0.00250  0.241 0.0196
-0.101 0.0656 -0.148
0.0878 -0.0317  0.134
 0.382 -0.252 0.0460
 0.172 -0.220 -0.158
-0.130 -0.00713  0.188
 0.140 -0.279 0.0912
0.0244  0.294 -0.269
-0.0763  0.289 -0.143
 0.201 -0.287 -0.0558
0.0441  0.429 0.0458
0.0162 -0.0638  0.160
-0.0913 -0.255  0.281
-0.0245  0.520 -0.327
-0.289 -0.264 -0.230
-0.00130 -0.157 -0.206
 0.153  0.526 -0.178
 0.180  0.191  0.120
-0.0398 -0.284 -0.108
-0.129  0.132  0.304
0.0573 0.0356  0.271
-0.00844  0.156 0.0300
0.0889 0.0154 -0.0604
-0.272 -0.213 -0.116
0.00493  0.365  0.140
-0.0198 -0.100  0.129
0.0494  0.309 -0.156
 0.170 -0.000232 0.0970
 0.114 -0.217 -0.0912
0.0208  0.469 -0.0218
0.00537  0.430 -0.000658
-0.204 -0.164 -0.256
0.0855 -0.139  0.191
-0.145  0.331 -0.109
0.00723 -0.296 -0.0915
 0.165  0.415 0.0784
-0.168 0.0126 0.0537
-0.0326 -0.0648 -0.0296
-0.0849 -0.381 0.0619
-0.172 -0.284  0.131
0.0608  0.377  0.221
-0.0591 -0.393 -0.0309
 0.282  0.188 -0.173
-0.138  0.115  0.165
-0.134 -0.361 0.0275
0.0387 -0.0135  0.208
0.0174 0.0331  0.277
0.0616  0.134 -0.252
 0.174  0.148 -0.156
-0.0208 -0.146 0.0506
-0.116  0.340  0.162
-0.0455  0.312 -0.201
0.0513 0.0769 0.0998
-0.164 -0.215 -0.279
0.0392 -0.0756 0.0179
0.0202  0.129 -0.163
-0.0794 -0.0803 -0.0470
-0.0523 -0.161 0.00851
-0.0667  0.177  0.119
-0.0154  0.475 -0.139
0.0448 -0.0382 -0.218
0.0856 -0.0378 0.0195
 0.125  0.150 -0.117
-0.0949 -0.122  0.132
0.0881  0.179 -0.113
 0.439 -0.0765 0.00312
-0.116 0.0635  0.175
 0.281 -0.131 -0.0747
-0.170  0.101 -0.125
0.00399 0.0236 -0.0632
-0.00271 -0.0327  0.218
 0.114 -0.251  0.151
-0.101  0.221 0.0801
-0.0862 -0.441 -0.0744
-0.0922  0.226 -0.270
-0.271 -0.0886 -0.0797
0.00483  0.398 0.0898
-0.131  0.341 -0.0717
-0.0921 -0.340 0.0317
-0.0536 -0.189 -0.0550
 0.240 -0.279 0.0270
-0.139  0.193 -0.0924
 0.162  0.291 -0.176
 0.156  0.189 0.0897
0.0374 -0.358 -0.101
-0.0184 -0.250 -0.0840
0.0679  0.230 -0.330
0.0338 -0.0832 -0.0571
 0.105 -0.0952 -0.0608
0.0759  0.439 -0.228
-0.216 -0.360 -0.0165
0.0849  0.501 -0.274
-0.145 -0.245 0.0907
0.0209 -0.258 0.00783
0.0914  0.231 -0.164
0.0696  0.119 0.0735
 0.163  0.161  0.151
-0.0623 -0.216  0.148
-0.00445 -0.286 0.0322
0.0317  0.177 -0.181
 0.232 -0.451 0.0482
0.0392 -0.0905 0.0658
-0.00527 -0.132 -0.0722
-0.00657 -0.812 0.00377
 0.207 -0.279 0.0687
0.0425 -0.333 -0.0590
 0.290 -0.120 0.0341
0.0284  0.201  0.187
-0.138 -0.0461 -0.285
0.0320  0.180  0.103
0.0352 0.0143 0.0808
-0.174  0.274  0.198
-0.0430 -0.306 0.0895
-0.171  0.279  0.135
0.0128  0.317 -0.111
-0.0173  0.437  0.160
0.0177 0.0638 -0.152
 0.148 -0.00696 -0.0293
0.0319  0.264 -0.0254
-0.00104  0.160  0.154
 0.141  0.328 -0.0187
-0.230 -0.354 0.0720
-0.185 -0.350 0.0337
-0.171 0.0239 0.0936
0.0269  0.385 -0.141
-0.127  0.104 0.0636
-0.138 -0.281 -0.176
0.0169  0.381 -0.0372
0.0429 -0.116  0.164
-0.0363 -0.132 0.0875
-0.144  0.112 -0.106
-0.00519 -0.332 -0.135
 0.142  0.386 -0.00815
0.00973 -0.360 -0.199
0.0592 -0.356 -0.0435
 0.178 0.0510 0.0878
-0.124 -0.190 -0.296
-0.0562  0.539  0.188
 0.268 -0.0181  0.200
 0.101  0.152 -0.234
-0.00283 -0.115  0.108
0.0792  0.230  0.149
0.0156 -0.285 -0.00774
0.000243 -0.348 0.0259
-0.241 -0.232 -0.211
0.0844 -0.413 -0.0403
0.0435  0.397  0.167
-0.0180 -0.242  0.101
0.0773  0.215 -0.272
-0.284 0.0194  0.262
 0.183 -0.0986 0.0509
 0.455 -0.0905 0.0296
-0.207 -0.0956 -0.154
-0.113 -0.311  0.115
-0.0904  0.177 -0.0247
-0.110 -0.428 -0.177
 0.277 -0.147 0.0301
-0.0966  0.255 -0.258
-0.133 -0.359 -0.171
 0.133  0.465 -0.169
0.0518  0.189 -0.214
-0.294 -0.114  0.331
 0.103  0.567  0.139
-0.239 -0.0136  0.245
 0.317 -0.242 -0.0385
-0.0517 -0.0148  0.221
-0.0807  0.173 -0.270
-0.0376 0.0361 -0.0611
-0.159  0.256 -0.0424
-0.150 -0.0925  0.266
-0.317 -0.166 -0.117
-0.00513 0.0955 -0.0724
 0.311 -0.0331  0.121
0.00740 -0.294  0.247
0.00629  0.350 0.0903
 0.218 -0.281 -0.0800
-0.0880 0.0941  0.144
0.0722  0.364  0.138
0.0565 -0.0472 0.0280
 0.301 -0.0823 0.0799
-0.0522 -0.0412 0.0228
-0.242 -0.132 -0.102
-0.199 -0.297  0.184
 0.134 -0.0135 -0.143
-0.0943 0.0278  0.275
-0.0802 -0.0524 0.0858
-0.0627 -0.229 0.0764
-0.210 -0.0895  0.266
-0.0170  0.160 0.0704
 0.102  0.253 -0.0344
-0.0714  0.217 0.0231
 0.116  0.401 -0.154
 0.227 -0.0423  0.123
0.0928 -0.130 0.0841
 0.127 -0.304  0.167
-0.0952 -0.0757  0.268
-0.175 -0.175 -0.214
-0.00797 -0.544 0.00873
0.0547 0.00757 -0.0668
-0.117 -0.252 -0.140
-0.0390 -0.204 -0.00526
-0.0691 -0.404 -0.188
 0.360 -0.179 0.0690
 0.242  0.194  0.192
 0.152 -0.419 0.0295
 0.121  0.240 0.0104
0.0934 -0.159 0.0785
0.0606  0.150  0.286
-0.334 -0.168 -0.166
-0.0396  0.338 -0.135
 0.120 -0.248 -0.0920
-0.0251 -0.0495 0.0533
-0.251 -0.249 -0.146
-0.222 -0.448 -7.50e-05
-0.105 -0.106 -0.0135
-0.0677  0.408 -0.221
-0.00109 -0.370 -0.145
-0.174 -0.349 0.0671
0.0743  0.318 0.0162
0.0934  0.210 -0.233
-0.0574  0.186 -0.213
 0.146  0.235 -0.157
-0.0319 -0.390 -0.0995
-0.125 -0.143 -0.179
-0.00380  0.577 -0.185
-0.0463  0.212 -0.174
 0.238 -0.0946 -0.0269
-0.188 -0.471 -0.163
-0.171 0.0127  0.363
-0.0404 -0.161 -0.180
-0.236 -0.135 -0.271
-0.124 -0.155 0.0918
0.0590  0.146 -0.127
0.0207  0.483  0.129
-0.195 -0.228 -0.184
-0.0371  0.216 -0.0572
-0.0376 -0.302 -0.150
0.0743 0.0743 -0.192
0.0763  0.469 0.0305
0.0355  0.142 0.0868
-0.147 -0.0148  0.294
-0.0333  0.209  0.117
-0.111 0.0150 -0.105
-0.00762  0.376 -0.186
 0.289 -0.177 0.0614
-0.197 -0.0877  0.364
0.0205 -0.0462 -0.0143
 0.174 0.0724 -0.0467
 0.292 0.0679 0.00118
-0.0218  0.139 -0.123
 0.177 -0.191 -0.160
0.0463  0.356 -0.0704
0.0250 -0.102 -0.0263
-0.248 -0.0182  0.153
 0.160 -0.0286 -0.0124
 0.118  0.223 0.0762
-0.116 -0.0816  0.351
-0.0472 -0.342 -0.0805
-0.280 -0.00894  0.139
-0.0888 -0.00836  0.269
-0.0849 -0.331 0.0625
-0.157  0.136  0.158
-0.322 -0.114 -0.238
-0.240 -0.0249 -0.0443
-0.0972 -0.307 0.0907
-0.00497 -0.767 0.00236
0.0661  0.102 -0.139
0.0152  0.101  0.169
0.00171  0.430 -0.284
-0.0456 -0.322 -0.117
 0.227 -0.145  0.118
-0.171 -0.0985  0.213
-0.245 0.0443  0.259
-0.254 -0.381 -0.0621
-0.0674 -0.339 -0.192
0.0307 -0.279 0.0643
 0.105  0.518 0.0415
-0.376 -0.133 -0.131
-0.0646  0.233 -0.0499
-0.135 0.0924 -0.278
-0.149 -0.194 -0.186
-0.185 -0.0795 -0.0510
-0.0976 -0.108  0.338
-0.0677 0.00921 -0.0491
-0.00712 -0.509 0.00875
 0.152 -0.235 -0.134
-0.0450  0.420  0.160
 0.105 -0.349 -0.107
 0.122  0.176 -0.135
-0.0999 -0.390 -0.0526
-0.101 -0.146 0.0728
-0.0355 -0.169  0.148
 0.116 0.0856  0.102
-0.165 -0.00729  0.108
0.0442 0.0659 -0.0792
0.0226  0.173 -0.110
 0.257 -0.122  0.138
-0.0581 -0.396 -0.0757
-0.0880 -0.260 0.0616
0.0153 -0.135  0.159
0.0435  0.285 -0.0922
 0.117 -0.274 0.0161
 0.106  0.325  0.274
-0.242 -0.0346  0.266
-0.191 -0.0967 -0.00949
 0.127 0.0672 -0.181
-0.123 -0.0227 0.0714
-0.233 -0.257 -0.0699
-0.0674 0.00839 0.0620
 0.406 -0.118 0.0179
-0.119  0.243 -0.333
-0.0573 -0.178 -0.0885
 0.228 -0.0143 0.0343
-0.256 0.0180 -0.170
0.0415  0.561  0.122
 0.161  0.333 0.00695
-0.0243  0.468 -0.302
-0.0384  0.258 0.0194
-0.00557 -0.296 -0.0531
0.0243 -0.0543 0.0295
 0.144  0.187 0.0307
0.0958 -0.305 -0.0106
-0.00775  0.370 -0.118
 0.262 -0.0355 -0.00137
-0.0935  0.139 0.0933
-0.125 -0.442 -0.155
-0.162 -0.0919 -0.0967
 0.209 -0.288 -0.0197
 0.169 0.0952  0.104
-0.249 -0.0258 -0.144
 0.115  0.552 0.0353
0.0774  0.369 -0.164
0.0889  0.150 -0.177
0.0910  0.408 -0.165
-0.224 -0.0752 -0.0542
-0.00948  0.199 -0.0383
0.0345 -0.267 0.0310
-0.218 -0.471 -0.203
 0.174  0.270 -0.192
-0.128  0.257 -0.0691
0.0867  0.475  0.228
0.0520  0.392 -0.234
0.0662 -0.0492  0.129
0.0619 -0.332 -0.0113
-0.0482 -0.195  0.130
-0.0370  0.478 -0.0710
0.0326 -0.204 0.0619
-0.0574 -0.347 -0.0325
 0.183 0.0108 -0.0205
-0.112 -0.117 -0.200
 0.316 -0.171 -0.0241
 0.144 -0.167  0.198
0.0239  0.270  0.308
-0.0684  0.423  0.178
0.00624  0.198  0.227
0.00354  0.101  0.109
 0.123  0.420 -0.134
-0.0386 -0.217 0.0212
0.0995 -0.413 -0.155
-0.140 -0.0125 -0.0838
-0.0553 -0.127 -0.0571
 0.241 -0.126 -0.151
-0.0620  0.198 0.0560
 0.246 -0.127  0.211
-0.100  0.339 0.0197
-0.150 -0.215 -0.253
-0.0877 -0.145 -0.155
 0.238 -0.345 0.0338
 0.202 -0.343 0.0511
0.0460  0.298 -0.323
-0.0745 -0.260  0.255
 0.224 0.0832 -0.0253
0.0434 -0.352 -0.154
 0.140 -0.339 -0.0123
-0.117  0.224  0.112
 0.243 -0.168 0.00487
-0.0933  0.191 0.0226
0.0719 -0.225 -0.135
 0.184 -0.345 0.0866
-0.00203 0.0888 -0.126
 0.101  0.404 0.0773
-0.0236 -0.0913 -0.0265
 0.283 -0.348  0.114
-0.0228 0.00781  0.287
-0.251 -0.160  0.212
0.0186  0.513 -0.169
0.00411 -0.678 0.00425
 0.168 -0.136 0.0434
-0.107  0.215 -0.308
-0.0908  0.340 -0.326
 0.265 0.0213 -0.00873
0.0337 -0.227 -0.0507
-0.0206 -0.0638 -0.00157
 0.182  0.240  0.110
 0.194 -0.0497 -0.0788
 0.116 -0.326  0.111
0.0123  0.173 0.0367
-0.00124 -0.633 0.00231
-0.166 -0.0166  0.337
-0.252 -0.180 -0.187
0.0229  0.398 -0.258
-0.0637  0.399 -0.163
-0.0322 -0.304  0.165
-0.0675  0.193 -0.0294
0.0464  0.238 -0.114
-0.206 -0.0786 -0.132
-0.143 0.0842  0.229
-0.133  0.408 -0.145
0.0699 -0.0965 -0.0897
-0.0397 -0.0553  0.122
0.0350  0.509 0.00237
-0.0368  0.113 0.0857
