ply
format ascii 1.0
element vertex 2048
property float x
property float y
property float z
end_header
0.0666 -0.126  0.790
-0.310 -0.494 -0.707
 0.309  0.280 -0.234
-0.333 0.0800  0.156
 0.317 -0.233 -0.686
-0.295  0.150 -0.510
 0.318  0.149  0.345
-0.315 -0.526  0.790
-0.319  0.144  0.666
 0.299  0.245 -0.707
 0.305 -0.527  0.769
-0.0404 0.0367 -0.157
-0.0898 -0.142 -0.705
0.0747 -0.527 -0.684
-0.0404 0.0367  0.411
 0.318  0.149  0.724
 0.165 0.0367 -0.445
 0.313 0.0331 0.0161
-0.279 -0.183  0.769
-0.00753 -0.438  0.772
0.0336  0.147  0.123
0.00891  0.147 -0.691
-0.317  0.148 -0.206
0.0171  0.147  0.682
 0.313 -0.241  0.787
-0.0651  0.150 -0.395
-0.304  0.148  0.403
 0.190 0.0342  0.534
 0.223 0.00605 -0.685
 0.215  0.278 -0.475
 0.304  0.281 0.0320
 0.319 -0.496 -0.709
 0.317 0.0335 -0.231
-0.318 -0.00836 -0.698
-0.156 0.0225  0.790
 0.118  0.195 -0.0894
-0.106 -0.381 -0.708
-0.180  0.147 -0.00861
-0.313 -0.238 -0.699
0.0994 -0.282 -0.684
 0.198 0.0342  0.205
-0.123 0.0358  0.214
-0.123 0.0367 -0.568
-0.164 0.0367  0.584
 0.256 -0.0351  0.790
 0.116  0.147 -0.288
-0.0816 -0.257  0.769
-0.263 0.0367 -0.354
0.0994  0.149  0.345
 0.173 -0.381  0.787
-0.205  0.144 -0.699
-0.335 0.0564 -0.0415
 0.318  0.149 -0.552
0.0912 0.0358 -0.00861
-0.238 -0.356  0.787
0.0501 -0.0351 -0.687
 0.318  0.149  0.156
 0.280  0.147 -0.379
 0.318  0.150  0.532
0.0500  0.147  0.510
-0.139  0.150 -0.239
 0.157  0.187 -0.608
 0.157  0.150  0.781
 0.157 0.0342 -0.165
-0.0733 0.0342 0.0490
 0.280  0.147 -0.0991
0.0266  0.126 -0.530
-0.153 -0.527  0.775
-0.319 0.0311  0.781
-0.147  0.147  0.362
-0.197 0.0367 -0.124
 0.215 0.0342  0.378
 0.124 -0.530  0.790
0.0418 0.0342  0.255
-0.254 0.0358  0.304
-0.0240  0.147 -0.0497
 0.206  0.152 0.0487
-0.304 0.0358  0.518
 0.190 -0.414 -0.705
0.0172 0.0342 -0.338
0.0583 0.0236  0.767
-0.139 -0.527 -0.693
 0.190 -0.159 -0.708
-0.0816 -0.109  0.787
 0.165  0.147  0.633
-0.0980  0.149  0.501
-0.139  0.149  0.715
 0.118  0.276 -0.215
 0.313 0.0363  0.625
-0.0158 0.0367  0.592
-0.172 -0.0186 -0.705
0.0665 -0.282  0.772
-0.197  0.147  0.156
 0.318 0.0341 -0.456
-0.172 -0.257 -0.687
 0.149  0.269 -0.351
-0.139 0.0342 -0.420
 0.317 -0.389  0.769
 0.124 0.0342 -0.593
 0.206 0.0358 -0.313
-0.246 -0.372 -0.708
 0.198 -0.158  0.769
-0.230  0.149  0.543
 0.317 -0.0900 -0.709
 0.318  0.110 -0.706
 0.309  0.279 -0.371
0.0336  0.147 -0.181
-0.238 0.0342 0.0737
-0.250  0.148  0.790
-0.0240  0.149  0.271
 0.198  0.150  0.469
 0.309  0.280 -0.579
 0.231  0.269 -0.0793
-0.172 0.0342  0.427
-0.254 0.0342 -0.584
-0.0404 -0.265 -0.706
-0.164  0.150 -0.502
 0.132  0.147  0.214
0.0994  0.147 -0.420
 0.182 0.0342  0.707
-0.319  0.144  0.271
-0.205  0.150 -0.379
-0.0404  0.105  0.790
 0.231  0.147 -0.231
0.0418 -0.167 -0.705
0.0994 0.0342  0.123
 0.317 -0.368 -0.706
-0.0569 0.0390 -0.708
0.0830 0.0342  0.444
-0.254 -0.126 -0.685
-0.295  0.150 0.0572
0.0583 -0.405 -0.705
 0.141 0.0965 -0.708
-0.180 0.0342 -0.255
-0.106  0.150 -0.626
 0.206 0.0342 -0.0497
 0.239 0.0367 -0.552
-0.238 -0.0680  0.771
-0.271 0.0342  0.650
-0.123 -0.389  0.769
-0.295 0.0342 -0.469
 0.318 0.0343  0.203
 0.198 -0.531 -0.687
 0.206  0.154 -0.471
-0.317  0.127 -0.664
 0.313 0.0331  0.444
-0.131  0.150 -0.116
-0.279  0.147 -0.0909
-0.287 0.0342 -0.206
-0.0816  0.150 0.0572
0.0994 0.0342  0.608
-0.0404 0.0367 -0.486
 0.318  0.149 0.0161
-0.317  0.148 -0.321
 0.317 0.0335 -0.116
-0.0816  0.147  0.617
 0.198 0.0342 0.0654
-0.0322  0.149  0.395
 0.256 0.0800  0.787
0.00893 0.0342 -0.593
-0.0322 -0.496 -0.705
0.000685  0.147 -0.288
 0.223  0.147  0.279
-0.106 0.0367 -0.0580
-0.164 -0.183  0.771
-0.0734  0.147  0.172
-0.0651 0.0342 -0.264
-0.0487 -0.00220  0.769
 0.206 -0.274 -0.705
 0.198 -0.265  0.787
-0.115 0.0367  0.691
-0.230 0.0342  0.197
-0.205  0.147  0.271
 0.317 0.0335  0.337
 0.141 0.0342  0.296
 0.318 0.0341 -0.349
0.0665 0.0342 -0.486
-0.131 0.0342  0.329
0.0583 0.0342 -0.206
 0.313 -0.126  0.787
 0.108  0.151 0.00783
-0.317 -0.287  0.771
-0.230  0.147 -0.593
 0.149 -0.0433  0.769
 0.247  0.162 -0.650
-0.0240 0.0367  0.139
 0.298  0.220 -0.453
 0.120  0.231 -0.475
 0.300  0.195 -0.288
 0.223 -0.471  0.790
 0.305 0.0342 -0.634
0.000703 -0.200  0.769
0.0418 0.0367 -0.0991
-0.312 0.0344  0.386
 0.120  0.279 -0.599
 0.141  0.147 -0.190
-0.0733  0.126 -0.535
-0.213  0.149  0.444
-0.205 0.0342 -0.0251
-0.0980 0.0342  0.510
-0.230 -0.455  0.787
-0.0541 -0.527  0.775
-0.221  0.128 -0.190
 0.190  0.171 -0.349
 0.318 0.0343  0.729
-0.197  0.149  0.633
 0.223  0.147  0.181
 0.116 0.0367 -0.362
-0.230  0.126 -0.288
 0.215  0.269 -0.222
 0.289  0.147  0.633
-0.205 -0.455 -0.685
 0.299  0.204 -0.173
-0.333  0.105  0.575
0.0501 0.0636 -0.705
 0.141 -0.0516 -0.708
-0.230 0.0496 -0.675
-0.287  0.113 -0.405
-0.318 -0.404  0.787
-0.0487 0.0342  0.279
0.0747  0.147  0.600
-0.0651 -0.0516 -0.685
-0.205 0.0521 -0.486
-0.331 0.0800 -0.132
-0.0547  0.113 -0.214
-0.205 -0.265  0.787
-0.333 0.0517 0.0517
-0.139 0.0342  0.115
0.0228 0.0956 -0.425
0.0583 0.0342  0.345
0.0254 0.0367  0.682
-0.115  0.147  0.255
 0.239 0.0342  0.288
0.0654  0.149  0.787
-0.147 0.0719 -0.708
-0.0158 -0.356 -0.685
 0.190  0.147  0.378
-0.131 0.0527 -0.329
0.0747 -0.372  0.772
-0.00753 0.0367  0.501
 0.223  0.276 -0.607
 0.318  0.150  0.441
-0.0240 -0.323  0.791
0.0254 0.0342 0.0654
 0.124 -0.208  0.769
-0.213 0.0342  0.724
 0.126  0.160 -0.527
 0.231  0.149  0.707
 0.141  0.149  0.543
-0.123  0.147 -0.329
-0.131 0.0367 -0.181
0.0747  0.150 -0.634
 0.190  0.147 -0.0744
-0.0592 0.0503 -0.379
 0.157 0.0636  0.787
-0.172 -0.158 -0.685
-0.0734  0.129 -0.708
0.000669  0.150 0.0325
 0.272 -0.158 -0.684
 0.318  0.150  0.260
0.0336 -0.512  0.769
 0.116 -0.446  0.769
 0.231 0.0342 -0.206
-0.329  0.126  0.768
 0.215  0.147 -0.560
 0.272 0.0342  0.131
-0.319  0.138  0.485
 0.231  0.261 -0.336
-0.156 -0.0680  0.787
 0.141 0.0342 -0.247
0.0501  0.149  0.230
 0.297 0.0367  0.526
-0.279  0.150  0.139
-0.318 -0.321 -0.699
0.0500  0.147 -0.0909
-0.317 0.0360  0.249
 0.297  0.276 -0.132
 0.138  0.276 -0.0849
-0.0404  0.147 -0.140
 0.256 -0.323  0.772
-0.00754  0.150 -0.601
 0.317 0.000523 -0.709
 0.295  0.212 -0.0333
 0.231 -0.0762 -0.687
 0.247 0.0342 -0.412
-0.205  0.150 0.0737
0.00893 0.0342 -0.0168
0.0912  0.149  0.427
-0.319 -0.0516  0.781
 0.116  0.150 0.0901
0.0994 0.0367  0.526
-0.221 0.0358  0.493
0.0500  0.147 -0.354
-0.333 0.0964  0.337
0.00893 -0.0598  0.769
 0.132 -0.356 -0.705
-0.246  0.149  0.345
 0.231  0.105 -0.706
-0.330 0.0719  0.707
 0.223 0.0367  0.608
 0.124 0.0358 -0.0909
-0.131  0.113  0.787
-0.309 0.0460 -0.288
 0.264 -0.438 -0.684
 0.124 -0.200 -0.687
-0.246 -0.0433 -0.685
-0.238 -0.527 -0.708
 0.215  0.162 -0.148
-0.147  0.113 -0.424
-0.312 0.0516 -0.642
 0.239 0.0342 -0.124
-0.0980 -0.463  0.787
-0.00752  0.149  0.592
-0.0240  0.149  0.477
 0.190 0.0367  0.452
-0.246 -0.282 -0.687
-0.279 0.0342 -0.0909
-0.319  0.144 -0.0168
 0.116  0.149  0.715
-0.0322  0.128 -0.469
 0.239  0.149  0.534
 0.141 -0.479 -0.687
-0.0651 0.0521 -0.617
 0.108 -0.117 -0.685
 0.318  0.150 -0.225
-0.317  0.148 -0.584
-0.319 0.0403 -0.543
-0.238 0.0636  0.790
 0.182  0.163 -0.704
 0.239 -0.339 -0.684
 0.264  0.147 0.0983
-0.147  0.149  0.575
 0.108 0.0143 -0.685
-0.263  0.147  0.214
-0.131  0.147  0.115
 0.116 0.0367  0.197
-0.106 -0.216 -0.705
-0.0898 0.0367  0.608
-0.246 0.0342  0.567
-0.180 0.0358  0.263
 0.280  0.147 -0.486
-0.123 0.0521 -0.494
 0.132 -0.315  0.787
-0.0569  0.149  0.732
0.0254  0.147  0.337
-0.0733 -0.183  0.790
-0.106  0.147 -0.0168
-0.0322 -0.191 -0.705
-0.318 -0.421 -0.699
-0.213  0.147  0.715
 0.313 0.0331 -0.543
 0.165 0.0367 -0.519
-0.205 0.0638 -0.404
-0.189 -0.331 -0.687
 0.256 0.0342  0.674
-0.0980  0.147  0.427
-0.106 -0.290 -0.684
-0.312 -0.0817 -0.699
 0.280  0.149  0.787
-0.227 -0.527  0.775
0.00892 -0.0927 -0.705
 0.309  0.279 -0.494
 0.292  0.220 -0.617
-0.147 -0.0845 -0.687
 0.247 -0.397  0.787
-0.0980 0.0883 -0.143
-0.172 -0.331  0.771
 0.299  0.280 -0.0581
 0.190  0.203 -0.208
 0.198 0.0367 -0.626
-0.0572 0.0965 -0.297
-0.230  0.126 -0.445
-0.295 0.0358  0.115
-0.0898 -0.455 -0.708
-0.271  0.147  0.600
-0.230 0.0358  0.386
 0.198 0.00605  0.790
-0.164 0.0521 -0.642
-0.172  0.126 -0.634
-0.139  0.126 -0.568
-0.221 -0.134  0.790
-0.295 -0.117  0.790
-0.0404 0.0342 -0.0826
0.0418 0.0367  0.164
-0.213  0.147 -0.116
0.0747  0.129 -0.708
-0.0158 -0.134  0.787
-0.0158 0.0342  0.345
-0.279 0.0358  0.452
 0.215 -0.0927  0.787
-0.172 0.0362 0.0490
-0.0240 -0.422 -0.708
 0.132 0.0367  0.395
-0.0404 0.0342  0.658
0.0665 0.0342 -0.412
 0.247 -0.216  0.790
0.0336 -0.233 -0.684
-0.230  0.126 -0.527
-0.271 0.0964 -0.706
0.0583 -0.339 -0.684
 0.116 0.0367  0.732
 0.256  0.149  0.411
 0.280 0.0358 -0.288
 0.317 -0.457  0.770
 0.317 -0.301 -0.685
0.0583 0.0342 -0.642
 0.182  0.220 -0.0955
-0.197 0.0367 -0.321
0.0418 -0.471 -0.708
-0.0816  0.149  0.345
 0.116 0.0367 0.0572
0.0254 0.0883  0.787
-0.213 0.0342 -0.190
-0.0980 -0.323  0.769
 0.132 -0.142  0.790
0.0830 -0.0598  0.769
-0.271 0.0342 -0.00860
0.0247 0.0965 -0.626
0.0169 0.0527 -0.527
-0.189 0.0496 -0.568
-0.172 0.0965 -0.140
 0.317 -0.0186  0.770
 0.174  0.160 -0.00862
 0.201 -0.531  0.770
 0.295  0.203 -0.519
 0.297  0.179 -0.691
-0.0158 0.0342  0.205
 0.165 0.0367  0.131
0.000708  0.149  0.181
0.0254 0.0367 -0.264
 0.157 0.0367  0.641
0.00893  0.149  0.748
 0.247 0.0342  0.740
-0.164  0.149  0.510
 0.157 0.0358 -0.000391
 0.165  0.147 -0.412
-0.0569 -0.381  0.769
-0.330 0.0638  0.641
-0.0980 0.0554  0.790
 0.190 0.0342 -0.379
0.0912  0.147  0.156
 0.124  0.150  0.279
 0.247  0.204 -0.0787
-0.332  0.106 0.0908
-0.263 -0.00220  0.790
 0.264 -0.532 -0.692
-0.279  0.126 -0.157
 0.231 -0.216 -0.684
 0.317 -0.307  0.788
 0.318  0.149 -0.617
 0.231  0.147 -0.297
-0.139  0.144 -0.699
0.0254 0.0367  0.411
-0.333 0.0964  0.436
 0.256 0.0358 -0.478
 0.264  0.203 -0.349
0.000705 0.0342 -0.428
-0.246 0.0502 -0.272
-0.254  0.150 -0.0168
 0.309  0.209 0.0392
 0.289 0.0358 -0.173
-0.0158 0.0367 -0.659
-0.106 0.0367 -0.667
-0.0158 -0.0104 -0.705
 0.182  0.147  0.131
-0.0404  0.149  0.107
0.0501 0.0367  0.567
-0.0158  0.147 -0.354
 0.256  0.220 -0.222
-0.164 -0.438  0.769
 0.126  0.156 -0.672
-0.263 -0.200 -0.687
 0.300  0.275 -0.650
 0.272 0.0358 -0.0333
 0.313 0.0363 0.0819
 0.317 0.0636  0.788
-0.254  0.126 -0.650
-0.0980  0.128 -0.461
-0.313 -0.148 -0.699
-0.184  0.148  0.790
-0.317 0.0360  0.323
-0.172 -0.389 -0.706
-0.263  0.128 -0.346
0.0747  0.150 -0.478
 0.297 0.0367  0.263
0.0583  0.147 0.0572
 0.215 -0.471 -0.708
-0.172 0.0342  0.666
-0.254 0.0636 -0.140
 0.223  0.149  0.608
0.0747 0.0342 -0.313
-0.0158 -0.257  0.787
-0.0980 -0.0433  0.787
-0.263 -0.241  0.787
-0.0816  0.147 -0.0744
 0.116 -0.422 -0.687
-0.287 -0.471  0.769
 0.165 0.0364 -0.682
 0.231  0.220 -0.464
-0.263 -0.455 -0.708
0.0747  0.150 -0.560
 0.272  0.147 -0.165
 0.264 0.0471 -0.705
-0.139  0.128 -0.181
-0.197 -0.0187  0.771
 0.231  0.162 -0.412
-0.317 0.0507 -0.379
-0.0240 0.0965 -0.686
 0.298  0.220 -0.107
-0.0734 0.0496 -0.535
-0.106 -0.0104 -0.705
-0.0569 0.0965 -0.424
-0.0322 0.0342  0.724
 0.256 -0.134  0.769
-0.254 0.0521 -0.527
 0.272 -0.265 -0.708
0.0583  0.150 -0.0251
-0.139  0.147 0.0407
-0.114 0.0342  0.411
0.0171 -0.290 -0.687
-0.213 0.0358  0.139
0.0583 -0.216  0.769
 0.165 -0.101 -0.685
-0.147 -0.241  0.769
0.0336  0.147  0.452
 0.267  0.172 -0.593
 0.133  0.212 -0.349
 0.256 0.0342  0.189
 0.182 0.0358 -0.107
0.0994 0.0342 -0.148
 0.174  0.204 -0.464
-0.319  0.121  0.197
-0.304 0.0358  0.584
 0.318  0.150 -0.439
 0.280  0.147  0.214
-0.263  0.147 -0.231
-0.319  0.144 -0.445
 0.223  0.129  0.791
 0.272  0.149  0.485
-0.00757 0.0390  0.790
-0.0816 0.0367  0.362
-0.172  0.150 -0.288
 0.108  0.147 -0.140
 0.124 0.0142  0.787
 0.231 0.0358 0.0161
0.0830  0.147 -0.239
-0.131  0.149  0.650
-0.0569  0.149  0.559
-0.213 0.0342  0.617
-0.147  0.147  0.205
 0.280 -0.0433 -0.687
-0.197 -0.109 -0.708
 0.305  0.153 -0.0415
0.000684  0.150 -0.420
-0.287  0.147  0.715
-0.304 -0.348  0.790
 0.317 -0.435 -0.709
0.0171 -0.532 -0.692
-0.0651  0.147  0.674
-0.00752  0.149 -0.231
0.0912 0.0342  0.666
-0.0553  0.105 -0.354
0.0172 -0.381  0.769
-0.147 -0.446 -0.708
-0.0816 0.0342  0.172
0.0172 0.0342 -0.165
0.0747  0.147  0.674
-0.164 -0.126  0.787
-0.156  0.149  0.436
-0.0980 0.0367 -0.116
 0.149  0.149  0.419
-0.189 0.0358  0.320
 0.173  0.147 -0.280
 0.165 -0.479  0.790
-0.0733 0.0342 -0.206
-0.221 -0.191  0.769
-0.287  0.149  0.534
 0.256 0.0342  0.419
 0.174  0.149  0.699
 0.198 -0.331  0.769
-0.279 0.0390 -0.708
-0.311 0.0396  0.192
-0.0651 -0.323 -0.708
 0.132  0.220 -0.208
-0.318 -0.222  0.787
-0.180  0.150 -0.0662
-0.332  0.107 0.0247
-0.0322 -0.134 -0.705
 0.309  0.279 -0.313
 0.309  0.279 -0.428
 0.141  0.149  0.485
 0.165  0.245 -0.608
 0.124  0.147 -0.0580
-0.246 0.0496 -0.445
-0.287 0.0342  0.707
 0.138  0.158 -0.471
-0.0734  0.147 -0.255
0.0912 0.0636  0.791
 0.306  0.154 -0.327
 0.182  0.147 -0.650
-0.331 0.0513  0.471
 0.264  0.149  0.329
 0.239  0.220 -0.597
-0.0569  0.126 -0.617
-0.287  0.126 -0.280
 0.264  0.160 0.00780
-0.0816 -0.521 -0.703
-0.189 -0.381  0.791
-0.0898 0.0534 -0.436
-0.197  0.147 -0.239
 0.151  0.155 0.0428
-0.147 0.0342  0.477
 0.264 -0.265  0.772
0.0747 0.0367 -0.568
0.0830 0.0342  0.296
-0.139  0.147  0.304
 0.173  0.147  0.304
-0.180 0.0883  0.790
 0.231 0.0342 -0.264
-0.156 0.0342 -0.0826
 0.190 0.0367  0.263
-0.0569  0.147 0.00783
 0.182 -0.208  0.787
-0.197 -0.208 -0.685
 0.299  0.195 -0.404
-0.106 0.0342  0.279
 0.165  0.162 -0.124
0.0336 -0.323  0.787
-0.317  0.148  0.329
-0.0733 0.0502 -0.321
 0.141  0.147 -0.354
-0.114  0.126 -0.379
-0.0240  0.147 -0.527
 0.318  0.149 0.0901
-0.263 0.0342  0.246
 0.190  0.228 -0.349
0.0248  0.113 -0.477
 0.264 0.0367  0.337
-0.213 0.0883 -0.708
 0.116 -0.257  0.787
-0.279  0.149  0.452
-0.333 0.0719  0.288
0.0336 -0.0186  0.791
 0.108 0.0367 -0.445
 0.149 0.0342  0.485
 0.149 0.0367  0.567
-0.139 0.0342 -0.0168
-0.189  0.150 -0.560
-0.0158 0.0367 0.0325
-0.271  0.128 -0.560
-0.0569 0.0367  0.543
-0.0158 0.0342 -0.231
-0.180 0.0342  0.526
-0.324  0.125 -0.0655
 0.264 0.0342 0.0572
0.0172 0.0342  0.304
 0.272 0.0342 -0.593
 0.198  0.149  0.748
0.0665 -0.471  0.769
-0.0569  0.149  0.230
 0.198 0.0367  0.320
 0.190  0.150  0.222
-0.0158 0.0367 -0.297
-0.0816  0.147 -0.173
-0.114 0.0342 -0.239
-0.114 -0.150  0.787
-0.205  0.147  0.378
 0.149 -0.241 -0.708
 0.157 -0.101  0.769
 0.280 0.0342  0.584
 0.264 -0.381 -0.705
 0.182 -0.315 -0.684
-0.180 0.0297 -0.687
 0.116 0.0342 -0.535
0.0583 0.0342 -0.0497
 0.108  0.113  0.787
-0.263  0.147  0.296
 0.190 -0.430  0.787
-0.304 0.0366 -0.140
-0.172 0.0342  0.370
-0.0404 -0.0762  0.771
0.00893  0.149  0.543
-0.0733  0.150 -0.313
0.0994 0.0367  0.246
-0.131 0.0342  0.740
-0.123 0.0358 0.0654
0.0583 -0.109 -0.705
-0.238  0.150 0.0325
 0.215 0.0367  0.115
 0.239 0.0342  0.551
 0.157 0.0342 -0.297
 0.239  0.147 -0.0580
 0.264 0.0358 -0.338
 0.198 -0.0351 -0.705
 0.297 -0.0762  0.790
-0.0980 0.0883 -0.689
0.0830 -0.224 -0.706
 0.247 -0.520  0.790
 0.138  0.279 -0.466
 0.296  0.261 -0.181
-0.156 0.0342 -0.371
 0.165  0.164 -0.560
 0.173  0.150 -0.510
0.0247 0.0800 -0.576
-0.317  0.131  0.617
-0.295  0.148 -0.705
-0.333 0.0800  0.230
-0.123  0.126 -0.280
-0.319  0.138 -0.371
-0.0322 -0.479  0.787
 0.116 -0.397  0.787
 0.256 -0.117 -0.708
-0.287 0.0719  0.787
0.0418  0.147  0.279
 0.116  0.149  0.641
-0.205  0.149  0.205
-0.263  0.147  0.650
-0.172 0.0358  0.205
-0.304 0.0342 -0.593
 0.132  0.149  0.592
-0.0733  0.149  0.296
 0.247 0.0142  0.787
0.0172 0.0342  0.633
 0.280  0.149  0.584
-0.0733 0.0342  0.123
 0.190 0.0367 -0.576
-0.106 0.00605  0.790
-0.197  0.147  0.329
-0.197 -0.504 -0.685
 0.223  0.147 -0.609
 0.317 -0.194  0.770
0.0994 -0.0680 -0.685
 0.272  0.161 -0.255
 0.298  0.212 -0.568
-0.0980  0.150  0.781
-0.333  0.103  0.386
 0.312 0.0609 -0.708
-0.263 0.0342  0.756
 0.313 0.0363  0.386
 0.264  0.279 -0.471
 0.198 -0.0433  0.772
0.0912 0.0367 -0.247
-0.0569 -0.438  0.769
 0.206 0.0800  0.787
0.0418 0.0342  0.115
0.0500  0.150 -0.404
-0.106 0.0367 -0.371
-0.333 0.0719  0.756
-0.00754 0.0554 -0.708
-0.0404 0.0342 -0.0333
-0.0322  0.147  0.345
0.0747 -0.530  0.790
-0.221 0.0342  0.444
-0.221 0.0342  0.666
-0.115  0.150 -0.502
 0.190 0.0719 -0.705
0.0254 -0.109  0.769
-0.304 0.0636 -0.424
-0.131 -0.282  0.790
 0.297  0.195 -0.230
-0.295 -0.364 -0.706
0.0264  0.105 -0.675
0.0583 0.0142 -0.687
-0.0554 0.0800 -0.173
 0.319  0.120  0.789
 0.272  0.147 -0.535
 0.298  0.253 -0.272
-0.263 -0.323 -0.706
 0.149 -0.150 -0.684
-0.238 -0.414 -0.684
 0.280 -0.200 -0.708
 0.152 -0.527 -0.699
-0.322 0.0452 0.00511
 0.231 0.0342  0.477
-0.254  0.147 -0.486
-0.271 -0.397  0.787
-0.0158  0.150 -0.181
-0.147 0.0342  0.164
-0.131 -0.175 -0.708
-0.205 0.0299  0.771
0.0747  0.149  0.551
 0.215  0.150  0.329
-0.131 0.0342  0.641
 0.247  0.147  0.658
 0.116 0.0342  0.337
 0.108 -0.101  0.787
0.0254 -0.159  0.772
-0.180 0.0367 -0.445
 0.215 0.0342 -0.502
0.0583  0.149 -0.280
 0.182  0.147  0.584
-0.197 -0.0598 -0.705
0.00891  0.147 -0.140
0.0418 -0.422  0.769
0.0254 0.0342 -0.387
 0.190 0.0342 -0.231
-0.333 0.0636  0.551
-0.0733 0.0367  0.469
-0.131  0.147 -0.0580
0.0500  0.147  0.724
-0.0569 0.0342  0.230
-0.0733 0.0342  0.748
0.0912  0.149 -0.329
-0.115 0.0367  0.567
0.0747 -0.175  0.787
0.0500  0.147  0.378
-0.106  0.149  0.551
-0.0651 -0.389 -0.685
-0.0240 0.0496 -0.552
-0.271 -0.00220 -0.685
 0.132  0.147 -0.626
 0.157 -0.0104 -0.685
-0.139 -0.356 -0.684
 0.313 0.0331 -0.0580
 0.231  0.147 -0.354
-0.189  0.147 -0.436
-0.0487  0.147 -0.576
 0.108 -0.159 -0.708
 0.125  0.220 -0.597
-0.106 -0.0762 -0.708
-0.295 -0.282 -0.687
-0.213 -0.159 -0.708
0.0830 -0.323  0.787
 0.170  0.280 -0.210
 0.264 -0.463  0.769
 0.312 -0.153 -0.708
-0.106 -0.532  0.774
-0.0816  0.150 -0.667
 0.141 -0.307 -0.705
0.0830 -0.0186  0.791
0.0266 0.0517 -0.469
 0.280 -0.364  0.790
0.0665 0.0342  0.493
-0.106  0.126 -0.214
-0.221 0.0367 -0.617
-0.156 0.0342 -0.535
-0.213  0.147 -0.650
-0.156  0.147 -0.379
0.0830 -0.455 -0.684
 0.198  0.147 -0.190
-0.279 -0.307  0.790
-0.0157  0.149  0.650
 0.231 0.0342  0.238
-0.230 0.0367 -0.0909
0.0254  0.149  0.625
0.00891 -0.389 -0.708
-0.238  0.150  0.107
 0.295  0.245 -0.000391
0.00891  0.147 -0.0168
-0.00756  0.138  0.790
-0.0898  0.127 -0.584
 0.299  0.228 -0.371
-0.115 -0.208  0.771
0.000705 -0.0516 -0.685
 0.264 -0.488 -0.705
-0.221 -0.405  0.769
-0.213 -0.0104 -0.685
-0.238 -0.233 -0.708
-0.172  0.113 -0.708
 0.258  0.154 -0.697
-0.319  0.129  0.148
-0.318 -0.157  0.787
 0.182 -0.372 -0.687
 0.256 -0.0845  0.769
-0.0651 -0.224 -0.687
0.0254 -0.249  0.769
 0.108 0.0554 -0.705
-0.287  0.121  0.787
 0.305 0.0358 -0.412
 0.272  0.147  0.156
 0.149  0.179 -0.222
-0.335 0.0636  0.107
 0.223  0.165 -0.101
 0.223  0.165 -0.519
0.00893 0.0342  0.748
-0.156 -0.307 -0.706
-0.0651  0.147 -0.494
-0.180  0.147 -0.190
-0.329 0.0967  0.501
-0.180 0.0527 -0.165
-0.287 0.0527 -0.247
-0.197 -0.496  0.787
 0.173  0.150 0.0819
-0.238 -0.315  0.769
-0.0569 -0.101 -0.687
-0.0158 -0.0269  0.787
-0.263  0.150 -0.412
-0.139 0.0367 -0.288
-0.319  0.131 -0.247
 0.272  0.280 -0.345
-0.0487 0.0367 -0.420
-0.238  0.113 -0.403
0.0994 -0.323 -0.708
 0.182  0.270 -0.0818
-0.271 -0.521  0.772
-0.123 0.0307 -0.708
 0.198 0.0367  0.666
-0.189  0.147 -0.338
-0.114 0.0883 -0.403
0.0583 0.0342  0.205
-0.0240 0.0342  0.460
-0.221  0.105  0.787
-0.0158 0.0367 0.0819
0.0994 -0.381 -0.684
-0.139 0.0342 -0.132
0.00893 0.0342  0.551
 0.264  0.149  0.263
0.0994  0.147  0.501
 0.165  0.150  0.172
-0.131 -0.0433 -0.685
 0.173 -0.200 -0.706
 0.289 -0.430  0.790
 0.264 0.0367  0.625
-0.189 -0.224  0.787
 0.157 0.0367  0.748
-0.238 -0.488 -0.687
 0.132  0.147  0.378
 0.206 -0.117 -0.684
-0.172  0.150 -0.132
 0.108 0.0342 -0.0497
0.0912  0.147  0.246
-0.131 -0.126 -0.687
0.0583 0.0367 -0.354
 0.149 0.0367  0.436
 0.116 0.0342 -0.190
-0.238 0.0342 -0.404
 0.272 0.0358 -0.223
-0.254 0.0342 0.0325
 0.174 0.0342  0.362
-0.246  0.147  0.255
-0.221  0.150 -0.0498
0.0500  0.147 -0.675
-0.0487 0.0554  0.790
-0.287  0.150 -0.617
-0.246 0.0342 -0.231
-0.131 -0.488  0.772
-0.106 0.0367 -0.617
 0.272  0.195 -0.478
0.0501 -0.265 -0.708
0.000687 -0.249 -0.708
-0.139  0.149  0.765
-0.205 0.0502 -0.362
0.0222 0.0572 -0.650
 0.297 0.0342 -0.494
 0.289  0.150 -0.659
0.0336  0.147 -0.453
 0.198  0.212 -0.608
-0.197  0.105 -0.426
0.000710 -0.530  0.790
-0.263 0.0367 -0.650
 0.305  0.149  0.386
 0.305 0.0225  0.772
-0.310 -0.00990  0.791
 0.300  0.236 -0.216
-0.131  0.150 -0.445
 0.267  0.165 -0.204
-0.295 -0.527 -0.685
-0.333  0.105  0.658
-0.156 -0.224 -0.708
-0.205 -0.274 -0.708
-0.131  0.126 -0.650
 0.313 0.0318 -0.676
 0.264  0.261 -0.208
 0.215  0.147 -0.683
-0.271 -0.0845 -0.705
 0.231  0.147  0.230
 0.124 -0.488  0.772
 0.215  0.147 0.0901
-0.0322 -0.175  0.787
-0.0404  0.147 0.0490
-0.316 -0.446  0.791
-0.0816 0.0342 -0.494
0.0665 0.0367 0.0737
-0.221  0.149  0.674
 0.318  0.150 -0.505
-0.0651  0.147  0.469
-0.0322  0.150 -0.683
 0.157 0.0364 0.0489
0.0665  0.105  0.787
-0.213  0.147 -0.494
 0.223 -0.430 -0.684
-0.197 0.0342 -0.527
 0.182  0.150  0.263
 0.190  0.149  0.427
 0.165 0.0342 -0.338
 0.231 0.0342 -0.371
-0.172  0.147  0.107
-0.197 -0.0598  0.787
0.0583  0.147 -0.132
-0.00752  0.149  0.139
0.0418  0.149  0.164
-0.287  0.147 -0.0497
-0.106 -0.331 -0.708
-0.0816  0.149  0.131
 0.223  0.160 -0.000373
 0.297  0.147  0.674
-0.156 -0.0269  0.771
-0.287  0.150 0.0161
 0.264 -0.175  0.769
0.0171  0.147 -0.0580
-0.271 0.0342 -0.313
-0.332  0.125 -0.107
-0.123 -0.101  0.787
-0.114  0.149  0.164
-0.106  0.149  0.214
-0.279 -0.0598  0.769
-0.0734  0.147  0.386
0.0266  0.126 -0.595
 0.272  0.149 0.0573
-0.221  0.147  0.756
-0.0898  0.147 -0.132
-0.271 -0.159 -0.705
0.000684  0.150 -0.650
 0.272 0.00605 -0.705
 0.272  0.113 -0.706
-0.172 0.0342 -0.214
-0.123 -0.471 -0.685
0.00891 -0.331 -0.708
-0.0487 -0.446 -0.685
-0.180  0.150 -0.601
-0.0487  0.147  0.773
 0.289 -0.109 -0.684
 0.297 -0.488  0.790
 0.304  0.278 -0.535
 0.124  0.147  0.756
-0.0569 -0.298  0.787
 0.198 0.0342 -0.420
 0.149 0.0342  0.222
-0.197 0.0342 -0.0661
0.0747  0.147  0.312
-0.0487  0.150 -0.0991
 0.198 0.0342  0.156
0.0171 -0.438 -0.705
 0.247 -0.298 -0.705
-0.0651 0.0496 -0.659
 0.116 0.0367 -0.494
-0.0980 0.0367 -0.0168
-0.0734 0.0521 -0.576
 0.298  0.187 -0.0662
-0.180  0.147  0.551
-0.0733 0.0367  0.312
0.00891 -0.200 -0.687
0.0665 0.0367  0.633
-0.172 -0.290  0.790
-0.0158 0.0367 -0.116
-0.246  0.150 -0.140
 0.182 0.0367  0.403
 0.141  0.150  0.329
-0.213 -0.364 -0.684
 0.223 -0.364  0.772
-0.156 0.0342 -0.593
0.0501 0.0342 -0.601
0.0912  0.147  0.386
 0.198 0.0358 -0.165
 0.108 -0.356  0.790
0.0418 0.0367  0.526
-0.213 0.0364 0.0408
-0.246  0.129 -0.705
-0.139 0.0342  0.255
 0.173  0.105  0.787
 0.116 0.0342 -0.280
-0.156  0.149  0.148
-0.238  0.149  0.148
0.0171  0.147 -0.329
 0.264  0.245 -0.0812
-0.0898 0.0367  0.650
-0.279 -0.414 -0.684
0.0254 0.0367  0.452
-0.0240 -0.364  0.791
 0.231 -0.159 -0.708
 0.297 0.0342  0.674
 0.239  0.149  0.748
0.0830 0.0342  0.403
-0.221 0.0342  0.246
 0.190 0.0342  0.493
-0.279  0.149  0.493
 0.190 0.0358 -0.272
-0.213 0.0342  0.288
-0.131  0.147  0.469
 0.297 0.0342  0.164
-0.254 -0.150  0.771
 0.108 0.0367  0.485
-0.295 0.0342 0.0737
-0.0487 -0.233  0.771
0.00891  0.147  0.395
0.0418  0.149 -0.239
-0.0487 0.0367 0.00784
-0.230 -0.0927 -0.687
0.000685  0.147 0.0983
-0.0569  0.149  0.427
-0.0158 0.0342 -0.387
-0.0816  0.105  0.790
0.0665  0.147 0.0983
-0.0569 -0.142  0.787
-0.172  0.147  0.238
 0.223 0.0342 -0.453
-0.238  0.149  0.411
 0.165 -0.446 -0.705
-0.156 0.0342  0.707
0.0994  0.147 -0.0909
-0.254 0.0342 -0.181
 0.289  0.149  0.296
 0.124 0.0342 -0.321
0.0830  0.147  0.748
-0.172 0.0358 0.0901
 0.247 -0.0269 -0.705
 0.215 -0.233  0.769
-0.0898 -0.422  0.787
 0.149 -0.414  0.769
 0.280 -0.339 -0.684
 0.239 0.0367 -0.626
-0.213  0.149  0.485
0.0583 -0.298 -0.684
0.0994  0.147 -0.379
 0.280  0.147 -0.420
 0.239  0.149  0.131
 0.297  0.212 -0.667
 0.108 -0.496 -0.705
 0.215 0.0390 -0.708
-0.114  0.126 -0.535
-0.139 0.0342 -0.461
0.0830 -0.183 -0.687
-0.319  0.144 0.0983
 0.318  0.149  0.600
-0.0555  0.110 -0.144
 0.157 -0.167  0.769
-0.271 0.0358  0.386
 0.297 -0.397 -0.687
 0.165 -0.530  0.790
-0.319 0.0401  0.682
-0.172  0.147 -0.675
 0.317 0.0335 -0.272
 0.317 -0.348  0.788
-0.318  0.106 -0.699
-0.0404 -0.531 -0.687
 0.165  0.187 -0.0787
 0.182  0.147 -0.593
-0.311 0.0401  0.743
-0.156 -0.405  0.791
-0.106 -0.356  0.791
-0.156  0.126 -0.321
-0.271 0.0358  0.197
-0.254  0.150 -0.181
 0.108 -0.0187 -0.708
0.0336 0.0367 -0.560
0.0172 -0.142 -0.685
0.0665 -0.0680 -0.708
-0.172 -0.479 -0.705
-0.279 0.0358  0.337
-0.319  0.121  0.238
 0.149 -0.348  0.772
0.0171  0.150 -0.560
 0.165 -0.00220  0.769
-0.271 -0.339  0.769
 0.141 0.0367 -0.650
-0.287 0.0367 -0.510
 0.298  0.187 0.00786
 0.239 -0.265 -0.684
 0.149 -0.274 -0.684
 0.272  0.253 -0.608
-0.0733 -0.496  0.791
-0.271 -0.257 -0.706
0.000655 -0.488 -0.684
-0.0322  0.128 -0.430
 0.149  0.147 -0.0909
0.0171 0.0345 -0.685
-0.0569 -0.159 -0.687
-0.311 0.0558 -0.692
 0.173  0.236 -0.222
-0.180 -0.0927  0.769
-0.205 -0.414 -0.706
-0.279 -0.0351 -0.705
 0.165  0.147 -0.239
 0.182 -0.241 -0.687
-0.295 0.0367 0.0325
-0.319 0.0401  0.436
-0.317  0.148 -0.543
 0.319 -0.191 -0.709
-0.205 -0.323  0.790
0.0336 -0.479  0.790
-0.271  0.147 -0.313
-0.221  0.128 -0.346
 0.280  0.147  0.543
-0.271 0.0719 -0.405
 0.313  0.150  0.493
 0.231 -0.438  0.772
 0.108 -0.167  0.769
 0.149 -0.265  0.769
 0.231  0.179 -0.208
0.0254 -0.290  0.769
-0.156 0.0800 -0.405
-0.0322 -0.0516 -0.705
 0.289  0.228 -0.333
 0.305 -0.274  0.769
 0.195  0.275 -0.340
 0.223  0.212 -0.338
-0.0487  0.126 -0.659
0.0501 0.0554  0.787
-0.172  0.126 -0.535
-0.319  0.129  0.543
 0.317 -0.466 -0.685
-0.123 -0.438  0.772
-0.312 -0.183 -0.685
-0.0322 -0.414  0.787
 0.182 0.0142 -0.708
-0.315 -0.486  0.790
-0.230 0.0496 -0.560
-0.0486 -0.298 -0.684
-0.172 -0.422 -0.687
-0.0651 0.0883 -0.708
-0.123 -0.265 -0.708
0.0501 0.0342  0.732
 0.289 0.0358 -0.0909
0.0171  0.150 -0.502
-0.263 -0.430  0.771
-0.295 -0.249  0.771
-0.246 -0.101  0.787
-0.0816 -0.488 -0.685
0.0747 -0.405  0.790
 0.141  0.162 -0.264
-0.287  0.150 -0.659
 0.231 -0.175  0.787
0.0171 -0.0104 -0.687
0.0336  0.121 -0.708
 0.296  0.245 0.0372
0.0336  0.129  0.787
-0.311  0.144 -0.148
 0.223 -0.512 -0.708
-0.287 0.0515 -0.560
-0.0322 0.0342 -0.617
 0.317 -0.0378 -0.685
-0.238 0.0800 -0.425
0.000693 -0.488  0.772
 0.318  0.149 -0.0991
 0.157  0.187 -0.335
-0.224  0.121 -0.149
0.0501 -0.0516  0.787
-0.147 0.0534 -0.676
 0.299  0.281 -0.699
 0.182 -0.488 -0.705
 0.149  0.149  0.666
-0.172 -0.521 -0.708
-0.106 0.0342  0.452
-0.123 -0.414 -0.705
 0.223 -0.397 -0.708
-0.221 -0.315 -0.684
 0.132 0.0342  0.164
-0.246  0.150 -0.264
-0.00754  0.147  0.444
0.0665 -0.0927  0.772
-0.123 -0.0680  0.771
 0.132 0.0367  0.107
-0.0322 0.0367 -0.354
-0.0487 -0.0433  0.790
-0.0569 0.0342 -0.124
-0.0898  0.147  0.715
 0.231  0.147  0.452
 0.256 0.0367 0.0983
-0.131 0.0719 -0.140
-0.180 -0.463  0.791
0.0994  0.147 0.0572
-0.197  0.150 0.0243
 0.198  0.149  0.551
-0.156 -0.364  0.769
-0.189 0.0364  0.460
 0.215  0.147  0.501
-0.156 0.0367 0.0161
-0.172  0.147  0.748
0.0171  0.147  0.214
-0.0404  0.149  0.156
 0.298  0.245 -0.552
 0.215  0.236 -0.0955
 0.280 0.0342  0.707
 0.206 0.0367  0.575
 0.132 0.0367 -0.395
 0.305  0.147 -0.148
-0.263 0.0342  0.534
 0.239 0.0342  0.156
-0.0898  0.150 -0.346
 0.118  0.245 -0.0843
-0.147 0.0358  0.296
 0.272 0.0342 -0.445
-0.246 0.0342  0.353
 0.190 0.0342 -0.0168
0.00891 0.0883 -0.708
-0.00752 0.0342  0.427
-0.164 -0.126 -0.708
0.0583  0.147  0.641
0.0830 0.0342 -0.519
0.0665 0.0342 -0.165
-0.0816 -0.191 -0.687
0.0747 0.0362 -0.116
 0.289  0.270 -0.0921
-0.246  0.149  0.469
-0.115  0.147  0.378
-0.164 0.0342  0.625
-0.0487 0.0367  0.608
 0.280 -0.00220  0.787
 0.215 -0.298  0.769
-0.147 0.0342  0.543
 0.182 0.0367 -0.486
 0.264  0.147 -0.453
-0.139  0.113 -0.140
 0.256  0.147 -0.132
 0.157 0.0342 -0.214
 0.272 0.0471  0.787
-0.139 0.0554  0.790
 0.182  0.147 -0.445
-0.0322  0.149  0.197
-0.00753 0.0367 -0.469
0.0665  0.147 -0.436
-0.00757 -0.0927  0.771
-0.0158 -0.315 -0.685
 0.141 0.0358 -0.0333
-0.287  0.147  0.370
-0.295  0.149  0.230
-0.180  0.147  0.666
-0.295 -0.117 -0.687
 0.272  0.150 -0.626
 0.280  0.113  0.791
-0.304 0.0342  0.156
 0.280  0.171 -0.349
 0.141 0.0307 -0.708
-0.319  0.121  0.304
-0.317  0.129  0.436
 0.231 0.0367 -0.667
 0.316 -0.162  0.790
 0.141 -0.405 -0.708
-0.0816 -0.249 -0.708
-0.221 0.0502 -0.149
-0.230 0.0502 -0.329
-0.230 -0.488  0.772
 0.116 -0.257 -0.705
-0.333 0.0719 -0.0744
-0.106 -0.241  0.790
0.0247 0.0883 -0.527
 0.182 -0.134  0.790
 0.223 -0.0104  0.769
 0.198 -0.488  0.769
 0.132 -0.0680  0.790
 0.280 -0.0516  0.769
 0.280 -0.200  0.790
-0.0487 0.0521 -0.453
-0.0240 0.0342 -0.519
 0.305  0.144 -0.699
-0.271 0.0496 -0.617
0.0418 -0.381 -0.684
-0.0651  0.126 -0.445
-0.312 0.0344 -0.0580
-0.319 0.0459 -0.494
 0.272  0.245 -0.478
-0.304  0.149  0.756
 0.120  0.247 -0.349
 0.141 -0.117 -0.705
 0.299  0.179 -0.460
 0.317 -0.524 -0.686
0.0172 0.00605  0.769
 0.165  0.147 -0.157
-0.106  0.124 -0.676
-0.315 0.0452 -0.107
 0.120  0.170 -0.335
-0.0547 0.0636 -0.214
 0.120  0.159 -0.231
 0.189 0.0362  0.764
-0.317  0.121 0.0572
-0.123  0.150 -0.404
-0.147  0.150 -0.543
-0.246  0.150 -0.626
0.0994 0.0367 -0.659
-0.333  0.113 -0.0333
 0.107  0.149  0.787
0.0501 -0.512 -0.705
-0.304 0.0506 -0.346
-0.0487 -0.339  0.772
-0.279 -0.496 -0.687
 0.223 -0.241 -0.708
-0.304  0.149  0.567
-0.313  0.148  0.790
 0.206 -0.323 -0.708
 0.280 -0.0845 -0.708
 0.157  0.245 -0.0787
-0.197  0.128 -0.469
 0.182  0.276 -0.607
-0.304 0.0223 -0.685
-0.139 0.0367  0.386
-0.139 0.0527 -0.222
 0.206  0.163 -0.379
-0.0898 0.0367 -0.288
0.0830 0.0342 -0.379
0.0172 0.0342  0.189
 0.108 -0.0351  0.772
-0.0404 -0.109  0.790
-0.320  0.137  0.707
-0.0980 0.0527 -0.190
-0.189 0.0637 -0.687
0.0254  0.147 -0.626
0.0253  0.150 0.0737
-0.0404  0.147 -0.206
-0.189  0.147  0.419
-0.131  0.147  0.411
0.0830 0.0307 -0.708
0.00892 0.0367  0.370
-0.322  0.106  0.469
-0.205  0.150 -0.165
 0.173 -0.290  0.772
 0.231 0.0367  0.699
0.0912 0.0367  0.362
-0.197 0.0342 -0.642
 0.141 0.0367 -0.560
 0.280 0.0367  0.214
-0.279 0.0883 -0.143
0.0418 0.0342  0.608
0.0501 0.0367 -0.288
0.0665 0.0342 0.0161
-0.0158  0.147  0.724
-0.0547 0.0800 -0.329
 0.280 -0.298  0.769
-0.238 0.0143 -0.685
 0.190  0.147  0.658
-0.238 0.0225  0.790
-0.238  0.147  0.189
 0.206 0.0342  0.732
 0.198 -0.397  0.769
0.0830 -0.142 -0.685
-0.254 -0.0351  0.771
 0.124  0.147  0.444
 0.190  0.129 -0.705
-0.00752 -0.117 -0.685
 0.256 -0.191 -0.684
0.00891  0.147 -0.379
-0.0487 0.0367  0.493
 0.116 0.0358 0.0161
-0.221  0.150 -0.000391
-0.189 -0.159  0.771
-0.0158 0.0342 -0.0580
-0.0240 0.0342  0.304
0.0830 -0.241  0.769
-0.0980 0.0554 -0.708
 0.231 0.0342  0.650
-0.139  0.149  0.534
 0.289 -0.463 -0.705
-0.197 -0.422  0.787
0.0830 0.0800 -0.705
 0.120  0.158 -0.0251
-0.205  0.149  0.575
0.0993  0.150 -0.502
 0.280 -0.150  0.787
 0.165 -0.446  0.769
 0.280  0.162 -0.305
-0.295 0.0342  0.296
 0.215  0.179 -0.597
-0.317  0.148 -0.404
-0.115  0.150 -0.568
-0.230 0.0883 -0.141
-0.114 0.0505 -0.401
 0.182  0.275 -0.465
-0.312 0.0525 -0.223
 0.108  0.152 -0.601
 0.288  0.220 -0.0745
-0.230  0.128 -0.675
-0.263  0.150 -0.683
 0.312 -0.276 -0.708
 0.206  0.147 -0.329
-0.304  0.148  0.172
-0.0734  0.126 -0.288
 0.256  0.236 -0.335
-0.295  0.126 -0.461
-0.238 0.0471 -0.708
-0.156 0.00605 -0.687
-0.263  0.124 -0.436
-0.287  0.126 -0.371
 0.198 0.0342 -0.543
-0.0487 -0.265  0.791
-0.213 0.0367  0.534
-0.326 0.0486  0.353
-0.0816 -0.422 -0.705
0.0665 -0.372 -0.708
-0.0158 0.0636 -0.424
-0.0240 -0.224 -0.708
-0.0240  0.149 -0.321
-0.0816 -0.216  0.787
-0.172  0.126 -0.165
-0.164  0.126 -0.478
-0.0733 0.0367 -0.0415
-0.0404  0.126 -0.552
-0.0734  0.150 -0.0251
-0.238  0.150 -0.560
 0.132 0.0367  0.600
-0.330 0.0965  0.625
 0.264 0.0342  0.255
-0.164 0.0367 -0.502
-0.254  0.147 -0.379
-0.164 0.0502 -0.338
 0.116 0.0342  0.559
-0.172 0.0367 -0.0333
 0.264 -0.224 -0.687
-0.0569  0.147 -0.362
0.0171  0.150 -0.0991
 0.124  0.150  0.148
0.0500  0.147 0.00783
0.00892 0.0367  0.246
-0.00752 0.0342  0.674
-0.0158  0.150 -0.0826
 0.272 0.0342  0.304
-0.271 0.0342 -0.387
 0.305 0.0342  0.559
-0.246  0.147 0.0737
-0.106 0.0358  0.131
 0.173 -0.126 -0.708
-0.0487 0.0638 -0.686
-0.230 -0.282  0.771
-0.0322  0.147  0.304
-0.172  0.149  0.279
-0.180  0.149  0.707
-0.0733 -0.0186 -0.685
-0.246 0.0358  0.107
 0.272 0.0342 -0.371
-0.115 -0.504 -0.687
0.00893  0.149  0.288
 0.190 0.0342  0.633
0.0501 0.0367  0.378
 0.299  0.236 -0.404
 0.223  0.228 -0.222
-0.254 0.0965  0.787
-0.279  0.150 -0.584
-0.213 0.0496 -0.436
-0.189 0.0342 -0.609
 0.149 0.0367  0.674
 0.165 -0.348 -0.705
 0.124 0.0367  0.633
 0.165 0.0367  0.608
 0.298  0.245 -0.305
 0.149 0.0367 -0.617
 0.239  0.253 -0.478
 0.141  0.195 -0.464
-0.221 -0.191 -0.708
0.0912 0.0225  0.787
-0.131 0.0965 -0.689
 0.149 0.0342  0.715
-0.164 0.0342  0.748
 0.198 0.0342 -0.346
-0.246  0.147 -0.0826
 0.239  0.187 -0.464
-0.131  0.126 -0.601
0.0254  0.149  0.584
-0.205  0.150  0.115
0.0254 0.0367  0.493
 0.223 -0.126  0.787
-0.0487 0.0367  0.378
 0.231 -0.0516  0.772
-0.0816 0.0367  0.575
0.000705 0.0342  0.715
-0.0589 0.0636 -0.140
-0.0651  0.149  0.263
-0.0898 0.0367 -0.148
0.0912  0.147 -0.206
0.0830 0.0342  0.740
-0.0980  0.147  0.682
0.0830  0.149  0.460
-0.0898 0.0883 -0.426
 0.223 -0.191 -0.706
-0.238 0.0521 -0.478
 0.239  0.147 -0.264
 0.231 0.0367 -0.584
-0.115 0.0367 -0.535
-0.230  0.147 -0.223
 0.149 0.0342  0.329
 0.272 0.0367  0.370
 0.256  0.147  0.625
-0.263 0.0342  0.682
 0.296  0.212 -0.140
0.0747 -0.249 -0.684
-0.287 0.0342 -0.428
-0.238 0.0342 -0.124
 0.198  0.195 -0.0793
 0.272  0.160 -0.0250
 0.132  0.164 -0.568
-0.287  0.126 -0.190
 0.157  0.236 -0.351
-0.0240 -0.208  0.791
 0.305 0.0364 0.0489
 0.305 0.0342 -0.0168
 0.141  0.220 -0.0955
 0.299  0.187 -0.100
0.0336 -0.208 -0.708
-0.131 -0.233 -0.687
-0.213 -0.340 -0.708
 0.247 -0.405 -0.687
0.0266 0.0517 -0.617
 0.165 -0.323  0.787
-0.312 0.0883 -0.403
 0.289  0.150  0.707
-0.213 0.0521 -0.297
-0.00753  0.127 -0.626
0.0336 -0.208  0.790
-0.0816 -0.158  0.769
-0.287 0.00605  0.769
-0.106 -0.290  0.769
-0.246 -0.200  0.790
 0.247 -0.455 -0.708
-0.106 0.0367 -0.469
-0.319  0.144 0.0243
0.0830 -0.414 -0.684
-0.319 0.0895  0.781
 0.313 0.0357 -0.198
 0.149  0.163 -0.387
 0.239 -0.479 -0.684
 0.313  0.148  0.567
 0.313  0.148  0.757
 0.313  0.148 0.0572
 0.280 0.0342 -0.535
0.0993  0.150 -0.691
 0.313 0.0331 -0.305
 0.313  0.151  0.189
 0.215  0.147 -0.436
-0.319 -0.191  0.775
-0.0980  0.127 -0.313
 0.293  0.220 -0.486
-0.271  0.150 -0.535
-0.0651 -0.463  0.791
-0.0240 -0.290  0.787
 0.141  0.113  0.791
 0.157  0.149  0.748
-0.246 0.0367  0.617
-0.139 0.0502 -0.255
 0.223 0.0236  0.767
-0.333 0.0964  0.534
-0.287  0.147 -0.436
-0.172 -0.257  0.787
 0.206  0.162 -0.247
-0.330 0.0638  0.518
-0.0569 0.0367  0.197
 0.124  0.147  0.181
-0.0404 0.0367  0.691
-0.213 0.0367 -0.223
-0.0158 0.0367 -0.198
 0.231 0.0342  0.320
 0.247  0.150 -0.560
0.0665 0.0367 -0.445
-0.0733 0.0342  0.411
-0.295 -0.422  0.771
-0.123 0.0342  0.608
0.0665  0.147  0.345
 0.116 0.0362 -0.223
 0.198 0.0358 0.0325
 0.116 0.0367  0.444
0.0912  0.150  0.123
0.0665  0.149 -0.181
 0.231 0.0342 0.0490
-0.263 -0.233 -0.685
-0.0980  0.126 -0.255
-0.304 0.0342  0.551
 0.272  0.147  0.452
0.0336  0.149  0.419
 0.239 0.0342 -0.0333
-0.246 0.0342  0.139
 0.231 0.0342 -0.165
-0.0240  0.126 -0.502
 0.231 0.0719 -0.705
-0.238 -0.455 -0.684
 0.223  0.179 -0.335
-0.139 -0.389 -0.685
 0.309  0.176 0.0390
 0.297  0.245 -0.667
-0.330  0.105  0.707
-0.271  0.149  0.411
0.0500  0.147 -0.321
 0.132 -0.175  0.790
-0.180 0.0342 -0.288
 0.264 -0.496  0.769
-0.221 0.0358  0.320
 0.116  0.149  0.674
 0.264 0.0367  0.526
-0.139 -0.331  0.771
-0.221 -0.126 -0.685
-0.0816 -0.0762  0.787
 0.289 0.0358 -0.140
 0.264 0.0342 0.0243
 0.280 -0.117  0.787
 0.280 -0.307 -0.684
 0.198  0.245 -0.608
-0.238  0.147  0.600
 0.318  0.150 -0.406
0.0254 0.0342 0.0325
0.0994 0.0342 0.0901
-0.131  0.128 -0.469
0.0830 0.0342 -0.280
0.0747 -0.0187 -0.708
-0.0816  0.126 -0.379
-0.304  0.126 -0.634
-0.0240 -0.167 -0.685
-0.117  0.126 -0.425
 0.198  0.162 -0.626
0.0254 -0.0598 -0.705
 0.190 -0.0598 -0.685
-0.0569 -0.364 -0.705
 0.116 -0.0927 -0.705
 0.309  0.279 -0.000382
-0.205 0.0142 -0.705
-0.0158 -0.527 -0.708
-0.0322 0.0342  0.756
-0.305 -0.0516 -0.688
 0.305 -0.0680 -0.687
 0.299  0.171 -0.208
0.0500  0.147 -0.601
 0.157  0.228 -0.478
0.0994 -0.527  0.769
 0.295  0.212 -0.699
 0.149  0.161 -0.297
-0.115 -0.0187  0.771
-0.319 -0.389 -0.692
 0.239  0.162 -0.181
-0.271 -0.282  0.771
-0.221 -0.0269  0.790
-0.131 0.0142  0.771
0.0336 -0.455  0.769
 0.157 -0.134  0.769
0.0172 -0.356  0.790
-0.147 -0.216  0.790
 0.174 -0.274 -0.705
-0.172  0.128 -0.247
0.0747 -0.504  0.772
-0.304 -0.0927  0.771
 0.157  0.162 -0.667
 0.297 -0.257 -0.684
-0.147 -0.455  0.791
-0.0733 0.0290 -0.682
-0.331 0.0718  0.378
 0.256  0.161 -0.0819
-0.318 -0.453 -0.698
 0.125  0.187 -0.607
-0.202 -0.531 -0.705
 0.231 -0.339  0.790
-0.213  0.147 -0.305
-0.0404  0.147 -0.634
-0.147  0.147 -0.634
-0.197 0.0342 -0.395
 0.299  0.179 -0.148
 0.256 -0.372  0.769
-0.0158  0.150 -0.453
-0.246 -0.167 -0.687
-0.197  0.128 -0.584
-0.279 -0.348 -0.684
-0.271 -0.216  0.769
0.0583 -0.0269  0.769
-0.00754 -0.446 -0.687
 0.165 -0.0762  0.787
0.0501 -0.183  0.769
-0.197  0.126 -0.667
-0.139 -0.496 -0.705
 0.165 -0.405 -0.687
-0.213 -0.233  0.769
0.0830 -0.208  0.787
-0.00752 -0.233  0.769
0.0747 -0.446  0.787
-0.205 -0.463  0.769
 0.107 0.0362  0.764
0.0336 -0.0927 -0.685
-0.0651 -0.0762 -0.705
0.0232  0.128 -0.650
-0.197 -0.0845 -0.685
-0.172 -0.455 -0.685
-0.106 -0.438 -0.687
0.0418 0.0307 -0.708
-0.327 0.0570  0.586
0.0418 -0.00220 -0.708
-0.279 0.0527 -0.157
 0.295  0.253 -0.519
-0.0549 0.0565 -0.297
-0.322 0.0451  0.129
-0.197 0.00605  0.790
-0.0926  0.121 -0.149
0.0254 -0.134  0.791
-0.0651 0.0143  0.790
-0.304 -0.372  0.771
 0.108  0.152 -0.552
-0.271  0.120 -0.682
0.0265 0.0517 -0.430
0.0665 -0.438 -0.705
-0.189  0.128 -0.305
-0.330 0.0638  0.189
-0.131 0.0719 -0.424
0.0171 -0.504 -0.705
-0.213  0.138  0.790
-0.0980  0.147 -0.436
-0.263 -0.372  0.771
 0.116 -0.233 -0.687
 0.297  0.170 -0.626
-0.131 -0.0433  0.787
-0.260 0.0516 -0.687
-0.213 -0.167  0.787
-0.263 0.0527 -0.206
 0.272 0.0236  0.767
 0.295  0.195 -0.338
-0.131 -0.512  0.791
0.0747 -0.150  0.769
0.0171 -0.422  0.787
-0.172  0.113 -0.405
 0.190 -0.438 -0.687
 0.108 -0.315  0.769
-0.238 0.0527 -0.362
-0.213 -0.488 -0.705
-0.139  0.150 -0.667
-0.0898  0.126 -0.617
 0.261  0.280 -0.598
-0.0569  0.150 -0.527
-0.0898 0.0502 -0.231
-0.205 0.0527 -0.247
-0.106  0.150 -0.288
-0.230  0.126 -0.255
-0.254 0.0342 -0.502
-0.295 0.0883 -0.689
-0.00753  0.126 -0.667
0.0418 -0.0845  0.787
0.0993  0.150 -0.659
-0.0240 -0.389  0.772
 0.275 -0.531  0.770
 0.297  0.147  0.419
-0.00753 -0.348  0.772
 0.319 -0.398 -0.708
 0.108  0.151 -0.181
-0.114 0.0527 -0.157
-0.318 0.0502  0.219
-0.172 -0.504  0.772
 0.141 -0.183 -0.706
0.0254 -0.323 -0.684
-0.180 -0.532  0.787
0.0994 -0.405 -0.708
 0.239 -0.109 -0.684
 0.317 -0.496  0.769
 0.247 -0.0598 -0.706
0.0273  0.113 -0.568
-0.312  0.126 -0.502
-0.329 0.0970  0.255
 0.239  0.163 -0.379
 0.294  0.245 -0.634
-0.0651 -0.257 -0.684
 0.289 -0.397  0.772
 0.237  0.158 -0.471
-0.329 0.0967  0.181
 0.182  0.171 -0.464
-0.0733 -0.397  0.791
 0.141 -0.0104  0.791
 0.247  0.113  0.787
 0.149 0.0307  0.791
-0.156 -0.0433 -0.708
 0.309  0.279 -0.280
 0.223  0.204 -0.0955
-0.263 0.0390  0.787
 0.289 0.0719  0.790
-0.254  0.121 -0.141
-0.139 -0.150  0.771
-0.254 -0.471  0.791
 0.264 -0.323 -0.708
-0.0816 0.0367  0.263
0.0994  0.147 -0.461
-0.0322 0.0142 -0.708
-0.139  0.128 -0.346
-0.0487 0.0367  0.444
 0.295  0.253 -0.349
0.00893 0.0342 -0.0991
 0.280 -0.241  0.769
 0.206 0.0342  0.419
 0.165 0.0554 -0.708
-0.0980 0.0367  0.732
 0.132 -0.233  0.790
0.000683 0.0521 -0.568
 0.173 -0.0845 -0.708
 0.108 0.0965 -0.708
-0.197  0.128 -0.617
-0.0980 0.0367 0.0325
 0.298  0.179 -0.535
-0.295  0.150 -0.297
 0.165 0.0367  0.518
 0.132 -0.446 -0.684
-0.0487  0.113 -0.705
-0.147 -0.101  0.771
-0.205 -0.109  0.771
-0.0404 0.0342 0.0490
 0.206 -0.191  0.790
-0.0322  0.150 -0.00861
-0.00752 0.0342  0.164
 0.297 -0.224 -0.706
-0.180  0.147 0.0572
-0.0487 0.0512 -0.519
0.0500  0.147 -0.494
 0.132  0.147 -0.157
-0.172 0.0472  0.790
-0.0980 0.0367  0.543
 0.141 -0.381  0.787
-0.123  0.147  0.345
-0.114 0.0800  0.787
-0.0569  0.150 -0.0580
-0.0404 0.0342  0.164
-0.238  0.149  0.633
 0.206  0.147  0.691
-0.0486  0.150 -0.272
-0.172  0.126 -0.568
 0.149 0.0342 0.0819
0.0665 0.0367  0.238
0.0830 0.0367 -0.626
-0.0240 -0.0516  0.769
0.0273 0.0719 -0.502
 0.289 0.0367 -0.659
 0.165  0.150  0.362
-0.189 0.0342  0.567
-0.106 0.0367  0.312
-0.279  0.150 -0.206
 0.256 -0.422  0.769
 0.157  0.147  0.246
-0.156  0.147 -0.0991
-0.189  0.150 -0.0991
 0.206 -0.298 -0.687
 0.215 0.0367  0.510
-0.172 0.0342 -0.140
-0.131 0.0367  0.436
-0.156  0.147 -0.214
-0.172  0.150 -0.461
-0.189  0.147 -0.519
-0.0240 0.0800  0.790
-0.0404 0.0367  0.567
0.0418  0.147  0.312
-0.147 0.0367 -0.0497
-0.246 -0.0680 -0.705
-0.0322 0.0342  0.255
-0.0816 -0.339  0.791
 0.231  0.147  0.395
-0.230  0.149  0.288
-0.147  0.147  0.263
-0.164 0.0358  0.139
-0.164  0.149  0.641
-0.0651  0.149 0.0819
-0.0816 0.0364  0.214
-0.0322  0.147  0.608
-0.0487 0.0360  0.107
-0.295 0.0502 -0.181
-0.295 -0.471 -0.687
 0.239 0.0367  0.353
 0.149  0.149  0.715
0.0747  0.147 -0.0744
0.0500  0.147  0.691
-0.0651 -0.0186  0.790
-0.00754  0.150 -0.486
0.0747  0.149 -0.107
-0.0816 -0.348 -0.705
0.0747 0.0367  0.551
-0.271 -0.126  0.771
-0.172 0.0563 -0.424
0.0747  0.147 -0.305
-0.0816 -0.117 -0.685
-0.0487 -0.414 -0.687
-0.304  0.128 -0.346
-0.106 -0.117 -0.705
0.0747  0.149  0.271
-0.197 0.0342  0.115
-0.230 0.0367  0.592
 0.289  0.150 -0.601
-0.246 0.0358  0.477
 0.256  0.147 -0.502
-0.180 0.0367 -0.0991
 0.165  0.149  0.501
-0.263  0.147  0.699
-0.246  0.150 -0.436
 0.223 -0.348 -0.708
 0.223 0.0554  0.787
-0.213 0.0342  0.172
-0.271 0.0342 -0.453
 0.190 -0.356  0.787
-0.156 0.0342  0.345
-0.147  0.126 -0.264
-0.131 0.0367 -0.650
-0.230 0.0342  0.748
 0.264 0.0358 -0.190
-0.213  0.126 -0.552
-0.263 0.0342  0.592
-0.0898  0.149  0.238
 0.173 0.0358 -0.190
-0.164  0.149  0.320
-0.189 -0.356  0.769
-0.197 0.0358  0.386
 0.264 0.0342 -0.157
 0.289 -0.0104 -0.687
-0.180 -0.405  0.769
 0.165 -0.249  0.787
-0.0816  0.147 0.0243
0.0254 0.0342 -0.0415
0.0501 -0.150  0.790
-0.333 0.0882  0.123
0.0254 0.0342  0.139
 0.256 0.0358 -0.0580
-0.221 -0.446 -0.708
0.0665  0.150  0.181
0.0418 0.0367 -0.239
 0.157  0.147  0.115
-0.189 -0.175 -0.708
-0.180 0.0367 -0.000382
0.0501 -0.348  0.787
-0.230 0.0342 -0.0415
-0.0651 0.0367  0.633
-0.0733  0.149  0.534
0.0912 0.0367 -0.593
0.0171  0.147 -0.206
-0.00754  0.147  0.370
0.0747 0.0342  0.592
 0.116 -0.0433 -0.685
0.0254 0.0390  0.787
-0.0980  0.150 -0.691
0.0500  0.147 -0.206
0.0912  0.147  0.699
-0.180  0.147  0.189
 0.141 -0.0845 -0.685
0.0336 -0.348 -0.708
-0.0592 0.0636 -0.405
-0.263 -0.0845  0.769
-0.0487 0.0521 -0.593
0.0418 0.0342  0.650
-0.0322  0.149  0.575
 0.182 0.0367  0.107
-0.0569  0.147  0.320
0.0254 0.0367 -0.305
0.0665 0.0367  0.148
0.0583 0.0342  0.419
-0.0816 -0.364  0.769
0.0336 -0.397  0.787
0.000700  0.121 -0.424
-0.304  0.149  0.510
-0.156  0.147  0.395
 0.247 0.0342 -0.239
 0.247 0.0225 -0.705
-0.279  0.147  0.271
 0.297  0.147  0.238
-0.246  0.128 -0.206
 0.124 0.0367  0.263
-0.131  0.149  0.230
-0.131 0.0342 -0.0991
 0.165  0.147 -0.0580
-0.164 0.0342  0.238
 0.165 0.0342 -0.395
-0.197  0.128 -0.206
-0.230  0.150 -0.395
-0.205 0.0342  0.691
0.0994 0.0367 -0.338
0.0994  0.149  0.617
 0.298  0.228 -0.255
-0.333 0.0965  0.740
 0.182 -0.504  0.787
0.0171 -0.183  0.787
0.0747 -0.0927 -0.687
