ply
format ascii 1.0
element vertex 2048
property float x
property float y
property float z
end_header
-0.111 -0.606  0.363
 0.414  0.722  0.553
0.0373 0.0483 -0.774
-0.344  0.274  0.339
 0.220 -0.612 -0.359
 0.248 0.0681 -0.0782
 0.236 0.0952  0.579
-0.330 -0.0833 -0.281
-0.00757  0.717 0.0966
-0.191  0.717  0.591
-0.227 -0.577 -0.130
-0.0769 -0.134  0.228
-0.106 -0.366 -0.601
 0.308  0.401  0.239
 0.284 -0.136 -0.465
 0.205 -0.588 0.0708
-0.384  0.684  0.239
0.0361 -0.273 -0.133
-0.00824  0.370  0.487
-0.00821  0.217  0.140
-0.286 -0.0342 -0.631
-0.206 0.0690  0.571
 0.342  0.725  0.190
 0.259 0.0633  0.251
0.0909  0.721  0.434
 0.296  0.423  0.580
0.0981 -0.606 -0.655
-0.231 0.0484 -0.0105
-0.0997 -0.612 -0.412
0.0551 -0.350  0.414
-0.339  0.461  0.566
-0.180  0.449  0.144
-0.206 -0.339 -0.313
-0.00690 -0.393  0.129
0.0229 -0.207 -0.420
0.0375 0.0432  0.404
0.0375 -0.612 -0.161
 0.258 0.0585 -0.640
0.0830  0.469  0.133
-0.195 -0.599  0.121
 0.325 0.0693 -0.321
 0.165 -0.401 -0.503
-0.153  0.721  0.335
 0.102 -0.171 -0.656
 0.136 -0.603  0.314
0.0648 -0.0723 0.0219
-0.425  0.712  0.510
-0.222 0.0631  0.297
 0.238 -0.166 -0.223
-0.169 -0.156 -0.113
 0.353  0.256  0.427
 0.384  0.553  0.396
 0.199 -0.398 -0.275
-0.206 -0.185 -0.490
-0.298 0.0704 -0.435
-0.108 -0.130 -0.716
-0.116 -0.590 -0.634
-0.219  0.233  0.164
-0.330  0.240  0.551
-0.345  0.479  0.285
 0.226  0.621  0.581
-0.129  0.541  0.495
-0.221  0.712  0.110
 0.197  0.248  0.155
-0.000625 -0.612 0.0605
-0.0529 -0.446 -0.234
-0.0842 0.0356  0.127
 0.137  0.721  0.244
-0.000631  0.652  0.593
-0.0468 0.0686 -0.0750
 0.229 -0.580 -0.133
 0.130  0.232  0.494
-0.148 -0.155 -0.305
 0.289  0.721  0.388
0.0103 -0.160  0.397
-0.0533 -0.219 0.0531
0.0774 -0.0219  0.227
-0.229 0.0653 -0.218
-0.0998  0.202  0.485
0.00755 -0.452 -0.0549
-0.123 0.0514 -0.650
 0.246  0.575  0.144
-0.341 0.0683  0.437
-0.179  0.356  0.545
 0.167 0.0699 0.0833
0.0986  0.515  0.490
-0.0613 -0.446  0.297
-0.191 -0.479 -0.491
-0.225 -0.523 -0.298
 0.322 0.0638  0.429
0.0610 -0.428 -0.642
0.0326 -0.528  0.426
-0.00205 -0.284  0.260
0.0528 -0.612 -0.328
 0.334 0.0218 -0.493
 0.215 -0.269 -0.381
 0.136 -0.0665 -0.129
 0.185 -0.569 -0.517
 0.281  0.255  0.578
 0.177 -0.0488 -0.741
-0.387  0.553  0.427
0.0757 -0.175 -0.259
0.0769 -0.172  0.160
-0.0373 -0.166 -0.573
-0.332 -0.0847 -0.472
-0.284  0.572  0.166
-0.000626 -0.612  0.228
-0.0921 -0.612 -0.252
-0.0769  0.721  0.472
-0.0164 -0.101 -0.109
 0.246 -0.113 -0.617
-0.0387  0.568  0.126
0.0375 -0.612 -0.496
-0.0367  0.371  0.136
-0.321  0.721  0.396
0.0789 -0.324 0.00690
 0.318  0.217  0.281
 0.367  0.543  0.241
 0.319 -0.0388 -0.190
-0.0943 -0.277 -0.214
-0.130 0.0631  0.427
-0.282 -0.0562 -0.138
-0.130 -0.552 -0.0157
 0.212  0.721  0.112
-0.0235  0.721  0.259
 0.366  0.405  0.427
-0.305  0.606  0.585
-0.367  0.405  0.424
 0.360  0.558  0.559
-0.0796 -0.332 -0.0464
 0.330 -0.0915 -0.329
 0.182 0.0631  0.381
 0.106 -0.508 -0.239
0.0985 0.0702 -0.0539
-0.183 -0.327 -0.460
-0.0660 -0.0404  0.340
 0.412  0.683  0.321
 0.133 -0.194 -0.0593
0.0398 -0.0984 -0.765
 0.107 -0.294 -0.582
-0.125 -0.0453 -0.0248
0.0605 -0.481  0.234
 0.152  0.370  0.518
-0.294  0.363  0.224
 0.139 -0.169 -0.490
-0.0698 -0.526  0.144
 0.111  0.628  0.120
0.0451 0.0877  0.145
-0.168 -0.0956 -0.595
-0.217 0.0633 -0.551
 0.118 0.0595 -0.664
 0.206 -0.477 -0.397
 0.226 0.0631 -0.213
-0.333 0.0631 -0.305
 0.106 -0.552 -0.0615
-0.209 0.0904  0.166
0.0811 -0.355 -0.229
 0.121 -0.612  0.175
0.0648 -0.501 0.0911
 0.114  0.725  0.564
-0.199 -0.609 -0.514
-0.155 -0.570  0.243
 0.212  0.416  0.150
-0.307  0.174  0.264
-0.0830 -0.0201 -0.781
-0.233 -0.0976 -0.389
0.0907  0.339  0.139
 0.131  0.103  0.493
-0.0645 -0.278  0.373
 0.339  0.156  0.517
-0.211  0.481  0.574
-0.245  0.721  0.236
-0.00708 -0.538 -0.680
 0.207 -0.121 -0.343
-0.0612 -0.0801 0.0833
 0.159 -0.257 -0.165
-0.000613 -0.271 -0.640
-0.158 0.0112 -0.130
0.0769 -0.155  0.282
-0.114  0.721  0.170
 0.175 -0.612 -0.244
-0.211  0.191  0.579
-0.323  0.118  0.551
-0.255 -0.151 -0.213
-0.160  0.576  0.133
-0.0921 -0.612 -0.115
-0.313  0.724  0.556
-0.199 -0.0516 -0.724
-0.111 0.0413  0.256
-0.00823  0.591  0.490
-0.0587 -0.157 -0.206
 0.236  0.720  0.495
-0.351  0.187  0.427
 0.421  0.653  0.449
-0.421  0.662  0.375
0.00698 0.0704 0.0300
0.0508 -0.0562  0.341
-0.133 -0.253 -0.553
-0.227 -0.606 -0.381
 0.251  0.721  0.266
0.0146  0.225  0.485
-0.214  0.721  0.442
 0.226 0.0628 -0.528
 0.304  0.717  0.591
 0.260 0.0195 -0.405
0.0689 -0.278  0.112
0.0446 -0.386  0.305
-0.122  0.294  0.143
-0.0808 -0.194 -0.469
 0.175 -0.281 -0.490
-0.123 0.0699 0.0224
 0.357  0.465  0.324
-0.107  0.641  0.548
 0.348  0.332  0.525
-0.0845 -0.612 -0.527
-0.0513 -0.231  0.166
-0.330  0.718  0.143
 0.194  0.469  0.559
-0.0586 -0.439  0.410
0.0778 -0.376 -0.115
-0.101 -0.475 -0.626
-0.0773 -0.374 -0.150
-0.360 -0.0309 -0.378
 0.130 -0.500 -0.593
-0.205 -0.416 -0.397
-0.0997  0.156  0.145
 0.235 -0.0459 -0.0858
0.0507 -0.188 0.0124
 0.129 -0.612 -0.420
-0.207 -0.612 -0.237
 0.214 -0.0522 -0.220
-0.000660  0.720  0.366
0.0985  0.194  0.144
-0.0235 0.0880  0.482
-0.00285 -0.169 -0.685
 0.333  0.117  0.335
-0.195 -0.232 -0.366
 0.340  0.316  0.320
-0.320 0.0273 -0.544
-0.374  0.596  0.303
-0.0922  0.438  0.489
 0.141  0.634  0.511
-0.237 0.0631  0.404
 0.221 -0.519 -0.272
0.0146 -0.612  0.335
-0.273 0.0595 -0.120
-0.228 0.0615 -0.669
 0.214  0.118  0.168
-0.329  0.347  0.563
-0.0162 -0.198 -0.320
-0.0546 -0.130 -0.0129
-0.244 -0.0546 -0.524
 0.128 -0.181 -0.381
 0.306 -0.0274 -0.594
-0.326 0.00359 -0.214
0.0106 -0.492 -0.153
-0.0713 -0.186  0.320
-0.215 -0.610 0.00908
 0.207 -0.281 -0.276
-0.0363 -0.606  0.444
 0.188 -0.0209 -0.639
-0.216 -0.0558 -0.237
-0.0319 0.0142 -0.688
 0.121 0.0429  0.297
-0.388  0.614  0.520
 0.195  0.194  0.566
-0.154 -0.412 -0.259
-0.356  0.286  0.457
 0.249 -0.0477 -0.509
0.0688 -0.00856  0.114
 0.190  0.721  0.350
-0.205  0.588  0.565
-0.130 -0.516 -0.243
-0.260 -0.00851 -0.318
 0.258 -0.0120 -0.304
 0.351 -0.0589 -0.431
-0.0369 -0.458 0.0379
 0.219 -0.584 -0.0311
 0.272  0.294  0.207
-0.166 -0.205 -0.215
0.0146 -0.612 -0.595
-0.0997 -0.612 0.0833
0.0643 -0.240  0.336
0.0687  0.721  0.169
-0.0615  0.469  0.132
 0.282  0.485  0.189
-0.0339 -0.203 -0.113
0.0153  0.721  0.522
-0.348  0.385  0.321
 0.353  0.721  0.472
-0.258 -0.169 -0.321
0.0657 -0.0305 -0.0690
-0.0693 -0.330 0.0525
-0.00825 -0.612 -0.0615
 0.157 0.0515 -0.132
0.0787 -0.0401 -0.695
 0.375  0.500  0.479
0.0680 -0.505  0.337
 0.221 0.0631  0.480
 0.218 -0.131 -0.132
 0.193 -0.378 -0.411
 0.149 -0.119 -0.587
-0.237  0.286  0.582
-0.0838 -0.0443  0.184
0.0909 -0.612 0.0147
-0.210 -0.0628 -0.0716
-0.0769  0.301  0.486
-0.0692  0.725  0.578
-0.0616 -0.550 -0.184
 0.192  0.293  0.562
-0.0989 0.0687 -0.746
-0.310 0.0637  0.340
 0.183 0.0417 -0.00738
 0.307  0.649  0.137
0.0602 -0.178 -0.544
 0.374  0.638  0.245
-0.280  0.452  0.192
-0.112 -0.182 -0.630
-0.301  0.271  0.246
-0.0253 -0.447  0.205
-0.144 -0.110 -0.191
-0.0734 -0.538  0.282
-0.0353 -0.0795 -0.679
 0.205  0.712  0.593
-0.0375 -0.408 -0.650
 0.150 -0.120 -0.208
 0.157  0.526  0.136
-0.229  0.337  0.162
0.0885 -0.610  0.394
-0.0163 -0.255 -0.0381
-0.000622 -0.612 -0.405
 0.180 -0.122 -0.684
0.00697  0.461  0.488
 0.365  0.647  0.590
 0.123 -0.553 -0.153
-0.0919  0.660  0.103
 0.274  0.537  0.586
 0.349  0.164  0.419
 0.159 0.0434  0.213
-0.140  0.121  0.501
-0.306  0.721  0.304
-0.271 -0.0201 -0.420
0.0447 -0.439 -0.231
-0.161 -0.521 -0.567
-0.252  0.400  0.584
-0.000623 -0.612 -0.252
-0.280 0.0935  0.230
-0.373  0.476  0.480
 0.127 0.0254 -0.758
-0.106 -0.188 -0.379
 0.199 0.0521 -0.708
 0.319 0.0652  0.519
-0.0424 -0.345  0.316
0.00753 -0.317  0.175
-0.0704 -0.000872 0.0399
-0.373  0.667  0.590
0.0100 -0.245  0.426
 0.295 0.0441 -0.160
-0.115 -0.612  0.175
-0.249 -0.130 -0.571
-0.215 -0.522 -0.407
-0.136 -0.0396 -0.663
-0.202 0.0621 0.0826
0.00623 -0.199  0.236
0.0180 -0.386 0.0207
 0.196 -0.140 -0.428
 0.216  0.385  0.582
-0.161  0.250  0.526
0.0528  0.141  0.484
0.0694 -0.121 -0.144
 0.347 0.0257 -0.405
 0.305 -0.104 -0.246
 0.335  0.721  0.309
0.0755 0.0166 0.0304
-0.0696 -0.144  0.142
-0.146 0.0703 -0.0615
0.0621 -0.447  0.401
0.0533 -0.340 -0.632
 0.180  0.553  0.543
 0.411  0.725  0.396
0.0599 -0.490 0.00214
-0.200 -0.00297 -0.619
 0.327 0.0296 -0.242
 0.139 -0.203 -0.574
-0.0990 -0.0638 -0.104
-0.0548 -0.510 -0.0641
-0.313 -0.119 -0.369
0.0756  0.347  0.487
 0.140 -0.0505 -0.0315
 0.357  0.418  0.520
-0.167 -0.278 -0.269
0.0528  0.720  0.297
-0.199 0.0631  0.480
 0.213 -0.603 -0.444
0.0616 -0.0797  0.159
-0.397  0.725  0.312
-0.155 -0.370 -0.532
-0.0597 -0.522  0.397
-0.168 -0.612 -0.321
 0.289  0.141  0.242
 0.142 -0.558  0.243
-0.130  0.377  0.141
-0.161  0.721  0.251
 0.124 -0.408 -0.576
0.0451  0.576  0.126
 0.197  0.638  0.116
 0.151 -0.596 -0.590
-0.340  0.179  0.344
 0.254 -0.0584 -0.374
 0.231 -0.157 -0.525
 0.343  0.240  0.517
 0.289 -0.141 -0.382
-0.203 -0.114 -0.668
-0.236  0.721  0.522
-0.333  0.545  0.237
 0.106  0.647  0.591
0.0451 -0.612  0.129
-0.109 -0.202 -0.147
-0.0226 -0.332  0.435
-0.283 0.0632  0.495
-0.222  0.522  0.145
 0.144 -0.554  0.121
 0.373  0.588  0.310
-0.0616 -0.612 -0.328
-0.0692 -0.612 0.00712
-0.225  0.626  0.134
-0.215 -0.425 -0.313
-0.332  0.721  0.477
-0.275 -0.140 -0.490
-0.0160 -0.00364 -0.0530
 0.128 0.0955  0.150
 0.388  0.589  0.488
 0.326 -0.0744 -0.514
-0.351 -0.00653 -0.461
-0.248 0.0267 -0.482
-0.0921  0.721  0.388
-0.169 0.0232 -0.732
 0.185 0.0490 -0.596
-0.0423 -0.0891 -0.771
-0.142 -0.552 -0.173
 0.192  0.328  0.151
-0.224 -0.0884 -0.310
 0.298 0.0617 -0.564
-0.0235  0.721  0.175
0.0434 0.0410 -0.687
-0.172 -0.182 -0.562
-0.0845 -0.355 -0.231
 0.256 -0.0482 -0.670
0.0705 -0.531 -0.657
-0.0748 -0.256 -0.615
0.0756 -0.612  0.251
-0.0769 -0.612  0.251
0.0402 -0.119 -0.641
-0.329 -0.0523 -0.544
 0.150  0.721  0.165
-0.0783 -0.0530  0.262
 0.152  0.720  0.495
-0.0719 -0.539 0.0378
0.0528  0.639  0.503
0.0563 -0.141 0.0754
 0.250  0.202  0.191
-0.0188 -0.424 -0.128
 0.228 -0.197 -0.343
-0.323  0.641  0.157
 0.108 -0.122 -0.0367
-0.168 -0.555 0.0529
-0.267  0.537  0.586
0.0298  0.286  0.138
-0.153 -0.612 -0.0615
 0.390  0.718  0.252
 0.122 -0.104 -0.741
-0.139 0.0414  0.182
-0.254  0.159  0.196
 0.174 -0.492 -0.509
0.0754 -0.0272 -0.784
 0.137 -0.553 0.0376
 0.397  0.627  0.373
-0.0363 0.0202  0.379
 0.120 -0.431 -0.250
0.0319 -0.240  0.175
-0.0651 -0.298 -0.115
-0.247 -0.173 -0.402
 0.343  0.226  0.354
 0.114 -0.285 -0.238
-0.122 -0.119 -0.0552
-0.215 -0.566 -0.0544
-0.0359 -0.610 -0.683
 0.167 -0.612 -0.0996
-0.257 0.0664 -0.292
0.0603 -0.317  0.341
-0.0387 0.0952  0.145
0.0493 -0.545 -0.203
0.0574 -0.280 -0.0522
0.0985 -0.612 -0.252
 0.114  0.721  0.358
 0.128  0.438  0.494
 0.275 -0.150 -0.306
-0.153 -0.445 -0.558
0.0933  0.706 0.0979
-0.430  0.712  0.434
-0.0970 -0.101 -0.639
 0.281  0.179  0.576
0.0298  0.408  0.134
-0.130  0.721  0.527
 0.259 0.0631  0.327
-0.0108 -0.0878  0.373
 0.319  0.603  0.196
 0.203 -0.225 -0.442
-0.358  0.362  0.495
-0.364  0.530  0.548
0.00190  0.634  0.106
 0.179 -0.101 -0.0755
-0.345  0.179  0.501
-0.345 0.0470 -0.381
0.0525 -0.550 -0.115
0.0146  0.507  0.129
-0.153  0.471  0.518
-0.00691 -0.378  0.251
 0.352 -0.0201 -0.321
 0.205  0.721  0.427
-0.0311 -0.612  0.129
-0.000639 -0.198 -0.505
 0.297 0.0706 -0.450
 0.281  0.347  0.580
-0.191  0.164  0.156
 0.358  0.329  0.411
-0.0631 -0.111  0.307
-0.279 0.0661 -0.593
 0.241 0.000228 -0.571
 0.135 -0.166 -0.308
 0.266 0.0701 -0.275
 0.350  0.389  0.333
 0.193 -0.553 -0.203
-0.130 0.0449  0.327
-0.0429 -0.305  0.117
-0.234 0.0112 -0.0802
 0.257  0.363  0.184
-0.420  0.640  0.458
0.0680 0.0683  0.477
-0.0483 -0.327 -0.633
 0.129 -0.612 -0.496
-0.0442 -0.395 -0.0312
 0.200 0.00357 -0.167
-0.160 -0.612 -0.579
 0.212 -0.439 -0.334
0.0704 -0.523  0.175
 0.242  0.721  0.180
-0.182 -0.0472 -0.172
 0.121 -0.612 0.0833
-0.195  0.721  0.178
-0.0816 -0.180 -0.288
-0.132 -0.0747 -0.756
-0.0230 -0.549 -0.122
-0.376  0.485  0.404
 0.203 -0.324 -0.336
0.00718 -0.150 -0.177
0.0983 -0.242 -0.111
0.0278 -0.335 0.0949
-0.198 -0.332 -0.389
 0.280 -0.0996 -0.178
0.0874 -0.309 -0.169
0.0359 -0.610  0.444
-0.182 -0.148 -0.384
 0.108 0.0514  0.414
-0.346  0.616  0.232
0.0303 0.0660 -0.0770
0.0832 -0.612 -0.572
 0.284  0.716  0.121
0.0686 -0.195 -0.343
0.0273 -0.452  0.152
 0.197 -0.199 -0.145
 0.152 -0.612 -0.0234
0.0689 -0.215 0.0788
-0.0845  0.721  0.297
-0.130 -0.553  0.114
-0.0464 -0.612 -0.466
-0.207 0.0702 -0.145
 0.424  0.718  0.480
-0.138  0.718  0.102
0.0641 -0.0985  0.228
 0.116 -0.0839 -0.652
 0.153 -0.345 -0.261
-0.300 0.0663 -0.192
 0.183 0.0652  0.540
0.0760 -0.197 -0.466
 0.374  0.479  0.411
 0.167  0.179  0.152
-0.131  0.365  0.495
-0.0536 -0.150 0.0675
 0.310  0.332  0.254
-0.244 -0.123 -0.148
 0.200 -0.531 -0.456
-0.175 -0.258 -0.474
0.0739 0.0268  0.175
-0.315  0.721  0.234
-0.222  0.720  0.320
-0.146 -0.612 -0.466
-0.0616 -0.612 -0.595
0.0604  0.278  0.485
 0.160 -0.612 -0.313
0.0223  0.721  0.449
 0.193 0.0481  0.152
-0.264 0.0342 -0.374
0.0779 0.0168  0.345
0.00610 -0.460  0.441
 0.192 -0.610  0.136
 0.340  0.476  0.566
-0.000593 -0.470 -0.668
-0.348 -0.00459 -0.298
0.0421 -0.418 -0.161
-0.377  0.546  0.351
-0.0685 -0.514  0.213
 0.182 -0.124 -0.270
-0.129 -0.166 -0.510
-0.0645 -0.378  0.373
-0.236 -0.00757 -0.686
 0.144  0.423  0.140
-0.0989 0.000343 -0.0791
0.0740 -0.537  0.276
-0.286  0.671  0.595
 0.232 -0.210 -0.275
 0.167 -0.612 -0.168
 0.261 0.0622 -0.343
 0.152  0.171  0.518
-0.146 -0.612 0.0224
 0.413  0.635  0.532
-0.0997  0.537  0.130
-0.153  0.225  0.149
-0.193 -0.545 -0.235
0.0629 -0.137  0.346
-0.183 0.0464  0.243
-0.0413 -0.459  0.106
-0.200 -0.202 -0.274
-0.138 -0.553 -0.0920
0.0374  0.164  0.142
-0.0539  0.293  0.139
-0.0157 -0.508 -0.214
-0.252  0.118  0.579
 0.397  0.517  0.307
-0.0415 -0.260  0.310
-0.207 -0.111 -0.517
 0.193 0.0581  0.270
0.0907 -0.0315  0.293
-0.181 -0.117 -0.261
-0.298 -0.0889 -0.195
 0.190 -0.435 -0.447
-0.176 0.0631  0.373
 0.341 -0.0477 -0.261
 0.283 -0.0140 -0.128
 0.196 -0.0717 -0.594
-0.0490 -0.218  0.399
-0.191 -0.400 -0.461
0.00446  0.721  0.588
-0.0769  0.583  0.491
 0.311  0.542  0.168
0.0756 -0.612 -0.0615
-0.276  0.674  0.123
-0.0159 0.0703 -0.740
 0.124 -0.00564 -0.0907
-0.233 -0.606 -0.298
-0.356  0.324  0.381
0.0909 0.0706 -0.725
-0.0769  0.133  0.484
 0.172 -0.569  0.184
 0.334  0.481  0.264
-0.153 -0.612 -0.145
-0.160  0.638  0.111
 0.188 -0.462 -0.265
 0.113 0.0403  0.114
-0.215 -0.120 -0.448
0.00716 -0.0361 -0.706
 0.287 -0.103 -0.559
0.0311 -0.212 -0.648
 0.234 -0.0929 -0.458
-0.362  0.454  0.344
 0.235 -0.599 -0.267
-0.0387 -0.612 -0.153
-0.0845  0.721  0.228
0.0604 0.0702 0.0681
-0.0387 -0.612  0.373
-0.214 -0.574 -0.446
-0.192 0.0697 -0.611
 0.216 -0.553 -0.389
-0.316  0.113  0.286
-0.200 -0.171 -0.168
0.0616 -0.274  0.392
 0.226 -0.0774 -0.282
-0.138 0.0705  0.114
-0.290 -0.134 -0.270
 0.259 0.00632 -0.473
-0.00826  0.164  0.483
0.0528  0.568  0.491
0.0107 -0.388  0.442
 0.100 -0.559  0.354
0.0985 -0.612 -0.138
0.0809 -0.347 -0.0541
0.00699 -0.0491 -0.792
 0.113  0.278  0.143
-0.275  0.202  0.578
0.0285 -0.606 -0.689
-0.177 -0.577  0.179
-0.182 0.0114 -0.0423
-0.0769 0.0707 0.0681
-0.321  0.411  0.257
-0.215 0.00288 -0.196
-0.290 0.0706 -0.504
-0.382  0.725  0.556
-0.329  0.334  0.286
 0.213 -0.251 -0.219
-0.0464 -0.203 -0.397
0.0259 -0.452 0.0504
 0.132  0.569  0.499
0.0467 -0.402 -0.0588
0.0701 -0.136 -0.721
-0.00835 -0.183 -0.258
 0.204 0.00631 -0.0562
-0.342 0.0953  0.495
-0.140 -0.592  0.301
-0.125 -0.314 -0.568
 0.173 -0.348 -0.463
-0.326  0.230  0.296
-0.301 0.0101 -0.156
-0.267  0.230  0.205
 0.335  0.722  0.533
 0.312 0.0812  0.287
0.0281 -0.432  0.259
-0.110 -0.139 -0.584
-0.150  0.611  0.513
-0.0159  0.640  0.533
-0.0504 -0.151  0.369
-0.195 -0.466 -0.268
-0.351  0.404  0.541
0.0877 -0.239 -0.607
 0.302  0.103  0.566
0.00511 -0.0271  0.383
-0.0810 -0.0311 -0.693
-0.0845 0.0710  0.480
-0.0704 -0.272 0.0236
-0.153  0.721  0.404
 0.241 0.0141 -0.250
-0.340  0.118  0.359
-0.391  0.608  0.367
-0.168 -0.153 -0.633
-0.0142 -0.194 -0.0252
-0.195  0.415  0.560
 0.167 -0.160 -0.0988
-0.198  0.644  0.590
-0.0759 -0.255 0.0985
 0.185  0.126  0.554
-0.254 -0.0637 -0.463
 0.129 -0.347 -0.558
-0.173  0.527  0.536
-0.382  0.546  0.488
 0.309  0.721  0.242
-0.115 -0.553  0.198
 0.116 0.0172 -0.0159
0.0523 -0.219 -0.0507
0.0200 -0.156 -0.593
-0.0873 -0.553  0.343
-0.0918  0.233  0.143
 0.106 -0.612 -0.359
 0.160 0.0703 -0.0615
-0.200 -0.278 -0.321
-0.0159  0.293  0.486
 0.159  0.591  0.132
-0.222 0.0704 -0.0691
-0.0462 0.0462  0.433
0.0299 -0.612 0.00712
-0.0921 0.0704 -0.0310
-0.0159 -0.612 -0.542
-0.0464  0.492  0.489
0.0680 0.0705 -0.000507
 0.137 0.0704 0.0300
 0.205  0.476  0.146
-0.237 0.00605 -0.542
-0.0646 -0.559 -0.665
-0.193  0.128  0.562
-0.292 -0.0823 -0.583
0.0604  0.697  0.594
-0.0692 -0.612 -0.0539
-0.283 0.0646  0.556
 0.304  0.652  0.594
 0.236 0.0702 -0.138
-0.353  0.256  0.404
0.0188 -0.235  0.290
 0.160 0.0631  0.457
-0.200 -0.204 -0.424
0.0378 -0.0802 -0.0917
-0.0495 -0.156 -0.0673
-0.287  0.515  0.186
 0.258  0.103  0.206
 0.214 0.0547 0.0427
-0.0626 -0.161 -0.686
-0.169 -0.158 -0.448
-0.0139 -0.130 -0.737
 0.306  0.271  0.256
-0.274  0.306  0.206
-0.0692 -0.612  0.320
-0.138  0.690  0.594
 0.159  0.683  0.105
 0.219 -0.0201 -0.708
-0.233 -0.606 -0.184
-0.396  0.649  0.287
 0.215 -0.0872 -0.540
0.0629 -0.0944  0.288
0.0146  0.522  0.490
-0.239  0.426  0.158
-0.0311 0.0706 -0.0157
 0.281  0.721  0.457
-0.168 -0.612 -0.389
-0.149  0.115  0.152
-0.0174 -0.361 0.0669
-0.176 0.0705 -0.00813
-0.000274 -0.358 -0.649
 0.192 -0.292 -0.435
0.0603 -0.177  0.228
0.0898 -0.148 -0.585
-0.226 -0.561 -0.343
-0.0843  0.606  0.125
-0.418  0.667  0.548
-0.189 -0.538 -0.518
-0.129  0.477  0.136
-0.0903 -0.126 -0.168
 0.275 0.00282 -0.636
 0.167 -0.554 -0.107
 0.264 -0.0383 -0.428
 0.209 -0.149 -0.590
 0.262  0.423  0.180
0.0764 -0.314 -0.102
-0.0991 -0.173 -0.0970
-0.0995 0.0450  0.381
 0.159 -0.554 -0.0386
 0.132 -0.0201 -0.681
 0.343  0.103  0.391
-0.0626 -0.0798 0.0155
-0.0464  0.225  0.485
0.0472 -0.255 -0.00110
0.0604  0.720  0.381
0.00700 0.0706 0.0910
-0.0607 0.0331 -0.774
 0.198  0.721  0.244
 0.243 0.0631  0.427
-0.267  0.721  0.373
 0.366  0.722  0.358
-0.0614 -0.498 -0.00795
 0.114  0.301  0.487
 0.195 -0.130 -0.489
-0.297 -0.132 -0.437
-0.363  0.721  0.200
-0.268 0.0277 -0.635
 0.178 -0.0748 -0.181
-0.0705 -0.388 -0.0823
-0.146  0.311  0.510
0.0770 -0.544 0.0554
-0.0845  0.667  0.595
-0.0692  0.639  0.503
0.0885 -0.152 -0.208
 0.160 -0.164 -0.620
 0.174 -0.194 -0.529
 0.343  0.721  0.410
-0.0643 -0.184  0.197
-0.148 0.0667 -0.120
-0.109 -0.155 -0.244
 0.254 -0.166 -0.420
-0.239 -0.00511 -0.250
0.0658 -0.393  0.358
-0.322  0.175  0.556
-0.0324 -0.422 -0.186
-0.312 0.0696 -0.252
-0.107 -0.533 -0.632
-0.274  0.347  0.581
 0.259 -0.0795 -0.129
-0.252  0.722  0.175
-0.241 -0.0634 -0.676
 0.322 -0.106 -0.412
 0.354 -0.0557 -0.374
 0.365  0.435  0.377
0.0763  0.721  0.522
-0.161  0.721  0.480
 0.152 -0.612  0.228
 0.254 0.0635  0.536
0.0766 -0.199 -0.404
0.0425 -0.495 -0.0666
-0.105 -0.465 -0.245
-0.0847 0.0696 -0.687
 0.358  0.346  0.472
 0.175  0.415  0.541
-0.361  0.340  0.442
 0.209 -0.185 -0.480
-0.153 -0.303 -0.521
-0.419  0.724  0.381
-0.190 0.0469  0.137
-0.352  0.229  0.463
0.0635 -0.462  0.290
-0.115 -0.612 -0.305
0.0805 -0.369 -0.176
-0.236 0.0634  0.206
-0.0659 -0.462  0.350
0.0756 -0.612 -0.435
 0.114 -0.612 -0.199
0.0680 -0.612  0.320
-0.0616 -0.612  0.198
 0.312 0.0706 -0.397
-0.107 -0.612 -0.199
 0.170  0.248  0.538
-0.0234  0.164  0.142
-0.0184 -0.271 -0.103
-0.173 -0.0995 -0.713
 0.228 -0.612 -0.214
-0.0982 -0.552 -0.130
-0.184 -0.612 0.0681
 0.326  0.164  0.307
0.0657 -0.0419 0.0681
-0.305 -0.00310 -0.589
 0.349  0.285  0.365
-0.00256 -0.270  0.206
 0.212 -0.0746 -0.703
0.0776 -0.294 0.0530
-0.0926 0.0147  0.194
-0.0845  0.725  0.114
-0.000628  0.454  0.132
-0.116 -0.233 -0.239
-0.204 -0.115 -0.0985
-0.0464  0.721  0.427
0.0528 -0.612 -0.222
-0.0304 -0.206  0.276
 0.141 0.0481  0.348
 0.206 -0.566 0.0191
 0.345  0.126  0.472
0.0707 -0.557  0.400
 0.310 0.0637  0.345
 0.333  0.388  0.562
-0.0532 -0.247 -0.138
-0.0515 -0.0554 -0.0789
 0.249  0.656  0.121
-0.145 0.0644  0.488
-0.0422 -0.385  0.429
 0.243  0.723  0.549
-0.313 -0.0375 -0.180
 0.289  0.217  0.235
0.0756 -0.219  0.133
 0.255  0.522  0.153
 0.191 -0.0500 -0.0549
 0.289  0.484  0.583
0.0375  0.675 0.0996
 0.131 -0.547 -0.213
 0.167 -0.278 -0.235
-0.160 -0.219 -0.521
-0.352  0.723  0.274
 0.341  0.171  0.358
-0.197  0.253  0.566
-0.168 0.0706 -0.672
-0.350  0.293  0.510
 0.108 0.0492 -0.103
0.0994  0.575  0.128
0.0617 -0.204  0.377
-0.138 -0.612  0.121
-0.183  0.362  0.148
-0.184  0.721  0.534
0.0833  0.721  0.251
0.0909  0.179  0.484
0.0375 -0.612 -0.0996
 0.160 -0.612 0.0300
-0.0387 -0.612 -0.214
-0.0692  0.354  0.487
-0.207  0.721  0.388
-0.00694 -0.370  0.198
 0.144 0.0702 -0.717
0.0451  0.225  0.140
 0.177 -0.152 -0.374
0.0375  0.347  0.137
-0.177 -0.347 -0.268
-0.240 -0.113 -0.621
-0.382  0.723  0.457
 0.228 -0.576 -0.316
-0.100 0.0687 -0.0906
-0.0573 -0.478  0.175
 0.233 -0.0992 -0.405
-0.0840 0.0187  0.336
 0.423  0.675  0.381
-0.0617 -0.479  0.255
 0.246 0.00870 -0.0895
 0.124 -0.561 -0.621
 0.359  0.676  0.200
-0.290 0.0632  0.419
-0.108  0.492  0.490
-0.0613 -0.0802  0.137
 0.243  0.309  0.583
 0.237  0.149  0.580
-0.111 -0.223 -0.592
-0.267  0.724  0.584
-0.256  0.380  0.179
 0.152  0.721  0.442
-0.138 -0.612 -0.527
0.0909  0.641  0.541
-0.275 0.0632  0.297
-0.0380  0.721  0.522
 0.146 -0.289 -0.534
-0.137 0.0355 -0.0167
0.0753  0.433  0.488
-0.217  0.347  0.581
-0.116 -0.429 -0.604
 0.246  0.678  0.595
 0.153 -0.223 -0.0996
0.0933 -0.363 -0.606
-0.168 0.0901  0.534
-0.169 -0.0962 -0.0608
-0.193  0.299  0.152
 0.229  0.499  0.585
-0.133 -0.0214 -0.763
-0.339  0.721  0.345
 0.227 -0.599 -0.0844
-0.242 -0.173 -0.260
-0.351 -0.0530 -0.319
 0.104 -0.552  0.203
-0.298 0.0704 -0.344
0.0509 0.0178 -0.0831
-0.0542 -0.396  0.311
0.0150 -0.445  0.101
 0.225 0.0678 -0.0245
0.0761 -0.481 -0.642
-0.208 -0.0811 -0.564
 0.351 -0.00786 -0.444
 0.150 0.0269 -0.639
-0.0860 -0.0113 -0.00882
-0.175  0.199  0.542
-0.161 0.0425 0.0452
-0.0157 -0.225 0.0168
0.0308 -0.169 -0.219
 0.167  0.641  0.556
-0.0609 -0.324  0.397
-0.352  0.576  0.570
 0.344  0.592  0.240
 0.385  0.695  0.588
-0.176 -0.0485 -0.627
-0.128 -0.152 -0.669
-0.0127 -0.560  0.441
 0.153 -0.142 -0.540
0.0233 -0.309  0.305
-0.0694 -0.358 0.00884
 0.142  0.343  0.144
-0.237 -0.154 -0.528
 0.371  0.454  0.457
 0.205 0.0631  0.320
 0.351  0.210  0.450
-0.283  0.263  0.578
 0.374  0.531  0.351
 0.134 -0.0345 -0.766
-0.161 -0.136 -0.542
-0.0624 -0.279 -0.0267
 0.152 -0.542 -0.572
-0.230 -0.565 -0.267
-0.248 -0.166 -0.455
 0.197 0.0584 -0.169
-0.0836 -0.316 -0.159
0.0375 -0.612  0.381
0.0173 -0.240 -0.0815
0.0604 -0.612 -0.618
-0.00797 0.0255 -0.782
0.0712 -0.141 0.0203
-0.0311 -0.612  0.274
0.00700 -0.612 -0.351
-0.0616  0.721  0.343
-0.000633  0.721  0.304
-0.0768  0.339  0.138
-0.161 -0.612 -0.260
0.0539 -0.0840 -0.676
-0.362  0.408  0.367
-0.0614  0.416  0.134
-0.0757 -0.210  0.122
 0.144  0.484  0.510
-0.174 -0.0412 -0.0428
 0.318 0.0180 -0.547
 0.153 -0.347 -0.510
-0.0708 -0.101 -0.124
-0.0446 -0.507 -0.665
-0.139 -0.0673 -0.136
 0.228 0.0654  0.189
 0.160  0.690  0.595
-0.358  0.657  0.204
0.0457 -0.191 -0.297
-0.115 0.00615 -0.672
-0.00675 -0.439 -0.00811
0.0217 -0.548 -0.161
-0.192 -0.127 -0.317
 0.353  0.278  0.472
0.0878 0.0266  0.237
-0.397  0.612  0.424
 0.302  0.301  0.574
0.0685 -0.294 -0.618
 0.182 0.0703 -0.664
 0.168 -0.00752 -0.129
-0.183 -0.0868 -0.214
 0.109 -0.166 -0.536
-0.0657 -0.577  0.415
-0.205 -0.152 -0.587
-0.207 -0.387 -0.356
-0.322  0.480  0.241
 0.190 -0.555 -0.153
-0.199 -0.612 -0.107
 0.337  0.263  0.322
 0.372  0.529  0.521
-0.0391 -0.263  0.418
 0.209 -0.378 -0.320
-0.266 -0.0190 -0.109
0.0240 -0.314  0.433
-0.161  0.403  0.526
-0.344 0.0431 -0.431
-0.200 -0.453 -0.449
 0.101 0.0409 0.0656
 0.193  0.347  0.561
-0.327 -0.0560 -0.224
-0.0256 -0.272  0.154
0.0979 -0.551  0.144
0.0222 -0.203 -0.359
-0.323  0.506  0.578
 0.150 -0.477 -0.554
 0.225 -0.102 -0.664
-0.0628 -0.194 -0.337
-0.0835 -0.0935 -0.0301
-0.0685 -0.522 0.0840
-0.393  0.599  0.472
 0.234  0.310  0.170
-0.0671 -0.0190  0.144
 0.119 -0.116 -0.170
 0.353  0.347  0.359
 0.182 0.00297 -0.732
-0.0179 -0.218 -0.647
 0.395  0.612  0.442
 0.245 -0.137 -0.174
 0.155 -0.496 -0.253
 0.134 -0.138 -0.691
-0.259  0.622  0.587
0.000117 0.0492  0.450
 0.167 -0.612 -0.458
-0.00679 -0.416 0.0529
0.0478 -0.194  0.272
-0.107 -0.408 -0.247
-0.204 -0.562 0.00694
 0.221 -0.0908 -0.0995
 0.281 0.0705 -0.199
-0.339 -0.0127 -0.517
-0.121 0.0265 -0.757
-0.365  0.408  0.480
 0.251  0.720  0.358
-0.153  0.642  0.571
 0.197 -0.332 -0.384
-0.0714 -0.111  0.177
-0.0387 -0.612 -0.374
-0.000626 -0.612  0.411
0.0604  0.484  0.489
 0.289  0.722  0.198
 0.167  0.721  0.282
-0.168 -0.612 -0.206
 0.383  0.546  0.464
-0.0670 -0.492  0.312
-0.257  0.483  0.163
-0.187 -0.256 -0.427
-0.0484 -0.169 0.0163
-0.0307 -0.0801  0.327
 0.228 -0.240 -0.313
-0.349  0.149  0.457
-0.351  0.712  0.592
 0.106  0.393  0.138
-0.168 -0.555 -0.0463
 0.257 0.00192 -0.522
0.0385 -0.454  0.200
-0.221 -0.507 -0.344
0.0769 -0.134  0.198
 0.228 0.0703 -0.603
0.0984  0.133  0.146
 0.268 -0.00341 -0.351
-0.206 -0.389 -0.281
0.0105 -0.404 -0.656
 0.394  0.645  0.289
 0.120 -0.378 -0.250
-0.252 0.0631  0.358
0.0597 -0.485 -0.232
-0.139 -0.399 -0.567
 0.114 -0.612 -0.0920
 0.121 -0.612  0.266
-0.0857 -0.528 -0.229
0.0223 -0.612 -0.450
-0.260  0.721  0.457
 0.137 -0.612  0.129
-0.0997 -0.612 -0.481
-0.0616 -0.130 -0.730
0.0642 -0.0570  0.114
-0.192 0.0487  0.193
-0.0916 -0.00724  0.256
 0.198  0.722  0.159
-0.00721 -0.317  0.221
 0.205 0.00545 -0.603
 0.228  0.446  0.585
-0.249 -0.0635 -0.103
0.0892 -0.0626 -0.0182
-0.0316 -0.134 -0.153
-0.283  0.725  0.137
-0.0464  0.675 0.0996
 0.128  0.484  0.135
-0.114 -0.552 0.0578
-0.181 -0.559 0.0992
0.0528  0.725  0.114
-0.283  0.721  0.510
-0.343  0.428  0.296
0.0289 -0.508 -0.670
-0.191 -0.555 -0.153
 0.340 0.0737  0.472
0.0836 0.00692 -0.688
 0.116  0.393  0.489
-0.00610 -0.127 -0.634
 0.205 0.0705 -0.0996
0.0731 -0.179  0.327
 0.264 0.0662 -0.397
-0.0820 -0.164 -0.556
 0.289  0.358  0.219
 0.195 -0.0930 -0.236
 0.266 0.0705 -0.504
 0.175 -0.612 -0.534
-0.0336 -0.471 -0.0408
-0.157 0.0171 -0.622
 0.332  0.558  0.207
-0.147  0.167  0.509
-0.0736 0.0196 0.0833
 0.261  0.247  0.200
-0.229  0.568  0.142
-0.215 -0.0408 -0.588
 0.161 -0.0595 -0.642
-0.366  0.488  0.526
-0.349 0.0185 -0.344
-0.220 -0.610 -0.0379
 0.173 -0.447 -0.496
 0.129  0.725  0.121
 0.236  0.576  0.586
-0.00642 -0.332  0.129
-0.319  0.597  0.198
 0.287  0.600  0.161
-0.194  0.311  0.561
0.0204  0.722  0.158
 0.194 -0.138 -0.639
-0.244 0.0700 -0.625
-0.176 -0.365 -0.490
-0.242 0.0635  0.533
-0.287  0.407  0.208
-0.0107 -0.461 -0.199
-0.326 0.0684 -0.473
-0.0745 -0.386 -0.629
-0.153  0.721  0.198
 0.189 -0.567  0.117
-0.0159 -0.612 -0.641
-0.0842 -0.550 -0.00809
 0.101 -0.120 -0.620
 0.295 0.0181 -0.596
 0.219  0.370  0.155
 0.119 -0.158 -0.255
-0.221 -0.477 -0.305
-0.138 -0.612  0.259
-0.198 -0.557 -0.0997
 0.333  0.111  0.532
0.0527  0.622  0.123
0.0696 -0.397 -0.214
-0.324  0.286  0.284
0.00727 -0.412  0.211
-0.142 -0.316 -0.258
0.0569 -0.376 -0.00240
-0.263 0.0684 -0.466
-0.148 -0.166 -0.357
0.00661 0.0676 -0.697
0.0528 -0.612  0.175
0.0657 -0.0190  0.175
-0.130 0.0704 0.0681
-0.138  0.423  0.139
 0.344 0.0248 -0.329
-0.0235 -0.612 0.0147
0.0299 -0.612 -0.549
-0.0463  0.248  0.140
-0.107  0.248  0.486
-0.107 -0.612 -0.351
 0.114 -0.612 -0.305
0.0985  0.721  0.480
-0.0769 0.0707 0.0148
 0.313 0.0655 -0.520
-0.159 -0.193 -0.171
-0.0896 -0.0695 -0.773
-0.0901 -0.263 -0.162
 0.151  0.248  0.148
-0.0177 -0.433  0.249
-0.0630 -0.460 -0.648
0.0665 -0.246 0.0453
-0.246  0.266  0.182
 0.164 -0.0919 -0.728
-0.0168 -0.414 -0.0648
-0.0821 -0.0722 -0.672
-0.0607 -0.177  0.242
-0.308 -0.121 -0.311
-0.0717 -0.130 -0.614
-0.162 -0.232 -0.268
-0.205 0.0685 0.0372
 0.274 0.0631  0.373
 0.226 -0.0436 -0.574
-0.335 0.0266 -0.267
-0.259 -0.0462 -0.384
0.0895 -0.201 -0.0312
-0.346  0.233  0.359
 0.166 -0.00385 -0.0340
0.0451 0.0706 -0.725
 0.292 -0.0705 -0.601
0.0909 -0.612  0.129
-0.0164 -0.207 -0.443
 0.213 -0.612 -0.168
 0.138 0.0412  0.153
 0.316  0.146  0.560
 0.319 0.00649 -0.196
-0.348 -0.0708 -0.397
 0.327  0.614  0.583
-0.267 0.0705 -0.244
 0.321 -0.0559 -0.556
 0.311 0.0700 -0.267
-0.175  0.691  0.105
-0.191 -0.612 -0.435
 0.297 0.0632  0.480
-0.290 0.0700 -0.549
-0.199 -0.225 -0.313
-0.129 -0.180 -0.417
-0.265 -0.0127 -0.497
 0.410  0.725  0.350
 0.274 -0.136 -0.234
 0.318  0.545  0.581
 0.312  0.130  0.281
-0.0649 -0.403 -0.212
 0.341  0.439  0.291
0.0774 -0.0894 -0.113
 0.217 -0.179 -0.185
 0.167  0.385  0.145
0.0226 -0.117 -0.125
0.00201 -0.180 -0.555
 0.319  0.498  0.225
-0.0292 -0.514  0.429
-0.0764 -0.0796  0.226
-0.353 -0.0534 -0.447
 0.190 -0.322 -0.276
-0.354  0.569  0.269
0.0755 -0.551 -0.153
0.0939 -0.416 -0.614
-0.00729 -0.461 -0.107
 0.174 -0.174 -0.579
-0.156 -0.568 -0.586
 0.174 -0.556 0.0756
0.0350 -0.189 0.0542
0.0602 -0.506  0.399
 0.174 0.0880  0.156
-0.298 -0.111 -0.514
0.0451 -0.612 -0.374
-0.123 -0.612 -0.0158
-0.103 -0.552  0.252
-0.135 -0.0787 -0.639
0.0375  0.187  0.484
-0.0464  0.393  0.488
-0.0540  0.642  0.556
 0.205 -0.612 -0.298
-0.00825 -0.612 -0.488
-0.176 -0.612 -0.0234
0.0146 -0.612 -0.199
0.0905  0.240  0.142
-0.283  0.721  0.266
 0.175  0.721  0.205
-0.00688 -0.416  0.167
-0.0845 -0.612 -0.161
0.0985 -0.612  0.213
-0.222 -0.562 -0.390
-0.189 0.0165 -0.161
-0.190 0.0243 -0.585
-0.000623  0.591  0.124
 0.122 -0.553 0.0833
-0.246 -0.0507 -0.319
0.0146  0.111  0.483
-0.322  0.282  0.563
0.0631 -0.334 0.0661
 0.250  0.462  0.161
-0.329 0.0767  0.537
 0.185 -0.537 -0.244
0.0299 -0.204 -0.473
-0.0389 0.0698 -0.702
-0.0591 -0.546 -0.0902
-0.000554 -0.204  0.414
 0.210 0.0268 -0.553
 0.128 -0.243 -0.559
-0.214 -0.446 -0.351
-0.158  0.532  0.136
0.0650 -0.538 -0.0530
-0.0133 -0.231  0.188
 0.253 -0.163 -0.264
 0.145  0.271  0.510
-0.0484 -0.278 -0.0683
-0.172 -0.606  0.212
 0.121 -0.612 -0.618
 0.161 -0.421 -0.261
-0.0220 -0.450  0.145
 0.196  0.591  0.557
 0.260 -0.165 -0.359
-0.220  0.132  0.170
 0.236  0.202  0.581
-0.114 0.0881  0.149
-0.207 0.0492 -0.184
 0.340  0.691  0.163
 0.202 -0.408 -0.381
-0.365  0.530  0.313
 0.296  0.450  0.212
-0.207 -0.612 -0.344
 0.104 -0.0575 -0.100
-0.0675 -0.217  0.350
-0.411  0.651  0.334
 0.216  0.194  0.165
 0.339  0.431  0.560
 0.329 -0.0830 -0.283
-0.0421 -0.00650 -0.786
 0.148 -0.416 -0.540
-0.204 0.0256 -0.706
 0.114 -0.554  0.282
-0.397  0.717  0.264
-0.180 -0.569 -0.547
 0.338 0.0254 -0.284
-0.184  0.724  0.136
 0.289 -0.0579 -0.151
 0.341 -0.0341 -0.510
-0.286  0.195  0.231
 0.186 -0.240 -0.479
-0.181 -0.439 -0.502
0.0147 0.00636 -0.703
 0.357  0.561  0.281
 0.337 0.0552 -0.435
0.0903 -0.550 0.0148
-0.168 -0.612  0.152
 0.244 -0.000921 -0.678
0.0447 -0.270  0.313
 0.218 0.0219 -0.202
-0.297  0.131  0.251
0.0223  0.721  0.266
-0.0387 -0.612 -0.0920
-0.0997 -0.612 0.0376
-0.107 -0.612  0.221
0.0833  0.111  0.483
-0.115  0.720  0.266
-0.349  0.689  0.175
 0.129 0.0423  0.244
0.0611 -0.0529  0.202
 0.198 -0.609 -0.498
 0.251 -0.155 -0.488
-0.263  0.603  0.144
-0.200 -0.522 -0.480
0.0123 -0.0776 -0.684
0.0909  0.248  0.486
0.0878 -0.308 -0.214
-0.0167 -0.181 -0.0806
-0.0693 -0.612 -0.656
0.0627 -0.382 -0.633
 0.297  0.721  0.289
 0.226 0.0627 -0.677
0.0613 -0.209  0.175
0.0428 -0.423  0.431
-0.0610 -0.490 0.0529
-0.160 -0.556  0.144
-0.00880 0.0490 -0.0791
 0.197 -0.557 -0.0768
0.0406 -0.415 -0.119
-0.0951 -0.104 -0.749
-0.152 -0.126 -0.229
0.0496 -0.151 -0.186
0.0680 0.0704  0.114
0.0678 -0.132  0.148
-0.252 0.0164 -0.285
-0.0189 -0.306  0.304
0.0102 -0.446 -0.161
0.0606 -0.0957 0.0570
-0.0664 -0.173 -0.249
 0.238 0.0345 -0.496
-0.0902 -0.195 -0.425
 0.256 0.0619 -0.444
 0.213 -0.488 -0.357
0.0447 0.0483  0.445
-0.164 -0.0463 -0.749
-0.320  0.647  0.592
-0.313  0.431  0.577
-0.0392 -0.190 -0.520
 0.373  0.597  0.550
 0.258 -0.132 -0.548
-0.225 -0.564 -0.184
 0.418  0.676  0.541
-0.000712 -0.0692 -0.0788
0.0702 -0.524  0.129
-0.166 -0.148 -0.501
 0.217 -0.447 -0.291
0.0439 -0.569 -0.678
 0.361  0.393  0.381
 0.251  0.721  0.221
-0.155 -0.261 -0.515
-0.161 0.0736  0.150
-0.200 0.0635  0.526
-0.309  0.317  0.254
 0.407  0.712  0.291
0.0667 -0.469  0.358
-0.0629 -0.181 0.0941
-0.128 -0.0205 -0.101
-0.0616 -0.312  0.348
-0.0977 0.0191  0.296
-0.121 -0.362 -0.250
 0.355  0.370  0.510
-0.204 -0.188 -0.222
-0.344  0.328  0.325
0.0208 -0.428 -0.199
0.0360 -0.364 0.0508
-0.332  0.721  0.519
-0.110 -0.0971 -0.144
 0.181 -0.139 -0.316
 0.159 0.0427  0.114
-0.199 -0.369 -0.409
-0.0630 0.0199 -0.0868
-0.189 -0.511 -0.259
-0.0202 -0.502 -0.0856
 0.145  0.316  0.510
-0.0796 -0.368 -0.191
0.0141 -0.0779  0.341
 0.245 -0.0563 -0.312
-0.115  0.156  0.485
0.0474 -0.267  0.146
 0.204 0.0519 0.0830
-0.215 -0.112 -0.348
-0.258 0.0458 -0.0843
-0.314 -0.0450 -0.582
-0.222  0.724  0.564
 0.191  0.514  0.555
-0.0457 -0.476  0.426
 0.242  0.141  0.187
0.0237 -0.304  0.129
 0.215 -0.218 -0.403
-0.345  0.103  0.397
-0.346  0.525  0.270
-0.378  0.576  0.532
 0.348  0.515  0.281
 0.278  0.179  0.223
-0.381  0.528  0.394
-0.199  0.720  0.266
-0.000582  0.331  0.136
 0.137  0.720  0.404
 0.205  0.721  0.312
-0.0714 -0.211 -0.132
-0.0921 0.0705  0.106
-0.138 -0.612 -0.0996
 0.175 0.0434 0.0528
-0.115  0.720  0.350
0.0371 -0.0127 -0.788
-0.168  0.721  0.297
-0.336 0.0240 -0.499
0.0146  0.721  0.404
-0.321  0.724  0.182
-0.0387 -0.612 -0.267
-0.0387 0.0702 0.0529
-0.0540 -0.612 0.0452
 0.183  0.721  0.522
 0.190  0.721  0.480
 0.304  0.721  0.350
-0.267 0.0631  0.457
-0.115  0.720  0.487
-0.184 0.0706 -0.0844
-0.0107 -0.523 -0.176
0.0985  0.721  0.289
-0.0616 -0.612 -0.428
0.0907 -0.551 -0.0996
-0.196 -0.294 -0.374
-0.237  0.438  0.585
-0.378  0.638  0.252
-0.151 -0.138 -0.0809
-0.374  0.461  0.442
 0.201  0.156  0.159
 0.335  0.192  0.537
-0.348 -0.0483 -0.488
-0.155 0.0635 -0.628
0.0907 0.0794  0.147
 0.221 -0.606 -0.399
 0.136  0.210  0.148
 0.274 0.0633  0.289
 0.196 -0.247 -0.178
 0.250 0.0293 -0.287
 0.385  0.591  0.358
 0.144  0.133  0.151
 0.129 -0.458 -0.583
 0.373  0.724  0.549
-0.0228 -0.384 0.0203
-0.291 -0.120 -0.232
-0.235 0.0548 -0.515
-0.410  0.705  0.578
 0.273 0.0701  0.571
-0.336 -0.0886 -0.354
0.0288 -0.121  0.362
-0.0867 -0.0522 -0.0146
 0.161  0.583  0.524
-0.110 -0.268 -0.583
0.0762 -0.0599  0.267
-0.324  0.164  0.299
 0.152  0.538  0.517
 0.223 -0.515 -0.313
 0.160 0.0953  0.526
0.0146  0.630  0.493
 0.266 0.0701 -0.588
-0.0311  0.630  0.493
-0.208 -0.128 -0.409
0.0288 0.00557  0.379
-0.137 -0.173 -0.471
 0.213 -0.604 0.0322
 0.114  0.538  0.131
-0.0710 0.0129 -0.678
 0.226 -0.552 -0.250
 0.358  0.725  0.228
 0.175 -0.612 0.0833
 0.114  0.697  0.594
 0.342 0.0501 -0.373
-0.378  0.630  0.555
-0.140 -0.196 -0.583
 0.295  0.217  0.574
0.0525 -0.245 -0.109
-0.324  0.371  0.269
0.0344 -0.179 -0.672
-0.0639  0.138  0.144
-0.270 -0.00483 -0.366
 0.428  0.717  0.432
 0.146 0.0664  0.501
-0.184 -0.0149 -0.732
-0.0401 -0.251 -0.00179
0.0285 -0.204  0.203
-0.0635 -0.477  0.387
0.0414 -0.347  0.314
-0.304 -0.117 -0.475
 0.305 1.53e-05 -0.158
-0.271 0.0679 -0.406
 0.186 -0.112 -0.551
0.0528  0.721  0.205
 0.197  0.530  0.141
 0.186 -0.340 -0.426
-0.0650 -0.423  0.373
 0.118 -0.187 -0.420
 0.167  0.722  0.108
 0.211 -0.108 -0.305
-0.237  0.667  0.117
 0.126 -0.186 -0.616
-0.0706 -0.296 -0.618
-0.122 -0.549 -0.207
-0.231  0.553  0.585
-0.154  0.562  0.517
 0.174 -0.0456 -0.154
-0.0473 -0.107 -0.652
 0.402  0.655  0.578
-0.274  0.302  0.580
0.0359 -0.484  0.431
0.0156 -0.535 -0.115
-0.140 -0.179 -0.127
0.0688 -0.191 -0.505
-0.108 0.0414 0.0525
 0.180 -0.401 -0.465
-0.0997  0.705  0.594
-0.0909 -0.0342  0.221
 0.166 -0.576 -0.558
 0.107 0.0655  0.472
0.0459 -0.573  0.433
-0.183  0.614  0.133
0.0351 -0.467 -0.0305
-0.266 0.0635  0.252
 0.234 -0.0823 -0.497
 0.334 -0.00880 -0.234
 0.221  0.614  0.137
 0.150 -0.0847 -0.0487
-0.204  0.519  0.566
-0.0837 -0.549  0.175
 0.350  0.232  0.395
 0.111  0.722  0.158
-0.172 -0.401 -0.509
 0.352  0.513  0.559
-0.208 -0.0113 -0.0608
 0.326  0.392  0.273
0.0482 -0.466  0.104
-0.320 -0.110 -0.407
 0.205  0.683  0.110
0.0279 -0.517 -0.219
 0.207 -0.127 -0.381
0.00745 -0.368  0.161
 0.266 0.0378 -0.107
 0.113 -0.596  0.359
-0.115 -0.552 -0.0600
-0.0437 -0.411 -0.100
-0.0647 -0.0417 0.0910
-0.0157 -0.576 -0.685
0.0374  0.644  0.588
-0.359  0.721  0.404
0.0209 -0.417 -0.0851
-0.160 -0.0793 -0.172
-0.0102 -0.354  0.296
-0.380  0.515  0.464
-0.407  0.691  0.292
 0.365  0.455  0.510
 0.328 -0.0977 -0.374
 0.121  0.606  0.493
-0.0801 -0.135 -0.0550
-0.117 -0.135 -0.204
 0.358  0.723  0.274
-0.244  0.207  0.184
 0.152 -0.588  0.269
-0.210 -0.198 -0.387
-0.423  0.712  0.344
-0.419  0.642  0.409
 0.139 -0.306 -0.260
-0.185 0.0574  0.286
-0.0178 -0.236 -0.127
-0.277 -0.0926 -0.162
-0.0764 -0.313 -0.0803
-0.229  0.156  0.580
0.0826 -0.332 -0.138
 0.102 -0.226 -0.0758
0.0985 0.0705 0.0376
 0.204 0.0740  0.572
 0.190 0.0631  0.419
-0.0995 0.0262 -0.0107
 0.105 -0.00478 -0.772
-0.192 -0.301 -0.412
 0.198 -0.170 -0.548
0.0753  0.431  0.135
 0.121 0.0706 0.0910
0.0223 -0.612 -0.649
0.0282 -0.399 -0.0247
-0.191  0.400  0.148
 0.144 -0.553 -0.000497
0.0375 -0.612 -0.0539
-0.000623 -0.612 -0.145
-0.207 -0.0878 -0.264
 0.160 -0.612 -0.0615
0.0604  0.721  0.335
0.0375 -0.612 -0.260
-0.0235 -0.612  0.327
 0.305 -0.0841 -0.204
-0.0159  0.721  0.221
-0.138 0.0444  0.289
 0.320  0.720  0.449
0.0223  0.286  0.485
-0.185  0.261  0.152
-0.153 -0.612 -0.428
 0.221 0.0631  0.373
-0.0387 -0.612 0.0910
0.0756 -0.612 -0.534
-0.0921 -0.612  0.121
0.0988 0.0134  0.285
-0.00846 -0.206 -0.389
0.0604  0.720  0.472
-0.163 -0.482 -0.553
 0.341  0.355  0.314
-0.273 0.0184 -0.117
-0.0768 0.0796  0.146
0.0435 -0.0607 -0.786
0.0909  0.553  0.490
-0.0324 -0.201 -0.483
 0.152  0.721  0.366
 0.243  0.697  0.114
 0.212 -0.0218 -0.194
 0.174  0.294  0.150
-0.168  0.136  0.534
-0.0892 -0.610  0.395
 0.170 0.0526  0.308
-0.199 -0.611 -0.473
-0.0311  0.725  0.571
-0.346  0.248  0.516
 0.151  0.628  0.124
-0.353 0.0100 -0.389
-0.278 -0.151 -0.394
-0.341  0.210  0.525
-0.368  0.439  0.389
-0.0537 0.0701 -0.748
 0.293 0.0804  0.254
-0.0541  0.722  0.151
-0.349  0.141  0.419
0.0369 -0.247 -0.635
 0.366  0.611  0.280
 0.344  0.141  0.382
-0.229  0.225  0.581
 0.126  0.141  0.489
-0.0877 -0.173 -0.658
0.0167 -0.206 -0.00530
 0.156  0.210  0.522
 0.418  0.645  0.487
0.0762 0.0426  0.374
-0.123  0.415  0.491
-0.240 0.0979  0.187
 0.362  0.370  0.442
 0.241 -0.177 -0.298
 0.333  0.350  0.556
 0.371  0.484  0.374
 0.346  0.179  0.487
-0.344  0.134  0.492
-0.0874 -0.213 -0.620
-0.286 -0.106 -0.554
-0.237 0.0632  0.495
-0.237 0.0706 -0.115
-0.199  0.721  0.480
-0.0311 -0.612  0.167
-0.107  0.720  0.449
-0.130 -0.612 -0.382
-0.0617 -0.00378  0.357
0.0146 -0.612  0.152
-0.298  0.720  0.350
 0.332 -0.0864 -0.450
-0.283 0.0632  0.381
0.0759 -0.0316 -0.000353
-0.100 -0.304 -0.595
 0.389  0.576  0.427
0.0146  0.642  0.556
-0.136 0.0525  0.364
-0.00825  0.721  0.472
0.00733 -0.378 0.0910
 0.281  0.385  0.581
-0.0692  0.515  0.130
0.0299  0.370  0.487
-0.0540 -0.612 -0.504
-0.000626 -0.612  0.373
0.0451 0.0705 0.0300
0.00696  0.255  0.139
-0.00825 -0.612 -0.290
 0.205 0.0703 -0.0615
 0.198 -0.612 -0.123
0.0604 -0.612 -0.130
-0.0464  0.454  0.489
-0.00826  0.255  0.485
-0.245  0.507  0.586
-0.237  0.721  0.411
-0.191 -0.612 -0.290
 0.274  0.721  0.495
 0.137 -0.612 -0.244
-0.146 -0.612 0.0681
 0.144 -0.612 -0.138
-0.199 0.0631  0.442
 0.228  0.721  0.457
 0.160 -0.612 -0.351
-0.349  0.614  0.575
-0.184 0.0704 -0.0463
 0.328 -0.0548 -0.226
-0.222  0.721  0.205
0.0831  0.507  0.131
-0.0639 -0.402 -0.174
-0.122  0.202  0.146
-0.0463  0.210  0.141
-0.000626  0.133  0.142
-0.212 -0.0853 -0.692
0.0930 -0.539 -0.221
 0.356  0.294  0.427
 0.266  0.717  0.591
 0.312  0.725  0.167
-0.351  0.216  0.403
0.00734 -0.321  0.262
-0.121 -0.561  0.314
-0.355  0.355  0.359
0.0909  0.639  0.503
-0.0486 -0.236 -0.633
 0.216 -0.276 -0.343
 0.351 -0.0564 -0.336
-0.0119 -0.171 -0.223
-0.111  0.580  0.128
-0.00314  0.680 0.0982
-0.347  0.324  0.532
-0.0309 -0.0486 -0.790
0.0449  0.126  0.143
 0.200 -0.577 -0.479
-0.203 -0.340 -0.351
 0.192 -0.158 -0.128
0.0378 -0.00177 -0.0535
-0.418  0.638  0.518
-0.0479 -0.0137 -0.708
 0.306 -0.121 -0.329
-0.135 -0.260 -0.260
-0.390  0.724  0.503
-0.390  0.579  0.400
-0.0939 0.0564  0.434
-0.202 -0.571 0.0522
-0.106  0.447  0.136
-0.0652 -0.0493 0.0373
-0.130 0.0697 -0.725
0.0159 -0.247 -0.0204
 0.208  0.552  0.569
 0.327 0.0593 -0.486
-0.309  0.316  0.572
-0.291  0.721  0.205
-0.0439 -0.338 0.0801
-0.250 -0.0746 -0.413
 0.104 -0.0562 -0.773
-0.0211 -0.149 -0.602
 0.205 0.0695 0.00707
-0.0229 -0.416  0.440
0.0132 -0.386  0.285
 0.266  0.126  0.577
-0.292 0.0522 -0.159
0.0864 -0.256 -0.144
-0.180 0.0542 -0.715
-0.0918 -0.0284  0.287
0.0522 -0.422  0.295
-0.288  0.111  0.573
-0.0224 -0.294  0.431
 0.177 -0.197 -0.112
-0.122 -0.0863 -0.0370
 0.289 0.0704 -0.366
-0.238 -0.149 -0.179
 0.303 -0.104 -0.514
-0.0322 -0.189 0.0512
-0.0616 -0.552 -0.138
 0.168 -0.159 -0.443
-0.261 0.0113 -0.450
-0.318 0.0637  0.394
0.0375  0.725  0.571
0.0756 -0.545  0.330
-0.190  0.169  0.558
 0.237 -0.0876 -0.358
0.0738 -0.288 0.000969
 0.228 0.0631  0.282
-0.257 -0.168 -0.366
-0.260 0.0266 -0.331
-0.0235 0.0704  0.121
-0.338 0.0812  0.359
-0.142  0.343  0.144
-0.0665 -0.0788  0.289
-0.207 -0.510 -0.445
 0.122  0.660  0.105
 0.152 -0.140 -0.254
-0.107  0.723  0.557
0.0729 -0.191 -0.647
-0.204 -0.175 -0.525
-0.426  0.675  0.434
 0.396  0.725  0.503
-0.165  0.190  0.151
-0.0764 -0.134  0.282
-0.0878 -0.429 -0.628
-0.243 0.0505 -0.0452
-0.0837 -0.563  0.386
-0.168 -0.327 -0.497
 0.235  0.233  0.176
 0.380  0.574  0.521
-0.328 0.0697 -0.405
 0.272 -0.101 -0.593
 0.377  0.500  0.442
-0.0917 -0.551  0.129
-0.00683 -0.416 0.0986
 0.194 0.0515  0.190
 0.149 -0.153 -0.654
 0.172 0.0410 -0.731
 0.112 -0.557  0.319
0.0849 0.0626 -0.680
-0.229  0.724  0.144
0.0353 -0.271  0.423
 0.266 -0.0463 -0.115
-0.0544 -0.468  0.221
-0.228 -0.101 -0.477
 0.273 0.0696 -0.146
0.0683 -0.497  0.299
-0.209  0.198  0.160
 0.125 -0.256 -0.151
-0.128  0.588  0.496
-0.120 -0.164 -0.284
-0.131 -0.551 -0.612
-0.245 -0.0880 -0.650
-0.344 -0.0158 -0.264
-0.329 0.0649  0.479
0.0694 -0.516  0.236
 0.336  0.519  0.200
0.0947 -0.403 -0.244
 0.381  0.529  0.273
0.0507 -0.223  0.303
-0.0111 -0.444 0.0758
-0.0952 -0.301 -0.241
 0.346  0.111  0.427
-0.306  0.717  0.591
 0.129  0.642  0.564
-0.244 0.0490 -0.263
 0.105 0.0600 -0.757
-0.351  0.369  0.532
-0.0110 -0.217 -0.0845
-0.0336 -0.203  0.201
 0.182 -0.603  0.178
 0.245 0.0333 -0.666
0.0827 -0.548 0.0910
-0.000469 -0.592  0.451
0.0632 -0.134 -0.618
 0.115 0.00971 -0.669
0.0988 -0.144 -0.700
 0.150 -0.0994 -0.178
-0.0112 -0.410 -0.0295
0.0742 0.0191 0.0757
-0.337 0.0655 -0.352
0.0743  0.168  0.144
 0.136 -0.0744 -0.755
 0.323 -0.0200 -0.555
-0.314  0.688  0.131
 0.191 -0.470 -0.457
 0.172 -0.539 -0.531
-0.0575 -0.118 0.0833
 0.224 -0.246 -0.253
-0.0759 -0.179  0.144
-0.0345 -0.202 -0.357
 0.215 -0.576 -0.419
-0.138 0.0707 -0.0234
 0.153 -0.125 -0.0766
-0.0516 -0.203 -0.448
 0.152 0.0343 -0.0223
 0.171  0.454  0.537
 0.167 0.0701 0.00710
-0.223 -0.604 -0.417
0.0865 -0.0983 -0.0204
0.0781  0.640  0.106
-0.158 -0.538 -0.237
 0.331  0.210  0.314
-0.115  0.690  0.101
 0.155 0.0621 -0.637
-0.107 0.0388  0.220
 0.160  0.724  0.584
0.0535 -0.286 -0.105
-0.245 0.0706 -0.588
-0.308 0.0692  0.285
0.0748 -0.0601  0.307
-0.213 -0.0315 -0.211
-0.269 -0.149 -0.247
 0.138 0.0687 -0.106
-0.233 -0.0130 -0.575
 0.304  0.724  0.556
 0.382  0.622  0.313
 0.240 -0.178 -0.389
-0.260 -0.0357 -0.665
-0.306  0.217  0.569
 0.227 -0.148 -0.560
-0.299  0.550  0.189
0.0738 -0.133  0.313
 0.149 -0.00498 -0.753
 0.168 0.00280 -0.658
0.0438 -0.106  0.334
0.0981 0.0387  0.198
0.0903 -0.551  0.236
-0.0832 0.0351 0.0193
-0.363  0.370  0.419
0.0554 -0.473  0.150
-0.285  0.159  0.233
 0.134 -0.464 -0.251
-0.318  0.444  0.244
 0.258 0.0203 -0.327
0.0873 -0.110 -0.747
-0.263 0.0342 -0.412
 0.414  0.633  0.404
-0.0442 -0.110  0.339
-0.0665 -0.180  0.357
