ply
format ascii 1.0
element vertex 2048
property float x
property float y
property float z
end_header
 0.134  0.200  0.110
-0.656 -0.547 -0.307
 0.641 -0.544 -0.321
-0.663  0.716 -0.0770
 0.636  0.721 -0.0698
0.0337 -0.538  0.109
-0.584 0.0351  0.110
-0.0873  0.761  0.104
 0.643 -0.123  0.101
-0.190 -0.159 -0.228
 0.294 -0.196 -0.224
-0.434 -0.417  0.109
-0.319  0.394 -0.0979
 0.500 -0.546  0.101
0.00436 -0.539 -0.336
 0.586  0.322  0.110
 0.241  0.552 -0.104
-0.0172 -0.159  0.109
-0.661  0.401  0.107
-0.606 -0.222 -0.142
-0.241  0.107 0.0945
-0.326 -0.547 -0.199
 0.313 -0.245  0.110
 0.313 -0.547 -0.178
-0.398  0.645  0.110
 0.371  0.746  0.110
-0.0890  0.437  0.110
 0.600 -0.281 -0.158
 0.378  0.152 -0.0669
-0.663 -0.539 -0.0124
-0.302 -0.165 0.0878
-0.657  0.207 -0.0864
 0.636 0.0710 -0.0868
 0.328  0.394  0.110
 0.485  0.444 -0.104
-0.661 -0.281  0.107
0.0618 -0.115 -0.134
-0.175 -0.389  0.109
-0.434  0.272  0.110
 0.119  0.617  0.109
-0.556  0.495 -0.104
-0.0890 -0.547 -0.106
-0.182  0.598 -0.0555
 0.557  0.574  0.110
 0.421 -0.0224  0.110
 0.205  0.315 -0.0864
 0.184 -0.0367  0.110
 0.263 -0.532 0.0594
 0.638 -0.359 0.0925
 0.644 -0.518 -0.0772
-0.369 -0.324 -0.158
 0.208 -0.367 -0.0970
-0.304  0.444  0.110
-0.652 -0.0224 -0.0862
-0.541 -0.446 -0.158
 0.125 -0.340 0.0945
 0.200 0.0375 -0.0857
 0.586  0.114  0.110
-0.231 -0.0368 -0.0657
-0.580  0.758  0.108
 0.112  0.407 0.0738
-0.276 -0.547 0.0235
 0.414 -0.367 -0.158
-0.0387 0.0782  0.110
 0.112 -0.547 -0.127
 0.493 -0.222 0.00194
 0.442 -0.539 -0.336
-0.383  0.594 -0.104
 0.644  0.306 -0.0772
-0.226  0.222 -0.0863
-0.484 -0.223 0.0450
0.0115  0.598 -0.0617
-0.189 -0.534 -0.334
 0.205 -0.539 -0.336
 0.407  0.215  0.110
-0.132 -0.197 -0.0483
 0.294 -0.118 -0.0268
 0.406  0.597 -0.0268
-0.642  0.215  0.110
-0.0363  0.398 -0.0655
-0.111  0.251  0.110
-0.656  0.588  0.110
-0.218 -0.388 -0.0711
 0.569  0.758  0.108
-0.491  0.487  0.110
 0.644  0.523 -0.0642
-0.470 -0.547 -0.0268
-0.484  0.255 -0.0617
-0.416 -0.0230 0.0945
-0.447 -0.532 -0.329
 0.198  0.716 -0.0554
 0.299  0.574  0.109
 0.485 -0.547 -0.149
 0.392 -0.410  0.110
-0.225  0.653  0.110
 0.119 -0.197 0.00194
 0.371  0.318 -0.0339
-0.168 -0.0655  0.110
-0.663 -0.374 -0.0704
 0.286  0.101 0.0945
 0.636 -0.137 -0.0868
-0.270  0.285 0.0945
-0.657  0.373 -0.0632
-0.662 -0.117  0.104
-0.0746  0.597 0.0808
-0.556 -0.525  0.109
-0.295 -0.197 -0.0914
-0.132 -0.547 0.0881
 0.378 -0.466 -0.0411
-0.0400 -0.311 0.0945
-0.197  0.396 0.00916
-0.312 -0.324  0.109
-0.491  0.597 0.00194
 0.457 -0.223 -0.157
 0.161  0.761  0.101
-0.448  0.394 -0.0196
-0.462  0.121  0.110
 0.457  0.466  0.110
-0.0244 -0.197 -0.221
-0.355 -0.466 -0.0698
 0.529  0.148 -0.0196
-0.656 -0.547 -0.163
-0.160 -0.208 0.0945
 0.640 -0.514  0.106
-0.470 -0.223 -0.0986
0.0259  0.294  0.109
-0.650  0.575 -0.0315
 0.270  0.265  0.110
 0.630 -0.274 -0.0196
 0.211  0.502 0.0235
 0.213  0.176 -0.0660
 0.155 -0.197 -0.199
-0.316  0.757 0.0985
 0.543 -0.417 -0.158
 0.299  0.416 -0.104
 0.500 -0.324  0.110
 0.256 -0.381  0.110
 0.507  0.314 -0.0670
-0.226  0.721 -0.0124
-0.0244 -0.115 -0.0268
 0.435 -0.159  0.110
 0.529 -0.466 -0.0268
-0.650 -0.431 0.0815
-0.520 -0.109  0.110
0.0403 -0.0367  0.110
 0.514  0.581 -0.104
-0.405 -0.547 0.0954
 0.643  0.472 0.0974
-0.541 -0.338  0.110
-0.182 -0.532 -0.199
 0.141 -0.547 0.00916
 0.557 -0.0224  0.110
 0.371 -0.222 -0.0555
-0.340  0.254 -0.0124
-0.628 -0.223 -0.00518
0.0115 -0.547 -0.0196
 0.113 0.0730 0.0945
-0.527  0.364 0.0945
 0.435  0.617  0.109
-0.232  0.538 0.0523
-0.276  0.523 -0.104
 0.215 -0.202 -0.0824
-0.232 -0.267 -0.00518
-0.0818 -0.115 -0.142
0.0905  0.408 -0.0555
0.0370  0.731 0.0955
 0.442  0.337  0.110
 0.234 -0.547 -0.0770
-0.290 -0.0224  0.110
 0.642 -0.381 -0.0859
 0.184 -0.195  0.110
-0.0603 -0.439  0.109
-0.304 -0.460  0.109
 0.615 -0.547 -0.199
-0.449  0.758 0.0988
-0.462 -0.547 -0.206
-0.527  0.645  0.110
 0.284 -0.109  0.110
 0.141  0.586 -0.0411
 0.211 -0.288 0.0235
 0.112 -0.532 -0.249
-0.235 -0.281 -0.158
 0.378 -0.532  0.110
-0.312 -0.547 -0.321
 0.593 -0.245  0.110
 0.615  0.394 0.00194
-0.369 -0.222 0.00194
-0.338  0.180 0.0945
 0.642  0.658 0.0948
 0.139 -0.462 0.0945
-0.0603 -0.547 -0.235
-0.295 -0.114 -0.178
-0.419  0.473 -0.104
 0.644  0.156 0.00916
 0.292 -0.432 -0.158
0.0187  0.531  0.109
 0.211 -0.432 0.00194
-0.319  0.597 -0.00518
 0.256  0.394 0.00916
 0.320 -0.547 -0.314
 0.429  0.101 0.0945
-0.240 -0.547 -0.0986
-0.534  0.243 0.0594
 0.263  0.703  0.109
-0.484 -0.338 -0.158
-0.570 -0.466 -0.0483
 0.521  0.215  0.110
 0.227 -0.114 -0.156
 0.586  0.597 0.00194
 0.500  0.394 0.0307
 0.342 -0.274 -0.158
-0.175  0.351  0.110
 0.385  0.495 -0.104
 0.220  0.430  0.109
 0.442 -0.547 0.00194
-0.649  0.705 0.0383
-0.204 -0.115 0.00916
 0.206  0.291 0.0235
-0.652 -0.137 -0.0862
-0.563 -0.532 -0.249
-0.359 0.0717 0.0945
-0.419  0.388 0.0945
 0.292  0.597 0.00194
 0.608  0.423 -0.104
-0.419 -0.302  0.110
0.0259  0.179  0.109
-0.226 0.0710 -0.0863
-0.663 0.0853 -0.0702
-0.268 -0.432 -0.158
0.0834 -0.238  0.110
-0.391  0.531  0.110
-0.419 -0.152  0.110
 0.521 -0.439  0.110
-0.606 -0.346 -0.158
-0.232 -0.439 0.0235
-0.556  0.394 -0.00518
-0.513  0.594 -0.104
 0.234 -0.281 -0.158
-0.221  0.346 -0.0833
 0.205 -0.547 -0.185
 0.105 -0.115 0.0737
 0.200  0.150 0.0378
-0.154 -0.547 -0.0196
-0.419 -0.425 -0.158
-0.584 -0.195  0.110
-0.0100  0.407 0.0378
 0.184 -0.115 -0.0196
 0.543 -0.547 -0.278
-0.656  0.255 0.00916
 0.307 -0.00319 0.0945
0.0187 -0.197 -0.0842
-0.505 -0.466 0.0378
 0.643  0.207  0.101
-0.197 -0.114 -0.127
 0.399 -0.547 -0.235
-0.139  0.121  0.110
-0.650  0.491 0.0564
 0.131  0.507 0.0945
-0.213  0.759 0.0991
-0.661 -0.544 0.0905
-0.561  0.144 0.0945
-0.223  0.228 0.0164
-0.0603 -0.0583  0.109
 0.473  0.725 0.0953
 0.392 -0.547 -0.106
 0.630 -0.464 0.00916
-0.376 -0.222 -0.154
-0.391 -0.466 0.0307
0.00436 -0.547 -0.156
 0.392  0.394 0.0307
-0.525  0.397 -0.102
-0.0818  0.586 -0.0196
 0.177  0.337  0.109
 0.629 -0.0368 -0.0772
 0.342  0.588 -0.104
 0.198  0.466 -0.0700
 0.564 -0.223 -0.0770
-0.0675 -0.197 0.0307
0.0356 -0.386 0.0945
-0.304  0.394 0.0235
 0.507 -0.324 -0.158
 0.641 0.0297 0.0945
 0.639  0.295 0.0307
-0.0711  0.340 0.0945
0.0618  0.598 0.0306
-0.641 -0.449 -0.156
 0.292  0.148 0.00194
-0.211  0.200  0.110
-0.470 -0.466 -0.0842
 0.191  0.597 0.0450
-0.154  0.523  0.110
 0.327 -0.547 -0.0124
 0.421 -0.267  0.110
-0.570 -0.532 -0.120
 0.385 -0.460 -0.158
0.0403 -0.118 -0.228
-0.280 -0.196 -0.226
 0.557 -0.547 0.0164
-0.398 -0.547 -0.0986
-0.254 -0.245  0.109
-0.614  0.305 0.0945
-0.137 -0.301 0.0945
 0.644  0.626 -0.0686
 0.644  0.210 -0.0688
 0.529 -0.144  0.110
-0.0890 -0.547 -0.328
-0.577  0.538  0.110
 0.270 -0.197 0.0164
-0.663 -0.267 -0.0826
 0.493  0.597 0.00916
 0.371  0.502  0.109
-0.231  0.437 -0.0979
-0.650 -0.316 0.000801
 0.306 -0.468  0.110
-0.210 -0.497 0.0945
 0.313  0.307 0.0379
 0.421  0.160 0.0235
 0.629  0.716 0.0242
 0.471  0.307 0.0235
-0.641  0.455 -0.103
-0.577  0.243 -0.0555
 0.450 -0.466 0.0594
-0.652 -0.0257 0.0966
-0.656 0.0925  0.110
-0.111 0.0207  0.110
 0.557 -0.547 -0.0770
-0.369 -0.547 -0.00518
-0.491 0.0282 0.0945
-0.111 -0.197 -0.192
-0.290 -0.115 -0.0196
-0.154  0.586 0.0379
 0.201  0.701 0.0337
 0.294 -0.187 -0.134
 0.508 0.0564 0.0945
 0.349 -0.331  0.110
 0.342  0.660  0.109
-0.570  0.444  0.110
-0.232  0.495 -0.0268
 0.627 -0.466 -0.149
0.0977 -0.197 -0.127
-0.232 -0.346 0.0378
 0.220 -0.466 -0.113
 0.363  0.294  0.110
 0.392 -0.223 0.0307
-0.125  0.408 -0.0412
 0.546  0.660 0.0945
 0.205 -0.302  0.110
-0.0675 -0.532 0.0163
-0.333  0.344  0.110
 0.292 -0.466 0.00916
 0.557  0.495 -0.104
 0.169  0.396 -0.0196
 0.543  0.452  0.110
-0.125 -0.115 0.0523
-0.139  0.667  0.110
-0.218  0.430  0.110
-0.599  0.581 -0.104
-0.0746 -0.118 -0.228
0.0930 -0.544 -0.333
 0.234  0.186  0.110
 0.630  0.516 0.0235
-0.657 -0.460 -0.0635
 0.126 -0.115 -0.221
 0.442  0.394 -0.0483
-0.319 -0.547  0.102
-0.484 -0.547 0.0594
0.0977 -0.114 -0.0196
 0.292 -0.346 -0.158
-0.448  0.243 0.0307
-0.132 -0.114 -0.0699
 0.284  0.307 -0.0555
 0.543  0.394 -0.0555
 0.163 -0.543  0.106
-0.218 -0.197 -0.156
-0.268 -0.466 -0.0483
0.0618 -0.197 -0.206
-0.570 -0.425  0.110
-0.0172  0.653  0.110
-0.355 -0.0798  0.110
-0.0727  0.171 0.0946
 0.373 -0.104 0.0945
-0.238 -0.110 0.0877
 0.630 -0.367 0.00916
 0.141 -0.115 -0.106
-0.0603 -0.197 -0.113
-0.290  0.598 0.0738
-0.312  0.674  0.110
 0.495 -0.218 0.0878
-0.541 -0.223 -0.0555
-0.0603 -0.231  0.109
-0.254 -0.532 -0.242
0.0331  0.408  0.109
 0.349  0.148 0.0666
-0.290 -0.197 0.00916
-0.383 -0.547 -0.278
 0.205 0.0997  0.110
-0.412  0.597 0.0450
-0.650  0.423 0.0101
-0.220 0.0275 0.0945
 0.284 -0.114 -0.221
-0.584 -0.547 0.00916
-0.599  0.597 0.0523
-0.403  0.245 -0.0655
-0.268  0.597 -0.0699
-0.362  0.254 0.0666
-0.477  0.581  0.110
 0.435  0.559 -0.104
 0.507  0.148 0.0594
 0.471 -0.466 -0.0842
 0.277  0.487  0.109
 0.640  0.578  0.106
-0.527 -0.547 -0.328
 0.226 -0.468 0.0924
-0.319 -0.532 -0.106
 0.198  0.645  0.109
 0.200 -0.0511 -0.0658
 0.628  0.394 0.0879
 0.572 -0.223 0.0163
-0.606  0.660  0.110
-0.0531 -0.547  0.102
-0.139 -0.460  0.109
 0.457  0.160 -0.0555
 0.209 -0.281 -0.0559
-0.231 -0.360 -0.149
 0.106  0.273 0.0945
-0.0599  0.509 0.0945
 0.254  0.343 0.0945
 0.256 -0.532 -0.271
 0.536 -0.226 -0.158
0.0187 -0.197 -0.00518
-0.398  0.394 -0.0978
 0.299  0.495 -0.104
-0.312 -0.466 0.0307
-0.254 -0.389  0.109
 0.363 0.0494  0.110
 0.205  0.638 -0.0630
-0.218 -0.213 -0.0792
-0.204 -0.197 0.0307
0.0546 -0.460  0.110
 0.105  0.696  0.109
-0.435  0.192 0.0945
-0.520 -0.226 -0.158
-0.541 -0.259  0.110
0.0403 -0.302  0.110
-0.563 -0.0439  0.110
 0.478 -0.547 -0.235
 0.486 -0.0798  0.110
 0.227 -0.115 0.0450
-0.383  0.394 0.0235
-0.369 -0.223 -0.0770
-0.570  0.597 -0.0196
 0.378  0.597 0.0450
-0.340 -0.252  0.109
 0.292 -0.466 -0.0842
-0.448  0.545 -0.104
-0.340 -0.396 -0.158
-0.0172  0.586 0.0307
-0.231  0.698 -0.0856
 0.640 -0.435  0.106
 0.363  0.394 -0.0411
 0.627 -0.353 -0.158
-0.254  0.358  0.110
0.0259 -0.532 -0.228
 0.191  0.552  0.109
-0.434 -0.281 -0.158
-0.635 -0.466 0.00916
-0.655  0.749  0.100
 0.345 -0.175 0.0945
 0.637 -0.238 -0.0908
-0.657  0.301 -0.0864
-0.653 -0.354 0.0959
-0.498 -0.532 -0.142
 0.220 -0.173 -0.228
 0.579 -0.466 -0.0914
 0.565  0.307 -0.0196
-0.459 -0.486 0.0945
-0.297 -0.231 -0.158
-0.448 -0.223  0.110
 0.586  0.159 -0.0655
 0.471 -0.223 -0.0842
 0.644 -0.225 0.0594
-0.0377  0.258 0.0945
 0.641  0.742 0.0950
-0.146 -0.197 -0.127
 0.565 -0.360  0.110
-0.233  0.143 -0.0701
-0.0172 -0.115 -0.178
 0.241 0.0351  0.110
0.0115 -0.114 0.0378
 0.227 -0.532 -0.00518
-0.0962 -0.360  0.109
 0.105 -0.532 -0.0555
 0.205 -0.222 -0.0124
 0.529  0.366 0.0945
 0.565 -0.496 0.0945
-0.398 -0.532 -0.170
 0.320 -0.532 -0.0986
-0.111  0.407 0.0307
-0.376  0.459  0.110
-0.642 -0.222 0.0666
-0.347  0.509 -0.104
 0.579  0.160 0.0522
-0.484 -0.0439  0.110
-0.333 -0.466 -0.142
0.0690  0.396 0.0164
0.0865  0.141 0.0945
-0.132 -0.547 -0.249
0.0331 -0.197 0.0738
0.0833  0.351  0.109
0.0690  0.473  0.109
 0.488 -0.464 -0.157
 0.493 -0.532 -0.0483
 0.335  0.222  0.110
-0.648  0.631 -0.0770
-0.620 -0.547 -0.0698
 0.442  0.545  0.110
-0.297 -0.331 -0.158
-0.232  0.466 0.0450
-0.556 -0.223 0.0378
 0.198  0.258  0.110
-0.218 -0.316 -0.0711
-0.657  0.523 -0.0880
-0.383  0.732  0.110
-0.534  0.294  0.110
 0.527  0.285 0.0945
 0.621 -0.0552 0.0945
 0.263 -0.115 -0.0914
-0.549 -0.302 -0.158
 0.399  0.423  0.110
-0.355 -0.381  0.109
-0.0244 -0.115 -0.0986
-0.283  0.254 -0.0555
 0.435  0.314 -0.0670
 0.184 -0.123  0.110
 0.421 -0.338  0.110
-0.154 -0.115 -0.185
 0.428 -0.288 -0.158
-0.505  0.186  0.110
 0.385 -0.222 -0.134
-0.521  0.720 0.0950
-0.161 -0.137  0.109
 0.211 -0.346 -0.0268
 0.642 -0.534 -0.00822
0.0546  0.645  0.109
 0.211  0.531 -0.0411
0.0411 -0.532 -0.0975
 0.277 -0.223 -0.0555
0.0833 -0.532 0.0594
-0.0368 0.00973 0.0945
 0.198  0.243 -0.0770
-0.383 -0.482  0.109
 0.262 -0.201 0.0923
-0.428 0.0620 0.0945
 0.234 -0.389 -0.158
-0.218  0.574  0.110
-0.606  0.394 0.0666
-0.505 -0.179 0.0945
 0.292  0.152 -0.0669
 0.174 0.0314 0.0945
 0.105 0.00631  0.110
 0.184 -0.547 -0.271
-0.172  0.278 0.0948
 0.378  0.574  0.109
-0.222  0.575 -0.00518
 0.148 -0.259  0.110
-0.297  0.459 -0.104
 0.277 -0.317  0.110
 0.392  0.318 0.0307
 0.119 -0.173  0.110
-0.00283 -0.197 -0.156
-0.462  0.667  0.110
-0.526 0.0866 0.0945
-0.218 -0.532 -0.0339
 0.442 -0.511  0.110
-0.0316 -0.532 -0.0699
-0.304 -0.547 -0.0411
 0.572 -0.532 -0.149
-0.584 -0.547 -0.185
 0.593  0.552 -0.104
-0.541 -0.532 -0.0411
-0.642 -0.532 -0.228
 0.564 -0.466 0.0307
 0.464  0.179  0.110
-0.0387 -0.197 -0.0483
-0.426 -0.223 -0.0340
0.0833  0.559  0.109
-0.268 -0.547 -0.163
-0.0746  0.689  0.110
-0.254 -0.115 -0.0914
 0.195 -0.407 0.0945
-0.477  0.394 0.0594
 0.637 -0.444 -0.0615
-0.650 -0.401 -0.0101
-0.240 -0.115 -0.221
 0.641  0.143 0.0809
 0.631  0.373 -0.0657
 0.335 -0.532 0.0523
 0.169 -0.532 -0.0842
 0.406 -0.532 -0.170
 0.593  0.251  0.110
 0.349 -0.466 0.0594
-0.00143  0.352 0.0945
-0.182 -0.532 0.0450
 0.293 -0.115 -0.151
-0.386  0.132 0.0945
-0.441 -0.466 -0.0124
 0.514  0.523  0.110
-0.366 -0.188 0.0945
 0.198 -0.197 -0.149
 0.241  0.394 -0.0555
-0.139 -0.532 -0.149
-0.426  0.597 -0.0196
-0.0603 -0.115 0.0379
0.00434 -0.245  0.110
-0.00282 -0.547 0.0450
0.0762 -0.197 -0.0483
 0.421  0.430 -0.104
 0.227  0.597 -0.0124
-0.304  0.114  0.110
-0.297 0.0414 0.0945
0.0252 0.0726 0.0947
0.0762  0.586 -0.0555
 0.572  0.318 0.0450
 0.464  0.394 0.0864
 0.536 -0.532 -0.206
0.0833 -0.532 -0.185
 0.385 -0.532 -0.0411
 0.320  0.394 0.0450
-0.527  0.254 -0.0124
-0.286  0.220 0.0945
-0.00695 -0.475 0.0945
 0.155  0.138 0.0945
-0.462  0.416 -0.104
 0.633 -0.302 -0.0971
-0.470  0.332 0.0945
 0.565 -0.0870  0.110
-0.139 -0.197 0.0235
 0.586 -0.180  0.110
-0.175 -0.547 -0.0914
 0.249 -0.0296  0.110
 0.450  0.272  0.110
 0.356  0.148 -0.00518
 0.633 -0.295 0.0878
-0.477 -0.346  0.110
 0.112 -0.0583  0.110
 0.630 -0.223 -0.157
-0.233  0.509  0.110
-0.419 -0.223 0.0523
 0.457 -0.410  0.110
-0.0172  0.588  0.110
-0.0227  0.761  0.104
-0.290 -0.115 0.0450
-0.139  0.186  0.110
-0.00335  0.472 0.0945
-0.584 -0.130  0.110
 0.643  0.293  0.101
0.0115 -0.0942  0.110
-0.193 -0.268 0.0945
 0.349 -0.403 -0.158
 0.356 -0.338 -0.158
0.0331 -0.115 -0.0555
-0.103 -0.115 -0.0124
-0.168 0.0638  0.110
-0.592  0.243 0.0307
-0.549 -0.374 -0.158
-0.584  0.243  0.110
 0.428  0.681  0.109
 0.105 -0.410  0.110
-0.154  0.739  0.110
-0.0374 -0.380 0.0945
 0.236  0.761  0.104
-0.230  0.701 0.0480
-0.642  0.523  0.110
 0.579  0.186  0.110
-0.347  0.394 -0.0411
-0.261  0.394 -0.0627
 0.198 -0.237 0.0594
-0.247 -0.547 0.0809
-0.599  0.394 -0.0770
-0.484 -0.532 -0.264
 0.298  0.754 0.0979
 0.579  0.597 -0.0627
-0.220  0.544 -0.0638
-0.340  0.588  0.110
-0.648 -0.306 -0.134
 0.399 -0.532 0.0450
 0.206  0.380 0.0738
 0.248  0.597 0.0808
 0.134  0.586 0.0235
 0.148 -0.197 0.0594
-0.498  0.423  0.110
 0.564 -0.539 -0.336
 0.600  0.516  0.110
 0.637  0.461 -0.0608
-0.232 -0.464 -0.120
 0.471  0.597 -0.0627
-0.347  0.394 0.0738
-0.211 -0.338  0.109
-0.261  0.710  0.110
 0.428 -0.466 -0.00518
 0.191 -0.547 0.0450
-0.139  0.401  0.110
-0.434 -0.547 0.0235
-0.283  0.243 0.00916
-0.661 -0.195 -0.0659
-0.434 -0.0798  0.110
-0.611 -0.503 0.0945
 0.636 -0.547 -0.142
 0.536 -0.267  0.110
-0.326  0.566 -0.104
-0.484 -0.425 -0.158
 0.471 -0.389 -0.158
 0.363  0.408 -0.104
 0.485  0.660  0.109
 0.356 -0.0367  0.110
 0.213 0.0953 -0.0704
-0.620  0.150  0.110
 0.600 -0.547 0.0738
 0.211  0.430 0.0307
-0.513 -0.460  0.109
 0.378 -0.532 -0.300
0.0187  0.407 -0.0411
 0.249 -0.259  0.110
 0.450  0.597 0.0523
-0.398 -0.466 -0.113
 0.327 -0.223 -0.0124
-0.326 -0.532 -0.264
 0.579  0.394 0.0523
-0.652  0.143 -0.0862
 0.295 -0.123 0.0523
 0.608 -0.547 -0.271
-0.650  0.568 0.0393
-0.182  0.396 -0.0555
 0.386  0.352 0.0945
 0.277  0.160 0.0594
 0.205 -0.115 -0.226
 0.639  0.137 -0.0482
 0.514  0.114  0.110
 0.593  0.703  0.110
-0.254 -0.532 -0.321
-0.520 -0.532 -0.199
 0.228 -0.543  0.106
 0.270 -0.547 -0.127
 0.566 0.0419 0.0945
-0.0890 -0.532 -0.185
0.0975  0.754 0.0979
 0.450 -0.532 -0.0986
-0.455 -0.532 -0.0914
 0.342 -0.532 -0.242
 0.209 -0.417 -0.0559
 0.630  0.597 0.0427
-0.297 -0.223 0.0738
 0.162 -0.197 -0.0555
-0.218  0.279 -0.0708
-0.225 -0.0296  0.110
-0.153  0.610 0.0922
 0.630  0.559 -0.0196
 0.437 0.0423 0.0945
 0.105 -0.511  0.110
-0.563 -0.466 0.0235
-0.197 -0.532 -0.257
0.0690 -0.547 -0.00518
-0.584 -0.466 -0.106
-0.348  0.597 0.0523
-0.541  0.597 0.0666
 0.349  0.597 -0.0124
 0.162  0.444  0.109
-0.434  0.444  0.110
 0.184  0.703  0.109
 0.500 -0.547 0.0307
 0.277  0.597 -0.0555
-0.312 -0.223 -0.0411
-0.663  0.704 -0.0196
 0.265 -0.544 -0.333
 0.507 -0.547 -0.328
 0.543  0.598 0.0594
-0.355 -0.532 0.0594
-0.484 -0.223 -0.0268
 0.306  0.394 -0.0339
-0.0890 -0.180  0.109
 0.492 0.000613 0.0945
 0.141 -0.547 -0.178
-0.592 -0.310  0.110
-0.383  0.301  0.110
 0.211 -0.374 0.0235
 0.335 -0.223 0.0450
 0.263 -0.532 -0.213
 0.320  0.597 0.0523
-0.103 -0.547 -0.0483
-0.426 -0.367 -0.158
 0.241  0.487 -0.104
-0.635  0.466  0.110
 0.363 -0.274  0.110
-0.477 -0.274  0.110
 0.421 -0.223 -0.0196
-0.0315 -0.547 -0.285
-0.520 -0.466 -0.0196
 0.622  0.318 -0.0196
-0.391  0.254 0.0163
 0.478  0.148 0.00916
 0.586  0.160 -0.00518
 0.234  0.148 -0.0196
 0.428 -0.101  0.110
 0.213  0.318 -0.0268
-0.0792 -0.496 0.0945
-0.228 -0.252 0.0523
 0.608 -0.223 -0.0339
 0.407  0.157  0.110
 0.387 -0.218 0.0878
-0.498  0.495 -0.104
-0.599 -0.223 -0.0555
 0.277  0.430  0.109
-0.656  0.255 0.0666
 0.320 -0.532  0.110
-0.652  0.436 -0.0456
0.0546 -0.159  0.110
-0.599 -0.367  0.110
 0.284  0.631  0.109
-0.261  0.394 0.0666
-0.125 -0.144 -0.228
 0.630  0.452 -0.00518
 0.234  0.423 -0.104
0.0947 -0.291 0.0945
-0.182  0.396 0.0738
-0.650 -0.273 0.0382
-0.534 -0.532 0.0378
-0.641 -0.393 -0.158
-0.232  0.437 -0.0411
 0.241 -0.466 0.0378
-0.153 -0.0130 0.0945
-0.299 -0.173 -0.178
-0.271  0.157 0.0945
-0.577  0.595  0.110
 0.630 -0.410 -0.154
-0.232 -0.432 0.0808
0.0169  0.232 0.0945
-0.0531  0.407 0.0738
 0.232 -0.0890 0.0945
-0.355  0.597 -0.0483
 0.277 -0.547 -0.0411
-0.125  0.308 0.0945
 0.450 -0.223 0.0378
-0.376 0.0207  0.110
 0.485 -0.466 0.0163
-0.0531  0.408 0.00194
-0.254 -0.197 -0.0339
-0.190  0.696  0.110
 0.442 -0.547 -0.278
 0.600  0.617  0.110
-0.111  0.566  0.110
 0.256  0.307 0.0523
 0.643 0.0847  0.101
 0.148 -0.539 -0.336
-0.111  0.487 0.0945
-0.661 0.0279  0.107
-0.657 -0.0727 -0.0637
-0.218  0.598 0.0450
 0.640 -0.191  0.106
-0.0885 -0.103 0.0922
-0.661  0.660  0.107
-0.612  0.712 0.0949
-0.226  0.255 0.0808
 0.350  0.101 0.0945
 0.529 -0.466 -0.120
 0.442 -0.216  0.110
-0.161  0.452  0.110
 0.155  0.387  0.109
 0.630 -0.317 0.0307
-0.613 -0.0655  0.110
 0.630 -0.324 -0.0411
-0.376 -0.547 -0.221
-0.182 -0.115 -0.0411
-0.513  0.598 -0.0483
0.0833 -0.115 -0.0842
 0.213 -0.547 -0.127
-0.0603 -0.197 -0.170
-0.412 -0.223 -0.113
 0.371 -0.460  0.110
 0.306 -0.0583  0.110
-0.405 -0.360  0.109
 0.327  0.466  0.109
 0.256  0.538  0.109
 0.342 -0.389  0.110
0.0187 0.0135  0.110
 0.169 -0.115 -0.185
-0.398  0.229  0.110
 0.183 -0.353 0.0945
-0.355 -0.532 -0.0555
 0.211  0.545 0.0594
-0.0316 -0.197 0.0738
-0.606 -0.532 -0.292
-0.657 -0.317 -0.0634
 0.630 -0.432 0.0523
-0.620 -0.245  0.110
-0.211 -0.547 -0.156
0.0690 -0.547 -0.285
-0.355 -0.0283 0.0945
-0.484  0.254 0.0738
 0.536  0.416 -0.104
-0.0746 -0.180 -0.228
0.00434 -0.346  0.110
 0.485  0.318 0.0738
-0.240 -0.159  0.109
-0.599 -0.547 0.0666
0.0637 -0.0821 0.0945
-0.224 -0.264 -0.0610
-0.218  0.485 -0.0782
 0.629 0.0207 -0.0704
 0.530  0.724 0.0945
-0.299 -0.144 -0.0842
 0.342 -0.466 -0.127
-0.347 -0.267 -0.158
0.0680  0.208 0.0945
-0.448 -0.466 -0.142
-0.0172 -0.130 -0.228
-0.326  0.251  0.110
 0.450  0.148 0.0666
 0.112 -0.188 -0.228
 0.323  0.322 0.0878
-0.650  0.522 0.0136
 0.177 -0.547 -0.0339
 0.486  0.610 0.0922
-0.151 -0.196 -0.226
-0.355 -0.547 -0.142
 0.565  0.401  0.110
 0.155  0.584 0.0878
-0.577  0.387  0.110
-0.103  0.594 -0.0670
-0.664 -0.511 -0.0771
-0.340 -0.137  0.110
0.0282  0.602 0.0878
 0.256 -0.222 -0.142
0.0187 -0.532 -0.285
-0.0315  0.308  0.110
-0.441  0.516  0.110
-0.304 -0.0942  0.110
-0.434 -0.532 -0.249
-0.283  0.495  0.110
 0.557 -0.223 0.0666
-0.635 -0.180  0.110
-0.0387 -0.109  0.109
-0.0962 0.0710  0.110
-0.606  0.394 -0.0196
-0.240 -0.115 -0.0339
0.0977  0.586 0.0666
 0.148 -0.197 -0.113
 0.572 -0.425  0.110
-0.650 -0.267 -0.0201
 0.442 -0.439 -0.158
-0.628  0.255 -0.0617
-0.103  0.597 0.0307
 0.435  0.307 0.0666
-0.661 -0.475  0.107
 0.286  0.215 0.0945
-0.218 -0.475 -0.0712
 0.464  0.516 -0.104
 0.378 -0.466 0.0163
 0.414 -0.223 -0.0842
 0.536  0.597 -0.0196
-0.00998  0.121  0.110
 0.536 -0.223 -0.0268
-0.0674  0.121  0.110
 0.419  0.761  0.101
-0.261  0.394 -0.00518
-0.232 -0.389 0.00916
 0.284  0.581 -0.104
 0.521 -0.223 -0.106
 0.630 -0.417 -0.0124
 0.148  0.406 -0.0655
-0.233 -0.197 -0.206
 0.284  0.318 -0.00518
 0.241 -0.453 -0.158
-0.283 -0.511  0.109
-0.0244  0.586 -0.0267
-0.111 -0.259  0.109
 0.200  0.365 -0.0655
 0.227 -0.197 0.0450
 0.500 -0.483 0.0945
-0.261 -0.223 -0.120
0.0753 -0.354 0.0945
-0.553  0.197 0.0945
-0.362  0.430 -0.104
-0.491 -0.540  0.109
-0.333  0.243 -0.0617
 0.638  0.574 -0.0907
-0.224  0.320 0.0945
 0.529  0.307 0.0164
-0.210  0.152 0.0945
-0.484  0.394 -0.0555
-0.254 -0.468  0.109
-0.520 -0.466 -0.0770
-0.563  0.545 -0.104
0.0690 0.0422  0.110
-0.0244  0.710  0.110
 0.211  0.437 -0.0196
-0.362 -0.466 -0.0196
-0.146  0.597 -0.0196
-0.0244  0.172  0.110
 0.212 -0.110 -0.0888
-0.233 -0.114 -0.163
 0.349 -0.547 -0.142
 0.414 -0.466 -0.0770
 0.507  0.394 -0.0196
 0.435  0.307 -0.0124
-0.0818 -0.115 -0.0770
-0.225 -0.532 0.0163
-0.290 -0.381 -0.158
 0.234 -0.115 -0.0124
 0.608  0.487 -0.104
0.0402 -0.115 -0.00528
-0.111 -0.197 0.0666
-0.232 -0.432 -0.0482
 0.210 -0.475 -0.0642
-0.0818  0.387  0.110
-0.592  0.444 -0.104
-0.527 -0.547 -0.0986
 0.600 -0.532 -0.0986
 0.220 -0.547 -0.235
-0.111 -0.532 0.0450
-0.0172 -0.532 -0.199
-0.222  0.231 -0.0339
-0.383  0.351  0.110
-0.0890 -0.547 -0.278
 0.385  0.545 -0.104
 0.277 -0.547 0.00916
-0.620 -0.547 -0.120
-0.661  0.320  0.104
-0.434  0.594 -0.104
 0.457 -0.460  0.110
-0.297 -0.281 -0.158
 0.507 -0.274 -0.158
-0.240  0.566 -0.104
-0.470  0.380  0.110
 0.294 -0.152 -0.185
 0.207  0.382 0.0164
-0.434  0.243 -0.0268
-0.0674  0.222  0.110
 0.129  0.333 0.0945
 0.315  0.175 0.0922
-0.650 -0.385 0.0570
 0.112  0.396 -0.0124
 0.148  0.407 0.0235
-0.359 -0.544 -0.333
 0.311 0.0461 0.0945
-0.118 -0.0439  0.109
 0.579 -0.460 -0.158
 0.579  0.318 -0.0655
-0.509  0.139 0.0945
-0.650 -0.334 0.0514
 0.195  0.505 0.0945
 0.336  0.715 0.0945
 0.517 -0.0452 0.0945
-0.299 -0.137 -0.221
 0.326 -0.130 0.0945
 0.177 -0.496  0.110
 0.162 -0.159 -0.228
-0.649  0.586 -0.0955
 0.321  0.266 0.0945
0.0618 -0.115 -0.185
0.0152 -0.431 0.0945
 0.406  0.598 -0.0979
-0.383  0.545 -0.104
 0.211 -0.425 0.0523
 0.208  0.295 0.0808
 0.227  0.598 -0.0979
0.0546 -0.547 -0.142
 0.536  0.156 -0.0670
-0.146 -0.547 -0.314
 0.544 -0.532 0.0605
 0.153 -0.0890 0.0945
-0.290  0.329 0.0945
 0.572 -0.532 -0.242
 0.500 -0.389  0.110
 0.399 -0.466 0.0594
 0.112 -0.197 -0.178
-0.276  0.416 -0.104
-0.154 -0.346  0.109
 0.313 -0.466 -0.0339
-0.326 -0.547 0.0164
 0.550 -0.346 -0.158
-0.534  0.509  0.110
-0.541 0.0135  0.110
0.0546 -0.197 0.0307
0.0187  0.689  0.109
-0.606 0.0782  0.110
-0.161  0.229  0.110
 0.119 -0.115 -0.149
 0.586 -0.317  0.110
-0.441  0.624  0.110
 0.184 -0.197 0.0235
-0.347 -0.439  0.109
-0.642 -0.547 0.0450
0.0474  0.396 0.0594
 0.630  0.437 0.0666
 0.294 -0.144 -0.113
-0.226 0.00631 -0.0863
-0.613  0.254 -0.0124
 0.327 -0.222 -0.134
-0.520  0.444 -0.104
 0.200  0.416 -0.0654
-0.470  0.222  0.110
 0.211 -0.252 -0.127
-0.441 -0.547 -0.156
-0.426 -0.532 -0.0411
 0.493 -0.532 -0.278
-0.290 -0.532 0.0666
 0.507 -0.547 -0.0914
0.0403 -0.532 0.0307
 0.641  0.674 -0.0635
0.0906  0.586 -0.00518
 0.248  0.394 0.0910
0.0187  0.597 0.00194
 0.500  0.318 -0.0196
-0.276 -0.115 -0.134
 0.486 -0.159 0.0945
-0.426 -0.466 0.0666
-0.381 -0.464 -0.157
 0.337  0.307 -0.0654
-0.154 -0.511  0.109
-0.613  0.531 -0.104
-0.252 -0.201 0.0923
-0.641 -0.249 -0.158
 0.184  0.172  0.110
-0.185  0.105 0.0945
-0.232 -0.353 -0.0987
-0.581  0.343 0.0945
-0.204 -0.202  0.109
 0.295 -0.193 0.0594
 0.551 -0.538  0.109
 0.464  0.128  0.110
-0.635 -0.466 -0.113
-0.0172  0.430  0.110
-0.137 -0.412 0.0945
-0.261 -0.223 0.0378
-0.0910 -0.407 0.0945
-0.283 -0.532 -0.285
-0.0796  0.281 0.0945
 0.208 -0.302 -0.0970
 0.450  0.394 -0.0978
-0.650  0.433 0.0755
 0.600  0.459  0.110
 0.242  0.229 0.0945
-0.175 -0.197 -0.0698
 0.550 -0.532 -0.0268
 0.159  0.240 0.0945
 0.644 -0.225 -0.00518
 0.356 -0.532 -0.185
 0.450 -0.532 0.0450
-0.477 -0.532 0.0163
-0.347 -0.511  0.109
 0.342  0.307 0.00194
-0.326  0.254 0.0378
-0.261  0.624  0.110
 0.122  0.461 0.0945
-0.304 -0.466 -0.0770
-0.00283 -0.197 0.0378
 0.126 -0.114 -0.0555
-0.118  0.358  0.110
 0.170  0.586 -0.00518
-0.154 -0.115 0.0163
 0.263  0.150  0.110
-0.455 -0.223 0.00916
-0.391 -0.267  0.110
 0.421  0.394 0.0666
-0.520 -0.223 0.0738
 0.335  0.531  0.109
-0.556  0.681  0.110
 0.543  0.545 -0.104
-0.0536  0.559 0.0945
 0.421  0.160 -0.0268
-0.491  0.254 0.0163
-0.462  0.597 0.0378
-0.549 -0.166  0.110
-0.283  0.597 0.0235
-0.606 -0.453  0.110
 0.148 -0.532 -0.221
 0.385 0.00631  0.110
-0.513 -0.374  0.110
-0.111  0.717  0.110
-0.261 -0.466 0.0450
-0.231 -0.317 0.00203
-0.0435 -0.544 -0.333
-0.299 -0.159 0.0378
 0.643  0.415 -0.0763
 0.148  0.294  0.109
-0.620  0.597 -0.00518
 0.126 -0.547 0.0594
-0.111 -0.547 0.00194
-0.232 -0.288 -0.113
-0.484 0.0782  0.110
-0.577 -0.532 -0.0699
 0.514 -0.374 -0.158
 0.457  0.394 0.0163
 0.464  0.229  0.110
-0.190 -0.115 0.0523
 0.428  0.502  0.110
-0.299 -0.159 -0.127
 0.363  0.597 -0.0555
 0.464 -0.547 -0.192
 0.536  0.172  0.110
-0.154 -0.197 -0.178
-0.197 -0.115 -0.199
 0.471 0.0782  0.110
 0.608 0.0566  0.110
 0.162  0.408 0.0666
-0.584 -0.432 -0.158
 0.486  0.351  0.110
-0.254 -0.324  0.109
-0.620 -0.466 -0.0339
 0.299 -0.532 -0.257
-0.577 -0.466 0.0666
-0.355  0.631  0.110
-0.448 -0.238 -0.158
-0.154  0.396 -0.00518
 0.392 -0.144  0.110
 0.141 -0.0224  0.110
-0.477 -0.0942  0.110
 0.241  0.318 0.00916
0.0618 -0.197 -0.0986
 0.622 -0.547 0.0307
 0.112 -0.197 -0.0842
-0.0674  0.631  0.110
0.0833 -0.115 0.0235
-0.0172 -0.0439  0.109
-0.226 -0.0798 -0.0863
-0.462 -0.137  0.110
-0.0746 -0.0152  0.109
-0.570 -0.223 -0.00518
 0.464 -0.338 -0.158
-0.570  0.394 0.0378
-0.652  0.674 -0.0632
0.0762 -0.199 0.0878
 0.294 -0.159 0.0164
 0.579  0.394 -0.0842
-0.223  0.382 -0.0411
 0.608 -0.0152  0.110
 0.428 -0.547 0.0881
 0.211  0.466 0.0808
 0.295 -0.193 -0.0268
 0.643  0.523 0.0974
 0.270  0.394 0.0523
 0.294 -0.187 -0.0770
-0.111  0.396 0.0738
-0.0890  0.402 -0.0669
-0.661  0.411 -0.0857
 0.629  0.705 -0.0190
 0.212  0.716 0.0738
0.0546  0.251  0.109
 0.637 -0.532 -0.235
 0.208  0.523 -0.0961
 0.428 -0.547 -0.134
0.0768 -0.546  0.101
-0.456 -0.00413 0.0945
-0.562 -0.532 -0.299
 0.327  0.148 -0.0411
 0.615 -0.547 -0.0411
 0.241 -0.197 -0.0196
 0.529 0.0207  0.110
 0.579 -0.222 -0.149
-0.222  0.396 -0.0853
-0.276 -0.466 -0.120
-0.484  0.279  0.110
 0.210  0.684 -0.0831
-0.620 -0.532 -0.0196
 0.643 -0.238  0.101
-0.221  0.388 0.0450
 0.374  0.239 0.0945
 0.152 -0.414 0.0945
 0.132  0.727 0.0951
-0.265  0.752 0.0973
-0.661 -0.396  0.107
-0.103 -0.197 -0.134
-0.470 -0.389  0.109
0.0618 -0.547 -0.0483
-0.312  0.401  0.110
 0.320 -0.288  0.110
-0.182 -0.432  0.109
 0.500  0.444  0.110
 0.320  0.597 -0.0627
 0.572 -0.466 -0.0339
-0.319 -0.466 -0.0124
 0.485 -0.466 -0.0339
-0.261 -0.547 -0.0483
 0.363  0.164  0.110
-0.563 -0.222 -0.149
-0.204 -0.130  0.109
 0.284 -0.466 0.0523
 0.191 -0.238  0.110
-0.376 -0.223 0.0594
 0.406 -0.466 -0.120
 0.536 -0.466 -0.0770
 0.177 -0.115 0.0235
 0.241  0.148 0.0235
-0.0172 -0.547 -0.242
0.0762  0.416  0.109
 0.284  0.380  0.110
-0.132 -0.547 -0.0986
-0.563  0.597 0.0235
-0.0890 -0.197 -0.0411
 0.203  0.137 -0.0482
-0.664 0.0422 -0.0770
 0.204  0.134 0.0833
 0.630 -0.274 0.0379
-0.599 -0.223 0.0738
 0.126 -0.216  0.110
-0.326  0.487  0.110
-0.383  0.597 -0.0124
 0.241 -0.197 -0.199
 0.629 -0.0798 -0.0705
-0.312  0.597 -0.0770
-0.662 -0.415 -0.0857
-0.656  0.703  0.110
-0.190  0.624  0.110
 0.529 -0.466 0.0666
 0.286 -0.503 0.0945
 0.371  0.307 0.0666
-0.231 -0.360 -0.0411
-0.0603  0.597 0.0163
-0.661  0.164  0.107
-0.232 -0.464 -0.0196
-0.225 -0.222 0.00194
-0.649 -0.224 -0.0957
 0.134  0.667 0.0945
 0.211 -0.425 -0.120
-0.654  0.228 -0.0411
 0.263 -0.166 -0.228
 0.356 -0.547 -0.0698
-0.00287 -0.295  0.110
-0.0231 -0.532 -0.126
 0.371  0.459  0.110
-0.227 -0.432 -0.0922
-0.347  0.531  0.110
-0.398  0.602  0.110
-0.491 -0.466 -0.142
-0.498  0.597 0.0666
-0.326  0.294  0.110
-0.491  0.531  0.110
-0.405  0.254 0.0666
 0.211 -0.374 0.0666
 0.234 -0.346 -0.158
-0.0531 -0.547 0.0594
 0.169 -0.547 -0.127
-0.376  0.473 -0.104
-0.225 -0.0727  0.110
 0.406  0.148 0.0666
-0.596  0.197 0.0945
-0.268  0.597 -0.0268
0.0187 -0.197 -0.206
 0.630 -0.367 -0.0339
0.0403  0.351  0.109
-0.391  0.416  0.110
 0.177  0.598 -0.0617
 0.636 -0.180 -0.0868
 0.385  0.681  0.109
-0.620  0.387  0.110
-0.462 -0.179 0.0945
-0.611 -0.544 -0.333
-0.538  0.760 0.0990
 0.393  0.610 0.0922
 0.119 -0.547 -0.300
-0.663 -0.237 -0.0483
 0.213 -5.20e-05 -0.0700
-0.0315 -0.511  0.109
-0.247  0.229  0.110
-0.232 -0.410 -0.157
 0.356 -0.539 -0.336
-0.197 -0.197 -0.113
-0.226  0.186 -0.0634
 0.608 -0.101  0.110
 0.550 0.0782  0.110
0.0115 -0.195  0.110
 0.202  0.209 0.0945
-0.190  0.597 0.00916
0.0635  0.317 0.0945
 0.573  0.359 0.0945
-0.232 -0.288 0.0738
 0.600  0.307 0.0738
0.0801 -0.0357 0.0945
-0.599 -0.389 -0.158
-0.290  0.243 0.0594
-0.347  0.136  0.110
-0.376  0.186  0.110
0.0906 -0.130  0.110
-0.650 -0.443 0.0411
 0.593 -0.466 0.0864
 0.141  0.545  0.109
 0.207  0.567 0.0211
 0.630  0.552 0.0450
 0.564 -0.302 -0.158
 0.356 -0.532 0.0163
-0.520  0.531 -0.104
 0.557  0.394 0.0163
-0.419 -0.547 -0.300
 0.211 -0.338 0.0450
-0.520 -0.0655  0.110
-0.419  0.329  0.110
-0.232 -0.367 0.0738
 0.211  0.495 -0.0196
-0.534  0.394 -0.0411
 0.248  0.653  0.109
 0.256 -0.115 -0.0483
 0.162 0.0997  0.110
-0.611  0.613 0.0922
 0.493 -0.223 -0.0483
-0.0890 -0.547 0.0809
-0.0531 -0.532 -0.163
-0.513 -0.281 -0.158
-0.391 -0.403  0.109
 0.277  0.531 -0.104
 0.421  0.373  0.110
 0.256 -0.466 -0.0124
 0.457  0.597 -0.0124
 0.521 -0.223 0.0450
 0.371  0.394 0.0666
 0.630  0.473 0.0307
-0.455  0.394 0.0235
 0.335  0.595  0.109
-0.534  0.466  0.110
-0.505 -0.238  0.110
-0.477  0.459 -0.104
 0.126 -0.115 0.0378
 0.399 -0.0583  0.110
-0.419 -0.460  0.109
 0.299 -0.353  0.110
-0.491  0.624  0.110
-0.419  0.681  0.110
 0.349 -0.496  0.110
0.0618  0.523  0.109
0.0618 -0.000812  0.110
-0.118 -0.115 -0.163
 0.507  0.394 -0.0770
-0.405  0.597 -0.0555
-0.125 -0.116  0.109
-0.455  0.495 -0.104
-0.520 -0.302  0.110
 0.630 -0.417 -0.113
-0.328  0.717 0.0945
-0.414 -0.114 0.0945
-0.570  0.107  0.110
 0.472 -0.0358 0.0945
-0.246 0.0658 0.0945
 0.600 -0.525  0.110
-0.334 0.0226 0.0945
-0.0127  0.392 0.0931
-0.441 -0.532 0.0809
 0.342 0.0135  0.110
 0.540 -0.181 0.0945
-0.527 -0.547 -0.00518
-0.606 -0.547 -0.242
-0.125 -0.547 -0.199
 0.630  0.597 -0.0363
-0.283 -0.547 -0.0914
-0.534 -0.547 -0.156
-0.0744 -0.288 0.0945
0.0690 -0.547 -0.221
 0.256 0.0782  0.110
 0.579  0.597 0.0808
-0.484  0.710  0.110
-0.661  0.258  0.107
-0.549  0.598 -0.0842
 0.521  0.322  0.110
-0.613  0.243 0.0809
 0.164 -0.294 0.0945
-0.278 -0.0670 0.0945
-0.522  0.225 0.0945
0.0687 -0.425 0.0945
 0.256 -0.446  0.110
-0.661  0.260 -0.0857
 0.529 -0.223  0.110
 0.401 -0.503 0.0945
-0.536 -0.492 0.0945
 0.644  0.314 0.0666
-0.132 -0.166  0.109
 0.471 -0.295  0.110
-0.283 -0.274  0.109
-0.513 -0.396 -0.158
 0.406  0.645  0.109
-0.613 0.00631  0.110
 0.464  0.581  0.110
-0.0962  0.408 -0.0124
-0.283  0.581 -0.104
-0.0603  0.466  0.110
-0.247  0.598 0.0737
 0.270  0.459 -0.104
-0.369  0.674  0.110
 0.320  0.148 0.0378
 0.263 -0.317 -0.158
 0.263 -0.115 0.0163
0.0331 -0.547 -0.185
-0.171  0.164 0.0945
-0.426 -0.466 -0.0842
 0.557  0.243 0.0945
 0.256 -0.115 0.0737
-0.326 -0.223 -0.0986
-0.369 -0.367 -0.158
 0.313  0.552 -0.104
-0.577  0.301  0.110
 0.313 -0.195  0.110
-0.178  0.578 0.0945
-0.534 -0.223 -0.120
 0.105 -0.197 0.0594
-0.648 -0.416 -0.125
-0.377 -0.140 0.0945
 0.642 -0.534 0.0637
 0.486  0.301  0.110
-0.430  0.139 0.0945
-0.154 -0.245  0.109
 0.536  0.307 0.0594
-0.434  0.597 0.0808
-0.103  0.150  0.110
 0.234  0.286  0.110
 0.546  0.132 0.0945
-0.232 -0.245 -0.0987
 0.464  0.597 -0.102
 0.593 -0.396 -0.158
 0.593 -0.331 -0.158
 0.128 -0.380 0.0945
0.0906  0.179  0.110
 0.630 -0.252 -0.127
-0.211 -0.460  0.109
 0.579 -0.547 -0.300
-0.415 0.0244 0.0945
 0.105  0.236  0.109
-0.656 -0.547 -0.0914
0.0910 -0.461 0.0945
-0.650 -0.315 0.0900
 0.227 -0.504  0.110
 0.507  0.696  0.109
-0.541 -0.547 0.0738
-0.276 -0.532 -0.127
 0.320  0.121  0.110
-0.426 -0.532 -0.199
-0.391 -0.547 0.0523
-0.312 0.0788 0.0945
 0.213  0.344 0.0945
-0.484 -0.547 -0.328
-0.250  0.191 0.0945
-0.654  0.228 0.0378
 0.401  0.726 0.0950
 0.299 -0.547 0.0809
 0.384  0.121 0.0945
0.0922  0.503 0.0945
-0.261 -0.310 -0.158
 0.213 -0.374  0.110
 0.642  0.697 0.0946
 0.241 -0.130 -0.228
 0.198 -0.197 -0.206
-0.268 -0.197 -0.149
-0.339 -0.474 0.0945
0.0259  0.586 0.0523
-0.267 -0.532 -0.205
-0.218 -0.544  0.107
-0.269 0.00602 0.0945
-0.247 -0.547 -0.285
-0.592  0.598 -0.0698
-0.240 -0.460 -0.158
 0.313 -0.547 -0.221
 0.378 -0.547 0.0738
-0.225 -0.547 -0.221
-0.620  0.487 -0.104
-0.620 -0.532 -0.156
-0.419 -0.532 -0.127
 0.214  0.610 0.0922
-0.261 -0.532 -0.0124
 0.270 -0.532 -0.0914
 0.191 -0.532 0.0809
-0.290 -0.547 -0.242
-0.661  0.363  0.104
 0.214 -0.532 -0.0474
0.0474 -0.547 0.0738
 0.213 -0.532 -0.292
0.0316 -0.268 0.0945
-0.182 -0.532 -0.134
 0.529 -0.453 -0.158
-0.505 -0.532 -0.0555
 0.615  0.365  0.110
-0.620  0.574  0.110
-0.527 -0.410  0.110
-0.527 -0.532 -0.264
 0.464 -0.116  0.110
-0.606 -0.466 -0.154
-0.232  0.452 -0.00518
 0.248 -0.532 -0.178
0.0535  0.121 0.0949
0.00435  0.407 -0.00518
 0.320  0.394 -0.0699
-0.383 -0.223 -0.0411
-0.333  0.394 -0.00518
 0.471 -0.259 -0.158
 0.342 -0.0727  0.110
 0.407  0.322  0.110
-0.168  0.396 0.0379
-0.556 -0.223  0.110
 0.378 -0.374  0.110
 0.363  0.380  0.110
0.0403 -0.231  0.110
 0.263 -0.197 -0.113
0.00434 -0.532 -0.0555
 0.428 -0.547 -0.0339
-0.00998  0.207  0.110
 0.363 -0.466 -0.0770
-0.146 -0.547 -0.0627
-0.455 -0.223 -0.0627
-0.0459  0.373  0.110
-0.290 -0.209  0.109
-0.620 -0.466 -0.0770
0.0913 -0.532 -0.0982
-0.276 -0.144  0.110
-0.297  0.394 -0.0483
-0.0459 -0.475  0.109
-0.577 -0.532 -0.0268
-0.197 -0.197 -0.192
-0.0531 -0.197 -0.00518
-0.347 -0.466 0.0163
-0.0315  0.586 0.0666
 0.450 -0.466 -0.0483
 0.313 -0.223 -0.0698
0.0690 -0.496  0.110
 0.608  0.667  0.110
-0.563  0.254 0.00194
 0.514 -0.547 -0.249
 0.414  0.466  0.110
 0.572  0.437 -0.104
-0.232  0.502 0.0307
-0.312  0.495 -0.104
 0.277  0.597 0.0378
-0.154 -0.197 -0.0124
 0.170 -0.159  0.110
 0.572  0.286  0.110
 0.378 -0.223 -0.00518
-0.146 -0.547 0.0523
 0.220  0.689  0.109
 0.514  0.394 0.0666
-0.232 -0.403 0.0450
 0.241  0.502  0.109
-0.484  0.559 -0.104
-0.470 -0.374 -0.158
 0.277 -0.381 -0.158
-0.268  0.430  0.110
 0.414 -0.324 -0.158
-0.125  0.631  0.110
-0.577 -0.222 -0.113
-0.412 -0.223 -0.0698
-0.362 -0.547 -0.185
 0.608  0.318 0.0163
 0.141 0.0422  0.110
 0.630 -0.403 -0.0482
 0.227  0.160 0.0666
 0.630  0.423 -0.0411
 0.640  0.174 -0.0834
 0.112  0.396 0.0307
-0.215 -0.528 -0.0720
-0.168 -0.532 0.0809
 0.177 -0.197 -0.0196
-0.254 -0.223 -0.0627
-0.0172 -0.417  0.109
-0.635  0.394 0.0307
 0.356 -0.216  0.110
 0.471 -0.532 0.0809
 0.191 -0.114 -0.120
-0.233 -0.166 -0.228
 0.392  0.318 -0.0655
-0.0632 -0.341 0.0945
-0.247  0.254 0.0307
 0.630 -0.295 -0.134
0.0906  0.107  0.110
-0.232  0.545 -0.0268
-0.226  0.721 -0.0555
-0.102  0.195 0.0945
-0.505  0.337  0.110
-0.218  0.392 0.0863
 0.164  0.637 0.0945
-0.661 -0.0798  0.107
-0.355  0.401  0.110
 0.629  0.243 -0.0771
 0.203  0.575 0.0809
 0.421 -0.475  0.110
0.0690  0.407 -0.0196
 0.615 -0.466 0.0523
 0.622  0.157  0.110
0.0546  0.597 -0.0268
-0.218  0.286  0.110
 0.185 0.0675 0.0945
 0.214  0.392 -0.0196
 0.198 -0.231 -0.0483
-0.570  0.254 0.0594
-0.0316  0.598 -0.0617
 0.210  0.130 -0.0845
-0.0384 -0.273 0.0945
 0.215 -0.466 -0.0124
 0.275 0.0296 0.0945
 0.227 -0.417  0.110
 0.533 -0.0988 0.0945
 0.207  0.134 0.00194
-0.520  0.394 0.0738
-0.317 -0.0429 0.0945
 0.421  0.159 -0.0655
 0.608 -0.534 -0.334
 0.211  0.423 0.0738
 0.201  0.294 -0.0558
 0.643 -0.0229  0.101
 0.593 -0.223 0.0808
 0.457 -0.223 -0.120
-0.00266 -0.0132 0.0945
-0.0499  0.660 0.0945
0.0690 -0.389  0.110
-0.0172  0.396 -0.0339
-0.218  0.598 -0.0339
0.00612 -0.118 0.0742
 0.212 -0.422 -0.157
 0.414 -0.547 -0.314
 0.241  0.152 -0.0669
 0.294 -0.152 -0.0411
 0.553  0.623 0.0945
-0.656 -0.532 -0.0479
 0.432  0.189 0.0945
-0.182  0.401  0.110
 0.471 -0.547 -0.314
 0.177 -0.547 -0.314
0.0259 -0.152 -0.228
 0.622 -0.403  0.110
-0.161 -0.197 0.0594
 0.292 -0.223 0.0378
0.0546  0.588  0.109
-0.520  0.249 -0.0669
-0.225 -0.295  0.109
 0.373  0.643 0.0945
-0.324  0.643 0.0945
 0.543 -0.267 -0.158
-0.599  0.473  0.110
-0.232 -0.324 -0.0340
 0.428  0.509 -0.104
-0.226 0.0350 -0.0635
-0.161 -0.547 0.0164
 0.356  0.394 -0.00518
-0.0531 -0.547 -0.199
 0.234 -0.115 -0.192
 0.630  0.459 -0.102
-0.139 -0.115 -0.106
 0.363 -0.223 -0.0914
 0.529 -0.223 -0.0627
 0.529  0.597 -0.0555
-0.132 0.0853  0.110
-0.577 -0.466 -0.0124
 0.299 -0.466 -0.120
-0.470  0.157  0.110
0.0259 -0.115 -0.192
-0.0962 -0.547 -0.142
-0.0531 -0.547 -0.0986
0.0115 -0.197 -0.120
-0.0818 -0.197 -0.0770
-0.376  0.598 0.0235
-0.650  0.523 0.0735
-0.613 -0.223 -0.106
0.0331  0.396 0.0235
 0.457  0.480 -0.104
 0.457 -0.259  0.110
-0.527  0.258  0.110
-0.297  0.617  0.110
-0.584 -0.295 -0.158
-0.412 -0.216  0.110
 0.600 -0.281  0.110
-0.297 -0.532 -0.00518
-0.556 -0.101  0.110
 0.211 -0.281 -0.0124
-0.376  0.394 -0.0124
-0.592 -0.547  0.102
 0.220 -0.130  0.110
-0.190 -0.532 -0.292
-0.391  0.265  0.110
-0.168 -0.173  0.109
-0.218 -0.374  0.109
-0.290  0.365  0.110
 0.119 -0.152 -0.228
 0.378 -0.267 -0.158
-0.470 -0.466 0.0450
-0.491 -0.547 -0.0914
 0.126  0.121  0.110
 0.500 -0.547 -0.185
-0.182 -0.532 -0.0411
-0.391 -0.466 -0.0627
-0.146 -0.115 -0.0339
-0.391 -0.532 -0.0339
 0.500  0.164  0.110
-0.347  0.598 -0.0842
 0.320 -0.547 -0.0483
 0.215 0.0155 0.0945
-0.635  0.598 0.0594
-0.0603  0.407 -0.0339
-0.276  0.667  0.110
-0.146  0.703  0.110
 0.378 -0.374 -0.158
 0.457 -0.331  0.110
 0.211 -0.381 -0.0124
 0.184 -0.547 0.00916
0.0977 -0.0942  0.110
 0.385  0.597 0.00916
 0.406 -0.547 -0.271
-0.419 -0.331 -0.158
 0.608  0.423  0.110
-0.398  0.437 -0.104
 0.586 -0.223 -0.113
 0.227  0.143  0.110
-0.0531  0.595  0.110
 0.207  0.567 -0.0435
-0.611  0.111 0.0948
-0.232  0.459 0.0808
-0.232 -0.396 -0.0339
-0.0962 -0.115 -0.199
 0.198 -0.231 0.0235
0.0371 -0.349 0.0945
 0.198 -0.453  0.110
 0.552 -0.0568 0.0945
-0.426  0.394 0.0594
 0.608  0.746  0.110
 0.644 -0.539 -0.285
-0.652 0.00631 -0.0639
-0.657  0.624  0.104
 0.198 -0.114 -0.0557
-0.232 -0.324 0.0808
0.0618  0.586 0.0738
-0.268 -0.223 -0.0124
-0.661 -0.242 0.0898
-0.231 -0.245 -0.154
-0.228  0.231 0.0523
-0.650 -0.339 -0.0358
-0.620  0.337  0.110
 0.256  0.394 -0.0980
-0.650  0.456 0.0448
 0.584 0.00697 0.0945
-0.355 -0.532 -0.300
 0.401 0.0347 0.0945
-0.283 -0.466 0.0809
-0.424 -0.503 0.0945
-0.580 -0.0159 0.0948
 0.396  0.290 0.0945
 0.205  0.387  0.109
 0.105  0.653  0.109
 0.500  0.152 -0.0669
-0.104  0.523 0.0945
 0.493 -0.226 -0.158
-0.0603 -0.114 0.00194
 0.543  0.160 0.0522
-0.383 -0.439  0.109
-0.225 -0.532 0.0523
 0.328  0.358  0.110
 0.521 -0.466 0.0163
-0.154 -0.532 -0.221
-0.120 -0.218 0.0945
0.0563  0.761  0.104
-0.470  0.459  0.110
-0.398 -0.396 -0.158
-0.563  0.394 -0.0627
 0.593 -0.466 -0.00518
-0.455 -0.446  0.109
 0.564  0.160 -0.0339
 0.141 -0.532 -0.271
-0.233  0.689  0.110
 0.313  0.502  0.109
-0.319  0.597 -0.0411
 0.211  0.531 -0.00518
 0.170 -0.000812  0.110
-0.513  0.595  0.110
 0.313 -0.317 -0.158
-0.448  0.559  0.110
 0.392  0.452 -0.104
 0.428 -0.223 0.0666
-0.606 -0.466 0.0307
-0.592 -0.0942  0.110
 0.450  0.653  0.109
-0.491 -0.547 -0.228
-0.283 -0.115 -0.0699
 0.435  0.597 -0.0483
-0.635  0.394 -0.0411
 0.105 -0.115 -0.113
-0.0962 -0.115 0.0307
-0.650 -0.348 -0.0912
-0.290 -0.197 -0.0268
-0.477 -0.532 -0.170
0.0187  0.653  0.109
-0.233 -0.115 -0.120
-0.261  0.243 -0.0196
-0.0603 -0.159  0.109
0.0187 -0.159  0.110
-0.0244 -0.547 -0.0196
-0.448  0.394 -0.0555
-0.240 -0.547 -0.134
-0.146 0.0351  0.110
 0.493 -0.532 -0.0124
-0.139  0.594 -0.0670
 0.644 -0.339 -0.0706
-0.451 0.0315 0.0945
0.0546 -0.115 0.0450
 0.593  0.394 -0.0268
 0.241 -0.197 -0.0555
-0.103  0.107  0.110
 0.313  0.597 -0.0268
 0.457  0.160 -0.0196
-0.347 -0.223 0.0808
0.00434 -0.115 -0.00518
 0.205 -0.197 0.0738
 0.640  0.614  0.106
-0.391  0.495  0.110
 0.211  0.509 0.0594
 0.313 -0.403 -0.158
-0.182 -0.197 -0.156
-0.297  0.394 0.0666
 0.593  0.574  0.110
 0.608  0.286  0.110
-0.391 -0.0798  0.110
-0.549 -0.466 -0.106
 0.608 -0.223 0.0163
-0.0818 -0.115 -0.0411
-0.642 -0.222 0.0307
 0.211 -0.288 0.0594
-0.319  0.597 0.0307
-0.419  0.394 0.0235
-0.549 -0.338 -0.158
 0.421 -0.302  0.110
-0.470 -0.281 -0.158
 0.256 -0.346  0.110
-0.398  0.566  0.110
-0.398 -0.466 -0.0196
-0.527  0.597 0.00194
 0.105  0.380  0.109
 0.112 -0.197 -0.0483
 0.536 -0.482  0.110
-0.412 -0.222 -0.149
 0.265  0.741 0.0957
 0.313 -0.466 0.0738
 0.586 -0.547 -0.00518
 0.119  0.574  0.109
-0.154 -0.123 -0.228
 0.256  0.597 0.00916
-0.326 -0.410  0.109
 0.363 -0.302 -0.158
 0.471 -0.195  0.110
 0.299 -0.547 0.0378
 0.378  0.148 0.0235
 0.263 -0.137  0.110
 0.529 -0.367  0.110
-0.662  0.329 -0.0655
-0.0244 -0.547 0.0164
0.0762  0.617  0.109
0.0618  0.380  0.109
 0.141 -0.547 -0.106
-0.391  0.254 -0.0196
 0.557  0.394 -0.0196
-0.240  0.254 -0.0555
-0.304 -0.547 -0.170
-0.651  0.700 0.0738
 0.454  0.758  0.108
 0.600  0.160 0.0808
 0.213 -0.173  0.110
-0.240  0.473 -0.104
-0.232 -0.381 -0.120
-0.150  0.492 0.0945
 0.557 -0.130 0.0945
 0.294  0.695 0.0945
-0.635 0.0638 0.0951
 0.640 -0.0828  0.106
 0.642 -0.534 -0.179
-0.224 -0.247 0.0913
 0.155  0.586 0.0523
 0.349  0.329  0.110
 0.301  0.602 0.0878
 0.507 -0.547 0.0666
-0.419 0.0925  0.110
 0.625 -0.479 0.0945
0.0427  0.398 -0.0655
 0.191 -0.532 -0.213
-0.0172 -0.532 0.0738
 0.529 -0.532 -0.0627
 0.385 -0.547 -0.199
-0.111 -0.489  0.109
-0.570 -0.532 0.0523
 0.363 -0.547 -0.271
-0.369 -0.547 0.0881
 0.335 -0.532 -0.285
 0.480 0.0347 0.0945
-0.192  0.228 0.0945
 0.557 -0.547 -0.178
-0.301 -0.121 0.0878
 0.393 -0.532 0.0102
 0.134 -0.547 -0.0698
0.0762 -0.317  0.110
 0.155 -0.532 0.0450
 0.136  0.168 0.0945
-0.391 0.0710  0.110
-0.0603  0.739  0.110
-0.130  0.222 0.0946
-0.0818  0.545  0.110
-0.400  0.761 0.0994
-0.398  0.394 -0.0627
 0.619  0.119 0.0945
-0.0617 0.0569 0.0945
-0.628 -0.123  0.110
 0.263 -0.252 -0.158
-0.650  0.492 0.0933
 0.630 -0.367 0.0594
-0.549 -0.252 -0.158
-0.369  0.255 -0.0617
-0.221  0.254 -0.00765
 0.278  0.295 0.0945
 0.213  0.214 -0.0657
-0.494 -0.0148 0.0945
-0.175  0.651 0.0945
-0.650 -0.301 -0.0934
 0.284 -0.115 -0.185
-0.650 -0.373 0.0247
 0.204 -0.441 -0.0906
 0.507 -0.116  0.110
 0.643  0.422  0.101
 0.400 0.0837 0.0945
 0.478  0.318 -0.0483
 0.248  0.617  0.109
-0.354  0.741 0.0954
-0.0603 -0.403  0.109
-0.226  0.595 -0.0912
-0.0113  0.285 0.0945
-0.128  0.759 0.0993
 0.629 -0.331  0.110
-0.0854 -0.213 0.0945
 0.341  0.759 0.0992
 0.630  0.480 0.0666
0.0566  0.175 0.0946
0.0690  0.286  0.109
 0.270 -0.547 -0.300
-0.652  0.517 -0.0546
-0.477 -0.222 -0.149
 0.429  0.137 0.0945
0.00434 -0.532 -0.106
-0.448  0.254 -0.0555
 0.213  0.704 -0.0268
 0.199 -0.273 0.0945
 0.200 -0.336 -0.0857
-0.182  0.597 0.0523
-0.362  0.243 0.0307
 0.105  0.597 -0.0411
-0.220  0.720 0.0211
 0.234 -0.223 0.0666
 0.608  0.148 0.0378
 0.521  0.753  0.110
-0.326 -0.222 -0.142
 0.294 -0.152 -0.226
 0.191 -0.197 -0.106
-0.299 -0.130 0.0163
-0.310  0.160 0.0945
