ply
format ascii 1.0
element vertex 2048
property float x
property float y
property float z
end_header
-0.585 -0.105  0.384
 0.310 -0.476 -0.822
 0.608  0.603 0.0682
 0.492 -0.459  0.385
-0.292  0.611 -0.0814
-0.481 -0.460 -0.344
 0.191 0.0213 -0.246
 0.137  0.210  0.383
 0.552 -0.502 -0.244
-0.0750 -0.452  0.129
-0.232 -0.203 -0.827
-0.558  0.113 -0.222
-0.599  0.569  0.385
 0.595 0.0401  0.116
 0.166  0.462 -0.0636
-0.119  0.607  0.381
-0.558 -0.462  0.104
-0.304  0.209  0.277
 0.307  0.612  0.375
-0.196 -0.0686 -0.0887
0.0820 -0.249 -0.544
 0.137 -0.200  0.383
 0.584 -0.0444 -0.339
 0.595  0.342  0.370
 0.239 -0.334 -0.0636
-0.586  0.366 0.0561
-0.232 -0.165  0.298
 0.595 -0.334 0.0682
-0.184  0.281 -0.0636
-0.246 -0.481 -0.596
-0.586 -0.105 0.0439
 0.502  0.314 -0.0671
-0.377 -0.453  0.386
 0.577 -0.141  0.385
-0.304 -0.370 -0.0636
 0.215 -0.452  0.225
 0.191 -0.193 -0.822
-0.586  0.269  0.379
-0.315 -0.195 -0.542
-0.505 -0.165 -0.310
 0.323 0.00378  0.277
-0.365  0.615  0.213
-0.0267  0.615  0.104
 0.444 -0.129 -0.0636
 0.252 -0.481 -0.543
-0.0589 -0.0644 -0.344
-0.0282 -0.477 -0.145
-0.598  0.601 -0.0892
-0.0628 0.0521  0.277
0.0698  0.185 -0.0636
 0.323  0.615 0.0922
 0.335  0.354  0.277
-0.315 0.0187 -0.313
-0.116 -0.402  0.383
0.0820  0.450  0.277
 0.609  0.603  0.358
0.0578 -0.117 -0.0636
-0.586  0.137  0.165
 0.444  0.125 -0.220
-0.545 -0.364 -0.125
 0.436 -0.508  0.133
 0.315 -0.214 -0.608
 0.501 -0.262 -0.267
 0.595  0.100  0.370
-0.310 -0.431 -0.822
-0.586 -0.358  0.322
-0.413  0.221 -0.0636
 0.408 -0.262  0.277
 0.595  0.378  0.141
-0.147  0.378  0.277
-0.604  0.573  0.153
 0.299  0.209 -0.0636
-0.425 -0.0686 -0.113
-0.425  0.402  0.277
-0.329 -0.452  0.165
-0.0267 -0.262 -0.753
-0.110  0.134 -0.219
-0.389 0.00378  0.277
-0.0750  0.475 -0.0636
 0.444  0.583 -0.0908
 0.372 -0.0685 -0.339
-0.0870 -0.274 -0.0636
 0.444 -0.407 -0.0635
-0.437 -0.213  0.277
-0.425  0.426 -0.0636
 0.145 0.00483  0.385
0.0820 -0.453  0.386
-0.123 -0.263 -0.542
-0.0267 -0.153  0.277
 0.106 -0.452 0.0439
 0.577  0.112 -0.0680
-0.586  0.100 -0.0285
-0.228 0.0279  0.384
 0.432  0.185  0.277
-0.539 0.0843  0.384
 0.595 -0.141 0.0561
-0.586 -0.262  0.153
 0.110  0.607  0.381
-0.316  0.537  0.379
 0.595 -0.274  0.249
 0.444  0.615  0.237
-0.220  0.615 0.0922
 0.263 -0.0807 -0.0642
-0.0146  0.233  0.277
0.0578  0.614 -0.0738
 0.311 -0.419  0.385
 0.166  0.615  0.189
 0.587  0.475 -0.0635
-0.280  0.148 -0.161
 0.582 -0.0643 -0.161
 0.594 -0.459  0.201
0.00961 -0.334  0.277
 0.237 -0.334 -0.727
-0.584 -0.0132 -0.339
 0.251  0.614 -0.0738
-0.488 -0.501  0.262
-0.586 -0.0686  0.213
-0.437  0.615 0.0561
 0.225  0.438  0.379
 0.287 -0.452 0.0682
 0.595  0.197  0.225
-0.425 -0.250 -0.0636
-0.244 -0.334  0.280
 0.360  0.438 -0.0636
-0.586  0.390  0.225
-0.159 -0.462 -0.0405
 0.263 -0.153  0.277
 0.480 -0.0566  0.277
 0.480  0.438  0.277
-0.449 -0.460 -0.0230
-0.268 -0.322 -0.643
 0.595  0.233 0.0441
 0.555 -0.250 -0.0813
0.0698 -0.322 -0.0636
0.0217  0.342 -0.0636
-0.586 -0.0445 -0.125
0.0709  0.134 -0.219
-0.175  0.223  0.375
-0.568  0.265 -0.0772
-0.256  0.426 -0.0636
 0.595  0.535  0.213
-0.171 -0.193 -0.680
 0.466 -0.399 -0.339
 0.225 -0.310  0.310
 0.239  0.137  0.280
-0.0628 -0.0686 -0.173
-0.586 -0.250 -0.0163
 0.456  0.548  0.386
 0.595 -0.443 -0.0521
 0.166 -0.193 -0.668
-0.449  0.615  0.367
-0.549 -0.334 -0.276
 0.110 -0.0644 -0.344
-0.135  0.615 -0.0526
-0.171  0.615  0.237
-0.280 -0.201 -0.0636
-0.473  0.257  0.277
-0.535  0.426  0.379
 0.372 -0.262 -0.0636
-0.547 -0.507 -0.218
 0.577 -0.334  0.385
0.0820 0.0882  0.277
 0.275  0.148 -0.197
 0.384 -0.0686 -0.185
-0.111  0.152 -0.0686
 0.245 -0.334 -0.558
 0.179  0.293 -0.0636
-0.0628  0.499  0.277
-0.413 0.0882 -0.220
-0.568  0.458 -0.0771
 0.154  0.615 0.0439
 0.119 -0.0927  0.280
-0.457  0.567 -0.0898
-0.196 -0.0686 -0.234
 0.335  0.499  0.277
 0.595 -0.117  0.213
-0.319 -0.203 -0.704
-0.178  0.472  0.382
 0.541 -0.363 -0.173
 0.468  0.615 0.0922
 0.372 -0.452  0.261
-0.413 -0.370  0.277
-0.292  0.354  0.277
 0.595 -0.0203 -0.0163
 0.106  0.306  0.277
 0.314 -0.196 -0.757
-0.171 -0.452  0.261
-0.586 -0.213  0.297
-0.413 -0.0686 -0.270
0.0819 -0.452  0.189
 0.588  0.611 -0.0815
 0.565 0.0610 -0.255
-0.123 -0.274  0.277
-0.268 -0.452 0.0439
0.0700 -0.0686 -0.197
-0.159 -0.0415  0.282
-0.00257  0.615  0.310
 0.432  0.197 -0.0636
-0.461  0.125  0.277
 0.203 -0.462 -0.0518
-0.244 -0.462  0.379
-0.0870 -0.141 -0.0636
-0.586  0.233 0.0561
 0.299  0.615  0.225
-0.546  0.615  0.273
-0.509 -0.459  0.385
 0.506 -0.117 -0.262
-0.196 -0.262  0.385
-0.00257 -0.193 -0.644
0.00947 0.0213 -0.270
 0.541 -0.453 0.0682
 0.323 0.0209 -0.258
 0.504 -0.384  0.280
-0.523 -0.152 -0.0902
 0.239 -0.0686 -0.330
 0.312 -0.419 -0.639
0.0578 -0.193 -0.822
-0.311 -0.310 -0.777
-0.329  0.318 -0.0636
 0.154 -0.201 -0.0636
 0.191  0.148 -0.101
 0.595 0.0158  0.273
 0.225  0.305  0.322
-0.220  0.342  0.386
-0.256 0.0882  0.277
-0.586  0.185  0.285
-0.586  0.269  0.177
-0.586 -0.443 -0.0163
 0.593  0.482  0.384
-0.461  0.524  0.280
-0.586 0.00378  0.104
-0.171 -0.0117 -0.343
-0.0146 -0.452  0.310
 0.529  0.257  0.310
-0.135  0.161  0.277
 0.541 -0.00827  0.386
 0.123 -0.391  0.288
 0.457 0.0170 -0.320
-0.244  0.523  0.281
-0.586  0.511 0.0319
 0.215 -0.203 -0.539
-0.111 -0.193 -0.813
 0.323 -0.453 -0.0632
-0.586 0.0641  0.273
 0.444 0.0641  0.277
-0.196 -0.452  0.141
-0.0146  0.378  0.277
 0.299  0.330 -0.0636
 0.237 -0.455 -0.727
 0.263 -0.0686 -0.185
 0.595  0.475 0.0682
0.0819 -0.238  0.277
-0.469 -0.399 -0.214
 0.517 -0.177  0.280
 0.310 -0.334 -0.822
-0.473  0.148 -0.137
 0.585 -0.407 -0.330
-0.304 -0.0686 -0.137
 0.372 -0.105  0.277
 0.106 -0.264 -0.741
-0.457 -0.508  0.142
-0.280 -0.382 -0.542
 0.587 -0.129 -0.0635
-0.586 -0.443  0.237
 0.595 -0.443  0.322
-0.0629  0.257 -0.0636
 0.134  0.367  0.378
 0.225 -0.0686  0.346
 0.595  0.330  0.249
-0.255 -0.478 -0.733
-0.256 0.0521 -0.220
-0.473 -0.105  0.277
-0.00257 -0.452 0.00778
-0.353 -0.105  0.277
-0.220 -0.0927  0.385
 0.471 -0.462 -0.173
 0.166 -0.0686 -0.125
-0.497  0.615  0.153
-0.535 -0.274  0.379
-0.586  0.487  0.297
-0.232  0.615  0.346
-0.534 -0.0686 -0.222
-0.0991 0.0234 -0.233
-0.304 -0.452  0.285
 0.311  0.221  0.277
 0.408 -0.452 0.0319
-0.586  0.450  0.129
-0.111  0.366 -0.0636
0.0457  0.450 -0.0636
 0.203 -0.443  0.386
-0.208 -0.286 -0.0636
 0.215  0.615  0.297
-0.184  0.511 -0.0636
-0.353  0.487  0.277
-0.268  0.209 -0.0636
-0.586 -0.358 0.0561
-0.329  0.615 0.0319
-0.0870 -0.264 -0.656
-0.586 -0.453 -0.306
 0.134  0.500  0.379
 0.561  0.221 -0.0743
 0.360  0.615 -0.0285
-0.00257  0.148 -0.137
-0.389 -0.452 0.0682
-0.546  0.615 0.0439
 0.468  0.426 -0.0636
-0.461 0.0122 -0.325
 0.145 -0.309  0.385
 0.444  0.318  0.277
-0.208 -0.193 -0.560
-0.147  0.269  0.277
-0.304 -0.0686 -0.246
-0.328 -0.213  0.277
 0.214  0.125  0.385
-0.0267  0.615 -0.00426
-0.0267 -0.214 -0.539
-0.461  0.318 -0.0636
 0.275 -0.214 -0.0636
0.0217 -0.226 -0.0636
 0.595  0.366 -0.0521
 0.372  0.148 -0.137
-0.181 -0.475 -0.144
0.00947  0.541  0.384
 0.230  0.503  0.287
-0.536 -0.0203  0.310
 0.533  0.185  0.384
0.0980 -0.460 -0.0595
0.0819  0.615  0.128
 0.529  0.615  0.177
 0.595 -0.358  0.177
-0.468 -0.460 -0.125
-0.341 -0.462 -0.0297
-0.00257 -0.0324  0.277
-0.232  0.137  0.370
 0.225 0.0279  0.298
-0.123  0.615  0.141
 0.595 -0.238  0.346
 0.595 -0.238  0.104
 0.529  0.523  0.310
 0.595  0.269  0.153
-0.353 -0.129 -0.0636
 0.595  0.161  0.116
-0.232 -0.358  0.379
-0.353  0.499 -0.0636
 0.179 -0.452  0.116
 0.541  0.146 -0.195
-0.0267 -0.382 -0.0636
 0.595  0.100 0.0319
-0.179 -0.262 -0.763
 0.179  0.125 -0.220
-0.256 -0.0685 -0.339
0.0698 -0.264 -0.644
 0.236 -0.407 -0.822
 0.239  0.402  0.280
-0.249 -0.374 -0.727
-0.0991 -0.384  0.280
-0.535  0.330  0.310
 0.215  0.559  0.386
 0.485 -0.495  0.219
 0.524  0.149  0.287
 0.238 -0.261 -0.650
0.0578  0.615  0.225
-0.377  0.281  0.277
 0.106  0.185  0.277
 0.396  0.305 -0.0636
 0.347 -0.452  0.165
 0.492  0.615 -0.00426
0.0217 -0.452  0.104
-0.586 -0.346  0.213
 0.479 -0.314 -0.0666
-0.579 -0.462 -0.113
-0.522 -0.286  0.280
-0.535  0.185  0.379
 0.595 -0.0807  0.310
 0.432  0.524  0.280
 0.504  0.615  0.334
-0.0589  0.567 -0.0898
 0.154 -0.0686 -0.258
 0.595 -0.346 -0.0285
-0.353  0.615  0.310
-0.413 -0.346 -0.0636
-0.586 -0.165  0.141
-0.413 -0.452  0.213
-0.353  0.100  0.277
 0.323 -0.310  0.277
-0.123 -0.165  0.277
 0.595 -0.226 0.00778
 0.106 0.0209 -0.294
 0.595 0.0882  0.201
 0.408 -0.398  0.334
 0.137 -0.0918  0.383
 0.154  0.611 -0.0814
-0.311 -0.419 -0.631
-0.576 0.0521 -0.149
-0.123  0.615 0.0439
 0.408  0.615  0.334
-0.586  0.100 0.0682
 0.263  0.462 -0.0636
-0.280 -0.286 -0.542
 0.566 0.0279 -0.113
 0.565 -0.462 -0.149
-0.232  0.414  0.322
 0.226 -0.165  0.370
-0.196  0.148 -0.113
-0.147  0.537  0.298
 0.368 -0.0726 -0.0686
-0.497 -0.398  0.310
-0.167 0.0592  0.288
-0.0629 -0.452  0.225
-0.0508  0.615  0.201
-0.147 -0.358 -0.0636
 0.227  0.615  0.104
-0.341  0.148 -0.0889
-0.500 -0.246 -0.262
-0.530 0.0298 -0.254
-0.248 -0.358 -0.827
-0.509 -0.0685 -0.330
 0.308 -0.407 -0.541
0.0337  0.533  0.287
 0.529 -0.298  0.310
-0.509  0.537  0.358
 0.313 -0.322 -0.620
 0.596  0.613  0.261
 0.595 -0.0445 0.0802
 0.130  0.378 -0.0636
 0.595 -0.0203  0.189
 0.595  0.342 0.0561
0.0337 -0.0686 -0.282
-0.0991 -0.0686 -0.258
 0.468 -0.0686 -0.149
-0.341 -0.286 -0.0636
-0.196 -0.165 -0.0636
 0.595 -0.358  0.285
-0.256  0.615  0.177
 0.229 -0.275 -0.805
 0.106  0.535 -0.0636
 0.556 -0.334 -0.283
-0.576  0.136 -0.113
-0.244 -0.00827  0.280
-0.318 -0.234 -0.826
-0.232  0.269  0.310
 0.125  0.530  0.287
 0.251 -0.452  0.310
-0.0267 0.0882 -0.220
 0.509  0.523 -0.0730
 0.496 -0.0644 -0.344
 0.468  0.148 -0.137
-0.585 -0.00827  0.384
 0.222 -0.254  0.384
 0.585 -0.419 -0.234
 0.372  0.537  0.358
 0.248 -0.481 -0.635
-0.377  0.615 -0.0526
 0.468 -0.226 -0.0635
-0.0196 -0.402  0.383
-0.111 -0.193 -0.596
-0.173 -0.176  0.380
 0.529 0.0521  0.322
-0.268 -0.193 -0.632
 0.504 -0.462 -0.0295
-0.0187 -0.0726 -0.0686
 0.595  0.462  0.297
-0.586 -0.431 -0.197
0.0941 -0.00827  0.277
0.00961  0.149  0.277
 0.384  0.523 -0.0636
0.0698 -0.193 -0.704
 0.348 -0.189  0.277
 0.465 -0.453 -0.270
 0.154 -0.298 -0.0636
0.0698  0.615 0.0198
-0.244 -0.453 -0.0632
-0.586 -0.0203 -0.0405
-0.461  0.615  0.249
 0.595 -0.201  0.189
0.0941  0.269 -0.0636
 0.420 0.0402 -0.220
 0.156 -0.261 -0.589
-0.586 -0.117  0.297
-0.485 -0.452 0.0560
 0.555 -0.193 -0.275
-0.256 -0.275 -0.719
-0.208  0.615 -0.00426
 0.215  0.535 -0.0636
-0.586 -0.153 -0.0285
-0.586  0.499  0.201
-0.244 -0.452  0.213
 0.309 -0.286 -0.732
 0.300 -0.396 -0.733
-0.0750 -0.193 -0.704
 0.300 -0.00814 -0.339
-0.377 -0.0325 -0.346
 0.225  0.209  0.370
-0.516  0.186 -0.0720
-0.0991 -0.452 0.0198
 0.110 -0.263 -0.826
-0.171 -0.264 -0.632
 0.288 -0.262 -0.540
-0.580  0.374 -0.0663
0.0941  0.148 -0.137
-0.0601 -0.461 -0.0623
 0.524  0.366  0.287
-0.473 0.0280  0.277
-0.147 -0.0686 -0.161
 0.396  0.426  0.277
-0.546 -0.189  0.385
 0.372  0.125  0.277
 0.432 -0.165  0.277
 0.595  0.438  0.201
-0.341 -0.298  0.277
-0.0146 -0.238  0.277
-0.316  0.615  0.116
-0.586  0.185 -0.0163
-0.509  0.414  0.277
-0.268 -0.117 -0.0636
-0.586 -0.189 0.0561
-0.401  0.185  0.277
-0.244  0.342 -0.0636
 0.191 -0.452 0.0319
-0.510 -0.451  0.177
 0.118  0.615  0.285
-0.485 -0.391 -0.0686
-0.352  0.146 -0.207
 0.584 -0.0562 -0.246
 0.518 -0.165 -0.0965
 0.215 -0.193 -0.741
-0.401 -0.452  0.297
-0.517 -0.237 -0.0890
-0.171  0.426 -0.0636
 0.420 -0.0686 -0.270
-0.586  0.269  0.261
 0.323 -0.0686 -0.270
 0.372 -0.177 -0.0636
-0.232 -0.250  0.298
 0.595  0.535  0.129
 0.132  0.125  0.334
-0.171 -0.346  0.322
-0.389  0.537  0.334
 0.315 -0.249 -0.821
-0.305 -0.399  0.379
 0.315 -0.393  0.287
-0.579  0.355  0.385
 0.130 -0.382 -0.0636
-0.268 -0.0927  0.277
-0.585 -0.330 -0.0598
 0.456 -0.452  0.285
-0.232 0.0213 -0.294
-0.586 -0.431  0.370
 0.595  0.547 0.00778
 0.275 -0.193 -0.680
 0.541  0.402  0.385
-0.308 -0.467 -0.544
-0.534  0.616  0.358
 0.263  0.615 0.00778
 0.239 -0.382 -0.631
 0.275  0.148 -0.113
-0.0980 0.0170 -0.320
 0.384 -0.462  0.379
 0.595  0.257  0.358
 0.490 -0.366 -0.246
-0.510 -0.383 -0.329
-0.365 0.0234 -0.233
-0.522  0.615 -0.0644
 0.505 -0.451  0.153
-0.319 -0.258 -0.644
 0.595  0.173 -0.0163
-0.208  0.547  0.386
0.00961 -0.258 -0.827
 0.225 0.0279  0.379
-0.0750 -0.0686  0.277
-0.0267  0.185 -0.0636
-0.377 -0.0686 -0.197
 0.203 0.00378 -0.329
-0.401  0.615  0.141
-0.586 0.0279  0.201
0.0578 -0.452  0.273
 0.287 -0.0686  0.277
 0.396  0.615 0.0439
 0.372  0.615  0.189
-0.0508  0.306  0.277
0.0941 0.0521 -0.220
 0.595  0.293 -0.0163
-0.232  0.173  0.298
-0.513 -0.0723 -0.0928
 0.547 -0.348 -0.0944
-0.586  0.293 -0.00426
-0.245 -0.476 -0.813
 0.595 -0.419  0.116
 0.225 -0.226  0.310
0.00947  0.535 -0.0636
-0.604  0.573  0.237
0.0698 -0.193 -0.608
-0.586  0.402  0.322
-0.00257 -0.264 -0.596
-0.0991 -0.451  0.321
 0.154 -0.117 -0.0636
 0.130 -0.193 -0.765
 0.529 -0.201  0.370
-0.536  0.112  0.310
0.0346 -0.00827 -0.338
 0.361  0.143 -0.215
 0.311  0.565 -0.0852
 0.251 0.0641 -0.220
 0.128 -0.391  0.370
-0.171 -0.0194  0.358
-0.527  0.524 -0.0837
0.0698 -0.153  0.277
-0.0267 -0.193 -0.789
 0.421 -0.453  0.201
 0.182 -0.260 -0.721
-0.220 -0.195 -0.741
 0.372  0.269  0.277
-0.147 -0.226 -0.0636
 0.299 -0.452  0.225
-0.437 -0.398  0.358
-0.586 -0.165  0.237
 0.225 -0.370  0.358
 0.360  0.615  0.273
 0.604  0.610  0.161
 0.132  0.402  0.310
 0.166 -0.452  0.310
 0.166  0.281  0.386
 0.230  0.237  0.287
 0.132 -0.298  0.310
 0.479 -0.391 -0.137
-0.184  0.112 -0.220
-0.0991 -0.264 -0.777
-0.172 0.0778  0.367
 0.432 -0.334  0.277
 0.420 -0.00827  0.277
0.0217 0.0401  0.277
-0.0387  0.390 -0.0636
-0.0870  0.426  0.277
-0.586 -0.419  0.165
 0.311 -0.358 -0.0636
-0.586 -0.274 0.0561
 0.311  0.426  0.277
 0.239  0.390 -0.0636
-0.585 -0.0642 -0.278
-0.586 -0.334  0.129
-0.449 -0.177 -0.0636
-0.256  0.615  0.273
-0.228  0.567 -0.0898
 0.595 -0.177  0.261
-0.582 -0.00408 -0.209
-0.570  0.499  0.386
-0.171  0.466  0.299
 0.237 -0.481 -0.801
 0.595  0.257  0.273
 0.492 0.0236 -0.233
-0.604  0.583 0.00778
-0.0991  0.615  0.310
 0.287  0.541  0.384
 0.533  0.382 -0.0902
-0.0629  0.559  0.386
-0.171 -0.129  0.322
 0.529 -0.453 -0.346
-0.308 -0.419 -0.727
-0.115 -0.0726 -0.0686
-0.534 -0.364 -0.209
-0.100 -0.464 -0.135
-0.341 -0.384  0.280
 0.570 0.00430 -0.185
 0.468 -0.452 0.0802
-0.558 -0.462  0.310
 0.529  0.535  0.384
 0.529 -0.0807  0.379
-0.586 -0.0927  0.116
-0.0629  0.137  0.277
-0.341  0.245 -0.0636
-0.320  0.612  0.376
 0.595 0.0280  0.346
 0.595 -0.419 0.0319
-0.184 -0.452 0.0682
 0.384 -0.334 -0.0636
-0.586  0.378  0.153
-0.425 -0.286  0.277
 0.517  0.615  0.261
 0.239  0.615  0.177
 0.311 0.0762  0.277
-0.535  0.257  0.322
-0.232 -0.358 -0.0636
-0.461  0.330  0.277
0.00947  0.269 -0.0636
-0.0146 -0.153 -0.0636
-0.485  0.125 -0.220
0.0337 -0.398  0.322
-0.171 0.0402 -0.220
-0.188 -0.454  0.333
0.0820 -0.0686 -0.113
 0.517  0.594 -0.0907
 0.239 -0.195 -0.608
-0.256 -0.286 -0.827
 0.203  0.209 -0.0636
-0.247 -0.382 -0.608
-0.196 -0.264 -0.549
 0.553 -0.419  0.386
-0.497 -0.462 -0.246
-0.00257 -0.195 -0.716
 0.142 -0.203 -0.539
 0.595 -0.286  0.177
 0.565  0.615 -0.00426
 0.225  0.366  0.379
 0.595 -0.141  0.129
-0.604  0.573 0.0802
-0.509 -0.213  0.277
 0.314 -0.257 -0.666
-0.522 -0.462 -0.0405
 0.529  0.450  0.334
 0.533  0.281  0.384
 0.533 0.00168 -0.320
-0.601  0.567  0.314
-0.171 -0.214  0.310
 0.595  0.137  0.285
-0.00833 -0.262 -0.684
-0.535 -0.370  0.370
-0.172  0.392  0.367
 0.553  0.148 -0.125
-0.171  0.319  0.322
-0.111  0.148 -0.149
 0.132 0.0521  0.334
 0.142 -0.452  0.225
 0.595  0.414 0.0319
-0.461  0.487 -0.0636
-0.586  0.173  0.104
-0.00257 -0.0686 -0.222
-0.437  0.615 -0.0163
-0.497  0.185  0.277
 0.323 -0.0686 -0.149
 0.239 -0.452  0.153
 0.384 -0.452  0.104
 0.227 -0.0686 -0.246
-0.473 -0.310 -0.0636
 0.299 -0.141 -0.0636
 0.408  0.615  0.129
-0.516  0.403 -0.0720
-0.328 -0.0324  0.277
-0.268 -0.452  0.129
 0.529  0.615 0.0561
 0.541 -0.274  0.385
-0.0508 -0.298  0.277
 0.179  0.615  0.358
0.0819 -0.189 -0.0636
 0.595  0.378  0.310
-0.244 -0.397  0.322
-0.586  0.137  0.379
-0.437  0.148 -0.0771
 0.492  0.161 -0.0641
-0.437  0.548  0.385
 0.310 -0.407 -0.813
-0.0106  0.607  0.381
 0.287  0.537  0.310
 0.309 -0.467 -0.753
-0.292  0.281  0.277
-0.527  0.331 -0.0837
 0.241 -0.419 -0.572
-0.401 -0.431 -0.0636
-0.0267  0.537  0.322
-0.536 -0.165  0.322
 0.227 -0.268 -0.572
-0.292 -0.193 -0.777
 0.287  0.615  0.310
 0.504 -0.462 -0.113
-0.528  0.533  0.292
-0.135 -0.0686 -0.330
 0.312 -0.338 -0.544
-0.466 -0.407 -0.282
 0.287 -0.193 -0.549
-0.171  0.137  0.334
-0.586  0.402 -0.00426
-0.256  0.511 -0.0636
 0.566 0.0762 -0.161
 0.595 -0.0927 0.00778
-0.377  0.378 -0.0636
-0.586 0.0521 0.0198
-0.256 -0.0686 -0.185
0.0217 -0.0686 -0.149
 0.335 -0.452 0.0198
0.00947 -0.452  0.225
 0.227 -0.165 -0.0636
-0.586 -0.262  0.249
 0.203 -0.250 -0.0636
0.0217 -0.431 -0.0636
 0.529 -0.117  0.310
 0.595 0.0280 0.0319
-0.401 -0.153  0.277
 0.408  0.390 -0.0636
 0.361 0.0170 -0.320
 0.480 -0.0686 -0.222
-0.159 -0.250 -0.827
-0.310 -0.481 -0.773
 0.480 -0.398  0.358
-0.586 -0.322  0.379
-0.0508 -0.462  0.379
-0.486 -0.395 -0.137
-0.0628 -0.238 -0.828
 0.486 -0.0768 -0.0721
-0.0991 -0.407 -0.0636
 0.239 -0.407 -0.0636
 0.275  0.306  0.277
 0.504 0.0882 -0.220
 0.600  0.557  0.310
 0.384 -0.462 -0.0298
 0.132 -0.226  0.322
-0.349  0.567 -0.0898
-0.579 -0.399 -0.345
 0.132  0.257  0.334
 0.575 -0.462 -0.294
 0.310 -0.463 -0.577
-0.159  0.197 -0.0636
 0.203  0.615 -0.0285
 0.592 -0.0495  0.383
 0.524 -0.00827  0.287
 0.541 -0.453  0.285
-0.232  0.257  0.379
 0.384  0.152 -0.0687
 0.584 -0.0646 -0.0763
 0.142 -0.264 -0.668
-0.319 -0.250 -0.753
-0.243 -0.268 -0.616
 0.533 0.0882  0.384
 0.130  0.160 -0.0642
-0.0387  0.148 -0.198
-0.159 -0.193 -0.765
0.0578  0.390  0.277
-0.268  0.281 -0.0636
-0.586 0.0641  0.129
0.00961  0.438  0.277
 0.492 -0.238  0.277
 0.323  0.499 -0.0636
0.0941 -0.262 -0.0636
-0.549 -0.117 -0.291
 0.179 -0.0686 -0.197
-0.232  0.475  0.346
-0.473 -0.117 -0.0636
-0.586  0.112  0.225
 0.299 -0.274 -0.0636
-0.509 -0.0686 -0.161
-0.586 -0.0203 0.0439
-0.353 -0.0686 -0.294
 0.456  0.245  0.277
-0.0991 -0.00827  0.277
-0.558  0.615  0.129
-0.522  0.615  0.213
-0.485  0.615  0.310
 0.595 -0.298  0.309
-0.542 -0.218 -0.305
 0.595 -0.382  0.346
-0.316 0.0762 -0.220
 0.595  0.161  0.346
 0.275 -0.250  0.277
-0.0870  0.245  0.277
 0.527  0.446 -0.0886
-0.245 -0.322 -0.765
-0.494 -0.310 -0.300
-0.123  0.537  0.379
-0.309 -0.481 -0.608
-0.308 -0.358 -0.608
 0.544 -0.0929 -0.308
 0.132 -0.0325  0.334
 0.251 -0.213 -0.828
-0.256  0.537  0.346
-0.135 -0.262 -0.716
 0.518 -0.153 -0.313
 0.529 -0.358  0.346
 0.456  0.269 -0.0636
-0.377  0.571  0.386
 0.263 -0.462  0.379
-0.232 -0.153  0.370
-0.0226 -0.393  0.287
-0.256  0.148 -0.0771
-0.245 -0.322 -0.584
-0.0780 -0.262 -0.587
-0.536  0.475  0.334
 0.275 -0.460 -0.0227
-0.585 -0.393 -0.0644
-0.316 -0.462  0.370
-0.535 -0.0686  0.370
 0.537 -0.105 -0.0953
 0.595 -0.419  0.249
-0.381 -0.0726 -0.0686
-0.0146  0.611 -0.0814
-0.497  0.245 -0.0635
 0.230 -0.101  0.287
-0.171  0.222  0.310
-0.202 -0.261 -0.686
-0.232 0.0521  0.322
 0.466 -0.399 -0.197
-0.147 0.0213 -0.282
-0.232 -0.0325  0.370
-0.388 0.0187 -0.313
-0.522 -0.00827 -0.340
 0.263 -0.346  0.277
-0.401  0.547 -0.0635
-0.236  0.330  0.287
 0.468  0.125  0.277
 0.529 -0.452  0.213
 0.529  0.330  0.346
0.0337 -0.198 -0.558
 0.143 -0.0122 -0.343
-0.437 -0.452  0.128
 0.544  0.607  0.381
-0.570 -0.201 -0.0635
 0.166 -0.262 -0.801
 0.310 -0.481 -0.638
-0.570 -0.105 -0.0635
-0.311 -0.382 -0.777
-0.449 -0.0686 -0.173
-0.461 -0.0324  0.277
-0.586  0.161 0.0439
-0.123  0.523 -0.0636
-0.135 -0.452  0.116
-0.123  0.305 -0.0636
 0.118 -0.452  0.129
 0.203  0.148 -0.161
0.0578  0.615  0.322
 0.311  0.615  0.153
-0.123 -0.452  0.213
-0.586  0.330  0.213
-0.353 -0.452  0.225
-0.341 -0.214 -0.0636
-0.586 -0.407  0.104
 0.384  0.245 -0.0636
 0.595  0.209  0.165
-0.365  0.414  0.277
 0.595  0.450  0.141
-0.586  0.523 -0.0285
-0.292  0.149  0.277
0.0457 -0.264 -0.729
-0.353  0.342  0.277
-0.171  0.354 -0.0636
-0.401  0.281 -0.0636
-0.437  0.462  0.277
 0.396 -0.0686 -0.125
 0.299  0.161  0.277
-0.536 -0.226  0.334
-0.171 -0.274  0.322
-0.586 0.0762  0.334
-0.586  0.197  0.346
 0.239  0.318 -0.0636
 0.372  0.197  0.277
 0.595 -0.165 -0.00426
 0.372 -0.395 -0.0636
0.0698 -0.298  0.277
 0.584 -0.407 -0.101
 0.595  0.221  0.104
-0.586  0.306 0.0682
 0.595  0.100  0.128
-0.521 -0.451  0.249
-0.159  0.573 -0.0906
-0.437 -0.462  0.379
0.0217 -0.462  0.358
-0.196 -0.452 0.00778
 0.142 -0.462  0.379
0.0217 -0.258 -0.540
0.0698 -0.453 -0.00531
 0.577 -0.189 -0.0635
 0.225  0.499  0.370
 0.549 -0.250 -0.303
 0.596  0.535 -0.0521
 0.242 -0.346 -0.827
 0.556  0.281 -0.0814
 0.253 -0.264 -0.724
 0.452  0.612  0.375
 0.432  0.615 -0.0405
-0.541 -0.458 0.0319
-0.268  0.583  0.386
-0.0256 -0.00421 -0.332
-0.135 -0.459  0.385
 0.137  0.439  0.384
-0.578 0.0279 -0.0764
0.0217  0.330  0.277
-0.401 0.0641  0.277
-0.586  0.185  0.201
 0.408  0.366  0.277
 0.106  0.615 -0.0285
-0.208 -0.195 -0.632
 0.166 -0.195 -0.608
-0.586 -0.0324  0.165
 0.497 -0.322 -0.292
-0.292 0.0280  0.277
-0.0750 -0.195 -0.644
-0.401  0.615  0.261
 0.595  0.281  0.213
-0.0750 -0.346 -0.0636
-0.586  0.354  0.285
-0.586 -0.0203  0.249
-0.586 0.0158  0.310
 0.335  0.281 -0.0636
-0.0870 -0.201 -0.0636
 0.299 -0.0685 -0.339
-0.531 0.0440  0.287
-0.316 -0.0325 -0.346
-0.425 0.0234 -0.233
-0.0267 -0.0686 -0.282
 0.595 0.0762  0.273
-0.536 -0.0807  0.310
0.00947 -0.452  0.165
-0.0267 -0.274 -0.0636
-0.0629  0.318 -0.0636
 0.468  0.615  0.177
 0.595  0.173 0.0441
 0.468  0.366 -0.0636
-0.353  0.438 -0.0636
 0.595  0.535 0.0682
-0.586 -0.322  0.273
 0.247  0.612  0.375
-0.586 -0.262  0.334
-0.147 -0.286 -0.0636
0.0337  0.269  0.277
-0.341 -0.452  0.104
-0.280  0.615 -0.00426
0.0217  0.615 0.0682
-0.159  0.615 0.0922
-0.365  0.615 0.0802
-0.497  0.615 0.00778
-0.485  0.615 0.0922
-0.292 -0.262  0.277
-0.267  0.134 -0.219
-0.0991  0.342  0.277
-0.00257  0.615  0.165
-0.586  0.221  0.141
-0.586 -0.0686 -0.00426
-0.0870 -0.226  0.277
 0.529  0.137  0.346
 0.225  0.269  0.379
0.0578 -0.382 -0.0636
 0.130  0.148 -0.185
0.0941  0.330 -0.0636
 0.372 -0.0445  0.277
 0.529  0.615  0.116
 0.595 0.0641 -0.0163
-0.487 -0.0732 -0.260
 0.323  0.149 -0.0771
-0.196  0.148 -0.173
 0.372 -0.451  0.321
 0.595  0.487 0.00778
-0.218  0.427  0.385
 0.471 -0.462 -0.330
-0.0387 0.0298 -0.225
 0.311 -0.452  0.297
 0.128 -0.177  0.287
 0.529 -0.0566  0.322
-0.365  0.148 -0.149
-0.292 0.0209 -0.258
 0.517 -0.372 -0.322
 0.178 0.0641  0.386
-0.582 -0.00552 -0.270
-0.535  0.318  0.370
 0.132  0.318  0.346
0.0528 -0.402  0.383
 0.251 -0.0203  0.277
0.0217 -0.0685 -0.339
-0.244 -0.0686 -0.282
-0.245 -0.419 -0.801
0.0698 -0.370  0.277
-0.329  0.537  0.322
 0.372  0.573 -0.0906
0.0457 -0.195 -0.765
 0.311 0.0641 -0.220
-0.524 -0.321 -0.0900
-0.546  0.148 -0.161
-0.175  0.296  0.375
0.0457  0.594  0.386
-0.0629  0.148 -0.101
 0.191 -0.0445  0.386
 0.145  0.150  0.385
 0.142  0.559  0.386
 0.571 0.00391 -0.246
 0.420  0.148 -0.173
-0.586  0.450  0.358
-0.0870  0.537  0.334
 0.565 -0.462 0.00778
-0.232 -0.0566  0.310
 0.368  0.612  0.375
-0.228 -0.213  0.384
 0.593 -0.459  0.379
-0.236 -0.261 -0.775
-0.310 -0.346 -0.732
 0.595  0.414  0.370
-0.389 -0.398  0.322
 0.565  0.615  0.310
 0.444 -0.0325 -0.346
-0.267 -0.00382 -0.334
 0.347 -0.398  0.346
-0.256 -0.443 -0.542
 0.133  0.475  0.298
-0.546 -0.282 -0.299
-0.586  0.137  0.322
 0.309 -0.193 -0.822
-0.135 -0.398  0.322
-0.551 -0.472 -0.265
 0.376 -0.393  0.287
 0.432 -0.462  0.349
-0.304 -0.397  0.322
 0.225  0.438  0.322
-0.473 -0.358  0.277
 0.225  0.100  0.322
 0.468  0.537  0.322
-0.401  0.524  0.280
-0.0750  0.615 -0.0644
-0.244  0.450  0.280
-0.123  0.487  0.277
-0.208 -0.419  0.386
 0.593 -0.286 -0.0598
-0.535  0.197  0.322
-0.159 -0.214 -0.539
 0.312 -0.382 -0.596
 0.435 -0.508  0.189
-0.586 -0.322 -0.00426
-0.499 -0.137 -0.262
-0.586 -0.0445  0.310
-0.585 0.0521  0.384
-0.311 -0.419 -0.572
 0.595 -0.153  0.334
-0.0870 0.0762 -0.220
-0.574 0.0634 -0.254
 0.384 0.0209 -0.258
 0.311 -0.0686 -0.0887
 0.238 -0.310 -0.608
-0.357 -0.454  0.333
 0.166 0.0641 -0.220
0.0578 -0.264 -0.801
-0.534 -0.431 -0.346
-0.316 -0.266 -0.580
-0.535 -0.129  0.379
 0.505 -0.218 -0.306
 0.557 -0.460  0.120
-0.585 -0.399 -0.137
 0.178 -0.141  0.385
-0.509 -0.462 -0.161
-0.171 -0.0798  0.346
 0.466 -0.399 -0.282
 0.502 -0.270 -0.0892
-0.389 -0.453 -0.00570
0.0217 0.0402 -0.220
-0.484 -0.493  0.201
 0.275  0.475  0.277
-0.522 -0.129  0.280
-0.268 -0.456 -0.0149
0.0217  0.160 -0.0642
0.0457 -0.0566  0.277
 0.595  0.426 -0.0405
-0.304  0.615  0.201
-0.220 -0.0686 -0.137
-0.586  0.281  0.116
 0.595  0.354  0.189
0.0941 -0.264 -0.596
-0.586  0.487 0.0802
-0.536  0.378  0.334
 0.215  0.615  0.225
-0.377 -0.238  0.277
 0.595 -0.358  0.116
 0.595 -0.0203  0.322
-0.292 -0.310 -0.0636
 0.468 -0.286  0.277
-0.0508  0.615  0.346
 0.311 -0.117  0.277
-0.171 -0.117 -0.0636
 0.118  0.438 -0.0636
 0.130  0.615  0.104
 0.118 -0.195 -0.644
 0.408  0.475 -0.0636
 0.595  0.390 0.0802
-0.0991  0.426 -0.0636
0.0941 -0.0686 -0.246
 0.468 0.0158  0.277
-0.111 0.0762  0.277
-0.00257 -0.105  0.277
-0.0146  0.487 -0.0636
-0.123 -0.0686 -0.209
-0.425 -0.0807  0.277
-0.0629 -0.264 -0.704
-0.586  0.450 0.0198
-0.304  0.475 -0.0636
-0.586 -0.189  0.346
 0.225  0.161  0.346
 0.118 -0.452  0.285
 0.529 -0.141  0.358
-0.196  0.615  0.189
 0.215 -0.0686 -0.101
 0.227 -0.452 0.0922
-0.208 -0.407 -0.0636
 0.595 -0.274 0.0319
-0.586 -0.213  0.116
-0.461 -0.165  0.277
 0.347  0.354 -0.0636
 0.154  0.233 -0.0636
-0.0267  0.615  0.261
 0.323  0.148 -0.173
 0.372 -0.0686 -0.246
 0.595 0.0401  0.177
-0.00257 0.0882  0.277
-0.256  0.233  0.277
-0.586  0.245 -0.0285
 0.420 -0.286 -0.0636
-0.586 -0.395  0.261
 0.360 0.0521  0.277
 0.239 0.0209 -0.270
-0.318 -0.263 -0.700
-0.123  0.615  0.261
-0.256 -0.452  0.310
-0.193 -0.462 -0.0828
 0.567  0.100 -0.209
-0.570  0.615 -0.0405
-0.425  0.233  0.277
-0.316 -0.452 0.0198
-0.585 -0.0642 -0.205
 0.517 -0.462 -0.294
-0.449 -0.451  0.321
 0.396 0.0882 -0.220
-0.232 -0.274  0.346
-0.413  0.601 -0.0895
 0.585 -0.419 -0.173
 0.513 -0.508 -0.208
-0.461 -0.0686 -0.306
 0.587 0.0399 -0.0633
 0.509  0.257 -0.0730
 0.585 -0.0203 -0.125
 0.504  0.197  0.277
-0.536 -0.334  0.298
0.0941 -0.193 -0.560
 0.225  0.185  0.298
 0.487 -0.502  0.153
 0.480 -0.0685 -0.294
 0.166 -0.358  0.385
 0.456 -0.462 -0.0518
 0.384  0.537  0.298
 0.504  0.318  0.277
 0.420 -0.0685 -0.0769
-0.596  0.609  0.346
-0.128 -0.464 -0.0898
-0.528 -0.201 -0.256
 0.128  0.233  0.287
 0.562  0.559 -0.0847
-0.485 0.0298 -0.225
-0.568  0.181 -0.0772
-0.319 -0.203 -0.620
-0.268 -0.193 -0.692
-0.232  0.209  0.358
-0.401  0.615  0.346
 0.529 -0.0727 -0.244
 0.391 -0.402  0.383
-0.585 -0.226  0.384
-0.204 -0.0644 -0.344
 0.553 -0.462 -0.0767
 0.492 -0.462 -0.222
-0.308 -0.366 -0.827
 0.489 -0.372 -0.0890
-0.0508 0.0209 -0.294
-0.171  0.522  0.358
 0.541  0.475  0.385
 0.541 -0.363 -0.233
 0.529  0.197  0.334
-0.497  0.487  0.277
-0.468 -0.460 -0.294
 0.132  0.185  0.322
 0.118  0.537  0.346
 0.275  0.535 -0.0636
-0.586 -0.419  0.310
-0.268 -0.467 -0.640
-0.244 -0.226 -0.542
-0.464 -0.443 -0.0763
 0.179  0.475  0.385
-0.596  0.609  0.189
0.0698  0.565 -0.0852
-0.535 0.0401  0.358
-0.586 -0.453 0.0561
 0.553 -0.462  0.347
 0.316 -0.214 -0.704
-0.196 -0.322  0.385
 0.504 -0.452 0.0319
-0.244  0.615 -0.0644
 0.492  0.475 -0.0635
0.0698 0.0216 -0.258
-0.437  0.148 -0.173
-0.0870  0.615  0.104
-0.316  0.535 -0.0636
0.0457  0.233 -0.0636
-0.341  0.615  0.165
-0.316  0.615  0.273
-0.586  0.523  0.261
 0.595 -0.322  0.213
 0.154 -0.452 0.0682
 0.251 -0.192 -0.777
 0.595 -0.117  0.273
 0.287 -0.370 -0.643
 0.335 -0.214 -0.0636
 0.595  0.499  0.165
-0.316 -0.0929 -0.0636
-0.586 -0.141 0.0802
-0.316  0.450  0.277
-0.280  0.378 -0.0636
-0.256  0.390  0.277
-0.341  0.173  0.277
 0.335 -0.310 -0.0636
-0.280 -0.370  0.277
 0.408 -0.214 -0.0636
0.0337 -0.189  0.277
 0.492 -0.452  0.249
 0.227  0.615 0.0439
-0.586  0.318  0.322
 0.263  0.245 -0.0636
-0.586  0.233  0.310
 0.142 -0.452 0.00778
 0.310 -0.294 -0.577
-0.159  0.115  0.282
-0.586  0.426  0.189
 0.595  0.306 0.0922
 0.595  0.125 0.0802
-0.135 -0.193 -0.644
 0.517 -0.0686 -0.185
-0.586  0.342  0.104
0.0698  0.233  0.277
 0.444 -0.398  0.298
 0.238 -0.431 -0.777
 0.307 -0.358 -0.777
-0.171 -0.382  0.358
-0.461 -0.0685 -0.0769
 0.118 -0.0685 -0.0769
-0.365  0.185 -0.0636
-0.536 -0.298  0.334
-0.558 -0.0565 -0.346
-0.147 -0.346  0.277
 0.492 -0.451  0.321
 0.133 0.0882  0.298
-0.437 -0.451  0.261
 0.608  0.603 -0.0285
-0.546  0.559  0.386
-0.449 -0.0325 -0.346
 0.611  0.583  0.213
-0.580  0.314 -0.0663
 0.276 0.0201 -0.304
 0.263 -0.382 -0.544
 0.263 -0.431 -0.640
-0.0387 -0.193 -0.584
-0.228 0.0882  0.384
 0.287 -0.398  0.346
 0.575 -0.396 -0.282
 0.552 -0.137 -0.269
 0.492  0.583  0.386
 0.179 -0.238 -0.542
 0.191  0.402  0.385
 0.562 -0.469 -0.199
 0.191  0.330  0.385
 0.155 0.0201 -0.304
 0.251 -0.407 -0.727
0.0105  0.146 -0.207
-0.303 -0.481 -0.823
 0.243  0.567 -0.0898
 0.132 -0.117  0.322
-0.280 -0.419 -0.0636
-0.171 -0.225  0.358
 0.251 0.0882  0.277
 0.251  0.354  0.277
 0.166 -0.0565 -0.346
 0.456 0.0209 -0.270
-0.0750 -0.226 -0.542
-0.245 -0.431 -0.596
 0.287 -0.334 -0.726
 0.227 -0.193 -0.656
 0.263 -0.195 -0.729
-0.586  0.511  0.153
0.0457  0.148 -0.125
-0.123  0.209  0.277
 0.432 -0.346 -0.0636
-0.0267 -0.201 -0.0636
 0.142 -0.193 -0.716
 0.444 -0.226  0.277
 0.595 -0.0686  0.225
-0.147 -0.419 -0.0636
-0.586  0.221  0.249
 0.384  0.318  0.277
 0.595 -0.358 0.0198
-0.353 -0.358 -0.0636
-0.389 -0.298 -0.0636
 0.456  0.615  0.322
-0.232  0.366  0.334
-0.232 0.00378  0.334
-0.485 -0.397  0.370
-0.497  0.366  0.277
 0.480  0.148 -0.185
-0.461  0.209 -0.0636
-0.147 -0.0686 -0.270
-0.0750  0.209 -0.0636
-0.135 0.0882 -0.220
-0.425  0.366 -0.0636
 0.595 -0.0927  0.116
0.0457 -0.193 -0.656
-0.0267 -0.452 0.0922
-0.586 -0.0445 0.0922
-0.232  0.615 0.0439
-0.0870 -0.452 0.0802
-0.586 0.0401 0.0682
 0.396 -0.117 -0.0636
-0.220  0.221 -0.0636
-0.425 -0.129 -0.0636
-0.280 -0.193 -0.584
-0.473  0.438 -0.0636
-0.123 -0.193 -0.716
-0.0870 -0.398  0.334
 0.118  0.615  0.177
 0.179  0.390 -0.0636
-0.586 -0.419 -0.246
 0.595 -0.226  0.297
 0.106  0.615 0.0561
 0.179  0.615  0.116
 0.287 -0.201  0.277
 0.323  0.281  0.277
 0.529 -0.250  0.322
-0.245 -0.370 -0.777
-0.135 -0.177 -0.0636
 0.323 -0.238  0.277
 0.191 -0.395 -0.0636
-0.0628 -0.346  0.277
 0.311  0.615 -0.00426
-0.586 -0.298  0.201
 0.311  0.426 -0.0636
 0.396 -0.213  0.277
 0.275 -0.0686 -0.234
-0.0146 -0.334 -0.0636
 0.595 -0.310  0.129
-0.292 -0.452  0.237
0.0337 -0.274 -0.0636
 0.130  0.112 -0.220
 0.275  0.615  0.116
 0.106  0.615  0.237
0.0698  0.615  0.273
-0.586 -0.370 0.00778
 0.347  0.197 -0.0636
 0.215  0.475 -0.0636
 0.595 -0.407  0.201
 0.595 -0.286  0.358
 0.348  0.615 0.0319
-0.292 -0.334 -0.542
 0.142  0.148 -0.125
 0.154  0.523 -0.0636
 0.360  0.615  0.141
 0.142 -0.250 -0.0636
 0.595 -0.395 -0.0405
-0.586 -0.105  0.165
 0.595  0.221 -0.0285
-0.135  0.438  0.277
-0.00257 -0.286  0.277
 0.595 -0.0324  0.141
-0.449  0.173  0.277
-0.341 0.0158  0.277
-0.0870 -0.193 -0.753
0.0578  0.161  0.277
0.0337  0.615  0.116
-0.292 -0.322  0.277
-0.586  0.125  0.116
0.0698  0.342  0.277
-0.292 -0.0686 -0.294
-0.304 0.0762  0.277
-0.123 -0.0807  0.277
-0.586 0.0158  0.153
 0.468 -0.105  0.277
 0.225 -0.382  0.310
-0.196 -0.452  0.201
-0.268 -0.238 -0.828
-0.256 -0.419 -0.643
-0.184 -0.193 -0.822
-0.449  0.257 -0.0636
 0.408  0.559  0.386
 0.118 -0.198 -0.813
 0.504 -0.334  0.277
 0.133  0.342  0.298
-0.509 -0.452  0.310
 0.577  0.547  0.386
-0.586 -0.453 -0.0646
0.0819 -0.0203 -0.346
-0.570  0.221  0.386
-0.308 -0.282 -0.827
 0.192 -0.260 -0.623
 0.605  0.565  0.261
-0.159  0.148 -0.0771
 0.225 0.0762  0.370
0.0217  0.615 -0.0405
-0.586 -0.382  0.379
-0.494 -0.213 -0.300
-0.248 -0.0726 -0.0686
 0.307 -0.298 -0.789
-0.0629 -0.0929 -0.0636
-0.135 -0.0686 -0.113
 0.592 -0.206  0.383
 0.444 -0.453 -0.00531
-0.0387 -0.0686 -0.113
-0.466 -0.453 -0.209
 0.299  0.112 -0.220
0.0578  0.537  0.379
-0.521  0.476 -0.0788
 0.587 -0.462 0.0802
 0.203  0.607 -0.0862
 0.252 -0.0122 -0.343
-0.584  0.403  0.384
 0.128 -0.0445  0.287
 0.128  0.137  0.287
-0.171  0.270  0.321
-0.509 -0.0445  0.277
 0.132 -0.141  0.370
-0.553 -0.286 -0.0727
 0.239 -0.382 -0.777
-0.0222 -0.453 -0.0912
 0.468  0.547 -0.0635
-0.389  0.148 -0.0889
-0.311 -0.310 -0.608
-0.535 -0.0203  0.370
 0.225 -0.0203  0.346
-0.401  0.137  0.277
 0.557 -0.460  0.169
 0.595  0.209  0.358
-0.159  0.615 -0.00426
-0.535  0.137  0.379
 0.595  0.112 -0.0163
0.0941 0.0401  0.277
-0.220 -0.193 -0.680
-0.586  0.414 0.0561
 0.420  0.615  0.177
 0.142 -0.452  0.177
-0.585 -0.0566  0.384
0.00947 -0.193 -0.822
 0.456  0.366  0.277
0.0457 -0.00827  0.277
-0.510 -0.451  0.128
-0.586 -0.117  0.213
0.0578 -0.452 0.0439
 0.396  0.615  0.237
-0.135 -0.262 -0.668
-0.111  0.573 -0.0906
0.0457  0.402 -0.0636
-0.586  0.390  0.104
-0.586 -0.153 0.0198
-0.586 0.0521 -0.0285
-0.473 -0.286  0.277
-0.172 0.0294  0.367
-0.558 -0.0686 -0.161
-0.586  0.475 -0.0285
-0.304 -0.0686 -0.185
-0.437 -0.452 0.0560
 0.595 -0.0686  0.177
-0.00257  0.615  0.213
-0.123  0.616  0.213
-0.586 -0.0686  0.261
 0.166  0.615  0.297
-0.249 -0.423 -0.727
 0.142 -0.462 -0.0405
-0.256 -0.201  0.277
 0.518 -0.213 -0.0965
-0.586 -0.165  0.285
 0.203 -0.298 -0.0636
-0.232 -0.322  0.346
-0.292 -0.262 -0.0636
 0.287 -0.407 -0.0636
-0.473 -0.262 -0.0636
-0.586 -0.395  0.213
 0.191 -0.346 -0.0636
 0.154  0.615 -0.0285
-0.461  0.615  0.201
0.0700 -0.0686 -0.318
0.00961  0.487  0.277
 0.439 -0.402  0.383
 0.420  0.125  0.277
-0.585 -0.153  0.384
-0.244 -0.165 -0.0636
 0.595  0.293 0.0319
-0.244 -0.0686 -0.234
 0.595  0.161  0.165
 0.541 0.0399  0.386
-0.377  0.615 0.0319
-0.449  0.615  0.141
 0.582 -0.453 -0.344
-0.353 -0.398  0.370
 0.595  0.100  0.322
0.0980 -0.458  0.341
-0.0991 -0.452  0.273
 0.239 -0.452 0.00778
-0.576 0.0882 -0.113
-0.586 -0.407 0.0439
-0.546  0.583 -0.0908
 0.130 -0.264 -0.549
 0.595  0.511  0.297
 0.323  0.148 -0.125
 0.566  0.100 -0.113
-0.570 -0.462  0.177
 0.586 -0.0119 -0.0779
-0.187 -0.0561  0.385
-0.498 -0.117 -0.306
 0.132 -0.334  0.346
 0.225  0.245  0.334
 0.179 -0.274  0.385
-0.220 -0.00774 -0.338
 0.592 -0.00120  0.383
-0.353 -0.431 -0.0636
 0.251 -0.453 -0.0632
-0.208 -0.264 -0.813
-0.353 -0.452  0.285
 0.561  0.342 -0.0743
 0.588  0.615  0.116
-0.436  0.134 -0.219
-0.473  0.611 -0.0814
-0.0267 -0.398  0.334
 0.594 -0.459  0.273
-0.534 -0.419  0.385
-0.601  0.567 -0.0365
 0.311 -0.262 -0.620
 0.541 -0.407 -0.346
 0.348  0.614 -0.0738
 0.585 -0.0325 -0.294
 0.553  0.354  0.385
-0.401 -0.408  0.386
 0.527 -0.310 -0.255
 0.553 -0.0686 -0.125
 0.408  0.611 -0.0814
 0.608  0.567 -0.0851
-0.0387 -0.258 -0.540
-0.582  0.133 -0.0670
 0.238  0.536  0.346
-0.196  0.161  0.386
-0.126 -0.262 -0.623
 0.493 -0.0101 -0.340
-0.501 -0.189 -0.0745
 0.315 -0.238 -0.777
-0.308 -0.476 -0.727
 0.456  0.318 -0.0636
 0.567 0.0521 -0.210
-0.212  0.601  0.385
-0.501 -0.366 -0.177
-0.0991 -0.0203 -0.346
 0.529  0.616 -0.0526
0.00961  0.573 -0.0906
 0.203 -0.201  0.386
 0.225  0.390  0.322
-0.171 0.0279  0.322
-0.527  0.282 -0.0837
-0.0146  0.148 -0.0887
-0.522  0.269  0.280
-0.534 -0.462 -0.113
 0.517 -0.397  0.322
 0.595 -0.0927  0.370
 0.480  0.524  0.280
 0.561  0.414 -0.0743
 0.524  0.438  0.287
-0.596  0.609  0.297
 0.191 -0.264 -0.668
 0.203  0.173  0.385
-0.535  0.378  0.379
-0.308 -0.298 -0.727
-0.171 -0.0897  0.299
 0.586  0.293  0.385
 0.529 -0.189  0.322
-0.244 0.0401  0.280
-0.401 -0.462  0.349
-0.171  0.394  0.311
 0.545  0.488 -0.0889
 0.134 0.0652  0.378
 0.416  0.557 -0.0679
-0.0639 -0.409  0.385
 0.528 -0.298 -0.314
 0.545  0.174 -0.0889
 0.529 0.0266 -0.283
 0.275 -0.443 -0.545
-0.164  0.601  0.385
-0.558 -0.0706 -0.0896
-0.586  0.511  0.346
 0.275 -0.382 -0.828
 0.487 -0.137 -0.0712
-0.501  0.557 -0.0679
-0.0146  0.524  0.280
-0.179 -0.132  0.381
 0.242 -0.370 -0.584
-0.268 -0.334 -0.726
 0.130  0.565 -0.0852
-0.280  0.499  0.277
-0.576 0.0641 -0.209
 0.487 -0.185 -0.0712
-0.145 -0.262 -0.581
 0.313 -0.214 -0.656
 0.397 -0.00421 -0.333
 0.541 -0.0445 -0.346
-0.524 -0.507 -0.262
-0.558 -0.462 -0.185
-0.558 -0.462  0.358
 0.251 -0.238 -0.542
-0.596  0.609  0.104
 0.335 -0.0445 -0.346
 0.396 -0.452  0.165
 0.263 -0.455 -0.825
 0.239 -0.274  0.280
 0.603  0.610 0.0158
 0.440 -0.457  0.114
 0.519 -0.177 -0.255
-0.586 -0.0202 -0.0887
-0.0387 -0.195 -0.680
0.00961 -0.264 -0.777
 0.577  0.161  0.386
 0.191 -0.264 -0.765
-0.522  0.148 -0.125
 0.215 -0.238 -0.825
-0.365 -0.0566  0.277
-0.0629  0.148 -0.161
 0.432  0.450  0.277
-0.0146 0.0158  0.277
 0.565  0.615  0.201
-0.586 0.0641  0.177
0.0819 -0.452  0.104
-0.377  0.112 -0.220
-0.232 -0.452 0.0682
-0.413  0.306  0.277
-0.0267 -0.262 -0.632
-0.304 -0.250 -0.539
-0.268 -0.452  0.177
 0.595 0.00378  0.225
-0.0870  0.615  0.237
 0.215 -0.0686 -0.294
-0.586 -0.310 0.0922
-0.135  0.615  0.334
-0.171  0.186  0.334
 0.595 -0.382 0.0561
-0.0509 -0.452  0.285
-0.586 0.0279  0.249
-0.586 -0.0927  0.334
 0.408  0.148 -0.113
-0.401 -0.322  0.277
 0.595 -0.201  0.129
-0.586 -0.238 0.0319
 0.595 -0.250  0.201
-0.232 -0.189  0.346
 0.595 -0.431  0.165
0.0337 -0.0807 -0.0642
-0.135  0.318  0.277
-0.292 -0.129  0.277
-0.208 0.0209 -0.258
-0.509  0.148 -0.185
-0.328  0.390  0.277
-0.123 0.0280  0.277
-0.268 -0.193 -0.741
-0.304  0.414 -0.0636
-0.389 -0.0686 -0.137
-0.268 -0.0686 -0.113
 0.517 -0.363 -0.137
0.0941  0.475 -0.0636
-0.353 -0.452 0.0439
-0.473 -0.452  0.104
0.0457  0.305 -0.0636
0.0578 0.0762 -0.220
-0.244 -0.195 -0.777
-0.586  0.330 0.0198
 0.595  0.330 0.00778
-0.0629  0.615  0.141
-0.534  0.615 0.0922
-0.171 -0.195 -0.608
0.00947  0.426 -0.0636
-0.171 -0.177  0.334
 0.132 -0.177  0.346
-0.509  0.318  0.277
 0.225 -0.141  0.334
 0.130 -0.165 -0.0636
-0.586 -0.226  0.225
 0.132 -0.250  0.358
 0.225 -0.274  0.334
 0.227 -0.452  0.273
 0.593  0.293 -0.0598
-0.0508 -0.189  0.277
 0.275 -0.452  0.261
 0.251  0.615  0.249
-0.0508  0.209  0.277
0.0700 -0.0927  0.277
0.0698  0.148 -0.173
 0.130 -0.0686 -0.306
-0.220 0.0882 -0.220
-0.377 -0.452  0.129
 0.432 -0.0686 -0.173
0.0941  0.221 -0.0636
-0.316  0.148 -0.137
 0.595 0.0641 0.0561
-0.159  0.475 -0.0636
0.0217 -0.264 -0.632
0.0578  0.487  0.277
 0.203 0.0882 -0.220
 0.360 -0.0686 -0.294
-0.401 -0.165 -0.0636
 0.595  0.402  0.273
 0.420  0.615  0.273
 0.595 -0.0566  0.273
-0.147 -0.452  0.297
 0.166  0.185 -0.0636
 0.595  0.281  0.310
 0.215  0.269 -0.0636
-0.184 -0.322 -0.0636
-0.497 -0.322  0.277
-0.586  0.462  0.261
-0.401 -0.214 -0.0636
 0.179 -0.452  0.201
0.0337 -0.452  0.310
 0.323 -0.452 0.0922
-0.0508  0.615  0.297
 0.595 -0.177 0.0802
-0.586 -0.370  0.153
-0.0629 -0.238 -0.0636
 0.239  0.185 -0.0636
 0.142 -0.0686 -0.173
-0.220 -0.452  0.249
 0.275 -0.195 -0.632
-0.218  0.488  0.385
 0.225 -0.201  0.346
-0.437  0.615  0.322
 0.142  0.615  0.334
 0.456 0.0641 -0.220
-0.586  0.535 0.0682
 0.384 0.0158  0.277
-0.437 -0.129  0.277
 0.323 -0.105 -0.0636
-0.586 -0.189  0.177
 0.287  0.390 -0.0636
 0.191 -0.193 -0.704
 0.132  0.293  0.310
 0.263  0.354 -0.0636
-0.256 -0.286 -0.0636
 0.504  0.537  0.346
 0.360 -0.452 0.0560
 0.287 0.0401  0.277
 0.106 -0.274  0.277
 0.595  0.475  0.225
0.0457 -0.262  0.277
0.0217  0.615  0.346
0.0698  0.148 -0.0889
0.0939 -0.193 -0.741
-0.232  0.148 -0.149
-0.389  0.462  0.277
 0.432  0.402  0.277
-0.586  0.137 0.00778
-0.0509 -0.452  0.165
-0.292 -0.153 -0.0636
-0.0508 -0.117  0.277
 0.595 -0.0686 0.0441
-0.437 0.0882  0.277
0.0337  0.112  0.277
 0.595  0.402  0.177
 0.595  0.487  0.116
-0.208  0.475 -0.0636
-0.0146  0.305 -0.0636
-0.401  0.330 -0.0636
 0.595  0.414  0.116
0.00947  0.615 0.0198
 0.504 -0.363 -0.197
-0.220  0.615  0.153
-0.00257  0.221 -0.0636
-0.0508 -0.0686 -0.246
-0.586  0.221 0.00778
-0.328  0.257  0.277
-0.147  0.390 -0.0636
-0.461 -0.452 0.0198
-0.461  0.426  0.277
-0.579 -0.462 -0.234
-0.0991  0.615 -0.0285
 0.595  0.149 -0.0521
 0.348  0.559  0.386
-0.555 -0.373 -0.294
-0.493 -0.365 -0.293
 0.287 -0.298 -0.828
-0.316  0.173 -0.0636
-0.232 -0.0807  0.346
-0.509 -0.462 -0.306
-0.512 -0.322 -0.256
-0.232  0.511  0.322
 0.568 -0.391 -0.206
-0.232 -0.262 -0.572
 0.529  0.402  0.310
 0.203 -0.395  0.386
-0.497  0.148 -0.0771
 0.315 -0.226 -0.549
 0.560 -0.310 -0.0731
-0.268 -0.419  0.386
-0.272 -0.275 -0.647
-0.236  0.125  0.287
 0.420 -0.452  0.310
 0.179 -0.193 -0.560
-0.555 -0.372 -0.173
-0.453 -0.466  0.213
 0.191 0.00378  0.386
0.0820  0.533  0.287
-0.497  0.366 -0.0635
 0.138 -0.260 -0.713
-0.535 -0.274 -0.259
-0.123 -0.456 -0.0149
0.0346 0.0201 -0.304
-0.365  0.537  0.298
-0.522 -0.370  0.280
 0.512 -0.502 -0.257
-0.576  0.125 -0.185
 0.465 -0.431 -0.234
-0.570 -0.453 -0.346
 0.553 -0.0686 -0.209
 0.504  0.269  0.277
 0.465 -0.431 -0.137
-0.449  0.535 -0.0636
-0.0551 -0.472 -0.110
-0.244 -0.129  0.280
-0.509  0.112  0.277
 0.299 -0.462  0.358
-0.548 -0.0748 -0.309
 0.504 -0.419  0.385
 0.287 0.0302 -0.225
 0.595  0.306  0.346
-0.179  0.352  0.380
-0.313 -0.193 -0.813
 0.595  0.499  0.346
-0.159 -0.295  0.282
0.0217 -0.431  0.386
-0.541 -0.458  0.213
 0.432 -0.443  0.386
-0.244 -0.395 -0.560
-0.535  0.414  0.310
-0.316  0.148 -0.185
 0.287  0.601 -0.0895
-0.544  0.212 -0.0902
-0.586 -0.443 -0.149
 0.227  0.148 -0.0771
-0.0387 -0.203 -0.827
-0.232 -0.264 -0.656
0.0829 -0.226 -0.825
-0.184  0.607 -0.0862
-0.475 -0.419 -0.346
-0.272 -0.195 -0.542
 0.541 -0.358  0.385
 0.238 -0.274 -0.765
0.0780 -0.0726 -0.0686
 0.456 -0.0686 -0.330
 0.529 -0.310  0.370
 0.595 -0.408  0.378
 0.243 -0.342 -0.639
-0.574  0.418 -0.0707
 0.275  0.615 -0.0405
 0.566 0.0641 -0.0890
 0.434 -0.467  0.165
-0.586 -0.419 -0.101
 0.595 -0.201 -0.0285
-0.316 -0.221 -0.662
-0.546 -0.334  0.385
-0.159 -0.186  0.282
-0.0870 -0.443  0.386
 0.145  0.319  0.385
 0.583 -0.460 -0.234
 0.267 -0.261 -0.679
 0.577  0.185 -0.0641
-0.171  0.426  0.346
 0.595 -0.0807 -0.0405
 0.586 0.0390  0.385
 0.130 -0.431 -0.0636
 0.567  0.136 -0.161
 0.504  0.402  0.277
 0.492 -0.431 -0.346
-0.208 -0.452  0.297
 0.509  0.354 -0.0730
 0.396 -0.443 -0.0636
-0.567 0.00561 -0.308
 0.408 -0.370  0.277
 0.130 -0.264 -0.620
-0.535 0.0641  0.322
-0.121 -0.262 -0.811
-0.586 -0.0561 -0.0646
 0.479 -0.466  0.119
0.0457 -0.264 -0.572
 0.583 -0.460 -0.113
 0.516  0.148 -0.101
 0.132 -0.358  0.310
 0.237 -0.481 -0.761
-0.531  0.165  0.287
0.0215 -0.193 -0.596
 0.517  0.499  0.280
-0.509 -0.452 0.00778
-0.228 -0.298  0.384
 0.241 -0.476 -0.596
 0.471 -0.462 -0.0887
-0.280 -0.334 -0.828
-0.582 -0.00408 -0.125
-0.361  0.607  0.381
-0.353 0.0213 -0.294
-0.268 -0.481 -0.543
 0.230 -0.0525  0.287
 0.360 -0.431  0.386
 0.555 -0.290 -0.275
-0.521 -0.250 -0.314
 0.275 -0.467 -0.727
-0.473 -0.443  0.386
 0.241 -0.266 -0.609
 0.465 -0.431 -0.306
-0.280 -0.394 -0.825
 0.191  0.221  0.385
 0.132 -0.0807  0.346
 0.238 -0.322 -0.765
-0.449 0.0521 -0.220
 0.595 -0.262 -0.0285
 0.568 -0.391 -0.133
-0.0267 -0.264 -0.813
-0.377 -0.0686 -0.330
 0.501 -0.213 -0.267
-0.268 -0.198 -0.813
-0.158  0.142 -0.215
-0.586  0.366 -0.0285
 0.118 0.0239 -0.233
-0.425 -0.00421 -0.334
 0.143 -0.226 -0.825
-0.497 -0.372 -0.222
-0.308 -0.443 -0.765
 0.577  0.615 0.0439
 0.119 -0.226  0.280
 0.528 -0.298 -0.0971
-0.244 -0.383  0.283
 0.575 -0.0682 -0.306
-0.0387  0.547 -0.0635
0.0819 -0.398  0.358
 0.263  0.571  0.386
-0.545 -0.238 -0.268
-0.585 -0.399 -0.306
0.00947 -0.398  0.358
-0.585 -0.460  0.132
0.0820 0.0122 -0.325
 0.570 0.00195 -0.304
 0.529 0.0158  0.358
-0.302 -0.382 -0.643
-0.553 -0.238 -0.0727
-0.232  0.305  0.379
-0.308 -0.454  0.333
-0.497 -0.462 -0.0767
-0.0870 -0.0686 -0.318
-0.535  0.511  0.370
-0.596  0.609  0.249
-0.456 -0.479  0.177
-0.292  0.573 -0.0906
 0.166 -0.462  0.349
-0.0267 -0.462  0.349
 0.529  0.438  0.379
-0.0983 -0.262 -0.727
 0.529  0.378  0.358
 0.215 -0.0807 -0.0642
-0.531  0.213  0.287
-0.500 -0.347 -0.0755
-0.521  0.100 -0.221
-0.413 0.0209 -0.270
-0.570 -0.153 -0.0635
-0.389  0.148 -0.198
 0.203 -0.453 -0.00531
-0.522  0.450  0.280
-0.461  0.537  0.358
 0.106 -0.195 -0.692
-0.256 -0.298  0.277
