ply
format ascii 1.0
element vertex 2048
property float x
property float y
property float z
end_header
-0.0223  0.503  0.391
 0.629 -0.520 -0.577
-0.616 -0.148 -0.571
-0.429 -0.548  0.481
 0.437 -0.274  0.449
 0.370  0.170 -0.250
-0.255 -0.0272 0.0116
0.0265 -0.276 -0.638
-0.396  0.151  0.483
 0.191 -0.276 -0.0444
 0.395  0.241  0.484
-0.0598 -0.208  0.441
 0.609 -0.0510 -0.587
-0.435  0.173 -0.341
 0.407 0.0239  0.139
0.0152 -0.0272 -0.318
-0.345 -0.276 -0.292
-0.363  0.585  0.568
 0.504 -0.262 -0.276
-0.270 -0.0252 -0.647
-0.591 -0.523 -0.579
 0.337  0.610  0.522
0.0526  0.143  0.325
-0.406 -0.177  0.313
 0.270 -0.0270 -0.565
 0.214 -0.276 -0.394
 0.180 -0.277  0.259
-0.107 -0.276 -0.0734
-0.424 -0.275 0.00672
0.0376 -0.0275 0.0791
 0.255 -0.0380  0.452
-0.400  0.170  0.177
-0.615  0.146 -0.576
 0.378 -0.559  0.476
 0.393 -0.276 -0.640
-0.285  0.391  0.369
-0.202 0.0155  0.301
 0.422 -0.255  0.109
-0.376 -0.277 -0.627
 0.480  0.172 -0.498
-0.247 -0.0269 -0.258
 0.270 -0.0272 -0.101
-0.0890 -0.276 -0.365
 0.128  0.329  0.521
-0.127  0.220  0.500
-0.0969 -0.276  0.193
-0.429  0.170 -0.0789
-0.00735 -0.0250 -0.663
-0.517 -0.0661 -0.354
 0.512 -0.00606 -0.335
 0.604 -0.276 -0.509
-0.441 -0.0810 -0.129
 0.255 -0.0275 -0.333
0.0976  0.603  0.558
 0.289  0.442  0.379
-0.135  0.603  0.558
 0.345  0.172 -0.0183
 0.315  0.173  0.289
-0.360 -0.341  0.447
 0.210 -0.0275  0.214
-0.552 -0.273 -0.407
 0.410 -0.111  0.312
-0.150 -0.0275 -0.453
 0.435 -0.158 -0.0818
-0.0598 -0.0275 -0.123
-0.0148 -0.00556  0.459
0.0666 -0.276 -0.230
-0.177 -0.258 -0.671
-0.403 -0.0510  0.146
-0.330 -0.0504  0.451
 0.222 -0.251  0.453
-0.457 -0.0275 -0.565
 0.200 -0.186 -0.656
-0.240  0.203  0.336
-0.297 -0.276  0.152
 0.423 0.0539  0.432
-0.105  0.406  0.535
 0.158  0.127  0.483
-0.0517  0.317  0.357
-0.577 -0.328 -0.610
 0.446 0.0314 -0.132
 0.323 -0.276 -0.179
-0.223 -0.276  0.337
0.0688 -0.276 0.0961
-0.379  0.384  0.530
 0.383  0.419  0.537
0.0826 -0.0275 -0.491
 0.188  0.293  0.352
-0.271 -0.276 -0.479
-0.0373 -0.0275  0.244
 0.441 -0.103 -0.628
-0.407 0.0689  0.327
 0.399 -0.276 -0.465
-0.352 -0.0275 -0.401
 0.369 -0.277  0.275
-0.461 -0.250 -0.161
 0.217  0.474  0.548
 0.113 -0.0270 -0.176
-0.195 0.0551  0.470
 0.105 -0.126  0.436
-0.303  0.159 0.0345
 0.143  0.540  0.396
-0.225  0.545  0.400
-0.264 -0.276 -0.135
 0.623  0.121 -0.567
 0.405 -0.0269 -0.468
-0.467 0.0539 -0.222
-0.469  0.159 -0.504
 0.511  0.169 -0.331
0.0760 -0.277  0.387
 0.560 -0.139 -0.438
 0.250 -0.276  0.114
-0.180 -0.102  0.441
-0.417 0.0314 -0.00384
 0.202 -0.0273 0.0416
-0.172 -0.0275  0.154
 0.266 -0.276 -0.549
 0.372 -0.410  0.412
-0.282 -0.126  0.207
 0.150 -0.0252 -0.662
-0.371 -0.126 -0.272
-0.565 0.0389 -0.456
-0.247  0.487  0.550
 0.300  0.151  0.139
 0.348 -0.276 -0.0214
 0.470 -0.0935 -0.220
-0.295 0.0614  0.176
 0.120 -0.276 -0.513
0.0226  0.220  0.500
-0.240  0.317  0.518
-0.134 -0.103 -0.664
-0.130 -0.276 -0.223
-0.443 -0.137 -0.467
 0.355 -0.276 -0.323
0.0451  0.449  0.543
-0.348  0.136 -0.197
-0.123 -0.276 -0.508
-0.307 -0.126 -0.0926
-0.479 -0.171 -0.613
 0.412 -0.116 0.0664
-0.322 -0.201  0.441
-0.0897  0.166  0.329
0.0346 -0.276 -0.0439
 0.202 0.0763  0.312
 0.240  0.241  0.504
-0.112 -0.0275 0.0191
 0.594 -0.380 -0.605
0.0349 -0.276  0.246
-0.414 -0.111 0.0182
-0.406 -0.276 -0.435
 0.337 -0.171  0.441
 0.374 0.0114 -0.269
-0.172 -0.276 0.0762
 0.315  0.127  0.483
0.0751  0.406  0.373
 0.554 -0.178 -0.599
 0.421 0.00829 0.00211
-0.299 -0.163 -0.645
-0.262  0.182  0.493
-0.615 -0.00355 -0.576
 0.419 0.0864 -0.389
 0.409 0.0614  0.297
 0.575 0.0414 -0.468
-0.402 -0.193  0.176
-0.120 -0.0275 -0.303
-0.491 -0.223 -0.290
 0.448  0.166 -0.139
-0.277 -0.0275 -0.513
-0.142  0.443  0.380
0.0761 -0.140 -0.667
 0.519 -0.276 -0.405
-0.324 0.0539 -0.0931
 0.516 0.0414 -0.591
 0.307 0.0608 0.0404
 0.454 -0.276 -0.133
-0.187 -0.0275 -0.101
 0.201 -0.276 -0.219
 0.306  0.264  0.394
0.0751 0.00107  0.298
 0.113 0.00681  0.461
0.0526 -0.0275 -0.0634
 0.411  0.172  0.371
 0.332 0.0914 -0.115
-0.294 -0.139 0.0564
-0.567 -0.110 -0.461
-0.0673  0.107  0.479
0.0884 -0.276 -0.392
-0.0983 -0.276  0.324
 0.319 -0.123 -0.649
-0.0448 -0.0275 -0.521
 0.476 0.0914 -0.237
 0.299 0.0602  0.236
 0.202 -0.0272 -0.446
-0.165 -0.276  0.446
 0.411  0.166 0.0864
-0.410 -0.0510  0.357
-0.432 0.0689 -0.428
-0.367  0.285  0.458
-0.518 0.0764 -0.602
-0.187  0.312  0.356
-0.0223  0.549  0.561
 0.225  0.594  0.571
-0.540  0.159 -0.405
 0.406 -0.126  0.191
-0.255  0.606  0.518
 0.135 -0.0275 -0.303
-0.367 -0.00606 -0.260
 0.403  0.173  0.207
 0.293 -0.0246  0.124
 0.250  0.533  0.449
-0.350 -0.277  0.280
-0.0557 -0.276 0.0532
 0.390 -0.0649  0.448
-0.508 0.0545 -0.333
-0.172 -0.0275 -0.581
-0.0585 -0.199 -0.664
-0.606 -0.250 -0.514
-0.352  0.173  0.334
 0.270  0.372  0.529
 0.272 -0.277  0.352
0.0976 -0.0275  0.184
-0.424 -0.249  0.402
-0.474 -0.0810 -0.245
-0.0148  0.334  0.522
 0.485 -0.277 -0.542
0.0751  0.268  0.348
-0.484 -0.277 -0.568
 0.277 -0.0272 -0.221
-0.367  0.495  0.497
-0.428 -0.186 -0.0666
-0.385 -0.450  0.424
 0.523  0.168 -0.603
 0.512 -0.148 -0.335
-0.405 0.0614  0.104
-0.417 -0.126  0.440
-0.240 -0.0269 -0.386
-0.401 0.0389  0.214
-0.252 -0.277 -0.589
-0.436 0.0614 -0.110
-0.281 -0.0436  0.131
-0.401 0.0317  0.464
 0.464 0.0639 -0.486
-0.110  0.533  0.448
 0.144 -0.277 -0.634
-0.320 -0.276 -0.0241
 0.188  0.187  0.333
 0.270 -0.268 -0.662
-0.411  0.165 0.0345
-0.455  0.165 -0.184
-0.0148 0.0603  0.309
-0.284 0.0834  0.314
 0.406 -0.0285  0.237
-0.291 -0.0437  0.287
-0.0673 -0.0275  0.117
 0.230 -0.145  0.441
 0.375 -0.0275 -0.588
-0.614 -0.418 -0.564
-0.300 0.0767  0.474
-0.199 -0.276  0.224
-0.301 0.0539 0.0641
-0.336 -0.0360 -0.150
-0.266 -0.276 -0.364
-0.294  0.165  0.198
0.0526 0.0927  0.477
-0.303  0.286  0.355
-0.402 -0.0885  0.244
-0.0523 -0.0275 -0.416
-0.0223 -0.0275 -0.221
 0.414 -0.231  0.357
-0.381 -0.0343 -0.636
-0.406 -0.134 -0.371
 0.562  0.141 -0.443
-0.0748 -0.0879  0.443
-0.187  0.115  0.319
 0.173  0.443  0.380
-0.376 0.0914 -0.289
-0.289  0.466  0.439
 0.413 -0.276 -0.226
 0.115  0.525  0.493
-0.390 -0.276  0.112
 0.326 -0.276  0.183
 0.428  0.121 -0.0497
 0.323 -0.276  0.439
 0.463 -0.191 -0.197
 0.377  0.518  0.529
 0.173 -0.0275 -0.543
-0.205 -0.276 -0.0513
 0.233 0.0623  0.471
 0.419 -0.213 0.00624
 0.173 -0.0273 -0.0858
 0.300 -0.0275 -0.431
-0.532 -0.178 -0.390
 0.591 -0.277 -0.606
 0.433 -0.0485 -0.0765
0.0751 -0.0275 -0.588
-0.127 -0.0275 -0.206
-0.440 -0.0422 -0.444
 0.345  0.323  0.465
-0.323  0.151 -0.0878
-0.0985 -0.277 -0.616
 0.256 -0.00512  0.297
 0.165 -0.276 0.0672
-0.262 -0.276  0.442
-0.546 -0.0885 -0.600
-0.371 -0.276 -0.530
 0.292 -0.0272 0.00412
 0.381 -0.320  0.373
 0.120  0.214  0.499
 0.159 -0.276 -0.316
 0.178 -0.277  0.369
 0.247 -0.0436 -0.657
-0.474 0.0614 -0.513
 0.412  0.172 -0.348
-0.00311 -0.276 -0.324
 0.112 -0.276  0.181
 0.406 -0.00854 -0.357
 0.602 -0.141 -0.523
 0.337 0.0319  0.466
 0.117 -0.276 -0.104
-0.343 -0.134 -0.180
 0.105 -0.0272 -0.393
-0.0223  0.406  0.373
-0.562  0.173 -0.498
-0.295  0.368  0.462
 0.270  0.345  0.362
-0.105  0.505  0.553
-0.393 -0.137 -0.633
-0.0252 -0.276  0.385
-0.375 -0.0273 -0.521
-0.525  0.170 -0.601
 0.347 0.0164 -0.175
 0.557 -0.0435 -0.433
 0.128 -0.216  0.441
0.0226  0.529  0.468
-0.482  0.136 -0.267
 0.296  0.462  0.487
-0.277 -0.0270 -0.0784
0.00265 -0.140  0.439
-0.322  0.173  0.424
 0.135  0.429  0.539
-0.202  0.399  0.534
 0.338 -0.276 0.0810
-0.0139 -0.276  0.155
 0.408 -0.239  0.199
 0.113 -0.0275 0.0266
 0.404 -0.472  0.486
 0.344  0.170 -0.159
-0.180  0.145  0.486
 0.473 -0.0251 -0.527
-0.443 -0.276 -0.346
-0.406 -0.276 -0.0943
-0.224 -0.111 -0.657
-0.127 -0.0275  0.251
 0.166 -0.0104  0.296
 0.323  0.172  0.386
-0.570 -0.232 -0.595
 0.423 -0.148  0.424
-0.457 -0.148 -0.189
-0.0298  0.231  0.341
-0.225 -0.0273  0.455
-0.344 0.0464 -0.180
-0.415  0.159  0.394
-0.0972 0.0248  0.464
-0.0972 -0.0275 -0.640
 0.173 -0.0703  0.447
 0.270 -0.276 0.0196
-0.399 0.0314 -0.349
-0.0298 -0.0275 -0.0334
 0.472 -0.231 -0.616
-0.415 -0.267  0.221
 0.516 -0.0436 -0.612
 0.248 -0.276 -0.314
0.0351 -0.276 -0.133
 0.202 -0.0272 -0.176
-0.323 -0.277  0.363
-0.194  0.539  0.505
 0.338 -0.208 -0.640
 0.413 0.0763 0.0558
 0.538 0.0639 -0.393
-0.489 -0.120 -0.543
-0.217 -0.276 -0.217
 0.284 -0.276 -0.101
 0.331 -0.276 -0.406
 0.360 0.0889 -0.223
-0.0972  0.309  0.517
 0.321 0.0314 -0.0547
 0.407 -0.186  0.267
-0.408 -0.0211 0.0637
 0.416 -0.0136  0.379
-0.426 -0.0360 -0.0560
-0.240 -0.178  0.441
-0.296  0.136  0.117
-0.225 -0.0275  0.221
-0.105 0.0834  0.314
-0.0269 -0.276 -0.570
-0.300  0.257  0.507
 0.107 -0.276 -0.000867
-0.112  0.248  0.344
 0.445 -0.276 -0.333
-0.432  0.159 -0.428
 0.385  0.106 -0.302
 0.306  0.170 0.0574
 0.292  0.512  0.555
0.0376 -0.216  0.441
-0.157 -0.193  0.441
0.0607  0.520  0.394
 0.622 -0.212 -0.563
 0.627 -0.441 -0.553
 0.577  0.172 -0.521
 0.401  0.129  0.461
-0.177 -0.0271 -0.664
 0.617 0.0314 -0.583
-0.376  0.173 -0.273
 0.202 -0.0269  0.131
 0.120 0.0834  0.314
 0.435 -0.276 -0.0528
0.0301  0.338  0.361
-0.312 0.0989 -0.0252
 0.292 -0.0225  0.206
 0.397  0.173  0.289
-0.405 -0.126 0.0988
-0.292  0.406  0.535
 0.472  0.173 -0.258
 0.315  0.209  0.498
-0.0298 -0.103 -0.669
0.0226  0.600  0.516
0.0751 -0.0586 -0.668
-0.120  0.361  0.365
-0.403  0.151  0.274
 0.261 -0.276  0.252
0.0601 -0.0275 -0.251
-0.210 -0.276 -0.426
-0.179 -0.178 -0.658
0.0376 -0.0269 -0.146
 0.494  0.109 -0.546
 0.406 -0.352  0.457
-0.284 -0.255 -0.660
-0.524 -0.00357 -0.604
0.0601  0.372  0.529
-0.300 -0.0269 -0.318
 0.463 -0.0110 -0.197
-0.195 -0.0275 0.0640
 0.176 -0.110 -0.664
 0.158  0.537  0.559
 0.421 -0.0810 -0.00432
-0.292  0.533  0.504
 0.300 0.0539  0.131
-0.448 -0.00605 -0.154
0.0895 -0.277  0.303
-0.492 -0.276 -0.459
 0.262  0.225  0.340
-0.202  0.388  0.370
 0.406  0.114  0.154
-0.415 -0.193 0.0108
-0.493 -0.0129 -0.295
 0.437  0.151 -0.430
 0.579 -0.208 -0.478
-0.296  0.159  0.281
-0.294 -0.276 -0.232
 0.298  0.376  0.431
-0.372 -0.0735 -0.334
 0.180 -0.0275 -0.371
 0.538 -0.198 -0.393
 0.184 -0.276 -0.466
-0.0673  0.593  0.515
-0.258 -0.276 0.0853
-0.550 -0.0435 -0.425
 0.341 -0.276 -0.529
 0.213 -0.276 -0.143
 0.410 -0.0435 0.0939
-0.0698 -0.276 -0.141
 0.240  0.145  0.486
 0.202 -0.0275 -0.266
0.0526 -0.0703  0.447
 0.128  0.350  0.363
-0.295 -0.0810 -0.0266
 0.322 -0.0288 -0.650
 0.406 0.0989  0.229
-0.0523  0.204  0.497
-0.232 -0.0275 -0.183
0.0300 -0.201 -0.665
 0.330 -0.0269 -0.348
-0.419 -0.255  0.326
-0.410 -0.0504  0.446
0.0526  0.537  0.559
-0.592 -0.0354 -0.511
-0.00406 -0.276  0.311
-0.360  0.172 0.0940
 0.508 0.0939 -0.325
-0.370 -0.258  0.454
-0.465 -0.0967 -0.617
 0.589 -0.0636 -0.498
-0.599 0.0920 -0.526
-0.105 -0.0275 -0.0559
-0.328 -0.276 -0.430
 0.629 -0.331 -0.554
-0.295 -0.134  0.132
 0.299  0.145  0.221
 0.247  0.135  0.323
-0.172  0.284  0.512
 0.222 -0.277  0.184
-0.295 0.0164  0.236
 0.298 0.0739  0.309
 0.452 -0.126 -0.155
-0.360  0.172 -0.0259
-0.493 -0.133 -0.295
-0.385 -0.316  0.378
-0.0530 -0.273 -0.675
-0.292 -0.126  0.436
-0.0876 -0.277  0.429
-0.0478 -0.276 -0.0288
 0.225  0.495  0.390
-0.382  0.227  0.502
 0.208 -0.276 -0.595
0.0151 -0.0275  0.191
-0.322 -0.0267 -0.573
 0.113 -0.216 -0.662
-0.299  0.301  0.431
-0.120 -0.0275 -0.521
-0.180 -0.0275 -0.0109
-0.240  0.451  0.382
 0.528 -0.0735 -0.372
0.0903 -0.277 -0.581
-0.157  0.514  0.393
 0.420  0.168 0.00633
 0.369 -0.276 -0.121
 0.390  0.172 -0.0858
-0.302 -0.0661 0.0567
-0.0387 -0.276  0.238
 0.485 0.00394 -0.265
-0.0737 -0.276 -0.454
-0.562 -0.216 -0.450
 0.418 -0.276 -0.570
-0.0673 0.00827  0.300
 0.395 -0.276 0.0365
 0.315  0.106 -0.0196
-0.405 0.000822  0.303
 0.195  0.354  0.525
0.0676  0.290  0.513
-0.159 -0.277 -0.570
 0.408 -0.186  0.124
-0.202  0.581  0.568
 0.202  0.563  0.509
-0.464 -0.277 -0.250
-0.415 0.0239  0.394
 0.406 -0.0510  0.169
 0.542 -0.276 -0.473
 0.322 -0.0879  0.443
-0.0448  0.444  0.542
-0.0448 -0.0275 0.0490
 0.210  0.383  0.369
-0.518 -0.243 -0.352
-0.202  0.220  0.500
 0.456 0.0914 -0.169
-0.359 -0.208 -0.636
-0.508  0.144 -0.333
 0.300  0.302  0.516
-0.441 -0.251 -0.633
 0.275 -0.178 -0.649
-0.402 0.0989  0.176
-0.105 -0.0275  0.176
-0.0298  0.128  0.322
-0.619 -0.321 -0.554
-0.141 -0.277  0.380
-0.418 -0.388  0.432
-0.420 0.0989 -0.0241
-0.157 -0.276 -0.158
-0.330  0.334  0.522
 0.478 -0.267 -0.198
 0.272 -0.276 -0.248
 0.493 -0.101 -0.287
-0.300 -0.0885 -0.647
-0.340 -0.0735 -0.237
 0.591 -0.118 -0.591
 0.345  0.405  0.480
-0.397  0.173 -0.146
 0.510 -0.218 -0.330
-0.415 -0.178  0.394
-0.273 -0.276  0.289
 0.417 0.0989  0.379
-0.0573  0.525  0.493
 0.291  0.517  0.392
-0.294 -0.0585  0.199
 0.360  0.354  0.525
-0.00734  0.152  0.488
-0.225 -0.0275 -0.468
0.000125 -0.0273 -0.461
 0.135 -0.0275  0.117
 0.255 -0.0272 -0.498
 0.360 -0.0275 -0.521
 0.492 -0.148 -0.613
-0.0523 -0.0275 -0.288
 0.390 -0.216  0.441
 0.517  0.172 -0.401
 0.407 -0.276 -0.391
 0.522 -0.277 -0.604
 0.484 -0.171 -0.260
 0.410 -0.0211  0.312
-0.560  0.106 -0.445
 0.135  0.236  0.342
-0.584 0.0614 -0.592
-0.424 -0.111 -0.0490
-0.330  0.505  0.553
-0.240 -0.0269 -0.573
-0.180 -0.0275 -0.266
0.0226 -0.0275 -0.386
0.0751  0.164  0.490
-0.333  0.106 -0.137
 0.415 -0.0810  0.372
-0.240  0.107  0.479
0.0526 0.0763  0.312
-0.308 0.0239 0.00403
 0.387 -0.143 -0.634
-0.127 -0.0275 -0.138
-0.303  0.233  0.401
 0.277 -0.216  0.441
 0.382 -0.0735 -0.638
 0.232 -0.0270 -0.0259
0.0473 -0.276 0.0289
0.0151 -0.0275 -0.558
 0.292  0.599  0.571
 0.277 -0.276 -0.446
 0.326  0.151 -0.0850
-0.138 -0.276  0.270
-0.469 -0.00606 -0.503
 0.446 -0.201 -0.132
 0.561  0.114 -0.597
-0.352  0.172  0.236
-0.452 0.0914 -0.170
 0.173 -0.277  0.133
-0.402 -0.201  0.251
-0.390 -0.495  0.480
 0.370  0.574  0.566
-0.595 -0.178 -0.516
 0.135  0.148  0.326
-0.609 -0.0785 -0.584
 0.587  0.106 -0.493
 0.339 -0.276  0.347
-0.247  0.338  0.361
-0.412 -0.0458 -0.382
 0.457 -0.276 -0.435
0.0114 -0.276  0.442
 0.105  0.497  0.552
-0.441 -0.171 -0.129
-0.410 -0.276 -0.287
0.0801 -0.273 -0.675
 0.128 0.0696  0.473
-0.332 -0.277  0.218
-0.412 0.0914  0.441
 0.200 -0.273 -0.667
-0.572 -0.366 -0.557
-0.187  0.241  0.343
0.000777 -0.0156  0.295
 0.173  0.252  0.506
 0.338  0.259  0.453
-0.147 -0.276 -0.409
-0.407  0.122 -0.370
-0.239 -0.208 -0.652
-0.120  0.556  0.508
-0.322  0.436  0.486
 0.330  0.454  0.544
-0.300 -0.0272 -0.438
-0.0174 -0.276 -0.0959
-0.322  0.159  0.489
-0.295 0.0989  0.229
-0.0972 -0.156  0.441
 0.428 0.0214 -0.409
-0.287 -0.106  0.271
 0.163 -0.276  0.446
 0.188 -0.193  0.441
 0.407 -0.103  0.131
0.0226  0.458  0.383
-0.0673  0.458  0.383
-0.135 -0.0576  0.449
 0.150 -0.0275 -0.0259
 0.368  0.467  0.492
 0.569 -0.311 -0.556
-0.297 0.0164  0.117
 0.188 -0.0272 -0.610
 0.271  0.550  0.507
-0.405 -0.0916  0.308
-0.135 0.0282  0.303
-0.535 -0.111 -0.395
-0.0972 -0.0275 -0.371
0.0376 0.0320  0.466
-0.270 0.0228  0.302
-0.560 -0.169 -0.597
-0.435  0.173 -0.243
0.0601 -0.0275  0.244
-0.282  0.524  0.416
-0.165  0.173  0.330
-0.509 -0.250 -0.619
-0.464 -0.0735 -0.493
-0.405  0.129 0.0988
-0.322  0.587  0.514
 0.592  0.170 -0.590
 0.404 0.00121  0.460
-0.491  0.121 -0.548
 0.375  0.182  0.493
-0.285  0.587  0.569
 0.420 -0.143 0.00105
 0.427 0.0589 -0.0442
 0.457 -0.0273 -0.588
 0.375  0.295  0.514
 0.448 -0.0661 -0.139
 0.102 -0.276 -0.452
0.0948 -0.276  0.446
-0.532 0.0989 -0.390
-0.367  0.444  0.542
 0.240 -0.0275 -0.393
 0.293 -0.0270 -0.161
-0.127 0.0927  0.477
-0.416 -0.0510 0.00355
-0.360 0.0614 -0.237
-0.622 -0.264 -0.589
 0.602 0.0464 -0.523
-0.471 -0.00605 -0.234
-0.407 -0.223 0.0860
 0.303 -0.276  0.297
 0.168  0.608  0.531
-0.413 -0.108  0.382
-0.187  0.497  0.552
-0.0148 0.0767  0.474
-0.597 -0.0953 -0.521
-0.101 -0.276 0.000477
 0.277 0.0175  0.463
 0.180  0.182  0.493
 0.434 -0.178 -0.624
 0.330 -0.0273  0.455
-0.150  0.340  0.523
-0.561 -0.303 -0.552
 0.414 -0.418  0.460
-0.367  0.368  0.473
-0.292 0.0175  0.463
-0.412 0.0839 0.0341
-0.565 -0.277 -0.466
-0.240  0.279  0.350
 0.256 -0.276 -0.186
-0.0897 -0.0275 -0.468
0.0451 -0.0275 -0.00336
 0.414 -0.148  0.364
-0.402 -0.0285  0.236
 0.120 -0.0275 -0.116
-0.00734 -0.0275  0.124
-0.508 -0.185 -0.333
 0.440  0.114 -0.109
-0.180 -0.0275 -0.513
 0.225  0.411  0.536
-0.519 -0.00606 -0.360
-0.382 -0.0272 -0.453
0.0301  0.225  0.340
-0.120 -0.186 -0.662
-0.402 0.0989  0.236
-0.366 -0.383  0.402
 0.379 -0.276  0.144
 0.330 -0.0269 -0.288
 0.158 -0.0275  0.184
 0.406 0.0389  0.229
 0.538 -0.00357 -0.393
-0.599 0.0320 -0.526
-0.248 -0.276  0.190
-0.377 -0.276 -0.0414
-0.0448 -0.0275  0.176
-0.0972 -0.0273 -0.581
 0.329 -0.0168 -0.103
-0.0967  0.509  0.392
-0.180  0.600  0.516
-0.367  0.216  0.445
-0.441  0.136 -0.129
-0.386  0.316  0.513
-0.240  0.529  0.468
 0.360  0.178  0.436
-0.410 -0.300  0.429
0.00765  0.399  0.534
 0.506 -0.276 -0.344
 0.147 -0.276 -0.393
 0.382 0.0696  0.473
0.0391 -0.276  0.181
-0.584 -0.396 -0.610
 0.211 -0.276 0.0203
-0.150  0.444  0.542
0.0976  0.535  0.438
 0.247  0.606  0.518
 0.403  0.172  0.146
 0.413 -0.277  0.320
-0.560  0.123 -0.597
-0.401 -0.148  0.214
0.0526 -0.0275  0.146
0.0826  0.570  0.511
 0.384 -0.293  0.434
-0.112 -0.0275 0.0791
-0.517  0.172 -0.461
 0.306 -0.00601 0.0570
-0.455 -0.0660 -0.184
-0.367 -0.163  0.441
 0.600 -0.466 -0.598
 0.173 -0.0128  0.457
-0.166 -0.276  0.325
 0.377 -0.476  0.434
 0.270  0.449  0.543
-0.494 0.0239 -0.553
 0.335 -0.276 -0.635
 0.420 -0.254  0.259
-0.255  0.148  0.326
0.0309 -0.276 -0.564
-0.352 -0.103  0.442
 0.636 -0.268 -0.566
-0.295 -0.138 -0.00154
0.0982  0.192  0.334
 0.345  0.172  0.109
 0.412 -0.183 0.0664
 0.449 -0.276 -0.271
-0.333 -0.0254 -0.206
-0.327 -0.0735 -0.107
-0.352 0.00154  0.460
 0.375  0.173 0.0416
-0.377 -0.411  0.466
-0.464 -0.223 -0.212
 0.173  0.528  0.475
 0.267 -0.277  0.428
-0.408 -0.276 -0.574
-0.360  0.107  0.479
-0.220 -0.276  0.404
-0.337  0.166 -0.150
-0.403 0.00144  0.124
-0.386 -0.0210 -0.317
-0.0299 -0.0275 -0.363
-0.613 -0.473 -0.595
-0.246 -0.276 -0.530
 0.303  0.121 0.0868
-0.0323  0.534  0.443
 0.293  0.465  0.431
 0.427  0.173 -0.191
 0.346  0.104 -0.170
-0.172  0.532  0.454
 0.492 0.0614 -0.282
 0.304 -0.276 -0.356
-0.413 0.0789  0.382
-0.0748 -0.0327  0.454
 0.589 -0.00357 -0.498
-0.297  0.338  0.386
-0.0430 -0.276 -0.397
 0.614 -0.0910 -0.548
-0.405 -0.208  0.441
-0.454 -0.0414 -0.619
-0.307  0.204  0.343
-0.313 -0.276 0.0916
-0.0598  0.367  0.528
-0.371  0.556  0.521
 0.391  0.292  0.460
 0.225 -0.0879  0.443
-0.0223 -0.0703  0.447
 0.423 -0.327  0.410
 0.155 -0.276 -0.144
0.000199 -0.276  0.102
 0.406 -0.186  0.184
-0.00371 -0.276 0.00777
 0.390 -0.276 -0.172
 0.442 0.0864 -0.441
 0.285 -0.149  0.441
-0.433 0.00893 -0.0936
 0.413 0.0164 0.0559
-0.407  0.166  0.327
0.0451  0.594  0.571
 0.300 -0.0134  0.266
 0.420 0.0889 0.00105
-0.615 -0.206 -0.576
 0.250 -0.276 -0.0312
-0.427 -0.186 -0.624
 0.150 -0.163 -0.660
-0.229 -0.273 -0.665
-0.439 -0.255 -0.0565
-0.308 -0.0355 0.00288
0.0826 -0.0275 -0.318
-0.345  0.172  0.147
-0.150 -0.0275 -0.356
 0.362 -0.351  0.424
-0.252 -0.276 -0.0815
-0.0748 -0.0275 -0.236
0.00765  0.505  0.553
0.0226 -0.0735 -0.669
-0.0972  0.413  0.375
 0.300  0.389  0.375
-0.0148 -0.0275 -0.0858
 0.408  0.114  0.282
 0.315 -0.0275 -0.483
-0.180 -0.0273  0.266
 0.232 -0.0960 -0.658
-0.0523  0.257  0.507
-0.0373 -0.0272 -0.618
-0.474 -0.141 -0.245
 0.240  0.526  0.557
-0.0673  0.581  0.568
-0.315 0.00144 -0.0448
 0.345  0.172  0.334
-0.0823 -0.0275 -0.176
-0.232 -0.115  0.438
 0.126 -0.277  0.257
-0.240 -0.0275 0.0940
-0.112 -0.223  0.441
-0.452 0.0989 -0.468
 0.302  0.308  0.424
 0.158 -0.0272 -0.206
0.0451 -0.0275 -0.633
0.0432 -0.276  0.344
 0.458 -0.0170 -0.476
-0.206 -0.276 -0.480
-0.449 0.0239 -0.463
 0.354  0.144 -0.205
 0.337 -0.0269 -0.206
 0.430 0.00144 -0.0569
-0.489 -0.0661 -0.543
-0.0972  0.175  0.492
-0.240 -0.0213  0.290
-0.341 -0.126 -0.642
-0.247  0.549  0.561
 0.397  0.172 -0.296
 0.427 -0.196 -0.0442
-0.352 0.0551  0.470
-0.372 -0.126 -0.327
 0.487 0.0264 -0.531
 0.577 -0.369 -0.556
0.0151  0.539  0.416
 0.210  0.545  0.400
-0.0872 -0.276  0.376
 0.320 -0.276  0.246
 0.495  0.134 -0.292
-0.210  0.495  0.390
 0.406 0.00144  0.191
 0.313 0.0239 -0.00269
 0.255 -0.0270 0.0866
-0.293  0.455  0.383
 0.116 -0.277  0.352
-0.415 -0.276 -0.164
 0.406 0.0614  0.176
-0.240 -0.0275 -0.0409
-0.375 -0.0275 -0.580
 0.525  0.173 -0.528
 0.330 -0.223  0.441
-0.300 -0.0269 -0.251
-0.247 -0.0269 -0.333
 0.113 -0.0270 -0.0634
-0.0673  0.368  0.366
0.0301 -0.0275 -0.198
-0.403 -0.186  0.124
 0.407 -0.134  0.259
 0.352  0.172  0.251
-0.554  0.172 -0.550
-0.187 -0.0275 -0.393
 0.135 -0.0270 -0.483
-0.277 -0.0577  0.449
 0.394 0.0314 -0.324
-0.00726 -0.163 -0.665
 0.487  0.172 -0.446
 0.120 -0.0649  0.448
-0.419  0.151 -0.0183
 0.307  0.221  0.434
0.0301 0.0282  0.303
 0.255 -0.0270  0.169
-0.514 -0.126 -0.349
-0.247 0.0497  0.469
 0.418 -0.193  0.394
 0.184 -0.276 -0.0965
 0.410  0.114 0.0938
-0.292 -0.0272 -0.386
 0.158 -0.0275  0.236
 0.419  0.172  0.437
-0.330 -0.0268 -0.626
-0.187 -0.0275 -0.153
 0.463 0.0414 -0.197
-0.403 -0.103  0.146
 0.113 -0.0275 -0.251
-0.360 -0.276 -0.388
-0.0180  0.601  0.569
 0.612 -0.0186 -0.543
 0.247  0.302  0.516
-0.0747 -0.0661 -0.668
 0.465  0.172 -0.356
-0.600  0.144 -0.526
 0.114 -0.276 0.0510
-0.409 -0.156 0.0562
 0.441 -0.276 -0.496
 0.336 -0.276 -0.477
 0.463 -0.276 -0.382
-0.426 -0.254  0.454
 0.299 0.0239  0.184
-0.508 -0.130 -0.600
 0.566 0.0539 -0.596
 0.149 -0.277  0.303
 0.121 -0.276 -0.280
 0.195 -0.0510 -0.662
 0.337  0.172  0.199
-0.438 -0.239 -0.109
-0.435 -0.126 -0.104
 0.135  0.300  0.354
 0.480 -0.226 -0.248
 0.483 -0.0586 -0.260
 0.180 -0.120  0.437
-0.240  0.437  0.541
-0.466  0.106 -0.217
-0.479  0.173 -0.416
 0.143  0.377  0.530
0.0152  0.273  0.349
 0.330  0.257  0.507
 0.631 -0.381 -0.566
-0.247  0.367  0.528
 0.143  0.399  0.372
-0.391  0.144 -0.327
 0.315  0.406  0.535
 0.369 -0.509  0.482
 0.397  0.172 -0.138
 0.428 -0.121 -0.0442
 0.247 -0.0265  0.251
-0.427 -0.134 -0.417
-0.00732 -0.250 -0.675
 0.375 -0.0272 -0.393
-0.364  0.129 -0.249
-0.150  0.531  0.558
-0.416 0.00894 -0.392
 0.293  0.301  0.353
 0.128 0.0228  0.302
-0.222 -0.276  0.286
 0.161 -0.276 0.0149
-0.127 -0.268 -0.674
-0.0306 -0.249  0.451
 0.311  0.241  0.343
-0.491 0.0914 -0.290
-0.00734  0.173  0.330
-0.0645 -0.276  0.152
-0.0523  0.544  0.398
 0.219 -0.276 0.0745
 0.174 -0.277  0.201
-0.374 -0.277  0.327
-0.356 -0.0510 -0.289
 0.110 -0.276 -0.0512
 0.569 -0.275 -0.430
 0.405 -0.0735  0.214
 0.407 0.0164  0.274
 0.292 -0.0269 -0.0559
 0.410 -0.163  0.312
-0.127 -0.0275  0.131
-0.296  0.114  0.162
 0.217 -0.0272 -0.108
-0.323 -0.0885 -0.172
-0.0523 -0.134  0.437
 0.188 0.0872  0.476
 0.192 -0.276 -0.548
-0.552 -0.156 -0.431
-0.167 -0.277 -0.626
 0.325 -0.276  0.129
-0.502 -0.276 -0.402
 0.115 -0.276  0.116
 0.365 -0.433  0.455
-0.131 -0.276 -0.273
-0.306 0.0764 0.0199
-0.491 -0.0661 -0.290
 0.120 -0.0256  0.283
 0.344 -0.276 -0.0710
-0.324 -0.00606 -0.0931
 0.463  0.139 -0.197
-0.225 0.0834  0.314
 0.441 -0.277 -0.627
-0.344 -0.293  0.405
-0.240 -0.0275  0.154
 0.127 -0.119 -0.667
-0.329  0.254  0.452
-0.339 -0.126 -0.229
 0.504 -0.0611 -0.315
 0.386 -0.0155 -0.309
-0.427 0.0614 -0.0613
-0.450 -0.277 -0.531
-0.491 0.0389 -0.290
 0.309  0.121 0.0268
 0.398 -0.276 -0.0128
-0.411 -0.346  0.408
0.0795 -0.276  0.218
-0.172 0.0121  0.462
 0.411  0.144  0.326
-0.322  0.214  0.499
-0.452 -0.201 -0.170
 0.374 0.0714 -0.269
-0.0573 -0.276 -0.532
 0.540 -0.231 -0.602
-0.339 -0.276 -0.493
-0.422 -0.468  0.451
 0.439 -0.239 -0.102
 0.293  0.180  0.332
 0.540 -0.113 -0.398
-0.306 -0.276 -0.160
 0.300  0.106  0.251
-0.153 -0.276  0.121
 0.436 -0.0960 -0.0872
-0.577 -0.0285 -0.593
 0.105  0.443  0.380
 0.218  0.331  0.359
 0.285  0.164  0.490
-0.270  0.241  0.343
-0.516 -0.201 -0.606
-0.0448 0.0320  0.466
 0.283 -0.276  0.207
0.0751  0.356  0.364
 0.609 -0.163 -0.587
 0.143  0.481  0.387
 0.532 -0.276 -0.529
-0.367  0.418  0.483
 0.228  0.525  0.493
 0.423 -0.239  0.409
0.0751 -0.163  0.441
-0.352  0.265  0.509
 0.234 -0.276 -0.0992
-0.300  0.106 0.0789
 0.316 -0.276 0.0356
-0.306 -0.261  0.454
-0.292  0.414  0.446
 0.407 -0.0586  0.274
-0.315  0.170 -0.0425
 0.528  0.106 -0.372
-0.0730 -0.153 -0.664
-0.247 -0.0272 -0.116
 0.412  0.173 -0.0409
 0.113 -0.0272 -0.558
-0.120 -0.0275 -0.416
 0.408 0.0764  0.124
 0.165 -0.0273 0.0791
-0.225  0.272  0.510
-0.0298 -0.0275 -0.161
0.00764  0.265  0.509
0.0526 -0.0128  0.457
 0.173 -0.0270 -0.138
-0.580  0.122 -0.486
0.0526 -0.0270 -0.528
-0.0748 -0.0275  0.214
-0.435 -0.276 -0.207
-0.360  0.173  0.394
-0.406 -0.0585 0.0935
-0.425 -0.0810 -0.412
 0.435  0.156 -0.0817
 0.509 -0.103 -0.614
 0.212 -0.277  0.336
-0.306 -0.0960 0.0199
-0.572 -0.00544 -0.471
-0.401 -0.0661  0.191
 0.390 -0.119  0.441
 0.455 -0.238 -0.169
 0.315 -0.0275 -0.550
-0.308 -0.140 -0.0474
 0.255 -0.0269 -0.610
-0.142 -0.0275  0.206
 0.299  0.120  0.175
 0.384 -0.276 0.0884
-0.563 -0.283 -0.610
 0.120 -0.0273 -0.348
 0.277 -0.102  0.441
-0.0598 -0.0275 -0.0708
-0.410 0.0389 0.0488
-0.280 -0.0885  0.146
0.0901 -0.0275  0.102
-0.405  0.118  0.308
 0.270 -0.0270 -0.288
-0.420  0.172 -0.296
-0.157 -0.0275 0.0940
 0.412 -0.236 0.0664
-0.293 -0.277 -0.619
 0.300 0.0314  0.281
 0.444 -0.0210 -0.125
-0.104  0.317  0.357
-0.511 -0.0586 -0.588
 0.390 -0.0250 -0.633
 0.217 -0.231 -0.655
-0.314 0.0539 -0.0394
 0.143  0.581  0.568
 0.271 -0.132 -0.657
-0.412  0.169 -0.382
 0.400 -0.276 -0.0858
 0.202  0.231  0.341
 0.255  0.273  0.349
-0.0142  0.539  0.505
 0.293 -0.276 0.0950
 0.300 -0.276  0.389
-0.344 -0.338  0.391
-0.360  0.172 -0.108
-0.292  0.537  0.559
-0.357 -0.276 0.0756
 0.604 0.0839 -0.589
 0.413 0.0239  0.352
-0.510  0.172 -0.371
 0.301  0.129  0.296
-0.149 -0.276 -0.363
-0.180 -0.0735 -0.661
0.0976  0.557  0.563
 0.293 -0.276 -0.0473
0.0158  0.104  0.317
 0.375  0.221  0.446
-0.340 -0.276 -0.226
-0.285  0.132  0.484
-0.323 -0.140 -0.139
-0.499 -0.273 -0.280
 0.181  0.509  0.392
-0.0673  0.531  0.558
 0.128  0.581  0.513
-0.142  0.128  0.322
 0.410 -0.223  0.312
 0.390 -0.276 -0.292
-0.402 0.0770 -0.360
 0.452 -0.0586 -0.625
 0.188  0.295  0.514
-0.195  0.329  0.521
-0.300  0.488  0.495
 0.135  0.284  0.512
 0.165  0.492  0.551
-0.408 -0.0960 0.0637
-0.105  0.454  0.544
-0.419 -0.0273 -0.483
 0.195  0.121  0.321
 0.324 0.0839 -0.0707
0.0273 -0.134 -0.671
 0.404  0.109 -0.352
 0.233  0.197  0.496
 0.379  0.464  0.545
 0.255  0.393  0.371
 0.566 -0.0661 -0.596
 0.514 -0.00602 -0.586
 0.410 -0.282  0.366
-0.345  0.172 0.0490
-0.565 -0.277 -0.515
-0.580 0.0695 -0.486
 0.282  0.516  0.478
 0.387  0.369  0.491
-0.403  0.172 0.0789
0.0751  0.220  0.500
 0.337  0.542  0.560
 0.180 -0.0275 -0.491
 0.158 -0.0270 0.0191
-0.403 -0.231  0.131
-0.402 -0.148  0.154
 0.247 -0.0272 -0.183
 0.202 -0.0275  0.259
-0.301 -0.0210 0.0641
 0.547 -0.133 -0.600
 0.225  0.451  0.382
-0.135 -0.0275 -0.0933
-0.405  0.173 -0.191
-0.0148 -0.201  0.441
0.0301  0.413  0.375
 0.338 0.0439 -0.140
-0.537 0.00144 -0.400
-0.510  0.173 -0.558
-0.322 -0.0269 -0.506
-0.360  0.172  0.281
 0.225 -0.0275 -0.573
 0.143 -0.0275 -0.603
-0.172 -0.0275 -0.311
 0.233 -0.208  0.441
-0.0298 -0.0269 -0.573
-0.115 -0.276 -0.118
-0.262 -0.231  0.441
-0.350 0.0914 -0.204
 0.233 0.0335  0.304
-0.135  0.137  0.485
 0.382 -0.276  0.199
-0.292 -0.0269 -0.146
-0.0223  0.587  0.514
-0.428 -0.0810 -0.465
-0.374  0.511  0.544
-0.424 0.00893 -0.0490
 0.285  0.252  0.506
-0.622 -0.366 -0.560
-0.334 -0.245 -0.644
-0.401  0.170  0.131
-0.322 -0.277  0.315
-0.232  0.563  0.509
-0.172 -0.0327  0.453
-0.296  0.165  0.153
-0.575 -0.0579 -0.476
 0.489 -0.276 -0.466
0.0601  0.532  0.502
 0.295  0.421  0.439
 0.513 -0.103 -0.335
 0.247 -0.0272 0.0416
-0.352  0.172  0.191
 0.557 0.00144 -0.433
 0.464  0.109 -0.486
 0.512 0.0389 -0.335
-0.615  0.101 -0.576
0.0301  0.334  0.522
 0.300 0.0989  0.131
-0.432  0.114 -0.428
-0.277 -0.0275 -0.603
0.0901 -0.0275 -0.633
 0.300 -0.0275 -0.610
 0.427  0.172 -0.258
 0.602 -0.186 -0.523
 0.277 0.0623  0.471
-0.120 -0.0275 -0.258
-0.285  0.334  0.522
 0.344 -0.277  0.400
-0.295 0.0164  0.162
0.0725 -0.276 -0.103
-0.405 -0.0435  0.296
 0.592 -0.336 -0.606
 0.436 -0.276 -0.186
-0.417 -0.261  0.282
-0.438 -0.131 -0.626
-0.565  0.159 -0.456
 0.366 -0.257  0.454
 0.325 -0.276 -0.128
 0.412 0.0689  0.346
-0.584 -0.126 -0.592
-0.282 -0.0810 0.0939
-0.210 -0.0270 -0.633
 0.437 0.0539 -0.0944
 0.128  0.159  0.489
-0.276 -0.276  0.333
-0.420 -0.0273 -0.595
-0.572 -0.178 -0.471
 0.428 -0.0244 -0.430
-0.586 -0.440 -0.609
 0.150 -0.245 -0.664
-0.151 -0.276 -0.454
-0.210 -0.0703  0.447
 0.191 -0.276 -0.285
-0.319 -0.0435 -0.0699
 0.538 -0.246 -0.378
-0.150  0.182  0.493
-0.262  0.488  0.389
-0.296 0.0989  0.274
 0.345 -0.126  0.441
 0.363 0.0464 -0.235
0.0976  0.406  0.535
0.0190 -0.276  0.387
 0.590 -0.266 -0.468
 0.413 -0.0661 0.0559
-0.419 -0.276  0.365
 0.623 -0.306 -0.590
0.0656 -0.276  0.146
-0.104 -0.0156  0.295
 0.617  0.170 -0.554
-0.299 -0.216 -0.645
 0.322  0.570  0.511
 0.362 -0.389  0.451
 0.202 -0.277  0.423
 0.310 -0.277 -0.560
-0.0508 -0.276  0.195
 0.575  0.172 -0.477
 0.511 0.0889 -0.581
 0.367  0.556  0.508
 0.406 -0.148  0.154
-0.0118 -0.276 0.0596
 0.367 -0.0275 -0.446
-0.195 -0.216  0.441
 0.202 -0.0275 -0.333
-0.409 -0.201  0.349
 0.592 -0.422 -0.591
-0.403 -0.126  0.267
 0.218 -0.0275 -0.521
-0.402 0.0614  0.259
0.0151 -0.0275 -0.243
-0.585 -0.215 -0.496
-0.150 -0.134  0.437
 0.210 -0.0275 -0.0634
-0.262 -0.0273  0.244
-0.202 -0.0275  0.117
-0.135 -0.0275 -0.603
 0.304 0.0314 0.0794
-0.0823 -0.0275 -0.0184
 0.447 0.0164 -0.451
-0.542 0.0614 -0.410
 0.307 -0.0275 -0.386
-0.542 -0.216 -0.410
 0.602  0.136 -0.523
-0.459 -0.138 -0.517
 0.485 -0.271 -0.626
 0.410 0.0333 -0.368
 0.423 0.0964  0.441
-0.315  0.173  0.102
-0.112  0.361  0.527
 0.333 -0.163 -0.641
0.0907  0.115  0.319
 0.367  0.172  0.394
-0.421 -0.208 -0.0294
-0.329  0.342  0.468
-0.127  0.279  0.511
-0.142  0.279  0.350
0.0826 0.0458  0.307
-0.210  0.173  0.330
-0.434  0.106 -0.0990
-0.294  0.376  0.409
-0.411 -0.223 0.0414
0.0976 0.0999  0.478
-0.322 -0.156  0.441
 0.421  0.134 -0.394
 0.422 -0.0810  0.424
-0.134 -0.0297 -0.666
0.0830 -0.277 -0.633
-0.457 0.0164 -0.189
 0.562 -0.226 -0.443
 0.373  0.121 -0.264
-0.187  0.428  0.377
 0.584 -0.158 -0.488
-0.198 -0.219 -0.656
0.0376  0.132  0.484
 0.307  0.386  0.475
 0.144 -0.277  0.395
-0.0807 -0.242 -0.666
-0.390 0.0767  0.474
-0.607 -0.361 -0.601
0.0151 -0.0504  0.450
-0.371 0.0389 -0.272
 0.417 -0.250  0.159
 0.162 -0.276 -0.508
 0.173  0.449  0.543
 0.406  0.129  0.199
 0.367  0.137  0.485
 0.419 0.0239  0.399
-0.390  0.250  0.462
-0.217 -0.0275 -0.288
 0.336  0.602  0.564
-0.0673 -0.0270 -0.341
-0.402 -0.0210  0.176
-0.165 -0.0275 -0.0634
-0.210 -0.0275 -0.543
 0.252 -0.276 -0.509
-0.295 -0.0286  0.169
-0.307  0.218  0.440
 0.245 -0.277  0.384
-0.493  0.166 -0.296
-0.391 -0.0960 -0.382
-0.337 -0.277 -0.610
-0.256 -0.276  0.383
 0.412 -0.276 -0.133
-0.240  0.599  0.571
 0.211 -0.277  0.230
-0.408 -0.00791  0.452
-0.487 -0.0252 -0.596
 0.211 -0.276 -0.334
-0.466 -0.111 -0.217
-0.410  0.136  0.357
 0.467 -0.134 -0.208
-0.388 -0.529  0.456
-0.491 0.0764 -0.548
-0.285 -0.0259 -0.0333
-0.302 -0.276 -0.513
-0.149 -0.0104  0.296
-0.380 -0.0960 -0.300
-0.374 -0.277  0.150
 0.386 -0.276 -0.351
-0.401 -0.231  0.207
-0.0673  0.487  0.550
-0.446 -0.118 -0.147
 0.270  0.564  0.564
-0.337  0.385  0.531
-0.586 -0.456 -0.568
 0.435 -0.0272 -0.543
-0.112  0.549  0.561
 0.309  0.211  0.379
0.0754 -0.276  0.264
-0.481 -0.178 -0.262
 0.345 0.0872  0.476
-0.418  0.129  0.424
 0.413 -0.186  0.346
-0.157 -0.223 -0.660
0.0751 0.0497  0.469
 0.360  0.227  0.502
-0.0748  0.231  0.341
-0.0224 -0.276 -0.612
-0.310  0.144 -0.0105
-0.244 -0.276  0.148
-0.150  0.331  0.359
 0.145 -0.276 -0.434
0.00372 -0.276  0.203
0.0590 -0.257  0.454
 0.315  0.500  0.498
 0.373 -0.230 -0.634
 0.381 -0.364  0.390
 0.584 0.00892 -0.593
-0.307  0.173  0.244
 0.597 -0.236 -0.513
-0.296 -0.277  0.417
 0.481  0.129 -0.254
 0.497 -0.156 -0.298
 0.289 -0.276 -0.406
 0.557 0.0539 -0.433
-0.165  0.377  0.530
 0.328 0.0464 -0.0923
 0.330  0.164  0.490
 0.262 0.0979  0.316
 0.516 -0.193 -0.607
-0.0523  0.145  0.486
-0.247  0.220  0.500
-0.315  0.295  0.514
-0.127  0.211  0.337
 0.344 -0.0885 -0.645
-0.448 0.0539 -0.154
-0.0406 -0.276  0.330
0.0751  0.225  0.340
 0.430 -0.255 0.0333
 0.480 -0.121 -0.248
-0.413 0.00145 0.0236
-0.0223  0.345  0.362
-0.217 -0.163 -0.654
 0.375 -0.0273  0.455
-0.330  0.460  0.545
 0.419 -0.0435 0.0116
-0.375 -0.0248 -0.355
 0.418 -0.0360  0.443
 0.175 -0.276 -0.180
-0.0298 -0.0585 -0.669
 0.312  0.166 0.00470
 0.398 -0.532  0.500
-0.420 -0.171  0.437
-0.240 -0.0735 -0.655
-0.172  0.470  0.385
-0.206 -0.276  0.446
 0.598 -0.231 -0.590
 0.552 -0.176 -0.423
-0.0699 -0.276 -0.0884
0.0226 -0.178  0.441
 0.255 -0.0273 -0.431
 0.217 -0.0275 -0.228
-0.127 -0.0275 -0.0184
 0.409 -0.148  0.109
0.0751 -0.0275 0.0640
0.00765 -0.0275 -0.618
-0.0361 -0.276  0.287
0.0676 -0.0270 -0.183
0.0376 -0.0275 -0.101
-0.402 0.00894  0.251
 0.605 0.0864 -0.528
-0.00734 -0.0275 0.0341
0.0601 -0.0275  0.199
 0.597 -0.101 -0.513
-0.390  0.172  0.221
0.0676 -0.0275 -0.408
-0.277 -0.193  0.441
 0.337  0.139 -0.135
 0.255 -0.0269 -0.138
-0.403  0.114  0.139
-0.417 -0.0885  0.417
 0.494  0.154 -0.546
-0.0972 -0.0275 -0.108
 0.315 0.0658 -0.0143
-0.410  0.121 0.0488
-0.375  0.172 -0.0634
-0.285 -0.0275 -0.558
-0.0223 -0.0275 0.0866
0.0151 -0.0275 -0.513
-0.187 -0.0275  0.191
 0.188 -0.0275 -0.0109
-0.412 -0.0161  0.376
 0.426 -0.236 -0.0390
 0.489 -0.273 -0.237
-0.262 -0.0128  0.457
 0.428 -0.288  0.402
-0.427 -0.504  0.467
-0.0598  0.406  0.535
 0.300 -0.244 -0.649
 0.455 -0.163 -0.169
 0.154 -0.276 -0.0592
-0.375  0.172 0.0191
 0.493 -0.198 -0.287
 0.457  0.154 -0.471
 0.462 -0.0661 -0.192
-0.432 0.0164 -0.428
 0.120 -0.0510 -0.667
-0.195  0.542  0.560
0.0382  0.187  0.333
 0.210 -0.0266  0.455
 0.130 -0.276 -0.581
0.0199 -0.276 -0.0811
-0.449  0.166 -0.463
-0.329 -0.276  0.176
-0.450 -0.276 -0.604
 0.173 0.0282  0.303
-0.268 -0.139 -0.651
 0.483 -0.276 -0.311
-0.509  0.114 -0.584
 0.238 -0.276 -0.426
 0.352  0.172 -0.0634
0.0526  0.252  0.507
0.0301 -0.102  0.441
-0.225 0.0175  0.463
 0.620 0.0633 -0.559
-0.513 -0.255 -0.312
 0.261 -0.276 -0.146
-0.292  0.492  0.551
-0.609 -0.0654 -0.546
-0.292  0.136  0.319
 0.334 -0.0219 -0.142
 0.545  0.109 -0.408
-0.142 0.0710  0.311
-0.382 -0.457  0.471
 0.251 -0.276  0.157
-0.121 -0.276  0.451
 0.397 0.0739 -0.335
0.0526 -0.103 -0.669
-0.0748  0.286  0.351
-0.441 -0.0360 -0.129
-0.422 -0.163 -0.0348
-0.0445 -0.276  0.426
 0.358 0.0114 -0.217
-0.407 0.0914 0.0786
-0.157  0.527  0.498
-0.329  0.603  0.558
 0.262  0.544  0.397
 0.474 0.0239 -0.230
0.0532  0.307  0.355
0.0901  0.347  0.524
-0.316 -0.0960 -0.0557
 0.158  0.268  0.348
 0.301  0.346  0.386
0.0709 -0.276 -0.0151
-0.00648 -0.276  0.351
 0.545 -0.0710 -0.408
 0.418 -0.273  0.216
-0.408 -0.111  0.342
-0.555 -0.00606 -0.436
-0.394  0.189  0.454
-0.0223  0.114  0.481
-0.299 -0.118 0.0892
 0.407  0.166  0.252
-0.0418 -0.276 0.0896
 0.180  0.570  0.566
-0.337 -0.171 -0.640
 0.217 -0.132 -0.662
0.0526  0.411  0.536
 0.337  0.361  0.472
-0.292  0.421  0.401
-0.232 0.0458  0.307
-0.0823  0.128  0.322
 0.226  0.197  0.335
 0.439 -0.277 -0.0935
-0.187  0.107  0.479
-0.476 -0.276 -0.502
 0.434 -0.223 -0.624
 0.364 -0.276 -0.448
-0.0972  0.607  0.536
-0.411 -0.0586 0.0414
-0.422 -0.276 -0.400
0.0376  0.375  0.368
-0.0373  0.268  0.348
-0.375  0.323  0.465
-0.110  0.541  0.409
-0.379 -0.485  0.441
 0.357 -0.276 0.0261
-0.176 -0.276  0.363
 0.246 -0.277  0.288
 0.406 -0.178  0.222
 0.285 -0.0510 -0.653
-0.295 -0.0586  0.251
 0.250 -0.276 -0.352
-0.102  0.525  0.493
-0.105 -0.132 -0.668
 0.443 -0.158 -0.119
 0.308 -0.276 -0.00211
-0.296 -0.00606  0.281
 0.299  0.170  0.192
0.0930 -0.276 -0.542
 0.384  0.405  0.481
0.0319 -0.276  0.298
 0.446 0.0839 -0.132
-0.415 -0.261  0.184
 0.453 -0.0360 -0.162
-0.382  0.190  0.495
 0.105  0.460  0.545
0.0226  0.495  0.390
 0.410 0.0239  0.312
-0.412 -0.0272 -0.528
-0.172 -0.0275 -0.228
 0.382  0.172  0.341
-0.0897 -0.0275  0.259
-0.472  0.172 -0.363
0.0797 -0.235 -0.665
 0.382 -0.178  0.441
 0.233  0.347  0.524
 0.233 0.0248  0.464
 0.470 -0.0410 -0.220
-0.120 0.0551  0.470
0.00765 -0.0275 -0.0409
-0.295  0.136  0.236
-0.300 0.0164 0.0716
 0.210  0.121  0.482
 0.479 -0.193 -0.614
-0.403 -0.239  0.251
-0.0298  0.465  0.384
-0.0673 0.0623  0.471
-0.0523 -0.0270 -0.461
0.0451  0.497  0.552
-0.307 -0.0510 -0.646
 0.165 -0.0275 -0.243
 0.382  0.173 -0.0108
-0.0448  0.166  0.329
-0.0553 -0.276 0.00863
-0.297 0.0539  0.109
 0.330  0.172  0.162
 0.390  0.172 -0.183
 0.435  0.173 -0.303
 0.410 -0.0661  0.312
-0.255 -0.0269 -0.296
-0.262 -0.0272 0.0490
-0.345 -0.0272 -0.461
 0.210  0.265  0.509
-0.225  0.175  0.492
-0.569 -0.363 -0.595
-0.187 -0.119 -0.661
-0.0897  0.137  0.485
-0.410 0.0239  0.357
-0.307 -0.0201  0.456
 0.322  0.347  0.524
 0.173  0.375  0.368
 0.352 0.0489 -0.195
-0.105  0.451  0.382
 0.175 -0.276 -0.367
 0.299 0.0914  0.214
-0.315 -0.0955  0.442
-0.195 0.0603  0.309
-0.387 0.0464 -0.316
-0.429 -0.0810 -0.0720
 0.297 -0.0195  0.161
-0.325  0.106 -0.100
 0.210  0.610  0.522
-0.367 -0.0327  0.453
-0.272 -0.276 -0.177
 0.188 -0.239  0.443
-0.547 -0.0810 -0.420
 0.411 0.0389 0.0864
-0.343 0.00892 -0.174
-0.378  0.129 -0.294
 0.136  0.187  0.333
-0.00734  0.449  0.543
-0.592 -0.140 -0.511
 0.365 -0.0219 -0.254
-0.285  0.582  0.513
 0.105  0.544  0.398
-0.505 0.00894 -0.328
-0.535 -0.277 -0.443
 0.401 -0.447  0.434
 0.449  0.124 -0.144
 0.295  0.480  0.392
-0.0448 -0.0263 -0.656
 0.322  0.436  0.486
 0.158  0.544  0.506
-0.281 -0.126  0.169
 0.521 -0.277 -0.565
 0.452 -0.276 -0.230
-0.528 0.0314 -0.380
-0.466  0.151 -0.217
-0.127 -0.0275 -0.558
-0.616 -0.318 -0.591
0.0526 -0.0270 -0.341
 0.524  0.154 -0.362
-0.330 -0.0661 -0.202
 0.420 -0.0269 -0.588
-0.299  0.301  0.394
 0.408 -0.00605  0.116
-0.202 -0.0275 -0.0634
-0.180 -0.0275 0.0266
-0.187 -0.0275 -0.453
0.0976 -0.0275  0.146
-0.403 -0.163  0.267
-0.401  0.129  0.199
0.0751 -0.0275 -0.0259
 0.352 -0.0272 -0.558
-0.330  0.173 0.0116
 0.417  0.136 0.0261
-0.262 -0.0272 -0.416
-0.315 -0.0269 -0.356
 0.189 -0.277  0.306
-0.172 -0.0275  0.229
-0.577 0.00893 -0.593
-0.00733 0.0320  0.466
0.0301 -0.0275 0.0341
 0.300 0.0164  0.131
-0.419  0.166  0.432
-0.0148 -0.0275 -0.123
-0.434  0.172 -0.116
-0.391  0.106 -0.327
 0.487 0.0639 -0.531
 0.299 0.0227  0.236
0.00765 -0.0275 -0.168
-0.369 -0.285  0.364
0.0901 -0.0270 -0.138
 0.407 -0.216  0.146
-0.403 0.0764  0.146
-0.0223 -0.0275  0.206
 0.337 -0.0265 -0.408
0.000158 -0.0275 -0.416
 0.270 -0.0269 -0.371
 0.233 -0.0269 -0.303
-0.346 -0.0353 -0.251
0.0826 -0.0270 -0.281
-0.247 -0.0272 -0.536
 0.233 -0.0275 -0.468
 0.292 -0.0272 -0.333
-0.180 -0.163  0.441
-0.367  0.173 -0.191
-0.406 -0.139  0.313
-0.240  0.388  0.370
 0.270 0.0335  0.304
 0.360 -0.0879  0.443
-0.409 -0.163  0.349
-0.401 -0.103  0.191
-0.0673 -0.0275 0.0791
-0.00734 -0.0275 -0.00336
-0.468 -0.273 -0.189
-0.403 -0.352  0.444
-0.419 -0.261 0.0940
-0.314 -0.103 -0.137
 0.435  0.172 -0.378
-0.354 -0.303  0.440
-0.501 -0.0960 -0.568
-0.481 -0.254 -0.224
-0.590 0.00207 -0.506
-0.470 -0.0341 -0.528
 0.210  0.531  0.461
-0.142  0.536  0.430
-0.367 -0.223  0.441
 0.468  0.170 -0.217
-0.202  0.345  0.362
-0.403 0.0314  0.281
 0.173  0.153  0.327
-0.433 -0.0285 -0.0936
 0.426 -0.0586 -0.0336
 0.472 -0.0254 -0.622
0.0451  0.535  0.438
-0.127 -0.0661 -0.665
-0.168 -0.276 -0.487
-0.355  0.603  0.522
-0.481 -0.0285 -0.262
-0.474 0.0839 -0.245
 0.415  0.136  0.364
-0.369 -0.0885 -0.265
-0.418 -0.111 -0.445
-0.298 -0.0286  0.102
 0.526 -0.128 -0.367
 0.546  0.173 -0.424
-0.395 -0.410  0.412
-0.612 -0.118 -0.551
 0.207 -0.277  0.146
 0.572 -0.0136 -0.463
 0.565 -0.103 -0.448
 0.472 0.0114 -0.501
 0.360  0.506  0.499
-0.397  0.173 -0.243
 0.450 -0.276 -0.532
0.0526 -0.0243 -0.669
-0.622 -0.284 -0.558
 0.290 -0.265  0.454
-0.134 -0.277  0.416
-0.425 -0.0285 -0.412
 0.432 -0.250 -0.00557
-0.454 -0.0210 -0.472
-0.281 -0.0960  0.236
-0.131 -0.277  0.345
 0.139 -0.277  0.210
-0.609 -0.0410 -0.583
 0.352 -0.0272 -0.318
 0.415 -0.245  0.447
-0.305  0.196  0.401
 0.322  0.492  0.551
0.0601  0.438  0.379
-0.434 -0.201 -0.0990
 0.270  0.197  0.496
-0.212 -0.145  0.441
 0.158  0.331  0.359
-0.254  0.104  0.317
 0.594 -0.290 -0.542
-0.147 -0.245  0.447
-0.0373 0.0282  0.303
 0.254 -0.208 -0.651
-0.295 -0.0285  0.229
-0.516 0.0314 -0.598
-0.486 -0.0661 -0.613
 0.285  0.607  0.536
 0.390  0.324  0.477
-0.294 -0.0960  0.191
-0.0298  0.302  0.516
-0.397  0.130  0.454
-0.246 -0.276 -0.427
-0.521 -0.201 -0.365
0.0901  0.300  0.354
 0.165  0.214  0.499
-0.345  0.537  0.559
 0.232 -0.171 -0.653
 0.589 -0.448 -0.566
-0.199 -0.277 -0.642
 0.397  0.197  0.469
-0.305  0.241  0.343
0.0351 -0.276 0.0842
 0.300 0.0689  0.274
 0.166 -0.277  0.335
 0.609 -0.500 -0.601
-0.479 0.0314 -0.257
-0.285  0.372  0.529
-0.315  0.309  0.462
-0.493 -0.178 -0.295
 0.380 -0.509  0.447
 0.416 -0.0227 -0.397
-0.405 -0.231  0.296
-0.0979  0.599  0.571
 0.133 -0.276 0.0822
-0.455 -0.103 -0.184
-0.418 -0.0436 -0.627
 0.589 0.0714 -0.498
 0.255 -0.276 -0.0706
 0.416 -0.171 0.0335
-0.454 -0.221 -0.618
-0.348 -0.103 -0.197
-0.584  0.151 -0.592
-0.611  0.171 -0.551
 0.210 -0.0275 -0.640
 0.516 -0.266 -0.309
 0.383 0.0514 -0.297
 0.508  0.131 -0.325
-0.616 -0.393 -0.591
-0.539 -0.271 -0.374
-0.337  0.386  0.477
-0.384 -0.0654 -0.366
 0.465 -0.233 -0.202
0.0784 -0.277  0.352
-0.296 0.0314  0.281
-0.135  0.487  0.550
 0.210  0.164  0.490
-0.446 -0.273 -0.106
 0.367 0.00636  0.461
0.0451  0.563  0.509
 0.202  0.214  0.499
-0.521  0.136 -0.365
 0.390  0.172 -0.221
 0.609 -0.0885 -0.587
 0.157 -0.0810 -0.665
-0.235 -0.276 -0.112
 0.304 -0.276  0.338
 0.554 -0.244 -0.415
 0.230 -0.277 -0.649
-0.383  0.351  0.520
 0.315 0.0695  0.473
-0.0173  0.544  0.404
-0.142  0.570  0.566
 0.376  0.536  0.559
-0.418 -0.435  0.439
-0.615 0.0639 -0.576
-0.492 -0.0348 -0.559
-0.329  0.136 -0.120
 0.292 -0.208 -0.646
-0.262  0.307  0.355
-0.460 -0.103 -0.530
-0.411 -0.238  0.371
 0.475 -0.277 -0.576
-0.376  0.479  0.529
-0.0890 -0.276 -0.170
 0.564 -0.254 -0.610
 0.459 -0.134 -0.626
 0.401 -0.391  0.408
 0.350 -0.276 -0.157
 0.363 -0.306  0.402
-0.555 -0.243 -0.428
-0.0748  0.538  0.423
-0.577 -0.423 -0.568
 0.296 -0.276 -0.148
 0.283  0.525  0.425
-0.584 -0.193 -0.592
 0.421 -0.0136  0.417
 0.524 0.0714 -0.362
 0.430 -0.255  0.379
 0.420  0.173 -0.108
 0.383  0.254  0.452
 0.561 -0.278 -0.561
 0.506 -0.186 -0.320
-0.133 -0.276 -0.623
-0.353 -0.0265 -0.318
-0.288 -0.0510 0.0262
 0.514 -0.0410 -0.340
 0.504 0.0214 -0.566
-0.466 0.0314 -0.498
-0.187  0.538  0.423
-0.466  0.106 -0.498
 0.533 -0.166 -0.382
-0.187  0.429  0.540
-0.441 0.0914 -0.129
 0.365  0.592  0.515
-0.247  0.520  0.394
 0.497 -0.231 -0.298
 0.445 -0.111 -0.125
 0.479 0.0939 -0.516
-0.262 -0.0879  0.443
 0.433 -0.206 -0.0765
 0.471 -0.0885 -0.621
 0.560 -0.277 -0.502
 0.135 -0.0953  0.442
 0.584  0.141 -0.488
 0.195  0.413  0.375
 0.247 0.0926  0.477
 0.572 0.0989 -0.463
-0.417 -0.231 -0.00384
 0.404 -0.512  0.473
 0.292 -0.0128  0.458
-0.307  0.405  0.480
 0.419 0.0422 0.00672
 0.390 -0.276 -0.0531
 0.467 0.0764 -0.208
-0.0523  0.428  0.377
0.0676  0.600  0.516
-0.180  0.604  0.550
0.0314 -0.276  0.118
-0.322 0.0391  0.467
 0.298 -0.276 -0.528
-0.330  0.570  0.566
-0.416 0.0764 -0.391
 0.494 -0.0410 -0.287
0.0227 0.0767  0.474
-0.0223  0.220  0.500
 0.412 -0.0586  0.346
 0.262 -0.277  0.319
 0.240  0.361  0.365
-0.225  0.512  0.555
 0.128  0.532  0.454
 0.302 -0.276 -0.480
-0.441 0.0164 -0.129
-0.352  0.309  0.517
-0.397 -0.0880  0.444
 0.406 -0.0885  0.184
-0.609 -0.170 -0.546
 0.601 -0.418 -0.556
0.0901  0.265  0.509
-0.300  0.190  0.495
 0.143  0.467  0.546
-0.457  0.136 -0.478
 0.382  0.329  0.521
0.0751 0.0121  0.462
 0.385 -0.277  0.344
-0.217  0.132  0.484
 0.233 -0.0256  0.283
-0.304 -0.0885 -0.0864
 0.150 0.0531  0.308
 0.257 -0.276 0.0813
 0.419 -0.276 0.0600
-0.270 -0.0261  0.191
-0.575 -0.245 -0.468
-0.380  0.414  0.514
0.0975 -0.103 -0.668
-0.367  0.462  0.491
 0.338 -0.243 -0.643
-0.317 -0.0661 -0.147
-0.382 -0.119  0.441
-0.180  0.273  0.349
-0.127  0.393  0.371
 0.591  0.136 -0.591
-0.430  0.136 -0.0793
