ply
format ascii 1.0
element vertex 2048
property float x
property float y
property float z
end_header
 0.282  0.346 -0.486
-0.507 -0.661  0.485
-0.557  0.658  0.490
 0.587 -0.661 0.0442
 0.584  0.647  0.490
-0.582 -0.254 -0.468
-0.576  0.659 -0.424
 0.121 -0.0782  0.485
0.0478 -0.672 -0.478
-0.582 -0.00581  0.205
0.00389  0.661 0.0735
 0.586 0.00958 0.000376
 0.584 -0.356 -0.484
-0.0107 -0.672  0.132
 0.574  0.662 -0.0874
-0.0399 -0.107 -0.486
 0.589 -0.341  0.479
-0.462 -0.672 -0.161
-0.171  0.331  0.485
 0.589  0.156  0.479
-0.582  0.185 -0.248
-0.0838  0.662 -0.409
-0.518  0.566 0.0296
-0.303 -0.239  0.485
 0.282 -0.669  0.485
 0.116  0.658  0.490
 0.586 0.0534 -0.424
-0.259  0.287 -0.486
 0.560  0.659 -0.489
-0.582 -0.444  0.147
 0.413 -0.672 -0.307
-0.552  0.258  0.486
-0.245 -0.429 -0.486
 0.223  0.287  0.485
 0.586  0.375  0.161
-0.0838 -0.561  0.486
 0.340  0.662  0.205
 0.267  0.661 -0.278
 0.223 -0.356 -0.486
-0.582 -0.181 -0.117
 0.586 -0.327 -0.117
-0.245  0.661  0.322
 0.586  0.346 -0.234
-0.128 -0.672 -0.190
-0.347 -0.672  0.190
-0.507 -0.634 -0.486
 0.267 0.00957 -0.486
 0.587 -0.648  0.381
-0.245  0.662 -0.131
-0.347 -0.0343 -0.486
 0.267 -0.672 -0.0289
 0.586 -0.239  0.190
 0.223 -0.371  0.485
-0.582 -0.356  0.468
-0.582  0.317  0.191
-0.576  0.365 -0.484
 0.428 -0.0928  0.485
0.0186  0.185 -0.486
-0.171 0.0242  0.485
-0.523 -0.0489  0.486
-0.582 -0.429 -0.248
-0.582  0.478 -0.219
-0.347  0.551 -0.486
 0.384 -0.672  0.220
 0.545  0.317 -0.486
0.0478  0.448 -0.486
 0.589  0.624  0.205
 0.121 -0.672 -0.234
-0.524 0.0498 -0.0337
-0.245 -0.672 -0.424
-0.552  0.112 -0.486
 0.457  0.375  0.485
 0.586 -0.00506  0.278
 0.584 -0.634 -0.484
0.0186  0.661 -0.175
 0.586 -0.166 -0.307
-0.0692 -0.312  0.485
-0.318 -0.488  0.485
-0.376  0.463  0.485
-0.578  0.551  0.264
 0.586 -0.502 -0.278
 0.340  0.583  0.488
0.0771 -0.672  0.351
 0.253  0.662 -0.0143
 0.586 -0.473  0.220
-0.0107 -0.400 -0.486
 0.413 -0.195 -0.486
-0.0984  0.565  0.486
 0.282 -0.605 -0.486
 0.326  0.583 -0.488
-0.318  0.662  0.103
-0.582  0.331 -0.0435
-0.582 -0.0343 -0.307
0.0332  0.170  0.485
-0.582 -0.239  0.278
-0.449  0.662 -0.219
 0.586  0.258 -0.0289
 0.428 -0.502  0.485
-0.0107  0.661  0.307
-0.215 -0.672 0.0150
 0.121  0.658 -0.489
-0.172 -0.672  0.322
 0.587  0.580 -0.292
 0.586  0.112 -0.219
0.0332  0.390  0.485
-0.481 -0.547  0.303
-0.376  0.141  0.486
-0.582 -0.517 -0.0581
 0.311 0.0973  0.485
-0.215 -0.224 -0.486
 0.413  0.156 -0.486
 0.586  0.463  0.351
 0.573 -0.672 -0.161
-0.449 -0.429 -0.486
-0.186 0.0973 -0.486
 0.586  0.463 -0.0581
-0.274  0.662 -0.336
-0.582  0.463  0.454
 0.586  0.185  0.220
-0.352  0.658  0.490
-0.582  0.156  0.322
-0.471 -0.669 0.0345
 0.428 -0.473 -0.486
 0.179 -0.672  0.176
0.0332 -0.672 -0.0581
-0.142  0.492 -0.486
 0.106 -0.531  0.485
-0.582 -0.254 0.0881
 0.586 -0.458 0.0296
 0.586 -0.181 0.000365
-0.303 -0.672  0.454
-0.420  0.662  0.264
 0.586 -0.151  0.410
 0.428  0.662 0.0442
 0.136 -0.195 -0.486
 0.584 -0.122 -0.484
-0.406 -0.210 -0.486
-0.537 -0.0782 -0.486
 0.443  0.662 -0.219
 0.384 -0.268  0.485
 0.194  0.478  0.485
 0.472  0.662  0.337
 0.179  0.662  0.322
-0.142  0.661  0.176
-0.582 -0.224 -0.292
-0.435  0.258 -0.486
 0.165  0.662  0.147
-0.582  0.185 0.0735
-0.391 -0.672 -0.321
-0.0984 -0.575 -0.486
 0.472  0.492 -0.486
-0.332 -0.0343  0.485
 0.586 -0.0782 -0.146
 0.136 -0.502 -0.486
-0.582  0.638 -0.117
 0.443 -0.672 -0.0435
-0.0399 -0.672 -0.336
0.0917 -0.00505 -0.486
-0.406  0.662 -0.0581
-0.0692 -0.107  0.485
-0.0984  0.331 -0.486
-0.289 -0.672 -0.146
 0.106  0.661 -0.321
0.0917 -0.268  0.485
 0.586  0.287  0.351
 0.586  0.214 -0.351
 0.238  0.185 -0.486
 0.457 -0.672  0.479
-0.508 -0.534 -0.351
 0.586 -0.341 -0.321
-0.493 -0.210  0.485
-0.508  0.521 -0.486
-0.332  0.302  0.485
-0.582 -0.0928 0.0589
 0.282 -0.672 -0.204
 0.238 -0.195  0.485
-0.582 -0.415  0.307
-0.582 -0.517  0.439
 0.443 -0.0343 -0.486
-0.582  0.331 -0.321
-0.582 -0.356 -0.102
-0.142  0.662 0.000353
 0.586  0.434 -0.380
 0.573 -0.672  0.220
 0.589 -0.517  0.479
 0.574 -0.00504  0.485
 0.573 -0.672 -0.321
-0.230  0.658 -0.489
-0.362 -0.561 -0.486
-0.420  0.662 -0.394
 0.238 -0.672  0.322
-0.576 0.0973  0.485
-0.537  0.662  0.161
-0.128  0.662 -0.234
 0.586 -0.356  0.322
-0.215 -0.371  0.485
-0.420 -0.371  0.485
 0.586  0.580 0.0442
 0.433 -0.669 -0.484
-0.582  0.434 0.0735
-0.215  0.185  0.486
 0.399  0.661 -0.365
 0.413  0.229  0.485
 0.238 -0.672 -0.351
-0.186 -0.0635 -0.486
 0.194  0.492 -0.486
-0.391  0.112 -0.486
 0.267 -0.517  0.485
 0.586 -0.532 -0.102
-0.582 -0.385 -0.394
 0.530  0.507  0.485
-0.406 -0.672  0.337
-0.376  0.404 -0.486
-0.186 -0.672  0.161
0.00392 0.0242  0.486
-0.582  0.346  0.337
 0.165 0.0681  0.485
 0.106  0.662 -0.0435
-0.518 0.0245  0.337
-0.230  0.478  0.485
-0.525 0.0109 -0.175
 0.586 -0.0928  0.161
-0.215 -0.122  0.485
-0.582 -0.122  0.366
 0.106  0.302 -0.486
-0.481 -0.547  0.127
-0.576  0.605 -0.287
 0.586  0.156 0.0735
 0.165  0.661 -0.175
 0.586 -0.0197 -0.278
-0.201  0.661  0.468
0.0186 -0.672  0.479
0.0478  0.536  0.485
-0.492 -0.538 -0.190
 0.586 -0.488 -0.438
-0.582 -0.517 -0.478
0.00396  0.583 -0.488
 0.311  0.662 -0.146
 0.384 -0.341 -0.486
-0.582  0.478 -0.0581
-0.582  0.463 -0.365
 0.586 -0.327 0.0735
-0.576  0.659  0.351
 0.282 -0.151 -0.486
 0.311 -0.672  0.103
-0.0107 -0.444  0.485
 0.457 -0.672  0.337
 0.584  0.312  0.484
-0.0984 -0.298 -0.486
 0.326  0.448  0.485
 0.586  0.478 -0.204
 0.545  0.170 -0.486
 0.586 0.0388  0.147
-0.582  0.200 -0.0581
 0.296 -0.0343  0.485
-0.582  0.317 -0.175
 0.413  0.361 -0.486
 0.253  0.661 -0.409
 0.587  0.594  0.337
-0.582  0.200 -0.380
 0.586 -0.239 -0.424
-0.0107  0.661  0.439
-0.245 -0.672 -0.292
-0.0399 0.0242 -0.486
 0.443 -0.672 0.0881
-0.524 0.0498 0.0979
-0.474 -0.648  0.220
 0.586  0.492  0.220
 0.282 -0.473 -0.486
 0.428  0.662 -0.0874
-0.0399 -0.672  0.293
 0.586 -0.488  0.351
-0.0546  0.273  0.486
 0.296  0.662  0.381
-0.157 -0.669  0.485
-0.347 -0.672 0.000352
-0.230 -0.561 -0.486
 0.501 -0.210  0.485
-0.464 -0.532  0.486
 0.586  0.156  0.351
-0.435  0.661  0.395
-0.582 -0.137  0.205
-0.332 -0.312 -0.486
 0.106 -0.672 0.0442
-0.0692 -0.672 0.0150
-0.582 -0.415 0.0150
0.0917 -0.327 -0.486
-0.479  0.536  0.486
-0.479  0.390  0.485
-0.582 -0.151 -0.394
-0.582  0.141  0.191
 0.587  0.551 -0.424
0.00393 -0.672 -0.190
-0.128  0.661  0.366
 0.472 -0.385  0.485
 0.586 -0.137  0.278
 0.136  0.112 -0.486
 0.586  0.214 -0.146
-0.582 -0.0635 -0.0727
-0.0253  0.662 -0.0581
 0.179 -0.672 -0.117
 0.586 -0.546  0.117
-0.0838  0.112  0.485
 0.457  0.624  0.494
 0.487 0.0827  0.485
-0.518 0.0245 -0.394
-0.474 -0.575 -0.0581
 0.238  0.651  0.493
 0.165 -0.634 -0.486
0.0917 -0.672 -0.351
 0.586 -0.210 -0.146
 0.457  0.662  0.176
 0.586  0.127 -0.0435
0.0332  0.662  0.190
 0.399 -0.672 -0.175
-0.0107  0.662 -0.291
-0.582  0.112 -0.146
 0.136 -0.648  0.485
 0.428  0.661 -0.481
-0.582  0.434  0.249
-0.576 -0.533  0.225
 0.516  0.662 -0.380
 0.106  0.273  0.485
-0.113  0.214 -0.486
-0.215 -0.546  0.486
 0.355  0.463 -0.486
-0.391 -0.137  0.485
-0.289  0.170 -0.486
 0.586  0.390 0.0442
-0.582 -0.0928 -0.204
-0.128 -0.210  0.485
-0.259  0.662 -0.0143
 0.586 -0.429 -0.175
 0.282  0.662  0.103
 0.340 -0.672 -0.409
-0.128 -0.672 -0.424
-0.582  0.317 0.0735
 0.574  0.662 -0.204
 0.586  0.346 -0.117
-0.376 -0.672 -0.453
-0.518  0.566 -0.380
0.0186 -0.561 -0.486
0.0186 -0.239 -0.486
 0.194 -0.0782 -0.486
-0.449 0.0388  0.486
 0.487 -0.283 -0.486
 0.340 -0.429  0.485
-0.582 -0.312  0.191
-0.582 -0.254 -0.0289
-0.582 0.0973 -0.321
-0.303 -0.151 -0.486
-0.128 -0.444  0.485
-0.518  0.566 -0.175
-0.479  0.658 -0.489
-0.449 0.00957 -0.486
 0.586 -0.0635 -0.380
-0.0838 -0.672  0.395
-0.215  0.390 -0.486
-0.582 -0.254  0.424
 0.586 -0.254  0.366
-0.435  0.662  0.117
 0.586 -0.371  0.176
0.0917 -0.400  0.485
-0.274  0.662  0.205
-0.289 0.0681  0.485
 0.150  0.375  0.486
-0.576  0.659 0.0442
-0.525  0.553  0.147
 0.560 -0.634  0.485
-0.362  0.658 -0.489
-0.576 -0.533 0.0784
-0.564  0.549  0.371
-0.493 -0.312 -0.486
 0.487 -0.575 -0.486
 0.355 -0.590  0.485
-0.582  0.258 -0.478
-0.474 -0.605 -0.278
-0.391 -0.619  0.485
 0.589  0.419  0.468
 0.586 -0.575 -0.365
-0.449  0.229  0.485
-0.186 -0.672 -0.0874
 0.355 -0.672  0.366
-0.347  0.662 -0.161
 0.586 0.0827 -0.321
 0.209 -0.672 0.0735
 0.586 0.0242 -0.117
 0.253 -0.254 -0.486
 0.586  0.273  0.132
-0.0692  0.419  0.485
 0.384  0.258 -0.486
-0.245  0.521 -0.486
 0.574  0.419 -0.486
-0.508 -0.181 -0.486
-0.582  0.244  0.381
 0.282  0.200  0.485
-0.582 -0.312 -0.234
-0.113  0.662 -0.117
0.0771  0.662  0.366
-0.0984 -0.458 -0.486
-0.274 -0.672  0.103
 0.384 0.0534 -0.486
0.00396 -0.210  0.485
 0.340 -0.151  0.485
 0.586  0.565 -0.146
-0.582 -0.488 -0.161
 0.586  0.317  0.249
-0.0692 -0.672 -0.102
 0.545  0.662  0.117
-0.471 -0.669 -0.390
 0.487 -0.672 -0.394
-0.474 -0.619  0.395
-0.566 -0.533 -0.263
-0.479  0.419 -0.486
-0.201 -0.327 -0.486
 0.370  0.662  0.307
0.0186  0.661 -0.394
 0.223  0.598 -0.491
 0.530  0.662 0.0150
-0.274 0.0388 -0.486
0.0624 -0.672  0.205
-0.332  0.661  0.381
 0.428  0.492  0.485
-0.274 -0.672  0.307
-0.113 -0.195 -0.486
 0.586  0.317 -0.336
 0.586  0.478  0.117
 0.586 -0.561 0.0150
-0.435 -0.0928 -0.486
-0.582  0.361  0.439
 0.179  0.390 -0.486
 0.586 -0.283 -0.219
-0.347 -0.444 -0.486
 0.340  0.302  0.485
-0.376  0.662 -0.292
 0.501 -0.672 -0.234
 0.573 -0.672 -0.0581
-0.274  0.662 -0.234
-0.215  0.662  0.103
0.00395  0.302 -0.486
 0.165  0.662 0.0442
 0.135  0.170  0.486
-0.582 -0.00581  0.410
-0.113  0.612 -0.493
 0.586 -0.575  0.249
 0.586 0.0388  0.395
 0.399  0.662  0.424
-0.186  0.662 -0.380
 0.586 -0.283 -0.0289
 0.355 -0.0782 -0.486
-0.347 -0.672 -0.234
 0.586 -0.0782 -0.0435
-0.479  0.662 0.0296
 0.586 -0.590 -0.234
-0.0838  0.112 -0.486
 0.487 0.0534 -0.486
 0.586 0.0827  0.234
0.0917 -0.107 -0.486
-0.0838 -0.672  0.205
-0.332  0.551  0.486
-0.508  0.662 -0.351
 0.282 -0.283  0.485
-0.391 -0.672  0.103
 0.516 -0.429 -0.486
-0.582 -0.356  0.103
 0.530 -0.0928  0.485
-0.480 -0.549 -0.444
-0.518 0.0385 -0.277
-0.537 -0.444  0.486
-0.420 -0.672 -0.0728
 0.487 -0.672  0.176
-0.566 -0.415 -0.486
 0.586 -0.429  0.439
 0.516  0.662  0.424
-0.552  0.662 -0.204
 0.501  0.583 -0.488
0.0917  0.662  0.264
-0.289  0.404  0.485
-0.493 -0.312  0.485
-0.508  0.200 -0.486
 0.487 -0.137 -0.486
-0.582  0.273  0.278
 0.223  0.662  0.220
-0.582 -0.283 -0.365
 0.413 0.0242  0.485
 0.355  0.662 -0.0143
 0.587 -0.166  0.103
-0.0692  0.434 -0.486
 0.326 -0.672 -0.102
-0.582  0.404 -0.117
-0.142 -0.672 0.0735
 0.586 -0.0343 0.0881
 0.253  0.390  0.485
 0.253  0.551  0.485
 0.586 -0.385 -0.0435
-0.582 -0.0489  0.307
 0.209 -0.590  0.485
 0.586 -0.400 -0.394
 0.516  0.662 -0.278
-0.582 -0.327  0.366
 0.355 -0.532 -0.486
0.0917  0.551 -0.486
 0.135 -0.672  0.278
-0.582 -0.0489 -0.409
-0.0887  0.658  0.490
 0.501  0.185  0.485
-0.464  0.651  0.493
-0.493  0.662 -0.102
-0.215 -0.268  0.485
 0.267 -0.672  0.234
-0.582 -0.473 -0.365
 0.340  0.661 -0.438
0.0478 0.0827 -0.486
 0.194  0.662 -0.0874
-0.0545  0.661  0.147
-0.142  0.244  0.486
0.0186 -0.561  0.485
-0.582  0.229  0.161
 0.586  0.375  0.381
 0.586 -0.0489  0.366
-0.376  0.662 0.0296
-0.582 -0.181 0.0296
 0.136  0.565  0.486
 0.355 -0.672 0.000353
0.0478 -0.473 -0.486
-0.582  0.214 -0.161
 0.326  0.127 -0.486
 0.586  0.200 -0.248
 0.311 -0.672 -0.292
-0.303  0.214  0.485
-0.0838 -0.00504  0.485
0.0917 -0.166  0.485
-0.582 0.0827 0.0296
-0.577  0.551  0.479
-0.0399 -0.672 -0.453
-0.552  0.662  0.264
-0.576 -0.122  0.485
-0.566 -0.533  0.351
 0.589 -0.224  0.468
-0.582 0.0827  0.395
 0.413  0.565 -0.486
 0.560 -0.00505 -0.486
 0.586  0.419 -0.292
-0.303 -0.356  0.485
-0.582 -0.195 -0.204
 0.106  0.463  0.485
 0.209 -0.0197  0.485
0.0917  0.661 -0.234
 0.355  0.662 -0.234
-0.406 -0.283  0.485
0.0917 0.00958  0.485
0.0917 -0.672 -0.131
-0.582 -0.166  0.117
0.0332 -0.0635  0.485
 0.179 -0.283  0.485
 0.399  0.112  0.485
-0.420  0.317  0.485
 0.165  0.661 -0.394
-0.128  0.661  0.264
 0.586 -0.151 -0.394
 0.165  0.662  0.410
-0.157 -0.672 -0.307
 0.223 -0.107  0.485
 0.121  0.200 -0.486
 0.487 -0.298  0.485
-0.347  0.273 -0.486
-0.582 0.0827 -0.234
 0.179 0.0242 -0.486
 0.150 -0.415 -0.486
-0.582  0.448 -0.453
-0.525  0.553 -0.0874
-0.582 -0.0197  0.117
-0.582  0.492  0.176
 0.583 -0.669  0.132
 0.487 -0.672 -0.146
-0.566 0.0582  0.264
-0.303  0.662 -0.424
 0.587  0.112 -0.131
-0.435 -0.0489  0.485
 0.586 -0.224  0.278
 0.238 -0.672 -0.438
-0.582 -0.224  0.191
-0.0692 -0.669  0.485
 0.586  0.551 -0.0581
-0.582 -0.122 -0.307
-0.201  0.214 -0.486
-0.186  0.565  0.486
 0.586 -0.254 -0.321
-0.142  0.478  0.485
-0.128 0.0242 -0.486
 0.194  0.302 -0.486
-0.582 -0.327  0.278
-0.567 0.00399 -0.478
-0.576  0.605 -0.0240
 0.586  0.273 -0.424
-0.547  0.606 -0.489
-0.171  0.112  0.485
-0.420 -0.458  0.485
 0.179  0.661 -0.277
 0.586  0.244  0.424
 0.586 -0.0928 -0.234
 0.106 -0.672  0.132
 0.586  0.361 -0.424
-0.435  0.565 -0.486
 0.501 -0.546  0.485
 0.472  0.273 -0.486
-0.582 -0.356 -0.307
 0.311 -0.385 -0.486
-0.582 -0.283 -0.146
 0.209 -0.672 -0.248
 0.586 -0.385 -0.248
 0.209 -0.561 -0.486
-0.582 -0.444  0.395
 0.545  0.662  0.293
-0.582  0.375 -0.394
 0.487  0.404 -0.486
-0.406 -0.356 -0.486
-0.289  0.448 -0.486
-0.582  0.419 -0.292
0.0186 -0.356  0.485
 0.586  0.302 0.0442
 0.223 0.0973 -0.486
 0.150 -0.672 -0.0289
0.0770 0.0973  0.486
 0.165 -0.444  0.485
-0.582 -0.327 0.0150
0.0478 -0.672 -0.278
-0.554 0.00134 0.0296
 0.586  0.507 -0.336
 0.586 -0.517 -0.190
 0.530 -0.210 -0.486
-0.215 -0.672 -0.190
-0.318 -0.672 -0.365
 0.165 -0.672  0.366
 0.587  0.551  0.439
-0.523 -0.534 0.000373
 0.370 -0.672  0.468
 0.530 -0.672  0.293
 0.584  0.659 -0.326
-0.508  0.317 -0.486
-0.474 -0.634  0.307
-0.582 0.0973 -0.409
-0.303 -0.648 -0.486
-0.435 -0.672 -0.248
-0.582  0.536 0.0881
-0.582  0.536 -0.424
 0.586  0.565  0.147
-0.186  0.662 -0.292
 0.223 -0.672  0.424
-0.230  0.273  0.485
-0.215 -0.672  0.249
-0.289 -0.502 -0.486
-0.582  0.375  0.132
-0.582  0.521 -0.307
-0.582  0.258 0.000383
-0.274 -0.672 -0.0435
-0.230 -0.0343  0.485
-0.0838  0.662 0.0589
-0.0692 -0.672 -0.248
-0.186  0.662 -0.0728
-0.0399  0.507  0.485
 0.516 -0.672 0.000353
-0.471 -0.669  0.122
-0.582  0.612  0.424
-0.406 -0.672  0.424
-0.508  0.141  0.486
-0.474 -0.590 0.0588
-0.0399  0.651 -0.493
-0.186 -0.672  0.410
-0.0253  0.598  0.491
 0.590  0.651 -0.409
 0.586  0.141 -0.424
 0.326  0.661  0.481
-0.518  0.580  0.308
-0.492 -0.538  0.381
-0.581  0.185  0.479
-0.518 0.0385  0.176
-0.186  0.583 -0.488
 0.370  0.375  0.486
 0.267  0.463 -0.486
-0.391  0.662  0.190
 0.586  0.390  0.278
 0.586  0.375 -0.0435
 0.370  0.662  0.132
-0.582  0.200  0.249
 0.326 -0.224 -0.486
 0.586 -0.458 -0.0728
-0.0107 -0.312 -0.486
 0.487 -0.00504  0.485
-0.0545  0.185  0.485
-0.274 -0.0782 -0.486
 0.587 -0.561  0.381
-0.186  0.317 -0.486
-0.128 -0.371 -0.486
 0.487  0.302  0.485
 0.165 -0.268 -0.486
 0.267  0.662  0.307
-0.303 -0.107  0.485
0.00393 -0.672  0.381
 0.326 -0.672  0.293
0.00393 -0.672 0.0442
-0.493 -0.122  0.485
-0.142 -0.672 -0.0143
 0.586 0.0827 0.0296
-0.582  0.112  0.103
 0.355 -0.634 -0.486
-0.245 -0.444  0.485
 0.165 -0.672 -0.409
 0.560 -0.546 -0.486
 0.238  0.127  0.485
-0.0399  0.507 -0.486
 0.586 -0.400  0.103
 0.238  0.662 -0.204
 0.586  0.214  0.293
 0.586 -0.327  0.395
-0.318  0.346 -0.486
 0.586 -0.312 -0.394
-0.582 -0.385  0.220
 0.586  0.521  0.293
 0.165 -0.672 -0.321
-0.376 -0.672  0.264
 0.516 -0.672 -0.468
-0.577 0.00244 -0.117
-0.582 -0.00581 -0.234
-0.157 -0.634 -0.486
 0.530 -0.458  0.485
 0.584 0.0778  0.484
-0.518  0.580  0.220
 0.587 -0.648 -0.394
-0.537  0.547 -0.248
 0.282  0.658 -0.489
-0.518 0.0245  0.454
-0.157  0.662 -0.453
-0.582 -0.341 -0.468
0.0478  0.624  0.494
-0.582  0.478  0.351
 0.545  0.521 -0.486
-0.537 -0.534 -0.117
 0.589  0.651  0.410
-0.259 -0.619  0.485
-0.582 -0.166 -0.478
-0.289  0.598 -0.491
 0.487 -0.672  0.410
-0.582  0.612 -0.365
-0.0838  0.662 -0.307
-0.332 -0.561  0.486
-0.376 -0.210  0.485
 0.428 -0.195  0.485
-0.420  0.662 -0.146
 0.311  0.273 -0.486
-0.113 -0.0928 -0.486
-0.582 -0.151  0.278
-0.362 -0.672 -0.131
-0.376 0.0534  0.485
0.0186  0.375 -0.486
 0.586 -0.0197  0.205
 0.586 -0.00506 -0.204
 0.586 -0.254 0.0881
0.0186  0.244  0.485
-0.0399  0.661  0.220
-0.464 0.0973 -0.486
0.0917  0.661 -0.117
-0.508  0.662  0.410
-0.201 -0.195  0.486
-0.420  0.331 -0.486
 0.501 -0.356 -0.486
-0.582  0.361  0.264
-0.142 -0.0928  0.485
0.0917  0.662  0.132
 0.587 -0.0928 0.0296
-0.142 -0.327  0.485
 0.560 0.0973 -0.486
0.0917  0.661 -0.409
-0.582 0.0973 -0.0435
-0.0107 0.0973  0.485
0.0186 -0.137  0.485
0.0917  0.662 0.0296
 0.586  0.141  0.147
 0.209  0.214  0.486
-0.289 -0.239 -0.486
 0.253 -0.672  0.161
-0.582  0.346 -0.248
-0.171 -0.473 -0.486
-0.582 -0.371 -0.175
 0.399 -0.341  0.485
 0.457  0.662  0.264
-0.215  0.661  0.395
-0.582 -0.429 -0.0874
 0.326 -0.356  0.485
 0.501  0.662 -0.0728
0.0332 -0.166 -0.486
 0.282 -0.0635 -0.486
-0.582  0.404 -0.0289
 0.587 -0.0635  0.439
 0.586 -0.473 -0.365
-0.582 -0.488  0.293
-0.157  0.404  0.485
-0.582 -0.181  0.439
 0.583 -0.669 -0.248
-0.520 -0.590  0.470
-0.259  0.624  0.494
-0.479  0.662  0.337
-0.0399  0.662 -0.219
-0.274  0.141  0.486
 0.586 -0.429  0.307
 0.106 -0.590 -0.486
-0.318 0.0973 -0.486
0.0186  0.463  0.485
 0.587  0.273 -0.248
-0.481 -0.547  0.229
 0.586 -0.473  0.103
-0.582  0.302 -0.394
 0.106  0.375 -0.486
 0.340 -0.502  0.485
-0.201 0.0242 -0.486
 0.487 -0.672 -0.307
-0.142  0.419 -0.486
 0.413 -0.672 -0.394
-0.332  0.662 -0.0581
-0.471 -0.669 -0.316
 0.209 -0.488 -0.486
-0.464  0.662  0.190
 0.589  0.624 -0.0142
 0.150 -0.210  0.485
 0.586 0.00956 -0.365
0.00393 -0.672 -0.394
0.0478  0.658 -0.489
 0.238 0.0535  0.485
-0.0399  0.244 -0.486
-0.362  0.661  0.307
 0.355  0.662 -0.307
 0.586 -0.312  0.220
 0.472 -0.672  0.249
-0.274 -0.672  0.205
 0.296  0.661 -0.351
 0.487  0.662 -0.161
 0.443 -0.590  0.485
 0.370 -0.429 -0.486
 0.326 -0.298 -0.486
-0.347  0.662 -0.365
-0.420 -0.517 -0.486
 0.282 -0.672  0.381
 0.326 -0.672  0.176
-0.289 -0.371 -0.486
-0.347 -0.672  0.381
 0.586 -0.415 -0.321
-0.172  0.662 -0.161
 0.586 -0.210 -0.248
 0.586 -0.590  0.176
-0.0107 -0.672  0.205
-0.0838 -0.672  0.132
-0.582  0.258 -0.102
-0.201 -0.672 -0.365
 0.586  0.404 -0.190
-0.0838 -0.385  0.485
-0.582  0.419  0.395
 0.586 -0.151  0.205
-0.582  0.478 0.0150
 0.586 0.0534  0.322
 0.586 -0.210 -0.0728
 0.516 -0.0635 -0.486
0.0185  0.662 0.000344
-0.523  0.662 -0.0289
-0.142  0.662  0.103
 0.384 -0.672  0.132
-0.157 -0.590  0.486
-0.582  0.478 -0.131
-0.142 -0.672  0.249
-0.582  0.156 0.000383
 0.586  0.463 -0.131
-0.0545  0.661  0.366
 0.586  0.141  0.278
0.0624 -0.672  0.278
 0.413  0.317  0.485
 0.586  0.580 -0.219
-0.523 -0.473 -0.486
 0.399 -0.672 -0.102
 0.530  0.375  0.485
 0.516 -0.672 0.0881
-0.582 -0.488 0.0150
-0.406 -0.283 -0.486
-0.582  0.258 -0.248
-0.582  0.185 -0.478
-0.449  0.662 -0.292
-0.376  0.390  0.485
 0.355 -0.151 -0.486
-0.582 -0.254  0.351
 0.530  0.598  0.491
 0.472  0.551  0.486
 0.413 -0.672  0.410
 0.586 -0.590 -0.146
 0.355  0.185  0.485
0.0625 -0.473  0.485
-0.576  0.605  0.108
-0.289  0.661  0.439
-0.391  0.598  0.491
-0.474 -0.575 -0.131
 0.530  0.662  0.190
-0.445 -0.669 -0.484
 0.589 -0.429 -0.478
-0.552  0.404  0.486
 0.589 -0.137  0.479
-0.582  0.170  0.410
-0.582  0.536 -0.175
 0.584  0.229 -0.484
-0.492 -0.538 -0.263
-0.582 -0.517  0.147
 0.586 -0.605 -0.0728
0.0624 -0.672  0.424
0.0917 -0.672 -0.424
-0.552 -0.268  0.486
-0.582 -0.527 -0.409
-0.535 0.0562 -0.102
 0.586  0.112  0.424
-0.525  0.592  0.463
 0.587  0.478 -0.453
-0.577 0.0616  0.152
-0.577 0.00244 -0.365
-0.474 -0.590 -0.365
 0.584  0.580 -0.484
-0.493  0.662 -0.424
 0.194  0.598  0.491
 0.150  0.583 -0.488
-0.582  0.638  0.205
-0.474 -0.648 -0.0289
 0.584  0.659 0.0540
 0.587 -0.0635 -0.453
-0.582 -0.458 -0.438
-0.582 -0.0197  0.479
-0.449 -0.590 -0.486
-0.576  0.512 -0.484
-0.523 -0.534  0.176
-0.493  0.287  0.485
 0.428  0.434 -0.486
 0.428 -0.400 -0.486
-0.347  0.662 -0.234
 0.586 -0.312  0.147
-0.157 -0.502  0.485
 0.428 -0.546 -0.486
-0.420  0.170 -0.486
 0.135  0.662  0.205
-0.406  0.521  0.485
 0.586 -0.546  0.307
-0.449  0.478 -0.486
-0.582 -0.224 -0.409
 0.472  0.185 -0.486
-0.582  0.229 -0.321
 0.150 -0.341  0.485
 0.267  0.478  0.485
 0.282  0.662 -0.0728
 0.586  0.185 0.0150
 0.487  0.662 0.0881
 0.586  0.492 0.000365
-0.0984 -0.672  0.322
-0.0692 -0.517 -0.486
-0.0399  0.662 -0.146
-0.0107 -0.619 -0.486
-0.582  0.536 -0.0289
-0.0838  0.661  0.424
0.0332 -0.0782 -0.486
0.0771 -0.590  0.486
 0.209 -0.672 0.000353
-0.0692 -0.473  0.485
 0.586  0.331  0.103
 0.223  0.662 0.0735
 0.586  0.200 -0.0581
 0.413 -0.672 0.0296
-0.0838  0.331  0.485
 0.587 -0.400  0.234
 0.282  0.331  0.486
-0.303  0.661  0.278
-0.566  0.662 -0.321
 0.530  0.244  0.485
-0.376 -0.122 -0.486
 0.586  0.141 -0.278
-0.142  0.156 -0.486
 0.428 -0.107 -0.486
 0.413 -0.672  0.278
-0.474 -0.634 -0.102
 0.179 -0.672 -0.190
 0.253  0.662  0.161
-0.142  0.170  0.485
-0.274 -0.298  0.485
 0.384 -0.672 -0.248
-0.582 -0.181  0.337
-0.582  0.419 -0.190
 0.586  0.273 -0.117
 0.370  0.662 -0.117
-0.0692 -0.672 -0.394
 0.586 0.0534 -0.248
-0.376 0.0242 -0.486
 0.457  0.662 -0.0143
-0.582 -0.0928 -0.131
 0.586 -0.151 -0.204
 0.586 -0.137 -0.0728
0.0478 -0.672  0.103
 0.282 -0.672 0.0442
 0.326 0.0242  0.485
-0.582 -0.0782  0.176
 0.586 -0.356 0.0150
-0.582  0.375 0.0296
-0.582 -0.122 -0.0435
 0.399  0.434  0.486
 0.586  0.521  0.381
 0.296 -0.672 -0.468
-0.582  0.404  0.191
-0.274 -0.166  0.485
-0.186 -0.166 -0.486
 0.586 -0.634  0.278
 0.238 -0.672 -0.0874
0.0624 -0.385 -0.486
0.0478  0.244 -0.486
 0.340  0.662 0.0735
 0.586 -0.590  0.439
 0.586  0.521 -0.263
 0.586 -0.283  0.307
-0.142  0.612  0.493
-0.582  0.612  0.293
-0.507 0.0388 -0.486
-0.518  0.566 -0.307
 0.584  0.659  0.346
-0.210 -0.669 -0.484
 0.370  0.638 -0.493
 0.586 -0.590 -0.438
 0.511  0.658  0.490
-0.435 -0.672  0.176
-0.525 0.0106  0.264
-0.576 -0.533 -0.346
-0.582  0.287  0.439
 0.501  0.661 -0.468
-0.576  0.605 -0.214
-0.171 -0.268 -0.486
-0.0935 -0.669 -0.484
-0.0399 -0.0490  0.486
-0.0838  0.551 -0.486
-0.479 -0.0489 -0.486
-0.523  0.346  0.486
-0.493 -0.400  0.485
-0.376 -0.517  0.485
-0.376  0.214 -0.486
 0.194  0.229 -0.486
 0.487  0.463  0.485
 0.586  0.346  0.322
 0.586  0.448  0.176
-0.230 -0.672  0.351
-0.582  0.141 -0.0874
 0.586 -0.0197 -0.0728
0.0186  0.661 -0.102
-0.0107  0.346  0.485
 0.588  0.609  0.103
0.0771 -0.672 -0.0143
0.00395 -0.0197 -0.486
-0.0253 -0.672 -0.0289
 0.443 0.0973 -0.486
 0.487 -0.137  0.485
-0.582 -0.0928 -0.365
-0.0399  0.662 -0.365
-0.215  0.662 0.0296
 0.586 0.0827  0.103
 0.370 -0.0197  0.485
 0.150 -0.0343 -0.486
-0.303  0.662 0.0296
 0.587  0.156 -0.175
-0.391  0.661  0.439
 0.443  0.661 -0.409
 0.530 -0.672  0.366
-0.474 -0.605  0.176
 0.586  0.302 -0.190
 0.209 -0.488  0.485
-0.391 -0.672 -0.190
 0.586 -0.502  0.161
 0.223  0.661 -0.321
 0.472  0.662 -0.321
-0.376 -0.415  0.485
 0.340  0.214 -0.486
 0.267 -0.415  0.485
-0.245  0.361  0.485
 0.253  0.662  0.424
 0.296  0.662  0.249
 0.238 -0.429 -0.486
-0.157  0.661  0.424
-0.142 -0.532 -0.486
-0.582  0.141 -0.204
 0.296 -0.107  0.485
-0.582  0.273  0.117
-0.582 -0.166 -0.263
 0.457  0.141  0.485
 0.413  0.662  0.220
-0.435  0.434  0.485
-0.142  0.662 -0.336
 0.311  0.419 -0.486
 0.586 -0.0928  0.234
 0.238  0.662 -0.131
-0.420  0.638 -0.493
 0.194 -0.669  0.485
-0.435 -0.672  0.479
-0.508 -0.534 0.0735
 0.586 -0.619 -0.292
 0.399  0.565  0.485
-0.508 -0.538  0.441
-0.215 -0.672  0.468
0.0185  0.661  0.382
-0.215  0.661  0.220
0.0185  0.661  0.249
-0.362 -0.672  0.479
-0.572  0.551  0.186
0.0771 -0.210 -0.486
 0.194  0.651 -0.493
 0.587 -0.298 -0.453
 0.586  0.258 -0.307
-0.479 -0.473  0.486
 0.296 -0.605  0.486
-0.289 -0.575 -0.486
-0.289  0.492  0.485
 0.586 -0.166  0.351
 0.586 -0.429  0.161
 0.586 -0.268  0.424
 0.121  0.434 -0.486
 0.413  0.662  0.366
 0.296 -0.224  0.485
-0.406 -0.672 -0.380
 0.165 -0.151  0.485
 0.586  0.214  0.366
-0.332 -0.672 -0.292
 0.428 -0.298 -0.486
-0.186  0.661  0.337
 0.586  0.156 -0.365
 0.384  0.662 -0.175
 0.586 -0.517 -0.0435
0.0332  0.661 -0.248
-0.274 -0.298 -0.486
 0.370 -0.210  0.485
-0.493 -0.122 -0.486
 0.586  0.170  0.410
-0.582  0.214  0.307
 0.586  0.463 0.0589
 0.106  0.662  0.424
-0.582 -0.444 -0.307
 0.267 -0.672 -0.146
-0.142 -0.672 -0.248
 0.194 -0.672  0.264
-0.245  0.662 -0.409
-0.523  0.463 -0.486
-0.493  0.448  0.485
-0.391  0.244  0.485
-0.289 -0.672 -0.248
 0.586 -0.444 -0.263
 0.282  0.521 -0.486
 0.209  0.346  0.485
 0.267 -0.312 -0.486
 0.472  0.346 -0.486
 0.586 -0.107 -0.292
0.00395  0.127 -0.486
 0.326 -0.00505 -0.486
 0.587 0.0681 -0.0581
-0.464  0.662 -0.0435
0.0186 -0.672 -0.131
-0.230 0.0827  0.485
0.0186 -0.672  0.322
-0.582 -0.0635  0.249
-0.201 -0.672 0.0881
 0.165  0.662 -0.0289
0.0771 -0.672 -0.190
 0.586 -0.0635  0.307
-0.406 -0.672 0.0150
0.00396 -0.298  0.485
0.00396 -0.502  0.485
 0.586 -0.619 -0.0143
-0.582 -0.239 -0.0874
-0.464 0.0973  0.486
0.0186  0.521 -0.486
-0.128  0.662 -0.0581
 0.586 0.0242 0.0735
-0.376 -0.0782  0.485
-0.289 -0.0197 -0.486
-0.245 0.0242  0.485
 0.282 0.0681 -0.486
-0.0107 -0.502 -0.486
 0.586 -0.239 0.0296
-0.201  0.661  0.161
 0.399  0.638  0.494
-0.537  0.662 -0.263
-0.303 -0.429  0.485
-0.245  0.551  0.486
-0.347 -0.224 -0.486
 0.253  0.287 -0.486
-0.0399  0.346 -0.486
-0.552  0.662  0.103
-0.274 -0.532  0.486
 0.238 -0.195 -0.486
 0.586  0.200  0.132
-0.479  0.662 -0.161
-0.582 -0.473  0.234
-0.303  0.662 -0.117
-0.186  0.662 -0.219
-0.0838 -0.672 -0.0435
0.0478  0.661 -0.307
-0.0545 -0.224  0.485
-0.0253 -0.181 -0.486
-0.582  0.244 0.0589
-0.0692  0.661  0.278
-0.582 0.0973  0.307
-0.582 -0.429 0.0881
 0.150 -0.341 -0.486
-0.0692 -0.672 -0.175
 0.587  0.492 -0.394
 0.586 -0.502  0.410
-0.582 -0.298 -0.424
 0.586 -0.415  0.381
-0.215  0.419  0.485
-0.230 -0.488 -0.486
-0.201  0.448 -0.486
 0.586  0.448  0.264
 0.586  0.244 0.0296
-0.332 -0.672 -0.0581
0.0332 -0.672 -0.336
 0.501  0.112 -0.486
-0.582 -0.268 0.0296
0.0917  0.331  0.486
 0.443 -0.672 -0.219
-0.493  0.662  0.278
-0.518  0.580 -0.0289
-0.518  0.580 0.0881
-0.537  0.547  0.424
-0.471 -0.669  0.356
-0.518 0.0385  0.395
 0.560 -0.672  0.439
 0.589  0.624 -0.160
-0.464 -0.605  0.485
-0.582 -0.0635  0.395
-0.582  0.547 0.0296
-0.537 0.00311 -0.0727
-0.582 -0.0489 0.0150
 0.589 -0.210 -0.478
-0.582 -0.527 -0.204
 0.589  0.507  0.479
-0.537 -0.166  0.486
 0.326  0.507  0.485
 0.586 -0.107  0.366
 0.586 -0.107  0.103
 0.370 -0.0928  0.485
-0.582 -0.429 -0.190
 0.355  0.244  0.485
 0.165  0.661 -0.336
 0.340 -0.672 -0.351
-0.406 -0.0343 -0.486
 0.586  0.258  0.249
-0.518 0.0245 -0.336
-0.245 -0.166 -0.486
-0.582  0.419  0.337
 0.586 -0.371 -0.175
0.0917  0.492 -0.486
 0.574  0.662 -0.263
 0.399 -0.429  0.485
 0.355  0.662  0.366
 0.135 -0.672  0.220
 0.487 -0.517 -0.486
 0.194  0.536  0.485
 0.586 -0.268 -0.117
-0.289  0.658 -0.489
-0.435 -0.210  0.485
 0.355  0.361 -0.486
-0.362 -0.619 -0.486
-0.582  0.536 -0.117
-0.142 -0.385  0.485
 0.586 -0.385 -0.102
 0.150 -0.0197  0.485
-0.582 -0.371 -0.234
-0.582 -0.385  0.161
-0.0984 -0.672 -0.307
 0.179  0.127  0.485
 0.238  0.390 -0.486
-0.186 -0.672 -0.424
 0.586  0.200 -0.424
 0.179  0.662  0.264
 0.587  0.580 -0.351
-0.376  0.662  0.117
-0.259 -0.672 -0.365
-0.582 -0.283 -0.307
-0.582 -0.385  0.395
 0.472 -0.444  0.485
 0.355  0.521 -0.486
 0.282 -0.546 -0.486
-0.523 -0.534 -0.0581
-0.0107  0.448 -0.486
-0.582  0.317 0.0150
 0.586 -0.0197  0.147
 0.355 -0.672 0.0588
-0.474 -0.575 0.000356
-0.582 -0.0928  0.117
-0.582 -0.181 -0.0289
0.0917  0.390  0.486
-0.582  0.156 -0.321
-0.0838 -0.672 0.0735
 0.516 -0.672  0.479
 0.150  0.317  0.485
0.0917  0.661 -0.175
 0.501  0.662 -0.219
 0.501 -0.00505 -0.486
-0.582  0.346 -0.117
-0.142 -0.268  0.485
-0.332 -0.672  0.103
-0.582  0.317 -0.453
-0.493  0.583 -0.488
 0.587  0.594  0.395
 0.282  0.612  0.494
 0.589  0.638  0.264
-0.524 0.0498 0.0394
-0.516 -0.570 -0.484
 0.586 -0.619  0.103
-0.572  0.551 -0.355
-0.0984 -0.619  0.485
 0.530  0.662  0.366
 0.584  0.224  0.484
-0.582  0.651 -0.0581
-0.582 -0.458  0.454
 0.588  0.609 -0.0727
0.0771 -0.672  0.479
-0.552 -0.527  0.485
-0.566  0.604 0.0443
-0.552 0.0580 -0.190
 0.530 -0.619 -0.486
-0.449 -0.672  0.264
-0.523 -0.534  0.264
-0.449  0.583  0.488
-0.524  0.592  0.361
 0.584  0.659  0.156
-0.566 0.0582 -0.468
-0.0107  0.651  0.494
-0.474 -0.590 -0.190
-0.318 -0.672 -0.438
 0.589  0.361 -0.478
 0.194  0.551 -0.486
-0.474 -0.648 -0.219
 0.584 -0.288  0.484
 0.584 -0.463  0.484
-0.113 -0.672  0.454
-0.577 0.00244 -0.424
 0.584  0.577  0.486
 0.545 -0.371  0.485
 0.165  0.662  0.468
-0.581 -0.224  0.479
 0.545  0.127  0.485
-0.582  0.536  0.322
-0.577 0.0616 0.0784
 0.589 0.0388 -0.478
 0.589  0.287 -0.478
 0.589  0.141 -0.478
-0.577 0.0616  0.444
-0.536  0.600 -0.248
-0.552  0.658 -0.489
-0.0253  0.662 -0.424
 0.165  0.244  0.485
 0.282 -0.672 -0.380
-0.318  0.492 -0.486
-0.582 -0.254  0.147
-0.582  0.507  0.424
-0.493  0.662  0.132
-0.391  0.662 -0.438
 0.135 -0.672 -0.0874
 0.586 -0.327 -0.0581
0.0625 -0.224  0.485
-0.582  0.141 -0.380
-0.582 -0.488 -0.102
 0.516 -0.605  0.485
 0.150  0.507  0.485
-0.303  0.662 -0.278
-0.582  0.302  0.366
 0.586 -0.473  0.278
 0.428  0.662  0.132
-0.582  0.463  0.293
 0.296  0.185 -0.486
-0.0399 -0.672  0.351
0.0625 -0.327  0.485
-0.215 -0.672 -0.0435
 0.586 -0.122 -0.0143
 0.586  0.346 0.000365
-0.582 -0.356 -0.0289
-0.0838  0.662 -0.190
 0.586 0.0827  0.176
-0.582 -0.0489 -0.175
-0.0838  0.273 -0.486
0.0332  0.662  0.117
-0.0253 0.0827 -0.486
 0.587  0.375 -0.321
 0.587  0.229 -0.204
 0.311  0.375  0.485
 0.586 -0.605  0.351
-0.523  0.214  0.486
-0.215 -0.488  0.485
 0.135  0.662  0.366
-0.347  0.662  0.220
 0.472  0.229  0.485
 0.586 -0.532  0.205
-0.449 -0.151 -0.486
 0.457 -0.672 -0.102
-0.201 -0.400 -0.486
 0.399 -0.672  0.337
-0.582  0.112  0.234
 0.413  0.662 -0.263
 0.121 -0.473  0.485
 0.586 -0.195  0.234
-0.245 -0.672  0.147
-0.582 -0.268  0.234
-0.332  0.361  0.485
-0.493 -0.517 -0.486
 0.150  0.331 -0.486
-0.582 -0.356  0.322
 0.501  0.662  0.147
-0.582 -0.473  0.351
-0.347 -0.672  0.307
 0.296 -0.458  0.485
 0.253 -0.107 -0.486
 0.238 -0.312  0.485
 0.150 -0.561  0.485
-0.582 -0.224 -0.146
-0.289  0.662  0.147
-0.332 -0.672 -0.175
 0.428 -0.672  0.161
-0.157 -0.672 -0.146
-0.142 -0.672  0.132
 0.121 -0.672 -0.292
 0.545 -0.473 -0.486
-0.391 -0.473 -0.486
 0.586 -0.356 -0.424
 0.586  0.346  0.424
 0.586 -0.532 -0.336
0.0771 -0.107  0.485
-0.0838 -0.151 -0.486
-0.0838  0.170 -0.486
-0.0838 -0.239 -0.486
-0.0546  0.662 -0.0143
-0.582 -0.0197 -0.0435
 0.586  0.302 -0.0728
0.0332 0.0242 -0.486
-0.0984 -0.151  0.485
0.0624  0.662 0.0735
 0.150 -0.107 -0.486
-0.0692  0.662 -0.0874
-0.0692 -0.619 -0.486
 0.194  0.141 -0.486
 0.586 0.0827 -0.175
-0.582 -0.298  0.454
-0.582 -0.298 -0.0581
-0.582 0.0827 -0.102
-0.0399 -0.151  0.485
-0.582 -0.371 0.0443
-0.0107 -0.672 -0.292
 0.586  0.419 -0.0874
 0.586  0.507 -0.0874
 0.586 0.0242  0.234
 0.586 -0.415 0.000365
 0.399 -0.00505 -0.486
 0.106 -0.672  0.395
 0.530 0.0535  0.485
-0.230 -0.0343 -0.486
0.0478 -0.283 -0.486
 0.586 -0.0489 -0.321
-0.0399 -0.444 -0.486
-0.391 -0.0197  0.485
 0.165 -0.672 0.0296
-0.245 -0.672 0.0588
-0.508  0.662 0.0735
0.0332 -0.341 -0.486
 0.586 0.00956  0.351
-0.0984 -0.0197 -0.486
-0.128 0.0827  0.485
0.0771 -0.546 -0.486
 0.586  0.419 0.000365
 0.586  0.551 0.000365
 0.370 -0.672 -0.0581
-0.362 -0.672 0.0588
 0.586 0.0827  0.366
-0.157 -0.0197 -0.486
-0.113 -0.0489  0.485
-0.0107  0.419  0.485
-0.303 0.00958  0.485
-0.0545 -0.371 -0.486
-0.303 -0.672 0.0588
-0.582 -0.0928 -0.438
 0.586  0.214 0.0735
 0.223  0.434  0.486
-0.582 -0.0928 -0.263
-0.582  0.478  0.103
 0.586 -0.195 0.0589
-0.201 -0.619  0.485
-0.420 -0.561  0.485
 0.545  0.662 -0.161
 0.530 -0.672 -0.365
-0.464 -0.356 -0.486
-0.582 -0.181 -0.351
 0.150 -0.561 -0.486
 0.586  0.551  0.249
 0.586 -0.195 -0.365
 0.530 -0.672 -0.117
-0.508  0.375 -0.486
-0.347  0.448 -0.486
-0.582  0.127 -0.277
-0.303  0.661  0.337
 0.355 -0.672 -0.204
-0.449  0.662 -0.351
-0.347 -0.166  0.485
-0.582  0.375 -0.161
-0.464 -0.166  0.485
 0.586 -0.181  0.161
-0.215 -0.672 -0.248
-0.464 -0.268  0.485
-0.245 -0.672 -0.117
 0.586  0.170 -0.117
 0.311 -0.546  0.485
 0.399 -0.151  0.485
-0.347  0.170 -0.486
 0.457 -0.254  0.485
 0.586  0.287  0.205
-0.142  0.361 -0.486
 0.311  0.662  0.161
 0.150  0.434  0.485
 0.586 -0.458 -0.131
 0.586  0.346  0.205
 0.586  0.419  0.132
 0.586 -0.502 0.0589
 0.586 -0.283 -0.278
 0.586 -0.619  0.220
-0.157  0.244 -0.486
-0.523  0.662  0.220
-0.582 -0.107  0.307
-0.582  0.170 -0.131
 0.586  0.112  0.322
-0.318  0.112  0.486
-0.332 -0.0928 -0.486
-0.582 -0.283  0.307
-0.376 -0.400 -0.486
 0.223  0.662  0.351
 0.296  0.273  0.485
-0.289  0.273  0.485
 0.223 -0.672  0.205
-0.171 -0.575 -0.486
-0.0984  0.661  0.322
 0.370 -0.268 -0.486
 0.326 -0.672  0.410
 0.384  0.404 -0.486
 0.150  0.273 -0.486
 0.194 -0.312 -0.486
-0.186 -0.415  0.485
 0.267 -0.672 -0.263
-0.376 -0.327  0.485
 0.428  0.302 -0.486
 0.355 -0.312  0.485
 0.428 -0.298  0.485
 0.340 -0.473 -0.486
-0.318 -0.672  0.234
-0.142 -0.672  0.190
-0.303 -0.672  0.161
-0.582  0.390 -0.336
 0.326 -0.575 -0.486
-0.406 0.0973  0.485
-0.172 -0.151  0.486
-0.128 -0.672  0.366
 0.135  0.662  0.293
-0.537 -0.534  0.117
 0.121 -0.672 -0.468
-0.142  0.536  0.485
0.0624  0.661 -0.365
-0.0838  0.229  0.486
 0.530  0.448 -0.486
-0.536  0.600 -0.438
-0.0984  0.661 -0.481
-0.554 0.00101  0.366
-0.554 0.00101 -0.277
 0.545 -0.672  0.176
-0.524 0.0498  0.230
0.0478  0.662  0.424
-0.582 -0.488  0.103
-0.536  0.600  0.264
 0.399  0.661 -0.438
-0.566 0.0582 -0.380
-0.566 0.0582  0.337
 0.588  0.609 -0.438
-0.537 0.0606  0.485
-0.566  0.606  0.490
 0.587 -0.166 -0.453
 0.223  0.661 -0.453
-0.582  0.229  0.454
-0.536  0.600  0.161
 0.472  0.624 -0.493
-0.470 -0.669  0.444
 0.413 -0.649  0.486
-0.480 -0.661 -0.450
 0.588 0.0388  0.454
-0.582 -0.502 -0.307
-0.0107  0.551  0.485
-0.318  0.598  0.491
-0.566 -0.400  0.485
-0.576 -0.117 -0.484
-0.523 -0.534 -0.424
 0.545 -0.239  0.485
-0.171  0.536 -0.486
 0.584 -0.566  0.484
-0.581  0.317  0.479
 0.209 -0.672 -0.478
-0.582 -0.488 -0.234
 0.545  0.434  0.485
-0.518 0.0385 -0.219
-0.582  0.612  0.366
 0.545 -0.385 -0.486
 0.545  0.258 -0.486
 0.545 -0.327 -0.486
-0.526  0.553 -0.453
-0.171  0.638 -0.493
-0.566 -0.533  0.293
-0.537 -0.341 -0.486
0.0478 -0.634  0.485
-0.566  0.604 -0.146
-0.552  0.662 -0.146
 0.136  0.613  0.494
-0.582  0.112  0.439
-0.582  0.651 -0.248
-0.493  0.613  0.493
 0.545 -0.672 -0.278
-0.474 -0.590  0.249
0.0332  0.662  0.337
-0.566 0.0582 -0.0142
-0.582 -0.0635 -0.478
 0.587 -0.661 -0.117
-0.537 0.00311 0.0735
 0.583 -0.669 -0.453
-0.582  0.507  0.249
-0.435 -0.672 -0.438
 0.574 -0.181  0.485
 0.150  0.661 -0.453
-0.578  0.551 -0.0727
-0.566  0.419 -0.486
 0.584 -0.0538  0.484
-0.576 -0.533 0.00525
0.00396  0.661 -0.336
-0.582  0.536 -0.248
-0.522 -0.00507 -0.486
-0.362  0.185  0.485
0.00396  0.302  0.486
-0.576 -0.533 -0.141
 0.282  0.662 -0.219
 0.457 -0.341 -0.486
-0.582  0.244 -0.394
-0.259  0.662 -0.175
 0.209  0.448 -0.486
-0.230 -0.327  0.485
 0.399  0.478 -0.486
-0.582  0.404 -0.438
-0.376  0.317 -0.486
-0.479  0.273 -0.486
 0.253 -0.619  0.486
-0.582 -0.429  0.191
 0.443  0.662  0.439
 0.399 -0.0635 -0.486
-0.318 0.0242 -0.486
0.0186 -0.672 -0.438
-0.582  0.112  0.351
0.0917 -0.634 -0.486
0.0332  0.661 -0.438
-0.245  0.612 -0.493
-0.537  0.463  0.486
-0.128  0.287  0.485
-0.259 -0.385  0.485
-0.230 -0.268 -0.486
 0.340 -0.672  0.234
-0.582 -0.429  0.249
-0.362 -0.166 -0.486
-0.420  0.390 -0.486
-0.582  0.156  0.147
 0.586 -0.122 -0.161
-0.0253  0.141  0.485
 0.586  0.127  0.220
 0.586  0.127 0.0150
-0.582  0.127 0.0443
 0.194 -0.672  0.117
 0.340 0.0827 -0.486
 0.121 -0.672  0.337
 0.586 -0.0343 -0.117
-0.171 -0.107 -0.486
0.0625 0.0534  0.486
-0.113 -0.672 -0.0874
-0.0253 -0.0635 -0.486
-0.537 -0.0928  0.486
-0.420  0.662 -0.0143
 0.586 -0.473 -0.0143
-0.582 -0.0197  0.264
0.0917 -0.458 -0.486
 0.428 0.0681  0.485
-0.582 -0.195 0.0735
 0.413  0.662 -0.0435
-0.0545 -0.429  0.485
-0.0838  0.661  0.205
0.0624  0.662 -0.0143
 0.136  0.661 -0.219
0.0917 0.0681 -0.486
0.0771 -0.0489  0.485
0.0478 -0.672 0.0296
-0.0399  0.661 0.0442
-0.582  0.273 -0.0435
 0.472 -0.0489  0.485
-0.142 0.0681 -0.486
 0.165 0.0681 -0.486
 0.516  0.662 -0.0289
-0.582 -0.137 -0.190
-0.0253 -0.672 -0.146
-0.0253  0.229  0.485
-0.128 -0.672 0.0296
 0.586 0.0388 -0.307
-0.201  0.662 -0.0143
 0.586 0.0388 -0.190
 0.501 -0.672 0.0442
-0.0253 -0.371  0.485
0.0478 -0.415  0.485
 0.370  0.662 0.0296
0.0771 -0.672 -0.0728
-0.0253 -0.546  0.485
0.0771 -0.0489 -0.486
0.0771  0.662  0.176
 0.179 -0.0928  0.485
-0.0692 0.0681 -0.486
 0.413  0.662 -0.321
 0.587 -0.648  0.322
 0.586 -0.327  0.264
 0.586 -0.268  0.234
-0.552  0.662  0.395
 0.586 -0.517  0.264
 0.223 -0.546  0.485
 0.486  0.661 -0.424
 0.586  0.521  0.161
-0.582 -0.341 -0.380
 0.586 -0.458 -0.219
 0.586 -0.312  0.351
 0.586 -0.341 -0.234
 0.340 -0.254  0.485
-0.259 -0.672 -0.204
-0.391 -0.672  0.205
 0.516 -0.672  0.234
 0.487 -0.195 -0.486
-0.582 -0.312  0.117
-0.582 -0.137  0.410
 0.530 -0.151 -0.486
 0.413 -0.546  0.485
 0.586  0.346 -0.175
 0.311  0.661 -0.394
 0.340  0.662  0.410
 0.443 -0.672 -0.161
 0.586 -0.137 -0.351
 0.223 -0.672 -0.161
 0.530 -0.312  0.485
-0.449  0.662 -0.438
 0.209  0.661 -0.380
 0.516  0.662  0.234
-0.523  0.156 -0.486
 0.472 -0.239 -0.486
 0.586  0.302  0.293
 0.586 -0.166 -0.131
-0.245  0.156 -0.486
 0.165 -0.672 -0.263
 0.267  0.662  0.205
 0.586 -0.312 -0.161
 0.106  0.244 -0.486
 0.472  0.662 -0.117
-0.230  0.331 -0.486
-0.582  0.434 -0.248
 0.209  0.662  0.395
 0.194 -0.672 -0.365
-0.582  0.273 -0.146
-0.230  0.662 -0.307
-0.435  0.185  0.485
-0.245  0.229 -0.486
 0.165 -0.502  0.485
-0.435  0.662 -0.102
-0.0984  0.463  0.485
 0.586 -0.195  0.395
 0.194 -0.239  0.485
-0.582 -0.181  0.161
-0.376  0.661  0.366
 0.472 -0.672 -0.351
-0.435  0.375  0.485
-0.582  0.302 -0.219
-0.332  0.419  0.485
 0.370  0.302 -0.486
-0.303 -0.672  0.366
 0.487  0.536 -0.486
 0.586  0.287 -0.380
 0.586 -0.356 -0.365
 0.472 -0.619 -0.486
-0.186  0.492  0.485
-0.582 -0.444 -0.131
 0.586 -0.107 -0.409
 0.586 -0.107  0.424
-0.582  0.492 -0.263
 0.253  0.662  0.264
-0.230 -0.672  0.190
-0.582 -0.268 -0.219
 0.238  0.507 -0.486
 0.253 -0.672 -0.307
-0.172 -0.672 -0.204
-0.215  0.127  0.485
-0.230  0.661  0.278
-0.464  0.156 -0.486
 0.586  0.200 -0.307
-0.186  0.170 -0.486
-0.142 -0.415 -0.486
-0.332 -0.517 -0.486
-0.259  0.229  0.485
 0.326  0.662 -0.102
 0.586 -0.254 -0.380
-0.582 -0.400 -0.438
-0.582 -0.195  0.395
 0.586  0.229 -0.102
-0.582 -0.429 -0.351
-0.303  0.258 -0.486
0.0186 -0.672 -0.0143
-0.0399 -0.672 0.0881
 0.311 -0.672  0.337
 0.209 -0.672  0.381
-0.289 -0.672  0.410
-0.493  0.662 -0.307
 0.586  0.521  0.103
-0.0107 -0.672 -0.0728
 0.586 -0.356  0.117
-0.582  0.361  0.176
 0.413  0.662  0.278
 0.586  0.463 -0.307
 0.296 -0.672 -0.336
 0.311 -0.672 -0.161
 0.355 -0.672 -0.307
 0.586 -0.444 -0.409
 0.586 -0.254 -0.161
 0.586 -0.619 -0.351
-0.464 -0.473 -0.486
 0.179 -0.672  0.439
 0.326  0.662  0.322
-0.582 -0.327 -0.161
-0.582  0.463 -0.307
-0.582  0.463 -0.175
-0.474 -0.634 -0.351
-0.406 -0.605 -0.486
 0.487 -0.672 -0.0581
 0.209  0.662 0.0296
0.0917 -0.166 -0.486
-0.172  0.662 0.0442
 0.223 -0.00505 -0.486
-0.582  0.214 -0.0142
-0.0107 -0.254  0.485
 0.311  0.662 0.000352
-0.259  0.662 0.0881
-0.0984  0.662 -0.365
 0.530  0.662 0.0735
-0.582  0.419 0.0150
 0.413 -0.0343  0.485
-0.420 -0.0928  0.485
-0.128 -0.254 -0.486
 0.238 0.0534 -0.486
0.0478 -0.672  0.161
-0.582 -0.298 0.0735
-0.0399  0.661  0.103
 0.253 -0.672 0.0881
-0.230  0.112 -0.486
 0.282 0.0388  0.485
-0.0107 -0.672  0.424
 0.586 -0.0197 -0.161
-0.582  0.361 0.0881
0.0478 -0.517  0.485
0.0332 -0.605 -0.486
-0.582 -0.400 -0.0435
 0.311 -0.672 -0.0435
-0.274 -0.0489  0.485
 0.586  0.258 0.0881
-0.230 -0.0928 -0.486
-0.0253 -0.268 -0.486
 0.586 -0.00506 -0.409
 0.587 -0.137 0.0442
-0.582 -0.107 -0.0874
 0.457 0.00957 -0.486
 0.586  0.375 0.0881
-0.582 0.0973 -0.190
-0.582 -0.122  0.161
 0.586 0.0973 -0.263
 0.586  0.521 -0.131
-0.0107  0.661  0.176
 0.296  0.662 0.0588
-0.157 -0.0197  0.485
 0.586  0.565 0.0881
 0.223  0.661 -0.248
-0.582  0.419 -0.0727
-0.259  0.662 -0.0874
-0.0838 -0.672 -0.438
-0.245 -0.210  0.486
-0.376 -0.575  0.485
 0.587 -0.312  0.439
-0.362 -0.473  0.485
-0.420  0.521 -0.486
-0.449 -0.414  0.485
-0.582  0.419  0.147
 0.457 -0.672 -0.263
 0.472 -0.672 -0.453
-0.362 -0.268  0.485
 0.586  0.419  0.395
-0.391  0.662 -0.219
-0.362 -0.672 -0.394
-0.201  0.375  0.485
 0.457 -0.341  0.485
 0.530  0.390 -0.486
 0.586 -0.181  0.293
 0.586 -0.210  0.337
 0.253  0.229 -0.486
-0.493  0.662 -0.204
-0.201 -0.672 -0.131
-0.201  0.662 -0.117
-0.582  0.361 -0.204
 0.165  0.185 -0.486
 0.384 -0.488 -0.486
-0.479 -0.268 -0.486
-0.303 -0.634  0.485
 0.586 -0.575 -0.278
-0.420  0.478  0.485
-0.582  0.273 -0.307
-0.464  0.346 -0.486
 0.586  0.434  0.220
-0.362  0.361 -0.486
 0.586 -0.546 -0.424
 0.413 -0.385  0.485
 0.428  0.662  0.322
 0.586  0.419  0.337
-0.362  0.507 -0.486
-0.391  0.662 -0.336
-0.435  0.434 -0.486
 0.150  0.507 -0.486
-0.113 -0.672 -0.380
-0.582  0.141  0.278
 0.179 -0.672  0.307
-0.449 -0.224 -0.486
-0.376  0.287  0.485
-0.0399 0.0388  0.485
 0.106 -0.312  0.485
 0.586 0.0973 -0.438
 0.413  0.390  0.485
-0.537 0.00277  0.220
-0.523 -0.400 -0.486
 0.586  0.536 -0.204
 0.530 -0.0197  0.485
-0.524 0.0498  0.288
-0.464  0.492  0.485
-0.230 -0.672  0.424
 0.589  0.361  0.468
-0.518  0.580 -0.131
-0.362  0.612 -0.493
-0.435 -0.672 -0.0289
-0.474 -0.590 -0.424
-0.524 0.0498 -0.151
 0.586 -0.634  0.161
-0.582 0.0698 -0.277
-0.420  0.638  0.493
-0.582  0.651  0.161
-0.582 -0.0197 0.0589
-0.582 -0.0489 -0.248
-0.582 -0.00581  0.322
-0.568 0.00467 -0.190
0.00396  0.638 -0.493
 0.530 -0.672 -0.175
 0.530 -0.672 -0.0435
 0.560 -0.0782 -0.486
 0.370  0.662  0.468
-0.186  0.624  0.494
0.0771  0.624 -0.493
-0.507 -0.546  0.486
-0.0253 -0.672  0.468
 0.589 -0.385  0.468
 0.574 -0.590 -0.486
-0.566  0.662 -0.380
-0.582 -0.527  0.395
-0.577 0.00244  0.161
-0.576  0.659 -0.0142
-0.481 -0.547 -0.399
0.0771  0.662  0.468
 0.583 -0.669 0.000375
 0.587 -0.661 -0.204
-0.128  0.661  0.468
-0.582 -0.0782  0.479
-0.576  0.507  0.485
 0.370 -0.672 -0.468
-0.449 -0.672  0.395
-0.474 -0.590  0.117
 0.238 -0.661  0.485
-0.471 -0.669 -0.0679
 0.355 -0.634  0.486
 0.150 -0.605  0.486
-0.582  0.302 -0.263
-0.582 -0.371  0.278
-0.582 -0.0489  0.351
 0.472  0.662  0.381
-0.128  0.662 -0.161
 0.586 0.0242  0.190
-0.582 -0.210  0.117
 0.238 -0.672 -0.204
 0.194 -0.195 -0.486
 0.311 -0.429 -0.486
 0.586  0.287  0.424
-0.582 -0.181 -0.161
-0.113 -0.502  0.485
 0.253 -0.458  0.485
 0.413 -0.672 -0.438
 0.399 -0.672 0.0881
 0.589  0.624 -0.292
-0.113 -0.619 -0.486
 0.586  0.127 -0.321
 0.583 -0.669 0.0881
-0.582  0.127  0.395
-0.0692  0.598  0.491
 0.136 -0.400  0.485
 0.179 -0.672 -0.0728
 0.223  0.662  0.117
 0.586 -0.546 0.0735
-0.0545 -0.0197 -0.486
-0.128  0.127  0.485
 0.587 -0.0343 0.000378
-0.0546 -0.672 -0.292
-0.0838 0.0388  0.485
-0.464 0.0534 -0.486
0.0917 -0.283 -0.486
 0.355  0.662 -0.0581
-0.582  0.141 -0.0435
0.0332 -0.0197  0.485
0.0771  0.170  0.485
-0.582 -0.0635 -0.0289
-0.0107  0.185  0.485
-0.0253  0.185 -0.486
 0.574  0.662 -0.0435
 0.586 -0.0782 -0.0874
-0.566 0.0582 -0.0581
 0.282  0.112 -0.486
 0.586 0.0388  0.278
-0.0399  0.127 -0.486
-0.0399  0.583 -0.488
0.0478  0.127 -0.486
 0.587  0.594  0.249
 0.586  0.551  0.337
 0.586 -0.0489 -0.204
-0.0545 -0.312 -0.486
-0.0253  0.662 -0.102
 0.487  0.662 0.0442
 0.487 0.0388  0.485
-0.537 0.00311 -0.0289
 0.355  0.661 -0.351
 0.311  0.661 -0.307
 0.136  0.126  0.486
