ply
format ascii 1.0
element vertex 2048
property float x
property float y
property float z
end_header
 0.798 -0.0156 0.0846
-0.489 -0.00829 -0.000752
 0.145 -0.0164  0.185
-0.0970 0.00394 -0.165
 0.440 0.0115 -0.0396
-0.201 -0.0134  0.190
-0.357 0.00923 -0.235
 0.199 0.0212 -0.0439
 0.999 -0.0342 -0.0320
-0.267 0.0287 -0.0218
-0.0224 -0.0158 0.0436
-0.416 0.00530  0.200
 0.638 0.0197 -0.0308
0.0817 -0.00287 -0.183
 0.817 -0.0243 -0.0920
 0.316 0.0170 0.0362
-0.463 0.00908 -0.140
-0.247 -0.0158 -0.152
-0.312 0.0132  0.109
-0.165 -0.0173 0.0559
 0.947 -0.0316 0.0936
0.0130 0.00155  0.170
0.0662 0.0180 -0.0421
-0.373 -0.0173 -0.0625
-0.126 0.0268 -0.0510
 0.533 0.00959 0.0312
-0.100 0.0130  0.145
 0.882 -0.0277 0.00111
-0.308 -0.0110  0.224
-0.418 -0.0173 0.0845
 0.747 0.0180 -0.0153
-0.0306 -0.0173 -0.0748
 0.133 0.0140 0.0384
 0.913 -0.0382 -0.0878
-0.337 0.0116 -0.144
-0.337 -0.0158 0.0232
-0.00935 -0.00695 -0.194
0.0584 -0.0163 0.0939
-0.202 -0.0173 -0.0748
-0.255 -0.0173 0.0518
 0.230 0.0138 0.0375
 0.284 0.0142 -0.0438
-0.0940 0.0267 0.0337
 0.397 0.0232 0.0294
-0.177 0.00919 -0.184
-0.292 -0.0173 -0.0829
-0.276 0.0131 -0.221
-0.469 0.0117  0.141
-0.218 0.0116  0.117
-0.427 -0.0145 -0.205
-0.414 0.0116 0.00689
 0.360 0.0232 -0.0385
-0.451 -0.0158 -0.0666
-0.186 0.0259 -0.00246
 0.682 0.00501 0.0279
-0.329 0.0447 -0.0603
 0.561 0.0138 -0.0377
0.0386 0.0247 0.0300
-0.0347 -0.0158  0.117
-0.0213 0.0262 -0.0161
-0.353 -0.0158  0.162
 0.806 -0.0151 0.0106
 0.606 0.0142 0.0326
 0.994 -0.0353 0.0417
0.0874 0.00862  0.154
-0.149 -0.0173 -0.124
-0.480 0.00899 0.0676
 0.133 -0.00440 -0.0285
-0.0836 -0.0173 -0.0176
 0.883 -0.0371 0.0716
-0.263 0.0116  0.178
 0.463 0.0113 0.0333
-0.0999 -0.0173 0.0845
-0.321 0.0480 0.0133
-0.161 -0.0173  0.138
-0.402 -0.0158 -0.132
0.00977 -0.0106 -0.133
0.0837 -0.0173 0.0110
 0.196 0.00531  0.155
-0.0918 -0.0158 -0.0911
 0.752 0.00444 0.0448
-0.251 0.0344 -0.119
-0.398 0.0127  0.133
 0.500 0.0181 -0.0378
 0.819 0.0111 -0.0421
-0.365 0.0132 0.0804
 0.182 -0.00777 0.00919
0.0225 -0.0173 -0.00944
-0.227 -0.0173 -0.00127
-0.141 -0.0158 0.00281
-0.369 -0.0173 -0.185
-0.0428 0.0116 -0.144
 0.768 -0.00850 -0.0652
-0.361 0.0130  0.215
-0.198 0.0116 -0.128
 0.927 -0.0210 -0.0354
-0.312 -0.0160 -0.0299
 0.926 -0.0270 0.0368
-0.267 -0.0158  0.125
-0.0689 0.0263 -0.0492
 0.868 -0.0154 -0.0514
-0.222 -0.0165 -0.204
 0.239 -0.00769 -0.0132
-0.312 -0.0173 -0.185
-0.227 0.0291 0.0352
 0.692 0.0208 -0.0298
0.00769 0.00547 0.0836
 0.858 0.00482 0.0369
 0.357 -0.00583 0.00663
-0.145 0.0132 0.0967
-0.221 0.0255 -0.0500
-0.410 0.0116 -0.0870
 0.967 -0.0295 -0.0733
-0.251 -0.0173 -0.0503
-0.148 0.0264 0.0336
-0.0591 0.0116 0.0681
-0.447 -0.0173 0.0395
-0.312 -0.0173 0.0681
-0.288 0.0202 0.0435
-0.349 0.0129 -0.0952
-0.141 -0.0173 -0.0707
-0.304 -0.0173  0.174
0.0348 0.0116 -0.173
-0.431 -0.0173  0.158
0.00925 0.00597 -0.0514
-0.172 0.0223 -0.0718
-0.280 -0.0173 0.00689
-0.361 -0.00166 -0.0176
 0.288 -0.00723 0.00467
-0.274 0.0274 -0.0741
-0.0713 -0.0173 0.0314
0.0640 -0.0162  0.188
0.0381 0.00975  0.130
-0.296 -0.0158 -0.140
-0.210 -0.0158 0.0722
-0.247 -0.0173 -0.0993
-0.394 -0.0158 0.0436
-0.349 -0.0173  0.113
 0.418 -0.00585 -0.00132
-0.263 0.0132 0.0885
-0.410 -0.0173 -0.0299
-0.479 0.0131 -0.0420
-0.474 0.0130 -0.0951
-0.0387 -0.0173 -0.00536
 0.323 -0.00213 -0.0261
-0.0354 0.0114  0.154
0.0348 -0.0158 0.0518
-0.165 0.0104  0.174
-0.410 0.0132 -0.173
-0.467 -0.0158  0.105
 0.108 0.0244 0.00135
-0.112 0.0132 -0.120
-0.165 -0.00172 -0.0339
-0.140 -0.0110 -0.168
-0.275 0.0125 -0.173
 0.492 -0.00457 0.00243
0.0293 0.0262 -0.0159
-0.227 -0.0173  0.154
-0.307 -0.0162 -0.231
 0.565 -0.00353 0.00284
-0.0510 0.0270 0.0165
-0.0754 -0.0173 -0.132
-0.186 -0.0158 0.0151
 0.839 -0.0233 0.0711
-0.0591 -0.0172 -0.173
 0.104 0.00122  0.194
 0.121 -0.0164  0.144
-0.259 -0.0172  0.210
 0.153 0.0235 0.00118
-0.0996 0.0276 -0.0175
 0.596 0.0221 -0.0120
-0.124 -0.0173 0.0436
-0.0590 0.0115 -0.0912
-0.206 -0.0173 -0.165
 0.816 0.0148 0.0410
 0.842 -0.00657 -0.00978
 0.797 -0.0238 -0.0321
 0.274 0.0241 0.0298
0.0797 0.0139 0.0389
-0.0795 0.0132  0.105
-0.396 0.0101 -0.220
0.00620 -0.0173  0.129
-0.439 0.0132 -0.0299
-0.310 0.0318 -0.0255
 0.647 0.0185 0.00997
-0.304 0.0132 -0.111
-0.324 0.0132  0.154
 0.721 -0.00114 0.0109
 0.401 0.0230 -0.0249
-0.333 -0.0158 -0.0666
-0.447 -0.0158 -0.107
-0.443 -0.0173 -0.00127
0.0421 -0.0159 -0.202
-0.324 0.0132  0.195
-0.378 0.0124 -0.148
-0.124 -0.0173  0.117
-0.000720 0.0184 0.0402
-0.0699 -0.0141  0.146
-0.263 -0.0173 -0.197
0.0680 0.0210 -0.00166
-0.386 0.0116  0.174
-0.0265 -0.0159 -0.116
-0.185 0.0221 0.0485
 0.840 -0.0303 0.0280
-0.0673 -0.0173 -0.0543
-0.439 0.0132  0.101
-0.324 0.0132 -0.209
-0.435 -0.0173 -0.165
 0.533 0.0206 -0.0108
-0.337 0.0130 0.0526
-0.231 0.0116 -0.177
 0.217 0.0247 0.00162
 0.779 0.0140 0.0141
-0.471 0.0132 0.0273
 0.459 0.0175 -0.00543
0.0427 -0.0143 -0.0486
 0.112 0.0246 -0.0449
-0.353 -0.0173 -0.120
 0.186 0.0249 0.0300
-0.418 0.0128 0.0600
 0.898 -0.0408 -0.0520
-0.427 0.0132 -0.124
-0.125 -0.0144  0.156
-0.173 -0.0173  0.101
-0.00608 0.0116 -0.161
0.0511 0.0132  0.166
-0.206 -0.0158 -0.0339
-0.198 0.0129  0.150
 0.852 -0.0341 -0.0814
-0.386 -0.0165  0.213
 0.153 0.0242 -0.0438
 0.333 0.0230 0.00172
-0.390 -0.0173 0.00281
0.0905 -0.00834 -0.0296
-0.165 0.0116 -0.148
-0.112 0.0132 0.0640
 0.939 -0.0245 0.00106
-0.141 0.0116 -0.0952
-0.108 -0.0158 -0.0462
-0.390 -0.0173  0.109
0.0756 -0.0173  0.129
-0.227 0.0129  0.198
 0.795 -0.0188 0.0475
-0.304 0.00821 -0.0570
-0.288 0.0129  0.138
 0.129 0.0120  0.168
-0.361 0.0116  0.138
-0.334 0.0150 0.00265
-0.194 0.0132 0.0885
-0.0387 -0.0173 0.0804
-0.141 0.0132  0.133
-0.447 0.00914  0.178
-0.406 0.0131 -0.0503
-0.0306 0.0134 -0.0544
-0.149 0.0263 -0.0166
-0.238 0.0177 -0.00263
-0.227 0.0129 -0.0952
-0.247 0.0132  0.146
-0.308 -0.0173  0.138
 0.248 0.0212 -0.0424
 0.163 -0.0113  0.154
 0.668 -0.00110 -0.0130
 0.568 0.0215 0.0291
 0.898 -0.00475 0.0375
-0.394 -0.0173  0.154
-0.349 -0.0173 0.0681
-0.284 0.0116  0.211
 0.776 0.0150 -0.0355
-0.0143 0.0129  0.125
 0.962 -0.0409 0.0560
 0.500 0.0231 0.0274
-0.0958 0.0132 -0.0707
0.0509 -0.0162 -0.157
-0.341 -0.0173  0.203
 0.133 -0.00902 0.00642
 0.822 -0.0225 -0.0569
-0.231 -0.0173  0.101
0.00620 -0.0173 0.0232
-0.120 0.0132 0.00689
-0.169 -0.0158 -0.0952
-0.178 0.0132  0.121
-0.104 -0.0173 0.0151
-0.402 0.0132 0.0967
-0.137 -0.0173 0.0763
-0.222 -0.0158 0.0395
 0.376 0.0232 0.00150
-0.382 0.0116 -0.107
 0.429 0.0229 0.0167
 0.302 0.0234 -0.0155
-0.231 0.0129 0.0763
 0.198 -0.00614 -0.0216
0.0429 -0.00737 0.0168
-0.300 0.0174 0.0113
-0.435 0.0129  0.142
 0.267 0.0175 -0.0135
 0.872 -0.0285 0.0395
-0.218 -0.0158 -0.132
 0.895 -0.00108 -0.0357
-0.345 -0.0173 -0.161
-0.0224 -0.0173 -0.152
 0.619 -0.00294 -0.00535
-0.481 -0.0164 0.0449
 0.350 0.0144 0.0352
-0.300 -0.0173  0.101
0.0430 -0.0173  0.154
 0.736 -0.00316 -0.0394
-0.267 0.0116 -0.140
-0.357 0.0132 -0.201
-0.0265 0.0116 0.0926
-0.463 0.0132 -0.00536
-0.0673 0.0132 -0.00944
-0.427 -0.0158  0.117
0.00605 0.0181 0.00690
-0.255 0.00499 0.0232
 0.163 0.0111  0.179
-0.341 -0.0158 -0.214
-0.182 -0.0173 -0.132
0.0144 -0.0158 -0.173
-0.316 -0.0173 -0.107
-0.452 0.0117 -0.172
 0.182 0.0245 -0.0156
-0.271 0.0124 -0.103
 0.380 -0.00275 -0.0225
-0.194 -0.0158  0.133
-0.398 -0.0173 -0.165
-0.418 -0.0173 -0.0625
-0.296 -0.0158 0.0395
-0.308 0.0116 -0.169
-0.0224 -0.0158 -0.0339
-0.284 -0.0173 -0.0462
-0.455 -0.0158 -0.0339
-0.0673 -0.0173  0.105
-0.366 -0.00129 0.0355
 0.915 -0.0274 0.0696
 0.214 -0.00733 0.00909
 0.769 -0.00632 0.0700
-0.402 -0.0173 -0.0993
-0.235 0.0116 -0.140
 0.936 -0.0220 -0.0666
-0.259 -0.0158  0.162
-0.291 0.00646 -0.0217
 0.848 -0.0334 -0.0337
 0.798 0.000903 -0.0666
-0.300 0.0132 0.0722
-0.0591 0.0116  0.129
-0.280 -0.0158 0.0763
-0.435 0.0129 0.0314
-0.271 -0.0173 -0.120
-0.133 0.0132 -0.144
-0.0142 -0.0158  0.154
-0.378 -0.0158 -0.222
-0.173 0.0132 -0.107
 0.770 -0.00916 -0.00535
-0.328 0.0422 0.0435
-0.0795 0.0132 -0.140
-0.235 0.0122 -0.209
-0.178 -0.0173  0.166
0.0566 -0.00761 -0.0210
-0.112 -0.0173 -0.128
-0.249 0.00744 -0.0733
-0.373 0.0116 -0.0748
 0.163 -0.00737 -0.0198
-0.462 -0.0164  0.158
-0.0318 0.0162 0.0418
-0.378 -0.0173  0.182
-0.353 0.0116  0.182
-0.0713 -0.0173 0.0722
-0.447 -0.0173 0.0722
-0.439 0.0116 -0.0748
-0.157 0.0130 0.0681
-0.320 0.0132 -0.0829
0.0631 -0.0172 0.0392
-0.296 0.0116  0.182
0.0566 0.0112 -0.198
-0.0548 0.0131 -0.176
 0.696 0.0199 0.000722
-0.334 0.0157 -0.0372
 0.325 -0.00626 0.00670
 0.469 0.00392 -0.0315
-0.194 0.0264 -0.0362
 0.749 0.0166 0.0159
-0.332 0.00909  0.224
-0.202 0.0128 -0.165
-0.477 -0.0164 -0.0815
0.0348 -0.0173  0.117
 0.100 -0.0158  0.166
-0.473 -0.0143 -0.123
-0.251 0.0214 -0.0460
-0.169 -0.0173 -0.169
 0.222 0.00273 -0.0367
 0.900 -0.0385 0.0276
 0.447 -0.00307 0.0127
-0.230 0.00162 -0.0339
-0.161 -0.000258 0.0195
-0.116 -0.0173 -0.0176
-0.198 0.0116 -0.0870
-0.235 -0.0173  0.182
-0.108 0.0132  0.113
 0.713 -0.000169 -0.0174
0.0657 0.0117 -0.163
 0.723 0.0226 0.0286
-0.369 -0.0158 -0.144
-0.481 -0.0164 -0.0488
-0.418 -0.0173 0.0273
-0.284 -0.0158 -0.173
-0.357 -0.0173 -0.0870
-0.255 -0.0160 -0.00944
0.00211 -0.0173 0.0599
 0.394 -0.00274 0.0158
-0.418 0.0116  0.170
-0.329 -0.0159 -0.00537
-0.373 -0.0173 0.0845
-0.0138 0.00870 -0.132
 0.255 0.00166 0.0274
 0.970 -0.0421 -0.0470
-0.418 0.0132 -0.201
-0.396 0.0103 -0.0230
-0.0101 -0.0158 0.0926
 0.882 -0.0318 -0.0276
-0.208 0.00914 -0.198
-0.353 -0.0158 -0.0421
0.0144 0.0132 -0.193
-0.410 -0.0158  0.178
-0.399 0.0115 0.0355
-0.382 -0.0158 -0.0339
 0.529 -0.00361 0.00575
-0.378 0.0124 -0.181
-0.292 -0.0173 -0.205
-0.447 0.0116 0.0640
-0.406 0.0116 -0.144
-0.373 -0.0158  0.133
-0.194 0.0132  0.178
-0.467 0.0132  0.105
-0.361 -0.0173 0.00689
-0.0958 -0.0173 0.0477
-0.189 -0.0163 -0.190
 0.529 0.0141 -0.0387
 0.860 0.00819 -0.0367
-0.0224 0.0116 0.0151
 0.609 0.00928 -0.0343
0.0385 0.0239 -0.0466
-0.0591 -0.0160 -0.0993
 0.103 -0.00207 0.0253
-0.186 -0.0173 -0.0135
-0.120 0.0116 0.0355
-0.284 0.0116  0.109
0.00620 -0.0173 -0.0339
 0.328 0.0226 -0.0394
-0.324 -0.0160 -0.140
-0.218 -0.0158 -0.103
-0.0958 0.0132 -0.0421
-0.0673 0.0132 0.0355
 0.904 -0.0168 -0.0135
-0.398 -0.0160 -0.193
 0.487 0.0226 -0.0124
0.00211 0.0261 -0.0323
-0.178 -0.0173 -0.0543
-0.390 0.0115  0.212
-0.255 0.0109 0.0551
-0.276 0.0287 0.0188
 0.108 0.0251 0.0300
-0.284 0.0244 -0.0468
 0.427 0.0230 -0.0144
-0.222 0.0116  0.170
-0.462 -0.0143 -0.156
-0.0442 0.0264 -0.0322
-0.0877 -0.0173  0.125
 0.774 -0.00981 0.0273
-0.337 0.0116 0.0804
 0.353 -0.00184 -0.0256
 0.244 0.0235 0.0146
-0.471 -0.0158 0.0191
-0.296 0.0132 -0.193
-0.292 -0.0158  0.203
-0.0101 -0.0173 -0.00944
-0.296 0.0130 -0.144
-0.373 0.0128  0.113
 0.721 0.0204 -0.0336
0.0225 -0.0158 0.0926
0.0169 0.00677 0.0578
-0.0877 0.0132 0.0763
-0.137 -0.0173 -0.0993
-0.0550 0.0116 -0.120
-0.451 0.0132 -0.111
-0.255 -0.0173 0.0885
-0.378 0.0132 0.0559
-0.141 -0.0173 -0.0299
 0.594 -0.00253 0.00676
-0.116 -0.0173 -0.156
-0.206 0.0281 0.0170
-0.0429 -0.0141  0.149
0.0715 -0.0158  0.162
 0.405 0.0232 0.00181
-0.212 0.0266 -0.0159
 0.762 -0.00792 -0.0380
 0.562 0.0203 -0.00934
-0.00816 -0.0142 -0.0602
0.0637 0.00466  0.139
 0.160 0.0183 0.0273
-0.404 -0.0167 -0.220
 0.911 -0.0414 -0.0283
0.0369 -0.00695  0.179
 0.584 0.00226 -0.0256
-0.0106 0.0107 0.0637
 0.820 -0.0261 0.0523
0.0144 0.0132  0.142
-0.0340 -0.00149 -0.186
-0.149 0.0116 -0.0503
-0.257 0.0118  0.212
 0.940 -0.0225 0.0637
 0.545 -0.000757 -0.0205
-0.131 0.0112  0.159
0.0869 0.0177 -0.0258
 0.129 0.0170 -0.0135
-0.435 0.0132 -0.152
-0.341 0.0132  0.121
 0.893 -0.0274 -0.0748
 0.835 -0.00509 0.0232
-0.353 0.0127 -0.124
-0.0224 -0.0158 0.0151
-0.124 0.0116 -0.0748
-0.455 0.0116 -0.0543
-0.357 0.0116 -0.165
-0.329 -0.0158 0.0885
-0.275 -0.0173  0.182
-0.259 0.0116 -0.193
-0.112 -0.0158 -0.0748
-0.243 -0.0173 -0.181
-0.337 -0.0158  0.142
-0.255 0.0292 0.0351
-0.214 -0.00172 -0.0543
-0.202 -0.00172 0.0314
 0.780 0.00280 -0.0856
 0.633 0.0161 0.0320
-0.129 0.0132 -0.0258
 0.900 -0.0317 0.0911
0.0221 0.00894 -0.150
-0.329 -0.0173 0.0477
 0.104 -0.0172 -0.00938
-0.0877 0.0116 -0.111
-0.0510 0.0129  0.101
-0.329 0.00529 -0.234
-0.182 -0.0158 0.0763
-0.0469 -0.0163 -0.144
-0.303 0.00926 -0.230
-0.259 -0.0173 -0.0748
-0.271 -0.0173 0.0314
 0.801 0.0108 -0.0236
-0.427 -0.0173 -0.0911
-0.222 -0.0173  0.125
-0.0469 -0.0158 0.0232
-0.0591 -0.0173 -0.0299
 0.945 -0.0370 -0.0454
-0.328 0.0477 -0.0150
 0.663 0.0202 -0.0295
-0.202 0.00868 0.0645
 0.175 0.00403 -0.0394
 0.416 0.00325 -0.0320
-0.178 -0.00172 0.0395
0.0673 0.0128  0.186
 0.292 0.0172 0.0110
 0.288 -0.00489 -0.0208
-0.152 0.0109 -0.173
-0.312 0.00520 0.0513
0.0696 -0.0142 -0.0428
0.0587 -0.00252  0.115
 0.515 -0.00305 -0.0152
 0.511 0.0226 0.00173
-0.0836 0.0132 0.0151
-0.163 0.0227 0.00948
-0.226 -0.00169 0.0191
0.0381 -0.00638 0.0748
0.0754 -0.0164 -0.163
 0.134 0.0261 0.0164
 0.851 -0.0226 0.00689
-0.168 0.0261 -0.0328
-0.269 -0.0110 -0.222
-0.0428 0.0116 -0.00127
 0.243 0.0173 -0.0176
-0.378 -0.0173 -0.103
-0.271 0.00565 -0.0625
-0.284 -0.0173 -0.0176
-0.202 -0.0173  0.162
-0.173 0.0132  0.146
-0.345 -0.0173 -0.189
 0.886 -0.0143 0.0574
-0.304 -0.0173 0.0110
 0.869 -0.0108 -0.0234
-0.296 0.0132 -0.0870
 0.436 -0.00293 -0.0194
-0.0877 -0.0173 -0.156
0.0185 0.00564 0.0316
-0.373 -0.0158 0.0599
 0.672 0.0212 0.00251
-0.435 -0.0173 -0.140
 0.304 -0.000950 0.0222
-0.137 0.0116 -0.120
-0.112 0.0116 0.0885
 0.912 -0.0182 0.0191
 0.855 -0.0118 0.0547
0.0824 0.0262 0.0175
-0.390 0.00795 0.00281
 0.157 -0.00869 0.00637
-0.235 -0.0158 0.0722
 0.615 0.0212 0.0108
0.0428 0.0178 0.00689
 0.839 -0.00574 -0.0339
 0.965 -0.0277 0.0763
0.0901 0.0122 -0.164
 0.949 -0.0372 -0.0875
 0.183 -0.0166  0.167
 0.263 -0.00788 -0.00906
 0.912 -0.0179 -0.0543
-0.357 -0.0164  0.221
0.0278 -0.00450 -0.0320
-0.316 -0.00321 0.0273
 0.207 0.00288 0.0298
-0.247 0.0116 -0.111
-0.0999 -0.0113  0.146
-0.00697 0.00942  0.159
 0.353 0.0229 -0.0152
 0.121 -0.0173  0.187
 0.414 0.00664 0.0298
0.0988 -0.00648  0.139
 0.239 -0.00641 0.0113
-0.0391 0.00179 -0.104
 0.900 -0.0417 0.0515
-0.433 -0.0134  0.186
 0.373 0.0175 0.0308
 0.138 -0.0239  0.164
-0.329 0.0169 -0.0606
 0.467 -0.00482 -0.00917
 0.590 0.0205 0.0121
-0.160 0.00168 -0.0731
-0.275 0.0108 0.0681
0.0193 0.00521  0.105
 0.745 -0.00510 -0.00944
-0.137 -0.0158 -0.144
-0.145 -0.0173 0.0314
-0.165 -0.0173 0.00281
-0.476 -0.0173 -0.0217
-0.414 -0.0173 0.0559
-0.198 -0.0173 0.0518
-0.0428 -0.0158 -0.0543
-0.145 -0.0173  0.105
-0.337 0.0116 -0.189
-0.229 0.0326 -0.128
-0.0550 -0.0160 -0.0748
-0.324 0.0132 -0.124
-0.259 0.0132  0.125
-0.280 -0.0158  0.146
-0.398 0.0116 0.0722
 0.727 0.0232 -0.00260
-0.275 0.0124  0.158
-0.431 0.0132 -0.0993
-0.247 -0.0173  0.142
0.0184 -0.0173  0.150
-0.149 -0.0173  0.158
-0.479 -0.0110 0.0803
-0.308 0.0126  0.222
-0.159 0.00602 -0.00944
-0.439 0.00255 -0.189
 0.806 0.0112 0.0202
 0.127 0.0115  0.191
 0.798 0.000903 0.0599
-0.267 0.00499 -0.0217
 0.472 0.0231 0.0139
-0.218 0.0212 -0.0749
 0.549 0.0185 0.0101
-0.315 -0.00947 -0.161
 0.817 -0.00227 -0.0139
-0.308 -0.00321 -0.00943
0.0634 -0.00918 0.00306
-0.357 0.00911 -0.0583
-0.472 0.0112 -0.0707
 0.700 0.0199 0.0245
 0.493 -0.000243 -0.0237
0.0642 -0.0162 -0.195
 0.153 0.0172 -0.0217
-0.0469 0.0116 -0.0707
-0.482 0.00896 -0.0176
 0.745 -0.00510 0.0232
-0.390 -0.0158 -0.0788
-0.284 0.0124 -0.124
-0.418 0.0127  0.113
-0.337 -0.0173  0.178
-0.251 0.0116 -0.156
-0.231 -0.0173 -0.0829
-0.104 0.0116 -0.144
-0.330 0.0400 -0.0366
-0.316 -0.0163 -0.0829
-0.447 0.0132 0.0110
-0.137 0.0116 0.0518
-0.248 -0.0111 -0.213
-0.422 0.0129 0.0845
-0.418 -0.0173 -0.181
-0.394 0.0127 -0.197
 0.858 -0.0367 0.0721
-0.0713 0.0116 -0.0666
-0.316 -0.0160 -0.209
 0.688 -0.00128 0.00658
-0.222 0.0127 -0.120
-0.307 0.0350 0.0257
 0.354 0.0215 0.0111
-0.00199 0.0116 -0.0135
-0.0836 0.0116  0.129
 0.817 -0.0140 0.0712
-0.232 0.0145 0.0518
 0.104 0.0130  0.174
-0.247 -0.0158 0.0191
-0.310 0.0320 -0.0481
-0.202 -0.00172 -0.0135
 0.292 0.0118 0.0361
 0.792 0.00185 0.0382
0.0105 -0.0173 -0.196
0.0880 -0.0144  0.193
 0.382 0.0108 -0.0403
 0.107 0.00124 0.00301
0.0915 0.0166 -0.0479
 0.195 0.0230 0.00385
 0.309 -0.00717 -0.00901
0.0561 0.0186 -0.0203
 0.173 0.000806 0.0280
 0.819 -0.0224 -0.0275
0.0718 -0.00146 0.0251
-0.418 -0.0173  0.138
-0.0469 -0.0158 0.0599
-0.190 -0.0158 -0.111
-0.0999 0.0116 -0.00127
-0.435 -0.0173 -0.0258
-0.0591 -0.0158 0.00281
-0.120 -0.0158 0.0926
-0.378 0.00122 -0.0516
-0.431 0.0116 -0.0503
-0.300 -0.0158 -0.0625
-0.431 0.0116 -0.00944
-0.0713 0.0132 -0.161
-0.0183 0.0132 -0.181
 0.174 0.0177 0.00689
 0.913 -0.0328 -0.00127
-0.104 0.0116 -0.0911
 0.664 0.00112 0.0165
-0.447 0.0116  0.121
-0.251 -0.0158 -0.128
-0.0836 -0.0173 -0.111
-0.275 -0.0173 -0.148
-0.165 0.0116 0.0885
-0.320 -0.0173  0.195
-0.247 0.0299 -0.143
 0.222 0.0239 -0.0425
-0.227 0.0116  0.138
0.0511 -0.0158  0.133
-0.243 -0.0173 -0.0299
-0.418 -0.0173 -0.00944
-0.337 -0.0158 -0.0258
-0.320 -0.0173  0.109
-0.353 0.0116  0.158
0.0348 -0.0158 -0.181
-0.275 0.00499 0.0151
-0.231 -0.0158 -0.0584
-0.320 0.0132  0.129
-0.116 -0.0173 0.0640
 0.145 -0.00262 0.0235
 0.791 -0.0133 -0.0503
-0.243 0.0271 0.0170
-0.353 -0.0173 0.0436
 0.398 -0.00583 -0.00930
 0.307 0.0235 -0.0397
 0.647 -0.00252 -0.00532
0.0529 -0.00404 0.0547
0.0580 0.0163 0.0383
-0.402 -0.0173  0.199
 0.689 4.70e-05 -0.0167
 0.312 0.0240 0.0144
 0.827 -0.0186 0.00689
 0.110 -0.000273 -0.0360
 0.378 -0.00644 -0.00131
-0.329 -0.00321 -0.0462
 0.619 0.000784 0.0168
-0.145 0.0116 0.00689
-0.461 0.00558  0.160
 0.267 -0.00149 -0.0292
-0.471 -0.0143  0.138
 0.709 0.000747 0.0292
 0.869 -0.0110 0.00518
 0.891 -0.0144 0.0188
-0.331 -0.0164 -0.233
 0.858 -0.0321 -0.0604
0.0894 -0.0165 0.0326
0.0267 -0.0117 -0.148
-0.173 0.0261 0.0311
 0.586 0.00792 0.0287
-0.00519 -0.0154 -0.119
 0.782 0.00367 -0.0176
0.0756 -0.0173 -0.0176
-0.226 0.00163 -0.0745
 0.932 -0.0357 0.0784
0.0430 -0.0113 -0.00537
-0.127 0.00531 -0.165
-0.467 0.0132 0.0518
0.0348 0.0108 -0.197
-0.288 -0.0173  0.121
-0.0142 -0.0173  0.121
 0.303 0.00206 -0.0337
 0.759 0.00631 -0.0529
 0.435 0.00497 0.0280
 0.325 0.0208 -0.0175
 0.480 0.0221 -0.0357
 0.813 -0.0276 0.0329
-0.137 -0.0158 -0.0503
-0.161 -0.0158 -0.0176
-0.406 0.0132 -0.120
-0.198 0.0132  0.109
-0.0387 0.0116  0.133
-0.227 -0.0110  0.201
-0.120 0.0116  0.138
-0.316 0.0132 -0.148
-0.296 -0.0173 -0.111
-0.194 -0.0158  0.105
-0.116 -0.0158 -0.103
-0.157 -0.0173 -0.148
-0.394 -0.0158 0.0804
-0.157 -0.0158 0.0804
-0.337 -0.0158 -0.103
-0.275 -0.0158 -0.0993
-0.275 -0.0173 0.0967
-0.447 -0.0173  0.121
 0.272 0.0175 0.00691
-0.308 0.0123 -0.0327
-0.0183 -0.0160 -0.173
-0.471 -0.0144 -0.102
-0.386 -0.0173 0.0232
-0.206 -0.00172 0.0110
-0.214 0.0124 -0.144
-0.202 0.0124 -0.107
-0.439 -0.0173 0.0191
-0.173 -0.0173 -0.0748
-0.394 0.0124 -0.0707
-0.0632 0.0132 -0.0299
-0.373 0.0116 -0.128
-0.328 -0.0164  0.224
-0.422 -0.0173 -0.111
-0.320 0.0132  0.174
-0.00199 -0.0173 -0.156
0.0307 0.0132  0.162
-0.186 -0.00172 -0.0299
-0.0327 0.0104 -0.122
 0.654 0.0163 0.0301
 0.214 0.0173 -0.0176
 0.763 0.0161 0.0317
 0.914 -0.0344 -0.0667
-0.247 0.0231 -0.0222
-0.263 0.0289 -0.00156
 0.820 -0.00283 0.0541
 0.108 0.00415  0.154
 0.508 -0.00155 0.0147
 0.868 -0.0212 -0.0788
-0.377 0.00530 -0.233
 0.455 0.0224 -0.0250
 0.476 -0.00190 0.0151
 0.177 0.0240 -0.0434
-0.203 0.0269 0.0373
-0.129 0.0116  0.117
-0.459 0.0132 0.0804
-0.369 0.0132  0.195
-0.263 -0.0173 -0.173
-0.378 -0.0158 -0.165
-0.0183 0.0116 -0.0380
-0.357 0.0116  0.101
-0.398 0.0128  0.191
-0.439 -0.0173 -0.0503
-0.410 -0.0173  0.105
0.0103 -0.0173  0.109
-0.451 -0.0158 -0.128
-0.0265 -0.0158 0.0640
-0.365 -0.0158  0.199
-0.178 0.0132 0.0681
-0.0632 0.0116 0.0110
-0.0102 0.0132  0.105
-0.316 -0.0158  0.158
-0.247 -0.0173  0.121
-0.255 0.00907 -0.213
-0.0877 -0.0173 -0.0462
-0.145 -0.0158  0.125
-0.218 0.0116 0.0926
-0.0387 0.0129 0.0763
-0.129 -0.0173 0.0191
-0.0836 0.0132 -0.0217
-0.267 -0.0173 -0.0299
-0.157 0.00974 0.0477
-0.0754 -0.0158 -0.0788
-0.349 -0.0173 -0.00944
-0.130 0.0274 0.0180
-0.467 -0.0173 0.0599
-0.0469 -0.0173  0.101
-0.414 -0.0173 -0.148
-0.345 0.0132 -0.218
-0.296 0.0116 0.0926
-0.280 -0.0158 0.0559
-0.398 0.0116  0.154
-0.267 0.00499 -0.0421
-0.345 0.0132  0.203
-0.186 0.0116 -0.144
-0.157 0.0132  0.121
-0.302 0.0279 -0.00607
-0.296 0.0132  0.158
 0.276 0.00187 0.0272
-0.0469 -0.0163 -0.116
-0.145 -0.0173 0.0559
-0.198 -0.0173 -0.0543
-0.227 -0.0173 -0.165
-0.165 0.0116 -0.128
-0.0877 -0.0173  0.105
-0.378 -0.0173 -0.124
-0.0836 -0.0173 0.0151
-0.394 -0.0173 -0.0176
-0.186 -0.0173 -0.156
-0.435 -0.0173 0.0967
-0.153 0.0132  0.150
 0.136 -0.00545  0.152
 0.631 0.0188 -0.00223
0.0715 0.0132  0.166
-0.165 -0.0173 0.0355
-0.483 0.00924 0.0110
-0.296 0.00351 0.0254
-0.357 -0.0110 -0.235
-0.182 -0.00172 -0.00128
 0.337 -0.00673 -0.00940
 0.865 -0.0339 0.0216
-0.0591 -0.0158  0.129
 0.131 0.0193 -0.0334
0.0398 -2.74e-05  0.108
-0.329 0.0177 0.0219
 0.545 0.0190 -0.0267
-0.240 -0.00323 0.0477
 0.866 -0.0357 -0.0420
-0.320 0.0180 -0.0148
-0.255 -0.0173  0.191
 0.848 -0.0331 0.0461
-0.184 -0.00591  0.181
0.0633 0.0177 0.0191
-0.0855 0.0266 0.000417
 0.802 -0.0145 -0.00944
 0.420 0.0224 -0.0363
 0.761 0.00882 -0.00535
 0.888 -0.0145 -0.0523
-0.473 0.00530 -0.119
-0.0387 0.0132 -0.165
-0.280 0.00122 -0.0800
-0.447 -0.0146  0.171
 0.549 2.47e-05 0.0173
 0.925 -0.0348 -0.0503
-0.263 0.0147 -0.0845
 0.982 -0.0304 0.0567
-0.455 0.0132 -0.0911
-0.320 0.0254 0.0381
 0.778 0.00434 0.0559
-0.438 -0.0171 -0.188
-0.299 0.0268 -0.0634
-0.378 0.0116 -0.214
 0.841 -0.0206 -0.0521
0.0251 0.0200 0.0150
0.0185 0.0250 0.0346
 0.484 0.0142 0.0339
 0.942 -0.0368 0.0506
0.000992 -0.0143  0.166
 0.121 -0.0159  0.166
-0.353 -0.00166 0.0151
 0.827 -0.00385 -0.0543
-0.210 -0.0173 -0.189
 0.325 0.00234 0.0269
-0.170 0.0270 -0.0521
0.0935 -0.0109 -0.167
-0.322 0.0339 -0.00273
0.0225 0.0172 -0.0380
-0.373 -0.0160 -0.0135
 0.987 -0.0323 -0.0475
0.0711 -0.0163  0.110
 0.753 0.0169 -0.0333
-0.0469 0.0116 0.0273
 0.178 0.00571  0.162
-0.222 0.0246 0.00648
 0.163 -0.0165  0.179
-0.00891 0.0109 -0.0551
 0.441 0.0229 0.00160
-0.0214 -0.00172 -0.0684
 0.923 -0.0271 -0.0176
-0.222 0.00163 0.0624
 0.858 -0.0237 -0.0111
 0.701 0.00268 -0.0324
-0.0877 0.0116 0.0436
0.0368 0.00583 0.0522
 0.839 -0.00574 0.0477
-0.117 0.0265 -0.0343
 0.382 0.0223 -0.0251
-0.474 -0.00287  0.117
-0.282 -0.00977  0.218
 0.806 -0.0162 -0.0677
0.0430 -0.0173 -0.0299
 0.802 0.00107 -0.0461
0.0242 -0.00560 -0.202
 0.254 0.0244 0.0306
 0.569 0.0203 0.0104
 0.923 -0.0331 0.0143
-0.202 0.0273 -0.0529
 0.338 0.00427 -0.0355
 0.148 0.00193 -0.0378
0.0837 0.0116 -0.00536
-0.0347 0.0116 -0.0258
 0.220 0.0205 0.0235
-0.149 0.0132 -0.0299
 0.147 0.0111  0.166
 0.869 -0.0102 0.0417
 0.781 -0.0110 -0.0343
 0.887 -0.0141 -0.0217
-0.145 0.0116 -0.0707
 0.521 0.0209 0.0230
-0.116 0.0116 -0.0543
-0.373 0.000583 -0.0326
-0.475 0.00866 0.0887
-0.186 0.00520 -0.0747
 0.511 0.0223 -0.0234
-0.222 -0.00172 -0.0176
 0.792 0.00185 0.00961
0.0593 -0.0173 0.0191
 0.650 0.00593 -0.0295
-0.341 -0.00166 -0.00127
 0.397 0.00146 -0.0300
-0.292 -0.00673 -0.226
-0.292 -0.00897 -0.157
 0.286 0.0194 -0.00650
-0.288 0.0247 -0.0211
-0.251 0.0116  0.195
-0.271 0.0132  0.195
-0.455 -0.0173 -0.0911
0.0185 -0.0158 0.0681
-0.459 -0.0173 0.0885
-0.161 -0.0158 -0.0462
-0.373 -0.0173 0.0395
-0.227 0.0220 -0.0247
 0.672 0.0197 0.0249
-0.266 -0.00403 0.0630
-0.453 -0.0110 -0.172
-0.210 -0.0158  0.146
-0.467 -0.0158 -0.00536
-0.0795 0.0132 -0.0829
-0.0550 0.0116 -0.0462
-0.410 -0.0158 0.0110
 0.914 -0.0418 0.0395
-0.120 0.0266 -0.0162
-0.137 0.0269 -0.0347
-0.382 0.0124  0.142
-0.120 0.0116 -0.103
-0.353 -0.0173  0.133
-0.284 -0.0158  0.166
-0.178 -0.0173  0.125
-0.214 -0.0173 0.0926
0.00620 0.0132  0.125
-0.165 0.0132 -0.0911
-0.390 0.0116 -0.0911
-0.137 -0.0158  0.142
-0.0347 -0.0173 -0.0993
-0.410 -0.0160 -0.0829
-0.213 0.00221  0.193
 0.241 0.00471 -0.0384
 0.787 -0.0127 0.0653
-0.324 -0.00203 -0.0176
-0.280 0.0116 -0.201
-0.0673 0.0116 0.0845
-0.369 -0.0173 -0.205
-0.275 0.00499 -0.00535
-0.137 0.0132 0.0273
-0.439 -0.0173 0.0559
-0.0607 0.0267 0.000886
-0.0673 -0.0160 -0.148
 0.235 0.0177 -0.00127
-0.333 -0.0158 -0.124
-0.194 0.0129  0.129
-0.141 0.0132 0.0763
-0.414 0.0127  0.142
-0.329 -0.0173 -0.177
-0.329 0.0132  0.101
-0.202 -0.0158 -0.0952
-0.398 -0.0173  0.125
-0.186 -0.0158  0.150
-0.0550 -0.0158 0.0436
0.00620 -0.0173 -0.00127
-0.0428 0.0127 0.0559
-0.414 0.0116 -0.0176
-0.227 -0.0173 -0.0380
-0.455 0.0132 0.0355
-0.0387 -0.0158 -0.0258
-0.390 -0.0173 -0.0543
-0.0224 0.0116  0.142
-0.202 -0.0158 -0.140
-0.0795 0.0116 -0.0503
-0.431 0.0132 -0.177
-0.147 0.00786  0.167
0.00479 0.00853 -0.145
-0.376 3.22e-05 -0.00400
-0.337 -0.00240 0.0355
 0.494 0.0183 0.00434
-0.0795 0.00123  0.146
 0.614 0.0206 -0.0212
-0.263 0.00499 0.0394
-0.481 -0.00287 0.0273
-0.186 -0.00172 -0.0503
-0.112 0.0270 0.0173
-0.480 -0.00184 -0.0616
 0.781 0.0160 0.0319
 0.113 0.0216 -0.0271
-0.194 0.00122 -0.190
 0.195 0.00423 -0.0391
 0.563 0.000724 -0.0232
 0.918 -0.0190 0.0542
0.0474 -0.000809 -0.0353
-0.206 0.00162 -0.0745
0.0878 -0.0106 -0.00536
 0.121 -0.00429 0.0212
-0.0419 0.00567 -0.0872
-0.169 0.0236 -0.00940
-0.353 0.0132 0.0599
 0.582 0.0161 -0.0366
-0.373 -0.00119 0.0191
 0.762 -0.00789 0.0519
-0.107 0.0262 -0.0495
 0.117 -0.00792 -0.0203
 0.180 -0.00723 -0.0192
-0.377 0.00122  0.217
 0.141 -0.00967 -0.00927
 0.210 -0.00866 -0.00914
-0.248 -0.00287  0.209
 0.679 0.00573 -0.0298
 0.386 0.0177 0.0151
0.0552 0.0132 -0.181
-0.251 0.0116 0.0723
 0.146 0.00121  0.185
 0.851 -0.00754 -0.0462
-0.202 -0.0173 -0.00536
 0.828 -0.0234 -0.0788
-0.0838 0.0265 -0.0331
-0.271 0.0217 0.0468
-0.162 -0.00694  0.173
 0.742 0.0138 0.0319
 0.823 -0.00216 0.0369
0.0454 0.0116 -0.159
-0.235 0.0146 -0.0524
 0.442 0.0230 0.0291
-0.145 0.0116 -0.156
 0.190 0.00895 0.0357
-0.292 0.0130 -0.214
-0.337 0.0116 -0.107
-0.0101 -0.0173 0.0314
0.0225 -0.0173 0.0395
-0.210 -0.0173 0.0273
-0.0510 0.0116 -0.0176
0.0512 -0.0158  0.174
-0.129 -0.0158 -0.0829
 0.820 -0.00275 0.0134
 0.231 -0.000295 0.0251
-0.467 0.0116 -0.0258
-0.107 0.0274 0.000640
-0.300 0.0116  0.121
-0.210 -0.0158  0.113
0.0307 -0.0158  0.138
-0.0999 -0.0158 -0.140
-0.227 0.0129 -0.156
-0.182 0.0247 -0.0222
-0.157 -0.0158 -0.107
-0.259 0.0116 -0.124
-0.161 -0.0173  0.113
-0.108 -0.0158  0.105
-0.178 0.0116  0.101
-0.467 -0.00828 -0.138
-0.157 -0.0158 -0.0829
-0.153 -0.0173 0.0151
-0.0673 0.0132 -0.107
 0.123 0.00964 -0.0453
-0.00980 0.0101 0.0878
 0.267 -0.00691 0.00773
 0.851 -0.00783 0.0191
-0.198 -0.0158 0.0845
-0.0387 0.0129  0.113
0.0919 0.0130  0.190
-0.0428 0.0257 -0.0494
-0.255 0.00499 -0.0543
-0.255 0.00499 -0.00944
-0.427 -0.0173 0.0436
 0.198 -0.00589 0.0146
-0.241 0.0224 -0.0688
-0.235 0.0132  0.182
 0.678 0.0194 -0.0192
-0.373 0.0116  0.162
0.0266 -0.00808 0.0112
0.0276 0.00625 -0.0503
 0.945 -0.0382 -0.0707
-0.130 0.0271 0.0352
-0.229 0.0171 0.0201
0.0263 0.000650 0.0892
0.0239 -0.0142 -0.0457
-0.361 -0.0158 0.0273
-0.230 0.00162 0.00281
 0.552 0.0162 0.0327
-0.104 0.0116 -0.0217
-0.316 0.0180 0.00462
 0.785 0.00301 0.0717
-0.145 0.0273 -6.69e-05
-0.345 -0.00321 -0.0339
-0.447 0.0132 -0.136
0.0430 -0.0173  0.101
0.0790 0.00788 -0.0373
 0.635 -0.000563 -0.0169
 0.574 0.000300 0.0171
-0.267 0.0286 -0.0587
-0.316 0.0116 0.0681
-0.243 0.0116  0.162
-0.337 0.0116  0.138
-0.280 -0.0173 -0.189
-0.369 -0.0173  0.117
-0.353 -0.0158 0.0967
-0.289 0.00787 -0.0647
-0.0673 -0.0158 -0.0135
-0.0428 -0.0158 -0.177
-0.353 -0.00171 0.0502
-0.337 0.0116  0.170
 0.794 -0.0146 0.0230
-0.402 0.0115 0.0557
 0.231 0.0235 -0.0277
-0.414 0.0116 0.0436
-0.112 -0.0158 -0.00127
-0.414 0.0132 -0.0707
 0.195 -0.0163  0.155
-0.186 0.0132 -0.169
-0.206 0.0130 -0.181
-0.247 0.0116 0.0926
-0.0224 0.0132 -0.156
-0.308 0.0116 -0.205
0.0797 -0.0158  0.146
-0.361 -0.0158  0.178
-0.324 -0.0158  0.125
-0.165 -0.0158  0.154
-0.227 -0.0158 -0.185
-0.296 -0.0173 0.0804
0.00211 -0.0158  0.146
-0.104 -0.0158  0.129
-0.357 -0.0173 -0.218
-0.312 -0.0158 -0.124
-0.308 -0.0158  0.207
-0.267 0.0116  0.105
-0.161 0.0116  0.105
-0.0958 -0.0173 -0.124
-0.0958 0.0132 0.0599
-0.431 0.0116  0.125
-0.239 -0.0158 -0.0135
-0.341 -0.0158 -0.0829
-0.0999 -0.0158 -0.0135
0.0144 0.0116 -0.00944
-0.0958 -0.0158 -0.0707
-0.406 -0.0160 -0.0462
-0.451 0.0132  0.146
-0.435 -0.0158  0.142
-0.378 -0.0173  0.150
-0.0632 -0.0173 0.0885
-0.00199 0.0116 -0.185
-0.414 0.0116 -0.103
-0.116 0.0116 -0.00944
-0.410 0.0116 -0.0339
-0.243 0.0116 -0.0912
-0.0550 0.0269 0.0329
-0.206 -0.00172 0.0477
-0.357 -0.0158 -0.0584
-0.137 -0.0158 -0.0135
-0.280 0.0116 -0.156
-0.369 0.0116 -0.0911
-0.271 0.0116  0.142
 0.823 -0.0179 -0.00944
-0.320 -0.0173 -0.0503
-0.390 0.0124  0.109
-0.312 -0.00321 0.00690
-0.0632 0.0132 -0.144
-0.382 -0.0173  0.166
-0.333 -0.0158 0.0722
 0.149 0.00854 0.0354
-0.443 0.0132 0.0845
-0.320 0.0132 -0.193
-0.255 0.0116 -0.177
-0.390 0.0116 -0.124
-0.0958 0.0132  0.101
-0.235 -0.0158 -0.136
-0.308 0.0132 -0.128
-0.0183 -0.0173 -0.136
-0.0632 0.0116  0.113
-0.280 0.0124  0.174
-0.431 0.0129 0.0151
-0.0999 0.0132 0.0191
-0.463 -0.0173 0.0436
-0.481 -0.00286 0.0557
-0.296 -0.0158 0.0599
-0.288 0.0127 -0.107
-0.406 -0.0173 -0.116
 0.345 0.00172 0.0254
-0.341 0.0116 -0.0707
 0.533 0.0169 0.00690
-0.0550 0.0131  0.146
-0.309 0.0369 0.0439
-0.0345 0.0242 0.0152
-0.182 -0.0158 0.0477
 0.104 0.0170 -0.0135
 0.647 0.000330 0.0147
-0.203 0.0280 0.000625
 0.386 0.00455 0.0284
-0.00332 0.0267 0.0176
 0.881 -0.000429 0.0360
-0.296 0.00267 0.00495
 0.853 -0.0252 0.0834
 0.431 -0.00407 0.0100
 0.908 -0.0167 -0.0296
 0.704 -0.000437 0.0107
0.0420 0.0118  0.180
-0.182 0.0277 0.0169
-0.0891 0.0264 -0.0496
 0.459 0.0157 -0.0396
0.0347 0.00541 0.0351
 0.805 -0.0129 -0.0880
 0.195 0.0222 -0.0258
-0.288 0.00120 0.0625
0.00717 0.0221 -0.0482
 0.202 0.0229 0.0310
 0.611 0.000114 -0.0200
-0.0195 -0.000876 -0.117
0.0642 -0.000593 -0.0351
-0.393 0.00741 0.0191
0.0512 0.0115  0.150
 0.879 -0.0128 -0.0380
0.0960 0.00819 0.0360
-0.00608 0.0268 -0.000104
 0.455 0.0211 0.0125
 0.825 0.00725 -0.0253
 0.423 0.0172 0.00280
-0.284 0.00578 -0.0421
0.0547 -0.00287  0.184
 0.717 0.00221 -0.0355
-0.0300 -0.00695  0.156
-0.308 -0.0158  0.121
-0.329 -0.0158 -0.193
-0.263 -0.0173  0.146
 0.104 -0.0158  0.186
 0.653 0.0189 -0.0172
-0.330 0.0443 0.0273
 0.814 -0.0273 -0.0435
-0.373 0.0116 0.0967
 0.961 -0.0260 -0.0584
 0.868 -0.0224 0.0554
-0.113 0.00529  0.151
-0.0632 -0.0173 -0.116
-0.129 0.0116 -0.0421
-0.104 -0.0158 0.0314
 0.844 -0.0241 -0.0208
0.0865 0.0264 0.00121
-0.463 0.0116 0.0110
-0.447 0.0116 -0.00536
-0.247 -0.0158  0.105
-0.312 -0.0173 0.0885
-0.0795 -0.0158 0.0477
-0.165 -0.0158 -0.132
-0.345 -0.0158 0.00689
-0.0224 -0.0158 0.0804
-0.0306 -0.0158  0.101
-0.243 0.0132  0.125
-0.373 -0.0173 -0.0870
-0.345 -0.00166 -0.0176
-0.414 -0.0173  0.158
-0.429 0.0110  0.192
 0.684 0.0208 0.0146
 0.784 -0.0115 0.00519
-0.435 0.0116  0.158
-0.178 -0.0173 -0.0380
-0.435 0.0129 0.0477
0.0795 0.0132 -0.181
-0.312 -0.0173 0.0518
 0.100 -0.0156 0.0109
-0.378 0.0132 -0.197
-0.398 -0.0173 -0.148
-0.463 0.0116  0.121
-0.296 -0.0173 -0.189
-0.173 -0.0158 -0.111
0.00620 -0.0173 0.0395
-0.390 -0.0158 0.0599
-0.353 -0.0158 -0.0258
-0.431 -0.0173 0.0722
-0.275 -0.0173 -0.0829
-0.386 -0.0173 -0.205
-0.247 -0.0173 -0.197
 0.882 -0.0352 -0.0460
-0.421 -0.0110  0.197
 0.898 -0.0304 0.0672
 0.116 0.0140 0.0386
 0.771 0.00544 0.0409
 0.104 -0.0173  0.150
-0.298 -0.000414 0.0446
-0.194 -0.0158 0.0314
-0.214 -0.0158 -0.0176
-0.0573 0.0265 -0.0159
-0.0551 -0.00271  0.149
 0.774 -0.00981 -0.0503
 0.810 -0.000638 -0.0300
-0.0817 -0.000154 -0.168
-0.227 -0.0173 0.0151
-0.239 0.0271 -0.0353
-0.0224 0.0263 -0.0326
0.00546 -0.0110 -0.0523
-0.165 -0.00161 0.0593
-0.302 0.0202 0.0293
-0.0612 -0.00151 -0.178
 0.897 -0.0156 0.00383
-0.161 -0.000258 0.0358
0.0687 0.00120 -0.191
-0.288 0.0183 0.0609
-0.268 0.00121  0.216
 0.303 0.0239 0.0302
-0.239 0.00521 0.0636
 0.983 -0.0444 0.0492
 0.100 0.00973 0.0147
-0.0230 0.0262 -0.0485
-0.0224 0.0267 -0.000208
 0.260 0.0172 -0.0329
-0.324 0.0116  0.211
 0.370 -0.00297 0.0161
 0.836 -0.0211 0.0444
0.0144 0.0116  0.158
 0.172 0.0157 0.0373
-0.165 -0.00172 -0.0584
 0.828 -0.0204 0.0278
0.0624 -0.00342 -0.160
-0.0428 -0.0173  0.133
0.0457 0.0244 -0.0307
-0.329 -0.00171 0.0502
-0.141 0.0132 -0.0135
 0.348 0.0186 -0.0293
-0.210 0.0255 -0.0386
-0.461 0.0118 -0.156
 0.525 0.00111 0.0203
 0.953 -0.0247 -0.0788
 0.792 -0.0115 -0.0745
 0.174 -0.00559  0.173
 0.855 -0.00861 -0.00128
-0.120 -0.0173  0.142
0.0251 0.0197 -0.00131
0.0471 0.0116 -0.00944
-0.112 0.00122 -0.162
-0.247 0.00882 0.00689
 0.123 0.000761  0.157
0.0879 -0.00321 0.0223
-0.198 0.0213 -0.0747
 0.888 -0.0288 -0.0135
0.0516 -0.0142 0.0748
 0.206 0.0241 0.0147
-0.0931 0.0272 0.0179
 0.174 -0.00938 -0.00534
-0.316 0.0178 -0.0504
-0.241 0.0194 0.0398
-0.0442 0.0270 0.000930
 0.103 -0.00251 -0.0160
-0.288 0.0248 -0.000632
 0.165 0.0242 -0.0291
 0.545 -0.00402 -0.00531
 0.595 0.0187 -0.0291
-0.230 -0.00254 -0.207
 0.816 -0.0194 0.0857
 0.569 0.0221 -0.0234
 0.715 0.0234 0.0154
0.0837 -0.0173  0.178
0.0229 -0.00146 0.0723
-0.00608 0.0116 0.0273
 0.875 0.000970 -0.0322
 0.792 0.00124 -0.00674
 0.770 -0.00916 0.0110
 0.903 -0.0134 0.0493
 0.628 0.00756 -0.0320
 0.764 0.00704 0.0192
-0.102 0.0263 -0.0342
-0.320 -0.0158 0.0110
 0.292 0.0236 -0.0273
 0.393 0.0223 -0.0118
0.0788 -0.00239  0.132
 0.368 0.0235 0.0162
 0.883 -0.0399 0.0868
0.00404 0.00972 0.0980
 0.337 0.0174 0.0273
0.0622 -0.00163 0.0426
 0.410 0.0222 -0.0128
 0.251 0.0241 0.000677
 0.872 -0.0264 -0.0175
0.0552 -0.0173  0.113
-0.378 0.00123 0.0462
-0.315 0.0435 -0.0354
-0.329 0.0473 0.000216
 0.843 0.00693 0.0281
 0.939 -0.0231 0.0845
0.0784 0.0253 -0.0155
-0.197 0.0250 -0.0131
-0.0306 -0.00269 -0.0806
-0.308 0.0116  0.207
-0.361 -0.00321 -0.0503
 0.125 0.0248 0.0307
-0.0265 0.0260 0.0314
-0.320 -0.0173 0.0314
-0.284 0.0220 -0.0631
-0.229 -0.000712 -0.0489
-0.319 0.00144 -0.0571
-0.178 0.00915  0.180
 0.886 -0.0376 0.0526
 0.313 0.0173 -0.0258
 0.239 0.0242 0.0297
 0.149 0.0239 0.0164
 0.578 0.0188 -0.00227
-0.182 -0.00172 0.0191
 0.901 -0.0108 -0.0456
 0.259 0.0220 0.0151
 0.735 0.0167 0.00923
-0.0183 0.0116 -0.0135
-0.312 0.0126 0.0207
-0.381 0.00239 0.0314
 0.900 -0.0289 -0.0882
 0.809 0.00234 0.0443
0.0511 0.0266 0.0160
0.0561 -0.00693 -0.0461
-0.0728 0.0272 0.0342
0.0185 0.0116 -0.165
 0.413 0.0230 0.0143
 0.365 0.00440 0.0286
-0.321 0.0339 0.0186
-0.244 0.0215 0.0572
0.0837 -0.0172 -0.177
-0.296 0.0251 -0.0384
 0.789 0.00225 -0.0380
-0.390 -0.00185 -0.227
-0.414 -0.0163 -0.197
 0.485 0.0190 0.0197
 0.931 -0.0358 -0.0642
-0.412 0.0122 -0.215
 0.165 0.0138 -0.0458
-0.471 -0.0172  0.121
 0.368 0.00105 -0.0303
0.0389 0.0116 -0.0379
 0.928 -0.0354 0.0555
-0.218 -0.0173  0.191
 0.767 0.0142 -0.0239
 0.421 0.0231 0.0293
-0.300 -0.0158 -0.00944
-0.276 0.0284 -0.0340
 0.481 -0.00341 -0.0158
 0.925 -0.0200 0.00281
-0.0754 0.0254 0.0178
0.0526 0.00535  0.129
-0.468 -0.00287  0.147
-0.326 0.0296 -0.0531
 0.182 -0.00719  0.155
0.0307 -0.0173  0.170
0.0307 0.0116 -0.0135
-0.153 -0.0173 -0.165
0.0756 -0.0173 0.0273
 0.443 -0.00550 -0.00132
0.0817 -4.23e-05 -0.164
-0.153 0.0132 -0.140
-0.259 0.0116  0.154
-0.0795 -0.0158 0.0845
0.0593 -0.0173  0.154
-0.263 -0.0158  0.105
-0.292 -0.0158  0.182
-0.137 -0.0158 -0.116
-0.182 -0.0158 -0.177
-0.0224 -0.0158 -0.00127
-0.275 -0.0158 -0.209
-0.271 -0.0158 -0.00944
-0.247 -0.0158 -0.0829
-0.214 -0.0158 0.00689
-0.0101 -0.0173 -0.0421
-0.455 -0.0158 0.00689
-0.00608 -0.0158 0.00689
-0.0347 -0.0173 -0.128
-0.396 0.00859 -0.0407
-0.0795 -0.0158 -0.0625
-0.116 -0.0173 -0.0584
-0.451 -0.0158 -0.0135
 0.800 -0.0248 -0.0527
-0.112 0.0132 0.0477
-0.116 -0.0173 -0.0339
-0.294 -0.00168 -0.0804
-0.300 -0.0173 -0.0380
-0.0958 0.0132 -0.124
-0.182 0.0116  0.158
 0.977 -0.0333 -0.0589
0.0701 0.00951  0.152
-0.427 -0.0159 0.00280
-0.435 -0.00161 -0.203
-0.455 0.0116 0.0967
-0.284 0.0116 -0.185
-0.247 -0.0158  0.174
-0.173 -0.0158 -0.148
-0.0713 -0.0173  0.121
-0.439 -0.0173 -0.120
-0.196 0.000873  0.188
-0.231 0.0129  0.109
-0.333 -0.00216 0.0191
-0.00199 -0.0158 -0.0217
-0.0999 0.0132 0.0355
-0.463 0.0132 -0.0421
-0.153 -0.0158 0.0436
-0.341 -0.0173 -0.0503
-0.214 -0.0158 -0.0666
 0.974 -0.0402 0.0645
-0.361 0.0116  0.121
-0.341 -0.0158 0.0559
-0.239 -0.0173 0.0436
-0.308 0.0116  0.191
-0.222 0.0116 -0.189
-0.308 0.0132 0.0845
-0.0265 -0.0173  0.129
-0.239 0.0116 -0.124
-0.00608 -0.0173 0.0722
0.0266 0.0116 -0.185
0.0225 -0.0158  0.125
-0.386 -0.0173 -0.136
-0.124 0.0116 -0.128
-0.280 0.0124 -0.0911
-0.214 0.0116  0.158
-0.427 -0.0159 -0.0380
-0.361 0.0116 -0.136
-0.406 0.0116  0.121
-0.214 0.0129  0.182
-0.459 -0.0158 0.0273
-0.0347 -0.0158 0.0355
-0.153 -0.0173 -0.00536
-0.284 -0.0173 0.0232
-0.218 -0.0158 -0.0503
-0.178 -0.0173 0.0273
-0.365 -0.0158 -0.0339
-0.153 0.0129 0.0191
-0.310 0.0320 0.00586
-0.153 0.0132 -0.0829
-0.477 -0.0164 0.0939
-0.353 -0.0158 -0.173
-0.394 0.0127 -0.152
-0.402 0.0116 -0.185
-0.112 0.0116 -0.0339
-0.0142 0.0116 0.00281
-0.300 -0.0173 -0.0952
-0.255 -0.0158 0.0314
-0.402 -0.0173 -0.00536
-0.0754 -0.0173 -0.0299
-0.239 -0.0158 0.00689
-0.312 0.0132  0.142
-0.316 0.0132 -0.222
-0.186 -0.0158 0.0926
-0.0918 -0.0173 0.0722
-0.104 -0.0158 -0.111
-0.124 -0.0158 -0.136
 0.269 0.0116 -0.0433
 0.113 0.0253 0.0153
 0.447 0.0177 -0.0135
-0.210 0.0124 -0.0952
0.0307 -0.00858 -0.0180
-0.00608 -0.0173 0.0477
-0.00608 -0.0158 -0.181
-0.0510 -0.0173 -0.161
-0.304 0.0116  0.170
-0.210 -0.0158 -0.116
-0.120 0.0116 0.0763
-0.0550 -0.0163 -0.132
-0.0713 0.0132 -0.128
-0.418 0.0132 -0.161
-0.263 -0.0173 -0.107
-0.361 -0.0158 -0.132
-0.345 0.0116 0.0926
-0.296 0.00520  0.221
-0.165 0.0209 0.0519
-0.173 -0.00172 -0.0135
-0.0101 0.0116 -0.0258
-0.312 0.0132 -0.0707
-0.463 -0.0158 -0.0462
-0.0428 -0.0160 -0.0829
-0.406 -0.0158 0.0355
-0.169 -0.00172 0.00688
-0.255 0.00499 -0.0339
-0.292 0.0132  0.199
 0.774 -0.00981 -0.0217
-0.263 0.0132 -0.165
0.00620 0.0116 -0.0380
 0.839 -0.0210 0.0153
-0.145 0.0132  0.113
-0.263 -0.0173 0.0763
-0.0101 -0.0158  0.138
-0.227 -0.0158 -0.148
-0.288 0.0116 0.0804
-0.284 -0.0158 -0.132
 0.725 0.00864 0.0322
 0.668 -0.00208 0.00266
-0.266 -0.00404 -0.0808
0.0795 0.0247 -0.0459
-0.0321 0.00807 -0.0705
-0.320 -0.00287  0.223
 0.469 0.0190 -0.0208
-0.334 0.0159 -0.0226
-0.392 -0.0163 -0.227
 0.365 0.0177 -0.00944
 0.774 0.00259 0.0811
0.0894 -0.0160  0.125
-0.310 0.0363 -0.0642
-0.239 -0.00384 -0.0790
 0.732 -0.00289 -0.0149
-0.0213 0.0113  0.159
-0.190 -0.0173  0.174
-0.284 0.00637 0.0436
-0.415 -0.00865 -0.214
 0.737 0.0128 -0.00533
0.0103 0.0116 0.0191
 0.803 -0.0121 0.0687
-0.219 0.0198 0.0551
0.0716 0.0239 0.0292
-0.361 0.0116 -0.222
-0.481 0.00122 -0.0340
 0.710 0.0185 -0.00282
 0.738 -0.00385 0.0110
0.0144 -0.0158 0.0110
0.0511 -0.0158 -0.189
 0.798 0.0142 0.0333
-0.312 -0.00271 -0.230
-0.317 0.0457 -0.0531
 0.949 -0.0241 -0.0505
 0.185 0.0248 0.0156
-0.298 0.0154 -0.0132
 0.989 -0.0429 -0.0372
-0.437 0.00120  0.185
-0.402 0.0107 -0.00535
0.0476 -0.00286 -0.200
-0.481 0.0116 0.0476
-0.00199 0.0116  0.146
-0.190 0.00163 0.0624
0.0791 -0.00287 0.0374
 0.308 0.0239 0.000677
-0.133 -0.00286  0.160
0.0503 -0.0171 0.0598
-0.467 0.0132 -0.107
0.0256 0.00881  0.175
 0.391 0.0215 -0.0390
 0.590 -0.00227 -0.0132
 0.762 0.00613 0.0545
-0.481 -0.00694 -0.0136
-0.296 -0.0142  0.218
-0.0144 -0.00253  0.161
-0.257 0.0261 0.0157
 0.510 0.00788 -0.0352
-0.285 0.0226 0.0297
-0.0183 0.0116 0.0518
-0.349 -0.00316 -0.0574
-0.403 0.00605  0.204
 0.734 0.0159 -0.0207
 0.141 0.0173 -0.0464
 0.812 -0.00390 -0.0637
0.0480 -0.00234 -0.158
0.0186 0.0176 -0.0244
0.0266 -0.00367 0.0248
 0.762 -0.00793 0.0355
0.00129 0.00570 0.0710
-0.300 -0.00895 -0.169
 0.908 -0.0431 -0.0420
-0.390 0.00826 -0.0546
0.0593 -0.0173 -0.169
-0.226 -0.00169 0.0477
 0.190 -0.000690 0.0255
 0.848 0.00568 -0.0297
-0.190 0.0279 0.0341
-0.353 -0.00286  0.221
 0.957 -0.0283 0.0519
 0.806 -0.000370 0.00689
 0.953 -0.0247 0.0681
0.0164 0.000732 -0.0382
-0.00675 0.0233 -0.0482
0.0272 0.00643  0.116
 0.474 0.0228 0.0288
 0.107 0.00953 -0.0456
 0.800 0.0120 -0.0378
-0.240 0.0274 -0.0533
-0.165 0.0116 -0.169
-0.267 -0.0158  0.199
0.0552 0.0248 0.00226
-0.324 -0.00321 -0.00127
 0.798 -0.0248 0.0314
 0.864 -0.00511 -0.0386
0.0511 0.0116 0.0272
 0.581 0.0226 0.0269
 0.463 0.00189 0.0231
 0.495 0.0224 -0.0236
 0.872 -0.0116 -0.00841
 0.696 0.000709 0.0232
-0.365 0.00504 0.0497
 0.819 0.00669 0.0234
-0.288 0.0238 0.0132
 0.133 -0.0158  0.178
-0.251 -0.00208 0.0640
0.0430 0.0239 -0.0153
 0.345 0.0177 -0.00536
-0.0591 0.0258 -0.0338
-0.108 0.0277 0.0337
0.0552 0.0116 0.00689
 0.602 0.0224 0.000640
-0.0877 0.0132 -0.161
 0.883 -0.0132 0.0314
 0.519 0.0218 -0.0116
-0.267 0.0132 -0.209
 0.844 -0.0226 0.0555
 0.432 0.00346 -0.0319
 0.872 -0.0279 -0.0676
-0.477 -0.00287 -0.0790
0.0593 -0.0158 -0.0339
 0.909 -0.0323 0.0120
0.0482 -0.00698 0.0860
 0.365 0.0236 -0.0260
-0.239 0.0117 -0.0299
-0.135 0.0261 -0.0182
-0.459 0.0132 -0.128
 0.473 0.0200 -0.00537
-0.479 -0.0171 0.0680
-0.300 0.0252 0.0453
-0.431 0.0116  0.178
 0.374 0.0216 -0.0380
-0.317 0.0456 0.0366
 0.263 0.00948 0.0351
 0.147 0.0212 0.0309
 0.492 0.00534 0.0274
-0.198 0.0212 0.0517
 0.158 -0.00286  0.180
-0.297 -0.000868 -0.0493
-0.345 -0.0171 -0.233
0.0436 0.0135 0.0433
-0.467 -0.0158 0.0763
-0.0469 0.0131 -0.0339
0.0543 -0.00660  0.103
-0.482 -0.0164 0.0286
 0.194 0.0208 -0.00953
 0.636 0.0190 -0.0173
-0.255 0.0216 -0.00937
-0.249 0.00655 -0.0217
 0.500 -0.00385 -0.0125
 0.802 0.000278 0.0273
 0.729 0.00846 -0.0376
 0.145 0.0177 -0.00809
 0.280 0.0212 0.0180
 0.958 -0.0404 0.0692
0.0552 -0.0173 -0.00536
0.0307 0.0261 -0.0319
 0.849 -0.00589 0.0323
 0.148 -0.0214  0.173
0.0226 0.0107 0.0435
-0.173 0.0108 -0.0788
 0.162 0.0222 0.0143
0.0139 -0.0158 -0.145
-0.214 0.0132 0.0681
 0.921 -0.0340 -0.0340
-0.477 0.0100 -0.0559
-0.471 -0.00254  0.132
 0.661 0.0201 -0.00484
 0.311 0.00969 -0.0412
 0.900 -0.0307 -0.00536
 0.558 -0.00342 -0.00958
 0.606 0.00313 0.0217
-0.128 -0.0142 -0.165
 0.953 -0.0392 0.0839
-0.304 -0.0158 -0.218
 0.830 -0.0191 -0.0220
 0.901 -0.0379 -0.0707
-0.313 0.0412 -0.0165
 0.864 -0.0247 0.0109
-0.188 0.0148 0.0604
 0.890 -0.0274 -0.0547
 0.126 0.0241 -0.0447
 0.768 0.00591 -0.0435
-0.230 0.0149 -0.0826
 0.449 -0.00289 -0.0191
-0.471 -0.0173 -0.0584
0.0348 -0.0158 0.0232
 0.100 0.0236 -0.0310
-0.0102 0.0130 -0.144
-0.324 -0.0173 -0.156
0.0512 -0.00158 0.0255
-0.133 0.0116  0.146
0.0774 -0.00691  0.190
 0.325 0.0212 0.0176
-0.0154 -0.0164 -0.108
0.0757 0.0214 -0.0336
-0.329 0.0155 0.0377
 0.772 0.000747 -0.0736
 0.157 -0.000109  0.159
0.0674 -0.0107 -0.00939
-0.226 0.0250 -0.0378
0.0157 -0.00629 -0.0271
-0.213 -0.00287 -0.199
 0.194 -0.00877 0.00244
 0.876 -0.0269 0.0233
 0.809 -0.0194 0.0232
-0.140 0.00529 -0.168
-0.243 0.0109 -0.0421
 0.913 -0.0419 0.0530
 0.312 0.00559 0.0308
-0.202 -0.00172 -0.0625
 0.274 0.0234 -0.0406
-0.458 -0.00661  0.165
-0.161 0.0286 0.0349
-0.400 -0.00692  0.207
-0.447 -0.00422 -0.181
-0.320 0.0116 -0.111
-0.141 0.0132 -0.132
-0.386 0.0132 0.0763
-0.439 0.0116 -0.116
-0.116 0.0132 -0.140
-0.447 0.0116 -0.156
-0.341 0.0132 0.0681
-0.382 -0.0173 -0.152
-0.308 -0.0158  0.187
-0.341 -0.0158 -0.148
-0.402 -0.0158  0.138
-0.198 -0.0173  0.121
-0.194 -0.0173 -0.124
-0.231 -0.0158  0.166
-0.133 -0.0158  0.101
-0.0795 -0.0173 -0.0952
-0.0510 -0.0158 0.0763
-0.231 -0.0173 -0.107
0.0878 -0.0173  0.162
-0.390 -0.0158 -0.120
0.0144 -0.0173 0.0804
-0.239 -0.0173 0.0845
-0.398 -0.0158  0.166
-0.169 -0.0158 0.0885
-0.239 -0.0158 -0.0462
-0.443 0.0132 -0.0462
-0.178 -0.0158 -0.00127
-0.165 -0.0158 0.0191
0.0389 0.0132  0.146
 0.865 -0.00441 0.0308
-0.345 0.00907  0.223
-0.00586 -0.00249 -0.0550
-0.0866 0.0268 -0.0164
-0.476 0.0108 -0.00537
 0.186 0.0172 -0.0339
0.00784 -0.00457 -0.197
-0.0958 0.0116  0.117
-0.320 0.0116 -0.161
-0.300 0.0116  0.146
-0.182 0.0116 0.0845
-0.316 0.0116 -0.181
-0.308 -0.0173 -0.136
-0.178 -0.0173 0.0640
-0.231 0.0116 -0.107
-0.435 0.0129 0.0681
-0.451 0.0116 0.0477
-0.0510 0.0132 0.0151
-0.0999 0.0116 -0.0584
-0.418 0.0116 -0.0584
-0.198 -0.0158 0.00689
-0.447 -0.0173 -0.0788
-0.369 -0.0158 -0.0503
-0.231 -0.0158 0.0273
-0.0632 -0.0173 0.0151
-0.0713 -0.0158 -0.0421
-0.0877 -0.0158 0.0273
-0.0265 -0.0158 -0.0625
-0.0183 -0.0173 -0.0217
-0.0713 0.0116 0.0232
-0.345 -0.0173 -0.0707
-0.173 -0.0158 -0.0258
-0.333 -0.0173 -0.0380
-0.0632 0.0132 0.0559
-0.426 0.0116 -0.189
-0.431 -0.0160 -0.152
-0.0713 -0.0173 -0.161
0.0185 -0.0158 0.0518
-0.206 -0.0158 0.0395
-0.0510 0.0129 0.0396
 0.784 -0.0115 0.0501
-0.133 0.0132 0.0640
 0.894 -0.0399 -0.0396
-0.251 -0.0173 0.00281
 0.161 -0.0173  0.166
-0.0999 -0.0158 0.0599
 0.460 -0.00382 0.00965
-0.0216 -0.00150 -0.190
-0.373 0.0116 0.0681
-0.427 0.0130 -0.0380
-0.369 0.0124  0.150
-0.402 0.0132 -0.0993
-0.312 0.0116  0.158
-0.0999 0.0116 0.0722
-0.157 0.0116  0.138
-0.357 0.0132  0.170
-0.133 0.0132  0.105
-0.271 0.0116  0.121
-0.243 0.0132 -0.181
-0.153 0.0132 -0.0993
-0.280 -0.0173  0.207
-0.398 -0.0173  0.182
-0.439 -0.0158 0.0845
-0.0183 -0.0158  0.109
-0.284 -0.0158  0.109
-0.414 -0.0173 -0.128
-0.443 -0.0158  0.109
-0.308 -0.0158 -0.197
-0.337 -0.0173 -0.136
-0.284 -0.0158 -0.116
-0.365 -0.0158 -0.107
-0.198 -0.0173 0.0681
-0.361 0.0124 -0.0788
-0.304 0.0116 0.0600
 0.227 0.0243 -0.0154
-0.145 -0.0173 -0.0870
-0.153 -0.0158 -0.0339
-0.267 -0.0158 0.0477
-0.288 -0.0173 -0.0666
-0.357 0.0116 -0.111
-0.0836 -0.0158  0.137
-0.112 0.0132 -0.0707
-0.0713 -0.0173 -0.00127
-0.247 0.00882 0.0355
0.0817 -0.00696 -0.0390
 0.725 -0.00170 0.0232
-0.316 -0.0160 -0.0625
-0.320 -0.00166 0.0395
-0.341 0.0132 -0.128
-0.455 -0.0158 0.0559
-0.316 -0.0173 -0.00127
-0.0175 0.0224 0.0203
-0.394 -0.0163 -0.0380
 0.476 -0.00480 0.00246
-0.190 0.0116 -0.111
-0.259 -0.0158 -0.161
0.0674 -0.0173  0.142
-0.394 0.0116 -0.136
-0.280 0.0124 -0.136
-0.349 -0.0158  0.150
-0.280 0.0116 0.0967
0.00620 -0.0173 0.0967
-0.153 -0.0158 0.0681
-0.227 -0.0173  0.138
-0.324 0.0132  0.117
-0.341 0.0132 -0.205
-0.378 -0.0173  0.105
0.0348 -0.0158 0.0885
