ply
format ascii 1.0
element vertex 2048
property float x
property float y
property float z
end_header
0.0491 0.0433  0.337
-0.0286  0.614 -0.789
-0.0126 -0.544 -0.672
0.0139 -0.542  0.760
-0.0339  0.610  0.765
-0.0126  0.613 -0.0820
-0.152 -0.542 0.0149
0.0464 0.0519 -0.415
-0.0334 -0.0849  0.765
0.0464  0.496  0.345
-0.295 -0.541  0.462
-0.0287 -0.136 -0.793
0.0491 -0.170 -0.0393
0.0491  0.445 -0.441
0.0464  0.223 -0.0222
0.0183 -0.342  0.311
-0.296 -0.535 -0.426
-0.0355  0.240 -0.740
0.0384  0.257  0.640
0.0178 -0.367 -0.347
-0.0355 -0.307  0.593
0.00446 -0.545  0.482
-0.0354 -0.189 -0.535
0.0482  0.274  0.234
0.0464  0.266 -0.270
-0.141 -0.532  0.268
-0.141 -0.533 -0.236
0.0491 0.0347 -0.176
0.0491  0.479  0.106
0.0491 -0.0935  0.533
0.0180 -0.398 -0.0975
0.0491 0.0176 0.0975
0.0464 0.0348 -0.646
0.0464  0.505  0.576
0.0491  0.437 -0.672
-0.0724 -0.545 -0.450
0.0116 -0.359 -0.793
-0.0287  0.613 -0.304
0.0491 -0.153 -0.304
0.0464  0.248 -0.535
-0.175 -0.534  0.651
-0.0211 -0.183  0.166
-0.00405  0.614 -0.561
0.0464  0.411 -0.116
0.0482  0.308  0.439
0.000233 -0.399  0.117
-0.0212  0.402  0.766
-0.0126  0.112  0.766
-0.198 -0.538 -0.606
0.0491 -0.153  0.345
0.0178 -0.376 -0.552
0.0464 0.0946  0.534
-0.0354  0.607  0.217
0.0116 -0.350  0.766
-0.0355 -0.256 -0.176
-0.0334 0.0718 -0.792
0.0170 -0.539 -0.305
0.0162 -0.539 -0.00581
0.0161 -0.538  0.209
-0.0126  0.614  0.465
-0.0123 -0.247 -0.680
-0.0133 -0.256  0.448
0.00734 -0.461  0.627
-0.0355 -0.290 0.0120
0.0464  0.488 -0.253
-0.141 -0.532  0.431
0.0491  0.325 0.0890
-0.0353 0.00912  0.647
-0.0287  0.394 -0.793
0.0165 -0.213  0.708
-0.0126 -0.533 -0.150
0.0464 -0.0935 -0.458
0.0179 -0.398  0.484
-0.0354  0.607 0.0633
0.0464 -0.111 -0.638
0.0464  0.163  0.140
-0.0355 -0.239 -0.398
0.0464 -0.0507  0.226
0.0464  0.197 -0.398
0.0488  0.189  0.363
0.0464 -0.0251 -0.0478
-0.0212 -0.545  0.345
-0.0212  0.257  0.766
0.0491 -0.119 -0.168
-0.0212  0.614  0.628
0.0464  0.172 -0.168
0.0464  0.368  0.568
-0.0306 -0.399 -0.674
0.0216  0.573 -0.424
0.0491  0.513 -0.0222
-0.0306 -0.399 -0.229
-0.0895 -0.532  0.132
0.0482  0.180 -0.646
0.0482  0.103 -0.287
0.0464  0.103 -0.535
0.0488  0.565 -0.689
-0.0355  0.496  0.679
0.0491  0.402  0.243
0.0491 -0.119 0.0804
0.0491  0.325 -0.398
-0.285 -0.542  0.588
0.0178 -0.521 -0.535
-0.0126  0.137  0.643
-0.0334 -0.116  0.644
-0.152 -0.542 -0.113
0.0491  0.368 -0.569
-0.0355 -0.316  0.200
0.0464  0.445  0.457
0.0464  0.103 0.00347
0.0491  0.310 -0.687
-0.0355 -0.230  0.303
-0.107 -0.532  0.551
0.0491 0.000554  0.457
0.0491  0.505 -0.561
0.0482  0.214  0.516
0.0464 -0.0165 -0.304
0.0164  0.611  0.325
-0.0353 -0.0336 -0.700
0.0491  0.531 -0.142
0.0491  0.283 -0.125
-0.0355  0.360  0.653
-0.152 -0.542 -0.361
-0.0124 -0.196  0.551
-0.296 -0.539 -0.543
0.0491 0.0689  0.209
-0.0355 -0.359 -0.450
-0.0126 -0.273 -0.287
0.0464 -0.0165 -0.544
-0.192 -0.533 -0.492
-0.0355  0.496 -0.723
-0.0554 -0.545  0.670
-0.0895 -0.545 -0.578
0.0464  0.531  0.209
0.0491  0.402 -0.00510
-0.0212  0.614 -0.193
0.00447 -0.247 -0.793
0.0491  0.377 -0.253
0.0464  0.377  0.354
0.0178 0.00910  0.762
-0.0355 -0.350  0.405
-0.0211 -0.183 0.0377
0.0491 -0.178  0.243
0.0181 -0.397 0.00655
0.0464  0.172  0.260
0.0491 -0.170  0.448
0.0178 -0.0251 -0.789
0.0154 -0.542 0.0975
0.0184  0.163 -0.783
0.0464  0.112  0.431
-0.0355 -0.222 -0.0649
-0.0334  0.146 -0.697
0.0491  0.505 -0.356
-0.0354 -0.393  0.687
0.0491 0.00910  0.593
0.0116  0.513  0.766
-0.0354 -0.453 -0.485
-0.0639 -0.545 -0.0649
0.0179 -0.398  0.219
0.0491 -0.0507  0.371
-0.0353  0.360 -0.700
-0.0130 -0.282 -0.510
-0.0334 -0.153 -0.697
0.0491 0.0946 -0.0991
0.0438 -0.178 -0.398
0.0447  0.437  0.645
0.0184  0.308 -0.783
0.0464  0.539  0.482
0.0466 -0.170  0.627
0.0491 -0.136 -0.544
0.0464  0.283  0.337
-0.0355 -0.461  0.542
0.0167 -0.533 -0.418
-0.0123 -0.307 -0.0991
0.0106 -0.543  0.577
-0.0355  0.599 -0.663
0.00449 -0.184 -0.227
-0.0355 -0.290  0.106
-0.0355 -0.290  0.696
0.0182  0.189  0.714
0.0464  0.317 -0.0393
-0.192 -0.533  0.516
-0.0355 -0.307 -0.595
0.0446 -0.0678  0.645
-0.0354 -0.189 -0.321
0.0181  0.531 -0.789
0.0464  0.223 0.0719
-0.0810 -0.545 -0.304
0.0131  0.572  0.132
-0.0287 -0.184  0.397
-0.0355 -0.324 -0.723
-0.0353  0.576  0.542
0.0177 -0.384  0.585
-0.0355 -0.324  0.499
-0.0553 -0.533 0.0462
-0.0334  0.572  0.391
0.0472  0.571 -0.298
0.0464 -0.0764 -0.373
0.0491  0.420 -0.339
-0.0125 0.0519 -0.706
0.0464  0.360 -0.484
0.0491  0.394  0.157
0.0464 -0.0678 -0.236
0.0464 -0.119  0.174
0.0482  0.180 -0.484
0.0183  0.334  0.714
0.0178 -0.350 -0.168
-0.0355  0.590 -0.484
0.0482  0.257  0.149
0.0464 -0.0422 -0.133
0.0464 -0.0849  0.448
-0.0468 -0.545 -0.227
-0.0554 -0.545  0.422
-0.0554 -0.545  0.268
0.0483 -0.0406 -0.694
0.0375  0.574 0.0384
0.0491 -0.177 -0.688
0.0446 0.0775  0.645
0.0384  0.556  0.640
0.0438  0.564 -0.504
-0.0287 -0.184 -0.621
-0.115 -0.545  0.345
0.0130 -0.184 -0.133
-0.0287  0.572 -0.0136
0.0464 -0.0935 0.00347
0.0464  0.163  0.593
0.0464  0.189 -0.296
-0.0355  0.231  0.662
-0.0355 -0.205  0.628
0.0464  0.120 -0.373
-0.0126 -0.184 -0.458
0.0163 -0.148  0.765
0.0180 -0.342 -0.646
-0.0102 0.0604  0.702
0.0464  0.103 0.0890
0.0491 -0.102 -0.0820
0.0491  0.360 -0.176
-0.0212 -0.256  0.766
0.0491 -0.102  0.286
0.0464  0.479  0.268
0.0384  0.569 -0.219
0.0183  0.582  0.714
0.0165 -0.398  0.372
0.0438  0.564  0.385
-0.152 -0.542  0.177
0.0119 -0.335 -0.244
0.0464 -0.00798 -0.467
0.0491 0.0262 0.0120
-0.0468 -0.532 -0.373
0.0464  0.231  0.431
-0.0355 -0.239  0.226
0.0464  0.291  0.559
0.0482  0.180 -0.0906
0.00450 -0.0422  0.706
-0.0287 -0.184  0.474
0.0184  0.454 -0.757
0.0491  0.291 -0.612
-0.0353  0.576 -0.373
0.0464  0.505 -0.638
0.0491  0.454 -0.185
0.0464  0.180 -0.569
0.0464  0.103 -0.612
-0.0355 -0.324 -0.381
0.0484 -0.183 -0.604
-0.218 -0.538 -0.421
-0.0287 -0.461 -0.560
0.0165 -0.0963 -0.747
0.0183  0.454  0.714
0.0178 -0.342  0.670
-0.0311 -0.398  0.302
0.0438  0.574 -0.603
-0.151 -0.535 0.0896
0.0438  0.331  0.635
0.0450 -0.186  0.132
-0.0355 -0.384 -0.0478
-0.0884 -0.538 -0.652
0.00448 -0.335 0.0633
0.0438  0.564 -0.0763
0.0491  0.325 -0.313
0.0464  0.266 -0.441
0.0464 -0.0165  0.294
0.0491 -0.0593  0.132
0.0438  0.574  0.551
0.0464  0.103 -0.202
-0.0355 -0.162  0.704
0.0464  0.112 -0.458
-0.0896 -0.533 -0.150
0.0464  0.240 -0.193
0.0482 -0.0336 -0.621
0.0464  0.411 0.0804
0.0465  0.556  0.277
0.0180 -0.397 -0.413
0.0147 -0.529  0.688
0.0464 0.0348 -0.253
0.0117 -0.544 -0.604
0.0482 0.0910 -0.691
-0.0355 -0.256  0.380
-0.124 -0.545 -0.510
0.0491 -0.170  0.525
0.0283 -0.487  0.516
0.00457 -0.187 -0.746
0.0384  0.240 -0.694
0.0464  0.437 -0.544
0.0482  0.377  0.474
0.0491  0.325  0.174
0.0464  0.248 -0.339
0.0146 -0.541  0.406
-0.0355 0.00912 -0.757
0.0117  0.614 -0.732
-0.0554 -0.545  0.192
-0.0353  0.334  0.762
-0.0306 -0.399 -0.597
-0.0287  0.428  0.643
-0.0334  0.572 -0.139
-0.0355 -0.316  0.277
0.0464  0.103  0.303
0.0482 0.0433 -0.347
0.0464  0.445  0.542
0.0482  0.334  0.268
0.0491 -0.0251  0.525
-0.0355 -0.222 0.0975
-0.0133 -0.290 -0.441
0.0491  0.471  0.174
0.0491  0.291 0.0291
0.0119  0.266  0.706
0.0491 -0.0507 0.0633
-0.0355 -0.333 -0.313
0.0118 -0.335  0.140
0.0149 -0.542  0.277
0.0490  0.437  0.388
-0.0354 -0.393 -0.159
-0.0133 -0.264  0.542
-0.0355  0.590  0.286
0.0181 -0.384 -0.484
-0.0334 -0.304 -0.792
0.0491 -0.170 0.0291
-0.0355  0.428 -0.723
-0.0403 -0.529  0.533
0.0115 -0.398 -0.283
-0.0354 -0.393  0.542
0.0464  0.513 -0.458
-0.0353 -0.0678 -0.789
-0.0355  0.189  0.756
0.0183  0.368 -0.751
-0.166 -0.545  0.585
0.0491 -0.162 -0.475
0.0464  0.479 -0.0991
0.0482  0.231  0.294
0.0491 0.0176 -0.0991
0.0491  0.462 0.0376
0.0491 0.000554  0.183
-0.107 -0.545  0.628
-0.149 -0.532 -0.441
0.0118  0.103 -0.746
-0.0287  0.572 -0.244
0.0178 -0.398 -0.741
0.0178 -0.342  0.533
0.0166 -0.539 -0.211
0.0114 -0.544 -0.0906
-0.0355 -0.239 -0.578
-0.0355 -0.504  0.602
-0.0123 -0.247  0.157
0.0464  0.496  0.414
0.0491 0.0518  0.405
-0.269 -0.545  0.525
0.0485  0.197  0.200
0.0491 0.0433  0.268
0.0464  0.437  0.320
0.00450 -0.111  0.706
0.0464 0.0433 -0.510
0.0491  0.317 -0.227
-0.00961  0.394  0.702
0.0118 -0.335  0.457
-0.0353  0.471 -0.789
-0.0354 -0.393 0.0633
-0.0354 -0.393  0.183
-0.0354 -0.393  0.756
-0.0355  0.317 -0.749
0.0179 -0.480 -0.461
0.0464 -0.136 -0.236
-0.0122  0.300  0.653
-0.0126 -0.183  0.260
0.0178 -0.350 -0.0393
-0.141 -0.545 -0.0478
0.0309  0.496 -0.699
-0.124 -0.545  0.491
-0.0287  0.206 -0.793
-0.0212  0.283 -0.696
0.0165 -0.337  0.249
-0.0123  0.556 -0.723
0.0375  0.574 -0.363
-0.226 -0.544  0.465
-0.0335  0.612 -0.424
0.0216  0.197  0.645
0.0491  0.163 0.0548
0.0464  0.351 -0.629
0.0491  0.154  0.499
0.0486 -0.0764 -0.527
0.0464  0.231  0.576
-0.0355  0.479  0.739
0.0491  0.420 -0.612
-0.0354  0.607  0.149
0.00450  0.129  0.706
-0.0340 -0.425  0.595
0.0491 0.0604  0.482
-0.0355 -0.359  0.636
-0.0354  0.607  0.696
0.0464 0.0604 -0.0478
0.0464  0.189 -0.227
-0.0355 -0.316  0.354
0.0464  0.103  0.157
-0.0639 -0.533 -0.518
0.0464  0.154 -0.0307
0.0491 -0.119  0.397
0.0491  0.454 -0.0393
0.0491  0.394 -0.407
-0.235 -0.545 -0.535
0.0464 0.0348 -0.578
-0.0355 -0.196  0.756
-0.0133 -0.264  0.645
-0.0355 -0.333 -0.535
0.0491 -0.119  0.593
0.0490  0.379 -0.694
-0.148 -0.544 -0.296
-0.148 -0.544 -0.176
0.00452 -0.186  0.320
-0.0355  0.548  0.747
-0.0355 -0.0165  0.747
0.0491  0.368 -0.0735
0.0464  0.231 -0.604
0.0491 -0.0764 -0.296
0.0464  0.308 -0.544
-0.149 -0.545 -0.569
-0.0355 -0.384 -0.373
-0.0355 -0.316 -0.663
-0.0355 -0.316 -0.168
-0.00405 -0.545 -0.484
0.0491  0.129  0.371
0.0464  0.334  0.516
0.0464  0.172  0.422
0.0464  0.368  0.414
-0.0355 -0.239 -0.467
0.0182  0.606 -0.0307
-0.0355 -0.0935 -0.706
-0.226 -0.545  0.602
-0.0355 -0.0507  0.662
-0.0353  0.576 -0.595
0.0491 -0.0165 -0.364
-0.00644  0.201 -0.701
-0.0355  0.129 -0.775
-0.0355 -0.196 -0.176
-0.0212  0.556  0.643
0.0491  0.539 0.0975
-0.0355 -0.239 -0.244
0.0178 0.0433 -0.783
-0.0334 -0.202 -0.792
0.0178 -0.290  0.722
0.0181 -0.391  0.724
-0.00976 -0.190 -0.0222
0.0178 -0.350 -0.706
0.0181  0.600  0.183
-0.0287  0.274 -0.793
-0.0123 -0.256 -0.347
-0.107 -0.532  0.217
0.0182  0.606 -0.150
0.0283 -0.436  0.559
-0.0353 -0.316  0.762
-0.0211 -0.183 -0.390
0.0164  0.611 -0.641
-0.0126 0.0689  0.643
0.0117  0.594  0.251
0.0390  0.155 -0.698
0.0384 -0.119 -0.694
0.0216 0.000563  0.644
0.00450  0.572  0.593
0.0491  0.266 -0.0649
0.0183  0.257 -0.751
-0.0125 -0.290 -0.219
0.0464  0.120  0.234
-0.0355 -0.384 -0.510
0.0491 -0.0165 -0.202
0.0180 -0.398 -0.628
-0.0355 -0.230 -0.125
0.0446  0.137  0.645
-0.0355  0.317  0.704
-0.0355  0.180  0.696
-0.0355 -0.299 -0.0478
0.0183 -0.395  0.650
-0.0305 -0.397 -0.791
-0.0123 -0.239 0.0206
0.0174 -0.461 -0.527
0.0117  0.614  0.414
0.0491 -0.178 -0.193
0.0163  0.357  0.765
0.0216 -0.184 -0.552
-0.0355 -0.384  0.474
-0.0212 -0.533  0.149
-0.0178 -0.400  0.421
0.00447  0.573  0.499
-0.0554 -0.545  0.482
-0.0355 -0.504 -0.458
0.00448 -0.184 0.0890
0.00451  0.479  0.644
0.00445 -0.545  0.636
-0.0523 -0.538  0.725
0.0117  0.614 -0.501
-0.0355 -0.376  0.251
-0.106 -0.532  0.687
0.0183 -0.395  0.274
0.0216 -0.119  0.643
0.0119 -0.336 -0.407
-0.0123 -0.265 -0.621
0.0464 -0.0593  0.576
0.0464  0.368 0.0462
-0.261 -0.545 -0.467
-0.0128 -0.230  0.499
0.0491 0.0433  0.149
-0.0123 -0.299  0.414
0.0464  0.223 -0.125
0.0464 -0.128  0.491
0.0482  0.257  0.482
-0.0355 -0.230  0.713
0.0491  0.360 -0.356
0.0130 -0.184 -0.347
-0.0338 -0.505 -0.592
0.0165 -0.338 -0.512
-0.0355  0.539 -0.783
0.00450  0.522  0.706
0.0116  0.163  0.766
-0.0355 -0.384  0.354
-0.0355 -0.359  0.123
0.0464  0.420  0.593
0.0491 -0.162 -0.0991
0.0156 -0.535 -0.359
0.0285 0.0173 -0.698
0.00447  0.614 -0.253
0.0482  0.248  0.380
0.0464  0.291 -0.492
0.0491  0.428 -0.236
0.0491  0.488 -0.407
0.0491  0.522  0.149
0.0464 -0.0336 0.0120
-0.0355 -0.341  0.713
0.0464 0.0262  0.542
0.0165 -0.338 -0.299
0.0464 -0.0935 -0.578
-0.0355 -0.367 0.00347
0.0491  0.505 -0.202
0.0387 -0.186  0.576
-0.0355 -0.316 -0.262
-0.0981 -0.545 -0.356
-0.0124 -0.265 -0.732
0.0117  0.614  0.670
-0.0355 -0.205 -0.715
-0.0297 -0.545 -0.279
0.0163  0.611 0.0775
0.0384 -0.182  0.397
-0.0287 -0.492  0.496
0.0117  0.614 -0.390
0.0183 -0.395 0.0601
0.0277 -0.487  0.585
0.00446 -0.184 -0.0735
0.0301 -0.186  0.183
-0.0468 -0.545 0.0975
0.00444  0.454  0.765
-0.0353  0.576 -0.535
-0.0133 -0.265  0.268
-0.00426 -0.0422 -0.744
0.0130  0.394  0.643
-0.0354  0.607  0.337
-0.0355  0.180 -0.740
0.0450 -0.186 -0.262
0.0180 -0.398 -0.209
-0.107 -0.545 0.0462
-0.0126 0.0519  0.766
-0.0355 -0.350 -0.210
0.00446 -0.545 0.0462
0.0178 -0.0507  0.756
0.0181  0.291  0.762
0.0491  0.428 -0.492
0.0491  0.112  0.585
0.0464 -0.0935  0.337
-0.247 -0.536 -0.587
0.0178 -0.307 -0.783
0.0486  0.488  0.491
0.0464 0.000573  0.397
0.0491  0.154  0.311
0.0464  0.513 0.0462
0.0464 -0.111  0.234
0.0464  0.351 -0.125
0.0464  0.513 -0.304
-0.0554 -0.545 -0.0136
0.0464  0.112 -0.150
0.0178 -0.222  0.762
0.0488  0.571  0.327
0.0491 -0.170  0.294
-0.0193 -0.401 -0.326
0.0183 -0.342 0.0120
0.0180 -0.398  0.167
0.0119 0.00911  0.706
-0.136 -0.534 -0.631
0.0162  0.588  0.765
0.0490  0.565 -0.0222
0.0464 0.0604  0.593
-0.0725 -0.533  0.371
0.0165 -0.337  0.197
0.0301  0.573  0.448
0.0491 -0.128 -0.390
0.0164  0.611  0.531
-0.0639 -0.545  0.593
-0.0355 -0.239 -0.527
0.0216  0.572 -0.552
-0.0355 0.0946 -0.732
0.0482  0.154 -0.424
0.0464  0.377  0.294
0.0482  0.129 -0.655
0.0464  0.368  0.115
-0.0355 -0.367 -0.116
0.0491 -0.0422  0.422
0.0181  0.411 -0.789
0.0183 -0.395 -0.684
0.0482  0.325  0.363
0.0464  0.445  0.217
0.0181 -0.397 -0.147
-0.0895 -0.545 -0.202
0.0491 0.0518 0.0548
0.0464  0.394  0.525
-0.0355 -0.359 -0.638
-0.0355 -0.196 -0.270
0.0482  0.154 -0.527
-0.0355 -0.213  0.354
-0.0896 -0.533  0.303
-0.0297 -0.545 -0.552
0.0464  0.129 -0.244
-0.0355 -0.230  0.585
0.0178 -0.350 -0.595
-0.0355 -0.367 -0.749
0.0491  0.445 -0.381
-0.0355 -0.376 -0.287
-0.00403 -0.184 -0.663
-0.00404  0.572 -0.287
-0.0287  0.572 0.0975
0.00451 -0.336  0.593
-0.0287  0.614 0.0120
0.0174 -0.367  0.414
0.00510  0.114 -0.699
0.0464  0.479  0.619
-0.0126  0.614  0.576
-0.147 -0.533  0.380
0.0184  0.573 -0.766
-0.0123 -0.290  0.311
-0.0355  0.599 -0.723
-0.00404  0.572 -0.0564
0.0464  0.291 -0.364
0.0491  0.471 -0.604
0.0491  0.325 -0.450
0.0491  0.351 -0.00510
0.0464 0.0604 -0.133
-0.0128 -0.179  0.662
0.0491  0.214 -0.450
-0.0355 -0.264 -0.0906
0.0491  0.368  0.209
-0.0355 -0.273  0.499
-0.0355 -0.0165  0.696
-0.0123 -0.290 0.0633
0.0464 -0.0507  0.482
-0.0355 -0.316 -0.484
0.0491  0.539 -0.262
-0.0355 -0.350  0.320
-0.0355  0.223  0.722
0.0464  0.197  0.465
-0.0297 -0.545 -0.424
-0.0355 -0.0849  0.713
0.00456  0.513 -0.747
0.0116  0.112 -0.793
0.0163 -0.187 -0.793
0.0184  0.231  0.739
-0.0468 -0.532 -0.108
-0.00404  0.572  0.345
0.0464  0.266 -0.655
0.0181 0.0860  0.730
-0.175 -0.545  0.474
-0.0981 -0.545 -0.253
-0.0355  0.103  0.704
0.0491 -0.170 0.0804
-0.0355  0.556  0.687
0.0491  0.531  0.533
0.0183  0.197 -0.751
0.00448  0.394 -0.697
0.0130 -0.186 -0.296
0.0216 -0.186  0.482
0.0183 -0.395 -0.0510
0.0116 -0.102 -0.793
-0.0355 -0.128  0.747
-0.0212  0.572  0.448
0.0180 -0.342 -0.0991
-0.0355  0.368  0.730
0.0464 -0.0593 -0.185
0.0491 -0.136  0.132
0.0464  0.180 0.0120
0.0491  0.146  0.551
-0.0354 -0.427 -0.526
0.0464 0.0604 -0.467
0.0464  0.488 -0.518
0.0464 0.0861  0.354
0.0464  0.112  0.482
0.0486  0.548  0.593
0.0464  0.180 -0.356
0.0491  0.308  0.132
-0.0355  0.266  0.704
0.0464  0.206  0.115
0.0491  0.385 -0.527
0.0491  0.411 -0.168
-0.0212 -0.545 -0.0478
-0.0335  0.612  0.422
0.0491  0.137 -0.0735
0.0483 0.000573 -0.407
0.0464  0.291  0.397
-0.00406  0.325 -0.697
0.0491  0.411 -0.0564
-0.0355 -0.324  0.551
0.00447  0.614 -0.450
-0.0297 -0.545 -0.629
-0.0355 -0.350 0.0462
-0.0334  0.572 -0.327
-0.00432  0.146 -0.744
-0.0355 -0.213  0.431
-0.0126  0.572 0.0291
-0.0287 -0.184  0.217
0.0464  0.539 -0.407
-0.00408  0.614 -0.347
-0.00405  0.614  0.371
-0.0355 -0.145 -0.749
0.0183 -0.479 -0.568
-0.0981 -0.533  0.414
-0.0353  0.189  0.647
-0.0355 -0.230 -0.757
0.0165 -0.00229 -0.747
-0.0126 -0.533  0.243
0.0300 -0.184 -0.441
0.00450  0.572 -0.475
0.0163  0.596 -0.689
0.0162  0.611 -0.791
-0.0355 -0.230 -0.638
-0.0123 -0.239 -0.0307
0.0163  0.611 0.0262
0.0438  0.574 -0.167
-0.0126 -0.273 -0.561
-0.0334  0.572  0.177
-0.166 -0.545 -0.527
-0.0297 -0.533  0.388
-0.0355  0.351 -0.783
-0.0355 -0.230 -0.304
-0.226 -0.533  0.559
-0.0468 -0.545 -0.176
0.0491 -0.162 -0.646
0.0106 -0.401  0.539
0.0164 -0.541  0.533
-0.0126  0.572 -0.638
-0.0126  0.471 -0.696
0.0490  0.565  0.157
0.0464 -0.128 -0.0307
0.0464  0.274  0.286
0.0464 -0.00798 0.0548
0.0464  0.385 -0.296
-0.0126  0.572 -0.202
0.00448  0.614  0.123
0.0491 -0.0251 -0.262
0.0464 -0.0507  0.174
0.0464 0.00912  0.226
0.0491  0.488  0.226
0.0464 -0.111 -0.125
0.0491  0.471 -0.296
0.0301 -0.186 -0.510
0.0174 -0.0935  0.747
0.0482  0.300  0.602
0.0464  0.223 -0.492
0.0464  0.154  0.183
0.0491 -0.0593  0.277
0.0464 0.0775 -0.244
0.0491 0.000554  0.345
0.0464  0.308 -0.0820
-0.0383 -0.532 -0.330
0.0464 -0.0849 -0.0393
-0.0810 -0.545 -0.407
0.0464  0.266 -0.0136
-0.0126  0.614 -0.604
0.0491 -0.136 -0.347
-0.0355 -0.282  0.234
-0.0123 -0.290  0.166
0.0464  0.214  0.251
0.0482  0.248  0.192
0.0464  0.231 -0.236
-0.0355 -0.222  0.670
0.0464  0.471 -0.142
0.0131  0.572  0.303
0.0163  0.479 -0.793
0.0110 -0.533 -0.262
0.0182 -0.419 -0.510
-0.0123 -0.316  0.653
0.00451 -0.0507 -0.697
-0.0287 -0.0251 -0.793
-0.0287  0.240 -0.696
0.0118 -0.230 -0.746
0.0488  0.199 -0.687
-0.148 -0.544  0.132
-0.0355 -0.359 -0.689
-0.0306 -0.399 -0.435
-0.0123 -0.290 -0.142
0.0384  0.569  0.226
-0.0354 -0.393 -0.552
-0.0126 -0.299 -0.356
0.0482 -0.0336 -0.501
0.0491  0.248 0.0376
0.0386  0.513  0.645
0.0491  0.531 -0.604
0.0464  0.420  0.123
0.0491 -0.0422  0.328
0.0491  0.223 -0.0820
0.0179 -0.333  0.722
-0.0354 -0.189 -0.578
-0.0355 0.00912 -0.715
0.0491  0.274 -0.227
0.0464  0.437  0.277
0.0464  0.394 -0.450
0.0491 -0.0593 -0.433
0.0482  0.146 -0.595
0.0464 0.00912  0.499
0.0482  0.411  0.422
0.0491  0.274 -0.168
0.0482 0.0775 -0.381
0.0174 -0.359 -0.450
-0.124 -0.533 -0.407
-0.0355 -0.333 0.0890
0.0464  0.317  0.311
-0.0355  0.445  0.713
0.0491  0.325 -0.586
-0.0355  0.291  0.739
0.0464 -0.102 -0.262
-0.0123 -0.222  0.192
-0.0355 -0.290 -0.698
0.0482  0.112 -0.415
0.0464 -0.00798 -0.159
0.0482 -0.0507 -0.569
-0.0355 -0.333 -0.0735
0.0482  0.248  0.106
0.0464  0.513 -0.0735
0.0464 0.0775  0.123
-0.0355 -0.333 -0.0222
0.0491 0.0176 -0.0564
0.0464 0.0262 -0.304
0.0488  0.197 -0.527
0.0482  0.488  0.533
0.0488  0.189  0.551
-0.0355 -0.504  0.645
-0.0355 -0.256  0.337
0.0183 -0.395  0.317
-0.0981 -0.533  0.457
0.0116 -0.307  0.766
0.0163 -0.145 -0.793
0.0491  0.317 -0.270
0.0464  0.146 -0.296
-0.0355 -0.102 -0.749
0.0482  0.103 -0.330
-0.0355 -0.324  0.457
0.0464  0.206  0.157
0.0482  0.334  0.474
0.0464  0.428 -0.296
-0.0355 -0.359  0.593
0.0485  0.197  0.320
-0.0355 0.0177  0.722
0.0491 -0.0935 0.0462
-0.0355 -0.205 -0.219
-0.0355  0.154  0.730
0.0482 0.0604 -0.612
-0.107 -0.545 -0.0222
-0.107 -0.545 -0.0735
0.0163  0.266 -0.793
0.0130 -0.186  0.431
0.0384  0.569 -0.125
0.0164  0.611  0.608
-0.0212  0.572 -0.415
0.0184  0.548  0.739
0.00448  0.351  0.643
-0.0212 0.0262 -0.793
-0.0123 -0.230 -0.433
0.0181  0.351 -0.789
0.00451 -0.184  0.371
-0.0355 -0.504 -0.544
0.0482  0.377  0.628
-0.00653  0.517 -0.701
-0.0355 -0.213  0.140
-0.0355 -0.359 -0.586
-0.00429 0.0348 -0.744
0.00509 -0.392  0.766
-0.0335 -0.185  0.516
-0.0354  0.607 -0.0478
-0.00406 -0.119 -0.697
0.0464 -0.0849 -0.672
0.0464  0.539  0.431
0.0491 -0.153  0.200
0.0301 -0.184 -0.00508
-0.00955  0.286 -0.739
0.0131  0.572 -0.330
-0.0354 -0.189 -0.0906
-0.00397  0.402 -0.744
-0.0353  0.103  0.647
-0.0123 -0.239 -0.210
-0.00405 -0.545  0.722
-0.0355  0.437 -0.766
0.0216 0.0433  0.645
-0.0126 -0.273 -0.398
-0.0355 -0.230  0.533
-0.0355  0.368 -0.740
0.0472  0.571 -0.648
0.0183  0.439 -0.699
-0.00961 -0.331 -0.139
0.00447  0.573  0.414
-0.0353  0.445  0.762
-0.0335  0.612 -0.236
-0.0131 0.0347  0.670
0.0491  0.531 -0.527
-0.292 -0.544 -0.492
0.0482  0.214  0.619
0.0130 -0.0422  0.645
0.0130 -0.186  0.226
-0.0355  0.522  0.713
-0.147 -0.533  0.218
0.0174 -0.179  0.730
0.0117  0.614 -0.304
-0.0123 -0.213 0.0633
0.00456 -0.299 -0.746
-0.107 -0.545 0.0975
0.0117  0.594 -0.108
-0.107 -0.545 -0.116
-0.0353  0.576 -0.0991
-0.0123  0.454  0.670
0.00450  0.572  0.542
0.0114 -0.397 -0.784
-0.0354  0.607  0.516
-0.0212  0.614 -0.150
0.0130 -0.505  0.484
0.0131  0.572 0.0719
-0.140 -0.544  0.669
-0.0287 -0.184  0.585
0.0148 -0.542  0.363
0.0184  0.394  0.730
0.0464 -0.145 -0.595
0.0283 -0.506  0.659
0.00448 -0.335 -0.202
-0.00406 -0.533  0.439
-0.0287  0.266  0.643
0.0178 -0.350  0.628
0.0181  0.206 -0.789
-0.0306 -0.399 -0.0841
0.0164  0.611 -0.205
-0.0126 -0.0764  0.643
0.00452 -0.186  0.628
-0.0133 -0.136  0.670
0.0464 0.0775 -0.655
0.0174 -0.539 -0.647
0.0165  0.323 -0.747
0.0472 0.0524 -0.696
0.0438  0.564  0.514
-0.0335 -0.185 0.0804
0.0151 -0.535  0.162
-0.0334 0.0177  0.765
0.0118 -0.447 -0.479
-0.0355 -0.282 -0.757
-0.00961  0.479  0.702
-0.0123 -0.213 -0.510
-0.0123  0.522  0.662
-0.0126 -0.533  0.303
0.0464 -0.0422 -0.398
-0.0123 -0.213 -0.347
0.0464  0.274 -0.578
0.0482 -0.0764 -0.612
-0.0123 -0.222  0.260
0.0184 -0.384 -0.244
0.0491  0.479 -0.475
0.0464  0.539 -0.185
0.0491  0.479  0.380
0.0464  0.394 -0.219
-0.0355 -0.359  0.166
0.0491  0.189 -0.0479
0.0464 -0.0165  0.115
0.0464 0.000573 -0.604
0.0464 -0.102 -0.330
0.0491  0.513  0.286
0.0464  0.471 -0.339
0.0464  0.308  0.209
0.0491  0.120 0.0376
-0.0981 -0.532 -0.535
-0.0355 -0.290 -0.313
-0.0305 -0.456  0.623
-0.0123 -0.299  0.525
-0.0287 -0.359 -0.793
-0.107 -0.532  0.166
0.0464 -0.0935 -0.407
-0.0355 -0.187 -0.749
0.0491 -0.145 -0.441
0.0464  0.154 -0.133
0.0482 0.0689 -0.313
0.0491  0.334 0.0291
-0.0355 -0.273  0.610
0.0491  0.420 0.0291
-0.0355 -0.367 -0.339
0.0464  0.283 -0.407
0.0491  0.531 0.0120
0.0482  0.172 -0.262
-0.235 -0.533 -0.492
-0.149 -0.533 -0.484
0.0131  0.572 -0.253
0.0491 0.0689  0.439
-0.0468 -0.545 -0.586
0.00450  0.572 -0.518
0.0491  0.479 -0.00510
0.0464  0.129 -0.492
-0.0724 -0.545  0.516
0.0464 0.0861 -0.578
0.0216 -0.184 0.0548
0.00448  0.231  0.644
0.0464 -0.0422 -0.0820
0.0491 0.0604 -0.00510
-0.00408 -0.184  0.132
-0.124 -0.533  0.585
0.0464  0.300  0.499
-0.0355 -0.273 -0.663
-0.0355 -0.367  0.439
0.0464 0.0775 -0.168
0.0464  0.137 -0.185
-0.0355  0.146  0.679
-0.158 -0.533  0.533
0.0491  0.360 -0.433
-0.107 -0.545 -0.475
0.0464  0.317 -0.646
0.0464 0.0262 -0.450
0.0491 -0.0251  0.610
0.0464  0.266 0.0719
-0.296 -0.535  0.500
-0.0297 -0.545 0.0206
-0.243 -0.533  0.499
-0.0355 -0.341  0.234
-0.0355 -0.307  0.140
0.0464  0.231 -0.415
-0.0470 -0.533 -0.484
0.0165 -0.338 -0.555
0.00450  0.572  0.209
0.00451 -0.184  0.516
-0.0334  0.576 -0.792
-0.0355 -0.333 -0.766
0.0130  0.573 -0.0129
0.0491  0.548 -0.339
-0.218 -0.545 -0.458
0.0184  0.488  0.739
-0.0355  0.590  0.602
0.0216 -0.153 -0.697
0.0491 -0.178 -0.356
0.0491  0.548 -0.561
-0.0354 -0.189 -0.424
-0.00398 -0.334 -0.475
-0.0981 -0.532 -0.612
0.0490  0.565 -0.467
0.0164 -0.337  0.496
-0.152 -0.539  0.303
0.0130 0.0775 -0.697
0.0163 -0.259  0.765
-0.0468 -0.533  0.226
0.0216 -0.186 -0.629
-0.0123  0.360  0.687
0.0465 -0.170 -0.142
-0.255 -0.534 -0.422
0.0179 -0.350 -0.757
-0.00398 -0.334 -0.364
0.0180 -0.398 -0.320
0.0282 -0.445  0.601
-0.0130 -0.0165  0.662
-0.0287 0.0860 -0.696
-0.0334  0.572  0.502
0.0164  0.611  0.488
0.0450 -0.186  0.328
-0.292 -0.532  0.551
0.0491 0.0262  0.628
-0.00401 -0.335  0.354
0.0181  0.600 -0.586
0.0178 -0.265 -0.757
-0.00965 -0.401  0.609
0.0491 -0.0935 -0.210
0.0491  0.214 -0.321
0.0491  0.223 -0.364
0.0491 0.0946  0.260
0.0464 0.0604 -0.202
-0.0178 -0.400  0.225
0.0464 0.0177  0.311
0.0482  0.351  0.328
0.0165 -0.145  0.708
-0.0138 -0.406 -0.490
0.0491 0.000554 -0.0222
0.0491 -0.0850  0.209
0.0491  0.411 -0.569
0.0491 -0.0165  0.251
0.0130  0.112  0.645
-0.0810 -0.532 0.0205
0.0464 -0.0507 -0.321
-0.0355 -0.359 -0.398
-0.0355 -0.350  0.525
0.0464  0.214 -0.168
-0.209 -0.545 -0.561
-0.0355 -0.282  0.568
0.0464  0.479 -0.663
0.0464  0.334 -0.510
0.0171 -0.398  0.433
0.0491 -0.0593 -0.475
0.0491 -0.145 0.00345
0.0216  0.351 -0.697
-0.0355 0.0775  0.730
-0.0355 -0.264 0.0377
-0.0468 -0.545  0.320
0.0464  0.325  0.576
0.0179  0.129  0.756
0.0491 -0.0764 0.0890
-0.0287 -0.359  0.765
0.0491  0.351  0.149
-0.0355 -0.367  0.209
0.0464  0.513  0.457
0.0491 -0.128  0.320
-0.0355 -0.478  0.576
0.0184  0.420  0.756
0.0464  0.266  0.534
-0.0126 -0.265 0.0890
0.0182 0.0689 -0.757
-0.0123 -0.264 -0.0564
-0.0355 0.0775  0.679
-0.0355 -0.273 -0.0222
-0.0334  0.572  0.254
-0.0355  0.420  0.687
-0.0287  0.154  0.766
0.0464 0.000573 -0.672
-0.00960 -0.331 -0.626
-0.00408  0.223  0.766
0.0215  0.291  0.645
-0.00156 -0.400 -0.383
0.00446  0.614  0.722
-0.00401  0.300  0.705
0.0419  0.531 -0.699
-0.0543 -0.532 -0.661
-0.0124  0.231  0.696
-0.0355  0.582  0.722
0.0181 -0.367 -0.125
-0.0123 -0.316  0.243
-0.0123 -0.247 -0.492
0.0262 -0.533  0.610
-0.0355  0.291  0.679
0.0184 -0.391 -0.584
-0.0211 -0.516  0.675
-0.0126  0.437 -0.793
0.0491  0.103  0.397
0.0131  0.572 -0.663
0.0491  0.539  0.311
0.0464  0.197 0.0462
0.0464 -0.128  0.431
0.0184 -0.376 0.0975
-0.0355 -0.478 -0.510
0.0464  0.539 -0.108
0.0464 -0.0935  0.140
0.0183 0.0433  0.714
0.0464 -0.128 -0.510
0.0491  0.471  0.311
0.0491  0.163  0.388
0.0464  0.351 -0.219
0.0491 0.0946 -0.0307
0.0464 -0.136 -0.0735
0.0464 -0.136 0.0377
0.0491  0.308 -0.00510
0.0464  0.103  0.619
0.0464  0.291  0.166
0.0464  0.402 -0.373
0.0464 -0.136  0.277
0.0491  0.257 -0.484
0.00448  0.163 -0.697
0.0177 -0.538 -0.689
-0.0355 -0.359 -0.168
0.0464  0.129 -0.108
0.0464  0.402  0.380
0.0491  0.505 0.0804
0.0216 -0.186  0.268
-0.0126 -0.205 -0.150
-0.0355 -0.299 -0.407
0.0464  0.548 0.0633
0.0482 0.00910 -0.501
0.0130 -0.186 -0.586
0.0464 -0.0849  0.380
0.0130 -0.186 -0.193
0.0482 0.0518 -0.544
0.0464  0.240  0.345
0.0483 0.0177 -0.373
-0.0355 -0.384 -0.193
0.0464  0.351 -0.287
0.0482  0.411  0.465
0.0464  0.531  0.354
-0.0355  0.394 -0.715
0.0491  0.385 -0.604
-0.0355 -0.350  0.363
-0.0355 -0.299 -0.544
0.0491 0.0262 -0.219
-0.107 -0.533  0.380
0.0491  0.368  0.260
0.0464  0.137 0.0804
0.0464  0.462  0.140
-0.0554 -0.545  0.132
-0.00406  0.172  0.643
0.0491 -0.0165  0.559
0.0486  0.342  0.234
-0.0981 -0.533  0.268
0.0178 -0.359  0.380
0.0491  0.428  0.354
-0.0355 -0.350 -0.492
0.0491  0.291 -0.304
0.0491  0.317 -0.116
0.0491 -0.0850  0.499
-0.0355 -0.213 -0.680
0.0464  0.411  0.559
0.0464  0.223 -0.638
0.0491 -0.136  0.533
0.0464  0.471 -0.552
-0.0355  0.531 -0.732
-0.0355 -0.256 -0.706
0.0464  0.531  0.397
0.0464  0.266  0.439
-0.0639 -0.545 -0.270
0.0464  0.146 -0.347
0.0464 0.0519  0.303
0.0491  0.496 -0.168
-0.0212 -0.545  0.200
0.0464  0.539  0.243
0.0491  0.402 -0.663
-0.0355 -0.247  0.414
-0.0123 -0.239  0.123
-0.0123 -0.290  0.380
-0.201 -0.533 -0.527
0.0464  0.334  0.405
-0.0355 -0.367  0.286
-0.0355  0.385  0.679
-0.0133 -0.256  0.679
0.00446 -0.545 -0.450
-0.0355 0.0604 -0.740
0.0491  0.129  0.268
-0.00959 -0.331  0.391
-0.0355 -0.0507  0.704
-0.0355  0.120  0.739
-0.0554 -0.532 -0.142
0.0464 0.0177 -0.535
-0.0124 -0.324  0.687
-0.0297 -0.545  0.628
0.0482  0.454  0.576
-0.00955  0.465 -0.739
0.0170 -0.538 -0.0564
-0.0355 -0.384  0.722
-0.0126  0.614 -0.698
0.0182  0.606  0.448
0.0384 -0.182 -0.321
0.0109 -0.533 -0.177
0.0174 -0.512 -0.475
-0.0354  0.607 -0.578
-0.0133 -0.256  0.576
-0.183 -0.537 -0.421
0.0119 -0.335 0.0975
-0.0355 -0.282 -0.467
-0.0334  0.548 -0.697
0.0172 -0.538 -0.133
-0.0212 -0.524  0.469
-0.0287 -0.184 -0.356
0.0174 -0.359 -0.381
0.0178 -0.512 -0.578
0.0464 -0.153  0.568
0.0181  0.600  0.568
0.00447  0.573  0.166
-0.0126  0.614  0.192
0.0464 -0.162  0.482
-0.0183 -0.401  0.387
-0.00398 -0.334 -0.672
0.00448 -0.335  0.422
0.0216 -0.0165 -0.697
-0.0354  0.607 -0.390
0.0491 -0.0678  0.610
-0.132 -0.545 -0.142
-0.0123 -0.213  0.405
-0.0355 -0.239 0.0633
-0.00406 -0.442 -0.545
-0.0123 -0.222 -0.0906
-0.151 -0.535  0.346
0.0163 -0.0678 -0.793
0.0174 -0.376  0.679
-0.0355 -0.264 -0.219
0.0407  0.274 -0.699
0.00447 -0.507 -0.436
0.0491  0.437 -0.142
0.0491  0.231 -0.569
0.0491  0.172  0.226
0.0491  0.513 -0.492
0.0491 -0.00800 -0.125
0.0491  0.120  0.200
0.0491  0.479  0.457
0.0464 -0.0593  0.525
0.0109 -0.544  0.329
-0.00428  0.593 -0.227
0.0130 -0.186 -0.381
0.0464 0.0690 -0.279
0.0464  0.180 -0.450
0.00450  0.572  0.380
-0.0123 -0.290  0.448
0.0491  0.445 0.0804
-0.0287 -0.239 -0.793
0.0486  0.445  0.422
-0.0355 -0.393  0.576
-0.0126 -0.290 -0.253
-0.0403 -0.529  0.568
-0.0355 -0.333 -0.116
-0.0355 -0.307  0.628
-0.0355 -0.359  0.559
-0.192 -0.533  0.551
-0.0355  0.496 -0.757
-0.0355  0.129 -0.740
-0.0123 -0.256 -0.142
-0.0355  0.599 -0.629
-0.0355  0.599 -0.757
0.0464  0.180 -0.604
0.0464 -0.136 -0.270
-0.0133 -0.102  0.670
0.0464  0.308  0.243
0.0491 0.0433  0.183
0.0491 -0.153  0.166
0.0491 -0.128 -0.475
0.0182  0.606 -0.0649
0.0491 -0.111 -0.296
-0.0123 -0.290 -0.176
-0.141 -0.545  0.628
0.0116 0.0775 -0.793
-0.0123 -0.290  0.200
-0.0355 -0.196  0.713
0.0450 -0.186 -0.227
0.0464  0.368 0.0804
-0.0355 -0.239  0.628
0.0464  0.462  0.345
-0.0355 -0.273 -0.595
0.0384 -0.182  0.363
0.0491  0.360 -0.398
-0.0334  0.572  0.220
0.0491  0.437 -0.00510
0.0491 -0.0850  0.174
0.0491  0.154  0.345
-0.0355 -0.512 -0.510
0.0464  0.223 0.0120
-0.0126 -0.533 0.0804
0.0491  0.454 -0.0735
0.0491  0.368 -0.0393
0.0464 0.0604  0.542
0.0464 -0.0764 -0.133
-0.00398 -0.335  0.559
0.0464  0.454  0.491
-0.0354 -0.393 0.0975
-0.0133 -0.0678 -0.723
-0.0355 -0.205 -0.00508
0.0491 -0.136  0.628
-0.00154 -0.400 -0.656
-0.0355  0.317 -0.706
0.0303  0.574  0.356
0.0144 -0.0908 -0.699
-0.0155 -0.476 -0.458
-0.0355 -0.495  0.533
-0.0355 -0.384 -0.475
-0.0334  0.572 -0.447
-0.0126 -0.170 -0.793
-0.0123 -0.307 -0.296
-0.0355 -0.264  0.140
-0.0124  0.334 -0.732
0.00445 -0.179  0.766
0.00452  0.594  0.636
0.0420  0.463 -0.699
-0.205 -0.535  0.636
-0.0133  0.120  0.679
-0.0125 -0.316 -0.518
-0.0335  0.612  0.260
0.0481  0.177  0.642
0.0174 -0.367  0.465
-0.0895 -0.545  0.192
-0.0810 -0.545  0.234
-0.00433 -0.0764  0.705
-0.164 -0.543 -0.617
-0.0128 -0.256  0.209
0.0164  0.611  0.214
-0.0724 -0.532 0.0804
-0.0297 -0.545 -0.458
-0.0212 -0.545 -0.356
0.0178 0.0433  0.756
-0.0126 -0.0422  0.766
-0.141 -0.532  0.465
-0.0124  0.582  0.662
-0.0725 -0.533  0.166
0.00446 -0.545 -0.390
-0.252 -0.533  0.585
-0.124 -0.533 -0.339
-0.0725 -0.533  0.645
-0.0306 -0.399 -0.127
-0.0287  0.462  0.643
-0.115 -0.533 -0.279
-0.184 -0.533  0.610
0.0491 -0.178 -0.569
-0.0283 -0.422  0.555
-0.0130 -0.316 -0.698
0.0263 -0.456  0.528
0.0178 0.0946  0.762
-0.0124 -0.324 0.0377
-0.0353 0.0861  0.762
-0.00404  0.572 -0.586
0.00448  0.231 -0.697
-0.0287  0.496  0.766
0.00451  0.548 -0.697
-0.132 -0.533 0.0633
-0.00406 0.0177 -0.697
0.0482  0.266  0.610
-0.00408  0.325  0.766
-0.0355 -0.0507 -0.740
0.0488  0.571  0.422
-0.00404  0.572 -0.125
-0.0126  0.614  0.311
-0.0124 -0.324 -0.561
0.0184 -0.391 -0.448
-0.0124 -0.196  0.448
-0.0287  0.573  0.766
-0.269 -0.533 -0.527
-0.00433 -0.170  0.705
-0.0123 -0.213 -0.381
-0.0287 -0.153  0.766
0.0482  0.125 -0.691
-0.0133 -0.299 -0.629
0.0178 -0.367  0.157
-0.0354  0.607 -0.347
0.0131  0.572 -0.176
0.0216  0.572 -0.629
-0.00399  0.593 0.0548
-0.0355 -0.367 -0.0820
-0.0126 -0.153  0.643
-0.258 -0.542  0.460
0.0491  0.539 -0.646
-0.00430 -0.335 -0.723
-0.0193 -0.401 -0.275
-0.0353  0.576 0.0548
-0.0127 -0.213  0.696
0.0119 -0.336 -0.330
0.0438  0.574 -0.261
0.00447  0.582 -0.793
-0.00960 -0.331 -0.430
0.0180 -0.398 -0.354
0.0300 -0.184 -0.663
-0.0832 -0.541  0.707
0.0174 -0.359 -0.219
-0.00961  0.573  0.702
-0.0119  0.582 -0.688
-0.0334  0.572 -0.276
-0.0287 -0.184  0.345
0.0482 -0.0336 -0.663
-0.0212 -0.545  0.662
-0.00387  0.573 -0.0906
-0.0355 -0.196  0.277
0.0482  0.411  0.628
0.0184 -0.415  0.588
-0.0101  0.197  0.702
-0.0193 -0.401 -0.0271
-0.0126  0.437 -0.696
-0.00401 -0.187  0.192
0.0464  0.548 -0.441
-0.0212  0.572 -0.168
0.0491  0.283 -0.527
0.0464  0.505 -0.125
0.0491 -0.153  0.414
0.0464 -0.128  0.363
0.0464  0.300 -0.202
-0.00961 -0.331 -0.276
0.0464 -0.102  0.106
0.0491  0.248 -0.108
0.0464 0.0177  0.132
0.0490  0.565  0.115
0.0491 0.0433  0.516
0.0464 0.0861  0.568
0.0464  0.479 -0.0564
0.0464 -0.0764  0.303
0.0464  0.223  0.217
0.0464  0.505  0.123
0.0464 -0.145 -0.185
0.0491 -0.111  0.465
0.0464  0.428 -0.407
0.0491  0.454 -0.518
0.0464  0.146 0.0206
0.0464 0.0690 0.0291
0.00451 -0.186 -0.484
0.0491 -0.0678 -0.0649
0.0490  0.565 -0.535
-0.0354 -0.393 0.0206
0.0464  0.154 -0.629
0.0464  0.471 -0.210
0.0491  0.240 -0.287
0.0464 -0.0507 -0.279
0.0464 0.0348  0.465
0.0464  0.377 0.0120
0.0384 -0.0251  0.640
0.0488  0.189  0.499
0.0184 -0.384 -0.0222
0.0464  0.206 -0.270
0.0464  0.154  0.448
-0.124 -0.545 -0.586
0.0464  0.266  0.576
-0.0355  0.300 -0.775
0.0464  0.291 -0.253
-0.0355  0.223 -0.766
-0.0355 -0.307  0.722
0.0491  0.496  0.192
-0.0355 -0.247  0.739
0.0464  0.137 -0.552
0.0464  0.197  0.593
0.0464  0.291  0.465
0.0482  0.257  0.320
0.0491 0.0176  0.422
0.00450  0.572  0.465
0.0490 -0.0251 -0.424
0.0464 0.0861 -0.484
-0.0355 -0.222 0.0377
0.0491  0.402  0.311
0.0491 -0.111 -0.433
0.0491  0.548  0.183
0.0464 0.0177 -0.142
0.0491  0.283 -0.0393
0.0482 0.0860 -0.433
-0.0125 -0.265 0.00346
0.0491  0.394 -0.0906
0.0464 0.000573 -0.279
0.0491 0.0689  0.380
-0.0123 -0.247 -0.108
0.0464 -0.0165 -0.578
0.0464  0.120  0.132
-0.0383 -0.545  0.696
-0.0126 -0.545 -0.578
0.0464  0.146 -0.467
0.0491 -0.0678 0.0291
0.0464 0.0861  0.183
-0.00405 0.000563 -0.793
0.0216 -0.184 -0.0478
-0.0126 -0.273 -0.793
-0.0130 -0.273  0.474
0.0482  0.531  0.619
-0.0810 -0.545 -0.0906
-0.0895 -0.545 -0.0478
-0.0126 -0.205 -0.116
-0.00406 -0.184 0.0120
-0.0123 -0.316 -0.236
0.00163 -0.484  0.647
-0.124 -0.533 -0.210
-0.124 -0.532  0.525
0.0491  0.522 -0.381
0.0464  0.214  0.405
0.0491  0.385 -0.339
0.0491  0.402 -0.270
0.0464  0.137  0.157
0.0491  0.513 -0.424
0.0464 -0.111 -0.604
0.0464  0.189  0.286
-0.0355 -0.273  0.722
0.0277 -0.504  0.559
-0.00403 -0.184 -0.535
-0.00961  0.428  0.702
-0.0354 -0.189 -0.0393
0.00451  0.266  0.644
0.0482  0.146 -0.219
-0.0355 0.0433  0.739
0.0464 0.0519  0.106
0.0491  0.308 0.0548
0.0464 0.0775 -0.518
0.0174 -0.504 -0.510
0.0464 0.0348  0.576
-0.175 -0.532 -0.458
0.0482  0.351  0.610
-0.0355  0.420  0.730
0.0464  0.454 -0.646
0.0464  0.462  0.243
0.0491  0.454 -0.253
0.0464  0.402  0.277
-0.0355 -0.367  0.499
-0.0895 -0.532  0.576
0.0464  0.137 -0.398
0.0491  0.428 -0.0906
-0.00405 -0.545 -0.330
-0.0126  0.572  0.568
0.0300  0.572  0.610
-0.124 -0.533 -0.552
-0.0126  0.137 -0.793
0.0464  0.231  0.132
-0.0355 -0.333  0.610
-0.0123 -0.256 -0.450
0.0491 -0.0935  0.576
0.0184  0.137 -0.766
-0.0212 -0.184 -0.202
-0.0353  0.576 -0.0478
0.0300  0.572  0.482
-0.00405  0.614 -0.663
0.0164  0.611 -0.538
0.0181 -0.0165  0.722
0.0464 -0.153  0.602
-0.124 -0.532  0.311
-0.00973  0.200 -0.739
0.0117  0.594 -0.364
-0.0355 -0.376  0.388
0.0178 -0.367  0.243
-0.0123 -0.205  0.303
0.0178 -0.359 -0.0735
0.0181 -0.0678 -0.757
0.0179 -0.359  0.286
0.0184  0.283  0.730
-0.00406 0.0262  0.643
-0.0126  0.368 -0.793
-0.0354  0.607 -0.125
-0.0212 -0.545  0.516
0.0182 -0.537 -0.561
0.0117 -0.544 -0.510
-0.0355  0.317  0.662
-0.0123 -0.307 0.0975
-0.00959 -0.331  0.280
-0.0123 -0.230 -0.544
-0.0123 -0.222 -0.698
-0.0355 -0.264 -0.364
-0.0355 -0.299  0.328
-0.0355 -0.282 -0.193
-0.0123 -0.222 -0.586
-0.0355 -0.333  0.670
0.0178 -0.367 -0.304
-0.0355 -0.307  0.397
-0.0123  0.325  0.687
-0.0355 -0.282  0.422
-0.0123 -0.290  0.619
-0.0123 -0.213  0.525
-0.0123 -0.213  0.576
-0.0123  0.377  0.662
-0.0355  0.590  0.645
0.0464  0.360 -0.672
-0.0124 -0.324  0.183
-0.151 -0.535 -0.0215
-0.0126 -0.205 -0.287
-0.00991  0.589  0.140
-0.0126  0.614 -0.518
-0.0126 -0.213 -0.185
-0.0355 -0.264 -0.415
-0.0126 -0.290  0.766
-0.0126 -0.545 -0.210
-0.0287  0.614 -0.467
-0.0355 -0.333 -0.612
-0.0554 -0.532 -0.296
-0.0126 0.0946 -0.793
-0.0355 -0.222  0.482
-0.0126  0.531  0.766
0.0450 -0.186 -0.116
-0.0353  0.377  0.762
-0.0639 -0.545  0.559
-0.107 -0.533 -0.313
-0.0810 -0.545  0.328
-0.0896 -0.533 -0.381
-0.175 -0.533 -0.561
-0.261 -0.545 -0.501
-0.201 -0.545  0.491
-0.0725 -0.533 -0.244
-0.115 -0.533 0.0205
-0.0810 -0.533  0.491
-0.124 -0.545  0.405
0.0450 -0.186  0.209
-0.0130  0.172  0.679
-0.0130 -0.247  0.320
-0.0130 -0.299 -0.475
-0.00947  0.576 -0.387
-0.166 -0.545  0.508
-0.115 -0.545 -0.185
-0.0335  0.612  0.371
-0.0130  0.120 -0.723
-0.0130  0.172 -0.723
-0.0133 -0.128 -0.723
-0.286 -0.533 -0.458
-0.0123 -0.213 -0.458
0.0102  0.564  0.638
-0.0355 -0.213 -0.552
-0.00955  0.431 -0.739
-0.0355 0.0433  0.653
-0.0355 -0.128  0.687
-0.0355 -0.247  0.260
-0.0133 -0.299 -0.578
0.0466  0.408 -0.698
-0.00403 -0.334 -0.00508
0.00450  0.572  0.268
-0.0383 -0.545  0.457
0.0150 -0.542  0.243
-0.0355 -0.282  0.277
-0.0212  0.614  0.739
-0.151 -0.535 -0.398
0.0301 -0.184  0.542
0.0174 -0.205 -0.766
0.0143 -0.400 -0.537
-0.00403 -0.334 -0.0820
-0.00410  0.614 -0.0478
0.0284 -0.480  0.635
-0.0119 -0.520 -0.604
0.0216 -0.184  0.115
0.0174 -0.136  0.739
-0.0125 -0.205 -0.0479
-0.0287  0.572  0.363
-0.00150 -0.399  0.296
-0.152 -0.542 -0.267
0.00452  0.594 -0.621
-0.0334  0.157  0.644
-0.0212 -0.00798 -0.696
-0.0355 -0.307 0.0633
-0.0123 -0.316 -0.0478
-0.0123 -0.222  0.226
-0.0134 -0.170 -0.732
-0.0355 -0.239 0.00347
-0.0126  0.488 -0.793
-0.0123 -0.230 -0.321
-0.0123 -0.213  0.337
-0.0355 -0.290  0.183
-0.0355 -0.264 -0.492
-0.0123 -0.205  0.645
-0.00988  0.589 -0.450
0.00447  0.614  0.762
-0.0353  0.154 -0.789
0.00449 -0.436  0.543
-0.0355  0.599  0.559
-0.0355  0.599 -0.262
-0.0355 -0.341 -0.424
-0.00644  0.355 -0.701
-0.00401 -0.282  0.705
-0.0724 -0.545 -0.612
-0.0126 -0.545  0.414
-0.00399  0.593 0.0120
-0.0212  0.614  0.397
-0.0554 -0.532 -0.424
0.0165  0.154  0.708
-0.00429  0.593  0.525
-0.0297 -0.532 -0.253
-0.0355 -0.111 -0.783
-0.252 -0.545  0.559
-0.0724 -0.545  0.457
-0.0468 -0.533  0.345
-0.0297 -0.533  0.268
-0.00405  0.189 -0.793
-0.0287 -0.0678 -0.697
-0.0335 -0.185  0.431
0.0163 -0.222 -0.793
0.0375  0.574 0.0904
-0.00154 -0.400 -0.118
-0.0209 -0.401 -0.765
-0.0355 0.0348  0.687
0.0386  0.471  0.645
-0.00338 -0.490 -0.582
-0.00428  0.593 -0.185
-0.0724 -0.545 -0.484
0.0384  0.569 0.00348
-0.00406 -0.184 -0.168
0.00446 -0.545 -0.0307
-0.0264 -0.179 -0.689
-0.107 -0.545  0.662
-0.147 -0.533 -0.0728
-0.0123 -0.205  0.482
-0.0355 -0.153  0.670
-0.0133 -0.290 -0.663
0.0184  0.163  0.739
-0.0134 0.0775 -0.732
-0.0355 -0.376 -0.244
0.0490  0.337 -0.694
0.0464 -0.162  0.380
-0.00955 -0.210 -0.739
0.0216  0.572 -0.0393
0.0165  0.377  0.708
0.0181 -0.391  0.399
0.0181 0.0262 -0.757
-0.0309 -0.398  0.156
0.0119  0.214  0.706
0.00456  0.583 -0.744
0.0484 -0.183 -0.296
-0.00959 -0.331  0.630
-0.0287  0.614  0.123
-0.000703 -0.399  0.254
-0.0129  0.582  0.619
0.0184 -0.391 -0.174
0.0455  0.574  0.298
0.0491  0.146  0.619
-0.0126 -0.184 -0.262
-0.0355 -0.196 -0.467
-0.124 -0.545  0.149
-0.0355  0.120 -0.706
-0.0126 -0.531  0.696
-0.0355 -0.0593  0.756
0.0184  0.351  0.739
-0.00990  0.589 -0.715
-0.0639 -0.532 -0.210
-0.0102  0.589  0.482
-0.0102 -0.00799  0.702
0.0490  0.565 -0.398
0.0165  0.288 -0.747
0.0464 -0.162  0.106
-0.00988  0.589 -0.552
0.0464  0.445  0.183
0.0491  0.317 -0.356
0.0491  0.154  0.115
0.0464  0.351  0.183
0.0491 -0.0165  0.217
0.0464 0.0946  0.217
0.0464  0.172 0.0804
0.0491  0.283 -0.0906
0.0491 0.0775  0.328
0.0464 0.0604  0.234
0.0491 0.0518 -0.0735
0.0491 0.0689  0.619
0.0464  0.360 -0.535
0.0464  0.206 -0.552
0.0464  0.420 -0.467
0.0464  0.300 0.0975
0.0491  0.385 -0.475
0.0464  0.420 -0.518
0.0491 -0.0507 -0.0393
0.0464 -0.128  0.209
0.0491  0.146  0.414
0.0491 -0.136  0.243
0.0491 -0.162 -0.244
0.0464 -0.0251  0.363
0.0464  0.385  0.183
0.0464  0.351 -0.595
0.0464 -0.111 -0.552
0.0464  0.513 -0.270
0.0464  0.351 -0.321
0.0491  0.325 -0.484
0.0491  0.513 -0.663
0.0464 -0.0251 -0.227
0.0464  0.394 -0.629
0.0491  0.266 -0.373
0.0491  0.283 -0.339
0.0491  0.565  0.251
0.0491 0.0347  0.217
-0.0354 -0.393  0.610
-0.0981 -0.532 -0.424
0.0491 0.0176 0.0462
0.0488  0.197 -0.202
0.0464 -0.00798 -0.0906
0.0491 -0.0251  0.166
0.0464 0.0262 0.0719
-0.00154 -0.400 -0.255
0.0491 0.0775  0.294
0.0464 -0.0251  0.448
0.0491 -0.145 0.0633
0.0181 -0.397  0.511
0.0482  0.274  0.363
-0.0297 -0.545 -0.390
0.0301 -0.186 -0.0820
0.0491 -0.0507 -0.364
-0.00401 -0.187 0.0633
0.0482 0.0433 -0.390
0.00447  0.573  0.106
-0.0354 -0.189  0.371
-0.0335  0.612  0.482
0.00451  0.420  0.644
0.0482  0.283  0.200
0.0464  0.368  0.448
0.0464  0.223  0.371
0.0464  0.223  0.183
0.0482  0.394  0.585
0.0482  0.300  0.533
0.0464  0.223  0.491
0.0482  0.334  0.551
0.0482  0.360  0.525
0.0464 -0.0507  0.106
0.0464  0.368 -0.150
0.0491  0.377 -0.116
0.0491  0.240 -0.663
0.0491  0.445 -0.569
0.0464  0.471  0.431
0.0130 -0.186 -0.253
-0.152 -0.542  0.246
0.0105 -0.543  0.662
0.0491 -0.153 -0.501
-0.0355 -0.359 -0.544
0.0482  0.479  0.585
0.0491 -0.162 -0.535
-0.0355 -0.264 -0.638
-0.0355 -0.0935  0.739
0.0464  0.266 -0.604
-0.0355 -0.299  0.653
-0.0123 -0.307  0.499
0.0130  0.573  0.234
0.0464  0.189 -0.116
0.0130 -0.184  0.568
-0.00403 -0.334 -0.176
0.0464  0.154 -0.663
-0.0123 -0.273 -0.116
-0.0123 -0.256 0.0633
-0.0810 -0.532  0.619
-0.0126  0.614 -0.373
0.0131 -0.184  0.345
-0.0724 -0.545 -0.330
-0.0123 -0.213 0.0120
-0.0355 -0.316 0.0206
0.0482  0.103 -0.236
0.0464  0.180 -0.0222
-0.00384  0.325  0.645
0.0482 -0.0422 -0.595
0.0464 0.0861  0.508
0.0464 -0.0251 0.0890
0.0464 -0.0507 -0.210
0.0491 0.00910  0.157
0.0464 -0.0251 -0.330
-0.0297 -0.545  0.174
0.0491  0.342 -0.0820
0.0464 0.0177 -0.475
0.0216  0.163  0.643
-0.0554 -0.533  0.397
-0.0211 -0.533 -0.125
-0.0133 -0.307 -0.723
0.0174 -0.376  0.183
0.0216 -0.186 0.0205
-0.0355 -0.341 -0.0478
-0.0355  0.325  0.730
-0.0355  0.257  0.730
-0.0355 -0.333 -0.356
0.0464  0.257  0.414
0.0491  0.334  0.123
-0.0126 -0.213 -0.262
0.0464  0.351 -0.458
-0.0355  0.257  0.670
-0.0355  0.206  0.687
0.0491 -0.102 -0.381
0.0491  0.377  0.234
-0.0123 -0.213  0.166
-0.0355  0.556 -0.740
-0.0355 -0.247  0.491
-0.0123 -0.282 -0.0906
-0.0355  0.189 -0.766
-0.0355 -0.341 -0.236
0.0174 -0.367 -0.424
-0.0355 -0.316  0.166
0.0491  0.420 -0.210
0.0174 -0.367  0.704
0.0464  0.496 -0.330
-0.0355 -0.350 -0.663
0.0464 -0.136 -0.621
-0.0123 -0.247 -0.373
0.0482  0.300  0.371
-0.0123 -0.290  0.251
-0.0355 -0.282 -0.339
-0.0123 -0.316  0.320
-0.149 -0.533  0.559
-0.0355  0.189  0.722
0.0491  0.454 -0.415
0.0491  0.505  0.388
-0.0355 -0.333  0.576
0.0491  0.334 -0.168
0.0491  0.479 -0.629
-0.0355  0.488  0.653
0.0482  0.248  0.508
0.0464  0.291 -0.663
0.0184  0.522  0.730
-0.0126  0.614 -0.407
-0.00404  0.614 0.0975
0.0491  0.129  0.508
-0.124 -0.545  0.251
-0.115 -0.545  0.431
0.00451 -0.184  0.405
-0.0554 -0.545 -0.561
-0.0297 -0.545  0.491
0.0464 0.0861 -0.125
-0.0639 -0.533  0.294
-0.0355 -0.290 -0.0735
-0.0981 -0.545  0.525
0.0464 -0.0593 0.00347
0.0491  0.120 -0.0393
0.0491  0.112 0.0633
0.0491 0.0775 0.0633
0.0491  0.103 -0.0735
0.0491 0.0176  0.277
-0.0383 -0.533 0.0719
0.0491 0.0689  0.157
-0.0355 0.0348 -0.749
-0.0297 -0.533  0.115
-0.0126 -0.282 0.0376
0.0216  0.572 -0.279
0.0482  0.103 -0.646
0.0491  0.471 0.0633
0.0491  0.437 0.0548
0.0491 -0.0336  0.140
0.0482 0.0775 -0.552
0.0464 0.0861  0.474
-0.0383 -0.545  0.602
0.0464  0.120  0.542
-0.00405 -0.545 -0.544
0.00446 -0.184 -0.108
0.00449 -0.184 -0.321
0.0301 -0.0935  0.644
-0.0355 -0.247 0.0890
0.0464 -0.0764  0.474
0.0482  0.419  0.533
0.0482  0.154 -0.321
0.0464 0.0946 -0.356
0.0482  0.240  0.602
-0.00988  0.589 -0.492
-0.0355  0.599 -0.0820
0.0464  0.154 -0.0991
0.0216 -0.184 -0.159
-0.141 -0.533 -0.527
-0.0334  0.488 -0.697
-0.0383 -0.533 -0.0307
0.0301 -0.186 -0.475
0.0491  0.257 -0.133
-0.0133 -0.256  0.508
0.0174 -0.359  0.576
-0.0123  0.257  0.687
0.0483  0.283  0.140
-0.0355 -0.273 -0.244
0.0464  0.402  0.345
0.0491  0.428 -0.0307
0.0464  0.343 0.0548
0.0178 -0.0422  0.730
0.0482 -0.0422 -0.527
-0.00408  0.614 -0.279
0.0181 -0.0850  0.722
0.0491 0.0433  0.431
-0.00406 -0.533  0.183
0.0464  0.129  0.106
0.0179  0.137  0.730
-0.0130 -0.265  0.183
-0.0126 0.000563  0.766
-0.0355  0.214  0.747
-0.0355 -0.359 -0.723
-0.0355 -0.0764  0.687
0.0464  0.385 -0.193
-0.0355 -0.341  0.294
0.0464  0.291 -0.432
0.0464  0.445  0.115
0.0464  0.189 -0.330
0.0491 -0.119 -0.202
-0.0355 -0.350 -0.279
-0.0355 -0.205  0.251
0.0491  0.445 -0.347
-0.269 -0.533  0.491
-0.0355  0.505 -0.783
-0.0554 -0.533 -0.629
-0.00385 -0.128  0.645
0.0215 0.0433 -0.697
