ply
format ascii 1.0
element vertex 2048
property float x
property float y
property float z
end_header
 0.390  0.172 -0.0189
-0.461 -0.861  0.216
-0.460  0.851  0.221
 0.445 -0.826 -0.226
-0.461 -0.0631 -0.217
 0.146  0.848 -0.226
0.0793 -0.404  0.224
-0.108  0.381  0.216
-0.447  0.511 -0.226
 0.429  0.681  0.226
-0.108 -0.861 -0.226
 0.450 -0.308 -0.216
-0.459 -0.336  0.222
 0.240 -0.865  0.221
0.00667 -0.120 -0.160
-0.461 -0.553 -0.207
0.0236  0.403 -0.223
-0.0141  0.822  0.225
-0.455  0.106  0.225
 0.450 -0.186  0.207
 0.450  0.558 -0.217
0.0989 0.00541  0.216
-0.240  0.851 -0.122
0.00667 -0.496 -0.188
 0.390 -0.543 0.0753
-0.461  0.483  0.216
-0.108 -0.866  0.132
 0.250  0.389  0.225
 0.438  0.852 -0.0565
-0.429 -0.866 -0.113
-0.250 -0.395 -0.0283
-0.231 -0.0190 0.0376
-0.400  0.229 -0.0942
-0.0171  0.643 -0.0283
 0.174 -0.866 -0.0848
0.00700  0.210 -4.72e-05
 0.297 -0.0138 -0.226
-0.400 -0.590  0.122
-0.461  0.709 -0.0189
-0.0171 -0.609 0.0659
 0.450  0.455 0.0376
 0.450 -0.845 0.0471
-0.193  0.404 -0.0566
 0.202  0.791 0.0659
 0.212 -0.395 -0.0565
-0.184 -0.411  0.225
-0.461 -0.157 0.0282
 0.390 -0.572 -0.198
 0.449 0.0939  0.223
-0.0171 -0.204 0.0847
 0.193  0.404 -0.0283
 0.450 -0.0913 -0.0283
-0.202 0.00516 -0.207
 0.445  0.314 -0.226
-0.459 -0.305 -0.223
 0.212 0.00516 -4.82e-05
-0.231  0.852  0.122
-0.00473  0.135 -0.226
-0.447  0.813 -0.226
0.00657  0.593  0.222
 0.450 -0.317 0.00938
 0.303 -0.397  0.222
 0.419 -0.713  0.225
-0.400  0.493 -0.00944
-0.231 -0.805 -0.0377
-0.461 -0.412 0.0188
-0.400  0.304  0.113
-0.0235  0.851 -0.0754
-0.00473  0.191  0.225
 0.450  0.323  0.207
-0.461 0.0594 0.0188
-0.118 -0.0189  0.216
-0.419 -0.101  0.226
-0.0332 -0.394 -1.83e-05
0.00667 -0.713 -0.113
 0.390  0.653 0.0188
0.00230  0.700 -0.226
-0.193 -0.410 -0.226
0.00667  0.464 0.0659
 0.322  0.852  0.222
-0.0225 0.0131 -4.12e-05
 0.390  0.747 -0.217
 0.240  0.381 -0.216
 0.297 -0.0190  0.179
-0.400  0.662  0.160
0.0800 -0.866 0.0847
-0.287  0.397 -0.225
 0.450  0.106 -0.188
-0.461 -0.704 -0.0189
 0.450 -0.675 -0.0471
-0.0159 -0.295 -0.223
-0.00473 -0.741  0.225
 0.449 -0.120 -0.223
 0.297 -0.411 -0.226
-0.259 -0.816  0.225
-0.297 -0.810 -0.226
 0.410  0.502  0.226
-0.287  0.390  0.225
-0.372 -0.866 0.0565
0.0706  0.381  0.207
 0.268 -0.826 -0.226
 0.127 0.00483 -0.198
-0.400 0.0970 -0.216
-0.459 -0.738 -0.223
0.0801 -0.845 -0.226
-0.372  0.851 0.00940
-0.325 -0.419  0.132
-0.00477 -0.553  0.225
-0.344 -0.0190 -0.104
 0.450  0.803  0.104
-0.108  0.848 -0.226
 0.268  0.851 -0.0754
-0.0801  0.791 0.0753
-0.0612 -0.866 -0.0660
 0.155  0.848  0.225
-0.438  0.323 -0.226
-0.400 -0.280 -0.0659
 0.344 -0.866 -0.0848
 0.445 -0.478  0.225
-0.278 0.00483  0.198
-0.400 -0.553 -0.0565
-0.353 -0.419 -0.179
 0.390  0.333 -0.0754
 0.450 -0.449 -0.113
 0.250 -0.866 0.0565
 0.137 -0.411 -0.226
-0.0171  0.540 -0.151
-0.400  0.662 -0.207
-0.447 -0.704  0.225
-0.0171 -0.251 -0.0660
-0.0195  0.371 -0.0754
 0.400 -0.866  0.198
 0.165 -0.419 0.0941
 0.450 -0.0254  0.113
-0.0119 -0.270  0.225
-0.133  0.384 -0.223
-0.202  0.381 0.0942
0.00725 -0.120  0.216
 0.315  0.404 0.0847
-0.461  0.361 -0.0565
 0.353 0.00483 -0.0848
 0.450 -0.346  0.160
-0.0171 0.0782  0.132
0.0706  0.851 0.0377
 0.316 -0.395 0.0471
-0.419 -0.478  0.225
-0.400 -0.233  0.141
-0.0612 -0.395  0.141
-0.0171  0.323 0.0847
 0.390  0.530 -0.0659
 0.390 -0.195 0.0471
 0.450  0.276 0.0565
0.00667 -0.751 0.0470
 0.287  0.851 -0.223
-0.137 -0.0190 -0.0848
0.00667  0.267 -0.179
-0.461  0.587 -0.0942
0.00667  0.681  0.113
 0.450 -0.214 -0.113
-0.334  0.791  0.207
-0.0171 -0.534 -0.0566
-0.461  0.775  0.104
-0.155  0.792  0.222
-0.325  0.381 0.0188
-0.212  0.791 -4.42e-05
0.0989 -0.0190 0.0753
-0.461  0.210 0.0282
 0.108 -0.826  0.225
 0.450 -0.713 0.0847
0.00230 -0.628 -0.226
 0.325  0.851 0.0753
-0.461 -0.176 -0.132
-0.118 -0.394 -0.113
-0.363 -0.0190 0.0941
 0.390  0.436 -0.207
0.0801 -0.395 -0.104
0.00667  0.106 -0.0942
 0.390 -0.704 -0.170
-0.0235 -0.00656 -0.226
 0.390  0.191  0.141
 0.127  0.381 -0.141
 0.450  0.596  0.122
-0.455  0.351  0.225
-0.316  0.803 -0.226
0.0894  0.791 -0.104
-0.400  0.540  0.113
 0.390  0.219 -0.141
-0.461 -0.770 0.0941
-0.184 -0.395 0.0847
-0.461 -0.0631 -0.0660
-0.400 -0.666 -0.132
 0.451 0.0594 -4.42e-05
-0.397  0.783 -0.104
-0.411  0.228  0.224
-0.353  0.404 -0.113
 0.334 -0.395 -0.104
 0.174  0.404  0.122
-0.0171 -0.0725 0.0941
 0.390 -0.590  0.207
-0.461 -0.459 -0.122
 0.449  0.851  0.221
 0.334 -0.0190 0.0376
 0.108 -0.0190 -0.0754
 0.450 -0.798 -0.0754
 0.402 -0.0717  0.224
 0.390  0.672 -0.104
 0.231 0.00483 -0.122
 0.445  0.852 -0.180
-0.400  0.144  0.113
-0.334 -0.0136 -0.226
 0.390 -0.572 -0.0754
-0.259 -0.805  0.104
-0.118 0.00483 0.0753
 0.450 -0.449 0.0282
-0.0707 -0.403 -0.226
-0.0989  0.404 0.0376
0.0895  0.381 0.0282
-0.193 -0.805 -0.151
0.0141  0.851 -0.188
-0.461 -0.299 0.0565
0.00230 -0.751 -0.226
0.00667  0.756 -4.42e-05
 0.419 -0.430 -0.226
 0.450 -0.0254 -0.151
0.0800 -0.805 -0.0283
 0.451  0.436 -0.104
-0.400 0.0970 -0.0754
-0.461  0.464 -0.113
-0.461 0.00285  0.170
-0.0171  0.483  0.188
 0.184 -0.805  0.132
0.00667 -0.487  0.122
0.0989  0.791  0.141
-0.400 -0.861 -0.226
 0.344 -0.805 0.0282
-0.0171  0.577 0.0659
-0.461  0.615 0.0471
-0.325 -0.866 -0.0660
 0.306 -0.805  0.151
 0.278  0.405 -0.104
0.00468 -0.866  0.170
-0.127  0.791 -0.0754
 0.450 -0.327 -0.104
-0.00477  0.709  0.225
-0.438  0.210 -0.226
-0.353 -0.419 -0.0660
 0.390 -0.120 -0.122
-0.461  0.398  0.122
 0.450  0.747 -0.0189
 0.363  0.791 -0.113
 0.390  0.700  0.122
-0.461 -0.534 0.0471
-0.0171  0.738 -0.122
 0.193 -0.416  0.222
-0.137 -0.809  0.224
 0.390 -0.214 -0.217
 0.363  0.389  0.225
0.00667 -0.327 0.0847
-0.403 -0.204 -0.223
-0.372 -0.805  0.151
 0.202  0.791 -0.141
-0.316  0.791 0.0847
-0.0989 -0.805 0.0188
0.00667  0.502 -0.0377
 0.390 -0.449  0.132
-0.461 -0.421  0.141
-0.461 -0.854 -0.00946
0.00667 -0.0913 -0.00946
 0.390 -0.129  0.132
-0.461 -0.0442 0.0471
0.00471  0.851  0.122
0.0612 -0.866 -0.122
-0.455 -0.412 -0.226
-0.184 -0.866 0.0565
-0.137 -0.419 -0.00945
-0.405  0.573  0.221
-0.400 -0.685 0.0659
-0.334  0.405  0.132
 0.450  0.370  0.104
0.0989 -0.395 -1.93e-05
-0.212  0.822 -0.226
 0.184  0.791 -0.0377
-0.461  0.747  0.207
 0.231  0.791  0.179
 0.390  0.502  0.122
-0.0171  0.323  0.207
 0.202 -0.0138  0.225
-0.0142 -0.866 0.0282
-0.0613 -0.805 -0.151
-0.459 -0.600  0.222
 0.390 0.0594 0.0847
 0.193 0.00483  0.113
0.00667  0.219  0.104
-0.240 -0.0190 -0.0660
-0.259 -0.395 -0.132
-0.461 -0.355 -0.104
 0.390 -0.638 0.0282
0.00667 -0.609 -0.122
0.0330 0.00482 -0.141
-0.253  0.852  0.222
 0.363 -0.805 -0.170
-0.108  0.405 -0.113
-0.0171 -0.666 -0.0189
-0.461 -0.101  0.132
 0.165 -0.805 0.0282
-0.459 -0.214  0.222
0.00667  0.106 0.0282
 0.450 -0.798  0.141
 0.450 -0.251  0.122
 0.390 -0.251 -0.0377
-0.0119 0.0405  0.225
-0.400 -0.769 -0.122
-0.403  0.417 -0.223
-0.461  0.848 -0.0377
-0.0171 -0.666  0.160
-0.297  0.791 -0.0660
-0.0195 -0.384 -0.104
-0.0612  0.404  0.132
 0.450  0.172 0.0659
-0.221  0.404 -0.151
 0.450  0.135 -0.0942
 0.344  0.404 -0.00946
-0.461  0.332 0.0376
 0.450  0.587 -0.122
-0.400  0.851  0.113
0.00667  0.643 -0.132
-0.353 0.00483 -0.00946
-0.297 -0.411  0.225
0.00667  0.446 -0.132
-0.344 -0.865  0.222
-0.400 -0.148 -0.0471
-0.461  0.700 -0.141
-0.400  0.624 -0.0283
-0.400 -0.101 -0.141
-0.0169 -0.195 -0.217
 0.334  0.791 -4.42e-05
 0.184 -0.805 -0.160
-0.0895  0.851 -1.73e-05
 0.259 -0.805 -0.0189
 0.450  0.201  0.216
-0.461  0.219  0.141
 0.450  0.756 -0.141
 0.390 -0.346 0.0847
 0.390  0.653 -0.198
-0.0171  0.248 -0.0848
 0.250 -0.395  0.132
-0.278 -0.866 -0.151
-0.212 -0.861 -0.226
0.0424 -0.397 -0.223
 0.450 -0.619 -0.132
-0.381  0.851 -0.170
 0.387 0.0133 -0.216
-0.372 -0.0189  0.216
 0.400 -0.393  0.225
-0.0989 0.00483 -0.170
 0.334  0.791  0.151
0.0706 -0.419  0.104
-0.372 -0.395 0.0471
 0.221 -0.395 -0.151
0.00643  0.606 -0.223
 0.450  0.351 -4.02e-05
-0.0141 -0.861 -0.226
-0.0119 -0.364  0.225
-0.400 -0.233 0.0282
 0.390 -0.478 -0.0377
-0.400 -0.769 0.00940
 0.445 -0.866 -0.141
-0.461 0.00285 -0.132
-0.0171  0.766  0.151
 0.450  0.558 0.0376
 0.390 -0.628  0.122
-0.400  0.135 0.00940
-0.461  0.436 0.0376
-0.461 -0.666  0.141
 0.445  0.191 -0.225
-0.400 -0.628 -0.216
-0.461  0.295 -0.141
 0.419 -0.270  0.225
 0.451  0.267 -0.0566
 0.381 -0.866  0.104
-0.278 -0.866 0.0376
 0.390  0.304  0.122
-0.400  0.747 0.0377
-0.137  0.851  0.113
-0.461 -0.628 -0.0754
-0.400  0.549 -0.151
0.00725 -0.459  0.216
-0.0171 -0.770 -0.0377
-0.202  0.404  0.198
0.0330 -0.0190  0.160
-0.400 -0.487 0.0942
-0.461  0.163 -0.104
 0.390 -0.101 0.0377
-0.212 -0.866  0.151
 0.450 -0.562 -0.00946
-0.461 -0.214 -0.0471
-0.400 -0.355  0.122
-0.400 -0.280 -0.160
0.0612  0.404 -0.0565
 0.390  0.596  0.188
-0.461 -0.619 0.0188
-0.278  0.851 -1.73e-05
-0.0425 0.00482 -0.0942
 0.390  0.511 -0.160
0.00700 -0.195 -4.82e-05
-0.155  0.851 -0.151
-0.461  0.841 -0.132
 0.155  0.397  0.225
-0.0707  0.791 -0.170
0.0706  0.404  0.122
 0.118  0.852 -0.0471
 0.325  0.381 -0.188
-0.400 -0.487 -0.207
-0.0171  0.314 -0.00946
 0.250 -0.866 -0.151
 0.450  0.116  0.132
0.00667 -0.506 0.0376
-0.0171 -0.167 -0.0848
 0.231 -0.395 0.0282
 0.450 0.00285 -0.0660
-0.400  0.285 -0.0283
 0.450  0.380 -0.170
 0.450 -0.770 -0.160
 0.387 0.0132  0.216
-0.0895 -0.403  0.225
-0.0613 -0.861  0.225
-0.400  0.436  0.179
-0.455  0.653  0.225
0.00667 -0.308 -0.141
 0.118  0.389 -0.226
-0.306 -0.866  0.141
-0.400 -0.562 -0.141
 0.390  0.747 0.0471
-0.0518 -0.0190  0.151
 0.438  0.766  0.226
0.0802  0.796  0.224
 0.390  0.257  0.198
-0.212 -0.866 -0.0942
 0.184  0.851  0.122
-0.455 -0.865 0.0753
 0.390 -0.732 0.0282
 0.390 -0.506 -0.132
-0.461 0.0217 -0.217
-0.461 0.0594  0.104
-0.278 0.00500  0.113
-0.0706  0.851  0.170
-0.0171  0.172 -0.141
-0.0171  0.351 -0.170
-0.459  0.722 -0.223
-0.0171 -0.779  0.151
-0.400 -0.355 -0.0283
-0.0159  0.496 -0.223
0.0235 -0.866 -0.0471
-0.400 -0.478 -0.0189
 0.390 0.0782 -0.0659
-0.155 -0.0190 -4.22e-05
-0.410 -0.779  0.225
-0.268  0.381 -0.0848
-0.0171 -0.195  0.188
 0.450  0.455  0.170
 0.450 -0.506 -0.207
-0.325  0.852  0.151
-0.461  0.389 -0.170
 0.390 -0.148 -0.0377
-0.353  0.851 -0.0754
 0.193 -0.861 -0.226
-0.400 0.0594  0.170
 0.391  0.851  0.151
 0.438  0.852 0.0377
 0.325 -0.845  0.225
-0.231 -0.395  0.160
 0.451 -0.656  0.169
 0.212  0.851 0.00940
 0.450  0.624 -0.0283
-0.400  0.634 -0.122
-0.400 -0.129 0.0847
-0.461  0.700 0.0659
 0.450  0.672 0.0753
-0.400 -0.0725 -2.23e-05
 0.390 -0.261 -0.141
-0.174  0.851 -0.0471
-0.461  0.587 -0.198
 0.450 -0.675 -0.216
-0.0171 -0.0725 -0.0942
-0.0171 -0.270 0.0188
-0.0171 -0.562  0.141
-0.447  0.851 0.0471
-0.461  0.549 -3.92e-05
-0.165  0.791 0.0659
 0.259 0.00483 0.0659
-0.461 -0.204 0.0941
-0.400  0.182 -0.160
 0.450 -0.543  0.179
 0.382  0.406 -0.132
-0.461 -0.299  0.151
 0.363  0.822 -0.226
 0.387  0.377 0.0534
-0.400 -0.732  0.132
 0.250 -0.866  0.141
-0.461  0.606  0.160
-0.259  0.791  0.170
-0.400 -0.157  0.170
-0.146 -0.805 0.0941
-0.316 -0.805 -4.62e-05
-0.202 0.00483  0.170
 0.306  0.404  0.170
0.00667 0.0782 -0.170
 0.390  0.248 0.00940
 0.231  0.791 -0.217
-0.137 -0.866 -0.151
-0.334 -0.805 -0.151
 0.390 0.0782  0.170
0.00667 -0.459 -0.113
 0.306  0.791 -0.170
-0.268 -0.419 0.0753
 0.450 -0.393 -0.0283
 0.400 -0.866 -0.0283
 0.127  0.791 0.0188
 0.259  0.404 0.0282
 0.450 -0.383 -0.170
 0.372 -0.395 -0.00944
-0.0171  0.427 -0.0189
0.0894 -0.805  0.151
-0.268 -0.0190 -0.170
 0.202 -0.0190 -0.207
 0.202  0.404 -0.132
 0.390  0.257 -0.217
 0.394 -0.788  0.222
 0.118 -0.866 0.00937
-0.400  0.229 0.0753
 0.165 -0.866 0.0847
 0.390 -0.751 -0.0942
-0.400 0.0500 -0.151
 0.108  0.851 -0.151
 0.382  0.380  0.141
 0.390 -0.0350 -0.0283
-0.0171  0.615  0.151
-0.397  0.410 0.0785
-0.391  0.380 -0.0283
-0.397  0.783  0.151
-0.461 -0.798  0.170
-0.184  0.791  0.141
-0.118 -0.805 -0.0565
-0.0801 -0.395 0.0659
-0.403 -0.283  0.223
0.00346  0.785 -0.226
 0.155 -0.419 -0.104
-0.461 -0.817 -0.207
0.00667 -0.148  0.132
-0.193 -0.419 -0.0754
0.00667  0.587 -0.0754
 0.450 -0.619 0.0753
 0.353  0.851 -0.0659
-0.461 -0.609 -0.151
-0.461  0.295  0.160
-0.461 -0.543  0.132
-0.400 -0.364 -0.151
0.0211 -0.803 -0.141
-0.400  0.154  0.198
 0.390 -0.788 0.0942
 0.193 -0.866 -0.00946
 0.450 -0.167 0.00938
 0.390  0.135 -0.151
 0.450 -0.393 0.0847
0.0989 -0.805 -0.151
 0.450 0.0311  0.170
 0.390 -0.214  0.151
-0.400 -0.628 -0.0283
-0.202  0.791 -0.151
 0.450 -0.0913  0.160
 0.390 -0.355 -0.207
-0.461 0.0876 -0.122
-0.00476  0.417  0.225
-0.0171 0.0218 0.0753
0.0989  0.791 -0.207
-0.0171  0.144 0.0941
 0.390  0.738 -0.0659
 0.390  0.464 -0.0283
 0.287 0.00483 -0.0471
 0.390  0.125 0.0471
 0.363 -0.0190  0.141
-0.400  0.690 -0.0659
 0.297 -0.805 -0.0848
-0.146 -0.395  0.151
-0.461 0.0499 -0.0565
 0.118 -0.0190 -4.22e-05
-0.174 -0.866 -0.0283
-0.0141  0.852 0.00936
0.0330 -0.0190 -0.0660
-0.400  0.474 -0.160
 0.450  0.276 -0.160
 0.259  0.791 -0.00946
 0.390 -0.270 0.0565
 0.450 -0.694 -0.122
 0.450 -0.176  0.113
-0.461 -0.251 -0.113
-0.0895  0.851 -0.113
-0.461  0.144 0.0659
-0.400 -0.656  0.188
-0.212  0.390 -0.226
-0.268 -0.403 -0.226
 0.325 -0.0190 -0.151
-0.127  0.381 -0.0283
-0.461  0.474  0.122
-0.212  0.791 -0.0754
-0.202 0.00483 -0.132
0.00667 -0.233 -0.141
 0.390  0.502 0.0471
-0.00472 -0.628  0.225
-0.0171 -0.261  0.151
 0.400 -0.0631 -0.226
 0.410 -0.760 -0.226
 0.237  0.852  0.222
-0.0613  0.404 -0.198
0.00667  0.248  0.179
-0.461 -0.685 -0.170
-0.400  0.333 -0.122
-0.108  0.791  0.151
 0.450 -0.751 -0.00946
0.0518  0.851  0.179
0.0612 -0.805 0.0470
 0.325 -0.866 -0.00946
-0.461  0.248 -0.0471
 0.450  0.267  0.141
-0.461  0.125  0.151
-0.461 -0.732 -0.104
 0.390  0.577 -0.00944
0.00667 -0.459 -0.0189
 0.250  0.404  0.122
 0.450  0.549  0.179
-0.240  0.404 -4.12e-05
-0.259  0.381  0.141
-0.400  0.540 -0.0659
-0.400  0.719  0.113
-0.400  0.267 -0.198
-0.334  0.791 -0.141
-0.372  0.384  0.222
0.0237  0.381 0.0659
-0.400  0.737 -0.160
-0.184 -0.0190  0.104
0.0424  0.381 -0.122
0.00932  0.370  0.141
-0.461  0.276 0.0847
0.0424  0.791 0.0659
 0.259  0.851  0.151
-0.400 -0.204 -0.104
 0.450 -0.421  0.160
-0.0798  0.792  0.222
-0.461  0.144 -0.207
-0.391 -0.411  0.225
 0.363  0.852 -0.160
 0.451 -0.487  0.122
 0.451  0.662 -0.160
 0.450 -0.186 -0.188
-0.400  0.577 0.0376
 0.221 -0.397 -0.223
-0.0171  0.163 -0.0566
-0.461 -0.543 -0.0942
-0.0171 -0.129 0.0470
-0.0707 -0.419 -0.0565
0.00667 -0.327 -0.0189
 0.137  0.381 -0.0659
 0.450  0.135 -0.00944
-0.108 -0.866 0.0565
 0.450  0.210 -0.104
 0.390 -0.308  0.170
 0.450  0.474 -0.198
-0.400 -0.581 0.0282
 0.212 -0.805 -0.0754
 0.137 -0.805 -0.0754
 0.137 -0.866  0.151
-0.400 0.0500 0.0659
 0.450  0.493 -0.0566
-0.461 -0.148 -0.198
-0.165  0.851  0.179
-0.0236 -0.866  0.104
 0.450 -0.233 0.0376
 0.268  0.791 0.0941
-0.461 -0.280 -0.0189
-0.400 -0.866  0.122
 0.146 -0.866 -0.151
 0.390  0.634 0.0942
 0.450 -0.515 -0.0848
-0.174 -0.805  0.160
 0.450  0.210 -0.00946
 0.155  0.851 0.0565
 0.390 -0.722  0.160
-0.137  0.791 -4.42e-05
-0.400  0.333  0.179
 0.450  0.738  0.132
 0.221  0.851 -0.179
-0.461  0.775 -0.160
 0.390 -0.355 -0.0659
 0.451  0.370 -0.0754
-0.202 -0.865  0.221
-0.372  0.791 -0.0283
 0.250 -0.805  0.104
-0.400  0.464 -0.0754
-0.400  0.662 0.0659
 0.372  0.791  0.216
0.0149 -0.422  0.151
-0.0171 -0.543 -0.141
 0.146 -0.0190  0.170
 0.165  0.381 0.0565
0.0612  0.791 -0.0283
-0.400 -0.562  0.216
0.00717 -0.675 0.0659
 0.268 -0.419 -0.104
-0.0171  0.681 0.0470
 0.174 0.00483 -0.0754
 0.137 -0.805 -0.217
 0.334 -0.395  0.160
-0.297  0.851 -0.179
-0.165 -0.810 -0.226
 0.381 -0.854 -0.226
-0.0171  0.201 -0.207
-0.410 -0.110 -0.226
 0.390 -0.515  0.198
-0.461 -0.807 -0.0942
 0.450 0.0311 0.0659
-0.400 -0.0725  0.151
-0.400 -0.722 -0.0471
0.0330  0.791 -0.160
-0.137  0.791 -0.198
 0.394  0.135  0.223
-0.391  0.848  0.225
0.0141 -0.826  0.225
-0.0118 -0.110 -0.226
 0.390  0.361 -0.198
-0.297 0.00483 0.0470
 0.450 -0.553 -0.151
 0.450 0.0405 -0.132
-0.400  0.219 -0.00945
-0.0171  0.549  0.170
 0.450  0.530  0.104
-0.461 -0.440 -0.0565
-0.461  0.144 -0.0377
-0.461  0.756 -0.0942
0.0330 -0.395 -0.0189
-0.212  0.851 0.0565
 0.278 -0.395 -0.0377
 0.390 -0.478 0.0565
0.00930 -0.429 0.0753
-0.400 -0.741 -0.188
 0.449 0.0405 -0.223
 0.394 0.0908 -0.223
-0.461  0.558 0.0847
 0.445 -0.865  0.141
 0.174  0.852 -0.0848
 0.250  0.851 0.0659
-0.400 -0.270 0.0847
-0.461 -0.770 -0.0377
-0.165  0.381 0.0282
0.0330 -0.805  0.113
-0.461 -0.562 -0.0189
0.00667 0.0688 -0.0377
 0.390  0.295 -0.132
 0.390 0.0218 0.0282
 0.381  0.851 -1.73e-05
-0.363 -0.866 -0.170
 0.268 -0.866 -0.0754
 0.450 -0.0254  0.216
0.00717 -0.722  0.122
 0.438  0.794 -0.226
-0.334 -0.0190  0.160
-0.400 -0.487 -0.113
-0.212 -0.419 0.0282
-0.306 -0.419 -3.62e-05
-0.381  0.381 -0.170
-0.400  0.521  0.179
-0.0801 -0.805  0.122
 0.315 -0.866  0.122
 0.390 -0.685 -0.0754
 0.390 -0.0536 -0.141
-0.461  0.511 -0.0565
 0.372 -0.805 -0.0377
 0.278 -0.805 -0.160
-0.0171 -0.327  0.170
 0.202 -0.809  0.225
 0.118 -0.395  0.170
 0.372  0.791 0.0941
-0.0518 -0.419 -0.151
-0.0171  0.106  0.216
0.0330 -0.0190 0.0188
 0.451 -0.826  0.216
-0.400 -0.0351 -0.217
-0.461 -0.364 -0.179
 0.450  0.653  0.170
 0.202  0.381  0.179
 0.334 -0.866 -0.151
-0.0895 -0.0190 -0.00946
 0.450 -0.0725 0.0659
-0.461  0.719  0.141
 0.390 -0.647 -0.132
-0.461 -0.732  0.160
0.00667  0.709 -0.0471
 0.450 -0.779 0.0565
 0.390  0.201 0.0565
-0.259 -0.866 -0.0471
-0.400 -0.308 0.0188
 0.390  0.568  0.104
-0.127 -0.805 -0.122
 0.344 -0.394 -0.170
 0.390  0.587 -0.188
-0.461 -0.214 -0.188
-0.461  0.540  0.151
0.0424  0.851 -0.0848
-0.461 -0.0631 -0.141
-0.461 -0.713 0.0471
 0.315  0.791 -0.0660
 0.450 -0.101 -0.0942
-0.0171 -0.0819  0.160
-0.240 -0.805 0.0282
 0.390 -0.685 0.0753
-0.155  0.404 -0.160
-0.405  0.696  0.221
-0.447 0.0405  0.225
0.00667  0.436  0.132
-0.250  0.791  0.104
-0.400  0.559 -0.216
-0.438 -0.0254  0.225
-0.461  0.643 -0.0471
0.00643 -0.553 -0.223
-0.461  0.455 -0.179
-0.461 -0.788 0.0282
-0.0118 -0.0255  0.226
-0.400 -0.440  0.160
-0.146  0.851 0.0471
 0.390  0.314 0.00940
 0.390 -0.186 -0.122
-0.461  0.427 -0.0565
0.00667  0.323 -0.113
-0.461 -0.00657  0.104
 0.450 -0.675 0.0188
-0.461 -0.619 0.0847
-0.381  0.803 -0.226
-0.459 -0.402  0.222
-0.0171 -0.656 -0.170
-0.455  0.285  0.225
-0.397 -0.797 0.0690
 0.297  0.791  0.215
 0.390 0.0218 -0.151
-0.146 -0.866  0.188
 0.449 -0.581 -0.223
0.0237 -0.395 -0.151
 0.118  0.381  0.160
-0.410 -0.866 -0.0471
0.0237  0.381 -1.73e-05
 0.390  0.257 -0.0754
0.00717  0.502  0.132
0.00667  0.738 0.0659
0.00667  0.558 0.00937
-0.297 -0.0190 -0.0283
-0.202 -0.419 -0.151
 0.155 -0.419 0.0188
-0.118  0.381  0.113
0.0518 -0.0190 -0.198
-0.0224  0.783 -0.0503
-0.400  0.351 0.0471
-0.400 -0.138 0.0188
 0.450 -0.157 -0.0566
-0.400  0.201  0.151
-0.0518  0.851 -0.179
-0.400 0.0500 -2.23e-05
-0.400  0.474 0.0753
 0.390 -0.120 -0.198
 0.316  0.851 0.00940
-0.00473 -0.440 -0.226
 0.390 -0.656  0.188
 0.146  0.791  0.198
0.00667  0.163  0.170
-0.326 -0.805  0.215
 0.400 -0.638 -0.226
 0.390 -0.543 -0.00944
 0.451  0.728 -0.198
 0.450 -0.543 0.0565
0.00667  0.267 0.0282
-0.461  0.530 -0.151
 0.390 -0.167  0.207
-0.400 -0.0819 -0.0659
-0.461  0.229 -0.113
-0.461 -0.101 -3.92e-05
-0.461 -0.487  0.160
-0.268  0.851 -0.0659
-0.400  0.606 0.0942
0.0518 -0.866 0.0282
-0.461 -0.515 -0.151
 0.390 -0.289 -0.198
-0.325 -0.419 -0.122
 0.451  0.493 -0.132
 0.306  0.852 -0.132
 0.108 -0.395 -0.160
 0.450 -0.0254 -0.00948
-0.0118 -0.364 -0.226
-0.461 -0.148 -0.0754
 0.450  0.728 0.0471
 0.390  0.587 -0.0942
-0.268  0.791 0.0282
0.00667  0.304  0.151
 0.240 -0.0190  0.151
 0.306 -0.0190  0.113
 0.390  0.728 -0.132
-0.400 -0.336 -0.0942
-0.461 0.0782 -0.188
-0.391 -0.0213 0.0376
 0.390 0.0782 -2.03e-05
 0.450 -0.120  0.216
0.0141 -0.866 -0.170
0.0211 -0.803 -0.0754
-0.0612 -0.0190 0.0565
 0.259 -0.805  0.198
 0.390 -0.431 -0.113
-0.397 0.0131 -0.0534
-0.0425 -0.805 -0.223
0.00717 -0.609 -0.00948
 0.334  0.381 -0.0942
-0.461  0.841  0.122
-0.0118 0.0594 -0.226
 0.449 -0.0254 -0.223
-0.108 0.00483  0.141
 0.184  0.405 -0.207
 0.278 -0.0190 0.00938
0.00667 -0.553 0.0847
-0.0309 -0.803 0.0847
-0.325 0.00483 -0.160
-0.461  0.653 -0.217
 0.450 -0.270 -0.151
-0.461 -0.346 -0.0377
 0.450 0.0688 -0.0754
 0.390 -0.496 -0.198
-0.400 -0.0351 -0.122
-0.118  0.841  0.225
 0.438  0.606  0.226
-0.429 -0.685 -0.226
-0.403 -0.280 -0.223
-0.461  0.267 -0.217
 0.278  0.381 -0.0471
-0.459 -0.493 -0.223
 0.451 -0.751  0.188
 0.315 -0.419  0.104
 0.390 -0.0350 0.0565
0.0894 -0.0190 -0.141
 0.372 -0.419 0.0471
-0.306 -0.805  0.151
0.0706 -0.866  0.198
 0.155 -0.865  0.222
 0.450 -0.600  0.207
-0.400  0.154 -0.104
 0.450  0.182  0.141
-0.400 -0.214 -0.0377
 0.450 -0.251 -0.0471
 0.259 -0.866 -0.00946
-0.0800  0.851 0.0659
-0.461 -0.157  0.179
 0.450  0.841  0.160
-0.0612 0.00516  0.207
-0.461 -0.233 0.0282
-0.400  0.427 0.00940
 0.390  0.719  0.198
-0.400 -0.553 -0.207
 0.390  0.427  0.179
-0.0171 -0.0537 -0.188
0.00700  0.766  0.207
-0.287 -0.805 -0.113
-0.315  0.851 0.0848
 0.382  0.406 -0.0565
-0.0707  0.404 -0.0660
 0.400  0.493 -0.226
 0.450  0.700 -0.0566
-0.461 -0.459 0.0565
-0.184 -0.0179  0.222
 0.155  0.791 -0.179
 0.390 -0.308 -0.104
-0.250  0.791 -0.188
 0.146  0.791  0.104
-0.461  0.436  0.170
 0.450  0.314 -0.113
-0.0171 -0.515  0.179
-0.0142 -0.866 -0.104
 0.344 -0.866 0.0565
-0.461 -0.336  0.104
 0.450  0.785 -0.0660
-0.137 -0.866 -0.0754
 0.450 -0.138 -0.141
 0.278  0.791 -0.113
 0.108 -0.805 0.0847
 0.400  0.851 -0.104
-0.400  0.276 0.0377
 0.450  0.417 -0.0377
 0.438 -0.346  0.225
-0.461  0.624 -0.151
 0.390  0.238  0.104
-0.0169 -0.694 -0.217
-0.325  0.404 -0.179
-0.400  0.606 -0.179
-0.0331 -0.418  0.198
-0.0171 -0.656 -0.0942
-0.297  0.404 -0.0377
 0.202 -0.419  0.160
 0.334 -0.0138  0.225
-0.174 -0.805 -0.0754
-0.0171 -0.713 -0.0566
-0.461  0.493 0.0565
-0.461  0.351 -0.122
 0.390 -0.562  0.132
-0.231  0.792  0.222
 0.325 -0.805 0.0941
 0.390 -0.0913 -0.0565
0.0424  0.791  0.160
0.00667 -0.308 -0.0754
 0.390  0.596 0.0471
-0.108  0.851 -0.0565
 0.118  0.791 -0.0471
 0.450 -0.581 -0.0660
 0.390 -0.619 -0.0283
-0.461 -0.299 -0.0754
-0.461  0.634  0.104
-0.400  0.728 -0.0189
 0.390 -0.732 -0.0377
-0.297 -0.805 0.0565
-0.461  0.380 -3.92e-05
 0.450 -0.732 -0.0660
0.00667  0.530 -0.0942
-0.316  0.791 -0.00946
-0.400 -0.336  0.179
-0.278  0.791 -0.122
 0.450  0.436  0.113
-0.461  0.201  0.198
-0.461  0.794  0.160
-0.461 -0.628 -0.207
-0.0171  0.446 -0.0754
 0.390 -0.364  0.141
 0.450 -0.393 -0.0942
0.0330  0.791 -0.0848
 0.390  0.314  0.216
 0.118  0.851  0.179
-0.193 -0.866 -0.170
-0.410  0.851 -0.104
-0.400  0.116 -0.160
 0.390  0.427 0.0847
-0.0247  0.409 0.0471
 0.450  0.172 -0.170
-0.0518  0.381 -0.132
-0.391 -0.420 -0.0189
 0.390  0.182 -0.207
 0.250 -0.419  0.207
-0.259 0.00459 -0.223
-0.0518  0.381 -0.00944
-0.391 -0.394 -0.216
-0.287  0.381 -0.141
-0.363  0.791 0.0376
 0.391  0.848  0.225
-0.461  0.587  0.216
 0.390  0.370 -0.00944
 0.390  0.530  0.179
 0.297 -0.866  0.179
-0.0171  0.700  0.170
0.0518 -0.419 0.0376
-0.00473  0.351 -0.226
-0.0161  0.653  0.222
0.0612  0.404 -0.179
 0.390 0.0218 -0.0377
 0.450  0.257 -0.217
 0.450  0.803 0.00938
 0.445  0.257  0.225
 0.316  0.851  0.141
 0.450 -0.120  0.104
-0.461 -0.506 -0.0283
 0.372  0.791 -0.170
 0.390 -0.364 -0.151
-0.118  0.791 -0.132
-0.0801  0.791 -0.00946
 0.390 -0.261  0.113
0.0612  0.852 -0.0189
 0.450 -0.459 -0.0283
-0.0518 -0.866  0.160
 0.450 0.0876 0.0565
 0.390 -0.355 0.0282
0.0706  0.851 -0.198
-0.0195 -0.384  0.104
0.0801  0.851 0.0942
-0.316 -0.866 0.0847
-0.461  0.785 0.0471
 0.287 -0.395 -0.160
-0.287 -0.395  0.170
-0.410  0.851  0.170
 0.390  0.690 0.0659
 0.390 -0.581 -0.141
-0.461 -0.261  0.104
-0.0518  0.404  0.188
-0.400  0.728  0.170
 0.450  0.332  0.151
 0.390  0.135  0.104
 0.390  0.295 0.0659
-0.00471  0.851 0.0659
-0.400 -0.694 0.00940
 0.363 -0.805  0.141
-0.400 -0.0631 0.0753
-0.240 -0.403  0.225
 0.250  0.381 -0.160
 0.390 -0.0819  0.170
-0.403  0.154 -0.223
-0.400 -0.866  0.216
-0.0224 -0.0266 -0.0409
-0.268 -0.866  0.198
-0.461 -0.270  0.216
-0.461 -0.543  0.216
-0.0612 -0.805 -0.0377
-0.455 -0.865  0.160
 0.394  0.201  0.222
-0.405 -0.180  0.221
 0.146 -0.805  0.188
-0.461 -0.0913  0.188
-0.400 -0.732  0.188
 0.363 -0.805 -0.113
 0.450  0.615 -0.216
-0.405  0.752  0.221
-0.461 -0.609  0.141
-0.419 -0.866 -0.170
-0.461  0.267 0.0282
 0.450 -0.440 -0.170
0.0989 -0.0190  0.132
-0.0171 -0.261 0.0941
 0.391  0.851 0.0942
-0.455  0.389 -0.226
 0.118 -0.866 -0.0471
-0.240  0.405 0.0565
-0.316 -0.805 -0.0566
 0.450  0.558 -0.0189
0.00230  0.549 -0.226
-0.461 -0.00657 -0.0660
 0.221  0.852 -0.122
0.0706 -0.866  0.141
-0.221  0.851 -1.73e-05
 0.137 -0.416  0.222
-0.127 -0.805 -0.179
-0.461  0.766 -0.0189
-0.00473 -0.685  0.225
 0.450  0.398  0.170
-0.0171  0.521 0.0659
-0.202 -0.805  0.104
-0.461  0.662  0.160
 0.306  0.796 -0.226
-0.0425 -0.805 0.0188
-0.325 -0.397 -0.223
-0.118 0.00459 -0.223
-0.0171 -0.590 -0.0566
 0.449 -0.865 -0.0561
-0.174  0.381 -0.104
-0.0171  0.267 0.0847
-0.287 0.00483 -0.0848
 0.231 -0.419 0.0847
 0.278 -0.0190 -0.104
-0.0171 -0.186 -0.160
-0.0171 -0.355 -0.160
 0.155 -0.0190 -0.122
 0.221  0.381 -0.0848
0.00667  0.558  0.113
0.00725  0.530  0.216
0.0424 -0.805 -0.217
0.0329 -0.419 -0.0848
 0.449  0.376  0.223
-0.461 -0.289 -0.170
-0.0808 -0.809  0.224
-0.146 -0.419 -0.198
0.00667 -0.600  0.179
-0.0863  0.792 -0.223
 0.419  0.690 -0.226
-0.127  0.404  0.170
-0.0171  0.436 -0.188
-0.231 -0.805  0.179
 0.450 -0.741  0.132
-0.461 -0.374  0.170
-0.202  0.851 -0.179
-0.400  0.238 -0.151
-0.400  0.427 -0.132
 0.390  0.464 -0.132
-0.400  0.672 -2.23e-05
0.00717  0.662 -0.0754
-0.461 -0.675 -0.104
-0.127 -0.395 0.0942
-0.108 -0.805  0.170
0.0989  0.791 0.0753
 0.450  0.634 -0.0942
 0.450  0.672 -4.02e-05
 0.451 -0.299 0.0941
-0.0171  0.624 0.0376
-0.400  0.333 -0.0565
-0.400 0.0876  0.122
-0.155 -0.395 0.0377
-0.461 -0.129 0.0753
-0.0171  0.351 0.0376
 0.231 -0.805 0.0282
 0.127  0.851  0.122
-0.0895 -0.866 -0.0189
 0.278  0.791  0.151
-0.461  0.342  0.132
 0.391 -0.866 -0.151
0.00667  0.295 -0.0660
 0.450 -0.0913 -0.170
 0.118  0.851 0.00940
-0.0424 -0.866 -0.179
 0.450  0.380 0.0471
-0.400  0.106 0.0565
 0.297  0.791 0.0470
-0.400  0.276  0.160
-0.184  0.851 -0.104
 0.390  0.747  0.151
-0.297  0.851 -0.113
-0.400  0.521 0.0471
-0.325 -0.866 0.00937
-0.461  0.191 0.0941
-0.461 -0.346 0.0282
-0.0895 0.00483 -0.0660
0.0424 -0.0179  0.222
-0.306 -0.866 -0.198
0.00667  0.596 -0.160
-0.461 -0.204  0.151
-0.381  0.791 -0.170
 0.450 -0.722 -0.188
-0.461  0.408  0.216
 0.450  0.728  0.188
-0.0235  0.832 -0.226
-0.363 -0.805 0.0282
-0.372  0.791  0.104
-0.0171 -0.374 0.0470
-0.325  0.381  0.179
-0.184 -0.394 -0.0189
-0.146 -0.394 -0.0660
0.00700 0.0688  0.179
 0.445 0.0405  0.225
-0.372 -0.395 -0.113
-0.381  0.381  0.122
-0.0171  0.276 -0.132
-0.0895 -0.419 0.0188
-0.316 -0.395 0.0847
-0.240 0.00483 -0.00946
-0.0171 0.0311 -0.179
 0.353 0.00483 0.0941
-0.0518 -0.0190 -0.141
-0.155 -0.0190  0.160
-0.193  0.381  0.151
 0.146 -0.0190  0.104
-0.438  0.794  0.225
0.00667 0.0688 0.0847
-0.400 -0.157 -0.198
 0.212  0.851 -0.0471
-0.400  0.577 -0.104
0.00667 -0.572 0.0282
-0.278  0.405 0.0941
-0.363 -0.866  0.160
-0.461 -0.770 -0.141
0.00471  0.851 -0.122
 0.450  0.549 -0.0848
-0.0171  0.125 -0.0189
 0.390  0.709 0.00940
-0.403 0.0939  0.222
 0.155 -0.0190 0.0376
-0.461  0.606 -0.00946
0.00700  0.172 0.0376
-0.400 -0.525 0.0565
 0.450 -0.487 0.0659
 0.390  0.427 0.00940
-0.461  0.323 -0.0189
-0.461 -0.760  0.207
 0.287 -0.866 -0.188
-0.297 -0.395 -0.170
 0.450  0.304  0.104
 0.390  0.634  0.151
-0.461  0.182 -0.170
0.00667  0.229 -0.141
-0.381 0.00481  0.170
 0.449  0.452  0.223
-0.438 -0.355 -0.226
-0.397  0.410 -0.0817
-0.174 0.00500 -0.0566
 0.259 0.00516  0.207
-0.0171 -0.741 -0.151
 0.394 0.0782  0.222
0.0895  0.404 -0.113
-0.0171  0.125 -0.170
0.00667  0.615  0.104
0.0330 0.00482  0.113
-0.334  0.381 0.0847
-0.0171 -0.722 0.00938
-0.231 -0.0190  0.132
-0.221 -0.419  0.113
-0.0171 -0.0537 0.0188
-0.0171  0.493 -0.122
0.00667  0.201 -0.0848
 0.316  0.381 0.0282
-0.174 -0.0190 -0.170
 0.372 -0.419  0.188
-0.0171  0.511 0.00938
 0.325 -0.419 -0.00945
-0.400 -0.440 -0.0754
0.00667 0.0405 -0.113
-0.402  0.294  0.215
 0.390 -0.0536  0.113
0.0612 -0.419 -0.179
 0.363 -0.397 -0.223
-0.391 -0.810 -0.226
-0.400 -0.440 -0.170
-0.297  0.822  0.225
-0.0989 -0.805 -0.223
 0.438 -0.233 -0.226
-0.459 -0.865 -0.0628
 0.450  0.841 -0.113
-0.00473  0.248 -0.226
 0.450 -0.289  0.188
-0.391 0.00751 -0.188
 0.390  0.361  0.188
0.0801  0.848  0.225
-0.400  0.577  0.170
-0.438 -0.242 -0.226
-0.0518  0.791  0.179
 0.381 -0.803 -0.223
-0.00477  0.267  0.225
-0.137 -0.394  0.207
 0.287 0.00483 -0.179
-0.410  0.455  0.225
 0.212 -0.866  0.179
0.00667 -0.590 -0.188
 0.146 -0.866 -0.207
-0.400 -0.666  0.113
-0.400 -0.214 0.0753
-0.0171 -0.317 0.0376
 0.390  0.511 -0.00944
 0.202 -0.805 -0.207
-0.461 -0.412 -0.160
-0.344 -0.866 -0.122
0.0800 -0.866 -0.170
 0.410  0.841 -0.226
 0.363 -0.866  0.151
-0.461 -0.412 -0.104
 0.250  0.791 -0.160
0.00667  0.690 -0.151
-0.400  0.182 0.0282
0.0989 -0.395 -0.0565
 0.390  0.606 -0.141
 0.250 0.00477 -0.223
-0.240 -0.805 -0.0942
 0.315 -0.805 -0.0377
 0.400 -0.866 0.0565
-0.461 0.00285 0.0282
-0.0424  0.851  0.104
-0.0801  0.791 -0.0942
0.00667 -0.176 0.0470
-0.108  0.404 -0.179
 0.202  0.791 -0.0848
 0.193 -0.805 -0.0283
-0.400 -0.327 0.0659
 0.390  0.756 -0.0189
-0.461  0.568 -0.0471
-0.0171 -0.148 -4.22e-05
0.0612  0.851 -0.132
-0.461 -0.402 0.0941
 0.390  0.483 -0.0848
 0.450 -0.751 -0.113
 0.390 -0.0350 -0.0942
0.00700 -0.0725 -0.141
-0.400 -0.233  0.216
0.0330 -0.805 -0.00946
-0.0171  0.267 -0.0283
 0.451 -0.609  0.151
 0.450  0.803 -0.160
-0.212 -0.805 -0.198
 0.390  0.314 -0.179
 0.390  0.210 -0.0565
-0.400 -0.732 0.0471
-0.155  0.851 -0.207
-0.278  0.848 -0.226
 0.202  0.848 -0.226
-0.344  0.852  0.207
-0.0171 -0.270 -0.179
 0.450 -0.327 -0.170
 0.353 -0.805  0.198
 0.390 0.0218  0.132
 0.344 -0.0190 -0.0377
-0.240 -0.0138  0.225
 0.212  0.851  0.179
-0.419  0.464 -0.226
-0.447  0.540  0.226
 0.390 -0.788 0.0282
 0.363 -0.395  0.113
-0.0309  0.789 -4.12e-05
-0.00473 -0.242 -0.226
-0.397 -0.797 -0.0817
-0.162 -0.0177 -0.223
 0.450 -0.826 -0.170
-0.455 -0.865 -0.207
0.00682 -0.440 -0.160
0.0320 -0.395  0.215
-0.461  0.841 -0.188
-0.0224  0.783 -0.107
-0.429 -0.638  0.225
-0.400 -0.0351 -0.0471
0.00662 -0.0350  0.122
 0.127 -0.394  0.113
 0.390 -0.346  0.216
-0.0224 -0.797 -0.179
0.00717 -0.525 -0.104
 0.450  0.803  0.198
-0.353  0.404 -0.0471
-0.0171 -0.760  0.104
 0.449 -0.393 -0.223
-0.0194  0.371  0.216
 0.174 -0.419 -0.0377
-0.118 -0.0190 -0.132
0.00667 -0.628  0.104
0.0298  0.852  0.222
0.00667  0.125  0.132
-0.0801  0.381 0.0753
-0.306 -0.395 -0.0848
0.00667 -0.553 -0.0189
-0.344 -0.418  0.216
-0.0171 0.0311 -0.0566
0.00667 -0.204 -0.0660
-0.221 0.00483 0.0847
-0.0171  0.229 0.0470
-0.363 -0.395  0.113
0.00667 -0.214  0.151
 0.137  0.381  0.104
-0.108 -0.419  0.132
0.00667  0.163 -0.188
0.0518 0.00483 0.0565
 0.278 -0.395 0.0847
-0.0171 -0.478 -0.0754
-0.461 -0.666  0.198
0.00667  0.464 -4.42e-05
-0.429 -0.590 -0.226
-0.429 0.0594 -0.226
 0.344 -0.0189 -0.216
-0.334  0.848 -0.226
-0.400  0.851 -0.0565
-0.221  0.851  0.170
-0.400  0.672 -0.160
 0.450  0.690  0.122
-0.325  0.791  0.160
 0.390  0.474  0.170
 0.390 -0.468  0.188
-0.400 -0.167  0.122
-0.0171  0.483 -0.170
 0.390 -0.298 -0.0565
-0.231  0.404 -0.104
-0.202 -0.866  0.104
 0.390  0.144  0.151
 0.250  0.381  0.170
 0.450  0.502  0.188
-0.400 -0.694 -0.179
 0.391 -0.866 -0.0942
0.00667  0.154 -0.104
 0.212  0.381 0.0659
 0.450 -0.280 0.0471
0.00667 -0.355 -0.0660
 0.390 -0.308 0.0188
 0.450  0.624 0.0659
 0.390 -0.619 -0.0848
-0.325  0.851 -0.00944
 0.268  0.851 -1.73e-05
 0.165  0.851 -1.73e-05
-0.461 -0.666 0.0753
 0.390 -0.760 -0.141
-0.212  0.791 0.0565
-0.231 -0.866 0.0470
 0.390 -0.204 -0.0471
-0.221  0.851 -0.0565
 0.450  0.219 0.0565
-0.461  0.709 -0.0848
 0.450 -0.628 0.00938
 0.202 -0.866 0.0470
 0.450  0.775 0.0565
-0.400  0.285 -0.113
-0.400 -0.543 -0.00944
 0.450 -0.534  0.113
 0.390  0.125 -0.00944
 0.451  0.540 -0.141
 0.390 -0.449 -0.188
 0.221 0.00483 -0.170
 0.344 -0.395 -0.0565
-0.400 -0.251 -0.113
-0.0425 -0.0190  0.104
 0.390 -0.186 -2.03e-05
0.00667  0.700 -4.42e-05
-0.461 -0.0442  0.160
 0.390 -0.138 0.0847
 0.450 -0.308 -0.0377
 0.390 -0.242 0.00940
-0.400  0.144 -0.0377
-0.363  0.851 0.0565
-0.400  0.342 -2.23e-05
 0.202 0.00483 0.0471
0.0706 -0.805 -0.0754
0.0706 -0.866 -0.0377
-0.193 -0.805 0.0565
 0.450 -0.0442 -0.0566
 0.451 -0.157 0.0565
-0.400 -0.866 -4.62e-05
-0.400 -0.364 0.0188
-0.400  0.643 -0.0754
-0.108 0.00483 0.0282
 0.193  0.791 0.00937
-0.287  0.404 0.0471
-0.259 -0.395 0.0188
-0.400 0.0500 -0.0848
-0.400  0.568 -0.00944
0.0237  0.404  0.188
-0.137  0.851 -0.00944
 0.400  0.559 -0.226
-0.400 0.0405  0.113
-0.400  0.483  0.122
 0.390 -0.496 -0.0848
-0.325 0.00516  0.207
 0.451 -0.440  0.113
 0.450 -0.487 -0.160
-0.400 -0.609 -0.132
-0.108  0.851 -0.160
0.00667 -0.129 -0.113
-0.0171 -0.713  0.170
 0.325  0.791  0.104
 0.390 -0.685 0.0188
-0.344  0.791 -0.0754
 0.450 -0.402 0.0188
-0.461 -0.817  0.104
-0.461  0.803 -0.0848
-0.00471  0.851  0.188
-0.165 -0.395 -0.122
 0.390 -0.713 -0.217
-0.400  0.681 -0.113
 0.221  0.791  0.132
-0.0171 -0.788  0.198
 0.231  0.803  0.225
-0.400  0.370 -0.217
 0.297  0.405  0.216
-0.419  0.851 -0.223
-0.400 -0.788 -0.179
-0.400 -0.383  0.170
 0.146  0.381 -0.188
 0.353  0.389 -0.226
-0.400 -0.779  0.113
-0.0171 -0.317  0.216
-0.0612 -0.854 -0.226
-0.0706  0.848  0.225
0.0895 -0.403 -0.226
-0.00477 -0.0725  0.225
-0.461 -0.449  0.216
 0.278  0.851  0.198
-0.400  0.766 -0.0565
 0.429  0.125 -0.226
-0.455 -0.167  0.225
 0.445  0.436 -0.226
 0.429 -0.430  0.225
-0.0706 -0.395 -0.113
-0.400 -0.515 -0.170
-0.461  0.653 -0.113
 0.450  0.493  0.141
-0.137  0.791  0.113
-0.400 -0.779  0.179
-0.0171 -0.299  0.122
 0.450 -0.647  0.113
-0.146 -0.866 -0.198
0.0800 -0.0190 -0.0377
 0.410  0.549  0.226
 0.316 -0.826 -0.226
-0.461  0.154  0.198
 0.450  0.154  0.216
 0.390  0.304  0.170
 0.212 -0.395 -0.104
-0.400 -0.638 0.0659
 0.268  0.851 -0.179
 0.390  0.747  0.104
 0.390 -0.167 -0.198
-0.0171  0.766  0.104
 0.390 -0.590 0.0753
-0.400  0.672  0.113
 0.390  0.672  0.198
 0.202  0.851 0.0659
0.00667 -0.148 0.0847
 0.390 -0.572 0.0282
 0.451 -0.0725 0.0188
 0.450  0.483 -4.02e-05
 0.390 -0.261 -0.0942
-0.461 -0.0254 -0.170
-0.400 -0.656 -0.0659
 0.390  0.615 -0.0565
 0.353  0.381  0.104
-0.438 -0.817  0.225
 0.287 -0.419  0.179
 0.353  0.851  0.179
-0.297  0.791 -0.170
-0.0171 -0.779 -0.122
 0.450 -0.656 -0.160
-0.400 -0.270  0.170
 0.306  0.405 -0.141
-0.184 -0.395  0.179
-0.400 -0.120  0.141
 0.450 -0.223 -0.160
 0.390 -0.251  0.179
-0.400 -0.619  0.160
-0.250 -0.866 -0.188
0.0141 -0.866 0.0753
-0.0707 -0.866 0.0847
-0.127 -0.866 0.00937
 0.450 -0.214 0.0847
0.0989 -0.395 0.0471
 0.450 0.0594  0.104
-0.461 -0.101 -0.0942
-0.108 -0.861  0.225
-0.363 -0.805 -0.0189
0.0895  0.381 0.0753
 0.450 0.0876 -0.132
 0.390 -0.148 -0.0848
 0.372  0.791 0.0470
-0.259 -0.866 -0.0942
-0.461 -0.0913 0.0471
-0.155 -0.0190 0.0470
 0.118 -0.866 0.0565
-0.400  0.116  0.160
-0.0518  0.851 -0.0377
 0.240 -0.0190 -0.0754
-0.268 -0.419  0.122
0.0612 -0.826  0.225
 0.390 -0.685 -0.0283
-0.0895 -0.866 -0.179
-0.400  0.634 0.0282
-0.461 -0.666 0.00938
-0.400  0.728 -0.0942
-0.372 -0.866 -0.0754
0.00667 -0.572 -0.0942
 0.450  0.493 0.0753
 0.450 -0.590 0.0376
-0.0171 -0.289 -0.0377
-0.461 -0.581 -0.0660
0.00700  0.700 -0.104
-0.461  0.116 -0.160
-0.0247  0.409 -0.104
 0.287  0.851  0.104
 0.450 -0.355 0.0565
 0.449 -0.0725 -0.223
-0.259 -0.395 -0.0848
-0.259 0.00483 -0.122
-0.287  0.851 0.0471
 0.165  0.791 -0.113
0.0895  0.851 -0.0848
-0.165  0.791 -0.0377
0.00684 -0.647 0.0282
-0.461  0.370 0.0847
 0.450 0.0123 -0.179
 0.450 0.0782  0.160
 0.450 -0.694  0.141
-0.400  0.511 -0.122
 0.231  0.851  0.113
 0.450 -0.798 -0.122
 0.390  0.559 -0.132
-0.400 -0.562 0.0847
 0.450  0.229 -0.160
-0.461 -0.157  0.132
 0.184 -0.805 -0.113
-0.461 -0.835 -0.132
0.00667  0.728 -0.188
-0.0332  0.404 0.0941
-0.400 -0.694  0.216
-0.165  0.841  0.225
0.0423 -0.866 -0.207
 0.287  0.381 -0.216
-0.381  0.791  0.207
-0.344 -0.0190 0.0376
-0.400 -0.0631 -0.179
 0.146  0.851 -0.179
-0.429  0.606 -0.226
-0.400 -0.431 0.0377
0.00700 -0.242 0.0470
-0.461  0.766 -0.207
-0.0171  0.191  0.132
0.00667  0.568 -0.122
-0.0171 -0.336 -0.104
-0.127 0.00483 -0.0283
 0.410  0.398 -0.226
 0.127 -0.419 -0.0283
 0.221 -0.0190 0.0847
-0.0171  0.295 -0.207
-0.0171 -0.459  0.151
0.00667 -0.157 -0.188
 0.165  0.381 -1.73e-05
 0.137 0.00483 -0.0471
 0.306 0.00483 0.0659
 0.165 0.000647 -0.226
-0.438 -0.779 -0.226
-0.166  0.397  0.224
 0.387  0.783 -0.0691
 0.449 -0.236  0.223
-0.268  0.851  0.179
0.00243 -0.176  0.225
-0.193 0.00533 0.00937
 0.146 -0.394 0.0565
-0.0424 -0.419 0.0847
-0.0171 -0.233 -0.00946
-0.231 -0.395 0.0659
 0.394 -0.233  0.222
0.0518  0.404 0.0376
 0.410  0.851 -0.151
-0.202  0.381 -0.0189
 0.127  0.404 0.0376
0.00667 -0.0913 0.0565
0.00667 -0.0442 0.0565
-0.0171 -0.0819 -0.0471
-0.306 -0.0190 0.0847
-0.0171 -0.496 -0.0283
 0.315 0.00483 -4.42e-05
0.00667 -0.760 -4.42e-05
-0.0171  0.624 -0.0848
 0.221  0.381 0.0188
 0.382  0.380 -0.0942
-0.155  0.404 0.0659
-0.372  0.404  0.160
 0.193 -0.395  0.122
 0.155 -0.419  0.179
-0.0171 -0.478 -0.151
 0.449 -0.556  0.223
-0.0171 0.0688 0.0376
0.0706 0.00483 0.00937
 0.297 -0.809  0.225
0.0644  0.383 -0.223
 0.390 0.0311 -0.0848
-0.397  0.783 0.0659
-0.0171  0.775 -0.151
 0.449  0.511 -0.223
-0.400 -0.374 0.0753
0.00667 -0.289  0.188
 0.108  0.397  0.225
 0.390 -0.769  0.141
-0.411  0.643  0.224
-0.455  0.238  0.225
0.00667  0.634  0.188
0.0706 -0.394  0.141
0.00230  0.455 -0.226
-0.0171  0.210 -0.0377
-0.381 -0.826  0.225
-0.391 0.00751 -0.113
-0.202  0.405 0.0282
 0.250 -0.865 -0.216
-0.155 0.00483 -0.132
-0.405  0.508  0.221
0.00667 -0.675 -0.0566
 0.155 -0.395 -0.141
-0.0171  0.436  0.170
-0.0171  0.248  0.141
 0.155 0.00483 -0.160
 0.410 -0.543 -0.226
-0.0309  0.789 -0.198
0.0989  0.832 -0.226
-0.400 0.0500  0.216
-0.403  0.511 -0.223
 0.394  0.436  0.222
0.0237  0.381 -0.0565
 0.372 -0.845  0.225
 0.450 -0.609 -0.188
-0.429  0.851 -0.160
-0.397  0.376 -0.122
-0.0612 -0.0190 -0.207
-0.184  0.791  0.188
 0.390 -0.431 0.0847
 0.438 -0.638  0.225
-0.0247 -0.422 -0.192
-0.184 -0.826  0.225
-0.118 -0.397 -0.223
-0.400  0.436  0.113
-0.363 -0.419  0.160
-0.363 -0.805 0.0941
0.0210  0.789  0.122
 0.387 -0.0266  0.176
0.00729 -0.233  0.216
 0.165 0.00541  0.216
-0.0247  0.377  0.166
 0.390  0.125 -0.198
-0.461  0.822 0.0753
0.0989  0.381 -0.188
-0.250 -0.395 -0.188
0.00932  0.416 0.0847
0.00643 -0.0631 -0.223
0.0612 -0.805  0.188
-0.184  0.404 -0.198
-0.363 -0.805 -0.188
-0.455  0.106 -0.226
0.0612 -0.419  0.188
-0.268  0.381  0.188
-0.0171 0.0970 -0.207
 0.450  0.351 -0.207
-0.297 -0.835  0.225
0.00657  0.141  0.222
-0.0171  0.351 -0.0283
 0.278 -0.395 0.0282
 0.231 -0.866 -0.0566
 0.450  0.314 0.0188
 0.450 -0.364 -0.132
 0.450 0.0594 -0.170
 0.212 -0.866 -0.132
 0.390 -0.525  0.151
 0.212 -0.394 -0.00947
0.00667  0.125 -0.0566
-0.461  0.229 0.0659
 0.202 -0.805 0.0941
 0.450  0.125 0.0376
0.0612  0.791  0.104
-0.461 0.0311 -0.0942
-0.461 0.0217 0.0659
0.0424  0.791 0.00937
-0.400 -0.525  0.113
-0.0171 -0.590  0.104
-0.400  0.342 0.0942
-0.127 -0.866 0.0941
-0.127 -0.805 0.0565
-0.0171 -0.148 -0.0471
 0.450  0.822 -0.0283
-0.0171  0.643 0.0753
 0.390 -0.525 0.0377
 0.450 -0.798 0.0188
-0.400  0.474 0.0282
-0.325 -0.419 0.0376
-0.0518 -0.866 0.00937
-0.461  0.163 -3.92e-05
-0.461 -0.835 0.0282
 0.353  0.851  0.113
-0.461 -0.176 -0.00946
 0.419 -0.866 0.00937
 0.334  0.851 -0.0283
 0.450 -0.00657 0.0471
-0.400  0.201 -0.0471
 0.390  0.634 -0.0189
-0.400 -0.298 -0.0283
-0.400 -0.374 -0.0659
 0.174  0.404 -0.0660
-0.461  0.125  0.104
 0.450 -0.525 -0.0283
-0.400  0.700 0.0471
 0.287  0.851 0.0471
 0.450  0.747 -0.0848
 0.450 -0.675 0.0659
-0.250  0.791 -0.0566
 0.165 -0.866 0.0282
-0.268 -0.0190 0.0188
-0.0895  0.851  0.132
-0.400 -0.0913  0.188
-0.461 -0.496 0.0282
-0.0171 -0.722 0.0847
 0.363 -0.866 0.00937
 0.450 -0.355 -0.00946
 0.146 -0.805 -0.00946
-0.410  0.851 0.0282
 0.325  0.851 -0.179
 0.344  0.851 -0.113
 0.451  0.606 -0.160
 0.450 -0.506  0.160
-0.400 -0.120 -0.0848
 0.390 -0.543 -0.113
-0.461  0.832  0.179
 0.450  0.785  0.141
 0.390  0.464 0.0659
-0.400 -0.694  0.170
-0.400 -0.478  0.141
 0.184  0.791  0.179
-0.363  0.851 -0.132
 0.202 -0.805  0.170
 0.450 -0.788 -0.198
 0.268 -0.866  0.104
-0.0171  0.182 0.0753
 0.450 -0.289  0.141
 0.390  0.229  0.160
 0.390  0.201 -0.104
-0.174 -0.866 -0.132
-0.461  0.163  0.132
-0.400 0.0970 -0.122
 0.390  0.549 0.0659
 0.390  0.653 -0.141
 0.390  0.747 -0.170
 0.450  0.511 -0.179
 0.344  0.381 -0.151
 0.325 -0.805 -0.151
-0.461  0.511  0.104
 0.297 -0.866 -0.132
 0.390  0.690 -0.179
 0.450 0.0876 -0.0377
-0.325  0.381 -0.217
-0.461 -0.214 -0.0942
 0.450 -0.176 -0.0942
-0.316  0.404 -0.0942
-0.193  0.852 0.0941
 0.450 -0.0631  0.198
-0.461 -0.562 -0.132
0.0123 -0.0266 -0.160
0.0706  0.791 -0.141
 0.390 -0.383 -0.113
-0.174  0.791 -0.217
-0.278 -0.805 -0.188
 0.390 -0.383 0.0659
 0.445 -0.769  0.225
 0.390  0.238 -0.179
0.0895 -0.0189 -0.216
-0.397  0.376  0.179
0.0237  0.404 -0.160
0.0123  0.783 0.0376
-0.0171 -0.0350 -0.113
 0.450  0.238  0.188
-0.325 -0.419  0.179
 0.353 -0.411  0.225
 0.390  0.446 -0.0659
-0.184 -0.395 -0.188
 0.410 -0.120  0.226
0.00467 -0.866  0.216
-0.0171  0.474  0.113
-0.221 -0.0190 -0.179
-0.0709  0.397  0.225
-0.0801 -0.419 -0.188
 0.344 0.00516 -0.179
 0.297 0.00500 -0.132
-0.0171  0.738  0.188
0.0800 -0.0190  0.188
-0.0171 -0.487 0.0659
-0.353  0.404 -3.72e-05
-0.0171  0.502 -0.0754
-0.316 -0.0190 -0.0660
-0.0171  0.587 -0.00946
 0.334  0.381  0.151
 0.240 -0.419 -0.179
 0.287  0.381  0.141
-0.0171  0.662 -0.170
-0.0171 -0.120  0.113
0.00667 -0.327 -0.179
 0.137  0.404  0.188
 0.202 -0.0190 -0.0942
 0.146  0.404 -0.113
-0.221 -0.0190 -0.104
0.00667  0.342  0.179
 0.202 -0.395 0.0659
 0.250 -0.0190 -0.188
 0.268 0.00483  0.132
-0.306 -0.0190 -0.132
0.0210 0.00797  0.198
-0.0612 0.00483 -0.0283
 0.118 0.00483 -0.122
-0.0171 -0.478 0.00938
0.0518 -0.0190 -0.113
 0.155 -0.395 -0.0659
 0.325  0.381 -0.0377
-0.353 -0.419 0.0753
-0.268  0.381 0.0188
 0.184 -0.0190  0.188
-0.174  0.404  0.113
0.00667 -0.186  0.113
-0.0171 -0.525  0.104
-0.0171 -0.534 0.0565
-0.240  0.381 -0.179
-0.0171  0.285  0.179
0.00667  0.738  0.122
 0.315 -0.419 -0.141
-0.155  0.404 -0.00945
-0.0171 0.0782 -0.113
0.00667 -0.233  0.113
 0.390 -0.431 -2.43e-05
 0.419  0.229 -0.226
 0.450 -0.374  0.198
-0.459 -0.0223 -0.223
0.0211 -0.803 0.0565
0.0612 -0.805 -0.132
-0.250 -0.419  0.188
-0.363  0.404 0.0565
 0.268  0.404 -0.188
 0.438  0.852  0.122
 0.438 -0.865 -0.216
-0.461  0.502 -0.188
-0.400 -0.609  0.216
 0.390 0.0688 -0.188
 0.240  0.832 -0.226
 0.449 -0.751 -0.223
 0.402 -0.486  0.224
-0.461  0.700 -0.188
 0.394 -0.628  0.222
-0.0169 -0.478 -0.217
 0.449 -0.468 -0.223
-0.0171 -0.590  0.216
 0.334  0.851 -0.223
 0.325 -0.419 -0.198
0.0211 0.00747 -0.00946
0.00725  0.455  0.216
-0.391 0.00751 0.0659
-0.0895  0.397 -0.226
0.00667  0.342  0.113
 0.184 -0.411 -0.226
-0.400 -0.760 -0.0659
 0.382 -0.420 -0.0754
 0.165 -0.826  0.225
-0.0118 -0.590 -0.226
0.0149  0.409 -0.110
-0.461  0.848 0.00937
-0.231  0.397  0.225
-0.447  0.851 -0.0754
 0.334  0.381  0.198
-0.278 -0.861 -0.226
 0.451 -0.364  0.113
 0.451  0.163 -0.0377
 0.390 -0.553  0.179
 0.390 -0.543 -0.170
-0.400  0.210 -0.188
-0.400 -0.204  0.170
 0.221 -0.866  0.113
-0.306  0.381  0.113
 0.174 0.00483 0.0753
-0.461 -0.0913 -0.170
 0.240 -0.866 -0.104
-0.461  0.681 0.00938
-0.461 0.0499  0.188
-0.461 -0.0725  0.104
 0.450 -0.223 -0.0189
-0.0171 -0.223 -0.0942
-0.461  0.728 0.0941
 0.450 -0.421 -0.0566
0.0424  0.404  0.151
 0.287 -0.866 -0.0377
 0.287 -0.805 0.00937
 0.450  0.342 -0.0471
-0.0171 -0.110 -0.0754
 0.387 -0.797  0.179
 0.390 -0.0536 -0.188
-0.108  0.791 0.0470
 0.450 -0.0725 -0.122
-0.400 0.0782 -0.0283
0.00471  0.851 -0.0471
0.00667 -0.0913 -0.188
0.00667 -0.741 -0.0848
-0.0989  0.791 -0.0471
-0.461 0.0782 -0.0283
0.0424  0.851 0.0659
 0.450  0.408 -0.132
 0.451  0.775 -0.188
-0.400 -0.364  0.207
-0.461 -0.581  0.170
 0.450  0.295  0.170
-0.461  0.267  0.188
 0.174 -0.0190  0.141
 0.390  0.756 -0.104
 0.450  0.408 -0.198
-0.461 -0.487 -0.179
 0.390  0.163 -0.122
-0.0171 -0.157 -0.132
0.00667 -0.120  0.160
-0.137 -0.395 -0.151
 0.390 -0.619 -0.160
-0.0171  0.568 -0.179
