ply
format ascii 1.0
element vertex 2048
property float x
property float y
property float z
end_header
-0.166 -0.150 -0.560
 0.509  0.460  0.565
-0.481 -0.667  0.543
-0.523  0.430  0.281
 0.492 -0.540  0.441
 0.518  0.459 -0.378
 0.493 -0.684 -0.488
-0.0521 -0.0615  0.568
-0.516  0.462 -0.450
-0.523 -0.238 0.0166
 0.519 -0.150 -0.0968
-0.496 -0.684 -0.483
0.0739  0.462 0.0671
0.0235 -0.399  0.105
0.0109  0.367 -0.560
-0.0942  0.459  0.565
 0.502 -0.0489  0.568
 0.351 -0.0489 -0.560
-0.523 -0.175  0.508
 0.519  0.291  0.105
 0.175 -0.399 -0.324
-0.523 0.0142 -0.349
-0.229 -0.399 -0.235
-0.292  0.462 -0.109
-0.203 -0.399  0.445
-0.405  0.191  0.568
-0.520  0.159 0.00823
-0.513 -0.307 -0.557
 0.213  0.228  0.568
 0.162 -0.364  0.543
 0.376 -0.399  0.130
-0.304  0.203 -0.560
 0.187  0.462 -0.261
 0.512 -0.309 -0.399
 0.519  0.128 -0.311
 0.519 -0.0237  0.231
 0.276  0.462  0.332
-0.203  0.462  0.256
 0.326  0.266 -0.560
-0.523 0.0645  0.307
0.0613 0.0646 -0.560
-0.490 -0.399  0.307
-0.266 -0.399 0.0797
 0.124 -0.238 -0.560
-0.521 -0.307 -0.269
 0.519  0.228  0.395
-0.229  0.462 -0.437
-0.522  0.458  0.563
 0.440  0.462 -0.109
 0.225 -0.0741  0.568
-0.523  0.342 -0.198
 0.519 -0.288  0.344
 0.427 -0.399 -0.147
-0.0773 -0.399 -0.488
-0.0521  0.203  0.568
-0.506  0.462 0.0292
-0.0648  0.462 -0.235
 0.402 -0.300  0.567
-0.317 -0.0489  0.568
 0.313 -0.399 -0.524
 0.150  0.462  0.546
 0.519 0.0898 -0.0590
 0.175 -0.399  0.294
 0.518  0.459  0.277
0.0109 -0.399 -0.135
-0.456 -0.414  0.543
-0.392 -0.0741 -0.560
 0.313  0.462 0.0923
-0.317 -0.399 -0.462
-0.523 -0.162  0.244
-0.523  0.216 -0.475
-0.523 -0.0363 -0.122
0.0361  0.462  0.344
 0.213  0.462 -0.500
 0.512  0.115 -0.560
 0.519 -0.225  0.118
-0.0521 -0.288  0.568
 0.519 -0.0867 -0.412
-0.418 -0.399 -0.0968
-0.304  0.392  0.568
 0.213 -0.399 -0.0590
-0.304 -0.263  0.568
 0.414  0.140  0.568
 0.518  0.355 -0.557
-0.140 -0.399  0.244
-0.496 -0.489 -0.420
-0.523  0.266  0.420
-0.128  0.462 0.0418
-0.523 0.0267  0.534
 0.519  0.279 -0.147
-0.140 0.0520 -0.560
 0.493 -0.490 -0.532
 0.351 -0.399  0.382
-0.523 -0.0237 0.0797
-0.367  0.462 -0.299
0.0109 -0.399  0.420
 0.452 -0.213 -0.560
-0.523  0.266  0.168
-0.468 -0.399  0.105
0.0487  0.462 -0.399
-0.523  0.153 -0.210
0.0992 0.0772  0.568
 0.339  0.380  0.568
-0.367  0.430 -0.560
-0.523 -0.162 -0.437
-0.329  0.462  0.117
-0.367  0.462  0.407
 0.425 -0.683  0.536
 0.238  0.462 -0.0842
-0.216  0.128  0.568
 0.364 -0.399 -0.349
-0.178  0.342 -0.560
-0.153 -0.399 -0.0590
 0.339  0.462 -0.374
-0.329 -0.251 -0.560
 0.512  0.462 0.0545
-0.317 -0.399  0.269
 0.519  0.115  0.118
 0.519 0.0520  0.407
0.0992 -0.399 -0.488
-0.523 0.0394 -0.525
 0.124  0.228 -0.560
 0.263  0.102 -0.560
 0.519 -0.0237 -0.223
 0.519  0.279 -0.399
 0.519 -0.0489 0.0419
 0.376  0.462 -0.549
 0.519  0.279  0.557
-0.523 -0.137 -0.261
0.0613  0.462 -0.122
 0.519 -0.213 -0.261
 0.150  0.462  0.218
-0.00170 -0.399 -0.336
 0.519 -0.200  0.496
0.0235 -0.0993 -0.560
 0.187 -0.0741 -0.560
 0.200 -0.399  0.130
-0.491 -0.539  0.438
 0.493 -0.396 0.00404
 0.414  0.462  0.420
-0.0521  0.191 -0.560
 0.288 -0.225 -0.560
-0.0521  0.462  0.193
-0.140  0.462  0.407
-0.178 -0.162  0.568
0.0739 -0.188  0.568
-0.523  0.317 -0.0338
 0.519 -0.125  0.357
-0.456  0.462 -0.122
-0.0521 -0.263 -0.560
 0.263 -0.225  0.568
0.0739  0.329  0.568
 0.494 -0.377  0.470
-0.516 -0.309  0.433
-0.523  0.304 -0.349
-0.178  0.304  0.568
-0.523 -0.0615  0.395
-0.216  0.462 -0.273
-0.506  0.342 -0.560
 0.288 -0.399 -0.210
 0.477 -0.399  0.244
0.0235 -0.399  0.269
-0.292 0.0394 -0.560
 0.518 -0.0363 -0.557
-0.405 -0.399 -0.299
-0.523 -0.238 -0.135
-0.523  0.453 -0.299
-0.355 -0.399  0.433
-0.498 -0.339 -0.412
 0.276 0.0898  0.568
 0.326  0.462 -0.210
 0.519  0.165  0.256
-0.431 -0.553 -0.535
-0.191 -0.399 -0.387
-0.0774  0.462 -0.475
-0.493  0.317  0.568
 0.301 -0.399  0.521
 0.519  0.443 -0.235
 0.389 -0.137  0.568
-0.203 -0.351 -0.536
 0.519  0.367  0.445
-0.516  0.462  0.420
 0.519 -0.300 -0.0968
-0.523  0.102  0.143
-0.355  0.462  0.256
 0.494 -0.351 -0.261
-0.140  0.462 -0.0969
0.0235  0.462  0.483
 0.519  0.304  0.244
-0.115 -0.399  0.105
 0.420 -0.552 -0.434
 0.389  0.462  0.231
-0.523 -0.276  0.168
 0.351 -0.399 -0.0338
 0.263  0.462  0.470
 0.412 -0.477  0.532
-0.178 -0.0111  0.568
 0.519  0.342 -0.0212
 0.137 -0.399 -0.185
-0.523  0.216  0.294
-0.456 -0.276  0.568
 0.200  0.342 -0.560
 0.376 0.00151  0.568
-0.523  0.128  0.445
-0.279 -0.399 -0.0968
 0.440 -0.364 -0.536
-0.178 -0.317  0.548
-0.468 -0.427 -0.536
-0.418  0.140 -0.560
-0.523  0.153 -0.362
 0.519 -0.162  0.231
 0.288 -0.399  0.231
-0.254  0.462  0.470
-0.523 -0.0993 -0.550
 0.519 0.0772 -0.437
-0.523  0.405  0.155
 0.389 0.0772 -0.560
 0.519  0.304 -0.273
-0.380 0.0645  0.568
 0.452  0.228 -0.560
-0.292 -0.388  0.543
-0.430 -0.112  0.568
-0.523 -0.188  0.382
-0.103 -0.399 -0.223
 0.519  0.216 -0.0338
0.0865  0.203  0.568
-0.178  0.178 -0.560
0.0865  0.462 -0.525
 0.519  0.153  0.496
0.0992 -0.0489  0.568
-0.0774 0.0645  0.568
-0.367  0.462 -0.425
 0.339  0.254  0.568
-0.0521  0.329  0.568
 0.519  0.128 -0.185
0.0865 -0.399 -0.0338
-0.0773 -0.399  0.508
-0.523 -0.112 -0.00857
 0.200  0.462 0.0418
 0.490  0.462 -0.500
 0.493 -0.452 -0.415
-0.424 -0.558  0.539
 0.213 -0.399  0.407
-0.523 -0.0489  0.206
-0.523 -0.137  0.118
 0.402  0.462 0.00402
 0.213 -0.399 -0.437
-0.103 -0.399  0.357
-0.443 -0.188 -0.560
-0.498 -0.377 -0.00857
-0.498 -0.388 -0.185
-0.523  0.203  0.546
 0.200 -0.326 -0.535
-0.0521 -0.399 0.00404
-0.393  0.462 -0.0212
-0.266 -0.0867 -0.560
-0.279  0.241  0.568
0.0361 -0.364  0.543
 0.494 -0.364  0.118
-0.405  0.453  0.568
-0.514 0.0520 -0.0461
-0.523  0.228 -0.122
-0.128  0.462 -0.349
-0.380  0.291 -0.560
-0.380 -0.399 0.0292
 0.519 -0.0237 -0.0842
-0.0143  0.462 -0.0338
-0.203  0.462  0.130
 0.124  0.462  0.420
 0.162  0.462 -0.374
-0.241  0.462 0.0166
-0.0774  0.462  0.307
 0.519 -0.225 -0.00856
 0.516 -0.307  0.564
-0.203  0.453 -0.560
0.0613  0.462 -0.286
-0.498 -0.427  0.422
 0.263  0.462  0.218
 0.519  0.430  0.168
-0.355 -0.399 -0.198
-0.0395 0.00154 -0.560
 0.519 -0.188 -0.462
-0.481  0.460 -0.557
-0.304 -0.399 -0.349
 0.493 -0.396  0.357
 0.402  0.355 -0.560
 0.492 -0.595  0.540
 0.200  0.367  0.568
 0.452  0.367  0.568
-0.405 -0.399  0.206
 0.519 0.00154 -0.349
-0.405 -0.339 -0.536
 0.519  0.191 -0.462
-0.523 -0.276  0.319
-0.523  0.354 -0.450
 0.519 -0.0867  0.458
-0.523 -0.0237 -0.248
 0.519 0.0520  0.534
 0.518  0.459  0.391
0.0992 -0.399  0.181
-0.380  0.317  0.568
-0.523  0.342  0.344
-0.523 -0.238 -0.362
-0.468 -0.590 -0.442
 0.402  0.462  0.546
 0.519  0.392 -0.122
0.0571 -0.317 -0.540
-0.420 -0.417 -0.401
 0.427  0.462  0.130
 0.355 -0.307 -0.557
 0.150  0.128 -0.560
-0.430  0.462  0.143
-0.203 -0.399  0.332
-0.0269  0.462 0.0923
-0.0269 -0.162  0.568
0.0487  0.462  0.168
 0.389 -0.399 -0.450
-0.0773  0.291 -0.560
 0.519 -0.112 -0.311
 0.389 -0.399 -0.248
 0.518 -0.298  0.194
-0.523  0.140 -0.550
 0.518 -0.300 -0.557
-0.0899  0.405 -0.560
 0.440  0.462 -0.299
 0.440 -0.578 -0.536
-0.427 -0.621  0.458
-0.416 -0.477  0.470
-0.523  0.367  0.458
-0.405 0.0394 -0.560
-0.355  0.462 -0.198
 0.301  0.367 -0.560
 0.519  0.355  0.332
-0.468  0.241 -0.560
 0.519  0.367 -0.450
-0.254  0.462  0.344
 0.376 -0.399  0.281
-0.523  0.254 -0.261
 0.519 0.0772  0.307
 0.440 -0.112 -0.560
 0.301 -0.399 0.0545
 0.519 -0.112  0.143
-0.0395  0.462 -0.135
-0.523 -0.0615 -0.450
 0.415 -0.468  0.421
-0.342 -0.162  0.568
-0.523 -0.0741  0.496
-0.216 -0.238 -0.560
-0.523 -0.137 -0.147
-0.523  0.279 0.0671
 0.175  0.462  0.319
0.0992 -0.288  0.568
-0.103 -0.399 -0.324
 0.519 -0.0237  0.332
 0.339  0.462 -0.0842
-0.523 -0.0867 -0.349
-0.0773 -0.0993 -0.560
-0.266 -0.399  0.181
-0.203  0.462  0.557
 0.421 -0.615  0.462
-0.00172  0.418  0.568
0.0613 -0.399 -0.248
 0.288 -0.125 -0.560
-0.279  0.462 -0.349
-0.430  0.462  0.319
-0.292  0.367 -0.560
0.0235 0.0141  0.568
0.0487  0.165 -0.560
 0.124  0.462 -0.0464
0.0109  0.128  0.568
 0.519 -0.137 -0.198
 0.124 -0.399 0.0671
 0.162  0.462 -0.147
 0.175 0.0141  0.568
 0.519  0.216  0.168
 0.427  0.462 -0.425
-0.392 -0.399  0.332
-0.501 -0.325 -0.0968
 0.150 0.0267 -0.560
 0.112 -0.137 -0.560
-0.279 0.0394  0.568
-0.178 -0.0363 -0.560
0.0992 -0.399  0.382
-0.523  0.115 -0.122
 0.238  0.228 -0.560
-0.523 0.0772 -0.437
 0.519  0.216 -0.235
 0.250  0.462 -0.336
 0.301  0.462 -0.462
-0.523  0.304  0.256
0.0361  0.266 -0.560
-0.443  0.462 -0.235
 0.187  0.128  0.568
-0.0143  0.462 -0.549
-0.523  0.418 -0.0716
-0.498 -0.364  0.193
 0.250 -0.317  0.548
-0.523 -0.263 -0.462
-0.523  0.443 -0.185
 0.465 -0.399 -0.336
 0.519 -0.300 0.0544
 0.519 -0.288 -0.198
-0.514 0.0645 0.0542
-0.355 -0.399  0.118
 0.519 0.0646  0.206
 0.326 -0.399 -0.122
 0.440  0.462  0.332
 0.288  0.462 0.00402
-0.523 -0.0741  0.294
 0.263 -0.399 -0.349
 0.263 -0.399  0.319
 0.112  0.367 -0.560
-0.292 -0.399  0.357
0.0109 -0.399 -0.513
 0.175  0.462  0.130
 0.440 -0.389  0.543
-0.115 -0.326 -0.535
-0.496 -0.396 -0.307
 0.238  0.453  0.568
 0.477 -0.162  0.568
 0.364 -0.175 -0.560
-0.496 -0.503  0.540
-0.0648  0.462  0.458
 0.519 0.00154  0.118
 0.238 0.00154 -0.560
 0.519  0.165 0.0419
-0.128  0.153  0.568
-0.523  0.165  0.218
-0.229  0.254 -0.560
-0.0647 -0.399  0.181
-0.0269  0.462 -0.349
 0.150 -0.125  0.568
0.0739 -0.399 -0.387
-0.523  0.102 -0.286
 0.519  0.443 -0.0464
 0.494 -0.465  0.496
 0.519  0.380 -0.336
 0.494 -0.666  0.475
 0.494 -0.377 -0.462
-0.468  0.462 -0.374
-0.430  0.462  0.470
-0.241  0.115 -0.560
-0.317  0.128  0.568
 0.519  0.140  0.370
0.0109 -0.200 -0.560
 0.519 -0.162 0.0545
-0.523  0.140  0.357
 0.519 -0.213  0.407
 0.519 -0.200 -0.349
-0.523 0.0394  0.433
-0.229  0.462 -0.185
 0.519  0.380 0.0923
0.0235  0.462  0.256
-0.523  0.367 0.0545
 0.301 -0.125  0.568
-0.0395  0.102 -0.560
 0.519 0.0772 0.0293
-0.523 0.0394  0.218
-0.317 -0.162 -0.560
 0.339  0.178 -0.560
-0.292 -0.339 -0.536
-0.443 -0.0237  0.568
-0.0773 -0.399 -0.122
 0.213 -0.399 0.0419
-0.501 -0.325 0.0671
-0.191  0.216  0.568
 0.389 -0.399  0.470
-0.523 -0.200 -0.525
 0.440  0.241  0.568
 0.477  0.462  0.483
-0.426 -0.641 -0.513
 0.493 -0.604 -0.452
 0.518 -0.150 -0.557
 0.414 -0.399 0.0419
 0.487 -0.399 -0.0842
 0.519  0.279  0.470
-0.128  0.380  0.568
-0.523  0.178 0.0923
0.0992 -0.399  0.496
 0.412 -0.460 -0.532
-0.166 -0.399 -0.475
 0.440  0.462 -0.210
 0.518 -0.299  0.445
-0.304  0.462 -0.513
-0.418 -0.498 -0.450
-0.506  0.102  0.568
-0.418  0.462 -0.500
-0.292  0.462  0.193
-0.523 0.0645 -0.210
-0.0899 -0.188 -0.560
-0.128 -0.251  0.568
 0.263 0.00151  0.568
 0.519  0.178 -0.109
 0.519 -0.0111 -0.450
-0.266 -0.125  0.568
-0.329  0.462  0.508
 0.519 -0.213  0.307
 0.175 -0.251  0.568
 0.238  0.462 -0.185
 0.213 -0.399 -0.147
-0.329  0.115 -0.560
 0.519  0.266  0.319
-0.241 -0.399 -0.0212
 0.424 -0.662 -0.532
 0.519  0.266 -0.525
-0.468 -0.0363 -0.560
-0.191 -0.399  0.532
-0.367 -0.351  0.543
-0.216  0.380  0.568
-0.523 -0.263  0.521
 0.477 0.0394 -0.560
-0.523 -0.225 -0.261
-0.103  0.462  0.130
 0.263  0.291  0.568
 0.112  0.462 -0.210
 0.313 -0.399 -0.412
-0.166  0.462 -0.488
 0.137  0.279  0.568
0.0361 -0.0993  0.568
-0.166 -0.399 0.0419
 0.519 0.0394 -0.172
 0.519 0.0394 -0.273
-0.523 -0.175 -0.0590
 0.519 -0.0741 -0.147
0.0992 -0.0363 -0.560
-0.115 -0.112  0.568
 0.276  0.178  0.568
 0.452  0.418 -0.560
 0.200 -0.399 -0.235
-0.153  0.462  0.193
 0.519 -0.225 -0.147
 0.225 -0.175 -0.560
-0.128  0.462 -0.185
0.0109 -0.238  0.568
-0.241 -0.213  0.568
-0.498 -0.402 -0.462
-0.498 -0.604  0.496
-0.516 -0.310 -0.185
-0.496 -0.339  0.540
 0.276  0.462 -0.549
-0.496 -0.599 -0.532
 0.503  0.462 -0.160
 0.364  0.462  0.357
-0.0269 -0.399 -0.261
0.0235  0.462 -0.475
-0.523  0.291  0.496
-0.405  0.462 0.0670
 0.175  0.418 -0.560
-0.523  0.291 -0.500
 0.313 -0.399 -0.286
 0.402 -0.399  0.206
 0.339 -0.200  0.568
-0.115 -0.399 -0.412
-0.203 -0.399 -0.122
-0.216  0.462 -0.0716
 0.339  0.462  0.168
-0.523 -0.251  0.244
-0.430  0.462  0.231
 0.175 -0.399 -0.513
 0.175 -0.399  0.206
-0.430  0.367 -0.560
 0.339  0.462  0.496
-0.523  0.405 -0.362
0.0739  0.453  0.568
-0.456  0.392  0.568
 0.490  0.165  0.568
 0.276 -0.311 -0.549
-0.498 -0.490 -0.500
-0.506  0.462  0.206
-0.430 -0.399 -0.223
-0.498 -0.339  0.357
 0.504 -0.315  0.269
 0.519 -0.288 -0.298
 0.416 -0.553  0.508
 0.213 -0.399  0.496
 0.440  0.140 -0.560
-0.403 -0.404 -0.475
 0.493 -0.439  0.423
-0.468 -0.200  0.568
-0.523  0.228 -0.374
-0.430 -0.263 -0.560
 0.364  0.462 -0.286
-0.153  0.462  0.483
-0.523 -0.251 0.0923
0.0992 -0.399 -0.109
-0.523 -0.162 -0.336
 0.519  0.140 -0.387
 0.465  0.462  0.218
 0.519  0.203 -0.324
 0.288 -0.399  0.130
-0.191 -0.399  0.118
 0.225  0.462 -0.425
-0.380  0.462 -0.109
-0.191 -0.0867  0.568
 0.427 -0.0363 -0.560
-0.523  0.241 -0.0464
-0.317  0.462 0.0418
-0.0899 -0.399  0.433
-0.317 -0.399 -0.273
-0.392  0.216 -0.560
-0.292  0.462 -0.261
0.0992 -0.399  0.281
-0.153  0.462  0.332
-0.216 -0.399 -0.311
-0.153 0.0772  0.568
-0.523  0.380  0.534
 0.519  0.367 -0.223
 0.494 -0.528 -0.462
 0.326 -0.307  0.565
 0.519 -0.0867 -0.500
 0.519  0.380  0.534
 0.313  0.453  0.568
-0.0900  0.462 -0.0338
0.0235 -0.399 0.0292
-0.0521 -0.399  0.269
 0.519  0.241 0.0419
 0.519  0.380  0.244
-0.523 -0.200  0.168
-0.153  0.254 -0.560
-0.523  0.342 -0.122
 0.200  0.462  0.420
-0.203  0.462 -0.349
-0.241 -0.162 -0.560
-0.317 -0.399 -0.0212
-0.506 -0.0741  0.568
-0.523  0.405 -0.525
-0.488 -0.673  0.469
 0.413 -0.457 -0.410
-0.501 -0.325  0.269
 0.430 -0.640 -0.454
 0.519 -0.112  0.534
0.0361  0.266  0.568
 0.213 -0.162  0.568
-0.468 0.0772 -0.560
 0.276 -0.399  0.445
 0.301  0.462  0.407
-0.523 0.0142  0.143
-0.216 0.0267 -0.560
 0.440 -0.225  0.568
 0.519 -0.0867 -0.0212
-0.523 0.00153  0.357
 0.519 -0.0237  0.496
-0.329 -0.0237 -0.560
-0.523 -0.0993 -0.0842
 0.519 0.0142 -0.00856
-0.468  0.462 -0.0338
 0.376  0.462 -0.147
0.0235  0.462 -0.223
-0.523 -0.137  0.445
-0.0143 -0.399  0.332
-0.00172  0.462  0.407
-0.254 -0.399 -0.425
 0.376  0.317  0.568
-0.523  0.266 -0.185
-0.241 -0.399  0.269
-0.523  0.380 -0.261
-0.523  0.191 -0.299
-0.523  0.342  0.193
 0.351  0.102  0.568
-0.254 -0.399 -0.500
-0.329  0.462  0.344
 0.493 -0.414 -0.532
-0.435 -0.403  0.395
 0.519 -0.225  0.193
 0.494 -0.388 -0.198
-0.0395 -0.351 -0.536
-0.496 -0.396 -0.0800
 0.364 -0.364  0.543
-0.523 -0.300 -0.0338
-0.523  0.216  0.470
 0.276  0.462 -0.261
 0.519 -0.238 -0.412
 0.452  0.304 -0.560
 0.313  0.462  0.269
 0.519  0.291 -0.0716
 0.124  0.380  0.568
0.0865  0.462  0.294
 0.519 -0.112  0.281
0.0235 -0.399 -0.437
-0.128  0.462 -0.425
-0.523 -0.162 0.0419
 0.519  0.317  0.395
-0.128  0.254  0.568
-0.523  0.216  0.370
-0.128  0.128 -0.560
-0.392 -0.399  0.496
 0.427 -0.399 -0.0464
 0.225 -0.263 -0.560
-0.342 -0.388 -0.535
 0.492 -0.519  0.540
-0.498 -0.478  0.470
 0.512 -0.309 -0.488
-0.523  0.453  0.105
-0.00170 -0.399  0.496
-0.521  0.460  0.344
-0.520 -0.00627 -0.00857
-0.416 -0.481  0.539
 0.435 -0.403  0.395
 0.519  0.405 0.0166
-0.481 -0.399 -0.374
-0.425 -0.628  0.532
 0.465 0.0772  0.568
-0.405 -0.225  0.568
-0.342 -0.399 -0.122
 0.175  0.279 -0.560
-0.430 -0.399  0.269
-0.523  0.140 -0.462
-0.103 -0.326  0.542
 0.150 -0.399 -0.00857
-0.279  0.462  0.281
 0.301  0.462 -0.147
-0.166 -0.399 -0.198
 0.519  0.329  0.181
-0.523  0.140  0.281
 0.137 -0.399 -0.412
-0.241 -0.288  0.568
 0.519 0.0520 -0.500
 0.519  0.128 -0.488
-0.0395 -0.399 0.0797
-0.00170 -0.399  0.206
-0.523 0.00153 -0.185
 0.519 -0.0489  0.168
 0.124  0.462 -0.311
 0.200 0.0772 -0.560
-0.430  0.128  0.568
-0.254 -0.399 -0.172
-0.523 -0.162  0.319
-0.317  0.462 -0.0464
 0.519 -0.0489  0.395
-0.523 -0.0363 -0.513
 0.519 0.0772  0.470
 0.112 -0.399 -0.299
-0.355  0.254  0.568
 0.263  0.291 -0.560
 0.137  0.462 -0.437
 0.213  0.153 -0.560
 0.301 0.0267 -0.560
-0.279  0.462  0.407
-0.254  0.304  0.568
 0.517 -0.217  0.565
-0.521  0.460  0.496
-0.517  0.140 -0.0565
-0.521 -0.307 -0.357
 0.519  0.216  0.534
 0.519  0.178 -0.538
 0.518 -0.225 -0.557
 0.518  0.430 -0.557
-0.424 -0.540  0.441
 0.452 -0.288 -0.560
 0.429 -0.616  0.543
 0.504 -0.315 -0.00857
 0.494 -0.629 -0.524
 0.492 -0.684  0.538
0.0109 -0.307  0.565
 0.440 -0.399  0.105
 0.440 -0.399  0.319
 0.414 -0.516 -0.488
-0.429 -0.683  0.496
-0.521  0.460 -0.122
-0.523 0.0394 -0.109
 0.415 -0.528  0.447
 0.376 -0.388 -0.535
 0.137 -0.351 -0.536
-0.416 -0.465 -0.532
-0.498 -0.339  0.130
-0.140  0.462 -0.549
 0.492 -0.602  0.456
 0.495 -0.389 -0.399
 0.276  0.367  0.568
-0.456  0.462 -0.311
-0.317  0.279 -0.560
-0.481 -0.364 -0.536
 0.238  0.405 -0.560
 0.112  0.462  0.143
-0.523  0.279 -0.437
-0.115  0.462 -0.286
 0.519  0.165  0.433
 0.351  0.191  0.568
-0.380 -0.150 -0.560
-0.380 -0.0615  0.568
 0.440 -0.0111  0.568
-0.0143  0.462 -0.286
0.0992  0.462  0.357
 0.519 -0.162 -0.0212
 0.124  0.140  0.568
-0.342  0.462 -0.362
 0.519  0.241  0.256
-0.266  0.178  0.568
 0.519 0.0646 -0.336
 0.519 -0.263  0.508
 0.187  0.462  0.483
 0.519  0.178  0.105
 0.519 -0.213 -0.0716
-0.0648  0.462 -0.412
-0.254  0.462 0.0797
 0.288 -0.399 -0.00857
 0.519  0.153 -0.0212
-0.523 0.00153 -0.437
-0.0395  0.462 0.0292
-0.136 -0.395 -0.532
-0.493 -0.137  0.568
 0.187  0.462 -0.0212
-0.103 -0.175  0.568
-0.523 -0.0111  0.281
-0.103 -0.0111 -0.560
-0.405 -0.399 -0.0338
-0.0899 0.00153  0.568
 0.238  0.462  0.143
 0.389  0.254 -0.560
 0.519  0.115 -0.248
 0.519  0.216 -0.387
-0.266 -0.399  0.433
-0.292  0.462 -0.450
-0.523 -0.251  0.395
 0.376 0.0142 -0.560
-0.443  0.304 -0.560
 0.364  0.462 -0.475
-0.241 -0.0237  0.568
-0.0395  0.266  0.568
-0.00170 -0.399 -0.0716
 0.503  0.462 -0.311
-0.355  0.355 -0.560
-0.367  0.462  0.193
 0.150  0.216  0.568
-0.367  0.380  0.568
-0.523  0.279  0.357
 0.250 -0.399 -0.513
 0.428 -0.680  0.471
-0.468  0.228  0.568
-0.523  0.203 -0.538
-0.266  0.443 -0.560
 0.487 -0.399  0.181
-0.523  0.115  0.508
 0.225 -0.399  0.244
 0.519 -0.300  0.118
 0.519 0.0394 -0.0969
-0.523 -0.0237  0.458
 0.519 -0.150 -0.387
0.0613 -0.399 -0.172
 0.427  0.462 -0.362
 0.200  0.291  0.568
-0.266  0.462  0.557
 0.519  0.203  0.319
 0.150  0.462 -0.500
 0.519  0.279 -0.210
-0.523 0.0394 -0.286
-0.229  0.462 -0.500
 0.452  0.430  0.568
 0.124  0.462  0.483
-0.523 -0.125  0.382
-0.0648 -0.225  0.568
-0.140 -0.225 -0.560
 0.519 -0.175  0.155
-0.523 -0.188 -0.185
-0.128 -0.399  0.181
 0.452  0.462 -0.0338
-0.0900  0.462  0.370
 0.519 -0.0741 -0.261
0.0487  0.418 -0.560
 0.313 -0.0363  0.568
-0.443 -0.112 -0.560
-0.523 -0.0741 -0.172
0.0235 0.0142 -0.560
-0.523 -0.125  0.193
-0.523 -0.125 -0.488
-0.0143 0.0645  0.568
-0.342  0.443  0.568
-0.355 -0.399 -0.412
 0.402 -0.251 -0.560
 0.263 -0.399 -0.109
 0.250 -0.399  0.181
-0.523  0.354  0.118
 0.162 -0.188 -0.560
 0.162 -0.399  0.445
-0.430  0.279  0.568
 0.175 -0.399  0.357
 0.213  0.462  0.269
-0.166 -0.399  0.395
 0.519  0.216 -0.160
-0.380 -0.213 -0.560
-0.523 0.0772  0.382
-0.523  0.392  0.231
 0.124  0.462 0.0166
0.0109  0.203  0.568
 0.288 -0.0615 -0.560
-0.317 -0.399 0.0419
 0.519 0.0142 0.0545
 0.427  0.462 0.0670
0.0613  0.462  0.420
-0.523 -0.0741 0.0419
 0.519 -0.0867 -0.0842
-0.0521 -0.399 -0.374
 0.351 -0.0867  0.568
-0.0269 -0.150 -0.560
-0.0269  0.462  0.521
-0.523 -0.238 -0.0590
-0.140 -0.399  0.470
-0.523  0.102  0.206
 0.452 -0.399 -0.248
-0.443 0.0645  0.568
-0.203  0.462  0.407
-0.317  0.304  0.568
-0.166 -0.399 -0.261
 0.364  0.462 0.0544
-0.254  0.317 -0.560
-0.433 -0.680 -0.464
-0.241 -0.399  0.496
 0.427  0.462 -0.513
 0.519  0.418  0.344
-0.241 -0.351  0.543
 0.494 -0.339 -0.324
 0.519 -0.238 0.0545
-0.456  0.462 -0.437
 0.519  0.443 -0.450
-0.468  0.462 0.0797
 0.494 -0.351 -0.122
 0.493 -0.419  0.540
 0.494 -0.553 -0.524
-0.516  0.279 -0.560
-0.481  0.165  0.568
 0.465  0.304  0.568
-0.523  0.405  0.370
 0.427 -0.403 -0.387
-0.420 -0.553 -0.475
 0.512  0.462  0.117
 0.494 -0.452 -0.475
-0.490 -0.399  0.370
-0.493 -0.238 -0.560
 0.519 -0.263  0.244
 0.494 -0.364  0.407
 0.494 -0.364 0.0545
-0.468 -0.677 -0.535
-0.0773  0.462 -0.549
 0.364  0.405 -0.560
 0.519 -0.251 -0.488
-0.491 -0.541 -0.535
 0.519  0.115  0.557
-0.430  0.430 -0.560
-0.498 -0.541 -0.450
-0.498 -0.541  0.496
 0.519  0.392 -0.513
 0.494 -0.351  0.319
-0.174 -0.307 -0.557
-0.521  0.266  0.565
 0.162 -0.307  0.565
 0.519  0.443  0.445
-0.363 -0.307 -0.557
-0.451 -0.459  0.419
-0.405 -0.311  0.556
0.0235 -0.276 -0.560
-0.508 -0.315 -0.479
 0.503  0.462 -0.0968
 0.519  0.266  0.193
-0.355  0.462 -0.488
 0.519  0.279 -0.324
-0.329 0.0141  0.568
 0.519  0.329  0.508
 0.313 -0.399  0.294
-0.523  0.203 -0.185
 0.124 0.0772 -0.560
 0.313 -0.399  0.181
 0.519  0.304 -0.450
 0.339  0.102 -0.560
-0.523 0.0772 -0.336
 0.124  0.304 -0.560
 0.162 0.0772  0.568
-0.191 -0.399  0.218
 0.351  0.329 -0.560
-0.128 -0.0741 -0.560
-0.443  0.462 0.0166
 0.150  0.462 0.0797
 0.402 0.0520  0.568
0.0739 -0.399  0.445
0.0487  0.392  0.568
-0.523  0.392 0.00404
0.0487 -0.399 -0.311
0.0487  0.462 0.0166
 0.519  0.291 0.00405
 0.519 -0.0867  0.231
-0.191  0.462 -0.00859
-0.523 -0.0489 -0.299
 0.351 -0.399 0.0292
 0.519 0.00154  0.445
 0.519 -0.150  0.407
 0.519 0.00154  0.281
 0.250  0.462 0.0670
-0.0900  0.462  0.508
-0.0521 -0.399 -0.437
-0.115 -0.0489  0.568
 0.313 0.0267  0.568
-0.418 -0.399  0.130
 0.519  0.329 -0.172
-0.468  0.165 -0.560
-0.418  0.462 -0.185
-0.279 -0.225 -0.560
-0.456  0.462  0.420
-0.191 0.0898 -0.560
 0.187  0.203 -0.560
-0.523  0.392 -0.147
-0.229 -0.399  0.382
-0.355 -0.288  0.568
 0.124 -0.399  0.231
 0.276  0.462 -0.387
-0.178 -0.225  0.568
 0.389  0.405  0.568
 0.124 -0.225  0.568
 0.519  0.342 -0.399
 0.519 -0.0741 0.0923
-0.523 0.0645  0.483
0.0613 -0.175 -0.560
0.0235  0.462  0.117
0.0361  0.462 -0.0590
 0.519 -0.0111 -0.147
-0.523 -0.213 -0.412
 0.376 -0.399 -0.0842
-0.153  0.462 0.0923
-0.0143  0.291 -0.560
0.0739 -0.399  0.130
 0.414 -0.0867  0.568
-0.523 -0.0489  0.130
-0.00172 -0.0363  0.568
 0.519  0.430  0.508
 0.519  0.115  0.181
-0.203  0.462 -0.135
 0.301  0.462 -0.311
 0.351  0.462 -0.0212
 0.519  0.355 0.0419
 0.238 -0.0993 -0.560
-0.342 -0.0993 -0.560
0.0361 -0.399  0.370
 0.519 -0.0489 -0.311
 0.364  0.462  0.117
 0.313  0.317  0.568
-0.153  0.430  0.568
-0.392 -0.399 -0.147
 0.124 -0.399  0.332
-0.355 -0.399 -0.324
-0.523  0.342  0.407
-0.329 -0.399  0.168
 0.213  0.462  0.193
-0.128  0.203 -0.560
 0.288  0.153 -0.560
-0.355 0.0646 -0.560
-0.229 0.0645  0.568
 0.364  0.462  0.294
-0.515 0.0898 0.00405
-0.128 -0.377  0.543
-0.342 -0.399  0.521
-0.498 -0.364 -0.261
0.0655 -0.395 -0.532
-0.456 -0.311 -0.549
-0.523 -0.0110 -0.0726
-0.523 -0.200  0.557
 0.519  0.405 -0.387
 0.419 -0.591 -0.475
 0.124  0.443 -0.560
 0.376 -0.251  0.568
-0.443 -0.351  0.543
-0.521  0.460 -0.387
-0.516  0.462 -0.235
-0.481  0.462  0.294
-0.523 -0.0237  0.557
-0.491 -0.578  0.543
 0.452 -0.510 -0.423
 0.447 -0.571  0.445
-0.468  0.462  0.557
-0.521 -0.307 0.0208
 0.487 -0.364  0.543
-0.516 -0.0111 -0.560
-0.481 -0.641 -0.454
0.0613  0.462 -0.185
 0.213 0.0520  0.568
-0.355 -0.399  0.370
 0.150 -0.399 -0.261
-0.317  0.462  0.445
-0.481 0.0267  0.568
 0.490  0.462 0.00404
0.0613 -0.399  0.218
 0.519 -0.125 0.0166
-0.0143 -0.0615 -0.560
-0.0774  0.462 0.0670
 0.519 -0.125 -0.450
-0.0395 -0.399 -0.160
 0.519  0.380 -0.0590
-0.203  0.462 0.0544
0.0235  0.102 -0.560
 0.519  0.329 -0.109
-0.0269  0.462 -0.450
-0.0395  0.462  0.344
-0.0143  0.462  0.294
-0.0269  0.462 -0.198
-0.0143  0.462  0.155
-0.523  0.216 0.0545
-0.523 -0.0489 -0.387
-0.128 -0.399 0.00404
 0.502  0.342  0.568
-0.523 -0.225  0.483
-0.430 -0.389 -0.536
-0.367  0.153  0.568
-0.166  0.462 -0.223
-0.523  0.342 -0.387
 0.519 0.0394  0.155
 0.427 -0.399 -0.299
 0.124  0.462 -0.109
-0.523 -0.213  0.281
-0.342 -0.225  0.568
-0.166  0.462 -0.387
-0.523 -0.263 -0.223
-0.393  0.462  0.508
-0.140 -0.399 -0.362
 0.313  0.140  0.568
-0.229  0.405 -0.560
 0.519 0.0142  0.370
-0.0774  0.462 -0.324
-0.418  0.462 -0.0716
 0.519  0.405 -0.273
-0.443 -0.399 -0.336
 0.402 -0.326 -0.535
 0.452 -0.311  0.556
-0.521  0.460 -0.0212
-0.521 0.0814 -0.557
-0.468 -0.438 -0.407
-0.468 -0.399  0.218
-0.443 -0.539 -0.430
 0.326  0.453 -0.560
-0.516 -0.299  0.568
 0.175 -0.288 -0.560
 0.477 -0.326 -0.535
-0.490 -0.399 -0.135
-0.128  0.304 -0.560
0.0992  0.462  0.244
0.0866 0.0142 -0.560
 0.465  0.462  0.407
-0.393  0.462 -0.374
 0.276  0.462  0.521
 0.519  0.203  0.218
 0.427  0.462  0.470
 0.519  0.380  0.395
-0.523  0.216  0.181
 0.225 -0.263  0.568
 0.175  0.462 -0.210
 0.150 -0.399 -0.122
 0.250 -0.399  0.370
-0.266  0.354  0.568
 0.427 -0.399  0.155
 0.519  0.317 -0.513
 0.376  0.462 -0.412
 0.339 -0.399 -0.198
-0.241  0.462  0.181
-0.456 0.0267 -0.560
-0.191  0.291 -0.560
 0.389  0.462 -0.223
-0.304  0.462 -0.185
-0.523  0.178 -0.109
-0.153 -0.399 -0.147
-0.115  0.329  0.568
-0.216 -0.399 -0.0716
-0.523 -0.213 -0.311
 0.519  0.128  0.319
-0.153 -0.399 -0.311
 0.519 -0.276  0.395
 0.187 -0.399 -0.374
 0.339 -0.399  0.244
-0.380  0.462  0.458
-0.523  0.405 -0.437
-0.393 0.0141  0.568
 0.427  0.191  0.568
-0.153 -0.399  0.344
-0.342  0.203  0.568
-0.254  0.165 -0.560
 0.402  0.203 -0.560
 0.465 0.0898 -0.560
-0.498 -0.427  0.483
-0.115 -0.399 -0.273
-0.425 -0.616 -0.453
0.0235  0.216 -0.560
-0.191 -0.399 -0.00857
 0.288  0.462 -0.0716
-0.367  0.462 0.0292
-0.0899  0.241 -0.560
-0.523  0.191 -0.0338
0.0487  0.462 -0.336
 0.389  0.462 -0.0716
 0.389 -0.0993 -0.560
-0.523  0.254 0.00404
-0.00172  0.342  0.568
-0.0143 -0.377  0.543
 0.213 -0.0237  0.568
-0.418 -0.162  0.568
 0.288 -0.175  0.568
-0.0395 -0.213 -0.560
-0.523 -0.125  0.521
-0.0395  0.418 -0.560
 0.162 -0.0741  0.568
 0.225 -0.399 -0.00857
-0.523 -0.0489  0.344
0.0992  0.153 -0.560
0.0739  0.462 -0.462
 0.519  0.304 0.0545
-0.0647 -0.399 -0.0464
-0.523 -0.276 -0.412
-0.468  0.462 -0.172
 0.112 -0.288 -0.560
 0.263 -0.399 -0.425
 0.519  0.102  0.420
 0.112 0.0267  0.568
-0.523  0.304 -0.248
-0.203 -0.399 -0.437
 0.440 -0.399 -0.198
-0.380  0.462  0.332
-0.523  0.241 -0.324
 0.288  0.462  0.155
-0.317  0.462 -0.311
 0.162 -0.399 -0.0716
-0.178  0.165  0.568
-0.523 -0.213 -0.475
-0.523 -0.200  0.433
-0.254 -0.399  0.319
0.0865 -0.112  0.568
-0.0647 -0.0489 -0.560
0.0487 -0.399 -0.0842
 0.465 -0.162 -0.560
-0.329 -0.112  0.568
 0.519 -0.137  0.470
 0.276 -0.399 -0.0590
-0.0647 -0.399  0.319
-0.523  0.304 -0.0842
-0.0395  0.140  0.568
-0.0395  0.355 -0.560
-0.392 -0.399 0.0797
-0.254 -0.0363 -0.560
-0.0899 0.0394 -0.560
0.0739  0.128  0.568
-0.0648 -0.125  0.568
-0.103 -0.276 -0.560
-0.140  0.392 -0.560
 0.519  0.228  0.118
 0.490  0.462  0.344
-0.523  0.254  0.118
 0.519  0.355 -0.286
 0.519 0.0520 -0.387
-0.304 -0.399 -0.210
 0.326 -0.399  0.433
 0.150 -0.399  0.143
 0.519 -0.200 -0.210
 0.519 0.0646  0.105
-0.523  0.392 -0.210
-0.418  0.462  0.370
 0.276 -0.276  0.568
-0.229  0.254  0.568
 0.519  0.228  0.483
-0.0143 -0.399  0.155
-0.216 -0.0993 -0.560
-0.523 -0.150 -0.387
-0.140  0.462 -0.0212
-0.0143 -0.399 -0.210
 0.263  0.462  0.281
 0.494 -0.339 -0.172
-0.523  0.317 -0.299
 0.150  0.462  0.370
-0.523 -0.188 -0.122
 0.225  0.462 -0.135
 0.200  0.462 -0.311
 0.225  0.165  0.568
-0.523 -0.300  0.483
-0.490 -0.399  0.155
0.0361  0.462 -0.538
 0.519 -0.300 -0.349
-0.456 -0.503 -0.536
 0.213 -0.351  0.543
-0.523  0.418  0.445
 0.487 -0.399 -0.286
0.0109 -0.339 -0.536
-0.245 -0.317 -0.540
 0.512 0.00152  0.568
-0.0648  0.418  0.568
-0.279 -0.317  0.548
 0.301 -0.399 -0.475
 0.225  0.460 -0.557
 0.493 -0.396 -0.147
-0.523  0.342 -0.513
 0.440 -0.503 -0.536
-0.523 -0.300  0.105
 0.497 -0.325 -0.0590
-0.508 -0.315  0.202
 0.351 -0.399  0.508
 0.263  0.228  0.568
-0.468  0.462 -0.500
 0.364  0.462  0.420
 0.137  0.329  0.568
 0.200  0.418  0.568
-0.523  0.367 -0.0716
-0.191 -0.399  0.269
 0.150  0.462  0.269
 0.225  0.462  0.319
 0.519  0.115  0.231
-0.523  0.128 0.0923
 0.519 -0.300 -0.147
 0.313 -0.399 -0.349
-0.203  0.462  0.344
 0.376 -0.399 -0.299
-0.292  0.462 -0.399
 0.313  0.462  0.218
 0.519 0.00154 -0.500
 0.137 -0.0741 -0.560
 0.213  0.462 -0.374
-0.523  0.191 -0.248
 0.351 -0.399  0.332
-0.329 0.0645  0.568
0.0361  0.317 -0.560
-0.317  0.430 -0.560
 0.288 -0.399 -0.160
 0.427  0.462  0.181
 0.519 0.0772  0.357
-0.153  0.462  0.256
 0.137  0.462 -0.261
 0.364 -0.399 -0.399
 0.519 0.00154 -0.399
 0.519  0.380  0.181
 0.389  0.128 -0.560
 0.263 -0.399 -0.286
 0.389 -0.399 -0.198
-0.456 -0.399 -0.0338
-0.523 -0.137 -0.198
 0.112  0.462 -0.160
 0.427 0.0142 -0.560
-0.0521  0.462  0.407
-0.241 -0.0741  0.568
-0.523 -0.112 -0.437
 0.519 -0.0993  0.407
 0.519 -0.162  0.534
-0.523 -0.162 -0.00857
 0.238 -0.0489 -0.560
0.0739  0.462  0.483
-0.498 -0.377 0.0419
 0.518 -0.0993 -0.557
0.0740  0.216 -0.560
0.0235 -0.399 -0.387
 0.351 -0.399 0.0797
0.0487 -0.0363  0.568
0.0487 -0.399  0.496
-0.00172  0.462 -0.399
0.0739 -0.399 0.0671
 0.213 -0.213  0.568
-0.0900  0.462 -0.0842
-0.115  0.462 -0.235
-0.0521 -0.399 -0.324
0.0740 -0.238 -0.560
 0.430 -0.686 -0.476
-0.304 -0.399 -0.412
-0.523  0.216 -0.425
-0.523 0.0772 -0.387
 0.238  0.462 -0.0212
 0.112 -0.188 -0.560
-0.103  0.462  0.193
-0.506  0.462  0.155
 0.519  0.392 -0.172
-0.166  0.462 -0.273
 0.503  0.304 -0.560
-0.523  0.216  0.420
-0.501 -0.325 -0.311
-0.191 -0.399 -0.524
 0.519 0.0142 -0.549
-0.523  0.453 -0.513
-0.422 -0.578  0.483
-0.523 -0.288 -0.122
-0.413 -0.427  0.433
-0.498 -0.388  0.256
0.0739 -0.395  0.540
 0.519  0.443  0.231
 0.477  0.460 -0.557
-0.292 -0.388 -0.535
 0.519 -0.251 -0.349
 0.162 -0.399  0.508
 0.412 -0.477  0.483
 0.276 -0.364 -0.536
 0.494 -0.339  0.206
 0.440 -0.515  0.543
-0.415 -0.452 -0.462
 0.487 -0.677 -0.535
 0.477 -0.0615 -0.560
 0.456 -0.510  0.431
-0.515 0.0394 0.00405
 0.116 -0.395 -0.532
-0.0605 -0.395 -0.532
-0.498 -0.351  0.445
0.0109  0.462  0.557
 0.503  0.216 -0.560
 0.497 -0.325  0.382
 0.477 -0.652 -0.457
-0.521 -0.307  0.386
 0.494 -0.364 -0.0338
-0.292 -0.300 -0.560
 0.494 -0.641  0.521
-0.523 0.0394 0.0923
-0.416 -0.467 -0.416
 0.409 -0.427 -0.500
-0.517 0.00228 0.0418
-0.481 -0.399 -0.235
 0.490 -0.0993  0.568
 0.490  0.228  0.568
 0.494 -0.553  0.508
 0.301 -0.339  0.543
-0.498 -0.604 -0.475
-0.498 -0.351  0.496
 0.519 -0.137 -0.513
 0.477  0.462 -0.450
 0.477 -0.561 -0.435
 0.502 -0.263  0.568
-0.523 -0.276 -0.324
-0.0689 -0.317 -0.540
 0.512 -0.308  0.509
-0.468 -0.501  0.428
-0.216 -0.288 -0.560
 0.313 -0.188 -0.560
 0.402 -0.200  0.568
-0.266 -0.399 -0.374
 0.519  0.329  0.294
-0.472 -0.632  0.459
 0.519  0.128 0.0671
-0.0395 -0.399  0.370
-0.498 -0.427  0.532
 0.519 -0.150 -0.336
 0.519  0.317  0.445
 0.519  0.279  0.370
 0.519  0.279  0.420
-0.523 0.0645  0.168
 0.364 -0.399 -0.147
 0.413 -0.498 -0.446
-0.523  0.279 -0.122
 0.519 -0.175  0.332
-0.0647 -0.399  0.118
-0.523  0.392 0.0923
 0.519 -0.175 -0.172
-0.0143  0.165 -0.560
-0.523 -0.0993 -0.286
-0.0143 -0.399 -0.462
0.0361 -0.399  0.155
0.0109  0.462  0.193
-0.0900  0.462 -0.160
0.0109  0.462 -0.0969
 0.364  0.443  0.568
 0.519 0.0267  0.496
-0.166  0.354  0.568
 0.162 -0.200  0.568
 0.519 -0.188 -0.298
 0.175 -0.399 -0.462
-0.266 0.0898  0.568
-0.523  0.342  0.281
-0.380 -0.399 -0.235
-0.254  0.462 -0.235
-0.405  0.462  0.269
-0.367 -0.399  0.231
-0.317 -0.399 -0.160
-0.329  0.165 -0.560
-0.279 -0.399 -0.299
-0.216 -0.399  0.155
-0.405  0.462 -0.261
-0.254  0.462 -0.135
-0.254  0.216 -0.560
-0.523  0.140 -0.261
 0.519 0.0772 -0.198
-0.523  0.317  0.155
 0.187  0.462 -0.109
 0.389  0.216  0.568
-0.103  0.165 -0.560
-0.329  0.462 -0.235
-0.329  0.462  0.294
 0.519 0.0394  0.244
-0.523 -0.238  0.193
 0.225  0.462  0.382
-0.418  0.342  0.568
 0.301  0.317 -0.560
 0.402  0.462 -0.324
-0.342 -0.399  0.307
 0.519 -0.225  0.458
 0.519  0.241 -0.298
-0.523  0.178  0.319
 0.519  0.304 -0.362
 0.263 0.0520 -0.560
-0.392  0.102 -0.560
 0.175  0.462 -0.462
 0.162  0.462  0.445
-0.329  0.462  0.168
 0.519 -0.0237 -0.0338
-0.523 -0.188 0.0797
 0.112 -0.399 -0.362
-0.317 -0.399 0.0923
 0.225 -0.399 0.0923
0.0487 -0.150  0.568
0.0235  0.462 0.0544
0.0613 -0.263  0.568
-0.380  0.462  0.105
-0.0899  0.102 -0.560
-0.0899 -0.399 0.0671
 0.421 -0.628 -0.500
-0.423 -0.591 -0.500
0.0866  0.279 -0.560
-0.523 -0.0741 -0.0464
0.0865  0.462 -0.0716
0.0235 -0.0363 -0.560
0.0613 -0.125 -0.560
0.0865  0.462 -0.0212
 0.519 -0.125 -0.0464
-0.00172 -0.125  0.568
0.0613 -0.399 0.00404
-0.00169 0.0520 -0.560
 0.519 -0.188 -0.122
-0.523 -0.150 -0.525
-0.0773 -0.399  0.231
-0.0269  0.228 -0.560
 0.519  0.418 0.0671
-0.523 -0.0993  0.256
-0.128 -0.125 -0.560
 0.519  0.140 -0.0842
-0.0269  0.462  0.231
 0.465  0.462 0.0923
 0.519  0.203 0.0166
-0.481 -0.137 -0.560
 0.389 -0.399 -0.00857
 0.351 -0.125 -0.560
0.0487 -0.399 -0.475
-0.523  0.317 0.0419
 0.519 -0.137  0.105
0.0361  0.165  0.568
-0.523 -0.0237  0.168
-0.254  0.462 -0.0464
-0.279 -0.137 -0.560
 0.519  0.216 -0.0842
 0.519 -0.0615 -0.374
 0.519 -0.0615 -0.462
-0.0521 0.0267  0.568
 0.112 -0.150  0.568
 0.519 -0.200 0.0293
-0.128  0.462  0.533
 0.519 -0.0615  0.521
0.0235  0.462 -0.147
-0.0521  0.462  0.130
 0.519 -0.112 -0.122
 0.200 -0.137 -0.560
 0.200  0.462 0.0923
-0.523 -0.213 -0.0212
-0.342  0.462 -0.00859
 0.519 -0.251 -0.0464
 0.519 -0.0111 -0.286
-0.292  0.462 -0.00859
0.0865  0.462 -0.374
0.0235 -0.399 -0.273
-0.342  0.462 -0.0842
-0.523 0.0267 -0.399
 0.519 -0.188 0.0923
 0.477  0.462 -0.349
-0.418 -0.389  0.543
 0.213  0.462  0.521
0.0992  0.462  0.521
-0.481  0.462  0.382
 0.465  0.178 -0.560
 0.263  0.191 -0.560
 0.238 -0.399 -0.387
 0.465  0.462  0.294
 0.389 -0.399  0.357
-0.355  0.462 -0.147
0.0992 -0.399 -0.437
-0.523 -0.213  0.344
 0.465  0.462  0.155
-0.367 0.0142 -0.560
 0.150  0.418  0.568
 0.519 -0.263  0.307
-0.241  0.462 -0.311
 0.519 -0.251 -0.223
-0.178  0.462  0.294
-0.523  0.165  0.470
-0.0773 -0.399 -0.185
 0.351 0.0520 -0.560
-0.292 -0.0111  0.568
-0.103 -0.288  0.568
-0.523 0.0772 -0.500
-0.103  0.115  0.568
-0.329 -0.399  0.470
-0.266  0.462  0.231
 0.313  0.216  0.568
 0.519  0.254 -0.437
 0.414  0.462 -0.261
-0.317  0.462  0.231
 0.519  0.178 -0.286
 0.225 -0.399 -0.324
-0.229  0.462  0.307
-0.279  0.254 -0.560
-0.523  0.367 -0.336
 0.339 -0.399 -0.450
-0.523  0.165 -0.160
 0.519  0.266  0.143
 0.200 -0.225 -0.560
-0.178  0.462 -0.172
 0.326  0.462 -0.500
 0.376 -0.399  0.420
-0.140 0.0141  0.568
-0.279 -0.399  0.244
 0.137 -0.0111  0.568
0.0739 0.00151  0.568
 0.519  0.165 -0.160
-0.380 -0.399  0.168
 0.519  0.102 -0.147
-0.254 -0.263 -0.560
-0.468  0.462  0.496
-0.498 -0.364 -0.488
 0.519  0.128  0.458
 0.519  0.241 -0.122
 0.364 -0.399  0.181
 0.376  0.462  0.470
 0.490 -0.263 -0.560
-0.342  0.462 -0.538
 0.124  0.462  0.319
 0.519 -0.238  0.370
 0.301 -0.399  0.344
-0.523  0.254  0.319
-0.229  0.462  0.508
 0.519  0.165 -0.425
 0.238  0.342  0.568
 0.326  0.462 -0.261
 0.490  0.392  0.568
 0.519 -0.188  0.269
-0.523 -0.225  0.130
-0.493  0.462 -0.0716
 0.519 -0.188 -0.412
-0.128 -0.399 -0.0968
 0.326  0.462  0.332
 0.519  0.418 -0.0842
 0.213 -0.388 -0.535
-0.498 -0.364 0.0923
 0.440 -0.399  0.269
-0.0647 -0.351  0.543
-0.153 -0.351 -0.536
 0.364 -0.399 -0.488
 0.465 -0.399 0.0545
-0.523  0.317  0.534
-0.523  0.153  0.557
-0.418 -0.516 -0.500
 0.504 -0.315 -0.235
 0.399 -0.404  0.529
-0.468 -0.399 0.0166
 0.519  0.418  0.118
 0.519 -0.276 0.0166
 0.351 -0.351 -0.536
-0.178  0.462  0.521
 0.494 -0.477  0.445
 0.519 -0.263 0.0923
-0.506  0.462  0.256
-0.367 -0.399 -0.500
-0.468 -0.616  0.543
 0.414  0.443 -0.560
 0.465 -0.452  0.543
 0.519 -0.288 -0.437
-0.430  0.462  0.534
-0.516  0.430 -0.560
 0.494 -0.490 -0.437
-0.456 -0.399 -0.185
-0.501 -0.325 -0.223
-0.241 -0.377 -0.536
 0.504 -0.315  0.155
-0.443 -0.515  0.543
 0.490  0.462 -0.261
-0.496 -0.461 -0.532
 0.440 -0.427 -0.536
-0.516 0.0520  0.568
-0.392 -0.399 -0.374
-0.415 -0.452  0.508
 0.313 -0.326 -0.535
-0.517  0.151 0.0501
-0.498 -0.440 -0.437
 0.512 -0.137  0.568
-0.498 -0.641 -0.524
-0.521 -0.0573 -0.557
 0.452 -0.399 -0.00857
-0.498 -0.339 -0.160
-0.0269 -0.317  0.548
-0.506  0.462 -0.336
-0.413 -0.427 -0.513
0.0613 -0.307  0.565
-0.393  0.462 -0.549
-0.523 -0.300  0.244
-0.229  0.430  0.568
 0.497 -0.325 0.0797
-0.523  0.102 -0.0736
 0.452 -0.687 -0.513
-0.523  0.430 -0.475
 0.409 -0.427  0.496
-0.523  0.418  0.557
 0.477 -0.452 -0.536
 0.512  0.462  0.193
 0.493 -0.396  0.281
-0.419 -0.516  0.483
-0.498 -0.339  0.307
-0.428 -0.682 -0.530
-0.506  0.367  0.568
 0.519 -0.200 -0.525
 0.465 -0.687  0.508
-0.501 -0.325 -0.00857
 0.137 -0.395  0.540
 0.422 -0.654  0.508
-0.498 -0.677  0.508
 0.452 -0.450 -0.409
-0.491 -0.389  0.543
-0.493  0.462 -0.273
 0.519 -0.125 -0.273
 0.494 -0.351 -0.387
-0.304  0.317 -0.560
-0.191  0.462 -0.450
-0.304 -0.399  0.420
-0.329  0.342  0.568
-0.128  0.462  0.445
-0.166  0.462  0.155
-0.523  0.304  0.458
-0.266 -0.399 -0.261
 0.326 -0.238  0.568
 0.162  0.329 -0.560
-0.178 -0.399  0.483
-0.178 -0.0867 -0.560
0.0361 0.0520  0.568
-0.523 -0.0111  0.496
0.0235 -0.200  0.568
 0.440  0.462 0.0166
 0.519 0.0898 -0.00859
 0.519  0.279  0.281
 0.487 -0.591 -0.535
-0.498 -0.389 -0.425
 0.402  0.462  0.319
 0.494 -0.415  0.458
 0.519 0.0772 -0.298
 0.326 -0.238 -0.560
-0.203 -0.399 0.0797
-0.254 -0.162  0.568
 0.519  0.165  0.143
-0.523  0.216 -0.0842
0.0992 -0.399 -0.235
-0.0269  0.462 -0.0716
-0.254 -0.399  0.118
 0.112 -0.399  0.118
-0.515  0.102 -0.0338
-0.128 -0.175 -0.560
-0.103  0.462 0.00402
-0.0395 -0.399  0.483
-0.418 -0.399 0.00404
-0.367 -0.0237  0.568
 0.364 -0.0363  0.568
-0.0521 -0.399  0.420
-0.523 0.00153  0.206
-0.0143 -0.399  0.256
0.0866  0.405 -0.560
-0.0269  0.462  0.470
-0.317 -0.0615 -0.560
 0.440 -0.399 -0.0842
 0.175 -0.0363 -0.560
0.0235 -0.399 -0.198
0.0992 -0.0993 -0.560
 0.519 -0.0363 -0.412
0.0235  0.462 -0.299
 0.519 -0.0111  0.181
-0.523 -0.0237  0.407
0.0739  0.279  0.568
-0.523 -0.0867  0.357
 0.519 -0.0489  0.445
 0.519 -0.0867  0.181
0.0740  0.355 -0.560
 0.225  0.462  0.231
-0.418  0.462 -0.450
 0.465  0.462 -0.172
 0.339 -0.0867 -0.560
-0.00172  0.462 0.00405
-0.523 0.0142 -0.475
 0.519 -0.0363  0.105
 0.162  0.178  0.568
 0.414  0.354  0.568
-0.0143 -0.399 -0.0338
 0.326 -0.377  0.543
-0.0899 -0.399 -0.00857
 0.477  0.462  0.256
 0.402  0.462  0.382
-0.468 -0.452  0.543
 0.494 -0.389 -0.500
 0.519  0.140 -0.525
 0.519 0.0898  0.521
 0.519  0.418 -0.311
 0.519  0.266 -0.475
 0.225 -0.399 -0.273
-0.523  0.418 -0.399
 0.250  0.462  0.433
 0.519  0.203  0.269
-0.443  0.178  0.568
 0.225  0.462 -0.248
 0.519  0.216  0.433
-0.418  0.405  0.568
-0.367  0.102  0.568
 0.225  0.279 -0.560
-0.128  0.462 -0.500
-0.523 0.0267  0.395
 0.519 0.0267 -0.311
-0.523 0.0267 -0.248
-0.115 -0.399  0.395
-0.342 -0.200 -0.560
-0.292  0.128 -0.560
-0.203 -0.399 -0.349
-0.523  0.140  0.407
-0.103 -0.399 -0.450
 0.124  0.462 -0.399
 0.250 -0.213 -0.560
 0.519 -0.213  0.231
-0.468  0.462  0.130
 0.339 -0.399  0.143
 0.175 -0.399 -0.160
 0.440 -0.399  0.218
-0.292  0.462  0.130
-0.430 -0.399 -0.135
-0.523  0.291  0.105
-0.498 -0.364 -0.0464
-0.0773 -0.399 -0.286
-0.115  0.216  0.568
-0.367 -0.399 -0.286
 0.250 -0.399 -0.172
 0.519  0.254 -0.248
 0.440  0.342 -0.560
 0.288  0.462 -0.425
-0.523  0.291 -0.387
 0.519 0.0898 -0.399
 0.364  0.462 -0.336
 0.351 -0.399 -0.235
-0.405  0.254 -0.560
-0.241  0.462  0.433
-0.523  0.304  0.395
-0.456 -0.399 -0.299
 0.519  0.191  0.382
 0.238 -0.399  0.281
 0.376  0.462  0.181
-0.103 -0.399  0.143
-0.523 0.0772  0.521
-0.456  0.128 -0.560
 0.519 0.0394  0.319
-0.523  0.418  0.193
-0.523 0.0267  0.256
-0.523 0.0520 -0.147
-0.266 -0.399 -0.135
-0.523 0.0772 -0.248
-0.523  0.418  0.319
-0.523  0.254  0.483
 0.137 -0.263  0.568
-0.203 -0.399 -0.185
-0.203 -0.200 -0.560
-0.481 -0.276 -0.560
 0.465 0.00154 -0.560
 0.519  0.191  0.470
-0.128 -0.399 -0.488
 0.187  0.115 -0.560
 0.213 -0.399  0.168
-0.254 0.0772 -0.560
 0.427  0.102 -0.560
 0.175 -0.364 -0.536
 0.351  0.140 -0.560
-0.292 -0.225  0.568
-0.523  0.291  0.218
-0.166  0.462 -0.336
-0.523 -0.213  0.231
 0.519 -0.125 0.0671
-0.523 -0.125 -0.0464
-0.523 0.0267  0.470
-0.0143 -0.0741  0.568
-0.523  0.266  0.269
-0.266  0.405  0.568
-0.380  0.418  0.568
-0.418  0.241  0.568
-0.523  0.178  0.508
-0.367  0.178 -0.560
-0.523 -0.125 0.0545
0.0109 -0.399 0.0671
-0.0269 -0.399 0.0419
-0.523 0.0772  0.445
 0.376  0.153  0.568
 0.313 0.0646 -0.560
 0.519 0.0898  0.269
-0.523  0.128 -0.500
 0.519  0.178 -0.223
-0.523 -0.251 -0.500
 0.276  0.462 -0.198
-0.103 -0.399 -0.374
 0.414  0.304  0.568
 0.519 0.0394 -0.462
 0.351  0.216 -0.560
-0.304 -0.399  0.319
-0.523 -0.0867 0.0797
 0.313 -0.399 -0.0842
-0.153 -0.399 0.0923
-0.304 -0.150  0.568
-0.153 -0.0615  0.568
 0.519  0.329 0.0923
-0.00169 -0.238 -0.560
-0.00172  0.462  0.332
 0.112 -0.399 0.00404
-0.523 -0.0867  0.218
-0.523  0.165  0.130
-0.0647  0.153 -0.560
 0.124 -0.0867  0.568
-0.0521  0.380  0.568
-0.0648  0.102  0.568
-0.523  0.354 -0.0212
-0.523 -0.0363 -0.349
 0.519  0.304 -0.0338
 0.162  0.462 -0.0590
 0.263 -0.0615  0.568
-0.367 -0.399 -0.0212
-0.523 -0.0615 -0.210
 0.339 -0.137  0.568
 0.175 -0.399 0.0545
 0.427 -0.175 -0.560
 0.288  0.462 0.0544
 0.519 -0.0615  0.357
0.0865  0.462 -0.425
 0.402 -0.0489  0.568
0.0613 -0.399  0.407
 0.519  0.254 -0.0212
-0.292 -0.0111 -0.560
-0.0269  0.462 -0.248
-0.523 -0.150 -0.109
0.0865  0.462 0.0292
-0.203 -0.137 -0.560
-0.140 -0.0237 -0.560
 0.250 -0.399 0.0545
-0.254 -0.399 -0.0590
 0.187 -0.399 -0.0212
 0.519 -0.137  0.319
 0.263 -0.112  0.568
 0.276  0.462 -0.0338
 0.440 -0.175  0.568
 0.250  0.462 0.0166
0.0109  0.462 -0.437
-0.0143 0.00151  0.568
-0.0899 -0.238 -0.560
 0.276  0.462 -0.109
 0.519  0.367  0.130
-0.523 -0.162  0.181
-0.115  0.462  0.294
0.0235 -0.162 -0.560
-0.523 -0.175 -0.299
-0.178  0.462 -0.0464
-0.0143 -0.276  0.568
-0.355  0.462 0.0670
-0.0648  0.462 -0.362
-0.523 -0.0993  0.130
0.0613 -0.399 -0.425
0.0361 -0.399  0.458
0.0613  0.115 -0.560
-0.317 -0.399 -0.0842
 0.519 -0.225 -0.450
 0.519 0.0772 -0.109
-0.523 0.0520  0.130
-0.241  0.462 -0.399
 0.187 -0.399 -0.198
 0.301  0.462  0.483
-0.498 -0.389  0.458
-0.203 -0.276  0.568
-0.241  0.216  0.568
 0.250 -0.399 -0.223
 0.276  0.241 -0.560
-0.523 -0.188  0.470
 0.112  0.191 -0.560
 0.402  0.254  0.568
-0.523 -0.188 -0.248
 0.238 -0.399  0.458
-0.103  0.291  0.568
-0.523 -0.225 -0.172
 0.187 -0.399  0.256
-0.166  0.266  0.568
 0.465  0.380 -0.560
 0.162 0.0646 -0.560
 0.238  0.462 -0.299
-0.523  0.279 -0.311
-0.523  0.418 -0.248
-0.498 -0.339  0.407
 0.351  0.462  0.256
 0.225 -0.399  0.332
 0.477  0.266  0.568
-0.523  0.153 -0.425
 0.288 -0.399  0.407
-0.498 -0.351  0.231
-0.481  0.279  0.568
 0.162 -0.399  0.105
-0.523  0.405 -0.109
-0.380 -0.399 -0.109
 0.519 -0.238 -0.109
-0.523  0.354 -0.160
 0.162  0.165 -0.560
 0.137 -0.399  0.193
-0.523  0.115 -0.374
-0.443 -0.399 -0.261
-0.216  0.329 -0.560
-0.203  0.342  0.568
 0.263  0.140  0.568
-0.279  0.140  0.568
-0.405  0.462 -0.412
-0.523  0.178  0.382
 0.465  0.266 -0.560
-0.498 -0.351 -0.374
-0.266  0.462 -0.525
-0.523  0.443  0.382
-0.498 -0.351 -0.450
 0.238  0.102  0.568
 0.519  0.405 -0.475
-0.523  0.392  0.407
-0.456 -0.225 -0.560
-0.241  0.462  0.269
-0.430 -0.150 -0.560
0.0865 -0.399  0.319
-0.304 -0.399  0.130
-0.115 0.0520  0.568
-0.523 -0.200 -0.349
 0.519 0.0267 -0.0464
-0.523 -0.225 -0.0968
 0.519 -0.288 -0.0338
 0.494 -0.339 -0.450
-0.279  0.462 -0.298
 0.519  0.304  0.332
 0.440  0.462 -0.475
 0.112  0.462 0.0923
 0.512 0.0772  0.568
 0.411 -0.464 -0.488
-0.468  0.462  0.193
-0.498 -0.389  0.407
-0.355 -0.339 -0.536
-0.0143 -0.311 -0.549
-0.498 -0.414 -0.513
-0.496 -0.473  0.426
 0.519  0.418  0.557
-0.456 -0.629 -0.536
 0.263 -0.276 -0.560
-0.501 -0.325 -0.524
 0.419 -0.536 -0.532
-0.443 -0.677  0.543
 0.440 -0.578  0.543
-0.317 -0.311  0.556
 0.440 -0.438  0.414
-0.516  0.462 0.0671
-0.506 -0.200 -0.560
 0.477 -0.399  0.143
 0.200 -0.311  0.556
 0.452 -0.590 -0.442
 0.487 -0.364 -0.535
 0.351 -0.326  0.543
 0.263  0.462 -0.513
-0.0395  0.462  0.557
 0.427 -0.427  0.543
