ply
format ascii 1.0
element vertex 2048
property float x
property float y
property float z
end_header
 0.111 -0.317 0.0215
 0.277  0.923  0.269
-0.503  0.408 0.0210
 0.598  0.285 -0.0246
-0.00116  0.701 -0.286
-0.446 -0.608 -0.164
0.0332 -0.601 -0.467
-0.222 -0.607  0.369
-0.116  0.107  0.308
-0.134  0.146 -0.304
-0.224  0.803  0.231
 0.214 -0.816 -0.0158
 0.162  0.453  0.109
 0.416  0.588 -0.279
 0.214 -0.594  0.352
 0.242 -0.0212 -0.235
-0.242 -0.143 -0.0472
 0.366  0.158  0.258
-0.171 -0.796 0.0327
 0.337 -0.579 -0.271
-0.174  0.385  0.117
-0.134 -0.473 -0.156
0.0414  0.102 0.00395
 0.293  0.301 -0.164
-0.420  0.144 -0.158
 0.407 -0.591 0.0938
 0.388  0.634  0.232
-0.0576 -0.815 -0.266
-0.212  0.650 -0.0329
-0.440 -0.595  0.138
-0.258 -0.588 -0.402
-0.0198 -0.557  0.167
0.0252  0.453 -0.142
-0.395  0.585  0.205
 0.118  0.725  0.114
-0.363  0.290  0.292
0.0519 -0.814  0.206
 0.446 0.0634 -0.0819
 0.224 -0.0795 0.0712
 0.169 -0.558 -0.0601
 0.413  0.455 0.0381
-0.142 -0.347 0.0769
 0.244  0.654 -0.101
-0.225  0.363 -0.204
-0.107  0.589  0.294
-0.0327 -0.0590 -0.170
 0.167  0.578  0.322
-0.223 -0.566 0.0454
 0.146  0.211 -0.321
-0.236 0.00667  0.131
-0.262 -0.736 -0.208
-0.170  0.159 -0.0508
-0.00405 -0.595  0.421
-0.0455 -0.0982 0.0551
 0.158 -0.711 -0.294
 0.275 -0.211 -0.0976
 0.223  0.487 -0.257
-0.00990  0.728 -0.0618
 0.216  0.245  0.129
-0.338  0.254 0.0683
 0.237 -0.706  0.171
-0.414  0.593 -0.0110
 0.282  0.747  0.379
-0.372  0.723  0.357
 0.463  0.416 -0.164
-0.146 -0.742  0.239
0.00650 -0.766 -0.0812
-0.00429  0.253 -0.193
-0.0798 -0.598 -0.301
 0.182  0.139 -0.135
-0.344 -0.716 -0.0195
-0.370  0.490 -0.171
-0.395  0.773  0.142
0.0590 -0.434 -0.157
-0.104 -0.260 -0.106
-0.0717  0.712  0.153
-0.0970  0.213  0.120
 0.290  0.797  0.129
-0.00167  0.502 0.0393
 0.325  0.439  0.199
-0.204 -0.183  0.130
 0.408  0.251 -0.0309
 0.310 -0.670 -0.0915
 0.591  0.467 0.00176
-0.420  0.315 -0.219
 0.132 -0.0634 -0.0969
 0.138  0.800  0.286
-0.299 -0.701  0.155
 0.209 -0.586 -0.405
-0.301  0.498 0.0852
-0.287 -0.565 -0.212
 0.508  0.335  0.115
-0.106  0.316 -0.0729
 0.211  0.337 -0.0209
-0.336  0.347 -0.0717
-0.135  0.550  0.130
 0.321 -0.0457 -0.0866
 0.245 0.0808  0.110
-0.425  0.384  0.166
0.0693  0.551 -0.275
-0.251  0.166  0.179
0.0804 -0.579 -0.235
 0.130 -0.559 0.0990
 0.318  0.711 -0.320
-0.353 -0.588  0.277
-0.232  0.497 -0.0786
-0.0925 0.0554 0.0836
-0.275  0.216 -0.171
 0.130 -0.816 -0.168
 0.335 -0.602  0.238
 0.236  0.650  0.191
 0.101  0.680 -0.168
-0.264 0.0361 -0.0273
-0.139 -0.795 -0.132
-0.197 -0.595  0.207
-0.367 -0.559 -0.0157
-0.241  0.707  0.109
 0.436 0.0781 -0.236
 0.111 -0.251 -0.118
0.0122 -0.426 0.0903
-0.00418 -0.697  0.304
-0.0185 -0.775 0.0755
0.0308  0.106  0.157
-0.165 -0.128 -0.188
 0.366  0.784  0.259
0.00703 -0.709 -0.349
0.0966 -0.147 0.0358
-0.228 -0.288 -0.0286
 0.310  0.110 -0.0533
 0.111 -0.0991 -0.238
-0.0805 -0.561  0.301
0.0666  0.606 -0.0375
-0.297  0.431  0.213
-0.101 0.0636 -0.139
-0.0301 -0.263 0.0173
0.0607  0.537  0.164
 0.353  0.561 -0.0895
-0.266  0.672  0.271
 0.134  0.277 -0.166
 0.123 -0.582  0.239
-0.168 -0.708 -0.318
-0.0561  0.602 -0.110
 0.145  0.868  0.162
 0.211 -0.346 -0.0731
 0.421 -0.595 -0.0536
 0.270 -0.567 0.0949
-0.118 -0.491 0.0951
 0.293  0.575 -0.339
 0.165 -0.814  0.125
-0.128 -0.617 -0.435
-0.0471  0.432  0.147
-0.256  0.303  0.193
-0.259 -0.815 -0.0725
-0.303  0.171 -0.0361
0.0469  0.245 -0.0701
-0.310 -0.560  0.147
 0.127  0.449  0.237
 0.251 -0.573 -0.170
 0.301 -0.688 0.0497
-0.367 -0.596 -0.313
-0.356  0.477 -0.0386
 0.134 -0.445 -0.00179
-0.397 0.0754 -0.0482
 0.283  0.505 0.0941
 0.136 -0.714  0.253
 0.374  0.373 -0.0593
-0.289 0.0899 -0.146
-0.258  0.594  0.168
 0.313  0.613 -0.207
-0.183 -0.406 -0.0562
 0.326  0.413 -0.217
-0.366  0.655  0.102
-0.121  0.189 -0.164
 0.232 -0.741 -0.167
 0.503  0.381 -0.0503
-0.0917  0.689 -0.193
-0.139  0.733 0.0406
0.0833 0.0509 -0.102
0.0912 -0.618 -0.358
 0.222  0.521  0.201
 0.329 0.0748 -0.171
 0.239  0.172  0.226
-0.0152 -0.345 -0.0985
-0.435  0.275 -0.0873
 0.246  0.218 -0.251
-0.202 -0.551 -0.0912
-0.386  0.363 0.0427
-0.0316 -0.513 -0.207
 0.235  0.366  0.150
-0.227 0.0762  0.256
 0.215  0.392 -0.159
 0.342  0.181  0.143
 0.243  0.748  0.260
-0.418  0.721  0.247
-0.184 -0.816  0.154
-0.194 -0.568 -0.292
-0.342 -0.687 -0.137
0.0670  0.790 -0.253
-0.0484  0.151 -0.0518
-0.0977 0.0591  0.200
 0.288 -0.571 -0.0350
 0.426  0.618 -0.158
 0.105 -0.575  0.387
-0.0332  0.644 0.0142
-0.229  0.293 0.0774
0.0563 -0.799 -0.265
-0.0865 -0.140 -0.105
-0.457  0.465 -0.100
 0.384 -0.574 -0.160
-0.473 -0.596 -0.0355
-0.0611 -0.816  0.204
-0.171  0.273 -0.247
 0.177 -0.227 0.0332
-0.329  0.847  0.194
-0.0394  0.341 -0.254
0.0756 -0.777 0.0150
-0.453  0.509 0.0516
-0.377  0.274  0.171
0.00422 -0.168 -0.0292
-0.214  0.261 -0.0425
 0.488  0.238 0.0631
 0.367  0.542  0.157
0.0385  0.337 -0.134
-0.270 -0.754 0.0603
 0.299  0.665  0.306
-0.197  0.125 -0.212
 0.235 -0.617 -0.283
 0.234 -0.561  0.251
-0.176  0.663  0.184
-0.129  0.752  0.243
-0.154  0.584 0.0287
 0.136  0.613  0.181
 0.349  0.506 -0.268
-0.108 -0.613  0.403
 0.496  0.265 -0.0899
-0.0324 -0.559 -0.387
0.0250 -0.575  0.280
 0.179  0.644 0.0855
 0.420  0.395  0.125
-0.181  0.288 -0.143
 0.235  0.556 -0.167
0.0175  0.744 -0.161
-0.300 -0.595 -0.109
 0.316  0.660  0.125
-0.157 -0.768 -0.234
 0.226 -0.0711 -0.141
-0.165  0.119  0.146
-0.0985 -0.339 -0.0376
 0.307  0.835  0.332
 0.194  0.777  0.165
 0.186 0.0404 -0.102
-0.316  0.723  0.198
0.0904  0.700 -0.0674
-0.145 -0.568 -0.204
0.0903  0.467 -0.218
-0.126 -0.652  0.302
-0.0141  0.447 -0.235
 0.118 -0.374 -0.0995
-0.192 -0.0796  0.104
 0.413  0.465 -0.0698
-0.357 -0.651 0.0553
 0.444  0.331 0.0166
 0.233  0.229 -0.130
 0.137  0.654 -0.257
 0.242  0.515  0.298
-0.371  0.240 -0.158
-0.177 -0.246 0.0591
0.0686  0.537 -0.115
-0.249  0.591 0.0698
0.0744  0.149 -0.0921
 0.395  0.149 -0.0847
-0.366  0.648  0.288
-0.265 -0.658 -0.268
-0.106 -0.383 -0.127
-0.172  0.773  0.129
-0.181 -0.431 0.0388
-0.210 -0.0519 -0.0286
 0.194 -0.596  0.163
-0.0994 -0.0316 -0.104
 0.105 -0.520 -0.156
0.0451 -0.261 -0.0438
 0.113 -0.790 -0.0737
0.0155 -0.348 0.0280
-0.0970  0.491 0.0504
-0.399  0.564  0.111
 0.207 -0.318 0.0251
 0.106  0.739  0.219
-0.133  0.300 0.0983
-0.0712  0.158 0.0460
 0.255 -0.746 -0.0729
 0.239  0.838  0.228
 0.583  0.404 0.0728
 0.266 -0.661 -0.204
-0.366 -0.617 -0.216
-0.280  0.355  0.269
-0.314  0.524  0.216
-0.0814 -0.184 0.0211
-0.226 -0.815 -0.162
 0.106 -0.165 -0.0798
-0.252 -0.617  0.280
-0.444  0.387  0.258
-0.0863 -0.767 -0.0595
 0.328  0.711  0.214
-0.0518 -0.788 -0.164
 0.431 0.00450 -0.179
 0.129  0.205 -0.229
 0.286  0.366 -0.0866
0.0844 -0.0301 -0.182
 0.323  0.526 -0.170
-0.0547 -0.0140 0.0191
 0.170 -0.595 -0.207
0.0161  0.645 -0.146
0.0709  0.467  0.106
 0.376  0.644 -0.340
-0.233  0.724 0.0195
-0.313  0.260 -0.0555
-0.0521  0.219 -0.114
-0.124  0.634 0.0978
 0.348 -0.562 0.0317
0.0329  0.151 0.0792
-0.0768 -0.732 -0.326
-0.147 -0.559 -0.368
0.0753 -0.798  0.102
 0.239 -0.748 0.0691
-0.217  0.178 -0.290
 0.200 -0.655  0.234
-0.183  0.474  0.113
-0.246 -0.688  0.225
-0.279 -0.564 -0.319
-0.189 -0.500 -0.0155
-0.0841  0.265 -0.230
 0.305  0.216  0.287
-0.285  0.310 -0.133
 0.149 -0.558 -0.331
 0.397  0.361 -0.149
0.0465 -0.505  0.108
 0.197  0.283 -0.323
-0.126  0.662 -0.0261
-0.318  0.369  0.155
0.0451 -0.795 -0.165
 0.532  0.229 -0.0163
-0.0257  0.523 -0.131
 0.275 -0.128 -0.0700
 0.125 -0.758  0.179
-0.114  0.676  0.298
 0.193 -0.572 0.0217
-0.0895 -0.796  0.120
-0.106  0.126 -0.223
-0.443  0.326 -0.00975
-0.0276  0.169  0.146
 0.292 -0.617  0.165
-0.375 -0.559 0.0699
-0.241  0.502 0.00682
 0.214  0.287 -0.196
 0.225 0.00494 0.0572
-0.159  0.840  0.190
 0.137  0.529  0.209
 0.195 -0.0917 -0.225
-0.122  0.592  0.210
-0.0667 -0.376 0.0511
 0.613  0.367 -0.00909
 0.268  0.573 -0.0910
-0.194 -0.574  0.125
 0.249  0.454  0.152
 0.275  0.489 -0.324
-0.0417 -0.642 -0.365
-0.0809  0.512  0.183
 0.195  0.300 -0.0950
 0.554  0.383 -0.117
-0.310  0.520 -0.121
 0.260  0.162  0.139
0.0140 -0.177 0.0536
-0.0411 -0.212 -0.132
-0.291  0.647  0.347
-0.293 -0.748 -0.107
-0.344  0.123 -0.199
-0.380  0.470 0.0518
-0.433 -0.617 0.0510
 0.292 0.0316 -0.0748
-0.256 -0.576 -0.0303
0.0343 -0.598 -0.302
-0.168 -0.790 -0.0543
-0.230 -0.748  0.165
-0.0481 -0.616 -0.457
 0.158 -0.754 -0.215
 0.178 -0.128 0.0231
-0.200  0.131  0.312
-0.237 0.0840  0.162
-0.0700 -0.736  0.270
0.0830 -0.630  0.297
-0.109 -0.556  0.144
 0.113 -0.607 -0.448
-0.288 -0.622  0.201
-0.0924 -0.592  0.227
0.0686 -0.573  0.179
 0.347  0.194 -0.0366
-0.393 -0.574  0.201
-0.0447  0.300 -0.124
0.0882 -0.697 -0.338
 0.275 -0.608  0.302
 0.119 -0.457 -0.107
 0.521  0.423 0.0247
 0.288 -0.581 -0.336
-0.341  0.119 -0.0861
0.0853 -0.447 0.0626
-0.364 -0.651 -0.0630
-0.169 -0.111 -0.110
 0.293  0.534  0.240
-0.405  0.373 -0.103
-0.265 -0.815 0.00687
0.0247  0.510 -0.203
-0.347  0.283 -0.222
0.0151 -0.752  0.240
 0.226 -0.272 -0.0497
-0.309 -0.595 0.0258
 0.301  0.629  0.231
-0.130 -0.637 -0.348
 0.404 0.0820 -0.146
-0.308  0.607  0.252
-0.357 -0.558 -0.149
-0.210  0.708  0.313
-0.0416  0.501  0.107
-0.0432 -0.496  0.117
 0.231  0.603 -0.229
-0.307  0.284  0.137
 0.394  0.451 -0.175
0.0325  0.686 -0.217
-0.415  0.314  0.240
0.00572 -0.617  0.347
-0.322  0.721  0.293
-0.159  0.111  0.242
 0.320 -0.617 -0.168
-0.345  0.353  0.226
-0.0168 0.0925 0.0685
-0.00680  0.642 -0.0587
0.0217  0.294 -0.260
 0.126  0.544 -0.224
 0.349 -0.617 -0.0253
 0.249  0.723  0.166
0.0994  0.815  0.217
-0.327  0.582  0.129
-0.366 -0.617  0.137
0.0627 -0.564 -0.407
 0.305  0.242  0.115
-0.233  0.708  0.212
-0.0232 -0.440 -0.185
 0.314  0.198  0.212
 0.348 -0.569  0.146
-0.176 -0.560  0.272
-0.0611 -0.765 0.0128
-0.311  0.802  0.135
-0.0107  0.766 -0.248
 0.411  0.702  0.206
-0.00386 -0.755 -0.283
0.0529 -0.336 -0.0512
 0.265  0.456  0.243
-0.204 -0.617 -0.350
-0.197 -0.223 -0.0503
 0.320 -0.558 -0.121
-0.340  0.542 -0.00283
-0.188  0.187 -0.130
 0.350  0.715  0.375
-0.248  0.109 -0.0365
 0.338  0.593 -0.282
-0.172 -0.340 -0.0206
 0.175  0.682 -0.155
 0.471  0.350 -0.111
0.0845 -0.108 -0.0357
-0.198  0.641 0.0993
0.0426 -0.500 -0.191
-0.119  0.204 -0.0825
 0.245  0.873  0.315
-0.313  0.727  0.107
-0.137 -0.194 -0.101
 0.183  0.627  0.237
 0.214 -0.710 -0.246
 0.156 -0.0529 -0.166
 0.179 -0.577 -0.136
-0.383  0.398 -0.0367
 0.169 -0.816 0.0514
 0.177 -0.562  0.298
 0.208  0.843  0.133
 0.198 -0.802 -0.143
-0.403  0.299 0.0719
-0.355 0.0618 -0.140
-0.0328  0.437 0.0732
 0.215  0.717  0.319
 0.285  0.523 -0.231
-0.147  0.341 -0.247
 0.359 -0.617 -0.102
-0.107  0.476  0.126
-0.289 -0.562  0.250
0.0654 -0.707  0.288
 0.281 -0.672  0.120
0.0947  0.635 -0.0995
 0.174  0.452  0.180
-0.109  0.118 -0.0316
 0.140 -0.523 0.0170
 0.213  0.575  0.155
-0.239 -0.803  0.103
 0.181  0.249 -0.255
-0.502  0.366 -0.0370
-0.142  0.269 -0.0328
-0.319  0.776  0.246
 0.113 -0.297 -0.0637
0.0917  0.459  0.174
 0.290  0.511  0.172
 0.297 -0.714 -0.0242
0.0917 -0.558  0.299
-0.105  0.142  0.107
 0.345  0.644 -0.151
0.00536 -0.567 -0.236
-0.112  0.274 -0.131
 0.103 -0.210 -0.0246
 0.172  0.761  0.235
-0.259  0.140 -0.106
 0.466  0.377 0.0739
-0.235  0.234  0.165
 0.181 -0.405 -0.0484
 0.187  0.724 0.0994
 0.453  0.420 -0.0175
 0.195 -0.751  0.135
-0.188  0.617  0.235
-0.204 -0.313 0.0720
 0.139 -0.617  0.337
-0.260 -0.599  0.117
0.0500 -0.371 -0.116
-0.166 -0.568  0.356
-0.344  0.309 0.0260
 0.336  0.144 -0.121
-0.195 -0.580 -0.430
-0.313 -0.614 -0.353
-0.378  0.311 -0.119
-0.211  0.230 -0.192
0.0248 -0.617 -0.378
-0.137  0.708  0.131
-0.210 -0.731 -0.268
 0.502  0.294 0.0117
0.0690  0.277 -0.189
 0.130  0.812  0.125
 0.228  0.554 -0.330
 0.162 -0.280 -0.00992
 0.337  0.482  0.131
-0.122  0.131 -0.128
-0.169 -0.528 0.0646
-0.415  0.490 -0.00552
 0.156 -0.00461 -0.0599
-0.209  0.535  0.129
 0.287  0.809  0.266
-0.0132 -0.799  0.139
-0.0360  0.688 -0.153
 0.263 -0.558  0.184
0.0818 -0.0181 -0.0959
-0.176 -0.488 -0.105
 0.279  0.679  0.374
 0.125  0.724 -0.121
 0.260  0.224  0.179
 0.379  0.601 -0.216
-0.424 -0.567 -0.0734
-0.0979 -0.520 -0.195
 0.414 -0.611 0.0119
0.0924  0.550  0.106
-0.162  0.650 0.0373
-0.135 -0.801  0.199
 0.419  0.319 -0.0447
 0.216  0.492 0.0982
 0.191  0.222 -0.182
-0.0323 -0.382 -0.153
-0.0193  0.130 0.00567
 0.107  0.494 -0.159
 0.179 -0.730  0.205
 0.376 -0.604 -0.224
-0.0643  0.678 -0.0457
-0.335 -0.714 0.0575
 0.262 -0.560 -0.263
-0.0623 -0.564  0.365
 0.148 -0.802 -0.0188
-0.277  0.761 0.0639
-0.331  0.511  0.143
 0.263 -0.617  0.232
-0.306 -0.601  0.320
 0.214 -0.564 -0.329
 0.378  0.499  0.206
-0.299  0.474 -0.0751
-0.0777  0.614  0.140
-0.362  0.676  0.202
0.00607 -0.762 -0.0157
 0.419  0.399 -0.100
 0.483 0.0698 -0.191
 0.273 -0.582 0.0280
 0.274  0.418 -0.124
-0.410  0.677  0.326
0.0341  0.406 -0.0968
 0.367  0.223  0.267
0.0547  0.702 -0.127
-0.126 -0.372 0.0123
 0.350  0.639  0.176
-0.226 -0.565  0.314
-0.192  0.746  0.263
0.0852  0.483 -0.281
-0.198 -0.596 -0.229
 0.273  0.582 -0.273
-0.0791 -0.572 -0.241
-0.376  0.559 0.0480
 0.170 -0.573 -0.267
 0.305  0.142  0.242
-0.00373 -0.318 -0.0257
 0.212  0.383 0.0241
0.0320  0.588 -0.0990
 0.199  0.557  0.271
 0.275  0.335 -0.0156
-0.226  0.303 -0.234
 0.379  0.713 -0.298
-0.123 -0.408 0.0728
-0.407 -0.595 -0.260
-0.183 0.0748  0.195
 0.170  0.660  0.153
-0.162  0.599  0.160
 0.205  0.620 -0.138
 0.260  0.676  0.257
-0.118 -0.816 -0.216
-0.110 -0.781 0.0612
-0.00904  0.341 -0.0903
-0.259  0.656 0.0736
 0.269  0.567  0.191
 0.101 -0.816  0.165
 0.293  0.365 -0.192
 0.328  0.479 -0.214
 0.348 -0.561 -0.0634
 0.393  0.690  0.266
-0.140 -0.299 -0.0649
 0.284  0.757  0.209
-0.374  0.476 -0.0994
-0.281 -0.755 -0.0453
-0.116 -0.107 -0.150
-0.175 0.0727  0.316
 0.190 -0.0220 -0.111
 0.267  0.611 -0.143
-0.0466  0.599 -0.0351
 0.198 -0.586 0.0829
-0.158  0.728  0.193
-0.159  0.162 -0.245
-0.333  0.609  0.186
 0.121  0.500  0.137
 0.362 0.0808 -0.0987
 0.340 -0.617 0.0606
 0.206 -0.816 -0.0825
-0.219 -0.136 0.0916
-0.480  0.355 0.0442
-0.277  0.723  0.335
-0.395  0.753  0.308
0.0835 -0.747 -0.286
 0.107 -0.507 0.0673
-0.0689 -0.322 0.0143
-0.252  0.116  0.216
-0.385 -0.617 -0.00618
-0.196 -0.643  0.270
-0.0731 -0.115 0.00247
 0.199  0.792  0.293
 0.137 -0.661 -0.325
-0.203 -0.242  0.115
-0.0393  0.494 -0.183
 0.183  0.497  0.243
-0.340  0.311 0.0896
0.00240  0.314 -0.183
-0.346 -0.562 -0.234
 0.349  0.580 -0.156
0.0500 -0.565  0.361
-0.369  0.334  0.152
-0.0681  0.170 -0.204
-0.128 -0.777 -0.00632
-0.245 -0.757 -0.153
 0.110 -0.806 -0.236
-0.259 -0.573  0.179
-0.418  0.247 -0.196
 0.101 -0.377 0.0120
-0.378  0.811  0.191
-0.450  0.387 -0.0141
 0.135 -0.343 -0.0298
 0.547  0.372 -0.00974
0.0156 -0.813 -0.215
-0.132 -0.747 -0.285
 0.371 0.0318 -0.154
 0.375  0.453 -0.00910
0.0423  0.311 -0.0788
-0.211 -0.572 -0.148
 0.320  0.714  0.274
-0.0481 -0.419 0.0889
-0.342  0.441 0.00815
-0.282  0.372  0.211
 0.267  0.266 -0.216
-0.0513 -0.618  0.327
 0.153 -0.621  0.275
-0.202 -0.814 -0.107
-0.350 -0.562 -0.0734
-0.196 -0.709  0.252
-0.347 -0.617  0.213
 0.141 -0.538 -0.110
-0.278  0.256 0.0651
-0.0639 -0.186 -0.0738
-0.410 -0.573 -0.205
 0.254 -0.0767 -0.216
 0.297  0.641 -0.258
-0.148 -0.805  0.101
 0.117  0.676 0.0791
-0.315  0.261 -0.148
-0.0724 0.0959 0.0445
 0.220  0.635  0.128
-0.252  0.730  0.265
0.0216  0.268 -0.119
-0.224  0.640 0.0286
-0.168  0.317 -0.197
0.0357 -0.290 0.00829
-0.377  0.509  0.105
0.0549 -0.233 0.00766
-0.201  0.772  0.186
-0.0711 -0.264 -0.0253
-0.297 -0.681 -0.224
-0.257  0.326  0.138
-0.0227 -0.593 -0.287
-0.311 -0.597 -0.0348
 0.575  0.263 -0.0743
 0.207  0.356 -0.111
 0.331  0.619 -0.369
 0.106 -0.124 -0.122
 0.195  0.507  0.333
-0.192 0.0433  0.144
 0.286  0.718  0.328
 0.204  0.209 -0.319
-0.0599  0.284 -0.180
 0.120 -0.565 -0.393
0.0511 -0.112 0.0236
 0.400  0.398 -0.00589
-0.0228 -0.560  0.310
-0.0733 -0.759 -0.274
 0.121 -0.257 0.0250
 0.128  0.771  0.167
 0.146 -0.177 0.0305
-0.0895 -0.0542 0.0426
-0.265  0.716  0.161
-0.347  0.663  0.348
 0.187 -0.661 -0.292
0.0320  0.510  0.102
 0.206 -0.617  0.299
 0.225 -0.617 -0.359
0.0920 -0.560 -0.341
 0.224  0.176 -0.149
-0.0355 -0.593  0.236
-0.149  0.630  0.297
0.0618 -0.167 -0.0268
 0.347  0.666 -0.289
 0.470  0.277 -0.0332
-0.174  0.607 -0.0356
-0.0800 -0.566 -0.419
-0.247 -0.0186 -0.0573
-0.0399 0.0256 0.0580
-0.335 -0.661  0.117
 0.142 -0.597  0.186
0.0541  0.737 -0.272
-0.137 -0.617  0.347
 0.457  0.599 -0.241
-0.0271 -0.202 0.0201
 0.115 -0.797 0.0537
 0.490  0.379 0.00689
 0.328 -0.563 -0.187
-0.219 -0.813 -0.0313
0.0330  0.744 -0.219
-0.402  0.370  0.223
0.0725 -0.617  0.366
-0.0355  0.677 -0.209
0.0850  0.657 -0.233
-0.0315  0.275 -0.249
 0.179 -0.562  0.235
 0.587  0.239 0.00756
-0.261  0.537 0.0564
-0.0287 -0.146 0.0288
 0.352  0.349 -0.116
 0.132 -0.216 -0.0787
-0.448  0.535 -0.0108
 0.191  0.818  0.206
-0.160 -0.286 0.0974
-0.350  0.605 0.0804
-0.204  0.131  0.185
 0.292 -0.617 -0.292
 0.509  0.344 0.0589
-0.157  0.135 -0.173
 0.326  0.562 -0.234
-0.152  0.577  0.261
0.0548  0.100 0.0686
0.0894  0.320 -0.158
-0.144  0.247  0.115
-0.321  0.675  0.258
 0.224 -0.0645 -0.267
 0.316 -0.661 0.00249
 0.480 0.0255 -0.156
-0.186  0.131 -0.287
-0.198 -0.0503  0.152
 0.214  0.690  0.224
-0.223 -0.816 0.0510
-0.280  0.559  0.109
-0.0260  0.141 0.0974
-0.397 0.0929 -0.164
-0.0835 -0.564 -0.345
 0.228  0.766  0.209
-0.128  0.353  0.122
-0.364  0.607  0.247
-0.158 -0.433 -0.0979
-0.176  0.692 -0.0270
0.0467 -0.596  0.233
 0.262  0.334 -0.126
 0.275 -0.578 -0.0934
0.0736 -0.784 -0.113
-0.0417 -0.766  0.221
 0.368 -0.601  0.187
-0.123  0.252 -0.192
-0.138 0.0658  0.275
 0.109 -0.0533 -0.0473
-0.232 -0.563 -0.348
 0.583  0.457 0.0568
-0.0947 0.00738 0.0512
 0.231  0.548  0.343
-0.396  0.337 -0.0613
 0.235  0.131 0.0900
-0.300 -0.617 -0.254
0.0315 -0.564 -0.345
-0.105 -0.686 -0.352
-0.190  0.587  0.106
-0.380  0.292 -0.179
-0.0707 -0.775 -0.112
 0.211  0.218  0.203
 0.237  0.509  0.146
-0.197  0.714 0.0601
-0.195  0.250 -0.0927
-0.0515 -0.617  0.403
-0.0697 -0.349 -0.0926
-0.223 -0.672 -0.300
 0.166  0.358 0.00222
-0.313  0.778  0.185
 0.280  0.571 -0.195
 0.180  0.103 -0.0938
-0.157  0.107 -0.244
 0.143 -0.510 -0.0536
-0.318 -0.636 -0.199
 0.291 -0.570  0.241
-0.204  0.685  0.142
-0.159 -0.310 0.0399
 0.463  0.414 -0.0708
-0.182 -0.195 0.0756
-0.339  0.132 -0.0254
-0.296 -0.750 0.0126
0.0340 -0.550  0.136
-0.235  0.123 -0.173
-0.461 -0.590 -0.115
0.0959 -0.314 -0.112
-0.437  0.334  0.182
 0.164 -0.614 -0.418
0.0268  0.508 -0.134
 0.234  0.365 -0.0614
-0.0286  0.702 -0.0131
 0.214  0.582 -0.101
 0.192  0.796  0.113
-0.126  0.650  0.167
-0.143 -0.574 -0.311
 0.218 -0.798 0.0402
-0.233 -0.558  0.261
-0.441 -0.574 0.0886
 0.192 -0.775 0.0872
-0.291 0.0736 -0.0539
-0.295 -0.732 -0.165
 0.148 -0.00193 -0.139
-0.154  0.793  0.219
-0.158 -0.591  0.404
-0.102 -0.0284 -0.158
 0.288  0.655  0.179
-0.184 -0.378 0.0645
-0.335 -0.565  0.218
-0.365  0.741  0.206
 0.335  0.634  0.272
-0.365  0.711  0.250
-0.126 -0.345 -0.0878
 0.114 -0.565 -0.184
 0.197 -0.172 0.0464
-0.280 -0.617 -0.311
-0.137 -0.558  0.308
-0.0228 -0.571 -0.444
-0.325  0.387 -0.0376
 0.425 0.0366 -0.128
-0.198 -0.772 -0.201
 0.130  0.637  0.126
 0.202  0.411  0.161
 0.352  0.162  0.206
-0.117  0.262 -0.0788
-0.381  0.531 -0.0345
 0.228 -0.567 -0.218
-0.403  0.462 -0.0569
-0.0874  0.147 -0.0870
 0.176  0.568  0.192
0.0704  0.634 -0.146
 0.229  0.293 0.00145
-0.159 -0.471 0.0648
-0.218 -0.117  0.141
 0.368 -0.617  0.137
 0.263  0.791  0.175
-0.366  0.276  0.118
-0.308  0.641 0.0850
-0.0511 -0.697 -0.355
-0.290  0.486 -0.00621
 0.150 -0.814 -0.120
 0.180  0.199 -0.274
 0.599  0.417 -0.0166
-0.115  0.632  0.258
 0.467  0.346 -0.0282
-0.204 -0.179 -0.0229
-0.136 -0.588 -0.251
-0.0873  0.564  0.179
-0.0746 -0.445 -0.178
 0.211 0.0444 0.0881
-0.311 -0.643  0.159
-0.237 -0.0855 -0.0576
-0.0971  0.595 0.0769
-0.00348  0.707 -0.117
0.0437  0.193 -0.0760
-0.407 -0.566 -0.140
0.000476  0.153 -0.0692
 0.285 -0.0785 -0.105
-0.162  0.190 -0.301
 0.227  0.597  0.201
-0.353 -0.633 -0.111
 0.501  0.447 -0.0171
 0.289  0.533 -0.282
-0.388  0.653  0.241
-0.0851  0.175 -0.0245
-0.0505 -0.0402 -0.118
 0.234  0.304 -0.0618
-0.108  0.187 0.0673
-0.146 -0.591  0.201
-0.0853 -0.0887 -0.113
 0.297 -0.651 -0.138
 0.122 0.0174 -0.0951
-0.385 -0.617 0.0892
0.0801 -0.290 -0.0175
 0.256  0.823  0.317
0.0138  0.106  0.109
-0.427  0.413  0.209
-0.275 -0.596 0.0641
-0.0725  0.627  0.297
0.0678  0.525 -0.231
-0.232  0.145  0.136
-0.423 -0.617 -0.0634
-0.283  0.550  0.177
0.0811 -0.552  0.116
0.0500  0.483  0.158
-0.179 -0.658 -0.331
 0.234 -0.599 -0.130
-0.139  0.152  0.306
 0.188 -0.330 -0.0313
0.0890  0.104 -0.0730
 0.240 -0.634  0.190
-0.00735 -0.812 -0.272
0.00800  0.614 -0.0196
-0.141 -0.151 -0.127
-0.242 -0.576 -0.244
 0.448  0.371 -0.182
-0.0438 -0.0707 0.0130
-0.295 -0.732  0.116
-0.204  0.233 -0.142
 0.177 -0.764 -0.169
 0.128  0.662 -0.208
-0.322 -0.567 -0.292
 0.237 -0.225 -0.0642
 0.120 -0.161 -0.0317
-0.330  0.304 -0.104
-0.375 0.0815 -0.0985
-0.126 -0.717  0.278
-0.0476 -0.0345 0.0643
 0.313 -0.567  0.196
-0.356 -0.559  0.127
 0.370 -0.567 -0.108
-0.271 -0.597 -0.150
 0.265  0.266 -0.142
 0.543  0.277 -0.0154
 0.136 -0.670  0.275
-0.352  0.749  0.152
 0.177 -0.567 -0.371
 0.252  0.518 -0.193
 0.169  0.329 -0.130
-0.0517 -0.809 -0.209
 0.235  0.250 -0.320
 0.151 -0.0877 -0.203
-0.205 -0.350 -0.0565
0.0514 -0.548 -0.203
 0.445  0.419 0.0560
0.00510 -0.661 -0.366
 0.226 -0.759 -0.0347
 0.257 -0.737 -0.124
-0.351  0.625  0.141
-0.0894 -0.590 -0.466
 0.293  0.569 -0.139
-0.294  0.224 -0.0282
0.0841 -0.778 -0.0350
 0.209 -0.0307 0.0879
 0.229  0.923  0.284
0.0698 -0.596  0.414
-0.130 -0.234 -0.0725
 0.255  0.675  0.326
-0.0324 -0.617 -0.407
 0.241  0.795  0.129
-0.300  0.325  0.192
 0.231 -0.592  0.119
 0.264  0.694  0.202
 0.273 -0.617 -0.226
-0.327 -0.567 0.0739
0.0858 -0.736  0.253
-0.406  0.412 0.00471
-0.324  0.476 0.0390
 0.215  0.324  0.133
-0.0432  0.199 0.0491
-0.322  0.302 -0.0316
-0.156  0.604 0.0752
-0.262 -0.719  0.188
-0.216  0.276 -0.273
 0.233  0.611 -0.178
-0.194 -0.565 -0.383
-0.422  0.557 0.0297
0.0534 -0.617 -0.426
-0.173 -0.542 -0.140
-0.0663  0.459  0.105
 0.278  0.467  0.190
 0.133 -0.101 -0.0658
-0.358  0.238 -0.206
-0.128  0.526  0.172
 0.158 -0.313 0.0324
-0.395  0.360 -0.00501
 0.444  0.363 -0.0730
 0.228  0.198  0.133
-0.369  0.164 -0.189
 0.387 -0.569 0.00324
 0.225 -0.568  0.299
-0.334  0.534 0.0871
 0.366  0.546  0.211
 0.228  0.797  0.251
0.0636 -0.816 -0.208
 0.319  0.779  0.233
 0.305  0.207  0.160
0.0390  0.647 -0.0740
 0.415 0.0320 -0.215
 0.271 -0.700 -0.176
-0.0208 -0.569 -0.342
-0.0326 -0.761 -0.0449
-0.148  0.426  0.120
 0.166 -0.606  0.376
0.0248  0.461 -0.203
0.0978  0.608  0.152
-0.172 -0.395 -0.0105
0.0343  0.705 -0.0837
-0.243 -0.217 -0.0368
-0.416 -0.612  0.176
-0.0453 -0.327 -0.0571
 0.346  0.142 -0.0528
-0.251 -0.631  0.231
 0.435 0.0661 -0.186
-0.155 -0.571  0.154
-0.156 -0.758  0.191
-0.300  0.727  0.243
-0.367  0.313  0.242
 0.164  0.266 -0.214
-0.365 -0.661 -0.0159
 0.139 -0.617 -0.359
-0.128 -0.569 -0.425
0.0367 -0.189 0.0128
0.0192 -0.409 -0.167
 0.292 -0.558  0.137
 0.203 -0.0493 -0.204
-0.288  0.620  0.211
 0.342  0.667  0.228
-0.182 -0.281 -0.0425
 0.124 -0.126 0.000737
-0.233 -0.618 -0.311
-0.256 -0.713 -0.249
 0.152  0.266 -0.328
 0.309 -0.565 -0.235
 0.320 -0.617 -0.216
-0.294  0.131 -0.0742
 0.122  0.500 -0.242
0.0881 -0.472 -0.154
 0.247  0.614 -0.0746
 0.347 -0.563 0.0793
-0.0947 -0.200 -0.122
-0.214 -0.617 -0.406
 0.196 -0.617 -0.321
-0.223 -0.617  0.318
-0.190 -0.00361  0.130
 0.191  0.483  0.137
 0.511  0.398 -0.103
-0.194  0.717  0.108
-0.0799 -0.529  0.118
 0.354  0.399 -0.0246
-0.359  0.698  0.311
-0.210 -0.121 -0.0207
-0.182 -0.451 -0.0438
-0.0883 0.0126 -0.117
 0.139 -0.412 -0.0683
 0.408 -0.605 -0.133
-0.225 0.00867 -0.0250
 0.258 -0.172 -0.0719
-0.235  0.745 0.0781
0.0381 -0.814  0.161
 0.254 -0.598 -0.0157
 0.245 -0.274 -0.0929
 0.144 -0.0387 -0.209
 0.301  0.488 -0.273
 0.543  0.367 -0.0702
0.0243 -0.643  0.312
-0.135 -0.547  0.106
 0.148  0.806  0.223
 0.466  0.322 -0.0732
-0.0256  0.268 -0.152
 0.148 0.0681 -0.102
 0.235 -0.669 -0.247
0.0192  0.465 0.0968
 0.263  0.229  0.132
-0.00918  0.616 -0.119
-0.141 0.0682  0.215
-0.403  0.626 0.0990
-0.00823 -0.532  0.128
-0.202  0.605 0.00168
 0.199 -0.302 -0.0786
0.00338 -0.766 0.0307
0.0591 -0.210 -0.0461
 0.195  0.494  0.288
 0.119 -0.477 0.0336
0.0245 -0.728  0.280
 0.104 -0.252 -0.0692
 0.320  0.373 -0.0564
-0.360 0.0743 -0.186
 0.208 -0.775 -0.106
 0.219  0.816  0.170
-0.401  0.267 -0.135
 0.347  0.613  0.225
-0.183 -0.490 0.0295
-0.296  0.652  0.300
-0.109 -0.571  0.384
 0.325  0.671  0.374
 0.211 -0.696  0.209
 0.314 -0.627 -0.0754
 0.290 -0.696 -0.128
 0.227 -0.298 -0.0115
0.0234 -0.453 -0.180
-0.366 -0.617 -0.264
-0.163  0.253 -0.169
0.00570 -0.816  0.204
-0.00142 -0.378 0.0591
-0.0709 -0.462  0.100
 0.233  0.558  0.240
 0.417  0.392 -0.0483
0.0249 -0.782 0.0898
0.0227  0.797 -0.240
-0.0806  0.525  0.106
-0.00381 -0.617 -0.445
-0.0381 -0.232 -0.0202
 0.339  0.514  0.180
-0.264 -0.605  0.351
-0.273  0.259  0.155
-0.0992 -0.816  0.175
 0.245 -0.597 0.0609
 0.253  0.592 -0.324
-0.412  0.468 -0.123
-0.421  0.709  0.296
 0.116 -0.814  0.114
-0.243 -0.558 -0.293
-0.347 -0.618 -0.168
-0.158 -0.813 -0.170
-0.228 -0.596  0.149
-0.131  0.311  0.142
 0.241  0.504 -0.296
-0.309 -0.617  0.242
 0.228  0.240 -0.215
0.0923 -0.0831 -0.0882
-0.436  0.347 0.0299
-0.202 -0.744  0.200
-0.416 -0.566 0.0508
-0.216 -0.775  0.131
-0.358  0.115 -0.156
 0.170  0.687 0.0751
 0.168  0.762  0.280
-0.102 -0.805 -0.262
-0.376  0.594  0.165
-0.348  0.475 0.0970
-0.396  0.315  0.189
-0.253 -0.785 -0.118
-0.00387 -0.569  0.384
 0.140  0.458  0.148
0.0586 -0.344 0.0150
 0.415 0.0962 -0.0809
0.0927  0.508 0.0883
 0.205 -0.0872 -0.178
-0.106  0.270  0.122
-0.338  0.502 -0.0892
-0.145  0.724 0.0899
 0.495  0.250 0.00600
-0.146  0.246 -0.122
 0.265 -0.0379 -0.196
 0.321  0.659 -0.351
0.0627  0.490 -0.157
 0.421  0.412 -0.149
 0.182 -0.0894 0.0583
-0.315  0.362 -0.109
-0.0663  0.111 0.0864
 0.290 -0.718 -0.0726
 0.112 -0.175 -0.123
 0.311  0.866  0.300
 0.326 0.0555 -0.0559
 0.130 -0.0943 -0.145
 0.229 -0.0414 0.0479
 0.182  0.242 -0.300
 0.324  0.604 -0.327
-0.233 -0.0761  0.123
-0.231  0.589  0.123
 0.400  0.676 -0.311
-0.413 -0.617 -0.197
-0.185 -0.617  0.347
-0.331  0.686  0.104
-0.0216  0.629 -0.163
 0.189  0.609  0.181
-0.0958 -0.795 -0.166
-0.291  0.687  0.207
-0.195 -0.523 -0.0534
-0.363  0.323 -0.232
-0.461 -0.583 0.0420
 0.334  0.488 -0.306
 0.406  0.659  0.196
-0.0641  0.639 -0.0236
-0.0839 -0.665  0.309
 0.352  0.114 -0.150
-0.223 0.0727  0.122
 0.585  0.405 0.0282
 0.313  0.607 -0.129
0.0574  0.468 -0.250
 0.286  0.166  0.199
 0.179  0.311 -0.00544
 0.566  0.221 -0.0434
 0.160  0.494  0.186
-0.156 -0.359 -0.0590
 0.246  0.376 -0.132
-0.379  0.426 -0.0703
-0.0345  0.130 0.0518
-0.130 -0.432 -0.141
 0.191  0.280 -0.159
-0.0137  0.700 -0.243
0.0653  0.664 -0.194
-0.273  0.746  0.109
-0.0826 -0.565  0.178
-0.361  0.509 0.0619
-0.115 -0.584  0.263
-0.299  0.836  0.160
-0.0354 -0.745 -0.311
 0.241 -0.715 -0.204
-0.128 -0.617 -0.388
 0.236 -0.575 -0.373
-0.368  0.268 0.0409
-0.0787  0.186 -0.0692
-0.218  0.702  0.268
 0.263 -0.745 -0.0157
 0.579  0.380 -0.0386
0.0510 -0.738 -0.314
-0.107  0.118 0.0602
-0.125  0.104  0.158
-0.0616 -0.779 0.0813
-0.0423 -0.582  0.278
-0.0233 -0.730  0.282
 0.136 -0.489 -0.0163
-0.321 -0.738 -0.0500
0.0840  0.724 -0.103
0.00953  0.674 -0.178
-0.178 -0.147  0.102
 0.150 -0.781  0.148
-0.0679 -0.135 0.0499
 0.249  0.491  0.222
-0.196  0.616 0.0520
-0.344  0.436 -0.0450
 0.111 -0.617 -0.397
 0.147  0.540  0.318
 0.200 -0.569  0.197
0.0165  0.535 0.0594
 0.271  0.537 -0.337
0.00535 -0.372 -0.134
-0.0572  0.114 -0.00780
 0.158 -0.213 -0.00342
 0.182 -0.562 -0.0190
0.0127  0.106 0.0397
 0.168 -0.685  0.250
-0.0731 -0.260 0.0205
0.0344  0.603 -0.139
-0.00651 -0.474  0.111
-0.0450 -0.573  0.198
-0.0904 -0.408 -0.158
-0.286 -0.678  0.189
-0.158  0.641  0.123
-0.268  0.482 -0.0434
0.0178 -0.567  0.185
 0.383  0.649  0.274
 0.148 -0.0223 -0.100
-0.207  0.627  0.139
-0.165  0.327  0.123
 0.200  0.522  0.164
0.0548 -0.778 0.0524
0.0624 -0.574 -0.448
-0.0550 -0.0192 -0.155
-0.398  0.761  0.183
 0.292  0.734  0.244
0.0926 -0.803 -0.152
 0.216 -0.599 -0.168
 0.130 -0.559  0.281
 0.359 -0.617 0.0224
 0.244  0.710  0.279
0.0438 -0.755 -0.273
 0.413 -0.588 0.0518
-0.0551 -0.803  0.145
 0.148  0.743  0.204
 0.111 -0.0334 -0.149
-0.223 -0.184 -0.0607
-0.317 -0.573 -0.338
 0.328  0.523 -0.217
-0.249  0.261  0.194
-0.285  0.267  0.106
-0.354  0.266 -0.129
 0.248  0.559 -0.127
 0.302 -0.00495 -0.0941
 0.198 -0.371 -0.0313
 0.231 -0.742  0.116
 0.180  0.529  0.210
-0.251  0.704  0.306
 0.330 -0.617  0.194
 0.174  0.686  0.120
-0.186  0.370 -0.218
0.0921 -0.402 -0.118
 0.221 -0.0163 -0.272
-0.290  0.472  0.208
-0.157 -0.811 -0.233
 0.429  0.350 -0.124
-0.214 -0.251 -0.0158
 0.206 -0.617  0.251
 0.419  0.609 -0.206
-0.120 -0.717 -0.329
 0.301  0.675  0.262
-0.261 -0.594 -0.196
0.0186  0.607 -0.0595
0.0955 -0.213 -0.109
-0.488  0.350 0.00329
-0.222  0.262 -0.233
-0.111  0.496 0.0893
 0.280 -0.630  0.127
 0.139 -0.264 -0.0881
 0.379  0.489  0.165
-0.355  0.322  0.200
-0.112  0.157 -0.190
 0.244 0.0193 0.0909
 0.219  0.160  0.116
 0.179 -0.587  0.120
-0.456 -0.616 -0.00324
 0.303 -0.116 -0.105
-0.175 -0.139 -0.148
-0.195  0.709  0.185
-0.448  0.349  0.242
-0.242  0.190  0.146
 0.283 -0.624 -0.186
-0.341  0.351 0.0271
 0.472  0.268 0.0395
-0.291  0.515 -0.0772
-0.328  0.505 -0.0256
-0.184  0.667 0.0686
 0.262  0.334 -0.0613
-0.106  0.570  0.241
0.0374  0.293 -0.148
 0.229 -0.592 0.0189
-0.103 -0.279 -0.0654
-0.0601 -0.221 0.0361
0.0767 -0.484 0.0826
-0.282  0.170 -0.0821
-0.163  0.265 -0.0680
-0.287  0.122 -0.0302
 0.386 -0.612 -0.176
-0.326 -0.700  0.108
 0.217  0.515  0.261
-0.103  0.227 0.0818
-0.156  0.110  0.201
 0.256 -0.712  0.135
-0.125 -0.452 0.0837
 0.134 -0.307 -0.0983
 0.157 -0.806 -0.198
-0.453  0.500 0.0101
 0.215 -0.130 0.0401
 0.138 -0.739  0.220
 0.305 -0.610  0.264
 0.273  0.851  0.209
-0.347  0.482 -0.130
 0.146  0.232 -0.201
 0.219 -0.775 0.00210
 0.302  0.679  0.211
0.00362  0.464 0.0590
-0.339  0.287  0.174
 0.197 -0.747 -0.200
 0.338  0.575 -0.195
 0.199  0.175 -0.117
 0.158 -0.574 -0.415
-0.234 -0.567 -0.0631
-0.230 0.0528 -0.0426
0.0386 -0.585 -0.263
 0.253  0.331 0.0185
-0.185 -0.558 -0.331
-0.100 -0.772 0.0227
 0.109 -0.724 -0.308
0.0809 -0.582 -0.309
 0.351  0.622 -0.195
-0.230 -0.581 0.0970
0.0987 -0.671  0.290
-0.412 -0.564 -0.0350
0.00614  0.306 -0.118
 0.246  0.851  0.265
-0.137 -0.394 -0.103
-0.338 -0.617 -0.292
-0.200 -0.805 0.00371
-0.175 0.0736  0.245
0.0745 -0.340 -0.0895
-0.0363 -0.574  0.407
 0.319  0.160  0.275
 0.166  0.770  0.136
-0.280 -0.568  0.289
-0.118  0.665  0.123
 0.253 -0.565 -0.302
-0.165  0.112  0.306
-0.368  0.472 0.0107
-0.320  0.725  0.147
-0.243  0.224 -0.145
-0.0520 0.0678 0.0648
0.0343  0.349 -0.0867
-0.166  0.163 -0.206
 0.505  0.249 -0.0386
 0.223 -0.795 -0.0525
-0.293  0.288  0.206
-0.115 -0.0602 -0.128
-0.0751 0.0366 0.0317
-0.0414  0.469 0.0508
-0.329 -0.729 0.0204
-0.196 -0.815 0.0806
 0.281 -0.0389 -0.0875
-0.372 -0.574 -0.279
-0.162 -0.412 0.0756
 0.271 -0.726 0.0772
-0.307  0.350  0.239
 0.393  0.423 0.0251
-0.282 -0.612 -0.379
-0.173 -0.216  0.113
 0.362  0.606 -0.311
-0.271  0.520  0.100
-0.359  0.367 -0.0201
-0.0823  0.476  0.165
 0.224  0.662 -0.134
-0.242  0.127  0.172
-0.227 -0.247 -0.0581
-0.0987 -0.748  0.245
 0.357 0.0653 -0.137
-0.189  0.783  0.237
-0.180 -0.340 0.0895
-0.0433  0.260 -0.207
 0.269  0.792  0.219
 0.385  0.361 -0.0968
-0.0685  0.155 0.00533
 0.139  0.686 -0.139
 0.200  0.647  0.207
-0.377 -0.566  0.160
-0.193 -0.561 0.0878
 0.318  0.557 -0.109
 0.244 -0.567  0.148
 0.138  0.625  0.219
 0.387  0.612 -0.161
-0.317 0.0902 -0.0982
0.0381 -0.574  0.404
-0.215  0.722  0.142
 0.263  0.501 -0.264
-0.0451 -0.591 -0.320
-0.139  0.284 -0.103
0.0865 -0.249 -0.00933
-0.213  0.834  0.210
-0.0619  0.267 -0.135
 0.116 -0.0577 -0.190
-0.385 -0.612  0.222
-0.213 -0.246 0.0775
-0.316  0.563  0.213
0.0495  0.705 -0.166
 0.436  0.444 -0.167
0.0160  0.147 0.00416
-0.128  0.630  0.219
-0.182 -0.777  0.162
 0.368 -0.617 -0.140
 0.177 -0.569  0.336
-0.269  0.724  0.219
0.0406 -0.453 0.0932
-0.414  0.555 -0.0186
 0.427  0.438 -0.0408
 0.273 -0.568 -0.131
-0.225 -0.665  0.250
0.0675 -0.776 -0.0705
 0.272  0.492  0.129
0.0122  0.495 -0.169
 0.152 -0.0669 -0.0618
 0.168  0.806  0.171
-0.0608 -0.201 -0.0158
0.0694 -0.573  0.271
-0.310  0.585  0.166
 0.381  0.213 -0.0448
-0.159  0.264 -0.207
0.0596  0.618 -0.103
 0.359  0.580 -0.245
 0.187 -0.737 -0.237
 0.237 -0.310 -0.0742
 0.254 -0.617  0.270
-0.0191 -0.595 -0.474
-0.367 -0.558 0.0319
 0.149 -0.532 -0.0199
0.0812  0.685 -0.103
 0.189 -0.0584 -0.142
0.0379  0.550 -0.136
 0.138 -0.573 -0.290
-0.372  0.544 0.0852
-0.0801 -0.617 -0.435
-0.123  0.197 -0.127
 0.139 -0.114 -0.104
 0.262 -0.572  0.288
-0.329 -0.675 -0.172
 0.175 -0.133 0.0615
-0.365 -0.562 -0.187
-0.232 -0.0357  0.141
-0.182 -0.461 -0.00627
-0.262 -0.558  0.223
 0.146  0.497  0.254
 0.344 -0.614 -0.258
-0.216 -0.568  0.226
-0.294 -0.713 -0.203
 0.190 -0.814 0.0877
-0.271 -0.587 0.0218
-0.365 -0.574  0.240
 0.407  0.589 -0.240
 0.135 -0.214 0.0289
-0.0867  0.205 -0.104
 0.193 -0.696 -0.275
-0.253 0.0728 -0.0192
-0.109 -0.781 -0.112
 0.197  0.733  0.224
-0.247  0.297  0.111
-0.263 -0.786 0.0399
-0.355 -0.671 -0.103
 0.160 -0.557 0.0347
 0.324  0.461  0.167
0.0957  0.702 -0.137
-0.126 -0.119 -0.111
 0.210  0.455  0.165
-0.357  0.591  0.213
-0.113 -0.770  0.203
-0.296  0.521  0.130
-0.164  0.655 -0.0252
-0.203 -0.751 -0.233
 0.275  0.692  0.166
 0.300 -0.154 -0.0841
 0.188 -0.193 0.0153
-0.0505 -0.472 -0.191
-0.0354 -0.207 -0.0890
 0.293 -0.0696 -0.0678
-0.156 -0.463 -0.127
-0.0507 -0.556 -0.221
-0.413 -0.570  0.127
-0.246 -0.0310 -0.0212
 0.205  0.217 -0.235
 0.465  0.401 0.0287
 0.384 -0.580  0.136
-0.335  0.309  0.275
0.00572 -0.617  0.385
 0.216  0.139 -0.118
-0.182 0.0591  0.280
0.0247 -0.563 -0.405
-0.150 -0.348 0.0292
0.0371  0.470 -0.110
-0.158  0.606  0.210
-0.378  0.281 -0.0957
 0.454  0.324 0.0525
-0.324  0.263  0.110
-0.273 -0.791 -0.0347
-0.117 -0.166 -0.0852
-0.213  0.738  0.233
0.0769 -0.138 -0.00835
-0.435  0.580 -0.0401
 0.140 -0.156 -0.106
-0.395  0.284 -0.213
-0.321  0.319  0.137
0.0322  0.263 -0.190
-0.300 -0.585 0.0935
-0.386  0.684  0.115
-0.365  0.392 0.0298
 0.151 -0.315 -0.00547
-0.0736 -0.623 -0.370
-0.124 0.0978 -0.146
-0.109  0.705  0.156
-0.0709 0.0227 0.0793
 0.234 0.0720 0.0750
 0.299  0.456 -0.220
 0.366  0.533  0.121
 0.452  0.378 0.000430
 0.407  0.112 -0.123
-0.350  0.786  0.150
 0.336  0.203  0.262
-0.165  0.743  0.237
0.0983 -0.431 0.0312
 0.587  0.366 0.0183
 0.232  0.715  0.202
-0.384  0.385 -0.0719
-0.288  0.302  0.165
-0.145 -0.590 -0.455
-0.227 -0.175  0.101
0.0986  0.560 -0.243
-0.270  0.157 -0.0476
-0.306  0.646  0.231
-0.125 -0.231 -0.117
 0.295 -0.562 0.0515
 0.201  0.758  0.258
 0.202  0.550  0.308
0.0919 -0.661 -0.347
 0.194  0.478  0.212
-0.103 -0.373 0.0448
 0.246  0.245 -0.166
 0.121 -0.500 -0.128
 0.329  0.625 -0.239
 0.151 -0.809 -0.0834
 0.157  0.802  0.319
-0.0133 -0.772 -0.112
 0.264 -0.252 -0.0695
-0.211 0.0845  0.224
0.00316 -0.163 0.0192
 0.193 -0.584 -0.235
 0.119 -0.0211 -0.0629
-0.381  0.324 0.0572
 0.176  0.825  0.135
0.0829 -0.595  0.241
-0.358 0.0808 -0.0652
 0.298  0.511 -0.192
-0.0331 -0.315 0.0214
-0.0348 -0.271 -0.0251
-0.324 -0.571 -0.123
 0.209  0.641  0.169
-0.119  0.518 0.0398
0.0927 -0.0537 -0.111
-0.128 -0.364 -0.0238
-0.206 -0.146 -0.0541
 0.181 -0.297 -0.0464
 0.158 -0.395 -0.0213
0.0348 -0.775 -0.103
-0.142  0.133 -0.0399
-0.147 -0.816  0.156
 0.311  0.593 -0.176
 0.304  0.717  0.359
 0.188 0.0711 -0.122
-0.195 -0.547 0.0307
 0.284  0.712  0.273
-0.344 -0.631 0.0977
-0.343 -0.651 -0.148
-0.464 -0.608 -0.0692
-0.455 -0.607 0.0815
0.0447 -0.298 -0.0448
 0.493  0.408 -0.0147
-0.145 -0.548 -0.173
-0.105 -0.298 -0.0968
-0.0895 -0.559  0.336
-0.0178  0.603 -0.0587
 0.367  0.135 -0.103
-0.158 -0.277 0.0618
-0.0175 -0.0370 -0.134
-0.0218  0.304 -0.157
 0.229  0.769  0.167
 0.423  0.284 -0.0274
-0.149 -0.583  0.249
-0.193 -0.0860  0.146
 0.255  0.807  0.284
0.0331 -0.610  0.411
 0.259  0.712  0.234
 0.464  0.381 -0.0357
-0.162 -0.787 -0.0156
-0.244  0.715 0.0593
-0.108  0.637  0.295
0.0946  0.516 -0.259
-0.0714  0.693 -0.160
 0.128 -0.365 -0.0655
-0.231 -0.0792 -0.0177
-0.414 -0.617 -0.149
0.0171  0.744 -0.255
 0.237  0.414  0.151
0.0897 -0.185 -0.00242
-0.0438 -0.174 -0.102
-0.319  0.729  0.328
-0.200 -0.579  0.374
0.0618 -0.142 0.0451
0.0623 -0.752  0.230
-0.163 -0.708  0.268
-0.394  0.721  0.274
0.0717 0.0601 -0.0692
 0.257  0.657  0.162
0.0819  0.508  0.123
 0.366  0.518 -0.238
 0.133 -0.0917 -0.0309
 0.423  0.402 0.0793
 0.192  0.792  0.246
 0.257  0.897  0.291
 0.312 -0.559 -0.0635
-0.239 0.0448  0.138
-0.187  0.446  0.135
-0.0107 -0.785  0.220
-0.0945  0.266 -0.162
 0.212  0.495 -0.224
0.0672  0.483 -0.191
-0.284  0.406  0.191
-0.149 -0.793 0.0611
-0.00391  0.338 -0.259
-0.310  0.334  0.280
0.0537 -0.706 -0.342
 0.478  0.352 0.0966
-0.287  0.105 -0.114
 0.276  0.852  0.321
0.0238  0.691 -0.262
 0.347 -0.573  0.183
0.0424 -0.413 0.0761
-0.316 -0.590 -0.0768
-0.331  0.320  0.228
0.0324  0.680 -0.147
-0.123  0.626 -0.0285
-0.0230 -0.560  0.346
 0.250  0.521  0.248
0.0959  0.444  0.142
 0.377 -0.567 -0.0443
-0.144 -0.669 -0.343
 0.329 -0.562  0.117
-0.336  0.278 -0.0764
-0.00129  0.256 -0.253
-0.103  0.623  0.195
-0.329  0.659  0.317
-0.0934 -0.710  0.291
 0.129 -0.271 -0.0214
0.00930 -0.326 -0.0579
 0.196  0.756  0.196
-0.295  0.703  0.280
-0.0736 -0.780  0.214
-0.0329 -0.104 0.0186
 0.287  0.472  0.154
-0.0414  0.167 -0.0831
 0.421 0.0685 -0.113
-0.0984 -0.561 -0.214
-0.336  0.343  0.178
 0.100 -0.435 -0.128
 0.108 -0.785 -0.00993
-0.373  0.386 0.0666
 0.186  0.376 -0.130
 0.285  0.324 -0.190
 0.223 -0.623  0.221
 0.132 -0.553 -0.141
0.0733 0.0231 -0.0827
-0.167 -0.507 -0.134
 0.180 -0.362 -0.0744
0.0604  0.710 -0.0518
 0.316 -0.643 -0.0440
-0.302 -0.738 0.0812
-0.0339 -0.385 0.0711
-0.322  0.465 -0.0493
-0.158  0.596  0.297
 0.196 -0.0546 0.0489
-0.360  0.631  0.192
-0.213 -0.279 -0.0616
 0.171  0.647  0.186
 0.319  0.647  0.160
-0.179 -0.577 -0.200
 0.406 0.0171 -0.150
0.0734 -0.505 -0.175
 0.156 -0.433 -0.0460
-0.401 -0.616 -0.233
-0.266  0.218  0.160
-0.204  0.340 -0.224
 0.449  0.380  0.105
 0.387  0.402 -0.0857
-0.0565 -0.766 -0.0782
-0.206  0.501  0.124
 0.267  0.607 -0.185
-0.272 -0.736  0.142
-0.299 -0.617  0.289
 0.144  0.449  0.197
-0.175  0.703  0.157
-0.499  0.386 -0.00593
-0.188 -0.309 -0.0178
-0.439  0.464 -0.0705
-0.149  0.284  0.131
-0.258  0.542  0.130
 0.323 -0.605 -0.303
 0.137 -0.808  0.165
-0.259  0.692  0.232
 0.263  0.681  0.292
-0.194 0.0960  0.169
-0.0832  0.711  0.186
-0.331  0.336 -0.0310
 0.485  0.359 0.0355
-0.200  0.123 -0.176
-0.179 -0.471 -0.0724
 0.272  0.763  0.249
 0.150  0.213 -0.263
0.0863 -0.179 -0.0545
-0.214 -0.578 -0.266
 0.123 -0.603  0.394
 0.324 0.0164 -0.0723
-0.187 -0.815 -0.151
 0.395  0.676  0.234
 0.256  0.305 -0.0344
-0.178  0.158 -0.158
-0.208 -0.109 -0.0533
 0.321  0.179  0.171
 0.249  0.546  0.210
0.0512 -0.801  0.127
0.0831 -0.400 0.0334
-0.276 -0.750 -0.137
-0.360  0.592  0.129
-0.279 -0.574  0.151
-0.335 -0.573 -0.0186
-0.0544 -0.556  0.161
-0.233 -0.596 -0.216
 0.105 -0.332 -0.0445
-0.0780 -0.212 -0.0921
-0.201  0.134  0.144
-0.242 -0.174 -0.0321
0.0592  0.219 -0.0932
-0.432 -0.571 -0.111
 0.421  0.403 0.0228
 0.116 -0.745 -0.274
 0.118 -0.802 -0.120
-0.188  0.744  0.143
0.0265 -0.193 -0.0201
-0.156 -0.617 -0.407
-0.0779 -0.236 -0.00685
 0.219 -0.759 0.0326
 0.151 -0.582  0.220
 0.292  0.578 -0.302
-0.109 -0.617  0.366
 0.273 -0.617  0.194
-0.126 -0.766 -0.250
-0.434  0.366  0.210
 0.378 -0.617 -0.00620
0.0439 -0.617  0.347
 0.526  0.232 0.0174
-0.230  0.640 0.0820
-0.259  0.561 0.0818
-0.329  0.708  0.242
0.0914 -0.570 -0.425
 0.113 -0.578 -0.215
-0.179 -0.328 -0.0576
-0.404 -0.617 0.0319
-0.179 -0.737  0.231
 0.253 -0.560  0.222
0.0440  0.641 -0.126
-0.265 -0.661  0.217
0.0381  0.597 -0.0196
-0.423 -0.581  0.164
-0.0734 -0.0587 -0.136
-0.225 -0.0509 -0.0595
-0.00697 -0.785  0.106
-0.365  0.754  0.345
-0.330  0.609  0.226
-0.138  0.120 -0.212
-0.191  0.108 -0.245
-0.0760 -0.583  0.271
 0.242 -0.594  0.333
 0.271 -0.219 -0.0646
 0.233  0.272  0.117
-0.338  0.270  0.144
-0.131  0.154 -0.161
 0.244 -0.0173 0.0749
 0.247  0.118  0.119
 0.156 -0.0349 -0.135
 0.141 -0.469 -0.0438
-0.0334  0.662 -0.0507
-0.122 -0.564 -0.335
 0.115 -0.0235 -0.108
 0.255 -0.677  0.167
0.0438 -0.352 -0.0809
-0.0812  0.144 -0.0467
-0.333 -0.714 -0.119
 0.122  0.813  0.192
-0.106 -0.741 -0.307
 0.279  0.651  0.245
-0.000519 -0.814  0.170
-0.0747 -0.0381 -0.175
-0.246 -0.573 0.00319
-0.0324 -0.748  0.255
-0.0792  0.181 0.0839
 0.227  0.353 0.0141
0.0349 -0.236 -0.0196
0.00392  0.134 0.0745
-0.0694  0.472 0.0697
-0.204 -0.816  0.127
-0.196  0.299 -0.248
-0.241  0.222 -0.178
 0.159 -0.559  0.262
-0.344 -0.597 -0.338
-0.184 -0.607  0.388
-0.156  0.378  0.145
 0.285  0.489 -0.234
-0.00213  0.136  0.121
 0.307  0.700  0.238
-0.192 -0.279  0.106
 0.167  0.621  0.159
-0.341  0.117 -0.120
 0.222 -0.253 -0.0804
-0.299  0.521  0.163
 0.209  0.206 -0.158
-0.173  0.731 0.0361
-0.268  0.656  0.324
 0.409  0.349 -0.0565
-0.237 -0.703 -0.276
-0.0325 -0.812  0.221
-0.210 -0.317 -0.0607
 0.292  0.662  0.339
-0.311  0.303  0.109
-0.151 -0.566 -0.402
 0.201 -0.0950 0.0308
 0.296  0.585 -0.249
-0.355 -0.700 -0.0466
 0.433  0.322 -0.0138
 0.202  0.256 -0.190
0.0502 -0.392 -0.142
0.0618  0.107 -0.0925
-0.117 -0.175 -0.126
-0.365 -0.633 -0.0349
 0.140 -0.510 -0.0915
-0.174 -0.597 -0.252
-0.274  0.713  0.105
 0.196 -0.816 0.0224
-0.294  0.356  0.182
 0.252  0.375 -0.0986
-0.108 -0.624  0.309
 0.248  0.614 -0.108
 0.294 -0.584  0.282
 0.196 -0.816 -0.0444
-0.0934  0.309 -0.103
 0.221  0.757  0.285
-0.135 -0.273 -0.101
-0.108  0.150 0.0519
-0.0942 -0.488 -0.187
-0.0782  0.191 0.0519
-0.193 -0.518 0.0122
0.0168 -0.292 -0.0235
-0.245  0.733  0.129
-0.244 -0.776 0.0846
 0.322  0.506  0.113
 0.249  0.253  0.167
-0.148 -0.115 -0.149
-0.174  0.150  0.306
-0.224 -0.632  0.252
 0.188  0.633  0.119
-0.423 -0.617 0.00333
 0.368  0.681 -0.317
-0.357  0.650  0.253
-0.355  0.312 -0.0837
-0.175  0.161 -0.275
 0.227 -0.565  0.177
 0.188 -0.290 0.00791
-0.219  0.134 -0.286
 0.314 -0.633 0.0206
 0.198  0.579  0.334
-0.273  0.287  0.137
0.0409  0.767 -0.255
 0.159 -0.810 0.0204
 0.171 -0.747  0.178
-0.143 -0.309 0.0688
-0.189  0.800  0.200
 0.246  0.210 -0.153
 0.459 0.0433 -0.186
 0.320  0.165  0.213
-0.121 -0.805  0.123
-0.412  0.338 -0.0328
 0.222 -0.316 -0.0387
0.0612  0.670 -0.160
-0.107  0.561  0.206
 0.456  0.594 -0.273
-0.0423  0.672 -0.0127
 0.242  0.336 -0.0869
 0.118 -0.0846 -0.209
 0.351  0.361 -0.0798
-0.0422 -0.815  0.177
-0.0225 -0.679 -0.364
-0.224  0.252 -0.0777
-0.301  0.752  0.221
-0.0596  0.291 -0.245
 0.253 -0.605 -0.371
-0.179 -0.118  0.117
-0.0980 0.0513 0.0501
 0.225 -0.100 -0.201
-0.207 0.0630  0.165
0.0490  0.160 -0.0746
-0.438 -0.595 -0.195
 0.270  0.281 -0.177
0.00493  0.270 -0.164
 0.242  0.578 -0.351
-0.0355 -0.759 -0.275
0.0917 -0.346 0.0169
-0.232 -0.572  0.345
 0.151  0.648  0.104
 0.111 -0.617  0.309
 0.165 -0.579 -0.165
0.0241 -0.803 -0.270
 0.348  0.161  0.169
-0.304  0.201 -0.0493
-0.127 -0.599  0.231
-0.0700 -0.535 -0.205
 0.169 -0.357 -0.0258
-0.422 -0.571 -0.168
-0.396  0.492 0.0208
-0.174 -0.178  0.112
-0.0518 -0.562 -0.352
-0.322  0.677  0.226
 0.101 -0.816 -0.207
 0.482  0.294 -0.0776
-0.295 -0.571 -0.182
-0.171 -0.382 0.0194
 0.475  0.364 -0.0801
 0.307  0.547 -0.347
 0.291 -0.185 -0.0811
-0.166  0.297 -0.172
-0.258 0.0460 -0.0578
-0.0565 -0.186 0.0419
0.0221 -0.774 0.0585
-0.327  0.807  0.183
-0.0920  0.259 -0.197
-0.331  0.474 -0.0146
-0.387  0.650  0.312
 0.111 -0.0796 -0.118
 0.439  0.450 -0.0827
0.0896 -0.280 -0.0788
 0.511  0.283 -0.0183
-0.274  0.505 0.0683
-0.296  0.707  0.177
 0.158 -0.683 -0.311
-0.344  0.632  0.107
-0.133  0.584 0.0533
-0.168  0.121  0.275
-0.318 -0.710 -0.161
-0.0681 -0.146 -0.00403
 0.330  0.559 -0.139
