ply
format ascii 1.0
element vertex 2048
property float x
property float y
property float z
end_header
 0.211 -0.278 -0.392
-0.313  0.216  0.901
 0.195  0.425  0.179
-0.316  0.216 -0.903
 0.211 -0.429  0.782
-0.327 -0.204  0.209
 0.214  0.408 -0.502
-0.306 -0.431 -0.784
-0.298 0.0261 -0.342
 0.215  0.147  0.690
 0.214 -0.123  0.169
-0.327 -0.324  0.771
 0.195 -0.00358 -0.849
 0.148  0.137 -0.172
 0.195 -0.431 -0.793
-0.156 0.0628  0.490
-0.116 -0.281 -0.142
0.0243 -0.281  0.470
-0.0559 -0.0627  0.846
-0.0960 0.0652  0.109
-0.103 0.0594 -0.650
-0.126 -0.281 -0.512
 0.214 0.0570 -0.512
 0.180  0.333 -0.826
 0.195  0.425  0.510
 0.215  0.137  0.370
-0.296 -0.103 -0.841
-0.0225 -0.206 -0.785
 0.214 -0.154  0.660
 0.204  0.425 -0.122
 0.195 -0.281 -0.0814
-0.0359 -0.281  0.149
-0.327 -0.184  0.510
0.00423  0.221  0.889
-0.327 -0.0933 -0.0714
-0.0392  0.168 -0.903
-0.327 -0.0332  0.781
-0.327 -0.244 -0.312
 0.215  0.137 0.0990
-0.0360 0.0642 -0.382
 0.214 -0.184 -0.653
-0.327 -0.123 -0.583
-0.0860 -0.281  0.710
-0.116 0.0644 -0.142
 0.198  0.386  0.761
-0.156  0.175  0.713
 0.215 -0.103  0.410
 0.214 -0.0833 -0.242
-0.298 0.0264  0.259
 0.185 -0.0234  0.847
0.0729 0.0500  0.540
 0.111  0.149 -0.693
-0.166 -0.281  0.350
0.00369 0.0628  0.330
 0.215  0.227 -0.362
-0.307 0.0972 -0.713
0.00422 -0.281 -0.322
 0.165 -0.281  0.309
 0.211  0.204  0.906
-0.296 -0.281 0.0188
 0.214 -0.0432 -0.0213
-0.106 -0.0233 -0.851
-0.196 -0.281 -0.703
0.0743 -0.281 -0.542
-0.327 0.00629  0.570
0.0743 -0.194  0.790
 0.214 -0.273  0.510
 0.177  0.416 -0.311
 0.165  0.320  0.340
 0.152  0.276 -0.0213
-0.239 0.0466 -0.522
-0.298 0.0261 0.0689
0.0343  0.175  0.713
-0.206 -0.178  0.804
 0.148  0.166 -0.898
 0.145 -0.281  0.109
-0.146 -0.281  0.540
0.0539 0.0540 0.00881
 0.214  0.248  0.540
 0.148 0.0472 -0.342
 0.215  0.227 -0.573
-0.180  0.182 -0.799
 0.215 -0.103 -0.442
 0.135 0.0351  0.219
0.0844 -0.281  0.640
-0.296 -0.281 -0.482
0.0324 0.0581 -0.542
 0.180  0.418 -0.677
 0.215 -0.0131 -0.673
 0.151 -0.173 -0.810
-0.327 -0.0432  0.410
-0.166 -0.281 -0.332
-0.156  0.166  0.895
-0.317 -0.281 -0.152
-0.00580 -0.281 -0.0213
-0.327 -0.272  0.360
 0.150  0.266  0.169
 0.215 -0.0232  0.560
0.00422 -0.281  0.309
-0.307  0.127  0.690
-0.196 -0.281  0.159
0.0543 0.0767  0.837
-0.327 -0.0933 -0.242
 0.214  0.278 -0.202
0.0133 0.0618 -0.232
-0.327 -0.204  0.670
 0.125 -0.281 -0.222
-0.0860 0.0559  0.640
-0.327 -0.133 -0.422
0.0443 -0.0628 -0.849
 0.210 -0.268  0.776
-0.327 -0.204 -0.723
-0.269 0.0367 -0.121
 0.177  0.416 0.0297
-0.156 0.0625 -0.292
0.0944 -0.281 -0.723
-0.163 -0.167 -0.814
-0.0459  0.179 -0.735
-0.156 0.0625  0.249
-0.206 0.0247  0.842
-0.0559 -0.281 -0.663
-0.266 0.0385 -0.843
-0.327 -0.123 0.0689
 0.153  0.273  0.670
 0.214 0.00686  0.710
 0.215 -0.184 0.0188
0.0543 0.0767 -0.839
-0.146 -0.281 0.0288
 0.214 -0.254 -0.532
 0.214  0.117 -0.783
 0.215  0.127 -0.0514
 0.215  0.237 -0.713
 0.215  0.107  0.520
 0.135 0.0348  0.410
-0.106 0.0645 -0.502
-0.232 0.0477  0.380
-0.327 -0.0633 -0.703
 0.135  0.188  0.800
 0.215  0.147  0.229
0.0142 -0.281 -0.152
 0.214 -0.00314  0.119
0.0133 0.0618  0.179
-0.215 0.0520  0.630
-0.327 0.0870  0.829
 0.215 -0.304 -0.782
-0.281 -0.429  0.831
 0.215 -0.164 -0.132
-0.189 0.0567 0.00881
-0.226 -0.281  0.640
 0.215 0.0169 -0.162
 0.157  0.297 -0.452
 0.211  0.422  0.637
-0.323 -0.278 -0.619
 0.214 -0.133  0.791
 0.148  0.227  0.430
 0.214 -0.214 -0.282
 0.148  0.147 -0.452
 0.215 -0.164  0.289
0.0729 0.0500 -0.121
-0.0158 -0.281 -0.452
-0.0760 -0.189  0.795
 0.115 0.0762  0.655
0.0477  0.207 -0.823
 0.214 -0.143  0.530
-0.0360 0.0642  0.460
-0.327 -0.153  0.810
-0.306 -0.305 -0.790
-0.236 -0.281  0.450
-0.327 -0.133  0.310
 0.215 -0.0332  0.310
0.0644 -0.0816  0.843
-0.0760 0.0568  0.839
 0.214  0.117 -0.623
-0.0258 -0.281  0.580
-0.321 0.0170 -0.613
 0.215  0.127 -0.272
-0.327 -0.0833  0.660
0.0844 -0.281  0.219
 0.205 -0.281  0.630
 0.195  0.425  0.390
-0.0759  0.193  0.804
-0.246  0.193  0.804
0.0143 0.0761 -0.658
 0.214 -0.224  0.400
-0.196  0.194 -0.915
 0.215 0.0870  0.821
 0.171  0.334 -0.593
 0.126 0.0343 -0.609
-0.216 -0.281 -0.0814
-0.216 -0.281 -0.212
-0.0560 0.0650 -0.0413
 0.214  0.268  0.771
-0.256 -0.281  0.259
-0.326 0.00614 -0.452
 0.214  0.318 0.0890
-0.225 0.0493  0.159
 0.214 -0.0833 -0.583
-0.0860 -0.281  0.440
-0.196 -0.281  0.750
-0.327 -0.0933  0.179
 0.112 0.0396 -0.462
 0.148  0.167  0.590
-0.106 0.0645  0.360
-0.175 0.0593 -0.412
-0.327 -0.272  0.580
-0.327  0.137 -0.823
-0.200  0.148 -0.693
-0.215 0.0517 -0.633
-0.126 0.0867 -0.838
 0.211 -0.278  0.199
 0.148  0.217 -0.272
 0.215  0.227 -0.101
-0.246 -0.0816  0.843
-0.314 0.0204 -0.222
 0.214  0.328  0.460
 0.215  0.227 -0.823
-0.306 -0.281  0.129
 0.168 -0.350  0.716
 0.104  0.173  0.904
 0.215 -0.103 -0.733
-0.106 -0.281  0.259
 0.155 -0.281 -0.633
 0.148  0.197  0.310
0.0966 0.0451  0.112
 0.125 -0.281  0.430
 0.114 -0.281 -0.442
0.0142 -0.281  0.750
 0.214  0.318  0.239
-0.226 -0.281 -0.573
-0.275 0.0339  0.480
 0.126 0.0343 -0.218
-0.0960 -0.281 -0.252
 0.215 0.0570 0.0288
 0.148  0.177 0.0188
-0.0634 -0.120 -0.836
 0.175  0.378 -0.212
-0.327 -0.194 -0.0313
 0.211  0.423  0.286
0.0944 -0.281 0.00878
 0.168  0.326 -0.112
 0.215  0.378 -0.402
 0.214 -0.0332 -0.342
-0.321 0.0173  0.690
-0.256 -0.281 -0.382
 0.148 0.0472 -0.0513
-0.0359 -0.281 -0.563
-0.325 0.0128 -0.0413
 0.214  0.117 -0.382
 0.148 0.0771  0.310
-0.126 -0.254 -0.781
-0.327 -0.143  0.410
 0.215 0.0670  0.630
 0.215 -0.133 -0.342
0.0209 0.0575  0.626
0.0944 -0.281  0.540
-0.146 -0.103  0.838
-0.206 -0.0628 -0.849
-0.0826  0.206 -0.823
 0.162  0.313 -0.292
 0.114 -0.281  0.761
-0.327 -0.184 -0.142
 0.135 -0.281 -0.332
 0.171  0.334  0.550
-0.327 -0.194 -0.512
 0.211 -0.278 0.0389
 0.175  0.325 -0.722
 0.148  0.117 -0.553
 0.215 -0.264 -0.192
-0.286 -0.234  0.776
-0.253 -0.206 -0.785
-0.0559  0.138  0.681
-0.281 -0.325 -0.700
 0.214 -0.0131  0.440
 0.215 -0.214  0.109
 0.104 -0.281 -0.112
0.0539 0.0540 -0.332
-0.196 0.0553 -0.192
 0.148  0.167  0.159
-0.327 -0.143 -0.322
-0.0960 -0.281 -0.402
0.0443 -0.281 0.0990
-0.327 -0.0733 -0.502
-0.0258 0.0248 -0.845
-0.327 0.0270 -0.773
0.0611 -0.154 -0.821
-0.327 -0.272  0.470
 0.145 -0.0817 -0.846
0.0543  0.194 -0.915
 0.215  0.227 -0.472
 0.214  0.348 -0.0213
 0.215 0.0269 -0.763
0.0543 -0.281 -0.633
 0.214 -0.0633 -0.112
 0.214 -0.194 -0.462
-0.206 -0.281 -0.462
 0.175 -0.364 -0.725
 0.214  0.237 0.0389
 0.185  0.294  0.853
-0.327 -0.194 -0.232
-0.236 -0.281  0.550
 0.215 0.00686 -0.252
 0.148  0.137  0.440
-0.0660 0.0660  0.239
-0.0660 0.0657 -0.282
 0.215 -0.0332  0.219
 0.215 -0.0131 -0.442
-0.189 0.0567 -0.0814
-0.0260 0.0641 -0.142
-0.320 -0.303  0.683
-0.327 -0.234 -0.412
-0.0760 -0.281  0.350
-0.327 -0.123  0.580
-0.327 -0.0532 -0.382
-0.00579  0.148  0.837
 0.152  0.190 -0.772
-0.266  0.184 -0.777
 0.215  0.227  0.360
 0.214  0.338  0.660
-0.226  0.221  0.889
-0.00579 -0.132  0.828
 0.215  0.187  0.470
 0.155 0.0867 -0.838
 0.215  0.227  0.630
 0.215 -0.0733 0.0689
0.0743 -0.281  0.360
-0.327 -0.214 0.0790
 0.151  0.266 -0.663
-0.327 -0.0432  0.500
 0.215  0.217  0.139
 0.214 -0.174 -0.563
 0.215  0.177  0.771
0.0142 -0.281 -0.753
 0.215 -0.254 -0.713
 0.148  0.207 -0.522
-0.327 -0.0131  0.149
 0.148  0.167 -0.0914
 0.173 -0.350  0.801
 0.215 -0.134 -0.0514
0.0467 0.0551  0.403
-0.0759  0.190  0.912
-0.0160 0.0637 -0.472
0.0729 0.0500  0.279
-0.327 -0.0131  0.330
 0.148 0.0472  0.500
 0.148  0.227 -0.182
-0.116 -0.281 -0.603
-0.327 -0.0633 0.00879
 0.215 0.0870 -0.703
 0.215 0.0771  0.430
-0.327 -0.123 -0.763
-0.103  0.137 -0.683
0.0143 -0.0136  0.847
 0.150  0.266  0.259
-0.327  0.167  0.801
-0.327 -0.272 -0.0614
 0.215  0.318 -0.522
-0.327 -0.0232 -0.132
-0.310 -0.404  0.752
-0.0359  0.117 -0.837
 0.215  0.147 -0.502
 0.215 0.0470  0.269
 0.214 -0.234  0.700
-0.146  0.109  0.661
0.0543  0.182 -0.744
-0.156  0.206  0.821
-0.240  0.219 -0.848
-0.116  0.219 -0.898
-0.216 -0.281 0.0789
-0.327 -0.224  0.289
 0.214 0.00688 -0.593
0.00422 -0.281  0.660
-0.0360 0.0645 0.0389
-0.0960 -0.281 -0.0614
0.0543  0.202  0.815
-0.296 -0.281 -0.232
-0.0158 -0.281  0.229
 0.104 -0.00362  0.846
-0.286 0.00612  0.845
 0.145 -0.120  0.833
-0.226  0.143  0.685
-0.236  0.137 -0.838
-0.323 -0.0200 -0.848
 0.149  0.257  0.590
 0.143  0.180  0.712
-0.0459 0.0632  0.570
 0.211  0.391 -0.754
-0.116  0.127  0.834
 0.148 0.0871  0.580
-0.246 -0.281 -0.302
-0.327 -0.103 -0.152
 0.214 -0.0933  0.600
-0.00580 -0.281  0.390
-0.327 -0.163 -0.653
-0.0760 -0.281 0.0689
 0.148  0.107 0.0589
-0.146 -0.281  0.650
-0.225 0.0493  0.299
-0.136 -0.0234  0.848
 0.215 0.0972 -0.152
 0.215  0.177 -0.192
 0.215 0.0570  0.350
 0.148  0.207  0.510
 0.148  0.187 -0.382
-0.321 0.0170 -0.532
 0.215 -0.103 -0.813
 0.214  0.408 -0.583
-0.116 -0.281  0.159
-0.215 0.0512  0.550
 0.175  0.350  0.159
 0.212  0.215 -0.902
-0.232 0.0477 -0.262
-0.213 -0.278 -0.780
 0.214 -0.0532  0.781
-0.136 0.0636  0.580
-0.156 0.0626 -0.583
 0.215 0.0870  0.741
 0.215 -0.0733  0.490
-0.327 -0.0432 -0.302
 0.214 -0.194 -0.763
 0.215  0.318 -0.352
-0.146 0.0632  0.169
-0.0559 0.0641 -0.562
 0.148 0.0570 -0.142
 0.215  0.227  0.279
0.0944 -0.00358 -0.849
 0.211  0.423 -0.0447
 0.175 -0.200  0.786
0.0944  0.148 -0.839
-0.254 0.0419 -0.0413
 0.125  0.107  0.835
 0.215 0.0470 -0.0914
-0.327 -0.103  0.750
-0.0559 -0.281  0.510
 0.215 -0.184 -0.212
 0.214 -0.204 -0.372
 0.214 -0.0633  0.670
0.0443 -0.281 -0.222
-0.106 0.0645 -0.352
-0.326 -0.0828  0.838
 0.148  0.107 -0.242
 0.138  0.216 -0.841
 0.211  0.423  0.106
0.0543 -0.223 -0.780
-0.246 0.0447 -0.392
-0.327 -0.0432  0.259
-0.226 0.0967  0.835
0.0324 0.0581 -0.412
 0.215 -0.234  0.259
 0.214  0.348 -0.653
-0.323 -0.278  0.213
 0.148 0.0771  0.159
 0.195  0.164  0.841
-0.146 -0.213  0.778
 0.135 0.0348 -0.532
-0.196 0.0159 -0.847
-0.116 -0.281 -0.713
 0.169 -0.429  0.842
 0.152  0.276 -0.553
-0.0559 -0.278  0.778
-0.233 -0.147 -0.825
0.0324 0.0581 0.0790
 0.214  0.247 -0.282
0.0143  0.121  0.667
 0.215  0.137  0.590
-0.0559 -0.281 -0.773
-0.176 -0.281  0.239
0.0944 0.0856 -0.660
-0.256 -0.281  0.380
-0.166 -0.281  0.430
 0.214 -0.0332 -0.512
 0.215  0.207 -0.0313
-0.0760 -0.281 -0.322
 0.215  0.167 -0.693
 0.148  0.187  0.229
-0.0860 0.0656 -0.212
 0.215 -0.214 -0.0614
 0.148  0.147 -0.623
-0.283  0.165 -0.706
 0.149  0.257 -0.352
 0.135 0.0351 0.0188
0.0743 -0.281 -0.372
 0.215 -0.103  0.330
 0.148  0.207 0.0990
 0.214 0.0771 -0.442
-0.0258 -0.281 -0.0914
-0.0459 -0.281 -0.192
 0.145 -0.281  0.680
 0.214 -0.103 -0.172
 0.148 0.0871 -0.402
-0.307 0.0972  0.760
 0.139 -0.278 -0.779
-0.325 0.0127 -0.703
-0.00581 -0.200  0.786
-0.116  0.185 -0.764
0.0324 0.0581  0.480
-0.00580  0.143 -0.688
 0.215 -0.214  0.550
 0.175  0.378  0.229
-0.133 -0.0889 -0.844
-0.286 0.0665  0.653
 0.214  0.278 -0.412
 0.215  0.167 -0.432
 0.215 -0.194  0.480
 0.215 -0.184  0.209
0.0844 -0.281 -0.282
-0.215 0.0512 0.0890
-0.206 -0.281 -0.0113
 0.215 -0.0933 -0.663
 0.145 -0.281 -0.532
 0.215  0.217  0.700
-0.236 -0.281 -0.643
 0.214 -0.244 -0.603
-0.327 -0.214  0.420
 0.148  0.117  0.219
 0.215 -0.113  0.239
0.0443 -0.281 -0.0714
-0.0960 0.0649 -0.422
-0.327 -0.194  0.600
 0.215 0.0972  0.179
-0.327 -0.174  0.741
-0.327 -0.0532 0.0790
-0.146 0.0632  0.420
-0.305 0.0235  0.400
-0.0860 0.0658  0.510
-0.0260 0.0638  0.119
-0.126 0.0636 -0.0313
 0.153  0.283 0.0990
 0.214  0.278 -0.633
-0.0459  0.181  0.742
-0.182 0.0578 -0.482
 0.214  0.358  0.380
 0.135  0.223  0.862
-0.0360 0.0642  0.390
-0.327 -0.133  0.239
 0.215 0.0269  0.510
 0.211 -0.278 -0.462
-0.00580 -0.281 0.0489
-0.327 -0.274 -0.723
-0.323 -0.278 -0.549
 0.215 0.0670 0.0990
-0.322 -0.195 -0.794
-0.286  0.179  0.732
 0.195 -0.281 -0.282
-0.316 -0.381 -0.737
 0.148  0.227 -0.603
 0.175  0.328  0.731
 0.214  0.358 -0.282
-0.215 0.0512  0.450
 0.149  0.247 -0.112
 0.165  0.320  0.410
-0.260  0.168 -0.903
-0.313  0.206 -0.823
 0.179  0.411  0.700
-0.284 0.0309  0.189
-0.279 -0.365  0.799
-0.0826 -0.178 -0.807
 0.175  0.408  0.580
 0.165 -0.281 -0.0113
-0.268 0.0364  0.590
 0.169  0.256 -0.771
 0.171  0.334 0.0389
-0.286 0.0664 -0.656
 0.214  0.298 -0.0714
0.0134 0.0621  0.249
 0.184  0.157 -0.841
-0.327 -0.0432 -0.563
-0.276  0.163  0.882
-0.146 -0.281 -0.202
-0.0258 -0.281 -0.382
-0.327 -0.154  0.149
 0.214  0.267  0.189
 0.215 0.0269  0.791
 0.215 -0.0132 0.0389
-0.0860 -0.281  0.620
 0.214 -0.113 -0.522
 0.215 -0.214  0.630
 0.215 -0.164  0.370
 0.175 -0.281  0.570
 0.148  0.107  0.370
 0.165 -0.281 -0.142
-0.176 -0.281 -0.402
 0.215  0.157 -0.122
 0.214 -0.103  0.730
0.00369 0.0628 -0.0814
-0.130  0.164 -0.844
-0.278 -0.352  0.723
-0.0258  0.221 -0.855
 0.186  0.424 -0.441
 0.159  0.306  0.490
0.0944  0.143  0.685
 0.175  0.378  0.440
 0.148  0.207 -0.693
 0.214 -0.303  0.692
-0.268 0.0364 -0.462
 0.162  0.313 -0.222
 0.215  0.227  0.841
 0.155  0.247  0.730
0.0243  0.148 -0.839
-0.176 0.0953 -0.662
-0.0760 -0.132  0.828
0.0632 0.0519 -0.603
 0.185 -0.357 -0.807
-0.321 0.0335  0.760
 0.185 -0.281  0.390
 0.215  0.308  0.590
-0.283 -0.381 -0.817
-0.206 0.0535 -0.342
 0.103 0.0429  0.600
 0.215  0.177 -0.322
-0.327 -0.204 -0.603
 0.148  0.147 -0.292
0.0243 -0.281  0.179
-0.327 -0.0833  0.360
 0.215 -0.143 0.0689
-0.327 -0.0432 -0.202
 0.214  0.338 -0.452
-0.327 -0.194 -0.362
-0.327 -0.184  0.350
-0.327 -0.0532 -0.793
 0.215 0.0771 -0.232
 0.145 -0.281  0.500
0.0944 -0.281  0.149
-0.216 -0.281  0.309
-0.327 -0.103  0.460
6.12e-05 -0.126 -0.833
 0.166 -0.294 -0.723
0.0899 0.0468  0.176
-0.246  0.115 -0.666
 0.103 0.0432 -0.392
0.0844  0.183  0.751
 0.214  0.288  0.700
 0.214  0.248  0.420
 0.214 -0.0432 -0.793
-0.136 -0.281 0.0990
 0.175  0.388  0.340
-0.186 -0.281  0.490
 0.215 0.0269 -0.0313
 0.215 -0.143 -0.262
-0.0760 -0.281 -0.00124
-0.0158 0.0767  0.837
 0.215  0.217 -0.653
 0.148  0.137  0.289
 0.148  0.117  0.500
 0.215 0.0269 -0.312
 0.214 -0.00312  0.620
-0.0258 -0.281 -0.252
 0.215 0.0169  0.179
0.0343 -0.281 -0.693
0.00422 -0.281 -0.512
 0.215  0.107  0.289
 0.149  0.247  0.370
 0.215  0.207  0.209
 0.214 -0.163  0.590
-0.236 -0.281 -0.152
 0.104 -0.281  0.289
 0.148  0.237 0.0389
-0.216 0.0767 -0.839
 0.188  0.348  0.810
 0.148  0.107 -0.0714
-0.0559  0.223  0.862
 0.175  0.368 0.0990
0.0744  0.223  0.880
-0.136 -0.160  0.815
-0.321 -0.429 -0.845
0.0343  0.169  0.900
-0.239 0.0466  0.239
0.0109  0.184  0.775
-0.266 -0.281  0.189
 0.214  0.368 -0.142
 0.165 -0.281  0.239
-0.126  0.186  0.770
 0.148  0.237 -0.462
 0.215  0.137 -0.563
 0.215  0.167  0.530
-0.236 -0.281  0.700
-0.327 -0.0532 -0.643
-0.0760 0.0658  0.179
 0.215  0.117 0.00879
-0.00580 -0.281 -0.623
0.0633 0.0522 -0.272
-0.327 -0.133 0.00879
 0.214 -0.0432 -0.182
-0.0760 -0.281 -0.462
 0.215  0.177 -0.773
 0.214 -0.224 -0.142
-0.317 -0.281 -0.372
0.0543 -0.281 -0.452
-0.327 -0.133 -0.522
 0.214 -0.123 0.00879
-0.0459 -0.0332 -0.851
-0.327 -0.0633  0.570
 0.143 0.0388 -0.282
0.0633 0.0522 -0.0513
-0.323 0.0601 -0.838
0.0825 0.0480  0.340
 0.214 -0.382  0.743
-0.327 -0.00312  0.630
-0.0960 0.0652 0.0288
 0.215 -0.264  0.340
0.0134 0.0621  0.540
-0.291 0.0285 0.00878
-0.276  0.221  0.853
 0.175  0.368  0.500
 0.205 -0.281 0.0990
-0.116  0.223  0.880
 0.215  0.177 0.0389
 0.214  0.318  0.299
 0.155 -0.281  0.179
-0.176 -0.281 -0.142
 0.104  0.222 -0.891
-0.156 -0.281 -0.0614
 0.148 0.0871 -0.633
 0.215  0.298  0.380
-0.284 0.0310  0.129
 0.177  0.416 -0.371
-0.327 -0.0733 -0.442
 0.215  0.187  0.410
 0.148  0.167  0.650
 0.214 -0.273  0.450
 0.215 -0.0733  0.129
0.0343 -0.00358 -0.849
 0.103 0.0429  0.460
-0.0459 -0.00362  0.846
 0.148 0.0871 -0.462
-0.254 0.0420 -0.192
 0.165 -0.223 -0.780
-0.156 0.0625  0.109
-0.0459 0.0587 -0.621
-0.156 0.0568  0.839
 0.153  0.283 -0.162
 0.185  0.259 -0.872
-0.0592  0.103 -0.663
 0.175  0.358 -0.492
 0.148  0.217 -0.0313
-0.196  0.148  0.837
-0.0860 0.0321 -0.844
-0.193  0.181  0.782
-0.196 -0.0332  0.848
-0.246 -0.140  0.825
 0.214  0.417 -0.232
-0.00577  0.184 -0.777
 0.215 0.00686  0.380
 0.214 -0.0733 -0.392
 0.214 0.0570  0.560
-0.0860 -0.281  0.560
0.00422 -0.281  0.530
 0.148  0.117 -0.352
 0.214 -0.164 -0.713
-0.327 -0.133 -0.703
0.0743 -0.281 -0.172
 0.214 -0.0833 -0.312
-0.176 -0.281 -0.603
-0.136 -0.281  0.741
 0.214  0.268 -0.0213
 0.215 -0.133 -0.613
-0.327 -0.214 -0.0914
0.0343 -0.281  0.610
-0.246 -0.281  0.129
 0.214 -0.0432 -0.723
 0.214 -0.0833  0.831
 0.148  0.127 -0.0112
 0.214  0.308 -0.152
 0.214 -0.133  0.460
-0.0860 0.0656  0.430
 0.135 -0.281  0.360
 0.104 -0.281 -0.663
-0.286 -0.281  0.309
 0.211 -0.325 -0.700
-0.0960 0.0652  0.289
-0.310 0.0872 -0.770
0.0633 0.0522 -0.492
0.0543  0.148  0.837
-0.0960  0.164 -0.892
 0.159  0.306 -0.382
 0.214 -0.273 -0.653
-0.0258 0.0762  0.655
0.0853 -0.133  0.827
-0.325 0.0128  0.460
 0.135 -0.0530  0.847
 0.211  0.423  0.446
 0.210 -0.161 -0.815
0.0978  0.179 -0.791
-0.146  0.175 -0.716
-0.305 0.0235 -0.402
 0.165  0.164  0.889
 0.175  0.358 -0.362
 0.214  0.318 -0.763
-0.255 0.0423 -0.593
 0.215  0.378  0.540
 0.214 -0.394 -0.754
 0.214 -0.224  0.169
-0.186 -0.281 -0.532
-0.327 -0.143 -0.101
-0.276 -0.281 -0.112
 0.214 -0.0432 -0.623
 0.135 -0.281 0.0489
-0.327 -0.133 -0.202
0.0443 -0.281  0.700
 0.215 -0.143 -0.402
 0.215 0.0470 -0.663
 0.214  0.318 -0.242
-0.186 -0.281  0.600
-0.327 -0.194 -0.452
-0.327 -0.154  0.640
 0.215 0.0470 -0.833
 0.148 0.0472 0.0890
 0.162  0.313  0.219
0.0510  0.120 -0.671
-0.153  0.216 -0.842
 0.175  0.257  0.811
 0.149  0.257 -0.232
 0.214  0.288 -0.833
-0.246 -0.0233 -0.851
-0.274 -0.286  0.761
 0.108 -0.207 -0.784
-0.256 -0.281 -0.723
 0.175  0.408 -0.542
 0.143 0.0388  0.350
 0.105  0.171  0.844
0.0468 0.0555 -0.188
 0.214  0.318  0.520
0.0825 0.0480 0.0589
-0.182 0.0581  0.360
 0.178 -0.430 -0.845
 0.177  0.416 -0.622
 0.171  0.334  0.610
 0.167  0.319 -0.662
-0.306 -0.281  0.520
-0.268 0.0364  0.330
-0.153  0.166 -0.898
-0.230  0.178 -0.727
 0.126 0.0343  0.273
 0.166 -0.394  0.771
-0.276  0.117  0.834
-0.176 -0.234 -0.780
 0.215 0.0670 -0.603
 0.215 -0.234 -0.422
 0.214  0.277  0.480
 0.215  0.177  0.299
-0.327 -0.274  0.750
 0.125 -0.281  0.590
 0.215  0.127  0.470
-0.327 -0.224 -0.653
-0.196 -0.281 -0.282
-0.146 -0.281 -0.462
 0.214  0.267  0.109
 0.148  0.117  0.630
-0.0659 -0.281  0.209
-0.327 -0.0432  0.199
 0.148 0.0871  0.420
-0.327 -0.123  0.510
-0.327 -0.103  0.119
0.0443 -0.281  0.410
-0.327 -0.194 0.0288
 0.148  0.187 -0.142
 0.211  0.423 -0.175
0.0343 -0.281  0.249
0.0743 -0.281  0.490
 0.215  0.167  0.159
-0.0559 -0.281  0.299
 0.215 0.0870  0.680
 0.214  0.247 -0.522
-0.327 -0.163  0.460
 0.149  0.257 -0.412
 0.135 0.0321 -0.844
 0.145 -0.0233 -0.851
0.0143  0.222 -0.891
-0.215 0.0515 -0.142
-0.175 0.0593 -0.242
-0.327 -0.272  0.640
-0.176  0.137 -0.838
 0.135 0.0348  0.550
-0.327  0.207  0.841
-0.277 -0.281  0.661
 0.214 -0.314  0.750
 0.214  0.378 -0.703
0.0343 -0.234  0.777
 0.175 0.0567  0.838
-0.00578 -0.0816  0.843
 0.175  0.378 -0.0413
-0.327 -0.264 0.0589
0.0343 -0.166  0.811
-0.189 0.0565  0.199
-0.0960  0.178  0.725
-0.226 0.0955  0.658
-0.298 0.0261  0.530
-0.327 -0.414  0.801
-0.196 -0.119  0.833
 0.195 -0.281 -0.342
-0.314 0.0204 -0.292
-0.206  0.172 -0.868
-0.327 -0.272  0.269
-0.146 0.0321 -0.844
-0.279 -0.354 -0.763
 0.124 -0.133 -0.831
 0.125 -0.213  0.778
 0.214  0.368  0.189
-0.206 -0.223  0.777
-0.286  0.107 -0.837
-0.0425  0.172  0.865
-0.0258 -0.0812 -0.846
0.00423  0.210  0.826
-0.0601  0.164 -0.844
-0.262 0.0390  0.430
-0.281  0.164 -0.844
-0.317 -0.281 -0.432
 0.175  0.378  0.660
 0.215  0.308 -0.583
-0.160 0.0572  0.626
-0.226  0.166  0.895
0.00369 0.0628 -0.00122
-0.327 -0.244 -0.00123
-0.327 -0.244 -0.252
-0.317 -0.281  0.410
-0.126  0.175  0.851
 0.214  0.308 0.0288
 0.215 -0.273 -0.0213
-0.286 -0.184  0.800
-0.327 0.0370  0.811
-0.206 -0.190 -0.798
-0.306 -0.254 -0.781
 0.207 -0.385  0.817
 0.148  0.117 -0.122
 0.215  0.167 -0.613
 0.215  0.368  0.310
 0.215  0.227 -0.182
 0.214 -0.184  0.710
 0.215 0.0871  0.229
-0.327 -0.123 -0.472
 0.215  0.368  0.590
 0.175  0.388 -0.262
0.0944 -0.281  0.710
-0.276 -0.281 -0.583
 0.214  0.318  0.179
-0.0360 0.0645 -0.192
-0.0459 -0.281 -0.713
-0.0559 -0.281 -0.142
0.0539 0.0537  0.139
 0.215  0.127 -0.202
 0.148  0.167 -0.562
 0.135 -0.281 -0.272
-0.126 0.0640 -0.0914
-0.0760 -0.281 -0.522
-0.0359 -0.281  0.450
-0.327 -0.0131 0.0188
-0.327 -0.0432 -0.0814
0.0543 -0.281  0.299
 0.215 0.0771 -0.302
-0.0659  0.137  0.835
 0.204  0.425  0.229
0.0644 -0.281  0.771
 0.215 -0.0232  0.500
-0.0158 -0.281 0.0990
0.0443 -0.281 -0.0113
 0.215  0.378 -0.0914
-0.136 -0.281  0.480
-0.156 -0.0332 -0.851
-0.327 -0.204  0.129
-0.165 0.0616  0.299
 0.104 0.0968 -0.838
 0.214 -0.0432  0.720
-0.327 -0.154 -0.272
 0.185 -0.281 -0.232
-0.306 -0.281 -0.282
-0.236 -0.281 -0.522
 0.155 -0.281 -0.482
 0.215 -0.113 -0.122
-0.116 -0.281  0.309
-0.327 -0.0733  0.310
-0.215 0.0515 -0.442
-0.305 0.0238 -0.172
 0.211 -0.244 -0.778
-0.239 0.0466 0.00880
0.00371 0.0628 -0.332
-0.310 -0.154 -0.821
 0.175  0.350 -0.542
0.0657 -0.272 -0.782
-0.307  0.157 -0.763
-0.327 -0.0332  0.690
 0.103 0.0429 -0.162
 0.153  0.283 -0.502
-0.0460 0.0646  0.340
-0.205 0.0531 -0.583
 0.214  0.398 -0.342
 0.175  0.350 -0.422
-0.106  0.143  0.685
-0.0659  0.222 -0.891
 0.153  0.283 -0.603
 0.215  0.388 0.0489
 0.149  0.257  0.520
-0.327 -0.334 -0.753
 0.214 -0.273  0.149
-0.189 0.0564 -0.532
-0.106 -0.273  0.780
 0.211  0.365 -0.797
-0.263 0.0393 -0.301
 0.166 -0.324 -0.773
 0.211  0.165 -0.892
 0.154  0.258 -0.712
 0.215  0.308 -0.683
 0.214  0.288 -0.482
 0.214  0.237 -0.232
 0.215  0.137 -0.733
-0.216 -0.281 -0.352
 0.215  0.167  0.630
-0.327 -0.0933 -0.352
0.0644 0.0762  0.655
 0.214  0.288  0.650
0.0944 -0.0817 -0.846
-0.156 0.0625 -0.342
0.0133 0.0618 -0.282
-0.327 -0.143 -0.372
-0.327 -0.224  0.741
 0.215 -0.0332  0.169
 0.148  0.157 -0.242
0.0729 0.0500  0.229
 0.214  0.398 -0.00123
-0.325 0.0128  0.219
 0.168  0.326 -0.0614
 0.148  0.137 0.0990
 0.148 0.0871 -0.182
-0.0559 -0.281  0.670
 0.214 0.0369  0.460
 0.148  0.217  0.179
 0.215  0.368  0.700
 0.215 0.0269 0.0689
 0.214  0.268 -0.332
 0.215 -0.184 -0.322
 0.214  0.257 -0.142
-0.166 -0.281 -0.743
 0.148  0.207  0.560
 0.148  0.147 -0.512
-0.266 -0.281  0.590
-0.206 -0.281  0.400
 0.214 -0.154 -0.492
-0.286 -0.281 -0.332
-0.0960 -0.281 -0.192
-0.0860  0.117 -0.837
 0.145 -0.281 -0.402
-0.156 -0.281 -0.673
0.0944 -0.281 -0.603
 0.148  0.207  0.620
-0.246 -0.281 -0.432
0.0443 -0.281 -0.583
-0.266 0.0667  0.837
-0.327 -0.133 -0.0413
-0.126 -0.281 -0.0213
-0.136 -0.281 -0.282
0.0142 -0.281 -0.412
 0.215 -0.0633 -0.472
-0.126 -0.281  0.400
-0.266 -0.281 -0.0213
-0.0760 -0.281  0.119
-0.116 -0.281 -0.352
-0.126 -0.281  0.590
 0.175  0.408 -0.0814
-0.298 0.0261 -0.0814
 0.215 -0.0733  0.370
 0.215 0.0370 -0.412
 0.215 0.0269  0.660
-0.0460 0.0646 -0.512
 0.215  0.117  0.640
-0.0360 0.0642  0.279
 0.215 0.0870 -0.553
 0.214 -0.133 -0.773
-0.327 -0.113 -0.653
-0.116 0.0641  0.209
 0.215 0.0771 -0.352
 0.215  0.177 -0.242
 0.214 -0.123  0.119
-0.327 -0.0933 -0.302
 0.148  0.197  0.360
 0.215 -0.0733  0.540
-0.166 -0.281  0.299
-0.0325 -0.167 -0.814
 0.162 -0.286  0.747
-0.256 -0.281 0.0489
 0.157  0.207  0.759
 0.214 -0.204  0.319
 0.148  0.177  0.470
 0.148  0.177  0.410
 0.148 0.0771  0.259
-0.0760 0.0658 -0.112
-0.0360 0.0642  0.510
 0.103 0.0432 -0.312
 0.148  0.197 -0.432
 0.155 -0.281  0.630
0.0944 0.0470  0.840
0.00374 0.0631  0.430
-0.126 0.0636 0.0689
 0.152  0.276  0.319
-0.307 0.0671  0.721
-0.116 0.0645 -0.552
-0.327 -0.274 -0.673
 0.214  0.358 -0.583
-0.106 0.0159  0.844
-0.176 -0.112 -0.839
 0.175  0.358 -0.763
 0.214  0.348  0.129
 0.215 -0.234 0.00879
-0.136 0.0636 -0.212
0.0978  0.172 -0.907
-0.327 -0.234  0.550
 0.215 -0.234 0.0589
0.0143  0.163 -0.885
 0.215 -0.273 -0.142
-0.153  0.137 -0.684
-0.00591 0.0637 -0.572
 0.214  0.328 -0.402
0.0228 0.0600 -0.142
 0.215  0.237 -0.773
0.0443 0.0247  0.843
 0.162  0.313  0.269
-0.139 -0.201 -0.789
 0.175  0.388 -0.162
 0.214  0.388  0.480
 0.166 -0.394 -0.783
 0.135 0.0351  0.139
 0.214  0.358 -0.192
 0.104  0.181 -0.744
0.000910  0.178 -0.727
-0.166 0.0568 -0.628
-0.321  0.167  0.896
-0.126 -0.141 -0.828
 0.204  0.425  0.340
-0.166  0.221 -0.891
-0.327 -0.0232 -0.733
-0.186  0.181 -0.744
 0.175  0.378 -0.653
0.0574 0.0590 -0.651
 0.175  0.292  0.765
 0.165  0.206  0.908
 0.159  0.306  0.139
 0.153  0.282 -0.0814
 0.153  0.283 0.0389
 0.176 -0.290 -0.678
0.0143 0.0470 -0.842
-0.275 0.0339 -0.553
 0.135 -0.160  0.815
 0.155 0.0158  0.844
-0.0592  0.149 -0.693
-0.283 -0.320  0.790
-0.296 -0.125  0.830
 0.152  0.276  0.410
0.0397 0.0565  0.577
 0.214 -0.184  0.771
 0.103 0.0429 -0.0313
-0.246  0.171  0.844
 0.168  0.326 -0.162
-0.182 0.0581 0.0589
-0.0358  0.179  0.788
0.0397 0.0565  0.356
-0.206  0.206  0.821
-0.327 -0.254 -0.502
 0.155  0.290  0.620
 0.155  0.290  0.560
 0.175  0.378  0.289
 0.148 0.0771 0.00880
-0.0559 0.0767 -0.839
 0.211 -0.0725 -0.846
-0.0425  0.188 -0.803
 0.173  0.210  0.811
 0.195 -0.126  0.830
-0.246 -0.254  0.778
-0.166 -0.264  0.779
 0.195  0.107 -0.837
 0.145  0.132 -0.668
-0.307 0.0570 -0.733
 0.215 0.00686 -0.112
 0.214  0.278 -0.733
 0.214 -0.224 -0.673
 0.215  0.137  0.750
 0.215  0.217  0.750
 0.215  0.197 -0.282
 0.215  0.127 -0.462
 0.215 -0.294 -0.733
 0.215  0.227  0.490
 0.215  0.187 -0.522
 0.215  0.127  0.801
 0.214  0.277  0.259
 0.148  0.117  0.139
-0.327 -0.224  0.169
 0.125 -0.281 -0.162
0.0743 -0.281  0.580
-0.327 -0.194  0.781
0.0743 -0.281 0.0489
 0.215 -0.0733  0.189
 0.214 0.00688 -0.492
 0.175  0.378  0.390
 0.214  0.308  0.741
 0.215 0.0269 -0.553
 0.215 0.0269 -0.703
-0.327 -0.254 -0.112
 0.215 0.0871 -0.0313
-0.327 -0.0232 -0.342
-0.0158 -0.281  0.700
 0.215 0.0270  0.229
-0.0560 0.0653 0.0790
-0.0459 -0.281 -0.0413
 0.215 0.0370  0.139
 0.214 -0.0232 -0.0614
 0.215 0.0169  0.330
 0.214 -0.0833 -0.0413
-0.0460 0.0646 -0.242
-0.0460 0.0646 -0.322
 0.214  0.117 -0.322
 0.214  0.268  0.610
 0.215  0.187 -0.392
 0.215  0.197 -0.142
 0.214 -0.143 -0.192
 0.215 -0.244 -0.101
 0.215 -0.234 -0.322
 0.215  0.388  0.149
 0.215  0.187  0.590
 0.215 -0.274  0.730
-0.146 -0.281 -0.553
-0.327 -0.103  0.620
 0.148  0.217  0.269
 0.148  0.197 -0.222
-0.276 -0.281 -0.192
 0.215  0.147  0.430
 0.214  0.388 -0.462
0.0730 0.0503 -0.442
-0.0358 -0.173  0.807
-0.327 -0.00312  0.279
 0.125 -0.281 -0.0714
-0.116 0.0767  0.837
-0.327 -0.0933 -0.542
-0.0560 0.0650 -0.452
 0.214 0.0169  0.580
-0.327 -0.224 -0.563
-0.327 -0.154  0.199
-0.0960 -0.281 -0.753
-0.327 -0.374  0.781
-0.256 -0.281 -0.252
-0.276  0.223 -0.873
-0.307  0.137  0.741
-0.236 -0.0136  0.847
-0.106 0.0645 -0.262
-0.146 0.0632 0.0188
-0.327 -0.264 -0.192
 0.118 0.0375 -0.115
-0.327 0.00629  0.109
 0.103 0.0429  0.380
 0.215 -0.264  0.560
 0.214  0.398 -0.643
 0.175  0.268 -0.823
-0.246  0.175  0.713
-0.246 -0.0817 -0.846
 0.149  0.257 -0.292
-0.0158  0.169  0.900
-0.279 -0.304  0.700
 0.148  0.217 -0.332
 0.135 0.0348  0.630
-0.270 0.0364 -0.241
-0.279 -0.404 -0.763
-0.0158 -0.264 -0.782
 0.214  0.318  0.791
 0.148 0.0771 -0.532
 0.176  0.237  0.869
-0.0860 -0.0234  0.848
-0.116 -0.0627  0.846
 0.145  0.213 -0.907
-0.0258  0.213 -0.907
-0.0893  0.178 -0.727
 0.186  0.410 -0.720
 0.148 0.0472  0.450
-0.196  0.221 -0.855
0.0966 0.0451  0.503
-0.0860 -0.234  0.777
-0.293  0.109 -0.664
 0.135  0.127  0.671
-0.262 0.0390 0.0489
-0.186  0.223  0.871
 0.175  0.358 -0.693
-0.327 -0.234  0.620
-0.327 -0.234  0.340
 0.175  0.408 -0.482
-0.286 -0.281 -0.643
 0.104  0.211  0.826
-0.327 -0.00312  0.831
-0.165 0.0613 -0.162
 0.157  0.297 -0.332
 0.175  0.358 -0.302
 0.175  0.378 -0.583
-0.270  0.194  0.912
-0.176 -0.0722  0.845
0.0825 0.0480 -0.212
-0.281 -0.427  0.774
-0.0359  0.206  0.908
-0.239 0.0466 -0.0814
 0.175  0.378 0.00879
-0.262 0.0390  0.279
 0.195 -0.281 -0.613
-0.166  0.117  0.834
0.0967 0.0456 -0.639
 0.185 -0.166  0.810
 0.175 -0.0722  0.845
-0.296 -0.0530  0.846
 0.165  0.320 0.0790
 0.152  0.276  0.460
-0.323 -0.429  0.841
 0.214 0.00660  0.839
-0.0993 -0.214 -0.781
0.0944 0.0470 -0.842
 0.175  0.340  0.680
 0.104 -0.0958  0.839
0.0143  0.107  0.835
 0.201 -0.319  0.791
-0.266  0.132  0.676
 0.214 -0.123  0.570
0.0744  0.172 -0.868
0.0143 -0.190 -0.798
 0.214 -0.00314  0.279
 0.177  0.416  0.471
-0.0158 -0.281 -0.683
0.0343 -0.281  0.340
-0.327 -0.0131  0.530
-0.327 -0.0232 -0.673
 0.215 0.0470 -0.202
 0.214  0.248  0.670
 0.214 -0.123  0.690
 0.214  0.117 -0.673
 0.125 -0.281 -0.573
 0.214 -0.204 -0.532
-0.327 -0.364 -0.783
 0.215  0.197 -0.863
-0.146 -0.281  0.209
-0.176 -0.281  0.680
 0.177  0.416  0.130
 0.215 -0.0633 -0.542
 0.214 -0.0733 -0.763
-0.0459 -0.281 0.0288
 0.214 -0.0432  0.410
 0.214 0.0369  0.410
-0.327 -0.0733 -0.593
0.0343 -0.281 -0.292
 0.148  0.157 -0.0413
-0.106 -0.281  0.510
-0.327 -0.0532  0.630
-0.327 -0.0232 -0.412
 0.215 0.0972 -0.0814
 0.215  0.147 -0.813
 0.214 -0.224 -0.492
 0.214  0.328  0.410
 0.215  0.207 -0.743
 0.215  0.157 -0.362
 0.214  0.348  0.269
-0.327 -0.143  0.710
-0.166 -0.281 -0.252
-0.236 -0.281  0.219
 0.215  0.107  0.129
 0.148 0.0871 -0.322
 0.215  0.107  0.400
0.0443 -0.281  0.550
-0.327 -0.0933 0.0389
0.0142 -0.281  0.129
-0.327 -0.0933 -0.733
 0.148  0.167 0.0689
-0.136 0.0636 -0.472
 0.215 0.0870  0.590
-0.126 0.0640 -0.392
-0.0459 -0.213  0.778
-0.327 -0.00312 -0.803
-0.226  0.219 -0.898
-0.0860 0.0630 -0.592
 0.104 -0.254 -0.781
-0.240  0.197 -0.812
-0.106  0.221 -0.855
-0.0359 -0.281  0.741
0.0744 -0.0332  0.848
 0.173  0.213 -0.818
0.0477  0.179 -0.791
-0.0158 0.0621  0.599
 0.214  0.417 -0.292
0.0633 0.0522 -0.382
-0.320  0.176 -0.853
 0.211  0.263  0.865
-0.0160 0.0634  0.209
 0.214  0.169  0.882
-0.116  0.179  0.908
0.0948 0.0458 -0.519
-0.196 0.0549  0.269
-0.298 0.0261  0.620
-0.254 0.0423 -0.342
 0.175  0.298 -0.773
0.00373 0.0630 -0.512
 0.160  0.285  0.709
-0.327 -0.0232 -0.522
 0.214 -0.344  0.721
 0.215 -0.244  0.480
 0.214 -0.273 -0.573
0.0476  0.165 -0.706
-0.196  0.166  0.703
-0.189 0.0567  0.139
-0.215 0.0512 -0.0313
-0.327 -0.244  0.500
-0.126 0.0603 -0.611
 0.215 0.0570 -0.142
 0.214 -0.0432 -0.252
-0.176 -0.281  0.109
-0.0860 0.0636  0.560
 0.214 -0.424  0.830
 0.215 -0.103  0.279
 0.215 -0.0232 -0.402
-0.327 -0.0432  0.119
 0.214  0.358 -0.332
 0.214  0.328  0.340
 0.214  0.288 -0.292
 0.214 0.0971 -0.743
 0.165  0.117  0.835
 0.215 -0.214  0.440
 0.214 -0.174 0.0990
 0.215  0.187  0.811
-0.317 -0.281  0.169
 0.215 -0.194  0.670
0.0844 -0.281 -0.332
-0.327 -0.334  0.730
-0.327 -0.174  0.550
 0.215 -0.254  0.600
 0.215  0.237 -0.613
 0.148  0.167  0.520
-0.276 -0.281  0.440
-0.327 -0.184  0.299
-0.327 -0.103  0.400
-0.216 -0.281  0.360
 0.215 -0.254  0.299
 0.215 -0.154  0.410
 0.148  0.147  0.380
 0.135 -0.281  0.550
 0.148  0.177 -0.322
 0.214 -0.194 -0.613
 0.175  0.398  0.540
-0.327 -0.103 -0.392
0.0142 -0.281 -0.362
-0.0659 -0.281  0.390
 0.214 -0.0131  0.771
-0.0459 -0.281 -0.603
0.00422 -0.281  0.430
-0.256 -0.281 -0.0714
0.0243 -0.281 -0.112
-0.327 -0.0532  0.460
-0.327 -0.0833  0.219
-0.0158 -0.281  0.350
0.00424  0.107 -0.837
-0.116 -0.281  0.360
-0.00580 -0.281 -0.202
 0.148 0.0871 -0.0313
-0.0359 -0.281 -0.312
-0.216 -0.281 0.0288
 0.104 -0.281 -0.0313
0.0543 -0.281  0.139
 0.215 -0.174 -0.0213
-0.0459 -0.281  0.630
-0.00580 -0.281  0.620
 0.214 -0.0532  0.450
-0.0559 -0.281 -0.412
 0.214 -0.0332 -0.583
0.0844 -0.281 0.0890
 0.214 -0.143  0.741
 0.215 -0.184  0.159
-0.327 -0.174 -0.192
 0.214 -0.214 -0.573
 0.214  0.318 -0.112
 0.215 -0.174  0.249
-0.327 -0.204 -0.322
 0.175 -0.281  0.350
-0.327 -0.154 -0.613
 0.214 -0.113  0.650
 0.214  0.237 -0.0614
0.0343  0.221  0.853
-0.327 -0.0633 -0.122
 0.215  0.197 -0.0714
 0.214 0.00688 -0.352
 0.214 -0.0232  0.680
-0.00578  0.149  0.690
0.00422 -0.281 -0.0614
 0.214 0.0971 -0.502
-0.327 -0.123  0.670
 0.148 0.0671 -0.252
-0.186 -0.281  0.550
0.0729 0.0500 -0.562
 0.214 -0.0131 -0.753
 0.215  0.127 0.0589
0.0228 0.0603  0.289
 0.215 -0.0232  0.350
 0.214  0.288  0.550
 0.215 0.0972  0.360
 0.214 -0.204 -0.723
-0.156 0.0625 -0.122
-0.165 0.0613  0.530
-0.156 0.0159  0.844
 0.148  0.217 -0.562
-0.327  0.117  0.791
-0.206 0.0531  0.590
 0.184 -0.133 -0.831
0.0634 0.0524  0.610
 0.148 0.0472  0.590
 0.205 -0.281  0.249
-0.325 0.0127 -0.112
-0.0860  0.115  0.664
-0.106  0.210  0.827
-0.286  0.157  0.839
 0.168  0.326 -0.00122
-0.196 0.0549  0.490
0.0410  0.212  0.905
-0.0759  0.186 -0.772
 0.211 -0.227  0.775
 0.175 0.0470 -0.842
-0.109  0.103 -0.663
-0.296 -0.342 -0.801
 0.214 -0.384 -0.813
-0.298 0.0264  0.360
 0.214 0.0463  0.830
-0.232 0.0481 -0.482
-0.266  0.186  0.770
-0.0258 0.0666 -0.656
-0.314 0.0206 -0.653
-0.0359  0.206  0.821
-0.246 0.0447  0.199
 0.180  0.421 -0.201
-0.321 0.0170  0.179
 0.214 -0.00312 -0.813
-0.325 0.0128 -0.492
 0.175  0.398 -0.412
-0.284 0.0307 -0.623
-0.286 -0.281  0.229
-0.327 -0.264  0.680
 0.135  0.176 -0.861
 0.108 -0.167 -0.814
-0.327 -0.404 -0.813
 0.195  0.425 0.0689
-0.305 0.0235  0.319
-0.262 0.0392  0.630
-0.166  0.183  0.751
-0.0559 0.0603  0.609
0.0844  0.183  0.796
-0.166 0.0667 -0.840
 0.155 -0.264  0.780
-0.327 -0.00312 -0.252
 0.104 -0.0430 -0.850
0.0825 0.0480  0.420
-0.139  0.182 -0.799
-0.166  0.175  0.851
 0.215  0.187 -0.823
 0.215 -0.204  0.360
-0.136 0.0637 -0.432
 0.215  0.187 -0.482
 0.214 -0.0833 -0.352
 0.148 0.0871  0.460
-0.236 -0.281  0.741
 0.215  0.137  0.330
-0.327 -0.0131  0.370
 0.214 -0.113 -0.482
 0.214  0.358 -0.242
 0.215  0.187  0.360
-0.196 -0.281  0.199
-0.106 -0.281  0.219
 0.148 0.0972 0.0990
 0.148 0.0771  0.219
-0.327 -0.143  0.350
-0.0260 0.0638  0.159
 0.215  0.227 -0.322
 0.175  0.388 -0.122
-0.327 -0.184 -0.563
 0.125 -0.281  0.239
-0.0160 0.0637 -0.432
 0.126 0.0343  0.313
 0.162  0.313  0.179
 0.165  0.320  0.450
0.0644 -0.281 -0.112
 0.104 -0.281  0.330
-0.216 -0.281 -0.392
 0.214 0.0771 -0.402
 0.215  0.227  0.319
 0.175  0.368  0.580
0.0844  0.107  0.835
 0.215 -0.184 -0.252
 0.148  0.117  0.179
-0.206 0.0535 -0.382
 0.148  0.217  0.470
 0.103 0.0432 -0.352
 0.215  0.147  0.269
-0.0158 -0.281  0.269
 0.215 -0.0933 -0.623
 0.214 -0.0532 -0.673
 0.214  0.378 -0.0514
 0.177  0.416 -0.0104
-0.0659 -0.281 -0.0914
 0.214  0.308 -0.0113
-0.327 -0.0633 -0.0313
-0.256 -0.281 0.0890
-0.136 -0.281 -0.402
 0.215  0.177 0.0790
-0.262 0.0390 0.0890
 0.214 -0.0933  0.781
-0.327 -0.0733  0.781
0.00422 -0.281 -0.563
 0.142 0.0468 -0.644
-0.156 -0.281 -0.101
 0.151  0.217 -0.732
0.0343 -0.281 0.0489
-0.296  0.201  0.815
-0.00577  0.177  0.718
 0.214  0.268 -0.683
 0.214  0.207  0.530
 0.214  0.278 -0.242
 0.155  0.164  0.841
 0.175  0.368  0.730
-0.327 -0.234 -0.362
 0.214 -0.154 -0.452
-0.307 0.0470 -0.693
-0.327 -0.264 0.0990
 0.148  0.237  0.330
 0.211  0.423  0.597
 0.148 0.0472 -0.402
 0.185 -0.278 -0.784
 0.185 -0.0430 -0.850
 0.135 -0.281 -0.703
-0.327 -0.00312 -0.192
0.0468 -0.120 -0.836
-0.275 0.0339 -0.512
 0.214  0.268  0.811
-0.327 -0.334 -0.713
 0.166 -0.394  0.810
 0.155  0.290 -0.122
-0.216  0.181 -0.784
 0.214  0.307  0.830
-0.279 -0.374  0.761
-0.156 0.0628 -0.512
 0.214 -0.354  0.771
 0.162  0.313 -0.542
-0.276  0.213 -0.835
-0.225 0.0496 -0.302
-0.279 -0.324  0.750
0.000900  0.210 -0.829
0.0644  0.221 -0.855
 0.214  0.417 -0.382
 0.171 -0.397 -0.826
 0.214  0.388  0.430
 0.214  0.408 -0.542
 0.214  0.358  0.741
-0.286  0.194 -0.915
0.0109  0.168  0.870
-0.215 0.0512 0.0389
 0.177  0.416  0.270
0.0744  0.163  0.882
-0.239 0.0466  0.119
0.0543 -0.190 -0.798
-0.256 -0.244 -0.780
 0.175  0.388  0.159
-0.297  0.103  0.660
-0.286 0.00620 -0.848
-0.314 -0.370  0.726
-0.0759 -0.244 -0.780
 0.181 -0.0960 -0.843
-0.327 0.0972 -0.803
-0.226 0.0567  0.838
-0.136  0.127 -0.837
0.0243 0.0858  0.656
-0.236 0.0159 -0.847
-0.0258  0.172 -0.868
-0.290 -0.214 -0.781
-0.173 -0.278 -0.780
-0.146 0.0632  0.370
-0.116 -0.194  0.790
-0.182 0.0578  0.410
-0.306 0.0567  0.839
-0.0826  0.190 -0.915
-0.116 0.0583  0.618
0.0143 0.0471  0.840
-0.267 -0.133 -0.831
-0.106 -0.111  0.836
 0.204  0.425  0.560
-0.175 0.0593  0.570
0.00424  0.114 -0.667
 0.208  0.404  0.730
 0.186  0.301 -0.853
0.0324 0.0581 -0.472
-0.0793  0.168  0.870
-0.193 -0.147 -0.825
-0.296 -0.281  0.620
0.0324 0.0581 0.0389
-0.236  0.143 -0.688
 0.168  0.326 -0.472
-0.306 -0.281 -0.0313
 0.143 0.0388 -0.442
 0.157  0.297  0.380
-0.246 0.0447  0.530
0.0243 -0.103  0.838
 0.126 0.0347 0.0623
-0.0960 -0.103 -0.841
-0.316 -0.0722 -0.847
-0.323 -0.278 -0.329
 0.215 -0.273 -0.252
 0.104  0.171  0.707
-0.176 -0.147  0.822
-0.321 0.0173 0.0389
 0.149  0.227  0.700
-0.309 -0.379  0.814
0.0382 0.0569  0.206
 0.101  0.120 -0.671
0.0443  0.117 -0.837
-0.322 -0.307 -0.688
 0.104 -0.178  0.804
 0.108  0.207 -0.823
0.0966 0.0451 -0.258
-0.123  0.206 -0.823
-0.166  0.149  0.690
0.0443  0.149  0.690
-0.327 -0.254 -0.593
-0.196  0.107 -0.837
-0.327  0.137 -0.785
 0.185  0.194 -0.915
 0.104 -0.281  0.470
 0.215  0.167  0.119
 0.214  0.368 0.0990
 0.214  0.298  0.129
 0.214 -0.103 -0.272
-0.327 -0.154 0.0489
-0.106 -0.281  0.680
 0.215 0.0670  0.390
-0.327 -0.113  0.279
 0.214 0.0771 -0.643
 0.214  0.348 -0.743
 0.214  0.278 -0.542
 0.214  0.247 -0.432
 0.215 -0.143  0.199
-0.327 -0.244  0.199
-0.327  0.137  0.821
-0.186 -0.281 -0.192
-0.256 -0.281 -0.673
 0.215  0.137  0.550
0.0743 -0.281 -0.683
 0.214 -0.154 -0.532
-0.327 -0.194  0.390
 0.215 -0.234 -0.212
-0.327 -0.234 -0.212
-0.00580 -0.281  0.490
 0.214  0.338 0.0589
 0.215 -0.214 -0.0213
-0.0860 -0.281 -0.643
 0.214  0.338  0.570
 0.214  0.288 -0.372
 0.215 0.0871 0.0489
 0.215 -0.194 -0.162
 0.214 -0.234  0.660
 0.215 -0.0332  0.600
-0.296 -0.281 -0.402
0.0944 -0.281 -0.512
 0.215  0.147 -0.402
 0.155 -0.281 -0.593
-0.246 -0.281 -0.603
 0.214 -0.154 -0.673
-0.327 -0.133  0.771
 0.148 0.0871  0.520
0.0644 -0.281 -0.743
-0.276 -0.281  0.149
 0.148  0.147  0.239
-0.196 -0.281  0.450
 0.148  0.167  0.119
 0.148  0.167 -0.192
-0.256 -0.281  0.330
 0.175 -0.281 -0.512
0.0543 -0.281  0.660
 0.215 -0.174  0.510
-0.327 -0.254  0.310
-0.216 -0.281 -0.733
-0.327 -0.224  0.700
 0.148  0.137 -0.583
 0.148  0.117 -0.492
 0.215 0.0570 -0.0514
 0.215 -0.0934 0.0288
-0.0560 0.0653 0.00879
-0.327 -0.143 0.0990
 0.215 0.0269 0.00879
 0.215 0.0570 -0.0113
 0.215 -0.0633  0.289
-0.327 -0.0933 -0.783
-0.0960 -0.281 0.0288
 0.215 -0.0131 -0.542
 0.214 0.0570 -0.743
 0.215 0.00686  0.540
 0.214 -0.113 -0.563
-0.146 -0.281  0.269
 0.148  0.197 0.0489
-0.327 -0.224 -0.0514
-0.0158 -0.281  0.179
-0.327 -0.163 -0.0113
-0.0459 -0.281  0.550
-0.0760 -0.281  0.480
-0.0559 -0.281 -0.492
 0.214 -0.0232 -0.152
-0.327 -0.0232  0.600
-0.327 -0.0131  0.720
 0.215  0.177 -0.0113
 0.214  0.328 -0.0514
-0.0960 -0.281 -0.292
 0.215 0.0570 -0.272
-0.327 -0.0833 -0.673
-0.327 -0.0933 -0.623
-0.186 0.0767  0.836
 0.215 -0.0934 0.0990
 0.145 -0.281 -0.0413
-0.0860 -0.281  0.179
0.0142 -0.281 -0.472
0.0343 -0.281 -0.532
-0.0659 -0.281 -0.232
 0.215  0.127 -0.101
-0.116 0.0641  0.450
0.0443 -0.281  0.209
0.0243 -0.281 -0.252
-0.327 -0.0633 -0.753
 0.214 -0.113 -0.372
 0.214  0.268 -0.793
 0.214  0.338  0.610
 0.214 -0.0332  0.811
-0.296 -0.281 0.0689
 0.214  0.268  0.730
 0.214  0.358 -0.482
 0.215  0.107 -0.422
 0.214  0.197  0.650
 0.215 -0.254  0.380
 0.215  0.207 -0.212
 0.215 -0.154  0.139
 0.214 -0.133  0.310
-0.327 -0.103  0.540
 0.145 -0.281  0.400
0.0844 -0.281 -0.472
 0.148  0.157  0.319
-0.216 -0.281  0.249
 0.148 0.0871 -0.573
 0.148  0.197  0.139
 0.148  0.167 -0.412
 0.215  0.187  0.730
 0.148  0.177 -0.643
 0.214 -0.214  0.730
 0.148  0.117 -0.422
0.0944 -0.281  0.410
-0.327 -0.163 -0.723
 0.215 -0.184 -0.101
0.0944 -0.281 -0.202
 0.155 -0.281 -0.202
 0.215  0.177  0.249
 0.148  0.107  0.330
-0.216 -0.281  0.520
 0.214  0.338  0.209
-0.327 -0.244 -0.703
 0.125 -0.281 -0.372
 0.148  0.107 -0.603
 0.214  0.288  0.219
-0.266 -0.281 -0.462
-0.327 -0.163 -0.402
 0.175 -0.281 -0.312
 0.175  0.408  0.640
-0.0560 0.0655  0.139
-0.00600 0.0633 -0.172
 0.145 -0.281 -0.101
 0.145  0.193 -0.807
 0.214 -0.123 -0.703
 0.215 -0.103  0.510
 0.214  0.248  0.460
-0.0660 0.0660  0.370
-0.166 -0.189  0.795
 0.148  0.237 -0.00122
-0.0660 0.0657 -0.362
 0.148  0.217 -0.0914
-0.00602 0.0633  0.480
 0.148 0.0671 -0.0814
 0.148 0.0671 0.0589
-0.0760 0.0654 -0.532
 0.175  0.298  0.801
 0.148 0.0671 -0.372
 0.175  0.348  0.761
 0.165  0.224 -0.864
 0.148  0.237  0.119
0.0964 0.0455 -0.589
-0.206  0.114 -0.666
 0.175  0.358 -0.142
 0.175  0.388 -0.342
-0.0258 -0.0430  0.847
-0.0160 0.0634  0.360
-0.266 -0.0332  0.848
-0.276  0.221  0.889
-0.146 0.0760 -0.658
-0.327 -0.264 -0.462
-0.126 -0.0531 -0.850
-0.283  0.137 -0.684
-0.0260 0.0641 -0.101
 0.148  0.227 -0.372
 0.145  0.172 -0.698
-0.156 0.0625 -0.0513
0.0644  0.221 -0.891
0.0644 -0.0332 -0.851
0.0133 0.0618 -0.382
 0.175 -0.431  0.782
-0.327 -0.0131 0.0790
-0.323 -0.234  0.775
-0.176  0.190  0.912
 0.215  0.388  0.279
-0.106 0.0858  0.656
0.0240 0.0575 -0.629
 0.185 -0.291  0.676
-0.246 0.0665  0.653
-0.327 -0.123 -0.813
 0.214  0.398 -0.202
-0.327 -0.404 -0.773
-0.307  0.177  0.761
-0.216 -0.273  0.780
0.0143 -0.0815 -0.846
 0.175 -0.295  0.785
-0.326 0.00614 -0.362
-0.225 0.0493 -0.212
-0.288 -0.411 -0.835
 0.204 -0.0530  0.847
 0.215 -0.334 -0.763
-0.0559 0.00620 -0.848
-0.196 0.0549  0.319
-0.256 0.0247  0.842
-0.139  0.212  0.905
 0.191 -0.201 -0.789
0.00369 0.0628 0.0991
-0.189 0.0564 -0.282
-0.146  0.222  0.862
0.0229 0.0601 -0.592
 0.167  0.285 -0.741
 0.166 -0.334  0.771
-0.246  0.213  0.833
-0.0258 -0.281 -0.753
-0.287 -0.364 -0.725
-0.327 -0.294 -0.763
-0.230  0.184  0.775
 0.214  0.388  0.630
-0.327 -0.244  0.249
 0.215 -0.254  0.229
 0.148 0.0472 -0.562
0.0143 -0.160 -0.818
 0.176 -0.398 -0.750
 0.174  0.342  0.645
 0.149  0.247 -0.532
-0.216 0.0761 -0.658
 0.195 -0.281 -0.542
 0.177  0.416  0.210
 0.211 -0.429 -0.833
-0.216 -0.244 -0.780
0.0343 -0.194  0.790
 0.211  0.423 -0.466
-0.223  0.166 -0.898
 0.210 -0.294 -0.681
-0.316  0.172  0.844
0.0210  0.185 -0.913
 0.214  0.327 -0.823
0.0911  0.171 -0.710
 0.175  0.350 -0.192
-0.165 0.0613 -0.452
-0.236 -0.207  0.781
-0.327 -0.0532  0.821
-0.305 0.0235 -0.583
 0.214  0.257 -0.853
 0.135 0.0351 -0.0213
 0.103 0.0429 0.00880
-0.129 -0.173 -0.810
0.0903 -0.127 -0.833
0.0397 0.0565  0.447
-0.156  0.183  0.796
 0.168  0.326 -0.352
-0.327 -0.00312  0.430
 0.214  0.357  0.790
 0.214  0.415 -0.672
 0.172  0.334 -0.633
 0.175  0.388 -0.743
-0.210 -0.0960 -0.843
 0.178  0.320  0.833
-0.307 0.0364  0.651
-0.327 -0.113  0.821
0.0443  0.186  0.770
-0.279 -0.304 -0.733
 0.204  0.425 -0.0814
-0.0893  0.184  0.775
0.0729 0.0500  0.480
-0.284 0.0307 -0.372
-0.0459  0.103  0.660
 0.209 -0.371 -0.730
 0.103 0.0429  0.249
0.0343  0.176 -0.860
0.0397 0.0565 -0.0747
-0.0359 -0.0960  0.840
 0.168  0.326 -0.262
-0.206  0.121  0.667
 0.165  0.320 -0.412
 0.145 -0.189  0.796
-0.106 -0.147  0.822
 0.157  0.297 -0.192
-0.314 0.0201  0.139
-0.323  0.100 -0.836
-0.213  0.172  0.865
-0.0559  0.166  0.895
 0.167  0.236  0.771
 0.153  0.283 -0.272
-0.119  0.160 -0.702
-0.298 0.0261 -0.132
-0.254 0.0580 -0.654
-0.298 0.0261 -0.452
-0.246 0.0447  0.490
 0.174  0.341  0.480
-0.323 -0.345  0.797
 0.174  0.342  0.229
-0.176 0.0955  0.658
0.0633 0.0519 0.0890
0.0844 -0.223  0.777
-0.286  0.163 -0.885
0.0846  0.102  0.660
-0.126  0.166  0.703
-0.327  0.207 -0.873
-0.325 0.0127 -0.322
-0.327 -0.154 -0.793
 0.204  0.420  0.669
 0.215 -0.264 -0.362
-0.270 -0.184 -0.803
 0.165  0.224 -0.776
-0.126  0.165 -0.879
 0.185  0.168 -0.872
0.0243 -0.273  0.781
-0.0952  0.164  0.841
 0.171  0.334  0.129
-0.0125 0.0556  0.633
-0.327 -0.0131 -0.0213
-0.268 0.0364  0.229
0.0644  0.175  0.851
-0.278 -0.304 -0.773
0.0811  0.194  0.912
-0.0960 -0.281  0.750
 0.159  0.306 -0.0313
-0.306 -0.340  0.706
 0.135 0.0351 -0.162
0.0644  0.178  0.725
 0.175  0.408  0.370
 0.185 -0.281  0.440
 0.185 -0.281  0.500
-0.262 0.0390  0.370
-0.327 -0.204 -0.763
 0.141  0.157  0.689
 0.166 -0.304  0.720
-0.254 0.0419  0.149
 0.119 0.0369  0.186
 0.114  0.137  0.835
-0.0559  0.107  0.835
-0.0760  0.166  0.703
