ply
format ascii 1.0
element vertex 2048
property float x
property float y
property float z
end_header
-0.575  0.432  0.211
 0.691 -0.686 -0.229
 0.691  0.574 0.0399
-0.666 -0.684 -0.216
0.0203 -0.239  0.191
-0.0167  0.678 -0.237
 0.691 -0.111  0.145
-0.470 -0.0584 -0.199
-0.0249 -0.677 -0.238
 0.269  0.145 -0.203
 0.357 -0.692  0.225
-0.337 -0.692  0.225
-0.0394  0.370  0.206
-0.649  0.678 -0.236
-0.663 -0.307  0.193
 0.344 -0.337 -0.207
 0.405  0.266  0.198
-0.171  0.262 -0.209
-0.311 0.0321  0.188
 0.690  0.198 -0.164
-0.0777 -0.171 -0.201
-0.274  0.680 0.0927
 0.375  0.577 -0.235
 0.691 -0.503  0.138
-0.666  0.281 -0.201
-0.357 -0.435 -0.214
-0.666 0.0848  0.123
 0.689 -0.223 -0.200
 0.375 -0.315  0.194
 0.254  0.579  0.108
0.0128 -0.594  0.217
 0.350 -0.687 -0.161
-0.311 -0.330  0.195
-0.666 -0.654  0.138
-0.334  0.552 -0.236
 0.133 0.0773  0.189
-0.666 -0.315 -0.156
-0.663  0.678 0.0707
 0.691  0.258  0.130
 0.126  0.402 -0.220
-0.0167  0.681  0.221
 0.646  0.485 -0.229
 0.450 -0.0735 -0.200
 0.397 -0.0207  0.187
-0.311  0.311  0.201
0.0881 -0.435 -0.214
 0.503  0.523  0.222
-0.304 -0.687 -0.145
 0.539 -0.692 0.0244
 0.179 -0.126 -0.200
 0.578 -0.458 -0.216
-0.417  0.190 -0.206
 0.442  0.334 -0.215
0.0134 0.0924 -0.202
-0.133 -0.692 0.0449
-0.507 -0.119  0.188
-0.477  0.673  0.228
-0.462  0.680 -0.0731
-0.666 -0.119 -0.00531
-0.666  0.492 -0.0807
 0.126 -0.690 -0.0539
-0.500 -0.473  0.205
-0.467 -0.692 0.0207
0.0429  0.680 -0.0128
 0.232 -0.496  0.207
 0.457  0.579 -0.0204
-0.0968  0.148  0.192
 0.194  0.380  0.207
-0.244 -0.0132 -0.200
 0.691 -0.0282 -0.0807
-0.666  0.296 0.0399
-0.666 0.0471 -0.171
-0.666 -0.480 -0.00531
 0.691 -0.307 0.0324
-0.0927  0.470 -0.227
-0.130 -0.477 -0.217
 0.216 -0.141  0.188
-0.287 -0.225 -0.202
-0.183 -0.156  0.189
-0.515  0.221  0.195
 0.472 -0.504  0.208
 0.601 -0.684  0.228
-0.198  0.507  0.220
-0.183  0.680 -0.0957
 0.691 -0.556 -0.0656
-0.508  0.438 -0.224
-0.559 -0.482 -0.217
-0.0927 -0.413  0.200
 0.480  0.130 -0.203
 0.205  0.593 -0.121
 0.593 0.0623  0.189
 0.691  0.371 -0.0581
 0.571 -0.277  0.192
 0.307 -0.692 0.0329
 0.689  0.437  0.210
 0.261 -0.526 -0.222
-0.477 -0.262 -0.204
 0.171 -0.692  0.175
-0.477 -0.669 -0.237
-0.191 -0.572  0.215
-0.402  0.499  0.219
 0.111  0.545  0.225
-0.0174 -0.0584  0.187
-0.635 -0.134 -0.200
 0.186 -0.322  0.195
-0.319  0.362 -0.217
 0.503 -0.616 -0.231
 0.503 -0.262 -0.204
 0.148 -0.662 -0.236
-0.666 -0.661 -0.0355
-0.658  0.582  0.228
0.0128  0.274 -0.210
-0.510 -0.692  0.195
-0.666 -0.480  0.168
 0.344  0.462  0.215
0.0957  0.243  0.197
-0.485 -0.285  0.192
-0.492 0.0547  0.189
-0.492  0.620 -0.239
-0.666 -0.315 0.0173
 0.690  0.145 -0.00529
-0.304 -0.692 0.0545
-0.666  0.499 0.0851
0.0655 -0.254 -0.203
0.0300 -0.692 0.0807
 0.279  0.154  0.192
-0.105  0.680 0.0581
 0.291  0.438 -0.224
 0.691 -0.669 0.0776
-0.666 -0.0810  0.182
 0.548  0.356  0.205
-0.334 -0.496  0.207
 0.608  0.580 -0.103
0.0957  0.560 -0.237
 0.292 -0.0132 -0.200
-0.357 -0.171  0.189
 0.691 -0.390 -0.126
 0.533 -0.104  0.188
-0.663  0.280  0.197
 0.608 0.0396 -0.200
-0.153 -0.322 -0.207
-0.193  0.678  0.226
-0.191  0.612 -0.239
-0.666  0.160 -0.0355
-0.198 -0.616 -0.231
 0.428 -0.482 -0.217
0.0429 -0.0584 -0.199
-0.666  0.643 -0.0807
 0.329 -0.164 -0.201
 0.125  0.656  0.118
-0.664  0.516 -0.229
 0.631  0.326 -0.214
-0.103 -0.692  0.203
 0.691 -0.171 -0.0279
-0.168 -0.00556  0.188
-0.666 -0.548 -0.141
-0.508  0.680 0.0853
-0.0325  0.517  0.221
-0.522 0.0773 -0.201
 0.405  0.579  0.115
 0.209 -0.285 -0.205
-0.130  0.123 -0.203
-0.311  0.680 -0.171
 0.261  0.296 -0.212
 0.533  0.198  0.193
 0.642 -0.691 -0.0849
0.0505 -0.435  0.202
 0.359 -0.164  0.189
 0.503  0.507 -0.231
-0.522  0.289 -0.211
-0.153  0.282  0.199
 0.314  0.579 -0.0279
 0.133  0.190 -0.206
-0.334  0.658  0.228
 0.681  0.578  0.226
 0.691 0.00946 0.0701
0.0943  0.679 -0.148
 0.691 -0.345  0.168
 0.548  0.580 0.0852
 0.261 0.00948  0.188
-0.364  0.160  0.192
-0.296  0.115 -0.202
 0.683 -0.548 -0.223
 0.141 0.0396 -0.200
 0.601 -0.119 -0.200
 0.468 -0.692  0.141
-0.138 -0.285  0.193
-0.462  0.356  0.205
-0.364 -0.594 -0.228
 0.691  0.416 0.0701
 0.412  0.130  0.191
-0.108 -0.0132 -0.200
-0.135 -0.687 -0.134
-0.590 -0.579  0.216
0.0209 -0.555 -0.224
-0.227  0.136  0.191
 0.586 -0.413  0.201
 0.375  0.221 -0.207
 0.593 -0.556  0.213
 0.163  0.626 -0.00280
-0.0550  0.680 -0.111
 0.352 -0.450  0.203
-0.0325 -0.367 -0.209
 0.691 -0.458 0.0173
-0.303  0.680 -0.0430
-0.666 0.0321 -0.0355
-0.223 -0.692  0.159
 0.246  0.567 -0.238
-0.227  0.448 -0.225
-0.198 -0.134 -0.200
-0.221 -0.443  0.203
-0.613  0.168 -0.204
 0.690  0.138  0.161
-0.666 -0.194  0.130
0.00523 0.0773  0.189
-0.537  0.553  0.225
-0.409 -0.0433  0.188
-0.334 -0.111 -0.200
 0.540  0.243 -0.208
 0.126 -0.0584  0.187
-0.590  0.680  0.176
 0.224 -0.405 -0.212
 0.231  0.560  0.227
-0.666  0.371 -0.0957
 0.691  0.492 -0.0731
-0.417 -0.601  0.218
-0.567  0.680 -0.140
-0.666  0.386  0.138
-0.584 -0.692 0.0575
-0.0388 -0.689 -0.0303
 0.247  0.272  0.199
-0.666 -0.435 -0.186
-0.394  0.680  0.123
-0.575 -0.601 -0.229
-0.259 -0.503 -0.219
 0.465 -0.217  0.190
 0.372 -0.566  0.214
 0.480  0.579 -0.141
-0.620  0.168  0.193
-0.666 -0.224 -0.0807
-0.568 -0.352 -0.208
 0.608 -0.345 -0.208
 0.691 -0.232  0.138
-0.666  0.401 -0.209
 0.246 -0.616  0.220
0.0606 -0.687 -0.149
-0.560 -0.375  0.198
-0.575  0.680 -0.0204
 0.359 -0.594 -0.228
 0.344  0.579  0.213
0.0731  0.394  0.208
 0.390 0.0471 -0.201
 0.422 -0.692 0.0271
-0.176  0.394  0.208
 0.141 -0.548 -0.224
0.0128  0.417 -0.222
-0.258 -0.379 -0.210
 0.148 -0.691 0.0574
 0.540  0.394 -0.220
 0.690  0.258 0.00225
-0.0701 -0.171  0.189
-0.419 -0.692  0.128
-0.409 0.0773 -0.201
 0.691 -0.609  0.198
-0.364 -0.307 -0.206
0.0951  0.672  0.228
-0.0400  0.258  0.198
 0.276 -0.255  0.192
-0.274 -0.0735  0.188
-0.666 -0.398 -0.0807
 0.420  0.380  0.207
 0.477 -0.386  0.199
0.0597 -0.692  0.192
 0.691 0.0848 -0.141
-0.590 0.00198  0.187
-0.666  0.258 -0.0882
 0.146 -0.566  0.214
-0.583 -0.232 -0.203
 0.367  0.580 -0.126
 0.472 -0.367 -0.209
 0.412  0.438 -0.224
-0.407 -0.381  0.198
-0.394  0.462 -0.226
-0.666 -0.571 0.0550
 0.691 -0.563 0.0474
-0.666  0.205  0.100
 0.690 -0.0584 -0.193
 0.274 -0.692  0.143
0.0203  0.680  0.108
 0.586  0.579 -0.209
-0.394  0.665 -0.239
-0.0934  0.362 -0.217
-0.334  0.417  0.211
-0.00984 -0.345  0.196
-0.0702 -0.526  0.210
 0.103 -0.171  0.189
-0.666  0.424 0.00223
-0.0777  0.575 -0.239
-0.433  0.362 -0.217
-0.575 -0.0433 -0.200
 0.482 -0.622  0.221
 0.691 -0.284 -0.111
 0.503 -0.690 -0.0757
-0.242 -0.245  0.191
-0.123  0.680 -0.194
-0.568  0.326  0.202
-0.410 -0.687 -0.152
 0.254 -0.669 -0.237
-0.402  0.680 0.0173
 0.573 -0.692  0.126
 0.608 -0.179  0.189
-0.296  0.545  0.224
-0.296 -0.594  0.217
-0.666 -0.0584 -0.133
-0.319  0.228 -0.208
-0.623 -0.692  0.225
 0.691  0.522  0.138
 0.284 -0.367  0.197
 0.691  0.560 -0.171
-0.547 -0.687 -0.162
-0.462 -0.518 -0.221
 0.568 -0.687 -0.192
-0.375 -0.692 -0.0249
-0.108  0.620  0.228
 0.186  0.485 -0.229
 0.608  0.500  0.218
 0.690 -0.141 -0.126
 0.510 0.00948 -0.200
-0.447 -0.367 -0.209
-0.666  0.477  0.198
-0.0927 -0.571 -0.226
-0.507 -0.164 -0.201
 0.171  0.176  0.193
 0.691 -0.0810 0.0248
 0.586  0.153 -0.204
 0.148  0.304 -0.213
-0.409 -0.187 -0.201
 0.691 -0.0131  0.168
 0.691  0.401 -0.186
 0.223 -0.690 -0.0773
 0.623  0.283  0.199
 0.683 -0.435 -0.214
0.0278 -0.156 -0.200
 0.292  0.364  0.206
 0.690  0.356  0.153
 0.337 -0.435 -0.214
 0.495 0.0547  0.189
 0.126 -0.337 -0.207
 0.690  0.281 -0.111
 0.373 -0.692  0.118
 0.148 -0.443  0.203
-0.666 -0.209 0.0324
-0.590 -0.172  0.188
-0.0174 -0.465 -0.216
 0.427 -0.202 -0.202
-0.0551  0.183 -0.205
 0.337 0.0698  0.189
-0.666  0.582 -0.00531
-0.666 -0.0584 0.0701
0.0203  0.183  0.193
-0.191  0.356 -0.216
-0.583  0.567 -0.238
-0.379 -0.0132 -0.200
 0.578  0.580 -0.0128
-0.183 -0.232 -0.203
-0.394  0.251  0.197
-0.296 -0.662 -0.236
 0.171  0.619 -0.214
-0.0997  0.451  0.214
 0.299 -0.254 -0.203
-0.666 -0.360  0.100
-0.666  0.130 -0.126
-0.0852 0.0396  0.188
 0.344  0.341 -0.215
-0.136  0.680  0.147
-0.424  0.590  0.228
 0.593 -0.239 -0.203
-0.236  0.228  0.195
 0.571 -0.555 -0.224
-0.183  0.680 0.00979
-0.206  0.176 -0.205
 0.691 0.0471 -0.0279
 0.216  0.470  0.216
-0.0670 -0.692  0.118
0.0957 -0.337  0.196
 0.688 -0.430  0.201
-0.281  0.627 -0.239
-0.221  0.680 -0.186
-0.213 0.0773 -0.201
-0.00733  0.517 -0.232
 0.179 -0.224  0.190
 0.629 -0.692 0.00966
-0.666  0.635  0.153
 0.586 -0.0281  0.187
 0.299 -0.0961  0.188
 0.691 -0.179 0.0625
-0.402 0.0472  0.189
-0.379  0.680 -0.111
-0.666  0.582 -0.148
0.0881  0.650 -0.239
-0.0400 -0.277 -0.204
-0.666 -0.571 -0.0355
-0.485  0.530 -0.234
-0.462  0.680 -0.164
-0.0472  0.680 -0.0134
 0.691 -0.495 -0.149
 0.396 -0.690 -0.0851
0.0278  0.582  0.228
 0.167  0.623  0.211
-0.473  0.143  0.191
 0.678 -0.690  0.166
 0.510 -0.171 -0.201
-0.666 -0.571  0.168
 0.239  0.580 0.0173
 0.691 -0.352 -0.0430
 0.586  0.580  0.191
 0.151 -0.218 -0.202
-0.635 -0.526 -0.222
 0.284  0.580 -0.156
 0.412  0.517  0.220
-0.586  0.368 -0.217
 0.616  0.168  0.192
-0.130 -0.669 -0.237
-0.161  0.523 -0.233
 0.624 -0.623 -0.232
-0.401 -0.262  0.192
0.0354  0.176 -0.205
-0.643 -0.398  0.199
 0.442 -0.134  0.188
0.0504 -0.00558  0.188
 0.201 -0.0433 -0.200
-0.666 0.00192  0.145
 0.382  0.579 0.0248
 0.691 -0.420  0.115
-0.666  0.107 0.0399
-0.251  0.530 -0.234
-0.228  0.597  0.228
 0.442 -0.677 -0.238
 0.112  0.666 -0.0606
 0.691 -0.330 -0.186
-0.108 -0.0659  0.188
 0.691 -0.609 -0.164
 0.488  0.282  0.199
 0.179  0.116 -0.202
-0.176 -0.405 -0.212
 0.487 -0.687 -0.159
-0.432 -0.684  0.228
-0.665 -0.216 -0.193
-0.666 -0.646 -0.141
 0.691 0.0999 0.0851
 0.691  0.477 0.00977
-0.115 -0.609  0.219
 0.691  0.334 0.0550
0.0203 -0.134  0.188
-0.568  0.658 -0.239
-0.575 -0.292  0.192
-0.176 -0.360  0.197
 0.231  0.379 -0.218
 0.540  0.439  0.213
-0.492 -0.202  0.189
 0.231 -0.692 0.0676
 0.472 -0.300  0.194
-0.221 -0.692 0.0472
 0.231 -0.194 -0.202
-0.500 -0.0357  0.188
-0.666 -0.488 0.0851
-0.266  0.680  0.176
 0.367 -0.0810 -0.200
 0.382  0.138 -0.203
-0.666 -0.277  0.115
-0.470  0.452  0.213
-0.0156 -0.690  0.227
-0.666  0.582 0.0851
-0.590 0.0849  0.190
 0.164  0.304  0.201
-0.337 -0.692  0.143
 0.224 0.0924  0.190
-0.415 -0.479  0.206
 0.344  0.499 -0.230
-0.439  0.281 -0.211
 0.473  0.580  0.161
 0.691  0.183 0.0927
-0.424 -0.126  0.188
 0.246 0.0547 -0.201
-0.0400 -0.0584 -0.199
-0.596  0.448 -0.225
 0.623  0.387  0.207
 0.427 -0.300 -0.205
-0.580 -0.486  0.206
 0.503 -0.0281  0.187
 0.690  0.567 -0.0430
 0.457  0.574 -0.239
-0.314  0.443 -0.224
-0.221  0.326  0.203
-0.223 -0.687 -0.139
 0.180  0.613 0.0751
-0.244 -0.300 -0.205
0.0655  0.477 -0.228
-0.266  0.289 -0.211
 0.201  0.243 -0.208
-0.0475 0.0396 -0.200
 0.209 -0.0508  0.187
 0.571 -0.0433 -0.200
 0.503 -0.511 -0.220
-0.334 -0.413  0.200
-0.191 -0.662  0.225
 0.638  0.580  0.123
 0.688  0.210  0.193
-0.0657  0.262 -0.209
-0.0581 -0.250  0.191
 0.266 -0.692  0.225
 0.443 -0.565 -0.225
-0.00231  0.439  0.213
-0.666 -0.684 0.0399
-0.515 -0.601  0.217
0.00522 -0.504  0.208
 0.473  0.580 0.0625
 0.292  0.221 -0.207
-0.492  0.168 -0.204
0.0504 -0.360 -0.209
 0.646 -0.496  0.207
 0.517 -0.692  0.212
-0.0168 -0.687 -0.137
 0.691  0.281 -0.194
-0.115  0.680 -0.0577
 0.676  0.130 -0.203
-0.528 -0.692  0.119
 0.330  0.289  0.200
-0.144 -0.692  0.132
 0.267 -0.687 -0.162
-0.108  0.538  0.224
 0.435 -0.684  0.228
 0.216 -0.406  0.200
0.0957  0.123 -0.203
-0.643  0.680 -0.156
-0.590 -0.677 -0.238
 0.344 -0.518 -0.221
 0.464  0.257 -0.209
-0.183 -0.541 -0.223
 0.525  0.319 -0.214
-0.0626  0.680  0.123
 0.691 -0.247 -0.0430
-0.666 0.0170 0.0399
 0.623 -0.104  0.188
-0.500  0.680 -0.00476
 0.691 -0.382 0.0474
 0.284 -0.179  0.189
 0.254 -0.111 -0.200
 0.691 -0.428 -0.0581
 0.691  0.477 -0.148
 0.118 -0.0433 -0.200
-0.658 -0.609 -0.230
 0.691  0.183 -0.0882
 0.126 -0.654  0.224
-0.598  0.243 -0.208
-0.259  0.402  0.209
-0.590  0.680 0.0927
-0.596 -0.692 -0.0392
0.0881  0.319  0.202
 0.691 -0.687 -0.152
-0.666 -0.149 -0.0882
 0.457  0.206  0.194
-0.191 0.0698  0.189
 0.103 -0.149 -0.200
-0.666  0.507 0.00977
 0.108  0.669 0.0273
-0.666 -0.307 -0.0581
 0.668 0.0698  0.188
-0.198 -0.0810  0.188
 0.691 -0.631 -0.0581
-0.409  0.537 -0.235
-0.666 -0.0433 -0.0128
-0.666  0.213 0.0248
-0.650  0.658  0.228
-0.364  0.289 -0.211
0.0209  0.680 -0.171
 0.352  0.176  0.193
-0.598  0.243  0.196
 0.359 -0.239  0.191
-0.663  0.678 -0.00468
-0.666  0.341 -0.0204
-0.259 -0.156  0.189
-0.261 -0.692  0.225
 0.533 -0.179  0.189
 0.111 -0.692  0.123
 0.164 -0.450 -0.215
0.0360 -0.633 -0.233
 0.545 -0.485  0.206
 0.466  0.445  0.213
0.0580 0.0321 -0.200
-0.259  0.680 -0.103
-0.333  0.680 0.0475
 0.231 -0.594 -0.228
-0.447 -0.601 -0.229
-0.417 -0.111 -0.200
-0.553  0.643  0.228
-0.409  0.680  0.198
-0.0852 -0.337  0.196
-0.590 0.0471 -0.201
 0.179 0.0170  0.188
-0.326 -0.239  0.191
 0.525  0.122  0.191
-0.666 -0.420 0.0550
-0.130 -0.104 -0.200
 0.405 -0.405 -0.212
-0.643  0.402  0.209
-0.0174  0.341 -0.215
 0.141  0.432  0.212
-0.409  0.409  0.210
 0.105 -0.245  0.191
0.0896  0.136  0.191
 0.623 -0.337  0.195
-0.00230  0.590 -0.239
-0.230 -0.682 -0.212
-0.387 -0.692 0.0623
-0.663 -0.631  0.219
-0.599 -0.692  0.157
-0.598  0.499  0.219
-0.544  0.154  0.192
 0.691 -0.586  0.130
0.0504  0.507  0.220
-0.447 0.00948 -0.200
 0.533 0.0773 -0.201
 0.322  0.579 0.0851
-0.0249 -0.435  0.202
0.0731  0.680  0.161
 0.284  0.512  0.220
 0.684  0.507  0.220
 0.420  0.580 -0.179
-0.176 0.0170 -0.200
-0.663  0.118 -0.202
 0.690 0.0245 -0.179
 0.329 0.0848 -0.202
-0.274 -0.149 -0.200
-0.0852  0.680  0.198
-0.168  0.176  0.193
-0.666  0.190 -0.164
 0.552 -0.628  0.221
 0.246  0.580 -0.0656
-0.000103 -0.692  0.155
-0.0927  0.319  0.202
-0.507 -0.435 -0.214
 0.146  0.639 -0.116
-0.269 -0.386  0.199
 0.104 -0.497  0.207
-0.477 -0.375  0.198
 0.331 -0.622  0.221
-0.379 -0.662 -0.236
-0.138  0.417 -0.222
 0.277  0.432  0.212
 0.668  0.560 -0.237
-0.204  0.680  0.131
-0.294  0.154  0.192
 0.631  0.409 -0.221
-0.289  0.470  0.216
-0.575 -0.0660  0.187
-0.228 -0.315  0.194
 0.375 -0.247 -0.203
-0.666  0.530  0.153
 0.623  0.580 0.0550
 0.435  0.579 -0.0882
-0.296 0.0321 -0.200
-0.666  0.567 -0.0731
-0.341 -0.0584  0.187
 0.691 -0.646 0.00977
 0.503  0.579 -0.0731
-0.326  0.680  0.138
-0.326 -0.518 -0.221
-0.424 -0.450 -0.215
 0.690  0.416 -0.111
 0.299  0.221  0.196
-0.666 -0.149 0.0776
-0.635 -0.224  0.191
-0.462  0.266  0.198
 0.555  0.266  0.198
-0.138 -0.465  0.205
 0.555  0.462 -0.226
 0.631 -0.503 -0.219
-0.530  0.485  0.218
 0.480  0.432 -0.223
 0.261  0.499 -0.230
-0.658 -0.149  0.188
-0.145 -0.217  0.190
 0.691  0.454  0.130
-0.666  0.296  0.130
0.0806  0.296 -0.212
0.0354  0.680 -0.0807
 0.420 -0.458  0.204
 0.676 -0.171  0.189
 0.457 0.0547 -0.201
 0.322 -0.662 -0.236
-0.666  0.379 0.0701
 0.277 -0.556  0.213
-0.251  0.680 0.00979
-0.530 -0.533  0.211
 0.180  0.613  0.143
-0.0174  0.680 0.0475
 0.367 -0.0961  0.188
 0.608  0.243 -0.208
-0.666  0.492 -0.148
-0.198 -0.0659 -0.199
-0.650 -0.0584 -0.199
-0.462  0.530  0.222
 0.352  0.394  0.208
-0.639 -0.689 -0.0911
-0.658 0.0773  0.189
-0.0645  0.105 -0.202
-0.341 0.0924  0.190
-0.575 -0.164 -0.201
-0.515  0.402  0.209
 0.420 -0.0132 -0.200
 0.629 -0.692 0.0848
-0.274 -0.0810 -0.200
-0.666  0.341 -0.156
 0.690 -0.134 -0.193
 0.341 -0.692 -0.0254
 0.277 -0.435  0.202
-0.304  0.221  0.195
 0.405 -0.375  0.198
-0.355 -0.562  0.213
 0.676 -0.285  0.193
-0.0507 -0.691 0.0352
-0.598 -0.428 -0.213
 0.407 -0.622  0.221
-0.355 -0.225 -0.202
 0.480 -0.692 -0.00552
-0.530 -0.541 -0.223
 0.517 -0.692 0.0919
-0.533 -0.692 0.0160
-0.0232 -0.207 -0.202
 0.337  0.274 -0.210
-0.00232  0.311  0.201
 0.420  0.579  0.198
 0.691 -0.307  0.115
-0.537 0.00948 -0.200
-0.537 -0.0961 -0.200
-0.620 -0.285 -0.205
-0.666 -0.00562 -0.0882
 0.307  0.579  0.161
 0.405 -0.134 -0.200
-0.666 -0.609 -0.0882
-0.500 -0.330 -0.207
 0.691 -0.104 -0.0732
 0.540 -0.405 -0.212
-0.500  0.680  0.168
-0.545  0.507 -0.231
 0.164  0.507  0.220
 0.164  0.560 -0.237
 0.488  0.380  0.207
 0.691 -0.503 0.0701
-0.251 -0.0131  0.188
 0.613 -0.689 -0.147
0.0655 -0.0810  0.188
 0.405  0.281 -0.211
 0.638 -0.171 -0.201
-0.552  0.145 -0.203
 0.691 -0.0508 0.0927
-0.0249 0.0170  0.188
-0.643  0.590 -0.239
 0.518  0.580 0.00979
-0.666 -0.458 -0.103
 0.111 0.0170  0.188
 0.631 -0.0207 -0.200
-0.0777  0.658 -0.239
-0.304 -0.330 -0.207
-0.0325  0.605  0.228
 0.691  0.349 -0.118
-0.666 -0.631 0.0776
 0.314 -0.504  0.208
-0.643 -0.345 -0.208
 0.525  0.176 -0.205
-0.666 -0.435  0.123
 0.691 0.0396 -0.0958
-0.666  0.221  0.176
 0.420  0.523 -0.233
 0.691  0.514 0.0625
0.0730 -0.682 -0.218
-0.545  0.680 -0.0807
-0.666 -0.171 -0.148
0.0580 -0.503 -0.219
-0.467  0.110 -0.202
 0.194 -0.662  0.225
-0.312 -0.691 -0.0191
-0.0400 -0.616 -0.231
 0.179  0.243  0.197
 0.623 -0.405 -0.212
 0.175  0.616 -0.0656
 0.204 -0.692 0.0112
-0.115  0.380  0.207
 0.518  0.579 -0.224
 0.397 -0.692  0.175
 0.668 -0.684  0.227
 0.184 -0.692  0.114
-0.205 -0.472 -0.217
 0.239  0.580  0.168
-0.666 0.0999 -0.0505
 0.682  0.303  0.200
-0.379  0.394 -0.220
-0.0400  0.122  0.191
 0.284 -0.315 -0.206
-0.417  0.107  0.190
 0.691  0.243 -0.0581
-0.115  0.198 -0.206
 0.533  0.580  0.145
-0.0406 -0.633  0.222
 0.563 -0.352  0.196
-0.281 -0.458  0.204
-0.628  0.341  0.203
-0.123 -0.247 -0.203
-0.666  0.145  0.138
-0.402 -0.533 -0.222
-0.379 -0.367 -0.209
-0.472 -0.692 0.0824
 0.690  0.574 -0.111
 0.442 -0.572  0.215
-0.265 -0.541  0.211
 0.224 -0.477 -0.217
-0.447  0.198  0.194
-0.499  0.681 -0.232
-0.364  0.680 -0.0354
0.0655 -0.639  0.223
-0.423 -0.541  0.211
 0.412 -0.519  0.209
 0.653 -0.285 -0.205
 0.656 -0.561  0.213
 0.194 -0.352 -0.208
-0.372  0.552  0.225
 0.564 -0.633 -0.233
 0.134  0.370  0.206
-0.274 -0.692  0.108
 0.314  0.552 -0.236
-0.545 -0.239  0.191
 0.405  0.439  0.213
-0.432 -0.187  0.189
-0.123 0.0622 -0.201
-0.417 -0.247 -0.203
 0.503 -0.111 -0.200
-0.0475 -0.111  0.188
-0.666 -0.179 -0.0204
-0.145 -0.164 -0.201
-0.296 -0.601 -0.229
0.0806  0.612  0.228
-0.447  0.680 0.0927
 0.691 -0.239 0.0173
-0.666 -0.405 -0.0204
-0.666 0.0547 -0.0957
0.0655 0.0698  0.189
-0.666 -0.0734 -0.0656
0.0203  0.251  0.197
 0.691 0.0773 0.0248
 0.691 -0.111 0.0776
 0.292 -0.586 -0.227
 0.691  0.311 -0.0505
 0.314  0.580 -0.0957
-0.130  0.680 -0.133
-0.666  0.439 0.0776
-0.387  0.605 -0.239
 0.690  0.364 0.00225
 0.691  0.251 0.0625
-0.402  0.349  0.204
-0.0852 -0.337 -0.207
 0.690 -0.194 -0.0958
 0.638  0.190 -0.206
-0.364  0.160 -0.204
 0.614 -0.682 -0.234
-0.500  0.228 -0.208
-0.266  0.650  0.228
-0.244 -0.624  0.220
 0.382  0.334  0.203
0.0812 -0.560 -0.225
0.0593 -0.556  0.213
 0.691 -0.556 -0.126
 0.690 -0.239 0.0776
-0.130  0.612 -0.239
 0.351  0.438 -0.224
-0.372 -0.330  0.195
-0.568 -0.669  0.226
 0.336 -0.690 -0.0853
 0.621  0.105 -0.202
-0.108  0.243  0.197
-0.318  0.680 -0.103
 0.688  0.578  0.158
 0.583 -0.690 -0.0923
 0.375 -0.682 -0.218
 0.683 -0.616 -0.230
 0.223  0.438 -0.224
 0.563  0.530 -0.234
 0.111 -0.616 -0.231
-0.296 -0.458 -0.216
-0.0551 -0.511 -0.220
0.0881  0.356 -0.216
0.0128 -0.405 -0.212
 0.314 -0.692 0.0917
-0.0777 -0.405 -0.212
 0.465 -0.0735  0.188
 0.631  0.580 -0.171
 0.171 -0.0961  0.188
 0.397  0.579 -0.0430
 0.691 -0.495 -0.0279
 0.405 -0.202  0.190
-0.666 -0.269 0.0550
-0.304  0.605  0.228
 0.148 -0.367  0.197
-0.666  0.409 -0.141
 0.631 0.00948  0.188
 0.691 0.0471  0.115
-0.537 -0.285 -0.205
-0.477 -0.647  0.224
0.0957  0.236 -0.208
-0.522 -0.330  0.195
 0.224  0.206  0.194
-0.545  0.680 0.0400
0.0832 -0.691 0.0560
-0.385 -0.692  0.192
-0.666 -0.375 -0.164
 0.645 -0.392  0.199
 0.610 -0.622  0.221
-0.228  0.451  0.214
-0.507 -0.594 -0.228
-0.198 -0.496  0.207
 0.209  0.326 -0.214
-0.455 -0.692  0.175
 0.691  0.574  0.100
-0.189 -0.692 0.0947
 0.277 -0.384 -0.210
-0.0406  0.438 -0.224
-0.477  0.326 -0.214
 0.691 -0.503 -0.0882
 0.691  0.130 -0.0656
-0.0551 -0.119 -0.200
-0.666 -0.548  0.115
-0.236  0.665 -0.239
 0.691 -0.0508 -0.0279
 0.125  0.656 -0.191
 0.608  0.228  0.196
-0.666 -0.247 -0.0279
 0.555 -0.285 -0.205
 0.690  0.424 -0.0128
 0.495  0.580  0.213
-0.138 0.0924  0.190
 0.690 -0.0810 -0.126
-0.349  0.477  0.217
-0.0626  0.206  0.194
 0.261 -0.315  0.194
0.0203  0.364  0.206
 0.691 -0.687 -0.0304
0.0586  0.451  0.214
 0.420 -0.692 0.0849
-0.244  0.394 -0.220
-0.583  0.311 -0.213
-0.372 -0.647  0.224
 0.391  0.373 -0.218
 0.201 -0.579  0.216
 0.518 -0.579  0.216
-0.258 -0.560 -0.225
-0.153  0.680 0.0927
 0.420 -0.616 -0.231
-0.447  0.417 -0.222
-0.234 -0.207 -0.202
 0.114 -0.692  0.179
-0.341  0.681 -0.232
 0.220  0.148  0.192
 0.503 -0.436  0.201
 0.218  0.583 -0.174
 0.691 -0.495 -0.209
 0.173  0.373 -0.218
0.0599 -0.381  0.198
-0.575 -0.428  0.201
-0.235  0.680 -0.0430
 0.405 -0.687 -0.159
-0.176  0.582  0.228
 0.133  0.470 -0.227
 0.690  0.138 -0.126
 0.156 -0.149  0.188
-0.145  0.492  0.218
 0.164 -0.601 -0.229
 0.691  0.349 -0.201
0.0505  0.605 -0.239
 0.369 -0.692 0.0422
0.00523  0.680  0.161
 0.382 0.0321  0.188
-0.462 -0.202 -0.202
-0.176  0.665 -0.239
-0.666  0.205 -0.111
-0.666 -0.563 -0.194
-0.666  0.258 0.0851
-0.326 -0.111  0.188
-0.266  0.213 -0.207
-0.618 -0.692  0.106
-0.0404 -0.572  0.215
 0.585  0.362 -0.217
 0.115 -0.687 -0.155
 0.646  0.122  0.191
-0.605  0.597  0.228
0.0354  0.130  0.191
 0.209 -0.270  0.192
-0.00984 -0.285  0.193
-0.0701  0.680 -0.164
0.0779 -0.689 -0.0287
-0.507  0.612  0.228
-0.100 -0.126  0.188
-0.666 -0.541 0.00977
-0.605  0.680 -0.0656
-0.281 0.0773  0.189
 0.194  0.168 -0.204
-0.598  0.115 -0.202
 0.631  0.451  0.214
0.0128 0.00194 -0.200
 0.691 -0.0207 0.0248
0.0354  0.643  0.228
 0.352  0.580 -0.186
-0.364 -0.156 -0.200
 0.691 -0.186 -0.156
 0.691 -0.609 0.0776
 0.555 0.0170  0.188
-0.522  0.575 -0.239
-0.364 0.0471 -0.201
 0.311 -0.692  0.195
 0.375  0.579  0.168
-0.666 -0.269 -0.126
-0.334 -0.0433 -0.200
-0.666  0.288 -0.133
-0.447 -0.330  0.195
-0.454 -0.0810  0.187
-0.605 -0.337  0.196
 0.484  0.368 -0.217
 0.390 -0.548 -0.224
 0.247  0.334  0.203
 0.543 -0.218 -0.202
 0.430  0.110 -0.202
 0.178 -0.490  0.207
0.0309 -0.213 -0.202
-0.289 -0.692  0.168
 0.691 -0.533  0.183
-0.123 -0.616 -0.231
 0.571  0.538  0.224
 0.156 -0.390 -0.211
-0.598  0.680 -0.201
-0.608 -0.634  0.221
 0.691  0.492 -0.201
-0.666 -0.111  0.138
 0.502 -0.255  0.192
 0.691  0.530 0.00223
-0.666  0.160 0.0474
-0.666 -0.495 -0.148
-0.515  0.334  0.203
 0.631  0.560  0.227
-0.138 -0.519  0.209
 0.691  0.190 -0.0354
 0.235 -0.692  0.179
 0.171  0.115  0.191
 0.307  0.579 0.0249
-0.658 -0.00560 -0.200
 0.691 -0.571 -0.00532
0.0806 -0.0961 -0.200
 0.691 -0.443 -0.141
-0.666  0.582  0.145
 0.691 -0.300 -0.0204
-0.537 -0.669 -0.237
-0.183  0.236  0.196
-0.666  0.296 -0.0505
-0.620 -0.111  0.188
-0.115 -0.0131  0.188
 0.442 0.0472  0.189
0.0655  0.409 -0.221
 0.691 -0.277 -0.164
 0.691 -0.367  0.108
 0.457 -0.141 -0.200
 0.691 -0.639  0.123
-0.364  0.680 -0.179
 0.691 -0.119 -0.0204
 0.344 -0.0207 -0.200
 0.194 0.0321 -0.200
 0.261 -0.0584 -0.199
 0.405  0.198  0.193
 0.427  0.213 -0.207
-0.553 0.0396  0.188
-0.191 -0.285 -0.205
-0.259  0.341 -0.215
-0.334  0.499 -0.230
-0.507 -0.421  0.201
 0.179 -0.511 -0.220
 0.299 -0.489 -0.218
0.0429  0.552 -0.236
-0.259  0.289  0.200
0.0881  0.191  0.194
 0.334 -0.386  0.199
0.0987 -0.213 -0.202
-0.432  0.643  0.228
-0.666  0.627 0.0550
 0.450  0.319  0.202
 0.691 -0.390 -0.179
 0.691 -0.179  0.138
-0.274  0.349  0.204
 0.375 -0.472 -0.217
 0.586 -0.187 -0.201
-0.666  0.424 -0.0505
0.0128 -0.277 -0.204
-0.145 -0.413  0.200
 0.322 -0.315  0.194
-0.357  0.605  0.228
 0.525 -0.458 -0.216
-0.183  0.123 -0.203
 0.171  0.619 -0.161
 0.307 -0.111 -0.200
-0.666 -0.0584  0.123
-0.270 -0.692 0.0150
 0.568 -0.692 0.0681
 0.111 -0.482 -0.217
 0.683 -0.0810  0.188
-0.0852  0.311 -0.213
-0.620  0.680 0.0249
-0.153 -0.692  0.183
 0.461  0.148  0.192
-0.582  0.380  0.207
-0.515  0.387 -0.219
-0.0551 -0.692  0.183
-0.658  0.681  0.176
0.0476 -0.692  0.135
-0.296 -0.654  0.224
-0.620 -0.477 -0.217
-0.354  0.110 -0.202
-0.153  0.334  0.203
 0.586  0.319  0.202
 0.564 -0.692  0.176
-0.658 -0.511  0.208
-0.318 -0.379 -0.210
-0.666  0.537  0.206
 0.623 -0.451  0.203
-0.138 -0.654  0.224
0.0731  0.680 0.0625
-0.447 -0.239  0.191
-0.198 -0.360 -0.209
 0.209  0.530 -0.234
-0.206  0.499 -0.230
-0.00984  0.228 -0.208
 0.668  0.364  0.206
0.0429 -0.285  0.193
 0.337  0.512  0.220
0.00522 -0.111 -0.200
-0.387  0.341 -0.215
 0.133 -0.104 -0.200
 0.314  0.168 -0.204
-0.598 -0.0885 -0.200
 0.691 0.0924  0.138
 0.630 -0.692  0.153
 0.314 0.0321 -0.200
-0.153 -0.0433 -0.200
-0.635 -0.0207  0.188
-0.447 0.0246  0.187
 0.525 -0.0659 -0.199
-0.666 0.0396 0.0851
-0.666 -0.330 -0.103
 0.646  0.580 0.00979
-0.666  0.560 0.0399
 0.653 -0.217  0.190
 0.623  0.580 -0.0354
-0.515 -0.0357 -0.200
 0.691 -0.413 -0.00531
 0.661  0.243 -0.208
 0.563  0.579 -0.126
-0.666 -0.616 -0.0128
-0.153 -0.104  0.188
 0.525  0.579 -0.164
-0.447  0.643 -0.239
 0.691 -0.345 -0.103
-0.628  0.334 -0.215
 0.691  0.190 0.0173
 0.118  0.485  0.218
 0.691  0.228 -0.111
-0.394 -0.0659 -0.199
-0.00984 -0.322 -0.207
-0.0576  0.512 -0.232
 0.405 -0.345 -0.208
-0.0243 -0.692 0.0782
-0.0526 -0.479  0.206
-0.349  0.272  0.199
 0.133  0.590  0.229
-0.00957  0.680 -0.0581
-0.417 -0.692 0.00195
 0.117  0.663  0.178
-0.666 -0.684 0.0927
 0.651 -0.691 -0.183
-0.198 -0.270  0.192
-0.244 -0.639 -0.234
-0.529 -0.384 -0.210
-0.213  0.289 -0.211
-0.638 -0.566  0.214
 0.518 -0.526  0.210
-0.666 -0.676  0.198
0.0548 -0.485  0.206
-0.0550  0.417  0.211
-0.138  0.341 -0.215
 0.284  0.580 -0.209
 0.690  0.401  0.176
-0.0852  0.100  0.190
 0.332 -0.218 -0.202
-0.266  0.477 -0.228
 0.205  0.593 -0.0154
-0.0689 -0.225 -0.202
0.00460 -0.392  0.199
-0.620 -0.458  0.204
-0.176  0.680  0.176
-0.658 0.0246  0.188
-0.612 -0.633 -0.233
0.0957 -0.601  0.218
-0.470 -0.511  0.208
 0.450  0.552  0.226
-0.620  0.457  0.214
 0.678  0.448 -0.225
-0.626 -0.692 -0.00152
-0.666  0.673  0.123
 0.331 -0.692  0.141
-0.0927 -0.217  0.190
-0.370  0.680 0.0787
 0.179  0.552  0.226
-0.145  0.477 -0.228
 0.691  0.145 0.0625
 0.548 -0.141 -0.200
-0.470 -0.134 -0.200
-0.666 -0.247  0.161
-0.666  0.424  0.168
-0.221 0.0245  0.188
-0.296 -0.202  0.189
 0.269 -0.0584  0.187
-0.447 -0.300 -0.205
 0.405 -0.277  0.192
-0.326 -0.277 -0.204
0.0731 -0.0207 -0.200
 0.420  0.579 0.0550
-0.432  0.680 -0.0204
-0.666  0.462 0.0324
-0.666 -0.367 0.00977
-0.145  0.680 -0.0204
-0.470 -0.149  0.188
 0.571 0.00948 -0.200
-0.357  0.680  0.176
-0.666  0.439 -0.179
-0.666 -0.413 -0.133
-0.454  0.590 -0.239
0.0881 0.0698 -0.201
-0.666  0.537 -0.111
-0.432  0.680 -0.111
 0.442 -0.345  0.196
-0.666  0.318 -0.0957
-0.357  0.326  0.202
-0.349 0.00198  0.187
 0.533 -0.307  0.194
 0.457  0.176 -0.205
-0.500 -0.489 -0.218
-0.666 -0.352  0.176
 0.148 -0.292  0.193
-0.169 -0.682 -0.212
 0.563  0.161  0.192
 0.442 -0.435 -0.214
-0.0701  0.567  0.227
-0.658  0.138  0.191
-0.153 -0.579 -0.227
-0.00231 -0.511 -0.220
-0.0981 -0.692  0.155
-0.372 -0.496 -0.219
 0.593  0.289 -0.211
0.00500  0.680 -0.126
 0.525 -0.662 -0.236
-0.248  0.110 -0.202
 0.246 -0.239 -0.203
 0.309  0.373 -0.218
-0.560  0.417 -0.222
-0.666 -0.104 -0.179
-0.666  0.484  0.138
 0.467 -0.692 0.0422
-0.628  0.485 -0.229
0.0354 -0.179  0.189
 0.691 -0.533 -0.179
 0.638 -0.0584  0.187
0.00523 -0.647  0.224
-0.236 -0.435 -0.214
 0.314 -0.141  0.188
 0.616 -0.571 -0.226
-0.153 -0.0508  0.187
 0.593  0.580  0.100
-0.545  0.100  0.190
-0.296 -0.0282  0.188
 0.563  0.580 -0.0580
-0.319  0.176 -0.205
 0.691  0.462 0.0550
-0.492 0.0246 -0.200
 0.284 -0.179 -0.201
 0.375 -0.179 -0.201
 0.691 -0.458 0.0851
-0.0551 -0.300  0.194
-0.341 -0.609  0.219
 0.269  0.107  0.190
 0.367 -0.504  0.208
-0.470 -0.586  0.216
-0.130 -0.420 -0.213
 0.140  0.257 -0.209
 0.488 -0.119  0.187
-0.289  0.567 -0.238
 0.691 -0.239 -0.126
-0.138 -0.367 -0.209
-0.0852  0.409 -0.221
 0.322  0.115  0.191
 0.540 0.0774  0.189
0.0881  0.176 -0.205
-0.115  0.537 -0.235
 0.653 0.0698 -0.201
-0.492  0.567  0.227
 0.518 -0.571 -0.226
 0.353 -0.384 -0.210
-0.236  0.575 -0.239
-0.176 -0.616  0.220
-0.650 -0.398 -0.211
 0.230 -0.692  0.124
-0.553 -0.692  0.168
-0.145  0.439  0.212
0.0429 -0.337  0.196
 0.519 -0.692  0.139
 0.231  0.409  0.210
-0.130  0.681  0.213
 0.200  0.589 -0.239
0.0929 -0.692  0.225
 0.518  0.319  0.202
-0.605 -0.534  0.210
-0.605 -0.565 -0.225
-0.501 -0.687 -0.160
-0.643  0.680 -0.0957
 0.117  0.662 0.0726
 0.133  0.627 -0.239
-0.191 -0.187 -0.201
0.0731 -0.300 -0.205
 0.491 -0.213 -0.202
 0.457 -0.254 -0.203
0.0296  0.680  0.200
 0.690 0.0396  0.161
0.0957 -0.126  0.188
 0.691  0.537 -0.0807
-0.666 -0.164 0.0248
-0.530 -0.0735  0.187
 0.548 -0.503 -0.219
-0.658  0.206 -0.206
-0.439  0.680  0.138
 0.691 -0.345 0.00223
-0.183  0.115  0.190
 0.691 -0.624 -0.103
0.0504  0.243 -0.208
-0.372 -0.119  0.188
-0.183  0.567 -0.238
-0.545 -0.164  0.189
-0.666  0.115 -0.00531
-0.100 -0.0584 -0.199
0.0278 -0.458 -0.216
 0.359  0.579 -0.0807
-0.666 -0.202 0.0776
 0.691 -0.164 0.0173
0.0429  0.658 -0.239
0.0279  0.680 0.0550
 0.457 -0.518 -0.221
-0.553  0.251 -0.209
-0.387  0.650  0.228
-0.454  0.221 -0.207
 0.608 -0.292 -0.205
 0.578 -0.111  0.187
 0.571  0.115  0.191
-0.176  0.680 -0.179
-0.666 -0.563 -0.0957
-0.289 -0.0357 -0.200
-0.221  0.680  0.183
-0.266  0.680 -0.179
-0.666 -0.352 -0.0505
-0.666 -0.224 -0.133
 0.465 -0.0207 -0.200
-0.100 -0.518 -0.221
 0.623  0.552 -0.236
-0.424 -0.669 -0.237
-0.666  0.213 -0.0656
 0.540 -0.406  0.200
 0.653 -0.352 -0.208
-0.130 0.0472  0.189
-0.0626 -0.00561 -0.200
-0.485  0.477 -0.228
 0.691  0.424 -0.0656
-0.462  0.402  0.209
-0.0626  0.680 0.0399
 0.691 0.0924 -0.0958
-0.568 -0.111  0.188
 0.691  0.183  0.153
-0.666  0.635 -0.0204
-0.191  0.402 -0.220
-0.221  0.643  0.228
 0.631 -0.450 -0.215
-0.213  0.680 -0.141
-0.364  0.243 -0.208
0.0997  0.676 -0.103
 0.638  0.326  0.202
-0.613  0.553  0.225
-0.0927  0.680 -0.0128
 0.192  0.602 0.0274
 0.121  0.659 -0.0153
-0.522  0.680 -0.148
-0.0174  0.560  0.227
 0.661  0.258  0.198
-0.530 -0.692 0.0738
-0.537 -0.232 -0.203
-0.236 0.0698  0.189
-0.330 -0.682 -0.214
 0.691 0.0924 -0.0279
 0.412 0.0849  0.189
-0.00985  0.176 -0.205
 0.691 -0.687 -0.0756
 0.141 0.0848 -0.202
 0.676 -0.126  0.188
0.0505  0.123 -0.203
-0.666  0.213 -0.0204
-0.666  0.507 -0.0355
 0.608 -0.224  0.190
 0.224 -0.224  0.190
-0.130  0.658 -0.239
-0.666 -0.503 -0.103
 0.367  0.130  0.191
-0.553 -0.428 -0.213
-0.666  0.341 0.0399
-0.319  0.289 -0.211
 0.473 -0.692  0.199
 0.344 -0.292 -0.205
-0.115  0.243 -0.208
 0.111 -0.390 -0.211
-0.304  0.266  0.198
 0.510  0.243  0.197
-0.146 -0.572  0.215
-0.666  0.582 -0.201
 0.108 -0.386  0.199
-0.0400 -0.571 -0.226
 0.202  0.334  0.203
-0.454 -0.458  0.204
-0.643 -0.692  0.163
 0.691 -0.450  0.160
 0.593 -0.511  0.209
-0.0927 -0.654  0.224
 0.231 -0.541  0.212
-0.343 -0.692 0.0312
-0.266  0.512  0.221
 0.664 -0.691 0.0372
 0.322 -0.556  0.213
 0.655 -0.622  0.221
-0.00230  0.485  0.218
 0.563 -0.692 -0.0132
-0.666 -0.654 -0.0882
 0.518  0.477  0.217
-0.666  0.356 -0.208
-0.666 -0.398  0.161
-0.0762 -0.692 0.0715
-0.394  0.451  0.213
-0.666 -0.609 -0.186
-0.454 -0.413  0.200
-0.250  0.680 0.0550
-0.0551  0.680 -0.209
 0.269 -0.692 0.0926
-0.379 -0.224  0.191
 0.222  0.105 -0.202
-0.485  0.100  0.190
 0.137  0.143  0.192
 0.186 -0.247 -0.203
 0.133  0.198  0.194
-0.553 -0.0282  0.188
-0.666  0.318  0.168
 0.691  0.145  0.115
 0.691 -0.518 0.00976
 0.690  0.477  0.168
-0.387  0.198  0.194
 0.246  0.183 -0.205
-0.515 0.0170  0.187
-0.0174  0.160  0.192
 0.141  0.266  0.198
 0.171 -0.307 -0.206
 0.322 -0.217  0.190
 0.608  0.462 -0.226
 0.691 0.00192 -0.0128
 0.254 -0.119  0.187
-0.666 -0.511 0.0474
 0.179 -0.533  0.211
 0.427 -0.239  0.191
 0.691  0.379 0.0927
 0.586  0.580 0.0324
 0.646  0.580 -0.0807
-0.666  0.379 -0.0430
-0.666  0.462 -0.0204
-0.545  0.612 -0.239
-0.409 -0.307  0.193
 0.690  0.401 0.0249
-0.666  0.605 -0.111
 0.246  0.580 -0.133
-0.666  0.243 -0.133
-0.666 -0.443  0.191
-0.0249  0.627 -0.239
-0.537  0.680  0.145
-0.666 -0.315  0.138
 0.601  0.580  0.145
 0.691 -0.646  0.176
-0.537  0.680  0.191
-0.319 0.0698 -0.201
-0.666  0.168 -0.0882
-0.666 0.0773 -0.133
 0.690  0.296 0.0248
 0.264 -0.692 0.0270
-0.666 -0.315 0.0927
 0.435 0.00191  0.188
0.0203  0.319 -0.214
 0.209 -0.360  0.197
 0.655  0.373 -0.218
 0.382  0.477 -0.228
 0.133  0.145 -0.203
-0.0174  0.206  0.195
-0.349 -0.367  0.197
-0.244  0.251 -0.209
 0.495 -0.330 -0.207
 0.480 -0.548  0.212
 0.690 -0.156  0.100
 0.194 -0.443  0.203
 0.216 -0.647 -0.234
-0.0475 -0.398  0.200
 0.503  0.281 -0.211
 0.586  0.409  0.209
 0.385 -0.692 -0.0267
-0.666  0.643 -0.216
-0.130  0.206  0.194
 0.653 -0.0810 -0.200
0.0354 -0.684  0.228
 0.683 -0.0131 -0.200
 0.608  0.507 -0.231
-0.252 -0.490  0.207
 0.442  0.379 -0.218
-0.628  0.379 -0.218
-0.568 -0.616  0.219
-0.143 -0.692 0.0874
0.0172  0.368 -0.217
-0.666 -0.526  0.168
 0.691  0.530  0.183
-0.0928 -0.572  0.215
0.0925  0.443 -0.224
 0.461 -0.692 0.0966
-0.303  0.380  0.207
0.0881 -0.285  0.193
-0.303 -0.555 -0.224
-0.663  0.163 -0.203
-0.0701 -0.647 -0.234
 0.292 -0.640  0.222
 0.261  0.349 -0.216
 0.691 -0.646  0.219
 0.435 -0.406  0.200
-0.213 -0.571 -0.226
 0.390 -0.662  0.225
-0.266  0.432 -0.223
 0.138  0.512 -0.232
-0.507  0.176  0.193
-0.469  0.680 0.0255
 0.633 -0.692  0.201
-0.612 -0.379 -0.210
-0.168 -0.496 -0.219
 0.691  0.492  0.108
 0.299  0.319  0.202
-0.0386  0.680  0.184
-0.0927 -0.277 -0.204
-0.337 -0.692 0.0824
-0.0626  0.635  0.228
 0.186  0.417 -0.222
 0.167 -0.690 -0.0655
-0.319  0.597 -0.239
 0.375  0.228  0.196
-0.666 -0.0885 0.0399
0.00523 -0.0131  0.188
-0.326 0.00194 -0.200
 0.269  0.579 0.0475
 0.555  0.123 -0.203
 0.691  0.281 0.0927
 0.578 0.0698 -0.201
-0.620 0.0170 -0.200
 0.224 -0.141 -0.200
-0.613  0.680 -0.126
-0.462  0.612  0.228
 0.691 -0.428 0.0550
-0.296  0.680  0.206
 0.307  0.304 -0.213
-0.259 -0.345  0.196
 0.691 -0.382 -0.0731
 0.254 0.0623  0.189
 0.231 -0.0132 -0.200
-0.666  0.612  0.115
0.0580  0.221  0.196
 0.495  0.206 -0.206
-0.666  0.115 0.0927
-0.628  0.213  0.194
-0.115 -0.194 -0.202
-0.100 -0.496  0.207
-0.176 -0.692 0.0472
 0.686 -0.688  0.115
-0.251 -0.247 -0.203
0.00524 -0.594 -0.228
0.00523  0.477 -0.228
0.0504  0.680 -0.141
-0.348 -0.633 -0.233
 0.683  0.168  0.192
 0.678  0.517 -0.232
 0.588 -0.692 0.0207
-0.545 -0.572  0.215
-0.0695 -0.472 -0.217
-0.666 -0.518 -0.194
-0.334  0.402 -0.220
0.0731  0.680 -0.0580
 0.634 -0.213 -0.202
 0.579  0.456  0.214
-0.211 -0.381  0.198
 0.691 -0.390  0.191
-0.560  0.517  0.221
-0.220  0.272  0.199
 0.344  0.394 -0.220
-0.220 -0.692  0.222
-0.233 -0.692  0.118
 0.691  0.168 -0.194
-0.462 -0.692  0.123
 0.412 -0.692  0.137
-0.0551 -0.677  0.227
-0.377 -0.692  0.103
-0.477 0.0698 -0.201
 0.655 -0.691 -0.133
 0.277  0.552  0.226
-0.522  0.673  0.228
-0.281 -0.413 -0.212
-0.213  0.545  0.224
 0.533  0.394  0.208
 0.405 -0.654 -0.235
-0.191  0.356  0.205
-0.530 -0.639  0.222
 0.261  0.470  0.216
 0.555 -0.367 -0.209
-0.613  0.281 -0.211
-0.0400  0.138 -0.203
-0.605  0.130  0.190
 0.344 -0.277  0.192
-0.311 -0.277  0.192
-0.628 -0.0660  0.187
-0.168 0.0848 -0.202
-0.545  0.364  0.205
 0.691  0.514 -0.164
 0.367  0.176 -0.205
-0.666 -0.533 -0.0505
-0.666  0.530 -0.164
-0.666 -0.511  0.130
 0.156 -0.0282 -0.200
 0.314 -0.367 -0.209
-0.444  0.517 -0.232
 0.224 -0.0886  0.188
 0.314 -0.0584  0.187
 0.563 -0.0735  0.188
-0.379 -0.270 -0.204
-0.432  0.160  0.192
 0.691  0.507 -0.0355
-0.666 -0.646 -0.201
-0.568 -0.692  0.124
-0.545 -0.465  0.205
 0.525 -0.367  0.197
-0.0400 -0.156 -0.200
-0.666 -0.00562 0.00223
 0.691 0.0471 0.0550
 0.133 -0.254 -0.203
 0.194 -0.187  0.189
 0.691  0.266 -0.148
-0.666 0.0698 -0.0204
-0.666 -0.262 0.00977
0.0580  0.680 0.0249
-0.666 -0.443 -0.0656
-0.666 -0.0961 -0.118
-0.666 -0.435 0.0173
-0.666  0.552 -0.0355
-0.560  0.228  0.195
-0.183 -0.202  0.189
-0.153  0.213 -0.207
 0.691  0.386 -0.148
 0.691 -0.646 -0.179
-0.462 -0.0131  0.188
-0.598 -0.239  0.191
 0.254  0.580 -0.0204
-0.341  0.206  0.194
 0.397 -0.149  0.188
-0.289  0.680 0.0249
-0.666 -0.186 -0.111
-0.191  0.680 0.0776
 0.367  0.579 0.0625
-0.666  0.454 -0.0957
 0.691 -0.548  0.145
-0.296  0.665 -0.239
-0.666 -0.609  0.153
 0.141 -0.0207  0.188
-0.0927 -0.134 -0.200
-0.447  0.462 -0.226
 0.269  0.394 -0.220
-0.666 -0.134 -0.133
-0.485  0.274 -0.210
 0.691 -0.330 -0.141
 0.367 -0.360  0.197
 0.691 -0.571 0.0927
 0.337  0.206 -0.206
 0.661 -0.352  0.196
 0.563  0.190 -0.206
 0.194 -0.179 -0.201
-0.372  0.567 -0.238
 0.337  0.579  0.123
-0.530  0.296  0.200
 0.277  0.537 -0.235
-0.590  0.499 -0.230
 0.299  0.485 -0.229
0.00522 -0.0961  0.188
 0.126  0.341 -0.215
 0.457 -0.639 -0.234
 0.688  0.578 -0.000287
-0.123 -0.322  0.195
 0.684  0.107  0.190
-0.394  0.115 -0.202
-0.153  0.304 -0.213
-0.439 -0.413 -0.212
 0.691 0.00193  0.130
 0.129  0.653 -0.151
 0.142  0.642 -0.0455
-0.477  0.319  0.202
 0.555 -0.443  0.202
 0.150 -0.622  0.221
-0.658  0.439  0.212
-0.00272 -0.692  0.115
 0.135 -0.692  0.215
-0.344 -0.687 -0.147
-0.658 -0.254 -0.203
 0.194  0.590  0.228
-0.364 -0.277  0.192
-0.326  0.130  0.191
-0.186 -0.692  0.143
 0.668 -0.398 -0.211
 0.688 0.0923 -0.199
-0.514 -0.633 -0.233
-0.424  0.277  0.199
-0.469  0.680 -0.0335
-0.0927 -0.270  0.192
 0.495  0.168  0.193
-0.446 -0.555 -0.224
 0.284  0.258  0.198
0.0751 -0.692 0.0947
0.0605  0.517 -0.232
-0.666  0.175  0.183
 0.315 -0.555 -0.224
 0.390  0.334 -0.215
-0.325  0.680 0.0859
-0.160 -0.692  0.222
-0.666  0.499 -0.194
0.0958 -0.541  0.211
-0.243  0.681  0.221
-0.522  0.650 -0.239
 0.158  0.629  0.173
-0.0244  0.680  0.131
-0.454  0.492  0.218
-0.560  0.680 -0.179
 0.368 0.0924 -0.202
 0.232  0.370  0.206
 0.163  0.626  0.110
 0.427  0.485 -0.229
-0.568  0.470  0.216
 0.292 -0.450 -0.215
-0.568 -0.639 -0.234
 0.684 -0.247  0.191
-0.431  0.678 -0.237
-0.409 -0.571 -0.226
 0.472  0.470 -0.227
-0.643 -0.262  0.192
-0.235  0.680  0.108
-0.318 -0.548  0.212
 0.661  0.409  0.209
 0.209  0.589 -0.0631
 0.565 -0.692  0.215
-0.191  0.462  0.215
-0.0986  0.680  0.162
 0.138  0.646  0.221
-0.0322 -0.534  0.211
-0.0623  0.680 -0.0732
 0.314  0.424  0.211
-0.628  0.680 -0.0204
 0.615 -0.692 0.0486
 0.691 -0.292 -0.200
-0.643  0.251 -0.209
-0.537  0.439  0.212
 0.571  0.579 -0.164
 0.495 0.0471 -0.201
-0.666 -0.684 -0.148
-0.145 -0.164  0.189
 0.690  0.130 -0.164
-0.666  0.379  0.176
-0.666 -0.616  0.115
-0.666  0.183  0.145
 0.171 0.0698  0.189
-0.206 -0.0207 -0.200
-0.259 0.0321  0.188
-0.658 -0.179 -0.201
-0.191  0.680 -0.0278
-0.643 -0.187  0.188
-0.628  0.680  0.123
0.0731 0.0321  0.188
 0.578 -0.0810 -0.200
 0.691 -0.202 -0.0581
-0.666 0.0396  0.153
 0.495 -0.156  0.189
-0.530 -0.292  0.192
-0.666  0.318 -0.194
0.0580  0.680  0.100
0.0128 -0.443  0.203
 0.518 -0.0282 -0.200
-0.0475 -0.330 -0.207
-0.00230 -0.171  0.189
 0.179  0.439  0.213
-0.0852 0.0471 -0.201
-0.666 -0.0132 -0.0505
-0.666 -0.186 -0.0581
-0.666 -0.375 0.0474
-0.583  0.680 0.0173
 0.525  0.580 0.0475
-0.666  0.153 0.0851
-0.666 -0.578 0.0173
0.00524  0.680 -0.0204
-0.221 -0.533 -0.222
-0.251 -0.194  0.189
 0.586 -0.398 -0.211
-0.0400  0.319  0.202
0.0943  0.679  0.115
-0.613 -0.0508 -0.199
 0.525 -0.217  0.190
 0.450 0.0170 -0.200
 0.216  0.289 -0.211
 0.231 -0.654  0.224
-0.100  0.658  0.228
 0.405 -0.0885 -0.200
 0.540 -0.0357  0.187
 0.231 -0.360 -0.209
 0.246 -0.292 -0.205
-0.289 -0.270 -0.204
-0.666 -0.00562  0.108
 0.690  0.326 -0.00529
 0.616 -0.141  0.188
 0.427 -0.0659  0.188
 0.540 -0.141  0.188
 0.329  0.580 -0.133
-0.447  0.680  0.176
 0.518  0.579 -0.126
-0.470  0.680 -0.201
-0.666 -0.156  0.123
-0.666 -0.111 -0.0807
-0.666 -0.239 0.0851
 0.412  0.579  0.161
-0.666 -0.262 -0.164
-0.666 -0.586 -0.133
-0.590  0.650  0.228
 0.691 -0.586 -0.0957
-0.666  0.545 0.0776
-0.666  0.349  0.130
-0.251 0.0698 -0.201
0.0504 -0.601  0.218
-0.0701 -0.0584  0.187
-0.130 0.0246 -0.200
 0.375 0.0924  0.189
 0.488 0.0170  0.188
-0.635  0.492  0.218
 0.216 0.0547  0.189
-0.259 -0.586  0.216
-0.0243 0.0998 -0.202
 0.201 -0.443 -0.214
 0.646  0.492  0.218
 0.141 -0.141 -0.200
 0.555 -0.533  0.211
-0.00230 -0.0735 -0.200
 0.352  0.579 -0.0430
-0.504 -0.692 0.0455
 0.186 -0.0885 -0.200
 0.676 -0.473  0.205
-0.477 -0.0961 -0.200
 0.145 -0.692  0.105
 0.442 -0.647  0.223
-0.646 -0.689 -0.0526
 0.563 -0.322 -0.207
0.0217 -0.548  0.212
-0.114  0.283  0.199
-0.357  0.517  0.221
-0.341 -0.450  0.204
 0.314  0.168  0.193
-0.168 -0.458 -0.216
-0.0400 -0.217  0.190
 0.691  0.266  0.176
-0.115  0.680 0.0180
0.0203  0.545  0.225
 0.655 -0.692 -0.0414
 0.352 -0.654  0.224
-0.296  0.530 -0.234
 0.269 -0.504  0.208
-0.0475 -0.360  0.197
-0.0325 -0.405 -0.212
 0.367  0.530 -0.234
-0.341  0.375  0.207
-0.657 -0.482 -0.217
 0.314  0.560  0.227
-0.663  0.620  0.226
 0.178 -0.392  0.199
-0.650 -0.654 -0.235
0.0963  0.445  0.213
-0.432  0.446  0.212
 0.466 -0.477 -0.217
-0.447 -0.277  0.192
 0.473  0.500  0.219
-0.545  0.680  0.108
-0.198  0.236 -0.208
-0.507 -0.682 -0.218
-0.605 -0.202 -0.202
-0.191  0.620  0.228
 0.314  0.130 -0.203
 0.688 -0.0961 -0.198
 0.503 -0.0810  0.188
 0.476 -0.682 -0.222
 0.691  0.439 -0.186
-0.552 0.0471 -0.201
-0.666  0.582  0.183
-0.560 -0.330  0.195
-0.575 0.00948 -0.200
-0.168  0.176 -0.205
-0.206 -0.232  0.191
 0.691  0.334  0.123
 0.691  0.221 -0.194
0.0806 -0.179 -0.201
-0.363  0.680 -0.0732
-0.402 -0.156  0.189
 0.450  0.580 -0.201
 0.691  0.303 -0.164
 0.171 -0.0433  0.188
 0.412  0.160 -0.204
-0.304 -0.171 -0.201
 0.359 -0.141 -0.200
 0.269  0.580  0.145
-0.183  0.311  0.201
 0.691 -0.254 -0.0882
 0.111 0.0170 -0.200
-0.593 -0.692  0.203
 0.472 0.0849  0.189
-0.424 -0.0433 -0.200
-0.244  0.183 -0.205
-0.00984 -0.0357 -0.200
 0.194 -0.00561 -0.200
 0.691 0.0245 -0.0581
 0.359 0.00191  0.188
-0.666  0.107  0.168
-0.402 0.0170 -0.200
0.0354 -0.0584  0.187
 0.480 0.0848 -0.202
-0.666  0.424 0.0399
0.0220 -0.692  0.192
-0.666  0.341 0.0776
0.0580 -0.126  0.188
0.00524  0.680 0.0173
0.0881  0.605 -0.239
-0.643  0.680 -0.0580
 0.201 -0.571 -0.226
 0.691 -0.616 0.0324
 0.691 -0.134 0.0474
-0.666  0.160 0.00223
-0.0400  0.680 0.0776
-0.666 -0.458 0.0474
-0.666 0.0170 -0.148
-0.666 -0.0885 0.0927
 0.540  0.580 -0.0204
 0.690  0.221 -0.0128
0.00523  0.620  0.228
 0.427  0.579 0.00222
-0.666 -0.149 -0.0430
-0.0777  0.612 -0.239
-0.130  0.575 -0.239
 0.578 -0.156  0.189
 0.269  0.579  0.191
-0.213 0.0396 -0.200
-0.259 -0.119  0.188
-0.115 -0.360  0.197
-0.138  0.643  0.228
 0.691 -0.465 -0.0882
 0.231 -0.443  0.203
 0.661  0.580 -0.194
 0.261  0.206  0.194
 0.442  0.579 0.0851
-0.244 -0.126 -0.200
-0.108  0.582  0.228
 0.555  0.579 -0.231
 0.676 -0.171 -0.201
-0.500  0.680 -0.0731
-0.500  0.530  0.222
 0.299 0.0698  0.189
 0.533  0.580  0.213
 0.352 0.0471 -0.201
-0.666 -0.269 -0.0581
-0.409 -0.496 -0.219
 0.173 -0.692  0.215
-0.236 -0.0810  0.188
-0.100  0.680  0.123
-0.666  0.251 0.0248
 0.690  0.175 -0.126
-0.168 -0.104 -0.200
-0.189  0.448 -0.225
 0.277  0.580 -0.0882
-0.130  0.680 -0.0957
 0.397  0.579 -0.0807
-0.568  0.597  0.228
-0.299 -0.692  0.225
 0.405 -0.0961  0.188
-0.666  0.530 -0.0731
 0.563  0.319 -0.214
-0.319  0.635 -0.239
-0.613 -0.164 -0.201
 0.691  0.439 -0.148
-0.485 -0.367 -0.209
 0.299 0.00948  0.188
 0.601  0.190 -0.206
 0.390  0.580 -0.156
-0.409  0.680  0.161
 0.239 -0.0282  0.188
 0.691 -0.164 -0.0732
 0.691 -0.322 -0.0732
 0.653  0.296 -0.212
-0.666 -0.0885 -0.0279
 0.691 -0.578  0.168
-0.311 -0.0810 -0.200
-0.417 0.00198  0.187
-0.620  0.560 -0.237
 0.141  0.590 -0.239
 0.647 -0.692  0.120
 0.623 0.0849  0.189
-0.666 0.0999 -0.164
-0.213 -0.134  0.188
-0.666  0.371 -0.133
 0.143 -0.245  0.191
-0.613 0.0321  0.187
-0.266  0.251  0.197
0.0806 -0.413  0.201
-0.0551  0.334 -0.215
 0.472 -0.413 -0.212
 0.111 -0.662 -0.236
 0.691 -0.307 0.0776
 0.352 -0.639 -0.234
 0.231  0.477 -0.228
 0.322 -0.609 -0.230
 0.427  0.236  0.196
