ply
format ascii 1.0
element vertex 2048
property float x
property float y
property float z
end_header
 0.341 -0.547 0.0925
-0.459  0.664 -0.456
 0.353  0.615  0.443
-0.445 0.00925  0.403
-0.470 -0.658 -0.438
 0.341  0.209 -0.448
-0.362 -0.788  0.395
-0.314  0.663  0.228
-0.322 0.00991 -0.403
 0.267 -0.0140  0.427
 0.147 -0.786 -0.448
 0.172  0.663 -0.115
-0.0590 -0.182 0.0288
 0.341 -0.307 -0.449
-0.491 -0.452 0.0288
-0.0260 -0.428  0.427
 0.294  0.193 0.0129
-0.0750  0.297  0.380
-0.0909 -0.663 -0.0429
-0.0765  0.387 -0.450
 0.196 -0.786  0.425
-0.0712 -0.339 -0.449
-0.444 -0.388  0.425
-0.218  0.601 -0.146
 0.341 -0.197 -0.0747
 0.331  0.623 -0.465
 0.341 -0.375  0.424
-0.491 -0.309 -0.306
-0.00596  0.664  0.440
0.0415 -0.00103 -0.449
-0.0989 -0.0538  0.427
 0.341 -0.579 -0.250
 0.341  0.512  0.132
 0.259  0.313  0.380
-0.147 -0.665 -0.394
-0.409 -0.716 -0.133
-0.354 -0.182  0.140
 0.341  0.416 -0.194
0.0285  0.663 -0.393
-0.0113  0.663  0.124
 0.196 -0.182  0.188
-0.00331 -0.663  0.244
-0.210 -0.182 -0.218
-0.446  0.528 0.0129
0.0923 -0.182 -0.234
 0.301 -0.788 -0.0508
 0.294 0.0338 -0.226
-0.335  0.468  0.424
-0.274 -0.663  0.164
 0.176 -0.522 -0.449
 0.180  0.416 -0.403
 0.341 -0.784  0.212
-0.443  0.514 -0.235
 0.116 -0.663 -0.178
-0.210  0.600 -0.394
-0.202 -0.603  0.427
 0.341 -0.0565 -0.449
-0.306 -0.400 -0.445
 0.108 -0.197  0.427
 0.204  0.664  0.260
 0.341 0.00993  0.196
-0.476 -0.595  0.307
-0.480 -0.220 -0.0588
-0.242 -0.245  0.427
-0.131  0.161 -0.403
 0.341 -0.603  0.379
-0.457  0.664  0.439
-0.471 -0.531 -0.250
0.0684  0.121  0.380
-0.0584 -0.783  0.427
-0.234  0.137  0.380
 0.102  0.466  0.427
 0.356  0.647 -0.242
0.0923  0.209 -0.403
 0.341 -0.356 -0.234
 0.341 -0.778 -0.345
 0.116 -0.663 0.0606
 0.162 -0.183 -0.449
-0.0192 -0.182  0.252
 0.341 -0.340  0.148
-0.471 -0.197  0.331
-0.475 -0.664 0.0633
 0.100 -0.595  0.427
-0.132 -0.117 -0.448
 0.341  0.297  0.188
-0.0272  0.663 -0.194
-0.123  0.496  0.427
-0.446 -0.149 -0.433
-0.210  0.663 0.0527
-0.491 -0.364  0.212
 0.356  0.623 -0.0349
 0.341 -0.197  0.331
-0.226 -0.663 -0.194
-0.372  0.487 -0.422
-0.250  0.647  0.442
 0.341 -0.165 -0.282
 0.140 -0.182 -0.0429
-0.438  0.511  0.241
 0.294 0.00197 -0.0269
-0.250 -0.182 -0.0269
-0.291 -0.781 -0.450
 0.341  0.217 -0.186
-0.445 -0.767  0.222
 0.196 -0.663  0.244
 0.341  0.137  0.339
-0.0311 -0.524 -0.449
 0.294  0.392 -0.00305
-0.417 -0.788 -0.314
 0.341 -0.607 -0.449
 0.188  0.601 -0.306
0.0365 -0.663 -0.345
-0.147  0.601  0.276
 0.294  0.488  0.323
 0.212 0.0657 -0.403
-0.202 -0.182  0.260
 0.204  0.663 0.0766
-0.362  0.663 -0.298
-0.441  0.663 -0.107
 0.148 -0.380  0.427
-0.282 -0.0777  0.380
-0.240  0.321 -0.441
 0.341 -0.372 -0.0508
-0.274 -0.436  0.427
-0.386 -0.182 -0.234
-0.0673 -0.229  0.427
 0.341 -0.125 0.0846
-0.0591  0.601 -0.0349
 0.212 -0.663 -0.338
 0.341  0.376 -0.361
-0.0283 -0.781 -0.450
-0.258 -0.663 -0.0110
 0.164  0.661  0.442
-0.459  0.664  0.140
 0.341 -0.468  0.260
-0.240  0.321  0.403
0.0285  0.601  0.276
-0.446 -0.492 -0.425
-0.0590 -0.182 -0.306
-0.0511 -0.182 -0.138
-0.274 -0.182 -0.393
0.0683 -0.0379  0.427
-0.370 -0.627  0.427
0.0945 -0.382 -0.449
-0.491 -0.364 -0.154
0.0285  0.504 -0.403
-0.0829  0.105  0.427
 0.341 -0.579 -0.0907
-0.476 -0.580 -0.0907
-0.322 -0.663 -0.322
 0.356  0.664  0.169
 0.172  0.664 -0.457
-0.491 -0.253 0.0925
0.0923  0.312  0.427
-0.210 -0.762  0.380
 0.294 -0.715 -0.186
-0.0352 -0.663 -0.194
-0.107 -0.663  0.132
 0.341 -0.436 -0.369
 0.337 -0.788  0.363
-0.471 -0.531  0.156
 0.294 -0.691  0.100
0.0684 -0.182  0.108
 0.294  0.161 -0.314
 0.294  0.551 -0.146
-0.440 -0.332 -0.440
 0.252 -0.261  0.427
 0.244 -0.508  0.427
-0.0431 -0.571  0.427
 0.294  0.504 -0.306
 0.228 -0.663 -0.0508
-0.210 -0.182  0.116
 0.220  0.121  0.427
-0.178 0.0259 -0.403
-0.273  0.138 -0.446
-0.0750  0.601 -0.314
-0.441  0.663  0.292
-0.186 -0.663  0.276
-0.314  0.601 -0.0429
0.00978 -0.224 -0.449
 0.224  0.286 -0.449
 0.341 -0.635  0.220
-0.0989  0.664 -0.449
0.0599  0.360 -0.450
 0.294 -0.102 -0.162
0.0604 -0.731  0.380
 0.294  0.169  0.212
 0.356  0.639  0.307
-0.322  0.664 -0.462
-0.0996  0.526 -0.450
-0.163 -0.356  0.427
 0.338  0.480 -0.450
-0.476 -0.659 -0.298
 0.341 0.0816 0.0765
-0.378 -0.229  0.427
-0.218  0.663 -0.266
-0.362 -0.663  0.292
0.0923  0.601 0.0368
 0.341 0.0975 -0.107
 0.204 -0.182 -0.306
-0.354  0.591  0.380
-0.234  0.472 -0.403
-0.00330  0.113 -0.403
-0.354 -0.182  0.276
-0.00330  0.528  0.380
 0.341 -0.205  0.188
 0.220 -0.665  0.372
 0.341 0.0734 -0.449
-0.0352  0.273 -0.403
0.0843  0.601 -0.218
 0.294  0.305 -0.0986
-0.399  0.528 -0.115
 0.196  0.551  0.380
-0.491 -0.468  0.292
-0.441 -0.0148 -0.447
 0.191  0.535 -0.450
-0.362  0.601 0.0766
-0.123  0.601  0.140
-0.446 -0.516  0.419
 0.341 -0.0299  0.323
 0.331  0.424  0.427
-0.431 -0.788 -0.440
 0.341 -0.181 -0.425
-0.157 -0.508 -0.449
 0.172 -0.0538 -0.403
 0.294 -0.0378 -0.330
-0.338 0.0725  0.419
-0.0750 -0.663  0.347
-0.446  0.583 -0.345
 0.294  0.520 -0.00305
0.0524  0.601 -0.0907
 0.196 -0.182 -0.154
 0.294  0.313 -0.266
-0.167 -0.775 -0.450
 0.204 -0.133  0.380
 0.273 -0.786 -0.448
 0.108 -0.182  0.276
0.0957 -0.630 -0.449
-0.386 -0.182 0.0208
 0.341 -0.309  0.268
 0.341 -0.245 0.0527
 0.341 -0.428 0.0606
 0.331  0.225  0.427
-0.00330 -0.125  0.380
 0.236 -0.182 0.0607
-0.163 -0.165  0.380
-0.490 -0.228  0.212
 0.294  0.408  0.204
-0.491 -0.428 -0.330
0.0923 -0.663 -0.0588
-0.234  0.543  0.380
-0.171 0.0338  0.380
-0.461  0.655 -0.226
-0.338 -0.182 -0.123
-0.155 -0.492  0.427
-0.446 -0.117  0.419
0.0444 -0.117 -0.403
-0.147  0.663  0.379
-0.445  0.514  0.395
-0.314  0.663 -0.186
0.0205 -0.317  0.427
-0.378 -0.663 -0.0269
-0.455  0.664 0.0129
 0.341  0.297 0.0527
-0.0113  0.408  0.380
-0.0670 -0.0219 -0.403
-0.0416 -0.649 -0.449
 0.341 -0.444 -0.146
-0.491 -0.231 -0.210
 0.116  0.664  0.156
-0.0989 -0.182  0.164
-0.155  0.663 -0.0668
 0.341  0.368  0.315
 0.252  0.601  0.172
-0.258  0.601  0.140
 0.234 -0.356 -0.449
 0.291  0.663 -0.338
0.00465 -0.663 0.0288
-0.491 -0.317  0.346
-0.220 -0.323 -0.447
0.0896  0.597  0.377
-0.342 -0.258 -0.446
-0.218  0.432  0.427
-0.446 -0.699  0.379
 0.342 -0.102  0.419
0.0206  0.233  0.380
-0.171  0.233  0.427
-0.0591  0.663  0.228
 0.252  0.663  0.363
 0.294 -0.117  0.244
 0.204  0.601 -0.0190
 0.148  0.225  0.380
-0.385 -0.663  0.140
-0.491 -0.468 -0.0986
 0.294 -0.0219 0.0846
 0.341 -0.651 -0.00306
-0.491 -0.325 0.00490
-0.274 -0.663  0.363
 0.252  0.663 -0.202
 0.341 -0.261 -0.345
-0.446  0.551  0.132
-0.139 -0.663 -0.282
-0.250  0.663  0.331
0.0285 -0.182 -0.0508
-0.147  0.273 -0.403
-0.226 -0.0777 -0.403
 0.341  0.257  0.315
 0.331 -0.788 0.0607
 0.209  0.167 -0.449
 0.341 -0.237 -0.178
-0.471 -0.197 -0.314
 0.100 -0.663  0.188
-0.362 -0.663 -0.218
-0.178 -0.182 -0.338
 0.156 0.00994  0.380
0.0807 -0.467  0.428
-0.306 -0.540  0.427
 0.341  0.448 -0.0907
 0.310 -0.501 -0.450
 0.341 -0.484  0.387
 0.341 0.0657 -0.330
-0.475 -0.664  0.223
 0.341 -0.651 -0.330
 0.252 -0.124 -0.449
 0.341 -0.00600 -0.138
 0.124 -0.663  0.323
-0.131 -0.663 -0.146
 0.294 0.0657  0.276
-0.370 -0.692 -0.450
 0.294 -0.125 -0.0110
 0.246 -0.250 -0.449
-0.155 -0.182 -0.115
-0.0989  0.601 -0.146
0.0917  0.574 -0.450
 0.323 0.0816  0.427
 0.289  0.598 0.0739
 0.119 0.0843 -0.449
 0.342 -0.460 -0.250
-0.338 -0.0936 -0.403
-0.476 -0.580 -0.369
0.0365  0.663 -0.290
 0.294  0.384  0.100
0.0923 -0.182 -0.338
 0.228  0.424  0.427
-0.115  0.392  0.380
-0.322  0.575 -0.403
 0.341 -0.787 -0.242
0.0604 -0.755 -0.403
-0.434  0.564 -0.450
 0.340  0.324 -0.449
 0.341  0.193  0.124
-0.0272 0.00197  0.380
-0.446 -0.555 0.0607
-0.0829  0.663 0.0527
 0.266 -0.675 -0.449
 0.124  0.663 -0.353
 0.294  0.520  0.228
 0.356  0.655 -0.130
 0.341  0.273 -0.345
0.0206  0.663 0.00490
 0.283  0.512  0.427
-0.290 -0.333  0.427
 0.204 -0.663 -0.226
 0.303 -0.681  0.428
-0.444 -0.787  0.334
-0.155 -0.182 -0.00305
-0.491 -0.428  0.124
 0.341 -0.532 -0.345
 0.341 -0.524 -0.00306
 0.106  0.465 -0.450
-0.0989  0.603  0.440
 0.267  0.583 -0.402
 0.290 -0.668  0.297
-0.204 -0.226 -0.447
-0.163  0.384 -0.403
 0.140 -0.699  0.427
-0.202 -0.0458  0.427
-0.0113 -0.663 -0.0986
-0.330 -0.663 -0.115
-0.226  0.217 -0.403
-0.346 -0.133  0.427
-0.476 -0.603 -0.186
 0.116  0.601  0.236
 0.341 -0.691 -0.0907
-0.171 -0.663 0.0288
 0.259  0.663 -0.0668
-0.349 -0.0276  0.428
-0.202  0.663  0.228
-0.0113 -0.663  0.148
 0.294 0.0976 -0.0190
-0.322 -0.663 0.0606
 0.341 -0.436  0.156
-0.491 -0.428 -0.226
 0.337 -0.197  0.427
-0.370  0.601  0.172
-0.226 -0.663 -0.330
 0.341  0.209 -0.0907
 0.212 -0.663 0.0527
0.0365  0.601  0.180
 0.123  0.287 -0.449
-0.377 -0.553 -0.449
-0.0591  0.209  0.427
-0.393  0.598 -0.178
 0.197 -0.591  0.428
-0.440 -0.182 -0.146
 0.180  0.601 -0.210
 0.244 -0.182  0.292
 0.337 -0.788 -0.138
-0.475 -0.234 -0.403
 0.132  0.384  0.380
-0.194  0.661 -0.465
-0.00330  0.663  0.339
-0.298  0.601 -0.266
0.0819 -0.514 -0.449
-0.0166 -0.431 -0.449
-0.476 -0.603  0.403
-0.399  0.575  0.299
 0.259  0.608  0.443
 0.267 -0.182 -0.226
-0.446 -0.731 -0.218
-0.0698 -0.340  0.428
 0.294  0.129 -0.226
-0.354  0.661  0.442
-0.459  0.603  0.223
 0.356  0.664 0.0739
0.0923 -0.182 -0.123
-0.107 -0.182 -0.226
-0.0113 -0.182 -0.226
-0.107  0.663 -0.242
 0.353  0.601 -0.369
-0.298 -0.182 0.0527
 0.275  0.601  0.268
-0.202 -0.615 -0.450
 0.341 -0.0458 -0.226
 0.341 -0.0777 -0.0747
 0.341  0.456 0.0447
-0.471 -0.667 -0.0588
0.00171  0.597 -0.452
 0.259  0.368 -0.403
-0.354  0.663  0.323
 0.341 -0.723 -0.425
-0.0511 -0.174 -0.402
 0.341  0.559  0.371
 0.228  0.241  0.427
-0.115 -0.683  0.427
 0.132  0.663  0.331
0.0923 -0.663 -0.274
-0.0909 -0.182  0.307
 0.341 -0.348 -0.138
-0.290  0.663 -0.353
-0.266 -0.182 -0.290
 0.341 -0.635 -0.178
0.0126 -0.643  0.427
-0.491 -0.277 -0.130
-0.226  0.601 -0.0190
 0.341 -0.285  0.355
-0.362 -0.182 -0.369
-0.306 -0.491 -0.449
-0.0591 -0.663 -0.361
 0.341  0.559 -0.226
 0.341 -0.540  0.315
 0.259 -0.663  0.180
-0.266 0.0338  0.380
-0.246 -0.145  0.428
 0.244 -0.182 -0.0588
 0.341  0.336  0.411
 0.243 -0.589 -0.449
-0.0382  0.182 -0.449
-0.447 -0.539  0.244
-0.417  0.663 -0.377
-0.274 -0.707 -0.403
 0.341 0.0975  0.164
 0.341 -0.333 0.0368
 0.124 -0.0936  0.380
 0.341 -0.0856  0.164
 0.212  0.663 -0.377
0.0126 -0.663  0.331
 0.294 -0.141 -0.353
-0.459  0.603  0.358
0.0126 0.0657  0.427
-0.439 -0.292  0.427
 0.156 -0.683 -0.403
 0.212 -0.442 -0.449
-0.00329  0.400 -0.403
 0.341 -0.285 -0.0429
 0.220 -0.663 -0.138
-0.178 -0.663  0.188
-0.250 -0.182 -0.130
-0.144  0.323  0.427
-0.266  0.663 -0.107
-0.0192  0.663 -0.0827
-0.298  0.601  0.292
 0.294 -0.715 -0.274
 0.124  0.663 -0.266
 0.252  0.465 -0.450
 0.340 -0.399 -0.449
-0.155  0.663 -0.369
-0.370  0.663 -0.00306
-0.399 -0.699 -0.290
-0.00331  0.312  0.427
-0.0220 -0.0804 -0.449
 0.275  0.177  0.380
-0.0829  0.601  0.355
-0.440 -0.182  0.148
-0.281 -0.783  0.427
-0.314 -0.182  0.363
0.0763  0.661 -0.465
-0.487 -0.404  0.352
-0.446  0.575 -0.0588
-0.131  0.601 0.0129
-0.446 -0.731 -0.377
0.0365 -0.182  0.323
-0.186 -0.663 -0.0588
-0.491 -0.396 -0.0508
-0.107 0.0736 -0.403
 0.233 -0.0144 -0.449
 0.294 -0.125  0.339
-0.194  0.532 -0.450
 0.294  0.408 -0.266
 0.289  0.121 -0.400
 0.341 -0.524 -0.178
-0.131 -0.182 0.0846
 0.341 -0.388  0.299
-0.149  0.455 -0.449
-0.399  0.515 -0.324
 0.294 -0.770  0.292
-0.0192  0.137  0.380
-0.155  0.663 -0.162
 0.341  0.273 -0.0349
 0.116 0.00994 -0.403
 0.132 -0.182 0.0527
 0.294  0.456 -0.377
-0.226 -0.691  0.427
-0.171  0.601 -0.298
 0.111 -0.0904 -0.449
 0.259  0.664 -0.449
-0.263  0.603 -0.462
 0.220 -0.739 -0.403
-0.0272  0.601 0.0606
 0.283  0.249 -0.403
 0.289 -0.179  0.124
0.0524  0.663 -0.146
-0.338 -0.715  0.427
 0.348  0.598  0.220
0.0444 -0.182  0.188
-0.202  0.105 -0.403
 0.124 -0.784  0.381
-0.290  0.663 0.0288
 0.294 -0.731 0.0129
 0.341 -0.524  0.172
 0.148  0.663 -0.0349
-0.202 -0.663  0.108
 0.172  0.305  0.380
 0.341 -0.340 -0.322
 0.299  0.663 0.0129
-0.139  0.145  0.380
-0.0431  0.472  0.427
 0.124 0.0816  0.427
-0.0989 -0.787 -0.405
 0.267 -0.747  0.380
 0.294  0.273  0.124
-0.107  0.600 -0.394
-0.403 -0.705 0.0687
-0.476 -0.635  0.140
-0.282 -0.182  0.236
-0.0192 -0.182  0.100
 0.196 -0.0538  0.427
0.0371  0.281 -0.449
 0.294  0.480 -0.226
 0.283 -0.182 -0.130
 0.283  0.602 -0.266
-0.178  0.591  0.427
-0.267  0.390 -0.407
-0.398 -0.691  0.220
-0.282 -0.663  0.276
-0.491 -0.452  0.212
 0.124 -0.277  0.427
-0.476 -0.516 -0.162
-0.425 -0.182  0.228
-0.393 -0.182  0.347
-0.370 -0.420  0.427
-0.139 -0.788  0.419
0.0126 -0.182 -0.353
-0.0830  0.456 -0.403
0.0282 -0.189  0.427
-0.392 -0.667 -0.377
-0.322  0.663  0.108
 0.164  0.601  0.108
-0.409  0.663  0.204
 0.294  0.305 -0.186
 0.341 -0.253 -0.266
 0.341 -0.452 -0.0429
 0.156  0.145  0.380
-0.471 -0.531 -0.0110
-0.380 -0.450 -0.443
-0.0986 0.0261  0.427
 0.342 -0.0538 0.00488
0.0126  0.601 -0.345
0.0763  0.663 0.0846
 0.132  0.601 -0.0827
 0.220  0.601 -0.0986
0.0843  0.655  0.442
-0.0673 -0.133  0.427
 0.294 -0.739  0.164
-0.0192 -0.731  0.380
 0.132  0.352 -0.403
-0.0352 -0.663 -0.274
-0.0909 -0.182 -0.0668
0.0365 -0.548  0.427
 0.275 -0.603  0.427
 0.259 -0.102  0.427
-0.336 0.0735 -0.449
 0.294  0.305  0.252
 0.172  0.456  0.380
-0.428 -0.730  0.147
-0.398 -0.747  0.284
0.0416 -0.693 -0.450
-0.401 -0.0617  0.380
 0.204  0.663  0.180
 0.164  0.601 -0.385
-0.0352  0.601 -0.242
-0.354 -0.784 -0.403
 0.341  0.402 -0.439
-0.449  0.664 -0.306
-0.186  0.601 -0.218
 0.341 -0.372  0.220
 0.294  0.376 -0.130
0.0883 -0.209 -0.449
-0.433 -0.784  0.427
 0.165 -0.508  0.428
0.0121 -0.593 -0.449
-0.139 -0.0538 -0.403
-0.155 -0.663  0.363
-0.112 -0.706 -0.450
-0.241  0.201  0.427
 0.293  0.592 -0.0747
-0.476 -0.388 -0.400
 0.172  0.249 -0.403
-0.282  0.432  0.380
 0.275  0.663  0.132
-0.239 0.0113 -0.448
-0.385  0.602 -0.258
-0.370 -0.325  0.427
-0.485 -0.225 0.0208
-0.214 -0.693 -0.450
-0.194 0.0899  0.427
 0.244 0.0418  0.380
 0.294  0.137  0.100
0.0923  0.201  0.427
-0.290  0.583  0.427
-0.298  0.601 -0.138
 0.294 0.0338  0.140
0.0206  0.583  0.427
-0.178  0.601  0.347
 0.341 0.00728  0.424
 0.204 -0.182 -0.385
-0.270  0.527 -0.450
-0.451 -0.534  0.345
 0.148 -0.182  0.363
-0.403 0.0399 -0.410
-0.444 -0.0777 -0.405
 0.228 -0.333  0.427
 0.341 0.0418  0.347
-0.446 -0.197  0.419
 0.341 -0.0936 -0.306
-0.0670 -0.663 0.0527
 0.341 -0.627 0.0686
0.0365 -0.663 -0.170
-0.0750 -0.663  0.268
 0.293  0.384  0.372
-0.447  0.592 0.0686
-0.123 -0.182  0.236
-0.226 -0.182  0.331
-0.491 -0.340 -0.226
 0.140 -0.182  0.132
 0.293 -0.0777 -0.394
-0.131  0.663  0.204
-0.186  0.368  0.380
 0.283 0.0418 -0.403
0.0524  0.663  0.220
 0.291  0.663  0.228
0.0126  0.601 -0.162
-0.194 -0.149 -0.403
-0.0591  0.601  0.180
 0.156 -0.663 -0.0190
0.0684 -0.182 0.0129
 0.108  0.544  0.427
-0.194  0.601  0.100
-0.0140 0.0550 -0.449
-0.133 -0.264  0.428
0.0604 -0.380  0.427
 0.341  0.520 -0.361
 0.294 -0.0140  0.268
 0.341  0.424  0.260
 0.341 0.0179 0.0288
-0.0192 -0.0697  0.427
-0.0989 -0.412  0.427
0.0683  0.400  0.427
-0.363  0.601 -0.459
 0.341  0.121  0.244
 0.341 -0.133 -0.210
0.0763 -0.125  0.427
-0.370  0.601 -0.338
-0.0909  0.663 -0.107
-0.282 -0.627  0.427
0.0414  0.150 -0.449
-0.171  0.601  0.204
 0.294  0.241 -0.282
-0.0750  0.663  0.300
-0.476 -0.651 -0.130
-0.354 -0.182 -0.0508
-0.171 -0.182  0.180
-0.0829  0.663  0.148
-0.298  0.663  0.387
-0.491 -0.317  0.156
 0.341  0.185  0.284
-0.274 -0.663 -0.250
-0.362  0.663 -0.130
-0.491 -0.372 0.0606
-0.0909  0.320 -0.403
-0.218 -0.532  0.427
 0.341 -0.221  0.260
 0.341  0.528 0.0606
-0.282 -0.182 -0.202
 0.341 -0.269  0.132
 0.148 -0.663 -0.107
 0.341 0.00196 -0.369
 0.294  0.153 -0.115
 0.341  0.137 -0.170
 0.294 0.0577 -0.146
 0.341 -0.181 -0.00306
-0.163 -0.0856  0.380
 0.341  0.153 -0.0269
-0.440  0.590  0.427
-0.169  0.220 -0.449
-0.0272  0.551 -0.403
 0.341  0.448 -0.306
-0.0593  0.544  0.427
 0.331  0.663  0.371
-0.491 -0.269  0.292
-0.476 -0.603 -0.0110
 0.337 -0.277  0.427
 0.340  0.553 -0.450
-0.409  0.663 0.0686
 0.164  0.488 -0.403
 0.341 -0.707  0.228
0.0763  0.663 -0.0429
0.0763 0.0497  0.380
 0.343  0.592  0.148
-0.0272  0.663 -0.441
 0.244  0.663 -0.274
 0.164 -0.182 -0.242
-0.123 -0.611  0.427
-0.0272 -0.182  0.172
-0.242  0.663 -0.178
-0.378 0.0179  0.380
-0.242  0.601 -0.330
-0.398  0.517 0.0908
 0.294  0.480 -0.146
 0.132  0.601 -0.154
 0.294  0.520 -0.0747
 0.341 -0.635  0.148
 0.164  0.601  0.180
 0.119  0.156 -0.449
-0.171  0.472  0.380
-0.186 -0.428  0.427
-0.274 -0.182  0.148
 0.341  0.448  0.164
 0.108 -0.149 -0.403
0.0604 -0.663  0.276
0.0365  0.601 0.0925
 0.294 -0.731 -0.369
 0.148 -0.663  0.124
 0.341  0.384 -0.0588
-0.0276  0.326 -0.450
 0.294  0.344  0.164
 0.341 0.0497 -0.0508
-0.273  0.504  0.427
 0.190  0.348 -0.450
-0.451 -0.669  0.289
-0.313  0.455 -0.442
 0.174 0.0277 -0.449
 0.341 -0.619  0.299
 0.156  0.663 -0.186
 0.228  0.601  0.339
-0.151  0.587 -0.450
-0.476 -0.579 -0.440
-0.218 -0.784 -0.403
 0.244  0.601 -0.170
-0.0431  0.601  0.292
-0.250  0.663  0.172
-0.0909  0.663 -0.0269
0.0372 -0.777  0.427
-0.0192  0.663 -0.338
-0.0431 -0.182  0.371
 0.341 -0.715  0.379
0.0683 -0.0458 -0.403
 0.283 -0.182  0.220
0.0524  0.663 -0.218
-0.274 -0.731  0.380
 0.331 -0.540  0.427
 0.294  0.313 -0.377
 0.228 -0.715  0.427
-0.399  0.551 -0.385
-0.132 0.00310 -0.448
0.0923  0.416 -0.403
-0.459  0.603 -0.136
-0.0173  0.449 -0.450
-0.115 -0.182 -0.377
 0.244  0.105 -0.449
-0.446  0.528  0.315
 0.244  0.472  0.380
-0.186  0.281  0.380
-0.0670  0.376  0.427
 0.294 -0.0299 -0.0907
 0.341  0.360 -0.282
 0.294 -0.0378  0.180
 0.212  0.376  0.380
 0.341  0.177 -0.361
 0.294  0.233  0.268
-0.476 -0.587  0.204
 0.305  0.664  0.440
 0.282 -0.435 -0.449
-0.0700  0.597 -0.452
 0.341 -0.404 -0.290
-0.346 -0.182 -0.290
 0.341  0.273 -0.226
 0.331  0.663 -0.393
-0.258  0.601 -0.210
-0.362 -0.500  0.427
-0.186  0.601 -0.0747
0.0923 -0.663 -0.385
0.0365  0.472  0.380
-0.0670 -0.663  0.188
-0.115  0.601 -0.0747
 0.291  0.663  0.307
-0.476 -0.659 -0.226
0.0524 -0.182 -0.178
-0.186  0.520  0.427
 0.108  0.601 -0.290
-0.274  0.601  0.363
 0.275  0.601 -0.00306
0.0683 0.0816 -0.403
-0.490 -0.322 -0.373
-0.346  0.535  0.427
 0.132 -0.182 -0.178
0.0365 -0.182 -0.290
-0.378  0.601 -0.0668
 0.341  0.217  0.188
 0.220 -0.444  0.427
 0.341  0.193 -0.250
-0.186  0.663  0.307
-0.378  0.663 -0.210
-0.0909  0.663 -0.345
 0.140  0.663 0.0527
-0.446 -0.555 -0.314
-0.491 -0.484 -0.368
0.0763  0.663  0.371
-0.446  0.575 -0.274
 0.172 -0.229  0.427
0.0444  0.601 -0.0110
0.0126  0.225 -0.403
-0.433 -0.182 -0.0269
 0.180  0.601  0.268
 0.341  0.551 -0.298
-0.398  0.517  0.186
-0.378 -0.675  0.380
 0.294  0.320 -0.0269
 0.294 -0.739 -0.0986
0.0604  0.352  0.380
 0.341  0.575  0.292
 0.146 -0.431 -0.449
-0.147  0.535 -0.403
 0.267  0.512 -0.403
 0.164  0.137 -0.403
-0.399  0.575  0.228
-0.107  0.209  0.380
 0.294 -0.0936 -0.258
-0.266  0.601 0.0368
 0.236 -0.663  0.116
 0.293  0.241  0.372
-0.476 -0.595 -0.266
 0.277  0.189 -0.449
 0.283  0.591  0.380
 0.204  0.601 0.0527
-0.147  0.663 -0.298
-0.398  0.517 -0.180
 0.294 -0.125 -0.0986
 0.156  0.601  0.363
 0.341  0.368 0.0368
 0.294 0.0896 -0.290
 0.341  0.448  0.347
0.0524 -0.0856  0.380
 0.341  0.217 0.0527
 0.353  0.664 -0.306
-0.199 -0.193  0.428
 0.196  0.597  0.430
0.0817 -0.668  0.377
-0.350 -0.324 -0.447
-0.306 -0.229  0.427
 0.341 -0.540  0.236
 0.275 -0.165  0.427
-0.194 -0.663 -0.130
-0.274  0.663 -0.417
-0.242  0.601  0.204
 0.341 -0.269  0.204
 0.341  0.352 -0.210
0.0763 -0.663 0.00490
 0.203  0.600 -0.454
-0.0670  0.129 -0.403
-0.147  0.432  0.427
 0.112 -0.696 -0.450
-0.0519 -0.246 -0.449
-0.00331 -0.669 -0.400
 0.343  0.592 0.0208
0.0206  0.336 -0.403
-0.386  0.664 -0.449
-0.478 -0.468  0.362
-0.203  0.420 -0.449
-0.266 0.0497 -0.403
 0.291  0.281  0.427
 0.341 -0.699 0.0447
0.0126  0.169  0.427
0.0238 -0.380 -0.449
 0.341 -0.242 -0.448
 0.299 -0.788  0.419
 0.337 -0.788 -0.441
 0.341 0.00842 -0.448
-0.0591 -0.484  0.427
 0.341  0.144 -0.448
-0.0670 0.0577  0.380
 0.284 -0.665 -0.234
-0.439 -0.650  0.428
0.0499  0.430 -0.450
-0.0750  0.209 -0.403
 0.341 -0.547 -0.417
 0.228  0.664  0.435
-0.399 -0.739  0.347
-0.147  0.663 0.00490
 0.108  0.663 -0.107
-0.218  0.663 -0.0588
-0.186  0.663  0.164
 0.341 -0.301 -0.186
 0.100  0.601  0.116
 0.188 -0.182  0.260
-0.439 -0.452  0.427
 0.140  0.512  0.380
-0.218  0.663  0.387
 0.124  0.601  0.300
-0.314  0.601  0.204
-0.131 -0.663  0.236
 0.236  0.663 0.0208
-0.290  0.105  0.380
-0.171 -0.663 -0.226
0.0923  0.257  0.380
 0.188 0.0896  0.380
 0.294  0.464 -0.0349
 0.195 -0.290 -0.449
0.0843  0.663 0.0208
-0.0829 -0.723  0.380
0.0126 -0.182 0.0447
0.0763  0.305 -0.403
-0.491 -0.332 -0.0588
-0.218 -0.663  0.331
-0.409  0.663  0.355
 0.294  0.368  0.260
 0.267 -0.182 -0.298
 0.341 -0.189 -0.361
-0.115 -0.548  0.427
-0.354  0.664 -0.369
 0.275 -0.663 -0.107
-0.0909  0.601 0.0846
-0.00343 -0.245  0.427
 0.228  0.217 -0.403
0.0684 -0.174  0.380
-0.00331  0.601  0.355
-0.354  0.663  0.172
 0.341 -0.120 -0.450
-0.258 -0.0145  0.427
 0.140  0.663  0.260
-0.258 -0.663 0.0606
 0.175 -0.644 -0.450
 0.283 -0.190 -0.449
-0.155 -0.182  0.307
 0.294 -0.778 -0.186
-0.322 -0.663 -0.385
0.0843 -0.663  0.124
-0.491 -0.364  0.276
 0.294  0.464  0.124
 0.204 0.0259  0.427
 0.164 -0.110  0.427
 0.341 -0.0777  0.228
0.0206 -0.715  0.427
 0.244 -0.0617  0.380
 0.275  0.352  0.427
 0.341  0.289 -0.146
-0.446  0.567 -0.194
 0.180 -0.715  0.380
 0.294 0.0816  0.204
 0.341 0.0736 -0.186
 0.294 0.0816  0.363
-0.0829 -0.0936  0.380
 0.342  0.488  0.419
-0.123 -0.181  0.427
 0.341  0.137  0.403
 0.294  0.575 -0.345
-0.210  0.663 -0.401
-0.397 -0.389 -0.443
-0.456  0.601  0.292
-0.491 -0.491 0.0782
-0.0989  0.601 -0.250
0.0285  0.601 -0.282
-0.476 -0.261  0.371
 0.341  0.559 -0.0986
-0.394 -0.0219 -0.403
 0.341  0.273 -0.409
 0.124  0.603  0.440
-0.0777  0.276 -0.449
 0.267 -0.663 -0.298
-0.155  0.647  0.442
-0.393 -0.667 -0.0986
-0.0829  0.663  0.363
-0.457 -0.197 -0.250
-0.0220 -0.144 -0.449
 0.348  0.598 -0.154
-0.0591  0.663 -0.290
-0.202 -0.182 -0.0668
-0.314 -0.663 -0.178
 0.124  0.535 -0.403
-0.234 -0.388  0.427
-0.298  0.601 0.0925
-0.242 -0.663  0.228
-0.491 -0.261 -0.266
-0.202 -0.293  0.427
-0.401 -0.182 -0.322
 0.294 -0.0856 0.0368
0.0684  0.535  0.380
-0.0829  0.601  0.244
-0.0352  0.344  0.380
 0.259 -0.663 0.0129
-0.0750  0.440  0.380
 0.341 -0.00600 -0.274
-0.171  0.151 -0.449
-0.290 -0.182 -0.0747
-0.0352  0.601 -0.123
 0.196 -0.182 0.0129
 0.259 -0.663 -0.377
-0.425  0.663 -0.170
 0.341 -0.157  0.228
 0.156 -0.663 -0.266
 0.315 -0.444  0.427
 0.341  0.496  0.284
 0.341 -0.133  0.299
 0.341 -0.731  0.124
 0.294  0.217 -0.0508
-0.130 -0.320 -0.449
 0.132 -0.0538  0.427
 0.341 -0.723 -0.146
 0.172  0.368  0.427
 0.341 -0.0299  0.124
 0.156  0.265  0.427
-0.154 -0.125  0.427
-0.261  0.379  0.405
-0.0750 -0.723 -0.403
 0.294  0.193  0.323
-0.123 -0.00599  0.380
-0.446 -0.731 -0.314
 0.294 -0.778 -0.306
-0.345  0.535 -0.450
-0.107  0.249  0.427
 0.341  0.344  0.124
 0.331  0.663 -0.0747
-0.399  0.543 -0.0349
 0.279 -0.305 -0.449
 0.294 -0.0299 -0.170
 0.341 -0.715 -0.234
 0.296 -0.787  0.111
-0.161  0.309 -0.450
 0.294  0.233 -0.345
-0.195  0.162  0.427
 0.153  0.206 -0.449
 0.131  0.391 -0.450
 0.116 -0.182  0.188
 0.341 -0.412  0.355
-0.0192  0.663  0.276
-0.362 -0.182 0.0766
 0.342 -0.141 -0.0509
-0.00330  0.663  0.196
-0.393 -0.182 -0.0986
 0.236  0.663 -0.123
-0.314 -0.663 -0.0349
 0.294 -0.0697 -0.0349
 0.341 -0.181 0.0606
 0.341 -0.0458  0.395
-0.242 -0.663 -0.0827
 0.342 -0.675 -0.385
-0.0406  0.512 -0.450
 0.341 -0.516 -0.274
 0.294  0.137  0.300
-0.491 -0.293  0.212
-0.155 -0.182 -0.282
 0.341 -0.635 -0.115
-0.378  0.663  0.268
-0.0829  0.663 -0.170
 0.188  0.663  0.355
-0.370 -0.182  0.204
-0.0272 -0.182 -0.0747
-0.00331  0.601 -0.0668
0.0683  0.601 -0.369
-0.322  0.663 -0.0827
0.0206 -0.663 -0.250
 0.294 0.0179 -0.306
 0.341 -0.404 0.00490
 0.236 -0.527 -0.449
-0.417  0.663 -0.0508
0.0126  0.376  0.427
-0.314 -0.0140  0.380
 0.341 -0.492 0.0686
 0.197 -0.0841 -0.449
-0.491 -0.476 -0.0269
 0.294 -0.0617  0.347
 0.140 -0.747 -0.403
 0.337 -0.788 -0.00305
-0.401 -0.555  0.427
 0.341 -0.110 -0.377
-0.445 -0.425 -0.440
 0.224 -0.177 -0.449
-0.439 -0.0451  0.427
 0.294  0.559  0.172
0.0923 -0.755  0.427
 0.283  0.414 -0.450
-0.461  0.615 -0.393
-0.440 -0.182 0.0447
-0.399  0.567 0.0447
-0.0829  0.661  0.442
 0.315  0.663 -0.202
-0.298  0.504 -0.403
-0.397  0.551  0.372
-0.459  0.603 -0.00837
-0.222 -0.382 -0.449
-0.171 -0.739  0.427
-0.409 -0.779 -0.256
 0.294 0.00994  0.331
 0.341 -0.731 -0.306
-0.446 -0.690 -0.0111
 0.341 0.0816 0.0129
 0.294  0.249 0.0686
-0.0590  0.504  0.380
0.00465 -0.0140  0.427
 0.341  0.153 0.0686
 0.341 -0.133 -0.146
-0.123  0.177  0.427
-0.461  0.661  0.236
-0.378 -0.731 -0.403
 0.218  0.400 -0.450
 0.353  0.664  0.228
-0.465 -0.197  0.268
0.0373 -0.787 -0.445
 0.188 -0.787 -0.405
 0.186 -0.730 -0.450
 0.293 -0.174 0.0288
 0.156 -0.110 -0.403
-0.393 -0.731  0.427
 0.294  0.464  0.244
 0.294 -0.715 -0.0429
0.0843  0.137 -0.403
-0.461  0.608  0.124
 0.341 -0.0697 0.0686
 0.341 -0.579 0.0129
 0.341 0.0259  0.252
-0.226 -0.0936  0.380
-0.242  0.601 -0.0907
0.0206 -0.492  0.427
-0.0272 -0.663 -0.0429
 0.294  0.328 -0.322
 0.212  0.161  0.380
 0.244  0.424 -0.403
-0.163  0.601 -0.162
 0.283 -0.348  0.427
 0.228 -0.182  0.347
 0.116 0.00196  0.427
-0.131 -0.739 -0.403
 0.162 -0.446  0.428
-0.0989 -0.149  0.380
-0.322 -0.149 -0.403
 0.180 -0.663  0.299
-0.447 -0.675 -0.178
 0.299  0.663 -0.138
 0.341  0.543 -0.0269
0.0444  0.257  0.427
-0.155  0.601 -0.361
-0.346  0.603  0.440
 0.275  0.608 -0.465
0.0708  0.520 -0.450
 0.294  0.336  0.339
-0.478 -0.508 -0.306
-0.491 -0.301 0.0606
-0.236  0.256  0.411
-0.399 -0.723 -0.346
 0.341 -0.253 -0.0907
-0.0829 -0.663 -0.115
-0.480 -0.220 -0.130
-0.0352 -0.675  0.427
-0.322 -0.182 -0.00305
-0.178  0.663  0.100
-0.0829 -0.663 -0.226
 0.180 -0.182 0.0846
 0.267 -0.663 -0.170
 0.341  0.512 -0.194
-0.163 -0.182 -0.186
 0.180  0.663 -0.330
-0.210  0.601  0.300
-0.266  0.663 -0.234
 0.294  0.512 0.0925
-0.491 -0.277 -0.0269
-0.0909 -0.663 -0.314
 0.124  0.601 -0.0110
 0.172  0.663  0.124
-0.446 -0.683 -0.345
-0.282  0.663  0.284
 0.341  0.344  0.220
-0.306 0.0179  0.427
0.0913 -0.523  0.428
0.0206 0.0258 -0.403
 0.294  0.185 -0.194
-0.378 -0.125  0.380
-0.314 -0.125  0.380
 0.294  0.265 -0.00305
 0.341  0.273  0.244
-0.0272  0.201  0.380
0.0285  0.305  0.380
0.0444  0.177  0.380
 0.298 -0.570 -0.449
 0.341  0.543  0.204
0.00473  0.441  0.427
-0.0629 0.0255 -0.449
 0.132  0.663  0.395
-0.433 -0.157  0.380
 0.293  0.520  0.372
-0.446  0.528 -0.146
-0.242  0.543 -0.403
 0.171  0.447 -0.450
 0.294  0.193  0.156
-0.186  0.328 -0.403
-0.0591 -0.117 -0.403
 0.104 -0.0343 -0.449
-0.393 -0.149 -0.403
-0.154 -0.656 -0.449
-0.226 -0.669 -0.400
 0.325 -0.674 -0.449
 0.341 -0.157  0.132
 0.341 -0.333  0.387
-0.0176 -0.372  0.428
-0.236  0.259 -0.439
-0.0511  0.601 -0.385
-0.0113 -0.755 -0.403
-0.194 -0.182 0.0368
 0.284 -0.0720 -0.449
 0.341  0.400  0.132
 0.132 -0.663  0.268
 0.294  0.328 0.0288
 0.291  0.663 0.0686
 0.341 -0.476  0.204
-0.330 -0.663  0.156
 0.341 -0.659  0.371
0.0684  0.551 -0.403
-0.322  0.601 0.0288
-0.385  0.602 -0.123
0.0444 -0.663 -0.115
 0.132  0.663 -0.417
-0.226 -0.468  0.427
 0.156 -0.663 -0.345
 0.132 -0.182 -0.298
 0.180 -0.659  0.427
-0.274 -0.663 -0.138
-0.314  0.601 -0.345
 0.294  0.225 -0.154
-0.378 -0.182 -0.162
-0.446  0.559  0.188
-0.210  0.161 -0.403
0.0285 0.00994  0.380
-0.0670 -0.0378  0.380
-0.0750  0.601 0.0208
 0.341 0.00196 -0.0827
-0.0113  0.663 -0.138
-0.178  0.440 -0.403
-0.385 -0.663 0.0288
0.0843 -0.00599  0.380
 0.341  0.121 -0.377
-0.0113  0.601 -0.00306
 0.294  0.137 -0.0588
0.0365  0.663  0.300
-0.266 -0.117 -0.403
 0.294 -0.125  0.140
 0.341 -0.261  0.299
 0.236 -0.663  0.284
-0.475 -0.528  0.294
 0.259 -0.182 -0.393
 0.289 -0.0219 -0.400
-0.446  0.528 -0.353
 0.278  0.554 -0.450
-0.194 -0.699  0.380
0.0335 -0.152 -0.449
-0.409 -0.700 -0.0554
-0.218 -0.751 -0.450
-0.362  0.663  0.387
 0.341 -0.595 -0.330
 0.283  0.456  0.427
-0.210 -0.182 -0.282
 0.341  0.344 -0.146
-0.258  0.663  0.228
-0.444 -0.787  0.278
 0.220 -0.388  0.427
 0.275  0.121  0.427
0.0843 -0.182 -0.0429
-0.330 -0.182 -0.234
-0.0113 -0.663 0.0925
-0.491 -0.484 -0.226
 0.341 -0.340 -0.377
-0.234  0.591  0.427
 0.341  0.273 -0.282
 0.228  0.512  0.427
-0.491 -0.372 -0.330
-0.476 -0.603 0.0447
 0.294 -0.784 -0.385
 0.294 -0.0378 -0.258
-0.0113  0.257  0.427
-0.401  0.551  0.428
-0.0431 0.0656 -0.403
-0.475 -0.200 0.0925
 0.137 -0.668  0.377
-0.290  0.664 -0.298
-0.446 -0.555 -0.130
0.0923 -0.663 -0.330
-0.419 -0.589 -0.448
0.0803 -0.328 -0.449
 0.182 -0.235 -0.449
-0.338  0.601 -0.186
0.0256 -0.277 -0.449
 0.308 -0.352 -0.449
-0.343 -0.203 -0.447
 0.341 -0.691  0.299
-0.298 -0.0532  0.427
-0.399  0.575  0.108
-0.298  0.520  0.380
 0.348  0.598 -0.266
0.0161  0.530 -0.450
 0.275  0.342 -0.449
 0.341  0.504 -0.0986
 0.294 0.0657 -0.0747
 0.116  0.328  0.380
 0.156  0.432  0.427
 0.341  0.217 -0.00306
 0.341 -0.110 0.0129
 0.294  0.408 -0.0747
 0.341  0.153 -0.0827
 0.228  0.185  0.427
0.0843  0.145  0.427
-0.491 -0.237 -0.345
-0.465 -0.574  0.108
-0.0788 -0.760 -0.450
-0.443  0.514 -0.291
 0.220  0.121 -0.403
-0.476 -0.635 -0.369
-0.234 -0.0299  0.380
 0.356  0.615  0.100
-0.218 -0.723 -0.403
0.0415 0.0946 -0.449
 0.252 -0.652  0.428
-0.0379 -0.0246 -0.449
 0.188  0.320 -0.403
 0.341  0.273  0.403
-0.447 -0.539 -0.0588
 0.103  0.236 -0.449
 0.254 0.0355 -0.449
 0.294 -0.157 -0.186
-0.445 -0.784 -0.369
-0.403 -0.751  0.190
 0.106 -0.751 -0.450
 0.294 -0.165  0.300
-0.143  0.367 -0.450
-0.377  0.490  0.400
-0.446 -0.739  0.307
-0.343 -0.126 -0.447
 0.196  0.559 -0.402
-0.250  0.661 -0.465
0.0206  0.661 -0.465
 0.143  0.511 -0.450
-0.409 -0.182  0.100
 0.341 -0.380 -0.186
 0.341 -0.309 -0.258
 0.172 -0.663  0.196
 0.294 -0.715  0.323
 0.275  0.217  0.427
 0.220 -0.00599  0.380
 0.180 -0.309  0.427
 0.228  0.663  0.315
-0.0511 -0.182 -0.0269
-0.338 -0.0617  0.380
 0.341 0.00196 -0.202
-0.0590  0.408 -0.403
0.00466 -0.778  0.380
-0.398 -0.691  0.323
 0.156  0.664  0.204
-0.258  0.480  0.380
 0.294  0.432 -0.170
 0.341  0.320  0.292
-0.491 -0.476  0.164
 0.341  0.145 -0.274
 0.341 -0.627 -0.282
 0.212  0.601  0.132
 0.341 -0.189 -0.154
-0.346 -0.663 -0.274
 0.100  0.663 -0.170
 0.294  0.249  0.172
 0.341  0.225 -0.306
0.0524 -0.663  0.212
-0.378  0.663  0.124
-0.234 -0.182  0.212
 0.196  0.257  0.380
 0.252  0.169 -0.403
-0.322  0.601  0.140
 0.294  0.543  0.276
-0.322 -0.460  0.427
-0.491 -0.317 -0.178
-0.155  0.663  0.252
-0.233  0.177 -0.449
-0.446 -0.723  0.252
 0.294 -0.762 -0.250
-0.218 0.0816  0.380
0.00466 -0.683  0.380
-0.0192 -0.0538 -0.403
 0.294 0.0736  0.100
 0.294  0.464 0.0686
 0.341 -0.0538 -0.162
0.0763  0.424  0.380
 0.252 0.0657  0.427
-0.131  0.257  0.380
-0.163  0.376  0.427
-0.194  0.305  0.427
 0.341  0.249  0.116
 0.341 -0.117  0.363
 0.341  0.281 -0.0907
 0.294  0.416  0.284
-0.163  0.528  0.380
-0.258 0.0574  0.427
-0.446 -0.706  0.101
0.0763 -0.651  0.427
-0.461  0.655  0.387
-0.0272  0.615  0.443
 0.212 0.00197 -0.403
-0.147 0.0658  0.427
0.0392 -0.179 -0.399
-0.314 -0.770  0.380
 0.300  0.575  0.428
-0.481 -0.503  0.227
 0.148 -0.182 -0.393
-0.465 -0.364  0.382
-0.446 -0.548 -0.409
-0.250 -0.0140 -0.403
-0.415 -0.191 -0.445
 0.204 -0.157  0.427
 0.294  0.193  0.100
 0.323 -0.788  0.156
-0.476 -0.659  0.363
-0.226 -0.786  0.425
-0.447 -0.565 -0.218
-0.446  0.520 0.0686
-0.471 -0.531 -0.353
-0.354  0.601  0.300
-0.00330 -0.0538  0.380
-0.0989 -0.739  0.427
-0.186  0.217  0.380
-0.402  0.515  0.291
 0.109  0.337 -0.450
-0.398  0.535 -0.274
 0.294 -0.683 -0.338
 0.108 -0.787 -0.405
 0.284 -0.665 -0.0508
 0.101 -0.323  0.427
 0.340 -0.460 -0.449
-0.356 -0.0785  0.428
-0.465 -0.197 -0.369
-0.443  0.514 -0.0915
-0.130 -0.316  0.427
0.0524  0.615 -0.465
 0.193 -0.136 -0.449
 0.306  0.286 -0.448
-0.461  0.661 0.0686
 0.193 0.0791 -0.449
-0.446 -0.733  0.417
 0.356  0.661 -0.441
-0.282 -0.725 -0.450
-0.163 -0.663 -0.345
-0.107  0.504 -0.403
-0.210 -0.182 -0.162
-0.202  0.512 -0.403
 0.341 -0.476 -0.306
 0.220  0.601  0.212
 0.341 -0.380  0.116
-0.401  0.663  0.419
-0.401  0.663 -0.266
0.0763 -0.663 -0.210
 0.188  0.472  0.427
 0.108 -0.182  0.331
 0.294  0.496  0.164
 0.341  0.480 0.0925
 0.341  0.424 0.0846
 0.294 -0.0856  0.204
 0.341 -0.325 -0.0747
-0.0193  0.663 0.0368
 0.341  0.488 0.00490
-0.491 -0.364 -0.0986
-0.0192  0.601  0.148
 0.341 -0.420 -0.0827
 0.341  0.416 -0.0190
 0.294 0.0338 0.0129
0.0524  0.257 -0.403
-0.330  0.601 -0.0986
 0.341 -0.739  0.268
-0.178  0.663 -0.234
-0.171 -0.643  0.427
-0.186  0.663 -0.107
 0.341 -0.420 -0.218
 0.341  0.185  0.228
-0.338 -0.380  0.427
 0.341 -0.667  0.108
 0.140  0.601 -0.330
-0.330 -0.293  0.427
-0.322 -0.595  0.427
 0.228 -0.182 -0.115
-0.306 -0.747 -0.403
 0.341  0.456 -0.162
 0.341  0.392 -0.242
 0.201  0.240 -0.449
 0.341 -0.540 -0.0588
 0.341  0.328 0.00490
-0.0670  0.601 -0.186
-0.0352  0.567  0.380
0.0843  0.601 -0.0429
 0.341 -0.333 -0.0190
-0.00330  0.663 -0.258
 0.289  0.598 -0.125
 0.341 -0.0379 -0.401
0.0190 -0.515 -0.449
-0.417 -0.182 -0.194
-0.330 -0.659  0.427
 0.236 -0.182 -0.345
 0.283 -0.182 -0.0269
-0.393 0.00994  0.428
 0.186 -0.0319 -0.449
-0.0198 -0.173  0.427
 0.337 -0.731  0.427
-0.274  0.440 -0.403
 0.341  0.121  0.108
 0.356  0.608  0.347
 0.323 -0.635  0.427
 0.341 -0.540 -0.130
-0.362 -0.663 -0.162
-0.373 -0.786 -0.449
-0.399  0.575 -0.306
 0.341  0.225 -0.377
 0.108  0.257 -0.403
0.0650 -0.113 -0.449
-0.0508 -0.293  0.427
 0.108  0.597 -0.400
-0.449  0.615 -0.465
 0.341  0.169 0.0208
-0.0352  0.121  0.427
-0.139  0.663  0.323
 0.356  0.608 -0.210
0.0206  0.567 -0.403
0.00466 -0.182 -0.162
-0.115 -0.663 0.0686
0.0206 -0.663 -0.0269
-0.0352  0.663 -0.0349
 0.341  0.320  0.363
 0.341 -0.500 -0.401
 0.100  0.601  0.188
 0.220 -0.663 -0.274
 0.341  0.464 -0.258
 0.294  0.376 -0.338
-0.314 -0.663  0.204
 0.341 -0.587  0.164
 0.341  0.488 -0.0508
 0.294 -0.0936 -0.338
 0.294  0.113 0.0288
-0.178 -0.102 -0.403
-0.0599  0.228 -0.449
-0.131 -0.739  0.380
 0.140 0.0577  0.380
-0.131  0.663  0.132
 0.220  0.663 -0.0269
-0.0670 -0.182 -0.186
 0.294  0.360 -0.0588
 0.294 0.00197  0.220
 0.294  0.257 -0.115
0.0126  0.663  0.387
-0.186 -0.663 -0.298
-0.491 -0.444 -0.282
0.0604  0.663  0.132
-0.147 -0.182  0.132
 0.236  0.305 -0.403
-0.393 -0.181  0.427
-0.491 -0.412 -0.170
 0.108  0.161  0.380
-0.346 -0.663  0.108
-0.258 -0.182  0.100
 0.341 -0.388  0.172
-0.139 -0.663  0.315
 0.236  0.601 -0.250
-0.0511 0.00993  0.427
0.0571  0.198 -0.449
 0.294  0.113  0.156
 0.164  0.129  0.427
 0.294  0.456 -0.290
 0.294  0.575 -0.218
 0.180 -0.0458  0.380
-0.0829  0.424  0.427
 0.294 -0.778  0.196
 0.341  0.567  0.100
 0.294 -0.691  0.220
 0.244  0.416  0.380
 0.275 0.00197  0.380
 0.356  0.608 -0.0827
-0.461  0.623  0.172
-0.476 -0.580  0.260
-0.274  0.448  0.427
-0.00717  0.229 -0.449
 0.267 -0.663 0.0686
-0.163 -0.725 -0.450
0.0134  0.528  0.427
 0.356  0.615 -0.417
 0.294 -0.778 0.0288
-0.226  0.489 -0.449
-0.299  0.568 -0.450
-0.374 0.0405 -0.450
 0.287  0.501 -0.450
-0.258  0.591 -0.403
-0.0829  0.121  0.380
 0.294  0.193 -0.266
-0.391 -0.0445 -0.447
 0.292  0.130 -0.449
0.0604  0.608  0.443
 0.259  0.601 -0.322
 0.341  0.559 -0.401
 0.108  0.623 -0.465
-0.0113  0.464 -0.403
 0.337 -0.788  0.276
 0.141  0.496  0.427
-0.107 -0.141 -0.403
 0.331  0.663  0.116
0.0884 0.0460 -0.449
0.0447 -0.236  0.427
-0.446 -0.699 -0.425
 0.252 -0.0538 -0.403
-0.0599 -0.186 -0.449
-0.202 0.0418  0.427
 0.234 -0.738 -0.450
 0.291 -0.293  0.427
-0.407 -0.787  0.247
 0.341  0.392  0.371
 0.341  0.496  0.371
 0.252  0.663  0.188
 0.341 -0.213  0.140
0.0683  0.601  0.228
0.00465 -0.663  0.196
0.0126  0.289 -0.403
-0.115  0.601  0.188
0.0444  0.663 -0.338
 0.341 -0.770 -0.393
 0.124  0.360  0.427
 0.341 0.0497  0.299
-0.171  0.601  0.148
 0.294 -0.0777 0.0846
-0.123  0.480  0.380
-0.306  0.631  0.442
-0.163 -0.182 -0.385
0.0365  0.601 -0.226
 0.341 0.0338 0.0846
 0.283 -0.141 -0.403
 0.164 -0.663 0.0288
-0.0989 -0.182 -0.115
0.0444 -0.0378  0.380
 0.294 0.00994 -0.138
-0.178  0.601 -0.0269
-0.115 0.0657  0.380
-0.0670 -0.182  0.260
-0.0192  0.601 -0.290
0.0365 -0.663  0.156
-0.0113 -0.182 -0.298
-0.107 -0.476  0.427
 0.204 -0.691 -0.403
-0.123 -0.663 0.0208
0.0365  0.601 0.0368
-0.491 -0.436 0.0766
-0.139  0.601 0.0925
-0.139  0.336 -0.403
-0.0591 -0.663  0.140
-0.398 -0.699  0.276
-0.370 -0.663 -0.330
-0.491 -0.269  0.164
 0.341 -0.317  0.196
 0.294  0.105 -0.154
-0.242  0.601 0.0925
-0.491 -0.412  0.284
 0.341  0.328 -0.353
 0.294  0.416  0.156
 0.294  0.336  0.108
-0.306 -0.182  0.315
 0.341 -0.492  0.339
-0.298 -0.181  0.427
-0.218 -0.663 -0.242
 0.294  0.456  0.196
 0.244  0.249  0.380
-0.398 -0.699  0.172
 0.212  0.376 -0.403
-0.476 -0.587  0.355
 0.294  0.217  0.220
 0.341 -0.587  0.228
 0.341 -0.587 -0.170
-0.274 -0.675  0.427
 0.294  0.145 -0.0110
-0.218 -0.663 0.0208
 0.116 -0.182 0.00491
 0.341 0.0179  0.148
-0.401 -0.102 -0.402
 0.341 0.0497  0.395
 0.172 -0.762  0.380
0.0843  0.601 -0.162
-0.476 -0.595 -0.138
 0.140 -0.182 -0.130
 0.341 -0.715  0.180
-0.362 -0.663  0.236
-0.444 -0.703 -0.0882
-0.155  0.328  0.380
-0.446  0.567  0.252
-0.288  0.119 -0.404
-0.346 -0.723  0.380
 0.341  0.416  0.212
 0.140  0.217  0.427
 0.294  0.145  0.347
 0.294 0.00994 -0.361
 0.244 -0.788 -0.410
-0.234 -0.0856  0.427
 0.341  0.448 -0.369
 0.252 -0.110  0.380
-0.242 -0.141  0.380
 0.302 0.0400 -0.449
-0.210 -0.179  0.377
0.0285  0.575  0.380
-0.266 -0.778 -0.403
-0.226  0.289 -0.403
-0.296 -0.101  0.428
 0.341 -0.253 -0.401
 0.341 -0.784 -0.290
-0.123  0.544  0.427
-0.218  0.480  0.427
-0.0590  0.360 -0.403
 0.172 0.0816  0.427
-0.250 -0.663  0.108
 0.356  0.655 -0.178
-0.226  0.601  0.347
-0.250 -0.293  0.427
 0.341  0.297  0.140
-0.446 -0.691  0.331
-0.314 0.0577  0.380
-0.115  0.384 -0.403
0.0604 -0.663  0.331
0.0126  0.352  0.380
-0.147  0.663 0.0527
 0.294 -0.0777  0.140
0.0684 0.0338 -0.403
-0.0106 -0.777  0.427
-0.131  0.456 -0.403
 0.341 -0.516 -0.226
-0.155 0.0736 -0.403
-0.131  0.209 -0.403
0.0604 -0.778  0.380
 0.331 -0.587  0.427
-0.0352 -0.663 -0.146
-0.290 -0.663 -0.0827
-0.444 -0.340  0.425
 0.341  0.209 -0.138
 0.341 -0.540  0.363
 0.341 -0.420  0.260
-0.476 -0.516 -0.115
-0.0909  0.273 -0.403
 0.341 -0.731 -0.353
 0.294  0.504 -0.353
 0.291 -0.508  0.427
-0.393 -0.133  0.427
 0.164  0.185 -0.403
 0.228  0.289  0.427
 0.294  0.241  0.323
-0.234  0.663  0.284
 0.294  0.297  0.172
-0.274  0.663  0.108
 0.341 -0.699 -0.00306
-0.147  0.664 -0.449
-0.0352  0.169 -0.403
-0.0670  0.384  0.380
 0.294  0.185  0.276
0.0444 -0.0856  0.427
 0.275  0.169  0.427
-0.218  0.440  0.380
-0.0591 0.0577  0.427
-0.400  0.515 0.0205
-0.378 -0.683  0.427
-0.476 -0.213  0.148
 0.356  0.631  0.395
 0.164 0.0338 -0.403
0.0929 -0.429 -0.449
 0.220 -0.141 -0.402
-0.461  0.655 -0.361
0.0415 0.0468 -0.449
0.0126 0.0657  0.380
 0.294 -0.125 0.0846
-0.473 -0.200  0.381
 0.249 -0.471 -0.449
-0.218  0.615 -0.465
0.0682  0.520  0.427
-0.439 -0.700 0.0389
-0.306  0.472  0.380
 0.341 -0.603  0.108
-0.163  0.105  0.380
-0.139  0.601 -0.202
-0.0511 -0.683 -0.403
 0.341  0.344 -0.0827
 0.228 -0.182  0.236
-0.178 -0.747 -0.403
-0.401 -0.182  0.268
 0.267 -0.739  0.427
 0.341 -0.739  0.339
-0.346  0.601 -0.298
 0.294  0.328  0.292
-0.491 -0.388  0.148
 0.341  0.225  0.252
-0.446 -0.691 -0.242
-0.306 -0.182  0.196
0.0285 -0.182  0.132
 0.341 -0.484 -0.123
 0.220  0.601  0.292
 0.294  0.201 -0.115
 0.252  0.663 -0.401
 0.294  0.392  0.323
 0.294  0.583  0.212
0.0684  0.217  0.380
 0.148  0.601 -0.266
 0.148 -0.173  0.427
-0.139 -0.436  0.427
 0.341 -0.452  0.100
 0.341 -0.667 -0.0508
-0.338 -0.663 0.00490
 0.294 -0.133 -0.282
-0.139  0.601 -0.115
-0.0750  0.601 -0.0986
-0.00331 -0.595  0.427
-0.0989 -0.182 -0.282
 0.204 -0.663 -0.0907
 0.341 -0.380 0.0447
 0.341 -0.0936 -0.186
 0.294  0.161 0.0607
 0.100 -0.133  0.380
 0.294  0.408 0.0607
-0.107  0.352  0.427
 0.341 -0.269 0.0129
 0.341 -0.00600  0.371
 0.341  0.233  0.379
-0.155  0.416  0.380
 0.341 0.00993 -0.0269
0.0365  0.663 -0.0668
0.0444 0.00993  0.427
0.0365  0.663  0.172
 0.341 -0.739 0.0208
-0.0511  0.257  0.380
-0.0511 -0.663  0.307
 0.341 -0.699 -0.186
 0.188  0.217  0.427
-0.163 -0.579  0.427
-0.131 -0.182 -0.322
 0.294 0.0816 -0.194
0.0843  0.601  0.323
 0.132  0.281  0.380
0.0923  0.663 -0.393
 0.116  0.408  0.427
 0.294  0.432 -0.338
 0.294  0.297 0.0846
 0.108 0.0976  0.380
-0.226  0.663  0.132
 0.204 -0.269  0.427
 0.341 0.0736  0.204
 0.341 -0.229 -0.226
 0.294 -0.731  0.268
 0.252  0.663  0.252
-0.210  0.496  0.380
 0.294  0.145  0.252
 0.341 -0.747 -0.186
 0.116  0.472  0.380
-0.186  0.567  0.380
-0.155  0.121 -0.403
-0.451  0.598 -0.229
 0.199  0.483 -0.450
-0.139 -0.0774  0.427
 0.259 0.0816 -0.403
 0.341  0.177  0.379
-0.260 0.0931 -0.449
-0.131 -0.00601 -0.403
 0.267  0.663  0.411
0.0256 -0.0885 -0.449
 0.296 -0.787  0.342
-0.456 -0.301  0.384
-0.437 -0.599  0.428
 0.117 -0.436  0.428
 0.179  0.303 -0.449
-0.461  0.661 -0.0349
-0.229 -0.668  0.377
-0.0228 -0.735 -0.450
 0.111 -0.146 -0.449
0.0604 -0.691 -0.403
-0.399 -0.784  0.339
-0.0431 -0.787 -0.405
 0.294 -0.784 -0.123
-0.440 -0.0299  0.380
-0.424  0.512  0.140
 0.304 -0.633 -0.449
-0.491 -0.476 -0.178
 0.356  0.623 -0.330
-0.446 -0.237  0.395
-0.461  0.615 -0.0747
-0.475 -0.528  0.111
0.0847  0.400 -0.450
-0.107 -0.110  0.427
-0.397 -0.770 -0.394
-0.144  0.543 -0.450
-0.362 -0.0538 -0.403
 0.294  0.209 -0.385
 0.236  0.601 0.0846
0.0444  0.663 0.0527
 0.236  0.663  0.108
-0.266  0.601  0.260
0.0843 -0.663 -0.146
 0.341 -0.372 -0.409
 0.220  0.663 -0.170
 0.244  0.663 -0.345
-0.242 -0.663 -0.282
 0.341 -0.157 -0.330
 0.341  0.408 -0.330
 0.228 -0.182  0.156
-0.210  0.601  0.172
 0.140 -0.182  0.244
0.0923 -0.723 -0.403
-0.401 -0.476  0.427
-0.0352  0.663  0.371
 0.294  0.551 -0.0349
 0.294  0.551 0.0288
-0.0989  0.567  0.380
-0.0272 -0.516  0.427
0.0285  0.145 -0.403
 0.188  0.663 -0.0588
 0.341 0.0259 -0.306
0.0126 -0.182  0.284
-0.433 -0.0936  0.380
-0.346 0.0665 -0.405
 0.341 -0.0856 -0.0270
-0.0909 -0.182 0.0607
-0.123  0.663 -0.194
0.0365 -0.663 0.0606
0.0126 -0.0857 -0.403
-0.178 -0.182 0.0846
0.0923 -0.245  0.427
-0.258  0.601  0.315
 0.283 -0.229  0.427
-0.491 -0.293 -0.234
-0.202  0.601 -0.266
-0.306  0.601 -0.218
 0.341 -0.356  0.331
-0.414  0.503 -0.430
-0.306 -0.0617 -0.403
-0.0670  0.153  0.427
 0.341 -0.117  0.196
-0.00331  0.601  0.244
-0.0272  0.328 -0.403
-0.491 -0.309 -0.0986
 0.283  0.602  0.140
 0.323 -0.141  0.427
-0.447 -0.565 0.00491
 0.155 -0.0709 -0.449
-0.226  0.408 -0.403
 0.156  0.623 -0.465
-0.456 -0.452 -0.406
-0.409  0.512  0.354
-0.234  0.360 -0.403
 0.341  0.253 -0.449
 0.244 -0.157  0.380
 0.356  0.615  0.260
-0.409 -0.182  0.180
 0.331 -0.788 -0.0827
 0.195 -0.786 -0.448
-0.486 -0.500 -0.0636
 0.220  0.639 -0.465
-0.210  0.664  0.435
-0.446 -0.691 -0.130
-0.456 -0.309 -0.406
-0.124 -0.781 -0.450
-0.461  0.639 -0.162
0.0206 -0.787 -0.405
-0.202  0.285 -0.450
0.0444  0.664  0.427
-0.0583 -0.396  0.427
-0.0603  0.555 -0.450
-0.243 -0.786 -0.448
-0.439 0.0174 -0.403
-0.105  0.346 -0.450
-0.471 -0.574 -0.0429
-0.446  0.575 -0.401
-0.314 -0.755  0.427
-0.471 -0.197  0.188
-0.487 -0.269 -0.374
 0.125 -0.783  0.427
 0.283 -0.182 -0.345
 0.294 -0.149 -0.234
 0.294 0.0657 -0.369
-0.196  0.581 -0.450
 0.341  0.528  0.244
-0.266 -0.524  0.427
-0.338 -0.715 -0.403
 0.294 -0.731 -0.314
 0.341  0.512 -0.314
-0.491 -0.404  0.196
-0.155  0.273  0.427
-0.155 -0.663 -0.186
 0.341  0.384 -0.130
 0.220 -0.229  0.427
 0.341 -0.380 -0.338
-0.491 -0.388 -0.210
-0.147 -0.663  0.116
-0.250 -0.778  0.380
 0.232 -0.0574 -0.449
 0.341 -0.125 -0.266
 0.294 -0.0458  0.307
-0.0909  0.663  0.260
-0.00331  0.601 -0.202
-0.354  0.601 -0.0269
 0.294 -0.0219 -0.218
-0.491 -0.261 0.0447
-0.330  0.663 0.0447
 0.341 -0.0219 -0.314
-0.210 -0.0299 -0.403
