ply
format ascii 1.0
element vertex 2048
property float x
property float y
property float z
end_header
 0.646 -0.385 -0.528
-0.738  0.348  0.579
-0.708 -0.380 -0.568
 0.704  0.349  0.580
-0.0352  0.385 -0.237
-0.0181 -0.385  0.460
 0.736  0.327 -0.204
 0.724 -0.371  0.265
-0.728 -0.340  0.201
-0.728  0.355 -0.528
-0.0505 -0.360 -0.269
-0.0156  0.358  0.543
-0.568  0.369 0.0261
 0.273 0.0326 -0.548
-0.293 0.0326 -0.548
 0.338  0.363  0.136
-0.439 -0.0807  0.560
 0.354 -0.0321  0.560
-0.728 -0.0321 -0.220
 0.419 -0.360 -0.107
 0.723 0.0973  0.201
-0.293 -0.365  0.101
 0.710 0.0812 -0.572
 0.723 -0.0969 -0.188
-0.180  0.362  0.168
 0.214 -0.380 -0.569
-0.728 0.0488  0.314
 0.435  0.385 -0.463
-0.309 -0.362 -0.569
 0.338 -0.360  0.298
-0.682 -0.380  0.581
 0.719 -0.151  0.581
-0.520 -0.360 -0.237
-0.0667 -0.0159  0.560
-0.423  0.363 -0.317
-0.374  0.307  0.572
0.0952  0.350 -0.569
 0.338  0.327  0.584
-0.705 -0.0160 -0.569
0.0790 -0.385 0.0688
-0.358 -0.385  0.460
-0.0343 -0.162 -0.548
 0.484 -0.372  0.581
-0.229  0.340 -0.573
 0.273  0.363 -0.188
 0.662  0.385  0.103
 0.719 -0.381 -0.0423
-0.728  0.275 -0.220
-0.728  0.355  0.281
-0.728 -0.0807  0.571
-0.439  0.363  0.298
-0.728  0.130 0.0387
 0.733  0.350 -0.485
0.0789  0.385  0.282
 0.500 -0.129 -0.548
 0.225 -0.275  0.560
 0.516  0.363  0.379
 0.597 0.0974  0.560
-0.488  0.227 -0.548
-0.728 -0.259 -0.0585
-0.0343  0.114 -0.548
-0.277  0.363 -0.0909
 0.225 -0.360 -0.301
 0.723 -0.145 0.0872
-0.488 -0.162 -0.548
0.0312  0.385 0.0225
 0.723 -0.162 -0.431
 0.468 -0.360 -0.350
 0.723  0.114 -0.0585
 0.500  0.363 -0.0909
 0.723 -0.113  0.330
-0.520 -0.385 0.00631
-0.488 -0.360  0.249
 0.160  0.162  0.560
-0.728 -0.275 -0.350
-0.569  0.162  0.560
 0.723  0.114 -0.317
 0.484  0.162 -0.548
 0.719 -0.381  0.508
-0.293 -0.360 -0.139
 0.500 -0.360  0.120
 0.719 -0.381 -0.301
-0.180 -0.243  0.560
-0.0991 -0.360  0.233
-0.0829 -0.385 -0.512
-0.212  0.374  0.423
-0.728 -0.113  0.120
 0.737  0.340  0.330
 0.289  0.363  0.362
-0.180  0.194  0.560
-0.728  0.146 -0.415
-0.728 -0.194  0.379
-0.504 -0.385 -0.463
 0.111 -0.360  0.282
 0.225  0.367 -0.399
-0.326 -0.360 -0.350
 0.289 -0.373 0.0887
 0.289 -0.178 -0.548
-0.0991 -0.385 -0.0423
 0.549 -0.360  0.379
-0.569  0.385  0.460
-0.374  0.363  0.103
 0.435 -0.323 -0.548
-0.212  0.363 -0.334
 0.128 -0.0969  0.560
 0.723  0.146  0.411
 0.176 -0.360 -0.107
 0.586  0.384 -0.332
 0.306  0.259 -0.548
-0.617  0.385 -0.366
 0.516 -0.145  0.560
-0.728  0.211  0.427
-0.0667  0.385 -0.463
-0.520 -0.259  0.560
-0.504 0.0326 -0.548
-0.617 -0.360  0.395
-0.293 -0.162 -0.548
-0.568  0.368 -0.184
-0.277 0.0326  0.560
-0.740  0.327 0.0872
-0.728 -0.0969 -0.398
 0.419  0.146  0.560
-0.723 -0.381 -0.199
0.0790 -0.381 -0.425
 0.171  0.381  0.532
 0.144  0.162 -0.548
 0.111 -0.0483 -0.548
-0.277 -0.360  0.282
 0.581 -0.360 -0.188
-0.728 -0.194 -0.559
 0.515  0.353  0.570
-0.728 -0.0321 -0.0423
-0.407  0.380 -0.520
 0.565  0.340 -0.573
0.0305 -0.243  0.560
 0.500  0.362  0.201
 0.209  0.362 -0.0261
-0.728 0.0974  0.557
 0.435  0.363 -0.253
 0.723 -0.0160  0.476
 0.128 -0.226 -0.548
 0.160  0.363  0.136
-0.728  0.130 -0.139
-0.728  0.194  0.233
 0.203 -0.373  0.426
 0.322 -0.385 -0.434
-0.358 -0.226  0.560
-0.134  0.374 -0.00991
-0.00192  0.194  0.560
 0.723  0.275 -0.0261
-0.682 -0.385 0.0387
-0.0829  0.385  0.314
-0.728  0.355 -0.0747
-0.212  0.178 -0.548
-0.592  0.379  0.194
-0.705  0.194 -0.569
 0.723 -0.307  0.103
-0.407  0.146  0.560
 0.130  0.373 -0.264
-0.164 -0.0645 -0.548
 0.710 -0.0807 -0.572
 0.723 -0.259 -0.188
-0.569  0.370 -0.525
 0.724 -0.259  0.395
 0.370 -0.210  0.560
 0.338 -0.385  0.508
-0.175 -0.381  0.437
 0.723  0.194 -0.463
 0.724  0.194  0.571
-0.262 -0.373  0.583
 0.565 -0.385 -0.0261
 0.646 -0.226 -0.548
-0.187  0.348  0.579
 0.723  0.259  0.168
-0.728 -0.243  0.524
-0.728 -0.210 -0.204
 0.549 0.0164 -0.548
-0.569 0.000248  0.560
-0.164 -0.243 -0.548
0.0966 -0.379  0.579
-0.407  0.385  0.444
-0.601 -0.275 -0.548
-0.423  0.363 -0.123
-0.0667  0.259 -0.548
 0.723 -0.226 -0.0423
 0.370  0.363 -0.00989
 0.724 -0.0322 -0.0261
 0.613 -0.259  0.560
-0.293  0.363  0.265
 0.723 -0.226  0.233
-0.649 -0.385 -0.433
 0.516  0.362 0.0549
 0.723 -0.0160 -0.415
-0.196 -0.0969  0.560
-0.196 -0.360 -0.253
-0.728 0.0326  0.168
-0.728  0.291 -0.382
-0.0991 -0.380  0.581
-0.520  0.307  0.573
 0.723 -0.307 -0.431
-0.439 -0.380  0.581
0.0628 -0.362 -0.569
0.0952  0.385 -0.123
-0.342  0.243 -0.548
 0.225 0.0326  0.560
-0.715  0.355  0.427
-0.0129  0.362  0.157
 0.662  0.385  0.443
-0.196 -0.381 -0.425
0.0628  0.386  0.427
0.0143 -0.360 -0.123
 0.403  0.385  0.460
 0.613  0.385 -0.172
 0.629  0.385  0.249
 0.723  0.275 -0.334
0.0466  0.385 -0.382
-0.439 -0.360 -0.123
 0.723 0.0326  0.330
 0.387 -0.0483 -0.548
-0.728 -0.113  0.265
 0.581 -0.360  0.233
 0.338 -0.360 -0.220
0.0790 0.0327  0.560
 0.723 -0.0646  0.201
-0.439 -0.291 -0.548
-0.439 -0.360  0.120
 0.597 -0.365 -0.401
-0.180  0.363 -0.188
-0.390 -0.0645 -0.548
-0.728 0.000236  0.460
 0.723  0.194 -0.172
 0.597  0.243  0.560
-0.0505 -0.365  0.102
-0.315  0.381 -0.421
0.0952 -0.360 -0.269
 0.646  0.385 -0.0423
 0.723 0.0650 0.0710
-0.728 0.0974 -0.269
 0.613  0.194 -0.548
-0.601 -0.360  0.168
-0.471 -0.360  0.395
-0.552 -0.385  0.508
-0.585 -0.360 -0.107
-0.617 -0.113 -0.548
 0.403 -0.385 0.0225
-0.683  0.227  0.564
 0.225 -0.360  0.217
 0.723 -0.226 -0.317
 0.289 -0.385 -0.0423
 0.290  0.178  0.560
 0.723 0.0326 -0.172
-0.585 -0.145  0.560
 0.403  0.363  0.298
 0.257 -0.145  0.560
-0.617 0.0974 -0.548
 0.581 -0.0321  0.560
-0.0181 -0.0322 -0.548
-0.728 -0.243  0.103
-0.229 -0.385 -0.00988
-0.728 -0.340  0.330
-0.358 -0.385 -0.00988
-0.728 -0.371  0.460
 0.241  0.370 -0.525
-0.581  0.372  0.334
 0.322  0.363 -0.317
-0.310  0.363 -0.253
-0.728  0.227 -0.0585
-0.493  0.381 -0.421
-0.0181 -0.360  0.330
-0.0505 -0.145  0.560
0.0952  0.275  0.560
 0.419 -0.360  0.395
 0.723  0.275  0.443
-0.728 -0.291 -0.479
 0.424  0.318 -0.569
-0.261  0.362 0.0549
-0.633 -0.360 -0.285
 0.370  0.114 -0.548
 0.468 0.0164  0.560
 0.723 -0.0160 -0.285
-0.728 0.0164 -0.447
 0.451 -0.360  0.249
-0.164 0.0650 -0.548
-0.0829  0.385  0.443
-0.293  0.385  0.523
 0.615 -0.383  0.570
 0.719 0.0434  0.581
-0.471 -0.360 -0.350
-0.0244  0.381 -0.112
-0.191 -0.380 -0.569
 0.468 -0.360 -0.220
-0.728 -0.145 -0.0908
 0.289  0.385  0.492
-0.728 -0.226  0.233
-0.326 -0.113  0.560
-0.164 -0.360 -0.139
 0.723  0.178  0.298
-0.374  0.130 -0.548
-0.0505 -0.365 -0.401
-0.196 -0.360  0.168
 0.273  0.363  0.233
-0.115 0.0974  0.560
 0.387 -0.360  0.152
-0.196  0.385 -0.447
 0.678 -0.365  0.379
 0.719  0.243 -0.569
 0.484 -0.385 -0.463
-0.0991  0.385 -0.334
-0.696 -0.379 -0.0815
 0.338 -0.385 -0.559
 0.630 -0.385 0.0688
-0.455  0.363 0.00621
-0.293  0.227  0.560
-0.601  0.243 -0.548
 0.387  0.363 -0.123
-0.728 -0.129 -0.285
 0.128  0.385 -0.463
 0.613  0.385 -0.479
0.0466  0.243 -0.548
 0.176  0.363  0.379
 0.257  0.146 -0.548
-0.407 -0.360 -0.253
 0.723 -0.129  0.443
-0.0181 -0.275 -0.548
 0.723  0.178 0.0548
 0.565 -0.307 -0.548
 0.724 -0.371 -0.156
 0.209  0.275  0.560
-0.439 0.0326  0.560
 0.484  0.243  0.560
-0.390 -0.385 -0.463
 0.723 -0.259  0.508
-0.617 -0.360  0.282
-0.680  0.385 -0.172
-0.624  0.348  0.579
 0.176  0.275 -0.548
 0.690  0.370 -0.382
 0.724 -0.307 -0.544
0.0952 -0.385  0.446
-0.702  0.361 -0.285
 0.322  0.385 -0.447
 0.484  0.363 -0.366
-0.520 -0.362 -0.569
 0.273 -0.291 -0.548
 0.241 -0.385  0.557
 0.160 0.0488 -0.548
 0.241 -0.0807 -0.548
 0.723 -0.113 -0.334
-0.728 0.0164 0.0549
-0.728 0.0974  0.411
 0.468 -0.259  0.560
-0.728  0.194 -0.317
-0.390 -0.360  0.298
 0.597 -0.0807 -0.548
-0.728 -0.162 0.0225
 0.176 -0.360  0.120
0.0466 -0.360  0.168
-0.604  0.384 -0.0740
-0.728  0.259  0.330
-0.277 -0.360  0.395
-0.488  0.363  0.184
-0.714 -0.385 -0.350
 0.516 -0.385  0.476
-0.115  0.350 -0.569
 0.548  0.385  0.476
 0.565 -0.360 -0.301
-0.0667  0.385 0.0710
-0.728  0.243 -0.479
 0.678  0.340 -0.573
-0.0991  0.294  0.564
 0.435 -0.210 -0.548
-0.728  0.211  0.103
-0.728 0.0812 -0.528
-0.728 0.0164 -0.334
-0.728 -0.0807  0.395
-0.148 -0.385 0.0548
-0.164 -0.360  0.314
 0.257  0.363 0.0710
-0.471  0.363 -0.220
-0.650  0.385 0.0872
 0.241 -0.360 -0.188
-0.728 -0.194 -0.447
-0.0667 -0.275  0.560
-0.728 -0.145  0.492
 0.322 0.0650  0.560
-0.617 -0.291  0.560
-0.390 -0.194 -0.548
-0.358  0.363 -0.0261
 0.306 -0.360  0.395
-0.728  0.291  0.201
 0.209 -0.365 -0.401
 0.723  0.114  0.508
 0.733  0.350  0.211
-0.00206  0.355 -0.544
 0.111 -0.385 -0.0261
 0.737  0.340 0.0549
-0.471  0.327 -0.573
 0.225 -0.360  0.330
-0.680  0.385 -0.447
 0.678 -0.0483  0.564
-0.180  0.363  0.330
-0.569 -0.360 -0.382
 0.289  0.363 -0.0909
 0.613  0.385  0.346
0.0628 0.0650 -0.548
 0.723 -0.113 -0.0909
 0.516  0.363 -0.188
-0.601 -0.0160 -0.548
0.0628 -0.145 -0.548
-0.390  0.363  0.201
0.0305 -0.0807  0.560
 0.370 -0.360 -0.334
-0.00192 -0.385  0.557
-0.728 -0.0807 -0.496
 0.128 -0.226  0.560
-0.261  0.130  0.560
-0.123  0.381 -0.107
 0.500  0.259 -0.548
-0.277 -0.385 -0.479
-0.358  0.363  0.362
-0.488  0.385  0.523
 0.678 -0.365  0.168
 0.225  0.363 -0.301
 0.176  0.363  0.281
-0.293  0.363  0.168
-0.309 -0.360 -0.253
 0.516 -0.360 -0.107
-0.309  0.380 -0.520
-0.0991  0.385  0.217
 0.724 -0.0484 0.0872
-0.504  0.130 -0.548
-0.728  0.162  0.330
-0.00192 0.0974  0.560
-0.568  0.368 -0.281
 0.176  0.362 -0.172
 0.338  0.355 -0.545
-0.633 0.0812  0.560
-0.688  0.381  0.184
 0.130  0.374 0.0279
-0.342 -0.360  0.184
 0.403  0.227 -0.548
 0.613 -0.385  0.446
-0.423 -0.385 -0.559
 0.723 0.0973 -0.479
 0.698  0.361 -0.118
-0.471  0.227  0.560
 0.630 -0.129  0.560
 0.354 -0.307  0.560
-0.245 -0.291 -0.548
-0.115  0.162 -0.548
0.0952 -0.360 -0.172
-0.0667 -0.360 -0.172
 0.435 -0.0969  0.560
-0.728  0.130  0.152
 0.435  0.362  0.103
 0.468 0.0650 -0.548
-0.728 -0.291 -0.156
 0.723  0.194 -0.269
-0.342 -0.275 -0.548
 0.160 -0.385 -0.479
 0.624  0.381  0.532
 0.597 0.0974 -0.548
-0.520 0.0812  0.560
-0.164 0.0164  0.560
 0.646 0.0164 -0.548
-0.728 0.0812 -0.0423
 0.724  0.114 -0.220
-0.504  0.363  0.395
-0.728 0.0164 -0.123
 0.209 -0.385 0.00631
 0.516  0.146  0.560
-0.504  0.362 -0.0747
 0.723 -0.178 -0.528
-0.612 -0.380 -0.569
-0.00192 -0.385 0.0225
-0.683 0.000237  0.564
 0.370  0.243  0.560
-0.633 -0.360 -0.188
 0.505 -0.380 -0.569
 0.630 -0.365 -0.0892
0.0790  0.370  0.538
0.0305 -0.360 -0.350
 0.710 -0.307  0.585
-0.261 -0.178  0.560
-0.148 -0.360 -0.350
-0.728  0.291  0.492
-0.0991 -0.360  0.379
 0.192 -0.162 -0.548
-0.728 -0.340  0.103
-0.00162  0.357  0.249
-0.0129  0.362  0.368
-0.104  0.381  0.532
-0.633  0.327 -0.573
 0.516  0.385 -0.510
 0.690  0.370 -0.269
0.0143 -0.385 -0.496
-0.617 -0.385 -0.0261
 0.322 -0.360 -0.123
 0.577  0.375  0.155
-0.585 -0.385 0.0692
-0.277  0.318  0.581
-0.688  0.381 0.00629
-0.714 -0.178  0.585
 0.723  0.275 -0.123
-0.724 -0.286 -0.568
-0.728  0.291 0.00629
-0.358  0.327 -0.573
-0.601  0.259  0.560
 0.719 -0.381 -0.479
 0.142  0.367 -0.350
 0.408  0.361  0.545
 0.600  0.384 0.0407
-0.439 -0.194  0.560
 0.724  0.275 -0.431
 0.370 -0.145 -0.548
-0.728  0.178  0.508
 0.723 -0.226  0.136
-0.728 -0.291 0.0225
-0.180  0.259 -0.548
-0.439 -0.385  0.492
-0.728 -0.307 -0.269
-0.728 -0.275  0.411
-0.261 -0.0483 -0.548
 0.532  0.362  0.282
 0.723  0.243  0.362
 0.354 -0.243 -0.548
-0.0829 0.0326 -0.548
 0.723 -0.194 -0.123
-0.728 -0.0483  0.201
 0.225 -0.0645  0.560
-0.0991 -0.307 -0.548
0.0790  0.130  0.560
 0.723 -0.145 -0.00993
-0.520  0.363  0.103
 0.144 -0.360  0.362
 0.306 -0.360  0.184
-0.536 -0.0807 -0.548
-0.358 -0.0321  0.560
-0.728 0.0974  0.233
-0.326 -0.307  0.560
-0.342  0.363 -0.172
 0.403 -0.385 -0.496
 0.662 -0.360 -0.220
-0.407  0.385 -0.432
0.0628  0.385  0.103
-0.680  0.385  0.523
0.0466  0.385 -0.285
-0.633 -0.385  0.476
 0.250  0.348  0.579
 0.723 0.0164 -0.512
-0.0505  0.385 -0.0261
 0.646 -0.360  0.298
 0.724  0.355  0.492
 0.110  0.385  0.201
-0.180 -0.385  0.557
-0.723 -0.381 -0.474
-0.123  0.381 -0.253
 0.554  0.374 -0.410
-0.536  0.363  0.265
-0.212  0.362  0.249
 0.723 -0.275  0.314
-0.520 -0.259 -0.548
-0.728 -0.178 -0.366
-0.229 -0.360 -0.334
-0.728  0.211 -0.156
 0.128 -0.360  0.201
 0.403  0.363 -0.350
 0.484 -0.385 -0.00988
-0.439 -0.385 -0.0261
-0.728 -0.0321  0.282
 0.723 0.0164  0.249
 0.723  0.259 0.0710
 0.723  0.194 -0.0747
 0.723 0.0650  0.427
-0.728 -0.0807 0.0387
-0.164  0.362 0.0872
-0.326  0.363 -0.334
 0.581 -0.162 -0.548
0.0466  0.386 -0.479
-0.728 -0.0645 -0.139
-0.148 -0.145 -0.548
-0.0991 -0.385  0.476
-0.390 0.0488 -0.548
-0.0829  0.178  0.560
 0.338 -0.113  0.560
 0.516 -0.226 -0.548
-0.293  0.146 -0.548
-0.728  0.162 -0.496
0.0467 -0.162  0.560
-0.509 -0.373 -0.0765
-0.649  0.385  0.379
 0.630  0.275 -0.548
-0.115 -0.360  0.152
-0.293  0.382  0.434
-0.358 -0.365 -0.0892
-0.229 -0.365 -0.0892
 0.710 -0.385 -0.398
-0.358 -0.385  0.571
 0.599  0.385 -0.252
 0.404 -0.383  0.570
 0.160 -0.323 -0.548
 0.387  0.363  0.201
-0.374 -0.360 -0.172
 0.144 -0.0159  0.560
 0.451  0.363 -0.0261
 0.723  0.178  0.168
 0.257  0.363  0.152
 0.581 -0.360  0.152
0.0143 -0.360 -0.204
-0.439 -0.275  0.560
-0.705  0.275 -0.569
 0.724 0.0326 -0.0909
0.0628  0.162 -0.548
 0.723 -0.226 0.0548
 0.710  0.162 -0.572
-0.520 -0.0969  0.560
 0.144 -0.360 -0.334
0.0305 -0.360  0.265
-0.212  0.363 -0.0423
 0.723 -0.291 0.00626
 0.724 -0.324  0.443
-0.633 -0.0807  0.560
 0.484 -0.360  0.330
-0.261 -0.0483  0.560
-0.245 -0.291  0.560
-0.728  0.211 0.0225
 0.646  0.162  0.560
 0.723 -0.162 -0.269
-0.633 -0.210  0.560
-0.131 -0.178  0.560
-0.728 -0.162  0.184
 0.370  0.363 -0.204
 0.723 0.0650 -0.382
 0.723 -0.0807 -0.463
0.0466 -0.226 -0.548
-0.0181  0.194 -0.548
0.0628 -0.360  0.346
 0.724 -0.145  0.201
-0.728 -0.0321  0.120
 0.723  0.114 -0.139
-0.115 -0.0970  0.560
-0.261  0.363 -0.188
-0.728  0.275 -0.301
-0.617 -0.194 -0.548
 0.468 -0.0483 -0.548
 0.241 -0.385 -0.479
 0.723 0.0973  0.281
 0.516  0.363 -0.269
 0.723 -0.0646  0.395
 0.724  0.211 -0.382
 0.581 -0.385 -0.479
 0.160 -0.323  0.560
 0.548  0.363 -0.0261
-0.520 -0.360  0.330
-0.00192  0.275  0.560
-0.374 -0.385 0.0692
 0.225  0.385  0.444
-0.196  0.385  0.508
 0.597  0.327  0.584
 0.710 -0.385 0.0873
-0.728  0.291 -0.123
 0.723 -0.307 -0.269
 0.723  0.259  0.524
-0.714 -0.0969 -0.572
 0.291  0.362 -0.00993
-0.694 -0.373  0.265
-0.633  0.385 -0.237
 0.724  0.355 -0.0261
-0.162  0.395 -0.518
-0.520 -0.340  0.564
-0.694 -0.302  0.573
0.0952  0.385 -0.0423
 0.289 -0.360 -0.366
-0.0289 -0.380 -0.569
-0.650  0.385  0.298
-0.261  0.363  0.362
 0.646 -0.360 -0.317
-0.694  0.370 -0.366
 0.723 -0.178  0.508
-0.00162  0.357  0.460
-0.164 -0.385 -0.496
 0.646 0.0326  0.560
 0.723 -0.0969  0.524
-0.650  0.381 -0.520
 0.714 -0.380 -0.568
-0.229 -0.385  0.492
 0.733  0.350  0.130
-0.412  0.380  0.532
 0.719 -0.232  0.581
-0.0244  0.381 -0.355
-0.736  0.315 -0.458
 0.435  0.363  0.395
-0.196  0.275  0.560
 0.338  0.374  0.423
 0.160  0.327  0.585
 0.160  0.361 -0.533
 0.290  0.275  0.560
-0.488  0.385 -0.496
-0.00229  0.357 -0.431
 0.549 -0.385 0.0688
0.0204  0.381 -0.172
-0.536 -0.360  0.120
 0.549 -0.340  0.564
 0.684  0.381 -0.193
-0.326 -0.381 -0.425
 0.588  0.383 -0.0875
-0.558  0.307 -0.561
-0.650  0.162  0.560
-0.574  0.381  0.532
0.0305 -0.385 -0.0566
-0.585  0.386 -0.431
-0.705 -0.381 -0.269
 0.723  0.227  0.233
 0.723 -0.0484  0.298
 0.209 -0.259 -0.548
-0.229 -0.360 -0.188
 0.192 -0.194  0.560
-0.212 -0.360  0.249
-0.569  0.178 -0.548
 0.403 -0.360 -0.269
 0.723 -0.243 -0.496
-0.728 -0.194  0.298
-0.229 -0.129 -0.548
 0.176 -0.360 -0.220
-0.439  0.162 -0.548
-0.728 -0.0160  0.362
 0.322 -0.385 0.0225
 0.549 0.0326  0.560
-0.0343 -0.360  0.201
 0.723 0.000202  0.168
 0.723 -0.0484 -0.123
 0.322 -0.0807 -0.548
 0.516 -0.0645  0.560
-0.728 0.0488 -0.188
 0.403 0.0326 -0.548
-0.728 -0.0645 -0.334
-0.00192 0.0164  0.560
-0.728  0.162 -0.237
-0.455 -0.0969 -0.548
-0.0991  0.385  0.136
 0.241  0.227 -0.548
 0.338  0.194 -0.548
 0.338  0.363  0.265
 0.468  0.385  0.492
-0.423 -0.360  0.217
-0.728 -0.324 -0.415
-0.358 -0.360  0.362
-0.728 -0.210 -0.123
-0.728 -0.210  0.460
 0.549 -0.210  0.560
-0.728 -0.145 -0.172
-0.728 -0.0645  0.492
-0.728 0.0812 -0.382
-0.196 0.0812  0.560
-0.728 0.0650  0.492
-0.196 0.000228 -0.548
-0.666 -0.360  0.136
-0.536 -0.360 -0.317
-0.358 -0.129 -0.548
-0.293 -0.385 0.0225
-0.552 -0.360 -0.172
-0.212  0.363 -0.253
-0.423  0.259 -0.548
 0.549 -0.360  0.298
-0.536  0.363 -0.366
 0.662 -0.194  0.560
 0.733  0.350 -0.323
 0.176 -0.385  0.492
-0.0667  0.385 -0.172
 0.709 -0.380  0.579
-0.440  0.337  0.582
-0.563 -0.381  0.437
-0.113  0.385  0.379
 0.662  0.294  0.565
 0.144 -0.385 0.0387
 0.435 -0.385  0.460
 0.723 -0.307  0.233
 0.723 -0.307 -0.123
-0.00195  0.357 0.0873
 0.263  0.318 -0.569
-0.585 -0.385  0.571
 0.119  0.381  0.341
-0.133  0.382 -0.415
 0.419  0.294  0.564
 0.662 -0.385 0.00631
 0.403 -0.381 -0.425
-0.728  0.355 -0.220
 0.684  0.381  0.308
 0.307 -0.379  0.579
 0.128 -0.385 -0.544
-0.277  0.294 -0.553
 0.678 0.0974  0.564
 0.676  0.385 -0.510
 0.403  0.370 -0.525
 0.419 -0.373 0.0887
-0.666  0.294  0.564
-0.666 -0.385 -0.512
 0.209  0.385 -0.463
 0.241  0.130  0.560
 0.646 -0.385  0.508
 0.176 0.0812  0.560
 0.338 0.000228 -0.548
 0.723 -0.275 -0.366
 0.289 -0.385  0.460
-0.728 -0.275  0.282
 0.192  0.114 -0.548
-0.439  0.363  0.136
-0.737  0.350  0.362
 0.723 0.0973  0.362
-0.0667 -0.0807 -0.548
0.0304 -0.0807 -0.548
-0.728 0.0812  0.103
-0.650 0.0326 -0.548
0.0790 -0.291  0.560
 0.723 0.0650 -0.00993
 0.111  0.386  0.476
 0.723  0.194  0.460
 0.273 -0.0159  0.560
 0.209  0.363  0.201
 0.225  0.363  0.330
-0.342  0.178  0.560
-0.342 -0.385 -0.512
-0.552 -0.385 -0.512
-0.471 -0.360 -0.188
-0.115 -0.385 -0.447
-0.536 -0.360  0.201
 0.723 0.0650 -0.269
 0.160  0.362 -0.0747
-0.261  0.363 -0.382
-0.666 -0.243 -0.548
-0.728 -0.371 -0.00990
0.0952 -0.365 -0.0892
0.0466  0.318  0.581
-0.666 -0.360  0.346
-0.714 -0.385  0.395
-0.407 -0.365  0.413
 0.532 -0.360 -0.382
 0.484 -0.365  0.413
 0.273 -0.323  0.560
-0.650  0.162 -0.548
0.0312  0.386 -0.0747
-0.390  0.243  0.560
 0.597 -0.371 -0.572
 0.484  0.350 -0.569
-0.229  0.380 -0.520
 0.289  0.363 -0.382
 0.675  0.385  0.201
-0.617  0.385 -0.139
-0.728  0.291  0.411
-0.196  0.362 0.0225
-0.115 -0.360 -0.285
 0.724  0.259 -0.496
-0.212 -0.194 -0.548
-0.728 -0.307  0.508
-0.423  0.363  0.379
 0.128  0.227 -0.548
 0.723 -0.340  0.330
 0.468  0.363  0.314
 0.144  0.227  0.560
 0.549  0.211 -0.548
 0.646 -0.145 -0.548
 0.723 -0.226 -0.415
-0.728 -0.226 -0.269
-0.277  0.211 -0.548
 0.484 -0.360 -0.285
 0.723 -0.194  0.427
-0.455 -0.360  0.314
-0.390 -0.360 -0.317
-0.407  0.363 -0.253
-0.569 -0.385 -0.447
 0.306  0.363 -0.253
-0.552 -0.360  0.265
-0.504 -0.178  0.560
-0.164 -0.385 -0.0261
-0.552 0.0812 -0.548
-0.728 -0.194 -0.0423
 0.723 -0.0322 -0.220
-0.504 -0.0159  0.560
 0.322  0.363 0.0548
-0.374 0.0488  0.560
-0.728  0.162 -0.0747
0.0628  0.211  0.560
0.0952 -0.307 -0.548
 0.723  0.162 -0.00993
0.0143 -0.360 -0.285
-0.0343 -0.360 -0.334
-0.455 0.0974  0.560
-0.728 0.0326 -0.253
 0.723  0.114  0.136
-0.0829 -0.385 0.0225
 0.532  0.114 -0.548
 0.128 -0.129 -0.548
-0.261 -0.360  0.184
-0.488  0.162  0.560
-0.728 -0.129  0.330
 0.273 -0.360  0.282
 0.723  0.259 -0.253
 0.630 -0.291 -0.548
 0.451 -0.194  0.560
-0.196  0.363 -0.107
-0.728  0.211 -0.398
-0.180 -0.307 -0.548
 0.176 -0.0160 -0.548
-0.728 -0.178 0.0872
-0.0991 -0.226 -0.548
 0.723 -0.291  0.168
-0.552 -0.145 -0.548
-0.390 -0.323  0.560
 0.241 -0.360  0.136
 0.500  0.362  0.120
-0.245  0.362  0.120
 0.723 0.0488  0.492
-0.0181 0.0488 -0.548
 0.516 -0.360  0.217
 0.723 -0.243 -0.253
-0.728 0.0164  0.233
 0.403 0.0326  0.560
-0.0505 -0.360 -0.107
-0.0829 -0.360  0.298
-0.293 -0.243  0.560
-0.293 -0.385  0.476
 0.354 -0.360  0.233
 0.225  0.211  0.560
 0.403 -0.360  0.330
 0.723  0.291  0.249
 0.354 -0.385 -0.0566
-0.212 -0.385 0.0692
 0.376  0.374 -0.410
 0.711  0.355  0.411
 0.675  0.385 0.0387
-0.633  0.385  0.476
-0.723 -0.381  0.530
-0.737  0.350 -0.156
0.0312  0.385  0.201
-0.471  0.386  0.460
-0.261  0.385 -0.463
 0.235 -0.373 -0.0765
-0.148  0.381  0.434
-0.728  0.162  0.571
-0.581  0.372  0.124
-0.309  0.363  0.103
-0.471 -0.385 0.0692
 0.451  0.362 0.0387
 0.723 -0.307 -0.0585
 0.387  0.362 0.0548
 0.724 -0.210  0.314
 0.723  0.146 -0.382
 0.724 -0.145  0.265
-0.326 -0.0645 -0.548
 0.565  0.275 -0.548
-0.471 -0.360 -0.285
 0.678 -0.385  0.446
 0.435 -0.129 -0.548
 0.723 -0.0807 -0.398
-0.293 -0.226 -0.548
 0.549 -0.275  0.560
 0.419 -0.0321  0.560
-0.666 -0.307 -0.548
 0.419 -0.307  0.560
-0.180 -0.307  0.560
 0.581 -0.226 -0.548
 0.111 -0.360  0.120
-0.680  0.385 -0.107
 0.723 -0.0969 -0.253
 0.723  0.259 -0.188
 0.257 -0.210  0.560
-0.342 -0.360  0.249
-0.728 0.0812 -0.463
 0.532 -0.0483 -0.548
-0.374  0.363 0.0387
-0.728 -0.0969 -0.0423
 0.468 0.0812  0.560
-0.358  0.363 -0.0909
0.0143 -0.365  0.102
-0.728 -0.145 -0.496
 0.710 -0.0160 -0.572
-0.0343 -0.0808  0.560
-0.261 -0.113  0.560
-0.633  0.385 -0.301
-0.728  0.194  0.168
 0.435  0.363 -0.188
 0.419 -0.360 -0.172
-0.728 -0.275  0.346
 0.646 -0.360  0.233
 0.646 -0.385 -0.463
0.0628  0.385 -0.220
0.0790 -0.385  0.508
-0.728 -0.356 -0.139
-0.728  0.291 -0.0585
 0.273 -0.385 -0.544
 0.736  0.327 -0.544
 0.736  0.327 -0.382
-0.0181 -0.323  0.560
-0.504 -0.385  0.460
 0.376 -0.381  0.437
 0.403 -0.385 -0.559
 0.338 -0.385 -0.496
-0.728  0.355  0.492
 0.676  0.385 -0.447
-0.552  0.362 -0.123
-0.439  0.363 -0.382
-0.724  0.275  0.581
0.0312  0.385  0.330
-0.0613  0.318 -0.569
 0.209 -0.385 0.0688
-0.0847  0.385 -0.523
-0.580  0.373  0.400
 0.724 -0.356 -0.220
 0.338 -0.323 -0.548
-0.650  0.385  0.233
-0.132 -0.362 -0.569
-0.520  0.363  0.330
-0.439 -0.381 -0.425
-0.277 -0.385 -0.0566
-0.728  0.275  0.120
 0.710  0.259  0.584
 0.573  0.375  0.420
 0.160 -0.385  0.557
 0.662 -0.340  0.564
-0.683 -0.129  0.564
-0.682 -0.145 -0.553
-0.740  0.327  0.152
 0.165  0.374 -0.410
 0.500 -0.323 -0.548
-0.728 -0.340 -0.528
 0.484  0.381  0.434
 0.468 -0.385 0.0548
 0.727  0.305  0.379
-0.0667  0.243  0.560
-0.131  0.243  0.560
0.0143  0.294 -0.553
 0.577  0.375  0.220
 0.723 -0.0160  0.541
 0.132  0.375  0.417
 0.354 -0.365  0.102
 0.719 -0.381 0.0225
-0.132  0.294 -0.553
 0.457 -0.381 -0.0656
 0.701 -0.381 -0.102
-0.694 -0.237  0.573
-0.0680  0.353  0.569
 0.732  0.315  0.541
 0.701 -0.140 -0.569
 0.701 -0.221 -0.569
-0.0244  0.381  0.308
 0.736  0.327 -0.269
 0.564  0.368 0.0886
 0.311  0.361  0.545
-0.00195  0.357 -0.301
 0.646 -0.360  0.120
-0.333  0.348  0.579
-0.592  0.379  0.259
 0.435  0.367 -0.399
 0.241  0.363 -0.139
-0.728 -0.243 -0.512
 0.532 -0.385 -0.512
-0.309  0.363 0.00630
0.00906  0.362 -0.0261
-0.115 -0.243  0.560
-0.123  0.381 -0.188
 0.682  0.379  0.530
0.0467 -0.0160  0.560
-0.728  0.130  0.460
 0.322  0.130  0.560
-0.650 -0.360  0.201
 0.176 -0.360  0.249
-0.358 -0.162  0.560
-0.0505  0.386  0.492
-0.536 -0.0160 -0.548
-0.728 -0.0160  0.524
-0.728 0.0974  0.346
-0.423 -0.0160 -0.548
 0.723 0.0164  0.395
-0.423 0.0974 -0.548
 0.724 0.000216 0.0225
-0.358 -0.360  0.120
 0.451  0.363 -0.317
 0.723 -0.324 -0.334
-0.601 -0.360 -0.237
-0.536  0.211  0.560
-0.261  0.363 -0.285
 0.565 -0.113  0.560
 0.306  0.114 -0.548
 0.419  0.146 -0.548
 0.723  0.227  0.120
 0.723 -0.162 -0.172
-0.728  0.146  0.265
 0.532 -0.360 -0.220
-0.728 -0.162 -0.237
 0.306 -0.360 -0.269
-0.229 -0.385 -0.512
-0.0991 0.0326  0.560
 0.435  0.363 -0.0909
-0.115 -0.360 -0.204
 0.723  0.146  0.233
-0.728 0.0488 0.00629
0.0304 0.000228 -0.548
 0.723 -0.0807 0.00626
 0.192 -0.113  0.560
 0.646 -0.0483 -0.548
-0.0181 -0.194  0.560
-0.728  0.162 -0.00990
-0.212 0.0974 -0.548
 0.723  0.227 0.0224
-0.115 0.0974 -0.548
-0.471  0.363 0.0710
-0.342 0.000228 -0.548
 0.111 0.0812  0.560
 0.403 -0.145  0.560
 0.338  0.363 -0.0585
-0.569 -0.0645  0.560
-0.728 -0.0160 -0.382
-0.650 -0.0483 -0.548
-0.0343 -0.360  0.265
-0.132 -0.0160 -0.548
-0.488 -0.0483 -0.548
-0.0505 -0.385  0.524
-0.728 -0.0969 -0.237
 0.723 -0.259 -0.0909
-0.471  0.363 -0.156
 0.370 0.0974  0.560
 0.565  0.194  0.560
-0.245  0.363  0.201
-0.552 -0.210  0.560
-0.277 -0.360 -0.301
 0.192  0.194 -0.548
 0.723  0.275  0.314
-0.728 -0.291  0.168
 0.290 -0.0807  0.560
-0.309 0.0974  0.560
-0.728 -0.113  0.443
-0.131 -0.385  0.524
-0.552 -0.307 -0.548
-0.326  0.363  0.217
 0.500 -0.307  0.560
 0.500 -0.360 -0.172
 0.322 -0.243  0.560
 0.646  0.146 -0.548
 0.403 -0.385  0.508
 0.338  0.363  0.330
 0.419 -0.360  0.201
-0.342  0.363  0.298
-0.245  0.363  0.298
-0.164 -0.360  0.217
-0.585 -0.360  0.330
-0.728 -0.275 -0.220
 0.225  0.363 -0.220
-0.504 -0.360 -0.139
 0.435  0.363  0.233
 0.354  0.385 -0.496
-0.471 -0.226 -0.548
 0.468 -0.259 -0.548
-0.471 -0.385 -0.512
-0.728  0.130 -0.350
0.0952  0.385 -0.317
 0.225 0.0650 -0.548
 0.338 0.0650 -0.548
-0.471 -0.360  0.168
0.0952  0.294 -0.553
 0.192  0.363 0.0872
 0.549  0.275  0.560
 0.354  0.385  0.492
 0.387  0.363  0.362
 0.451 -0.360  0.152
-0.277 -0.360 -0.382
 0.111  0.396 -0.518
-0.164  0.363 -0.301
-0.601 -0.360 -0.334
-0.0991 -0.323  0.560
0.0143 -0.323 -0.548
-0.728  0.259 0.0549
-0.728  0.259  0.249
-0.728  0.243  0.524
-0.728  0.243 -0.350
-0.666 -0.385  0.524
 0.662  0.385 -0.317
-0.737  0.350 0.00628
-0.728  0.355  0.217
-0.0667  0.385 -0.285
 0.719 -0.0861  0.581
-0.737  0.350 -0.334
 0.646  0.385 -0.123
 0.209  0.350 -0.569
 0.613  0.386  0.476
-0.728  0.130 -0.559
 0.736  0.327 -0.0747
-0.423 -0.385 0.0387
-0.633  0.385 0.0225
-0.326 -0.385  0.524
-0.705 0.0488 -0.569
-0.714 -0.385  0.168
 0.365  0.307 -0.561
-0.0244  0.381 0.0333
 0.698  0.361  0.255
 0.532 -0.385 -0.434
 0.516  0.385  0.523
 0.675  0.385  0.379
 0.128 -0.365 -0.401
 0.468  0.318  0.581
 0.241  0.363  0.395
-0.650 -0.360 -0.382
 0.257 -0.381 -0.425
 0.629  0.361 -0.532
-0.374 -0.365 -0.401
 0.581 -0.385  0.492
 0.662 -0.360 -0.382
-0.639 -0.373 -0.0765
 0.176 -0.385 -0.0566
 0.724  0.130  0.571
-0.520  0.363 -0.253
-0.471 -0.340 -0.553
-0.0131  0.362 -0.490
 0.119  0.381 0.0818
-0.736  0.315 -0.264
 0.252  0.381  0.532
-0.412 -0.373 -0.0765
-0.715  0.355 -0.415
-0.245 -0.371 -0.572
 0.724  0.355 -0.431
 0.149  0.318 -0.569
 0.629  0.385  0.168
 0.719 -0.381  0.201
-0.245  0.355  0.557
 0.588  0.383  0.285
 0.678  0.211 -0.553
-0.629 -0.353  0.571
 0.548  0.385 -0.463
-0.488 -0.385  0.557
-0.702  0.361 0.0549
-0.123  0.381  0.265
-0.520  0.350 -0.569
 0.719 -0.381  0.411
-0.0352  0.385  0.411
-0.423  0.350 -0.569
-0.310  0.350 -0.569
 0.516 -0.385  0.541
 0.723 -0.113 -0.528
 0.451 -0.385  0.541
-0.423 -0.360  0.362
-0.520 -0.372 -0.414
-0.0829  0.385 -0.398
-0.727  0.325 -0.572
 0.690  0.286 -0.560
-0.180  0.355 -0.559
0.00905  0.362 -0.220
-0.699 -0.380 -0.417
-0.585  0.307  0.573
 0.451 -0.371 -0.572
 0.559 -0.373 -0.0765
 0.724 -0.340  0.541
 0.723 -0.340 0.0548
 0.257 -0.365  0.413
-0.196  0.367 -0.399
 0.142  0.366 -0.0261
-0.617  0.386 -0.479
-0.342  0.385 -0.479
 0.678 -0.113  0.564
0.0631  0.371 -0.526
 0.678 -0.365 -0.269
 0.226  0.363 0.0224
0.0628 -0.340  0.564
-0.342  0.367  0.411
 0.403  0.195  0.560
-0.212 -0.146  0.560
-0.439  0.385 -0.479
-0.520  0.363 -0.317
 0.273  0.385 -0.463
-0.374  0.363 -0.350
 0.241  0.363  0.281
 0.484 -0.178 -0.548
-0.229  0.211  0.560
 0.128  0.114 -0.548
 0.723 -0.178 -0.382
 0.451  0.211 -0.548
 0.613 -0.323  0.560
-0.0667  0.130  0.560
-0.131 -0.0483  0.560
 0.338 -0.360 -0.382
 0.630 -0.360 -0.172
 0.354 -0.360  0.346
-0.245  0.363 -0.139
 0.581 -0.360 -0.350
 0.257 0.0811  0.560
0.0628 -0.385 -0.00988
-0.358  0.363  0.152
 0.468 -0.365 -0.401
 0.723  0.130 0.0872
 0.724 -0.0645  0.136
-0.0667  0.385 -0.0747
0.0628 -0.360 -0.220
-0.728 -0.0321 -0.512
-0.0829 -0.360 -0.350
0.0628 -0.385 -0.512
 0.532 0.0812  0.560
-0.585 0.0326 -0.548
0.0143 -0.178 -0.548
-0.728 0.0650 -0.317
 0.723 -0.0646 -0.301
-0.728 0.0326  0.379
0.0305  0.146  0.560
-0.374 -0.0807  0.560
-0.728  0.146 0.0872
-0.728 0.0974 -0.204
0.0143  0.146 -0.548
 0.723 -0.162 -0.0585
 0.484 0.0164 -0.548
 0.646 -0.385 -0.0423
-0.728 0.0974 -0.0908
 0.723 -0.0969 0.0548
-0.0829 -0.145 -0.548
 0.723 -0.162 0.0386
0.0790 0.0164 -0.548
-0.728 -0.113 -0.350
-0.728 -0.0160 0.00629
 0.451  0.363  0.184
-0.245 -0.226  0.560
 0.724  0.178 -0.317
 0.160  0.385  0.460
 0.724  0.130 -0.269
-0.617  0.211  0.560
-0.212  0.146  0.560
-0.407  0.211 -0.548
-0.390 0.0974  0.560
-0.728  0.259 -0.431
-0.728 -0.275 -0.431
 0.273 -0.259  0.560
-0.455  0.363  0.249
-0.728  0.227  0.476
 0.144 -0.178  0.560
-0.407 -0.145 -0.548
-0.423 -0.145  0.560
 0.451 -0.385 -0.512
 0.257 -0.360 -0.237
-0.728  0.211  0.346
 0.273 -0.360 -0.139
 0.370 -0.360 -0.139
-0.407  0.363 -0.172
 0.290 -0.385  0.524
-0.728 -0.324 -0.334
-0.358  0.363 -0.220
-0.245 -0.360  0.136
-0.536 -0.210 -0.548
 0.257 -0.243 -0.548
 0.209 -0.0159  0.560
-0.261 -0.360 -0.237
 0.565  0.162 -0.548
 0.176 -0.210 -0.548
-0.728  0.146 -0.188
-0.728 -0.145 -0.431
 0.322 -0.360 -0.317
-0.390 -0.385  0.508
 0.723  0.194  0.395
 0.532  0.363 -0.350
 0.723 -0.324  0.379
-0.293 -0.360  0.330
-0.132  0.211 -0.548
 0.723 -0.129  0.379
0.0790 -0.360  0.217
-0.148 -0.360  0.362
-0.728  0.211 -0.220
 0.306 -0.162  0.560
-0.728  0.146  0.379
 0.160 -0.360  0.314
-0.728 -0.162  0.249
 0.111  0.178  0.560
-0.728  0.146 -0.301
-0.488 0.0812 -0.548
-0.358 -0.360 -0.269
-0.164  0.146 -0.548
-0.728 -0.324  0.249
-0.0181 -0.0969 -0.548
 0.723  0.211 -0.220
 0.241 -0.145 -0.548
 0.723 -0.145 -0.220
 0.723  0.130  0.460
 0.723  0.211  0.508
 0.723 0.000202  0.103
-0.728 -0.226  0.152
-0.569 0.0650  0.560
-0.407  0.363 -0.0747
 0.723 -0.0807  0.476
0.0790  0.385  0.379
-0.617 -0.0159  0.560
 0.225 0.000228 -0.548
 0.257 -0.385 0.0225
0.0790 -0.210  0.560
-0.0829 -0.194  0.560
-0.131  0.162  0.560
-0.728 0.0488  0.541
-0.342 0.0650 -0.548
-0.728 -0.0160 -0.172
-0.728 -0.0321 -0.431
-0.728 0.0488  0.443
-0.728 0.0650 -0.139
-0.728 -0.0807 -0.188
-0.728 -0.0483  0.443
0.0790 -0.360 -0.317
-0.212 0.0326  0.560
-0.728 -0.210 0.0387
 0.549 -0.0969 -0.548
 0.192 -0.0645 -0.548
-0.728 -0.0160 -0.269
 0.387 -0.0807  0.560
 0.597 0.000228 -0.548
 0.723 0.000202 -0.366
0.0305 -0.385  0.476
-0.439 0.0326 -0.548
-0.728 -0.0645  0.346
 0.289 -0.0160 -0.548
-0.423  0.363 0.0872
 0.338 0.0164  0.560
-0.728 -0.307 -0.0261
0.0790  0.385 -0.172
-0.407  0.363 -0.00996
 0.484  0.363 -0.139
 0.723  0.211 -0.0261
-0.728 0.0812  0.184
-0.666  0.385  0.136
0.0952 -0.0321  0.560
-0.245  0.363 0.00630
-0.0668  0.385  0.265
 0.646  0.227  0.560
 0.724 -0.307  0.492
 0.724 -0.210  0.379
-0.569 -0.275  0.560
-0.309 -0.360 -0.188
-0.728 -0.259  0.476
 0.403 -0.259  0.560
-0.180 -0.360 -0.301
 0.338 -0.194 -0.548
-0.342 -0.178 -0.548
-0.390 -0.360  0.168
 0.322  0.363  0.217
 0.468  0.162  0.560
 0.241 -0.360 -0.350
 0.723 -0.194 -0.479
 0.723 -0.210 -0.204
 0.387  0.363 -0.301
 0.532 -0.360  0.168
 0.289 -0.360  0.330
 0.354  0.243 -0.548
-0.277 -0.113 -0.548
-0.374  0.363  0.249
 0.176 -0.385 -0.528
-0.471  0.363 -0.301
0.0952  0.386 -0.398
 0.723 -0.0969  0.281
 0.597  0.385 -0.382
 0.160  0.362 -0.220
 0.468 -0.360 -0.123
 0.387 -0.307 -0.548
 0.160 0.0325  0.560
-0.0991 -0.365 -0.0892
-0.666 -0.0969 -0.548
 0.192 -0.360  0.168
 0.192 -0.360 -0.156
 0.209  0.362 -0.0908
-0.666  0.114 -0.548
-0.309 -0.194  0.560
 0.110  0.337  0.583
-0.374 -0.275  0.560
-0.455 -0.323  0.560
 0.144 -0.275 -0.548
0.0466 -0.360  0.395
-0.00194 -0.372 -0.414
 0.241 -0.340 -0.553
 0.306  0.227  0.560
 0.478  0.382 -0.421
-0.146  0.366  0.217
-0.682 -0.385 -0.0261
 0.155  0.415 -0.500
-0.115 -0.365  0.101
-0.683  0.338  0.583
 0.564  0.369 -0.219
-0.146  0.366 0.0387
 0.403 -0.385 -0.0423
-0.0181 -0.385 -0.0423
-0.146  0.367 -0.0585
-0.261  0.275  0.560
-0.358 -0.351 -0.561
-0.688  0.381  0.346
-0.666  0.386 -0.0585
-0.732  0.305  0.276
 0.209  0.385  0.492
-0.164 -0.365 -0.0892
-0.732  0.305 -0.177
-0.0505 -0.385 -0.447
 0.646  0.340  0.585
 0.192  0.363 -0.350
-0.585  0.350 -0.569
-0.504  0.294 -0.553
 0.564  0.369 -0.284
 0.451  0.381 -0.520
-0.261 -0.381 -0.425
 0.736  0.327  0.443
 0.289  0.381 -0.520
-0.552  0.259 -0.548
-0.617 -0.365  0.101
 0.724 0.0326 -0.559
-0.714 -0.385 0.0873
-0.617  0.385 -0.0261
 0.202 -0.364  0.580
 0.724 -0.371 -0.350
-0.728  0.259 -0.528
-0.728 -0.340  0.411
-0.715  0.355 -0.479
 0.719 -0.381  0.136
-0.682 -0.365 -0.317
-0.682 -0.365 -0.156
-0.293 -0.385 -0.528
-0.113  0.385 0.0872
-0.104 -0.373  0.426
 0.543 -0.373  0.426
 0.209 -0.360  0.379
 0.646  0.385 -0.398
-0.569 -0.385 0.0225
-0.520 -0.381 0.0778
-0.0505  0.307  0.572
 0.473  0.361  0.545
 0.690  0.370 -0.0585
 0.630 -0.0483  0.560
 0.733  0.350 -0.161
 0.630 -0.360  0.379
 0.630 -0.360 -0.269
-0.728 -0.162  0.541
 0.723 -0.0322 -0.528
 0.723  0.146 -0.528
 0.532 -0.385 0.0225
 0.613 -0.385 0.0225
-0.683 0.0812  0.564
-0.0181 -0.385 0.0688
-0.305 -0.353  0.571
-0.682 -0.365 -0.220
-0.538  0.353  0.569
 0.662 -0.291  0.560
 0.138 -0.373  0.426
 0.678 -0.291 -0.553
 0.619  0.318 -0.569
 0.435  0.275 -0.548
 0.176  0.363 0.0386
-0.0511 -0.372  0.581
 0.565  0.385 -0.510
-0.245  0.385  0.508
 0.338  0.363 -0.123
 0.387  0.363  0.136
 0.290 -0.385 -0.479
 0.575  0.381  0.532
-0.728 0.0974  0.282
 0.322 -0.360 -0.172
-0.488  0.178 -0.548
-0.728 -0.113  0.168
 0.723 0.0650 -0.431
 0.723  0.146 -0.431
-0.245 -0.360 -0.139
 0.724 -0.259 -0.544
-0.245 0.000228 -0.548
-0.309 -0.365 -0.0892
-0.00196 -0.0322  0.560
 0.548  0.363 -0.107
 0.723 -0.113 -0.140
-0.0829  0.211 -0.548
-0.0829 -0.362 -0.569
0.0628 0.0812  0.560
-0.0667 -0.360  0.152
 0.630  0.385  0.395
-0.728 -0.259 -0.107
 0.144 -0.360 -0.269
-0.666 -0.372 0.0887
-0.115  0.386 -0.463
-0.728 -0.0321  0.571
-0.728 -0.0969 -0.0908
-0.0505 -0.226 -0.548
-0.520  0.363 0.0548
-0.728 -0.340 0.0549
 0.723 -0.0322  0.249
-0.212 0.0488 -0.548
-0.728 0.0650 0.0549
-0.601 -0.0645 -0.548
-0.439 -0.0159  0.560
 0.723 -0.226 0.00626
-0.00192 -0.145  0.560
 0.599  0.384 -0.00787
 0.370 -0.0969 -0.548
0.0790  0.114 -0.548
-0.728 0.0164  0.120
0.0304 -0.275 -0.548
 0.723  0.130 0.0386
-0.0505 -0.360  0.379
-0.728 0.0326 -0.0423
-0.153  0.380  0.532
-0.342  0.385  0.523
 0.723 -0.162  0.314
 0.723  0.227 -0.317
 0.516  0.194  0.560
 0.724 -0.145  0.152
 0.723 -0.291 -0.496
-0.536  0.259  0.560
-0.261 -0.385 0.0692
 0.597  0.146  0.560
 0.613  0.385  0.103
 0.500 -0.210  0.560
-0.536  0.363  0.184
 0.723 -0.324 -0.382
 0.723  0.194 -0.123
 0.403 -0.360  0.249
-0.326  0.294 -0.553
 0.289  0.374  0.423
 0.723 -0.0646  0.346
 0.468 -0.0321  0.560
 0.419 -0.360 -0.220
 0.723  0.227  0.314
 0.723 -0.178 -0.317
 0.723 -0.291 0.0548
-0.682 -0.385  0.476
-0.728 -0.0645 -0.285
0.0790 -0.360 -0.366
 0.737  0.340  0.282
-0.293 -0.275 -0.548
-0.164 -0.360 -0.188
0.0305 -0.291  0.560
 0.419  0.243  0.560
-0.728 -0.340  0.152
-0.326 0.0326  0.560
 0.723 -0.226  0.184
-0.568  0.368 -0.233
 0.387 -0.360 -0.382
-0.277  0.363 -0.334
-0.728 -0.178  0.136
-0.601 -0.385 -0.512
-0.148 -0.194 -0.548
0.0466  0.385 -0.334
-0.520 -0.360  0.379
 0.160  0.275  0.560
-0.374  0.363 -0.301
 0.356 -0.383  0.570
-0.617 -0.385 0.0225
 0.723 -0.0322 -0.172
-0.714 -0.385  0.217
-0.277 -0.385  0.524
-0.342  0.243  0.560
 0.289  0.363  0.281
 0.273 -0.360  0.233
 0.354  0.363 -0.253
-0.569 -0.385 -0.0261
 0.128 -0.385  0.492
 0.128 -0.360 -0.220
 0.723 -0.226 -0.366
-0.728  0.130  0.508
 0.354 -0.360 -0.269
 0.419 -0.360 -0.334
-0.488 0.0326  0.560
 0.723 -0.0646 -0.350
 0.311  0.318 -0.569
 0.241 -0.385  0.508
-0.728 -0.226 -0.350
-0.180 -0.385  0.508
 0.225  0.275 -0.548
-0.115 -0.360 -0.156
 0.111 -0.385 -0.479
-0.728  0.211 -0.107
 0.723  0.178  0.120
 0.723  0.162  0.508
 0.723 -0.307 -0.220
-0.0505 -0.360 -0.220
-0.0181 -0.243  0.560
-0.390 -0.243 -0.548
-0.728 -0.0807 -0.447
-0.728 0.0164 -0.496
-0.471 -0.360 -0.237
 0.723 0.0164 -0.463
 0.581 -0.385 -0.528
 0.289  0.363 -0.139
 0.723 0.0650  0.136
0.0790 -0.0969  0.560
-0.0505  0.385  0.136
-0.504  0.362 -0.0261
 0.435  0.363 -0.139
0.0628 -0.360  0.120
-0.0667 0.0812  0.560
 0.160  0.362 -0.123
-0.724 -0.340  0.581
 0.385  0.337  0.583
-0.0506  0.385  0.217
 0.387  0.350 -0.569
-0.520  0.362 -0.188
0.0466  0.385 -0.431
 0.419 0.0974  0.560
-0.569  0.385 -0.479
-0.601 -0.323 -0.548
 0.354 -0.360  0.395
 0.727  0.305  0.184
0.0156  0.372  0.508
-0.536 -0.385  0.571
-0.117  0.353  0.569
 0.724 -0.356 -0.528
0.0467  0.275  0.560
-0.185  0.307 -0.561
-0.164  0.363 -0.237
-0.633  0.371  0.538
 0.289  0.318  0.581
-0.134  0.373  0.168
-0.617  0.385  0.152
-0.245  0.259 -0.548
-0.134  0.373  0.330
-0.196 -0.360 -0.382
-0.728 -0.324  0.460
 0.289 -0.365 -0.0892
 0.690 -0.373  0.325
0.0304  0.355  0.557
-0.601 -0.372 -0.414
 0.701 0.000234  0.581
-0.728 0.0164 -0.544
-0.471  0.361 -0.532
-0.724  0.211  0.581
 0.727  0.305  0.120
 0.719 -0.381  0.362
-0.728 -0.145 -0.544
 0.257  0.362 -0.0423
-0.471 -0.385 0.0225
-0.650 -0.162  0.560
-0.650 0.0326  0.560
 0.678 -0.351 -0.563
-0.0351  0.385 -0.415
-0.0829 -0.385 0.0690
 0.646  0.385 -0.253
-0.728 -0.340 -0.220
0.0204  0.381  0.282
-0.666 -0.362 -0.569
 0.723 0.0812 -0.528
 0.678 0.0488 -0.553
-0.212 -0.340 -0.553
 0.209 -0.307 -0.548
-0.504 -0.307 -0.548
 0.160  0.363  0.330
 0.728  0.305 -0.479
 0.690  0.162  0.573
-0.00330  0.337  0.583
 0.273 -0.360 -0.317
-0.471  0.363  0.330
-0.728 -0.243 -0.463
-0.650 -0.360  0.249
 0.484 -0.113  0.560
-0.439 -0.194 -0.548
 0.257  0.363 -0.269
-0.504  0.363  0.233
-0.728  0.178 -0.366
 0.597 -0.360 -0.139
-0.728 -0.226 -0.415
 0.581 -0.178  0.560
 0.723  0.146 -0.172
 0.723 -0.307  0.281
-0.439 -0.385 -0.479
 0.723 -0.275 -0.301
 0.128  0.130  0.560
 0.225 -0.360 -0.123
 0.451  0.114 -0.548
-0.261  0.114 -0.548
 0.192 -0.360 -0.334
-0.229 -0.360 -0.285
-0.728  0.178  0.460
-0.115  0.386  0.476
-0.504 -0.113 -0.548
-0.0829 -0.0645  0.560
-0.728 -0.275 0.0710
-0.728 -0.0645  0.249
 0.723 -0.0160  0.330
0.0466 -0.360 -0.156
0.0790 -0.194 -0.548
 0.257 0.0974 -0.548
-0.728 -0.0160  0.411
-0.488 -0.385 -0.0261
-0.736  0.315  0.546
-0.390 0.000248  0.560
 0.723 -0.0322  0.427
-0.728 -0.226 -0.00990
-0.196 -0.385 0.0225
-0.488 -0.0645  0.560
-0.293 -0.0159  0.560
-0.261 0.0650 -0.548
-0.293 -0.0160 -0.548
-0.728 -0.113 0.00629
-0.728 -0.113 0.0710
 0.724 0.0650 -0.123
-0.732  0.305  0.325
 0.724 -0.0969  0.103
 0.723 -0.0160 -0.0909
 0.662 -0.385  0.557
-0.390 -0.194  0.560
 0.724 -0.178  0.233
 0.500  0.362  0.249
-0.326 -0.360 -0.301
-0.617  0.194 -0.548
 0.565 -0.360 -0.253
-0.728  0.243 -0.269
-0.471 -0.113  0.560
-0.569 -0.360 -0.285
-0.407 -0.360 -0.204
 0.354 -0.360  0.184
 0.723  0.162  0.362
-0.728 -0.243  0.379
 0.322 -0.275 -0.548
-0.423 -0.360 -0.350
 0.613 -0.360  0.330
-0.471 -0.226  0.560
 0.723  0.146 -0.107
-0.407  0.363  0.330
 0.289  0.363  0.120
 0.338  0.146 -0.548
 0.532  0.362  0.152
-0.326  0.114 -0.548
 0.257  0.363 -0.334
-0.131 -0.360  0.282
 0.613 -0.360  0.201
-0.728 -0.243 -0.156
-0.728 -0.129  0.217
 0.176  0.363  0.233
-0.536  0.211 -0.548
 0.370 -0.360 -0.188
-0.148 -0.360 -0.253
-0.293  0.363  0.330
-0.309 -0.360  0.152
0.0628 -0.0322 -0.548
 0.723 -0.0646 -0.0585
-0.0343 0.0488  0.560
0.0304  0.340 -0.573
-0.0505 0.000228 -0.548
 0.723 -0.129  0.492
-0.728 -0.0483 0.0710
0.0143 0.0812 -0.548
 0.698  0.361  0.157
 0.724 0.0326 -0.0423
 0.723  0.243 -0.0909
-0.736  0.315 -0.506
 0.723 -0.113 -0.431
0.0790 -0.0807 -0.548
 0.724 -0.0969  0.168
-0.196 -0.0159  0.560
0.0304  0.194 -0.548
-0.0667 -0.275 -0.548
 0.500 -0.0807 -0.548
 0.723 -0.113 -0.0423
 0.613 0.0488 -0.548
 0.516 0.0488 -0.548
-0.728  0.178 0.0549
 0.723 0.0326 -0.237
0.0467 -0.385 -0.463
-0.0343  0.162  0.560
 0.723 0.000202 -0.140
-0.148 -0.129  0.560
-0.196 -0.0969 -0.548
-0.407 -0.0483  0.560
 0.723 0.0488  0.281
-0.132 -0.0969 -0.548
 0.419 -0.0160 -0.548
0.0952 -0.360  0.379
 0.435 -0.385 -0.00988
-0.728 0.0488 -0.415
 0.723 0.0164 -0.317
 0.723 0.0650  0.541
-0.585  0.130 -0.548
-0.326 -0.385 0.0548
 0.723 -0.113  0.233
-0.666  0.386  0.443
 0.724  0.162 -0.237
 0.451  0.211  0.560
-0.342  0.363 -0.382
-0.728 -0.275 -0.301
-0.728 -0.162  0.411
 0.549 -0.194 -0.548
-0.728  0.162  0.201
-0.212  0.227 -0.548
 0.549 -0.360 -0.156
-0.261  0.178  0.560
 0.403 0.0812 -0.548
-0.115 -0.360  0.330
 0.354 -0.385 0.0548
 0.484  0.363 -0.220
-0.728 -0.307  0.379
-0.601 -0.243  0.560
 0.289  0.178 -0.548
-0.423 -0.360  0.265
-0.728  0.211 -0.447
-0.423  0.211  0.560
 0.484 -0.385  0.508
-0.728  0.243  0.395
-0.326  0.178 -0.548
 0.723  0.243  0.476
 0.419  0.386  0.508
-0.666 -0.0483  0.560
 0.678 -0.365 -0.156
-0.196  0.362  0.120
 0.549 -0.360  0.120
 0.144 -0.360 -0.139
 0.338  0.275  0.560
-0.633  0.275 -0.548
 0.630  0.385 -0.350
0.0204  0.381  0.411
-0.736  0.315  0.449
-0.728  0.259 -0.0261
-0.666  0.385 -0.398
 0.338  0.363  0.379
-0.0613 -0.381  0.437
 0.549  0.327  0.584
0.0628  0.385 -0.00991
-0.714  0.355  0.541
-0.728 -0.0645 -0.544
-0.596 -0.381 -0.0656
 0.160 -0.371 -0.572
-0.592  0.379 0.0805
-0.164  0.385  0.476
 0.698  0.361 0.0926
-0.115  0.413 -0.506
-0.536  0.385  0.508
-0.390 -0.385 -0.528
-0.0129  0.362  0.206
-0.677  0.317 -0.569
 0.370 -0.385 -0.528
-0.666 -0.360  0.298
 0.122  0.381  0.532
-0.208 -0.353  0.571
-0.617 -0.385  0.541
 0.119  0.381 -0.0801
-0.412  0.307 -0.561
 0.484  0.385 -0.479
-0.536  0.385 -0.432
-0.728 0.0164  0.571
-0.331 -0.373  0.426
-0.0613 -0.381 -0.0656
 0.370 -0.351 -0.561
-0.728 -0.243 -0.559
-0.450  0.361  0.545
-0.309 -0.385 -0.0261
-0.705 -0.381  0.346
-0.592  0.383 -0.318
0.0143 -0.385 -0.559
 0.138 -0.373 -0.0765
 0.597 -0.385 -0.0566
 0.554 -0.380 -0.569
-0.471  0.307  0.573
 0.500 -0.385 -0.0566
-0.740  0.340 -0.382
-0.00195  0.357 -0.0747
-0.261 -0.385  0.446
 0.130  0.374  0.238
-0.180  0.363  0.395
-0.466 -0.381  0.437
-0.309 -0.323 -0.548
 0.723 -0.340 0.00626
 0.322 -0.340  0.564
 0.646  0.385 0.00628
-0.0667  0.385 0.0225
 0.723  0.227 -0.528
 0.662  0.386  0.492
 0.727  0.305 -0.156
-0.309  0.294  0.564
 0.478  0.307 -0.561
 0.500  0.294  0.564
 0.176 -0.381 -0.425
 0.289  0.355 -0.559
 0.191  0.353  0.570
 0.588  0.383 -0.137
-0.0829  0.385 -0.123
 0.732  0.315 -0.00991
 0.534 -0.379  0.579
 0.698  0.361  0.352
-0.536 -0.360 -0.107
-0.146  0.367 -0.139
-0.666 -0.360 -0.107
 0.564  0.368 0.0238
-0.728 -0.340 -0.463
-0.702  0.361 -0.0423
-0.390 -0.385 -0.0423
-0.702  0.361  0.249
-0.138 -0.364  0.579
-0.724  0.232 -0.568
 0.701 -0.194  0.581
 0.577  0.375  0.366
-0.482 -0.380 -0.569
 0.613 -0.385 -0.434
 0.429  0.348  0.579
 0.711  0.355 -0.528
-0.381  0.348  0.579
-0.212 -0.385 -0.463
 0.176  0.374  0.423
-0.455  0.294 -0.553
 0.435  0.381  0.434
-0.504  0.382  0.434
 0.387  0.374  0.423
 0.711  0.355 -0.220
-0.326  0.385  0.460
 0.613  0.294  0.565
 0.322  0.385  0.460
 0.564  0.368  0.315
 0.597 -0.365  0.413
 0.119  0.381  0.292
 0.690  0.370 -0.00990
-0.715  0.355  0.103
 0.694 -0.385 -0.528
 0.694 -0.385 -0.447
-0.694  0.370  0.298
-0.0349  0.381 -0.520
 0.723 -0.145  0.541
-0.604  0.384 -0.268
-0.728 -0.291 -0.528
-0.724 -0.334 -0.568
 0.723  0.291 -0.220
-0.683 -0.194  0.564
0.0318 -0.379  0.579
 0.723 -0.340  0.201
 0.724 -0.356  0.476
0.0574  0.307 -0.561
-0.723 -0.380  0.576
-0.617  0.385  0.411
 0.724  0.291 -0.528
 0.719 -0.381 -0.253
 0.724 -0.356 -0.447
 0.289 -0.351 -0.561
-0.277  0.355 -0.545
-0.0343  0.350 -0.569
-0.724 0.0650  0.581
-0.728 -0.340  0.541
-0.342  0.355 -0.545
-0.471 -0.365 -0.0892
-0.617  0.355 -0.545
 0.516  0.355 -0.545
-0.245  0.385  0.444
-0.552 -0.385 -0.559
 0.678 -0.0969 -0.553
 0.732  0.315 -0.431
-0.728 -0.356 -0.0747
 0.142  0.366 -0.301
-0.694  0.119  0.573
-0.728  0.291  0.362
-0.728 -0.259  0.571
-0.164  0.385 -0.479
-0.694 0.0380  0.573
0.00905  0.362 -0.366
 0.646  0.385  0.298
 0.701 -0.381 -0.199
 0.119  0.381 -0.226
-0.689  0.375 -0.520
-0.740  0.327 0.0387
 0.724  0.355  0.541
 0.597 -0.373 0.0887
-0.0991  0.386 -0.0261
-0.134  0.374 -0.350
 0.630 -0.351 -0.561
-0.131  0.371 -0.527
