ply
format ascii 1.0
element vertex 2048
property float x
property float y
property float z
end_header
-0.291 0.0919 -0.0744
 0.324 -0.0419  0.944
 0.317 -0.00267 -0.923
-0.327  0.166  0.663
 0.321 -0.110  0.225
-0.331 -0.0843 -0.737
 0.174 -0.148 -0.363
0.0171  0.385  0.325
-0.173 -0.142  0.328
 0.205  0.228 -0.0872
 0.318  0.164  0.556
0.0135  0.120 -0.641
-0.0180 -0.119  0.727
-0.211 -0.147 -0.374
0.0140 -0.144 -0.0209
 0.294 -0.196  0.579
-0.0421 -0.0838 -0.938
-0.322 -0.0428  0.946
-0.321  0.166  0.311
 0.343 0.0338 -0.588
-0.0290  0.113 -0.299
-0.0395  0.127  0.513
-0.0402  0.133  0.131
 0.334 -0.0718 -0.0958
-0.317 -0.164  0.602
0.00243 0.0461  0.981
-0.318 0.0948 -0.492
 0.185  0.134  0.300
0.0996 -0.141  0.385
 0.324 0.0962 -0.313
 0.142 -0.112 -0.695
 0.142  0.107  0.759
-0.264 -0.143 0.0539
-0.101 -0.120 -0.622
 0.321  0.104 0.0895
-0.0372  0.253 -0.0845
-0.114  0.107  0.758
-0.173 0.0836 -0.796
 0.108 0.0810 -0.853
 0.300 -0.205 -0.550
 0.128 0.0207 -0.153
-0.264 0.0228  0.481
-0.168 -0.113 -0.149
 0.337 -0.00176  0.706
 0.301 -0.0284  0.433
-0.348 -0.00221 -0.278
 0.142  0.116 -0.438
-0.313 -0.213 -0.557
0.0889 -0.0358  0.196
-0.321  0.166  0.877
 0.330  0.164  0.842
-0.104 -0.130  0.528
 0.152  0.240  0.120
-0.221 0.0174  0.184
-0.227  0.217 0.0858
 0.135 -0.0882  0.868
-0.232 -0.111  0.780
-0.114  0.117 -0.481
-0.314 -0.0201 -0.925
-0.185  0.206 -0.208
-0.0180 -0.150 -0.320
 0.217 -0.146 0.0431
-0.0715 -0.144  0.161
-0.00733  0.132  0.321
 0.324 -0.0833 -0.749
-0.340 -0.0532  0.325
 0.338 -0.0643 -0.407
 0.193 -0.00205  0.588
 0.189 -0.0448 -0.523
 0.369  0.171 -0.147
 0.134 -0.0987 -0.890
 0.206 0.0878 -0.694
-0.0917 -0.0826  0.890
0.0354 -0.137 -0.492
-0.230 0.000635 -0.612
 0.174 -0.148 -0.139
 0.142  0.127  0.482
-0.178 0.0353 -0.241
-0.339 -0.00544  0.685
-0.178 -0.109 -0.812
-0.114 -0.0183 0.0513
0.0675 -0.127  0.578
-0.336 -0.0758 -0.0851
 0.113  0.175 -0.231
-0.168  0.132  0.375
-0.0444 0.0936 -0.924
 0.217 -0.119  0.717
 0.335 0.0596  0.296
-0.268 -0.203  0.449
-0.191 0.0484  0.899
0.0500  0.338 0.0251
 0.304 -0.117 -0.256
-0.348 0.00835 0.0539
-0.329 0.0781 -0.737
-0.318 -0.0653 -0.470
-0.190 -0.0282  0.627
-0.0180 -0.112 -0.758
-0.104 -0.0218 -0.369
 0.164 0.0341 0.0751
 0.263 -0.186  0.425
0.0534 -0.0184 -0.367
 0.200 0.0481  0.898
0.00957  0.115  0.658
-0.168  0.120  0.610
0.00336 -0.148 -0.171
 0.282 0.0621 -0.0530
-0.332  0.163  0.514
 0.311  0.160  0.407
-0.258  0.105 -0.347
 0.292 0.0961 -0.459
 0.208 -0.00373 -0.364
 0.323 0.0740 -0.798
 0.346 -0.0400 0.0860
-0.0608 -0.00131  0.186
0.0277  0.123 -0.126
-0.0666  0.268  0.303
-0.275 -0.144  0.225
0.0171 0.0923  0.828
-0.334  0.158  0.161
-0.000146 -0.0740  0.307
-0.0533 -0.0327 -0.108
-0.289 -0.146 -0.254
 0.174 -0.144  0.236
-0.0177  0.113 -0.780
 0.284 0.0303 -0.192
 0.320 -0.0961  0.813
-0.348  0.195 -0.152
0.0775  0.258  0.311
-0.138  0.106 -0.661
0.0876  0.142  0.196
-0.0891  0.233 0.0445
 0.324  0.167  0.695
-0.328 0.0356  0.829
 0.239 -0.00128  0.186
-0.188 -0.0133 -0.481
-0.178  0.147  0.201
-0.229 -0.166 -0.655
-0.136 -0.144 0.000448
0.0155 0.0231 0.0639
0.0568 -0.143  0.107
-0.143 -0.00568 -0.892
0.0996 -0.113 -0.256
-0.00675 0.00531 -0.226
-0.104 -0.139 -0.491
0.0174  0.170 0.00180
 0.174 -0.0477 -0.0322
 0.214  0.112  0.649
 0.184 -0.129  0.518
-0.345 -0.0241  0.182
-0.229 -0.0983  0.514
 0.245  0.159  0.178
-0.203 -0.0435 -0.0472
 0.302 -0.0657  0.568
-0.232 -0.0205 -0.347
-0.242  0.114  0.752
 0.159  0.102 -0.564
-0.332  0.163 0.0218
0.0476 0.00956 -0.940
0.0141  0.127 -0.417
 0.200  0.116 -0.306
-0.0715 -0.137  0.407
-0.202 -0.0371  0.390
 0.297 -0.0777 -0.621
 0.247  0.167 -0.187
 0.263 -0.102 -0.871
-0.348 0.0508 -0.618
 0.343 0.0429  0.524
-0.0506  0.207 -0.198
-0.136 -0.121  0.695
-0.277 0.0945 -0.199
-0.157  0.234 -0.0899
 0.249  0.200 0.0589
-0.125 -0.149 -0.256
0.0885  0.238 -0.117
-0.283 0.0514  0.311
-0.226 -0.120 -0.523
-0.329 0.0704  0.589
-0.280 -0.0341 -0.181
0.0282  0.230  0.118
 0.323 0.0463  0.850
-0.327 -0.0940 -0.356
-0.316 -0.0769 -0.589
0.0996 -0.116  0.717
 0.280 -0.106  0.334
-0.345 0.0203 -0.395
0.0354 -0.125 -0.608
 0.228 0.0628 -0.864
-0.168 -0.100  0.210
 0.132 0.00446 -0.276
 0.246 -0.174 -0.662
 0.200 0.0156  0.471
-0.210 0.0950 0.0981
0.0257 -0.0664  0.900
0.0568 -0.144  0.236
 0.348 -0.0129 -0.288
-0.247 0.0645 -0.886
-0.221  0.127  0.492
0.0354  0.129  0.428
-0.329 0.0886  0.407
-0.147  0.118 -0.352
 0.205 -0.0223 -0.654
-0.221 -0.0595  0.901
-0.239 -0.0130 0.0653
-0.0831 0.0256  0.913
-0.220 0.0981 -0.544
-0.0182  0.125 -0.534
 0.347 0.0164  0.192
-0.123  0.230  0.149
 0.193 -0.0875  0.417
 0.249 -0.145  0.150
 0.239 -0.142 -0.451
 0.332  0.158 -0.0423
-0.319 -0.111  0.424
 0.121  0.124  0.588
 0.232 -0.0544 -0.130
 0.318 -0.115  0.664
-0.117  0.116 -0.202
-0.330 -0.0671  0.793
 0.132 -0.147 -0.0317
 0.339 0.00795 -0.694
-0.253 -0.147 -0.0531
-0.0715 -0.145 -0.0851
0.0675 -0.0472 -0.0321
-0.0715 -0.143  0.268
0.0140 -0.135  0.470
 0.213 -0.141 -0.566
 0.318 -0.114 0.000429
-0.168 -0.113 0.0966
0.0994  0.124 -0.342
-0.104  0.134  0.278
-0.296 -0.117  0.696
 0.121 -0.0608 0.0890
 0.302 -0.0766 -0.505
 0.239 -0.0679  0.888
 0.245  0.113  0.496
 0.164 0.0708  0.173
-0.331 0.0195 -0.823
-0.294 -0.102 -0.864
-0.0245 -0.0713 0.0817
-0.334  0.158  0.770
 0.260  0.106  0.749
 0.206 -0.149 -0.245
 0.119  0.102 -0.748
 0.206 -0.0325 -0.922
 0.185 -0.106 -0.802
-0.0608 -0.124  0.621
0.0695 0.0733 -0.229
 0.110 -0.0835  0.301
-0.234  0.172 -0.116
-0.233 -0.195  0.553
 0.107 0.0835  0.880
0.0355 -0.103 -0.866
-0.313 -0.0662  0.577
 0.260 0.0925 -0.555
 0.260 -0.145 -0.0851
-0.323 -0.107  0.129
-0.136 -0.112 -0.716
 0.196 -0.0983  0.621
 0.328 0.0817  0.642
0.0122  0.210  0.251
-0.124 0.0616  0.137
-0.179 -0.124  0.599
-0.0166 0.0889  0.218
-0.346 0.0186 -0.117
 0.298 -0.140 -0.356
 0.338 0.0599  0.396
-0.0929 -0.148 -0.385
 0.142 -0.139 -0.471
 0.279 -0.00214 0.0218
 0.332  0.158  0.311
0.0692 -0.113 -0.106
-0.0364 -0.0557 -0.300
 0.339 0.0131 -0.479
-0.136 -0.109  0.795
 0.228 -0.0609 0.0891
0.0853 -0.109 -0.773
-0.268  0.125  0.229
 0.310 0.0950 -0.655
0.0782 -0.148 -0.352
0.0888  0.133  0.311
 0.228 0.00558 -0.267
-0.296 -0.139  0.327
 0.279 -0.0342  0.271
-0.221  0.103 -0.449
-0.231 0.0873 -0.673
-0.0821  0.130  0.418
0.0512 0.0732  0.137
 0.173  0.231 -0.182
 0.185 0.0939 -0.174
-0.352 0.0557  0.493
-0.0287 -0.104  0.823
 0.302 -0.115  0.474
-0.286 -0.171 -0.471
-0.00803 -0.0831  0.203
-0.236 -0.0722 -0.426
 0.193 -0.142  0.333
-0.308 0.0147 -0.540
-0.324 0.0880 0.0967
-0.317 -0.00944  0.404
 0.330 -0.0236 -0.833
-0.328 0.0961 -0.277
-0.290 -0.145 -0.139
0.0924 0.000427  0.919
-0.280 -0.0662 0.000429
-0.168 -0.0799 -0.314
 0.222 -0.213  0.522
-0.337 0.0631  0.237
-0.232 -0.111 -0.737
 0.111  0.109 -0.641
-0.222 -0.0599 -0.904
 0.196  0.132  0.407
 0.337 0.0410 -0.384
-0.0715 -0.106 -0.855
-0.193 -0.120  0.428
-0.0420 -0.0755 -0.203
-0.220 0.0322  0.565
0.0247  0.158 -0.210
-0.316 -0.138 -0.660
 0.239 -0.0376 -0.442
 0.136 -0.0662 -0.332
-0.129  0.125  0.519
 0.239 -0.0857 -0.316
 0.132 -0.124 -0.599
-0.110 0.0765 -0.866
 0.344 -0.0471  0.353
-0.0350  0.336 0.0522
-0.199  0.118 -0.267
 0.229  0.103 -0.396
 0.333  0.158  0.161
 0.185  0.138  0.117
 0.164 -0.110  0.787
 0.121 -0.114  0.161
-0.350 -0.0155 -0.676
0.0891  0.118 -0.513
0.0996 -0.134  0.492
-0.192 -0.0527 -0.684
0.0568  0.109  0.737
-0.254  0.117  0.585
-0.280 0.0298 0.000458
0.0461 -0.112 -0.695
-0.0326 -0.0548 -0.00415
0.0534  0.254 -3.75e-05
 0.348 -0.00226 -0.0316
-0.105  0.114 -0.567
-0.0615 0.00869 -0.935
 0.347 -0.0332 -0.203
 0.274 0.0757  0.167
-0.0295 -0.0346  0.983
0.0238  0.105 -0.856
-0.0717  0.126 -0.395
0.0459  0.146 0.0799
-0.00918  0.323 -0.0416
0.0354  0.125  0.556
 0.334 0.0580 -0.122
0.0140 -0.139  0.375
-0.188 -0.0769 -0.588
-0.326 0.0667  0.749
-0.0183 0.0842 -0.194
-0.114 0.0891  0.865
-0.253  0.136  0.375
-0.272 0.0219  0.906
-0.0822 -0.148 -0.171
-0.279 -0.0128 -0.0744
-0.0822  0.122  0.609
-0.200 0.0931  0.826
 0.218 0.0772 -0.780
0.00760  0.301  0.335
-0.233 -0.207 -0.531
 0.316  0.105 -0.229
 0.346 -0.0103  0.623
-0.0430 -0.130 -0.549
-0.270 0.0361 -0.291
-0.0929 -0.145 0.0752
 0.332 0.0671 0.0147
-0.264 0.0710 -0.791
-0.281 -0.0199  0.266
-0.315 -0.0437  0.483
-0.0196 0.0223 -0.362
0.0889 -0.113 0.0325
 0.231 -0.0828  0.203
 0.256 0.0946  0.831
0.0412 -0.0719 -0.213
-0.0501  0.114 -0.695
-0.0172 -0.131  0.547
-0.317 -0.125  0.506
-0.204 0.0944  0.680
 0.271  0.143 -0.112
 0.156  0.187  0.193
-0.275 -0.0494 -0.685
 0.110  0.113  0.675
 0.282 0.0175  0.343
-0.197 -0.0234  0.503
 0.270 -0.110 -0.181
0.0352 -0.0330 -0.106
-0.232 -0.112  0.161
-0.341 0.0302 -0.203
-0.297 -0.0907  0.864
 0.280  0.131  0.246
-0.0287 -0.119 -0.663
 0.252  0.116  0.343
0.0497 -0.0771 -0.310
 0.120 -0.0337 -0.937
-0.200 -0.113 -0.224
-0.305 -0.217  0.520
0.0457 0.0906 -0.935
-0.114 -0.0418 -0.0550
0.0489 -0.0792 -0.942
 0.253 -0.0660 -0.0319
0.0568 -0.108  0.785
-0.280 -0.0661 -0.256
 0.217 -0.175  0.593
0.0662 0.0810  0.244
 0.303 0.0714 -0.896
 0.239 -0.114 -0.716
 0.215 -0.0555  0.514
-0.0323  0.106  0.766
 0.279 -0.00199  0.107
-0.246 -0.0926  0.630
-0.283 0.00872  0.129
 0.153 0.0397 -0.905
-0.224 -0.0608 -0.129
 0.271 0.0152 -0.628
 0.100 0.0126  0.121
 0.249 0.0332  0.544
0.0466  0.111 -0.716
-0.0929 -0.0751  0.201
 0.280 -0.0124 -0.331
-0.168 -0.00101  0.115
-0.282 -0.00465  0.616
 0.270 0.0105  0.907
0.0363 0.0514  0.895
-0.114 0.00697 -0.277
-0.189  0.136  0.278
-0.289  0.142  0.449
 0.324 -0.102  0.129
-0.328 0.0962 -0.384
-0.0344 0.0473  0.120
 0.239 0.0229 -0.525
 0.174 -0.0237  0.917
 0.121 -0.123  0.642
-0.257  0.137  0.145
-0.114  0.103 -0.748
 0.327  0.143  0.482
 0.227 -0.214 -0.590
 0.281 0.0799 -0.726
 0.338 -0.0134  0.802
 0.208 0.0196 -0.166
0.0247 -0.149 -0.245
-0.259  0.151 0.0594
0.0140 -0.123  0.642
 0.266 -0.0628  0.639
-0.00735 -0.146 0.0538
-0.231 -0.105  0.293
0.0784  0.214 0.0611
-0.00669 -0.0988 -0.104
 0.307 -0.195  0.503
 0.117 -0.0336 -0.0893
-0.338 -0.0685 0.0503
-0.0184  0.262 0.0320
-0.168  0.155  0.122
 0.110 -0.148 -0.181
-0.239 -0.111 -0.303
 0.220 -0.192 -0.509
 0.218 0.0988 -0.492
-0.0287 -0.147 -0.427
-0.264 -0.0806  0.378
-0.0840  0.158  0.188
-0.300 0.0908 -0.574
0.0140  0.229 -0.136
 0.258  0.126  0.588
 0.155 0.0982 -0.244
-0.157 -0.146 -0.437
-0.210 -0.113 0.000429
 0.334 -0.0750  0.727
 0.303 -0.152 -0.492
-0.0968 -0.0809  0.303
-0.137 -0.0804 -0.904
-0.210 -0.118  0.707
-0.285 -0.0658  0.206
 0.239 0.0841 -0.227
-0.268 0.00124 -0.476
 0.310  0.105  0.896
0.0462  0.113 -0.289
-0.0365  0.179 0.0709
 0.235 0.0562 0.0838
 0.260 -0.106 -0.791
-0.189 -0.113 -0.0744
-0.0822 0.0524 -0.226
-0.334  0.158  0.588
-0.270  0.129  0.820
-0.0534  0.188  0.291
 0.321 0.0753  0.781
-0.114  0.235 -0.169
-0.354 0.0276 -0.482
0.0782 -0.147 -0.427
-0.297  0.139 -0.136
-0.345 -0.00170 -0.0423
 0.239 -0.110  0.787
 0.212 -0.0874 -0.620
-0.125  0.174 -0.247
 0.303 -0.164 -0.611
 0.239 -0.0291  0.393
-0.332  0.151 -0.0610
 0.281 0.0763  0.439
 0.344 0.0299  0.118
 0.329 -0.0787 -0.331
-0.319 0.0942 0.000488
-0.114  0.112  0.685
 0.142 0.0284 -0.367
-0.275  0.112  0.685
-0.158 -0.0841  0.859
-0.211 0.0208 -0.545
-0.104 -0.0844 -0.131
-0.331 -0.0720 -0.809
 0.184 0.0954  0.823
0.0409 -0.0353 0.0982
 0.196 -0.113 -0.0744
 0.286 -0.108 0.0646
-0.104 -0.111 -0.790
-0.231  0.148 -0.185
0.0247 -0.143  0.300
-0.188 0.0957 -0.608
0.0675  0.126  0.492
0.0786  0.181  0.259
-0.0715 -0.0173  0.109
0.0477 -0.0218  0.970
-0.281 0.0298 -0.149
-0.299 0.0616  0.174
 0.241  0.214  0.133
-0.282 -0.0127  0.343
0.0922  0.214  0.147
-0.339 0.00870 -0.748
-0.166 -0.134  0.492
-0.336 -0.0758 -0.171
-0.178 -0.150 -0.310
0.0778  0.211 -0.182
-0.279 -0.144 -0.406
-0.178 0.0194 -0.370
 0.209 0.0100 -0.588
-0.315 0.0704 -0.905
 0.142 -0.150 -0.299
 0.189 -0.0876 -0.459
 0.157  0.239 0.0495
 0.239 -0.116  0.278
 0.264 0.00551  0.607
-0.315 -0.121 -0.534
-0.284 0.0410 -0.363
 0.334 -0.0233  0.877
 0.345 -0.0313  0.246
0.0867  0.117 -0.177
0.0925 -0.131 -0.542
 0.298  0.105 -0.384
-0.350 0.00636  0.606
-0.0786 -0.111 -0.302
-0.349 -0.00209  0.278
 0.332 0.0721 -0.531
-0.157 -0.0366  0.914
-0.157 -0.0400 -0.134
 0.299  0.136 0.0325
-0.164 -0.0205  0.193
-0.0927 0.0414 0.0782
0.0527 -0.0907  0.171
-0.103  0.125 -0.299
 0.298 -0.0247  0.513
-0.218 0.0861  0.169
0.0887 -0.0109 0.0542
-0.306 0.0169  0.535
 0.271 -0.0613 -0.682
 0.164 -0.111 -0.203
0.0569  0.117 -0.588
-0.230 -0.152 -0.588
-0.156  0.246 0.0481
-0.0638  0.198  0.136
 0.327  0.143  0.770
 0.335 -0.0126 -0.759
 0.142  0.132  0.353
 0.206 -0.00138  0.115
-0.317 -0.0577  0.645
-0.317 -0.195 -0.623
0.0282  0.179  0.193
 0.304 -0.0138 -0.531
-0.332  0.152  0.229
 0.174 -0.100 0.0741
0.00334 -0.142  0.171
 0.306 -0.129 -0.669
 0.121 -0.145 0.0859
-0.146  0.130  0.439
-0.230 -0.162  0.492
 0.206  0.134  0.236
-0.0822  0.134  0.343
 0.279 -0.0554 -0.245
 0.324 0.0995  0.574
 0.270 -0.146  0.623
0.0157  0.140  0.258
 0.348 -0.0126 -0.139
 0.157 -0.0552 -0.139
-0.328 0.0807 -0.149
-0.323 -0.101  0.278
-0.0929 -0.0755 0.0828
-0.303 0.0944 -0.643
 0.302 -0.129  0.545
 0.185 -0.111  0.139
-0.221 -0.0755 0.0828
0.0342 -0.0744 0.0191
 0.160 -0.0816  0.205
0.0684 0.0502 -0.163
 0.164 0.0301 -0.223
-0.107 -0.142  0.335
-0.0495  0.118 -0.619
-0.167 0.0621 -0.895
 0.292 -0.136  0.394
-0.222 0.0802 -0.738
 0.197 -0.100 -0.867
-0.229 -0.0876 -0.641
0.0889 0.00468 -0.226
 0.279 -0.0661  0.161
-0.194  0.210  0.147
-0.314  0.101  0.524
-0.203 0.0161  0.451
 0.332 -0.0862 -0.160
 0.181 0.0944 -0.634
 0.276 0.0513 -0.308
 0.213 -0.152  0.449
-0.125 -0.110 -0.203
-0.317 -0.114 -0.0245
 0.336 0.0507 -0.260
0.0461  0.134  0.364
 0.282 0.0356  0.266
-0.330 -0.0344  0.867
0.0996  0.133  0.417
 0.328 0.0911  0.225
-0.0501 -0.133  0.482
-0.332  0.163  0.375
 0.132  0.104  0.101
-0.347 -0.0439 -0.406
 0.282 -0.0448 -0.181
-0.283 -0.0555  0.118
-0.136 -0.147 -0.0959
-0.341 0.0495 -0.320
 0.185 -0.113 -0.0103
-0.0822 -0.118  0.738
-0.136 -0.144  0.171
-0.0715 -0.144 -0.0103
-0.157  0.116 -0.417
-0.228 -0.0555 -0.513
 0.200 0.0937  0.710
-0.164 -0.120 -0.638
-0.253 0.0836  0.899
0.0780  0.124 -0.406
-0.102 -0.0434 -0.944
0.00301 -0.0127  0.183
-0.233 -0.135 -0.461
-0.136 -0.128 -0.567
-0.340 -0.0533 -0.231
-0.346 -0.00184  0.118
 0.341 -0.0469 0.0218
 0.183  0.156 -0.239
 0.274  0.132  0.674
-0.332 0.0809  0.343
 0.270  0.110 -0.277
 0.274 -0.0860 -0.419
-0.168 -0.136 -0.503
-0.332  0.163 0.0967
-0.337 -0.0130  0.759
 0.344 0.0386  0.460
-0.233 -0.157  0.610
 0.110 0.0964  0.813
 0.282 -0.0127 -0.0530
 0.174 0.0776 -0.833
-0.00735 -0.144  0.236
 0.299 -0.0877  0.873
-0.0393 -0.00821 0.0526
 0.207 -0.0575 0.0222
 0.345 -0.0468  0.182
-0.331 0.0712  0.652
-0.306  0.107  0.289
-0.00735  0.228 -0.0209
0.0416  0.274 -0.0595
 0.353 -0.00123  0.406
-0.291 0.0197 -0.605
 0.312 -0.101 -0.827
-0.0537 0.0761  0.888
-0.281 0.0407  0.417
 0.297 -0.142  0.274
-0.146 -0.141  0.385
-0.0283  0.132 -0.234
-0.334 -0.0678  0.706
 0.196  0.125  0.578
-0.221 -0.146 -0.160
 0.346 -0.0127 -0.352
 0.305 -0.0370 -0.453
-0.278 -0.0986 -0.181
0.0996 0.0418  0.177
 0.345 0.0218  0.346
0.0118 -0.0779 -0.0423
 0.273 0.0415 -0.370
0.0143 0.0998 -0.343
-0.189  0.124  0.546
-0.0724 0.0608  0.173
-0.284 0.0515 0.0646
 0.217 0.0850  0.143
-0.0573  0.232 -0.140
0.0247 -0.148 -0.385
 0.132 -0.141  0.289
-0.226 -0.0661  0.460
-0.0501 -0.149 -0.224
 0.259 0.0880 -0.619
-0.196  0.228 -0.138
 0.101 0.0619 -0.932
 0.206 -0.150 -0.310
 0.110 -0.108 -0.833
-0.157  0.108 -0.535
-0.232 -0.104 -0.856
0.0356 -0.0850  0.257
 0.292 -0.116  0.748
-0.266 0.0990 -0.279
-0.0416  0.147  0.236
-0.0288  0.131  0.449
 0.276  0.130  0.123
 0.321  0.116  0.364
-0.157 0.0559 0.0849
-0.347 0.00830  0.353
-0.264 -0.111 -0.790
-0.300 0.0707 -0.841
-0.330 -0.0862 -0.295
 0.228 -0.0988  0.367
0.0354 -0.0964  0.847
 0.142 -0.0543 0.0317
-0.284 0.0194 -0.224
-0.0387 -0.0879  0.150
 0.312  0.142 -0.157
-0.262 -0.159  0.406
0.0642  0.315  0.294
 0.170 -0.0942  0.298
-0.200 -0.0573 0.0225
 0.181 -0.0654 -0.290
-0.275 -0.143  0.118
-0.248 0.00343 -0.886
-0.339 0.0480 -0.678
-0.168 0.0505  0.178
-0.312  0.107  0.888
-0.0715 -0.112 -0.705
 0.286 0.0823 -0.149
0.0872  0.148  0.124
-0.317 -0.175  0.427
 0.324  0.167  0.225
 0.142  0.136  0.257
-0.232 -0.0907  0.850
-0.280 -0.0235 -0.310
-0.280 -0.0661 -0.106
-0.189 -0.140  0.267
-0.178 -0.146 0.0431
 0.288 0.0181  0.472
-0.114 -0.135  0.450
 0.271 -0.141  0.214
 0.280 -0.0438 -0.899
 0.239 -0.147 -0.363
-0.0288 -0.0900  0.891
 0.334 -0.0718  0.289
-0.0389  0.102 -0.865
-0.183  0.116 -0.201
-0.194 -0.0769  0.556
 0.302 -0.0767  0.396
-0.352 0.0203  0.443
0.0780 -0.142  0.327
-0.238 0.0408  0.106
-0.136 -0.144  0.236
0.0889 -0.0643  0.896
-0.0298 -0.000634  0.915
 0.200 -0.00471 -0.472
 0.279 -0.0447 0.0646
-0.221 0.00797 -0.271
 0.284 -0.101 -0.117
0.0884  0.101 -0.801
-0.316 -0.0568 -0.533
-0.103 0.0986 -0.811
 0.193 -0.0662  0.567
0.00913 -0.0669 -0.164
-0.340 0.0381 0.000389
0.000718 0.0619  0.169
 0.142 -0.0131  0.190
-0.0606  0.124 -0.459
 0.283 0.0519 0.0432
0.0299  0.127 -0.473
 0.228 -0.0363 -0.0748
0.0367 -0.104 0.0687
-0.0501 -0.140  0.321
 0.258  0.119  0.408
-0.346 0.0584 -0.545
 0.193 -0.0234  0.428
 0.326 0.0955 -0.0353
-0.326 -0.0792  0.376
-0.244  0.121  0.289
-0.347 -0.0241 -0.331
-0.0929 -0.102  0.833
-0.146 -0.150 -0.363
-0.00733  0.131  0.385
 0.110 -0.142  0.214
 0.153 -0.130  0.567
 0.163  0.247 -0.128
0.0101  0.262  0.276
-0.330 -0.0518 -0.863
 0.335 0.0674  0.168
-0.341 -0.0610 -0.00670
 0.190  0.224  0.164
-0.277 -0.0461  0.910
 0.303 -0.0233 -0.588
0.0561 -0.103 -0.167
0.00338 -0.0667 -0.256
 0.249 -0.110 -0.235
-0.290 -0.00886  0.186
 0.344 0.0339  0.586
 0.284 0.00129 -0.256
-0.326 0.00713  0.918
 0.282 0.0332  0.209
 0.280 0.0709  0.321
-0.171 -0.0339 -0.351
0.0246  0.131  0.131
-0.150  0.196  0.186
 0.340 0.0311 -0.181
-0.286 0.0769 -0.695
-0.235 -0.0370  0.193
-0.0465 -0.0909  0.278
 0.325 -0.0569  0.648
-0.0501 -0.102 0.0220
0.0782 -0.135  0.439
-0.232 -0.0152 -0.666
-0.171 -0.0940  0.298
-0.216 0.0713 -0.839
-0.0822 -0.123  0.673
-0.219 -0.138  0.360
-0.221 -0.112  0.225
-0.168 -0.117  0.749
0.0118 -0.0755  0.127
-0.315 -0.119 -0.451
 0.260 -0.122  0.673
0.0753  0.129 -0.234
0.0148 -0.126 -0.556
-0.0531 -0.108 -0.139
 0.165 -0.119  0.696
 0.261 0.0646  0.894
-0.301 -0.115  0.640
-0.180  0.244  0.101
 0.312  0.100  0.701
 0.217 -0.0945  0.843
 0.279 -0.0340 -0.106
 0.336 -0.0640 -0.0316
-0.114  0.138  0.116
 0.220  0.224 -0.141
-0.0751 -0.0653 -0.340
0.0996 -0.0553 -0.138
-0.275 -0.109 -0.686
0.0630 -0.112 -0.0174
 0.189 -0.115 -0.662
 0.306 -0.0873 -0.566
-0.00359 0.00314 -0.282
 0.339 -0.0643 -0.267
0.0185 -0.0272 -0.324
 0.228 0.00573 0.0604
-0.0393 0.0909  0.836
-0.264 -0.147 -0.352
-0.0471 -0.0941 -0.0414
-0.321 -0.104  0.752
 0.261  0.101 -0.342
-0.136 0.0967  0.813
-0.00738  0.111  0.716
 0.317 0.0234  0.934
-0.136 0.0484  0.903
 0.324 0.0905  0.501
 0.217  0.101  0.895
-0.232 -0.207 -0.596
-0.157 0.0880 -0.716
 0.325 0.0301 -0.866
-0.314 0.0932  0.834
-0.169  0.109 -0.470
-0.00685 0.0194 -0.945
 0.211  0.105  0.775
-0.198 -0.109  0.652
-0.0929 -0.0346  0.918
-0.337 0.0561 -0.438
-0.315 -0.0661 -0.651
-0.283 -0.0587 -0.901
0.0461  0.120  0.610
-0.210  0.133  0.438
 0.279 -0.113 -0.0423
-0.302  0.151  0.713
0.00609 -0.101 -0.915
0.0675 0.00180 -0.276
-0.329 0.0891 -0.213
 0.186 -0.120 -0.523
-0.243  0.120  0.641
-0.0180 -0.107 -0.813
 0.132 -0.113 -0.139
-0.0246  0.187  0.181
 0.335 -0.0518 -0.705
 0.165  0.107 -0.503
-0.319 0.0945  0.460
-0.0180 -0.116 -0.599
 0.284 -0.0323  0.204
 0.323  0.135  0.631
 0.333 0.0405 -0.737
-0.243 -0.111 -0.117
 0.152  0.120 -0.384
-0.190 0.0987  0.760
-0.284 0.0408 -0.0958
-0.317 -0.116  0.182
-0.275 -0.146 0.000399
0.0461 -0.116  0.728
 0.271 -0.146 -0.288
-0.0180 -0.145  0.107
 0.110  0.124 -0.288
 0.296 -0.146 -0.149
-0.125 -0.107 -0.844
 0.338 0.0307 -0.320
0.0889 -0.138 -0.482
 0.153 -0.110 -0.748
-0.168 0.00343 0.0612
-0.0822 -0.110 -0.245
-0.0608 0.0950 0.0981
-0.125 0.0176  0.185
 0.193 -0.0983  0.471
-0.225 -0.00425  0.910
-0.178 -0.101 -0.866
0.0141  0.128  0.503
-0.125 0.0285 -0.370
 0.281 0.0284 -0.577
-0.304  0.113  0.631
 0.185 -0.0748  0.888
 0.343 0.0209 0.0645
-0.178 -0.113 -0.758
 0.153 -0.0227 -0.896
 0.280 0.0709  0.385
-0.328 0.00868 -0.876
 0.185 -0.148 -0.416
-0.296 -0.105  0.812
-0.317 -0.118 -0.213
 0.331  0.150 -0.0958
-0.189 -0.106  0.812
-0.157  0.108 -0.299
-0.317 -0.171  0.545
 0.314 -0.120 -0.408
-0.232 0.0283 -0.371
 0.152  0.113 -0.330
0.0889 -0.119 -0.663
 0.210 -0.0356  0.627
-0.0607 0.00781 -0.272
-0.0878  0.230  0.100
-0.278 -0.0987 -0.0637
-0.232 0.0940 -0.231
-0.199  0.110 -0.384
 0.174 -0.137  0.407
-0.278 -0.0870 -0.330
-0.299  0.115 0.0538
 0.142  0.161  0.138
 0.196 0.0191  0.524
-0.238 -0.215  0.498
-0.178 -0.147 -0.0317
 0.228 -0.145 -0.0423
-0.125 -0.143  0.118
 0.228 -0.113  0.107
 0.217 -0.146 -0.171
-0.194 -0.0234  0.556
-0.157  0.109  0.717
 0.174 -0.144  0.182
-0.125 -0.150 -0.310
 0.153 -0.149 -0.245
 0.283 0.0519  0.107
 0.196  0.129  0.460
-0.211 -0.145 0.0966
-0.337 0.0537  0.289
 0.132 -0.137  0.449
0.0346  0.109 -0.790
 0.290 0.0725 -0.844
 0.249  0.114 -0.178
-0.136 -0.0464 0.0957
-0.136  0.135  0.321
 0.111  0.113 -0.588
-0.0822  0.128  0.471
-0.188 -0.0556 -0.449
 0.142 -0.140  0.353
 0.282 0.00883  0.396
-0.286  0.100 -0.416
0.0355 -0.106 -0.813
0.0675 0.0923  0.845
0.0532 0.0163  0.182
 0.206 0.0929 -0.587
 0.134 0.0817 -0.163
-0.0932 0.0729 -0.920
0.0889  0.124  0.546
 0.164  0.125  0.535
-0.341 0.0466 -0.0637
-0.242 -0.0121  0.427
 0.231 -0.204  0.463
-0.317 -0.0234 -0.620
 0.185 0.0176  0.184
-0.136  0.104  0.167
-0.104  0.111 -0.620
0.0886 0.0416 0.0779
-0.263 0.0945 -0.480
 0.239 0.0275 -0.219
 0.328 0.0739 -0.427
 0.121 -0.148 -0.396
 0.281 0.0407 -0.117
-0.200 -0.115 -0.695
-0.253 0.0898 -0.598
-0.228 0.00676  0.617
0.0570  0.241  0.264
0.00512  0.197 -0.177
-0.0715  0.107  0.728
-0.345 0.0290  0.161
-0.274  0.133  0.538
-0.0715 -0.113  0.118
-0.136 -0.113 0.0432
 0.273 0.00861 -0.488
 0.227 -0.107 -0.126
0.00506  0.215  0.303
0.0996 -0.113 -0.0637
-0.320 -0.173 -0.523
-0.0510  0.116  0.651
 0.281 -0.211 -0.607
 0.345 0.00551  0.296
0.0782 -0.149 -0.224
-0.220  0.162  0.172
-0.246  0.182  0.122
 0.294  0.105 -0.0842
 0.322  0.107  0.432
 0.154 0.0898 -0.695
0.00486 -0.0369 0.0403
-0.333 -0.0231 -0.791
0.0354 -0.110 -0.759
0.0354  0.112 -0.184
 0.175  0.132  0.195
 0.233 0.00950  0.428
 0.271 -0.146 0.0325
 0.287  0.125  0.540
-0.315 -0.0554  0.428
0.0252 0.0321  0.119
-0.0840  0.135 -0.252
-0.105  0.213 -0.216
 0.332 -0.0862 0.0539
0.0889 -0.0966  0.847
-0.215  0.104 -0.313
-0.0614  0.101  0.250
 0.292 -0.0161 -0.669
-0.248  0.124 -0.128
-0.297  0.106  0.143
-0.317 -0.175  0.492
 0.313  0.193 -0.152
-0.0180  0.248 0.0815
-0.228 -0.0448 -0.588
-0.114 -0.0328 -0.106
0.0568 -0.130  0.528
-0.0360  0.226  0.259
 0.102 -0.105 -0.328
 0.125  0.232 -0.0813
 0.318 -0.110 -0.203
 0.327 0.0813 -0.598
0.0893  0.127  0.246
-0.307  0.108 -0.331
-0.196  0.156 -0.232
 0.174 -0.0686 -0.906
0.0207 0.0593 -0.225
0.0617  0.206  0.300
-0.282  0.138  0.328
-0.114 -0.129  0.578
-0.0529 -0.0210 -0.366
-0.229 -0.0555  0.599
-0.194 0.0273  0.503
 0.105 -0.0324 -0.311
-0.0605  0.112 -0.200
 0.204  0.189 -0.205
-0.311 -0.0334  0.535
 0.123  0.234 -0.175
 0.322  0.106  0.282
-0.221  0.136  0.332
 0.304 0.0229  0.550
0.0176  0.105  0.773
-0.315  0.114  0.788
-0.320 -0.113 0.0788
0.0464  0.107  0.206
 0.274  0.132  0.802
 0.153 0.0642  0.892
-0.200 -0.144  0.182
 0.210 -0.121  0.666
 0.167  0.115  0.677
-0.0646 -0.0434 -0.0472
 0.301 -0.0920  0.618
-0.190 -0.0382 -0.555
-0.286 -0.195  0.578
-0.320 -0.108 0.0254
0.0361  0.302 -0.00730
-0.200 -0.0114 -0.887
0.0354 0.0285 -0.366
-0.310 -0.131 -0.327
 0.331 0.0531 -0.673
-0.193 -0.101 -0.428
 0.282 -0.00199  0.161
-0.114  0.125  0.567
-0.282 0.0789  0.352
 0.278 -0.0727 -0.344
-0.210 -0.148 -0.107
-0.319 -0.133 -0.582
-0.0287 -0.138 -0.502
 0.194  0.107 -0.448
 0.243 -0.144  0.396
0.0853  0.102  0.159
-0.332 -0.0783  0.214
-0.194 -0.123  0.538
-0.226 -0.120  0.578
-0.184 -0.120 -0.559
 0.304  0.123  0.195
-0.317 -0.0976 -0.406
-0.290  0.142  0.182
-0.189 -0.113 -0.278
-0.203  0.222 0.0423
 0.168 0.0827 -0.783
 0.217 -0.0778 -0.690
 0.327 -0.0950  0.343
 0.132 -0.0299 -0.365
 0.199 -0.0490 -0.333
 0.303 -0.146 -0.565
 0.101 0.00867 -0.921
 0.330 0.0823 -0.171
-0.228 -0.172  0.440
-0.208 0.0968  0.593
-0.221 -0.0638 -0.326
 0.296 -0.0320  0.604
0.0778 0.0917 -0.897
 0.297 -0.143  0.125
-0.279 -0.170 -0.660
 0.190 0.0202 -0.525
 0.304 -0.102 -0.454
 0.336 0.0267  0.746
-0.302  0.125  0.383
-0.0222 -0.0270 -0.940
 0.174 -0.110 -0.267
 0.260 -0.183 -0.482
 0.266 0.0714 -0.783
0.0490  0.257 0.0487
-0.157  0.117  0.662
-0.253 -0.123  0.673
 0.222 0.0622 -0.186
 0.316 -0.115 -0.0815
 0.132 -0.112  0.246
-0.189 0.00874 -0.636
-0.0180  0.123  0.557
-0.0381  0.276 -0.0103
-0.221  0.137  0.236
0.0801 -0.0994 -0.910
 0.189 -0.0876 -0.577
-0.0333 -0.0478  0.926
 0.184 -0.125 -0.608
-0.305 0.00925  0.459
 0.212 -0.0447 -0.566
-0.336 -0.0232  0.813
-0.313  0.126 -0.180
 0.271 -0.101  0.822
-0.00849 0.0859  0.873
 0.249 -0.143  0.342
0.0675  0.103  0.791
 0.145 -0.132 -0.553
 0.319  0.115  0.139
-0.347 -0.0164 -0.446
-0.0287 -0.137  0.439
 0.321 -0.0575 -0.866
 0.304 -0.191  0.451
-0.136 0.0527 -0.227
 0.253  0.186 -0.0990
-0.0612  0.120 -0.513
-0.0608 -0.127  0.568
-0.0717 -0.111  0.225
 0.279 -0.0888  0.208
-0.224 -0.0328 -0.0893
 0.213 -0.109  0.556
-0.0512  0.102 -0.813
-0.312 -0.0223 -0.490
-0.348 -0.0234 -0.0851
-0.0288  0.127 -0.374
 0.196 -0.142 0.0860
 0.217 -0.144  0.214
 0.231 -0.0661 -0.899
0.0782 -0.141  0.278
-0.345 -0.0242 -0.139
 0.271  0.183  0.112
 0.128 0.0572 -0.204
-0.319 -0.111  0.593
 0.281 -0.0982 -0.298
0.0996 -0.143  0.129
0.0892  0.108 -0.695
-0.282 0.0511 -0.0423
-0.283 -0.0768 0.0753
-0.0180 -0.148 -0.128
-0.0823  0.125 -0.342
0.0445 0.00625  0.908
-0.322 -0.0789  0.525
 0.204  0.236 0.0515
 0.258 -0.145 -0.407
-0.280 -0.113  0.261
 0.344 0.0257 -0.637
-0.274 -0.202 -0.508
-0.0822 -0.110  0.787
-0.279 -0.0128 -0.0209
 0.228  0.136  0.278
 0.303 -0.112 -0.716
 0.343 0.0209 0.0111
0.0568 -0.124  0.663
-0.337 0.0297  0.717
-0.285 0.0619  0.129
-0.187 -0.0769 -0.523
 0.276 0.0324 -0.898
-0.264 -0.111 -0.235
 0.280 -0.0957  0.110
-0.205  0.211 -0.0947
 0.293  0.155 0.0753
-0.278 -0.0989  0.161
-0.203  0.129  0.143
-0.179 0.0883  0.877
-0.136  0.109 -0.245
-0.0246 0.0461  0.919
 0.333 -0.0640  0.781
-0.338 -0.0686  0.168
0.0576  0.128 -0.363
-0.280 -0.0233 0.0432
0.00335 -0.112 -0.716
-0.329  0.145  0.424
-0.317  0.106  0.717
0.0592  0.182  0.108
-0.271  0.129  0.893
 0.336 0.0502 -0.0432
 0.141  0.205 -0.208
0.0675 -0.148 -0.160
 0.335 0.0249 -0.525
-0.325 -0.0958 -0.687
0.0314  0.211 0.0624
-0.254 0.0233 -0.525
-0.122 -0.0789 -0.324
-0.219  0.201 -0.169
-0.146  0.106 -0.589
-0.0714 -0.0567 0.0223
0.0503 -0.0965 -0.267
0.0135 -0.0526  0.961
-0.273 -0.106 0.0254
-0.323 0.0314  0.878
 0.348 -0.0211 -0.447
 0.278 -0.0959  0.263
-0.0174  0.137 0.0745
-0.210 -0.149 -0.256
0.00340  0.104 -0.898
-0.0345 -0.142  0.365
 0.102  0.235  0.106
 0.291 -0.142  0.171
-0.282 0.0359 -0.898
 0.143 0.0298  0.126
-0.246 -0.0317 -0.446
 0.196  0.109 -0.363
0.0319  0.113 -0.236
-0.0394 -0.113  0.769
0.0816 -0.120 -0.607
 0.258  0.119  0.204
-0.243 -0.111  0.107
 0.262 0.0788 -0.684
-0.339 0.0458  0.118
-0.125 -0.119 -0.663
 0.114 -0.0829  0.203
-0.0419  0.142  0.177
-0.192 0.0246 -0.587
-0.345 0.00938  0.214
-0.338 0.0483  0.375
-0.210 -0.0173  0.109
-0.204 -0.0725  0.204
 0.164 -0.145 -0.0851
-0.296 -0.114 -0.737
 0.132 -0.113 0.000429
 0.282 -0.0662 -0.0736
-0.0366  0.140  0.281
 0.301 -0.0649  0.461
-0.179 0.0893 -0.674
-0.0822  0.103  0.791
 0.330 0.0309  0.792
 0.305 0.0601  0.906
-0.294 0.0993  0.200
 0.332  0.158  0.887
-0.265 0.0910 -0.535
-0.233 -0.179 -0.495
-0.303  0.188 -0.157
-0.0395 0.0343 -0.239
0.0521 -0.0952  0.118
-0.345 -0.0242 0.0218
0.0120  0.220 0.0198
-0.104 -0.113 -0.0210
-0.328 0.0807 0.0432
-0.283 -0.0126 -0.257
-0.168 -0.0375 -0.0751
 0.217 0.0386 -0.901
-0.114 -0.115  0.278
 0.318  0.164  0.118
-0.305  0.114  0.567
-0.0786  0.126  0.539
-0.236 -0.121  0.399
-0.178 -0.0608 0.0888
-0.0180 -0.147 -0.0531
-0.253 0.0529 -0.226
-0.114  0.132  0.375
 0.174 -0.144 0.0219
-0.319 -0.141 -0.491
 0.249 -0.145 -0.138
-0.229 -0.0876 -0.556
-0.334  0.158  0.834
-0.0501 -0.150 -0.288
 0.228 0.0419  0.177
 0.217 -0.111 -0.203
-0.0821  0.114 -0.662
 0.303 0.0965 -0.502
0.0568 -0.144 0.0432
 0.121  0.117 -0.481
0.0211  0.206  0.156
-0.282 -0.0448  0.311
-0.157 -0.113 -0.245
 0.282 -0.0129 -0.149
 0.217 0.0950 0.0981
 0.327 -0.0639  0.843
0.0251  0.121 -0.556
 0.283 0.0304 -0.0210
-0.229 -0.0769 -0.470
0.0782 -0.114 -0.726
-0.157 0.0761 -0.854
-0.181 0.0281  0.587
0.0677  0.105 -0.760
-0.264 -0.115  0.728
0.0461 -0.139  0.407
 0.132  0.118  0.631
0.000821 -0.0553  0.169
 0.306 -0.142  0.438
-0.0929 -0.132 -0.534
-0.199 0.0616  0.137
-0.335 0.0531 -0.267
 0.250 -0.201  0.575
-0.130  0.244 0.0918
-0.0287 -0.122  0.684
-0.0144  0.129 -0.190
-0.114  0.119  0.641
-0.114 -0.123  0.642
-0.125 -0.0446  0.195
-0.232 -0.146 0.0218
-0.0179 0.0490 0.0784
-0.328 0.0287 -0.577
0.0568  0.115 -0.650
-0.276  0.133  0.774
 0.239 -0.0874 -0.445
0.0566 -0.0341 -0.939
 0.217 -0.0134  0.913
-0.105 0.00876 -0.910
0.0105  0.167 0.0966
-0.0372 0.0260  0.980
 0.238 0.0816 -0.737
-0.0467 0.0908  0.142
 0.260 -0.212 -0.533
-0.103  0.122 -0.438
-0.104 -0.145 -0.428
0.0960 -0.0537 -0.349
0.0447 -0.0153 0.0492
-0.0822 -0.150 -0.342
 0.137  0.220  0.170
-0.0608 -0.139 -0.471
 0.217 -0.162  0.492
-0.264 -0.122  0.363
0.0441  0.198 -0.145
-0.211 0.0399 -0.885
 0.182 -0.0113 -0.147
 0.249 -0.0170 -0.658
-0.280 -0.00204 0.0860
-0.314 -0.0138 -0.577
 0.346 0.00946 -0.415
0.0303  0.337  0.324
 0.189 -0.0448 -0.620
 0.228 -0.113 0.000429
-0.307 0.0973  0.246
-0.329 0.0891 -0.0959
-0.0287 -0.146 0.000379
-0.243 0.0992  0.803
 0.132 -0.150 -0.352
-0.0717 -0.110 -0.203
 0.327 0.0844  0.332
-0.0394 -0.148 -0.181
0.0996  0.110  0.727
 0.261  0.174 -0.141
-0.264 -0.145  0.182
-0.230 -0.152  0.535
 0.305 -0.111 -0.778
-0.0608 -0.144 0.0325
-0.0930  0.134  0.236
 0.174 -0.0372 -0.0750
 0.142  0.131  0.407
-0.282 -0.0235 -0.117
 0.347 0.0150  0.253
 0.348 -0.0126 -0.0744
 0.215 -0.0235  0.556
 0.271 -0.212  0.480
 0.317 0.0855 -0.751
0.00224 -0.104 0.0150
 0.196 -0.112 -0.758
-0.0296  0.285  0.286
0.0426 -0.0280  0.194
-0.221 -0.109 -0.780
-0.284 0.0707 -0.128
0.0351  0.228 -0.0318
-0.0501 -0.101 -0.0846
 0.282 -0.0448 0.0120
 0.174 0.00527 -0.267
 0.310 -0.0984  0.514
-0.145  0.228 -0.199
-0.228 -0.0448  0.524
 0.124  0.128 -0.233
-0.114  0.123 -0.384
 0.131  0.140  0.195
 0.216 -0.120 -0.481
-0.113  0.107 -0.704
0.0250 0.0947  0.250
 0.132 -0.00387 0.0580
-0.275 -0.212 -0.600
-0.0706  0.108 -0.747
 0.142 0.0908  0.855
-0.0822 0.0194 -0.370
 0.331  0.150  0.268
 0.215 -0.0876 -0.523
-0.304 -0.212  0.473
-0.0608 -0.113 -0.748
-0.254  0.117  0.414
-0.278 0.0223  0.583
0.0996 -0.129  0.536
-0.282 -0.113 -0.295
 0.333 0.0745 0.0575
-0.136  0.240 -0.127
-0.146 -0.130  0.536
-0.0608 -0.0462  0.197
-0.200  0.117  0.642
-0.227 -0.162 -0.534
-0.125 -0.144 -0.0423
 0.205 0.0535 -0.227
-0.246  0.114  0.193
 0.276 0.0724 -0.257
-0.317 -0.108 -0.629
 0.117 -0.0437 -0.0472
 0.196 -0.115 -0.705
-0.329 0.0128 -0.641
0.0659  0.169 -0.203
-0.221 -0.0784  0.373
-0.243 -0.120 -0.408
 0.327  0.143 0.000429
 0.313 -0.110  0.706
 0.332 0.0741 -0.0816
 0.223  0.128  0.134
 0.217 -0.110 -0.288
0.0325 0.0168  0.991
-0.0822 -0.113 -0.663
-0.343 -0.0544 -0.694
 0.321 -0.0581  0.899
 0.293  0.145  0.321
 0.196 -0.115  0.759
 0.216 -0.152  0.535
-0.332 -0.0783 -0.128
-0.0494  0.167 -0.221
-0.323 0.0993 -0.438
-0.188 -0.109 -0.470
 0.280  0.136  0.631
-0.0362 -0.0828  0.236
-0.316 -0.0867  0.460
-0.303  0.110 -0.245
-0.0715 -0.148 -0.128
 0.132 -0.0225 -0.151
0.00335 -0.109  0.795
0.0675  0.111  0.696
 0.132 -0.100 0.0739
 0.318  0.164  0.599
 0.138 -0.0636 -0.288
 0.142 -0.132  0.492
0.0568 -0.142  0.150
 0.228 0.0336 -0.370
 0.271 -0.148 -0.245
-0.114 -0.114  0.193
0.0140 -0.119 -0.663
 0.135 -0.107 -0.297
-0.290 -0.145 -0.0744
 0.185  0.133  0.353
 0.328 0.0740 -0.470
 0.174 0.0950 0.0981
-0.0929  0.104  0.167
0.0889 -0.113 -0.203
-0.0180 -0.148 -0.363
-0.103 0.0797 0.0937
-0.168 0.0950 0.0981
 0.247 -0.0652 0.0342
-0.336 0.0261  0.571
-0.228 0.00813 -0.490
-0.0188  0.124 -0.492
 0.324 0.0843 -0.701
-0.275 -0.0584  0.644
 0.121 0.0850  0.143
0.0331 0.0439  0.951
 0.174  0.120 -0.213
 0.328 0.0176  0.887
 0.176 -0.0982  0.837
-0.293 -0.129  0.393
 0.281 0.0778  0.271
 0.172 -0.134  0.460
-0.0180  0.215 -0.0865
 0.260 -0.0760  0.390
-0.264 -0.216 -0.559
-0.286 0.0801  0.432
-0.305 0.0832 -0.787
-0.275 -0.162  0.611
0.0576  0.244 -0.0853
-0.221 -0.149 -0.299
0.0143  0.119 -0.599
-0.275 -0.144  0.289
-0.0712 -0.104 -0.897
0.0610 -0.0947  0.289
0.0354 0.00485 -0.226
-0.333 0.0396  0.781
-0.288 -0.0373 -0.459
 0.219  0.192  0.182
 0.345 -0.0127 -0.245
-0.157 -0.148 -0.171
0.0675 -0.127  0.620
-0.184 -0.117 -0.601
 0.313 -0.118  0.311
-0.146 -0.114  0.139
-0.132  0.145  0.159
0.0737  0.174  0.154
-0.00658 0.0971 -0.942
 0.293  0.145  0.845
 0.295 -0.197 -0.500
 0.311 0.0991 -0.555
-0.329 -0.0922  0.335
-0.331 0.0813 -0.0423
-0.340 0.0618  0.444
 0.215 -0.0234  0.471
 0.237 -0.0646 -0.352
-0.0729 0.0905 -0.888
-0.265 0.0846  0.166
-0.157 -0.115  0.257
 0.244 -0.0228 0.0949
 0.212 -0.0603  0.386
-0.240 -0.0242 -0.916
-0.335 0.0714  0.193
 0.146 -0.120 -0.638
0.0182 -0.0498 -0.941
 0.313  0.113 -0.128
 0.301 -0.0339 -0.494
 0.116 -0.0732 -0.925
0.00432  0.253  0.319
 0.297 -0.146 -0.203
-0.0822 0.0940 -0.231
-0.326 0.0923 -0.609
 0.337 -0.0720  0.246
-0.225 -0.0126  0.471
-0.0109 -0.140 -0.463
 0.164 -0.146 -0.181
 0.111 0.0641 -0.892
-0.0606 -0.0448 -0.939
0.0782 -0.147 -0.0745
0.0597 -0.113  0.206
-0.0131  0.329  0.312
-0.328 0.0843 -0.694
0.0447 -0.0783 -0.0673
 0.187  0.241 0.0969
 0.299  0.136 -0.0316
 0.132 -0.0246  0.105
0.0326 0.0522 -0.942
 0.321 -0.110 0.0860
 0.293  0.144  0.887
-0.246 -0.0584 -0.0221
 0.281 -0.0768  0.300
 0.214 -0.184 -0.566
 0.132  0.110 -0.193
 0.200  0.163  0.205
-0.00386 -0.0345 -0.0933
0.0921 0.000477 -0.149
-0.325  0.137  0.470
0.0247 0.0952  0.165
-0.0929 0.0642  0.892
 0.327 -0.0741 -0.801
 0.142 -0.0492  0.911
-0.326 -0.0995 -0.249
-0.243 -0.113 -0.0317
 0.196 -0.0218  0.190
0.0565 -0.109 -0.228
 0.248  0.108  0.160
0.0778 -0.0470 0.0379
-0.136 -0.143  0.300
 0.220 -0.131  0.617
 0.239  0.132  0.460
-0.0432  0.187  0.245
0.0149 -0.119  0.683
-0.286 0.0706 -0.00314
 0.308 -0.0766 -0.675
 0.279  0.138  0.364
 0.125 0.0854 -0.791
-0.0152  0.114  0.256
 0.260  0.105  0.899
 0.306 -0.152  0.578
0.0500  0.278  0.280
 0.279 -0.0662  0.343
-0.193 -0.119  0.385
0.0679  0.121 -0.459
 0.281 -0.135 -0.448
 0.293  0.145  0.749
 0.113  0.235 0.0565
-0.336 -0.0219  0.643
0.0568 0.0606  0.175
 0.131  0.118 -0.523
 0.291 -0.146 -0.0210
-0.253 -0.0729  0.880
-0.200 -0.0253 0.0473
0.0133  0.118 -0.694
 0.242 -0.0215 -0.342
 0.268 -0.134 -0.684
 0.164  0.110 -0.289
-0.278 -0.101 -0.416
-0.283 0.0514  0.210
-0.346 -0.0440  0.375
-0.00387 -0.106 0.0582
-0.266 0.0814 -0.652
-0.299  0.137 -0.0960
-0.252  0.124 -0.212
-0.185  0.112 -0.342
-0.0504  0.101 -0.337
-0.309 -0.134 -0.381
 0.334 0.0588 -0.210
-0.0408 -0.0756 -0.160
 0.247  0.114  0.536
-0.197 -0.0769  0.503
 0.249 -0.112  0.182
-0.00718 -0.0797  0.268
 0.280 -0.0870 -0.0102
 0.341 0.0394 -0.449
 0.214 -0.150 -0.659
-0.189 0.0729 -0.231
 0.335 0.0431  0.710
-0.132 -0.111 -0.302
-0.317 0.0356  0.493
 0.337 -0.0548 -0.362
 0.121 -0.122  0.684
-0.316 -0.117 -0.149
0.0575  0.148  0.235
-0.257  0.137 0.0968
-0.0238 -0.0253 -0.323
-0.320 -0.114  0.229
-0.313 -0.0791  0.899
-0.311 0.0197 -0.924
-0.315 -0.150 -0.618
-0.157 0.0170  0.916
 0.197  0.144  0.160
-0.264 -0.215  0.529
 0.174 0.0533  0.134
 0.306 -0.0827 -0.893
 0.249  0.110  0.696
0.00335 -0.0367  0.914
-0.0394 0.0316  0.179
-0.335 0.0690  0.535
-0.267 0.0218  0.544
0.0996 -0.113 0.0966
 0.153 -0.113 0.0432
 0.206 -0.112  0.193
 0.340 -0.0543  0.685
 0.249 -0.0266 -0.918
 0.239 -0.0984  0.649
-0.232 0.0502  0.903
-0.304 -0.110 -0.788
0.0579  0.180 0.0598
 0.196 -0.112  0.246
 0.332 -0.0862 -0.235
 0.200 -0.0439 -0.439
0.0136  0.132 -0.278
 0.239 -0.113 -0.0744
 0.301 -0.108  0.582
-0.342 -0.0131 -0.715
-0.344 -0.0350 0.0967
-0.339 0.0635 -0.502
 0.274 0.0959 -0.203
-0.336 0.0720 -0.352
-0.0194  0.286 -0.0518
 0.345 -0.0313  0.311
 0.293  0.106  0.310
 0.217 -0.105 -0.834
 0.283 0.0725  0.209
-0.0717  0.145  0.151
 0.294  0.104 0.0111
 0.153 -0.114  0.749
-0.339 -0.0511  0.742
-0.119  0.142  0.207
 0.228 -0.0445  0.195
 0.185 0.0193 -0.887
-0.246 -0.0903  0.205
-0.306 -0.0292 -0.661
 0.217 0.0282  0.566
 0.203 0.0941  0.601
 0.304 -0.112 -0.522
 0.174  0.103  0.153
 0.305 0.00695  0.586
0.0889  0.131  0.460
 0.271 -0.143 0.0753
-0.284 0.0782 0.0931
-0.0354 -0.0714 -0.256
 0.234 -0.000446 -0.491
-0.278 -0.0987 -0.128
 0.260 -0.110 -0.748
-0.0715 -0.109 -0.812
-0.256  0.121  0.856
-0.228 -0.0448 -0.641
 0.104  0.177  0.190
-0.338  0.160 -0.139
-0.280 -0.0769  0.343
-0.228 -0.00218  0.514
 0.164  0.121  0.600
 0.190 -0.00141 -0.620
-0.197 -0.0710  0.644
-0.168 -0.148 -0.396
-0.234 -0.0373  0.633
-0.243 0.0281 -0.566
0.0464 -0.0336  0.904
 0.317 -0.115 -0.299
-0.0287 -0.128  0.599
0.0354 -0.140  0.343
-0.314 0.0696  0.876
0.0889 -0.149 -0.267
 0.299  0.103  0.765
-0.201  0.101 -0.492
-0.146 -0.113 -0.0210
-0.347 -0.00142 -0.363
 0.312  0.116 -0.192
-0.00724  0.132 -0.342
 0.228  0.223 0.0819
 0.167 -0.0911 -0.128
0.0777  0.120 -0.555
-0.186 -0.0109  0.920
0.0354 -0.145 -0.138
-0.200 -0.149 -0.192
 0.239 -0.141  0.246
-0.293 -0.0190  0.933
0.0782 -0.146 0.0111
-0.00887  0.123 -0.138
-0.232 0.0871 -0.631
0.0461 -0.146 -0.203
 0.164 -0.145 0.0645
 0.110 -0.146 -0.138
 0.320  0.128  0.727
 0.186 -0.0555 -0.481
-0.283 -0.0448 -0.0530
-0.242  0.170 -0.154
 0.279 -0.0768 -0.203
-0.282 -0.0555 -0.213
-0.0394  0.121  0.589
-0.241 -0.0985 -0.0742
 0.218 -0.195 -0.623
-0.178 -0.144  0.150
 0.217  0.133  0.375
-0.125 -0.148 -0.192
 0.196 -0.149 -0.203
-0.0501 -0.143 0.0860
-0.0824 0.0948 -0.844
 0.332 -0.00198 -0.801
 0.279 -0.0235 -0.213
 0.107 0.0497 -0.172
-0.0715 -0.113 0.0539
-0.283 0.0301  0.278
 0.164 -0.113 -0.160
-0.114 -0.111 -0.748
-0.168 -0.123  0.673
 0.260 -0.148 -0.192
-0.232 -0.143  0.300
0.0354 -0.144 -0.0530
0.0889 -0.142  0.182
0.0247  0.133  0.300
0.0996 -0.146 0.0538
 0.164 -0.113 -0.0423
0.0208  0.307 -0.0601
-0.189 -0.113 0.0646
-0.282 0.00880  0.396
-0.0287 -0.143  0.268
-0.283 -0.0341  0.150
0.00436 -0.0401 -0.130
-0.284 -0.0981  0.107
-0.210 -0.114  0.129
-0.189 -0.148 -0.139
-0.139 -0.100 -0.127
-0.0287 -0.142  0.204
0.0318  0.168  0.279
-0.297  0.107 -0.0285
 0.226  0.199 -0.170
 0.331 -0.0795  0.204
-0.238  0.106 -0.383
-0.178  0.134  0.417
0.0781  0.131  0.385
-0.232 0.0347  0.503
 0.327 0.0504 -0.833
0.0675  0.117  0.642
-0.254 0.0786 -0.716
-0.135 0.0830 -0.797
-0.00887  0.189  0.278
 0.152 -0.127  0.620
-0.287 0.0783 -0.317
-0.189  0.183  0.183
 0.238  0.111 -0.309
 0.186 -0.0768 -0.662
-0.146 -0.124  0.621
-0.211 0.0129 0.0641
-0.257 -0.0824 -0.885
 0.194 -0.0673  0.643
-0.0391  0.122 -0.566
 0.333 0.0437  0.644
-0.0247  0.209  0.149
-0.325  0.137  0.545
 0.297 -0.146 -0.0959
 0.245  0.112  0.621
0.0675 -0.108 -0.833
0.0996 -0.0523 -0.0120
-0.328 0.0587 -0.871
-0.190 -0.0335 -0.116
 0.303 -0.159  0.517
 0.228 0.0866 -0.641
-0.286 0.0788 -0.358
 0.347 -0.00676 -0.659
0.0354  0.127  0.471
-0.168  0.130  0.470
-0.264 -0.146 -0.299
0.0466 -0.000961  0.114
-0.281 -0.00824 -0.900
 0.255 0.00874 -0.361
 0.164 -0.107 -0.833
-0.230 -0.130 -0.641
-0.329 -0.0704  0.831
0.0139  0.115 -0.759
-0.115  0.101 -0.326
-0.253 -0.146 -0.224
0.00335 -0.107 -0.844
 0.356 0.0407 -0.552
 0.210  0.130 -0.235
-0.0929 -0.134  0.492
 0.315  0.105 -0.349
-0.188 0.0147 -0.515
 0.125  0.246 -0.128
-0.234 0.0727  0.127
0.0722 0.0320  0.910
 0.283 0.0721 0.0753
-0.285 0.0607 -0.184
 0.330 0.00941  0.845
 0.292 0.0955  0.118
-0.0395 -0.102 -0.876
-0.192 -0.0185 -0.667
 0.228 -0.114  0.150
-0.114 -0.113 0.0966
-0.196 -0.0386 -0.921
-0.339 0.0298  0.634
-0.146 -0.00236 -0.367
-0.0501 -0.143  0.129
 0.300 -0.0153  0.932
 0.249 0.0994 -0.470
-0.125 -0.0670  0.899
0.0495 -0.0745  0.205
-0.244 -0.0874 -0.684
 0.142 -0.147 -0.427
-0.329 0.0676 -0.812
 0.226 -0.215 -0.548
0.000709 -0.0964  0.169
-0.307  0.151  0.122
-0.339 0.0543 -0.106
-0.178  0.101 -0.566
 0.175 -0.0333 -0.114
 0.153 0.0863 -0.748
 0.297 -0.110  0.785
-0.0171  0.115 -0.672
-0.118 -0.0502 -0.348
 0.231 -0.00479  0.586
-0.264 -0.0978  0.831
 0.110 0.00720  0.186
 0.285 -0.113 0.0218
 0.213 -0.0982  0.503
 0.267 -0.0224 -0.468
-0.253 -0.145 -0.106
-0.342 -0.0457 -0.192
0.0675 -0.137 -0.512
0.0145 -0.0428 -0.0552
-0.306 0.000278  0.569
 0.297 0.0885 -0.620
 0.337 0.0598 0.0967
-0.254 -0.148 -0.677
-0.287 0.0847 0.0361
-0.253  0.109  0.717
-0.221 -0.113 -0.256
-0.209 -0.138 -0.410
-0.0622  0.305  0.298
 0.316 -0.115 -0.0388
-0.0408 0.0106  0.118
 0.265  0.168  0.148
 0.303 -0.118  0.363
 0.154  0.106 -0.600
-0.135 0.0239 -0.250
 0.155 -0.143  0.319
-0.136 -0.125 -0.608
-0.190 -0.0181 -0.610
-0.209 0.0863  0.899
 0.201 0.0850 -0.246
 0.249 -0.112  0.225
-0.0180 0.0952  0.165
-0.323 -0.106  0.674
0.0283 -0.141 -0.456
-0.346 -0.0438  0.214
 0.196 -0.0234  0.514
 0.167 -0.0563 0.00318
-0.322 0.0973 -0.545
 0.271 -0.210  0.547
 0.304 -0.133  0.615
 0.239 0.0944 -0.525
-0.289  0.105 -0.150
 0.196 -0.0553 -0.138
 0.189 -0.0127 -0.566
0.00706 -0.0602 -0.292
-0.157 -0.149 -0.235
-0.253 0.0186 -0.256
 0.302  0.124  0.457
-0.00612 -0.0419 0.0946
 0.304 -0.184  0.546
-0.0625  0.211 0.0566
-0.297 -0.0657  0.393
 0.333 0.0731  0.443
-0.0252  0.115  0.677
-0.240 -0.0423  0.406
-0.232 -0.141  0.246
 0.237 -0.108 -0.415
-0.0392 -0.0464 0.0371
 0.329 0.0633  0.610
 0.185 -0.106 -0.306
-0.337 0.0560 -0.395
-0.315 -0.109  0.556
0.0417 0.0842  0.879
-0.345 0.0189  0.407
-0.194 -0.0662  0.599
0.0782 0.00861 -0.367
 0.299 -0.189 -0.637
-0.321  0.129 0.0111
 0.290 -0.148 -0.321
 0.271 -0.140  0.300
0.0625 -0.111 -0.302
-0.291 0.0877  0.396
-0.0299 -0.0726 -0.0744
0.0996 -0.111  0.278
 0.246 -0.0871 0.0635
 0.239  0.111 -0.257
0.00335 -0.129  0.578
0.00338  0.107 -0.214
-0.286 0.0683 -0.875
-0.210 -0.0939 -0.884
 0.341 -0.0469 -0.128
0.0491  0.239 -0.136
0.0275  0.311  0.299
-0.108 0.0683  0.171
-0.284 0.0194 -0.320
-0.278 0.0834 -0.245
0.0268  0.243 -0.105
-0.329 0.0880  0.139
0.0818 -0.0351 -0.0825
 0.327  0.143  0.439
 0.206 -0.105  0.803
 0.299  0.111  0.658
-0.0181 -0.0940  0.857
 0.320 0.0933  0.392
 0.178 0.0503 -0.197
 0.186 -0.0875 -0.502
 0.178 -0.142 -0.466
 0.174 0.00871 -0.368
 0.235 0.0200  0.122
-0.316 -0.0864 -0.513
0.0622  0.123  0.177
 0.300 -0.0537 -0.554
 0.142  0.157 -0.243
 0.292 0.0172  0.430
 0.168 0.0673 -0.157
0.0866 -0.0739 -0.317
 0.278 -0.00309 -0.892
 0.215 -0.0769 -0.481
-0.190  0.224 -0.173
 0.112  0.100 -0.253
-0.189 -0.0947 -0.643
-0.230 -0.173 -0.620
0.0889 0.0405 -0.224
 0.249 -0.142  0.107
 0.196 -0.140  0.268
-0.0288  0.101  0.801
-0.178 -0.0843 -0.131
 0.174 -0.115  0.214
 0.318  0.164  0.343
0.0680 -0.0397 -0.132
 0.110 0.0454  0.131
 0.301 -0.101 -0.863
0.0162 -0.0362  0.993
-0.311 -0.0896 -0.833
-0.105 -0.0853 -0.920
-0.157 0.0296 -0.906
 0.206 0.0119 -0.218
-0.343 -0.0534  0.289
-0.343 0.0394  0.321
 0.342 -0.0273  0.383
 0.330  0.164  0.799
 0.309 0.00107 -0.499
-0.0298  0.255  0.308
0.0234  0.178  0.241
 0.306 -0.173 -0.523
-0.321  0.129  0.204
 0.305 -0.0448 -0.652
-0.271 -0.217  0.486
-0.283 0.0803  0.267
-0.231 0.0790 -0.780
-0.142 -0.0501 -0.922
 0.260 -0.114  0.364
-0.321  0.166  0.621
 0.201 -0.0448  0.908
-0.321  0.129 0.0967
-0.286 -0.111  0.200
0.0353 -0.0777  0.307
 0.195 0.0648 -0.890
 0.332 0.0722 -0.288
0.0782 -0.103  0.814
-0.00483 0.0218  0.182
-0.327 0.0856  0.684
-0.0180 -0.138  0.396
-0.335 0.0506 -0.758
-0.294 0.0820 -0.745
-0.349 0.0195 -0.448
 0.175 0.0132  0.120
-0.229 -0.00194 -0.524
-0.244  0.194 0.0655
-0.265 0.0662 -0.845
-0.0120 -0.0704 -0.951
 0.142 -0.108 -0.781
 0.316 -0.109 -0.342
 0.101  0.194 -0.204
-0.0552 -0.101 -0.278
-0.211 0.000318  0.416
0.0707 -0.101 0.0771
0.0319  0.124 -0.324
 0.206  0.109 -0.203
-0.321 -0.194 -0.588
 0.162 -0.0444 -0.341
-0.189 -0.0773  0.874
-0.168  0.118  0.168
0.0454  0.198 -0.180
-0.0496 -0.103 -0.235
