ply
format ascii 1.0
element vertex 2048
property float x
property float y
property float z
end_header
-0.231 -0.0676 0.0271
 0.340  0.782  0.522
0.0826 -0.682 -0.587
 0.310 0.0829 -0.538
-0.375  0.695  0.251
 0.166 -0.682  0.266
 0.237 0.0981  0.507
-0.268 -0.138 -0.591
-0.314  0.198  0.510
-0.228 -0.665 -0.125
 0.306 -0.0709 -0.0236
0.0898  0.477  0.202
-0.0389 -0.268  0.410
 0.221 -0.650 -0.168
 0.179 -0.300 -0.405
-0.0756  0.710  0.543
-0.0508 0.0863 -0.315
-0.169 -0.311 -0.271
0.0819 -0.366 0.0245
0.0760 -0.142 -0.721
 0.370  0.419  0.422
0.0485 0.0882  0.184
-0.182 -0.641  0.225
0.0237  0.374  0.529
-0.327  0.345  0.198
 0.345  0.684  0.213
-0.349 -0.0359 -0.282
-0.0774 -0.398 -0.572
-0.0591  0.754  0.220
-0.180 -0.657 -0.430
-0.332  0.543  0.536
-0.0687 0.0221  0.484
 0.326  0.189  0.232
-0.113 0.0779 -0.737
 0.350 0.0838 -0.258
-0.239 0.0765  0.281
0.0981 0.0867 -0.0997
 0.193  0.571  0.538
0.0567 0.0328 -0.538
-0.324  0.789  0.488
-0.0800 -0.201  0.174
0.0817 -0.616 0.0327
-0.208 0.0865 -0.505
 0.183 -0.549 -0.390
0.0492 -0.468  0.290
 0.223 -0.251 -0.166
-0.175  0.535  0.205
 0.140  0.777  0.388
-0.0612 -0.492 -0.120
 0.339 -0.126 -0.373
-0.139 -0.274 -0.0374
-0.117  0.253  0.192
-0.216 0.0867 -0.141
 0.329  0.435  0.202
 0.214 -0.0121  0.297
 0.272 -0.129 -0.588
 0.112 -0.146 0.0490
-0.199  0.374  0.530
 0.173 0.0810 -0.705
-0.372  0.386  0.405
 0.115 -0.436 -0.216
0.0183 -0.0760  0.314
 0.140  0.675  0.211
 0.189 0.0328 -0.373
-0.300 -0.179 -0.147
-0.307 -0.194 -0.401
 0.156  0.287  0.194
 0.230  0.295  0.527
0.0934 -0.283 -0.585
-0.101 0.0867 0.0575
-0.177 -0.458 -0.398
 0.213 0.0861 0.0571
-0.151 -0.590 0.0395
-0.118 -0.128 -0.716
 0.385  0.617  0.429
-0.0247 -0.679  0.332
0.0974 -0.495 -0.557
-0.175  0.777  0.372
-0.0818 -0.585 -0.585
-0.0591  0.204  0.521
-0.372  0.510  0.273
 0.346  0.216  0.413
-0.165 -0.558 -0.252
-0.174 -0.284 -0.477
 0.336 -0.113 -0.199
-0.225 0.0863 -0.315
-0.158  0.551  0.538
-0.117 -0.0148  0.198
-0.00520 -0.483  0.115
0.0562 -0.604 -0.175
0.0760 -0.266  0.172
 0.106  0.718  0.543
0.0989 0.00803  0.470
-0.340 -0.0307 -0.449
-0.340  0.195  0.344
-0.0591 0.0328 -0.0997
-0.0167  0.826  0.397
-0.225  0.749  0.217
-0.242 0.0115 -0.647
-0.339 -0.0113 -0.100
-0.0260  0.593  0.207
 0.369  0.764  0.367
0.0326  0.578  0.539
 0.323 0.0702 -0.104
0.0988  0.211  0.521
 0.204 -0.679  0.115
-0.388  0.659  0.430
-0.0550 -0.252 -0.647
-0.0757  0.402  0.199
-0.189 -0.0147  0.395
0.0981 0.0328 -0.249
0.0193 0.000621 -0.754
0.0246 -0.0612  0.157
-0.258  0.195  0.188
 0.239  0.774  0.273
-0.275 -0.0102  0.162
-0.0242 -0.335  0.275
 0.273 -0.00990  0.160
-0.0666 -0.343  0.130
-0.247 0.0848 0.0311
 0.363  0.316  0.302
-0.101 0.0328 -0.596
0.0636 -0.604  0.192
 0.211 -0.673 -0.314
 0.280  0.452  0.533
-0.0662 -0.554  0.259
0.0650 0.0328 0.0492
 0.164 -0.679 -0.465
-0.0839 0.0328 -0.447
 0.239  0.568  0.206
 0.220 -0.207 -0.0280
-0.183  0.130  0.518
 0.272 -0.234 -0.299
 0.198 -0.0607 -0.689
-0.0988 -0.102 0.0676
0.0572 -0.223  0.306
 0.274 -0.210 -0.467
-0.0591 0.0425  0.322
-0.216  0.692  0.544
 0.352 0.0550 -0.405
 0.219 -0.679 -0.0255
-0.0740 -0.418 -0.000917
-0.0350 -0.610 -0.0494
-0.216 -0.682 -0.297
0.0166 -0.396  0.404
-0.353 0.0838 -0.373
 0.369  0.551  0.264
-0.347 0.0850 -0.216
 0.111 -0.348 -0.108
0.00153 -0.104  0.448
 0.230 0.0328 -0.216
 0.214  0.129  0.186
-0.316  0.778  0.339
0.0236  0.311  0.195
-0.106 -0.365 -0.133
 0.173 0.0863 -0.497
 0.161 -0.319 -0.263
-0.330  0.353  0.526
0.0589 -0.473 -0.0511
 0.255 0.0885  0.372
-0.286 -0.213 -0.273
-0.241 -0.192 -0.0285
0.0485 0.0328 -0.381
0.0650  0.773  0.256
 0.147 -0.409 -0.473
0.00707 0.0863 -0.646
-0.274  0.105  0.410
-0.125 0.0328 -0.216
-0.0641 -0.604  0.140
 0.115  0.469  0.534
-0.299  0.593  0.207
 0.206  0.789  0.504
 0.331  0.578  0.538
 0.329 -0.0528 -0.477
-0.199  0.371  0.198
-0.138 -0.433 -0.236
 0.168 -0.542 -0.262
-0.0610 -0.177  0.297
-0.0841 -0.621 -0.166
-0.0757  0.113  0.185
 0.148 -0.0139  0.173
 0.351  0.312  0.495
-0.173 -0.215 -0.619
-0.382  0.518  0.397
-0.194 -0.271 -0.149
0.0650 0.0425  0.322
 0.177 -0.183 -0.644
 0.197  0.402  0.199
-0.0757  0.461  0.533
-0.131 -0.502 -0.510
0.0154  0.105  0.517
 0.255  0.676  0.543
 0.305  0.303  0.195
-0.0730 -0.219 0.0471
 0.192 -0.0570 0.0408
-0.366  0.315  0.309
-0.340  0.684  0.542
 0.180 -0.404 -0.346
-0.331 0.0766 -0.498
 0.197 0.0328 -0.0666
-0.158  0.651  0.209
 0.265 -0.00244 -0.613
-0.158  0.788  0.511
 0.255  0.777  0.388
-0.167  0.246  0.523
-0.210 -0.682 0.0772
-0.128 -0.677 -0.534
-0.00120  0.789  0.504
 0.186 -0.258 -0.523
 0.302  0.197  0.516
 0.372  0.444  0.306
 0.124 -0.267 -0.0161
-0.0419 -0.441  0.230
 0.306 0.0253 0.0369
 0.291 -0.178 -0.115
 0.385  0.659  0.314
0.0321 -0.408 -0.588
-0.232 -0.268 -0.354
0.0366 -0.582 -0.605
-0.191 -0.564 -0.369
-0.299  0.452  0.201
 0.349 -0.0282 -0.323
0.0623 -0.149  0.225
 0.147 -0.574 -0.490
-0.179 0.0777  0.190
 0.140 -0.623 -0.0749
0.0724 -0.629  0.298
-0.167 -0.0163 0.0985
-0.142 -0.620 -0.0665
 0.342 -0.00259 -0.182
-0.299 -0.0213 -0.561
-0.362  0.279  0.413
 0.123 0.0865 -0.604
0.0815  0.585  0.207
0.00708 0.0867 -0.224
0.0420 -0.370  0.125
-0.261 -0.205 -0.507
-0.0450 -0.554 0.0417
 0.172 -0.0177  0.396
-0.219 -0.0901 -0.672
-0.208 0.0328 -0.406
-0.175 -0.0165  0.289
-0.304 0.0843 -0.0679
-0.175 -0.352 -0.385
-0.0757  0.777  0.322
-0.00946  0.195  0.188
-0.0625 -0.0376  0.391
-0.175 0.0328 -0.0252
-0.343 -0.133 -0.323
 0.380  0.517  0.380
-0.113 -0.287 -0.567
0.00707 0.0863 -0.464
0.0154 0.0425  0.413
-0.147 -0.400 -0.479
 0.123  0.179  0.188
-0.0218 -0.175 -0.712
-0.0257 -0.500 -0.600
-0.0826 -0.0363 -0.748
-0.0225 -0.667 -0.612
 0.255 0.0863 -0.315
-0.313 -0.00350 -0.000926
-0.319 -0.118 -0.497
 0.272  0.105  0.273
0.0419 -0.165  0.120
0.0236  0.692  0.211
 0.173 -0.591 0.0684
-0.220 -0.682 -0.0252
-0.0260 0.0354  0.140
-0.361  0.452  0.503
-0.0513 -0.424  0.335
-0.0178 0.0863 -0.000409
-0.0383 -0.115  0.215
-0.314 -0.120 -0.0660
-0.346 -0.0934 -0.199
0.0825 -0.0288  0.248
0.0671 -0.230 -0.666
-0.0674  0.593  0.539
-0.345  0.221  0.248
-0.241 0.0328 -0.232
 0.105 -0.0505 0.0882
0.0811 -0.249 0.0737
0.0668 -0.495 -0.148
-0.266  0.469  0.534
 0.372  0.683  0.503
-0.120 -0.679  0.308
0.0181 -0.183  0.390
 0.255 0.0863 -0.422
 0.247  0.692  0.211
-0.164 -0.166 0.0259
-0.266 0.0860 -0.588
0.0154  0.676  0.542
0.0505 -0.326  0.347
 0.177 -0.620  0.188
0.0898 0.0328 -0.695
 0.107 -0.0525 -0.738
-0.183 0.0865 -0.662
-0.387  0.610  0.347
 0.230 0.0867 -0.604
 0.124  0.374  0.530
-0.190 -0.483 -0.307
 0.247  0.220  0.190
-0.375  0.760  0.413
0.0318 -0.515  0.196
-0.101  0.777  0.430
-0.0682 -0.0443  0.286
-0.372  0.419  0.298
 0.156 0.0328 -0.158
-0.0839  0.510  0.203
-0.00685 -0.308 -0.589
-0.142 0.0328 -0.340
-0.191 -0.635 -0.207
 0.115 0.0328 -0.447
-0.00403 -0.0895 -0.752
 0.173 0.0862 -0.265
-0.0178 0.0860 -0.555
-0.0913 -0.514 -0.205
0.0565 -0.0371  0.389
-0.117 0.0425  0.405
-0.0750  0.368  0.530
0.0154  0.477  0.534
-0.0177 0.0425  0.240
 0.328  0.179  0.331
 0.339 -0.0617 -0.109
 0.368  0.519  0.479
 0.190 0.0561  0.240
 0.363  0.760  0.262
-0.274  0.279  0.526
-0.198 0.0582  0.463
 0.115  0.618  0.540
0.0147 -0.0106  0.501
 0.156  0.138  0.518
 0.284 -0.197 -0.207
 0.171 -0.631 -0.243
 0.295  0.133  0.446
-0.0493 -0.281  0.203
-0.249  0.777  0.438
0.0899  0.780  0.464
0.0733  0.386  0.198
0.00821 -0.557 -0.108
-0.0282 -0.492 -0.0369
-0.147 -0.599 -0.496
-0.101 0.0867 -0.0418
-0.00115 -0.540  0.319
-0.167 -0.619  0.124
0.00709  0.510  0.203
-0.150 0.0328 -0.116
0.0478 -0.552  0.101
 0.107 -0.350 -0.530
-0.165 0.0130 -0.708
-0.0886 -0.317 0.0491
 0.264 0.0863 -0.0418
 0.310 -0.137 -0.498
 0.362  0.301  0.397
0.0149 -0.379  0.207
-0.191 0.0328 -0.580
-0.0343  0.287  0.526
 0.167 -0.283 -0.0896
-0.142  0.171  0.187
-0.117 0.0862 -0.530
-0.299 0.0328 -0.166
-0.0611 -0.0493  0.125
0.0154 0.0867 -0.125
 0.140  0.287  0.526
 0.334 -0.137 -0.281
 0.196 0.0578  0.430
 0.160 -0.491 -0.449
-0.390  0.725  0.330
 0.106 0.0328 -0.0335
0.0240 -0.558 -0.00889
-0.0525 -0.258  0.324
-0.253  0.769  0.537
0.0650  0.777  0.347
-0.316  0.744  0.215
-0.0674 0.0867 -0.182
 0.176 -0.459 -0.281
-0.178 0.0773 0.0921
0.0147 -0.464 0.0306
-0.241  0.278  0.193
 0.197 0.0328  0.124
-0.0756  0.121  0.517
0.0570 -0.620 -0.0585
-0.256  0.579  0.539
 0.313  0.518  0.204
 0.173  0.759  0.223
-0.0425 0.0328 -0.687
 0.156  0.776  0.306
-0.300 0.0242 0.0770
-0.241  0.667  0.210
-0.299 0.0328 -0.414
 0.302 -0.200 -0.389
 0.349  0.408  0.516
-0.0471 -0.412 0.0869
 0.122 -0.344 -0.191
-0.0929 -0.345 -0.0368
0.0816 0.0328  0.132
-0.326  0.175  0.424
0.0961 -0.530 -0.217
-0.264  0.106  0.208
 0.185 0.0515  0.348
 0.280  0.361  0.529
 0.131 0.0885  0.184
 0.140 -0.626 -0.166
-0.207  0.776  0.293
-0.251 -0.0109  0.241
 0.280 -0.148 -0.0347
-0.206 0.0598  0.364
-0.0394 -0.163  0.108
-0.348 -0.0300 -0.364
 0.206  0.217  0.522
 0.131 0.0867 0.0575
 0.213 -0.282 -0.331
-0.375  0.610  0.266
-0.208  0.452  0.201
 0.371  0.759  0.450
-0.137 -0.319 -0.196
 0.102 -0.599 -0.560
-0.304  0.139  0.297
0.0650 0.0328 -0.174
 0.230  0.477  0.202
-0.169 -0.533 -0.445
-0.227 -0.260 -0.243
-0.264  0.132  0.512
 0.212 -0.133 0.0216
-0.0337 0.0789 -0.754
0.0617 -0.557  0.259
 0.272 0.0328 -0.480
-0.374  0.601  0.484
-0.225 0.0867 -0.0583
-0.246 -0.223 -0.102
 0.186 -0.640 -0.399
0.0181 -0.261  0.248
-0.185 -0.252 -0.549
 0.247 -0.0134 0.0825
-0.134 0.0863 -0.274
-0.109 -0.617  0.206
-0.347 -0.102 -0.397
 0.288 0.0863 -0.207
-0.282 0.0328 -0.323
-0.150  0.769  0.236
 0.389  0.692  0.404
 0.131 0.0865 -0.373
 0.280  0.788  0.471
 0.157  0.561  0.206
 0.140 -0.0193  0.322
 0.356  0.370  0.235
 0.206  0.477  0.534
 0.318 0.0235 -0.0412
0.0793 -0.418 -0.123
 0.322  0.609  0.208
-0.0844 -0.268  0.124
0.00710 0.0328 -0.0583
-0.360 0.0463 -0.282
-0.200 -0.0138  0.182
0.0900 -0.616  0.115
 0.155 0.0558  0.496
-0.347  0.270  0.502
-0.0998 -0.195 -0.682
-0.0402 -0.532  0.176
-0.125  0.651  0.541
 0.160 -0.129 -0.696
-0.0511 -0.351  0.357
 0.330 0.0867 -0.340
-0.00945 0.0328 0.0658
-0.0260 0.0328 -0.364
 0.208 0.0236 -0.669
-0.240 -0.251 -0.427
 0.346 -0.0443 -0.249
-0.173 -0.158 -0.670
-0.181 -0.408 -0.314
0.0816 -0.388 -0.0508
0.0322 -0.294  0.414
 0.106 0.0425  0.240
 0.298 -0.0609 -0.567
 0.237 -0.193 -0.573
0.0485 0.0867 -0.729
-0.0260 0.0328 -0.265
-0.249 0.0328 -0.472
 0.345 -0.0359 -0.406
 0.288 0.0328 -0.273
 0.255 0.0178  0.228
 0.288  0.754  0.220
 0.206 0.0867 -0.141
-0.0364 -0.615  0.294
 0.140 0.0328 -0.555
0.0402  0.295  0.527
-0.0839  0.789  0.504
-0.0874 -0.474 -0.566
-0.0757  0.328  0.196
 0.224 -0.257 -0.241
-0.349 -0.0192 -0.207
 0.156 -0.651 0.0283
 0.189 0.0328 -0.447
 0.173  0.684  0.543
-0.00119  0.402  0.199
0.0154  0.179  0.520
 0.222 -0.679 -0.0999
-0.0734 -0.426 -0.0748
0.0418 -0.152  0.321
0.0530 -0.392  0.314
0.0981 0.0425  0.388
-0.0922  0.684  0.211
-0.127 -0.0129  0.453
 0.264 0.0328 -0.149
-0.191  0.618  0.540
-0.134 0.0349  0.140
-0.148 -0.0610 -0.725
-0.315 -0.169 -0.219
-0.134  0.312  0.527
 0.149 -0.316 -0.470
-0.0177 0.0328 -0.174
 0.189 0.0867 -0.0170
0.0567 0.0867 -0.0253
 0.221 -0.121 -0.655
-0.134 0.0859 -0.389
 0.200 -0.599 -0.339
-0.262 -0.0552 -0.625
-0.0674 0.0328 -0.530
-0.0844 -0.618 0.0326
-0.358  0.414  0.227
-0.0674 0.0867 -0.646
 0.313  0.777  0.323
 0.280 0.0328 -0.356
-0.210 -0.630 0.0237
0.0236 0.0860 -0.340
-0.203 -0.632 -0.347
-0.0994 -0.425 -0.176
-0.00665 -0.114  0.377
 0.129 -0.682 -0.527
0.0815  0.237  0.191
 0.164 0.0328 0.0244
0.0149 -0.0745  0.239
-0.313  0.163  0.222
 0.181 -0.467 -0.385
-0.292 -0.0763 -0.00783
-0.324  0.667  0.210
-0.191  0.444  0.533
-0.175  0.303  0.195
-0.150 0.0328 0.0410
0.0816  0.130  0.518
 0.297  0.270  0.525
 0.288  0.378  0.198
-0.150 0.0867 -0.166
0.0733 0.0328 -0.315
-0.164 -0.0852 0.0410
-0.307  0.245  0.192
-0.114 -0.598 -0.225
 0.218 -0.261 -0.448
 0.372  0.394  0.355
-0.382  0.725  0.473
 0.115 0.0867 -0.207
-0.354  0.771  0.281
-0.233 0.0354 0.0989
-0.142 0.0425  0.306
0.0141 -0.305  0.188
-0.0436 -0.489  0.298
 0.164 -0.371 -0.417
-0.0707 -0.225  0.238
-0.132 -0.225 0.0104
-0.200 -0.679  0.146
 0.301 0.00566 -0.548
 0.167 -0.294 -0.158
 0.297  0.733  0.543
-0.0241 -0.616 -0.123
-0.150 -0.302 -0.0993
-0.346  0.502  0.210
0.0830 -0.317 0.0742
 0.190 -0.510 -0.325
 0.239  0.320  0.195
-0.0840 0.0425  0.223
0.0650 -0.106 0.0833
 0.321  0.659  0.542
0.0428 -0.482 -0.596
-0.00118  0.774  0.273
-0.283  0.403  0.531
 0.222  0.411  0.532
0.0280 -0.446  0.360
0.0671  0.773  0.534
0.00344 -0.449  0.174
 0.111 -0.603 -0.225
 0.259 -0.0457 0.0180
 0.358  0.254  0.331
-0.142 0.0762  0.513
-0.125 -0.0199  0.372
0.0319 0.0328 -0.613
 0.239 0.0328 -0.00868
 0.119 -0.185 -0.680
 0.206 0.0328 -0.522
-0.142 0.0328 -0.497
0.0374 0.0772 0.0921
 0.364  0.485  0.251
0.0567 0.0860 -0.580
-0.337 -0.0954 -0.124
0.0852 -0.0320  0.157
 0.134 -0.623  0.258
-0.0343  0.535  0.536
-0.323 0.0860 -0.133
-0.175 0.0425  0.248
 0.338 0.0818 -0.465
-0.0402 -0.541 -0.160
-0.307 0.0867 -0.282
 0.156  0.778  0.455
0.0583 -0.342 -0.575
-0.142  0.718  0.543
0.0650 0.0863 -0.497
-0.0260 0.0863 -0.406
0.0485  0.162  0.187
-0.265 -0.218 -0.209
-0.00947  0.121  0.185
 0.121 -0.208 0.0262
-0.378  0.452  0.388
 0.247  0.610  0.540
 0.364  0.353  0.437
 0.255 -0.250 -0.372
-0.242 -0.137 0.00842
 0.154 -0.0110 -0.717
-0.232 0.00511  0.315
 0.156 0.0328 -0.629
 0.156  0.477  0.202
 0.353  0.262  0.264
-0.0757  0.179  0.188
-0.324  0.749  0.541
-0.282 -0.225 -0.343
 0.110 -0.416 -0.534
-0.0842 -0.651 -0.588
 0.167 -0.394 -0.277
 0.177 -0.342 -0.324
 0.286  0.128  0.213
-0.193 -0.625 -0.275
0.0722 -0.218  0.216
 0.216 -0.679 -0.240
-0.141 -0.367 -0.240
-0.207 -0.624 -0.0666
-0.133  0.360  0.197
-0.291  0.634  0.541
-0.0922 0.0867 -0.116
0.0689 -0.426 0.000109
-0.0839 0.0328 -0.298
-0.0513 -0.194  0.359
-0.0508 0.0863 -0.497
-0.0649 -0.334 -0.575
 0.173 -0.0172 0.0904
-0.225  0.576  0.206
0.0448 -0.423 0.0710
0.0815 0.0867 -0.654
0.0899 -0.622 -0.116
-0.175 0.0862 -0.439
0.0567 0.0863 -0.265
 0.214  0.733  0.543
 0.131 0.0425  0.306
-0.193 -0.292 -0.401
 0.104 -0.319 -0.0477
-0.0500 -0.551  0.106
-0.360  0.320  0.462
 0.135 -0.243 -0.614
-0.224  0.217  0.522
0.0415 -0.426  0.241
-0.0674 0.0328 -0.0335
-0.183 0.0867 0.00784
-0.216 0.0328 -0.0914
-0.249 0.0867 -0.199
 0.187 -0.682  0.202
0.0521 -0.682  0.326
-0.241 0.0865 -0.398
-0.125 -0.320 -0.515
-0.0177 0.0328 -0.489
 0.222 0.0328 -0.307
-0.142  0.187  0.520
-0.0430 0.0140 -0.748
-0.361  0.254  0.347
-0.258  0.345  0.529
-0.0504 -0.395  0.279
-0.195 -0.549 -0.308
-0.0204 -0.0397  0.457
 0.271 0.0349  0.115
-0.198 -0.237 -0.0390
 0.140  0.378  0.198
 0.156 0.0328 -0.224
-0.115 -0.623  0.269
0.0402 0.0328 -0.464
-0.167 0.0328 -0.273
-0.291  0.774  0.264
 0.264 0.0328 -0.0749
 0.189 -0.0124  0.240
0.0702 -0.0403  0.314
-0.00945  0.733  0.543
 0.188 -0.621 -0.0168
-0.391  0.597  0.419
 0.337 -0.103 -0.431
 0.317 -0.179 -0.331
 0.264 -0.0768 -0.623
 0.371  0.587  0.482
0.0179 -0.270 -0.632
-0.00828 -0.118  0.160
-0.0257 -0.599 -0.608
-0.322 0.00437 -0.498
-0.150 -0.651 0.0288
-0.243 -0.195 -0.565
-0.0175 -0.119  0.286
-0.325 -0.0581 -0.509
-0.0260  0.411  0.531
-0.284  0.112  0.350
-0.0691 -0.0962 -0.743
 0.247 0.0867 -0.497
 0.326  0.245  0.200
-0.364  0.557  0.230
 0.308  0.149  0.388
 0.133 -0.286 -0.537
-0.177 -0.342 -0.323
-0.346 -0.0949 -0.265
-0.280 -0.180 -0.0740
0.0396 -0.188 -0.701
 0.250 -0.220 -0.101
-0.117 -0.0157  0.264
-0.202 -0.0335 -0.689
 0.236 -0.224 -0.514
-0.151 -0.499 -0.241
-0.116 -0.618 -0.546
0.0650 0.0697  0.512
-0.176 -0.596 -0.435
-0.283 0.0328 -0.538
-0.0197 -0.326  0.418
 0.181  0.353  0.529
-0.250 0.0327  0.198
-0.133  0.776  0.293
-0.109 0.0328 -0.695
-0.108 -0.160 0.0514
0.00475  0.790  0.352
 0.144 -0.486 -0.237
-0.344  0.605  0.537
 0.137 -0.0840 0.0492
-0.258  0.386  0.198
 0.128 -0.474 -0.509
 0.382  0.568  0.347
0.0787 -0.186  0.165
-0.0260  0.253  0.192
-0.116 -0.0473 0.0886
 0.150  0.781  0.527
-0.224 -0.249 -0.490
0.0817 -0.287 0.0222
 0.115 0.0863 -0.315
-0.142 -0.622 -0.150
-0.150  0.436  0.200
-0.0425  0.777  0.446
-0.0839  0.609  0.208
-0.0508 0.0863 -0.240
 0.211 -0.665 0.0570
 0.222  0.777  0.331
-0.316 0.0328 -0.224
-0.200  0.154  0.187
 0.379  0.558  0.425
-0.117  0.411  0.531
 0.264  0.634  0.209
-0.372  0.370  0.347
 0.156 -0.616  0.132
-0.332 0.0864 -0.439
-0.353  0.279  0.232
 0.123 0.0328 -0.0914
-0.125 0.0867 -0.604
0.0499 -0.235  0.364
-0.0694 -0.0413  0.223
 0.345 0.0225 -0.290
-0.274 0.0865 -0.464
-0.291 0.0860 -0.364
-0.0343 0.0425  0.380
 0.115 0.0328 0.0823
0.0319  0.618  0.208
 0.173 0.0867 -0.571
 0.222  0.777  0.438
 0.189  0.237  0.191
-0.0922 0.0328 -0.373
0.0256 -0.592  0.300
 0.173  0.626  0.208
 0.148  0.518  0.536
 0.197 0.0863 -0.398
-0.0917 -0.282 0.00100
0.0716 -0.192 0.0572
 0.304 -0.191 -0.273
-0.388  0.667  0.314
-0.118 -0.619 0.0901
-0.192  0.782  0.462
-0.0499 -0.502  0.235
 0.350 0.0727 -0.200
-0.303 -0.170 -0.472
-0.369  0.419  0.454
 0.327 0.0245 -0.455
 0.230 0.0863 -0.240
 0.214 0.0864 -0.662
-0.283 -0.159 -0.537
-0.228 -0.139 -0.640
 0.189 -0.625 -0.125
 0.374  0.477  0.429
0.0519 -0.0272  0.458
0.0562 -0.556  0.159
-0.111 -0.432 -0.533
-0.0839 0.0862 -0.422
 0.178 -0.248 -0.0368
 0.329 -0.115 -0.132
-0.0839 0.0328 0.0741
-0.126 -0.250 -0.613
-0.0298 -0.0572  0.346
-0.349  0.226  0.444
 0.127 -0.647 0.0787
-0.221 -0.679 -0.231
-0.175 0.0860 -0.348
-0.200 0.0328 -0.191
-0.216  0.303  0.527
-0.0260 0.0328 -0.621
0.0154 0.0328 -0.695
0.0319 -0.320  0.292
 0.115 0.0862 -0.546
 0.189 0.0328  0.182
 0.106  0.560  0.538
-0.277 0.0160 -0.600
 0.288  0.510  0.536
-0.0259 -0.442 -0.595
-0.0315 0.0810 0.0900
0.0988  0.717  0.213
 0.144 0.0352  0.442
0.0637 -0.0920 -0.747
0.0324 -0.648 -0.612
0.0650  0.777  0.405
 0.156 0.0328 -0.282
 0.107 -0.0211  0.413
0.0319 0.0863 -0.406
-0.0260 0.0649  0.510
-0.125 0.0867 -0.662
0.0981 0.0328 -0.629
 0.143 -0.632 -0.502
-0.0840 -0.621 -0.108
0.0733  0.345  0.528
-0.167 -0.0123  0.231
-0.324 -0.170 -0.280
 0.355  0.728  0.536
-0.167 -0.397 -0.421
0.00525 -0.235  0.427
 0.347 -0.0857 -0.323
 0.175 -0.201 0.00673
-0.0127 -0.359  0.142
-0.00662 -0.222 -0.682
 0.354  0.271  0.455
-0.341 0.0214 -0.340
0.0733  0.403  0.531
-0.0987 -0.536 -0.562
-0.164 -0.674  0.272
0.0236  0.749  0.217
-0.0136 -0.364 -0.589
-0.225 0.0328 0.0244
-0.284 0.0760 -0.0152
0.0218 -0.534 0.0429
 0.260 -0.108 0.00519
 0.115 0.0867 -0.0170
 0.325 -0.0275 -0.0654
0.00703 0.0332  0.189
-0.210 -0.284 -0.300
-0.188 -0.507 -0.365
-0.304  0.147  0.468
-0.0177 0.0328 -0.422
 0.235 0.0825  0.209
-0.196 -0.682 -0.382
 0.387  0.725  0.330
0.0650 0.0867 -0.158
0.0650 0.0867 0.0327
 0.131 0.0860 -0.439
 0.178 -0.235 -0.578
-0.380  0.560  0.298
-0.208 0.0328 -0.522
0.0774 -0.541 -0.583
 0.280 0.0601 -0.599
0.0746 0.00627 -0.742
-0.142 0.0467  0.455
 0.118 -0.661  0.306
-0.368  0.535  0.495
 0.246 0.0825  0.430
-0.266 -0.0140  0.107
 0.282  0.132  0.500
0.0736 -0.325  0.129
-0.157 -0.451 -0.457
 0.349  0.491  0.523
-0.191 0.0328 -0.637
 0.115 -0.616  0.173
-0.0508 0.0867 -0.0666
-0.258 0.0860 -0.257
 0.313 0.0328 -0.224
 0.139 0.0867 -0.158
 0.140 0.0328  0.132
 0.164 0.0867 -0.0666
-0.125 0.0867 0.00784
-0.303 -0.102 -0.547
 0.255  0.427  0.200
0.0485  0.436  0.200
0.0306 -0.509 -0.0923
-0.189 -0.280 -0.208
-0.323 -0.177 -0.351
 0.239 0.0328 -0.422
0.0402 0.0328 -0.224
 0.174 -0.599 -0.435
-0.0812 -0.0321  0.339
 0.330  0.784  0.423
-0.291 0.0328 -0.0831
 0.164  0.411  0.532
-0.191 0.0353  0.157
-0.110 -0.0211  0.137
-0.0676 -0.164  0.244
 0.228 0.0371  0.277
0.0567 0.0425  0.463
-0.224 -0.0214 0.0558
-0.216 0.0328 -0.323
-0.331 -0.130 -0.441
 0.289  0.120  0.322
0.0925 -0.450 -0.168
-0.241  0.527  0.536
-0.113 -0.374 -0.192
 0.230  0.744  0.215
-0.0766 -0.384 0.0505
-0.258  0.777  0.314
0.0729 -0.370 0.0793
 0.337  0.241  0.504
 0.342 0.0141 -0.356
-0.345 0.00506 -0.158
 0.190 -0.594 -0.286
-0.0201 -0.467  0.346
 0.247 0.0354  0.173
 0.156 0.0867 -0.654
 0.131 -0.0131  0.231
-0.00932 -0.544 -0.0487
0.00389 -0.408  0.124
-0.0781 -0.565 -0.197
-0.0188 -0.0699  0.405
0.0485  0.718  0.543
-0.0698 -0.574  0.191
 0.113 -0.549 -0.543
-0.318 -0.0437 -0.0418
 0.159 -0.296 -0.214
 0.243 -0.0361 -0.650
 0.379  0.610  0.296
 0.262 -0.216 -0.158
 0.232 0.0372 0.0754
 0.288 0.0867 -0.141
-0.0425 0.0584  0.194
 0.312 -0.0114 -0.00115
0.0445 -0.131  0.272
-0.125  0.726  0.213
-0.187 -0.266 -0.0820
-0.365  0.375  0.270
 0.104 0.0622 -0.737
 0.173 0.0860 -0.340
 0.156 0.0328 -0.489
-0.150 0.0862 -0.489
-0.0299 -0.264  0.276
-0.157 -0.651 -0.477
-0.0674  0.777  0.388
-0.385  0.552  0.356
-0.109 -0.618 -0.0252
 0.222 -0.0137  0.173
-0.0343  0.477  0.202
-0.0922 0.0328 -0.174
-0.117  0.518  0.536
 0.123  0.518  0.204
-0.207 -0.628 -0.157
 0.222 0.0867 -0.0749
-0.282 0.0328 -0.265
-0.0458 -0.0947  0.103
 0.197 -0.286 -0.281
0.0429 -0.134  0.163
-0.134  0.105  0.184
 0.170 0.0772 0.0921
-0.0336  0.360  0.197
-0.393  0.709  0.380
-0.0638 -0.591 0.0742
-0.158  0.585  0.207
0.0989 -0.0236  0.355
0.0679 -0.193  0.263
-0.0699 -0.206  0.104
0.0982 -0.620 -0.0171
-0.00118  0.618  0.540
-0.0655 -0.288 -0.601
-0.284 -0.129 -0.0237
 0.331 0.0196 -0.0931
-0.0337 -0.406  0.381
-0.175 -0.623 -0.0253
0.0409  0.550  0.205
-0.117 0.0867 -0.224
-0.200 0.0425  0.297
-0.158  0.777  0.422
-0.183 0.0863 -0.257
0.0236 0.0328 -0.331
0.0650  0.494  0.535
 0.206  0.154  0.519
0.0236 0.0328 -0.108
-0.101 0.0425  0.355
-0.175 0.0867 -0.588
-0.0922  0.452  0.201
 0.389  0.617  0.377
-0.101 0.0863 -0.472
-0.216 -0.0141  0.124
-0.266  0.777  0.388
 0.255 0.0805 0.0253
 0.162 -0.142 0.0356
-0.262 -0.214 -0.152
0.0279 -0.361  0.260
-0.350  0.216  0.391
-0.233 0.0739  0.419
0.0898  0.262  0.525
0.0579 -0.535 -0.182
-0.0420 -0.549 -0.602
 0.256 -0.236 -0.423
 0.384  0.709  0.454
 0.298 -0.116 -0.544
 0.165 -0.549 -0.446
-0.227 0.0400  0.245
0.0774 -0.450 -0.575
0.0698 -0.607  0.248
-0.322 0.0267 -0.0426
 0.304  0.146  0.273
0.0993 -0.382 -0.165
-0.108  0.555  0.205
0.0473 -0.271  0.319
 0.250 0.0552 -0.641
 0.305  0.774  0.264
-0.363  0.764  0.511
-0.0260  0.353  0.528
 0.345 -0.0530 -0.190
 0.368  0.345  0.372
-0.186 -0.449 -0.348
0.0841 -0.235  0.132
-0.175 0.0439  0.416
 0.106  0.775  0.295
 0.336 0.0382 -0.142
 0.255  0.171  0.520
-0.352 -0.0690 -0.331
-0.101  0.757  0.540
-0.181 -0.625 0.0656
 0.266  0.773  0.534
-0.0922 0.0351  0.173
 0.313 0.0867 -0.398
-0.381  0.502  0.347
-0.0182 -0.341  0.213
-0.144 -0.339 -0.472
 0.217 -0.640 -0.0683
-0.158 -0.0111  0.148
-0.366  0.645  0.229
-0.357  0.402  0.506
-0.315  0.154  0.361
0.0158 -0.593 -0.0699
-0.0688 -0.0249  0.439
-0.0768 -0.657  0.321
-0.374  0.680  0.506
 0.198 0.0253  0.389
-0.193 -0.202 -0.00301
-0.345 -0.0524 -0.149
-0.0687 -0.144 -0.726
 0.324 0.0365 -0.504
0.0206 -0.148 -0.727
0.0437 -0.475  0.225
-0.125  0.777  0.380
-0.200 0.0328 -0.455
-0.126 -0.0179  0.314
-0.134 0.0328 -0.439
0.0733 0.0328 -0.125
 0.156 0.0328 -0.0252
 0.123  0.618  0.208
-0.117  0.254  0.524
-0.299 0.0867 -0.191
 0.247 0.0863 -0.364
 0.214 0.0328 -0.571
 0.164 0.0867 -0.216
-0.0177 0.0328 0.0161
0.0567 0.0328 -0.000409
-0.0426  0.675  0.211
 0.189 0.0328 -0.116
0.0769 -0.632 -0.591
-0.0674 0.0862 -0.563
-0.327 -0.139 -0.163
 0.176 -0.642  0.237
 0.143 -0.0827 -0.720
-0.117  0.585  0.538
-0.117 0.0328 -0.646
0.0494 -0.0472  0.215
-0.0574 -0.145  0.151
 0.363  0.397  0.466
0.00639 -0.150  0.429
-0.117 -0.618  0.140
-0.208  0.786  0.518
-0.340 -0.0809 -0.442
-0.0186 -0.138  0.332
0.0172 -0.0702  0.364
 0.251 0.0848  0.322
 0.200 -0.673 -0.363
 0.359  0.427  0.240
-0.0650 -0.458 -0.0294
-0.0978 -0.353 -0.543
-0.208  0.741  0.542
0.0319 0.0354  0.132
-0.274 0.0865 -0.513
 0.115 0.0863 -0.265
-0.0591 0.0425  0.273
-0.0508  0.774  0.273
0.0733  0.311  0.195
 0.115 0.0328 0.0327
 0.346 -0.0766 -0.372
-0.0177 0.0328 -0.538
 0.318 -0.0770 -0.520
-0.309 -0.152 -0.104
 0.122 -0.0194  0.123
-0.0694 -0.0418  0.173
 0.201 0.0613  0.479
-0.282  0.114  0.253
 0.123  0.759  0.223
 0.302 -0.175 -0.166
-0.0275 -0.481  0.196
 0.140 0.0347  0.204
-0.0261 -0.0610  0.267
-0.0873 -0.377 -0.0743
-0.172 -0.116 -0.694
0.0534 -0.575 0.0335
-0.290 -0.0148 0.0489
-0.0905 0.0230 -0.740
 0.352  0.361  0.503
 0.311 -0.161 -0.456
-0.226 -0.682 -0.170
 0.211 -0.0135  0.346
 0.365  0.378  0.282
-0.140 -0.552 -0.505
-0.0335 -0.0158  0.497
-0.0519 -0.316  0.323
 0.297  0.684  0.211
 0.295 -0.00750 0.0819
 0.181  0.618  0.540
 0.134 -0.358 -0.489
 0.360  0.585  0.225
0.0418 -0.359  0.386
-0.363  0.770  0.463
 0.264  0.278  0.193
 0.197 0.0863 -0.455
0.0981 0.0328 -0.580
0.0567 0.0328  0.173
-0.191 0.0328 -0.141
-0.0343  0.303  0.195
-0.275 -0.218 -0.436
-0.216  0.510  0.203
 0.280  0.469  0.202
-0.291  0.510  0.536
 0.181  0.518  0.204
0.0650 0.0425  0.264
0.0319 0.0867 -0.0666
-0.00949 0.0862 -0.290
0.0402  0.262  0.192
-0.0343  0.485  0.534
-0.167 0.0328 -0.381
-0.109 0.0328 -0.0914
0.0816 0.0328 -0.497
-0.0425 0.0328 -0.216
-0.283  0.692  0.211
0.0445 -0.516  0.287
-0.282 0.0328 0.00786
 0.297  0.618  0.540
 0.181  0.262  0.525
 0.328 -0.0835 -0.0679
-0.202 -0.179 -0.632
 0.355  0.736  0.221
-0.215 0.0126  0.362
-0.333  0.784  0.416
-0.377  0.477  0.429
0.0898 0.0727 0.0919
-0.256 -0.248 -0.285
0.0546 -0.0645  0.105
-0.296  0.783  0.447
 0.170 0.0331 -0.705
0.0122 -0.631  0.324
0.0261  0.805  0.408
0.0207 -0.525  0.151
0.0784 -0.260 -0.630
 0.269 -0.191 -0.0691
-0.181 -0.0412 0.0553
 0.196 -0.625 0.0930
0.0660 -0.550  0.212
-0.0664 -0.302  0.164
-0.156 -0.300 -0.152
-0.158 0.0859 -0.703
 0.244 -0.158 -0.00524
-0.130 -0.0135 -0.727
-0.182 -0.624 -0.107
-0.0172 -0.297  0.234
-0.0339 -0.571 -0.0183
-0.332 -0.154 -0.393
 0.249 -0.229 -0.207
-0.0675 -0.136 0.0759
 0.184 -0.632 -0.192
-0.0680 -0.153  0.198
-0.0657 -0.473 -0.0765
-0.0280 -0.207  0.398
-0.0122 -0.523 0.0738
-0.0216 -0.374  0.246
 0.348  0.216  0.355
0.0648 -0.203  0.103
 0.139 0.0425  0.355
 0.217 -0.276 -0.393
0.0830 -0.392 -0.565
0.0484 -0.0362 -0.752
-0.181 -0.304 -0.357
-0.0548 -0.441  0.281
 0.181 -0.0113  0.140
 0.321  0.336  0.527
 0.149 -0.429 -0.248
 0.376  0.477  0.339
 0.358  0.527  0.226
-0.0343 0.0857 -0.613
-0.0674 0.0425  0.413
-0.258 0.0328 0.0575
-0.0207 -0.0734  0.168
-0.0419 -0.0610 -0.757
-0.133 0.0441 0.0943
-0.0922 0.0328 -0.249
 0.206  0.287  0.194
-0.202 -0.220 -0.582
-0.0343 0.0867 -0.679
-0.249 0.0328 -0.0583
-0.0177 0.0425  0.446
-0.0178 -0.517 -0.0860
0.0319 0.0860 -0.530
-0.208 0.0867 -0.621
-0.201 0.0516 -0.688
 0.123  0.171  0.520
-0.0410 -0.590 -0.159
-0.266  0.485  0.202
-0.0732 -0.616  0.249
-0.216  0.777  0.405
0.0241 -0.0527  0.431
 0.227 -0.157 -0.626
-0.101  0.769  0.235
0.0411 -0.274  0.209
 0.189  0.105  0.517
 0.164  0.121  0.185
-0.357  0.325  0.237
 0.128 -0.595 0.0578
 0.123  0.777  0.339
-0.376  0.419  0.356
-0.216  0.328  0.196
 0.231  0.365  0.197
 0.173 0.0425  0.281
-0.373  0.466  0.287
-0.307  0.246  0.523
-0.166 -0.329 -0.424
-0.332 0.0867 -0.331
0.0845 -0.237 0.0285
0.0239 -0.587 -0.140
 0.174 -0.367 -0.373
 0.140 -0.352 -0.239
-0.0586 -0.609 -0.0101
 0.241 -0.0120  0.260
-0.158  0.214  0.189
 0.199 -0.624 0.0275
-0.357  0.243  0.303
-0.0236 -0.451 0.0519
 0.106 0.0328  0.173
-0.0507 -0.360  0.309
 0.328 -0.144 -0.414
-0.340 0.0211 -0.398
 0.311 -0.170 -0.232
-0.162 -0.623 -0.240
-0.117  0.785  0.473
 0.352  0.626  0.533
-0.0176 -0.161  0.371
0.0485  0.788  0.481
 0.270  0.163  0.188
-0.373  0.740  0.248
0.0898  0.676  0.543
 0.136 -0.211 -0.647
 0.150 -0.590 -0.245
-0.117 -0.332 -0.0919
 0.193 -0.270 -0.124
 0.174 -0.416 -0.390
 0.191 -0.550 -0.300
0.00648 -0.439 0.0894
-0.203 -0.277 -0.443
 0.342  0.785  0.477
-0.172 -0.466 -0.269
0.0208 0.0620 -0.754
-0.124 -0.370 -0.510
-0.358  0.773  0.355
 0.119 0.0147 -0.727
-0.199 -0.590 -0.331
 0.356 0.0618 -0.313
 0.265 -0.180 -0.540
 0.326  0.189  0.479
-0.266 0.0867 -0.0914
-0.0831 -0.266 0.0422
 0.305 0.0328 -0.174
0.0146 -0.125  0.122
-0.333  0.308  0.521
-0.0177  0.777  0.314
 0.234 -0.261 -0.290
-0.271 -0.0400 0.00786
 0.173  0.195  0.188
-0.0763 -0.259  0.175
 0.179 -0.283 -0.465
-0.119 -0.541 -0.229
 0.334  0.450  0.530
 0.205 -0.649 -0.271
 0.335 -0.0190 -0.448
 0.342 0.00585 -0.249
 0.123 -0.0161  0.281
 0.184 -0.682 -0.414
-0.346  0.609  0.211
-0.274 0.0867 -0.323
-0.258 0.0328 -0.191
 0.364  0.474  0.484
-0.0922 0.0328  0.124
-0.134 0.0328  0.190
-0.0426 0.0867 -0.364
-0.307  0.452  0.533
-0.125  0.493  0.203
-0.0425 0.0328 0.0989
-0.283 0.0863 -0.414
-0.0703 -0.369 0.0941
-0.0343 0.0867 -0.108
 0.297  0.411  0.532
-0.0674  0.237  0.191
-0.0600 -0.425 0.0415
-0.0922 0.0863 -0.373
0.0898 0.0857 -0.389
 0.115  0.270  0.193
 0.106 0.0860 -0.480
-0.141  0.374  0.530
 0.297  0.776  0.372
 0.222  0.609  0.208
0.0501 -0.284  0.364
-0.158 0.0328 -0.538
-0.150 -0.617  0.190
 0.140 -0.621 -0.000495
 0.131 0.0328 -0.679
0.0236 0.0328 -0.505
-0.183 0.0867 -0.0749
 0.272  0.535  0.205
-0.244 0.0791  0.375
-0.225 -0.228 -0.529
-0.216 -0.0147  0.273
-0.0405 -0.549  0.295
0.0149 -0.502 -0.0390
0.0569 -0.605 -0.00967
0.0404 -0.620 -0.0997
-0.225 -0.664 -0.0736
-0.0178  0.246  0.523
 0.194 -0.0117 -0.692
 0.387  0.736  0.409
 0.372  0.640  0.492
-0.0241 -0.474 0.00332
 0.163 -0.433 -0.440
-0.189 -0.682  0.210
-0.350  0.455  0.213
-0.134 -0.162 -0.690
 0.304 -0.148 -0.0863
-0.344 0.0140 -0.257
-0.176 -0.497 -0.419
 0.344 -0.102 -0.241
-0.296  0.781  0.527
-0.241  0.386  0.530
 0.230 -0.0225 0.0419
 0.284 -0.221 -0.339
0.0311 -0.113  0.225
 0.197  0.773  0.256
-0.299  0.585  0.539
-0.223 -0.251 -0.201
-0.191 -0.602 -0.391
-0.175 0.0328 0.0906
-0.0524 -0.276  0.364
-0.0165 -0.404  0.189
-0.204 -0.649  0.115
-0.0844 -0.412 -0.114
-0.319  0.166  0.265
-0.271 -0.0956 -0.611
0.0289 -0.332  0.157
-0.0233 -0.325  0.166
-0.194 -0.627  0.156
 0.126 -0.598 -0.523
-0.347 0.0861 -0.265
0.0958 -0.0170  0.207
-0.0169 -0.526 0.0251
0.0497 -0.235  0.265
 0.214 0.0652  0.388
-0.0822 -0.449 -0.145
-0.214 -0.673 0.0167
-0.226 0.0777 0.0683
-0.269 0.0561 -0.619
 0.276  0.109  0.413
 0.111 -0.640 -0.552
-0.262 -0.239 -0.392
-0.147 -0.0202  0.416
-0.391  0.650  0.388
0.0456 -0.468 -0.0105
0.0661 -0.605 0.0711
-0.347 -0.0175 -0.323
 0.352  0.534  0.525
 0.342 -0.0778 -0.149
0.0371 -0.0554  0.282
-0.328 -0.0780 -0.0654
-0.119 -0.482 -0.213
0.0278 0.0360  0.494
0.0164 -0.480  0.328
-0.249  0.171  0.520
-0.233 -0.0472 -0.663
 0.209 0.0623  0.314
-0.216 -0.251 -0.113
 0.119 0.0455  0.475
 0.149 -0.279 -0.0486
0.0898  0.675  0.211
 0.200 -0.249 -0.0732
-0.135 -0.128 0.0449
 0.329 -0.106 -0.475
-0.322  0.303  0.196
0.0839 -0.284  0.123
-0.294 -0.0690 -0.573
 0.148 -0.00683  0.438
 0.340 -0.0200 -0.117
-0.163 -0.391 -0.267
 0.148  0.741  0.542
-0.266  0.766  0.231
 0.330  0.336  0.200
 0.338 -0.133 -0.331
-0.292 0.0175  0.118
-0.195 0.0706  0.503
-0.175  0.295  0.526
-0.216 0.0865 -0.447
-0.191 0.0328 -0.232
0.0485 0.0867 -0.216
0.0898 0.0328 -0.389
-0.0260  0.171  0.519
0.0898 0.0867 -0.0583
-0.134 0.0867 -0.125
0.0154 0.0328 -0.0170
-0.167  0.262  0.192
-0.248 0.0827  0.239
0.0236 0.0425  0.256
-0.0591 0.0867 -0.00870
0.00709  0.444  0.201
-0.258 0.0867 -0.133
-0.0923 -0.621 -0.0667
-0.0591  0.749  0.541
-0.117  0.469  0.534
-0.181 -0.549 -0.408
 0.214  0.777  0.372
-0.167  0.777  0.331
 0.305 0.0867 -0.439
 0.123  0.419  0.532
 0.280 0.0328 -0.439
 0.201 -0.270 -0.208
-0.352 0.0462 -0.200
0.0898 0.0803  0.185
 0.181 -0.209 -0.611
 0.251 -0.117 -0.625
 0.189 -0.591 -0.388
 0.355  0.328  0.243
 0.360  0.312  0.446
-0.265  0.211  0.521
-0.151 -0.287 -0.513
-0.378  0.461  0.339
 0.255 0.0328 0.0410
 0.198 -0.651  0.146
0.0745 -0.422 -0.0744
 0.165 -0.632 -0.459
 0.348  0.477  0.213
 0.376  0.659  0.273
 0.378  0.543  0.314
 0.165  0.709  0.213
0.0612 -0.598  0.140
-0.00119 -0.540 -0.604
 0.239 -0.0139  0.124
 0.131 -0.524 -0.514
-0.152 -0.507 -0.474
 0.348 -0.0932 -0.282
-0.100 -0.0252  0.405
0.0884 -0.385 -0.0919
-0.000494  0.555  0.205
-0.335 0.0242 -0.463
 0.350  0.230  0.298
 0.347  0.275  0.221
 0.157 -0.285 -0.503
-0.156 -0.627  0.254
-0.237 -0.165 -0.609
 0.181  0.777  0.422
-0.389  0.700  0.438
-0.160 -0.244 -0.0180
-0.0200 -0.0692  0.209
-0.354  0.717  0.218
-0.0800 -0.384 -0.0251
-0.298  0.204  0.191
 0.362  0.292  0.347
 0.192 -0.105 -0.687
-0.198 -0.142 0.0251
-0.258 0.0885  0.328
-0.249 0.0354  0.157
 0.146 -0.450 -0.481
-0.183  0.411  0.199
-0.183 0.0328 0.0161
0.0853 -0.502 -0.188
-0.200 0.0863 -0.406
-0.0839 0.0328 -0.489
0.0319 0.0328 -0.654
-0.0667  0.555  0.205
 0.115 0.0328 -0.315
0.00708  0.436  0.532
-0.249  0.428  0.532
-0.175  0.477  0.202
0.0815  0.444  0.532
 0.197  0.576  0.206
0.0402 0.0860 -0.621
0.0319 0.0425  0.297
-0.0260  0.676  0.543
 0.280  0.336  0.196
-0.200 0.0865 -0.555
-0.0177  0.749  0.217
-0.150 0.0867 -0.0252
0.0650 0.0328 -0.273
-0.0922 0.0425  0.297
0.0485 0.0328 -0.0583
0.0981 0.0328 -0.538
-0.208 0.0867 -0.224
 0.313 0.0867 -0.174
0.0567 0.0328 -0.580
-0.249 0.0328 -0.290
-0.233 0.0328 -0.373
-0.142 0.0425  0.372
-0.225 0.0328 -0.604
-0.0968 -0.467 -0.180
-0.225  0.618  0.208
-0.216 0.0328 -0.0335
0.0733  0.129  0.186
-0.0422  0.778  0.356
 0.222 0.0328 -0.141
-0.109  0.146  0.186
-0.360  0.295  0.273
 0.137 -0.532 -0.237
-0.0847 -0.301 0.0989
0.0815 0.0863 -0.613
-0.214  0.579  0.538
 0.148  0.237  0.191
-0.134 0.0863 -0.315
-0.249 0.0328 -0.513
 0.247 0.0328 -0.273
-0.158 0.0328 -0.191
-0.142 0.0328 -0.596
-0.362  0.568  0.519
 0.111 -0.384 -0.205
-0.0674  0.278  0.193
 0.214 0.0328 -0.480
-0.0767 -0.0715 0.0883
-0.135 0.0443 -0.728
-0.331  0.502  0.534
0.0982 -0.621 -0.0584
-0.225  0.777  0.339
 0.328  0.394  0.200
 0.175 -0.325 -0.372
0.0476 -0.400  0.274
-0.347 -0.0607 -0.398
 0.214  0.692  0.543
-0.0475 -0.217 -0.679
 0.380  0.666  0.462
 0.181  0.303  0.527
-0.331 0.0291 -0.100
 0.116 -0.138 -0.711
-0.338 -0.134 -0.257
 0.273 -0.0153 0.0417
 0.386  0.577  0.389
0.0198 -0.301  0.256
 0.207 -0.175 0.00655
-0.109 -0.302 -0.0305
 0.181 -0.508 -0.387
-0.100 0.0887  0.516
-0.00960 -0.0358 -0.756
 0.286 0.0563 -0.0255
 0.188 -0.145 -0.670
-0.0101 0.0219  0.500
-0.161 -0.247 -0.581
 0.304  0.185  0.198
-0.261 -0.0116  0.200
-0.381  0.742  0.294
0.0751 -0.582 -0.585
 0.181 -0.505 -0.286
 0.210 -0.258 -0.488
-0.0365 -0.358  0.400
-0.357  0.726  0.536
0.0495 -0.147 0.0845
0.0412 -0.408  0.362
-0.240 0.0515 -0.653
-0.0152 -0.126 -0.738
-0.0849 -0.243 0.0913
 0.357  0.255  0.405
-0.0652 -0.499 -0.590
-0.0107 -0.504  0.166
-0.0257  0.105  0.517
 0.390  0.717  0.372
 0.270  0.107  0.471
 0.148 -0.0174  0.363
 0.143 -0.258 -0.577
0.0832 -0.326 0.0327
 0.387  0.650  0.355
-0.136 -0.637 -0.517
-0.234 -0.219 -0.0581
-0.00863 0.0319 -0.736
-0.301  0.135  0.416
 0.305  0.789  0.504
 0.226 -0.246 -0.125
 0.169 0.0633  0.198
-0.224  0.130  0.518
0.0836 -0.366 -0.0173
-0.134  0.320  0.195
 0.256  0.211  0.521
0.0345 -0.253  0.406
-0.0571 -0.186 0.0720
-0.231 0.0752  0.479
-0.120 -0.574 -0.532
-0.0777 -0.0190  0.478
-0.136 -0.0587 0.0562
-0.221 -0.642 -0.0338
-0.391  0.677  0.356
-0.341  0.242  0.213
 0.184 -0.304 -0.315
 0.320 -0.00307 -0.507
 0.297 0.0403 -0.569
 0.151 -0.524 -0.474
 0.140 -0.311 -0.0973
0.0367 -0.521 -0.143
-0.114 -0.0749 -0.739
-0.337  0.205  0.479
 0.288 0.0328 -0.522
 0.221 -0.682 -0.191
-0.191  0.765  0.231
-0.0117 -0.521  0.124
-0.110 -0.233 -0.645
0.0545 -0.298  0.179
 0.106  0.757  0.540
0.0138 -0.0961  0.406
 0.215 0.0262  0.351
-0.0198 -0.0702  0.307
-0.0739 -0.180  0.134
-0.305 0.0851 -0.537
-0.360 0.0515 -0.322
-0.358 0.0416 -0.370
0.0980 -0.617  0.223
0.0177 -0.0694  0.198
-0.230 0.0926  0.195
-0.114 -0.624 -0.191
 0.306 -0.186 -0.426
-0.0999 -0.682 -0.570
0.0567  0.775  0.295
-0.230 -0.265 -0.393
-0.357  0.375  0.228
 0.217 -0.226 -0.548
 0.280 0.0867 -0.563
0.0132 -0.488 -0.00166
-0.0315  0.780  0.527
 0.167 0.0388 0.0998
-0.119 -0.195 0.0315
-0.0490 -0.138  0.274
 0.150 -0.230 -6.34e-05
-0.0591 -0.590  0.275
0.0286 -0.234 -0.669
-0.383  0.560  0.422
 0.244 -0.234 -0.469
 0.337  0.775  0.287
0.00374 -0.474 0.0739
-0.0839 0.0425  0.455
-0.0202 -0.266 -0.637
-0.0507 -0.242  0.383
0.0125 -0.107  0.191
-0.181 -0.391 -0.348
0.0295 -0.290 -0.602
-0.149 -0.319 -0.232
 0.334  0.190  0.388
-0.365  0.292  0.377
-0.356 0.0572 -0.241
0.0493 -0.196  0.360
0.0140 -0.679  0.330
-0.0177 0.0865 -0.720
-0.134 -0.464 -0.507
 0.158 -0.0426 0.0659
 0.328  0.379  0.528
-0.285 -0.187 -0.113
 0.373  0.725  0.503
 0.106 0.0424  0.438
0.0848 -0.619 -0.196
 0.125 -0.391 -0.506
-0.366  0.431  0.260
 0.215 -0.656 0.0153
 0.142 -0.312 -0.182
-0.0444 -0.637  0.324
-0.190 -0.264 -0.513
 0.213 -0.650 -0.210
 0.357 0.0463 -0.257
-0.0513 -0.167  0.333
-0.0832  0.365  0.197
-0.131 -0.323 -0.135
0.0477 -0.359  0.296
 0.267 -0.00126  0.197
 0.244 0.00398 -0.643
 0.298 -0.115 -0.0335
-0.112 -0.505 -0.542
-0.347  0.761  0.229
0.0768 -0.185 -0.696
0.0488 -0.620 -0.141
-0.0533 -0.239  0.291
 0.150 -0.358 -0.455
 0.186 -0.474 -0.349
-0.326 0.0412 -0.510
-0.0273 -0.254  0.240
 0.125 -0.635 0.0416
-0.0324  0.579  0.538
 0.104 -0.230 -0.650
-0.0847 -0.350 -0.000409
 0.214 0.0328  0.223
-0.200 -0.0135  0.339
 0.156 -0.630 0.0946
 0.371  0.684  0.246
-0.159 -0.0167  0.355
-0.198 -0.287 -0.265
0.0480 -0.427  0.326
 0.142 0.0496 -0.723
0.0745 -0.461 -0.134
-0.357  0.283  0.460
 0.239 0.0328 -0.613
-0.327  0.174  0.316
-0.125 -0.623 -0.116
-0.299 0.0328 -0.455
-0.334 -0.126 -0.213
-0.100 -0.314 -0.546
-0.105 -0.639  0.305
-0.309 -0.194 -0.320
 0.172 -0.0160  0.273
-0.350  0.642  0.537
 0.284 0.00570 -0.582
 0.183 -0.434 -0.308
-0.00126 -0.469 -0.596
-0.269 -0.162 -0.0309
 0.117 -0.477 -0.213
-0.147 -0.589 0.0765
-0.364  0.477  0.240
-0.0793 -0.439 -0.574
-0.382  0.706  0.286
-0.150 -0.621 0.00775
 0.129 -0.318 -0.502
-0.194 -0.106 0.0338
-0.00124 -0.632 -0.612
 0.313 0.0328 -0.307
-0.233 -0.0137  0.157
 0.123  0.777  0.438
 0.255 -0.179 -0.0338
-0.219 0.0805 -0.673
-0.117 -0.623 0.0501
0.0981  0.786  0.518
 0.168 -0.358 -0.289
0.0357 -0.0961  0.109
0.0895 -0.0239  0.446
-0.199 -0.646 -0.241
-0.147 -0.682 -0.502
-0.316 0.0328 -0.282
 0.189 0.0328 -0.613
0.00736 -0.351  0.417
0.00707 0.0865 -0.373
-0.0509  0.788  0.481
0.0898 0.0863 -0.447
-0.196 0.0218  0.394
-0.258  0.733  0.213
-0.225  0.402  0.199
-0.225 0.0863 -0.364
-0.186 -0.304 -0.321
 0.123  0.659  0.542
0.0981 0.0867 -0.141
 0.305  0.551  0.538
 0.181  0.436  0.200
0.0154 0.0328 -0.555
 0.115  0.568  0.206
-0.00945 0.0328 -0.125
0.0981 0.0328 -0.158
-0.0177 0.0863 -0.331
0.0815 0.0867 -0.232
0.0567  0.344  0.196
-0.109  0.651  0.209
0.0733  0.510  0.203
-0.266  0.609  0.208
-0.117  0.419  0.200
-0.00944  0.320  0.527
 0.214 0.0867 -0.274
 0.247 0.0328 -0.373
 0.173 0.0328 -0.315
-0.225 0.0328 -0.563
-0.0343 0.0328 -0.0170
0.0236 0.0328 0.0823
-0.0839 0.0867 -0.596
-0.371  0.353  0.388
0.0733 0.0863 -0.546
 0.173  0.171  0.520
 0.280  0.585  0.539
-0.0591 0.0354  0.157
 0.239 0.0867 -0.108
 0.272 0.0328 0.0741
 0.189 0.0867 -0.108
0.0485  0.777  0.438
0.0815 0.0867 -0.191
-0.307  0.634  0.209
 0.303 0.0566 -0.0583
0.0319  0.510  0.535
-0.241  0.162  0.187
-0.150  0.394  0.198
-0.0426  0.138  0.518
-0.208  0.684  0.211
-0.0508  0.320  0.528
 0.288 0.0860 -0.298
-0.191 0.0860 -0.298
-0.146 -0.643 0.0913
 0.189 0.0860 -0.307
 0.189 0.0867 -0.604
0.00709  0.162  0.187
-0.0594 -0.567  0.140
 0.370  0.386  0.405
-0.348 -0.0906 -0.362
-0.316 0.0328 -0.373
 0.370  0.601  0.256
 0.140  0.700  0.543
 0.366  0.552  0.495
 0.161 -0.326 -0.424
-0.380  0.527  0.314
-0.175  0.757  0.540
 0.181  0.675  0.211
-0.143 -0.646  0.283
0.0319 0.0424  0.215
-0.337 -0.0445 -0.0841
 0.206 -0.0159 0.0749
0.00600 -0.607 -0.102
-0.0574 -0.448 0.0111
-0.0646 -0.515 -0.169
 0.308  0.159  0.224
-0.225 -0.0116  0.215
 0.173 -0.623 -0.0501
 0.105 -0.315 -0.538
-0.348 -0.0452 -0.233
-0.218 -0.000788 -0.672
-0.161 -0.579 -0.468
-0.117 0.0535  0.499
0.0806 -0.0457  0.123
 0.170 0.0357  0.411
-0.0163 -0.576 -0.0657
0.0156 -0.483  0.183
0.0982 -0.375 -0.129
 0.367  0.436  0.454
-0.150  0.700  0.212
0.0256 -0.583 -0.0354
0.0240 -0.531 0.0791
-0.0247 -0.523 -0.133
 0.354 0.0813 -0.366
-0.0640 -0.598 -0.186
-0.0514 -0.578 0.0129
-0.316  0.386  0.530
0.0799 -0.226  0.181
 0.256  0.766  0.231
0.0153 -0.342 -0.587
-0.294 -0.187 -0.196
 0.189  0.535  0.537
 0.347  0.276  0.500
0.0815  0.749  0.217
-0.0202 -0.585  0.307
-0.0531 -0.317  0.370
-0.144 -0.0967 -0.720
-0.175 -0.630 -0.174
-0.158 0.0328 -0.679
-0.165 -0.618 -0.463
 0.190  0.775  0.293
-0.175 0.0425  0.355
-0.249  0.733  0.543
0.0900 0.0398  0.207
 0.105 -0.682 -0.559
-0.0493 -0.367 -0.584
-0.291 0.0862 -0.149
 0.189  0.785  0.468
-0.0746 -0.615 0.0989
0.0316 -0.118 -0.743
-0.307  0.700  0.544
-0.205 0.0607  0.224
 0.111 -0.108 0.0565
0.0151 -0.333  0.224
 0.194 -0.623 -0.366
 0.283 -0.00443  0.116
-0.117  0.786  0.518
 0.347 -0.0234 -0.219
-0.332  0.781  0.380
-0.316 0.0328 -0.133
-0.0813 -0.623  0.283
0.0694 -0.154  0.190
0.0581 -0.493 -0.109
-0.0931 -0.263 -0.615
-0.119 -0.345 -0.172
-0.0108 -0.101  0.256
 0.239 -0.0138  0.215
 0.319 -0.145 -0.174
0.0591 -0.169  0.289
-0.00133  0.824  0.362
0.0158 -0.416  0.199
0.0594 -0.426 0.0346
0.0913 -0.577 -0.213
 0.197 0.0601 -0.688
 0.230 0.0865 -0.000437
 0.146 -0.183 0.0271
 0.323 -0.168 -0.365
 0.348 -0.0202 -0.364
 0.347 -0.0132 -0.291
-0.142 -0.436 -0.486
-0.0103 -0.501  0.318
 0.148 -0.629 -0.215
 0.350  0.777  0.394
-0.0562 -0.464 -0.588
-0.267 -0.227 -0.243
 0.106 -0.621 -0.157
-0.364  0.287  0.331
 0.313 -0.0438 -0.532
-0.0185  0.786  0.422
 0.304  0.151  0.475
0.0473 -0.375 -0.582
-0.382  0.663  0.464
0.0814 -0.657  0.317
-0.279  0.109  0.308
 0.255  0.386  0.530
-0.350 -0.0479 -0.187
0.00395 -0.474  0.149
 0.298 -0.171 -0.487
0.0500 -0.491  0.256
-0.0730 -0.574  0.231
 0.206 -0.00821  0.382
-0.162 0.0133  0.428
-0.204 -0.132 -0.666
-0.0802 -0.174 -0.703
 0.302  0.139  0.355
-0.0475 -0.379  0.119
0.0701 -0.434 -0.0418
 0.367  0.419  0.282
-0.114 -0.425 -0.208
-0.00141 -0.438  0.377
-0.00533 -0.499 0.0492
-0.316  0.518  0.204
-0.00118 0.0328  0.115
 0.173 0.0354  0.148
 0.113 -0.628  0.286
0.0567 0.0863 -0.0915
0.0402  0.651  0.542
 0.106 -0.619 0.0823
-0.208 0.0351  0.124
-0.233 0.0867 -0.530
 0.131 0.0328 -0.182
-0.167 0.0328 -0.315
 0.164 0.0328 -0.580
 0.305 0.0328 -0.381
-0.0508 0.0328 -0.646
 0.239 0.0328 -0.0501
 0.206 0.0328 -0.191
-0.00947 0.0425  0.355
-0.191 0.0328 -0.0583
-0.228 0.0706  0.333
-0.186 -0.442 -0.308
-0.233 0.0867 -0.108
 0.164 0.0867 -0.133
-0.0508  0.138  0.186
-0.0275 -0.122  0.115
-0.0426 0.0867 0.0244
-0.178 -0.376 -0.300
-0.101  0.626  0.541
-0.0591 0.0863 -0.447
 0.231 0.0736  0.289
-0.0671 -0.253  0.215
 0.167 -0.598 0.0347
-0.295 0.0219 -0.569
 0.255  0.270  0.525
 0.197 -0.619 -0.310
-0.274 -0.210 -0.475
-0.0551 -0.483  0.264
-0.316  0.709  0.212
 0.156 -0.621 -0.116
-0.233 0.0291  0.290
0.0186 -0.0356  0.464
 0.321  0.733  0.213
0.0235 -0.442 -0.595
-0.217 -0.177 0.000627
0.00655 -0.367  0.175
-0.0669 -0.203  0.265
-0.215 -0.631 -0.116
0.0666 -0.399 0.0586
 0.194 -0.679  0.166
-0.108 -0.250 0.00715
-0.160 0.0476  0.206
-0.285  0.119  0.474
0.0903 0.0494  0.495
-0.207 -0.647 0.0746
 0.321  0.659  0.210
-0.106 0.0590  0.194
-0.0394 -0.121  0.175
 0.270 -0.154 -0.565
 0.363  0.599  0.516
 0.172 -0.0181  0.339
 0.107  0.214  0.189
0.0126 -0.528 0.00729
 0.332 -0.135 -0.247
-0.193 -0.524 -0.331
 0.288 0.0865 -0.0667
-0.0894 0.0809 0.0897
-0.00948  0.783  0.471
 0.364  0.761  0.508
0.0897 -0.0261  0.289
 0.273 -0.0730 0.00212
 0.206  0.543  0.205
0.0120 -0.129  0.319
 0.280 -0.216 -0.268
-0.348 0.00520 -0.290
 0.230 -0.228 -0.0731
 0.345  0.227  0.264
-0.246 -0.257 -0.317
 0.264 -0.0362 -0.623
-0.0758 -0.445 -0.111
0.0885 -0.416 -0.156
-0.176 -0.408 -0.389
0.0401 -0.215  0.390
-0.369  0.461  0.470
 0.280 -0.226 -0.373
-0.349 -0.0773 -0.298
-0.372  0.559  0.263
 0.288 -0.0282 -0.578
-0.157 -0.284 -0.0712
-0.219 -0.648 -0.192
 0.225 -0.682 -0.157
0.0866 -0.284 0.0823
0.0757 -0.0162  0.480
-0.172 -0.433 -0.277
-0.188 -0.639  0.191
 0.189 0.0328 -0.232
 0.190 -0.549 -0.356
-0.306 0.0292 0.0319
0.0545 -0.673 -0.608
-0.175  0.196  0.521
 0.297 0.0328 -0.141
-0.158 0.0867 -0.199
 0.272 0.0328 -0.406
 0.211 -0.203 -0.593
 0.159 -0.296 -0.124
 0.132  0.726  0.213
-0.0343  0.444  0.533
-0.0177 0.0802  0.185
-0.127 -0.348 -0.215
0.0816 0.0328 -0.439
-0.0195 -0.441  0.198
0.0402  0.411  0.532
0.0567 0.0328 -0.704
0.0815  0.278  0.193
