ply
format ascii 1.0
element vertex 2048
property float x
property float y
property float z
end_header
 0.386 -0.0396 -0.292
-0.835  0.314  0.239
-0.800 -0.440 -0.306
 0.837  0.311  0.247
-0.0547  0.303  0.241
 0.849 -0.445  0.148
-0.272 -0.0398 -0.296
-0.841  0.158 -0.341
 0.881  0.160 -0.272
-0.836 -0.206  0.152
 0.398  0.122  0.164
 0.810 -0.316 -0.306
-0.421 0.0257  0.148
0.0274 -0.112  0.105
 0.752 -0.0652 0.0439
-0.643 -0.0607 -0.134
0.0595 -0.0564 -0.229
-0.527  0.310  0.216
-0.841  0.150 -0.0305
 0.680 -0.0652 -0.249
 0.286 -0.0652 -0.0282
-0.834 -0.162 -0.306
-0.788 -0.388 -0.0426
 0.216  0.314  0.204
-0.248 -0.0652 -0.0282
-0.691 0.0404  0.152
 0.504 -0.112  0.105
 0.656  0.138  0.179
-0.134 0.0742  0.161
 0.849  0.158 0.0231
 0.145 0.0883  0.166
-0.290  0.292  0.194
 0.825 -0.350 -0.0715
 0.508  0.303  0.241
-0.494 -0.0901 -0.300
 0.502 -0.0652 -0.110
 0.847 -0.225  0.153
-0.813 -0.0660 -0.00418
-0.808 -0.447  0.152
-0.450 -0.0516 -0.0499
-0.570 -0.112  0.110
-0.0495 -0.0418 -0.0622
 0.826 -0.0471 -0.129
 0.849 -0.124 -0.305
 0.838 0.0370  0.174
 0.218 -0.109 -0.300
-0.837  0.146  0.159
-0.686  0.226  0.202
-0.112 -0.112 -0.299
 0.285 -0.0127  0.138
-0.686 -0.0611 -0.301
-0.142 -0.0901  0.111
-0.812 -0.0439 -0.187
 0.117 -0.0652 -0.0378
 0.673  0.309  0.219
-0.535  0.150  0.174
 0.848 -0.446 -0.211
-0.796  0.125 -0.187
 0.800  0.128 -0.134
-0.348 -0.112  0.105
0.00179  0.161  0.185
 0.661 -0.0652 -0.0907
-0.300  0.136  0.174
-0.837 -0.0227  0.145
 0.800 0.0301 -0.302
 0.547 0.0350  0.140
-0.383 -0.0652 -0.192
-0.166 -0.0402 -0.163
 0.522 -0.113 -0.297
 0.362  0.270  0.191
 0.276 -0.0402 -0.177
 0.814  0.188  0.166
 0.180 -0.112  0.110
-0.258 0.00398  0.120
-0.657 -0.0396 0.0147
-0.813 -0.350 -0.192
-0.166  0.212  0.176
0.0787  0.285  0.194
0.0114 0.0213  0.147
 0.266  0.165  0.186
-0.729 -0.109  0.111
 0.418 -0.0411 0.0211
 0.704 0.0132  0.145
-0.787 0.0303 -0.302
-0.407  0.224  0.179
 0.612 -0.0398 0.0487
-0.555 0.0201  0.127
 0.531  0.182  0.168
 0.825 -0.344 0.0660
 0.849 -0.0901  0.140
-0.522 -0.0402 -0.177
-0.837 -0.330  0.107
-0.830 -0.297 -0.306
 0.359 -0.112  0.105
 0.420 -0.00585  0.140
 0.382 -0.0402 -0.105
 0.156 -0.0398 -0.154
-0.455 -0.0652 0.0776
-0.0559 -0.0652 -0.187
-0.363 -0.111 -0.295
 0.579 -0.0652 -0.197
-0.277 -0.0632 -0.146
 0.156  0.204  0.174
 0.800 -0.346 -0.187
-0.566 -0.0473 -0.0497
-0.169  0.301  0.243
 0.124 -0.0179  0.130
-0.0271 -0.0398 -0.296
 0.468 -0.0473 -0.218
-0.356 -0.0411 0.0211
-0.0415 -0.0402 0.0583
 0.670 -0.109  0.111
-0.787  0.131 0.0632
 0.805 -0.210 -0.256
-0.753 -0.0402 -0.0907
 0.786 -0.0632 -0.230
-0.730  0.140  0.157
0.0403 -0.0652 -0.115
-0.128 -0.0652 0.00545
-0.590 -0.0402 -0.269
 0.717  0.222  0.184
-0.428  0.301  0.243
 0.228 -0.0402 0.0536
-0.836 -0.0596 -0.305
-0.625  0.301  0.243
 0.526 -0.0402 -0.0138
 0.132 -0.0410 -0.299
 0.800 -0.417 -0.302
 0.823 -0.0427 -0.0285
-0.407  0.126  0.153
-0.806  0.219  0.223
 0.588 -0.0396 -0.292
 0.874  0.154 -0.0735
-0.652 -0.0506  0.132
0.0643 -0.0398 0.0487
-0.835 -0.443 -0.212
-0.344 -0.0398 -0.0763
-0.791 -0.441 0.0557
 0.743  0.106  0.147
 0.608  0.246  0.185
-0.739  0.299  0.244
-0.237 -0.112  0.105
 0.319 -0.109 -0.300
 0.818 -0.442 0.0573
-0.789 0.0534  0.179
 0.367 -0.0652 -0.197
-0.705 -0.0652 -0.206
-0.0944 -0.0126  0.138
-0.869  0.135 -0.253
 0.444  0.207  0.197
-0.542 -0.0395 0.0487
-0.870  0.137 -0.120
-0.590  0.227  0.180
 0.808  0.134 -0.324
 0.209 -0.0652 -0.0811
-0.191 -0.0652 -0.249
 0.313 0.0878  0.150
-0.617  0.109  0.171
-0.790 -0.227 -0.257
-0.421 -0.0398 -0.273
 0.800 -0.306  0.145
-0.0752  0.207  0.197
-0.777 -0.0402 0.0776
-0.218  0.109  0.149
 0.872  0.163 -0.182
 0.805 -0.162  0.104
-0.494  0.226  0.202
-0.836 -0.103  0.105
0.0707 -0.112 -0.299
-0.349 -0.0250  0.135
 0.194 -0.0396 -0.236
 0.805 -0.0189  0.110
-0.0468 0.0882  0.146
 0.738 -0.0650 -0.0466
 0.268 -0.112  0.105
 0.713 -0.0652 -0.168
-0.176 -0.0395 -0.0716
 0.617 -0.0250  0.135
 0.734 -0.112 -0.299
 0.834  0.125  0.102
 0.800  0.155 -0.240
 0.234 0.0573  0.134
-0.325 0.0550  0.157
-0.788  0.128 -0.0955
 0.329 -0.0402 0.0679
 0.276  0.255  0.187
 0.497  0.106  0.147
-0.757 -0.108 -0.294
 0.766  0.310  0.198
-0.253  0.204  0.196
 0.430 -0.113 -0.297
 0.266 -0.0398 -0.288
-0.788  0.112 -0.278
0.00179  0.251  0.186
-0.445 -0.0564 -0.134
-0.812 -0.344 0.0247
-0.191 -0.0398 0.0631
 0.847  0.117  0.196
0.0598  0.110  0.153
-0.787 -0.273  0.149
-0.484 0.0795  0.140
 0.850 -0.0420 -0.293
 0.353  0.188  0.192
 0.802  0.126 -0.0458
 0.608 -0.0402 -0.0330
-0.114 -0.0402 -0.259
 0.584 -0.0398 -0.120
-0.837 -0.374 -0.278
-0.181 0.00989  0.144
0.0695  0.203  0.197
 0.574  0.108  0.171
 0.202 -0.0339  0.136
-0.810 -0.392 -0.120
 0.680 -0.0398 0.00542
-0.0655 -0.112  0.110
 0.516 -0.0333  0.110
0.0306 -0.0402 -0.0234
-0.622 -0.108 -0.294
 0.588 -0.0948  0.111
 0.800 -0.383 -0.00417
 0.141  0.291  0.243
-0.282 -0.0398 0.0583
 0.311  0.303  0.241
 0.454 -0.0473 -0.0497
 0.588  0.295  0.244
-0.681 -0.0516 -0.0607
 0.800  0.242  0.222
-0.309 -0.0636 -0.218
 0.143 -0.0637 0.0360
-0.233 -0.112 -0.295
-0.104 -0.0652 -0.124
-0.330  0.210  0.198
 0.425  0.314  0.200
 0.800 -0.383  0.149
-0.503 -0.0355  0.136
 0.826 -0.0852 0.0487
 0.310 -0.0652 -0.105
 0.740 -0.0565  0.124
-0.599 -0.0652 -0.197
-0.108  0.146  0.158
 0.435 -0.0804  0.104
 0.652 0.0686  0.145
 0.849 -0.369 -0.269
 0.849 0.0734 -0.264
 0.617 -0.109 -0.300
 0.358 -0.0402 -0.0234
-0.349  0.287  0.241
 0.103 -0.0852  0.104
 0.478 -0.0516 -0.303
-0.796 -0.0917 -0.124
 0.850 -0.249 -0.302
 0.526  0.255  0.187
-0.508 -0.0402 -0.0955
-0.787 -0.153  0.135
-0.782 -0.0390 -0.254
 0.440 -0.0645 -0.149
 0.348 0.0231  0.125
-0.494 -0.0398 -0.245
-0.614 -0.0652 0.0679
-0.647  0.174  0.166
-0.763 -0.00585  0.140
-0.787 -0.383  0.106
 0.738 -0.0398 -0.296
-0.729 -0.0398 0.0102
0.0270  0.303  0.241
-0.789 -0.0772  0.152
0.0547 -0.0417  0.134
 0.199  0.142  0.180
-0.786  0.280  0.192
-0.836 0.0638 -0.257
 0.685 -0.0402 0.0824
-0.114  0.263  0.217
 0.483 -0.0652 0.0535
 0.805 -0.392 -0.124
 0.776 0.0423  0.130
 0.208  0.242  0.202
-0.0287 -0.0361  0.129
-0.869  0.158 -0.187
0.0980 0.0490  0.132
-0.508 -0.0652 -0.0138
-0.219  0.303  0.196
-0.574 -0.0637 -0.133
 0.641 -0.0652 -0.168
0.0884 -0.0402 -0.168
-0.558 0.0871  0.143
-0.431 -0.0396 0.0147
 0.127 -0.0646 -0.232
0.00660 -0.0398 -0.177
 0.112  0.146  0.181
-0.619 0.0431  0.152
-0.289 -0.0565  0.124
 0.314 -0.0395 -0.240
-0.691  0.312  0.199
0.0403 -0.0434 -0.301
-0.392 -0.0402 0.0824
-0.354 -0.0402 -0.269
 0.112 -0.0652 -0.105
 0.213 -0.0652 -0.0138
-0.657 -0.113  0.107
-0.792 -0.220  0.104
0.00339 -0.112 -0.299
 0.802 -0.124 -0.257
-0.830 0.0443  0.127
 0.752  0.165  0.186
 0.358 -0.0506  0.132
 0.439 0.0696  0.161
 0.536 -0.0395 -0.240
-0.753  0.224  0.179
 0.757 -0.0652 -0.110
-0.834 -0.383  0.153
 0.137 -0.113 -0.297
-0.836 -0.228 -0.305
 0.819 -0.0917 -0.177
-0.470  0.160  0.165
-0.816 -0.124 -0.256
-0.721 -0.0412 -0.147
-0.793 -0.316 -0.257
-0.647 -0.0652 -0.249
-0.686 -0.0402 0.0728
-0.421 -0.109  0.111
-0.0559 -0.0652 0.000634
 0.598  0.167  0.164
-0.789 -0.391 -0.235
-0.789  0.140  0.201
-0.431 -0.104 -0.300
-0.234 -0.0652 -0.0907
 0.175 0.0231  0.125
 0.516 -0.0652 -0.172
-0.205 -0.0466  0.126
-0.508 -0.0997  0.104
 0.849 -0.350  0.126
-0.813 -0.0516 -0.0715
-0.253 -0.0396 -0.236
-0.181  0.151  0.182
 0.555 -0.0652 0.0439
 0.483 0.0348  0.131
-0.586 -0.0339  0.136
 0.847  0.241  0.180
 0.843 -0.186 -0.306
-0.789  0.126 0.000644
 0.461  0.149  0.181
-0.335 -0.0401 -0.150
-0.816  0.163 -0.139
-0.263 0.0550  0.156
 0.194 -0.0410 -0.299
-0.787 -0.335  0.149
-0.469  0.299  0.195
 0.867  0.150 -0.335
-0.789 -0.343 -0.0875
-0.836 -0.00831 -0.257
-0.359  0.158  0.184
 0.795 -0.0949  0.111
-0.715 -0.0428  0.129
-0.0944 -0.0652 0.0776
 0.863  0.131 -0.129
-0.118 -0.0652 -0.192
-0.166 -0.0434 -0.301
-0.623 -0.0652 -0.0763
 0.733  0.279  0.239
 0.843 0.00611 -0.256
-0.793  0.162  0.121
-0.748 0.0608  0.135
 0.819 -0.282 -0.256
-0.594 -0.0652 0.0103
 0.459  0.267  0.218
-0.388  0.314  0.200
-0.306 -0.0900 -0.293
-0.0271 -0.0396 -0.236
-0.836  0.126 0.0984
 0.656 -0.0410 -0.299
-0.450 -0.0652 -0.211
-0.147 -0.0298  0.111
 0.800  0.155 0.0583
-0.834 -0.263  0.104
 0.386  0.291  0.242
 0.657  0.212  0.176
 0.175 -0.0398 0.0824
 0.850 -0.445 -0.283
 0.247 -0.0398 -0.120
 0.334 -0.0399 -0.154
 0.123  0.246  0.208
-0.837  0.146 0.0295
-0.434 -0.0311  0.135
-0.306 -0.0652 -0.0138
 0.838 -0.162  0.153
-0.836 0.0886  0.187
 0.771 -0.0402 -0.177
-0.806  0.197  0.168
-0.748 -0.0471 -0.302
 0.252  0.279  0.236
-0.542 -0.0471 -0.302
 0.790 -0.0659 -0.300
-0.676  0.123  0.175
 0.319  0.152  0.160
 0.247 -0.0652 -0.235
-0.837 -0.167  0.107
-0.0467 0.0312  0.132
 0.375 0.0729  0.139
 0.555  0.314  0.200
 0.802 -0.391 -0.224
-0.834 -0.427  0.104
 0.550 -0.0638 -0.0612
 0.847  0.180  0.213
-0.792  0.109  0.144
-0.186 -0.0652 0.0103
 0.386 -0.0402 0.0728
-0.190  0.256  0.212
-0.123 -0.0440 -0.0490
-0.546 -0.0652 -0.240
 0.622 -0.0652 -0.249
-0.565 -0.113 -0.297
 0.728 -0.109  0.104
-0.0174 -0.0402 -0.110
-0.349  0.106  0.147
-0.0559  0.273  0.192
 0.677 -0.103 -0.293
-0.763 -0.0652 -0.206
-0.392 -0.0652 -0.115
-0.330 -0.0652 0.0776
 0.800 -0.388 0.0920
 0.800 -0.0888 -0.0523
-0.580  0.303  0.196
-0.836 -0.191 -0.257
-0.224 -0.0652 -0.168
 0.800  0.136  0.150
0.00657 0.0853  0.165
 0.847  0.125 -0.216
-0.647  0.277  0.193
-0.836 0.0991 -0.305
-0.248  0.159  0.162
-0.806 -0.0917 0.0583
 0.411 -0.0646 -0.232
 0.766 -0.0402 -0.00417
-0.788 -0.359 -0.301
-0.801  0.163 -0.297
-0.788 -0.446 -0.243
-0.393 0.0726  0.138
 0.617  0.307  0.197
-0.248  0.291  0.243
-0.585  0.172  0.188
 0.209 -0.0402 -0.182
 0.261 0.0975  0.168
-0.0146  0.314  0.204
0.00339 -0.0637 0.0360
-0.285 -0.0418 -0.0622
-0.0559  0.167  0.164
 0.800 0.0927 -0.288
 0.800  0.155 -0.182
 0.276 -0.0652 0.0439
-0.392 -0.0439 -0.0490
-0.365  0.256  0.193
0.0595 -0.0651 -0.0631
 0.675  0.252  0.209
 0.849 -0.282  0.140
 0.670 -0.0383  0.135
 0.733 -0.0417 -0.216
 0.237 -0.0669  0.111
-0.0510 -0.113 -0.297
 0.151 -0.0398 -0.0763
-0.181 0.0642  0.136
-0.166 -0.112 -0.295
 0.819  0.299  0.195
 0.237 0.00398  0.120
 0.834 0.0251  0.122
 0.790 0.0820  0.163
0.0931 -0.0652 0.0103
 0.694  0.174  0.166
-0.239 -0.0652 0.0776
-0.470 0.0109  0.130
-0.748 -0.0652 -0.0330
-0.107 0.0396  0.130
 0.410  0.179  0.167
-0.724 -0.0402 -0.249
 0.603 0.0506  0.155
 0.847 -0.153 -0.257
-0.830 -0.124  0.153
 0.112 -0.0398 0.0728
-0.788  0.155 -0.230
 0.372 -0.113 -0.297
 0.810  0.125 0.0103
 0.497  0.210  0.198
-0.837 -0.432 -0.269
-0.138 -0.0398 0.0583
 0.849 -0.0372  0.135
-0.789 -0.391 0.0199
-0.142  0.307  0.197
 0.281  0.310  0.198
 0.462 -0.0324  0.121
 0.640 -0.0671  0.101
 0.805 -0.215  0.104
 0.825 -0.0436 -0.198
 0.805 -0.0915 0.000634
-0.535  0.257  0.212
 0.805 -0.439 -0.245
0.0879  0.299  0.244
-0.837  0.179  0.207
 0.825 -0.344 -0.126
-0.786 -0.0407 -0.131
 0.807 -0.445  0.118
-0.245 -0.0411 0.0211
-0.534  0.203  0.179
 0.803  0.144  0.203
 0.399  0.233  0.204
 0.195  0.283  0.241
-0.492 -0.0637 0.0360
-0.793  0.162 -0.0571
-0.699 -0.111 -0.295
-0.812 -0.344 -0.139
 0.849 -0.244  0.105
 0.849  0.256  0.231
 0.850  0.150  0.155
 0.160  0.290  0.194
0.0614 0.0129  0.124
 0.829 -0.0788 -0.254
 0.305 -0.0756  0.111
 0.657 0.0196  0.124
 0.338 -0.0652 -0.278
 0.665 -0.0398 -0.206
-0.667 -0.0402 -0.182
 0.293 0.0399  0.149
 0.170 -0.0402 -0.0282
-0.0752 -0.0652 -0.235
-0.734  0.277  0.193
 0.802 -0.0124  0.161
0.0835 -0.0402 -0.273
-0.513 0.0359  0.151
-0.00783 -0.0652 0.0920
-0.813 -0.0756 -0.235
 0.850 0.0831  0.155
 0.850 -0.398  0.107
-0.788 -0.200 -0.301
 0.406 -0.0650 -0.0466
-0.788 -0.268 -0.301
 0.805 -0.0915 -0.115
 0.567 -0.0179  0.126
 0.849  0.128 -0.0278
-0.364 0.0313  0.129
-0.548 -0.0671  0.101
 0.824  0.162 -0.105
 0.327 -0.0403 -0.0643
 0.800 -0.359 -0.278
 0.425 -0.0652 -0.0955
-0.710 -0.0652 -0.100
-0.488  0.279  0.238
 0.637  0.279  0.239
 0.564 -0.0852 -0.293
 0.762  0.246  0.185
-0.0260  0.203  0.183
 0.800 -0.239 -0.297
0.00661 -0.0638 -0.0612
-0.489 -0.0398 -0.296
-0.156 -0.0439 -0.217
 0.358 -0.0632 0.0215
-0.302 0.00652  0.143
 0.317  0.221  0.178
 0.569 -0.0652 -0.00898
-0.253  0.252  0.209
 0.656 -0.0652 0.0487
-0.426  0.256  0.212
-0.662 0.0795  0.140
-0.215 -0.0398 -0.288
0.0647  0.159  0.162
-0.662 -0.00237  0.141
 0.781  0.295  0.244
 0.849 0.0398 -0.305
-0.825 -0.00831 -0.306
 0.473 -0.0398 -0.00420
-0.0739 -0.0572  0.127
-0.782 -0.109  0.111
 0.717 0.0639  0.154
 0.209 0.0926  0.159
-0.156  0.117  0.150
-0.837  0.275  0.207
 0.156  0.136  0.155
 0.569  0.216  0.178
0.0162 -0.0652 -0.264
 0.675 -0.0435 -0.133
 0.401 -0.0398 -0.168
 0.849  0.117 -0.288
 0.787 -0.0418 -0.0622
 0.154 -0.0565  0.124
-0.681  0.291  0.242
 0.694  0.108  0.170
-0.787 0.0638 -0.264
-0.392 -0.0565  0.130
 0.618  0.117  0.150
-0.0848  0.312  0.199
-0.302  0.299  0.244
-0.407  0.176  0.189
-0.734  0.180  0.190
-0.788 -0.388 -0.163
 0.805 0.0542 -0.256
-0.812 -0.0436 0.0391
 0.252  0.210  0.198
 0.825 -0.0439 0.0231
 0.189 -0.0650 -0.129
0.0210  0.207  0.197
-0.788 -0.297  0.107
 0.252 -0.0398 0.0102
 0.847 -0.138  0.104
-0.474 -0.0402 -0.172
 0.849 -0.321 -0.273
-0.436 0.0889  0.165
-0.191 -0.0949  0.111
 0.823 -0.343 -0.0190
-0.830 -0.0469  0.104
 0.665 -0.0652 -0.0330
0.0547 -0.0652 0.0920
-0.788 -0.0889 -0.0475
-0.340  0.310  0.198
 0.271 -0.113 -0.297
-0.0848 -0.0656 -0.288
-0.788 -0.162 -0.264
-0.739 -0.0652 0.0920
-0.503 -0.0402 0.0776
 0.800 -0.345  0.116
-0.796  0.276  0.239
-0.0245  0.122  0.175
 0.805 -0.0227 -0.256
 0.795 -0.0398 0.0679
 0.826 -0.383 0.0391
-0.792 -0.343 0.0679
-0.789 -0.212  0.152
 0.454 -0.0652 -0.264
 0.329  0.303  0.196
-0.200 -0.0652 -0.124
 0.849  0.158 0.0711
 0.252 -0.0564 -0.0607
-0.301 -0.104  0.111
-0.836 -0.316  0.152
-0.594  0.259  0.215
 0.353  0.104  0.169
-0.388 -0.0652 -0.00418
 0.180 -0.0399 0.0184
 0.435 -0.0652 0.0583
0.0451  0.261  0.216
 0.823 -0.392 -0.168
-0.644  0.231  0.181
-0.609 0.00398  0.120
 0.800 -0.177 -0.288
-0.393 -0.00397  0.118
 0.564  0.269  0.211
-0.300  0.247  0.203
-0.162 -0.0652 -0.0330
-0.448  0.211  0.198
-0.0944 0.0918  0.143
-0.796  0.323  0.208
 0.473  0.311  0.212
 0.310 -0.0652 -0.201
 0.814 -0.393 -0.0475
 0.747 -0.0126  0.138
 0.410 -0.0506  0.132
 0.199  0.189  0.170
-0.811  0.241  0.180
 0.483 -0.0705  0.103
 0.497 -0.0395 -0.0716
-0.138 -0.0398 -0.105
-0.258 -0.0398 -0.187
 0.603 -0.0652 -0.0859
 0.802 -0.234  0.152
 0.526 -0.0611 -0.301
-0.0575 -0.0414 -0.147
-0.834  0.125 -0.158
0.0499 -0.0652 -0.172
 0.814  0.163 -0.283
 0.492 -0.0402 -0.259
 0.463 -0.0402 -0.115
 0.709 -0.0652 -0.110
 0.536 -0.0435 -0.133
 0.718 -0.0652 0.00545
-0.498  0.126  0.153
 0.553 -0.0671  0.101
-0.813 -0.350 -0.0475
-0.392 -0.0652 0.0439
 0.747 -0.0652 -0.254
 0.829 -0.0612  0.102
-0.216  0.227  0.184
-0.301 -0.0398 -0.105
-0.111  0.189  0.174
-0.386 -0.0419 -0.231
 0.439  0.299  0.244
-0.563  0.301  0.243
-0.801 0.00313  0.116
-0.0896 -0.0399 0.0184
 0.536  0.129  0.153
-0.104  0.299  0.244
-0.820  0.125 -0.240
 0.402 0.0342  0.128
 0.319 -0.0399 0.0184
 0.320 -0.0265  0.112
-0.0752 -0.0397 -0.100
-0.239 -0.0398 -0.128
-0.830  0.163 0.0728
-0.787 -0.398  0.149
-0.306  0.186  0.169
-0.268 0.0986  0.145
-0.498 -0.0652 -0.206
-0.768  0.164  0.163
-0.618 -0.0901  0.111
-0.633 -0.0402 -0.214
 0.883  0.150 -0.225
-0.836 -0.117 -0.305
-0.727 0.0222  0.125
-0.870  0.137 -0.297
 0.723  0.299  0.195
0.0258  0.295  0.194
-0.786 -0.0752 -0.302
-0.790  0.161 0.0279
 0.814  0.162 -0.0138
 0.103 -0.0756 -0.293
-0.691 -0.0402 -0.0186
-0.604 -0.0402 -0.0282
-0.837 -0.273 -0.269
-0.834  0.125 -0.0667
-0.354 -0.0398 -0.0234
 0.598 -0.0652 -0.153
0.0739 -0.0398 -0.100
 0.825 -0.0612 -0.0763
-0.690  0.186  0.169
 0.612 -0.0398 -0.210
-0.215 -0.0398 -0.0421
 0.175 -0.0804 -0.293
-0.465 -0.0652 -0.00418
 0.824 -0.282  0.104
-0.647 -0.0398 -0.296
-0.777 -0.0402 -0.00417
-0.830 0.0869  0.138
-0.503 -0.0607 -0.134
0.00700 -0.0147  0.115
-0.575  0.123  0.174
-0.836 -0.335 -0.257
-0.216  0.179  0.183
 0.569 0.0741  0.140
 0.146 -0.0402 -0.197
 0.825 -0.355 -0.235
-0.138 -0.0756 -0.293
 0.435 -0.0652 -0.0138
-0.667 -0.0402 -0.100
 0.632 -0.0398 -0.128
-0.248 -0.0355  0.136
-0.849  0.163 -0.0907
-0.388 -0.0399 -0.150
 0.516 -0.00237  0.141
-0.551 -0.0402 -0.100
 0.473 -0.0398 -0.163
-0.834 -0.374  0.104
 0.439  0.121  0.151
-0.373 -0.0611 -0.301
 0.512 -0.0632 0.0216
 0.714 -0.0400 0.0404
 0.849 -0.181  0.105
 0.370  0.314  0.204
-0.104  0.239  0.183
-0.796 -0.0917 -0.168
 0.512  0.295  0.194
 0.474 -0.113 -0.297
 0.847  0.125 -0.172
0.0739 -0.0402 -0.0234
 0.406 -0.112  0.110
-0.725 0.0973  0.160
-0.470 -0.0377  0.107
 0.584 -0.0402 -0.249
 0.612  0.195  0.194
-0.849  0.162 -0.225
 0.742 -0.0402 0.0776
 0.228 -0.0652 -0.273
-0.450 -0.0652 -0.0907
-0.753  0.314  0.200
-0.614 -0.0659 -0.300
 0.406  0.273  0.192
-0.138 0.0133  0.145
-0.494  0.185  0.191
0.0931 0.0784  0.163
-0.344 -0.0398 -0.192
 0.377 -0.0159  0.116
 0.507 0.0595  0.157
 0.781 -0.0461  0.133
-0.837 0.0301 -0.283
0.0258  0.140  0.156
-0.763 -0.0516 0.0343
-0.287 -0.0652 -0.264
-0.306 -0.0436 0.0229
-0.834  0.136  0.201
 0.787 -0.108 -0.293
 0.802  0.199  0.218
-0.777 -0.0669  0.111
-0.219 -0.0607 -0.218
 0.108  0.117  0.150
-0.575 -0.0402 0.0824
 0.850 -0.393  0.149
 0.550 -0.0402 -0.177
-0.604 -0.0402 -0.163
-0.349 -0.0652 -0.235
-0.662 -0.0652 0.0487
-0.599 -0.0402 -0.100
-0.216 0.000994  0.122
-0.837 -0.215  0.111
 0.112  0.310  0.198
-0.388  0.279  0.223
-0.417 -0.0398 -0.192
-0.0896 -0.0651 -0.0631
-0.147  0.241  0.206
 0.699 -0.0402 -0.0330
-0.753 -0.0652 -0.124
 0.488  0.182  0.168
-0.796 -0.00112  0.164
 0.372  0.164  0.163
 0.800  0.131 -0.0907
 0.588 -0.0395 0.0968
 0.367 -0.0564 -0.0607
 0.699 -0.0652 -0.211
-0.811  0.163 -0.197
 0.329  0.248  0.208
 0.699 -0.0147  0.115
 0.103  0.224  0.179
-0.830 -0.0804  0.153
 0.512 -0.0398 -0.206
-0.118 -0.0398 -0.154
 0.824 -0.383 -0.306
-0.0655  0.127  0.176
 0.829  0.163 -0.211
 0.829 -0.407 -0.256
 0.247 -0.0355  0.136
 0.588 0.0133  0.145
 0.824 -0.124  0.153
0.0210 -0.0652 -0.206
-0.138  0.158  0.184
-0.811 0.0638 -0.306
-0.359 -0.0398 -0.115
 0.850 -0.440  0.108
-0.788 -0.383 0.0632
 0.439 -0.0396 -0.292
-0.813 -0.374 -0.0138
-0.584 0.0574  0.134
 0.685 -0.0708  0.111
 0.386 -0.0652 -0.00898
 0.806  0.253  0.183
-0.796  0.180  0.213
-0.724 -0.0473 -0.0606
-0.753 -0.0402 -0.172
 0.175 0.0506  0.155
-0.450 -0.0516 -0.303
 0.406 -0.0804 -0.293
 0.819 -0.345  0.153
-0.0603 -0.0113  0.116
 0.850 -0.210 -0.273
 0.843 -0.345 -0.306
-0.358  0.198  0.172
0.0931 -0.0541  0.131
0.0455 -0.0632 0.0215
 0.838  0.125 -0.0667
 0.838  0.125 0.0439
 0.502  0.146  0.181
0.0643 0.0435  0.154
 0.230  0.161  0.163
-0.503  0.277  0.193
 0.800 -0.196  0.140
-0.537 -0.0652 -0.0715
-0.618  0.150  0.182
-0.833  0.162  0.116
-0.836 -0.234 -0.257
-0.763 0.0854  0.164
-0.0992 -0.0901  0.111
-0.248  0.119  0.174
-0.789 -0.343 -0.227
 0.802  0.126 -0.209
-0.508 0.000502  0.119
0.0306 0.0535  0.133
-0.0271 -0.0949  0.111
-0.825 -0.167  0.153
-0.489 -0.0516 -0.0607
0.0190 -0.0565  0.124
 0.810  0.103  0.192
-0.618  0.199  0.179
-0.777 -0.0402 -0.0454
 0.717  0.141  0.169
-0.196 -0.0852 -0.293
 0.699 -0.0402 -0.273
 0.425 -0.0397 0.0872
 0.160  0.233  0.204
-0.239 0.0388  0.129
 0.295 -0.0652 -0.0667
-0.686 -0.0395 -0.240
 0.752  0.210  0.198
 0.742 -0.0402 -0.150
 0.699 -0.0652 -0.0715
-0.813 -0.383 -0.0811
 0.617 -0.0397 0.00541
-0.460 -0.0997  0.111
 0.800 0.0157 -0.264
 0.810  0.163 -0.0571
 0.127 -0.0652 -0.163
 0.458 0.00652  0.143
-0.421 -0.0402 -0.105
 0.834 -0.0756 -0.306
 0.237  0.265  0.190
-0.316 -0.0402 -0.254
-0.662 -0.0652 -0.0282
 0.814  0.112 -0.257
-0.652  0.311  0.211
-0.431  0.307  0.197
-0.0271  0.263  0.217
 0.199  0.280  0.194
-0.576 -0.0717 -0.292
-0.306 -0.0652 -0.172
 0.209 0.0160  0.144
 0.810 -0.143 -0.306
 0.170 -0.0650 -0.215
 0.380 -0.0671  0.101
-0.551 -0.0398 -0.210
-0.787  0.136 -0.139
-0.561 -0.0396 0.0147
-0.691 -0.0636 0.0224
 0.292  0.121  0.174
 0.156 -0.0402 -0.269
 0.824 -0.0612  0.153
 0.276 -0.0417 -0.216
-0.555 -0.0277  0.114
-0.647 -0.0652 0.0872
-0.00262 -0.0603 -0.146
-0.0800 0.0506  0.155
 0.516 -0.0652 0.0728
-0.325 -0.0607 -0.0499
-0.0511 -0.0652 -0.269
-0.580 -0.0652 0.0487
 0.430 -0.0652 -0.187
-0.795  0.137 -0.325
-0.782 -0.0656 -0.0907
 0.180 -0.0652 0.0535
 0.281 -0.0398 0.0728
-0.388 -0.0901  0.111
-0.373 -0.0652 -0.0811
-0.162 -0.0650 -0.129
-0.455 -0.0395 0.0487
 0.362 -0.0652 -0.158
 0.160  0.169  0.187
-0.792  0.125 -0.0378
-0.734 -0.0395 -0.206
-0.186 0.0889  0.165
-0.311 -0.0410 -0.299
 0.313  0.184  0.190
 0.656  0.101  0.169
-0.695 -0.0708  0.111
-0.753 -0.0652 -0.254
-0.417 -0.0652 -0.235
-0.518 -0.0652 -0.278
 0.353 -0.0652 -0.110
-0.537 -0.0402 -0.0186
-0.263 -0.0402 -0.0955
 0.377  0.214  0.178
 0.276 -0.0607 -0.134
-0.793 -0.278 -0.256
 0.632 -0.109  0.111
-0.793  0.162 -0.0186
-0.152 -0.0402 -0.259
-0.792 -0.181  0.104
 0.823 -0.343 0.0195
 0.569 -0.0398 -0.0378
 0.545 -0.104  0.104
 0.396 -0.0607 -0.134
 0.847  0.322  0.212
-0.811 -0.133  0.104
-0.825 -0.273  0.153
 0.439 0.0423  0.130
 0.800 -0.364 -0.153
-0.753 -0.0423  0.134
-0.0992 -0.0398 -0.0186
-0.0174 -0.0396 0.0147
-0.700 0.00204  0.142
 0.847 0.0831 -0.306
-0.00783  0.287  0.241
 0.319 0.00646  0.143
 0.713  0.252  0.209
-0.311 0.0872  0.142
-0.0463 -0.0652 0.0967
-0.212  0.301  0.243
 0.802 -0.249 -0.257
 0.800 0.0254  0.164
-0.834  0.125 -0.120
-0.792 -0.0272 -0.305
 0.136 -0.0652 0.0872
 0.829 -0.0131 -0.306
-0.0944 -0.0398 -0.206
-0.834 0.0519  0.178
 0.485  0.243  0.186
-0.216 0.0638  0.150
 0.584 -0.0652 0.0679
-0.585 -0.0649 -0.231
-0.191 -0.0398 -0.192
-0.570 -0.0652 -0.172
 0.834 -0.282 -0.306
-0.113 -0.0633 -0.229
-0.0703 -0.0652 0.0487
 0.786 -0.0652 -0.153
-0.306 -0.0402 0.0920
 0.555 -0.0402 -0.273
-0.785  0.248  0.213
 0.219 -0.0603 0.0230
-0.272 -0.0652 -0.211
-0.205 -0.0402 -0.0955
 0.589 -0.0546  0.131
-0.715 -0.0397 -0.288
 0.800  0.141  0.106
-0.801  0.125  0.111
 0.665  0.176  0.189
-0.503 -0.0621  0.110
-0.473  0.253  0.187
 0.790 -0.0564 0.0232
-0.155 -0.0637 0.0360
 0.843 -0.417 -0.306
 0.849 -0.110 -0.260
 0.743 0.0264  0.126
 0.123  0.189  0.183
-0.474  0.101  0.169
 0.657 -0.0418 -0.0623
 0.117 0.0213  0.147
-0.590 -0.0668  0.111
-0.580 -0.0652 -0.0811
-0.125 -0.0565  0.124
-0.0367 -0.0652 -0.0907
0.0377  0.242  0.186
-0.686 -0.0652 -0.163
-0.277 -0.0652 0.0151
-0.436  0.127  0.176
-0.836  0.126 -0.195
-0.147  0.279  0.223
 0.545 -0.0650 -0.215
0.0290 -0.0415 -0.147
-0.0480  0.231  0.204
 0.358 -0.0652 0.0583
 0.568  0.146  0.161
 0.314 -0.0516 -0.303
-0.435  0.189  0.170
-0.00781 -0.0709 -0.293
 0.252 0.0291  0.149
0.0627  0.309  0.219
-0.837 -0.0949 -0.264
 0.814 -0.417  0.153
-0.272 -0.0652 0.0920
-0.0214 -0.00239  0.141
 0.199 -0.0473 -0.0497
-0.450 -0.0652 -0.269
-0.729 -0.0852 -0.300
 0.850 -0.00350  0.150
 0.257 -0.0402 -0.0282
0.0739  0.241  0.206
-0.417 -0.0652 -0.0763
-0.397 -0.0901 -0.300
-0.706  0.260  0.211
 0.819 -0.393 -0.0907
 0.569 -0.0398 -0.0811
 0.252  0.133  0.154
-0.801  0.162 -0.105
 0.810 0.0561  0.130
-0.729 -0.0650 0.0392
-0.841  0.129 -0.275
-0.383 -0.0652 -0.259
 0.810  0.163 -0.139
 0.622 -0.0402 -0.278
-0.263 -0.0900 -0.293
0.0931 -0.0652 -0.245
 0.850  0.280  0.203
 0.305 -0.0652 -0.264
 0.526 -0.0652 -0.264
-0.805 -0.447  0.113
 0.401 -0.0402 -0.259
 0.853  0.163 -0.144
 0.329 -0.0652 -0.0378
-0.609 -0.0436 0.0356
-0.471 0.0487  0.155
-0.138  0.204  0.196
 0.209 -0.0901  0.111
-0.181 -0.0652 0.0872
-0.335 -0.0656 -0.288
-0.205 -0.0401 -0.150
-0.763  0.276  0.220
-0.354 -0.0652 -0.168
 0.675 -0.0652 -0.182
-0.0944 -0.0652 -0.163
 0.579 -0.0471 0.0238
0.0787 -0.0516 -0.134
 0.276  0.201  0.173
 0.776 -0.0402 -0.269
 0.709 -0.0852 -0.293
-0.813 -0.0888 -0.201
-0.417 -0.0652 0.0920
-0.445 -0.0396 -0.236
 0.603 0.0853  0.165
 0.117 -0.0402 0.000653
-0.555  0.237  0.189
 0.819  0.281  0.239
 0.233 -0.0652 -0.172
 0.631  0.166  0.183
 0.459 -0.0402 0.0679
 0.567  0.179  0.179
-0.364 0.0671  0.160
 0.847  0.215  0.223
-0.118 -0.0471 -0.302
 0.526  0.217  0.177
-0.788 -0.119 -0.278
 0.290 -0.0507  0.132
-0.640 -0.0183  0.117
-0.0258 0.0590  0.140
 0.334 0.0595  0.157
 0.630 0.0440  0.132
-0.551 -0.0402 -0.269
-0.777 0.0257  0.148
 0.752 0.0506  0.155
 0.829 -0.220 -0.306
 0.410 -0.0398 -0.206
-0.200 -0.0652 -0.0667
 0.286 -0.0804 -0.300
-0.224 -0.0652 0.00545
 0.814 0.0939  0.140
 0.694 0.0490  0.132
 0.646 -0.0396 -0.236
-0.109 -0.0402 -0.0811
-0.386  0.102  0.168
 0.704 -0.0399 -0.236
 0.540 -0.0399 0.0184
 0.546 0.0868  0.165
 0.800 -0.287 -0.288
-0.768  0.119  0.174
 0.103 -0.0652 -0.206
-0.867  0.133 -0.216
 0.223 -0.0417 -0.216
-0.0174 -0.0652 -0.182
-0.644  0.140  0.157
 0.834  0.162 -0.338
 0.521 -0.0398 0.0487
-0.792 -0.0422  0.154
-0.335 -0.0756  0.111
-0.450  0.279  0.223
-0.782  0.210  0.199
 0.531  0.280  0.227
-0.647 -0.0756 -0.300
-0.518 -0.0436 0.0229
-0.686 -0.0652 -0.264
-0.176 -0.0652 -0.0955
-0.340 -0.0652 0.0439
-0.0992 -0.0333  0.110
-0.368 -0.0652 0.0872
-0.788 -0.0901 -0.254
-0.835  0.162 -0.288
 0.420 -0.0398 -0.120
 0.516 -0.0756  0.111
 0.810 -0.316 -0.256
 0.348 -0.0398 -0.249
 0.849 -0.316  0.116
-0.813 -0.0612 -0.120
-0.676  0.155  0.160
 0.410 -0.0398 -0.0763
 0.247 -0.0652 -0.0955
 0.189 -0.0652 -0.259
 0.185 -0.0112  0.116
 0.814 0.0643  0.181
 0.266 -0.0398 -0.249
 0.212 -0.0412 -0.147
 0.850 -0.444 0.0730
-0.825  0.307  0.197
-0.171 -0.0541  0.131
 0.781 0.00398  0.120
-0.704 0.0734  0.145
-0.00301 -0.0398 -0.0378
-0.556 -0.0396 -0.154
 0.372 -0.0756 -0.300
-0.801 -0.340  0.101
-0.788 -0.359 -0.120
-0.640 0.0252  0.131
-0.788 -0.254  0.111
-0.239 -0.0652 -0.254
-0.0800  0.271  0.220
 0.112 -0.0471 0.0347
 0.507 -0.0652 -0.0282
 0.286 -0.0402 -0.105
-0.133 -0.0652 -0.0811
0.0980 -0.0652 -0.0667
-0.522  0.108  0.170
-0.0271 -0.0652 -0.0186
-0.585 0.00989  0.144
-0.219 -0.0652 0.0487
-0.720 -0.0652 -0.0138
 0.685  0.140  0.156
 0.641 -0.0402 0.0679
 0.850  0.179  0.174
-0.618 -0.0402 -0.249
-0.796 -0.326 -0.306
-0.801  0.163  0.154
-0.266  0.312  0.208
-0.217  0.261  0.190
 0.689 -0.0563 -0.302
0.0306 -0.00936  0.139
-0.558  0.178  0.167
 0.867  0.131 -0.249
-0.0800 0.0196  0.124
-0.796 -0.167 -0.306
 0.358  0.280  0.226
-0.280  0.165  0.179
 0.882  0.137 -0.307
-0.426 0.00398  0.120
 0.343 -0.0402 -0.187
 0.425  0.242  0.184
 0.493 -0.0632 -0.147
 0.826 -0.0887 -0.211
 0.406 0.0628  0.158
 0.310 -0.109  0.104
-0.479 -0.0652 -0.110
 0.829 -0.364  0.102
 0.652  0.275  0.198
 0.180 -0.0652 -0.182
0.0835 -0.0215  0.136
-0.686 -0.0368  0.107
-0.340 0.0133  0.145
 0.454  0.182  0.168
0.0884  0.176  0.189
 0.632 -0.0607 -0.0499
 0.829 -0.109  0.104
 0.636 -0.0650 -0.215
 0.247 -0.0396 -0.154
-0.825  0.257  0.233
-0.402  0.261  0.189
 0.507  0.259  0.215
-0.816 -0.355  0.153
-0.431 -0.0652 0.0535
-0.834  0.215  0.173
 0.883  0.150 -0.110
-0.0655 -0.0402 0.0824
-0.788 -0.379 -0.273
-0.835  0.163 -0.173
 0.281  0.271  0.219
-0.0607 -0.0652 -0.0330
-0.867  0.133 -0.163
0.0162 -0.0398 -0.105
 0.252 -0.0652 -0.201
 0.305 -0.0652 -0.168
-0.128 -0.0652 0.0824
 0.800 -0.311  0.111
 0.401 -0.0652 0.0535
 0.536 -0.0652 -0.105
 0.286 -0.0402 0.00545
 0.531 -0.0395 -0.0763
 0.228  0.305  0.235
 0.814  0.125 0.0679
 0.825 -0.374 -0.206
-0.799 -0.447 -0.211
-0.643 -0.0473 -0.0497
-0.788 -0.0889 -0.00417
-0.325 -0.0650 -0.129
0.0254 -0.0804 -0.293
-0.614  0.307  0.197
-0.186  0.307  0.197
0.0980  0.276  0.220
-0.618 -0.0540  0.131
-0.810 -0.0424 -0.0282
 0.805 -0.157 -0.256
 0.880  0.133 -0.197
-0.0607 -0.0410 -0.299
 0.838 -0.0275 -0.256
-0.527 -0.0393 -0.124
 0.151 0.0256  0.149
-0.813 -0.0756 0.0872
-0.239 -0.0656 -0.288
-0.789 -0.417  0.105
 0.685 0.0697  0.160
 0.136 -0.0756 -0.293
 0.189  0.220  0.178
 0.627 0.00392  0.120
-0.0800 -0.0402 -0.259
-0.445 -0.0621  0.110
 0.802 -0.0405 -0.0923
0.0306 -0.0398 0.0487
 0.156 -0.0650 -0.129
 0.564 -0.0652 -0.153
 0.183  0.314  0.204
-0.191 -0.0652 -0.168
 0.800  0.126 -0.288
-0.436 -0.0402 -0.0186
 0.819 -0.417  0.104
-0.825  0.131 -0.312
 0.463 -0.0398 -0.0811
0.0389 0.0736  0.159
-0.729 -0.0402 -0.115
 0.627 -0.0395 -0.0763
 0.786  0.116  0.172
-0.162  0.180  0.190
-0.335  0.135  0.178
 0.781  0.189  0.170
 0.752  0.306  0.231
-0.277  0.276  0.221
 0.800 -0.0756 0.0679
 0.689 -0.0402 -0.163
 0.847 -0.00457  0.114
-0.276  0.220  0.178
-0.276 -0.0232  0.113
 0.847  0.125 0.00545
-0.0944  0.161  0.185
-0.325  0.265  0.190
-0.362  0.218  0.200
 0.285  0.155  0.160
 0.617  0.263  0.217
-0.789 -0.0911 0.0295
-0.320 -0.0417  0.134
 0.353  0.239  0.183
 0.632 -0.0546  0.131
 0.151 0.0639  0.136
-0.258 -0.0603 -0.0607
-0.812 -0.391 -0.185
 0.156  0.267  0.218
 0.849 -0.268 -0.260
 0.603  0.138  0.179
 0.103 0.00737  0.121
-0.729 -0.0128  0.139
 0.156 -0.0652 0.00545
-0.138 -0.0652 -0.163
-0.726 0.0443  0.153
-0.0463 -0.0756 -0.300
 0.175 -0.0705  0.103
-0.193  0.120  0.174
-0.426 0.0726  0.138
 0.743  0.193  0.171
-0.657 -0.0652 -0.201
 0.151 -0.0652 -0.0378
 0.850  0.128  0.130
 0.329 -0.0402 -0.115
 0.694 -0.0652 0.0632
 0.175  0.116  0.173
 0.837 -0.446 -0.250
 0.402  0.151  0.182
 0.430  0.152  0.159
 0.598  0.277  0.193
 0.420 0.0952  0.144
-0.0271 -0.0402 -0.201
 0.672  0.279  0.234
0.0390  0.160  0.182
 0.612 -0.0652 -0.120
 0.230  0.228  0.182
-0.786 -0.0471 -0.221
 0.800 -0.417 -0.269
-0.613 0.0742  0.161
 0.103 -0.108 -0.293
0.0739 -0.0516 -0.303
0.0643 -0.0901  0.111
 0.343 -0.0607 -0.218
 0.438 -0.0440 -0.230
 0.218  0.271  0.219
 0.810  0.125 -0.172
-0.555 0.0494  0.145
-0.801 -0.191 -0.256
 0.544  0.150  0.182
 0.825 -0.344 -0.160
 0.319 -0.0650 0.0392
-0.285 -0.0419 -0.231
-0.537 -0.0804 -0.300
 0.266 -0.0231  0.113
-0.263 -0.0901  0.111
-0.435  0.239  0.183
 0.458  0.101  0.169
-0.386 0.0148  0.146
 0.258  0.308  0.223
 0.483  0.275  0.198
-0.825 -0.258 -0.306
-0.788 -0.359 0.000644
 0.487 -0.0652 -0.187
-0.720 -0.0652 -0.177
-0.788 -0.359 0.0391
-0.837 -0.326 -0.288
 0.612 -0.0402 -0.168
-0.820 -0.369 -0.306
-0.234 -0.0402 -0.0138
-0.0271 -0.0398 -0.158
 0.536 -0.0461  0.133
 0.824  0.107 -0.306
 0.233  0.112  0.172
 0.622 -0.0652 -0.0186
-0.301 0.0490  0.136
-0.234 -0.0368  0.107
-0.277 -0.0652 -0.110
-0.205 -0.0396 0.0147
-0.772 -0.0333  0.110
 0.849 0.0542  0.140
 0.795 -0.0656 -0.264
 0.555 -0.0652 -0.249
-0.431 -0.0402 0.0776
-0.647  0.191  0.193
-0.695 -0.0402 -0.115
 0.738 -0.0395 0.0102
 0.800 -0.364 -0.0571
 0.228 -0.0398 -0.0907
-0.788 0.0831 -0.293
-0.276  0.129  0.154
-0.772  0.180  0.190
 0.186 -0.112 -0.299
 0.766 -0.0804  0.111
-0.388 -0.0399 0.0184
-0.788 -0.355 -0.172
-0.667 -0.0399 -0.150
-0.813 -0.0471 -0.148
-0.813 -0.388 0.0824
 0.473  0.284  0.241
-0.531 -0.00570  0.140
-0.316  0.279  0.223
 0.596 -0.0403 -0.0643
-0.580 0.0888  0.166
-0.316  0.108  0.170
 0.123 0.0827  0.143
-0.134 0.0568  0.135
 0.497 -0.0402 0.0776
0.0451 -0.0402 -0.192
 0.717  0.179  0.187
-0.854  0.131 -0.0907
-0.661  0.110  0.148
 0.386 -0.0652 -0.0859
 0.594 -0.0632 -0.230
-0.210 -0.0705  0.103
-0.147 -0.0652 -0.240
-0.623 -0.0652 -0.168
-0.643 -0.0402 -0.0138
 0.584  0.310  0.216
-0.806 0.0981  0.191
 0.184 0.0829  0.141
-0.306 -0.0398 -0.0330
 0.670 0.0325  0.150
 0.271 0.0574  0.134
-0.136  0.303  0.241
-0.599 -0.0368  0.107
-0.702  0.214  0.177
-0.134  0.276  0.194
-0.0367 -0.0650 0.0392
 0.343 -0.0852  0.111
 0.883  0.150 -0.144
-0.474 -0.0632 -0.146
 0.136 -0.0398 -0.128
 0.367 0.0290  0.149
-0.813 -0.369 -0.158
 0.821 -0.446 0.0900
-0.820 0.0301 -0.256
-0.820 -0.297 -0.256
 0.752 -0.0652 -0.177
 0.463 0.0497  0.153
 0.536 -0.00787  0.117
 0.757 -0.0402 -0.0907
 0.685 -0.0516 0.0343
 0.180  0.195  0.194
-0.0126 -0.0398 -0.264
 0.271 -0.0621  0.110
 0.415  0.195  0.194
-0.863  0.162 -0.273
 0.544  0.199  0.196
-0.513 0.0918  0.143
 0.843  0.163  0.102
-0.0254  0.160  0.165
-0.561  0.204  0.196
-0.643  0.248  0.208
-0.385  0.198  0.188
-0.239 0.00989  0.144
 0.580 -0.112 -0.297
 0.800 -0.383 -0.254
-0.397 -0.0410 -0.299
 0.819  0.162 0.0343
-0.813 -0.383 -0.216
-0.787  0.146 0.0920
-0.503  0.212  0.176
 0.766  0.155  0.160
-0.529 -0.0403 -0.233
-0.542 -0.0636 0.0224
 0.636 -0.0564 0.0236
 0.685  0.239  0.183
 0.630  0.145  0.158
 0.171  0.258  0.188
-0.0511  0.311  0.211
-0.744  0.237  0.205
-0.816 -0.412 -0.256
-0.686 -0.0997  0.104
 0.799 -0.0397 -0.00897
 0.237 -0.0997  0.104
-0.825 -0.302  0.104
 0.795 -0.0410 -0.131
 0.293 0.0154  0.127
0.0306  0.102  0.146
-0.796 -0.0917 -0.0811
 0.492 -0.0215  0.136
-0.820  0.163 -0.0715
0.0835 -0.0368  0.107
-0.788 -0.119  0.140
-0.584  0.279  0.236
 0.802 -0.0909 -0.147
-0.676 0.0299  0.127
-0.594 -0.0410 -0.299
 0.651 -0.0709 -0.293
 0.798 -0.0674 -0.0298
 0.285  0.106  0.147
-0.0896  0.265  0.190
 0.766 -0.0368  0.107
-0.788  0.128 -0.245
 0.626  0.229  0.203
 0.723 -0.0402 -0.187
 0.483 -0.0804 -0.293
 0.130 -0.0439  0.109
 0.521  0.104  0.170
 0.571  0.246  0.185
-0.114 -0.0652 0.0535
-0.470 -0.0224  0.134
-0.287 -0.0652 -0.0378
-0.421 -0.0709 -0.300
-0.00301 -0.0402 -0.0811
 0.723 -0.0652 -0.273
-0.575  0.273  0.192
-0.810 -0.392 0.0439
-0.330 -0.0402 -0.00417
-0.667 -0.0997 -0.300
0.0647  0.279  0.238
-0.0751 -0.0398 -0.182
 0.656 -0.0402 -0.0138
 0.247 -0.0949 -0.293
 0.729 -0.0637 -0.133
-0.469 -0.0652 -0.245
-0.263 -0.0398 -0.0378
-0.176 -0.0398 -0.0234
-0.335 -0.0652 -0.0907
 0.218 -0.0398 -0.259
-0.0126 -0.0652 -0.245
-0.133 -0.0398 -0.182
 0.295 -0.0652 0.0824
-0.268 -0.0652 0.0487
-0.176 -0.0391  0.103
 0.108 -0.0398 -0.254
 0.300 -0.0417 -0.0476
 0.795 -0.0398 -0.201
 0.343 -0.0411 0.0375
-0.147 0.000502  0.119
-0.787 -0.181  0.149
-0.830 -0.436 -0.306
 0.247 -0.0607 0.0344
-0.239 0.0872  0.142
-0.513 -0.0652 0.0583
-0.398  0.299  0.244
-0.418 -0.0412 -0.147
 0.598 -0.0852 -0.300
 0.636  0.307  0.226
 0.233 -0.0650 -0.129
 0.651  0.312  0.199
 0.293  0.218  0.197
-0.365  0.126  0.164
-0.431  0.157  0.184
-0.330 -0.0112  0.116
-0.393  0.152  0.159
-0.788 -0.354  0.126
-0.714  0.282  0.239
 0.555 -0.0516 -0.303
-0.638 -0.0402 0.0728
-0.806 -0.311  0.153
-0.837  0.247  0.198
 0.160 -0.0298  0.111
-0.368 -0.0395 0.0487
-0.397 -0.0402 -0.0186
 0.516 -0.0402 -0.278
 0.218 -0.0652 0.0679
-0.782 -0.0656 -0.273
 0.636 -0.0402 -0.192
-0.763 -0.0652 0.0679
 0.213 -0.0709 -0.300
-0.537 -0.0652 -0.110
 0.228  0.194  0.188
-0.678 -0.0340  0.136
0.0547 -0.0397 -0.264
-0.825 -0.153 -0.256
-0.787 -0.254 -0.273
-0.0848 -0.0652 -0.00898
 0.358 -0.0402 -0.278
 0.670 -0.0402 -0.264
 0.757 -0.0652 -0.283
 0.850  0.208  0.183
 0.762 -0.0402 -0.0454
-0.0319 -0.0402 0.0872
 0.579 -0.0402 -0.168
-0.837 -0.403 -0.288
0.0451 -0.0652 0.0632
-0.186 -0.0250  0.135
 0.823 -0.392 0.0679
 0.295 -0.0399 -0.154
 0.483 -0.0650 -0.0466
0.0645 0.0827  0.141
 0.547 0.00474  0.142
-0.806  0.309  0.247
 0.843  0.102 -0.256
 0.738  0.275  0.208
-0.816  0.162 0.0439
-0.584 -0.0402 -0.214
-0.484  0.259  0.215
 0.314  0.118  0.153
 0.382 -0.0417 -0.216
 0.800 -0.350 0.0824
-0.280 0.0254  0.135
 0.721 -0.0439 -0.0610
0.0835 0.0213  0.147
-0.758  0.258  0.188
 0.127  0.284  0.203
-0.545  0.279  0.234
 0.343 0.0829  0.141
 0.867  0.163 -0.307
 0.829 -0.249  0.153
-0.187 -0.0403 -0.233
-0.325  0.235  0.182
-0.0655 -0.0652 -0.0811
-0.753 -0.0402 -0.273
 0.699 -0.0461  0.133
-0.276  0.255  0.187
 0.425 -0.0402 -0.0454
-0.837 -0.403  0.130
-0.00783 -0.0650 -0.215
-0.739 -0.0298  0.111
-0.604  0.130  0.154
 0.136  0.310  0.216
-0.618  0.276  0.220
-0.521 -0.0418 -0.0623
 0.767 -0.0439 -0.217
-0.787 -0.345 -0.264
 0.296 -0.0603 -0.229
-0.535 -0.112 -0.299
-0.691 -0.0395 -0.210
-0.811 -0.417  0.153
 0.814 -0.443 -0.298
 0.798 -0.0363 -0.288
 0.800  0.318  0.207
0.0791 -0.0402 -0.214
0.0306 -0.0652 -0.00418
 0.279  0.301  0.243
-0.0174 0.0299  0.127
0.0883  0.112  0.172
-0.484 -0.0652 0.0872
-0.330  0.307  0.226
-0.508  0.138  0.179
-0.0126 0.0872  0.142
 0.740  0.120  0.174
 0.175  0.305  0.235
-0.537 -0.0997  0.111
-0.810 -0.0422 0.0824
 0.338 -0.00396  0.118
-0.788 -0.0708 -0.144
-0.325  0.164  0.163
-0.813 -0.355 -0.240
0.0980 -0.0652 0.0824
-0.814 -0.383 -0.250
-0.195  0.198  0.175
 0.540 0.0681  0.137
 0.685  0.201  0.173
-0.813 -0.355 -0.105
0.00179 -0.0652 -0.110
-0.0415 -0.0398 -0.0138
-0.104 -0.0652 -0.0330
 0.468 -0.0652 -0.0186
-0.484 -0.0398 -0.210
-0.469 -0.0398 0.0102
-0.830 0.0927 -0.256
 0.468 -0.0652 -0.0955
-0.479 -0.0393 -0.124
-0.385 0.0446  0.145
-0.633 -0.0607 0.0344
-0.865  0.152 -0.323
-0.210 -0.0652 -0.273
 0.228 -0.0398 -0.00899
 0.136 -0.0652 -0.0811
-0.720  0.314  0.202
 0.305 -0.0396 0.0442
 0.656 -0.0337  0.109
 0.849 -0.196  0.131
-0.788 -0.0709 -0.192
-0.643 0.0595  0.157
 0.497 -0.0516 -0.229
-0.109  0.310  0.216
 0.208 -0.0376  0.107
 0.800 -0.133  0.107
 0.343  0.161  0.185
-0.788 -0.297 -0.297
-0.788  0.146 -0.168
-0.365 0.00131  0.131
 0.512 -0.0652 -0.0715
-0.190  0.282  0.239
 0.814  0.174  0.211
-0.837 -0.244  0.126
 0.825 -0.0909 0.0776
 0.805 -0.350 -0.306
 0.412  0.279  0.234
 0.425 -0.0186  0.114
 0.847 -0.335  0.153
 0.603 -0.0652 0.0967
-0.479  0.306  0.231
-0.836 -0.440 0.0776
-0.659 -0.0441 -0.230
 0.603  0.217  0.177
 0.151 -0.0852  0.111
 0.670 -0.00925  0.139
 0.757 -0.113  0.107
-0.494 -0.0652 -0.177
-0.715 -0.0402 0.0776
 0.184 -0.0652 -0.00898
-0.671 -0.0402 -0.269
 0.497 0.0108  0.122
 0.420 -0.0402 -0.00900
-0.599 -0.0652 -0.0426
-0.671 -0.0652 -0.115
 0.849 0.0639  0.178
-0.421 -0.0402 -0.0454
-0.455 -0.0398 -0.0763
 0.699 -0.104  0.111
-0.724 -0.0402 -0.0282
-0.460 -0.109 -0.300
 0.694 -0.0402 -0.197
-0.224 -0.0402 0.0728
-0.614 -0.0652 -0.105
-0.494 -0.0402 -0.00897
 0.242 -0.0659 -0.300
-0.812 -0.0909 -0.0314
-0.224 -0.0402 -0.249
-0.335 -0.0652 0.0151
-0.753 -0.0652 -0.00418
 0.444 -0.0516 0.0343
 0.156 -0.0402 -0.105
-0.157 -0.0652 -0.00418
-0.354 -0.0652 -0.206
 0.718 -0.0652 -0.245
-0.181 0.0343  0.128
-0.253 -0.0398 0.0535
 0.825 -0.0564 0.0535
-0.320 0.0196  0.124
-0.166  0.285  0.194
 0.334 -0.0652 -0.172
-0.445 -0.0402 -0.168
-0.739 -0.0607 -0.229
0.0547 -0.0402 -0.0454
-0.195 -0.0563 -0.302
 0.786  0.165  0.186
-0.837 -0.0468 -0.278
 0.286 0.0662  0.159
 0.204 0.0550  0.156
-0.191 -0.0652 -0.0234
 0.228 -0.0650 -0.0466
-0.186 -0.0398 -0.128
-0.0415 -0.0652 -0.158
-0.820  0.116  0.147
 0.400 0.00214  0.120
-0.354 -0.0564 -0.0499
 0.334  0.273  0.192
-0.340 0.0490  0.132
0.0306 -0.0473 -0.0606
 0.160 -0.0395 -0.240
 0.493  0.136  0.155
 0.824 -0.109 -0.306
 0.810 -0.172  0.153
0.0423 -0.0408  0.108
-0.836 0.0167  0.120
-0.837  0.285  0.236
 0.810 -0.439 -0.216
-0.614 -0.0402 -0.192
 0.516 0.0490  0.132
 0.646 -0.0650 -0.129
 0.394  0.309  0.219
-0.445 -0.00241  0.141
-0.431 -0.0652 -0.0330
-0.479  0.135  0.178
-0.533  0.281  0.196
-0.527 -0.0332  0.110
-0.311  0.312  0.199
 0.382 -0.0396 0.0442
-0.176  0.239  0.183
 0.382  0.262  0.211
 0.151 -0.0127  0.138
 0.473 -0.0471 0.0238
0.0887  0.258  0.188
-0.441 0.0550  0.156
 0.825 -0.0708 -0.158
-0.258  0.277  0.193
-0.527  0.235  0.182
 0.507 -0.0398 -0.0421
-0.703  0.287  0.195
 0.829  0.163 -0.240
 0.704  0.279  0.239
-0.537 -0.0652 -0.177
 0.612 -0.0402 -0.105
-0.125 -0.0411 0.0211
-0.704  0.146  0.169
-0.402 0.0299  0.127
 0.343 -0.0471 -0.302
 0.800 -0.355 -0.221
-0.788  0.128 -0.0667
0.0210 -0.0652 0.0920
-0.0463 -0.0652 -0.235
-0.00141 -0.112  0.105
0.00179 -0.0398 -0.296
-0.812 -0.344 -0.00417
-0.0651  0.110  0.148
 0.802  0.314  0.238
 0.309  0.284  0.206
-0.788 -0.0179 -0.273
-0.253 -0.0652 -0.168
-0.788  0.155 -0.259
-0.147 -0.0652 -0.192
 0.276 -0.0652 -0.264
 0.358 -0.0402 0.0728
 0.435 -0.0804 -0.293
-0.676  0.277  0.193
0.0835 -0.0398 0.0728
 0.786 -0.0652 -0.00418
 0.561  0.303  0.241
-0.402 -0.0398 0.0535
-0.132 -0.0255  0.135
 0.463 -0.0650 -0.129
-0.801 -0.440 0.0824
 0.435 -0.0355  0.136
-0.387 -0.0258  0.135
-0.681 -0.0411 0.0375
 0.478 -0.0402 -0.0330
 0.800 -0.0708  0.140
-0.700  0.102  0.147
 0.430 0.0151  0.123
 0.386 -0.0355  0.136
-0.837 -0.436  0.130
-0.561 -0.0652 -0.201
 0.348  0.131  0.177
-0.681 -0.0652 -0.0859
 0.882  0.135 -0.168
 0.199 -0.0398 -0.120
-0.417 0.0986  0.145
 0.449 -0.0652 -0.0715
-0.181  0.174  0.166
-0.652  0.151  0.182
 0.500 -0.0565  0.124
-0.618  0.220  0.199
-0.590  0.204  0.196
 0.242 -0.0402 -0.192
 0.680 -0.0652 -0.153
 0.733 -0.0709 -0.300
 0.295 -0.0603 0.0230
 0.348 -0.0652 -0.0138
 0.762 -0.0471 0.0235
-0.263 -0.0402 0.0824
-0.788 -0.436  0.135
-0.498 -0.0652 -0.0859
-0.0319 -0.0650 -0.0466
-0.715 -0.0652 -0.259
-0.302  0.204  0.196
 0.810 0.0104  0.118
 0.570 0.0244  0.126
-0.450 0.0254  0.145
-0.134  0.227  0.180
-0.676  0.191  0.193
 0.802  0.126 -0.0170
-0.570 -0.0652 -0.0282
-0.531 0.0820  0.163
-0.813 -0.359 0.0776
-0.772  0.291  0.242
-0.518  0.169  0.187
 0.829  0.268  0.187
 0.261 -0.0652 -0.158
-0.308 -0.0671  0.101
 0.378 0.0922  0.163
-0.830  0.204  0.219
 0.468 -0.0949  0.104
-0.194  0.218  0.200
 0.604 -0.0637 0.0360
-0.186 -0.0436 0.0356
 0.849 -0.0660  0.121
-0.869  0.158 -0.139
-0.224  0.203  0.196
 0.478 -0.0652 -0.249
 0.502 -0.0395 0.0102
 0.415  0.256  0.212
 0.813 -0.445  0.151
-0.248 -0.0652 -0.197
 0.372 -0.0652 -0.0330
-0.522 -0.0652 -0.0378
 0.803  0.161 0.0872
-0.0896 -0.0652 -0.100
-0.171 -0.0652 -0.206
 0.723 -0.0402 -0.0138
 0.670 -0.0652 0.0872
-0.253 -0.0652 -0.124
-0.306 -0.0652 0.0632
0.00178  0.131  0.177
0.00660 -0.0652 0.0679
-0.484 -0.0652 -0.0282
-0.801 0.00611 -0.306
 0.834 -0.157 -0.306
-0.734 -0.0652 -0.0859
 0.723 -0.0652 -0.0859
 0.850 -0.0660 -0.278
-0.575 -0.0398 -0.115
 0.800 -0.379 0.0295
-0.272 -0.0402 -0.163
-0.816 -0.215 -0.256
 0.386 -0.0652 -0.172
 0.617 -0.0652 -0.182
 0.800 -0.0852 -0.245
0.0650  0.127  0.176
0.0350  0.112  0.172
 0.632 0.0801  0.160
-0.335  0.172  0.188
 0.372 -0.0402 -0.150
0.0306 0.0265  0.126
 0.798 -0.0674 -0.0731
-0.604  0.307  0.226
 0.819 -0.186 -0.256
 0.180 -0.0507  0.132
-0.533 0.0404  0.130
-0.196 0.0446  0.150
-0.448  0.118  0.152
0.0980 -0.112  0.110
-0.373 -0.0632 -0.146
 0.826 -0.0757 -0.00899
 0.223 -0.0652 -0.201
-0.316 -0.0398 0.0487
 0.324  0.279  0.236
-0.788 -0.383 -0.134
 0.800 -0.350 -0.00417
-0.0844  0.182  0.168
-0.358 -0.0332  0.110
 0.806 -0.0417 0.0936
-0.604  0.270  0.191
 0.670 -0.0652 0.0151
 0.849 -0.297 -0.288
-0.643 -0.0398 -0.0763
 0.843 -0.345 -0.256
-0.498  0.311  0.211
-0.787  0.141 -0.288
-0.0487 -0.00665  0.140
-0.0270 -0.0997 -0.293
-0.772  0.204  0.174
 0.762 -0.0652 -0.0330
-0.667 0.0888  0.166
 0.233  0.102  0.147
-0.0800 -0.0901 -0.300
 0.516  0.159  0.162
-0.229  0.140  0.156
 0.252  0.252  0.209
-0.412 -0.0652 -0.201
-0.00783 -0.0565  0.130
-0.128 -0.0652 -0.110
-0.788 -0.0853 0.0920
 0.199 -0.0398 -0.0763
-0.306 -0.0652 -0.0955
-0.0703 -0.0398 -0.0378
0.0451 -0.0398 -0.105
-0.820  0.125 -0.0955
 0.123  0.119  0.173
0.0162 0.0550  0.157
-0.0355  0.292  0.194
 0.737  0.240  0.204
-0.138  0.193  0.171
 0.849 0.0205 -0.278
 0.112 0.0595  0.157
-0.0992 -0.0396 0.0442
-0.789 -0.246  0.152
-0.695 -0.0402 -0.0811
 0.372 -0.0390  0.102
 0.141 -0.0398 -0.0421
 0.189 -0.0396 0.0442
-0.639 0.0974  0.159
-0.782 -0.0656 0.0487
 0.526  0.233  0.204
-0.0703 0.0760  0.139
-0.150 -0.0418 -0.0622
-0.837 -0.0901 -0.302
-0.619 -0.0241  0.134
-0.503 0.0265  0.126
-0.479  0.198  0.172
 0.800 -0.278  0.116
 0.316 0.0634  0.137
 0.825 -0.0852 -0.0426
 0.762 -0.0516 -0.134
 0.175 -0.0607 -0.0499
 0.655  0.299  0.244
0.00661 -0.0852  0.104
-0.575  0.241  0.206
-0.788  0.159 0.0632
-0.813 -0.0804 -0.148
 0.598  0.226  0.202
 0.310 -0.0398 0.0872
-0.220 -0.0218  0.136
 0.826 -0.0887 -0.134
-0.508 -0.0402 -0.273
 0.300 -0.0402 -0.197
-0.378 -0.0402 -0.182
-0.748 -0.0652 -0.182
-0.195 -0.0402 -0.259
-0.0992 -0.0402 -0.115
0.0643 -0.0652 -0.0186
-0.330 -0.0402 -0.100
 0.670  0.226  0.202
 0.257 -0.0652 0.0632
 0.175 -0.0402 -0.192
-0.388 -0.0402 -0.269
 0.704 -0.0652 -0.0234
0.0835 -0.0652 -0.187
 0.747 0.0854  0.164
-0.316 -0.0402 -0.177
0.0835 -0.0652 -0.158
-0.123 -0.0402 0.0920
 0.108 -0.0417 -0.0476
 0.334  0.214  0.199
 0.849  0.160  0.193
 0.237 -0.0402 -0.278
-0.325 -0.0652 -0.192
-0.128 -0.0652 -0.259
-0.104  0.203  0.196
-0.590  0.146  0.181
 0.805 -0.143  0.153
-0.657 -0.0652 0.00545
-0.811 -0.143  0.153
 0.512 -0.0436 -0.146
0.0499 -0.0709 -0.300
-0.354  0.263  0.217
-0.667 -0.0804  0.104
 0.160 -0.0652 0.0728
-0.613  0.242  0.184
 0.401 -0.0852  0.111
-0.425 -0.0572  0.127
-0.296 -0.0659 -0.300
-0.277 -0.0398 -0.120
 0.540 -0.0398 -0.206
 0.849 -0.133  0.130
 0.657  0.159  0.162
 0.772  0.114  0.149
 0.400 -0.0294  0.112
-0.229  0.280  0.226
-0.0513  0.204  0.174
 0.675 0.0872  0.142
 0.223 -0.0398 -0.0378
 0.233 0.0664  0.160
-0.786 -0.0674 -0.240
-0.378 -0.0395 -0.0716
 0.223 -0.0507  0.132
-0.193  0.142  0.158
-0.0514  0.175  0.189
-0.811 -0.201  0.104
-0.699 -0.0147  0.115
 0.657  0.129  0.154
 0.170 -0.0411 -0.131
 0.716 0.00566  0.122
-0.575 -0.0411 0.0375
 0.218 -0.0398 0.0824
-0.662 0.0535  0.133
0.0162 -0.0516 -0.229
-0.797 -0.0423 -0.0907
-0.570  0.110  0.148
-0.455  0.295  0.244
-0.789 -0.391 -0.0715
0.0643 -0.0652 -0.254
-0.613 0.0298  0.127
