ply
format ascii 1.0
element vertex 2048
property float x
property float y
property float z
end_header
 0.333 -0.184 -0.835
-0.425  0.165  0.659
-0.430  0.146 -0.317
 0.321 -0.280  0.283
 0.267  0.169 -0.248
-0.282 -0.309  0.308
 0.189  0.168  0.655
-0.0239 -0.312 -0.395
-0.0608  0.169  0.183
-0.0530 0.0853 -0.679
0.0341 -0.280  0.655
-0.0555 -0.275 -0.895
 0.326  0.146  0.269
-0.422 0.0578  0.280
-0.428 -0.235  0.659
 0.333 -0.167 -0.429
-0.0867  0.141 -0.179
 0.310  0.153 -0.600
 0.332 -0.141  0.589
0.0168 -0.141  0.280
-0.113  0.169  0.520
 0.164 0.0813 -0.914
-0.354  0.168 -0.00661
 0.120 -0.312 -0.654
-0.328  0.161 -0.600
 0.103 -0.0629 -0.283
-0.199 -0.0629  0.659
 0.189  0.141 0.0193
0.0600  0.169 -0.438
 0.120 0.0869  0.416
-0.207 -0.312  0.554
-0.0598 -0.149 -0.585
 0.120 -0.312  0.425
-0.437 -0.158  0.425
0.0600 -0.0371  0.659
-0.0577 -0.0112 -0.903
-0.182  0.169 -0.412
-0.225 -0.0802  0.280
 0.332 -0.0629  0.364
-0.328  0.169  0.451
 0.189 -0.312 -0.326
 0.129 -0.141 -0.914
 0.333 0.0320 -0.783
 0.324  0.142  0.485
 0.329 -0.266 -0.627
 0.333 0.0492 -0.421
-0.0598 -0.00254 -0.395
-0.276  0.169  0.183
-0.437 -0.0198  0.571
-0.0780 -0.312  0.390
 0.232 -0.312  0.615
-0.285  0.141 -0.188
-0.147 0.0860  0.347
-0.156  0.141 0.00203
 0.189 -0.312 -0.843
 0.164 0.0869 -0.705
 0.129  0.168  0.209
 0.103  0.169 -0.153
 0.332 -0.0795 -0.610
-0.233  0.146  0.659
 0.172 -0.0284  0.280
-0.0550 -0.166 -0.288
0.00894  0.142  0.658
 0.310 0.0319  0.659
 0.293 -0.0629 -0.283
-0.0497 -0.280 -0.705
 0.330 -0.266  0.459
-0.371 -0.312  0.476
0.0168  0.168 0.0279
0.00821 0.0319  0.280
 0.326  0.160 -0.0843
-0.0598 -0.123 -0.774
 0.232 -0.312 -0.490
 0.181 -0.158  0.659
 0.164 -0.218  0.280
-0.164  0.169 -0.585
 0.224  0.169 -0.447
-0.363 -0.166  0.280
-0.00903  0.169  0.364
-0.428  0.142  0.134
 0.323  0.165  0.103
-0.113 -0.218  0.659
-0.130 -0.210  0.280
 0.293 -0.0457 -0.914
0.0859  0.168 -0.592
0.0255 0.0869 -0.300
-0.0480 0.0856 -0.522
-0.268 -0.210  0.659
-0.00903 -0.312 -0.559
-0.345  0.168 -0.447
-0.430  0.160 -0.145
 0.328 -0.259 -0.290
-0.437 0.0147  0.425
-0.0598 -0.158 -0.438
0.0341 0.0860 -0.843
-0.0953 0.0406  0.659
-0.00903 -0.312  0.520
0.0773  0.169  0.528
0.0600 -0.261 -0.283
 0.333 -0.0198  0.502
-0.320 0.0147  0.659
 0.172 0.0860 -0.317
-0.294 0.0864  0.338
-0.242 0.0860  0.528
-0.423 -0.280  0.338
 0.232  0.168  0.373
0.0169 -0.280  0.287
0.0600 -0.312 -0.792
-0.182  0.169 -0.274
 0.324  0.166  0.637
 0.198 -0.184 -0.284
 0.292 -0.312 -0.749
 0.323 0.0855 -0.912
-0.363 -0.115  0.659
-0.430  0.160  0.364
 0.198 0.0860 -0.576
 0.276 -0.149  0.280
-0.0608 -0.0975  0.659
 0.232 0.0860  0.563
 0.189 -0.0198  0.659
-0.0494 -0.141 -0.914
-0.328 -0.312  0.606
0.0859 -0.312 -0.464
-0.0953 -0.0716  0.280
-0.431  0.153  0.528
-0.207 -0.312  0.425
 0.296 -0.279 -0.913
 0.332 0.0659  0.382
-0.0694  0.169 -0.334
-0.437 -0.0716  0.321
 0.333 0.0320 -0.550
-0.437 -0.149  0.563
0.0859 -0.280 -0.910
 0.323 0.0636 -0.286
-0.302  0.168 -0.309
 0.112 -0.312  0.563
-0.0598 0.00608 -0.774
-0.0598 -0.0112 -0.602
-0.0177 -0.0371 -0.283
-0.207  0.169  0.425
0.0773 -0.0284 -0.914
 0.332 -0.158 -0.705
-0.430  0.146 -0.533
-0.113  0.168  0.655
 0.216 0.0854  0.283
-0.190  0.169  0.269
-0.164  0.141  0.123
 0.323 -0.238  0.659
-0.251  0.168 -0.0756
 0.189  0.169  0.485
-0.380  0.169  0.244
 0.112  0.169  0.330
-0.328  0.141  0.589
 0.207 -0.312  0.338
 0.112 0.0860  0.623
-0.0522  0.169 -0.0670
 0.333 -0.149  0.468
 0.326  0.160 -0.352
 0.232 0.0869 -0.809
 0.241  0.141  0.183
 0.215  0.141 -0.136
-0.320 -0.0112  0.280
 0.250 -0.166 -0.914
 0.292 -0.312 -0.386
0.0427 -0.149  0.659
 0.332 -0.184 -0.541
 0.284 0.0865 -0.688
-0.276  0.141 0.0710
-0.0608  0.169 -0.447
 0.103  0.169 -0.265
 0.333 -0.0802 -0.792
-0.104 -0.312  0.597
 0.324  0.142 -0.490
-0.242 -0.210  0.280
-0.164 -0.312  0.321
-0.0493 0.0915  0.572
0.0513 0.0860 -0.714
-0.0496 -0.276 -0.284
 0.284 -0.0112  0.280
 0.103  0.169 -0.0411
 0.103  0.141 0.0883
-0.430 0.0492  0.655
-0.0349  0.161 -0.600
 0.232 -0.312 -0.645
-0.0598 -0.0629 -0.507
-0.437 -0.260  0.545
 0.333 -0.210  0.364
0.00824  0.141  0.261
-0.233  0.141 -0.507
 0.332 -0.0448 -0.472
-0.216 0.0406  0.280
 0.198 -0.0112 -0.283
 0.241 -0.312  0.494
-0.216 0.0406  0.659
 0.333 -0.150 -0.326
-0.0694  0.141 0.0796
-0.104  0.169  0.407
 0.189 -0.0371 -0.914
-0.113 -0.312  0.494
-0.0598 -0.0802 -0.679
-0.00902 0.0860 -0.412
 0.138  0.169 -0.369
 0.327 -0.272 -0.480
 0.301 -0.0716  0.659
0.0681 0.0935 -0.524
-0.354 0.0860  0.502
0.0513 -0.149 -0.283
-0.190 -0.279  0.658
-0.164 0.0868  0.459
 0.155 -0.270  0.659
0.00822  0.169 -0.240
-0.164  0.141 -0.119
 0.112 0.0492  0.280
-0.0177  0.169  0.494
0.0686 -0.0457  0.280
 0.164 -0.312 -0.749
0.0168 -0.312  0.416
-0.0867  0.169  0.304
-0.0435 0.0867 -0.904
 0.103 -0.312  0.321
-0.0598 -0.235 -0.524
 0.129 0.0860  0.520
 0.310 -0.283  0.563
 0.329 0.0771  0.574
-0.345  0.141 -0.101
0.0169  0.141  0.131
-0.0598 -0.210 -0.818
 0.120 0.0860 -0.792
 0.284  0.141 0.00203
-0.285  0.169  0.287
 0.258 0.0869  0.442
-0.0598 -0.227 -0.369
 0.181 -0.123  0.280
 0.129 -0.312 -0.559
-0.0598 -0.175 -0.688
 0.326  0.160  0.390
-0.437 -0.253  0.442
-0.0598 -0.0974 -0.352
 0.332 -0.0276 -0.360
 0.332 -0.0198 -0.705
 0.112 0.0861 -0.628
-0.437 -0.0629  0.476
-0.164 0.0862  0.580
 0.146  0.169 -0.498
0.0427 0.0861  0.347
0.0255 -0.312 -0.645
-0.363  0.168 -0.231
-0.199  0.169  0.554
 0.301 -0.296  0.373
-0.268  0.141 -0.395
-0.428  0.142 -0.409
-0.0598 0.0406 -0.309
0.0945 -0.312 -0.352
-0.311 -0.312  0.407
-0.0598 -0.235 -0.619
-0.354 -0.261  0.280
-0.428  0.142 0.0394
0.0341  0.141 -0.101
 0.267 0.0933 -0.366
-0.0282 -0.304 -0.809
-0.121 0.0319  0.280
-0.437 -0.184  0.338
 0.267  0.169  0.554
-0.0608 0.0935  0.371
-0.121  0.141 -0.507
-0.380 0.0869  0.373
 0.302  0.141 -0.171
 0.220 0.0847  0.658
 0.181  0.168  0.123
0.0859  0.169  0.425
 0.103 0.0406 -0.284
-0.0752 -0.280  0.282
0.0513 -0.184 -0.914
0.0168  0.169 -0.360
-0.437 0.0578  0.528
-0.430 -0.0457  0.655
-0.182 -0.149  0.659
-0.0496 0.0864 -0.808
 0.284 -0.312 -0.567
 0.241  0.168  0.269
 0.276 -0.312 -0.835
0.0773 -0.210  0.280
-0.276 -0.106  0.659
0.0859  0.169  0.623
 0.172  0.166 -0.598
-0.242 0.0869  0.407
0.0255 -0.0975 -0.914
-0.00904 0.0147  0.659
 0.215  0.169 -0.317
 0.232 -0.227  0.659
 0.332 -0.227 -0.757
0.0434  0.110  0.476
 0.155 -0.312 -0.412
-0.423  0.141 -0.0497
-0.345  0.169  0.364
-0.276  0.169  0.520
 0.181  0.141 -0.214
 0.331 0.0584  0.297
0.0722  0.101 -0.369
 0.181  0.169  0.571
 0.268 0.0925 -0.530
0.0340 0.0988  0.567
-0.345  0.141  0.123
 0.198 0.0869  0.364
 0.323 -0.123 -0.914
 0.224  0.169 -0.0584
-0.225  0.141  0.347
 0.198 -0.270 -0.914
 0.293 -0.158  0.659
-0.0177 -0.0457  0.280
 0.333 -0.0457  0.580
0.0341 0.0869 -0.602
0.0859 0.0578 -0.914
-0.0598 -0.0888 -0.852
-0.302 -0.312  0.520
-0.345 -0.253  0.659
 0.112 -0.106  0.659
 0.331 0.0229 -0.636
-0.0435  0.169  0.597
-0.0515 0.0861  0.288
-0.435 -0.149  0.645
 0.333 -0.210  0.537
 0.318  0.168  0.183
 0.332 -0.244 -0.369
-0.355 0.0862  0.655
 0.241 -0.270  0.280
-0.422  0.168  0.451
-0.363  0.168 -0.360
 0.332 -0.0975 -0.533
0.0945 -0.123  0.280
-0.285 -0.132  0.280
-0.138  0.169  0.209
-0.0598 -0.253 -0.447
 0.333 0.0147 -0.861
-0.0598 0.0147 -0.472
0.00822  0.169 -0.498
-0.0694 -0.158  0.280
-0.173 -0.141  0.280
 0.181 -0.106 -0.283
 0.241 0.0869 -0.895
-0.405 -0.304  0.623
-0.276 0.0865  0.614
-0.0953  0.141 -0.265
-0.242  0.166 -0.598
-0.207  0.141 -0.205
 0.215 -0.312  0.416
-0.371 -0.0888  0.280
-0.242  0.168 0.00203
-0.0598 -0.00254 -0.688
-0.354  0.169 -0.524
 0.164 -0.312  0.502
-0.0577 0.0744 -0.602
-0.0435 -0.280  0.655
 0.333 -0.184 -0.619
 0.138 -0.261 -0.284
-0.437 -0.0629  0.399
 0.267 -0.304 -0.309
-0.345 0.0665  0.280
 0.267 0.0865 -0.610
 0.215  0.169 -0.533
 0.284 -0.192 -0.283
 0.324 -0.0888  0.282
-0.437 0.0233  0.347
 0.164  0.141  0.278
-0.113  0.141 -0.395
-0.422 0.0865  0.459
0.00822 -0.312 -0.326
 0.263  0.101 -0.455
-0.354 -0.312  0.338
0.0773 -0.218  0.659
0.00821 0.0233 -0.914
-0.345  0.161  0.659
-0.207  0.141  0.192
-0.259 -0.296  0.634
-0.0608  0.141 0.00203
-0.173  0.141 -0.343
 0.332 -0.0975 -0.386
-0.0275 -0.309 -0.487
-0.164 -0.0371  0.280
-0.147  0.169  0.347
 0.241 0.0492 -0.283
-0.285 0.0865  0.468
-0.354  0.169  0.520
-0.130 -0.0371  0.659
0.0600 -0.312  0.494
-0.0598 -0.0716 -0.421
 0.301 0.0864 -0.835
 0.258  0.168  0.442
 0.164  0.169  0.416
-0.380 0.0860  0.571
0.0341 -0.312 -0.723
-0.00904 -0.210  0.280
 0.181 0.0860  0.468
 0.333 0.0320  0.451
0.0513 -0.0112 -0.283
 0.332 -0.0975  0.528
-0.406 -0.0198  0.280
 0.146 -0.218 -0.914
0.0427 0.0665  0.659
 0.198 -0.115 -0.914
 0.155  0.169 -0.0929
-0.402 -0.309  0.410
 0.103 0.0233  0.659
-0.0177  0.169 -0.145
-0.276  0.169  0.390
-0.233  0.169  0.123
-0.259  0.141 -0.257
 0.232  0.141 0.0796
-0.0356 0.0855  0.655
-0.156 0.0812  0.659
0.0168 -0.261 -0.914
 0.333 -0.132  0.338
 0.310 -0.210 -0.914
 0.267 0.0233 -0.914
 0.293  0.169 -0.429
-0.0435 -0.201  0.659
 0.333 -0.0371  0.433
0.0255  0.169  0.580
0.0600 -0.312 -0.541
-0.0263 -0.312  0.589
0.0612 0.0885 -0.438
 0.326  0.146 -0.283
-0.430  0.146  0.295
 0.329 -0.266 -0.825
 0.129 0.0869 -0.559
-0.190 -0.261  0.280
-0.428  0.142 -0.228
 0.258  0.141  0.632
-0.0598 -0.166 -0.516
 0.198 -0.312 -0.567
-0.199  0.141 0.0624
-0.121  0.141 -0.0584
-0.0177 -0.312  0.356
-0.328 -0.0543  0.659
0.0773  0.141  0.269
0.0686  0.168  0.175
 0.120 -0.312 -0.826
-0.354 -0.184  0.659
 0.224 -0.312 -0.714
 0.333 -0.0716 -0.861
0.0169 0.0860 -0.774
 0.331 -0.192  0.297
-0.00903 -0.115 -0.283
0.0255 -0.312 -0.852
-0.0598 -0.227 -0.749
 0.332 0.00606  0.347
 0.198 0.0860 -0.645
 0.292 -0.312 -0.679
-0.0953  0.169 -0.567
 0.332 -0.227 -0.688
-0.437 -0.149  0.494
 0.232 -0.312 -0.421
 0.241  0.153 -0.600
-0.414  0.146 -0.600
-0.363  0.169 0.0624
0.0341  0.141 -0.0325
-0.233 -0.312  0.356
-0.225  0.141  0.485
 0.301 0.0869 -0.757
0.0341  0.141 -0.179
0.0513 -0.312  0.597
-0.380  0.169  0.175
 0.284 0.0869  0.338
 0.164 0.0869 -0.843
-0.251  0.169  0.597
0.0168 -0.210 -0.283
-0.0608 -0.0284  0.659
-0.311 -0.210  0.280
-0.259 -0.312  0.468
0.0513 -0.312 -0.403
 0.258 -0.0112  0.659
0.0427  0.169  0.321
 0.276 0.0865  0.511
-0.406 -0.218  0.280
 0.298 -0.309  0.629
-0.389  0.169  0.597
-0.276  0.169 -0.455
-0.320  0.141  0.235
0.0945  0.141 0.0193
 0.330 0.0713 -0.484
 0.129  0.141  0.468
-0.113  0.169  0.589
-0.138  0.169 0.0624
0.0600  0.141 -0.317
-0.435 -0.138  0.292
 0.138 -0.158 -0.284
0.00822  0.169  0.200
-0.363 -0.312  0.545
 0.250 -0.0888  0.280
-0.0522 -0.312  0.468
-0.345  0.141  0.295
 0.215 -0.0802  0.659
-0.0598 -0.0629 -0.749
-0.0598 0.0147 -0.541
 0.146 -0.312 -0.490
 0.164  0.141 -0.283
 0.155 0.0865  0.313
0.0431  0.110  0.407
-0.173  0.169  0.632
 0.155 -0.283  0.296
0.0255  0.141 -0.567
-0.371  0.141 -0.162
-0.285  0.169 -0.533
 0.328 0.0772 -0.357
-0.397  0.141 -0.472
 0.326  0.146  0.563
-0.267 0.0812  0.281
 0.112 -0.309  0.633
-0.000396 0.0860 -0.481
 0.332 -0.141 -0.766
 0.198  0.169 -0.386
 0.172 -0.312  0.580
 0.189  0.168  0.226
 0.215 -0.244 -0.284
0.0686  0.169 -0.516
0.0255  0.169  0.442
 0.333 0.0147  0.597
-0.437 -0.0802  0.589
-0.225  0.141 -0.145
-0.0598 -0.0716 -0.585
-0.121 -0.115  0.659
-0.0522  0.141  0.244
 0.333 -0.149  0.399
-0.268 -0.0371  0.659
 0.332 -0.106 -0.671
 0.215 0.0864 -0.740
 0.267  0.169 -0.498
-0.328 0.0869  0.407
-0.164  0.169  0.485
-0.251 -0.0112  0.280
-0.138  0.141 -0.214
-0.113  0.141  0.157
 0.215 -0.175  0.280
 0.172  0.141  0.347
0.0427 -0.0802 -0.283
0.0859 -0.201 -0.283
0.0945 -0.312 -0.740
-0.320 0.0860  0.554
0.0686 -0.312  0.373
 0.224 0.00607  0.280
 0.129 -0.0629 -0.914
-0.302  0.168 -0.0411
-0.0577 0.0744 -0.455
 0.215 -0.312 -0.783
-0.0522  0.153  0.659
-0.148  0.118  0.528
 0.130  0.142  0.658
 0.332 -0.0276 -0.567
-0.0867  0.141 -0.110
-0.0263  0.141 -0.283
-0.0513 0.0848 -0.367
 0.333 0.0492 -0.697
 0.318 0.0862 -0.576
 0.333 -0.253 -0.567
 0.129  0.141  0.554
-0.380  0.141  0.416
 0.284 0.0860  0.623
-0.207 -0.218  0.659
 0.129  0.169 -0.429
-0.0598 -0.00254 -0.835
0.0945 0.0860 -0.852
-0.0263 -0.218 -0.914
0.0168 -0.0802  0.659
 0.302 -0.00255 -0.283
-0.0435  0.169  0.416
-0.138 -0.312  0.382
-0.0522  0.169 -0.231
 0.276  0.141  0.131
-0.437 -0.00254  0.485
 0.284 -0.123 -0.283
-0.437 0.0492  0.589
-0.199  0.141 -0.0411
 0.267 -0.210  0.280
-0.182 0.0869  0.399
 0.207 -0.210 -0.914
-0.430  0.146  0.218
 0.120 -0.175  0.659
 0.332 -0.0889 -0.326
 0.258  0.141  0.321
 0.250  0.141  0.502
-0.380  0.168 -0.291
 0.324  0.142  0.330
 0.138 -0.312 -0.884
 0.103 0.0865  0.347
-0.0530 0.0853 -0.739
-0.380 0.0147  0.659
-0.164 -0.312  0.597
0.00821 -0.0371 -0.914
-0.285 -0.0716  0.280
-0.285  0.141 -0.127
-0.0598 -0.166 -0.861
-0.437 -0.218  0.589
 0.301 -0.296  0.502
 0.267  0.169 -0.360
0.00823 0.0320 -0.283
-0.155 0.0812  0.281
0.0607 0.0865  0.288
-0.121  0.169 -0.447
-0.0522  0.141 -0.395
-0.0177  0.169 0.0883
0.0945  0.141 -0.0929
 0.267  0.169 -0.127
 0.181 0.0406  0.659
 0.292 -0.312 -0.507
-0.0497 -0.280 -0.343
 0.326  0.153 0.0451
 0.120  0.141  0.157
-0.104 0.0869  0.623
 0.276 0.0492  0.280
-0.431 0.0812  0.338
-0.0528 -0.0687 -0.913
-0.0608  0.141 -0.507
0.0176 0.0811 -0.914
-0.0555 -0.275 -0.567
-0.302  0.141 0.0107
 0.298 -0.309 -0.447
 0.332 -0.244 -0.429
 0.333 -0.141 -0.481
 0.103 0.0860 -0.688
-0.173  0.141 -0.481
-0.138 -0.312  0.442
-0.0867  0.169  0.468
 0.155  0.141 -0.162
 0.267 -0.0975 -0.914
 0.333 -0.123 -0.835
 0.333 -0.201  0.425
-0.437 -0.210  0.390
-0.207 0.0862  0.338
0.0168 -0.201  0.659
 0.232 -0.0802 -0.283
-0.0177 -0.149  0.659
-0.0694 -0.312  0.330
 0.331 0.0713  0.517
-0.147  0.141  0.295
-0.225  0.169 -0.369
 0.164 0.0406 -0.283
 0.318 0.0868  0.459
0.0427  0.141 0.0710
-0.412 -0.280  0.282
 0.318  0.168 -0.222
 0.332 0.00608 -0.498
 0.129  0.110 -0.346
 0.332 0.0233 -0.334
-0.437 -0.210  0.520
 0.276  0.141 -0.309
 0.267 -0.312  0.330
-0.397  0.168 -0.0929
-0.225 0.0869  0.468
 0.333 -0.244  0.597
-0.259 -0.312  0.580
 0.332 -0.210 -0.317
-0.104  0.118  0.565
 0.120  0.141  0.390
-0.311  0.141 -0.490
-0.389  0.141  0.485
0.0801 -0.280  0.282
-0.0598 0.0406 -0.878
-0.0598 -0.166 -0.343
-0.242  0.141  0.235
-0.0598 -0.115 -0.628
-0.294  0.141  0.632
 0.332 -0.218 -0.498
-0.0694  0.169  0.364
0.0686 -0.312 -0.610
 0.146 -0.0543  0.659
-0.00902 0.0860 -0.567
-0.0598 -0.123 -0.714
 0.250 -0.123  0.659
-0.173 -0.00256  0.659
 0.164 -0.312 -0.688
-0.0867 -0.166  0.659
 0.146  0.169 -0.00661
-0.276 0.0492  0.659
 0.120 0.0147 -0.914
-0.000396 0.0869  0.313
 0.331 -0.0363  0.297
-0.0598 -0.201 -0.472
 0.232 -0.312 -0.878
 0.293  0.169 -0.550
 0.323 0.0858 -0.631
-0.0275 -0.309 -0.754
-0.130 -0.276  0.280
-0.0378 0.0854 -0.286
 0.325 -0.276 -0.723
 0.276  0.141 -0.0756
-0.130 -0.288  0.639
-0.389  0.169  0.330
 0.333 -0.0802  0.476
 0.215  0.141 -0.265
 0.250 -0.312  0.563
 0.198 0.0860  0.520
-0.233 -0.149  0.280
-0.0608  0.169  0.545
-0.437 -0.0802  0.528
-0.0867 -0.312  0.545
 0.250  0.141 -0.188
 0.215 0.0406 -0.914
-0.414 -0.283  0.494
 0.293  0.141  0.226
-0.164 -0.312  0.511
 0.267 -0.312  0.433
-0.00903  0.169 -0.429
-0.0694 0.0147  0.280
 0.120  0.141 -0.559
 0.332 -0.0276 -0.421
 0.181 -0.312 -0.628
 0.258 -0.227 -0.914
-0.328  0.141  0.175
 0.138  0.169  0.606
 0.333 -0.0284  0.632
 0.250 -0.0284 -0.283
 0.333 -0.184 -0.378
 0.332 -0.260  0.399
 0.332 -0.0362 -0.757
0.0255 -0.312 -0.498
0.0859  0.141 -0.222
-0.437 -0.00254  0.623
-0.130  0.169 -0.326
-0.104  0.141  0.261
 0.172  0.141 -0.0497
-0.302  0.141  0.330
 0.232  0.169 0.00203
-0.437 0.0659  0.407
-0.371 0.0869  0.442
-0.0598 -0.218 -0.302
-0.0239 -0.312 -0.610
-0.328  0.141 -0.403
-0.242 -0.280  0.287
 0.172  0.141  0.183
-0.320  0.141 -0.265
0.0600  0.168  0.114
-0.104  0.168 -0.0152
 0.276  0.141  0.399
-0.000396 0.0860  0.615
 0.324 0.0147 -0.913
 0.332 -0.106  0.632
-0.000396 0.0869 -0.688
0.0859 -0.227 -0.914
 0.181  0.118 -0.537
 0.310 -0.283 -0.334
 0.332 -0.132 -0.602
-0.150  0.134  0.387
0.0600 -0.309 -0.312
-0.0550 -0.0888 -0.288
 0.207 -0.280  0.655
-0.0275 -0.309 -0.866
 0.332 -0.192  0.606
 0.172 -0.312  0.451
 0.155 -0.312  0.347
-0.225 -0.115  0.659
-0.182 -0.201  0.280
0.0773 -0.312 -0.861
-0.285 -0.158  0.659
-0.0497 -0.280 -0.645
0.0773 0.00607  0.280
-0.0598 -0.0457 -0.360
0.0686 0.0860 -0.766
 0.112 -0.0112 -0.284
-0.190 0.0865  0.520
 0.164 0.0860  0.615
 0.164 -0.218  0.659
-0.0598 -0.201 -0.576
-0.0598 -0.227 -0.671
-0.216 0.0862  0.589
 0.333 0.0233  0.546
-0.294 -0.261  0.659
 0.250 0.0869  0.390
 0.155  0.141 0.0796
-0.276  0.169  0.459
-0.285  0.169  0.131
-0.0598 -0.166 -0.636
 0.120 -0.0543  0.280
0.0513 0.0147  0.659
0.0686 -0.312  0.433
-0.00902 0.0882  0.365
 0.326 0.0817  0.655
 0.284 0.0862 -0.317
 0.332 -0.0362 -0.309
-0.0780  0.169  0.123
-0.0263  0.141 -0.343
-0.000396  0.141  0.313
-0.433 -0.0974  0.651
-0.0176 -0.312 -0.679
 0.120 0.0869 -0.300
 0.112 0.0862  0.571
 0.332 -0.158  0.537
 0.112 -0.312  0.502
 0.164 -0.106  0.659
 0.267 -0.244 -0.284
 0.232 -0.312 -0.369
-0.121 -0.141  0.280
 0.103 -0.115 -0.283
0.00822 -0.261 -0.283
0.0168 -0.0888  0.280
 0.172 0.0233  0.280
 0.232 -0.175  0.659
 0.333 -0.201  0.476
-0.207 -0.312  0.476
0.0859  0.169  0.476
-0.103 0.0855  0.288
 0.276  0.168 0.0452
-0.328  0.168 -0.179
 0.207  0.127 -0.346
-0.259  0.141 -0.317
-0.311  0.141 -0.352
0.0859  0.141  0.218
 0.215  0.141  0.433
-0.363  0.141 -0.567
-0.233  0.141 -0.455
-0.242  0.141  0.546
-0.207  0.169 -0.541
 0.232  0.169  0.597
0.0255  0.141 -0.403
-0.138  0.169 -0.153
-0.0176  0.141 -0.205
-0.156  0.141  0.589
-0.000405  0.169 -0.0756
-0.0953  0.141  0.209
 0.138 -0.270 -0.914
0.0773  0.141  0.571
-0.0867  0.168 0.0365
 0.120 -0.304 -0.309
-0.173  0.168 -0.0756
 0.129  0.168 0.0452
-0.251  0.168 -0.214
 0.324  0.166 -0.0181
-0.437 -0.132  0.382
-0.190  0.169  0.373
 0.155 -0.210 -0.284
 0.146 -0.312 -0.352
 0.146  0.169  0.511
0.0859  0.169 -0.395
-0.233 0.0869  0.649
0.0255 -0.312 -0.447
-0.0263 -0.304  0.305
0.0428 0.0864 -0.662
-0.0177  0.169  0.157
0.00821 -0.158 -0.914
-0.251 -0.312  0.528
-0.406 0.0860  0.615
-0.0598 0.0406 -0.714
-0.294 0.0319  0.280
-0.406  0.169 0.0883
-0.138 -0.312  0.554
0.0686  0.169  0.364
 0.241 -0.312 -0.593
0.0427 -0.312  0.330
0.0859 -0.0888 -0.914
-0.0598 -0.0543 -0.636
 0.172 0.0147 -0.914
 0.224 -0.141 -0.283
-0.207 -0.312  0.623
-0.0598 -0.227 -0.878
 0.263  0.127 -0.412
-0.397  0.141 -0.00661
 0.332 -0.158 -0.878
-0.437 -0.235  0.321
-0.389 0.0865  0.313
 0.330 -0.266  0.330
 0.333 -0.244 -0.887
 0.276 -0.253  0.659
-0.294 -0.312  0.356
-0.0176 0.0869 -0.628
 0.189  0.141  0.615
-0.402 -0.309  0.574
-0.0577 -0.269 -0.826
-0.0522  0.141 -0.559
-0.345 0.0860  0.338
-0.0598 -0.158 -0.809
-0.0598 -0.123 -0.403
0.0944 0.0861  0.485
-0.156  0.141 -0.541
 0.146 -0.158  0.280
-0.0598 0.0320 -0.654
 0.164 -0.0457 -0.283
 0.332 -0.0199 -0.826
-0.225  0.169  0.304
 0.215  0.169  0.537
-0.437 -0.0370  0.356
-0.437 -0.0974  0.442
0.0427  0.169  0.235
 0.198 -0.312 -0.455
-0.406 -0.192  0.659
-0.430  0.146  0.615
0.0686 0.0869  0.442
0.0341 -0.235  0.280
-0.000405 -0.312  0.629
-0.389  0.168 -0.421
 0.146 0.0811  0.659
 0.302 0.0860 -0.421
 0.301 -0.304 -0.619
-0.0176 0.0864 -0.843
 0.146  0.169 -0.231
0.0945  0.169 -0.334
-0.156  0.141  0.244
0.0513  0.169 -0.136
0.0686 0.0750 -0.284
 0.198  0.169 -0.179
-0.0263  0.169 -0.0152
 0.293  0.168  0.356
0.0427  0.141 -0.257
-0.173  0.169  0.175
-0.242  0.169 0.0537
-0.259  0.141  0.425
-0.311  0.141  0.416
-0.311  0.141  0.502
-0.0349  0.169  0.278
 0.164 -0.309  0.633
0.0722  0.127 -0.464
-0.0176  0.141 0.0452
0.0226  0.134  0.371
 0.318  0.168 -0.136
-0.345  0.141 -0.309
 0.215  0.141  0.140
 0.328 0.0772 -0.797
-0.190  0.168 0.0192
-0.0496 -0.00255 -0.283
 0.332 -0.115 -0.723
 0.244 -0.279 -0.913
0.0693  0.142  0.658
-0.233 -0.261  0.659
 0.258 0.0578  0.659
-0.414  0.168 -0.188
0.00823 0.0860 -0.343
0.0686 0.0860  0.606
-0.328 -0.312  0.459
-0.285  0.141  0.571
 0.284  0.168  0.287
-0.328  0.141 0.0796
0.0945 -0.261  0.659
-0.337 0.0860  0.597
 0.138 -0.312 -0.610
-0.320  0.141 -0.550
-0.371 -0.0371  0.659
0.0341 -0.184  0.280
 0.146 0.00607  0.659
-0.0598 -0.0457 -0.464
-0.371  0.168 -0.0498
0.0686 -0.312 -0.662
-0.164 -0.0975  0.659
 0.198 -0.253  0.280
 0.232 -0.0457  0.280
-0.0598 -0.0198 -0.731
-0.437 -0.123  0.606
0.0255 -0.0112  0.280
0.00821 -0.0284  0.659
-0.113  0.141 0.0969
-0.0867 -0.227  0.280
-0.0349 -0.312  0.407
-0.0263 -0.0629  0.659
-0.233 -0.00255  0.659
-0.389 0.0233  0.280
-0.0598 0.0406 -0.818
0.0859 0.0864 -0.576
 0.181 0.0860  0.563
 0.258 0.0869 -0.852
0.0686 -0.312  0.545
-0.156  0.169  0.537
 0.172  0.169 -0.334
-0.294  0.168 -0.231
-0.0598 -0.201 -0.421
-0.164 -0.235  0.659
 0.112  0.168  0.252
-0.437 -0.192  0.476
 0.181  0.169 -0.464
-0.000405 -0.166 -0.283
 0.138 -0.106  0.280
-0.397 0.0860  0.528
 0.112 -0.312 -0.395
 0.189 -0.166 -0.914
 0.241 0.0860 -0.662
-0.397 -0.276  0.659
-0.0598 0.0578 -0.412
 0.212 0.0852 -0.286
-0.0577 -0.269 -0.490
0.0686  0.169 -0.00661
-0.345  0.169  0.209
 0.250  0.141 -0.0325
-0.0176  0.141 -0.472
-0.0176  0.141 -0.524
 0.302  0.141  0.606
-0.0263  0.141 -0.101
-0.0334 -0.288 -0.527
-0.147  0.169 -0.369
-0.148  0.127  0.476
-0.0598 0.0320 -0.585
-0.422  0.168 -0.274
 0.241 0.0869  0.321
 0.332 -0.0276 -0.878
 0.224  0.101 -0.537
-0.285  0.146 -0.600
-0.430  0.146  0.407
-0.389  0.141 -0.334
 0.215  0.141  0.295
-0.207 0.0848  0.283
 0.332 0.0659 -0.861
-0.0598 0.0578 -0.774
-0.156  0.141 -0.438
-0.397  0.141  0.563
 0.325 -0.276 -0.671
-0.242  0.169 -0.421
-0.311  0.169 0.0451
-0.276  0.169 -0.360
 0.172  0.141  0.451
 0.172  0.141  0.537
-0.268  0.169  0.338
-0.397  0.168 -0.559
 0.326  0.153 -0.403
-0.389  0.141  0.649
-0.130  0.141 -0.592
 0.332 -0.0889 -0.464
 0.333 0.0578  0.615
 0.323 -0.280 -0.395
 0.250  0.169 -0.403
 0.327 0.00680  0.286
-0.345  0.141 0.0279
 0.189  0.168 0.0710
 0.112  0.168  0.123
-0.0867 -0.270  0.659
-0.0555 -0.275 -0.757
0.0773 0.0864 -0.326
-0.113  0.139  0.365
-0.138  0.141  0.632
-0.0435  0.141  0.123
-0.0497 -0.280 -0.412
0.0773  0.141  0.330
-0.0176  0.141  0.623
-0.401 0.0852  0.658
 0.224 0.0864  0.614
-0.0608 -0.312  0.629
-0.437 0.00608  0.298
-0.0598 -0.184 -0.731
 0.284  0.141 0.0883
 0.241 -0.312 -0.533
 0.302  0.168  0.451
 0.293 0.0869  0.399
-0.251 0.0864  0.330
 0.155  0.169 -0.541
 0.103 -0.312 -0.697
 0.258 -0.312 -0.792
-0.0598 0.00608 -0.352
0.00821 -0.244  0.659
-0.0598 -0.132 -0.671
-0.00901 0.0867 -0.731
-0.276 -0.175  0.280
-0.233 -0.158  0.659
-0.182 -0.0975  0.280
0.0686 0.0147 -0.914
-0.337  0.141 -0.0584
-0.0608 -0.0371  0.280
-0.113 -0.0112  0.280
 0.129 -0.0112  0.280
 0.332 -0.0544 -0.524
-0.0953  0.169 -0.145
 0.258 0.0860 -0.731
-0.268 -0.312  0.425
 0.276 0.0860  0.580
-0.397  0.141 -0.378
-0.173  0.169 -0.231
-0.276 0.0860  0.563
-0.190 -0.312  0.364
 0.332 -0.0889  0.571
-0.437 -0.106  0.485
0.0341  0.169  0.399
0.0686 -0.0975  0.659
 0.112 -0.312  0.364
-0.164  0.169  0.433
-0.148  0.118  0.433
 0.241  0.168  0.218
-0.251  0.141 -0.0411
 0.329 -0.131  0.291
 0.207  0.168  0.183
 0.329 -0.235  0.291
-0.422 -0.0974  0.280
 0.329 -0.266 -0.523
-0.190 0.0869  0.632
 0.284 0.0665 -0.914
 0.332 -0.0448 -0.636
0.0427 0.0869 -0.559
 0.318  0.168  0.520
 0.327 -0.121 -0.290
 0.146 0.0869 -0.654
 0.333 -0.201 -0.792
 0.332 0.00608 -0.455
0.0433  0.110  0.520
0.0255 -0.312 -0.602
-0.328 -0.0888  0.280
 0.155 0.0869  0.364
-0.354 -0.210  0.280
-0.311 0.0860  0.502
 0.250 -0.312  0.390
-0.363  0.169  0.563
 0.138  0.141 -0.317
 0.215 -0.312  0.537
-0.173  0.169 0.0883
0.0513  0.141  0.606
-0.363 -0.312  0.433
-0.328 -0.149  0.659
 0.232  0.169 -0.222
-0.437 -0.192  0.623
-0.312 0.0862  0.655
-0.345  0.169  0.407
 0.332 0.0233 -0.386
 0.332 -0.0198  0.382
 0.284  0.141 -0.214
 0.250 -0.0543  0.659
-0.113 -0.312  0.347
0.0686  0.169 -0.0670
-0.0598 -0.0112 -0.507
-0.437 -0.0112  0.390
-0.437 -0.0284  0.520
-0.000405  0.169  0.545
0.0168 -0.312  0.485
 0.232  0.169 -0.102
-0.0867  0.141 -0.222
0.00824  0.141 -0.317
-0.225  0.168 -0.110
-0.0598 -0.0974 -0.481
 0.129  0.141 -0.127
-0.0953 -0.0716  0.659
 0.276 -0.0543  0.280
-0.0436 0.0406  0.659
 0.189  0.141 -0.101
-0.0780  0.169  0.623
0.0168 -0.312  0.571
-0.164 0.00607  0.280
-0.0598 0.0406 -0.507
-0.389  0.141  0.287
-0.0522  0.141 -0.153
 0.276 0.0860 -0.792
-0.104 0.0861  0.347
-0.0177 -0.115  0.280
-0.138 -0.0716  0.280
-0.0953 -0.312  0.442
 0.333 -0.0629 -0.705
0.0513 0.0320 -0.284
 0.332 0.0337 -0.593
 0.328 -0.217 -0.590
 0.181 -0.312 -0.378
 0.129 -0.312 -0.774
 0.103  0.169 -0.464
-0.207  0.169 -0.309
-0.0349 0.0406  0.280
-0.121 0.00607  0.659
 0.333 -0.141 -0.378
-0.216  0.168 -0.240
 0.120 -0.312 -0.438
 0.155 0.0869 -0.593
 0.333 -0.175  0.338
-0.0598 -0.0371 -0.861
-0.138  0.141 -0.257
-0.371  0.168 -0.127
-0.0953  0.169 -0.481
 0.224 -0.0112 -0.914
-0.0177  0.169  0.235
 0.276 -0.312 -0.878
-0.423 -0.280  0.382
-0.406 -0.175  0.280
-0.207 -0.312  0.321
 0.232  0.141 0.0366
-0.380  0.169  0.131
 0.120 -0.210  0.280
 0.225  0.142  0.658
 0.284  0.168  0.655
0.0427  0.166 -0.598
 0.332 -0.210 -0.455
0.0722  0.127 -0.403
-0.0521 0.0862  0.615
-0.428  0.165 -0.490
 0.323 0.0857 -0.717
 0.250  0.127 -0.346
-0.0549 0.0806 -0.325
 0.129 0.0578 -0.914
-0.325 -0.309  0.308
-0.000396  0.136  0.572
 0.250 0.0862 -0.567
 0.318 -0.280  0.655
 0.263  0.127 -0.498
 0.293 0.0866  0.288
-0.0838  0.142 -0.598
 0.241 -0.280 -0.286
-0.397  0.168 0.0278
 0.323 -0.178 -0.286
-0.259  0.141  0.304
-0.207  0.169  0.511
-0.397  0.169  0.390
0.0255  0.141 -0.524
-0.302  0.169 -0.421
-0.345  0.169  0.615
-0.0608  0.141  0.321
-0.0349  0.141  0.200
 0.326 0.0815 -0.524
-0.104  0.141 -0.343
0.0341  0.141  0.183
 0.138  0.169 -0.188
-0.0263  0.141 -0.0497
-0.428  0.142 -0.107
0.0513  0.169 -0.205
 0.172  0.169 -0.136
-0.0953  0.169 -0.524
 0.267  0.141 -0.567
-0.259  0.141 -0.550
 0.138  0.169  0.364
-0.302  0.141  0.373
-0.216  0.141  0.390
-0.190  0.141 -0.567
-0.337  0.169  0.261
-0.121  0.141 0.0366
 0.241  0.169 -0.283
-0.190  0.141  0.451
-0.113  0.169 -0.240
-0.0780  0.141  0.589
-0.0263 -0.106 -0.914
 0.120  0.146 -0.600
-0.433 -0.272  0.638
0.0485 -0.288 -0.894
-0.354 -0.288  0.639
0.0852 0.0855  0.655
 0.250 -0.283  0.647
 0.304 -0.288 -0.800
 0.310 -0.283 -0.585
-0.437 -0.0457  0.615
-0.337  0.141 -0.214
 0.146  0.168  0.304
 0.267  0.168  0.166
0.0773  0.168 0.0710
 0.155  0.141  0.226
-0.242  0.168 -0.171
-0.182  0.168 -0.145
 0.301 -0.296  0.451
-0.414  0.168 -0.352
 0.241  0.168  0.123
 0.215  0.141  0.252
 0.333 -0.244  0.494
-0.0598 0.0578 -0.550
-0.371 -0.296  0.305
 0.293 0.0860 -0.498
 0.326  0.146 -0.541
-0.397  0.141 -0.257
 0.301 0.0862  0.546
-0.156 0.0406  0.659
0.0427 0.0492 -0.914
 0.302  0.141 -0.110
 0.103  0.110 -0.537
 0.293 -0.280 -0.286
 0.326 -0.199  0.651
-0.0598 -0.0543 -0.309
0.00462 0.0847  0.658
 0.284  0.141  0.476
-0.428 -0.280  0.583
-0.276  0.168  0.655
-0.317 -0.280  0.282
0.0516  0.139  0.451
 0.198 -0.283 -0.300
 0.318 -0.280 -0.878
-0.423 0.00607  0.659
 0.323  0.165  0.232
 0.284 0.0578 -0.283
 0.330 -0.222 -0.630
-0.430  0.160  0.571
 0.121 0.0865  0.288
 0.293 -0.149 -0.914
 0.232 -0.312 -0.326
-0.0349  0.139  0.365
-0.0263 -0.227 -0.283
 0.276 -0.312  0.597
-0.428  0.142  0.479
-0.0176 -0.283 -0.902
-0.0274 -0.304 -0.312
 0.324  0.142 -0.0497
0.0513 0.0869 -0.490
-0.0608  0.141 -0.309
-0.294  0.169  0.226
-0.294  0.169  0.597
-0.216  0.141 -0.395
-0.216  0.169  0.218
-0.138  0.169  0.131
-0.354  0.141  0.459
-0.251  0.141  0.175
-0.397  0.169  0.511
-0.259  0.169 -0.498
 0.103  0.141  0.520
 0.258  0.141  0.589
-0.207  0.141  0.580
-0.113  0.169 -0.188
0.0773  0.141 -0.162
-0.0867  0.169 -0.291
-0.000396  0.141 -0.00661
0.0168  0.169  0.287
0.0945  0.169 -0.196
 0.329 -0.153  0.645
 0.293  0.141 -0.369
-0.0349  0.169 -0.498
-0.0263  0.169 -0.386
-0.182  0.141  0.347
0.0168 0.0751  0.280
-0.406  0.141  0.183
-0.199  0.169 -0.472
0.0255  0.169  0.157
 0.129  0.141 -0.0497
-0.199  0.141  0.623
-0.199  0.141  0.244
-0.405 -0.304  0.459
-0.435 -0.0428  0.292
 0.323 0.0854 -0.320
 0.333 0.0233  0.382
 0.198 0.0860 -0.688
 0.333 -0.132  0.502
 0.120 -0.227 -0.283
-0.156  0.141 -0.291
-0.242  0.168 -0.291
-0.320 0.0869  0.451
 0.138 -0.141  0.659
0.0773 0.0860  0.554
-0.389  0.141  0.218
 0.207  0.141  0.580
-0.268  0.169 0.0969
-0.156 -0.244  0.280
-0.216  0.141 0.0969
 0.284 -0.312  0.545
 0.232 -0.227  0.280
-0.328  0.141  0.537
-0.311 -0.312  0.571
0.0686 -0.149 -0.914
 0.129 -0.312  0.597
-0.437 0.0406  0.494
0.0513  0.169  0.494
-0.285  0.168 -0.0929
-0.345 -0.132  0.280
 0.284 -0.106  0.280
0.0341 -0.312 -0.369
-0.138  0.169 -0.412
0.0168 -0.312 -0.757
0.0686 -0.166  0.280
-0.0867 0.0867  0.589
-0.000387 0.0862 -0.809
-0.130 -0.253  0.659
-0.0694 -0.312  0.580
-0.337 0.0233  0.280
-0.0598 -0.106 -0.567
 0.146 -0.0975 -0.914
-0.328  0.141 -0.136
-0.0349  0.169 -0.179
0.0859  0.169 -0.119
0.0255 0.0860 -0.395
-0.0349 -0.175  0.280
-0.437 0.0147  0.554
-0.0867  0.169 -0.0497
 0.332 -0.115 -0.421
0.0427 -0.0543 -0.914
 0.120 0.0860 -0.723
 0.276 -0.253  0.280
-0.320 -0.201  0.659
 0.333 -0.244  0.554
 0.267 -0.312 -0.352
 0.207 -0.312 -0.679
0.0600 0.0406  0.280
 0.146 0.00608 -0.283
-0.408 -0.288  0.543
 0.333 -0.0629  0.615
 0.333 -0.132  0.433
-0.437 -0.132  0.528
 0.198 -0.0888  0.280
0.0600 -0.184  0.659
 0.198  0.169 -0.240
0.0600  0.141 0.0366
 0.232 0.0860  0.502
-0.0598 -0.106 -0.818
-0.138  0.169 -0.481
-0.285 -0.0284  0.280
-0.147 -0.175  0.280
0.0341 -0.312  0.451
0.0513  0.141  0.149
-0.389  0.141 0.0537
 0.198 0.0865  0.433
 0.332 -0.192 -0.740
0.0945 -0.312 -0.576
-0.121 -0.304  0.305
-0.000405  0.169 -0.585
 0.333 0.0406  0.494
-0.199  0.161 -0.600
 0.293  0.169 -0.0411
-0.414  0.141  0.252
0.0773  0.141 -0.567
-0.422 0.0859  0.580
-0.199  0.141 -0.101
 0.138  0.141 0.0193
 0.258  0.141  0.364
-0.00903 0.0991  0.567
 0.224  0.168  0.321
-0.207  0.168 -0.0152
 0.302  0.168  0.149
 0.333 0.0492 -0.826
-0.402 -0.309  0.324
 0.310  0.141  0.425
 0.181  0.168  0.373
0.0612  0.139 -0.369
-0.276  0.168 0.0192
-0.216  0.141 0.0107
-0.310 0.0812  0.281
0.00822 -0.312 -0.800
0.0686 0.0860 -0.895
 0.326 0.0815  0.416
 0.299 -0.308  0.309
 0.333 -0.115 -0.878
-0.0577 0.0744 -0.861
 0.112  0.141  0.304
-0.337  0.169 -0.490
-0.251  0.141 -0.360
0.0773  0.141 -0.0411
 0.112  0.141  0.623
0.0600  0.169 -0.291
-0.113  0.169 -0.110
-0.130  0.169  0.261
 0.284  0.168  0.200
-0.0867  0.141  0.649
-0.0608  0.169 -0.110
-0.389  0.141  0.356
-0.302  0.141  0.459
-0.104  0.169 -0.369
 0.103  0.141 -0.291
 0.293  0.141 -0.455
-0.430  0.146 -0.455
-0.397 -0.312  0.511
-0.0435  0.129  0.567
 0.293  0.141  0.175
 0.332 -0.00258 -0.740
 0.310  0.169 -0.516
0.0722  0.127 -0.507
0.0945 -0.276 -0.284
-0.0529 -0.279 -0.608
 0.330 0.0492 -0.900
-0.0263 -0.276  0.280
-0.242  0.141  0.623
-0.0694 0.0860  0.321
 0.302  0.169 -0.300
 0.201  0.142 -0.598
-0.345  0.168 -0.265
-0.354  0.168 -0.403
 0.189  0.168  0.295
 0.333 0.0578 -0.654
-0.113 0.0812  0.659
-0.397 -0.0888  0.659
0.0600 -0.309  0.633
-0.435 -0.198  0.292
 0.198 -0.244  0.659
 0.298 -0.309  0.407
 0.155  0.169  0.468
0.0255  0.141 -0.222
0.0600  0.169  0.287
-0.302  0.169  0.554
-0.225  0.169  0.175
-0.371  0.141  0.615
-0.207  0.169  0.468
-0.000405  0.169 -0.541
 0.215  0.141 -0.0152
-0.302  0.141  0.269
-0.207  0.141  0.287
0.0427  0.169 -0.550
 0.302  0.168  0.580
-0.397  0.141  0.114
-0.437 0.0659  0.623
-0.173 0.0860  0.313
 0.310 -0.0888 -0.914
 0.310 -0.0198  0.659
 0.250 -0.312 -0.688
-0.242  0.169  0.364
 0.138 -0.312 -0.714
 0.250 -0.312 -0.740
 0.164 -0.312 -0.585
-0.138  0.169  0.459
-0.164 -0.312  0.468
-0.437 -0.192  0.563
-0.233 -0.312  0.399
0.0945  0.141  0.364
-0.0598 -0.210 -0.705
-0.437 -0.235  0.494
 0.138 -0.244  0.280
 0.232 -0.312 -0.818
 0.120  0.169 -0.524
 0.189  0.141 -0.309
 0.333 -0.0112  0.459
-0.0349  0.169  0.338
 0.120 -0.0198  0.659
-0.000396  0.141 -0.378
 0.232 0.0147  0.659
-0.0435  0.169 0.0624
-0.437 -0.0370  0.425
-0.251 -0.0543  0.280
-0.242 -0.0629  0.659
 0.241  0.169 -0.153
-0.113  0.169  0.183
-0.225  0.141 -0.0756
0.0427 -0.235 -0.914
-0.225  0.168 -0.0498
-0.0867  0.141 -0.421
-0.0598 -0.0284 -0.421
-0.130  0.169  0.382
-0.104  0.141  0.615
-0.345 0.0406  0.659
-0.000396  0.141 -0.127
0.00822 -0.0629 -0.283
0.0168 -0.123  0.659
-0.0177 -0.00256 -0.914
0.00822 -0.0112 -0.283
 0.333 -0.0629  0.546
-0.428  0.142  0.333
-0.437 0.0492  0.321
 0.332 -0.0629 -0.438
-0.0598 -0.132 -0.464
-0.0598 -0.149 -0.749
 0.293 -0.184  0.280
-0.216 -0.184  0.280
 0.207  0.168  0.399
 0.207 -0.132  0.659
 0.276 -0.0975  0.659
-0.0598 -0.0284 -0.662
-0.207 -0.123  0.280
-0.0598 -0.0629 -0.826
-0.276  0.141 -0.0152
 0.198  0.169 -0.0325
 0.332 -0.253 -0.792
 0.172  0.168 0.0366
 0.332 -0.132 -0.645
-0.371  0.141 -0.447
 0.112  0.169  0.451
-0.431  0.153 0.00203
0.0513  0.169  0.640
 0.332 -0.0716 -0.749
-0.127 0.0909  0.572
 0.207  0.141  0.209
 0.138  0.168 0.0969
0.0255  0.168 0.0883
-0.311  0.168 -0.119
-0.0349 -0.0371 -0.914
-0.380  0.141 -0.214
 0.276  0.168  0.244
-0.268  0.168 -0.145
 0.241 -0.296  0.305
0.00822 -0.312  0.313
 0.310  0.141 -0.326
 0.332 -0.00259 -0.610
 0.318  0.168 -0.455
 0.329 -0.103 -0.581
 0.332 -0.0112 -0.783
-0.150 0.0935  0.502
-0.406  0.168 -0.0325
-0.0530 0.0853 -0.636
-0.430  0.160  0.166
 0.164 0.0751  0.280
-0.150 0.0935  0.382
-0.320 -0.283  0.647
 0.289 0.0847  0.658
 0.333 -0.192 -0.679
 0.198  0.141 -0.559
 0.332 -0.175 -0.490
 0.293  0.141 -0.248
 0.129 0.0862 -0.835
 0.284 -0.218  0.659
 0.129 0.0864  0.476
-0.207 0.0860  0.554
 0.224  0.168  0.476
 0.332 -0.227 -0.533
-0.182  0.169  0.304
-0.199  0.169 -0.343
-0.0598 -0.201 -0.334
 0.138 -0.312  0.459
 0.155  0.141  0.623
 0.207 -0.312  0.459
 0.207 0.0860 -0.610
-0.302 0.0864  0.373
 0.232  0.169 -0.490
 0.155 0.0869 -0.740
-0.406 0.0860  0.494
-0.199  0.141 -0.516
-0.251  0.169  0.209
 0.241  0.141  0.537
-0.182  0.141 -0.386
0.0513  0.169 -0.403
-0.0598 -0.0888 -0.386
0.0945 -0.192 -0.914
 0.138 -0.175 -0.914
-0.437 -0.218  0.356
 0.112  0.141  0.425
-0.233 -0.244  0.280
-0.251 0.0860  0.494
-0.437 -0.201  0.425
0.0600  0.169 -0.481
-0.0598 0.0492 -0.378
-0.190  0.141  0.494
-0.276  0.141 -0.481
 0.267 -0.312 -0.481
-0.225  0.141 -0.559
-0.389  0.141 -0.507
 0.333 -0.235  0.433
 0.198 -0.312 -0.740
 0.224 0.0869 -0.843
 0.207  0.141  0.106
 0.333 -0.210 -0.878
-0.328 -0.312  0.364
 0.301 -0.244 -0.914
 0.267 -0.312 -0.636
 0.267  0.141 -0.274
-0.0522 -0.235  0.659
 0.258 -0.0371 -0.914
-0.113  0.141 -0.309
0.0945 -0.0457  0.659
-0.0263  0.141 -0.240
0.0600 -0.115  0.280
-0.0953 -0.192  0.280
 0.258 0.0147  0.280
-0.00902 0.0860 -0.516
-0.311  0.141 -0.0929
0.0168  0.169  0.615
-0.437 -0.0112  0.451
-0.156  0.141 -0.0497
0.0169  0.141 -0.283
-0.0598 -0.0716 -0.541
0.0341  0.141 -0.490
0.0427 -0.312 -0.688
 0.332 -0.0112 -0.671
-0.00903 -0.312 -0.714
 0.332 -0.132 -0.800
-0.0598 0.0320 -0.749
-0.00904 0.0864 -0.309
 0.232  0.169 -0.369
 0.310 0.0860 -0.455
 0.333 -0.00254 -0.541
 0.129 -0.0198 -0.914
0.0773 -0.0802  0.280
-0.0694  0.169 -0.378
-0.0781 -0.210  0.659
-0.000396  0.141  0.175
-0.216 -0.0457  0.280
 0.333 -0.0112  0.571
-0.0177 -0.312  0.459
-0.0522  0.169  0.485
-0.0522 -0.312  0.364
-0.0953  0.169  0.554
-0.113 -0.106  0.280
-0.437 -0.0543  0.563
-0.363 -0.0543  0.280
-0.320 -0.0543  0.280
0.0255 -0.0543  0.280
-0.0522  0.141 -0.196
-0.0522  0.141 0.0366
-0.0694 0.00607  0.659
 0.284 -0.0112 -0.914
-0.0694  0.169  0.269
-0.0598 -0.0198 -0.550
-0.104  0.169 0.0710
-0.190  0.168 -0.179
-0.0780  0.141  0.166
0.0168 -0.312  0.364
0.0255 -0.312  0.528
 0.112 0.0578  0.659
0.0168  0.169 -0.153
-0.156 0.0406  0.280
 0.250 0.0860 -0.697
0.0773 0.0860 -0.654
 0.250 0.0860 -0.309
-0.0598 -0.218 -0.783
-0.363 0.0860  0.537
 0.258  0.169 -0.464
-0.190  0.141 -0.447
 0.181 0.0492 -0.914
 0.215 -0.132  0.280
 0.181 -0.253 -0.284
 0.172 -0.184  0.280
 0.215  0.141  0.511
-0.437 -0.149  0.347
 0.181 -0.312  0.545
-0.311  0.169  0.192
-0.311  0.169 -0.464
 0.112 -0.210  0.659
 0.207 -0.312 -0.524
 0.224  0.169  0.632
-0.0598 -0.235 -0.843
 0.172 0.0869 -0.878
 0.333 -0.218  0.330
-0.182  0.141  0.416
 0.181 -0.312 -0.878
 0.276 0.0233  0.659
 0.215  0.141 -0.196
-0.311 -0.0975  0.659
 0.332 -0.0716  0.330
-0.0598 0.0406 -0.619
 0.332 0.0406 -0.749
-0.397 -0.158  0.659
-0.320  0.169  0.140
 0.310 -0.283 -0.766
-0.0497 -0.280 -0.861
 0.333 -0.253  0.364
-0.0598 -0.00254 -0.317
-0.437 -0.253  0.364
-0.0598 -0.244 -0.326
-0.363 -0.312  0.615
-0.0496 -0.123 -0.283
-0.0263 0.0578 -0.914
-0.414 0.0869  0.390
 0.199 0.0862 -0.910
 0.180 0.0855  0.655
-0.302 -0.312  0.629
-0.147  0.161  0.659
-0.311  0.169  0.649
 0.284 0.0869  0.468
-0.0522 -0.253  0.280
-0.184 -0.288  0.302
 0.146 -0.312  0.313
-0.0263 0.0233 -0.283
-0.422  0.168 -0.386
 0.250 0.0815  0.281
-0.0494 -0.192 -0.914
-0.0513 0.0848 -0.488
 0.328 0.0771 -0.401
 0.198 0.0867  0.313
 0.232 0.0864 -0.774
-0.276 0.0869  0.649
 0.284 0.0865 -0.567
 0.207  0.141  0.347
 0.164 0.0751 -0.283
0.0427  0.141  0.269
 0.318  0.168 -0.257
 0.146  0.169 -0.265
-0.0598 0.0406 -0.343
 0.164  0.142  0.658
-0.121  0.141 0.00203
-0.354  0.141  0.494
-0.242 -0.312  0.321
 0.258  0.169 -0.0584
 0.215 -0.312  0.571
-0.0522 -0.312  0.502
 0.333 -0.0629 -0.671
0.0773 0.0860 -0.619
-0.0598 -0.201 -0.507
0.0773 -0.244  0.280
 0.155 -0.312 -0.843
-0.00904 -0.244  0.280
 0.207 -0.312  0.373
 0.172  0.141  0.313
 0.198 0.0869  0.399
 0.198  0.169 -0.421
0.0773 -0.312 -0.826
 0.293  0.169 -0.395
-0.328  0.169  0.485
-0.0598 -0.235 -0.576
 0.332 0.0147 -0.421
0.0513 -0.115 -0.283
-0.0694 -0.123  0.280
0.0341  0.169 -0.0670
0.0341  0.169 -0.00661
-0.121 -0.149  0.659
0.0600 -0.312 -0.498
 0.324 -0.0198 -0.913
-0.320 -0.0198  0.659
 0.129  0.141 -0.0842
 0.318  0.168 -0.188
 0.250 0.00608 -0.283
-0.000414 -0.175  0.280
0.0341 0.0860  0.606
-0.397 -0.123  0.659
-0.216 -0.0112  0.280
-0.0177 -0.0802  0.280
-0.0177 -0.0112  0.280
-0.00903  0.169  0.442
-0.00903 -0.312 -0.447
-0.380 0.0492  0.659
-0.0608 -0.0629  0.659
-0.0263 -0.0975  0.659
-0.0598 -0.260 -0.378
 0.333 -0.166  0.433
 0.258  0.168  0.476
-0.437 0.0147  0.520
-0.437 -0.0716  0.356
 0.232 -0.115 -0.914
 0.276  0.153 -0.600
0.00822  0.169 -0.464
-0.0239 -0.312 -0.360
 0.198 -0.312 -0.421
 0.224 -0.0198  0.659
 0.189  0.168  0.261
-0.0598 0.0147 -0.438
 0.215 0.0860  0.468
-0.371 -0.0198  0.280
0.0859 -0.166 -0.283
 0.120 -0.283  0.296
 0.103 -0.312 -0.610
0.0945 -0.312 -0.774
-0.437 -0.158  0.459
 0.333 0.0320  0.416
-0.0169 0.0815  0.281
-0.0598 -0.0888 -0.887
 0.276 -0.312  0.485
0.0859  0.141  0.451
0.0427 0.0860 -0.360
 0.318 -0.0888 -0.283
-0.0598 -0.123 -0.887
 0.201 0.0933 -0.342
 0.164  0.101 -0.346
 0.325 -0.166 -0.910
-0.423  0.141 -0.567
0.0514 0.0888  0.382
0.0686 0.0869  0.321
-0.276  0.169 -0.576
 0.198 -0.283  0.296
-0.199  0.169  0.338
 0.224  0.141 -0.300
-0.0694  0.169 -0.0152
0.0600  0.169 -0.171
0.00824  0.141 -0.0584
 0.267  0.169 -0.196
 0.267  0.169  0.615
 0.164  0.141 -0.559
-0.242  0.141  0.580
-0.216  0.169  0.597
 0.293  0.169 -0.0843
-0.268  0.141  0.476
 0.155  0.141  0.494
-0.251  0.141  0.382
 0.112  0.169  0.545
-0.328  0.141  0.623
-0.311  0.169  0.313
-0.251  0.141  0.106
-0.0780  0.141 -0.472
 0.198  0.169 0.00203
 0.284  0.141 -0.533
-0.164  0.141 0.0710
-0.354  0.141  0.226
-0.363  0.169  0.287
 0.267  0.169 -0.00661
0.0773  0.169 -0.240
-0.173  0.169 -0.550
0.0686  0.141  0.416
-0.164  0.169 -0.455
-0.320  0.169 0.0969
-0.00903  0.169 -0.309
0.0600  0.169  0.563
-0.216  0.141  0.157
-0.190  0.141 -0.300
-0.121  0.141 -0.145
 0.250  0.141 -0.231
 0.267  0.169 -0.326
-0.233  0.169  0.399
-0.276  0.141  0.218
-0.268  0.141  0.140
 0.181  0.169 -0.291
-0.345  0.141 -0.472
-0.173  0.169  0.597
-0.397  0.169  0.425
 0.138  0.169  0.571
 0.120  0.169  0.485
-0.363  0.169  0.476
0.00822  0.169 -0.395
0.0686  0.141 -0.127
 0.284  0.169 -0.162
-0.0780  0.169  0.218
-0.0349  0.141 0.0796
-0.147  0.141 -0.171
-0.0349  0.141  0.166
-0.0694  0.141 -0.0756
-0.113  0.141 -0.472
-0.104  0.141  0.313
-0.389  0.141  0.149
-0.259  0.169  0.244
0.0945  0.169 -0.559
-0.000396  0.141  0.226
 0.215  0.141 -0.0756
 0.120  0.141 -0.179
 0.302  0.141 -0.567
-0.251  0.141 0.0366
 0.120  0.169 -0.300
-0.268  0.169  0.563
 0.310 -0.283 -0.429
 0.332 0.0493 -0.516
-0.193  0.166  0.659
 0.207  0.141  0.468
 0.332 -0.00254 -0.309
 0.326 0.0815  0.321
-0.225 -0.288  0.639
-0.225  0.141 -0.257
-0.423  0.141 0.0796
-0.138  0.168 0.0278
-0.144  0.118  0.564
-0.406  0.169  0.295
0.00822 -0.312 -0.403
 0.189  0.168  0.338
-0.0953  0.141 -0.0325
 0.284  0.168  0.114
 0.164  0.141  0.382
 0.155  0.168  0.261
 0.164  0.141  0.131
 0.276  0.141  0.269
-0.345  0.141 -0.0239
 0.164  0.168  0.166
-0.389  0.141 -0.0756
 0.103  0.168  0.166
-0.337  0.168 -0.326
-0.251  0.141 -0.188
 0.224  0.141  0.390
 0.258  0.141  0.235
-0.345  0.141 -0.369
 0.328 -0.272  0.615
-0.000396 0.0860 -0.887
-0.389  0.141 -0.119
-0.406  0.168 -0.240
-0.437 -0.123  0.321
-0.259 0.0492  0.280
-0.435 -0.258  0.292
-0.138 0.0869  0.632
 0.329 0.00250  0.645
-0.285  0.141 -0.516
 0.258  0.141 -0.153
-0.406  0.169  0.218
-0.147  0.141 -0.386
-0.302  0.141 -0.438
-0.138  0.169 -0.291
-0.363  0.169 -0.585
-0.354  0.141  0.261
-0.0435  0.169 -0.283
 0.189  0.169 -0.0843
-0.0349  0.169 -0.559
-0.0263  0.169  0.123
-0.406  0.168 -0.455
-0.0425 0.0860 -0.429
-0.0694  0.141 -0.352
-0.345  0.141  0.347
-0.0554 -0.235 -0.909
-0.0522  0.168 0.0193
-0.406 0.0856  0.283
0.0513 -0.253  0.659
-0.0177 -0.280 -0.292
0.0169 -0.288 -0.305
0.0341 0.0860 -0.887
 0.331 -0.100 -0.639
 0.146  0.169  0.649
 0.274 0.0882 -0.403
-0.428  0.142 -0.366
-0.0349 0.0869 -0.705
-0.389  0.168 -0.524
0.0341  0.141 -0.352
-0.405 -0.304  0.356
-0.121  0.168 -0.0756
 0.189 -0.312  0.615
-0.0529 -0.279 -0.789
-0.302  0.168 -0.265
 0.276  0.141  0.442
 0.258  0.168  0.347
-0.156  0.168 -0.0152
-0.337  0.168 -0.0756
 0.129  0.141  0.252
-0.182  0.168 -0.0411
-0.150 -0.288  0.302
 0.333 -0.0543 -0.403
 0.324  0.142  0.364
 0.318 0.0862  0.615
-0.435 -0.266  0.471
-0.00903  0.168  0.655
 0.324  0.142 -0.205
0.0427  0.141  0.347
-0.156 0.0888  0.537
 0.326  0.153 0.0107
-0.437 -0.253  0.597
-0.428 -0.280  0.428
 0.292 -0.312 -0.326
0.0431  0.110  0.442
 0.332 -0.123 -0.343
0.0516  0.139  0.511
 0.112 0.0847 -0.913
 0.164 -0.283 -0.901
 0.292 -0.312 -0.783
 0.302  0.141  0.520
-0.0349 0.0865  0.347
-0.0867  0.141  0.347
0.0629  0.142 -0.598
 0.301 -0.296 -0.654
0.0513  0.169 -0.369
 0.332 -0.0801 -0.559
 0.332 -0.0276 -0.498
-0.190 0.0869  0.364
-0.225 0.0869  0.364
0.0859 -0.166  0.659
 0.164 0.0865 -0.628
 0.284 0.0869 -0.636
 0.310 0.0869 -0.671
 0.293 0.0867 -0.723
 0.164 -0.175 -0.284
-0.216 0.0862  0.502
 0.333 -0.0629  0.502
-0.371  0.168 -0.498
 0.332 -0.218  0.623
 0.207 -0.210  0.659
0.0945  0.169  0.382
 0.258  0.168  0.304
 0.250  0.169  0.649
 0.155 0.0860  0.545
 0.181  0.169 -0.559
0.0600  0.169  0.459
-0.268  0.169  0.623
 0.333 -0.175 -0.654
0.0773  0.169  0.589
0.0773  0.169  0.313
 0.276 -0.184  0.659
-0.199 0.0869  0.451
-0.156 -0.166  0.659
 0.224 -0.149 -0.914
-0.354  0.141  0.192
 0.267 -0.312  0.364
 0.267  0.141  0.200
 0.267  0.169 -0.533
 0.333 -0.192  0.511
 0.129 -0.312 -0.516
 0.333 -0.192  0.390
-0.182 0.0578  0.280
-0.182 0.0578  0.659
-0.371 -0.312  0.364
 0.120  0.141 0.0624
-0.138  0.169  0.563
 0.250 -0.312  0.459
-0.242  0.141  0.511
-0.242 -0.192  0.659
 0.284  0.141  0.338
0.0513  0.168 0.0537
 0.120  0.169 0.0107
0.0686  0.141 -0.196
 0.198  0.169 -0.352
-0.138  0.169 -0.567
-0.328  0.168 -0.240
 0.172 -0.312 -0.818
-0.320  0.169  0.347
-0.190  0.141 -0.231
-0.216  0.169 0.0710
-0.0598 -0.227 -0.403
-0.0598 -0.210 -0.541
0.0773  0.141  0.106
0.0686  0.141 -0.274
 0.172 -0.141 -0.914
 0.189  0.141  0.416
-0.251  0.169  0.442
0.0686  0.169  0.399
-0.173  0.169  0.244
0.0859  0.168  0.200
 0.164  0.141 0.00203
 0.258  0.141 0.0193
-0.320 -0.235  0.659
 0.302  0.168  0.261
-0.173  0.141  0.218
 0.155  0.141  0.571
-0.233  0.169  0.528
