ply
format ascii 1.0
element vertex 2048
property float x
property float y
property float z
end_header
 0.158 -0.137 -0.171
-0.424  0.716  0.554
 0.413  0.383  0.523
-0.0287 -0.551  0.509
-0.0506 -0.555 -0.697
-0.175  0.113 -0.709
-0.229  0.116  0.319
0.0601  0.717  0.204
-0.229 -0.553 -0.0539
-0.341 0.0471 -0.207
 0.284 0.0159 -0.608
 0.211 -0.555 0.0973
-0.0389  0.443  0.557
 0.204  0.118  0.237
 0.226 -0.532 -0.359
-0.167 -0.228 -0.466
-0.0510 -0.247  0.179
-0.298  0.533  0.213
 0.228  0.720  0.552
-0.392  0.345  0.549
-0.0577  0.100 -0.0106
 0.281  0.459  0.213
-0.222 -0.554 -0.407
0.00520 -0.0754  0.459
 0.333  0.109 -0.281
 0.130 -0.297 -0.568
 0.190  0.162  0.557
-0.123  0.727  0.463
-0.00848  0.352  0.215
-0.0847 -0.556  0.212
0.0162 -0.400 -0.145
0.0498 -0.0674 -0.764
-0.148 -0.158 -0.130
 0.404  0.687  0.330
-0.0999  0.169  0.557
-0.328 0.0213 -0.499
 0.253 0.0676 -0.0296
0.0656 -0.318  0.433
 0.246 -0.115 -0.405
 0.156 -0.553  0.333
0.0883 -0.0742 0.0748
-0.213 -0.357 -0.268
 0.197  0.481  0.556
-0.345  0.325  0.316
 0.151 -0.557 -0.580
-0.245  0.550  0.556
-0.00849 -0.556 -0.314
-0.344  0.725  0.334
0.0394 -0.211 -0.363
 0.230 -0.533 -0.131
-0.343  0.124  0.528
 0.345  0.254  0.351
-0.414  0.522  0.405
-0.0263  0.129  0.228
 0.443  0.657  0.548
-0.168  0.708  0.200
0.00676 -0.556 0.00626
-0.179 -0.0918 -0.637
-0.0944 -0.347 -0.628
 0.106  0.117 -0.674
 0.209 -0.334 -0.283
-0.257 -0.117 -0.306
0.0773 -0.324 0.0362
-0.252 -0.000325 -0.0298
0.0372  0.643  0.558
0.0816 -0.0440  0.273
 0.261  0.655  0.196
-0.0542  0.550  0.207
 0.174  0.727  0.364
0.0474 -0.415  0.225
-0.205  0.113  0.120
-0.00621 -0.152 -0.580
 0.238  0.107 -0.444
-0.0763 -0.0366  0.159
 0.397  0.504  0.366
0.0988 0.0921  0.410
-0.207  0.337  0.557
-0.0390 -0.556 -0.497
-0.176 -0.556 -0.230
 0.312 -0.0389 -0.171
 0.368  0.193  0.530
-0.199  0.367  0.214
0.0982  0.120 0.0824
 0.167  0.322  0.216
0.0982  0.314  0.557
-0.269  0.119 -0.352
-0.0851 -0.296 -0.0394
 0.165 -0.114 -0.602
-0.128 -0.503  0.371
-0.0164 0.0893 -0.796
-0.0930 0.0575  0.406
-0.0696 -0.121  0.308
-0.184 -0.401 -0.492
 0.113  0.535  0.208
-0.00133 -0.120 -0.0558
0.0626 -0.411 -0.665
 0.191 -0.418 -0.472
0.0677 -0.556 -0.169
-0.260  0.720  0.552
-0.206 -0.521  0.109
0.00675  0.727  0.364
 0.281  0.116  0.410
-0.0640 -0.227  0.467
0.00669 -0.193 -0.198
 0.258  0.306  0.557
-0.0603 -0.435 0.0828
-0.170 -0.545 -0.584
-0.206  0.115 -0.533
-0.117 -0.185 -0.306
-0.221  0.115 -0.135
0.0677 -0.556  0.159
 0.350 -0.00127 -0.389
-0.400  0.558  0.555
 0.350  0.535  0.557
 0.196 0.00383 -0.731
 0.143 -0.176 -0.0256
-0.117 -0.0373 -0.763
0.0785 -0.173  0.188
-0.250 -0.101 -0.466
-0.0494 -0.395  0.488
0.00676 -0.556  0.341
-0.377  0.239  0.442
-0.146  0.230  0.220
-0.118 -0.0614 0.0203
-0.228 -0.0390 -0.176
-0.0142 -0.311  0.303
-0.108  0.619  0.557
 0.244  0.119 -0.169
-0.356 0.00270 -0.360
 0.136 -0.500 -0.0166
-0.441  0.664  0.418
 0.113 -0.174 -0.479
-0.406  0.608  0.285
-0.305  0.672  0.196
-0.0846 -0.500 -0.0853
0.0215 -0.273 -0.657
0.0496 -0.188  0.383
0.0982 -0.556 -0.413
-0.0466  0.299  0.557
-0.191  0.727  0.342
 0.341  0.726  0.448
-0.207  0.116  0.486
 0.188 -0.273 -0.405
0.0372  0.154  0.556
-0.269 0.0117 -0.637
 0.257 -0.118 -0.268
 0.148 -0.421 -0.176
0.0233 -0.195 0.0548
 0.166 -0.0479 -0.0638
-0.0986 -0.288 -0.174
 0.353  0.382  0.313
-0.277  0.226  0.255
0.0830  0.207  0.221
0.0972 -0.288 -0.172
0.0670 -0.440  0.380
 0.187  0.113 -0.566
 0.271  0.239  0.244
 0.146 -0.177 -0.298
 0.182 -0.508  0.215
0.0852 0.0702  0.213
0.0886 -0.538  0.462
 0.350  0.574  0.271
-0.313  0.443  0.557
-0.197 -0.326 -0.390
 0.289  0.726  0.296
 0.121  0.727  0.479
0.0786 -0.540 -0.681
-0.0422 -0.0717 -0.669
-0.364  0.457  0.311
-0.104 0.0398  0.265
0.0302 -0.432 -0.00427
-0.329  0.136  0.392
-0.0795 0.0777  0.113
-0.168  0.504  0.209
 0.243  0.596  0.556
 0.302 -0.0408 -0.495
-0.222  0.119 -0.00142
-0.117 -0.418 -0.169
0.0753  0.527  0.557
-0.411  0.405  0.440
-0.00886 -0.00742 0.0252
-0.124 -0.139 -0.536
-0.0520  0.726  0.259
 0.116 0.0537 -0.0211
-0.0654 -0.449  0.265
-0.123 -0.556 0.0291
-0.199 -0.216 -0.222
-0.222 -0.469 -0.310
 0.429  0.573  0.464
-0.268  0.727  0.433
-0.283  0.222  0.556
-0.0540 -0.199 -0.435
 0.227 -0.502 -0.245
 0.108 0.0649 -0.781
-0.0630 -0.319 0.0821
 0.210 -0.553 -0.473
 0.281 -0.00515 -0.287
-0.0618 -0.556 -0.207
0.0577 -0.278  0.141
-0.138  0.504  0.557
-0.0673 0.0640 -0.695
 0.213  0.111 0.0931
 0.145 -0.441 -0.591
-0.117 -0.248 -0.575
 0.198 -0.242 -0.198
 0.394  0.333  0.422
 0.168  0.434  0.212
 0.330  0.667  0.563
-0.0914 -0.459 -0.655
-0.0923 -0.556 -0.398
0.0514 -0.227 -0.0660
0.0672 -0.0901 -0.650
-0.0567  0.718  0.557
0.00665 0.0472  0.455
-0.0590 -0.147  0.132
-0.257  0.117 -0.240
 0.289  0.116  0.524
0.0372 -0.557 -0.580
0.0437 -0.411  0.115
0.0144  0.459  0.211
0.0857 -0.0191  0.379
-0.0585 -0.326  0.404
-0.0237  0.238  0.220
-0.0999  0.421  0.212
 0.174  0.719  0.208
-0.211 -0.0317 -0.553
0.0413 -0.221  0.489
-0.268 0.00421 -0.273
0.0789 -0.340 -0.0699
 0.211 -0.410 -0.367
-0.167 -0.511  0.272
-0.187 -0.139 -0.383
-0.313 -0.00846 -0.119
-0.214 -0.502 -0.146
 0.220  0.558  0.207
-0.149 0.0475 -0.0291
0.0945 0.00365 -0.695
 0.219 -0.112 -0.507
-0.204 -0.0968 -0.0653
 0.211  0.107 -0.672
-0.176  0.121  0.220
-0.328  0.634  0.557
 0.234 0.00885 -0.121
 0.287  0.341  0.234
-0.286  0.423  0.218
 0.176 -0.0154 -0.630
 0.129 0.0938  0.311
-0.176 0.0520 -0.619
-0.263 -0.0144 -0.413
 0.367  0.293  0.555
 0.182  0.375  0.557
-0.0390 -0.556 0.0977
 0.190  0.116  0.456
0.0821 -0.498  0.288
0.0598 -0.499 -0.0853
-0.0677 -0.196 -0.0673
 0.419  0.459  0.456
 0.290 0.0912 -0.541
 0.240 -0.102 -0.124
0.0507 -0.407  0.486
-0.414  0.459  0.542
0.0176  0.726  0.489
-0.000857 -0.182  0.250
-0.0769 -0.0297  0.358
 0.283  0.155  0.297
-0.0212  0.655  0.195
-0.146  0.611  0.206
-0.308  0.114 -0.465
 0.444  0.671  0.449
-0.334  0.229  0.342
0.0754 -0.494 0.0624
-0.194 -0.235 -0.344
-0.201 0.0183 -0.727
 0.144 -0.556 -0.253
0.0837 -0.181 -0.612
-0.0122 -0.341  0.174
 0.296  0.451  0.557
-0.0923  0.727  0.357
0.0144 -0.556  0.242
 0.325  0.115 -0.379
 0.316 0.0625 -0.131
-0.0715 -0.143  0.417
-0.0466  0.542  0.557
 0.225 -0.540 -0.0245
-0.0284 -0.0241 -0.802
-0.153  0.709  0.561
0.0788 0.0221 0.0705
 0.347  0.474  0.281
 0.106  0.436  0.557
-0.0323 -0.376 -0.0519
-0.287 0.0850 -0.0715
-0.161 -0.556 -0.481
-0.122 -0.0190 -0.664
-0.314 -0.0614 -0.221
 0.153 -0.0211 0.0283
-0.123  0.382  0.557
-0.199 -0.112 -0.231
 0.140 -0.212 -0.114
 0.173 -0.326 -0.487
 0.360  0.679  0.247
 0.352  0.178  0.419
 0.182  0.215  0.221
0.0919 -0.126 -0.0877
-0.149 -0.419 -0.578
-0.0542 -0.402  0.346
-0.138  0.120 0.0519
-0.153 -0.556 -0.321
-0.0618 -0.556 -0.588
-0.000776 -0.303  0.507
0.0906  0.626  0.205
 0.347 0.0313 -0.230
0.0220  0.120  0.136
0.00658 -0.479 -0.694
-0.374  0.725  0.441
-0.0661 -0.230 0.0232
 0.159 -0.168 -0.398
 0.215 -0.238 -0.291
0.0786 -0.00600  0.159
0.0528  0.118 0.000375
0.0829  0.367  0.214
 0.257 0.0777 -0.329
-0.306  0.314  0.557
-0.0847 -0.556  0.433
 0.183 0.0903 -0.0848
-0.0575 -0.479 7.20e-05
0.0220  0.375  0.557
-0.222  0.436  0.557
-0.0348 -0.123 0.0474
-0.218 -0.426 -0.208
-0.169  0.116  0.387
-0.237  0.611  0.206
-0.0229 -0.380 -0.675
-0.165 -0.311 -0.503
-0.0772 0.0972  0.486
-0.197 -0.304 -0.195
 0.124  0.726  0.284
-0.0237 -0.556 -0.123
-0.0976 -0.174 -0.204
-0.207 -0.465 -0.432
0.0222 0.0588 -0.708
-0.0596 -0.206 -0.632
-0.0696 -0.468  0.166
0.0759 -0.106  0.355
-0.335  0.106 -0.284
 0.325 0.0692 -0.457
0.0574 -0.0638 -0.00923
-0.0802 -0.135  0.219
 0.409  0.611  0.379
-0.260  0.726  0.285
-0.115  0.314  0.217
-0.0989 0.0453 -0.793
-0.280 0.0828 -0.571
 0.410  0.469  0.547
 0.252 -0.0620 -0.579
0.0115 -0.188 -0.501
 0.159  0.245  0.556
-0.184 -0.556  0.197
 0.144 -0.556 -0.123
-0.161  0.261  0.557
 0.148 -0.0685 -0.712
 0.136  0.702  0.562
-0.220 0.0238 -0.114
 0.258  0.727  0.418
 0.167  0.120 0.00626
-0.00877 -0.210 -0.290
-0.000624 -0.148 -0.668
-0.184 -0.501 -0.000202
 0.256 0.0545 -0.226
0.0331 -0.127  0.116
 0.185 -0.487 -0.525
 0.121 -0.557 -0.497
 0.313 -0.0687 -0.336
-0.435  0.611  0.486
-0.369  0.687  0.260
 0.144 0.0934  0.151
-0.0210 -0.155  0.487
-0.138 -0.556 -0.123
0.0829 -0.556 -0.314
0.0372  0.253  0.557
-0.388  0.258  0.525
-0.0658 -0.463  0.440
0.0577 0.00374 -0.814
-0.0312 -0.471 -0.148
-0.0796 -0.117 -0.607
-0.308  0.116 -0.170
 0.218 -0.418 -0.260
0.0330 -0.352  0.361
-0.0659 -0.353 -0.128
 0.266  0.200  0.556
0.0829  0.727  0.402
-0.229  0.116 -0.635
-0.237  0.291  0.218
-0.191  0.634  0.557
 0.106  0.116  0.524
-0.260  0.141  0.555
 0.163 -0.243 -0.480
-0.00849 -0.556 -0.405
-0.184  0.177  0.557
-0.253 0.0505 -0.474
0.0741 -0.464 -0.160
-0.352 -0.00893 -0.274
-0.0825 -0.113 -0.0727
-0.361  0.538  0.292
-0.314 -0.0676 -0.348
 0.104 -0.181 -0.217
-0.337 0.0772 -0.397
-0.108 -0.556  0.311
0.0102 -0.480  0.494
-0.0237  0.119 0.0672
-0.0882 -0.0492  0.239
 0.110 -0.365 -0.615
-0.292 -0.0176 -0.562
0.0220 -0.556 -0.238
 0.136 -0.102 0.0144
-0.0466  0.727  0.433
 0.167  0.558  0.556
 0.217 0.0546 -0.518
-0.0184 -0.263  0.371
-0.107  0.117 -0.754
 0.391  0.421  0.374
-0.190 -0.480 -0.511
0.0159 -0.280  0.235
 0.144 -0.500  0.143
 0.164 -0.501 0.0596
-0.114 0.0324 0.0556
-0.131  0.726  0.276
 0.270 -0.0385 -0.398
-0.202 -0.173 -0.290
 0.395  0.722  0.539
 0.272  0.119 -0.0932
0.0501 -0.413  0.305
-0.297  0.159  0.318
 0.237 -0.0224 -0.0378
-0.186 -0.0196 0.0150
-0.393  0.330  0.419
0.0144 -0.163 -0.121
 0.212 -0.181 -0.129
-0.0813 -0.242  0.105
 0.205  0.116  0.319
-0.210 -0.411 -0.374
 0.380  0.247  0.449
-0.228 -0.556 -0.291
-0.0828 0.0549  0.189
 0.181 -0.319 -0.189
-0.115 -0.556  0.121
0.0372  0.558  0.207
0.0296  0.726  0.288
-0.209  0.726  0.486
0.0205 -0.0272 -0.702
-0.411  0.684  0.340
0.0665 -0.126  0.279
0.0163 -0.337  0.100
-0.121 -0.182 -0.394
-0.0686 -0.0600 0.0818
-0.253 0.0350 -0.185
-0.0313  0.207  0.557
 0.298  0.558  0.212
-0.0194 -0.358 0.0308
 0.317  0.288  0.287
0.0588 -0.149  0.463
-0.120  0.105 -0.654
 0.350 0.0510 -0.331
-0.168 -0.136 -0.471
 0.118 -0.501  0.377
-0.386  0.406  0.366
 0.174  0.641  0.205
-0.211 -0.108 -0.540
-0.327  0.601  0.235
-0.0229 -0.0863 -0.745
-0.0299 -0.0120  0.421
 0.318  0.115 -0.206
0.0688 -0.466  0.164
 0.140 0.0586 -0.636
-0.112 -0.534 -0.655
-0.0105 -0.448 -0.0699
 0.169 0.0761 -0.734
 0.222 -0.0865 -0.198
-0.237 -0.0810 -0.371
0.0756 -0.247 0.00429
-0.205 -0.281 -0.276
0.0906  0.284  0.218
 0.414  0.586  0.550
-0.0237  0.119 -0.725
-0.290  0.349  0.235
 0.296  0.720  0.214
-0.0112 -0.372  0.258
 0.212 -0.486 -0.419
-0.442  0.711  0.478
-0.406  0.634  0.554
 0.121 -0.556  0.258
0.00658 0.0982  0.514
0.00870 -0.153  0.329
 0.258  0.382  0.557
0.0372 -0.557 -0.497
-0.252  0.116  0.425
 0.245 0.00639 -0.673
-0.268 -0.0675 -0.104
 0.113 -0.556 0.0825
-0.161 -0.500 -0.0776
-0.115  0.119  0.166
-0.214 -0.134 -0.157
-0.161 0.0948  0.296
-0.252 0.0585 -0.394
 0.205  0.727  0.471
 0.216 -0.181 -0.351
0.0601  0.120 -0.733
-0.313  0.520  0.557
-0.0847 -0.556 -0.291
-0.227 -0.502 -0.230
-0.135 -0.0845 -0.698
0.0904 0.0236  0.303
0.0918  0.441  0.211
 0.232 -0.188 -0.238
 0.190 0.0423 0.0202
0.0474  0.134  0.226
0.0677 -0.556 -0.0395
0.0840 -0.266 -0.619
-0.221 -0.553 0.0367
0.0813 -0.152 0.0415
-0.135 -0.328 -0.570
-0.204 -0.0416 -0.685
 0.266 0.0531 -0.398
-0.440  0.612  0.350
 0.145 -0.136 -0.533
-0.154  0.119 -0.0460
-0.0446 -0.411  0.204
 0.350  0.375  0.557
-0.0923 -0.500 0.0748
-0.0943 0.0777  0.326
 0.219 0.0442 -0.595
-0.139 -0.0392 -0.0454
-0.00847 -0.556  0.174
 0.259  0.116 -0.268
 0.218 -0.448 -0.195
 0.182 -0.556 -0.184
-0.0542 -0.556 -0.0318
-0.0852 -0.253 -0.107
-0.221  0.177  0.224
 0.136  0.140  0.226
-0.313  0.116  0.463
 0.272 0.0241 -0.474
-0.291 -0.0537 -0.500
 0.130 -0.228 -0.548
 0.101 -0.479 -0.651
 0.243  0.398  0.213
 0.281 -0.0434 -0.107
 0.366  0.326  0.355
-0.229  0.466  0.210
0.0601  0.721  0.546
-0.334 -0.0143 -0.438
-0.428  0.516  0.475
 0.352  0.134  0.494
 0.320  0.414  0.256
 0.159 -0.556 -0.367
 0.166 -0.500 -0.0854
0.0834 -0.263 0.0766
-0.146  0.118  0.539
-0.245  0.708  0.200
0.0692 -0.347 -0.146
 0.228 -0.113 -0.337
-0.0923  0.713  0.202
0.0220 -0.556  0.448
-0.0480 -0.279 -0.649
-0.0389  0.634  0.557
-0.0561 -0.209  0.394
-0.115 -0.556 -0.535
 0.106  0.200  0.556
 0.192 -0.138 -0.0589
-0.276 0.0460 -0.329
-0.227 0.0598 -0.676
-0.0766 -0.494  0.319
 0.334  0.725  0.349
 0.289 0.0299 -0.0756
-0.307  0.287  0.271
0.0626 -0.0870  0.422
0.0750 -0.0747  0.151
 0.316  0.148  0.360
0.0473 -0.265  0.393
-0.229 0.0350 -0.555
-0.269 -0.0980 -0.183
0.0297 0.0535 0.00737
-0.260  0.643  0.558
-0.130 -0.500  0.159
-0.0398 -0.210 -0.352
-0.293 -0.0765 -0.417
 0.321 -0.0502 -0.238
0.0296 -0.556 0.0901
0.0296  0.451  0.557
0.0604 0.0979  0.471
-0.329  0.721  0.546
-0.167 -0.372 -0.183
 0.198  0.658  0.562
 0.113 -0.500  0.212
 0.281  0.535  0.556
-0.191  0.727  0.410
 0.402  0.311  0.487
-0.186 -0.0391 -0.0968
0.0677 -0.556  0.372
-0.229  0.535  0.208
-0.153 -0.556 -0.0394
 0.221 -0.471 -0.330
0.0229 -0.205 -0.436
 0.164  0.103  0.372
 0.218  0.273  0.219
-0.240  0.118 -0.460
 0.184 0.0282 -0.0458
 0.168 -0.403 -0.534
-0.234 -0.0643 -0.609
 0.242  0.174  0.233
-0.339  0.400  0.284
 0.184 -0.141 -0.237
-0.0549 -0.169 -0.153
 0.198 -0.357 -0.406
 0.372  0.630  0.301
-0.0515 -0.0503 -0.00339
0.0319 -0.338 -0.665
-0.0166 -0.197 -0.0243
-0.145 -0.243 -0.187
 0.236 -0.0420 -0.517
-0.240 -0.0675 -0.265
-0.392  0.566  0.344
-0.329  0.470  0.256
 0.310 0.0232 -0.548
 0.105 -0.196 -0.371
-0.0658 -0.296  0.462
 0.402  0.721  0.387
 0.411  0.391  0.457
 0.125 -0.0574 -0.648
-0.154 0.0549 -0.755
 0.243  0.115 -0.614
-0.0848 -0.176 -0.489
 0.258 -0.00524 -0.187
-0.133 -0.106 -0.0250
-0.0545 -0.0141 -0.698
-0.419  0.587  0.410
-0.0847  0.641  0.205
-0.365  0.273  0.378
-0.0643 -0.395  0.411
-0.221 -0.502 -0.367
-0.176  0.558  0.557
-0.0504 -0.0743  0.419
 0.151 -0.556 0.0139
-0.0923  0.192  0.222
-0.234  0.120  0.253
 0.152 -0.100 -0.101
 0.304  0.253  0.557
-0.369  0.186  0.479
 0.226 -0.556 -0.298
 0.228  0.726  0.319
-0.321  0.726  0.479
 0.429  0.512  0.502
 0.213 -0.368 -0.218
 0.273  0.726  0.506
 0.260  0.118 -0.383
 0.125 0.0679 0.0532
 0.204 -0.0731 -0.639
-0.176  0.428  0.212
-0.352 0.0511 -0.314
0.0641 -0.387  0.426
-0.0237 -0.556  0.402
 0.130 -0.553 -0.641
-0.394  0.474  0.366
0.0764 -0.171 -0.160
-0.222 -0.556 -0.184
 0.243  0.725  0.250
0.0832  0.727  0.334
-0.174 0.0698 0.0326
0.0786 -0.197  0.129
 0.126 -0.0336 -0.762
-0.0687 -0.112 -0.00984
0.0835 -0.0975 -0.711
-0.131  0.116  0.456
 0.222  0.118 -0.513
 0.389  0.566  0.338
-0.336  0.375  0.557
 0.121  0.682  0.197
-0.0459  0.135  0.555
0.0459 -0.355 -0.00980
-0.314 0.0688 -0.127
-0.0855 -0.291 0.0294
0.0538 -0.167 -0.543
-0.153 -0.0894 -0.580
-0.318 -0.0649 -0.284
-0.0713 0.00724 0.0162
-0.131 0.0430 -0.673
-0.0916 -0.489 -0.149
 0.167 -0.514  0.276
 0.172 -0.158 -0.464
-0.000796 -0.212 -0.654
-0.0166 -0.393  0.113
0.0752 -0.500 -0.00136
0.0830 -0.556 -0.108
-0.0466  0.474  0.210
-0.0406 -0.422 0.0191
 0.112 -0.0724 -0.0397
0.0905  0.119  0.174
 0.388  0.251  0.513
 0.206 -0.0468 -0.114
0.0301 -0.404 0.0549
0.0750 -0.186 -0.0254
-0.0766 -0.0538  0.301
 0.206 -0.290 -0.238
-0.207 -0.332 -0.325
-0.101 -0.186 -0.590
 0.192 -0.556 -0.533
 0.336 0.00251 -0.466
 0.205  0.116  0.517
-0.0735 -0.196 -0.262
-0.0761 -0.188  0.188
 0.416  0.543  0.411
-0.172 -0.0933 -0.136
 0.219 -0.539 0.0372
-0.184 -0.248 -0.409
-0.355  0.185  0.419
0.0797 0.0625  0.151
-0.144 -0.205 -0.518
-0.419  0.405  0.502
-0.237  0.119 -0.0623
 0.309  0.209  0.312
0.0982  0.634  0.556
 0.239  0.102 0.0200
0.0501 -0.334  0.491
-0.115 -0.500 -0.0318
 0.174 -0.500 -0.146
 0.320  0.642  0.219
 0.357  0.436  0.557
 0.286 0.00714 -0.360
-0.130 -0.556 -0.184
-0.0847  0.238  0.557
-0.115  0.542  0.208
0.0220  0.558  0.556
 0.212  0.497  0.209
0.0310 -0.371 -0.0928
 0.288 -0.0755 -0.446
 0.124 -0.553  0.408
0.0249 -0.492 -0.0355
-0.152 -0.151 -0.223
-0.153 -0.498 -0.147
-0.000869  0.713  0.202
-0.258 -0.0406 -0.316
-0.165 -0.501 0.0683
 0.304  0.596  0.556
 0.159 -0.556 -0.428
0.0677 -0.556  0.311
-0.123  0.321  0.557
-0.177  0.119 -0.604
0.0296  0.284  0.218
-0.0313 0.0529 0.0215
-0.0542  0.120  0.166
-0.114 -0.0737 -0.633
0.0850 0.000431 0.0139
-0.0440 -0.156  0.359
0.0296 -0.557 -0.649
 0.440  0.716  0.489
 0.121  0.119 -0.733
0.0520 0.0869 -0.792
-0.0736 -0.0995 -0.713
0.0788 -0.0438  0.212
 0.113 -0.127 -0.635
-0.0692 -0.456  0.380
 0.128 -0.231 -0.170
 0.353 -0.00420 -0.306
 0.244 0.0534 -0.161
0.0879 -0.242 -0.123
 0.152  0.119 -0.634
 0.197 -0.266 -0.341
 0.261 -0.0608 -0.298
-0.0833 -0.498  0.235
-0.242 -0.0392 -0.468
0.0827 -0.278 -0.0753
-0.396  0.289  0.469
-0.217 -0.410 -0.298
-0.168 -0.448 -0.179
 0.129  0.116  0.456
 0.129 -0.556  0.159
-0.105  0.134  0.226
-0.0765  0.726  0.501
-0.245  0.291  0.557
-0.260  0.481  0.556
0.0372 -0.556 -0.352
 0.251  0.116  0.479
0.0220  0.200  0.222
-0.00847  0.497  0.557
-0.107 -0.357 -0.171
0.0405 -0.542  0.503
 0.167  0.725  0.517
-0.266  0.167  0.265
0.0297 -0.223  0.220
-0.148 -0.136 -0.0737
 0.218 -0.556 -0.413
 0.196  0.108  0.175
-0.0147 -0.235  0.501
 0.296  0.119 -0.466
 0.227 -0.556 -0.222
0.0773 0.0424  0.432
-0.194 0.0780 -0.0985
-0.0309 0.0329 -0.815
 0.205  0.120 -0.0395
 0.143  0.114 -0.0469
 0.229 -0.00345 -0.563
-0.0340 -0.195 0.0655
0.0528 -0.200 -0.237
 0.319  0.155  0.555
-0.214 0.0360 0.00754
 0.194 -0.0573 -0.578
 0.257 -0.0452 -0.229
-0.374  0.725  0.502
-0.0694  0.360  0.557
-0.0390 -0.556  0.265
-0.115  0.558  0.557
-0.184  0.390  0.557
-0.275  0.116  0.372
 0.182 -0.556  0.181
0.0601 -0.556 0.0291
0.0593 -0.461  0.464
 0.167 -0.556 -0.306
-0.0313  0.299  0.218
 0.145  0.259  0.219
-0.169 -0.0299 -0.733
-0.336  0.573  0.556
-0.290  0.724  0.235
-0.133 -0.471 -0.616
-0.258 -0.0721 -0.543
-0.0927 -0.227 -0.169
-0.0714 -0.342 -0.00748
-0.328 -0.0231 -0.180
-0.181 -0.189 -0.412
 0.151 0.0944  0.258
-0.0325 -0.296  0.146
 0.213 -0.0846 -0.0615
 0.186 -0.220 -0.426
0.0243 -0.0293  0.412
-0.268  0.727  0.342
 0.179 -0.0581 -0.00709
-0.179 -0.289 -0.450
-0.0916 0.00913  0.319
-0.335 0.0476 -0.446
-0.191  0.725  0.250
-0.360  0.178  0.538
-0.226 0.0982 0.0517
-0.0760 -0.511  0.470
-0.237 -0.0521 -0.0490
 0.317 0.00346 -0.132
 0.205 -0.556 -0.0852
 0.272 -0.0890 -0.170
 0.191 -0.501 0.000384
-0.302 0.0841 -0.518
-0.0846 -4.18e-05  0.406
 0.365  0.524  0.303
-0.239 0.0929 -0.191
 0.136  0.482  0.210
 0.326  0.345  0.280
-0.294 0.0167 -0.0727
-0.0535 0.0552  0.446
 0.388  0.659  0.561
-0.182 -0.0262 -0.601
-0.397  0.721  0.380
-0.176 -0.556 -0.375
 0.367  0.436  0.323
 0.273  0.643  0.558
-0.0915  0.672  0.562
-0.261  0.115 -0.296
-0.164 -0.553  0.309
-0.101 -0.118 -0.664
0.0170 -0.0747 -0.673
 0.155 -0.502 -0.594
 0.374  0.273  0.401
0.0296  0.634  0.205
 0.179 -0.190 -0.0802
-0.396  0.405  0.552
-0.187 -0.357 -0.457
-0.329 0.0992 -0.223
-0.241 0.00128 -0.513
 0.242 0.0644 -0.652
 0.237 -0.0731 -0.471
-0.146 -0.260 -0.529
-0.421  0.453  0.466
 0.107 -0.422 -0.633
-0.198 -0.409 -0.439
 0.159  0.119 0.0824
0.0605 -0.145 -0.651
 0.205 -0.330 -0.338
0.0906 -0.556 -0.238
0.0674 -0.227  0.440
 0.167  0.428  0.556
-0.283  0.390  0.557
-0.134 -0.556  0.389
-0.123  0.119  0.105
0.0372  0.321  0.557
 0.197  0.321  0.556
 0.113  0.580  0.557
-0.138  0.727  0.395
 0.144  0.497  0.556
-0.199 -0.556 -0.100
-0.0246 -0.117 -0.629
0.0719 -0.487  0.349
-0.377  0.578  0.249
 0.179 -0.556  0.242
-0.343  0.253  0.556
 0.435  0.619  0.509
-0.325  0.118 -0.337
-0.101 -0.501  0.421
-0.359  0.489  0.556
-0.138 -0.556  0.227
0.0145 -0.389  0.168
0.0906 -0.557 -0.542
-0.207 -0.511 -0.463
0.0372  0.398  0.213
 0.205  0.215  0.557
0.0601  0.489  0.209
-0.0773 -0.343 -0.0656
-0.0466  0.727  0.326
-0.0390 -0.556 -0.260
0.0753 -0.556  0.227
-0.0618 -0.556 -0.352
-0.0653 -0.0536 -0.772
-0.214  0.245  0.557
 0.311  0.116  0.456
-0.0847  0.360  0.215
 0.151 -0.354 -0.550
0.0138 -0.372  0.506
-0.0415 -0.432 -0.679
 0.101 0.0586 -0.674
-0.0336 -0.447  0.494
0.0121 -0.479 -0.116
-0.452  0.658  0.538
-0.211 -0.117 -0.339
-0.0811  0.117 -0.692
 0.136  0.390  0.213
 0.108 -0.377 -0.170
 0.407  0.466  0.404
0.0864 0.00922  0.250
-0.0136 -0.151 0.0900
-0.100 -0.191 -0.111
0.0123 -0.334  0.227
-0.426  0.718  0.426
-0.290  0.116  0.517
 0.230 -0.143 -0.162
-0.0210 -0.359  0.345
-0.108  0.119 -0.00127
0.0448 -0.278  0.492
-0.229  0.238  0.221
-0.0943 -0.0704 -0.0357
0.0982 -0.144 -0.564
 0.334  0.720  0.552
0.0981 -0.499 -0.124
-0.0390  0.421  0.212
-0.359  0.680  0.563
 0.260 -0.0671 -0.352
 0.166  0.119 -0.702
 0.337 0.0687 -0.404
-0.229 -0.553 -0.345
 0.143 -0.0134 -0.0243
 0.235  0.443  0.557
 0.210 0.0589 -0.119
 0.311  0.727  0.402
-0.0847 -0.556 -0.131
 0.311  0.337  0.557
 0.159 -0.556 -0.0395
-0.0999  0.482  0.210
0.0296 -0.556 -0.100
-0.0847  0.120 0.0596
 0.266  0.727  0.364
-0.199  0.116  0.433
 0.228  0.542  0.556
-0.130 -0.556 -0.436
 0.129 -0.556 -0.199
-0.184  0.573  0.207
0.0539 -0.138 -0.598
-0.0705 -0.509 -0.679
-0.0808 0.00166  0.197
0.0953 0.0857  0.357
-0.0237 -0.226  0.224
0.00676  0.720  0.552
0.0805 -0.0357  0.326
-0.00510 -0.0824 -0.0181
 0.320 -0.0450 -0.416
 0.378  0.708  0.288
0.0683 -0.467  0.217
-0.256 0.0702 -0.268
-0.159 -0.366 -0.540
 0.215 -0.129 -0.450
-0.0433 -0.111  0.457
-0.0694 -0.556 0.0291
 0.220  0.611  0.206
0.0296  0.120 0.0672
-0.267  0.120 -0.108
-0.0847  0.504  0.557
-0.203 -0.0854 -0.182
-0.0907 -0.284 -0.617
 0.357  0.596  0.556
-0.123  0.436  0.557
-0.207  0.709  0.561
 0.106  0.253  0.556
-0.298 -0.0606 -0.157
 0.230 -0.158 -0.290
 0.402  0.527  0.554
0.0677  0.727  0.471
 0.273  0.116  0.357
 0.403  0.722  0.441
 0.167 -0.556 0.0672
0.0982  0.367  0.557
 0.242  0.117  0.273
-0.193 -0.0607 -0.0180
-0.262  0.726  0.486
-0.0708 -0.0877  0.145
 0.145 0.00743 -0.666
 0.106  0.119 -0.00124
 0.288 0.0460 -0.301
-0.408  0.353  0.464
-0.0646 -0.265  0.419
 0.149 -0.273 -0.524
0.0901 0.0769  0.265
-0.283 -0.0969 -0.256
 0.321  0.520  0.240
-0.202 -0.116 -0.427
-0.0440 -0.147  0.271
0.0116 -0.357  0.303
 0.433  0.667  0.398
-0.0935 0.0633 -0.0206
-0.198 -0.533 -0.511
-0.200 -0.0978 -0.487
-0.162 -0.161 -0.342
-0.0834 -0.0113 -0.797
-0.0398 -0.150 -0.106
0.0608 -0.309 0.0989
 0.206 -0.00297 -0.000628
-0.0615 -0.149 -0.646
0.0921 0.0321  0.372
-0.107 -0.398 -0.626
-0.206 -0.502 -0.0471
0.0830 -0.557 -0.618
-0.0462 -0.498 -0.0471
 0.329 -0.0475 -0.291
-0.283  0.119 -0.420
 0.160 0.0266 -0.761
0.0700 -0.214 0.0674
0.0771 -0.122  0.183
 0.204 -0.502 -0.468
-0.151 -0.500  0.206
 0.158 -0.365 -0.181
0.0144  0.120  0.189
-0.412  0.471  0.416
0.0958 -0.501  0.423
-0.190 0.00762 -0.0753
-0.123 -0.500  0.296
 0.115 -0.186 -0.429
-0.0782 0.0104  0.138
 0.171 0.0634 -0.591
-0.207  0.652  0.199
-0.354  0.629  0.270
 0.204 -0.230 -0.377
0.0323 -0.219 0.00547
 0.282 0.0608 -0.583
0.0829 -0.303 -0.123
-0.335  0.182  0.371
-0.0127 -0.402 -0.0928
-0.0251 -0.118 -0.701
-0.0519 -0.180  0.232
-0.00108 0.0929 -0.00396
 0.207 -0.144 -0.389
-0.0778 0.00591 0.0801
-0.161 -0.556  0.143
-0.0528 -0.149 -0.0413
-0.199  0.481  0.557
 0.258  0.489  0.556
 0.220  0.352  0.215
 0.333  0.201  0.356
-0.200 -0.221 -0.273
-0.306  0.177  0.556
 0.129  0.727  0.425
-0.0788 -0.197  0.129
-0.268 -0.0120 -0.357
 0.157 -0.0966 -0.655
-0.168  0.184  0.223
-0.385  0.636  0.322
 0.294  0.118 -0.139
 0.189 -0.150 -0.321
 0.201 -0.506  0.103
0.0300 -0.390 -0.0432
 0.213  0.109 -0.125
-0.144  0.659  0.562
-0.366  0.364  0.340
-0.289  0.474  0.214
-0.0554 -0.115 0.0930
-0.254 -0.0190 -0.230
-0.0260 -0.172 -0.538
-0.170 -0.462 -0.553
-0.0684 -0.410 -0.158
-0.123 0.0953  0.387
-0.135 -0.165 -0.447
-0.0134 -0.296  0.197
-0.118 -0.0165 0.0431
-0.000386 -0.556 -0.701
-0.427  0.527  0.526
 0.113 -0.196 -0.0609
0.0739 -0.0138  0.105
 0.198 -0.0878 -0.147
-0.146 -0.0748 -0.0799
 0.174  0.726  0.275
-0.164 -0.124 -0.175
-0.0649 -0.349  0.448
 0.192 -0.0373 -0.703
-0.371  0.322  0.366
0.00768 -0.274  0.329
-0.331  0.553  0.247
 0.115 -0.142 -0.129
-0.123  0.724  0.524
-0.0607 -0.241 -0.0469
-0.0612  0.117 -0.774
 0.243  0.119 -0.558
-0.138  0.659  0.193
 0.331 0.0690 -0.193
-0.298 0.0363 -0.567
 0.427  0.626  0.436
 0.283 -0.0233 -0.575
-0.0910 0.0192 -0.695
 0.263  0.292  0.223
-0.210 -0.357 -0.202
-0.257  0.655  0.194
-0.247 -0.121 -0.220
0.0724 -0.135  0.395
 0.274 0.000147 -0.238
-0.00518 0.0192 -0.718
 0.344  0.726  0.497
 0.168 -0.116 -0.0220
0.0800 -0.0301 -0.786
-0.0236 0.0933  0.454
-0.0480 -0.416  0.143
0.0530 -0.192 -0.475
-0.102 -0.149 -0.145
-0.0523 -0.328 -0.655
-0.0307 -0.379 -0.150
-0.0848 -0.303 -0.0928
0.0298 -0.148 0.0661
0.0741 -0.118 0.0907
-0.0824 -0.105  0.258
-0.447  0.654  0.465
 0.321 0.0377 -0.502
0.0905 -0.500  0.136
-0.0694 -0.556  0.341
-0.138  0.200  0.557
-0.0161 -0.556 -0.0623
 0.121 -0.556 -0.0776
-0.00847 -0.556 -0.199
-0.115 -0.556 -0.253
 0.205  0.727  0.402
0.0753 -0.556 -0.466
-0.0237 -0.556 -0.558
0.0354 -0.344 0.0506
0.0674 -0.238  0.167
 0.174 -0.221 -0.148
-0.130  0.382  0.214
 0.258  0.527  0.208
 0.214 -0.388 -0.298
-0.304  0.205  0.303
-0.252 0.0666 -0.635
-0.0180 -0.314  0.362
 0.299 -0.0778 -0.382
-0.125 -0.128 -0.621
-0.337  0.716  0.225
-0.209 -0.506 0.0441
-0.207 -0.160 -0.232
-0.190  0.117  0.174
0.0408 -0.189 -0.644
-0.0751 -0.113  0.379
-0.306  0.726  0.304
-0.0367 -0.501  0.497
0.0768 -0.415 -0.162
0.0825 0.0243  0.197
0.0683 -0.316 -0.643
0.0966 -0.0206 0.0560
 0.379  0.375  0.363
0.0787 0.0780 0.0971
0.0884  0.111 -0.771
-0.119 -0.00817 -0.0141
-0.0708  0.271  0.219
 0.235  0.116  0.433
 0.420  0.505  0.442
-0.108 -0.556 -0.603
-0.153 -0.319 -0.184
0.0906  0.687  0.562
0.0372 -0.556 -0.299
 0.290  0.391  0.226
 0.236 -0.0406 -0.163
-0.233 -0.00316 -0.684
 0.146 -0.189 -0.510
0.0906  0.481  0.556
 0.113 -0.556  0.357
0.0220 -0.556 -0.451
 0.121  0.337  0.216
-0.153  0.603  0.557
-0.252  0.727  0.387
 0.175 0.0925 0.0451
-0.160 0.0243 0.0381
0.0758 -0.139  0.234
 0.352 0.0381 -0.284
-0.0228 -0.435 -0.0253
0.0525  0.200  0.556
 0.159  0.596  0.206
 0.294 -0.0871 -0.268
-0.0313  0.177  0.223
-0.0171 -0.171 0.0161
 0.404  0.337  0.530
-0.276 -0.0309 -0.0745
 0.338 0.00279 -0.193
0.0319 -0.0324 -0.796
 0.197 -0.501 -0.0471
0.0389 -0.113 -0.704
-0.0393 -0.401  0.301
 0.236 -0.137 -0.230
 0.452  0.664  0.502
 0.182  0.119  0.128
-0.0923  0.727  0.303
-0.170  0.271  0.219
0.0368 -0.173 0.0148
 0.125 -0.148 0.0176
 0.262  0.113 -0.0411
0.0177 -0.389 0.0115
 0.137  0.135  0.555
0.0737 0.0751 -0.0157
-0.207 -0.476 -0.185
-0.184 -0.556 -0.436
 0.107 -0.192 -0.275
-0.0854 -0.199 -0.344
-0.240 0.0697 -0.0139
-0.228 0.0590 -0.152
-0.274  0.119 -0.534
0.0143 -0.433 -0.686
-0.349  0.653  0.229
 0.151 -0.176 -0.352
-0.251  0.119 -0.580
 0.260 -0.0231 -0.620
-0.385  0.520  0.337
-0.0312 -0.496 -0.108
0.00640 -0.425  0.504
0.0525  0.117  0.532
 0.372  0.204  0.468
0.0376 -0.209 -0.283
-0.138 0.0938  0.220
-0.419  0.650  0.379
 0.213 -0.494 -0.185
0.0614 0.0310 -0.714
-0.347  0.140  0.442
0.0574 -0.0992 -0.0397
-0.235 -0.133 -0.268
 0.241 0.0545 -0.457
-0.00310 -0.0592 -0.778
-0.349 0.0465 -0.253
 0.146 -0.170 -0.252
-0.324  0.263  0.307
-0.239 -0.121 -0.394
 0.443  0.714  0.536
 0.228  0.442  0.211
 0.329  0.129  0.400
 0.212 -0.503 -0.100
0.0702 -0.472  0.105
0.0215 -0.173  0.491
0.0220  0.725  0.242
 0.144  0.727  0.326
-0.298  0.268  0.557
-0.0542 -0.556 -0.634
-0.000855 -0.556  0.128
 0.129  0.215  0.221
-0.144 -0.528 -0.618
-0.0542 -0.556  0.166
-0.123 -0.500 0.0139
0.0906  0.147  0.556
-0.166 -0.110 -0.531
-0.192 0.0627 -0.718
-0.000875 0.00147  0.456
-0.237  0.596  0.557
-0.176 -0.556 -0.177
0.0448 -0.556 -0.398
 0.106 -0.556 0.0215
-0.168 -0.556 0.0367
0.0144 -0.556  0.296
-0.000864  0.727  0.410
-0.0542  0.727  0.387
-0.0633 -0.181  0.462
-0.184  0.119 0.0595
-0.153 -0.500  0.113
-0.259 0.00629 -0.461
 0.304  0.119 -0.420
-0.359  0.314  0.556
 0.304  0.390  0.556
-0.328  0.726  0.433
 0.101 -0.0385 -0.0102
0.0994 0.0187 -0.801
-0.000866  0.126  0.552
-0.179 -0.553  0.256
-0.237  0.725  0.242
-0.0310  0.680  0.562
-0.194 0.0639 -0.552
 0.142 -0.289 -0.183
-0.194 -0.506  0.151
 0.272 -0.100 -0.215
-0.222 -0.556 -0.245
0.0668 -0.456  0.303
-0.0468 -0.349  0.493
 0.277 -0.0565 -0.533
-0.183  0.727  0.296
-0.195 -0.441 -0.473
-0.362  0.232  0.397
0.0454 -0.0225 0.0172
-0.220 -0.433 -0.253
 0.121 -0.500 0.0748
-0.214 -0.0265 -0.131
-0.161 -0.556 -0.527
 0.182  0.390  0.213
 0.113 -0.556 -0.367
-0.123 -0.556 0.0748
 0.182  0.169  0.223
-0.0161  0.726  0.289
-0.0542  0.596  0.206
 0.273  0.146  0.556
-0.168  0.436  0.557
-0.146  0.727  0.342
 0.247  0.112 -0.214
-0.189 -0.133 -0.270
-0.184  0.724  0.524
 0.205 -0.421 -0.411
-0.182 -0.174 -0.196
 0.201 -0.0806 -0.540
-0.0313  0.726  0.506
-0.331 0.0459 -0.163
 0.247 -0.0718 -0.0880
-0.222  0.119  0.544
0.0812 -0.327 -0.00985
-0.198 -0.366 -0.412
-0.221 0.0557 -0.505
-0.189 -0.126 -0.0957
-0.0152 -0.198 -0.466
 0.395  0.724  0.486
-0.0240 0.0702 -0.706
-0.323 -0.0475 -0.387
-0.405  0.317  0.503
-0.0699 -0.282  0.124
-0.184 0.0993  0.334
 0.342  0.722  0.266
-0.251  0.107 -0.391
 0.266  0.687  0.563
-0.0645 0.0742 -0.793
 0.276 0.000809 -0.436
 0.197 -0.315 -0.380
-0.374  0.721  0.546
0.0109 -0.118  0.472
0.0523 -0.497 -0.139
-0.205 -0.364 -0.367
0.0481 -0.495 -0.688
-0.382  0.714  0.294
 0.211 -0.148 -0.0994
-0.00110 -0.210 -0.398
-0.0776 -0.413 -0.656
 0.168 -0.456 -0.553
 0.106  0.720  0.213
 0.267  0.118 -0.314
-0.199 -0.298 -0.355
0.0670 -0.441  0.425
-0.109 -0.158 -0.0818
-0.297  0.619  0.207
-0.0730 -0.487  0.113
 0.279 -0.0232 -0.329
-0.218 -0.0614 -0.505
-0.0634 -0.371 -0.657
-0.208 -0.312 -0.238
-0.161  0.344  0.215
-0.108  0.276  0.557
-0.108 -0.556  0.174
 0.220  0.283  0.556
 0.251  0.116  0.319
-0.130 -0.556 -0.375
0.0601 -0.556  0.425
-0.115 -0.556 -0.0623
-0.0771  0.120  0.128
-0.000849  0.413  0.557
-0.130  0.119 -0.695
 0.243  0.238  0.556
-0.0466 -0.556 -0.161
0.0220  0.119 -0.756
 0.167 -0.556  0.136
0.0753  0.120 0.0443
-0.0161 -0.556 -0.657
-0.229  0.375  0.557
 0.333  0.604  0.243
-0.222  0.405  0.213
 0.228  0.140  0.555
-0.0935 0.0703 0.0660
-0.153  0.116  0.494
0.0161 -0.314  0.138
-0.0259 -0.123 -0.00518
-0.123 -0.464 -0.168
-0.170 -0.410 -0.533
0.00323 -0.272  0.276
0.0230 -0.395  0.275
0.0367 0.00714  0.433
0.0768 -0.0767  0.310
 0.212 0.0296 -0.0794
0.0106 -0.433 -0.116
 0.330 -0.0413 -0.366
 0.273  0.120 -0.512
 0.296 0.0725 -0.0839
 0.135 -0.501  0.303
0.0902 -0.224 -0.606
-0.201 -0.258 -0.208
0.00543 -0.227  0.365
-0.0887 0.0857  0.220
-0.213 -0.456 -0.390
-0.265 -0.0420 -0.587
 0.265 -0.111 -0.314
 0.151 0.0287 -0.0162
0.0906  0.139  0.226
-0.123 -0.500 -0.116
 0.398  0.391  0.404
-0.271 0.0396 -0.0437
-0.0631 -0.417  0.454
-0.426  0.550  0.448
 0.213 -0.121 -0.267
-0.0999  0.126  0.552
 0.266  0.727  0.463
-0.230 -0.529 -0.115
-0.101 -0.00307  0.271
 0.205 -0.0129 -0.0870
 0.268 -0.0148 -0.0677
-0.221 -0.524 -0.000911
-0.0831 -0.280 0.0821
-0.0305 -0.509 -0.696
 0.220  0.720  0.214
-0.198 -0.103 -0.581
-0.146  0.459  0.211
-0.0935 0.0398  0.349
-0.122  0.266  0.219
 0.212  0.659  0.194
-0.261  0.123  0.286
 0.129  0.398  0.557
-0.222  0.116  0.395
 0.113 -0.556 -0.154
0.0525  0.588  0.557
0.00676 -0.556 -0.611
-0.0237  0.119 0.0215
0.0556 -0.500  0.482
 0.184 -0.365 -0.472
-0.145 0.0811 -0.625
0.0601  0.314  0.217
-0.110 -0.180 -0.245
0.0220 -0.556 -0.169
0.0525  0.727  0.372
-0.220 0.0977 -0.493
-0.248 0.0636 -0.222
 0.182  0.527  0.208
-0.0248 -0.213 0.0152
-0.191  0.291  0.557
 0.290  0.277  0.255
-0.138 0.0931  0.136
-0.133 -0.000609 -0.779
0.0275 -0.157  0.270
 0.143 -0.464 -0.173
 0.241  0.215  0.224
-0.0536  0.683  0.196
-0.275  0.281  0.235
 0.314  0.459  0.240
 0.196 0.0550 -0.557
0.0296  0.727  0.448
 0.302 -0.0214 -0.533
0.0141 0.0614 -0.806
0.0332 -0.380 -0.672
0.0524 -0.134  0.319
 0.380  0.721  0.334
 0.339  0.315  0.311
-0.0117 -0.379 0.0671
 0.140  0.102  0.415
 0.136 -0.500  0.250
-0.316  0.431  0.247
-0.157 -0.131 -0.570
 0.128 -0.468 -0.621
0.0407 -0.436 -0.153
-0.343 0.0793 -0.344
 0.250 -0.106 -0.446
-0.0617 -0.0691 0.0411
0.0349 -0.263  0.179
-0.0695  0.116  0.524
 0.227 -0.517 -0.314
-0.0163 -0.0464 -0.691
0.0731 -0.373 -0.651
0.0975 -0.167 -0.517
 0.358  0.163  0.464
 0.117 0.0221 0.0525
0.0172 -0.114 -0.634
 0.204 -0.295 -0.298
-0.0263 -0.212 -0.0624
0.0930 -0.0460 -0.673
0.0374 0.0163 0.0313
0.0219 0.0930  0.455
-0.290  0.725  0.517
-0.109 -0.127 -0.111
 0.197 -0.105 -0.575
 0.197 -0.460 -0.475
-0.0542 -0.205 -0.298
-0.0379 -0.368 -0.0928
-0.156 -0.0680 0.000346
-0.318  0.328  0.274
-0.207 0.0191 -0.587
-0.0940 -0.187 -0.437
-0.0527 -0.0351  0.394
-0.0596 -0.336 0.0442
 0.216 -0.0407 -0.669
 0.305  0.243  0.288
-0.348 -0.0196 -0.314
 0.302 -0.0659 -0.201
-0.260 -0.112 -0.354
 0.153 -0.0663 -0.618
-0.164 -0.181 -0.472
 0.281  0.596  0.207
0.0816 -0.0901  0.265
-0.133 -0.184 -0.184
-0.318  0.675  0.563
-0.00810 -0.327 -0.668
-0.205 -0.157 -0.331
-0.0834 -0.198 -0.388
-0.182 -0.526 -0.549
 0.220 -0.452 -0.293
 0.275  0.185  0.270
 0.410  0.357  0.491
-0.0713 -0.493 0.0367
 0.187 -0.125 -0.198
0.0766 0.0394 0.0256
-0.0306 -0.425 -0.150
0.0522 -0.400  0.344
 0.106 -0.111 -0.673
 0.203 0.00781 -0.609
 0.229 -0.200 -0.279
-0.343  0.723  0.281
-0.0220 -0.325  0.110
 0.261 0.0297 -0.0438
-0.231 -0.0745 -0.441
-0.0591 -0.0971 -0.641
-0.146 0.0926 0.0824
-0.138  0.724  0.235
-0.143 0.0978 -0.746
 0.109 -0.0731 -0.732
-0.0325 -0.365 -0.0123
 0.194 -0.518  0.173
 0.113 -0.500 -0.0853
0.0778 -0.254 -0.0422
-0.256 -0.0267 -0.624
-0.199 -0.501 -0.0928
-0.268  0.352  0.556
 0.401  0.412  0.549
-0.321  0.107 -0.427
-0.315  0.150  0.354
 0.129  0.535  0.557
0.0601  0.676  0.196
 0.129  0.727  0.364
 0.178 -0.258 -0.442
 0.121 -0.556 -0.0242
0.0606 -0.0316 -0.694
 0.129 0.0928  0.113
-0.0313  0.337  0.557
-0.115 -0.556 -0.474
-0.298  0.116  0.425
-0.0770  0.459  0.557
 0.136 -0.557 -0.535
0.0296 -0.556 -0.0547
0.0694 -0.472  0.258
 0.341 -0.0224 -0.261
-0.0770 -0.556  0.281
-0.0237 -0.556  0.311
0.0144 -0.556  0.387
-0.0466 -0.556 -0.420
 0.214 -0.373 -0.260
-0.388  0.251  0.484
 0.357  0.725  0.410
 0.113 -0.556  0.212
-0.0694  0.322  0.216
-0.0832 -0.288 -0.131
-0.314 -0.00127 -0.530
 0.187  0.718  0.557
 0.133 -0.137 -0.591
-0.121 -0.159 -0.494
-0.0771  0.230  0.220
-0.113 -0.134 -0.0476
-0.130 -0.288 -0.566
0.0330 -0.197 -0.0453
-0.0144 -0.0369  0.452
-0.402  0.429  0.396
 0.218 -0.220 -0.337
 0.174 -0.556 -0.497
-0.296  0.573  0.209
 0.364  0.337  0.556
 0.165 0.0595 -0.0639
0.0714  0.107 -0.692
 0.193 -0.120 -0.537
 0.342 0.0729 -0.265
-0.268  0.119 -0.177
-0.0435 -0.112 -0.0538
 0.231 -0.173 -0.200
 0.340 0.0848 -0.352
-0.256 0.0777 -0.345
 0.365  0.695  0.561
 0.252 -0.0747 -0.398
 0.346  0.216  0.555
-0.124 -0.0665 -0.733
-0.0910 -0.161 -0.526
 0.190 -0.323 -0.426
0.0162 -0.492 -0.0750
-0.195 -0.196 -0.328
-0.0926 0.0145  0.236
-0.0299 -0.340 0.0725
-0.282 0.0320 -0.604
-0.240 0.0853 -0.436
 0.304 0.0957 -0.501
 0.122 -0.156 -0.168
 0.394  0.299  0.449
 0.204 -0.250 -0.245
-0.0458 -0.471 -0.684
-0.170 0.0181 -0.756
-0.350 0.000904 -0.399
-0.115 0.0936  0.296
 0.151 -0.500 0.0215
-0.343 -0.00808 -0.214
 0.155 -0.112 -0.563
-0.429  0.573  0.531
-0.162 -0.263 -0.493
-0.218 -0.449 -0.344
-0.296 -0.0871 -0.308
-0.0636 -0.555  0.490
0.0532 -0.134 -0.0805
-0.0732 -0.0515  0.121
 0.432  0.573  0.516
-0.268 0.0316 -0.244
0.00676 -0.556  0.486
0.0441 -0.106  0.453
-0.225 -0.0705 -0.212
0.0140 -0.188  0.363
 0.205 -0.360 -0.365
-0.162 -0.154 -0.419
 0.205 -0.551  0.147
 0.121  0.724  0.532
 0.189 -0.153 -0.423
-0.207 -0.553  0.133
 0.379  0.489  0.333
 0.100 -0.120 0.0564
-0.215 -0.493 -0.405
 0.405  0.558  0.376
0.0692  0.726  0.289
 0.410  0.420  0.430
-0.188 -0.196 -0.374
-0.0667 -0.190 -0.223
0.0623 -0.372  0.462
0.0268 -0.0895 -0.741
-0.0770 -0.238  0.144
-0.186 -0.519  0.211
 0.220 -0.556 -0.161
 0.106 -0.0886 -0.633
 0.146 -0.512  0.339
-0.396  0.567  0.281
0.00724 -0.203 -0.236
-0.150 -0.532  0.340
-0.348  0.127  0.480
-0.168 0.0853 -0.0699
-0.290  0.124  0.333
-0.279 0.0387 -0.367
-0.313  0.119 -0.253
0.0705 -0.00534  0.418
 0.335  0.277  0.321
 0.355 0.0238 -0.359
0.0780 -0.0822  0.112
 0.131 -0.334 -0.579
-0.382  0.440  0.347
-0.221  0.659  0.562
 0.425  0.474  0.509
-0.298  0.132  0.554
-0.0166 -0.173 -0.145
-0.207  0.717  0.204
 0.222 0.0231 -0.701
 0.325  0.119  0.538
-0.0929 -0.237 -0.604
-0.290  0.619  0.557
0.0372  0.245  0.220
-0.164 -0.147 -0.517
0.0599 -0.116  0.148
0.0621 -0.449 -0.672
0.0358 -0.164  0.104
-0.0828 -0.250 0.0520
 0.132 -0.388 -0.593
 0.389  0.671  0.292
0.0208 -0.311  0.365
 0.181 -0.0676 -0.681
 0.168 -0.549  0.293
-0.447  0.709  0.517
 0.371  0.581  0.303
-0.137 -0.102 -0.664
-0.268  0.443  0.557
 0.418  0.425  0.476
-0.177 0.0459 -0.0563
-0.0859 -0.549 -0.679
0.0144  0.596  0.557
 0.174  0.474  0.210
 0.281  0.726  0.258
-0.121 0.0754 -0.769
-0.0999  0.727  0.402
 0.167  0.116  0.509
-0.0847  0.314  0.557
-0.153 -0.556  0.105
 0.311  0.291  0.557
-0.000865  0.565  0.207
0.0601 -0.556 -0.207
-0.0466  0.405  0.557
-0.0389  0.580  0.557
-0.0618 -0.556 -0.0699
0.0601 -0.556  0.121
-0.0313 -0.556  0.364
-0.0161  0.119  0.128
0.0753  0.565  0.207
-0.0770 -0.556 0.0901
0.0830 -0.556  0.265
-0.0466 -0.556  0.227
-0.0618  0.177  0.557
-0.000855 -0.556 0.0444
-0.283  0.558  0.556
-0.367  0.626  0.556
-0.161  0.116  0.425
-0.0237 -0.556 -0.360
0.0981 -0.500  0.174
-0.0923 -0.556 -0.177
 0.395  0.290  0.528
 0.251  0.117  0.532
0.0998 -0.339 -0.170
 0.197  0.116  0.281
-0.269 0.0327 -0.435
-0.389  0.721  0.342
-0.0466  0.382  0.214
 0.130 -0.189 -0.545
-0.292 -0.0688 -0.455
0.0448 -0.227  0.388
 0.296  0.727  0.334
-0.191  0.230  0.220
 0.121 -0.556  0.121
-0.226 -0.494 -0.268
-0.304  0.106 -0.132
-0.397  0.672  0.562
-0.321  0.215  0.557
 0.265 -0.0813 -0.496
0.0503 -0.465 -0.00538
-0.395  0.382  0.395
-0.0881 -0.0328 -0.677
 0.167 0.0953  0.319
 0.196 0.0718 -0.708
-0.305  0.727  0.349
-0.0414 -0.294  0.385
-0.253  0.204  0.234
 0.150 -0.122 -0.133
 0.263 0.0304 -0.638
0.0732 -0.160  0.138
-0.359  0.394  0.317
0.0802 -0.235  0.120
 0.313  0.375  0.255
 0.197 -0.395 -0.438
-0.167 -0.0784 -0.678
-0.169  0.119 -0.641
-0.0845 -0.0827 0.0131
-0.428  0.600  0.445
-0.0762 -0.326 -0.154
-0.0756 -0.249 -0.00852
 0.418  0.588  0.408
 0.224 0.0777 -0.483
-0.0988 -0.138 -0.565
0.0220  0.682  0.196
 0.225 0.0540 -0.00654
 0.259 0.0803 -0.615
 0.123 -0.101 -0.0754
-0.386  0.277  0.434
 0.174  0.119  0.212
 0.335  0.717  0.228
 0.169 -0.0298 -0.733
0.0857 -0.226 -0.0881
0.0962 0.0974  0.485
-0.0717 -0.372 -0.161
-0.319  0.119 -0.374
 0.296  0.120 -0.260
0.0604 -0.0480  0.381
-0.146 -0.0586 -0.618
-0.123 -0.214 -0.559
0.0672 -0.355 -0.108
-0.0572 0.0601 -0.00882
-0.0690 0.0928  0.449
-0.0161  0.727  0.471
-0.351  0.725  0.403
-0.0763 -0.0595  0.204
0.0892 0.00157  0.334
0.0547 -0.254 -0.641
-0.222 -0.0157 -0.0111
0.0117 -0.334  0.273
 0.268 -0.107 -0.351
 0.212 -0.502 -0.146
0.0683 -0.120 -0.681
 0.129  0.337  0.556
0.0677  0.390  0.557
-0.000873 -0.556 -0.268
-0.153 0.0957  0.357
-0.270 -0.0994 -0.395
 0.228  0.726  0.501
-0.117 -0.540  0.421
0.0753  0.276  0.556
-0.0847  0.727  0.463
 0.121  0.603  0.206
-0.00848 -0.556 -0.519
-0.161 -0.556 -0.0928
-0.0466 -0.556 0.0596
 0.144 0.0939  0.189
 0.182  0.727  0.440
-0.0237  0.119  0.189
-0.275  0.520  0.557
 0.357  0.474  0.557
 0.220  0.382  0.557
 0.121 -0.556  0.296
 0.212  0.727  0.364
-0.191 -0.556 -0.0394
-0.229  0.727  0.433
-0.161  0.727  0.463
 0.205  0.725  0.250
 0.190 -0.556 0.0139
 0.144  0.120 0.0367
-0.0313 -0.556 0.00626
-0.0847  0.588  0.557
-0.0923 -0.556 -0.0318
-0.237  0.512  0.557
-0.00848  0.489  0.209
 0.174  0.291  0.557
0.0982  0.727  0.448
 0.190 -0.556 -0.344
-0.138 -0.556 -0.222
-0.0370 -0.296  0.498
-0.0770 -0.556  0.136
0.0144 -0.556 -0.550
0.00676  0.421  0.212
-0.268  0.120 -0.497
 0.120 -0.191 -0.337
0.0601 -0.556 0.0672
-0.0795 -0.151  0.182
 0.197  0.520  0.557
-0.130  0.504  0.209
-0.243 -0.0722 -0.331
 0.434  0.642  0.471
-0.176  0.116  0.463
 0.267 -0.0389 -0.268
-0.176  0.520  0.557
 0.143 0.0605 -0.761
-0.413  0.375  0.524
 0.210 -0.510 0.0598
-0.191  0.120 -0.0242
-0.0151 -0.159 0.0519
-0.158 -0.0245 -0.630
0.0379 -0.174 -0.149
0.0832 -0.262 0.0385
 0.182  0.116  0.402
-0.426  0.466  0.502
-0.282 -0.00761 -0.597
0.0595 -0.196  0.212
0.0102 -0.521  0.510
 0.119 0.0853 -0.654
0.0608 -0.438  0.187
 0.379  0.315  0.389
 0.255 -0.0538 -0.444
-0.111 0.0400 0.00328
-0.162 -0.0604 -0.711
 0.359  0.647  0.269
-0.212  0.141  0.226
 0.243 -0.0829 -0.264
0.0635 -0.443  0.128
-0.0829 -0.167 -0.617
0.0585 -0.342  0.404
-0.199  0.116  0.364
 0.224 -0.210 -0.208
-0.352 0.0435 -0.351
-0.0217 -0.473 -0.0296
-0.248 0.0306 -0.662
-0.00112 0.0390 0.0390
-0.216 -0.0544 -0.652
-0.152 -0.166 -0.379
 0.252  0.727  0.289
-0.418  0.617  0.320
 0.140 -0.154 -0.499
 0.178 0.00695 0.0235
0.0401 -0.372 -0.150
-0.0491 -0.240 -0.642
-0.0365 -0.406 0.0749
-0.0977  0.726  0.259
 0.121 -0.517 -0.641
-0.433  0.611  0.524
-0.192 -0.257 -0.374
-0.176  0.119 0.0977
0.0703 0.0419 -0.803
-0.332 0.00932 -0.155
-0.175 -0.150 -0.308
 0.122 -0.0231 -0.670
 0.297 0.00119 -0.0979
-0.0870 -0.0234 -0.00190
0.0513 -0.418  0.268
-0.0870 0.0904  0.179
-0.204 -0.132 -0.466
-0.318  0.192  0.335
 0.217 -0.471 -0.367
-0.365  0.502  0.303
-0.298  0.708  0.201
 0.228 -0.519 -0.208
 0.190 -0.556 -0.222
-0.0852 -0.0719 -0.747
0.0876 0.0472  0.243
 0.274 -0.0741 -0.136
0.0880 -0.0566 -0.762
 0.264  0.106 -0.585
-0.104 0.0751 -0.669
-0.0616 -0.436  0.300
-0.0133 -0.303  0.265
0.0138 -0.0406 0.0114
-0.260  0.581  0.207
-0.0217 -0.256  0.202
 0.343 -0.0244 -0.336
-0.0306 0.0263  0.445
-0.141 -0.112 -0.121
-0.182 -0.153 -0.161
 0.341  0.129  0.437
-0.129 -0.501  0.334
-0.199  0.116  0.265
-0.155 -0.510  0.310
 0.273  0.421  0.214
 0.130 0.0393 -0.685
0.0982 0.0931  0.143
0.0514 -0.182 -0.510
-0.191  0.116  0.524
 0.204 -0.456 -0.438
 0.116 -0.437 -0.169
 0.338 0.0383 -0.442
-0.221 0.0967 -0.665
 0.304  0.702  0.562
-0.341  0.366  0.296
 0.341  0.405  0.287
-0.426  0.686  0.381
-0.346  0.263  0.345
0.0547 -0.373  0.381
-0.133 -0.143 -0.168
 0.264 -0.0112 -0.471
 0.205 -0.0589 -0.0317
-0.312 -0.0363 -0.475
 0.335 -0.0216 -0.219
-0.312 0.0395 -0.106
-0.117 -0.341 -0.600
-0.123 -0.500 -0.635
-0.0392 0.0986  0.486
-0.123 -0.108 -0.588
 0.296  0.520  0.214
 0.258  0.352  0.216
 0.207 -0.210 -0.155
-0.273  0.375  0.217
 0.185 0.0227 -0.636
0.0778 -0.271  0.111
0.0598 -0.499 -0.0395
-0.208 -0.548 -0.480
 0.186 -0.436 -0.183
 0.148 -0.312 -0.541
 0.190  0.126  0.552
 0.159 -0.152 -0.214
 0.394  0.459  0.371
0.0711 -0.196 -0.444
-0.0160 -0.149  0.303
 0.219 -0.106 -0.233
 0.210 -0.334 -0.230
-0.171 -0.0603 -0.590
-0.296 -0.0799 -0.377
0.0905 -0.500 0.0977
-0.0337 -0.401  0.265
0.00736 -0.168 -0.550
 0.187 -0.205 -0.118
 0.197  0.119 -0.641
 0.129  0.291  0.218
0.00350 -0.248  0.244
-0.00835  0.119 -0.777
0.0695 -0.348 -0.0361
-0.0834 -0.456 -0.159
-0.160 -0.0112 -0.0501
 0.219 -0.144 -0.351
 0.434  0.694  0.421
 0.319  0.634  0.557
0.0114 -0.372  0.105
-0.313  0.364  0.257
-0.0379 -0.182 -0.646
-0.412  0.555  0.393
0.0769 -0.0392 0.0807
-0.394  0.497  0.555
-0.0542 -0.556  0.456
0.0852 -0.296 0.00626
 0.167 0.0931  0.105
-0.345  0.515  0.271
-0.382  0.588  0.557
 0.216 -0.403 -0.215
-0.197 -0.125 -0.512
 0.289 0.0270 -0.389
-0.146  0.120  0.197
-0.117 -0.186 -0.360
-0.147 0.00213 -0.651
-0.0673 0.0183  0.431
-0.0227 -0.372  0.505
-0.239 -0.121 -0.179
 0.303 -0.0354 -0.137
-0.201 0.0893 0.0214
-0.337  0.681  0.211
-0.216  0.102 0.0885
 0.181 -0.00534 -0.0559
0.0427 -0.149  0.349
0.0298 0.0929 -0.704
-0.0193 -0.401 0.0374
 0.395  0.603  0.347
 0.121  0.120  0.143
 0.260 0.0567 -0.283
 0.305 0.0614 -0.531
-0.109 -0.153 -0.598
 0.144 -0.529 -0.618
0.0302 0.0151 -0.716
-0.242 -0.00770 -0.183
-0.0175 -0.393  0.182
-0.172 -0.0699 -0.106
0.0927 0.0646 0.0673
-0.144 0.0775 0.0476
-0.0693 -0.0570  0.338
-0.0742  0.453  0.211
-0.226 0.000242 -0.544
0.0529 -0.424 0.0725
-0.226 -0.518 -0.0778
-0.421  0.508  0.437
0.0413 -0.190 -0.195
0.0889 -0.342 -0.632
 0.351  0.160  0.542
0.0904 -0.300 -0.620
-0.0359 0.0196 0.0306
-0.0544 -0.423  0.235
0.0873 -0.0133  0.288
 0.402  0.652  0.327
-0.209 -0.327 -0.291
 0.135  0.446  0.211
 0.229  0.115 -0.479
-0.0999 -0.500  0.204
 0.227 -0.524 -0.0770
 0.419  0.671  0.358
-0.361  0.156  0.494
 0.386  0.353  0.389
0.0678 -0.206 -0.382
-0.254 -0.0362 -0.265
