ply
format ascii 1.0
element vertex 2048
property float x
property float y
property float z
end_header
-0.668 0.0493 -0.218
 0.947 -0.225  0.208
 0.245  0.228 -0.216
-0.141 -0.217  0.216
 0.892  0.225 -0.217
-0.951 -0.221  0.216
 0.401 -0.0863  0.216
-0.436  0.228  0.215
 0.646 -0.225 -0.214
-0.183 -0.00808 -0.218
0.0406  0.229  0.212
-0.945  0.230  0.125
 0.738  0.228  0.215
 0.192 -0.225 -0.147
-0.543 -0.225 0.0778
-0.930 -0.276 -0.195
 0.422  0.230 0.0778
 0.568  0.107 -0.218
 0.949 -0.0915 -0.105
-0.402  0.230 -0.126
-0.951  0.213 -0.217
-0.423 -0.221 -0.218
-0.684 0.0232  0.216
-0.0372  0.230 -0.0891
 0.656 -0.225  0.125
-0.952 -0.0394 -0.0161
 0.104 -0.0550  0.216
-0.663  0.230 0.00996
-0.199 0.0701  0.216
-0.0789 -0.225 -0.0631
 0.949 0.0597  0.146
 0.432 -0.225 -0.0213
0.0828 0.0180 -0.218
-0.679 -0.225 -0.147
 0.344 -0.0237 -0.218
 0.698  0.230 -0.0318
-0.444 -0.0446  0.216
 0.698 -0.00809  0.216
-0.314 -0.225 0.00995
 0.255  0.128  0.216
-0.924 0.0128  0.216
-0.230  0.230 0.0464
-0.428 0.0128 -0.218
 0.239 -0.225  0.109
 0.761 -0.0185 -0.218
 0.166  0.230 0.0152
-0.767 -0.225 0.0621
 0.938  0.230 0.00996
-0.872 -0.0342 -0.218
-0.209  0.206 -0.218
-0.749  0.228  0.215
 0.893 -0.276 -0.195
 0.531  0.117  0.216
 0.823 -0.225 -0.00569
-0.220 -0.211 -0.218
-0.585  0.230 -0.209
-0.340 -0.225  0.208
0.0410 -0.225  0.119
 0.437 -0.221 -0.218
0.0202 -0.165 -0.218
-0.856  0.230 -0.0526
-0.668 -0.165  0.216
-0.949 -0.225 0.00474
 0.422  0.230 -0.157
 0.941  0.228  0.215
 0.709  0.228 -0.216
 0.536 -0.0707 -0.218
-0.486  0.230 0.0360
 0.950 0.0962 -0.110
 0.949 -0.107 0.0778
-0.778  0.185 -0.228
-0.136  0.230  0.203
0.0567  0.187 -0.227
 0.787 -0.154  0.216
 0.594  0.230  0.104
 0.510 -0.225  0.213
-0.580 -0.107 -0.218
-0.0685 -0.0342  0.216
 0.610 -0.225 -0.0526
-0.580  0.148  0.216
-0.267 -0.0759  0.216
-0.527 -0.225 -0.0944
-0.0528  0.230 0.0673
-0.952 0.0702 -0.126
0.0723 -0.225 -0.0318
-0.355 0.0962  0.216
 0.203 -0.0846 -0.221
-0.0789  0.117 -0.218
-0.820 -0.144  0.216
 0.552 -0.0655  0.216
 0.255 -0.0342  0.216
 0.578  0.230 -0.126
 0.302  0.230 -0.0631
-0.314 -0.0863 -0.218
 0.787 -0.170 -0.218
-0.952 -0.133 -0.136
-0.952  0.112 0.0308
 0.224 0.0702 -0.218
-0.741 -0.107 -0.218
 0.391 -0.225  0.125
 0.813 0.0858  0.216
 0.803  0.230 0.0725
 0.391  0.185  0.216
-0.288  0.230  0.182
-0.496 -0.211  0.216
 0.276  0.230  0.114
-0.178 -0.225 0.0621
-0.298 0.0806 -0.218
 0.281 -0.225 -0.0318
-0.952 -0.0915  0.119
 0.902 0.0128 -0.218
-0.840 -0.225 -0.0944
0.0567 0.0806  0.216
 0.151 -0.191  0.216
 0.891 -0.0498  0.216
-0.846  0.128  0.216
 0.370  0.117 -0.218
 0.949 0.0128 0.00995
-0.694  0.230 -0.126
-0.470  0.154 -0.218
 0.370 0.0493  0.216
-0.0476 -0.0289 -0.218
-0.783  0.230 0.0830
0.0984  0.230 -0.105
 0.950 -0.224 -0.0735
 0.818  0.230 -0.0944
 0.307 -0.170 -0.218
-0.574 -0.0707  0.216
-0.209  0.230 -0.0839
-0.0111 -0.154  0.216
-0.663 -0.225 -0.0161
 0.662  0.122  0.216
 0.740 -0.225 -0.110
 0.281 -0.165  0.216
-0.361  0.230 0.00474
 0.510  0.230 -0.0161
-0.340 -0.225 -0.120
-0.0737 0.0962  0.216
-0.642  0.230  0.140
-0.0946 -0.225 -0.199
 0.938 -0.149 -0.218
 0.698  0.101 -0.218
-0.814 -0.211 -0.218
 0.166  0.221  0.217
 0.521 -0.225 0.0673
-0.439 -0.225 0.00995
 0.463 0.0284 -0.218
 0.823  0.107 -0.218
-0.574  0.230 -0.0735
0.0671  0.230 0.0934
 0.928 -0.225 0.0569
-0.877 -0.225  0.119
-0.804 -0.00287  0.216
 0.662 -0.0863 -0.218
-0.215 -0.225 -0.0578
-0.548 0.0180 -0.218
-0.788 0.0545 -0.218
-0.329  0.206 -0.218
 0.667 -0.149  0.216
-0.564 -0.225 -0.209
-0.475 0.0910  0.216
 0.500  0.230  0.198
 0.531 -0.225 -0.147
 0.354 -0.225 -0.126
 0.947  0.230 -0.115
-0.952  0.117  0.172
 0.166 0.0441  0.216
-0.887  0.117 -0.218
 0.427 -0.107 -0.218
 0.834 -0.225  0.140
-0.0737  0.230 -0.209
-0.454 -0.0967 -0.218
 0.516  0.216 -0.218
-0.522  0.230  0.146
 0.949  0.133 0.0621
 0.933  0.122 -0.218
-0.668 -0.225  0.125
 0.135 -0.225 0.0621
-0.392 -0.225  0.109
-0.949  0.230 0.0152
 0.628  0.228  0.215
-0.126 -0.123 -0.218
-0.0476 -0.225 0.0412
-0.585  0.122 -0.218
-0.387  0.230  0.109
 0.599 0.0336  0.216
-0.241 -0.225  0.166
-0.700  0.133  0.216
-0.952  0.206 -0.0944
-0.952 0.0336  0.104
 0.688 -0.225 0.0204
-0.126  0.230 -0.0109
0.0150 -0.225 -0.131
-0.866  0.230  0.203
 0.114 -0.211 -0.218
 0.698  0.230 0.0934
-0.147 -0.112  0.216
-0.767 -0.225  0.166
 0.203  0.230 -0.105
-0.924 -0.118  0.216
 0.834  0.190  0.216
0.0880 -0.0847 -0.221
-0.0737 -0.225  0.140
 0.855 -0.225 -0.115
-0.861  0.230 -0.173
-0.199  0.101 -0.218
-0.673  0.185 -0.228
 0.297  0.221  0.217
 0.636 0.0232 -0.218
-0.554 0.0284  0.216
-0.215  0.169  0.216
0.0306  0.230 -0.0161
 0.469 0.0389  0.216
 0.161  0.174 -0.218
-0.952 -0.0289 -0.120
 0.182 -0.225 -0.0266
 0.396  0.230 -0.0318
 0.166  0.230  0.119
 0.949 -0.118  0.177
 0.797 -0.0237  0.216
0.0567 -0.224  0.216
 0.422 -0.185  0.216
-0.949 0.0389 -0.218
-0.951 -0.224 -0.103
 0.928  0.133  0.216
 0.881  0.230  0.140
-0.340 -0.0133  0.216
-0.501  0.230 -0.136
 0.849 -0.0967 -0.218
-0.952 -0.128 0.0204
 0.740 -0.225  0.172
-0.747 -0.225 -0.0631
-0.402 -0.154  0.216
-0.434 -0.225 -0.105
 0.474  0.122 -0.218
 0.949 0.00236 -0.120
-0.653 -0.170 -0.218
 0.625  0.187 -0.227
0.00974 0.0858 -0.218
-0.673 -0.0707  0.216
 0.339  0.225 -0.217
 0.604  0.230 -0.0213
-0.0476  0.230  0.172
 0.672  0.230 -0.126
-0.303  0.230 -0.131
 0.536 -0.165 -0.218
-0.919 -0.165 -0.218
-0.580 -0.225  0.177
 0.797  0.230 -0.188
-0.387  0.107 -0.218
-0.308 -0.185 -0.218
 0.615 -0.225  0.213
-0.757  0.230 -0.0578
 0.949 -0.154 -0.000475
0.0202 -0.0133  0.216
-0.136  0.230  0.104
 0.354 -0.225 0.0412
-0.136  0.230 -0.136
-0.496 -0.118  0.216
-0.194 -0.0237  0.216
 0.276  0.143 -0.218
-0.851 -0.225 -0.00569
-0.658 -0.0394 -0.218
-0.225 -0.0967 -0.218
 0.875 -0.165  0.216
-0.454  0.230 -0.0474
 0.104 -0.225 -0.126
 0.949 -0.0289  0.140
 0.443 -0.225 -0.120
 0.505  0.230  0.109
 0.891 0.0441  0.216
 0.949 0.0962 -0.0213
-0.574 -0.225 -0.0161
 0.484 -0.123  0.216
 0.119  0.143  0.216
 0.949 -0.0550 -0.188
0.0254  0.230 -0.157
-0.288 -0.225 0.0934
-0.952  0.216  0.213
-0.168 -0.225 -0.131
 0.323  0.230 0.0412
 0.124 0.0962 -0.218
-0.000704  0.154  0.216
-0.569  0.230 0.0152
 0.604 -0.225 0.0412
-0.277 -0.00286 -0.218
 0.338 -0.225  0.192
-0.277  0.230 -0.0318
 0.198 -0.170 -0.218
-0.952 0.0545 -0.0422
-0.418  0.230 -0.209
 0.578 -0.149  0.216
 0.949  0.164  0.140
 0.949 -0.0654 -0.0213
-0.215  0.230  0.140
 0.829  0.230 -0.0109
 0.552 0.0128 -0.218
 0.521 -0.225 -0.0631
 0.495  0.230 -0.115
-0.110 0.0395 -0.219
-0.952 -0.175  0.114
 0.740 -0.225 0.0882
 0.286 0.0493  0.216
-0.825 -0.107 -0.218
-0.267 -0.159  0.216
-0.724 -0.224 -0.216
0.0775 -0.144  0.216
-0.840 -0.224  0.216
-0.585  0.230  0.203
 0.297  0.230 -0.147
-0.752 -0.0967  0.216
-0.861  0.230 0.0569
-0.308  0.230 0.0725
 0.370  0.230  0.151
 0.912 -0.278  0.156
 0.949 -0.196  0.130
-0.778 -0.0342 -0.218
-0.507  0.185  0.216
 0.557 -0.225  0.140
-0.611 -0.225 -0.0891
 0.317 -0.0863  0.216
-0.621 0.0754  0.216
-0.517 -0.159 -0.218
-0.376 -0.138 -0.218
 0.250  0.230 -0.000473
-0.949 -0.0602 -0.218
-0.908 -0.278  0.177
-0.272  0.112  0.216
 0.740 -0.0811  0.216
 0.156 -0.0185 -0.218
 0.950  0.229 0.0917
-0.136  0.148  0.216
-0.621 -0.225 0.0569
-0.783 0.0754  0.216
 0.797  0.230  0.156
 0.949 -0.206 -0.162
-0.663  0.211  0.216
 0.411  0.185 -0.228
-0.376  0.174  0.216
-0.783  0.230 -0.157
 0.114  0.230 -0.183
 0.224 -0.225  0.187
-0.475 -0.225  0.140
-0.147 -0.225 -0.0161
-0.408 0.0284  0.216
 0.432  0.117  0.216
 0.208 -0.133  0.216
 0.860 -0.201 -0.218
 0.620 -0.225 -0.131
 0.469 -0.225  0.135
-0.585 -0.149  0.216
 0.740  0.133  0.216
 0.124 -0.225  0.140
 0.281 -0.0759 -0.218
-0.757 -0.225 -0.141
-0.720  0.230  0.135
 0.630 -0.0655  0.216
-0.851 -0.0655  0.216
-0.277 0.0336  0.216
-0.496  0.228 -0.216
 0.234 -0.0133 -0.218
 0.271 -0.225 -0.178
-0.381 -0.225 -0.0422
0.0462 -0.225 0.0412
-0.952 -0.107 -0.0631
-0.952  0.164 -0.0266
 0.745 -0.225 -0.0318
-0.350 0.0232 -0.218
 0.735 -0.225 -0.209
-0.157 -0.225  0.135
-0.741  0.230 0.0204
-0.952  0.164 -0.157
 0.463 -0.0446  0.216
-0.731  0.128 -0.218
-0.517 0.0910 -0.218
 0.255 -0.225 -0.105
 0.182 -0.0498  0.216
 0.829 0.0284 -0.218
 0.328  0.143  0.216
 0.229  0.230  0.177
-0.585  0.230 0.0934
 0.745  0.230 0.0256
-0.952  0.159 0.0882
-0.0268 -0.225  0.203
 0.688 -0.165 -0.218
-0.741 -0.175  0.216
 0.610 -0.154 -0.218
-0.350 -0.0863  0.216
-0.952 -0.0498 0.0569
-0.000696 -0.225 -0.0213
-0.861 0.0389 -0.218
 0.328 -0.0133  0.216
-0.952 -0.0342  0.166
 0.813 -0.225 0.0673
 0.729 0.0597  0.216
 0.656  0.230 0.0308
-0.277  0.154 -0.218
 0.364 -0.225 -0.199
 0.950  0.185 -0.183
-0.267 -0.225 -0.126
-0.0528  0.230 -0.0161
 0.949 0.0545 0.0725
-0.893 -0.226 -0.147
0.0254 -0.0289 -0.218
 0.683  0.230  0.166
-0.778  0.154  0.216
 0.875  0.230 -0.147
 0.364 -0.225 -0.0474
-0.131 0.0441  0.216
-0.0581 -0.149 -0.218
 0.750  0.230 -0.120
 0.761 -0.102 -0.218
-0.460  0.230  0.109
-0.147  0.169 -0.218
-0.517 -0.0602 -0.218
 0.949  0.180 -0.0631
 0.949 0.0493 -0.178
 0.886  0.230 -0.0526
 0.756 0.0597 -0.218
-0.0894 -0.154  0.216
0.00973 -0.0863  0.216
-0.230  0.230 -0.152
-0.809  0.230  0.161
 0.291 0.0284 -0.218
-0.0216 -0.221 -0.218
-0.481 -0.225 -0.157
 0.745  0.154 -0.218
-0.230 -0.225 0.0152
 0.354 -0.118 -0.218
-0.647  0.230 -0.178
0.0984  0.230  0.156
 0.594  0.148  0.216
-0.0216  0.187 -0.227
-0.809  0.230 0.00474
-0.408 -0.225  0.192
-0.345  0.230 -0.0631
 0.448 -0.0394 -0.218
-0.110 -0.225 0.0778
-0.952 -0.175 -0.0474
 0.950 0.00757  0.208
 0.130 -0.144 -0.218
-0.929 -0.225 0.0725
-0.952  0.101 -0.188
-0.870  0.183 -0.227
 0.187  0.154  0.216
-0.0529 -0.225 -0.141
-0.673  0.230 0.0778
 0.844 -0.225  0.213
 0.891 -0.225 -0.0109
 0.182  0.230 -0.178
 0.349 -0.159  0.216
 0.375 0.0493 -0.218
-0.392 -0.0446 -0.218
 0.244 -0.225 0.0256
-0.700 -0.225 0.0412
-0.491 -0.225 -0.0370
 0.949 -0.0342 0.0725
-0.308 -0.225 -0.0578
-0.0372 0.0389  0.216
 0.109  0.230 -0.0214
-0.517 -0.0289  0.216
-0.642  0.230 -0.0787
-0.308  0.169  0.216
-0.866  0.230  0.125
 0.505 -0.225 -0.209
 0.599 -0.0446 -0.218
 0.323 -0.225  0.125
 0.568  0.230 0.0412
-0.0633  0.180  0.216
-0.898 0.0754  0.216
 0.401 -0.0185  0.216
-0.121 -0.0342 -0.218
-0.00591 -0.102 -0.218
-0.689 -0.225  0.198
0.0984 0.0284  0.216
0.0150  0.230 0.0517
0.00452  0.230  0.130
 0.949 -0.165 -0.110
 0.950 0.0441 -0.0683
 0.886  0.230 0.0725
 0.552  0.230  0.156
-0.952  0.117 -0.0787
-0.538  0.169 -0.218
-0.355 -0.225 -0.193
 0.458 -0.225 0.0465
-0.204 -0.196  0.216
-0.715  0.230 -0.188
-0.893 -0.225 -0.214
 0.427  0.230 -0.0891
 0.479  0.230 0.0412
-0.846 -0.225 0.0621
 0.620  0.230 -0.178
 0.536 0.0493  0.216
-0.952 0.0493  0.166
-0.673 -0.102 -0.218
-0.653  0.112 -0.218
 0.437  0.230  0.140
-0.825  0.138 -0.218
 0.886 0.0754 -0.218
-0.454 -0.225 0.0725
-0.736 -0.0342  0.216
0.0428 -0.224 -0.216
-0.423  0.128  0.216
 0.808  0.174 -0.218
 0.698 -0.0342 -0.218
-0.783 -0.225 -0.0109
-0.162 -0.175 -0.218
-0.720 0.0128 -0.218
-0.952 -0.201 -0.178
 0.568 -0.225 -0.199
 0.803 -0.0915  0.216
-0.952 0.0441 0.0412
-0.397  0.169 -0.218
-0.303 -0.225  0.156
-0.470 0.0180  0.216
 0.474 -0.154 -0.218
 0.354  0.230 -0.120
 0.156 -0.225 -0.0839
-0.830  0.230 -0.110
 0.797 -0.225 -0.141
-0.512  0.230 -0.0213
-0.898 -0.175  0.216
-0.0685  0.230 -0.147
-0.199  0.230  0.208
-0.340 -0.149  0.216
 0.677 -0.225  0.208
-0.590 -0.0289 -0.218
-0.235 0.0441 -0.218
0.0254  0.230 -0.0839
 0.484  0.159  0.216
-0.272  0.230 -0.199
-0.621 -0.0289  0.216
 0.636  0.107 -0.218
-0.606 0.0441 -0.218
-0.945  0.230 -0.152
-0.0476 0.0395 -0.219
 0.698 0.0284 -0.218
-0.131 -0.0185  0.216
 0.203  0.230 -0.0422
-0.887 -0.107 -0.218
 0.698  0.180  0.216
-0.340  0.225  0.216
-0.277 -0.221  0.217
-0.486 -0.217 -0.218
 0.168 0.0464 -0.227
-0.428  0.230 0.0152
 0.677 -0.225 -0.152
-0.952 -0.149  0.172
-0.632 -0.225 -0.204
-0.522 -0.225 0.0204
-0.434 -0.159 -0.218
 0.656 0.0545  0.216
 0.949  0.164 -0.126
 0.950 -0.0655  0.213
 0.880  0.229  0.212
-0.940 -0.225  0.156
-0.460 0.0649 -0.218
0.0671  0.174  0.216
-0.168  0.230 0.0517
 0.317 0.0858 -0.218
-0.256 -0.154 -0.218
 0.526  0.154 -0.218
 0.124 -0.225 -0.000478
-0.345 -0.225 0.0621
 0.928 -0.217 -0.218
 0.244 -0.128 -0.218
-0.919  0.230 -0.0370
 0.573  0.206  0.216
 0.442  0.229  0.212
 0.740  0.230  0.140
-0.952  0.101  0.104
 0.505 -0.225 -0.00569
-0.0268 -0.225  0.104
 0.203 0.0910  0.216
-0.747 0.0284  0.216
 0.458  0.230 -0.204
-0.851 -0.165 -0.218
-0.778 -0.165 -0.218
-0.814 -0.225  0.130
 0.808 -0.225 -0.0631
-0.866 -0.00809  0.216
-0.194  0.230 -0.0265
-0.913  0.133  0.216
 0.557  0.230 -0.0578
 0.771  0.230 -0.0578
-0.136  0.101 -0.218
-0.152  0.230 -0.193
 0.281 -0.224  0.216
 0.949 -0.165 0.0621
-0.689 -0.225 -0.0787
 0.860 -0.107  0.216
 0.950  0.226  0.151
 0.171 -0.225 -0.214
-0.627 -0.107  0.216
0.0306 -0.225 -0.0735
-0.952 0.0128 -0.162
 0.208  0.230 0.0778
 0.203  0.133 -0.218
-0.819  0.225 -0.217
-0.606 -0.225  0.125
 0.224 0.0336  0.216
 0.526 0.0649 -0.218
-0.126  0.230 -0.0787
 0.823 -0.0446 -0.218
 0.949 -0.118 -0.0474
0.0671 0.0754 -0.218
0.0775  0.230 0.0360
 0.333  0.230 0.0986
 0.949  0.169 -0.00569
-0.913 -0.0602  0.216
 0.526 -0.0133  0.216
 0.297 -0.225 0.0517
-0.0789 -0.0915  0.216
 0.265  0.230 0.0569
 0.688 -0.225 -0.0839
 0.182 -0.225 0.0986
-0.277  0.230  0.125
-0.527  0.122  0.216
-0.614  0.183 -0.227
-0.621 -0.221  0.217
-0.230 -0.225 0.0882
 0.145 -0.133  0.216
-0.595 -0.165 -0.218
 0.870  0.138  0.216
 0.250 -0.0915  0.216
-0.0841 -0.225  0.208
-0.199 -0.0811  0.216
-0.726 0.0702 -0.218
-0.952 -0.112 -0.193
-0.272 -0.225 -0.183
-0.637  0.143  0.216
 0.239  0.230 -0.152
-0.0894  0.174 -0.218
 0.145 -0.0865 -0.224
-0.000704 0.0962  0.216
 0.950 -0.224 -0.0161
 0.594 0.0910  0.216
-0.204 -0.139  0.216
 0.729 -0.191  0.216
-0.814  0.211  0.216
 0.883 -0.226  0.171
-0.0841 -0.0847 -0.221
 0.103  0.229  0.212
 0.573 -0.225 -0.00569
-0.491 0.0180 -0.218
 0.949 -0.0342 -0.0683
 0.886  0.169 -0.218
 0.521 -0.170  0.216
 0.135  0.230 0.0725
 0.432 0.0754 -0.218
-0.835 0.0441  0.216
-0.157 -0.225 -0.193
 0.912 -0.225 -0.115
 0.677  0.154 -0.218
-0.679 0.0806  0.216
-0.131 -0.225 -0.0839
 0.328  0.164 -0.218
 0.949 -0.118 -0.173
 0.834 0.0336  0.216
 0.933 -0.154  0.216
-0.919 -0.225 -0.0422
-0.444 -0.191  0.216
-0.533 -0.170  0.216
-0.543 -0.225  0.135
-0.684  0.230 -0.0422
-0.898  0.230 -0.0891
 0.771 -0.225 0.0308
-0.0946  0.230  0.140
-0.0841 -0.225 -0.000478
-0.952 -0.00286 -0.0578
-0.952 -0.128 0.0778
 0.589 0.0545 -0.218
-0.345  0.143 -0.218
-0.952  0.185  0.156
-0.892 -0.228  0.199
-0.952 -0.0915  0.177
 0.949  0.228 -0.217
 0.171 -0.225  0.172
0.0306 0.0336 -0.218
-0.444 -0.102  0.216
 0.317  0.230  0.166
 0.411 -0.159 -0.218
-0.334  0.230  0.125
-0.334 -0.0289 -0.218
 0.396 -0.0550 -0.218
-0.705 -0.154 -0.218
-0.418 -0.225 -0.157
 0.870 -0.225 -0.0631
 0.239 -0.206 -0.218
0.0984  0.154 -0.218
 0.625  0.230  0.161
0.0258  0.229 -0.213
 0.797  0.229  0.212
-0.585 -0.225 -0.136
 0.886 -0.233 -0.162
 0.443  0.230 -0.00569
 0.317 -0.225 -0.0735
 0.250  0.230 -0.0787
-0.0163  0.133 -0.218
 0.651 -0.225 0.0673
-0.512  0.230 0.0830
 0.808  0.143  0.216
 0.375  0.117  0.216
-0.600  0.230 -0.120
 0.391  0.230 -0.204
-0.345  0.230 -0.173
 0.949 0.0858  0.203
 0.469  0.181 -0.223
-0.387 -0.225 0.0204
 0.422 0.0649  0.216
 0.709 -0.112 -0.218
-0.169 0.0432 -0.221
 0.385  0.230 0.0204
-0.924 -0.00808 -0.218
-0.757 -0.225  0.114
 0.787 -0.225 -0.193
 0.949 -0.0811  0.130
 0.949  0.107 -0.162
 0.750  0.230 0.0830
-0.115  0.230 0.0413
-0.731  0.230 0.0725
 0.500 -0.0289 -0.218
-0.835 0.0858 -0.218
-0.952 -0.0811 -0.147
 0.907 -0.0654 -0.218
-0.799 -0.0602  0.216
-0.731 0.0858  0.216
-0.0116  0.225  0.216
-0.952 -0.0550 -0.0683
 0.844 -0.149 -0.218
-0.517  0.230 -0.0735
-0.952  0.164 0.0360
 0.782 0.0389  0.216
-0.908  0.185  0.216
-0.392 -0.0498  0.216
 0.500  0.230 -0.167
-0.392  0.230  0.161
 0.912 -0.102  0.216
-0.533  0.230  0.198
 0.385 -0.224  0.216
 0.563 -0.225  0.208
 0.349  0.221  0.217
 0.495 -0.102 -0.218
 0.333  0.230 -0.0213
-0.700 -0.123  0.216
 0.536 -0.118  0.216
-0.752  0.230 -0.115
 0.949 0.0180  0.114
-0.261 -0.225 -0.0266
 0.312 -0.225 -0.209
 0.417 -0.225 0.0778
 0.949 0.0649 0.0204
-0.235 -0.0342 -0.218
 0.124 0.0754  0.216
 0.224 -0.225 -0.0578
-0.183 -0.0602 -0.218
-0.126 0.0962  0.216
 0.950  0.195 0.0517
 0.912 -0.225  0.109
-0.892 -0.277 -0.155
-0.778 -0.217  0.216
-0.835 -0.225 -0.173
-0.908  0.230 0.0882
-0.952 -0.170 -0.0996
-0.251  0.206  0.216
-0.898  0.230 -0.209
 0.479 -0.225 -0.157
 0.432 -0.225  0.172
 0.641  0.230 -0.0578
 0.323 0.0858  0.216
 0.949 -0.144  0.114
0.0671  0.230 -0.0526
 0.406 -0.225 -0.0839
 0.949 -0.175 -0.0578
-0.934  0.164 -0.218
-0.720 -0.0602 -0.218
 0.865  0.230 0.0256
 0.949  0.117  0.119
 0.354  0.230 -0.0683
 0.276 -0.225  0.146
0.0463  0.122 -0.218
-0.0320 -0.225 -0.0944
-0.277  0.230 0.0256
 0.949 0.00236 -0.199
-0.804 -0.225 -0.0578
-0.470  0.148  0.216
-0.183  0.128  0.216
 0.396 -0.139  0.216
 0.573  0.174 -0.218
 0.218  0.181 -0.223
 0.213  0.201  0.216
0.0828 -0.0342 -0.218
 0.657  0.225 -0.217
 0.943  0.230 -0.0578
0.0984 -0.196  0.216
 0.950  0.178  0.215
-0.204 -0.225 -0.173
-0.694  0.230  0.182
-0.460  0.230  0.172
-0.903 0.0702 -0.218
-0.951 0.0545  0.216
-0.0216  0.230 -0.173
 0.391 0.00236 -0.218
 0.950 -0.180  0.177
 0.683 -0.102  0.216
 0.469 -0.170  0.216
-0.000696 -0.225 0.0569
 0.929 -0.264 -0.162
 0.745 -0.0237  0.216
-0.616  0.230 0.0308
-0.444 -0.225 -0.0526
-0.361 0.0441  0.216
-0.251 0.0962 -0.218
 0.646 -0.0289 -0.218
 0.156  0.230 -0.0578
-0.408  0.230 -0.0318
-0.627  0.230 -0.0318
-0.627 -0.123 -0.218
 0.406 -0.225 0.0204
-0.952 -0.0394 -0.173
-0.705  0.185  0.216
 0.156  0.230 -0.136
 0.599 -0.225  0.114
 0.860 -0.00809  0.216
-0.872 -0.133  0.216
 0.177 -0.225 0.0360
-0.314 0.0701  0.216
0.0463 -0.123 -0.218
 0.495 0.0806  0.216
0.0619 -0.225 -0.152
 0.568 -0.225 -0.0787
0.0515 -0.0602  0.216
-0.952 -0.170 0.0465
-0.804 0.00757 -0.218
-0.715 -0.225  0.156
-0.387  0.230 0.0465
 0.636  0.180  0.216
-0.460  0.230 -0.183
 0.834  0.216 -0.218
 0.396  0.230  0.198
 0.151  0.230  0.172
-0.527 -0.107 -0.218
 0.218  0.230  0.125
-0.559 0.0858  0.216
-0.0789 0.0128  0.216
0.0306 0.0336  0.216
 0.771  0.174  0.216
 0.949  0.128  0.172
-0.512 -0.225  0.172
0.0775  0.230 -0.152
-0.126 -0.225 -0.157
-0.194 -0.138 -0.218
-0.715 -0.225 -0.0266
 0.359 -0.0498  0.216
-0.621 -0.0707 -0.218
0.0254 -0.185  0.216
-0.952 -0.0185 0.0934
-0.115 -0.185 -0.218
-0.444  0.230 -0.0944
-0.418 0.0754  0.216
 0.130 -0.00809  0.216
 0.474 -0.225 -0.0526
 0.860 -0.225 0.0778
-0.543 -0.107  0.216
 0.703  0.230 -0.0891
 0.776 -0.201  0.216
-0.595  0.230  0.156
-0.434  0.117 -0.218
 0.740 -0.144  0.216
-0.355  0.230 -0.110
-0.220  0.159 -0.218
-0.705 -0.225 0.0934
0.0880 -0.225 0.0725
0.0828 -0.154 -0.218
 0.458  0.230 -0.0526
-0.366 -0.0915 -0.218
0.00452 -0.225  0.166
-0.720  0.191 -0.220
-0.945 -0.165  0.216
 0.896 -0.221  0.217
-0.554 -0.221  0.217
-0.439 -0.0394 -0.218
 0.349  0.230 -0.167
-0.952  0.122 -0.126
 0.761  0.107 -0.218
-0.298  0.230 -0.0839
 0.156  0.225 -0.217
 0.902 -0.112 -0.218
 0.693 -0.225 -0.0266
 0.703 -0.225  0.130
-0.569 -0.225 0.0308
-0.220 -0.225 -0.105
 0.359 -0.225 0.0882
-0.569 -0.0237  0.216
-0.616 0.0284  0.216
 0.949 -0.102 0.0308
 0.651  0.230 0.0778
-0.136 -0.170  0.216
 0.782  0.230 -0.00569
-0.762  0.230  0.166
-0.538 -0.225 -0.141
-0.632 -0.225 -0.152
 0.427  0.128 -0.218
-0.340 -0.225  0.109
-0.919  0.230  0.182
-0.952  0.169  0.208
 0.291  0.230 -0.209
 0.297 -0.0237 -0.218
0.0515  0.230  0.166
 0.947 -0.0915 -0.218
-0.0742  0.225  0.216
-0.679 -0.211 -0.218
-0.825 -0.0602 -0.218
 0.124 -0.225 -0.0474
 0.886  0.230 -0.0996
 0.625  0.230 -0.126
-0.778  0.128 -0.218
 0.886  0.122 -0.218
-0.856  0.230 0.00474
 0.599  0.230 -0.0839
-0.188  0.230 -0.126
 0.510 -0.225  0.114
 0.573 -0.0237  0.216
-0.522 -0.225 -0.188
-0.355 -0.180 -0.218
-0.308 -0.0550  0.216
-0.0789  0.230 -0.0683
 0.703  0.101  0.216
-0.0320 -0.107  0.216
-0.121 -0.0707  0.216
 0.949  0.117 -0.0631
 0.886 -0.225 0.0360
-0.616 -0.225 -0.0370
-0.496 -0.225 0.0934
-0.288 -0.118  0.216
 0.432  0.164  0.216
 0.677  0.221  0.216
-0.361 -0.225  0.166
 0.740 -0.180 -0.218
 0.615 -0.225  0.166
 0.950  0.226 -0.162
-0.903  0.230 0.0204
 0.735  0.230 -0.178
0.0728  0.228 -0.216
-0.486  0.225  0.216
 0.417 -0.225 -0.178
-0.851 -0.180  0.216
-0.162  0.185  0.216
 0.776 -0.225  0.146
-0.241  0.230  0.177
-0.481 -0.165  0.216
 0.359 -0.112  0.216
-0.188  0.230  0.104
 0.583 -0.118 -0.218
-0.0894 -0.225 -0.115
-0.251 -0.00287  0.216
-0.00591  0.230 0.00996
-0.267 -0.225 0.0412
-0.627 -0.00286 -0.218
 0.297  0.230 0.00474
-0.940 -0.225 -0.214
 0.338 0.0232 -0.218
-0.611 -0.225 0.00995
 0.834 -0.0498  0.216
 0.213  0.230 0.0256
-0.361 0.0702 -0.218
-0.952 0.0806 -0.00569
-0.0476  0.133  0.216
 0.888 -0.268  0.193
 0.271  0.185  0.216
-0.261 -0.0707 -0.218
-0.402 0.0493 -0.218
-0.501 0.0545  0.216
-0.303 0.0336 -0.218
 0.834 -0.225 -0.167
-0.308 -0.225 -0.157
-0.329 -0.144 -0.218
 0.709  0.185 -0.228
-0.952  0.143  0.130
-0.277 -0.112 -0.218
-0.168 -0.102 -0.218
-0.178 0.0180  0.216
-0.543  0.230 -0.120
-0.668 -0.0185  0.216
0.0880 -0.0967  0.216
 0.949 0.0128 0.0569
-0.413 -0.112 -0.218
-0.952 0.0389 -0.0839
 0.928 0.0597 -0.218
 0.703  0.230 0.0412
-0.251  0.230 -0.0996
0.0567 -0.225  0.161
 0.521  0.230 0.0569
0.0880 -0.225 0.0256
-0.481 -0.225 0.0360
0.0775  0.128  0.216
-0.486 -0.225 -0.110
 0.463  0.230 0.0934
-0.0946  0.230 0.0882
-0.371  0.221 -0.218
 0.297 -0.225 -0.120
-0.199 -0.225  0.151
 0.834 -0.149  0.216
-0.131 -0.225 0.0256
-0.861  0.169  0.216
 0.192 -0.175  0.216
-0.381 -0.225 -0.105
-0.814  0.230 -0.0683
 0.119  0.230  0.114
 0.469 -0.225  0.198
-0.345  0.143  0.216
 0.855 -0.0133 -0.218
 0.536 -0.225 0.0256
 0.255 0.0806  0.216
-0.952 0.00235  0.135
 0.573 -0.225 0.0725
 0.761 0.0910  0.216
-0.444  0.189 -0.224
 0.934 -0.228  0.166
-0.952  0.216 0.0569
-0.168 -0.225  0.182
-0.251  0.189 -0.223
-0.428  0.185  0.216
 0.594 -0.196 -0.218
-0.949 -0.0342  0.217
 0.761  0.229 -0.213
-0.825  0.181 -0.223
 0.124 -0.225  0.198
-0.903 -0.225 -0.105
 0.291  0.189 -0.224
 0.641 -0.191  0.216
 0.254  0.229  0.212
 0.333 -0.0654 -0.218
 0.792  0.230 -0.131
 0.641 -0.0237  0.216
 0.949 -0.159 -0.162
 0.297 -0.128 -0.218
 0.166  0.107 -0.218
-0.0268 -0.00287  0.216
-0.793 -0.225 -0.0996
-0.952 0.00235 0.0517
-0.0633  0.230 0.0256
 0.297 -0.0446  0.216
-0.952  0.159 -0.0891
 0.453 -0.00287  0.216
 0.902 0.00234  0.216
-0.903  0.230 -0.141
-0.773  0.230 -0.199
-0.387  0.216  0.216
-0.475  0.107 -0.218
-0.434 -0.225  0.151
 0.839  0.230  0.130
-0.627  0.230  0.192
-0.0529 -0.225 -0.188
-0.616 0.0858 -0.218
 0.610 -0.225 -0.173
 0.516  0.112 -0.218
-0.820  0.230 0.0465
 0.265  0.101 -0.218
-0.0424 -0.0759 -0.218
-0.736 -0.225  0.213
 0.109 -0.225 -0.178
 0.933  0.189 -0.223
0.00452  0.230  0.177
-0.679  0.226 -0.218
-0.814 -0.225  0.182
 0.683  0.230 -0.183
-0.892 -0.248  0.152
 0.114  0.206 -0.218
-0.559 -0.0707 -0.218
-0.235 -0.225  0.213
-0.548  0.230 -0.188
 0.265  0.230  0.156
-0.799 -0.225 -0.152
 0.949 0.0493 -0.0265
 0.437 -0.107  0.216
 0.949 0.0441 -0.126
 0.218 0.0284 -0.218
 0.187 -0.00809  0.216
-0.554 0.0702 -0.218
-0.157  0.230 -0.0474
 0.192 -0.0394 -0.218
-0.668 -0.225 0.0725
 0.949 -0.0185 -0.162
-0.0424 -0.225 -0.0422
 0.536  0.230 -0.131
 0.740  0.230 -0.0265
-0.173 -0.225 -0.0787
-0.887 -0.225 0.0778
 0.949 -0.0759 -0.0631
 0.615  0.230 0.0256
-0.893 -0.225 -0.000478
-0.585 -0.225 0.0830
-0.481 -0.0342 -0.218
 0.552  0.230 0.0986
-0.470 -0.225  0.182
-0.621 -0.225  0.172
-0.778 -0.149  0.216
 0.531  0.201  0.216
-0.741  0.128  0.216
 0.260 0.00756  0.216
-0.199  0.230 0.0152
-0.773 -0.0759 -0.218
-0.0894  0.138  0.216
 0.281 -0.225  0.104
 0.479 -0.225 -0.0944
-0.376 -0.225 -0.147
 0.693 -0.0498  0.216
 0.693 0.0336  0.216
-0.00591  0.230 -0.0370
 0.234  0.164  0.216
-0.319 -0.185  0.216
 0.213 -0.225 -0.183
 0.698 -0.225 -0.188
 0.844  0.143 -0.218
-0.194  0.230 -0.173
 0.151 -0.180 -0.218
 0.615  0.143 -0.218
-0.804  0.230  0.119
 0.380  0.159 -0.218
-0.230  0.230 -0.0474
-0.887 0.0336  0.216
-0.105 -0.225  0.172
 0.391 -0.225  0.166
 0.104 0.0552 -0.220
-0.934 -0.225 -0.141
 0.950 -0.0342 0.0308
 0.328  0.185  0.216
 0.573 -0.225 -0.147
-0.548 -0.0289 -0.218
 0.855 0.0858  0.216
-0.533 -0.225 -0.0370
0.0828 -0.225  0.119
-0.136  0.230  0.146
 0.557  0.230 -0.0161
 0.224 -0.225 -0.0161
 0.531 -0.225 -0.105
-0.820  0.169  0.216
 0.818 -0.201 -0.218
-0.668 0.00757 -0.218
-0.952 -0.170 0.00474
 0.917 -0.225 -0.0474
-0.110 -0.225  0.119
 0.250 -0.133  0.216
-0.952  0.112  0.213
-0.856 -0.206 -0.218
 0.949 -0.0707  0.172
-0.0216 0.00757 -0.218
-0.574  0.191 -0.220
-0.261 -0.206 -0.218
-0.908 -0.0654 -0.218
 0.600  0.229 -0.213
-0.606  0.180  0.216
-0.173  0.138 -0.218
 0.907  0.230 -0.173
 0.636 -0.123 -0.218
-0.710 -0.225 -0.173
-0.543  0.122 -0.218
 0.949 -0.0602 -0.131
-0.0998  0.230 -0.173
 0.636 -0.225 -0.0839
-0.162 -0.0498  0.216
 0.928 -0.0289  0.216
-0.381 -0.00287  0.216
-0.653 -0.225 0.0308
 0.667 0.0545 -0.218
 0.782 -0.225 -0.0944
 0.604 -0.00286 -0.218
-0.554  0.230 0.0673
 0.495 -0.0707  0.216
-0.334  0.230 0.0412
-0.418  0.230 0.0830
 0.151  0.107  0.216
 0.797 0.0754 -0.218
 0.683 -0.225 0.0934
 0.463  0.230 -0.141
-0.423  0.230  0.135
 0.740 -0.138 -0.218
 0.463  0.230  0.172
-0.736 -0.180 -0.218
 0.297  0.117  0.216
-0.548  0.230  0.114
 0.829  0.230  0.182
 0.458 -0.0811 -0.218
-0.355 -0.225 -0.0109
-0.225  0.101  0.216
-0.793 -0.225 0.0308
 0.271  0.230 -0.0370
-0.814 -0.225 0.0882
-0.720 -0.225 -0.105
-0.601 -0.225 -0.178
-0.000696 -0.225 -0.183
 0.949 -0.206 0.0204
-0.121  0.221 -0.218
-0.298  0.211  0.216
 0.651 -0.185 -0.218
-0.554  0.201  0.216
-0.590 -0.196  0.216
 0.479  0.201  0.216
-0.491  0.189 -0.224
 0.370 -0.191 -0.218
-0.454 -0.225 -0.193
-0.256 0.0754  0.216
-0.241 -0.123  0.216
-0.319 -0.225 -0.209
 0.192  0.230  0.161
 0.782  0.230  0.119
 0.890 -0.271 -0.153
 0.474 -0.225 0.0830
-0.856 -0.225 -0.0578
 0.776 -0.0654 -0.218
-0.720  0.230 -0.0735
 0.500 0.0128 -0.218
-0.952 -0.0498  0.130
-0.298 -0.0446 -0.218
-0.952  0.195  0.104
 0.839  0.230 0.0569
 0.729 0.0180  0.216
-0.314 0.0180  0.216
-0.653 -0.225 -0.0631
 0.114 -0.159  0.216
 0.114  0.230 -0.0683
-0.668  0.169  0.216
-0.423  0.230 -0.167
-0.470 -0.144 -0.218
-0.952 -0.170 -0.152
-0.694  0.143 -0.218
-0.00591 -0.0602 -0.218
 0.641  0.230 -0.00569
-0.533 -0.0655  0.216
 0.109 -0.225 -0.0839
-0.215 0.0336  0.216
-0.136 -0.0707 -0.218
 0.119  0.230 0.0360
 0.902  0.230 -0.0161
-0.952 -0.0915 0.00474
0.0254 -0.123  0.216
 0.949 -0.128 -0.0891
-0.0529 -0.170  0.216
-0.439 -0.225  0.109
 0.949  0.143 -0.178
-0.517 0.0128  0.216
-0.0424 -0.225  0.166
-0.952  0.201 -0.0109
-0.952 -0.217  0.119
 0.553  0.229 -0.213
 0.104  0.190  0.216
-0.952 -0.0759  0.213
 0.490 -0.191 -0.218
 0.928 -0.0237 -0.218
-0.757  0.190  0.217
 0.947 0.0493  0.216
 0.855  0.230 -0.188
 0.949 -0.201 0.0778
 0.926 -0.274  0.195
 0.923  0.230  0.177
 0.950 -0.221 -0.115
-0.762 -0.225 -0.214
-0.359  0.183 -0.227
-0.288  0.201 -0.218
 0.886 -0.225 -0.204
-0.00418 0.0464 -0.227
-0.647  0.159 -0.218
-0.267  0.230 0.0882
 0.719  0.230  0.182
-0.892 -0.276 -0.195
-0.851 -0.225 -0.131
 0.354 -0.225  0.156
-0.126  0.195  0.216
 0.724 -0.225 -0.0735
 0.391  0.230 -0.0787
-0.381  0.230 -0.0735
 0.849 -0.225 0.0256
 0.213 -0.0811  0.216
-0.533  0.230 0.0256
0.0671  0.230 -0.00569
-0.632 -0.154  0.216
-0.507  0.133 -0.218
 0.630 -0.139  0.216
-0.559 -0.154 -0.218
 0.902 -0.159 -0.218
 0.344 -0.159 -0.218
 0.203 -0.211  0.216
-0.209 -0.175 -0.218
 0.364  0.154  0.216
-0.251 -0.225  0.130
-0.788 -0.112  0.216
 0.949 -0.128 -0.136
-0.590  0.230 -0.157
-0.913 -0.225  0.109
 0.521 -0.225  0.151
-0.788 -0.118 -0.218
-0.00591 -0.225 -0.0631
-0.0268  0.190  0.216
 0.359 0.0128  0.216
-0.952 0.0649 -0.178
-0.952  0.195 -0.0578
-0.952 0.00235  0.177
 0.437 -0.00286 -0.218
-0.0946 -0.225 0.0360
-0.241 -0.0394  0.216
-0.470  0.230 0.0725
 0.411 0.0284  0.216
 0.949 0.00757 -0.0787
0.0515 -0.225 0.0830
 0.145 -0.0602  0.216
-0.194 -0.225 0.0986
-0.194 -0.225 0.00474
 0.260 0.0597 -0.218
-0.147 -0.225 0.0882
 0.839  0.230 -0.136
 0.917  0.230  0.130
-0.334  0.107 -0.218
 0.385  0.230 -0.147
-0.272  0.159  0.216
-0.0268 0.0754 -0.218
-0.376 -0.221  0.217
-0.298 -0.225 -0.105
 0.250 -0.185  0.216
-0.314  0.164 -0.218
 0.729 -0.0811 -0.218
 0.808 -0.138 -0.218
 0.276 -0.191 -0.218
-0.627  0.230 -0.209
-0.866 -0.225  0.172
 0.950  0.201 -0.0266
-0.554  0.230 -0.0422
 0.500 -0.225 0.0360
0.0306  0.133  0.216
 0.500 0.0180  0.216
 0.949  0.174 0.0830
 0.855  0.230 0.0934
 0.949 -0.00808  0.172
-0.580 -0.225 -0.0683
 0.641 -0.225 -0.0318
-0.0894  0.230 -0.115
 0.124 -0.0394 -0.218
-0.0581  0.148 -0.218
 0.870 0.0336 -0.218
 0.950 -0.0707 0.0517
-0.952 -0.0185 0.0152
 0.949 0.0858 0.0517
-0.952 0.0232 -0.0213
 0.949  0.128 -0.000475
 0.641 0.0910  0.216
-0.898  0.230  0.151
-0.799  0.122  0.216
 0.719 -0.225 -0.141
 0.271  0.230 -0.178
 0.203  0.230 -0.209
 0.484  0.230  0.140
-0.000704 -0.0446  0.216
-0.653  0.230 0.0465
-0.866 0.0962  0.216
-0.00591  0.230 -0.136
-0.141 -0.00286 -0.218
-0.952 -0.0707 0.0882
 0.719 -0.225 0.0569
-0.512 0.0493 -0.218
-0.673  0.230  0.119
 0.563  0.169  0.216
 0.401  0.230  0.109
-0.381 -0.107  0.216
-0.893 -0.0967  0.216
-0.757 0.0910 -0.218
-0.282  0.230 -0.162
0.0150  0.191 -0.220
 0.547 -0.201 -0.218
 0.354  0.191 -0.220
 0.145 0.0180 -0.218
0.00974 -0.201 -0.218
-0.0685 0.0702 -0.218
-0.856  0.216 -0.218
-0.952 -0.123  0.146
 0.166 -0.225 -0.120
-0.110 -0.225 -0.0266
 0.542  0.230 -0.0944
 0.855  0.187 -0.227
 0.672 0.00236 -0.218
-0.705  0.101 -0.218
 0.776 -0.118  0.216
-0.710  0.230 -0.0161
-0.700  0.230 0.0517
-0.0841 -0.0394 -0.218
 0.792 0.0389 -0.218
-0.590  0.230 -0.0265
-0.952 -0.0759 -0.183
0.0775 -0.191 -0.218
-0.952 -0.144 -0.0683
 0.719 0.0649 -0.218
 0.776 -0.225 0.0934
-0.778  0.230 0.0256
 0.145 -0.225  0.104
 0.171  0.230 0.0673
-0.952 -0.206 0.0412
 0.323 -0.225 0.0830
 0.166  0.230 -0.0996
-0.381 -0.225 0.0673
 0.813 -0.0915 -0.218
 0.698 -0.225  0.166
-0.752 -0.225 -0.178
-0.173  0.230  0.140
-0.303  0.133  0.216
 0.239  0.138 -0.218
-0.173 -0.175  0.216
 0.583 -0.112  0.216
-0.673 -0.225  0.161
-0.747 -0.144 -0.218
 0.234 -0.225  0.146
 0.312  0.122 -0.218
-0.856  0.230 -0.136
-0.898  0.159 -0.218
 0.865  0.230  0.177
-0.0216  0.230 0.0465
-0.952 0.0754 0.0778
-0.856 0.00236 -0.218
 0.302 -0.225 0.0152
-0.256 -0.225 -0.0631
 0.370 -0.225 -0.0109
-0.204 0.0649 -0.218
-0.162  0.230 -0.0839
 0.124 -0.0915  0.216
 0.297  0.230 -0.0996
 0.599  0.230 0.0673
 0.563 -0.225 -0.0422
-0.376  0.230 -0.152
 0.375 -0.185  0.216
 0.271 -0.154 -0.218
-0.366 -0.175  0.216
0.0828 -0.225 -0.204
-0.952  0.138 -0.193
0.0410  0.230  0.119
-0.517 -0.00808 -0.218
 0.625 -0.0707 -0.218
 0.771 -0.0498  0.216
-0.444 0.0441  0.216
-0.355 -0.225 -0.0787
-0.694 -0.0342 -0.218
-0.632 -0.225 0.0986
-0.767 0.00236 -0.218
-0.952 0.00757 -0.126
 0.224 -0.0133  0.216
-0.481  0.230 -0.0787
 0.568  0.122  0.216
-0.861  0.143 -0.218
 0.260 -0.225  0.182
-0.194  0.230  0.172
 0.714 -0.225  0.213
 0.922 -0.253 -0.197
 0.495  0.230 -0.0787
 0.750 -0.225  0.208
-0.444  0.230 -0.131
-0.851 -0.102  0.216
-0.814 -0.180  0.216
 0.646 -0.102  0.216
-0.712  0.228  0.215
-0.793  0.230 -0.110
 0.891 -0.0237 -0.218
-0.491 -0.0967 -0.218
 0.218  0.128  0.216
 0.949  0.164  0.177
 0.933 -0.191  0.216
-0.392 0.0128 -0.218
 0.531 -0.225 -0.183
-0.434  0.154 -0.218
 0.203  0.230 -0.141
-0.919 -0.128 -0.218
-0.173  0.206 -0.218
 0.703 -0.144  0.216
-0.814 -0.165 -0.218
 0.610 -0.225 -0.00569
 0.594 -0.0655  0.216
 0.317 -0.225 -0.0370
 0.756 0.0232 -0.218
-0.444 -0.00809  0.216
0.0358 -0.225 -0.0318
-0.952 -0.128 -0.0161
 0.803  0.230 0.0360
 0.813 -0.225 0.0308
 0.458 -0.225 0.00995
 0.281 -0.225 -0.0683
 0.703  0.230 0.00474
-0.0107  0.229 -0.213
-0.0320  0.230  0.130
-0.642  0.230 -0.115
-0.235  0.230 -0.209
 0.406 -0.225 -0.120
 0.625  0.230  0.125
-0.952 -0.211 -0.0474
 0.949  0.206  0.182
 0.917 0.0962  0.216
-0.741  0.228 -0.216
 0.443 -0.185 -0.218
0.0880 -0.225  0.198
0.0254 -0.225  0.198
-0.952 -0.191  0.192
 0.950  0.154 -0.214
-0.952  0.201 -0.183
-0.0841  0.230  0.182
-0.952 0.00235 -0.199
0.0254 -0.0867 -0.224
-0.522 -0.206 -0.218
 0.950 -0.191 -0.209
-0.606 -0.206 -0.218
-0.694 -0.196  0.216
-0.731  0.230 -0.157
 0.333 -0.191  0.216
 0.604 0.0910 -0.218
 0.949 0.0754 -0.0526
 0.949 -0.0863 -0.157
 0.281 -0.107  0.216
-0.820 -0.225 -0.0213
-0.705 -0.0863  0.216
 0.432 -0.0707  0.216
-0.616  0.230 0.0778
-0.585 0.0128  0.216
-0.413 -0.225 -0.0266
-0.893 0.0232 -0.218
 0.949 0.0441  0.177
0.0775 -0.225 -0.0996
 0.192 -0.225 -0.0735
-0.261  0.230 -0.0631
 0.849  0.230 -0.0787
-0.460  0.230 -0.000473
 0.401 -0.225 -0.0370
 0.453 0.0805  0.216
-0.340  0.185  0.216
-0.0581  0.187 -0.227
 0.693  0.138  0.216
-0.663 -0.225 -0.115
-0.324 -0.118  0.216
 0.776  0.122  0.216
-0.517  0.230 -0.173
-0.684  0.230 -0.173
-0.835  0.230  0.104
-0.392  0.230 -0.183
-0.501  0.230  0.182
-0.272 -0.225  0.182
 0.594 -0.180  0.216
-0.199 -0.225  0.198
-0.705  0.230  0.104
-0.952 -0.0707 -0.0318
 0.949  0.101 0.0830
 0.813  0.230 -0.0422
 0.526  0.230 0.0152
 0.839 -0.191  0.216
 0.949  0.154 0.0256
-0.820 0.0754  0.216
-0.0529 -0.0655  0.216
 0.385  0.230 0.0778
 0.792  0.143 -0.218
-0.267 0.0597 -0.218
 0.385 -0.225 0.0569
0.0828  0.230  0.125
-0.689  0.230 -0.0891
 0.161 -0.224  0.216
-0.110 -0.201  0.216
-0.851  0.230  0.172
-0.235 -0.175  0.216
-0.554 -0.225 -0.173
-0.893 -0.191 -0.218
 0.182 -0.112 -0.218
-0.783  0.229  0.212
-0.658 -0.225  0.213
 0.917  0.190  0.217
 0.797 -0.225  0.203
-0.0737 -0.118 -0.218
-0.345  0.230  0.182
-0.668 -0.225 -0.188
 0.923 -0.225 0.00474
 0.552  0.230  0.203
-0.637 -0.191  0.216
 0.837  0.228  0.215
 0.255  0.195 -0.218
-0.940  0.230 -0.115
-0.949  0.230  0.166
-0.919  0.225  0.216
 0.119 -0.107 -0.218
0.0723  0.216  0.216
 0.198  0.230  0.208
 0.949 -0.125  0.215
 0.662  0.230  0.140
-0.475  0.230 -0.115
-0.235  0.143  0.216
 0.448 -0.225  0.109
-0.952 0.0910  0.151
 0.740 -0.0446 -0.218
-0.0268 -0.191  0.216
 0.203 0.0962 -0.218
 0.667 -0.225 -0.0578
0.0462 -0.159  0.216
-0.736 -0.225 -0.000478
 0.766 -0.225 -0.00569
-0.835  0.230 -0.0213
 0.354  0.230 0.00474
 0.260 -0.225 0.0778
-0.715 -0.00809  0.216
-0.470 -0.225 -0.0109
 0.260 -0.0498 -0.218
 0.443  0.230 0.0517
 0.949 -0.0342 -0.110
-0.152 0.0701  0.216
-0.0633 -0.133  0.216
 0.203 -0.225 0.00995
 0.521 -0.0498  0.216
 0.349  0.230 0.0621
0.0410 -0.225 -0.178
-0.496 -0.0550  0.216
-0.0528  0.230  0.104
 0.949  0.112 0.0308
-0.209 0.0128 -0.218
 0.166 -0.0602 -0.218
 0.182 0.00236 -0.218
 0.109 -0.00286 -0.218
 0.950  0.185 -0.0996
 0.907  0.230 -0.126
-0.952 0.0806 -0.0631
-0.0998 0.0754  0.216
-0.0476 -0.225 0.0778
-0.0268 -0.225 -0.000478
 0.302  0.164  0.216
-0.872 -0.138 -0.218
 0.521 -0.123 -0.218
 0.448  0.154 -0.218
-0.752  0.154 -0.218
0.0515 -0.00808 -0.218
0.0463  0.230 0.0673
0.0723 0.0493  0.216
 0.417  0.206  0.216
 0.870 -0.128 -0.218
 0.333 -0.225 -0.152
-0.924 -0.196  0.216
-0.924  0.230 -0.188
-0.778 -0.0342  0.216
-0.381  0.117  0.216
-0.162 -0.0342 -0.218
-0.747 0.0441 -0.218
 0.589 -0.225 -0.105
-0.194 -0.225 -0.0318
 0.761 -0.225 -0.0683
 0.396 0.0858  0.216
-0.564 -0.225  0.109
-0.952  0.101 -0.152
-0.830 -0.0237  0.216
 0.474  0.107  0.216
 0.787 0.00236 -0.218
-0.736  0.164  0.216
 0.949 -0.191 -0.0161
 0.448 -0.144  0.216
 0.583 -0.225  0.182
 0.260  0.230 -0.126
 0.917 -0.228 -0.151
-0.951 -0.158 -0.216
-0.376 -0.217 -0.218
-0.887 -0.237 -0.183
 0.870 -0.225  0.140
-0.705 -0.191 -0.218
-0.512 -0.225  0.125
 0.641 -0.225 -0.162
 0.547 -0.225  0.109
 0.844 -0.225  0.109
 0.265 -0.225 -0.136
 0.949 -0.0759 0.0882
0.00973 -0.225  0.130
-0.340  0.230 0.0830
 0.271 -0.107 -0.218
 0.135 0.0336  0.216
-0.428 0.0754 -0.218
 0.855 0.0649 -0.218
-0.830 0.0284 -0.218
 0.135  0.230 0.00474
 0.469 -0.0133 -0.218
 0.156 -0.225 0.00995
-0.423 -0.225 0.0621
 0.729 -0.00808 -0.218
-0.246  0.230 0.0152
-0.590 0.0649  0.216
 0.949 -0.133 0.0517
-0.199  0.230 0.0621
-0.434 -0.225  0.213
 0.917 0.0910 -0.218
-0.402 -0.0759 -0.218
-0.543  0.169  0.216
 0.604  0.190  0.216
-0.460  0.195  0.217
 0.401  0.230  0.161
-0.340 -0.112 -0.218
 0.839  0.128  0.216
 0.349  0.230  0.177
-0.454 -0.133  0.216
 0.949 -0.112  0.140
 0.234 -0.159 -0.218
-0.559  0.230  0.146
-0.952  0.195 -0.147
 0.677 -0.133 -0.218
 0.646 -0.225  0.177
-0.668  0.122  0.216
-0.710 -0.225 -0.136
0.0932 -0.0237  0.216
-0.952 -0.0811 0.0465
-0.0216 -0.0759  0.216
-0.872  0.230 0.0882
 0.547 0.0806  0.216
 0.234 -0.225 0.0569
-0.512 0.0858  0.216
 0.771 0.00756  0.216
-0.898  0.230 0.0569
-0.0894 0.0441  0.216
-0.952  0.154 0.00474
-0.0998 -0.0446  0.216
-0.637 0.0284 -0.218
 0.203  0.230 -0.00569
-0.162 -0.225 -0.0474
 0.323 -0.0967 -0.218
-0.141 0.0128  0.216
 0.949 -0.175 0.0308
-0.741  0.230  0.104
 0.943 0.0284 -0.218
 0.182  0.117  0.216
 0.740  0.230 -0.0891
 0.943 -0.225 -0.188
-0.952  0.195  0.187
 0.949  0.148 -0.0526
-0.361 -0.0550 -0.218
 0.917  0.230 -0.0891
 0.463 0.0858 -0.218
-0.0685 -0.180 -0.218
 0.109  0.112  0.216
-0.627  0.112  0.216
-0.162 -0.144  0.216
 0.949 -0.175  0.104
 0.583  0.230  0.146
-0.931 -0.273 -0.162
 0.928  0.230 0.0673
-0.0528 -0.211 -0.218
 0.140 -0.225 -0.204
-0.940 0.0962 -0.218
 0.885 -0.257  0.161
-0.952 -0.201 -0.126
-0.928 -0.274  0.152
-0.931 -0.243 -0.188
 0.517  0.183 -0.227
-0.616  0.211  0.216
-0.105  0.229  0.212
 0.156  0.148  0.216
-0.929  0.133 -0.218
-0.397 -0.225  0.140
-0.293  0.112 -0.218
 0.479  0.230 -0.0109
 0.656 -0.225 0.0152
-0.731 -0.225 0.0360
 0.813 -0.225 -0.0996
 0.573 -0.225 0.0360
 0.234 -0.217  0.216
-0.282 -0.00809  0.216
 0.542 -0.225 -0.0109
-0.773 0.00234  0.216
 0.260 0.0232 -0.218
 0.557 0.0702 -0.218
 0.328 -0.0550  0.216
-0.715 0.0336  0.216
 0.672  0.230 -0.0631
-0.866  0.230 -0.0944
 0.891 -0.225 0.0830
-0.952 -0.0863 -0.115
-0.168  0.230 0.00996
 0.495 0.0597 -0.218
-0.329 0.0754 -0.218
 0.364 -0.0707 -0.218
 0.364  0.230 -0.0265
 0.667 0.0962 -0.218
-0.235  0.230 0.0778
 0.729  0.230 -0.147
-0.647 -0.201 -0.218
 0.583  0.138 -0.218
-0.595 -0.102  0.216
 0.589  0.230 -0.173
-0.241 -0.225 -0.188
-0.491  0.230  0.140
-0.308 -0.154  0.216
 0.646  0.159 -0.218
 0.151  0.230 -0.183
 0.396 -0.112 -0.218
 0.886  0.230  0.109
 0.552 -0.225  0.172
-0.225 -0.225 -0.136
-0.115 -0.107  0.216
 0.140  0.230 -0.0266
 0.729 -0.225 -0.178
-0.952 -0.196 -0.209
-0.230 -0.0759  0.216
-0.397 -0.185  0.216
 0.364  0.230  0.119
-0.952  0.148  0.177
-0.720 -0.225  0.125
-0.627 -0.225 -0.120
-0.856  0.201  0.216
 0.766  0.206  0.216
-0.288 -0.191  0.216
 0.312 -0.159  0.216
-0.387 -0.175 -0.218
-0.658 -0.112  0.216
-0.308 -0.225 0.0412
-0.887 -0.225 -0.0318
0.00451  0.195  0.216
-0.952 0.0389 -0.120
-0.00592 0.0336  0.216
0.00452 -0.225 0.0256
0.0202 -0.225 0.0882
-0.705  0.230 0.0204
 0.568 0.00756  0.216
-0.366 -0.0237 -0.218
-0.663 0.0806 -0.218
-0.152 -0.0811  0.216
-0.705 -0.225 0.00995
0.0567 -0.191  0.216
-0.908 -0.0289  0.216
-0.121  0.230 -0.0422
 0.171  0.230 -0.0161
 0.735 -0.112  0.216
-0.246 0.0284  0.216
-0.0163 -0.0237 -0.218
-0.0320  0.101  0.216
-0.366  0.230 -0.0265
-0.952 0.0284 0.00995
-0.924 -0.232  0.196
 0.594  0.230 -0.0526
 0.949 0.0128 -0.157
-0.460 -0.0654 -0.218
 0.171 0.0754  0.216
-0.0111 -0.159 -0.218
-0.303  0.230 -0.0526
 0.834  0.230 0.0204
-0.820 -0.0289 -0.218
 0.688 -0.225 0.0621
-0.481 -0.225 -0.0787
 0.938 -0.0550 -0.218
 0.735 -0.225  0.119
 0.709  0.230 -0.120
-0.0737 -0.225  0.177
-0.726  0.230  0.166
 0.803  0.195  0.216
-0.314  0.230 -0.167
-0.110 0.00236 -0.218
-0.804 0.0389  0.216
 0.630 0.0284  0.216
0.0306  0.230 -0.126
 0.474 -0.225  0.166
 0.672 -0.185  0.216
-0.465 -0.175 -0.218
-0.949  0.230 0.0934
 0.177 0.0754 -0.218
-0.934 0.0858  0.216
 0.604 -0.225 -0.214
-0.152 -0.206 -0.218
 0.589  0.230  0.203
-0.951 -0.00287  0.216
-0.952 -0.112  0.203
-0.231  0.229  0.212
 0.333  0.230  0.130
-0.413 -0.102  0.216
 0.662  0.154  0.216
 0.656  0.187 -0.227
-0.887  0.230 -0.0370
 0.479 -0.225 -0.188
 0.771 -0.138 -0.218
 0.396  0.154  0.216
-0.340 -0.225 -0.157
 0.902 -0.191 -0.218
 0.391 -0.0498  0.216
 0.740  0.164  0.216
-0.705 -0.102 -0.218
-0.340 -0.0550  0.216
-0.788  0.190  0.217
 0.729  0.107 -0.218
 0.709 -0.225 -0.110
-0.952 0.0493  0.135
 0.552 -0.123 -0.218
-0.162 -0.138 -0.218
 0.354 -0.225  0.125
-0.230 -0.225 -0.0266
-0.376  0.143 -0.218
 0.646 -0.225  0.213
 0.427  0.230 -0.0578
 0.950  0.195 0.0204
0.0150  0.122 -0.218
 0.375 0.0806 -0.218
 0.771  0.230 -0.0891
-0.952 -0.170 0.0778
 0.224 -0.225 -0.0891
-0.314  0.101  0.216
-0.267 0.0284 -0.218
-0.496 -0.0863  0.216
 0.463 -0.0759  0.216
 0.364 -0.225 -0.0787
-0.952 0.0336 0.0725
 0.458  0.230 -0.0839
-0.752 -0.0655  0.216
 0.949 0.0545  0.104
-0.428  0.230 0.0465
 0.950 -0.107  0.109
 0.782  0.191 -0.220
-0.267 -0.0342 -0.218
-0.308 -0.00286 -0.218
-0.856 -0.107 -0.218
-0.809 -0.224  0.216
 0.552 -0.170  0.216
-0.893 -0.00808 -0.218
 0.119 -0.0707 -0.218
0.0619 0.0453 -0.224
 0.818 -0.225 -0.199
 0.922 -0.238  0.195
 0.747  0.183 -0.227
-0.136 -0.225  0.187
 0.949  0.201  0.104
 0.484 -0.206  0.216
 0.844 -0.225  0.182
-0.423  0.230  0.187
-0.949  0.230 -0.0318
 0.140  0.230  0.203
-0.0581 -0.211  0.216
-0.913 -0.225  0.140
 0.813  0.230 -0.162
-0.752 -0.133  0.216
-0.256 -0.225 -0.157
 0.417 -0.225  0.146
-0.449 -0.225 -0.131
 0.187 -0.225  0.146
-0.246  0.230 -0.178
 0.448  0.230 -0.173
-0.835 -0.138 -0.218
-0.825 -0.0863  0.216
-0.642 -0.0811  0.216
 0.949 -0.0759 0.0152
 0.630  0.230 0.0517
-0.324 -0.225 -0.0839
 0.583 0.0597  0.216
 0.610 -0.0394  0.216
 0.672  0.230 0.00474
 0.949  0.211 -0.0839
-0.872 -0.225 0.0465
 0.683 0.0701  0.216
 0.563 -0.0863 -0.218
 0.495  0.230 0.0725
-0.0268 -0.225  0.140
-0.329 -0.225 -0.0266
 0.255 -0.225 -0.0474
 0.453 -0.225 -0.0787
-0.0528  0.230 -0.120
 0.573 -0.0289 -0.218
-0.861 0.0702 -0.218
-0.496 -0.225 0.00474
-0.241 -0.123 -0.218
-0.465 -0.00808 -0.218
-0.246  0.230 -0.0213
-0.0476  0.230 -0.193
-0.334  0.230 -0.0109
-0.952  0.138 0.0517
-0.689 -0.0759 -0.218
 0.949  0.169 -0.157
0.0462 0.00236  0.216
 0.950 -0.165  0.151
-0.658  0.230  0.166
 0.938 -0.225  0.125
-0.580 -0.191 -0.218
-0.569 -0.225 -0.110
 0.453 -0.225 -0.173
 0.323  0.230 -0.183
 0.124 -0.225 -0.152
-0.715 -0.149  0.216
 0.651  0.206  0.216
 0.516  0.174  0.216
 0.244 -0.225 -0.193
-0.168  0.154  0.216
-0.303  0.230  0.156
-0.371  0.230  0.135
 0.166 -0.225 -0.162
-0.288 -0.225 -0.209
 0.771 -0.225 -0.157
 0.771 -0.225 -0.126
 0.291  0.230  0.182
-0.627  0.128 -0.218
0.0149 0.0597  0.216
-0.0946 0.0858 -0.218
-0.0528 0.0962 -0.218
0.0932  0.230 0.00996
-0.0372  0.230 -0.0422
-0.0581 -0.225 -0.0161
-0.0111  0.230 -0.105
-0.663 0.0545  0.216
 0.526  0.230 -0.0683
 0.823 -0.225 -0.0370
 0.724 -0.0550  0.216
 0.552  0.230 -0.157
-0.152  0.230  0.177
 0.886 -0.225 -0.131
 0.875 0.0180  0.216
 0.949 0.0858  0.130
 0.411 -0.0289 -0.218
 0.495  0.230 0.0152
-0.924 -0.0915 -0.218
 0.818 0.00756  0.216
 0.656  0.230 -0.0318
 0.291  0.230 0.0412
-0.952 -0.102 -0.0318
-0.952 0.0336  0.192
 0.271 -0.0602  0.216
 0.437 0.0441 -0.218
-0.303  0.230 -0.0161
-0.830 0.0128  0.216
-0.507 -0.225 -0.0631
 0.688  0.230 -0.152
 0.171 -0.118  0.216
-0.454  0.122  0.216
 0.198 -0.138 -0.218
 0.109 -0.225  0.172
 0.385 -0.144 -0.218
-0.898  0.230 -0.173
-0.945 -0.225 -0.0735
 0.192  0.195 -0.218
-0.893  0.201 -0.218
-0.345 -0.211 -0.218
 0.949 -0.196 -0.0839
-0.720 -0.225  0.187
 0.422  0.211 -0.218
-0.314  0.230 -0.209
0.0619  0.230 -0.188
0.0880  0.191 -0.220
 0.672 -0.211 -0.218
-0.0446  0.228  0.215
-0.517 -0.139  0.216
 0.907  0.154  0.216
-0.762  0.107  0.216
-0.778 -0.225  0.135
 0.949 -0.185 -0.131
-0.173  0.230 -0.152
-0.882  0.230 -0.120
 0.792 -0.112 -0.218
 0.224  0.230 -0.0631
-0.952 -0.0707  0.156
-0.314  0.230 0.0204
 0.855 -0.0707  0.216
-0.418 -0.225 0.0308
-0.423  0.230 -0.0735
 0.135 -0.225 0.0308
0.0567 -0.123  0.216
-0.178 0.0910  0.216
 0.119  0.230 -0.126
