ply
format ascii 1.0
element vertex 2048
property float x
property float y
property float z
end_header
0.0780 -0.0843 0.0299
-0.365  0.930 -0.0295
-0.302 -0.952 -0.0380
 0.302  0.624 0.0407
 0.306 -0.701 0.00879
-0.301  0.356 -0.0460
-0.307 -0.429 -0.0316
0.0567  0.946 -0.0535
 0.304  0.238 -0.0428
-0.304 -0.0434 0.00842
-0.0486 -0.680 -0.0607
-0.129  0.655 0.0580
 0.307 -0.346 -0.0360
-0.00600  0.249 0.0592
0.0833 -0.948 0.0556
0.00444 -0.388 0.0592
 0.342  0.913 0.00785
-0.297 -0.690 0.0535
0.0560  0.478 -0.0612
 0.309 -0.0122 -0.0219
-0.153 -0.231 -0.0494
 0.304 -0.948 -0.0437
0.0984  0.739 0.0592
 0.146 -0.530 -0.0565
-0.139  0.885 0.0487
-0.177  0.144 -0.0494
-0.129 -0.847 0.0580
-0.296  0.579 -0.0519
 0.140  0.110 -0.0530
-0.128  0.426 0.0470
 0.223  0.405 0.0511
-0.110 -0.0226 0.0510
-0.129 -0.544 0.0580
0.0984 -0.753 0.0592
 0.129 -0.269 -0.0367
-0.299  0.770 0.0467
 0.300 -0.513 0.0492
-0.0406  0.770 -0.0589
 0.297 -0.178 0.0540
-0.298 -0.273 0.0519
 0.239  0.781 -0.0399
-0.0543 -0.952 -0.0584
 0.129  0.283 -0.0367
-0.0233 -0.221 0.0570
 0.146  0.628 -0.0565
-0.128 -0.398 -0.0385
 0.178 -0.836 -0.0584
-0.300  0.207 0.0392
0.0323 -0.586 0.0485
-0.0176  0.103 -0.0120
-0.242 -0.805 -0.0476
 0.189  0.906 0.0539
0.0201  0.588 0.0474
-0.247 -0.586 -0.0526
 0.189 -0.398 0.0539
-0.0574  0.332 -0.0608
-0.146  0.551 -0.0575
 0.241  0.134 0.0574
 0.284  0.489 -0.0594
-0.0406 -0.106 -0.0589
-0.190  0.741 -0.0491
 0.195 -0.617 0.0574
0.0291  0.391 0.0545
 0.190 -0.137 -0.0501
 0.299 -0.840 0.0542
-0.0406 -0.513 -0.0589
0.0249 -0.822 -0.0458
0.00444  0.874 0.0592
-0.189  0.297 0.0550
-0.196 -0.148 0.0581
-0.284 -0.179 -0.0588
-0.298  0.457 0.0519
-0.120 -0.690 0.0591
-0.242 0.0713 0.0566
 0.185 0.00870 0.0399
-0.0289 -0.304 -0.0522
0.0652 -0.419 -0.0598
 0.162 -0.687 -0.0533
-0.179 -0.0617 -0.0573
 0.141  0.521 0.0325
-0.242  0.864 -0.0476
-0.215 -0.377 0.0592
 0.284 -0.586 -0.0594
 0.213 -0.940 0.0592
-0.0726  0.949 -0.0484
-0.120  0.186 0.0591
 0.109  0.165 0.0592
0.0560 0.00870 -0.0612
-0.215 -0.952 0.0565
0.0892  0.822 -0.0378
 0.162  0.405 -0.0610
 0.284  0.113 -0.0594
-0.215  0.551 0.0592
-0.0414  0.645 -0.0498
-0.298 -0.857 0.0519
 0.307  0.363 -0.0367
-0.295 0.0991 -0.0524
-0.297  0.645 0.0535
-0.179  0.376 -0.0573
0.0984 -0.482 0.0592
 0.233 -0.283 0.0589
 0.252 -0.468 -0.0551
 0.135 -0.190 0.0564
-0.242 -0.325 -0.0476
-0.129 -0.283 0.0580
-0.0233  0.739 0.0570
 0.203  0.280 0.0589
-0.162 -0.899 -0.0612
-0.0778  0.214 -0.0525
-0.0631  0.464 -0.0520
-0.242  0.949 0.0367
 0.153 -0.953 -0.0523
-0.246 -0.523 0.0531
0.0569 -0.176 -0.0535
 0.179  0.949 -0.0564
 0.213  0.707 0.0592
-0.162 -0.711 -0.0612
 0.291 -0.231 -0.0566
-0.0211 -0.888 0.0397
 0.291 -0.805 -0.0566
0.0229 0.0191 0.0579
-0.0156 -0.774 0.0588
 0.299  0.808 0.0542
 0.297  0.500 0.0540
-0.300  0.701 -0.0467
-0.131 0.0400 -0.0446
0.0573  0.700 -0.0534
 0.258  0.655 -0.0584
-0.135 -0.596 -0.0491
-0.239  0.478 -0.0411
0.0894 -0.315 0.0582
-0.0285  0.489 0.0535
-0.0285 -0.106 0.0535
 0.178 -0.367 -0.0584
0.0500  0.359 -0.0526
0.0424  0.216 -0.0494
 0.213 -0.732 0.0592
-0.196 -0.489 -0.0384
-0.252  0.259 -0.0563
0.0710 -0.617 -0.0483
-0.0809 -0.801 -0.0317
 0.247 -0.0782 0.0540
 0.119  0.635 0.0511
-0.0999 -0.429 0.0592
 0.170 -0.0330 -0.0605
-0.121  0.781 0.0507
-0.197 -0.767 0.0472
-0.0858  0.322 0.0398
-0.296 -0.714 -0.0519
-0.177  0.949 -0.0562
-0.293  0.311 0.0481
-0.110 0.0817 0.0510
 0.197 -0.513 0.0390
 0.132  0.353 0.0400
0.0501 -0.952 -0.0582
-0.0999 -0.952 0.0565
-0.204 -0.617 0.0509
 0.267  0.878 -0.0527
-0.00600 -0.492 0.0592
 0.132 -0.847 0.0400
0.0710 -0.732 -0.0484
-0.299 -0.137 0.0467
 0.299 -0.391 0.0542
0.0983  0.949 0.0538
-0.190  0.635 -0.0227
 0.300  0.301 0.0492
 0.297 0.0513 0.0540
 0.191  0.190 -0.00785
-0.239 0.0191 -0.0412
 0.309 -0.116 -0.0219
-0.204  0.718 0.0509
 0.153  0.739 -0.0594
 0.186  0.801 0.0480
-0.215  0.822 0.0510
 0.185  0.520 -0.0550
 0.299 -0.610 0.0542
-0.0881 -0.169 -0.00164
-0.225  0.395 0.0592
-0.303  0.875 0.0281
-0.215  0.165 0.0510
-0.215 -0.0539 0.0510
 0.224  0.572 0.0592
-0.0910  0.568 0.0471
0.0250 -0.680 0.0330
-0.153  0.833 -0.0601
-0.0287 -0.398 -0.0385
-0.146  0.280 -0.0575
0.0985  0.259 0.0510
 0.109 0.0608 0.0592
-0.0287  0.551 -0.0385
-0.0339  0.864 -0.0558
 0.109  0.854 0.0510
-0.0255 -0.0122 -0.0222
 0.237  0.301 -0.0315
0.0560 -0.0852 -0.0612
0.0813  0.561 -0.0332
 0.199 -0.221 -0.00200
-0.236 -0.231 -0.00136
-0.300  0.794 -0.0467
 0.109 -0.659 0.0592
-0.193 -0.151 -0.0446
-0.307 -0.534 -0.0121
 0.309  0.728 -0.0219
 0.200 -0.596 -0.0315
-0.0171 -0.607 -0.0222
 0.300 -0.948 0.0486
 0.239 0.0400 -0.0399
-0.0754  0.945 0.0401
0.0985  0.447 0.0510
0.0299 -0.273 0.00972
 0.304  0.582 -0.0434
-0.0799  0.707 -0.00156
0.0639 -0.325 -0.0519
 0.252 -0.676 -0.0551
 0.162  0.864 -0.0610
-0.302 -0.774 0.0289
-0.0285  0.165 0.0535
-0.283  0.942 -0.0505
-0.293 -0.356 0.0306
-0.0263 -0.221 -0.0312
 0.119 -0.565 0.0592
-0.304 -0.617 0.00842
-0.235 -0.892 -0.0155
 0.136 -0.450 -0.0225
 0.303  0.186 0.0294
-0.134 -0.315 -0.0227
0.0863 -0.398 0.0402
0.0560  0.113 -0.0612
-0.120 -0.106 0.0591
-0.267 -0.0747 -0.0609
-0.215 -0.294 0.0510
-0.190  0.218 -0.0114
 0.303  0.415 0.0294
-0.298  0.541 0.0519
-0.293 -0.450 0.0481
-0.0781 -0.349 0.0531
 0.213  0.488 0.0592
0.0315  0.666 0.0199
0.0240  0.801 0.0258
 0.213 -0.857 0.0511
-0.275  0.179 -0.0528
-0.300 -0.259 -0.0468
0.0275 -0.482 -0.0222
 0.128 -0.784 -0.0126
-0.235  0.325 -0.00863
-0.162 -0.794 -0.0612
-0.0781 -0.621 0.0531
-0.296 -0.952 0.0521
0.0911 -0.899 -0.0125
-0.184 -0.450 0.0401
 0.244 -0.753 -0.0151
 0.186 -0.127 0.0304
 0.245 -0.0608 -0.0299
 0.253 -0.885 -0.0441
0.0229  0.103 0.0579
-0.0269  0.381 -0.00276
 0.200 -0.304 -0.0122
-0.0406 -0.867 -0.0589
0.0229 -0.158 0.0172
-0.0788 -0.492 0.0131
-0.0881  0.144 -0.00164
-0.130  0.506 0.0147
-0.236 -0.669 -0.00136
 0.236  0.436 -0.0221
 0.309 -0.430 -0.0140
 0.247 -0.454 0.0540
0.0239  0.949 0.0179
0.0827 -0.544 -0.0115
 0.244  0.950 0.0194
 0.137 0.0322 -0.0324
-0.189  0.475 0.0550
0.0194  0.290 -0.0313
-0.0758  0.843 0.0308
 0.128 -0.0956 -0.0296
-0.0781 -0.742 0.0207
0.0871 -0.00174 0.0195
 0.244 -0.388 -0.0151
 0.127 -0.179 -0.0219
 0.296  0.949 -0.0443
-0.0486 0.0504 -0.0607
 0.299  0.725 0.0542
-0.188 -0.836 0.00956
-0.142  0.457 -0.0431
 0.120  0.913 -0.0200
 0.197 0.0817 0.00828
0.0471  0.624 -0.0602
0.0302  0.468 0.00964
-0.235 -0.415 -0.00863
 0.200  0.582 -0.0122
 0.138 -0.346 0.00922
-0.302  0.384 0.0290
 0.248  0.238 0.00988
-0.126 -0.106 -0.0219
-0.300 -0.853 -0.0467
0.0335  0.311 0.0400
-0.303  0.123 0.0187
-0.131  0.262 0.0224
-0.129 -0.189 0.0580
 0.192  0.694 -0.0139
-0.204  0.635 0.0509
-0.225 -0.878 0.0592
-0.197 0.0817 -0.00243
-0.307 0.0296 -0.0121
-0.0893 -0.899 -0.0119
 0.295 -0.249 0.0324
 0.246 -0.158 -0.000343
-0.235  0.548 -0.0155
-0.0178  0.176 -0.0316
-0.236 -0.106 -0.00136
-0.196 -0.690 0.0581
-0.235  0.402 -0.0155
-0.194 -0.953 -0.0218
 0.127  0.457 -0.0219
 0.246  0.520 0.00152
-0.0881 -0.565 -0.00164
-0.0899  0.593 -0.0222
0.0911  0.176 -0.0125
0.0298  0.865 -0.0103
 0.296 -0.0217 0.0518
-0.204  0.887 0.0152
-0.0791 -0.252 0.00788
 0.191 -0.895 -0.00785
 0.251  0.190 -0.0546
 0.129 -0.628 -0.00550
 0.251  0.875 0.0300
 0.185 -0.763 -0.0550
-0.304  0.447 -0.0402
-0.197 0.0157 0.0472
-0.137 -0.784 0.00952
-0.136  0.353 -0.000747
 0.249 -0.659 0.0202
0.0240 -0.826 0.0258
-0.0176 -0.763 -0.0120
-0.0249 -0.953 0.00920
-0.247  0.262 0.0222
 0.247 -0.555 0.00992
-0.0890 -0.0434 -0.0320
 0.300  0.822 -0.0225
-0.0233 -0.304 0.0570
 0.130  0.770 0.000186
 0.224 -0.189 0.0592
0.0315  0.196 0.0199
 0.190  0.353 -0.000379
 0.128 -0.0434 0.0585
0.0289  0.777 -0.0505
 0.233  0.641 0.0470
-0.131  0.687 -0.0446
-0.267 -0.502 -0.0609
0.0286 -0.356 -0.000527
-0.0233  0.645 0.0570
 0.259 -0.297 -0.0495
-0.138 -0.628 0.0198
-0.371  0.874 0.0155
 0.128  0.353 -0.0308
-0.183 -0.645 -0.0427
-0.103  0.892 -0.0230
-0.235  0.687 -0.0282
-0.307  0.269 -0.0121
0.0904 -0.242 0.0472
0.0815  0.405 -0.000950
-0.0893  0.791 -0.0119
-0.140 -0.377 0.0401
 0.299 -0.512 -0.0324
 0.138 -0.701 0.00928
 0.189  0.855 0.000876
0.0775  0.552 0.0401
-0.134 -0.513 -0.0227
-0.189 -0.575 -0.000724
0.0145 -0.0539 0.0591
-0.188 -0.367 -0.0335
-0.0782  0.217 0.0151
 0.296 -0.752 0.0519
 0.199 -0.805 -0.00200
-0.234  0.801 -0.0231
-0.294  0.707 0.0203
 0.251 -0.346 0.0401
0.0500 -0.256 -0.0526
-0.129 -0.952 -0.0366
0.0335 -0.676 -0.0544
 0.308 -0.872 -0.00717
-0.0862 -0.450 -0.0408
 0.131  0.582 0.00903
-0.307 -0.335 -0.0316
-0.0799 0.0400 -0.00156
-0.235  0.141 -0.0154
 0.196 -0.0539 0.0186
 0.238 -0.948 -0.00200
-0.0766 -0.349 -0.0410
-0.0799 -0.680 -0.00156
-0.298  0.635 -0.0121
 0.300 0.0609 -0.0117
 0.299  0.933 0.0542
 0.197  0.249 -0.0398
0.0290  0.728 -0.000606
 0.306  0.123 0.00879
-0.246 -0.189 0.0530
 0.305  0.561 0.0191
0.0911  0.635 -0.0125
 0.195  0.196 0.0574
0.0337 -0.551 -0.0545
-0.0319 -0.575 0.0401
0.0247  0.419 -0.0455
 0.247 -0.00174 0.00990
 0.242  0.367 -0.0458
0.0802 0.0921 0.00932
 0.119 -0.127 0.0592
-0.247  0.491 0.0222
-0.137  0.833 0.00952
 0.200 -0.440 -0.0221
-0.0658  0.123 -0.0591
-0.0233  0.353 0.0570
-0.130  0.949 0.00483
-0.190 -0.283 -0.0114
 0.275 -0.169 -0.0610
 0.142 -0.910 0.0475
0.0193 -0.0643 -0.0123
-0.0188  0.603 -0.00178
-0.249 -0.805 0.0478
-0.0701  0.398 -0.0472
 0.233 0.0504 0.0589
 0.141 -0.282 0.0252
-0.259 -0.648 -0.0592
-0.139  0.718 0.0487
-0.0782  0.468 0.0148
 0.140  0.218 0.0178
0.0286 -0.888 -0.000511
 0.308 -0.194 -0.00717
 0.248  0.728 0.00990
-0.0217 -0.429 0.0187
-0.307 -0.106 -0.0222
-0.0829 -0.794 0.0567
0.0560 -0.878 -0.0612
-0.297 -0.189 0.00257
 0.305 -0.315 0.0191
-0.249 -0.732 0.0401
0.0815 -0.826 -0.000951
 0.170  0.801 -0.0605
-0.135  0.103 -0.0114
 0.245  0.123 -0.00779
 0.308  0.436 -0.0301
 0.251 -0.794 0.0401
0.0321 -0.742 0.0303
-0.136 -0.450 -0.000748
-0.0178 -0.158 -0.0316
 0.308 -0.621 -0.00717
-0.0208 0.0609 0.0398
 0.301  0.301 -0.0483
-0.186 -0.200 0.0197
-0.0806  0.273 -0.0315
-0.0299  0.301 0.0204
-0.296  0.516 -0.0515
 0.309  0.655 -0.0219
0.0827 -0.680 -0.0115
-0.198 -0.0226 -0.0124
 0.240  0.812 0.0186
-0.140  0.614 -0.0536
0.0891  0.318 0.00318
-0.140  0.207 -0.0536
 0.223  0.343 0.0511
 0.141  0.708 0.0252
-0.299 0.0504 0.0467
-0.0188 -0.523 -0.00178
0.0205  0.541 -0.00218
0.0827 -0.137 -0.0115
0.0201 -0.934 0.0474
-0.297 -0.575 0.0535
 0.199 -0.701 -0.00200
-0.302  0.937 0.0290
-0.252  0.739 -0.0563
-0.242  0.614 -0.0476
-0.307 -0.784 -0.0316
 0.170 -0.200 -0.0605
-0.140 -0.909 0.0401
-0.131  0.760 -0.0446
-0.235 -0.537 -0.0155
-0.187  0.582 0.00946
-0.0283  0.927 -0.00619
-0.0862  0.520 -0.0408
-0.307  0.854 -0.0317
-0.198 -0.753 -0.0124
-0.0791  0.645 0.00774
 0.138 -0.502 0.00916
-0.0211 -0.638 0.0397
-0.0258  0.822 -0.0121
-0.0319 -0.701 0.0401
 0.189  0.457 0.00988
-0.0726 -0.624 -0.0561
-0.249  0.593 0.0312
0.0824 -0.878 0.0552
 0.247  0.714 -0.0514
 0.309 -0.753 -0.0219
-0.185 -0.523 0.0487
-0.296 -0.909 0.0102
 0.133  0.113 0.0293
-0.197  0.447 -0.00245
 0.307  0.176 -0.0364
-0.195  0.363 0.0140
0.0789 -0.189 0.0196
0.0725  0.280 -0.0571
-0.0782 -0.106 0.0148
-0.179  0.502 -0.0573
 0.146  0.565 -0.0565
-0.136 -0.701 -0.000748
-0.0171  0.697 -0.0222
0.0290 0.0296 -0.000606
-0.0263  0.249 -0.0312
-0.0778 -0.746 -0.0525
-0.0726 -0.249 -0.0561
 0.132  0.224 -0.0421
 0.190 0.0713 -0.0505
 0.191  0.753 -0.00709
-0.246  0.203 0.0146
 0.307 -0.813 0.000107
 0.184  0.155 -0.0554
-0.138 -0.0643 0.0198
-0.0658  0.707 -0.0591
-0.0726 -0.186 -0.0561
-0.0286 -0.346 0.0101
-0.236 -0.169 -0.00136
 0.301 -0.0643 -0.0483
0.0918 -0.0435 -0.0219
-0.140  0.134 0.0401
 0.146 -0.603 -0.0565
-0.304  0.499 0.00842
0.0335 -0.221 0.0400
 0.246 -0.847 -0.000208
-0.269 -0.377 -0.0531
 0.184  0.311 -0.0553
-0.177 -0.544 -0.0487
-0.0856 -0.847 0.0189
-0.242  0.770 0.0565
0.0277 -0.419 -0.0107
-0.0278  0.440 0.00475
 0.306 -0.555 0.00879
 0.299 -0.120 0.0542
-0.0258 -0.836 -0.0121
0.0865 -0.471 -0.0444
0.0725  0.874 -0.0571
 0.258 -0.0122 -0.0584
0.0871  0.687 0.0195
-0.0658 -0.565 -0.0591
-0.246 -0.00607 0.0147
 0.129 -0.395 -0.0369
 0.307  0.867 0.0180
 0.142 -0.430 0.0475
-0.238 -0.711 -0.0412
 0.247  0.589 -0.0514
 0.239  0.927 -0.0399
 0.136 -0.952 0.00908
-0.126 -0.836 -0.0219
-0.240 -0.461 0.0291
0.0325 -0.523 0.0303
 0.237 -0.502 -0.0122
-0.138 -0.242 0.0198
-0.186  0.520 0.0197
0.0784 0.0609 -0.0534
-0.179 -0.437 -0.0573
 0.154 -0.892 -0.0516
 0.185 -0.335 0.0399
-0.00600  0.436 0.0592
-0.295 -0.0782 0.0527
0.0770  0.897 0.0318
-0.136  0.186 -0.000749
 0.245  0.624 -0.00588
-0.0869 -0.315 0.00862
 0.247 -0.120 -0.0513
0.0899 -0.315 -0.00253
-0.242  0.895 0.0565
 0.189 -0.805 0.0539
-0.193  0.308 -0.0446
-0.0319  0.801 0.0401
-0.304  0.582 0.00842
0.0908  0.739 -0.0307
-0.234 -0.106 0.0586
-0.0869 -0.408 0.00862
-0.267 -0.899 -0.0609
 0.138  0.833 -0.00115
-0.234  0.332 0.0471
-0.0829  0.144 0.0567
-0.0778  0.829 -0.0525
0.0775  0.792 0.0401
-0.0781 -0.162 0.0531
 0.194  0.144 0.0287
-0.190  0.585 -0.0491
-0.247 -0.329 0.0148
 0.249  0.176 0.0202
 0.307 -0.669 -0.0376
 0.127  0.676 -0.0219
-0.259  0.322 -0.0592
-0.196  0.217 0.0581
 0.303  0.249 0.0294
-0.0208  0.551 0.0398
-0.189  0.923 0.0550
 0.132  0.906 0.0397
 0.141  0.416 0.0325
-0.190  0.833 -0.0114
 0.237 -0.262 -0.0122
 0.140  0.281 0.0178
 0.177  0.457 -0.0495
-0.186 -0.0956 0.0197
 0.176 -0.482 -0.0500
-0.185 -0.335 0.0300
0.0889 -0.746 0.00498
 0.307  0.491 0.000107
-0.239  0.676 0.0399
-0.307 -0.669 -0.0222
-0.146  0.895 -0.0575
-0.249  0.123 0.0401
-0.140 0.0191 0.0301
-0.130  0.600 0.0153
 0.213 -0.565 0.0592
 0.309 -0.283 -0.0289
 0.296 -0.0652 0.0179
-0.0791  0.395 0.00787
 0.190  0.949 0.00964
-0.284 -0.0226 -0.0588
 0.189 -0.461 0.0539
-0.0781 -0.902 0.0531
 0.191 -0.645 -0.00785
0.0291 -0.339 0.0545
 0.296 -0.668 0.0519
0.0824 -0.607 0.0552
-0.293 -0.502 0.0306
-0.0174 -0.909 -0.0221
-0.252 -0.450 -0.0563
 0.186  0.614 0.0480
 0.266 -0.409 -0.0605
-0.188  0.936 -0.000581
0.0830 -0.367 -0.0226
-0.242 -0.948 -0.0469
 0.189 -0.753 0.00985
0.0248 -0.106 0.0321
-0.0278  0.753 0.00473
-0.131 -0.753 -0.0446
-0.0312 -0.0226 0.0306
0.0911 -0.231 -0.0125
-0.128  0.405 -0.0385
-0.0156 -0.158 0.0588
0.0882  0.482 0.0111
 0.192 -0.00172 -0.0223
-0.0289 -0.450 -0.0522
-0.307  0.217 -0.0316
 0.142 -0.618 0.0475
-0.0758  0.269 0.0308
 0.250  0.447 0.0304
-0.234 -0.242 0.0586
 0.296 -0.465 0.0251
 0.200 -0.544 -0.0122
-0.0999  0.488 0.0592
-0.0756 0.0191 0.0477
 0.247 -0.548 -0.0514
-0.128 -0.648 -0.0385
-0.296 -0.610 -0.0519
-0.299 -0.482 -0.0222
0.0217 -0.628 0.00808
0.0824  0.395 0.0552
-0.185 -0.851 -0.0536
-0.247 -0.242 -0.0527
 0.189  0.530 0.00986
 0.252 -0.937 -0.0551
0.0865 -0.794 -0.0443
 0.139  0.165 0.00918
 0.224  0.760 0.0592
 0.250 -0.607 0.0305
-0.153 0.0921 -0.0601
 0.141 -0.736 -0.0409
-0.295 -0.0156 0.0527
 0.266  0.541 -0.0605
-0.0791 0.0922 0.00757
0.0816  0.944 -0.000917
 0.266  0.415 -0.0605
 0.284  0.760 -0.0594
 0.128  0.509 -0.0309
-0.0881 -0.628 -0.00164
-0.188 0.0400 -0.0335
 0.170 -0.315 -0.0605
-0.249 -0.920 0.0308
-0.0772  0.520 0.0220
0.0396  0.541 -0.0578
 0.245  0.836 -0.0299
-0.317  0.913 -0.0190
 0.131 -0.555 0.00904
0.0240 -0.461 0.0258
 0.239  0.676 0.00829
-0.237  0.843 0.00868
0.0848 -0.952 -0.0189
 0.250 -0.137 0.0482
0.0889 -0.454 0.00498
-0.252  0.374 -0.0563
-0.297 -0.836 0.00263
 0.189  0.854 0.0539
-0.0276 -0.0817 0.00259
-0.297 -0.242 0.00261
-0.128  0.374 0.0470
0.0775  0.604 0.0401
 0.299 -0.892 0.0542
0.0315  0.144 0.0199
-0.120 -0.742 0.0591
-0.300  0.259 0.0392
 0.193  0.645 -0.0459
 0.119 0.00869 0.0592
-0.0176 -0.273 -0.0120
 0.200 -0.356 -0.0122
-0.196  0.687 0.00634
-0.132 -0.492 0.0299
 0.239 -0.398 0.0395
 0.142 -0.785 0.0475
 0.275 -0.753 -0.0610
-0.189 -0.690 -0.000718
0.0230  0.259 0.0178
-0.193 -0.252 0.0299
-0.129  0.666 0.00745
 0.191  0.409 -0.00699
 0.128  0.781 0.0585
 0.240  0.290 0.0186
-0.247 -0.625 0.0220
-0.0319  0.906 0.0401
-0.195 -0.899 0.0154
 0.298  0.343 0.00912
 0.128 -0.711 0.0585
0.0911  0.259 -0.0125
-0.188 -0.409 0.00958
-0.139  0.551 0.0487
0.0193 -0.200 -0.0123
-0.0339 -0.784 -0.0558
 0.295  0.679 0.0324
0.0863  0.207 0.0401
-0.243 0.0713 -0.0222
 0.249 -0.210 0.0201
-0.0791 -0.0121 0.00744
0.0302 0.0817 0.00964
 0.239 -0.815 -0.0399
 0.247 0.0504 0.00990
 0.191  0.294 -0.00785
0.0894 -0.826 0.0582
0.0894  0.332 0.0582
-0.0999 -0.231 0.0592
-0.237 -0.847 0.00868
 0.131 0.0609 0.00904
0.0194  0.655 -0.0313
-0.0904  0.707 0.0587
-0.134 -0.169 -0.0227
0.0275 -0.732 -0.0222
-0.0756 -0.283 0.0477
 0.190 -0.952 0.0131
 0.170 -0.252 -0.0605
 0.162 -0.429 -0.0610
-0.0486 -0.0539 -0.0607
0.0229  0.718 0.0579
-0.198 -0.200 -0.0312
-0.190  0.781 -0.0114
-0.246  0.759 0.00733
-0.190  0.428 -0.0491
-0.249 -0.669 0.0477
-0.136  0.728 -0.000747
 0.239 -0.899 0.00830
 0.250 -0.513 0.0482
0.0900  0.851 0.00425
-0.135  0.945 0.0547
-0.0176  0.509 -0.0120
 0.245 -0.325 -0.00778
 0.239 -0.221 -0.0399
-0.204 -0.826 0.0592
 0.252 -0.624 -0.0551
 0.140 -0.105 0.0179
 0.195 -0.0852 0.0574
-0.297  0.833 0.0535
-0.284  0.645 -0.0588
-0.193  0.902 -0.0446
-0.0786 -0.940 0.0131
-0.0862  0.666 -0.0408
-0.236  0.645 -0.00136
0.0815 -0.607 -0.000951
 0.195 -0.252 0.0574
0.0824  0.123 0.0552
-0.130 -0.950 0.0146
-0.0765 -0.297 -0.0411
-0.291 -0.551 -0.0555
-0.0289  0.217 0.0124
-0.244 -0.0330 -0.0321
 0.200 -0.106 -0.0122
-0.185  0.426 0.0487
-0.247  0.442 0.0150
-0.188 -0.148 0.00950
-0.197 0.0887 0.0472
-0.0178  0.332 -0.0316
-0.126 -0.0122 -0.0219
-0.297  0.332 0.00378
-0.0157  0.870 0.00714
-0.0242  0.415 -0.0468
0.0187 -0.127 -0.0220
0.0193 -0.575 -0.0123
0.0286 -0.940 -0.000518
-0.242 -0.586 0.0567
-0.243  0.937 -0.0224
0.0331  0.169 -0.0541
 0.136 -0.0226 -0.0225
0.0290  0.593 -0.000607
0.0427  0.832 -0.0496
 0.298 -0.920 0.00912
-0.188 -0.492 0.00956
0.0229 -0.878 0.0579
-0.187  0.280 0.00948
 0.135 -0.357 0.0564
0.0828  0.395 -0.0488
 0.239  0.489 -0.0399
-0.196 -0.638 0.00788
 0.132 -0.829 -0.0439
-0.371  0.927 0.0185
 0.296  0.103 0.0518
 0.186  0.374 0.0480
0.0229  0.541 0.0579
 0.137 -0.888 -0.00102
-0.127  0.551 -0.00233
-0.135  0.353 -0.0491
-0.306  0.812 -0.00186
 0.258  0.238 -0.0584
-0.0823 0.00175 -0.0474
 0.185  0.895 -0.0333
-0.0904 -0.482 0.0587
-0.138 -0.127 0.0198
 0.306 -0.377 0.00879
-0.0574  0.582 -0.0608
 0.245 -0.450 -0.00775
 0.186  0.676 0.0304
 0.241 -0.00172 0.0574
-0.0751  0.770 0.0401
-0.131 -0.0643 -0.0446
-0.298 -0.721 -0.00466
 0.178 -0.638 -0.0584
0.0145  0.927 0.0591
-0.0574  0.906 -0.0608
-0.275 0.0539 -0.0528
 0.135  0.581 0.0564
-0.135 -0.565 -0.0114
0.0205  0.384 -0.00218
 0.133 -0.231 0.0293
 0.247 -0.0956 0.00989
-0.297  0.176 0.00374
-0.177  0.676 -0.0489
0.0784  0.155 -0.0534
 0.291  0.697 -0.0566
-0.0233  0.113 0.0570
 0.296 -0.867 -0.0530
0.0824 -0.701 0.0552
-0.297  0.155 0.0535
-0.134  0.311 -0.0227
-0.120  0.290 0.0591
-0.153 -0.106 -0.0601
0.0350 -0.0295 -0.0434
-0.0815 -0.523 -0.0223
 0.291 0.0504 -0.0566
-0.304  0.144 -0.0402
-0.239 -0.377 0.0190
-0.239 0.0400 0.0190
 0.192 -0.179 -0.0223
-0.235 -0.475 -0.0155
 0.220  0.910 0.0128
-0.0799  0.343 -0.00156
-0.187  0.739 0.00946
0.0194  0.123 -0.0313
 0.249  0.572 0.0202
0.0789  0.363 0.0196
-0.302 -0.409 0.0290
-0.0278  0.648 0.00465
-0.0672  0.883 0.00761
0.0229 -0.262 0.0579
-0.135 -0.888 -0.0114
-0.252  0.561 -0.0563
-0.252 -0.753 -0.0563
 0.153  0.687 -0.0594
-0.193 -0.600 -0.0446
-0.349  0.880 -0.0248
 0.197 -0.398 0.00825
-0.0276 -0.478 0.00259
 0.189 0.0817 0.0539
 0.185  0.238 0.0399
-0.0781 -0.673 0.0531
-0.0345 -0.732 -0.0447
 0.250  0.374 0.0304
 0.140 -0.517 0.0528
 0.252 -0.342 -0.0553
0.0360  0.899 -0.0410
-0.0255 0.0400 -0.0222
-0.131  0.937 -0.0446
0.0824 -0.0434 0.0552
 0.192  0.130 -0.0151
-0.234 -0.273 -0.0209
-0.296  0.426 0.0105
-0.235 -0.593 -0.00863
 0.177  0.363 -0.0495
-0.0312 -0.815 0.0478
0.0290  0.332 -0.000606
 0.141  0.161 -0.0409
 0.197 -0.952 -0.0322
0.0255 -0.301 -0.0462
-0.0794  0.929 -0.00780
-0.131  0.134 -0.0446
0.0863 -0.283 -0.0446
-0.0778 -0.141 -0.0525
-0.293 -0.189 0.0481
-0.139 -0.450 0.0487
 0.296 -0.345 0.0519
-0.255 -0.116 -0.0474
-0.0205 -0.565 -0.0403
-0.0756 -0.523 0.0477
-0.246  0.714 0.0147
 0.298 0.0191 0.00912
-0.0823 -0.0921 -0.0474
-0.185  0.797 -0.0536
0.0775 -0.564 0.0401
0.0249  0.732 -0.0458
-0.299  0.739 -0.0222
 0.239 0.0921 0.0396
 0.145  0.877 -0.00833
 0.241  0.530 0.0574
0.0347 0.0539 -0.0436
-0.153 -0.283 -0.0494
 0.308  0.609 -0.00717
 0.200 -0.0643 -0.0315
 0.139  0.945 0.0185
-0.189  0.871 0.0550
-0.0233 0.0191 0.0570
 0.296 -0.564 0.0519
 0.239 0.0921 -0.0399
 0.128  0.405 -0.0309
-0.243 -0.753 -0.0117
0.0894 -0.169 0.0582
0.0335 -0.419 0.0400
-0.0756  0.415 0.0477
0.0291  0.464 0.0545
-0.259  0.812 -0.0592
0.0824  0.489 0.0552
0.0277 -0.794 -0.0107
0.0780 0.0409 0.0299
 0.132  0.777 -0.0439
 0.168  0.910 0.0127
 0.212  0.944 0.0582
0.0277 -0.669 -0.0107
 0.139 0.00869 0.00919
-0.195  0.123 0.0133
-0.296  0.892 -0.0519
-0.136  0.822 0.0548
-0.0242  0.290 -0.0468
-0.120 -0.638 0.0591
-0.136 -0.784 0.0548
0.0824 -0.440 0.0552
-0.0339 0.0921 -0.0558
-0.196 -0.249 -0.0384
-0.294 -0.659 0.0203
 0.169  0.196 -0.0527
0.0780 -0.282 0.0299
 0.189 -0.262 0.00985
0.0784  0.520 -0.0534
0.0235  0.759 0.0405
-0.0893  0.843 -0.0119
-0.0771 -0.210 0.0227
-0.100  0.906 0.0511
 0.308  0.286 -0.00717
-0.266  0.886 0.00703
0.0789 -0.513 0.0196
 0.247 -0.913 0.0540
 0.153 -0.158 -0.0594
 0.140  0.479 0.0178
 0.138  0.322 -0.00115
 0.244 -0.607 -0.0151
0.0815  0.770 -0.000952
 0.153 -0.0747 -0.0594
 0.192  0.489 -0.0223
0.0229  0.176 0.0579
0.0352 -0.363 -0.0435
-0.198 -0.450 -0.0124
-0.298  0.541 -0.00415
-0.225  0.269 0.0592
-0.198 -0.815 -0.0312
 0.137 -0.322 -0.0324
0.0500 -0.131 -0.0526
-0.145  0.881 0.00521
-0.135  0.509 -0.0491
 0.300  0.770 -0.0117
-0.247  0.103 -0.0527
-0.136  0.426 -0.000747
 0.194 -0.721 -0.0461
-0.259 -0.847 -0.0592
0.0911 -0.409 -0.0125
 0.130 -0.826 0.00176
0.0894  0.666 0.0582
 0.185  0.603 -0.0550
-0.0214 -0.200 0.0188
-0.0276  0.950 -0.0435
 0.301 -0.711 -0.0483
 0.138  0.624 -0.00115
 0.243 -0.718 -0.0463
0.0775 -0.356 0.0401
0.0334 -0.781 -0.0543
 0.241 -0.231 0.0574
-0.204 -0.210 0.0592
-0.0763  0.172 -0.0408
-0.138 0.0713 0.0198
 0.241  0.196 0.0574
-0.0756  0.186 0.0477
-0.0778 -0.391 -0.0525
 0.132 -0.742 0.0191
 0.302  0.374 0.0407
-0.196 -0.575 0.0581
-0.135 -0.210 -0.0114
-0.296 0.0817 0.0100
0.0217 -0.0122 0.00806
 0.190 0.0400 -0.000377
-0.242  0.207 -0.0476
-0.304 -0.909 -0.0402
-0.190 -0.0852 -0.0227
-0.135 -0.356 -0.0114
0.0230 -0.315 0.0182
 0.176 -0.565 -0.0500
0.0668  0.887 -0.00901
-0.0286 -0.158 0.0101
-0.126  0.801 -0.0313
-0.140 -0.586 0.0301
0.0815  0.134 -0.000951
-0.190  0.551 -0.0227
-0.186  0.322 0.0197
-0.307 -0.148 -0.0121
0.0291  0.840 0.0545
-0.140 -0.335 0.0301
-0.138 -0.826 0.0198
 0.244  0.395 -0.0133
-0.0890  0.436 -0.0320
-0.185  0.223 -0.0536
 0.162  0.269 -0.0610
-0.0188 -0.648 -0.00178
0.0187 -0.242 -0.0220
-0.238 -0.189 -0.0412
0.0471 -0.482 -0.0602
-0.0806 0.0748 -0.0315
-0.307 -0.377 -0.0222
 0.197  0.843 -0.0397
0.0828 -0.565 -0.0488
-0.304 -0.283 0.00842
-0.0819 -0.210 -0.0221
-0.172 -0.753 -0.0600
0.0828 -0.210 -0.0488
 0.140  0.672 0.0528
-0.0862 -0.867 -0.0408
-0.162 -0.0226 -0.0612
-0.193  0.791 0.0298
0.0828 -0.920 -0.0488
-0.0862 -0.930 -0.0408
-0.0856 -0.450 0.0189
 0.176 0.0296 -0.0504
 0.136 -0.137 -0.0225
-0.0856  0.603 0.0189
-0.189  0.130 0.0550
 0.299  0.541 -0.0324
 0.109  0.530 0.0592
 0.195 -0.169 0.0287
 0.190 -0.847 -0.000378
 0.250  0.687 0.0482
-0.00600  0.687 0.0592
0.0712  0.322 -0.0486
 0.132 -0.953 0.0514
 0.136  0.718 -0.0225
-0.0299 -0.388 0.0203
0.0328  0.426 0.0302
-0.298 -0.575 -0.0121
-0.247  0.804 0.0220
-0.0486  0.520 -0.0607
 0.186  0.426 0.0480
0.0772 -0.836 -0.0419
 0.237  0.551 -0.0315
-0.0156 -0.346 0.0588
-0.192 -0.953 0.0206
0.0291 -0.777 0.0545
-0.0263  0.468 -0.0312
-0.140  0.468 0.0301
 0.131 -0.388 0.00904
-0.293  0.593 0.0481
 0.275  0.332 -0.0610
-0.235  0.276 -0.0155
-0.247  0.906 -0.0527
-0.0751 -0.0435 0.0401
 0.241 -0.701 0.0574
-0.195 -0.794 0.0154
-0.0788 -0.784 0.0132
-0.146 -0.492 -0.0576
0.0862  0.781 -0.0440
 0.140  0.933 -0.0530
-0.0156  0.311 0.0588
 0.129 -0.655 -0.0373
 0.136 -0.221 -0.0116
0.0187  0.238 -0.0220
-0.0205  0.134 -0.0403
-0.131 -0.415 0.0226
-0.110 0.0400 0.0592
-0.0285 -0.262 0.0535
 0.289 -0.449 -0.0474
-0.0766 -0.704 -0.0410
 0.128 -0.492 -0.0303
 0.194 -0.878 -0.0463
0.0828  0.228 -0.0488
-0.0233  0.843 0.0570
0.0830  0.457 -0.0226
-0.0156 -0.440 0.0588
 0.279  0.891 -0.0147
-0.246 -0.507 0.0146
-0.275  0.409 -0.0528
 0.296  0.458 0.0519
 0.274  0.812 -0.0534
-0.00600 -0.847 0.0592
0.0710 -0.659 -0.0483
 0.251 -0.836 0.0401
0.0323 -0.628 0.0485
 0.296 -0.794 0.0519
 0.309 -0.472 -0.0140
-0.0999 -0.388 0.0592
-0.215  0.509 0.0592
-0.215 -0.335 0.0592
 0.251  0.148 -0.0546
0.0229  0.217 0.0579
-0.0289 -0.262 -0.0522
 0.296 -0.710 0.0519
 0.297 -0.293 0.0540
-0.0312  0.707 0.0306
-0.162 -0.948 -0.0608
 0.197  0.791 0.00828
 0.297  0.886 0.0540
-0.246 -0.795 0.00733
-0.249  0.530 0.0475
-0.138 -0.169 0.0198
-0.284 -0.221 -0.0588
-0.0869 -0.367 0.00862
-0.0862  0.739 -0.0408
 0.303  0.949 0.0158
-0.0201  0.165 0.00848
 0.139 -0.460 0.0178
 0.135  0.821 0.0564
-0.239 -0.0643 0.0190
-0.239 -0.283 0.0190
 0.142 -0.157 0.0324
0.0780 -0.668 0.0299
-0.234 0.0296 0.0586
-0.196  0.179 -0.0384
 0.224  0.886 -0.0203
-0.297  0.103 0.0535
 0.258 -0.847 -0.0584
0.0774  0.603 -0.0422
 0.128 -0.565 -0.0304
0.0193 -0.534 -0.0123
-0.0799  0.301 -0.00156
 0.244 -0.680 -0.0151
0.0239  0.624 0.0251
-0.215 -0.471 0.0592
 0.306 -0.659 0.00879
0.00433 -0.544 0.0510
 0.266 -0.0852 -0.0605
-0.190  0.395 -0.0227
 0.309 -0.242 -0.0219
0.0882  0.732 0.0104
-0.141 -0.440 -0.0429
0.0871 -0.930 0.0195
 0.196 -0.909 0.0395
0.0218 -0.878 -0.0395
-0.0756  0.103 0.0477
-0.275 -0.290 -0.0528
-0.234 -0.638 -0.0287
-0.0781  0.808 0.0531
-0.234 -0.377 -0.0220
-0.185 -0.920 0.0487
-0.298  0.304 -0.0311
0.0910 0.0921 -0.0311
-0.0339 0.00870 -0.0558
 0.284  0.614 -0.0594
-0.00506  0.896 -0.0222
 0.142  0.185 0.0475
 0.246 -0.953 0.0397
-0.244 -0.711 -0.00137
-0.172 -0.189 -0.0600
0.0443  0.920 -0.00249
-0.0726 -0.833 -0.0561
 0.119 -0.283 0.0592
-0.0406 -0.596 -0.0589
 0.241  0.822 0.0574
-0.0178  0.739 -0.0316
-0.0899  0.478 -0.0222
 0.185 -0.523 -0.0545
 0.239 -0.158 -0.0400
 0.200  0.624 -0.0122
-0.140  0.228 0.0400
 0.130 -0.0539 0.00176
-0.197 -0.534 -0.00239
-0.136  0.603 0.0548
-0.0904  0.645 0.0587
-0.0406  0.374 -0.0589
-0.307  0.395 -0.0121
-0.0267 -0.725 -0.00467
 0.189  0.322 0.0539
-0.0205  0.593 -0.0403
-0.248  0.520 -0.0406
-0.0156 -0.732 0.0588
-0.0574  0.259 -0.0608
-0.291 -0.812 -0.0555
-0.0286 -0.242 0.0101
 0.129  0.596 -0.0377
-0.276  0.228 -0.0606
-0.304 -0.325 0.00842
-0.190  0.846 -0.0491
 0.147 -0.781 -0.0474
 0.250  0.249 0.0482
-0.389  0.903 -0.00824
 0.186  0.520 0.0480
-0.198 -0.867 -0.0124
 0.299  0.579 0.0542
 0.213 -0.429 0.0592
-0.237  0.103 0.00868
-0.298  0.676 -0.00373
 0.213 -0.356 0.0592
0.0218  0.593 -0.0395
 0.190 -0.471 -0.000378
-0.0309 -0.948 0.0478
-0.243  0.238 -0.0117
 0.224  0.447 0.0592
-0.194 -0.721 0.0226
-0.0910  0.360 0.0471
 0.261  0.911 0.0140
-0.196 -0.311 -0.0384
-0.0799  0.551 -0.00156
 0.185  0.561 -0.0550
 0.298 -0.137 0.00912
-0.0763  0.360 -0.0408
 0.250 -0.262 0.0304
-0.296 -0.948 0.0108
 0.289 0.00958 -0.0474
-0.135 -0.555 -0.0491
0.0247  0.461 -0.0455
-0.126  0.582 -0.0313
 0.296 -0.774 0.0179
 0.299 -0.397 -0.0324
-0.0756 -0.0852 0.0477
 0.185 -0.0956 -0.0545
-0.0316  0.945 0.0401
-0.185  0.259 0.0487
0.0187  0.801 -0.0220
 0.307  0.134 -0.0364
 0.142  0.749 0.0402
0.0775 -0.794 0.0401
 0.245 -0.794 -0.00784
 0.252 -0.509 -0.0551
0.0828  0.645 -0.0488
 0.319  0.904 -0.0224
-0.0999  0.854 0.0592
-0.126  0.259 -0.0313
 0.136  0.815 -0.0483
-0.0781  0.224 0.0531
-0.142 -0.867 -0.0431
 0.274  0.916 -0.0534
 0.309 -0.586 -0.0219
-0.193  0.110 -0.0446
-0.244 -0.940 -0.00136
 0.244 -0.0226 -0.0223
-0.190  0.489 -0.0227
-0.0258 -0.315 -0.0121
-0.284  0.280 -0.0587
 0.119  0.384 0.0592
 0.153 0.0713 -0.0594
0.0984 -0.534 0.0513
-0.0319  0.415 0.0401
-0.298 -0.742 0.0508
 0.299 -0.835 -0.0324
 0.284 -0.127 -0.0594
-0.0339  0.687 -0.0558
-0.0726  0.617 -0.0561
-0.300 -0.231 0.0392
 0.153  0.332 -0.0594
 0.239  0.603 0.0396
-0.194  0.175 0.0208
 0.266  0.290 -0.0605
0.0275  0.697 -0.0222
-0.0811 -0.0747 -0.0118
-0.246  0.843 0.0529
-0.233  0.910 0.0220
-0.246 -0.315 0.0530
-0.0345  0.207 -0.0453
-0.189 -0.110 0.0550
-0.123  0.913 0.0163
-0.249  0.301 0.0311
0.0335  0.499 0.0400
-0.121  0.332 0.0507
 0.127 0.0817 -0.0293
-0.297  0.228 0.00353
-0.0276 -0.572 0.00259
0.0275  0.509 -0.0222
 0.142  0.249 0.0402
0.0331  0.325 -0.0541
-0.186  0.624 0.0197
 0.242 -0.304 0.0285
0.0910 -0.169 -0.0311
-0.239 -0.408 0.0402
 0.298  0.447 0.00912
0.0789  0.291 0.0488
0.0827 -0.492 -0.0115
 0.128 -0.318 0.0472
-0.0778 -0.485 -0.0525
0.0827 0.0191 -0.0115
0.0338 -0.447 -0.0546
 0.303  0.781 0.0294
 0.197 -0.221 -0.0395
-0.0339 -0.909 -0.0558
-0.303 -0.00172 0.0187
-0.293  0.906 0.0481
 0.296 -0.428 0.0519
 0.129 -0.916 -0.0376
-0.291 -0.760 -0.0555
-0.153  0.426 -0.0601
0.0871 -0.867 0.0195
0.0145  0.280 0.0591
 0.139 -0.595 0.0178
-0.0910  0.454 0.0471
0.0888  0.214 0.00339
-0.0214  0.123 0.0188
0.0277  0.436 -0.0107
 0.186 -0.0330 0.0480
 0.119  0.478 0.0511
-0.0904 -0.867 0.0587
-0.0255 -0.0539 -0.0222
-0.243  0.603 -0.0117
-0.0221 -0.857 0.0187
-0.284 -0.680 -0.0588
-0.0751 -0.586 0.0401
 0.233 -0.763 0.0589
 0.109 -0.0852 0.0510
0.0277  0.176 -0.0107
-0.0242  0.801 -0.0468
 0.192  0.801 -0.0299
 0.178 -0.920 -0.0584
 0.284  0.207 -0.0594
0.00924  0.916 0.00952
 0.301 -0.617 -0.0484
0.00433 -0.805 0.0510
-0.151  0.911 -0.0162
 0.185 -0.586 0.0399
 0.266 -0.262 -0.0605
-0.126  0.624 -0.0124
 0.195 0.0400 0.0574
0.0652 -0.0435 -0.0598
 0.244  0.186 -0.0151
-0.0156 -0.607 0.0588
-0.0312  0.207 0.0478
-0.131 -0.909 -0.0446
0.0291 -0.714 0.0545
-0.0356 -0.648 -0.0456
-0.110  0.739 0.0592
0.00430 -0.0122 0.0510
 0.141  0.802 0.0252
-0.189 -0.871 0.0550
 0.194 -0.805 -0.0463
 0.142 0.0495 0.0475
0.0500  0.661 -0.0526
-0.0899 -0.763 -0.0222
-0.249  0.395 0.0308
-0.290 -0.113 -0.0558
-0.296 -0.440 0.0102
-0.0890 -0.648 -0.0320
 0.190 -0.408 -0.0504
-0.193 -0.00520 -0.0446
0.0130  0.352 0.0511
 0.147  0.898 -0.0475
 0.194 -0.669 -0.0461
 0.241  0.311 0.0574
 0.200 -0.273 -0.0315
-0.299 -0.909 0.0467
-0.162  0.645 -0.0612
-0.130  0.777 0.0154
-0.0904 -0.127 0.0587
-0.185 -0.294 0.0300
 0.284 -0.492 -0.0594
-0.0904  0.603 0.0587
-0.0862  0.561 -0.0408
-0.0904 -0.711 0.0587
 0.128  0.322 0.0585
-0.0406 -0.169 -0.0589
-0.215 -0.721 0.0592
-0.0862  0.322 -0.0408
-0.239 -0.137 0.0402
 0.305 -0.596 0.0191
0.0862  0.927 -0.0442
-0.284 -0.325 -0.0588
-0.267  0.144 -0.0609
0.0910 -0.0956 -0.0311
 0.142 -0.0217 0.0324
-0.0815  0.113 -0.0223
-0.185 -0.669 0.0301
-0.278  0.915 -0.0120
 0.296  0.832 0.0179
 0.109 -0.794 0.0592
 0.304 -0.179 -0.0421
-0.0574 -0.325 -0.0608
-0.194 -0.0122 0.0222
 0.284 -0.325 -0.0594
 0.245  0.468 -0.00631
-0.194  0.238 0.0204
-0.304 -0.0747 -0.0402
0.0323 -0.492 0.0485
-0.249  0.217 0.0476
-0.190 -0.927 -0.0491
-0.0299 -0.753 0.0203
-0.130  0.391 0.0154
 0.194 -0.638 0.0280
 0.176  0.113 -0.0505
-0.0278  0.555 0.00454
 0.195 -0.763 0.0574
-0.234 -0.774 0.0586
 0.237  0.249 -0.0315
0.0871 -0.0435 0.0195
 0.105  0.911 0.0149
-0.198  0.332 -0.0124
-0.289  0.482 -0.0454
 0.147 0.000877 -0.0472
 0.250  0.478 0.0482
0.0984  0.906 0.0592
-0.162  0.770 -0.0612
0.0471 -0.210 -0.0602
-0.165 0.0191 -0.0516
-0.0277 0.0122 0.00392
-0.296 -0.0956 0.0101
-0.239 -0.148 -0.0411
 0.236  0.697 -0.0221
-0.249 -0.0435 0.0476
-0.0279 0.0644 0.00497
-0.130  0.297 0.0149
-0.288 -0.457 -0.0460
-0.238 -0.513 -0.0412
 0.223 -0.638 0.0511
 0.267  0.450 -0.0527
-0.198 -0.335 -0.0124
 0.236  0.739 -0.0221
-0.254  0.447 -0.0474
 0.223 -0.815 0.0511
 0.186 -0.711 0.0481
 0.200  0.447 -0.0221
-0.291 -0.405 -0.0555
 0.258 -0.784 -0.0584
-0.0286 -0.116 0.0101
-0.196 -0.781 -0.0384
-0.0809 -0.582 -0.0317
 0.250  0.781 0.0482
-0.225 -0.555 0.0592
0.0918  0.676 -0.0219
-0.196 0.0748 -0.0384
0.0291 0.0678 0.0545
-0.185  0.463 -0.0536
-0.185 -0.402 -0.0536
0.0984 -0.909 0.0592
 0.147 -0.229 -0.0472
-0.298  0.468 -0.0121
 0.213  0.113 0.0592
0.0918  0.374 -0.0219
0.0145  0.624 0.0591
0.0560  0.415 -0.0612
 0.300 -0.0852 0.0492
-0.0823 0.0435 -0.0474
 0.294 -0.210 0.0402
-0.0781 0.0678 0.0531
-0.0233 -0.523 0.0570
-0.307 -0.179 -0.0316
-0.184  0.384 0.0401
0.0241  0.885 0.0323
-0.132 -0.867 0.0299
-0.276  0.864 -0.0606
-0.135 0.0504 -0.0114
0.0639 -0.534 -0.0519
0.0859  0.520 0.0295
0.0256 -0.103 -0.0461
0.0250 -0.377 0.0330
-0.0856  0.812 0.0189
-0.187  0.415 0.00946
-0.198 -0.920 -0.0124
-0.0286 -0.617 0.0101
-0.140 -0.742 0.0301
-0.296  0.843 0.0101
 0.187  0.593 0.0201
 0.237 -0.189 -0.0122
 0.240  0.343 0.0186
0.0193  0.624 -0.0123
-0.188 0.0504 0.00949
-0.137 -0.690 -0.0339
 0.197  0.561 0.0396
 0.127  0.196 -0.0218
 0.129 -0.669 -0.00550
-0.0792  0.760 0.00720
-0.298 0.00174 -0.0311
 0.309  0.395 -0.0219
0.0287  0.256 -0.0503
0.0193  0.760 -0.0123
 0.241  0.927 0.0574
-0.248 -0.419 -0.0406
0.0339 -0.405 -0.0547
-0.153  0.176 -0.0601
 0.307  0.230 0.000107
0.0984  0.812 0.0592
 0.296  0.519 0.0179
 0.127 -0.356 -0.0219
-0.242 -0.440 0.0567
 0.138 -0.189 0.00922
-0.299 -0.878 -0.0222
-0.129  0.134 0.00750
-0.240 -0.565 0.0291
-0.276 -0.948 -0.0603
-0.0893  0.186 -0.0119
-0.0233 -0.0435 0.0570
0.0396 -0.607 -0.0578
-0.110 -0.815 0.0592
0.0652  0.186 -0.0598
 0.236  0.343 -0.0221
0.0286 -0.0956 -0.000527
-0.0700  0.784 -0.0474
0.0396 -0.920 -0.0578
0.0396 -0.742 -0.0578
-0.0431  0.890 -0.0158
-0.128 -0.252 -0.0385
-0.0208 -0.680 -0.0402
 0.119 -0.398 0.0511
 0.134  0.949 -0.0152
 0.200  0.927 -0.0316
 0.237  0.655 -0.0315
-0.0205 -0.0852 -0.0403
-0.292 -0.544 0.0401
0.0789  0.176 0.0196
-0.0312  0.374 0.0306
0.0227 -0.952 -0.0375
-0.140 -0.200 -0.0536
-0.212  0.889 -0.0181
-0.100 -0.565 0.0511
 0.253 -0.582 -0.0441
-0.300  0.617 -0.0467
 0.299  0.864 -0.0223
0.0789 -0.209 0.0488
 0.141  0.646 0.0252
-0.0299 -0.304 0.0203
-0.131 -0.207 0.0225
 0.245 0.0817 -0.00783
-0.0319  0.457 0.0401
-0.0811 -0.721 -0.0118
 0.213 -0.127 0.0514
 0.190 -0.586 -0.000378
-0.129  0.228 0.00790
0.0323 -0.169 0.0485
-0.249  0.165 0.0476
 0.300  0.697 -0.0117
 0.189  0.718 -0.0377
-0.177  0.269 -0.0494
-0.184 -0.0435 0.0401
 0.213 -0.0539 0.0514
-0.197 -0.242 -0.00239
-0.0764  0.874 -0.0341
 0.239 -0.440 -0.0399
0.0911 -0.273 -0.0125
-0.304  0.666 -0.0402
-0.236  0.760 -0.0348
-0.299  0.728 0.0467
-0.0242 -0.940 -0.0468
 0.267 0.0748 -0.0527
 0.223 -0.492 0.0511
-0.215 -0.648 0.0592
-0.0631 -0.892 -0.0520
-0.190 -0.721 -0.0227
 0.140 -0.349 -0.0530
-0.302 -0.815 0.0289
 0.136  0.482 -0.0486
-0.306  0.945 -0.0121
 0.245  0.781 -0.00653
-0.165  0.718 -0.0513
 0.213  0.666 0.0592
-0.235 -0.826 -0.0220
 0.203 -0.221 0.0473
-0.204 -0.408 0.0509
 0.223 -0.325 0.0511
 0.223 -0.596 0.0511
0.0275 -0.169 -0.0222
0.0652 -0.690 -0.0598
 0.109  0.103 0.0592
-0.0171 -0.440 -0.0222
0.0830  0.290 -0.0226
 0.243 -0.374 -0.0465
-0.292 -0.617 0.0401
-0.246  0.150 0.0147
-0.300 -0.304 0.0392
-0.0152  0.614 0.0471
 0.240  0.405 0.0186
-0.235  0.353 -0.0276
-0.110  0.123 0.0510
0.0218 -0.648 -0.0395
-0.0153 -0.0747 0.0474
0.0824 -0.106 0.0552
 0.189  0.426 -0.0513
0.0813 -0.763 -0.0332
-0.0752  0.885 0.0402
 0.185  0.113 0.0399
 0.308 -0.544 -0.0309
 0.308  0.192 -0.00717
 0.137 -0.0617 -0.0324
0.0789 0.0722 0.0488
-0.225 -0.0226 0.0592
-0.132  0.103 0.0299
-0.136 -0.784 -0.0339
 0.119  0.207 0.0592
-0.126 -0.628 -0.0124
 0.140  0.381 -0.0530
 0.305 -0.169 0.0191
0.0253 -0.520 -0.0461
-0.137 -0.0122 0.00952
-0.299 -0.753 -0.0222
 0.142 -0.648 0.0325
-0.299  0.113 -0.0222
 0.300  0.332 -0.0225
-0.0574  0.426 -0.0608
-0.194 -0.367 0.0226
-0.0486 -0.377 -0.0607
-0.235  0.471 -0.00863
 0.309 -0.315 -0.0140
 0.274  0.374 -0.0535
0.0323 -0.304 0.0485
0.0331  0.388 -0.0541
-0.198  0.144 -0.0124
-0.0829 -0.315 0.0567
-0.196  0.687 0.0581
-0.100  0.259 0.0511
 0.192  0.217 -0.0299
 0.357  0.897 -0.0174
-0.136 -0.408 0.0548
0.0859 -0.628 0.0295
0.0830 -0.711 -0.0226
-0.146  0.384 -0.0575
 0.299 -0.523 -0.00118
-0.242  0.405 -0.0476
-0.136 -0.137 -0.0338
-0.129 -0.669 0.00787
0.0182  0.927 -0.0218
-0.120 -0.315 0.0508
0.0569 -0.813 -0.0535
-0.0285 -0.388 0.0535
 0.187  0.311 0.0201
 0.187  0.207 0.0201
 0.301  0.843 -0.0483
-0.249  0.718 0.0475
 0.142  0.550 0.0475
-0.244 -0.857 -0.0316
-0.0339  0.489 -0.0558
-0.135 -0.0747 -0.0114
 0.296 -0.347 0.0179
 0.301  0.885 -0.0483
-0.0758 -0.137 0.0308
-0.0815 -0.377 -0.0223
0.0789 -0.148 0.0196
 0.236 -0.638 -0.0221
 0.236  0.155 -0.0221
 0.153 -0.388 -0.0594
-0.110 -0.346 0.0592
-0.135 -0.732 -0.0114
0.0639 -0.377 -0.0519
 0.187 -0.294 0.0201
0.0296 -0.857 0.00978
0.0290  0.113 -0.000606
 0.109  0.603 0.0510
-0.140 -0.0956 0.0301
 0.249 -0.0330 0.0202
0.0286 -0.763 -0.000511
0.0286 -0.701 -0.000511
 0.136  0.134 -0.0225
-0.193  0.349 -0.0446
0.0780  0.823 0.0299
 0.197 -0.0226 0.00828
-0.239 -0.701 0.0399
0.0889 -0.110 0.00498
0.0249 0.0400 0.0324
 0.139  0.739 0.00914
 0.127 -0.701 -0.0219
-0.127 -0.596 -0.00232
-0.0263 -0.502 -0.0312
 0.187 -0.0956 0.0201
-0.0726 -0.520 -0.0561
-0.302  0.676 0.0290
 0.239 -0.169 0.0394
-0.185  0.655 0.0300
0.0335 -0.0226 0.0400
 0.138  0.363 -0.00115
0.0230 -0.596 0.0183
 0.223 -0.888 0.0511
-0.120 0.00869 0.0591
-0.172 -0.356 -0.0600
 0.135  0.717 0.0564
-0.300 0.0330 -0.0471
-0.172 0.0504 -0.0600
 0.240 -0.127 0.0186
-0.303  0.645 0.0187
-0.237 -0.200 0.00868
-0.296 -0.516 -0.0519
 0.131  0.447 0.00904
-0.185 -0.121 -0.0536
0.0256 -0.0608 -0.0461
-0.0893 -0.836 -0.0119
 0.136  0.659 -0.0483
0.0830 0.0504 -0.0226
0.0784  0.447 -0.0534
 0.305 0.0504 0.0191
0.0256 0.00174 -0.0461
-0.140  0.687 0.0301
-0.299 -0.0330 -0.0222
-0.0856 -0.888 0.0189
-0.307 -0.638 -0.0316
-0.307 -0.815 -0.0222
-0.0312 -0.669 0.0306
-0.126  0.833 -0.0219
 0.196  0.384 0.0186
-0.0546  0.913 0.00706
-0.249 -0.252 0.0310
-0.0234 -0.784 0.0288
-0.294 -0.701 0.0203
-0.136  0.489 0.0548
 0.128 -0.948 -0.0308
0.0865 -0.867 -0.0443
 0.131  0.541 0.00904
 0.245  0.269 -0.00778
 0.306  0.384 0.00879
-0.234 -0.909 0.0586
-0.187 -0.867 0.0198
 0.129 -0.252 -0.00550
-0.188  0.864 -0.0224
 0.306 -0.742 0.00879
 0.306  0.739 0.00879
-0.126  0.760 -0.0124
-0.225  0.134 0.0592
 0.275 -0.534 -0.0610
 0.300 -0.148 -0.0225
0.0830  0.707 -0.0226
 0.239  0.854 0.00832
 0.282 -0.377 -0.0516
-0.254  0.290 -0.0474
-0.248  0.165 -0.0405
 0.133  0.614 0.0293
-0.0178  0.624 -0.0316
-0.139 -0.940 0.0487
-0.129 -0.137 0.0580
 0.240  0.207 0.0186
0.0789 0.00959 0.0488
-0.243 -0.346 -0.0223
 0.300 -0.0852 -0.0225
-0.185 -0.277 -0.0536
-0.0288  0.269 0.0119
 0.128  0.287 0.0472
 0.197  0.468 0.0396
0.0194 -0.909 -0.0313
-0.240  0.635 0.0291
 0.275  0.572 -0.0610
 0.127 -0.523 -0.0219
 0.291 -0.648 -0.0566
-0.136  0.478 -0.000748
 0.119 -0.450 0.0592
 0.306 -0.106 0.00879
-0.293  0.353 0.0306
-0.197 0.00870 -0.00240
0.0229 -0.0852 0.0579
 0.237 -0.356 -0.0122
 0.237 -0.711 -0.0122
-0.120 -0.0747 0.0508
-0.194  0.488 0.0215
0.0985  0.707 0.0510
-0.0176  0.791 -0.0120
-0.0176 -0.805 -0.0120
0.0335 -0.555 0.0400
-0.225  0.426 0.0511
-0.100  0.520 0.0511
 0.240 -0.690 0.0186
0.0911 -0.648 -0.0125
-0.0289  0.332 0.0125
-0.240 -0.888 0.0291
0.0315  0.854 0.0199
-0.299 -0.221 -0.0220
 0.153  0.520 -0.0594
-0.0899 -0.242 -0.0222
-0.284  0.739 -0.0588
-0.146  0.801 -0.0575
0.0315  0.561 0.0199
0.0871  0.259 0.0195
0.0291  0.787 0.0545
-0.215 -0.502 0.0510
-0.0799 -0.596 -0.00156
 0.233  0.165 0.0589
0.0859 -0.482 0.0295
-0.0156  0.770 0.0588
-0.242 -0.482 -0.0477
 0.147 -0.114 -0.0472
-0.126 -0.283 -0.0313
-0.00600 -0.701 0.0592
-0.0319  0.249 0.0401
0.0725  0.739 -0.0571
-0.0406  0.833 -0.0589
 0.131 -0.857 0.00904
0.0652  0.906 -0.0598
 0.132 -0.419 0.0191
-0.236 -0.774 -0.0351
 0.294 0.0200 0.0473
-0.146  0.238 -0.0575
-0.193  0.833 0.0298
 0.291  0.520 -0.0566
-0.0188  0.478 -0.00178
-0.00600  0.572 0.0592
 0.141 -0.0739 0.0251
-0.165 -0.826 -0.0512
 0.128 -0.881 0.0472
-0.189 -0.798 0.0550
0.0239 -0.0748 0.0250
0.0229 -0.461 0.0579
-0.261  0.781 -0.0524
-0.341  0.886 0.0145
-0.128  0.165 -0.0385
 0.200 0.0400 -0.0315
-0.225  0.196 0.0511
-0.293  0.426 0.0481
-0.293  0.509 0.0481
-0.189 -0.0156 0.0550
0.0217 -0.231 0.00806
-0.249  0.949 -0.0513
-0.137 -0.920 0.00952
-0.0751  0.728 0.0401
-0.236 -0.669 -0.0350
-0.249 -0.492 0.0477
-0.0289 -0.0226 -0.0522
-0.120 -0.878 0.0591
-0.246 -0.836 0.0531
-0.0312  0.520 0.0478
 0.239 -0.586 0.00830
-0.298 -0.290 -0.0311
 0.200  0.374 -0.0221
-0.291  0.836 -0.0555
 0.239 -0.408 0.00830
 0.295  0.270 -0.0408
-0.185 -0.586 0.0301
 0.295  0.792 -0.0408
 0.192 -0.742 -0.0223
 0.254 -0.186 -0.0446
0.0253  0.946 -0.0456
0.00444 -0.638 0.0592
-0.236  0.582 -0.0345
-0.204  0.343 0.0509
-0.292 0.0191 0.0401
0.0910  0.134 -0.0311
 0.194  0.677 -0.0461
 0.176 -0.283 -0.0501
-0.0980  0.887 0.0134
-0.0214  0.781 0.0188
-0.190 -0.398 -0.0227
 0.132 -0.920 0.0191
 0.141  0.432 -0.0409
-0.237 -0.137 0.00868
 0.186 0.0609 0.0304
-0.0406 -0.419 -0.0589
-0.249 -0.356 0.0401
-0.204 -0.252 0.0592
 0.294 -0.638 0.0402
-0.0751  0.624 0.0401
-0.176  0.912 0.0148
0.0780  0.865 0.0299
-0.225  0.927 0.0511
 0.296  0.854 0.0519
-0.190  0.520 -0.0114
 0.308 -0.805 -0.0304
 0.128 -0.221 0.0585
 0.192  0.322 -0.0223
-0.137 -0.388 0.00952
 0.141  0.255 -0.0409
 0.306 -0.221 0.00879
 0.247 -0.735 0.0540
 0.307  0.207 -0.0365
 0.296  0.135 0.0518
-0.246 -0.283 0.0530
-0.246  0.812 0.0529
0.0315  0.697 0.0199
-0.0829 -0.763 0.0567
 0.298  0.311 0.00912
0.0396  0.509 -0.0578
-0.120  0.155 0.0591
0.0824  0.363 0.0552
-0.0221 -0.826 0.0187
-0.0756 -0.252 0.0477
-0.0263 -0.534 -0.0312
0.0277  0.207 -0.0107
 0.162  0.238 -0.0610
-0.126  0.228 -0.0313
 0.306  0.155 0.00879
-0.0788 -0.523 0.0131
-0.0205  0.916 -0.0403
-0.239 -0.555 -0.0411
-0.131 0.0713 -0.0446
0.0828 0.0191 -0.0488
-0.235 0.0365 -0.0154
-0.215  0.457 0.0592
-0.246 -0.538 0.0146
-0.00600  0.144 0.0592
-0.194  0.207 0.0208
-0.153 -0.315 -0.0492
 0.284  0.144 -0.0594
 0.138 -0.315 0.00923
 0.186  0.770 0.0480
 0.170  0.770 -0.0605
 0.128 -0.753 -0.0126
-0.225  0.301 0.0592
-0.0574  0.301 -0.0608
-0.204  0.749 0.0509
-0.196 -0.607 0.00788
-0.0263 -0.189 -0.0312
-0.0258 -0.867 -0.0121
 0.200  0.770 -0.0315
-0.239 -0.909 -0.0411
 0.131  0.676 0.00903
 0.142 -0.690 0.0401
-0.303  0.468 0.0187
-0.0765 -0.711 0.0309
-0.129 -0.221 0.0580
-0.276  0.603 -0.0606
-0.276  0.687 -0.0606
-0.239 -0.753 0.0190
-0.243 -0.0643 -0.0117
-0.0658 -0.774 -0.0591
0.0865  0.353 -0.0443
0.0652  0.561 -0.0598
-0.295  0.245 -0.0390
 0.240 -0.502 0.0186
0.0780  0.437 0.0299
 0.246 -0.294 -0.000316
-0.234  0.478 0.0471
-0.0781 -0.0156 0.0531
 0.296  0.270 0.0519
 0.300  0.530 0.0492
-0.185  0.530 0.0487
-0.0893 -0.116 -0.0119
0.0334 -0.853 -0.0543
 0.186  0.718 0.0480
 0.133  0.311 0.0293
0.0352 -0.332 -0.0435
-0.193 -0.482 0.0401
 0.213 -0.0226 0.0592
 0.213  0.603 0.0592
 0.213  0.791 0.0592
-0.198  0.718 -0.0312
 0.252  0.878 -0.00944
0.0145 -0.116 0.0591
 0.297 -0.949 0.0180
-0.307  0.551 -0.0316
-0.0815  0.217 -0.0223
 0.200 0.0817 -0.0221
0.0780 -0.314 0.0299
-0.135 -0.00173 -0.0491
 0.242  0.123 0.0287
-0.0205 -0.826 -0.0403
-0.135  0.718 -0.0491
 0.139 -0.774 0.0193
-0.276 -0.586 -0.0606
0.0910 -0.325 -0.0311
-0.225  0.655 0.0592
 0.127  0.749 -0.0219
 0.306 -0.492 0.00879
 0.282 -0.680 -0.0516
 0.190 -0.158 -0.000379
0.0323  0.655 0.0485
 0.200  0.165 -0.0315
-0.190 -0.669 -0.0227
-0.0890  0.144 -0.0320
 0.213  0.833 0.0592
 0.194 -0.0222 -0.0454
-0.239  0.530 0.0190
0.0918 -0.575 -0.0219
 0.142 -0.575 0.0401
0.0815  0.436 -0.000950
-0.0799  0.269 -0.00156
-0.140  0.801 0.0301
-0.286  0.887 -0.0196
0.0789 -0.429 0.0196
-0.304 -0.137 -0.0402
0.0289  0.871 -0.0505
0.0816  0.864 -0.0223
 0.303  0.707 0.0293
 0.295  0.220 0.0324
-0.0486 -0.815 -0.0607
0.00430 -0.294 0.0510
-0.127 -0.294 -0.00232
0.0194  0.155 -0.0313
0.0772 -0.0643 -0.0419
-0.0486 -0.471 -0.0607
-0.0230 -0.513 0.0289
0.00433 -0.909 0.0510
0.0145 -0.669 0.0591
0.0830  0.332 -0.0226
-0.0276 -0.895 0.00259
0.0789 -0.242 0.0196
-0.127 -0.148 -0.00233
 0.128 -0.753 0.0585
-0.267 -0.711 -0.0609
 0.308 0.0982 -0.00717
0.0775 -0.762 0.0401
-0.0806  0.638 -0.0315
 0.307  0.804 0.000107
-0.205  0.949 0.0533
-0.100 -0.189 0.0511
-0.162  0.582 -0.0612
 0.142 -0.544 0.0402
-0.165 -0.607 -0.0510
-0.215 0.0504 0.0510
-0.247 -0.878 -0.0526
-0.165 -0.158 -0.0513
-0.0899 -0.0122 -0.0222
-0.0856 -0.659 0.0189
 0.197 -0.315 -0.0399
 0.200 -0.137 -0.0221
-0.293 -0.648 0.0481
 0.142 0.0913 0.0475
-0.0258  0.196 -0.0121
-0.198  0.238 -0.0312
0.0890  0.610 0.00413
 0.309 -0.721 -0.0219
-0.0843  0.155 0.0291
 0.194  0.822 0.0287
 0.303 -0.815 0.0294
-0.0858 -0.930 0.0398
-0.190 -0.169 -0.0114
 0.199 -0.482 -0.0315
 0.305  0.950 -0.0136
-0.324  0.880 -0.00885
 0.136  0.426 -0.0117
0.0811  0.949 0.0298
 0.300 -0.482 0.0492
 0.194  0.499 0.0287
-0.190  0.269 -0.0227
 0.300 -0.940 -0.0117
0.0465  0.891 0.0121
-0.240 -0.596 0.0291
-0.293 -0.794 0.0481
-0.302  0.614 0.0290
-0.140 -0.701 0.0401
-0.153 -0.419 -0.0601
-0.0279  0.722 0.00494
-0.0893 -0.346 -0.0119
-0.138  0.332 0.0198
 0.238  0.311 -0.00198
 0.136  0.572 -0.0225
-0.302  0.561 0.0290
-0.0881  0.499 -0.00164
 0.187 -0.826 0.0201
 0.187 -0.450 0.0201
