ply
format ascii 1.0
element vertex 2048
property float x
property float y
property float z
end_header
 0.384 0.0549  0.372
-0.401 -0.305 -0.862
-0.355  0.432 -0.191
-0.476 -0.221  0.750
 0.471 -0.110 -0.563
-0.320 -0.378 -0.0433
-0.219  0.497  0.606
 0.335  0.463 -0.170
-0.0490  0.199 -0.659
 0.276 -0.372 -0.0616
 0.140 -0.311  0.751
-0.456 0.0784  0.268
-0.0181 -0.342 -0.500
-0.453 -0.0312 -0.427
 0.309  0.486  0.614
-0.0309 0.0385 -0.191
-0.0119  0.525  0.164
-0.0414 -0.151  0.268
-0.118 0.0606  0.708
 0.455 0.0417 -0.0707
 0.165 -0.197 -0.876
 0.323 -0.353  0.387
 0.479 -0.109  0.719
 0.261  0.180 -0.423
-0.321 -0.363  0.422
 0.371  0.406  0.240
-0.105  0.228  0.368
5.00e-05  0.411 -0.318
-0.376 0.0711 -0.0864
-0.358  0.433  0.167
-0.356 -0.377 -0.400
 0.225  0.144  0.706
-0.430  0.204  0.624
-0.349 0.0485 -0.747
 0.386 -0.386 -0.382
-0.331  0.263 -0.477
-0.0273 -0.347 -0.171
 0.235 -0.113  0.120
-0.174 -0.304  0.753
 0.272 0.0654 -0.720
-0.137 -0.141 -0.862
 0.547  0.207 -0.317
-0.265 -0.0587  0.469
-0.443 -0.223  0.185
 0.119 -0.0875 -0.437
 0.101 -0.0563  0.505
 0.456 -0.222 -0.831
 0.165  0.303  0.432
 0.189  0.210 -0.133
-0.0182 -0.314  0.500
-0.174 -0.0809 -0.433
 0.238 -0.356 -0.619
0.0426  0.494  0.700
 0.377 -0.0953 -0.299
0.0916 -0.350  0.140
 0.446 -0.314  0.140
-0.180 -0.0680 0.0319
-0.377 -0.178 -0.208
 0.430  0.238  0.565
-0.118  0.508 -0.103
-0.295 -0.205 -0.628
-0.387  0.387  0.441
-0.0181  0.518  0.422
-0.183 -0.357  0.204
 0.137 0.0879  0.297
 0.400  0.297 0.0116
 0.124  0.517 -0.0507
-0.0910  0.171 -0.391
0.0545 0.0259 -0.824
-0.0273 -0.334 -0.766
0.0712 -0.126 -0.0523
 0.325 -0.251  0.606
-0.370 -0.00940  0.710
 0.440 -0.195 -0.0799
-0.485 -0.122  0.409
 0.210 -0.256 -0.254
-0.439  0.164 -0.290
0.0489 -0.0972  0.739
 0.373  0.115  0.149
 0.458 -0.151  0.304
-0.202 0.0382  0.273
 0.174  0.504  0.304
-0.415  0.233 0.0665
 0.431  0.115 -0.557
-0.219  0.500  0.332
-0.306  0.162  0.430
0.0735  0.298 -0.491
-0.449 -0.119 -0.0120
 0.268 -0.121  0.769
 0.175 0.0282 -0.254
-0.464 -0.131 -0.756
-0.164 -0.248 -0.299
-0.238  0.151 -0.227
 0.292 -0.141 -0.683
-0.0730 -0.254 0.0292
-0.328 -0.242  0.606
 0.265 -0.0479 -0.0748
 0.301 -0.187 -0.476
 0.366 -0.0569  0.551
 0.384  0.328 -0.337
 0.302  0.516 0.0847
-0.427  0.116 -0.575
-0.209  0.396 -0.323
-0.201  0.526 0.0847
-0.264 -0.172  0.255
 0.182 -0.350 -0.429
 0.192  0.379 -0.354
-0.207 -0.108  0.757
-0.156 0.0771 -0.774
-0.210 -0.345 -0.841
 0.265 -0.0892  0.314
-0.419 -0.375 -0.211
 0.305 -0.344 -0.851
-0.406  0.271  0.286
 0.380  0.124 -0.263
 0.393  0.262  0.369
-0.259  0.192  0.728
0.0210 -0.196 -0.298
 0.419 -0.376 -0.190
 0.143  0.188 -0.648
 0.448 -0.0954  0.121
 0.398 0.0649  0.726
-0.451 0.0235  0.542
 0.332  0.447  0.430
-0.251  0.160 -0.631
 0.146  0.510  0.514
0.0550 -0.347  0.331
-0.451 -0.225 -0.454
-0.332  0.366  0.672
0.0648  0.181 -0.268
-0.311 -0.00954 -0.310
-0.201 -0.259 -0.117
-0.0822 -0.0564  0.524
-0.0368 0.0541  0.352
 0.165 -0.317  0.495
0.0459  0.161  0.739
-0.373 -0.0588  0.149
-0.411  0.245 -0.126
 0.393 -0.268  0.774
0.0452 -0.0738  0.119
-0.392 -0.385  0.121
 0.283 -0.372  0.185
-0.191 -0.347 -0.455
-0.265 -0.246 0.0942
 0.128 -0.191  0.246
-0.445 -0.359  0.295
-0.355  0.440 -0.00677
-0.138  0.269 -0.525
 0.147 -0.336 -0.775
-0.140  0.377  0.448
-0.297 -0.167 -0.805
 0.247  0.145  0.426
-0.191 -0.312  0.524
 0.273 -0.0685 -0.842
-0.453 -0.0221 -0.217
-0.119 -0.340  0.360
 0.453 0.0414 -0.391
-0.128 -0.337 -0.628
-0.470 -0.106 -0.577
 0.165 -0.258 -0.00696
 0.150  0.462 -0.208
-0.453 0.0694 0.0664
-0.381  0.334 -0.334
-0.274  0.127 -0.400
 0.327 -0.187  0.432
 0.411 -0.0228 -0.721
-0.283 -0.206 -0.403
 0.362  0.340  0.673
-0.0182 -0.271  0.725
-0.491 -0.0984  0.647
 0.411  0.231 -0.147
-0.447 -0.290 0.000843
-0.336 -0.0298  0.328
-0.319 -0.234  0.780
 0.146  0.526  0.139
-0.0364 -0.0441 -0.362
-0.261 -0.368 -0.217
 0.329 -0.214  0.237
0.0641 -0.339 -0.638
0.0513  0.209  0.349
 0.483 -0.0964  0.454
 0.443 -0.205 -0.410
0.0641  0.155 -0.427
 0.366 -0.252 -0.272
0.0459 -0.343 -0.345
 0.441 -0.368  0.286
 0.111 -0.0587  0.342
 0.174 -0.0566  0.642
 0.285  0.156 -0.594
0.0177 -0.132 -0.876
-0.269 -0.343 -0.693
-0.307 -0.0921 -0.0640
 0.428 -0.356 -0.00677
-0.328 -0.196  0.450
 0.329 -0.250 0.0666
 0.448 0.0687  0.569
 0.407  0.223 -0.454
-0.300  0.504  0.478
 0.216  0.236 -0.278
 0.375  0.150 0.00216
-0.454  0.125  0.432
-0.0770 -0.192 -0.412
 0.156 -0.348 -0.144
-0.0365 -0.349  0.213
 0.407  0.278  0.176
-0.0725 -0.0695 -0.0688
-0.0266  0.383 -0.177
-0.256  0.324  0.375
 0.453 0.0143  0.249
 0.372 0.00519 0.0482
-0.149 -0.123  0.163
-0.230 -0.0317 -0.841
0.0297 0.0282  0.221
 0.237 -0.0439 -0.366
0.00311 -0.208 -0.151
-0.192 -0.0587  0.615
-0.0396  0.472  0.586
-0.0818  0.349 -0.417
-0.432 -0.259 -0.318
 0.238 -0.0569  0.469
-0.0967  0.155 -0.244
 0.131 0.0836 -0.109
 0.316  0.163  0.304
0.0276 -0.346 -0.00679
 0.285 -0.374 -0.272
 0.389  0.204  0.707
-0.420 -0.222  0.335
 0.374 -0.0130 -0.171
0.0214 -0.210  0.139
-0.441  0.141 -0.427
-0.0913  0.508  0.277
 0.278  0.105 -0.120
-0.0571 -0.252 -0.884
-0.155  0.106  0.411
0.0498 0.0509 -0.312
 0.293 -0.258 -0.144
0.0456  0.122 -0.727
 0.165 -0.214 -0.412
 0.449  0.161  0.441
-0.0547  0.151 -0.531
 0.307 0.0134  0.234
-0.397  0.261  0.505
 0.294 -0.214 -0.811
 0.269  0.508 -0.0585
-0.323 -0.132 -0.517
-0.183 0.00732 -0.266
 0.214  0.298 -0.472
-0.0732 -0.0127 -0.850
 0.218 -0.359 0.0664
-0.0913 -0.343 -0.363
-0.321  0.100  0.256
-0.209 -0.359 0.0481
 0.247 0.0144  0.735
-0.136 -0.0611  0.335
 0.363  0.425 -0.00670
 0.372 -0.0680 -0.430
-0.00901  0.529 0.0302
 0.444  0.178  0.268
-0.247  0.495 -0.0702
 0.391  0.362  0.536
0.0459 0.0321  0.705
 0.174  0.150 -0.519
 0.373 -0.123 0.0115
-0.282 -0.374  0.295
 0.284 -0.280 -0.379
 0.184 -0.243  0.137
-0.237 0.0132 -0.685
-0.295 -0.351 -0.537
0.0275  0.501 -0.140
 0.275  0.513  0.214
 0.142 -0.0632 -0.866
-0.119  0.451 -0.241
-0.0913 -0.168  0.772
-0.0547 -0.0569  0.670
-0.347 -0.0756  0.569
-0.452 -0.0859  0.249
-0.409  0.115  0.721
0.0367  0.525  0.304
-0.379 -0.132 -0.354
 0.119 -0.294  0.614
 0.265 -0.279  0.739
-0.327 -0.131  0.698
0.0550 -0.316 -0.872
 0.184 -0.352  0.332
 0.162 -0.0661 0.0254
-0.338 -0.259 -0.117
 0.164  0.496  0.660
-0.430 0.00829 -0.644
 0.445 -0.150 -0.199
-0.0181 -0.0587  0.414
 0.291  0.318  0.424
-0.100  0.185  0.720
 0.155 -0.177  0.774
-0.209  0.151 -0.505
-0.445  0.152  0.167
-0.146 -0.234  0.221
-0.109  0.478  0.690
 0.275  0.415 -0.268
 0.382 -0.115 -0.800
-0.265 0.0509  0.736
-0.119  0.512  0.496
 0.184 0.0368 -0.805
 0.294 -0.324 -0.729
-0.339  0.460  0.287
 0.314 0.00986 -0.281
-0.392 0.00491  0.432
-0.308 -0.251 -0.279
-0.338 -0.101 -0.709
-0.395  0.316  0.167
-0.230 -0.363 -0.336
 0.439 0.00116 -0.605
-0.319  0.215 -0.328
0.0916 -0.259 -0.217
 0.328 -0.113  0.652
0.0459  0.231 -0.588
 0.351 -0.106 -0.569
 0.382  0.355 -0.144
 0.128  0.186  0.439
 0.292 -0.324 -0.491
-0.345  0.442  0.579
-0.378  0.115 -0.199
 0.379  0.378  0.103
-0.210  0.318 -0.444
 0.287 -0.333  0.499
 0.202 -0.0438  0.224
 0.174  0.125 -0.363
 0.191  0.418  0.413
 0.338 -0.0587  0.405
-0.205 -0.287  0.639
-0.372 -0.0131 0.0391
 0.454 0.0325 -0.263
-0.147 -0.346 -0.199
-0.0318 -0.115 0.0390
-0.183  0.523  0.204
-0.379  0.363 -0.0982
 0.445 -0.206  0.186
 0.459 -0.0407  0.621
 0.326 -0.0958  0.195
 0.137 -0.341 -0.537
-0.277 -0.0963 0.0911
 0.248  0.129 -0.230
 0.440 -0.202 0.0665
-0.440 -0.202 -0.105
-0.440  0.179 -0.0339
0.0813  0.367 -0.390
-0.0456 -0.347 0.0938
-0.328  0.152 -0.509
0.0681  0.173 -0.148
 0.431  0.191 -0.343
-0.377 0.0784 -0.345
-0.0822 -0.348 -0.0433
 0.247 0.0107  0.369
-0.100 -0.00998  0.239
-0.210  0.180  0.343
 0.449 -0.0773 -0.0616
 0.436  0.204 0.0941
-0.220 -0.224 -0.868
-0.433  0.234  0.400
-0.390  0.343 0.0481
-0.320 -0.332  0.536
-0.229 -0.0599  0.215
 0.302  0.493  0.323
 0.329 -0.382 0.0756
-0.396  0.124  0.551
-0.283 -0.0651 -0.409
-0.455 -0.0586 -0.107
-0.295 -0.278 -0.784
0.0586 0.0885  0.401
-0.328 -0.315  0.702
-0.373 -0.232 0.0664
 0.300  0.234 -0.159
-0.0547 -0.259 -0.235
-0.358  0.250  0.697
-0.324  0.511 0.0939
-0.434 -0.0975  0.743
-0.274 -0.372  0.140
 0.377  0.115 -0.427
 0.166 -0.347 -0.299
-0.406  0.260 -0.244
 0.450  0.105 -0.162
-0.373 0.0601  0.167
 0.201  0.525 0.0390
-0.0752  0.143  0.297
-0.410  0.243 -0.398
 0.375 -0.150  0.773
0.000115 -0.293  0.607
 0.406  0.260 -0.253
 0.455 0.0144  0.121
-0.201 -0.359 -0.0616
0.0703  0.472  0.586
 0.384  0.105 -0.656
-0.274 0.0414  0.383
-0.447 -0.0784  0.503
-0.444 -0.151  0.103
 0.467 -0.257  0.326
-0.174  0.238  0.452
-0.228 -0.258 -0.00696
0.0388  0.127  0.274
 0.134 -0.123  0.163
0.0270 -0.215 -0.431
-0.183  0.173 -0.318
-0.396  0.341  0.578
 0.371 -0.0588  0.286
 0.317  0.308 -0.420
 0.146 0.0611  0.731
-0.146  0.149 -0.592
-0.198 -0.0821 -0.0728
-0.0504 0.0948 -0.766
 0.452 -0.0312 -0.491
-0.320 -0.236  0.186
 0.392 0.0249  0.488
 0.294  0.245 -0.519
 0.119  0.500  0.396
-0.355  0.124 -0.653
-0.252  0.454 -0.205
-0.331 -0.0477 -0.814
 0.456 -0.0405  0.368
-0.409 -0.201 -0.838
 0.113 -0.243 -0.323
-0.378 0.0418 -0.446
-0.331 -0.278  0.324
 0.327 -0.241  0.341
0.0250 -0.0820  0.223
0.00838 -0.206 -0.0254
 0.155  0.112 -0.736
-0.293 -0.233 -0.510
 0.284 -0.260 -0.0392
 0.406 -0.315 -0.858
 0.357 -0.0543  0.733
-0.137 -0.246  0.112
-0.164 -0.0587  0.441
-0.441 -0.322 -0.0980
 0.292 -0.260 -0.647
0.0550 -0.345 -0.107
-0.372 -0.141  0.213
-0.448 -0.0203  0.348
-0.237  0.242 -0.546
-0.0640 -0.0319 -0.260
 0.302  0.125 -0.345
 0.338 -0.384  0.277
-0.453 -0.00364  0.185
-0.128  0.524 0.0111
-0.382  0.363  0.341
-0.371  0.124  0.359
-0.446 0.0691  0.634
-0.100  0.527  0.112
 0.110  0.422 -0.293
0.0725 -0.0376 -0.360
 0.108  0.261 -0.180
 0.239 -0.308  0.586
-0.238 -0.0587  0.350
 0.247  0.506  0.496
-0.320  0.506  0.377
 0.449 -0.103 -0.372
 0.399 -0.157 -0.489
 0.453 0.0871 0.0207
-0.451 -0.122 -0.472
-0.256 -0.0406  0.691
 0.219  0.514  0.395
-0.374 -0.187 -0.0250
0.0641 -0.234  0.771
0.0540 -0.0530 0.0200
-0.0366  0.277 -0.524
-0.0653 -0.261 -0.0925
-0.375 -0.128  0.392
-0.446 -0.141 -0.272
-0.0151 -0.109 -0.437
0.0916 -0.247 0.0762
 0.220 -0.233  0.231
 0.142  0.243 -0.561
-0.291  0.345 -0.379
-0.118  0.518  0.395
9.61e-05  0.465 -0.230
 0.276 -0.0704 0.0391
 0.392  0.271  0.469
 0.143  0.147 -0.214
 0.375 -0.378 -0.0891
-0.455 0.00527 -0.0159
 0.202  0.179  0.343
 0.204 -0.284 -0.845
-0.356 -0.376 -0.299
-0.128 -0.336 -0.729
 0.341 -0.00386 -0.790
 0.441  0.168 -0.0706
 0.421 -0.0903 -0.647
-0.140 -0.0361  0.743
0.0641 -0.324  0.445
-0.100 -0.281  0.670
-0.378 -0.269 -0.400
 0.381 -0.281 -0.427
-0.444  0.151 -0.135
 0.256 -0.0587  0.588
-0.155 -0.151  0.274
-0.230 -0.354  0.376
-0.0529 -0.0788  0.129
 0.128 -0.348 -0.0250
-0.296  0.260  0.438
-0.128  0.128 -0.694
0.00929 -0.0587  0.560
 0.375 -0.104 -0.134
 0.391  0.372  0.408
 0.128 -0.351  0.231
-0.446 0.00560 -0.547
-0.451 0.00513 -0.336
 0.438  0.156  0.618
-0.356 -0.381  0.213
 0.228  0.488 -0.145
-0.375  0.142 0.0298
-0.348 -0.0954 -0.612
0.0916 -0.259 -0.0800
-0.255 0.0686 -0.765
-0.376 -0.110 -0.137
-0.401 -0.383 0.0116
0.0875  0.525  0.217
-0.405  0.278 -0.0341
-0.295 -0.306 -0.446
-0.110 -0.322  0.468
 0.385 0.0326  0.633
 0.393  0.316  0.268
-0.502  0.189 -0.369
-0.429 -0.258 -0.196
 0.274 -0.0961 -0.439
 0.432 -0.348 -0.281
-0.0326 -0.0495  0.294
0.0824  0.149 -0.556
-0.445  0.178  0.322
 0.256 -0.368 -0.180
 0.368  0.393 -0.256
-0.0406 -0.232  0.216
0.0658 -0.150 -0.372
-0.293  0.499  0.213
-0.274 -0.260 -0.190
 0.220 0.0450  0.276
-0.374  0.186  0.255
 0.451 -0.201  0.740
-0.375 -0.0222 -0.0616
 0.201 -0.259 -0.117
 0.284 -0.241  0.158
-0.350  0.467 -0.0979
 0.145  0.213 -0.337
 0.348 -0.119  0.103
-0.0748  0.163  0.430
 0.146 -0.0912  0.726
 0.432 -0.242 -0.180
 0.180 -0.0886 -0.0709
 0.323  0.136  0.697
 0.311  0.154 -0.499
 0.438 -0.192 -0.317
0.0743 -0.222 -0.885
0.000126  0.122 -0.234
-0.439 -0.0935 -0.673
-0.128 -0.299 -0.835
-0.201 -0.0398 -0.353
0.000139  0.186 -0.336
-0.0273  0.516 -0.0653
 0.393 -0.133  0.388
 0.232  0.264  0.368
-0.365 -0.379 -0.135
-0.454 -0.0583 0.0938
-0.0364 0.00510  0.740
-0.376 -0.0588 -0.254
-0.446 -0.314  0.167
 0.137  0.179  0.736
-0.0364 -0.351  0.313
-0.382  0.346 -0.217
-0.374 -0.104 0.0572
 0.371 0.0875  0.286
-0.198 -0.216 -0.439
 0.452 -0.0768  0.231
 0.285  0.365 -0.346
0.0824 -0.344 -0.254
-0.0918  0.318  0.384
 0.447 -0.114 -0.732
-0.0665 -0.141 -0.336
-0.455 0.0417 -0.126
0.0641  0.515  0.468
 0.216 -0.141  0.238
0.0916 -0.341 -0.446
-0.307 -0.378 0.0481
0.0913  0.295  0.378
 0.310  0.228  0.424
-0.374 -0.160  0.777
-0.310 0.0132  0.228
-0.399 -0.0438 -0.747
-0.294 0.0688 -0.265
 0.374  0.188  0.208
 0.373 -0.00395 -0.0432
 0.442 -0.287 -0.0801
0.0382 -0.00186 -0.237
 0.454  0.105  0.213
-0.0910  0.405 -0.327
 0.165  0.106  0.411
-0.0273 -0.344 -0.263
0.0641 -0.336 -0.729
-0.164 -0.257 -0.208
 0.292 -0.205 -0.564
-0.183  0.156 -0.418
 0.332  0.483  0.520
 0.270 -0.369 -0.394
 0.325 -0.187  0.706
 0.452 -0.0590 -0.162
 0.192  0.295 -0.180
-0.210 -0.341 -0.592
 0.302 -0.127 -0.0540
-0.264  0.519 0.0212
-0.294  0.397 -0.292
 0.238 0.0759 -0.305
-0.402 -0.0994  0.658
 0.163 -0.338 -0.665
-0.356  0.167 -0.416
-0.458 -0.273  0.273
-0.402 -0.268  0.773
-0.449 -0.0198  0.647
 0.127 0.0979 -0.293
 0.372 -0.205  0.130
-0.177 -0.280 -0.381
-0.0241 -0.128 -0.115
 0.410 -0.380  0.203
 0.456 0.0523  0.424
0.0630 -0.134  0.285
 0.229 -0.252 0.0538
0.0458 -0.0567  0.661
0.0276 -0.0862 -0.302
-0.324  0.223  0.363
 0.438  0.188  0.358
-0.119 0.0167  0.372
-0.171 0.0920 -0.245
-0.430 -0.340 -0.369
 0.137 0.0113  0.254
 0.192 -0.283  0.662
-0.410  0.183 -0.513
 0.472 -0.0528  0.536
-0.140  0.473  0.577
 0.376  0.115 -0.117
 0.416 -0.375 0.0846
 0.445 -0.274 0.0143
-0.174 -0.196  0.777
-0.136 -0.261 -0.0300
-0.369 -0.0588  0.240
0.0733 -0.0564  0.423
-0.300 -0.110  0.176
0.0459 -0.234  0.221
 0.456 -0.0315 0.0116
-0.183  0.470 -0.146
 0.350  0.470  0.140
-0.0517 -0.335 -0.859
-0.328  0.158 -0.255
 0.402  0.277 -0.0741
-0.00891  0.326 -0.457
 0.371 -0.0220 -0.357
-0.292 -0.106  0.304
-0.0547 -0.337 -0.683
-0.353 -0.204 -0.455
-0.00905 -0.337 -0.592
 0.319 0.0330  0.691
-0.00900 -0.334  0.401
-0.319 -0.335 -0.844
-0.325 -0.196  0.350
-0.191  0.140  0.734
0.0366  0.181 -0.665
 0.377 -0.168 -0.254
 0.183  0.524  0.222
 0.176 -0.352  0.152
 0.230  0.223 -0.571
 0.371 0.0557 -0.724
-0.101 0.0436 -0.243
-0.328 -0.150  0.606
 0.359 -0.261 -0.0908
 0.250 -0.0104 -0.688
 0.360  0.423  0.587
-0.378 -0.0678 -0.446
 0.123  0.499 -0.136
 0.394  0.124  0.533
 0.375 -0.204 -0.851
 0.327 -0.132  0.542
-0.0546  0.494 -0.161
 0.372 -0.214 0.00250
-0.449 0.0785 -0.226
-0.219 -0.121 -0.861
-0.237  0.512  0.413
-0.312  0.195 -0.580
-0.0364 -0.261 -0.385
-0.375 0.0327 -0.180
-0.128  0.154 -0.482
-0.329 -0.0569  0.414
-0.252 -0.277  0.738
-0.110 -0.250  0.768
-0.396 0.0694  0.487
 0.110 -0.347 0.0572
-0.256  0.113  0.309
 0.449 0.0654 -0.471
-0.167 -0.352  0.286
-0.374  0.397  0.241
-0.439 -0.336 0.0704
0.0538  0.407 -0.175
-0.365 -0.0388 -0.367
 0.155 -0.0353 -0.348
 0.256 -0.198 -0.406
-0.363  0.419 0.0846
-0.275 -0.374 -0.135
0.0824 -0.308  0.540
-0.451 0.0595 -0.409
 0.121  0.375  0.428
-0.299  0.464  0.645
-0.457 0.0573  0.383
 0.193  0.420 -0.282
-0.377  0.175  0.124
-0.0639  0.125 -0.327
-0.365 -0.383  0.303
 0.192 -0.0566  0.359
 0.364  0.197 -0.547
-0.303 0.0623 -0.674
 0.310 0.0799  0.401
-0.0730 -0.302  0.561
 0.332  0.502 0.00865
 0.357 -0.140  0.274
0.0916 -0.0587  0.588
 0.146  0.153 -0.437
-0.201 -0.0587  0.533
 0.327 -0.269  0.441
 0.449 -0.0497 -0.308
 0.372 0.0144  0.130
-0.147 -0.0481 -0.862
 0.357 -0.105 -0.722
-0.281 -0.318  0.628
 0.208 -0.135 -0.842
-0.100 -0.342 -0.500
-0.328 -0.196  0.533
 0.415  0.187 -0.217
 0.442 -0.303  0.236
0.0331 -0.149 0.0755
 0.377 0.0509 -0.226
-0.128 -0.347 0.0389
 0.201  0.231  0.450
0.00921  0.511  0.532
 0.454 0.0963  0.121
-0.325 -0.123  0.487
 0.295 -0.214 -0.720
0.0641  0.527 0.0664
-0.369 0.0418  0.286
-0.337  0.142  0.694
 0.403 -0.208  0.340
-0.110 -0.0286 -0.328
-0.435 -0.332 -0.281
 0.475 -0.143  0.388
 0.245  0.474  0.664
 0.238  0.467  0.580
 0.128 -0.0128  0.702
-0.301 -0.0648 0.0200
-0.0548 -0.0999  0.748
-0.444  0.152 0.0846
 0.368  0.431  0.358
-0.175 -0.355  0.121
 0.228  0.523  0.149
 0.234  0.182 -0.651
 0.399 -0.123  0.687
-0.228  0.115 -0.694
-0.311  0.127 -0.327
-0.410  0.281  0.633
-0.210 -0.337 -0.747
 0.342  0.486  0.249
-0.192  0.254  0.365
-0.266 -0.343  0.477
-0.415  0.305  0.432
-0.109  0.301  0.460
 0.403  0.260  0.652
-0.450 0.0868 -0.308
-0.0674 0.0773  0.252
-0.442  0.196  0.505
 0.379 -0.141 -0.400
 0.101 0.0756 -0.782
 0.182 -0.333  0.409
 0.101  0.448  0.660
0.0788 0.0936 -0.230
 0.255  0.189 -0.339
-0.295 -0.269 -0.683
 0.274 -0.0604  0.718
-0.296 -0.128  0.771
-0.356 -0.00193 -0.686
-0.0212 -0.342 -0.421
 0.138  0.332 -0.433
-0.457 -0.115  0.336
-0.276 -0.373 -0.400
 0.323 0.0177 -0.673
-0.449 -0.110 -0.168
-0.443 -0.177 -0.363
 0.431 -0.267 -0.363
-0.379  0.158 -0.0795
 0.296 -0.200  0.778
 0.341 -0.234 -0.352
-0.190  0.489  0.473
-0.292 -0.0587  0.624
-0.146 -0.347 -0.116
 0.374 -0.202 -0.147
-0.192 -0.329  0.440
 0.337 -8.81e-05  0.342
-0.146  0.367 -0.377
-0.379 0.0328 -0.281
 0.105 -0.150 -0.855
-0.373 0.0601 0.0665
 0.373 0.0692 -0.0158
 0.380 0.0875 -0.354
-0.326 -0.136 -0.428
 0.174 -0.0566  0.533
 0.329 -0.376 -0.208
 0.292 -0.297 -0.564
 0.226  0.340  0.384
-0.256  0.519  0.140
-0.0798 -0.0600 0.0111
 0.430  0.204 0.0151
-0.444 -0.142  0.185
-0.0547 -0.149 -0.853
0.0184 -0.160  0.773
 0.311 -0.0566  0.496
-0.240 -0.00996 -0.768
-0.249  0.389  0.417
 0.386  0.252 -0.354
-0.411  0.247  0.213
-0.340  0.426  0.358
 0.119  0.156  0.330
 0.229 -0.342 -0.766
-0.368  0.408  0.513
-0.456 0.0783  0.185
-0.201 0.0237  0.702
 0.435  0.125  0.689
 0.241 -0.210 -0.867
 0.220 -0.228  0.774
0.0459 -0.160  0.199
-0.454 -0.196  0.268
 0.448 -0.119 0.0481
-0.355 0.0598  0.680
 0.339  0.176 -0.400
 0.433 0.00458  0.694
-0.0399  0.195  0.341
 0.411  0.245  0.290
-0.185  0.356  0.389
-0.0274  0.505  0.341
0.000139 -0.00769 -0.304
 0.204 -0.301 -0.374
0.0927  0.269  0.450
-0.113 -0.0936 0.0842
-0.353 -0.0754  0.744
0.0641 -0.313  0.752
-0.228 -0.233  0.228
 0.293 -0.303  0.651
 0.199 -0.360  0.256
-0.0273 -0.0679 -0.875
-0.438 -0.199 0.0451
 0.308  0.114 -0.674
 0.348 -0.258 -0.199
 0.327  0.468 -0.0864
-0.439 -0.0736  0.578
-0.286 -0.352 -0.620
 0.192  0.147 -0.592
-0.457 0.0327  0.460
 0.452 0.0234 -0.144
0.0276 -0.349 0.0756
-0.449 -0.0679 -0.354
-0.110 -0.349  0.231
-0.0182 0.0776  0.730
-0.306 -0.228 -0.849
-0.219 -0.134  0.205
-0.228 -0.237 -0.337
-0.110 -0.0610 -0.396
 0.327 -0.315  0.560
 0.378 0.0418 -0.460
 0.398  0.205  0.505
-0.198 -0.106  0.108
 0.201 -0.0808 -0.433
 0.357 -0.378 -0.00590
-0.239  0.302  0.461
 0.435 -0.332 -0.421
-0.430 0.0456  0.703
 0.149 -0.0969 0.0944
0.0635 -0.0519 -0.0591
-0.0322  0.152 -0.433
 0.444  0.123 -0.372
-0.0208 -0.214 0.0773
 0.227  0.202 -0.197
 0.373  0.166 0.0842
-0.0641 -0.239 -0.306
 0.192  0.362  0.469
-0.325 -0.223  0.706
0.0459  0.518 -0.0524
 0.432  0.155 -0.471
 0.373 -0.0862 -0.0615
 0.302 -0.0912 -0.629
-0.191  0.440 -0.251
-0.414  0.199  0.696
 0.128 -0.310 -0.862
0.0727  0.473 -0.218
-0.373 -0.150  0.121
-0.374 -0.187 -0.135
-0.375 -0.0405 -0.162
-0.389 -0.135 -0.811
 0.385  0.150  0.407
0.000280  0.528  0.240
9.99e-05 -0.0563  0.487
-0.293 -0.278 -0.610
 0.389  0.342  0.341
 0.146 -0.0587  0.432
-0.132 -0.0708  0.212
 0.441 -0.305 -0.217
-0.445  0.169  0.249
-0.128 -0.0587  0.661
-0.442  0.160 -0.208
-0.377 -0.0541  0.505
0.0916 -0.257 0.00208
-0.347 -0.259 -0.199
 0.325 -0.214  0.542
0.0458  0.521  0.377
-0.165  0.506  0.277
-0.390  0.142  0.625
-0.238  0.187  0.439
 0.165 -0.101  0.307
-0.455 -0.0130  0.258
-0.247 -0.187  0.776
 0.329 -0.260 -0.865
 0.250 -0.353  0.376
-0.336  0.446  0.450
0.0733 -0.281  0.670
0.0382 -0.0399  0.311
-0.146 -0.343 -0.272
-0.402 -0.295  0.317
-0.0176 -0.115 -0.0431
-0.201 0.0411  0.384
-0.0821 -0.0587  0.597
-0.295 -0.300 -0.373
0.0824  0.125 -0.363
 0.453 -0.0312 -0.418
-0.406  0.160 -0.363
-0.122  0.197 -0.652
-0.0365  0.151  0.712
 0.348 -0.376 -0.309
 0.284 -0.149 -0.842
-0.238 -0.0565 -0.0155
-0.174  0.123  0.316
 0.441 -0.195 -0.00672
-0.261  0.281 -0.480
-0.0494 -0.102  0.198
-0.346 -0.260 -0.0446
0.0334 0.0422  0.339
-0.389  0.325  0.241
0.0885 -0.253 -0.390
 0.110 -0.0135 -0.296
-0.0913 -0.124 -0.430
-0.347 -0.377 -0.208
 0.237 0.00337 -0.757
 0.311 -0.379 -0.135
 0.366 -0.0587  0.624
-0.0392 -0.148  0.114
-0.228 -0.256 -0.245
 0.211  0.338 -0.410
0.0275  0.152 -0.509
-0.146  0.127 -0.363
 0.128 -0.342 -0.382
-0.450  0.105 -0.0798
 0.434 -0.241 -0.254
-0.283 -0.0587  0.542
-0.453 0.0143  0.112
 0.296 -0.251 -0.286
 0.119 -0.157 -0.421
-0.292 -0.132 -0.638
-0.378 -0.251 -0.263
-0.379  0.115 -0.460
 0.369 -0.159  0.185
-0.373 0.0418 -0.00665
 0.386  0.343 -0.0532
 0.448 0.0770 -0.318
0.0459 -0.350  0.194
 0.431  0.226  0.418
0.0458 -0.0736 -0.425
 0.468 -0.175 -0.480
-0.0730 -0.345 -0.116
 0.448 -0.115 -0.280
0.0550  0.528  0.140
 0.303 -0.250 -0.443
-0.155 -0.253 0.0383
 0.412 -0.0932  0.450
 0.201 0.0712 -0.107
 0.328 -0.0522 -0.00613
-0.392 -0.00388  0.569
 0.387  0.326 -0.235
-0.171  0.452  0.637
-0.253  0.168 -0.318
-0.0182  0.150 -0.592
 0.381 -0.214 -0.452
-0.0730 0.0860  0.403
-0.0194 -0.0222  0.213
-0.0637  0.228 -0.596
 0.394  0.339  0.602
 0.412 -0.309  0.312
 0.156  0.268  0.366
0.0543 -0.0714 -0.875
-0.201 -0.338 -0.674
-0.0181 0.0504 -0.810
 0.444 -0.142 -0.126
-0.183  0.220 -0.586
-0.387 -0.125  0.279
-0.228 -0.241  0.158
0.0832 -0.242  0.150
 0.372 -0.0496  0.167
 0.389  0.106  0.625
 0.193 -0.354 -0.208
0.0915 -0.344 -0.171
 0.320 -0.139 -0.777
-0.265  0.500  0.277
0.0733 0.0965  0.709
 0.420 0.0254 -0.671
 0.379  0.378  0.176
-0.182  0.164 -0.668
-0.342 -0.114 -0.00753
-0.275  0.467 -0.128
 0.206 -0.351 -0.531
 0.246 0.0156 -0.266
 0.351  0.170 -0.324
-0.452 -0.0498 -0.281
-0.398  0.298  0.360
 0.330  0.215  0.358
-0.390 -0.143 -0.502
 0.256 -0.0587  0.386
 0.377 -0.104 -0.226
-0.131 -0.105  0.751
-0.283  0.495  0.578
 0.375 -0.0131 -0.254
 0.429 -0.335 -0.129
-0.350  0.311 -0.393
 0.448 0.0279 -0.530
0.0239 -0.216 -0.217
 0.454 -0.0495  0.295
-0.0822 -0.258 -0.171
-0.274  0.154 -0.464
-0.378 -0.132 -0.272
 0.211 -0.0318  0.695
-0.182 0.0276 -0.815
-0.370 -0.223  0.140
-0.386  0.214  0.320
 0.447 -0.101 -0.441
 0.207 -0.241 -0.322
 0.229  0.106  0.307
-0.246 -0.311  0.569
 0.338 -0.334 -0.415
-0.357 -0.203  0.239
-0.0181  0.365 -0.396
 0.223 -0.0209 -0.840
 0.119 -0.0458  0.220
0.0346 -0.120 0.00569
 0.374 0.0402 -0.297
-0.209 -0.358 -0.144
-0.392 -0.0495  0.386
-0.0913 -0.196  0.246
-0.402  0.188  0.450
-0.451 -0.159  0.718
-0.256  0.232  0.372
 0.153  0.154 -0.117
 0.284  0.491  0.396
-0.247  0.115  0.704
0.00928  0.449  0.661
 0.220 0.0676  0.395
 0.389 -0.0556  0.359
0.0184  0.125 -0.299
 0.360  0.433 0.0665
-0.444 -0.280 -0.413
-0.247  0.148 -0.565
 0.128 0.0540  0.389
 0.359  0.162 -0.605
-0.275 -0.261 -0.0926
-0.393 0.0686 -0.656
 0.237  0.449 -0.224
-0.0261  0.151 -0.701
-0.402  0.237  0.572
 0.317  0.421  0.639
-0.440 -0.203 -0.0227
 0.252 -0.370  0.311
-0.384 0.00550  0.646
-0.356  0.389 -0.262
-0.152 -0.250 -0.875
-0.473 -0.175  0.364
-0.0458 -0.240  0.149
 0.192 -0.260 -0.190
0.0244 -0.223 -0.0890
-0.438  0.124 -0.492
 0.454 -0.214  0.276
0.0915  0.149 -0.628
 0.247  0.164 -0.127
 0.374 -0.187 -0.0708
 0.416 -0.0828  0.744
-0.233 -0.351 -0.510
-0.419 -0.326 -0.165
-0.259 -0.136 -0.426
 0.369  0.405 -0.0706
 0.429 -0.340 -0.355
 0.189  0.490  0.466
 0.359 -0.0596 0.0584
-0.0640  0.524 -0.00743
-0.0913 -0.117  0.297
 0.378  0.134 -0.181
-0.0181 -0.278 -0.837
 0.337  0.135  0.360
 0.247  0.501  0.286
-0.174 -0.349 -0.391
-0.293 -0.187 -0.692
 0.372 0.0327  0.194
-0.376 0.0966 -0.263
-0.119  0.526  0.176
 0.367  0.380  0.476
-0.373 -0.0954 -0.0706
-0.408  0.270  0.121
 0.289 -0.341 -0.665
 0.174 -0.301  0.577
 0.245  0.150 -0.502
 0.439  0.150 -0.291
-0.266 -0.278 -0.862
 0.165  0.174 -0.270
-0.265 -0.334 -0.802
-0.173  0.167 -0.252
 0.232 -0.344 -0.843
 0.377 -0.291 -0.333
-0.131 -0.0499 -0.0465
-0.437 -0.223 -0.254
-0.454 -0.0308  0.441
 0.435  0.214  0.213
-0.376 -0.187 -0.318
 0.508  0.170 -0.355
-0.00903 -0.346 -0.0616
-0.185  0.417  0.420
0.0550 -0.258 -0.162
 0.265 0.0778  0.734
 0.102  0.163 -0.484
-0.267 -0.371  0.231
 0.348 -0.324  0.310
-0.174 -0.157 -0.421
 0.374 0.0331 -0.0975
-0.393  0.242 -0.466
 0.456 0.0509  0.176
 0.201 -0.126  0.176
 0.292 -0.242 -0.510
-0.438 -0.103 -0.408
-0.0182  0.183 -0.244
-0.0541  0.186 -0.299
 0.256 -0.259 -0.208
-0.292 -0.369  0.359
-0.325 -0.260  0.386
 0.363 -0.0128  0.674
 0.427 -0.146  0.247
 0.179 -0.350 -0.0830
-0.101 -0.00423  0.702
 0.245  0.290  0.461
 0.316  0.120 -0.275
 0.146 -0.00731  0.360
-0.110 0.0452 -0.807
-0.0794  0.248  0.436
-0.232 0.0484 -0.254
-0.110 -0.338 -0.565
-0.445 -0.133 -0.107
-0.227  0.490  0.669
-0.283 -0.372 -0.299
-0.450 -0.269  0.121
 0.146 -0.255 -0.264
 0.292 -0.123 -0.546
-0.375 -0.104 -0.208
 0.452 -0.0498 0.0755
-0.0182  0.125 -0.372
 0.450 0.0959 -0.226
-0.454 0.0144 -0.272
-0.375 -0.0905  0.452
 0.220 0.0849 -0.753
-0.128 -0.240 -0.394
 0.374 0.0692 -0.162
-0.165 -0.335 -0.793
0.0550 -0.335 -0.793
-0.0638 -0.0587  0.368
-0.356 -0.0587  0.633
 0.201 0.0872 -0.246
-0.387  0.351 -0.0158
 0.446 0.0145  0.534
 0.386 -0.0588 -0.769
 0.238 -0.0544 -0.0170
-0.328  0.507  0.158
-0.0548  0.494  0.469
 0.421 -0.174 -0.807
0.0252 0.0692 -0.204
 0.119 -0.333  0.400
-0.437  0.142  0.668
 0.306  0.191  0.725
0.0915  0.527 0.00848
 0.134  0.204 -0.169
0.0824 -0.160  0.771
 0.289 -0.358 -0.546
-0.366 -0.251 -0.846
 0.115  0.507  0.281
 0.137  0.526 0.0756
-0.337 -0.0702 0.0965
 0.302 -0.151 -0.421
-0.180  0.498  0.389
 0.280 -0.140  0.238
 0.396 0.0877  0.478
-0.447 -0.252 -0.843
-0.431 -0.372  0.235
0.0185 -0.0169 -0.855
-0.0484  0.494  0.700
 0.450  0.105 -0.0707
-0.440  0.184 0.0299
-0.293 -0.0950 -0.832
0.0903  0.152 -0.694
-0.454  0.124  0.496
-0.174 -0.279  0.693
-0.128  0.322 -0.450
 0.137  0.296 -0.491
0.0741 0.0508  0.259
 0.301 -0.0209 -0.335
-0.452  0.115  0.359
 0.473 -0.195  0.352
 0.176  0.460  0.610
-0.390 0.0599  0.607
-0.397 -0.0537  0.324
 0.346  0.373 -0.316
-0.320  0.484 -0.0340
 0.201 -0.270  0.731
 0.156 -0.138  0.223
 0.247 -0.367  0.121
 0.333  0.272 -0.468
 0.448 0.0202  0.356
 0.269 -0.371 0.0329
 0.371 -0.208  0.743
-0.0120 -0.107  0.305
-0.146  0.174  0.339
-0.343  0.169  0.315
-0.192  0.479  0.543
-0.451 -0.0584 0.00233
 0.467 -0.0996  0.659
-0.405  0.278 -0.345
 0.375  0.167 -0.492
 0.293 -0.0517 -0.392
-0.446 -0.0493 -0.582
-0.329 -0.240 -0.336
 0.410  0.254 0.0695
-0.328 -0.315  0.460
 0.305  0.125 -0.412
-0.209  0.363 -0.376
 0.440 -0.178 -0.254
0.0898 0.0424 -0.262
-0.0848  0.508  0.547
 0.329 0.0783  0.732
-0.377  0.346  0.486
 0.379  0.138  0.725
-0.390 -0.150  0.714
-0.283 -0.0135  0.357
-0.0358 -0.226  0.763
-0.0639  0.448  0.661
 0.331 -0.0591 -0.816
-0.295 -0.159 -0.583
 0.325 -0.132  0.405
-0.450 -0.0767 -0.527
 0.451 -0.0223 -0.235
 0.137  0.124  0.709
 0.447 -0.258 -0.440
-0.265 -0.0564  0.405
-0.283 0.0581  0.280
-0.0730  0.148 -0.619
-0.388  0.174 -0.569
 0.162 -0.341 -0.604
 0.101 -0.350  0.286
-0.379  0.195  0.195
 0.311 -0.376  0.331
-0.100 -0.237  0.177
 0.445 -0.0556 -0.583
-0.435  0.212  0.158
 0.219  0.518 -0.0254
-0.199 -0.279 -0.847
 0.102 -0.0802 0.0595
 0.409  0.324  0.441
-0.186  0.289 -0.492
-0.0656  0.106 -0.261
-0.220 -0.363  0.312
 0.210  0.170 -0.455
-0.449 -0.119 0.0512
 0.276  0.514 0.0296
 0.260 -0.343  0.435
 0.365  0.420 -0.140
0.0273 -0.250 -0.272
0.0785 -0.110  0.191
0.0358  0.128  0.335
 0.290 -0.339 -0.793
 0.393  0.196  0.614
 0.381  0.188  0.148
 0.101 -0.273  0.724
-0.370  0.124  0.231
-0.202 -0.357 -0.254
-0.414 -0.379 -0.0471
-0.373  0.392  0.601
 0.445  0.134 -0.0160
-0.400 0.0151  0.359
 0.307 -0.0869  0.133
 0.311 -0.0564  0.661
-0.0363  0.441 -0.271
 0.442 0.0509  0.633
-0.173  0.511 -0.0784
 0.213 -0.0837  0.725
 0.359 -0.0120  0.249
 0.171 -0.352 0.0173
 0.165 -0.237  0.194
-0.156  0.412 -0.302
 0.372  0.179  0.267
-0.192 -0.247 0.0852
0.0433 -0.256 -0.0333
-0.374  0.387 -0.153
-0.0347  0.133 -0.187
-0.446 -0.168 -0.434
-0.411 -0.168  0.360
-0.0229 -0.0669 -0.00589
0.0552  0.265 -0.540
 0.366 -0.0812  0.486
-0.0183 0.0195 -0.246
 0.447 -0.116  0.186
 0.444  0.152  0.139
-0.299 0.0886 -0.730
0.0287  0.168 -0.209
 0.344  0.415 -0.204
 0.398  0.176 -0.399
-0.396  0.115  0.441
 0.454 -0.0513  0.696
0.0729  0.336 -0.439
-0.402  0.284 0.0389
0.00927 -0.305 -0.372
 0.146 -0.252 0.0537
 0.110 -0.215 -0.435
-0.407  0.187 -0.443
-0.375 -0.120 -0.752
-0.463 -0.187 -0.818
 0.412  0.231 -0.0372
 0.399  0.299  0.121
-0.210 -0.241  0.764
-0.415  0.224 -0.180
 0.192 0.0238  0.702
-0.372  0.124 0.0939
-0.273  0.314 -0.433
-0.397  0.151  0.496
-0.416  0.198 -0.245
 0.183  0.504  0.560
-0.119 -0.00190 -0.276
-0.146 0.0226  0.262
-0.383  0.155 -0.156
-0.294 -0.343 -0.752
0.0367 -0.149 -0.424
 0.328  0.506  0.188
 0.146 0.00461 -0.836
-0.338  0.197  0.717
 0.300  0.108  0.291
-0.377 0.0144 -0.345
 0.391 -0.00387  0.587
-0.0913 -0.334 -0.775
-0.119 -0.260 -0.126
 0.233 -0.362 -0.296
-0.325 -0.278  0.652
-0.278 0.000100 -0.811
 0.456 -0.0403  0.185
0.00928 -0.332 -0.839
-0.325 -0.242  0.487
-0.370 -0.0131  0.185
-0.0547 -0.0564  0.460
-0.228  0.127 -0.363
-0.378 -0.0862 -0.309
-0.292 -0.123 -0.738
-0.252 -0.361 -0.455
 0.377 0.0418 -0.391
 0.373 -0.159 0.0572
 0.328 -0.141  0.469
-0.155 -0.0587  0.569
-0.241 -0.274 -0.381
 0.180  0.198 -0.382
-0.443 0.0685 -0.546
-0.238 -0.122  0.147
 0.459 -0.0962  0.351
-0.0727  0.475 -0.214
 0.143 -0.233  0.761
-0.00967 -0.183 -0.874
-0.0456  0.530 0.0757
-0.311 -0.250 0.0581
-0.0547 -0.304  0.757
 0.216 -0.246 -0.390
 0.377  0.145 -0.0559
 0.276 -0.372 -0.336
 0.391 -0.0313  0.505
-0.290 0.000524 -0.705
-0.341 -0.0536 -0.0268
 0.192  0.524  0.103
-0.321  0.508  0.314
-0.262 -0.129 -0.0585
-0.372  0.305  0.683
-0.427 -0.0243  0.709
 0.173  0.214 -0.601
-0.291  0.119 -0.667
 0.325 -0.333  0.441
-0.0317 0.00580  0.312
-0.366 -0.208  0.745
 0.219  0.491 -0.0823
-0.146  0.527 0.0666
 0.457  0.111  0.412
 0.119 -0.0595 -0.0741
 0.366 -0.0933 -0.628
-0.453 -0.279  0.213
-0.375 -0.379 0.0665
0.0222 0.0764  0.252
 0.372 0.0601 0.0665
 0.284 -0.376  0.258
 0.410  0.269  0.233
 0.137 -0.258 -0.171
-0.0730 -0.339 -0.610
-0.137 -0.0569  0.505
-0.371 0.0966  0.304
-0.394 0.0144  0.514
-0.440 -0.195 -0.308
0.0276 -0.350  0.140
-0.183 -0.0587  0.679
-0.454 0.0235 -0.180
 0.456 -0.0524  0.425
 0.433 0.0946 -0.421
-0.0550 -0.0657 -0.413
-0.454 -0.0407 -0.162
-0.376  0.102 -0.0378
 0.166 -0.0309  0.742
0.0860  0.161 -0.317
-0.416 0.00405 -0.700
 0.146 -0.342 -0.473
 0.375 -0.272 -0.150
-0.0182 -0.0494  0.742
-0.450  0.105  0.559
 0.418 -0.114 -0.543
-0.0289 -0.0865  0.251
 0.311 -0.256 0.0111
-0.338 -0.380  0.140
0.0722 -0.00964  0.228
-0.0611 -0.0662 0.0740
0.0276 -0.260 -0.866
 0.451 0.0326  0.477
0.0573 -0.135 -0.306
-0.119 -0.350  0.112
 0.450  0.124  0.286
 0.254  0.353  0.450
 0.130  0.333  0.466
 0.207 -0.170 -0.417
 0.413  0.292  0.565
-0.183  0.153  0.428
 0.154 -0.122 -0.864
 0.375 -0.0497 -0.116
 0.198  0.131 -0.202
-0.390  0.333 -0.162
0.000123  0.193  0.726
-0.347 -0.188 -0.849
 0.275  0.134  0.733
 0.270 -0.370 -0.451
-0.196  0.104 -0.740
-0.297 -0.241 -0.453
 0.450 -0.104 -0.00669
-0.378 -0.278 -0.318
 0.184  0.154 -0.668
-0.374  0.205  0.383
-0.393  0.297 -0.286
 0.452  0.133  0.359
0.0270 -0.205 0.0481
 0.238 -0.000314  0.247
 0.466 -0.121 -0.508
-0.141  0.481 -0.182
-0.196 -0.173 -0.867
-0.399  0.290 -0.0891
-0.435 -0.317 -0.226
-0.300 -0.106 -0.564
 0.302 -0.0129  0.730
 0.436 -0.153  0.764
 0.392 0.0769  0.565
-0.331  0.222 -0.534
 0.376  0.148  0.670
-0.192 -0.297  0.585
0.0641 -0.298  0.593
-0.0222 0.0421  0.258
0.0881  0.119 -0.118
 0.396 -0.256 -0.855
0.0523 -0.0261 -0.293
-0.143  0.108  0.724
-0.0822 -0.0520  0.725
-0.448  0.164  0.387
-0.402 -0.333 -0.417
 0.314  0.133  0.419
-0.265  0.126  0.419
-0.415 -0.378 -0.305
-0.00911  0.208 -0.620
 0.275  0.460 -0.161
0.0274 0.0930 -0.771
0.0551  0.393 -0.347
-0.328  0.370 -0.327
 0.286 -0.0120 -0.734
 0.314 -0.0502  0.351
 0.447 -0.250  0.766
-0.210 0.0990  0.408
0.0916 -0.278 -0.834
-0.457 -0.0939  0.450
-0.448  0.136 0.00312
-0.301  0.166 -0.366
-0.347 -0.0902  0.296
-0.210 -0.261 -0.0615
-0.164 -0.345 -0.336
 0.247 -0.347 -0.710
 0.106  0.493  0.693
-0.257  0.372 -0.345
 0.348 -0.162  0.363
-0.0261 -0.241 0.00228
0.0367 -0.345 -0.290
 0.410  0.171 -0.153
 0.211 -0.357 -0.382
-0.283 -0.255 0.00284
 0.451 -0.0132 -0.0799
 0.330 0.0681 -0.650
0.0965 -0.109  0.124
 0.444  0.161  0.194
0.0276 -0.345 -0.181
-0.455 0.0783  0.121
-0.0365 -0.151  0.772
0.0367 -0.340 -0.510
 0.101 -0.0566  0.670
-0.0198 -0.214 -0.251
-0.369 -0.0131  0.277
 0.119 -0.337 -0.720
 0.302  0.499  0.140
 0.371 -0.214  0.194
 0.372  0.397  0.295
-0.100 -0.350  0.286
 0.372  0.106  0.204
-0.119 -0.350  0.176
 0.378 -0.150 -0.345
 0.372  0.115 0.0573
-0.370 0.0692  0.222
 0.110 -0.318  0.486
-0.449 -0.0863  0.185
 0.209  0.228 -0.333
-0.0913 -0.344 -0.263
 0.429 -0.0990  0.289
-0.334 -0.283  0.758
-0.228 -0.140  0.282
 0.452 -0.0403 -0.363
 0.401 -0.378 -0.326
-0.366  0.129 -0.327
-0.320 0.00520  0.728
-0.437  0.186 -0.0888
 0.401 -0.383  0.149
 0.168 -0.0512 -0.0320
-0.0790 -0.235 -0.361
-0.328 -0.0671  0.204
-0.114  0.367  0.398
0.0367 -0.312  0.507
 0.169 -0.352 0.0970
-0.422 -0.226  0.101
-0.155  0.191  0.719
 0.174  0.268 -0.521
-0.0349  0.124  0.330
 0.274 -0.240 -0.336
 0.146  0.238  0.452
 0.337  0.342 -0.363
0.0271 -0.168 -0.0799
 0.265  0.335 -0.400
 0.166  0.196 -0.217
-0.0270 -0.205 -0.0982
0.0367 -0.343 -0.455
 0.327 -0.169  0.652
 0.214  0.191  0.733
 0.174  0.482 -0.124
-0.434 -0.277 -0.144
0.0825  0.493 -0.0993
 0.330 0.0903  0.248
-0.242 -0.0123  0.239
-0.0641  0.379 -0.369
-0.371 -0.187 0.0299
-0.366 -0.228  0.331
 0.247  0.522 0.0939
-0.147  0.500  0.624
 0.265 0.0693 -0.257
 0.320 -0.278  0.734
-0.137 -0.311  0.515
 0.327 -0.269  0.496
-0.0364 -0.344 -0.363
-0.311 0.0876  0.695
 0.452 0.0327 -0.208
 0.295 -0.205 -0.647
-0.320 -0.0569  0.469
 0.422 -0.372 -0.0616
-0.448 -0.123 -0.354
-0.378 -0.187 -0.263
-0.200 -0.357 -0.00680
-0.0278 -0.251 -0.171
-0.293 -0.232 -0.564
-0.00901 -0.347 -0.116
-0.380 -0.0131 -0.446
 0.329 -0.242  0.128
-0.0919  0.114 -0.736
-0.325 -0.123  0.414
-0.429  0.224  0.259
-0.377 -0.132 -0.446
 0.404  0.261 -0.199
-0.173 0.0611  0.731
 0.253 -0.273 -0.867
 0.298  0.444 -0.208
 0.391 -0.0495  0.414
 0.457 -0.0425  0.484
 0.252 -0.0622  0.213
-0.292 -0.205 -0.766
-0.409 -0.382  0.186
-0.0257 -0.215 -0.417
-0.444  0.106 -0.382
-0.377  0.342  0.644
 0.446  0.151 0.0847
 0.230 -0.362 -0.0341
-0.387  0.149 -0.252
0.0549  0.142  0.406
-0.352 -0.00567 -0.744
-0.0639 -0.343 -0.455
 0.165 -0.344 -0.842
-0.229 -0.0306  0.737
-0.372  0.391 -0.0525
 0.432  0.205  0.651
 0.101  0.521  0.350
-0.146  0.495  0.442
 0.292 -0.315 -0.436
 0.431 -0.266 -0.308
-0.449 -0.0222 -0.500
-0.429 -0.327 -0.0434
 0.375 0.0802  0.670
 0.248  0.268 -0.502
0.0462  0.446 -0.257
-0.302 -0.242  0.134
-0.379 -0.214 -0.409
-0.424  0.205 -0.338
 0.348  0.475 -0.0371
-0.427 -0.253 -0.0382
0.0916 -0.303 -0.372
 0.453 -0.286 0.0939
-0.0448 -0.324  0.454
 0.251  0.141 -0.387
 0.441 -0.0709 -0.692
-0.139  0.292  0.377
-0.347  0.402  0.408
 0.435 -0.241 -0.0525
-0.489 -0.124  0.705
 0.351 -0.226 -0.404
0.00929  0.465  0.607
 0.174 -0.261 -0.0706
 0.325 -0.0794  0.578
-0.311 -0.376 -0.254
 0.101 -0.332 -0.821
 0.167  0.517  0.380
 0.295 -0.297 -0.829
 0.350 -0.137  0.702
-0.388  0.253  0.422
-0.222 -0.0839 0.0663
 0.452 0.0143 0.0390
-0.235 -0.185 -0.410
0.0184 0.00523  0.742
-0.358  0.158 -0.610
 0.390  0.343  0.222
-0.524  0.161 -0.330
-0.378 -0.0313 -0.299
-0.213  0.516  0.257
 0.283 -0.0191 -0.824
-0.421 -0.369 -0.113
-0.219 -0.0587  0.441
-0.146 -0.191 -0.876
-0.0730 0.0776  0.730
 0.341  0.484  0.392
 0.451 0.0144 -0.446
 0.354  0.462  0.295
 0.362  0.256  0.686
-0.210 -0.0135  0.357
0.0611 -0.0879  0.315
 0.101 -0.348 -0.0707
0.00926 -0.349  0.240
 0.333 0.0624 -0.272
0.0550 -0.0587  0.478
-0.453 0.0142  0.304
-0.313  0.468  0.515
 0.105 -0.0590 0.00529
-0.375 -0.0130 -0.226
-0.247 -0.260 -0.144
0.0824 0.0290  0.378
-0.372 0.0326  0.121
0.0458 -0.254 0.0292
-0.376 0.00526 -0.135
-0.319  0.453 -0.153
 0.311 0.0290  0.378
 0.292  0.505  0.468
-0.453 0.0326  0.231
-0.346  0.409  0.643
-0.411 -0.214  0.772
-0.386  0.177 -0.0306
 0.337  0.149 -0.545
-0.182 -0.339 -0.519
 0.292 -0.260 -0.784
-0.328 -0.168  0.661
 0.346  0.400  0.405
 0.114  0.160 -0.266
-0.393 -0.0979 -0.584
-0.106 -0.100 -0.877
 0.283  0.165 -0.660
 0.157  0.401 -0.321
 0.155  0.216  0.361
-0.468 -0.0694  0.685
-0.0823 -0.188 -0.875
 0.292 -0.150 -0.592
 0.423 -0.217  0.136
-0.337 -0.140 -0.828
-0.0456 -0.262 -0.0435
 0.335 -0.132 -0.517
-0.0540 -0.288  0.646
 0.201 -0.359  0.204
-0.292  0.311  0.425
-0.0916  0.287 -0.506
 0.210 -0.116  0.767
 0.380  0.222  0.405
 0.119 -0.0512 -0.383
 0.167  0.346  0.403
-0.229 -0.366  0.112
 0.258  0.256 -0.182
-0.283 -0.0463 -0.0532
-0.228 -0.364  0.176
-0.246 -0.366 -0.0890
-0.320 -0.287 -0.866
 0.327 -0.214  0.386
-0.294 -0.163 -0.487
-0.354 -0.0977 -0.801
 0.439  0.103  0.640
-0.465 -0.178 -0.482
 0.442  0.205  0.468
 0.283 -0.261 -0.0926
-0.390  0.317  0.532
 0.395 0.0512  0.423
 0.331 -0.380 -0.0608
 0.256 -0.197  0.243
-0.408  0.235 -0.290
-0.350  0.470  0.204
-0.281  0.276  0.384
-0.0518 -0.0101 -0.307
 0.460  0.209 -0.382
 0.210 -0.0452 -0.0612
-0.417  0.242  0.667
-0.335 -0.240 -0.392
 0.128 -0.0960  0.208
 0.107 -0.115  0.761
 0.430 -0.123 -0.780
 0.388 -0.377 -0.148
-0.438  0.180  0.579
-0.110 -0.344 -0.162
-0.454 -0.0588  0.314
-0.262 -0.146 -0.846
-0.266  0.428 -0.248
-0.284  0.151  0.701
0.00932  0.496  0.460
-0.347 -0.303 -0.372
-0.445 0.0881 -0.455
 0.101  0.527  0.167
-0.183 -0.0528 -0.0329
 0.397  0.161  0.569
-0.472 -0.123 -0.528
 0.146  0.440 -0.261
 0.313 -0.0322  0.210
0.0824  0.173 -0.382
 0.266  0.480 -0.103
-0.0456 -0.348 -0.00668
 0.292 -0.178 -0.756
 0.128 -0.344 -0.208
 0.165 0.0782 -0.774
0.0276 -0.338 -0.674
-0.0456 -0.0587  0.560
 0.395 -0.377 -0.261
 0.256 -0.126  0.194
-0.249 -0.0866  0.714
-0.0273  0.507 -0.119
 0.265 -0.0129  0.695
0.0576 -0.0195  0.354
-0.163 0.0692  0.289
0.0731 -0.0253 -0.861
-0.379 -0.383 -0.354
-0.446 0.0326  0.597
0.0654  0.106 -0.290
 0.138  0.130 -0.691
-0.444 -0.132  0.270
-0.432 -0.0921 -0.747
-0.392  0.369  0.393
-0.00901 -0.160 0.0456
 0.196 -0.352 -0.479
-0.374  0.385 0.0206
-0.119  0.457  0.625
 0.228 0.0604  0.702
-0.270 -0.353  0.427
-0.412  0.235 -0.00699
 0.351 -0.173 -0.477
0.0740  0.225  0.433
-0.366 -0.333  0.312
-0.356 0.0419  0.729
0.0916  0.170  0.715
-0.329 -0.0819 -0.441
 0.453 -0.279  0.176
 0.293  0.186 -0.132
9.14e-05 -0.178  0.255
-0.248 0.0968 -0.257
 0.265  0.244  0.453
-0.243 -0.289  0.673
-0.265  0.503  0.514
0.0755  0.151  0.301
-0.439 -0.215 -0.397
0.0863 0.0914  0.294
 0.110  0.494  0.460
-0.374  0.385  0.295
-0.377  0.378  0.112
 0.346 -0.00698 -0.711
 0.273  0.305 -0.445
 0.368 0.0144  0.304
-0.237  0.479 -0.163
 0.322  0.195 -0.576
 0.147 0.0689 -0.242
-0.283 -0.234  0.221
-0.440  0.142  0.614
 0.197 -0.0779 0.0595
 0.413  0.159 -0.537
 0.327 -0.0952  0.440
 0.301  0.515  0.277
-0.235 0.0274 -0.804
 0.174  0.165  0.432
-0.311 -0.377 -0.363
-0.218  0.499 -0.112
 0.346  0.438  0.478
-0.354 -0.0598 0.0217
-0.0913 -0.261 -0.848
-0.210  0.186  0.717
-0.492 -0.0695  0.524
0.0658 -0.0862 -0.372
0.0686 -0.196 -0.392
-0.448 -0.123 -0.217
 0.133  0.228 -0.290
-0.354  0.346 -0.291
 0.256 -0.139  0.282
-0.397  0.206  0.533
 0.459 -0.266  0.277
 0.307 -0.378 -0.00977
 0.211 -0.318  0.513
 0.248 -0.0190 -0.324
 0.419 0.0805 -0.630
 0.372  0.269 -0.399
 0.137 -0.260 -0.857
 0.146 -0.124 -0.0589
-0.174 -0.113  0.206
 0.240 -0.362 -0.0951
-0.146 -0.0431 -0.359
 0.311 -0.169  0.265
 0.448 -0.0707 -0.522
-0.128 -0.330  0.422
-0.469 -0.213  0.325
 0.482 -0.0857  0.613
 0.378 -0.232 -0.318
-0.311 -0.0944 -0.665
-0.302  0.482 -0.0807
 0.402 -0.0760  0.595
-0.265 -0.262 -0.0435
-0.173  0.519  0.331
 0.366 -0.185  0.254
 0.421 -0.261 -0.135
0.0520  0.517  0.257
-0.128 0.0614  0.393
 0.327 -0.0928  0.746
-0.301  0.160 -0.641
 0.391 0.00494  0.441
 0.423  0.214  0.158
-0.352 -0.103  0.130
 0.370 -0.253 0.0385
-0.329 -0.323  0.615
-0.380  0.180  0.666
 0.356  0.170 -0.446
 0.174  0.523 -0.00635
-0.140 -0.191 -0.408
 0.430 -0.159  0.367
0.0234 -0.0126  0.248
-0.385 0.0506 -0.713
0.0184 -0.215  0.773
 0.220  0.187  0.438
 0.375 -0.281 -0.233
-0.0877  0.184  0.334
-0.182  0.255 -0.541
 0.368 -0.383  0.112
 0.379 -0.0679 -0.382
-0.301  0.452 -0.199
 0.302 -0.0772 0.0810
0.0685 -0.248 -0.344
-0.452 -0.00405 -0.107
-0.380 0.0601 -0.391
-0.237  0.199 -0.604
 0.327 -0.232  0.652
-0.372 -0.232 -0.00664
 0.220 -0.0587  0.514
-0.00899 -0.0587  0.652
0.0367  0.507  0.578
 0.207  0.173 -0.296
-0.452 -0.0404 -0.0616
 0.137 -0.324  0.445
-0.0665 -0.187 -0.354
 0.165 -0.236 -0.346
-0.0731  0.504  0.359
 0.137 -0.0566  0.569
-0.335 -0.274 -0.428
-0.326 -0.196  0.588
 0.446 -0.123 -0.0799
 0.210 -0.0569  0.569
0.0276 0.0783  0.708
 0.331 -0.161  0.216
 0.372 0.0601  0.149
-0.379 -0.114 -0.400
 0.137 -0.259 -0.388
-0.119 -0.0587  0.460
-0.119 -0.259 -0.226
-0.375 -0.141 -0.0525
 0.128  0.151 -0.537
-0.0640  0.171 -0.345
0.00344  0.427 -0.200
 0.305  0.159 -0.451
-0.258  0.453  0.621
 0.339  0.493 0.0633
 0.455 -0.00390  0.313
-0.0730 -0.337  0.378
-0.0274 -0.178 -0.0433
0.0459 -0.334  0.401
 0.265 -0.0311  0.347
-0.362  0.418 -0.116
-0.320  0.205  0.409
0.0641 -0.196  0.246
-0.101 -0.115  0.127
 0.348 -0.122 -0.432
-0.420 -0.117  0.406
 0.446 -0.150 -0.0250
 0.414  0.232 -0.0981
 0.411  0.123 -0.601
 0.367  0.412  0.137
-0.0240 0.0876  0.276
-0.0913 -0.246 0.0942
-0.0730 0.0414  0.383
-0.379  0.172 0.0752
-0.385 -0.390  0.259
-0.320 -0.0680  0.709
-0.424 -0.181  0.205
-0.0182 -0.0564  0.341
-0.264 -0.235  0.761
-0.454  0.184 -0.377
 0.384 -0.351 -0.415
 0.294 0.0870  0.696
 0.202 -0.356 -0.126
 0.220 0.0967  0.736
-0.399 -0.0562  0.733
-0.437 -0.342 0.00243
-0.0861 -0.116 -0.0606
-0.416 -0.239 0.0275
-0.00897  0.118 -0.732
 0.417  0.228  0.342
 0.417 -0.238 0.0418
 0.363  0.240 -0.490
0.0275  0.482 -0.194
 0.183  0.514 -0.0610
-0.307 -0.379  0.204
-0.401  0.290 -0.143
 0.156 -0.0665 -0.413
-0.119 -0.303 -0.372
 0.146  0.509 -0.0940
 0.384  0.212  0.660
-0.137 -0.101  0.307
 0.372  0.376 -0.197
-0.0305 -0.236 -0.344
-0.336  0.291 -0.435
0.0249 -0.101  0.268
-0.330  0.430 -0.232
-0.414 -0.192 -0.462
 0.284  0.477  0.515
-0.176 -0.0989 -0.866
 0.392 -0.00509  0.717
 0.327  0.142 -0.640
-0.155  0.518 -0.0341
0.0397 -0.240 -0.392
-0.0121 -0.0429 -0.273
 0.446 -0.0232 -0.538
-0.161 -0.0871 0.0722
-0.174 0.00516  0.738
 0.441 -0.186 -0.144
-0.293 -0.00403  0.690
-0.470 -0.0978 -0.719
 0.101  0.503  0.605
-0.152 -0.334 -0.858
-0.455 -0.0581  0.377
-0.198 -0.223 -0.391
-0.0641 0.0146 -0.232
-0.136  0.232 -0.582
-0.331  0.168 -0.312
 0.390  0.327 -0.0983
 0.311 -0.189 -0.848
 0.266  0.363  0.397
-0.280  0.223 -0.555
 0.410 -0.0212  0.333
-0.377  0.215 -0.418
-0.375  0.214 -0.501
 0.453 0.0780  0.378
 0.321 -0.0953 -0.673
-0.219 -0.0957 -0.438
 0.262  0.122 -0.667
-0.284  0.495  0.341
 0.413  0.221 -0.311
 0.415 -0.161  0.721
 0.112  0.155 -0.150
 0.303  0.391 -0.299
 0.242 -0.361 -0.560
 0.401  0.204 -0.507
0.00928 -0.0384 -0.349
 0.247  0.168  0.336
-0.0665 -0.0770 -0.345
-0.100  0.127 -0.408
-0.247 -0.0950  0.311
0.0184 -0.340  0.360
-0.335 0.0968  0.376
 0.348 -0.324 -0.850
-0.427  0.203  0.112
 0.128  0.359 -0.392
 0.389  0.336  0.158
 0.232  0.362 -0.372
-0.381 -0.117 -0.542
 0.440  0.194  0.549
 0.375 -0.0995  0.654
-0.238 -0.248 -0.292
 0.204  0.506  0.266
-0.383  0.369  0.536
 0.165 -0.278  0.700
 0.231  0.144 -0.171
-0.442  0.125 -0.336
-0.327 -0.0761  0.511
-0.291  0.150 -0.580
 0.293 -0.235 -0.389
-0.292 -0.0423 -0.369
 0.174  0.118 -0.420
 0.217 -0.360 0.0177
0.0550 -0.155 -0.859
-0.155 -0.238 -0.344
-0.395 0.0511  0.441
-0.441 0.0144 -0.424
-0.428 -0.287 -0.268
-0.247 0.0278  0.265
-0.146 -0.241  0.158
-0.376 -0.0541 -0.117
 0.399  0.161  0.450
