ply
format ascii 1.0
element vertex 2048
property float x
property float y
property float z
end_header
 0.111 -0.103 -0.161
-0.956  0.214  0.201
 0.929  0.203  0.208
-0.572 -0.279 -0.161
-0.313  0.218  0.201
 0.721 -0.279 -0.161
 0.377  0.219  0.209
-0.645  0.197 -0.161
-0.208 -0.286  0.129
-0.889 -0.300  0.173
 0.650  0.206 -0.160
 0.390 -0.279  0.130
-0.283 0.000484 -0.161
 0.899 -0.189  0.177
-0.900 -0.0823 -0.140
-0.603 -0.0410  0.130
0.0174  0.219 0.0292
 0.307  0.197 -0.161
 0.618 -0.00971  0.108
 0.442 -0.103 -0.161
 0.899 -0.00987 -0.130
0.0899 -0.206  0.130
-0.951  0.213 -0.102
-0.148 -0.269 -0.161
-0.131 -0.0133  0.130
-0.489 -0.301  0.107
-0.668  0.215  0.208
 0.287 -0.00971 0.0459
 0.660 -0.300  0.108
-0.398  0.219 -0.0667
-0.900 -0.0409  0.129
 0.667  0.219  0.209
-0.145  0.206 -0.158
 0.283 -0.287 -0.138
 0.864  0.218 -0.0265
-0.562 -0.0306 -0.161
-0.365 -0.0823  0.130
-0.801 -0.293 -0.105
-0.764  0.104 0.0149
 0.659 -0.0202 -0.161
 0.897 -0.300 -0.0212
0.0900  0.125 -0.161
 0.493  0.135 -0.0162
 0.142  0.199  0.212
-0.372 -0.294 -0.0799
-0.0653 -0.00982 -0.0781
 0.817 0.0212  0.180
0.0681 -0.293 -0.0776
-0.231  0.135 0.0252
-0.107  0.190  0.191
-0.562  0.135 0.0252
-0.693 -0.301  0.110
0.0900 -0.00971 0.0976
 0.211  0.219 0.0206
 0.442 -0.0926  0.130
 0.767 0.0522 -0.00582
 0.549 -0.294 -0.0795
 0.276 0.0108 -0.161
-0.758 0.0419 -0.161
-0.707 -0.144 -0.161
 0.687  0.219 0.0159
 0.876 -0.186 -0.161
-0.490  0.194  0.208
-0.900 -0.196 0.00451
 0.899 -0.0926 0.0252
-0.462 -0.00606 -0.00581
 0.256 -0.155  0.143
-0.0839 -0.297 0.00547
 0.742 -0.134  0.129
-0.748 -0.134  0.130
-0.386 -0.144 -0.161
-0.815  0.111  0.177
 0.217 -0.299 0.0684
 0.452 0.0626 -0.161
 0.814  0.135 -0.161
-0.469  0.104 -0.161
-0.884  0.219 0.0458
 0.445 0.0729  0.125
-0.900 0.0625 -0.0576
-0.665 -0.00971 -0.0369
-0.0652 -0.175  0.129
 0.556 -0.00971 -0.0369
 0.374  0.219 0.0517
 0.484  0.216 -0.149
 0.899 0.0936 0.0666
 0.532  0.219  0.109
-0.293 -0.00971 -0.00583
-0.158 -0.113 -0.161
-0.355 0.0729  0.129
-0.800  0.197 -0.161
 0.348  0.103 -0.0423
 0.812 -0.301  0.122
-0.604 -0.297 -0.0117
 0.535 -0.217  0.130
 0.597 -0.175 -0.161
-0.355 -0.237  0.129
-0.0135 -0.186 -0.161
-0.0860  0.135 -0.0369
 0.793  0.169  0.150
-0.412  0.219 0.0808
-0.212 -0.136  0.143
-0.679  0.219 0.0568
 0.256 -0.144 -0.161
-0.303  0.145 -0.161
-0.593 -0.186  0.133
 0.266  0.135  0.126
0.0900 -0.00971 -0.0472
 0.431 -0.279 -0.161
-0.158 0.0626 -0.161
-0.0104  0.218 -0.127
-0.259 -0.297 0.00229
-0.761 0.000474  0.108
 0.111  0.135 -0.0265
-0.883 -0.165  0.180
-0.900 -0.0616 -0.00583
 0.925  0.210 -0.159
-0.00271 -0.301  0.113
-0.900 -0.217 -0.150
0.0692  0.135  0.118
 0.742 -0.124 -0.161
-0.134  0.219 0.0590
-0.593 0.0832 -0.0964
-0.427 -0.0202 -0.161
 0.628 0.0936 -0.0966
 0.751 -0.296 0.00775
-0.283 -0.248 -0.161
 0.224  0.131 -0.0876
 0.659  0.135  0.108
-0.806 -0.300 0.0529
0.0165  0.215  0.210
 0.162 -0.258 -0.161
0.0382 0.000484 -0.161
-0.458 -0.165  0.143
-0.786  0.219  0.123
-0.458 0.000788  0.118
-0.0231 -0.00939 0.0458
-0.562 -0.155 -0.161
 0.899 0.0936 -0.0575
-0.255 -0.0133  0.130
 0.754  0.219 -0.0935
-0.457  0.114 -0.0369
-0.263  0.219 -0.0700
-0.900  0.104 0.0873
 0.204 -0.0410  0.130
 0.445 0.0212 0.0149
-0.568  0.218  0.113
 0.783 0.0108 -0.161
 0.573  0.219 -0.0498
 0.899 -0.0720  0.149
-0.508  0.217 -0.113
-0.0549  0.135 0.0976
 0.162  0.218 -0.140
-0.478 -0.297 -0.0110
-0.220  0.164  0.140
 0.890  0.214 0.0970
 0.899 -0.206 0.0563
-0.179 -0.00971 -0.0369
-0.458 -0.237 -0.161
-0.765  0.219 -0.0509
 0.390  0.218 -0.0783
 0.614 -0.131  0.142
-0.615  0.219 -0.0419
-0.892  0.125 -0.161
 0.535 -0.0202 -0.161
0.0279 -0.103  0.130
-0.343 0.0936 0.0149
 0.670 -0.00956 0.00445
 0.152 0.0212 -0.161
 0.846 -0.293 -0.132
 0.319 -0.296 0.0156
 0.204 -0.00939 -0.0372
-0.272 -0.124 -0.161
-0.717  0.125 -0.0934
-0.645  0.135  0.126
-0.707 -0.258 -0.161
 0.731 -0.00971  0.108
-0.457  0.114 0.0770
 0.494 -0.296 0.0194
-0.300  0.218 0.0642
 0.253  0.219  0.209
-0.00317 0.0832 -0.0962
 0.359 0.000455  0.130
 0.359 -0.186 -0.161
-0.713 -0.299 -0.00618
-0.382 -0.299 0.0406
 0.618  0.135 0.00451
 0.483  0.194  0.208
 0.641 -0.297 0.00141
 0.318 -0.00971 -0.0576
 0.899 -0.175 -0.0472
 0.349 0.0936 -0.161
 0.369 -0.172  0.142
-0.0408 -0.287 -0.140
-0.877 -0.301 -0.0310
-0.779 -0.0616 -0.161
 0.112 -0.299 0.0849
-0.764 0.0212 -0.0575
-0.562 -0.00971 -0.0576
 0.711  0.104 -0.161
-0.241 0.0729 -0.0966
 0.752  0.135 0.0563
 0.348 0.0987 0.0723
-0.676 -0.0202 -0.161
 0.515 -0.00939 0.0973
-0.0238 -0.0823 -0.161
-0.0756  0.125 -0.161
 0.899 0.0108 0.00453
-0.892 0.0212 -0.161
-0.552 -0.00971 0.0459
-0.104 -0.294  0.129
-0.340 0.0418 -0.0809
 0.896 -0.296  0.179
 0.148  0.219  0.101
-0.592 -0.301 0.0976
 0.876  0.104  0.180
-0.800 -0.186 -0.161
 0.556  0.125 -0.161
 0.721  0.135 -0.0472
-0.831 0.0108  0.181
-0.769 -0.238  0.130
 0.266  0.135 0.0149
 0.284  0.218 -0.0482
-0.665  0.135 0.00451
-0.407  0.187 -0.161
 0.287 -0.248  0.130
 0.732 -0.00916 -0.0787
 0.463 -0.00937 -0.0773
 0.349 -0.0719 -0.161
 0.152 -0.124  0.130
 0.204 -0.0616 -0.161
 0.183  0.135 0.0666
-0.479 0.0315 -0.0966
-0.900  0.156 -0.0265
 0.898 0.0833 -0.157
-0.900 -0.227  0.108
 0.564 -0.299 0.0870
-0.515  0.219 0.0197
 0.587  0.168  0.170
 0.899 -0.299 0.0793
-0.396  0.177  0.180
-0.816 -0.0858  0.177
 0.493 -0.206 -0.161
 0.721 -0.227  0.130
 0.193 -0.227  0.129
 0.618 -0.269 -0.161
-0.900 -0.124 0.0666
-0.861  0.218  0.201
-0.0126  0.218  0.120
-0.562  0.145 -0.161
 0.478  0.219 0.0318
-0.324  0.135 -0.0679
 0.390  0.156  0.133
-0.677 -0.00939 0.0563
0.0175  0.135 -0.0162
-0.665 0.0729 -0.161
 0.174 -0.293 -0.0747
 0.100  0.218 -0.0679
-0.738  0.138  0.130
 0.788  0.219 0.0402
 0.556  0.135 0.0769
-0.303 -0.155  0.143
 0.817 -0.103  0.180
-0.300 -0.301 0.0901
-0.0652 0.0315 -0.161
-0.900 0.0211 0.0356
 0.357 -0.293 -0.0688
-0.769  0.199  0.211
-0.162  0.219 -0.0684
 0.812 -0.196  0.150
 0.769 0.0832  0.130
 0.294  0.219  0.105
-0.531  0.135  0.126
-0.510 -0.0720  0.129
 0.478 -0.299  0.129
-0.0707  0.219 -0.00859
 0.690 -0.293 -0.0776
-0.127 -0.103  0.130
-0.952  0.192 0.0976
 0.411  0.166 -0.161
-0.170 -0.293 -0.0777
-0.158 -0.206  0.130
-0.343 0.0109 0.0666
-0.210 -0.196 -0.161
-0.107 -0.00971 0.0149
-0.210  0.135 -0.161
-0.696 -0.0617  0.130
-0.158  0.135 0.0769
0.0589 -0.237 -0.161
-0.490 -0.103 -0.161
-0.634 -0.206 -0.161
 0.173 -0.00971 0.0459
 0.845  0.218 -0.121
 0.445 0.0936 -0.0781
-0.324  0.156  0.133
 0.814 -0.0719 -0.161
-0.189 -0.0202 -0.161
-0.210 -0.00971 0.0459
 0.794 -0.217 -0.161
0.0233 -0.296 -0.00154
-0.376 0.0522 -0.161
-0.676 -0.217  0.129
-0.0445 -0.0306  0.130
-0.900 -0.134 -0.0576
 0.899 -0.113 -0.109
 0.535 -0.113 -0.161
-0.624 -0.0926 -0.161
 0.597 0.0419 -0.161
0.0900 0.0625 -0.0962
-0.898 0.0832  0.177
 0.528 -0.124  0.137
 0.645  0.219  0.122
 0.899 0.0315  0.139
-0.179  0.135 -0.0781
 0.183  0.114 -0.161
-0.583  0.208  0.211
 0.338 -0.0926  0.130
-0.189  0.199  0.211
 0.680 -0.196 -0.161
-0.541 0.0522 -0.161
 0.144 -0.296 0.00503
 0.844  0.219  0.196
-0.365 -0.269 -0.161
-0.533 -0.293 -0.0869
 0.760  0.219  0.209
-0.288 -0.293 -0.0784
 0.297 0.0625 -0.0966
-0.205  0.219 0.0140
 0.754 0.0729 -0.0938
-0.689 -0.294 -0.0862
 0.680 -0.0720  0.129
-0.172 -0.297 0.00581
0.0701  0.206 -0.160
-0.117 -0.186 -0.161
-0.900 -0.0202 -0.0783
 0.638 -0.217  0.130
 0.473  0.135 0.0666
0.00717 -0.00971 -0.0369
 0.193  0.168  0.150
 0.545 0.0729 -0.0966
 0.183  0.218 -0.0576
 0.442 -0.0202 -0.161
 0.659 -0.103 -0.161
 0.129  0.219 0.0143
 0.453  0.219  0.135
 0.193 0.0522 -0.0966
-0.900 -0.289 -0.109
 0.732  0.219  0.128
 0.462 -0.179  0.137
 0.819 -0.296 -0.0472
-0.664 -0.136  0.143
 0.567  0.206 -0.160
-0.252 -0.217  0.130
 0.574  0.219 0.0386
-0.895 -0.297 0.0663
 0.121 -0.186 -0.161
 0.899 -0.237 -0.0990
-0.871  0.217 -0.112
-0.254  0.213 -0.150
-0.819 -0.300  0.134
-0.490  0.218  0.129
 0.927  0.204 0.0198
0.0722  0.219  0.125
 0.436 -0.293 -0.0735
-0.646  0.219  0.132
-0.831 -0.237  0.180
-0.531 -0.237  0.129
-0.712  0.217 -0.109
-0.138 0.0212 -0.0966
-0.831 0.0729 -0.161
-0.355 -0.0513 -0.161
 0.628 -0.00971 -0.0679
0.00717 -0.206  0.129
-0.806  0.219 0.0355
 0.926  0.197 -0.0813
-0.00318  0.218 -0.0472
-0.900  0.166  0.160
 0.653  0.219 -0.0833
-0.401 -0.300  0.126
-0.238 -0.00631 -0.0876
-0.951  0.213 -0.0174
 0.283 -0.0132  0.130
 0.298  0.219 0.0267
-0.324  0.217 -0.117
 0.796 -0.0409  0.133
0.0589  0.131 -0.0876
 0.318  0.168  0.170
-0.510  0.131 -0.0876
0.0175  0.145 -0.161
0.0692 -0.00971 0.0252
 0.235  0.176 -0.161
 0.235 -0.217 -0.161
-0.117 -0.0409 -0.161
 0.731  0.176 -0.161
-0.531 -0.144  0.143
 0.768 -0.293 -0.104
 0.173 -0.300  0.130
-0.727  0.156 -0.161
 0.735 -0.301  0.111
 0.500  0.219 -0.0624
-0.900 -0.227 -0.0679
-0.645  0.135 -0.0781
 0.899 -0.144 0.0977
 0.380 0.0212 -0.161
 0.419 -0.296 0.0222
 0.899 -0.0513 -0.0368
-0.862 -0.144 -0.161
 0.597 -0.0616 -0.161
-0.283 -0.0823  0.130
-0.748 -0.00982 0.0356
 0.742 -0.00971 0.0252
-0.0859  0.218  0.118
-0.676 0.0315 -0.0966
 0.449 -0.0115  0.130
 0.359 -0.269 -0.161
-0.0446  0.135 0.0252
 0.483  0.135 -0.161
 0.628  0.135 -0.161
0.0589  0.135 0.0459
-0.293 0.0729 -0.161
-0.283  0.135 0.0769
-0.614 0.0212 -0.161
 0.566  0.135 -0.0472
-0.457 0.0626 0.0252
-0.841 -0.269 -0.161
-0.892 -0.0926  0.180
-0.386 0.000494  0.129
-0.764 0.0729  0.108
-0.0445 -0.103  0.130
-0.0756 0.0832 -0.0962
0.0279 -0.0306  0.130
 0.276 -0.0616 -0.161
 0.183  0.135 -0.0265
 0.814 -0.144 -0.161
 0.742 -0.0513 -0.161
 0.899  0.145  0.118
 0.514 -0.00971 0.0252
-0.158  0.218  0.149
 0.752  0.219 -0.0215
-0.0445  0.168  0.160
 0.576 -0.0720  0.130
 0.131  0.125 -0.0938
-0.300  0.219 -0.00915
-0.0728  0.206 -0.158
-0.427 -0.227  0.129
-0.376  0.219 0.000491
-0.447  0.219 0.000775
-0.707  0.135 0.0666
-0.685  0.219 -0.0390
 0.327 -0.300  0.105
-0.376 -0.172  0.142
0.0693  0.177  0.180
 0.514  0.156  0.133
-0.220 -0.279 -0.161
 0.587 -0.00939 0.0455
 0.817 -0.258  0.180
 0.555  0.215  0.210
 0.297  0.131 -0.0876
 0.525 -0.269 -0.161
0.0900 -0.0720  0.130
 0.899  0.125 0.00453
0.0486 -0.155 -0.161
-0.0859 -0.113 -0.161
 0.690  0.135 0.0149
-0.531 -0.217 -0.161
 0.245 0.0833 -0.161
-0.210  0.218 0.0976
 0.731  0.145  0.130
 0.345 -0.00249 0.00934
 0.838 -0.299 0.0470
-0.713  0.219  0.148
-0.252  0.218  0.170
-0.831 -0.00987 -0.161
 0.680 0.0315 -0.0962
-0.117  0.145  0.130
 0.899 -0.237  0.129
-0.355  0.218  0.118
-0.638 -0.301 0.0475
-0.293  0.135 -0.00583
-0.00315 0.0626 -0.161
 0.270 -0.293 -0.0715
-0.572  0.135 -0.0576
-0.813 -0.175  0.160
 0.256  0.218 -0.109
-0.582  0.219 0.0257
-0.0672 -0.300 0.0704
 0.767 0.0419 0.0770
-0.161 -0.301 0.0849
 0.835 0.0626 -0.161
 0.445 0.0936 0.00452
 0.369 0.0729  0.130
 0.152 -0.00982 -0.0781
-0.769 -0.0617  0.130
 0.398  0.219 -0.0101
-0.117  0.135 0.0252
-0.789  0.125 -0.161
0.0796 0.0522 -0.161
-0.334 -0.186 -0.161
 0.243 -0.299  0.130
 0.256 -0.0823  0.130
-0.324 -0.0306  0.130
 0.338  0.135 0.0149
-0.231 -0.0719 -0.161
 0.894 -0.0719 -0.161
 0.256 0.0109 -0.0963
-0.210 -0.0617  0.130
-0.438 0.0626  0.130
0.0279 0.0109 -0.0966
-0.621 -0.00597 -0.0876
-0.396  0.135  0.130
-0.469  0.156  0.133
0.0900 -0.0409 -0.161
-0.500  0.166 -0.161
-0.448 -0.165 -0.161
 0.659 0.0626 -0.161
-0.272 -0.00971 0.0666
-0.427 -0.0617  0.130
-0.900 0.0211  0.108
 0.514 0.0419 -0.161
-0.448 0.0419 -0.161
-0.900 0.0832 0.00451
 0.899 0.0108 -0.0679
-0.531 -0.00971  0.108
 0.773 0.0833 -0.161
 0.173 -0.124 -0.161
-0.241  0.135 -0.0576
 0.525 0.0109 -0.0966
-0.0644  0.218 0.0568
-0.0694  0.219 -0.0941
-0.900  0.156 0.0459
0.0693 -0.279  0.130
-0.613 -0.00939 0.0255
-0.624  0.171  0.177
-0.343 0.0315 -0.00581
-0.324 -0.297 -0.000255
-0.758 -0.300  0.110
-0.490  0.135 0.0149
-0.437 -0.293 -0.0824
-0.593  0.135 0.0873
-0.909  0.192 -0.157
 0.389  0.219  0.120
-0.898 -0.227  0.177
 0.899  0.135 -0.120
-0.303 -0.00982 -0.0781
 0.898 -0.268 -0.157
 0.220 -0.287 -0.138
-0.0859 -0.248 -0.161
 0.899 -0.237 -0.0265
-0.498  0.219 -0.0511
-0.427 -0.0926 -0.161
-0.900  0.145 -0.0887
-0.500 -0.0409 -0.161
 0.899 -0.155 0.0149
-0.900 -0.0513 0.0666
 0.121  0.135 0.0769
-0.900 -0.165  0.118
 0.380  0.218 -0.140
 0.421 -0.196 -0.161
 0.318 -0.134 -0.161
 0.721 0.0419 -0.161
-0.579  0.206 -0.157
-0.769 -0.269 -0.161
 0.659  0.135 -0.0576
 0.899 -0.0823 0.0873
-0.396  0.125 -0.161
-0.624  0.135 -0.161
-0.897  0.219  0.111
 0.899 -0.300 -0.0933
 0.929  0.199  0.144
-0.531 0.0729 -0.0966
-0.738 0.0625 -0.0966
-0.596 -0.294 -0.0862
-0.0454  0.219  0.201
 0.411 -0.217  0.129
-0.841 -0.0823 -0.161
-0.748  0.135 -0.0369
 0.348 0.0367 0.0650
 0.813 0.0832  0.177
-0.0445 -0.258  0.130
-0.343  0.104 0.0770
-0.148  0.135 -0.161
 0.214 0.0108 -0.161
 0.690  0.168  0.170
 0.142 -0.0202  0.130
 0.556  0.135 0.0149
 0.899 0.0315 0.0666
-0.900 0.0212  0.170
-0.457 0.0522 -0.0369
 0.431  0.171  0.177
-0.707 -0.0823 -0.161
-0.542 -0.297 -0.0117
 0.742 -0.0720  0.129
-0.231 0.0729 -0.161
-0.603 -0.103  0.130
0.0510 -0.299 0.0730
-0.0859 -0.00971 0.0873
-0.179  0.135 -0.0162
 0.229  0.219  0.151
 0.597 -0.269  0.130
-0.735  0.219 0.0887
 0.700  0.104 -0.0966
 0.845 -0.00987 -0.161
-0.890  0.219 -0.0533
 0.830  0.219  0.111
 0.794  0.213 -0.156
 0.514 -0.0616  0.130
0.0589  0.218 -0.0162
 0.887 -0.124  0.180
 0.131  0.168  0.160
 0.450  0.134  0.130
-0.620  0.219 0.0764
 0.349 -0.227  0.129
 0.742 -0.186 -0.161
-0.801  0.163  0.141
-0.769 -0.134 -0.161
-0.0342  0.135 -0.0679
 0.437 -0.299 0.0852
-0.0549 -0.00971 -0.0162
 0.297  0.135 0.0666
 0.899 -0.0202  0.108
 0.224 -0.00971 0.0769
 0.680 -0.00971 0.0769
 0.597 0.0418 -0.0966
 0.183 -0.186 -0.161
 0.866  0.166 -0.161
 0.380 -0.124 -0.161
0.0796 -0.134  0.130
-0.0385 -0.293 -0.0805
-0.900 -0.258 0.00451
-0.220  0.135 0.0873
 0.256 -0.00971 -0.00583
-0.837  0.219 -0.0158
 0.348 0.0421 -0.0597
 0.142  0.166 -0.161
 0.642  0.219 -0.0232
 0.312  0.219  0.206
-0.820 -0.301 -0.0134
 0.864  0.218 0.0330
-0.158 -0.00939 0.0769
-0.438  0.218  0.170
 0.669 -0.152  0.137
0.00719  0.156  0.134
 0.115 -0.287 -0.139
-0.521 -0.00971 -0.00583
-0.521  0.219 0.0782
-0.238 -0.301 0.0808
-0.500 -0.279 -0.161
 0.899 -0.0133  0.177
 0.307  0.135 -0.161
 0.566 -0.227 -0.161
-0.407 -0.206 -0.161
 0.618  0.135 0.0666
 0.131 0.0833 -0.161
-0.117  0.125 -0.0938
 0.400 -0.0513  0.130
-0.841  0.156 -0.161
-0.293  0.218  0.129
 0.698  0.218 -0.121
 0.894  0.165  0.180
-0.435 -0.287 -0.141
 0.815  0.219 -0.0705
-0.773  0.217 -0.109
 0.773 -0.258  0.130
-0.00315 -0.248 -0.161
 0.343  0.219  0.155
 0.445 0.0109 0.0769
-0.543 -0.300  0.128
-0.345  0.187 -0.161
-0.715 -0.300 0.0514
-0.614 -0.258  0.130
 0.196  0.219  0.201
-0.945  0.192 0.0356
 0.775 0.0212  0.130
0.0279 -0.00971 0.0769
-0.468 0.0936 -0.0938
 0.622  0.219  0.174
-0.489 -0.00939 -0.0583
-0.808 0.0556  0.140
-0.283  0.171  0.177
 0.634 -0.293 -0.0769
 0.835  0.145  0.180
-0.841  0.166  0.181
 0.518  0.219 -0.00785
-0.900 -0.144 -0.120
-0.645 -0.00971  0.108
-0.707  0.171  0.177
-0.189 -0.00972  0.126
-0.477 -0.300 0.0450
-0.847  0.219  0.135
 0.204  0.219 0.0962
 0.142 -0.186  0.130
-0.655 -0.279 -0.161
-0.324 -0.103 -0.161
 0.462 -0.237  0.129
-0.107 -0.227  0.130
 0.297 0.0626 -0.161
-0.583 0.0936 -0.161
 0.328 -0.0202 -0.161
 0.142  0.135 0.0252
 0.899 -0.113 -0.0265
 0.514  0.135 -0.0679
 0.431  0.218 -0.120
 0.307 -0.206 -0.161
-0.727 -0.186  0.130
-0.727 -0.206 -0.161
 0.899 -0.0409 0.0459
-0.231 -0.00971 -0.0162
 0.152 -0.0409 -0.161
-0.900 -0.0823 -0.0783
-0.900 0.0832 -0.109
 0.680  0.156 -0.161
 0.152 -0.00956 -0.00590
 0.587 -0.196  0.129
 0.551  0.218 -0.100
 0.535 -0.279  0.130
-0.426  0.217 -0.114
-0.727 0.000867 -0.0937
 0.796 -0.144  0.133
 0.760 -0.00634 -0.0265
-0.462  0.219 0.0573
-0.0342 0.0315 -0.0966
-0.368  0.215  0.208
 0.199 -0.296 0.00930
 0.835 -0.155  0.180
-0.541  0.185  0.184
 0.767  0.114 -0.0265
 0.411 -0.136  0.143
 0.245 -0.206  0.129
 0.103  0.219  0.170
-0.247  0.219 0.0500
-0.347 -0.300  0.128
0.0530 -0.287 -0.139
-0.158  0.171  0.177
-0.764 0.0832 -0.0369
 0.866 -0.300  0.126
-0.764 0.0418 0.0356
-0.00748 -0.299 0.0595
-0.263 -0.297  0.129
-0.360  0.219 0.0648
-0.224 -0.293 -0.0771
 0.729  0.219 0.0494
 0.348  0.124  0.126
-0.479 -0.115  0.133
-0.401 -0.297 -0.00912
 0.286  0.219  0.160
 0.876 -0.237  0.180
 0.794  0.219  0.167
 0.204 -0.115  0.133
 0.899  0.166 -0.0472
 0.245 0.0832 -0.0966
 0.710 -0.300 0.0637
-0.892 -0.0306  0.180
-0.407 -0.115  0.133
 0.714  0.219  0.182
-0.510  0.135 0.0769
 0.576  0.135  0.126
-0.593  0.218  0.160
-0.583 -0.227 -0.161
 0.607 -0.124 -0.161
-0.727 -0.00987 -0.161
 0.804 -0.269 -0.161
-0.107 0.0729 -0.161
 0.669 -0.0202  0.130
 0.712  0.219 -0.0615
0.0589 -0.0926 -0.161
-0.583 0.0315 -0.0966
-0.345 0.000484 -0.161
-0.900  0.156  0.108
 0.899  0.145 0.0563
-0.900 -0.00989 -0.0162
-0.479 -0.248  0.130
-0.634 -0.144 -0.161
-0.900 -0.206 0.0563
 0.899 0.0729 0.0149
0.00717  0.135 0.0356
-0.0652 -0.196 -0.161
 0.493 0.0832 -0.0966
-0.717 0.0833 -0.161
 0.400 -0.0616 -0.161
-0.900 -0.113 0.00451
 0.235  0.135 0.0769
-0.624 -0.0306 -0.161
 0.504 -0.00971 -0.0265
-0.189 0.0832 -0.0966
-0.572 -0.0823 -0.161
 0.899 -0.186 -0.109
 0.887 -0.134 -0.161
-0.852 -0.196 -0.161
 0.899 -0.0616 -0.0886
 0.373 -0.299 0.0800
-0.318  0.219 -0.0587
-0.457 0.0109 0.0666
 0.297 -0.196  0.130
 0.100 0.0109 -0.0966
-0.465  0.206 -0.157
-0.321 -0.287 -0.140
 0.761  0.125 -0.0877
-0.572  0.164  0.140
 0.525  0.177  0.181
-0.531 -0.301 0.0760
-0.169  0.138  0.130
-0.727 -0.00971 -0.0369
-0.00318  0.135 0.0873
 0.121 -0.00971 0.0356
-0.919  0.219  0.165
 0.628 -0.0823  0.130
 0.680 -0.248 -0.161
-0.272 -0.175 -0.161
 0.752 -0.186  0.129
-0.127 -0.165  0.129
 0.338  0.218 -0.109
-0.720  0.215  0.208
-0.900 -0.0926  0.108
-0.510 0.0108 -0.161
 0.587  0.125 -0.0938
-0.583 -0.00971 0.0873
-0.272 0.0315 -0.0966
-0.0652 -0.0409 -0.161
 0.597 -0.00971 -0.00583
 0.411 0.0936 -0.161
 0.899 0.0626 -0.0990
-0.603 -0.00971 -0.0265
 0.483 -0.0513 -0.161
0.0382  0.218 -0.0783
 0.767 0.0832 0.0356
-0.900 0.0315 -0.0990
 0.493 -0.144 -0.161
 0.535 -0.175 -0.161
 0.607  0.218 -0.130
0.0382 0.0936 -0.161
-0.00315 -0.0306 -0.161
-0.343 0.0729 -0.0369
-0.0238  0.176 -0.161
 0.690 -0.0616 -0.161
 0.121 -0.248  0.130
-0.303 -0.0513 -0.161
-0.158 -0.0617  0.130
 0.142 -0.0720  0.130
 0.214  0.135 0.0149
-0.521  0.104 -0.161
-0.779 -0.00987 -0.161
 0.638  0.168  0.170
-0.220 -0.124 -0.161
-0.220 0.0212 -0.161
-0.138 0.0729 -0.0966
 0.445 0.0522 -0.0265
 0.690  0.135 0.0666
 0.152  0.135  0.118
-0.841 -0.0409  0.181
-0.00315 -0.144  0.130
 0.597 0.0936 -0.161
-0.500 -0.175 -0.161
-0.717  0.135 0.00451
 0.338 0.0955 -0.0924
-0.0963 -0.0513  0.130
 0.245  0.177  0.180
 0.817 -0.0409  0.180
 0.890  0.218  0.171
 0.335  0.219 -0.0495
-0.424 -0.301 0.0801
 0.214  0.218 -0.140
 0.445 0.0936 0.0770
-0.148 -0.269  0.130
-0.762  0.125 0.0873
-0.892 -0.269 -0.161
 0.680 -0.258  0.130
 0.767 0.0315 -0.0679
 0.207 -0.00631 -0.0876
 0.624  0.219 0.0402
 0.350  0.219 0.00614
-0.324 0.0936 -0.0966
 0.445  0.219  0.185
 0.437  0.219 -0.0611
 0.898 -0.300 0.0289
 0.235  0.218 -0.0576
 0.170  0.219  0.146
-0.558  0.217 -0.112
 0.318 -0.136  0.143
 0.856 -0.0719  0.181
 0.898 0.0315 -0.157
-0.338 0.000975 -0.0446
-0.877 -0.301 0.0203
-0.808 -0.131  0.140
-0.303 -0.269  0.130
-0.718 -0.00939 0.0878
-0.764 0.0109 -0.00581
-0.639 -0.300  0.113
-0.764  0.114 -0.0781
 0.924  0.194 0.0683
-0.272  0.125 -0.0934
-0.108  0.217 -0.126
-0.859  0.206 -0.157
 0.815  0.219 -0.0222
-0.530 0.000945 -0.0923
-0.351 -0.301 0.0801
-0.258 -0.124  0.137
 0.545 -0.172  0.142
 0.576 -0.0202  0.130
-0.207  0.206 -0.157
 0.887 0.0522  0.181
 0.659 -0.287 -0.142
 0.899 0.0936  0.139
 0.338 -0.00981 0.0563
-0.903  0.199  0.211
-0.900 -0.269  0.139
-0.953  0.209 -0.153
-0.801 -0.00986  0.133
 0.804  0.199  0.212
 0.742  0.218 -0.140
-0.210 0.0315 -0.0966
 0.851 -0.299 0.00118
-0.343 0.0269  0.129
-0.510 -0.186  0.133
-0.300  0.206 -0.157
-0.779  0.114  0.130
-0.842 -0.300  0.179
 0.451 0.0350 -0.0877
-0.283  0.135  0.126
-0.201 -0.186  0.131
-0.591 -0.300 0.0449
-0.117 -0.00971 -0.0679
-0.892 -0.0409 -0.161
-0.217  0.219 -0.0618
 0.805  0.125  0.140
 0.870  0.217 -0.0814
 0.759  0.219 0.0906
-0.457 0.0626 0.0873
0.0768  0.219  0.208
-0.806  0.219  0.191
 0.111  0.218 -0.140
 0.348 0.0613 -0.0173
0.0184 -0.00939 0.0248
 0.879  0.217 -0.152
-0.124 -0.293 -0.0834
-0.0267  0.218 0.0146
-0.779 -0.186  0.130
-0.758  0.168  0.160
 0.173  0.104 -0.0966
 0.318  0.135 -0.0265
-0.0860 -0.134  0.130
-0.900 -0.186 -0.0887
-0.748  0.197 -0.161
-0.645 -0.0617  0.130
-0.189 -0.237 -0.161
 0.142  0.218 -0.0990
-0.158 -0.165 -0.161
-0.262  0.125 -0.161
-0.531  0.218  0.150
-0.210 -0.238  0.130
-0.148 0.000484 -0.161
-0.334 0.0936 -0.161
 0.483 0.000484 -0.161
-0.634  0.135 0.0666
0.0382 -0.165  0.129
-0.448  0.145 -0.161
-0.500 -0.00971 0.0356
-0.707 0.0315 -0.161
-0.510  0.135 -0.0265
-0.0135 -0.00971 0.0976
-0.810 0.0315 -0.161
-0.334  0.218  0.160
0.0175 -0.113 -0.161
-0.0445 -0.134 -0.161
-0.490 0.0626 -0.161
 0.700 0.000484 -0.161
-0.900 0.0625 0.0563
 0.318 0.0212 -0.0964
0.0382 -0.0513 -0.161
-0.0549 0.0833 -0.161
 0.700 -0.186  0.130
 0.349  0.156 -0.161
 0.773  0.156 -0.161
-0.852 0.0522  0.180
 0.124 -0.298  0.129
 0.142 0.0315 -0.0961
 0.899 -0.134 -0.0679
 0.235 -0.103 -0.161
 0.680 -0.144 -0.161
 0.173 0.0626 -0.161
 0.556 0.0212 -0.161
 0.514  0.135 0.0356
 0.783 -0.0926  0.130
 0.592  0.219 -0.00746
-0.0963  0.166 -0.161
 0.318 -0.0513  0.130
-0.343 0.0522 0.0459
-0.707 -0.00971 0.0149
 0.576 -0.00949 -0.0780
0.0175  0.135 -0.0679
-0.841 -0.124  0.180
-0.0489 -0.300  0.113
 0.167 -0.299 0.0843
0.00719  0.171  0.177
-0.272  0.199  0.211
 0.152 -0.00971 0.0873
 0.287 -0.248 -0.161
 0.245  0.135 -0.0472
0.0184  0.206 -0.160
-0.159  0.219 0.0212
-0.898 -0.172 -0.157
-0.334 -0.115  0.133
 0.597  0.199  0.212
-0.905  0.185 0.0114
-0.107  0.219 0.0184
-0.696  0.156  0.133
-0.169 -0.134  0.130
 0.274 -0.299 0.0969
 0.452  0.187 -0.161
-0.438  0.194  0.208
 0.495  0.219  0.173
-0.957  0.206  0.140
-0.913  0.190 -0.0990
 0.706 -0.297 0.00611
 0.111 -0.248 -0.161
 0.427  0.219 0.0957
 0.266 -0.00939 -0.0579
 0.837 -0.301  0.161
 0.475  0.219 -0.0251
 0.473  0.125 -0.0936
-0.0932 -0.287 -0.141
 0.411 0.0108  0.129
-0.686  0.219  0.101
 0.440  0.219 0.00763
 0.184 -0.155  0.133
-0.924  0.218 0.0747
-0.427  0.168  0.150
0.0128  0.219  0.157
-0.900 -0.00989 -0.130
 0.145  0.218 -0.0271
 0.434 -0.297  0.129
-0.924  0.192 -0.0472
-0.333  0.131 0.0356
 0.462 -0.248 -0.161
 0.400 -0.248 -0.161
-0.727 -0.0306  0.130
-0.900  0.114 -0.0576
 0.224 -0.00971 0.0252
 0.649 -0.00971 0.0459
-0.603  0.135 -0.0265
 0.483 -0.00971 0.0563
-0.655 -0.0616 -0.161
 0.856 0.000484  0.180
 0.449 0.000975 -0.0239
-0.696  0.187 -0.161
-0.603 -0.175 -0.161
 0.835 -0.237 -0.161
 0.597  0.166 -0.161
0.0900  0.135 0.0149
 0.899 -0.258 0.0149
-0.900 -0.134  0.149
-0.386  0.218  0.149
-0.727 -0.0926  0.130
-0.0756  0.135 0.0563
-0.00316 -0.0720  0.130
 0.545 0.0729 -0.161
 0.899 -0.124 0.0563
-0.324 -0.206  0.130
-0.448 -0.279  0.129
 0.452 -0.165 -0.161
-0.665 -0.113 -0.161
-0.469  0.171  0.177
-0.572 -0.0720  0.129
-0.453  0.219  0.105
-0.821  0.219 0.0767
-0.676  0.135 -0.0472
-0.220  0.185  0.184
-0.345  0.168  0.170
 0.103  0.219 0.0934
 0.742  0.185  0.184
 0.709  0.219 0.0879
-0.603 -0.144  0.143
 0.899 -0.217 -0.140
 0.612 -0.300  0.104
-0.456  0.219 -0.0639
-0.634  0.218  0.180
 0.908  0.187 -0.120
 0.459 -0.131  0.142
0.0589  0.218 -0.120
 0.766 -0.287 -0.149
 0.851 -0.297 -0.0764
-0.900 0.0625  0.139
 0.887  0.199  0.212
-0.768  0.218  0.170
 0.899 -0.258 0.0666
 0.500 -0.299 0.0923
 0.111  0.138  0.130
-0.900 -0.248 -0.120
-0.574  0.219 0.0706
 0.225  0.145  0.130
-0.147  0.218  0.191
-0.343  0.114  0.125
-0.665 -0.258  0.130
-0.164  0.217 -0.121
 0.851  0.219  0.154
 0.327  0.219 0.0783
 0.576 -0.279 -0.161
0.0485 0.0522 -0.0961
-0.510  0.168  0.160
-0.127  0.135 -0.0265
 0.162 -0.258  0.130
 0.638 -0.155 -0.161
-0.789 -0.227 -0.161
 0.628 -0.227 -0.161
-0.810 -0.124 -0.161
0.0486 -0.00971 -0.0576
-0.531 -0.0719 -0.161
 0.607  0.135 -0.0576
-0.686 -0.00971  0.118
-0.872 0.0833 -0.161
 0.700 -0.00971 0.0356
-0.758 0.0936 -0.161
-0.900 -0.248 0.0666
-0.386 -0.00987 -0.161
-0.138 -0.00971 -0.0265
-0.900 -0.175 -0.0472
 0.783 -0.0409 -0.161
 0.525 -0.0719 -0.161
-0.252  0.135 -0.0162
-0.0963 0.0315 -0.0966
-0.686 -0.217 -0.161
 0.876  0.125 -0.161
-0.900  0.125  0.149
-0.345 -0.227 -0.161
-0.386 -0.0823 -0.161
 0.276  0.166 -0.161
 0.193 -0.227 -0.161
 0.245 -0.258 -0.161
 0.731  0.135 -0.00583
 0.690 -0.113  0.130
0.0900 0.0108 -0.161
0.0589  0.135 -0.0265
-0.900 -0.0513 -0.0472
-0.333  0.131 -0.0265
0.0382 0.0936 -0.0966
-0.0239  0.135 -0.0265
0.0279 -0.269  0.130
-0.0135  0.104 -0.161
-0.900 0.0315 -0.00583
 0.390 -0.0202 -0.161
-0.624  0.135 0.0252
0.0279 -0.196 -0.161
 0.856 -0.0513 -0.161
-0.655 -0.00971 0.00451
 0.276 -0.00971 0.0873
 0.235  0.125 -0.161
-0.407 0.0833 -0.161
-0.396 0.0418  0.130
-0.900 -0.0926 -0.0369
 0.463  0.135 0.0252
-0.252  0.218  0.118
-0.624 0.0833 -0.161
 0.514  0.135 0.0873
 0.338 0.0522 -0.161
 0.111 -0.293 -0.0758
-0.200  0.218  0.160
-0.479 -0.293 -0.0850
-0.696 0.0729 -0.0966
-0.0756  0.135 -0.0781
 0.792 -0.296 -0.0144
-0.189 -0.00982 -0.0781
-0.148 -0.00971 0.0356
-0.0756  0.156  0.134
 0.297  0.218 -0.0886
 0.217 -0.293 -0.0735
-0.0652 -0.00971 0.0249
-0.863  0.219 0.0851
 0.605  0.219 0.0778
 0.546 -0.00922 0.0558
 0.711 -0.00971 -0.00583
-0.634 -0.00956 0.0670
-0.195  0.219 0.0549
-0.332 -0.00588 0.0106
-0.634 -0.179  0.137
 0.390  0.114  0.130
-0.107  0.218  0.160
-0.396 -0.258  0.130
 0.504 -0.165  0.144
 0.690 -0.00949 -0.0780
-0.583  0.177  0.180
 0.580  0.219  0.173
 0.831  0.218 0.0585
 0.162  0.135 -0.0679
0.000880 -0.287 -0.140
-0.696 -0.00971 -0.0679
 0.906  0.204 -0.0331
-0.900 -0.279 -0.0576
-0.862 -0.206  0.180
-0.815  0.217 -0.109
 0.721 -0.237 -0.161
 0.345  0.134 -0.0698
-0.314 -0.00971 0.0873
 0.359 -0.0410  0.130
-0.552  0.135 0.0873
 0.573 -0.131  0.142
 0.899 -0.217 0.0149
-0.231 -0.0202 -0.161
 0.121 -0.144 -0.161
 0.421 0.0212 -0.161
-0.900 -0.165 0.0563
-0.148 -0.227 -0.161
-0.334 -0.144 -0.161
-0.283 0.0729 -0.0966
 0.473 -0.0616  0.130
-0.665  0.171  0.177
-0.365 -0.0409  0.130
-0.0963 -0.00971 -0.0265
-0.158 -0.0719 -0.161
-0.665  0.114 -0.161
 0.899  0.166 -0.00581
 0.659  0.135 -0.0162
 0.597 -0.0202 -0.161
 0.131 0.0832 -0.0966
 0.380 0.0626 -0.161
 0.452  0.104 -0.161
 0.899 0.0522 -0.0575
-0.0239 -0.00982 -0.0781
-0.500 -0.00971 0.0769
 0.742 -0.00987 -0.161
-0.900 0.0625 0.0976
-0.457  0.114  0.118
-0.327  0.219 0.0217
 0.899 -0.144  0.139
-0.127  0.218  0.118
-0.365  0.217 -0.115
 0.899 -0.0512 0.00448
-0.727 -0.237  0.129
 0.245 -0.0410  0.130
 0.359  0.168  0.170
 0.814  0.176 -0.161
 0.297 -0.00971 -0.00583
 0.297 -0.0926  0.130
 0.545  0.114 -0.0963
 0.845 -0.300 0.0911
-0.562 -0.00939 -0.00655
 0.556  0.166 -0.161
 0.663 -0.300 0.0675
 0.390 -0.103  0.130
 0.779  0.219  0.126
 0.490 -0.0133  0.130
0.0796  0.166 -0.161
 0.691  0.206 -0.160
-0.764 0.0109 0.0666
-0.520  0.218  0.191
 0.446  0.219 0.0597
-0.272  0.176 -0.161
-0.179  0.176 -0.161
-0.357  0.219 -0.0683
 0.338  0.135 0.0563
 0.421 -0.179  0.137
 0.899 -0.279  0.118
 0.453  0.131 -0.0162
 0.263  0.219 0.00625
 0.765 0.000504 0.0563
-0.575  0.219 -0.0434
 0.628 -0.179  0.137
-0.852 0.0936  0.180
-0.865 -0.301 0.0928
-0.645 -0.103  0.130
 0.483  0.218 -0.0990
 0.661  0.219  0.166
0.0693 -0.0202  0.130
 0.628  0.156  0.133
 0.535 -0.0202  0.130
-0.675  0.218  0.160
-0.816 0.0694  0.177
-0.104 -0.301 0.0900
-0.490 -0.0202  0.130
-0.457  0.114 0.00453
 0.307  0.156  0.134
 0.193  0.135  0.108
-0.457 0.0109 -0.0472
-0.108  0.219 -0.0842
-0.405  0.219 0.0273
-0.726 -0.287 -0.142
 0.752  0.135 0.0976
-0.562 -0.0202  0.130
-0.187 -0.287 -0.141
 0.821  0.219 0.0168
 0.690  0.145  0.130
 0.554  0.219  0.144
-0.0342  0.218 0.0873
-0.808 -0.0478  0.140
 0.145  0.219  0.178
-0.469  0.135 -0.0679
-0.771 0.0315  0.130
 0.411  0.199  0.212
 0.297  0.218 -0.130
 0.773 -0.300  0.119
-0.275  0.219 0.0211
-0.00318  0.218 -0.0886
-0.0420  0.219 -0.0458
 0.349 -0.279  0.130
-0.262 -0.258  0.130
-0.283 -0.186  0.133
 0.473 -0.00971 0.00451
 0.211  0.219 -0.0271
-0.898 -0.131 -0.157
-0.614  0.156  0.134
 0.700 -0.300  0.128
-0.858 -0.301 0.0535
 0.899 -0.196  0.139
-0.262  0.164  0.140
 0.276  0.168  0.160
 0.293 -0.292  0.129
 0.567 -0.300  0.130
-0.808 -0.0892  0.140
 0.290 -0.00616 -0.0876
0.0603  0.219  0.174
-0.623 -0.287 -0.142
 0.173  0.177  0.180
-0.811  0.218  0.153
 0.638  0.194  0.208
 0.512  0.219  0.209
-0.365  0.156  0.133
-0.116 -0.00939 0.0562
-0.107  0.168  0.160
-0.441 -0.131  0.142
0.0423 -0.301  0.115
 0.287  0.192  0.201
 0.603  0.219 -0.0736
-0.726 -0.294  0.129
-0.0135 -0.00971 0.00451
-0.924  0.192  0.129
-0.200 -0.103  0.130
-0.323  0.218 0.0988
 0.649 -0.00956 -0.0269
 0.131 -0.00956 -0.0372
 0.651  0.218 -0.121
-0.610  0.219  0.113
 0.812 -0.237  0.150
 0.901  0.178 -0.157
 0.603 -0.297 0.00482
 0.812 -0.00988  0.160
 0.214 -0.186  0.133
 0.473  0.135 -0.0576
-0.562 -0.258  0.130
 0.669  0.125 -0.0938
-0.543  0.213 -0.150
 0.715  0.219 -0.0213
 0.111 -0.155  0.129
-0.624 0.0625 -0.0962
 0.106  0.218 -0.0155
 0.894 -0.0513  0.180
-0.0239 -0.175  0.130
-0.593 -0.227  0.129
 0.773 -0.144 -0.161
 0.899  0.156 -0.0886
-0.552 -0.248 -0.161
 0.338 -0.237 -0.161
-0.251 -0.227 -0.161
-0.831 -0.227 -0.161
 0.856 -0.269  0.180
-0.900 -0.144 -0.0162
 0.183 -0.00971  0.108
-0.900 0.0625 -0.140
 0.628 0.0212 -0.161
 0.669 0.0212 -0.161
 0.587  0.135 0.0356
-0.324 0.0522 -0.161
 0.535  0.135 -0.0265
 0.669 0.0832 -0.0966
-0.127 -0.0926 -0.161
-0.900 -0.196  0.139
 0.483 0.0833 -0.161
 0.276  0.135 -0.0265
 0.638 -0.0719 -0.161
-0.169  0.104 -0.161
-0.764 0.0626 0.0666
 0.899 -0.0926 -0.0575
-0.900 -0.0202 0.0976
-0.262 -0.0513  0.130
 0.256 -0.0306 -0.161
-0.0342  0.104 -0.0966
-0.200 0.0522 -0.161
-0.593 0.0522 -0.161
 0.504 -0.237  0.129
-0.795 -0.300  0.105
-0.852 0.0212 -0.161
 0.742  0.135 -0.161
-0.458 -0.124 -0.161
 0.445 0.0729 0.0356
-0.272 -0.00971 0.0252
-0.272  0.135 0.0252
0.0279 -0.269 -0.161
 0.721 -0.00971 0.0666
 0.204 0.0833 -0.161
 0.193 -0.0202 -0.161
 0.131 -0.0719 -0.161
0.0796 -0.175 -0.161
 0.899 -0.186 0.0873
-0.241  0.135  0.118
-0.900 -0.0720  0.149
-0.252 -0.00971 -0.0472
 0.794 0.0522 -0.161
 0.525  0.104 -0.161
 0.899 0.0212 -0.109
-0.900 -0.0823 0.0459
 0.767 0.0315 0.0252
-0.0446 -0.00971 0.0769
 0.767 0.0729 -0.0369
-0.0859 -0.0719 -0.161
-0.900  0.104 0.0356
0.0382  0.135 0.0769
-0.0859 0.000484 -0.161
-0.0342 0.0108 -0.161
-0.900 0.000455 0.0666
0.0382 -0.227  0.130
-0.117  0.114 -0.161
 0.297 -0.0926 -0.161
-0.758 -0.0926 -0.161
 0.711 -0.0926 -0.161
-0.900 -0.0306 0.0149
 0.856 0.0936 -0.161
 0.899 -0.00987 -0.0265
-0.0652 -0.0720  0.130
0.0796  0.135 0.0769
 0.899 0.0729 -0.0265
-0.764 0.0522 -0.0162
-0.458 -0.0409  0.130
 0.899 -0.0202 -0.0886
-0.0963 -0.155 -0.161
 0.856 0.0729  0.180
-0.779  0.166 -0.161
 0.214 -0.258  0.130
-0.292 -0.00939  0.118
 0.121 -0.103  0.130
-0.457 0.0936 0.0459
-0.376  0.156 -0.161
 0.431  0.135 -0.161
 0.225 -0.165 -0.161
-0.500 -0.237 -0.161
-0.293 -0.206 -0.161
-0.614 -0.248 -0.161
-0.900 -0.0616 -0.109
 0.556 -0.248  0.130
 0.845 -0.124 -0.161
-0.758 -0.186 -0.161
 0.287 -0.165 -0.161
 0.825 -0.196 -0.161
 0.899 -0.155 -0.130
 0.266 -0.196 -0.161
-0.655 -0.175 -0.161
 0.794 -0.113 -0.161
-0.831 -0.165 -0.161
 0.380 -0.217 -0.161
 0.545 -0.00971 0.00451
 0.193 -0.00971 0.00451
-0.624  0.104 -0.0966
 0.400 0.0522  0.130
-0.764 0.0626 -0.0679
-0.469 -0.0616 -0.161
 0.899  0.114 -0.0886
-0.262 -0.0513 -0.161
 0.566 -0.0409 -0.161
 0.121 -0.0202 -0.161
 0.525 -0.00971 -0.0576
-0.469 -0.0202 -0.161
-0.665  0.135 0.0459
-0.210  0.135 -0.0369
 0.899 -0.186 -0.00581
 0.628 0.0212 -0.0966
-0.645 0.000484 -0.161
-0.179 0.0212 -0.161
 0.659  0.135 0.0356
 0.493 -0.0926  0.130
 0.493 -0.0926 -0.161
 0.899 -0.206 -0.0679
-0.593 -0.00987 -0.161
 0.100  0.104 -0.0966
-0.541 -0.0926  0.130
-0.562  0.104 -0.0966
-0.0445 -0.206  0.129
-0.457 0.0832 -0.0162
-0.900 -0.144 0.0252
 0.814 0.0936 -0.161
-0.251 0.0419 -0.161
-0.603  0.135 -0.0781
-0.148  0.135 -0.0576
 0.899 0.0522  0.108
 0.173 -0.0926  0.130
 0.379  0.219  0.172
-0.158  0.218 0.0873
 0.767  0.114 0.0149
 0.721 -0.0410  0.130
 0.445 0.0419 0.0977
-0.872  0.145  0.180
 0.773 -0.217  0.130
-0.748 -0.237 -0.161
 0.380  0.135 -0.161
-0.862 -0.258  0.180
 0.899  0.166 0.0873
 0.445 0.0418 0.0563
-0.789  0.185  0.184
-0.717  0.135 -0.0576
-0.873 -0.301 -0.0871
-0.957  0.199 -0.0679
 0.784  0.219 -0.115
 0.754  0.219  0.172
-0.293  0.218  0.170
-0.0212  0.218  0.174
 0.204  0.135 -0.0576
-0.0756  0.218  0.180
 0.628  0.131 -0.0876
-0.468  0.218  0.191
-0.324  0.135 0.0769
-0.465 -0.301 0.0801
-0.801 -0.269  0.133
-0.872  0.185  0.184
-0.862 -0.00987  0.180
 0.328  0.135 0.0976
-0.810 -0.287 -0.140
-0.676  0.125 -0.0936
-0.572  0.135  0.118
 0.338  0.194  0.208
 0.742 0.0211 -0.0961
 0.348 0.0579  0.105
-0.679 -0.300 0.0448
 0.531  0.219  0.177
 0.445  0.114 -0.0472
 0.383 -0.296 0.0189
-0.928  0.218 -0.0748
-0.196 -0.301 0.0901
 0.897 -0.301 -0.0572
-0.697 -0.144  0.130
-0.696  0.219 0.0247
-0.0978  0.219 -0.0322
 0.338 0.0546 -0.0919
-0.134 -0.301  0.111
 0.493 -0.196  0.130
 0.607  0.135  0.108
 0.922  0.192  0.110
 0.548 -0.287 -0.140
 0.493  0.168  0.160
 0.767 0.0936 -0.0679
-0.457 0.0109 0.0252
 0.866 -0.175  0.180
-0.386 -0.301 0.0864
 0.276  0.104 -0.0966
 0.812 0.0522  0.160
 0.129  0.219 0.0703
 0.569  0.219 0.0737
 0.404 -0.287 -0.140
-0.428  0.218  0.129
 0.846  0.206 -0.160
-0.248 -0.287 -0.140
-0.591 -0.286  0.129
 0.107 -0.0132  0.130
-0.767 -0.294 -0.0962
-0.877 -0.292 -0.136
 0.229  0.219 0.0725
-0.862  0.219 0.00865
 0.899 -0.268 -0.0783
-0.665  0.135 0.0976
-0.0342  0.135  0.126
 0.556 -0.103  0.130
 0.348 0.0140 -0.0211
-0.831  0.192  0.201
-0.293 -0.115  0.133
-0.376  0.104  0.129
-0.956  0.194  0.173
 0.328 -0.00971  0.118
-0.00317  0.125 -0.0938
-0.558 -0.124  0.138
-0.314  0.185  0.184
-0.738  0.185  0.184
 0.872 -0.299 0.0576
 0.111  0.135 -0.0679
 0.902  0.178  0.139
-0.343 0.0936 -0.0678
 0.893 -0.296 -0.127
 0.483  0.135  0.118
 0.630 -0.286  0.130
 0.452  0.168  0.150
 0.245 -0.115  0.133
-0.750  0.219  0.141
-0.924  0.218 0.00305
-0.485  0.219 0.0916
0.0188 -0.300 0.0852
 0.899  0.132  0.177
-0.427 -0.179  0.137
 0.100  0.194  0.208
 0.214 -0.0823  0.130
 0.783  0.219 -0.0599
-0.668 -0.170  0.142
 0.866 -0.279 -0.161
 0.898 -0.0305 -0.157
-0.624  0.208  0.211
0.0900 -0.279 -0.161
 0.690  0.194  0.208
-0.579 -0.00593 -0.0870
 0.297 -0.165  0.143
 0.866 0.0419 -0.161
 0.399 -0.299  0.104
 0.899 -0.268  0.160
-0.788 -0.300 -0.00251
 0.676  0.219 -0.0231
-0.388  0.213 -0.150
 0.390  0.219 0.0862
 0.694  0.219  0.155
-0.727  0.135 0.0976
 0.133  0.219  0.146
 0.744 -0.300 0.0667
-0.289 -0.300 0.0583
 0.865  0.218 0.0755
-0.0316  0.218 0.0492
 0.767 0.0729 0.0977
-0.416  0.218  0.201
 0.749  0.219 -0.0603
-0.773 -0.300 0.0474
0.0796  0.168  0.150
 0.535  0.218 -0.130
-0.831 -0.301 0.0760
-0.696  0.192  0.201
 0.887 0.000484 -0.161
 0.464 -0.00943  0.100
-0.200  0.135  0.118
-0.634 -0.00971 -0.0576
 0.445 0.0212  0.125
 0.277  0.213 -0.156
-0.894  0.218 -0.0204
-0.0653  0.192  0.201
-0.614 -0.00972  0.126
 0.376 -0.131  0.142
 0.618  0.197 -0.161
 0.339  0.206 -0.160
-0.00661 -0.0133  0.130
 0.812 -0.0720  0.170
0.0804 -0.00939 -0.00591
-0.220 -0.0202  0.130
-0.530 -0.00922 -0.0480
 0.817 -0.299 0.0719
 0.204 -0.269 -0.161
-0.900 -0.289 -0.00583
-0.562  0.218  0.170
-0.479 -0.196  0.130
 0.545  0.145  0.130
-0.282  0.218 0.0977
-0.205 -0.297 0.00384
-0.655 -0.301 0.0843
 0.206 -0.299  0.130
-0.472 -0.00558 -0.0861
 0.473 -0.279 -0.161
-0.107  0.218 0.0769
-0.889  0.219  0.179
 0.812 -0.134  0.170
-0.189  0.168  0.150
 0.452 -0.269  0.130
 0.442 -0.206  0.130
 0.731 -0.258  0.130
-0.696 -0.103  0.130
 0.152 -0.217  0.129
-0.396 -0.258 -0.161
 0.100 -0.217 -0.161
-0.696 -0.175 -0.161
 0.100  0.218 -0.109
 0.152 -0.155 -0.161
-0.200 -0.0823 -0.161
-0.500 0.0832 -0.0966
 0.462  0.185  0.184
 0.307  0.135 0.0252
 0.297  0.135  0.108
 0.266 0.0522 -0.161
 0.649 -0.00971 0.0873
 0.276 -0.0513  0.130
-0.821  0.114 -0.161
-0.417 0.0108  0.129
 0.173 -0.0513  0.130
 0.493 -0.269  0.130
-0.396 -0.0513 -0.161
-0.913  0.190 0.0873
-0.169 -0.175  0.129
 0.628 -0.248  0.130
-0.603 -0.134 -0.161
-0.676 -0.248 -0.161
-0.510 -0.144 -0.161
 0.638 -0.196 -0.161
 0.431 -0.227 -0.161
-0.231 -0.0926  0.130
 0.866 -0.227 -0.161
-0.0238  0.135 -0.161
-0.900 -0.124 -0.0887
 0.297  0.104 -0.161
-0.541 0.0315 -0.0962
 0.224 0.0211 -0.0962
 0.576 0.0936 -0.0961
 0.256 0.0522 -0.0966
 0.152  0.135 -0.0369
0.00716 0.0522 -0.0962
-0.314 0.0212 -0.161
-0.0135 -0.269  0.130
-0.900 -0.237 0.0356
-0.283  0.135 -0.0369
 0.173  0.145 -0.161
-0.220  0.104 -0.161
 0.225 0.0419 -0.161
-0.900  0.166 -0.0576
 0.607 -0.00971 -0.0369
 0.597  0.135 -0.0265
-0.764 0.0729 0.0252
-0.169  0.135 0.0149
-0.479  0.135 -0.0162
-0.220  0.218  0.129
 0.899  0.104 0.0356
-0.900 0.0211 -0.0679
-0.748  0.125 -0.161
-0.334 -0.0617  0.130
 0.731 -0.103  0.130
0.0589 -0.0617  0.130
 0.891  0.212 0.0154
 0.767 0.0936 0.0666
0.0693  0.218 -0.0472
-0.0860  0.135 0.0873
-0.0653 0.0212 -0.0966
-0.0963 -0.0926  0.130
-0.900 0.0522 0.0252
-0.900 0.0315 0.0769
0.00719 0.0315 -0.161
 0.899 0.000455 0.0563
-0.0135  0.135 0.00451
-0.0963 0.0419 -0.161
 0.445 0.0626 -0.0575
 0.899  0.114 -0.0265
-0.900 0.0729 -0.0265
-0.0446 -0.00971 -0.0472
-0.0446  0.135 0.0666
0.0589 -0.00971 0.0873
-0.148  0.104 -0.0962
-0.0342 0.0522 -0.161
 0.825  0.114  0.180
-0.696  0.135 0.0356
-0.862 0.0522 -0.161
-0.900  0.145 0.0149
 0.587 -0.237  0.129
-0.0135 -0.124 -0.161
 0.825 -0.186  0.180
 0.421  0.197 -0.161
 0.659  0.125 -0.161
-0.552  0.176 -0.161
 0.783 -0.186 -0.161
-0.900 -0.103  0.139
-0.645 -0.227  0.129
 0.214 -0.134 -0.161
 0.266  0.135 -0.161
-0.427 -0.134 -0.161
-0.200 -0.165 -0.161
 0.411 -0.165 -0.161
 0.162 -0.217 -0.161
 0.111  0.156 -0.161
 0.597 -0.217 -0.161
 0.400  0.218 -0.109
 0.318 -0.175 -0.161
-0.541 -0.186 -0.161
 0.256  0.135 0.0459
 0.700 0.0729 -0.161
-0.655  0.145 -0.161
-0.458 0.0729 -0.161
-0.552 0.0833 -0.161
-0.655 0.0419 -0.161
 0.525 0.0108 -0.161
 0.711 0.0729 -0.0966
 0.111  0.135 0.0459
 0.607 -0.00971 0.0769
 0.235  0.135 -0.0162
 0.825 0.0315 -0.161
0.0486  0.156 -0.161
-0.0549  0.166 -0.161
 0.100 -0.00971 0.0666
-0.900  0.145 0.0769
0.0693  0.218 -0.0886
-0.562  0.135 -0.0265
0.0486 -0.196  0.130
-0.107  0.197 -0.161
 0.390 -0.0926 -0.161
-0.345  0.125 -0.161
 0.100 0.0936 -0.161
-0.665 -0.00949 -0.0780
-0.900 0.0108  0.139
 0.445  0.104  0.108
-0.417 0.0522 -0.161
 0.690  0.135 -0.0265
-0.521  0.135 0.00451
-0.303 0.0212 -0.0966
 0.587 0.0108 -0.161
-0.593  0.135 0.0149
 0.349 0.0108 -0.161
 0.452 0.0108 -0.161
 0.721  0.135 0.0252
 0.183  0.135 0.0252
 0.752 0.0212 -0.161
 0.628 -0.0306 -0.161
 0.245 0.000484 -0.161
 0.899 0.0522 -0.130
 0.742 0.0936 -0.161
 0.235 -0.00939 -0.0476
-0.479 0.0315 -0.161
-0.707 0.0418 -0.0966
-0.862 -0.0202 -0.161
-0.634  0.135 -0.0369
-0.696  0.135  0.108
-0.179 0.0418 -0.0966
-0.189  0.135 0.0666
-0.900 -0.134  0.108
 0.649  0.135 0.0769
 0.899 -0.113  0.108
 0.899 -0.175 0.0459
-0.200 -0.00971 -0.00583
 0.556 0.0418 -0.0966
 0.899 0.0626 0.0769
-0.00316 -0.237  0.129
 0.324 -0.293 -0.0694
0.0796 -0.237  0.130
 0.899 -0.165 -0.0783
-0.852 -0.0926  0.181
-0.779 -0.144  0.130
-0.572 -0.155  0.143
-0.365 -0.206  0.130
-0.852 -0.175  0.180
-0.396 -0.217  0.130
-0.117 -0.237 -0.161
-0.138  0.166 -0.161
 0.380 -0.237  0.129
-0.900 -0.258 -0.0887
-0.479  0.135 -0.161
 0.380  0.176 -0.161
 0.142 -0.113 -0.161
-0.169 -0.196 -0.161
-0.303 -0.134 -0.161
-0.376 -0.217 -0.161
 0.899 -0.113  0.149
 0.711 -0.175 -0.161
 0.349 -0.113 -0.161
 0.256 -0.258  0.130
-0.262 -0.0926 -0.161
 0.266 -0.113 -0.161
-0.314 0.0625 -0.0966
0.0693 -0.206 -0.161
-0.0531 -0.296 -0.00517
0.0693 0.0212 -0.0966
-0.738 -0.00971 0.00451
-0.148 -0.00982 -0.0781
 0.899 -0.155  0.170
-0.177 -0.294  0.129
 0.256  0.135 -0.0781
-0.593  0.176 -0.161
 0.814  0.185  0.184
-0.345 -0.144  0.143
-0.0756 -0.279  0.130
-0.748  0.135 0.0149
-0.717 -0.00971 0.0459
-0.0342  0.190  0.191
 0.455 -0.00588 0.0313
 0.196 -0.299 0.0980
-0.461 0.0626 -0.0877
-0.813 -0.289  0.171
-0.209  0.218  0.191
 0.806 0.0212  0.140
-0.490 -0.144  0.143
0.0240 -0.299 0.0519
 0.149  0.219 0.0399
0.0279 -0.00971 -0.00617
-0.0747 -0.00939 0.0558
-0.822 -0.206  0.180
 0.369 -0.301  0.117
-0.603 -0.00971 0.0563
-0.0420  0.216 -0.134
 0.775  0.125  0.130
-0.291 -0.297 0.000972
 0.731  0.135 -0.0781
 0.773  0.177  0.181
-0.957  0.199 0.0666
0.0175 -0.00971  0.108
-0.138  0.135  0.108
 0.765 0.000504 -0.0575
-0.303  0.135 0.0459
 0.348  0.126 -0.0190
-0.0104  0.218 -0.0130
 0.530  0.219 -0.0725
 0.690 -0.00971  0.108
 0.905  0.208 0.0473
 0.576  0.218 -0.120
-0.707 -0.269  0.130
 0.806 -0.113  0.140
 0.825 -0.227  0.181
0.0692  0.135 -0.0576
 0.711  0.135  0.108
 0.400  0.168  0.170
 0.413  0.219  0.185
 0.812 -0.165  0.160
0.0382  0.135  0.126
 0.245  0.168  0.150
-0.240  0.218 0.0873
 0.669 -0.186  0.132
 0.348  0.100  0.104
-0.813 0.0315  0.160
-0.562 -0.301 0.0663
-0.252 -0.155  0.143
-0.342 0.0315 0.0976
 0.386  0.219 -0.0395
-0.541  0.208  0.211
 0.867  0.218  0.118
-0.369 -0.297 -0.00643
-0.883 -0.103 -0.161
 0.369  0.190  0.191
 0.738 -0.293 -0.0931
-0.809  0.107  0.140
 0.173  0.194  0.208
-0.00317  0.192  0.201
-0.231  0.131 -0.0873
-0.158  0.194  0.208
-0.469  0.135 0.0976
-0.872 -0.227 -0.161
 0.229 -0.299 0.0977
 0.245 -0.00972  0.126
 0.511 -0.299  0.130
-0.329 -0.301  0.102
-0.231 -0.179  0.137
-0.311 -0.299  0.129
 0.695 -0.301 0.0911
 0.526  0.219 -0.0380
 0.251 -0.287 -0.138
 0.173  0.197 -0.161
 0.458  0.219 0.0975
-0.537  0.219  0.117
 0.899 -0.298  0.143
-0.511 -0.297  0.129
-0.924  0.192 -0.130
-0.894 -0.297  0.127
 0.773 -0.124  0.130
 0.227  0.219  0.182
0.0882 -0.300  0.118
 0.802  0.219 0.0703
 0.773 -0.00991  0.130
-0.0963 -0.175  0.130
-0.582 -0.00956 0.0251
-0.0963 0.000533 -0.0937
-0.531 -0.269  0.130
 0.835 -0.279 -0.161
 0.224  0.218 -0.109
 0.659 -0.00971 -0.0679
 0.762 -0.217 -0.161
 0.576 -0.124 -0.161
 0.328 -0.196  0.130
-0.438  0.104 -0.161
-0.635 -0.297 -0.0117
-0.396 -0.0409  0.130
-0.127 -0.0617  0.130
 0.899 -0.0616 -0.120
 0.845 -0.155 -0.161
 0.152  0.218 -0.0576
-0.562 -0.124 -0.161
-0.138 -0.134  0.130
-0.900 -0.113 -0.120
-0.386 -0.175 -0.161
-0.252  0.135 0.0873
-0.220 -0.00971 -0.0472
 0.245 -0.0616 -0.161
 0.525 -0.237 -0.161
-0.497  0.206 -0.157
-0.541 0.0108 -0.161
 0.690 -0.279 -0.161
-0.709  0.213 -0.150
-0.241  0.187 -0.161
 0.628  0.104 -0.161
-0.521  0.135 -0.161
 0.442 -0.0719 -0.161
-0.0342 -0.144  0.130
 0.628 0.0625 -0.0962
-0.158 -0.0306  0.130
-0.427 -0.0306  0.130
 0.899 0.0832  0.108
-0.0549  0.135 -0.0369
0.0589 -0.0927  0.130
 0.690 -0.0306 -0.161
-0.0859 -0.00971  0.118
0.0589  0.135 0.0149
 0.224 -0.00971 -0.00583
 0.256 -0.00971 0.0252
-0.0135 -0.103  0.130
-0.945  0.192 0.00451
-0.552  0.114 -0.161
 0.767 0.0212 -0.00582
-0.251 0.0108 -0.161
 0.899 -0.0823 0.0563
-0.158  0.135 0.0459
-0.00315 0.000484 -0.161
 0.856 0.0419  0.180
 0.483 0.0522 -0.161
-0.900  0.114 0.00451
-0.117 -0.00971 0.0873
0.0382  0.171  0.177
-0.717  0.114 -0.161
-0.900 -0.00989 -0.0472
 0.773  0.114 -0.161
 0.899 0.000474  0.139
-0.0342 -0.0720  0.130
-0.0549 -0.248 -0.161
-0.900 -0.258 -0.0265
-0.900 -0.0926 0.0769
-0.324  0.135  0.108
-0.00317 0.0109 -0.0966
0.0279  0.218 -0.0162
0.0382  0.218 -0.0472
-0.552  0.135 0.0563
-0.727 -0.0409 -0.161
-0.892 -0.00987 -0.161
0.0279  0.218 -0.120
-0.0549  0.218  0.118
 0.899  0.125 -0.0575
-0.231  0.135 0.0563
-0.0756  0.135 0.0252
-0.862 0.0212  0.180
-0.764 0.0936 0.0666
 0.445 0.0522 0.00453
-0.427 -0.0616 -0.161
-0.343 0.0419 -0.0368
 0.806 -0.0720  0.140
-0.407  0.104  0.130
-0.169 -0.103  0.130
-0.872 -0.124  0.180
 0.899 -0.0823 -0.0265
-0.738 -0.0617  0.130
-0.510 0.0315 -0.0961
 0.193 0.0211 -0.0961
-0.900 -0.196  0.170
 0.214 0.0832 -0.0966
-0.117 0.000484 -0.161
-0.900 0.0315 -0.130
-0.900  0.125 -0.0265
-0.117  0.135 -0.0576
 0.483  0.166 -0.161
-0.841 -0.113 -0.161
-0.900 -0.186 -0.120
-0.624  0.166 -0.161
-0.892  0.156 -0.161
 0.224 0.0522 -0.0966
-0.469 -0.279 -0.161
-0.262 0.0729 -0.161
 0.142 -0.155  0.130
-0.603 -0.00971 -0.0576
-0.448 -0.196 -0.161
-0.800 -0.155 -0.161
-0.541  0.131 -0.0876
 0.307 0.0108 -0.161
-0.448  0.176 -0.161
-0.386 -0.113 -0.161
 0.328 -0.269 -0.161
-0.241 -0.00971 0.0459
 0.338  0.156  0.134
-0.593  0.135 -0.161
