ply
format ascii 1.0
element vertex 2048
property float x
property float y
property float z
end_header
 0.101 -0.0225 -0.820
-0.376 -0.461  0.780
 0.301  0.180  0.229
-0.426  0.182 -0.205
 0.118 -0.422 -0.187
-0.380  0.192  0.499
 0.288 -0.254  0.767
-0.412 -0.414 -0.802
-0.426  0.182 -0.773
 0.278  0.192 -0.331
0.0442  0.192  0.779
 0.118 -0.414  0.319
 0.281 -0.460 -0.813
-0.127  0.192  0.129
-0.109  0.192 -0.466
 0.137 -0.0444 -0.0512
-0.218 -0.0986  0.747
 0.118 -0.144 -0.457
 0.118 -0.0535  0.499
-0.0641 -0.342 -0.795
-0.0190 -0.427  0.761
 0.297  0.188 -0.662
-0.290 -0.117 -0.795
-0.429  0.173  0.192
-0.127  0.188 -0.847
 0.293  0.190  0.560
-0.308  0.192  0.795
-0.0732  0.192  0.427
-0.0190  0.192 -0.178
 0.120 -0.426 -0.554
 0.137 -0.144  0.220
-0.389  0.192 -0.494
 0.296  0.188 -0.0482
 0.253 0.0172  0.771
0.0432 -0.145  0.771
 0.118 -0.315  0.563
 0.297 -0.189 -0.810
 0.137 -0.342 0.0571
 0.118  0.100 -0.512
 0.105  0.162 0.0963
 0.118 0.0188 -0.277
-0.412 -0.234  0.754
0.0803  0.192 -0.746
 0.118  0.106  0.337
-0.236  0.191 -0.0873
 0.118 -0.198 -0.674
-0.131  0.163  0.640
 0.215 -0.461  0.756
-0.410 0.00373  0.749
-0.227  0.192 -0.656
 0.118 -0.189 -0.232
-0.190 -0.306  0.747
-0.0822 -0.117 -0.795
0.0804  0.162  0.563
-0.254  0.192  0.301
-0.245  0.191 -0.313
 0.296 0.0361 -0.819
-0.427  0.168 -0.00308
 0.137 -0.234  0.391
 0.137 -0.315 -0.376
 0.118 -0.378 -0.737
-0.0859 0.0355  0.771
0.0713  0.192 -0.358
-0.245 -0.306 -0.795
-0.257 0.0601 -0.819
 0.171  0.192 -0.178
 0.293  0.190  0.740
 0.120 -0.311  0.771
-0.429  0.178  0.671
 0.118 -0.0173 -0.647
 0.225  0.191 -0.847
-0.0461  0.192 -0.629
-0.000953  0.192  0.247
 0.118 0.0278  0.662
 0.137 -0.00832  0.120
 0.294  0.164 -0.495
 0.283  0.163  0.396
-0.406 -0.234 -0.795
-0.0551 0.0459 -0.796
 0.118 -0.207 -0.0512
-0.412 -0.00833 -0.802
-0.00997  0.191 -0.0151
0.0634 -0.236 -0.819
-0.118  0.192  0.795
-0.281  0.192 0.0932
-0.424  0.165  0.349
 0.118 -0.162  0.635
-0.254 0.0549  0.747
-0.227  0.192  0.508
 0.137 -0.297  0.220
 0.118 -0.0535  0.346
 0.113  0.108 -0.0491
 0.191 -0.124  0.771
-0.0732  0.192 -0.322
 0.118 -0.279 -0.530
-0.407  0.163 -0.348
-0.0410 -0.262  0.771
 0.132 -0.427  0.472
 0.161  0.192 -0.611
 0.243 -0.324 -0.796
 0.152  0.192  0.689
 0.161  0.191  0.229
 0.270  0.192 0.0932
-0.397  0.192 -0.638
 0.118 -0.180 0.0842
-0.245  0.192 -0.494
-0.290  0.192 -0.843
-0.263  0.192  0.662
 0.144  0.192  0.445
 0.136 -0.426  0.165
-0.181 -0.427 -0.802
 0.137 0.000725 -0.421
-0.245 -0.426  0.767
 0.171 -0.153 -0.796
0.0261  0.192 -0.494
 0.126 -0.427 -0.0422
-0.161  0.162 -0.217
 0.120 -0.426  0.674
-0.344 -0.117  0.770
-0.0822 -0.126  0.747
 0.296  0.166 -0.175
-0.00264  0.162  0.660
 0.171 0.0909 -0.791
-0.133  0.163  0.275
 0.189  0.192 -0.430
-0.000953  0.188 -0.847
-0.317 -0.315  0.770
-0.127 -0.234 -0.795
0.0602 -0.0209  0.771
 0.137 -0.315 -0.123
 0.126 -0.427 -0.322
 0.137 0.0188  0.247
-0.163 -0.0173 -0.795
-0.0493  0.162  0.544
 0.118 0.0730  0.463
 0.137 -0.198  0.508
-0.109  0.191 -0.0873
 0.136 0.0790  0.771
 0.118 -0.0625 -0.187
-0.427  0.173  0.798
 0.137 -0.126 -0.575
 0.137 -0.126 -0.340
0.0442  0.192  0.373
 0.198  0.192 -0.728
 0.180  0.191 0.00293
 0.294 -0.375  0.764
0.0752  0.163 -0.240
0.0352 -0.126 -0.796
 0.137 0.0459 -0.150
-0.190  0.192 0.0210
 0.136 -0.426 -0.439
 0.214 -0.0462 -0.820
 0.118  0.106 -0.674
-0.317  0.191 -0.169
-0.299  0.192  0.418
-0.0822  0.192 -0.737
-0.254 -0.207  0.747
 0.180  0.181  0.799
 0.171  0.192 -0.295
 0.118 -0.333 -0.259
 0.137 -0.306 -0.638
-0.326  0.162 -0.721
0.0152 0.0836  0.771
 0.118 -0.0173 -0.530
-0.136 -0.414  0.747
0.0713  0.192 -0.114
-0.200  0.192 -0.764
 0.295 -0.0886  0.766
0.0421 -0.399 -0.815
 0.137  0.107 -0.385
0.0532 0.0730 -0.796
-0.317  0.191 -0.403
-0.154  0.192 -0.566
-0.236  0.192  0.192
-0.0190  0.192 0.0932
-0.317  0.192 -0.0152
-0.154 0.0909 -0.795
 0.187  0.162  0.581
 0.115  0.174 -0.847
-0.304 -0.419 -0.815
-0.410 -0.126 -0.797
 0.198  0.191  0.337
-0.353  0.107  0.747
 0.294  0.164 -0.769
 0.137 0.0729 0.0481
 0.118 -0.0715  0.698
-0.145 -0.207  0.770
-0.410 -0.366  0.749
-0.350  0.111 -0.814
 0.137 -0.261  0.662
 0.118  0.100  0.183
-0.163  0.110  0.749
-0.380  0.163 0.0949
-0.171  0.163  0.411
-0.190  0.192 -0.403
 0.125 -0.207  0.770
-0.190 -0.153 -0.795
 0.162 -0.261 -0.796
-0.353  0.192  0.274
 0.137 -0.0805 0.0481
-0.317  0.191 -0.575
-0.417  0.163 -0.105
 0.137 -0.0625  0.599
 0.137 -0.333  0.409
 0.118 0.0549  0.563
 0.137 -0.162  0.319
 0.118 -0.422  0.572
0.0326  0.162  0.475
-0.344 -0.315 -0.795
0.0622  0.192 -0.602
 0.231  0.162  0.488
-0.176 -0.00482  0.771
 0.137 -0.0805 -0.719
 0.137 -0.117  0.418
-0.314 -0.209 -0.820
-0.317  0.192  0.581
-0.000953 -0.0354 -0.795
 0.233  0.111  0.759
 0.193  0.163 -0.522
-0.0280 -0.216 -0.796
 0.191 -0.427 -0.809
 0.118 -0.126 -0.114
 0.132 -0.427 -0.656
-0.0412  0.163  0.342
 0.260  0.162  0.655
0.0812 -0.427  0.760
 0.118 -0.234 -0.331
 0.220  0.162 -0.103
-0.344  0.191 -0.259
 0.118 -0.315  0.310
 0.118 -0.0986  0.138
 0.137 -0.234 -0.439
-0.136  0.163  0.510
 0.190  0.162  0.135
-0.218  0.192  0.770
 0.198 -0.261  0.747
 0.295 -0.0912 -0.819
 0.118 -0.288  0.129
-0.103  0.162 0.0195
0.0243 -0.327  0.771
 0.137 -0.225 -0.141
0.0803  0.191 0.00293
-0.308 -0.0264 -0.795
0.0532  0.191  0.165
-0.0461  0.192  0.734
 0.118 -0.306 -0.0241
 0.126  0.111 -0.295
0.0121  0.162 -0.692
-0.141  0.162 -0.659
-0.429  0.173  0.581
 0.206 -0.348  0.771
-0.0280  0.192 -0.421
-0.0280 -0.0535  0.747
-0.0433  0.162 -0.541
 0.118 -0.342 -0.466
-0.317 -0.00831  0.747
-0.154 -0.342 -0.795
 0.118 0.0188 -0.728
-0.00972  0.162 -0.266
 0.235  0.162 -0.240
 0.132  0.111  0.635
 0.251  0.163 -0.590
 0.270 -0.171  0.747
 0.137 0.0278  0.373
0.0262 -0.315 -0.795
-0.0653 -0.346  0.770
-0.0527 -0.427 -0.809
 0.120 -0.426 0.0691
 0.107  0.192 -0.521
 0.118 -0.126 -0.0241
 0.116  0.191  0.310
 0.118 0.0730 -0.593
-0.245  0.191 -0.214
-0.0732  0.192  0.202
 0.137 -0.0715  0.265
 0.118 -0.216  0.174
0.0803  0.192  0.644
-0.152  0.162 -0.316
 0.299  0.185  0.316
-0.344  0.192  0.165
 0.301  0.180 -0.412
 0.118 -0.342  0.653
 0.118 -0.0444 -0.349
 0.144 0.000725  0.743
-0.190  0.192  0.590
0.0507 -0.244  0.771
 0.118 -0.216 -0.593
 0.137 -0.279  0.472
 0.137 -0.234  0.274
 0.118 -0.243 0.0300
 0.118 -0.0896 -0.268
-0.389  0.188 -0.847
 0.137 0.0999 -0.214
-0.118  0.192  0.355
-0.0822  0.192 -0.241
 0.137 -0.387  0.238
-0.0280  0.192 -0.0964
-0.344  0.192  0.671
-0.209  0.181 -0.847
-0.236  0.192 -0.575
 0.107  0.192 -0.439
 0.249  0.111 -0.811
-0.326 -0.234  0.770
 0.118 -0.234  0.590
 0.137 0.0368 -0.0241
-0.118 -0.0535  0.747
-0.397  0.192  0.418
-0.0551  0.110  0.749
-0.426  0.182 -0.566
-0.0280 -0.189  0.747
 0.247 -0.248 -0.820
 0.137 -0.135  0.554
-0.412 -0.0805  0.761
-0.317  0.163  0.349
-0.429  0.178 -0.421
-0.0860 -0.0212 -0.820
 0.250  0.162 0.0147
-0.218 -0.0805 -0.795
 0.134  0.192 -0.683
 0.234  0.191  0.192
 0.118 -0.189 -0.521
-0.154  0.192  0.707
 0.137 -0.279 -0.196
 0.137 -0.0264  0.427
 0.297 -0.378 -0.802
 0.107  0.162  0.742
-0.317 -0.387  0.747
0.0685  0.163  0.237
-0.165  0.162 -0.0439
-0.187  0.163 0.0929
 0.199  0.163 -0.361
 0.153 -0.405  0.747
-0.0106  0.111 -0.810
 0.225 0.0278 -0.795
-0.245 -0.225 -0.795
-0.272  0.146  0.747
 0.141  0.162 -0.115
-0.181  0.191 -0.150
 0.137 -0.351 -0.539
 0.137 -0.306 -0.728
 0.198 -0.0535  0.747
 0.118 -0.387 -0.105
0.00808  0.192 -0.773
 0.137 -0.0715 -0.457
 0.117 -0.427 -0.800
-0.000953  0.192 -0.340
 0.118 -0.126 -0.656
 0.171 -0.342 -0.796
 0.216  0.191  0.409
0.00808  0.192  0.581
-0.0231  0.163  0.798
-0.426  0.182  0.274
 0.132  0.111  0.265
-0.237 -0.0140 -0.820
0.0387  0.162 -0.422
-0.0922  0.162 -0.152
 0.299  0.169  0.156
 0.118 -0.351  0.499
-0.380  0.192  0.734
-0.254 -0.351  0.770
-0.0190 0.0188  0.747
-0.335  0.191 -0.331
-0.100  0.192 -0.394
 0.144 -0.0775 -0.792
 0.118 -0.406  0.391
 0.252  0.172  0.799
-0.154 -0.135  0.747
-0.245 -0.0173  0.747
 0.137 0.000725 0.0390
-0.417  0.163 -0.277
 0.237  0.162  0.284
-0.109  0.192  0.572
-0.0830  0.111 -0.810
-0.279  0.136 -0.798
-0.308  0.191 -0.0873
-0.163  0.192  0.192
 0.118 -0.198 -0.746
 0.118 -0.162  0.707
-0.299  0.192  0.490
 0.297 0.0730  0.759
 0.296  0.188 -0.841
 0.225  0.192  0.716
 0.299  0.184  0.487
-0.417  0.163 -0.701
 0.243 -0.144 -0.796
 0.152  0.192  0.526
-0.169  0.162 -0.492
-0.254  0.162 -0.730
-0.411 0.0746 -0.809
0.0321  0.162 -0.0638
-0.200  0.192  0.256
 0.118 -0.135 -0.187
 0.125  0.192 -0.0512
 0.137 -0.180 -0.385
 0.231  0.163 -0.667
 0.137  0.107  0.707
-0.127 -0.270  0.747
 0.160 0.0200 -0.820
 0.299  0.169 -0.268
 0.118 -0.369  0.129
-0.299  0.192 -0.665
-0.246  0.163  0.385
-0.190 -0.378  0.770
 0.143  0.162 -0.785
0.0456  0.163 -0.171
-0.0555  0.162  0.616
 0.137 0.0549 -0.340
 0.137 0.000725 -0.214
 0.137 -0.351 -0.196
-0.412 -0.315 -0.802
 0.137 -0.252 -0.268
-0.263 -0.270  0.770
 0.137 0.0638 -0.457
 0.118 -0.0896 -0.521
 0.137 -0.0264 -0.132
 0.261 -0.315  0.747
0.0713 0.0549  0.747
-0.389 -0.171  0.747
 0.161  0.191 0.0752
-0.245 -0.396 -0.795
 0.118 -0.0264  0.202
 0.118 -0.189  0.445
-0.409 0.0768  0.766
-0.363 -0.459 -0.791
 0.137  0.107  0.517
-0.317  0.192 -0.782
 0.143  0.163 -0.232
0.0383 0.0129 -0.820
 0.118 0.0368 -0.0873
0.0893  0.192  0.490
0.0780  0.162 -0.668
-0.142  0.162 -0.752
 0.137 -0.369 -0.620
 0.234  0.192 -0.160
-0.281 -0.117  0.747
 0.207 -0.189  0.747
-0.181  0.192  0.337
 0.118 0.0819 -0.746
 0.134  0.191  0.373
 0.293  0.164 -0.109
 0.114 -0.306 -0.790
 0.137  0.107  0.111
-0.129 -0.0772 -0.820
-0.000953  0.192  0.427
 0.137 -0.378 -0.394
-0.0641 -0.270 -0.795
0.0337  0.162  0.714
-0.0190  0.192  0.165
 0.137 -0.261 -0.0873
-0.335  0.192 0.0571
 0.118 0.0909  0.400
 0.118 -0.414 -0.259
-0.317 -0.171  0.747
-0.00995 -0.117  0.747
-0.371  0.191 -0.0693
 0.212  0.159 -0.787
0.0532 -0.0805  0.747
 0.118 -0.306  0.707
 0.126  0.111 -0.150
 0.139 -0.0634  0.771
-0.0250 -0.133 -0.820
-0.186 0.0408 -0.820
0.0897  0.163  0.427
-0.317 0.0368 -0.795
 0.287 -0.0271 -0.820
-0.406 -0.297  0.747
 0.137 0.0368  0.310
-0.218  0.192  0.445
 0.116  0.191  0.156
-0.200  0.191 -0.259
 0.125  0.192  0.599
 0.118 -0.369 -0.0151
 0.225  0.192 -0.0422
0.0442  0.192  0.292
-0.109 -0.387 -0.795
-0.0371  0.192 -0.484
 0.118 -0.117  0.490
-0.118 0.0368 -0.796
-0.136  0.192 0.0661
-0.308  0.192  0.229
 0.137 0.000725  0.536
 0.118 -0.153 -0.286
 0.137 -0.153 0.0300
0.00579  0.163 0.0427
 0.189 0.0459  0.747
0.0622  0.192 -0.295
 0.243  0.191  0.599
-0.190  0.192  0.653
-0.317  0.191 -0.466
-0.254  0.192  0.581
 0.137 -0.144 -0.719
-0.317 0.0549  0.747
0.0472 -0.0676 -0.820
-0.365 -0.164 -0.819
 0.111 0.0833 -0.819
-0.186  0.162 -0.611
-0.372  0.163  0.216
0.0713 -0.360  0.747
-0.0641  0.192  0.292
-0.127 -0.351  0.770
-0.114  0.162 -0.522
-0.0435  0.162 -0.798
 0.292  0.190 -0.551
-0.0601  0.163 -0.0374
 0.116  0.192  0.795
-0.110  0.162  0.738
 0.103 -0.132  0.771
-0.427  0.168  0.466
 0.194  0.162  0.642
-0.149 0.0549  0.771
 0.141  0.145 -0.00665
-0.353 -0.387 -0.795
 0.137 -0.243 -0.710
 0.137 -0.360  0.346
 0.137 -0.0805 -0.394
 0.118 -0.406 -0.494
 0.294 -0.291 -0.797
 0.118 -0.0354 -0.755
 0.118 -0.306 -0.313
 0.118 -0.261  0.337
-0.209 -0.243  0.770
-0.362 -0.0534 -0.795
0.00808  0.192 -0.575
-0.00995 -0.369 -0.795
 0.108 -0.126 -0.794
 0.144  0.192 -0.349
-0.0822 -0.225  0.747
 0.118 -0.162  0.147
 0.118 -0.0444 -0.584
 0.270 -0.0354  0.747
 0.137 0.0368 -0.512
 0.137 0.0278  0.183
 0.137 0.0368 -0.665
 0.137 -0.252  0.536
 0.137 -0.234  0.102
-0.0731 -0.405  0.747
 0.218 -0.196 -0.820
 0.252 -0.414  0.747
-0.371  0.192  0.355
-0.0652  0.162  0.687
-0.362 -0.0507  0.770
-0.0594  0.163  0.477
 0.236  0.163 -0.481
 0.301  0.180 0.0391
 0.139 -0.252  0.735
-0.314 -0.271 -0.820
-0.227  0.111  0.760
-0.320  0.162  0.718
-0.227  0.111 -0.802
 0.118 0.0459  0.111
 0.161  0.143  0.759
 0.118 -0.126  0.274
0.0782  0.111  0.759
 0.216  0.191  0.536
-0.299 -0.351 -0.795
-0.281  0.191 -0.268
 0.118 0.00975  0.599
 0.118 -0.297 -0.430
-0.380  0.192  0.626
 0.243 -0.117  0.747
-0.0822  0.192 -0.674
-0.118 -0.162 -0.795
 0.137 -0.0986  0.644
 0.137 -0.0806  0.202
-0.290 -0.0535  0.770
-0.409 -0.425  0.750
-0.288  0.163  0.142
-0.397  0.192 0.0481
-0.0551  0.192 0.0300
 0.171  0.192 -0.828
 0.110  0.163 -0.168
 0.137 0.0188 -0.593
 0.118 -0.306 -0.584
 0.137 -0.0715 -0.647
-0.170  0.167  0.799
 0.243  0.192 -0.385
-0.108  0.162 -0.800
 0.243 -0.405 -0.796
-0.200  0.192 -0.530
0.0893 -0.180 -0.796
-0.365  0.191  0.798
-0.397  0.192 -0.150
-0.263  0.192 0.0390
-0.245  0.191 -0.385
 0.247  0.162  0.341
 0.137 -0.351 -0.674
 0.118 -0.252 -0.656
 0.118 -0.198  0.229
 0.137 -0.252 -0.385
-0.263  0.191 -0.439
-0.136  0.192 -0.259
-0.254  0.191 -0.141
0.0171 -0.378  0.747
 0.137 -0.360  0.716
 0.190 -0.0976 -0.820
 0.225  0.192 -0.313
-0.371  0.191 -0.764
 0.137  0.163 -0.483
0.0278  0.162  0.537
 0.294  0.164 -0.713
-0.118  0.192 -0.196
0.0591  0.162 0.0609
 0.118 -0.396  0.626
 0.109  0.162 -0.594
 0.137 -0.360 -0.304
 0.137 -0.333 -0.0693
-0.186  0.163  0.150
-0.185  0.163  0.543
 0.118 0.0549  0.716
-0.359  0.163 0.00627
-0.201  0.162  0.727
-0.359  0.163 -0.530
-0.109  0.100  0.747
-0.0822  0.192 -0.566
-0.368  0.163 -0.676
0.0171 -0.261 -0.796
 0.216  0.191 0.0661
-0.333  0.163  0.626
-0.154  0.192  0.454
 0.137 -0.288 0.0661
0.0893  0.192 -0.800
-0.209  0.192 -0.710
-0.308  0.191 -0.521
-0.00997  0.192  0.301
-0.000934 0.0549 -0.796
-0.245  0.191 -0.0332
 0.144  0.192 -0.737
0.0352 -0.198  0.747
 0.299  0.185 -0.605
 0.137 -0.162 -0.0783
0.0177  0.163 -0.218
-0.361 0.0139  0.770
 0.118 -0.0354 0.00295
 0.137 -0.198  0.671
 0.132 -0.427 0.0120
-0.0993 -0.309 -0.819
-0.154  0.192 -0.800
 0.137 -0.422 -0.710
 0.298  0.169  0.617
0.0171  0.192 -0.647
 0.106  0.162  0.687
-0.353 -0.117 -0.795
-0.181  0.191 -0.0873
-0.0732  0.188 -0.847
 0.174  0.162  0.272
-0.362 -0.333  0.747
 0.115  0.163  0.209
 0.189  0.162  0.455
 0.153 -0.153  0.747
 0.143  0.163 -0.394
0.0622  0.181 -0.847
-0.335  0.163  0.464
 0.166 -0.201 -0.820
-0.0226 0.00609 -0.820
-0.254  0.192 -0.773
-0.0155 -0.0812 -0.819
-0.154  0.192 -0.710
-0.303 0.0874 -0.820
 0.137 -0.0444 -0.241
 0.243  0.192 -0.755
 0.118 0.0639 -0.250
 0.118 0.0278  0.436
-0.200 -0.369 -0.795
0.0532  0.192 -0.539
 0.180  0.192 -0.0873
-0.109  0.192 -0.629
-0.172 -0.0715  0.747
 0.118 0.0730  0.229
-0.410 -0.180 -0.797
-0.344  0.191 -0.638
 0.243  0.191  0.138
-0.362  0.191 -0.196
-0.0461  0.192 -0.367
-0.104  0.163  0.167
-0.263 -0.0534 -0.795
-0.427  0.168  0.746
 0.113 0.0910 0.000398
-0.263  0.192  0.725
-0.409  0.190  0.147
 0.137 -0.0264 -0.295
 0.118 0.0188  0.490
 0.137 -0.333  0.265
 0.118 -0.252 -0.484
 0.137 -0.0805 -0.141
 0.118 -0.315  0.174
 0.137 -0.369  0.454
 0.137 -0.171  0.400
 0.118 -0.117  0.337
 0.137 -0.180 -0.169
-0.00997  0.192  0.517
 0.137 -0.171 -0.611
 0.118 -0.315  0.364
 0.137 0.0368 -0.773
 0.152  0.192  0.743
0.0983 -0.378 -0.796
-0.429  0.178  0.517
 0.136  0.110 -0.0994
 0.153 -0.0264 -0.796
 0.118 -0.406  0.517
 0.270  0.192  0.445
 0.101 -0.0771 -0.820
 0.216  0.191  0.247
-0.0765  0.162  0.777
 0.210 0.0716 -0.819
 0.173  0.162  0.403
-0.351  0.162 -0.816
0.0379  0.162 -0.00213
-0.0198  0.162 -0.733
 0.231  0.163 -0.429
 0.243 -0.0891 -0.820
-0.200 -0.198  0.747
-0.0732 -0.171  0.770
 0.258  0.162  0.533
-0.410 -0.0715 -0.797
-0.127  0.192 -0.0242
 0.225  0.192 -0.557
 0.108 -0.243 -0.794
 0.120 -0.426 -0.382
-0.380  0.191 -0.430
-0.421  0.185 -0.0512
 0.139  0.162  0.487
-0.190 -0.427  0.754
0.0853 0.0329 -0.820
 0.118 -0.0173  0.310
-0.154  0.192 -0.439
-0.00994  0.163  0.382
 0.118 -0.225 -0.196
 0.118 -0.0264  0.635
-0.308  0.191 -0.223
-0.0912  0.192 0.0932
-0.0912  0.192  0.653
 0.243 -0.216  0.770
-0.127 -0.0986  0.770
-0.281 0.0188  0.770
 0.106  0.162 0.0358
-0.112  0.162 -0.710
-0.0912 -0.00831  0.747
 0.192  0.163 -0.213
-0.380  0.191 -0.584
 0.211  0.155  0.747
-0.0316  0.162 -0.137
-0.0485 -0.0948  0.771
-0.0675  0.162 -0.429
0.0442 -0.288  0.747
-0.371 -0.270 -0.795
0.0803  0.192 -0.196
-0.218  0.192 0.0661
 0.137 -0.0264 -0.484
 0.118 -0.288  0.427
 0.137 -0.279  0.599
 0.137 -0.360  0.572
 0.118 -0.297 -0.683
 0.137 -0.0805 -0.313
 0.137 -0.135 -0.512
 0.118 -0.180  0.563
 0.118 -0.207  0.328
 0.118 -0.270 -0.132
 0.137 -0.189 -0.322
 0.118 -0.0173  0.382
 0.118 0.0459 -0.385
0.0352  0.191 0.0932
-0.362 -0.207 -0.795
-0.134  0.162 -0.119
 0.106 -0.263  0.771
-0.150  0.163  0.579
-0.371 0.0188 -0.795
0.0400  0.162  0.604
 0.137 -0.422  0.274
-0.0409  0.163  0.243
-0.426  0.182 0.0932
-0.262  0.162 -0.677
0.0878  0.162 -0.0619
 0.115  0.163  0.269
-0.0362  0.162 -0.213
-0.247  0.162  0.796
-0.343  0.163  0.551
-0.0731 -0.0625 -0.796
 0.252  0.192 -0.701
 0.118 -0.0264 0.0752
 0.118 -0.234  0.472
 0.137 -0.270  0.174
 0.118 -0.108  0.590
 0.118  0.100 -0.430
 0.118 -0.315 -0.169
 0.118 -0.126 0.0661
 0.118 0.000725 -0.0512
 0.137 -0.117  0.698
 0.137 -0.135  0.111
 0.137 -0.234 -0.0151
 0.137 -0.0986 -0.214
 0.118 -0.180 -0.00607
 0.186  0.162  0.508
 0.137 -0.252 -0.566
-0.329  0.145  0.766
-0.0589  0.163  0.387
0.00946  0.163 -0.110
0.0292 -0.426  0.749
 0.259  0.162 -0.0663
-0.383  0.163  0.299
0.0391  0.163  0.331
-0.368 -0.258  0.771
 0.132  0.111 -0.557
-0.219  0.163  0.327
 0.137 -0.324  0.102
 0.165 -0.293  0.771
 0.180  0.191  0.183
-0.380  0.191 -0.313
-0.290  0.192  0.183
-0.200  0.191 -0.196
-0.200 -0.288 -0.795
 0.118 0.0459 -0.205
 0.118 -0.0354 -0.692
 0.137 -0.297  0.517
-0.281  0.192 -0.620
-0.172 -0.0986 -0.795
 0.118 -0.0715  0.391
 0.118 -0.0715  0.454
 0.216 -0.00831  0.747
-0.0731 -0.180 -0.796
 0.118 -0.207 -0.277
-0.236 -0.144  0.747
 0.137 -0.135 -0.403
-0.0641  0.192  0.147
 0.118 -0.0805 -0.0963
 0.281  0.162  0.702
-0.263 -0.180 -0.795
-0.344  0.192  0.400
 0.180  0.192 -0.665
 0.118  0.100  0.581
 0.234 0.0639  0.747
 0.118 -0.369  0.301
 0.118 -0.387 -0.349
-0.0461  0.192 -0.277
-0.00995 -0.234  0.747
-0.172  0.192  0.752
-0.226  0.162 -0.799
-0.254  0.163  0.433
 0.197 -0.377 -0.818
-0.371 0.0549  0.747
-0.136 0.00975  0.747
-0.0370 -0.315  0.747
 0.151  0.162 -0.570
 0.108 -0.0896  0.745
 0.296  0.166  0.781
 0.137 -0.387 0.0390
-0.371 -0.396  0.747
-0.397  0.192 -0.385
 0.137 -0.396 -0.150
 0.180  0.162 0.0421
 0.295 -0.236 -0.819
 0.137 -0.261 -0.755
-0.136  0.192 -0.349
-0.398 -0.369 -0.795
-0.429  0.173 -0.475
 0.183  0.140 -0.819
 0.141  0.162  0.562
0.0803  0.192  0.716
 0.118 -0.422  0.211
0.0313  0.163  0.197
0.0723  0.163  0.131
0.0475  0.162 -0.330
-0.211 0.0680  0.771
0.0433  0.163  0.410
-0.0124  0.162  0.748
 0.296 0.0188  0.753
 0.107  0.192 -0.259
0.0984  0.192 -0.638
0.0304  0.162 -0.745
 0.118  0.100 -0.340
-0.136  0.162 -0.597
 0.286 -0.336 -0.819
0.0795  0.163  0.795
 0.297 0.0820 -0.810
 0.144  0.162  0.654
 0.137 0.0729  0.662
 0.147  0.163  0.331
-0.190 -0.153  0.770
-0.109 -0.315  0.747
-0.308 -0.270  0.747
0.0893 -0.189  0.747
-0.236 -0.0625  0.770
-0.118 -0.153  0.770
-0.389  0.192 -0.0151
0.0719  0.111 -0.816
 0.261  0.192 -0.512
-0.172  0.192  0.508
 0.294  0.164 -0.369
-0.0371  0.192  0.653
0.0476  0.162  0.656
-0.243  0.163 0.0913
-0.331  0.163  0.124
 0.137 -0.0715 0.0932
 0.162 -0.0986  0.747
 0.118 -0.0444  0.545
 0.118 -0.324  0.608
-0.190  0.191 -0.304
 0.118 0.00975 -0.322
-0.245  0.192  0.247
 0.243  0.192 -0.205
 0.137 -0.207  0.626
 0.118 -0.261 -0.611
 0.180  0.192 -0.475
-0.000953  0.192  0.346
-0.145 -0.297 -0.795
-0.200  0.192 -0.0242
 0.118 -0.189  0.274
-0.172 -0.225 -0.795
 0.137 0.0638 -0.295
-0.0641  0.192 -0.187
-0.317 -0.0715 -0.795
-0.362  0.191 -0.114
 0.118 -0.378 -0.0602
 0.118 -0.315 0.0210
 0.121  0.110 -0.782
 0.209  0.163 -0.281
 0.207 -0.270 -0.796
-0.000934 -0.414 -0.795
0.0928  0.162  0.612
-0.120  0.163  0.693
-0.0732  0.192 -0.123
 0.188 -0.307 -0.819
 0.113  0.162 -0.722
 0.296 -0.144 -0.802
 0.189 -0.391  0.771
-0.429  0.173 -0.611
-0.335 -0.427  0.761
 0.251  0.162  0.223
 0.108 -0.0264  0.745
 0.118 -0.422 -0.755
 0.299  0.185 -0.217
-0.136 -0.426 -0.797
 0.137 -0.422  0.111
-0.000953  0.192  0.716
-0.263  0.192  0.355
 0.223  0.162  0.681
 0.198 -0.00832 -0.796
 0.137 -0.279 -0.349
0.0803  0.192 -0.484
-0.299 -0.306 -0.795
 0.137 0.000725 -0.376
 0.171  0.192 -0.132
-0.236 -0.306  0.770
0.0984  0.192 -0.322
0.0622  0.192  0.454
-0.172  0.192  0.292
-0.236  0.192  0.147
0.0352 0.0278  0.747
-0.272 -0.261 -0.795
 0.137 -0.378 -0.439
-0.100  0.192  0.265
-0.109  0.192 -0.295
-0.236 -0.144 -0.795
-0.109  0.192  0.400
-0.0461  0.192 -0.701
0.0532 -0.351 -0.795
-0.389 -0.126  0.747
-0.145  0.192 0.0210
0.00810 -0.162  0.747
-0.190  0.192 -0.466
-0.0280  0.192  0.463
 0.118 0.0639  0.608
 0.261  0.192 -0.123
 0.137 0.0729 -0.638
 0.137 0.0638  0.156
-0.290  0.192  0.617
0.0261  0.192 -0.376
 0.134  0.191 0.00293
 0.171 -0.216  0.747
 0.252 0.0547 -0.819
-0.353 -0.207  0.747
 0.137 -0.324 -0.503
-0.0732  0.192 -0.782
 0.292 -0.425  0.765
-0.00821  0.162  0.609
 0.213  0.162  0.371
 0.137 -0.0174  0.472
0.0937 0.00872  0.771
 0.118 0.0188 0.0752
 0.296 -0.137  0.759
 0.118 -0.279  0.256
 0.118 -0.216  0.707
 0.118 -0.378  0.680
 0.118 0.0188 -0.457
 0.137 0.0549 -0.710
 0.118 -0.0986 -0.755
 0.118 -0.0354 -0.439
 0.137 -0.153  0.472
 0.137 -0.108 -0.0602
 0.118 -0.0896  0.301
 0.137 -0.396 -0.223
-0.304 0.0904  0.771
 0.108 -0.355  0.771
 0.137 0.0729  0.364
 0.118 -0.288 -0.250
0.0586  0.162 -0.708
-0.0280 -0.171 -0.796
-0.117 0.0843 -0.819
 0.281  0.162  0.278
-0.0371  0.192  0.590
-0.388  0.162  0.675
-0.154  0.192  0.382
 0.270  0.192  0.364
 0.247  0.162  0.422
 0.278  0.192 -0.448
 0.247 -0.00210 -0.819
-0.397  0.192 -0.728
-0.335 -0.0805  0.747
 0.134  0.191  0.111
-0.154 -0.315  0.770
-0.230  0.163  0.668
-0.0784 -0.0426  0.771
-0.263 -0.171  0.770
-0.0645  0.162 -0.0812
-0.397  0.192  0.545
-0.299  0.192 -0.737
0.0803 -0.279 -0.796
-0.429  0.178  0.391
 0.125  0.192 -0.205
 0.118 -0.414  0.716
 0.132  0.111  0.436
-0.167  0.168 -0.841
-0.290 -0.422  0.747
 0.190  0.162  0.710
-0.271  0.162  0.695
-0.0912  0.192  0.472
 0.286  0.192 -0.00609
0.0171  0.192 -0.250
 0.261  0.192 -0.638
 0.229  0.162  0.569
-0.183  0.163  0.684
-0.245 -0.387  0.747
-0.172  0.192 -0.656
-0.421  0.185 -0.819
-0.218  0.192  0.400
 0.102  0.162 -0.0205
 0.297  0.188  0.656
 0.139 -0.369 -0.784
 0.180  0.107  0.743
 0.137 -0.387 -0.566
 0.244  0.163 -0.820
 0.253 -0.350  0.771
-0.0461 0.0909 -0.796
 0.279 -0.216  0.747
-0.272 -0.306  0.747
-0.0641 -0.387 -0.795
-0.190 0.0278  0.747
-0.163 -0.351  0.747
-0.0912 -0.270  0.770
 0.137 -0.422 -0.0873
-0.347 -0.428 -0.817
 0.229  0.162 -0.722
 0.212  0.162 -0.0143
-0.112  0.162 -0.225
 0.126  0.111 -0.611
 0.137 -0.171 -0.484
 0.118 -0.342 -0.349
 0.137 0.000725  0.689
 0.277 -0.417 -0.819
 0.137 -0.0535  0.662
 0.137 -0.0986 0.00294
-0.400  0.163 -0.237
0.0261  0.192  0.635
 0.118 -0.0986 -0.602
 0.137 0.0638 -0.0602
-0.344  0.192  0.761
0.0532  0.192 -0.0422
-0.0233  0.162 -0.320
-0.172  0.192  0.120
-0.0196 -0.0162  0.771
 0.137 -0.422 -0.593
 0.252 -0.207 -0.796
-0.275  0.163  0.558
 0.153  0.162  0.610
 0.232 -0.0546  0.771
0.0546  0.162  0.751
-0.130  0.162 -0.423
-0.266 -0.0880 -0.820
-0.352 -0.170  0.771
 0.279  0.111  0.764
-0.353 0.0730 -0.795
-0.142 -0.203 -0.819
 0.198  0.192  0.761
 0.286  0.191 -0.800
 0.133  0.145 -0.0545
 0.272  0.162  0.583
-0.331  0.163 -0.113
0.0599  0.162  0.507
 0.137 -0.00831  0.346
 0.137 -0.243 -0.521
 0.118 0.00975 -0.160
 0.118 -0.108  0.229
 0.137 0.0549  0.499
 0.137 -0.225 -0.629
 0.137 -0.0354  0.238
 0.118 0.0459 -0.548
 0.118 -0.351  0.229
 0.118 -0.387 -0.683
 0.118 -0.342 -0.403
 0.137 -0.180 -0.557
 0.118 0.0459 0.0120
 0.118 -0.0986  0.545
 0.118 -0.252 -0.0512
-0.273  0.163  0.278
 0.118 -0.0173 -0.0963
-0.118 -0.0444 -0.796
 0.118 0.000725 -0.782
-0.307  0.163 0.0134
 0.137 -0.171  0.599
 0.137 -0.414  0.427
0.0532  0.192  0.554
-0.188 -0.334 -0.819
 0.132  0.163  0.407
 0.107  0.192  0.554
 0.258 -0.294 -0.820
-0.0682  0.162 -0.385
 0.118 0.0730  0.274
-0.309  0.163 -0.0438
 0.207 -0.306  0.770
 0.203 0.0765  0.771
-0.283  0.163  0.515
 0.118  0.100 0.0752
-0.209  0.192  0.698
0.0981  0.162 -0.105
-0.389  0.111 -0.802
 0.241 -0.455 -0.802
-0.224  0.163  0.219
-0.00570  0.163  0.215
 0.171  0.192 -0.385
-0.0463  0.162 -0.601
0.0799  0.163  0.187
0.0713 -0.00836 -0.795
-0.403  0.191  0.770
0.00808  0.192 -0.719
0.0984  0.192  0.400
-0.397  0.192 -0.539
 0.137 -0.234  0.436
 0.137 -0.306  0.671
 0.118 -0.261  0.698
 0.137 -0.162 -0.656
 0.118 -0.0444 -0.394
 0.137 -0.0535 -0.521
 0.137 -0.0625  0.138
0.0352  0.163  0.260
0.0171  0.192 -0.439
-0.389  0.192 -0.268
 0.278  0.192  0.183
-0.424  0.165 -0.166
 0.283  0.163  0.119
-0.0836  0.162  0.587
 0.126  0.111 -0.719
0.0792  0.162 -0.142
-0.0743 0.0176 -0.820
0.0369 -0.0276 -0.819
 0.188  0.163 -0.606
 0.137 -0.198 -0.0963
-0.371 -0.0173  0.747
0.0984  0.192  0.355
 0.137 -0.0174  0.572
-0.200 0.000725 -0.795
-0.272  0.192 -0.557
-0.362  0.192  0.590
-0.290  0.192  0.319
-0.209 -0.207 -0.795
 0.137 -0.369  0.391
 0.152  0.192 -0.259
-0.281  0.191 -0.331
-0.236 -0.351 -0.795
-0.209  0.191 -0.340
 0.189  0.192 -0.331
-0.299  0.192  0.373
-0.254  0.192  0.463
-0.0461 -0.306 -0.795
-0.0190  0.192 -0.521
-0.0370 0.0549  0.747
 0.118 -0.207 0.0481
-0.200 -0.0444  0.770
-0.0822  0.192  0.328
-0.109  0.192  0.617
-0.109 -0.387  0.770
 0.137 -0.270 0.00294
 0.118 -0.117 -0.304
-0.00997  0.192 -0.295
0.0171  0.192  0.147
0.0819 -0.0661  0.771
-0.0912  0.191 -0.0512
-0.281  0.191 -0.0512
-0.154  0.192  0.608
0.0352 -0.0444  0.747
0.0171 -0.0896 -0.796
0.00808  0.192 -0.0783
 0.137 0.0729 -0.114
-0.429  0.178 -0.665
-0.190 0.0730 -0.795
-0.218  0.191 -0.123
 0.137 -0.117  0.183
-0.218  0.192 -0.611
-0.281 0.0188 -0.795
-0.236  0.192  0.617
-0.353  0.191 -0.0332
 0.189  0.192  0.608
-0.0233  0.162  0.702
-0.373 -0.455  0.740
 0.162 -0.0354  0.747
0.0803  0.191 0.0842
 0.171  0.192 -0.539
-0.302  0.163 0.0757
-0.299 -0.216  0.747
 0.243 -0.288  0.770
 0.198 -0.422  0.747
-0.344 -0.297  0.747
 0.152  0.162  0.195
0.0428  0.162 -0.620
 0.278  0.192 -0.737
 0.261 -0.0805  0.747
-0.0339 -0.0323 -0.820
0.0893  0.191  0.256
-0.218 0.0368 -0.795
-0.0842 0.0801  0.771
-0.258  0.162 -0.289
 0.143  0.163 -0.434
-0.0686  0.162 -0.290
-0.258  0.168 -0.842
 0.252 -0.457  0.771
-0.403 0.0299 -0.816
 0.116  0.192 -0.123
-0.254  0.192 -0.701
-0.326 -0.180 -0.795
 0.211  0.162 -0.148
-0.412  0.163  0.242
-0.335  0.192 -0.836
-0.189  0.162 -0.553
-0.412 -0.0354  0.754
-0.0889 0.0570 -0.819
-0.362  0.191 -0.367
 0.294  0.164 -0.307
-0.429  0.173 -0.313
-0.00563  0.162  0.558
-0.118 0.0549  0.747
-0.0370 -0.360  0.747
 0.268  0.162 -0.208
 0.136  0.110 -0.478
-0.0830  0.163  0.524
 0.265  0.162 -0.0216
-0.134  0.163  0.470
-0.240 -0.276 -0.819
 0.116  0.192 -0.394
 0.171  0.192  0.563
 0.221  0.163 -0.186
-0.398  0.110  0.749
0.0352  0.192  0.689
0.0532  0.192 -0.665
-0.188  0.111 -0.807
-0.171  0.163  0.362
 0.118  0.106  0.671
 0.216 0.0306  0.771
 0.121 0.0160 -0.820
-0.353  0.192  0.445
-0.200  0.192  0.211
-0.335 -0.0120 -0.820
 0.147  0.163 -0.188
-0.148 -0.0325  0.771
 0.120 -0.426  0.358
-9.66e-05  0.162 -0.161
-0.127 -0.108 -0.795
-0.239  0.162  0.733
-0.427  0.168 0.0511
 0.126  0.111  0.752
0.0891  0.162 -0.537
-0.0454  0.163  0.165
 0.149  0.114 -0.813
 0.180 -0.333  0.747
 0.234  0.191  0.319
-0.0346  0.163  0.506
-0.145  0.191 -0.0603
 0.114 -0.0535 -0.790
0.0352  0.192  0.499
-0.0371  0.192  0.400
-0.00904  0.164 -0.818
 0.180 -0.0625 -0.796
0.0828  0.162  0.467
-0.0241  0.101  0.770
 0.270 0.0459  0.747
0.0228  0.163  0.793
0.0479  0.162 -0.120
 0.195  0.162 -0.0688
 0.171  0.192  0.644
-0.0912  0.192  0.752
-0.397  0.192  0.463
 0.118 0.00975  0.283
-0.00995 -0.288 -0.795
-0.295  0.158  0.776
-0.380  0.192  0.247
-0.353  0.192  0.526
 0.152  0.192 -0.503
 0.137 -0.207  0.129
 0.144  0.191  0.283
 0.137 -0.252 -0.169
 0.137 -0.243  0.202
 0.189  0.191  0.102
-0.227  0.191 -0.169
0.0803  0.192 -0.412
 0.207  0.191  0.156
 0.116  0.192 -0.773
-0.0461 -0.0896 -0.795
-0.0641 -0.288  0.747
-0.163 -0.180 -0.795
-0.109  0.192 -0.764
-0.136  0.192 -0.494
-0.136  0.192  0.545
 0.118 -0.171 -0.430
0.0352  0.192 -0.800
-0.290 -0.225 -0.795
-0.100 -0.207 -0.795
 0.234  0.191  0.463
0.0171  0.191 0.0120
-0.154  0.162  0.737
 0.117  0.162 -0.668
 0.171  0.191  0.310
-0.218  0.192  0.563
-0.326  0.192  0.301
0.0352 -0.225 -0.796
-0.0589  0.162 -0.467
 0.153 -0.414 -0.796
 0.137 -0.198  0.373
 0.198  0.192 -0.584
0.0321  0.162 -0.268
-0.0641  0.192  0.563
-0.272  0.163  0.200
-0.272  0.192 -0.809
 0.296  0.166  0.529
-0.355  0.163 -0.589
0.0723 -0.280  0.771
 0.102  0.162  0.531
 0.271  0.162 -0.144
-0.0371  0.192 -0.836
0.0442 0.0819  0.747
0.0442  0.192  0.238
 0.118 -0.342 -0.638
0.0532 -0.396  0.747
 0.213  0.162  0.221
 0.126  0.111  0.481
-0.416  0.163  0.638
-0.139  0.163  0.193
 0.118 -0.369 0.0752
-0.0720  0.162 -0.758
 0.118 -0.387 -0.286
 0.137 -0.279  0.364
 0.118 -0.288 -0.0693
 0.118 -0.117 -0.430
 0.137 -0.306 -0.277
 0.137 -0.216  0.563
 0.137 -0.387  0.490
 0.137 -0.162 -0.205
 0.118 -0.216 -0.412
 0.137 -0.306 -0.548
 0.118 -0.378 -0.521
 0.118 -0.225  0.653
 0.137 -0.108 -0.683
 0.137 -0.135 -0.259
 0.137 -0.00832 -0.710
 0.118 -0.0715 -0.0151
 0.118 -0.171  0.202
 0.301  0.180  0.427
 0.118 -0.198 -0.358
 0.137 0.0638 -0.412
 0.118 -0.0986 -0.358
 0.216  0.192  0.635
 0.293 -0.0565 -0.797
-0.146 0.0446 -0.820
 0.243 -0.0444 -0.795
 0.299  0.169 0.0842
 0.137 -0.180 -0.773
 0.143 0.0249  0.771
 0.268  0.164 -0.676
0.0427 -0.107  0.771
0.00808  0.192  0.192
 0.272  0.162  0.475
 0.234  0.192 -0.457
 0.144  0.192 -0.457
 0.161  0.192 -0.773
 0.198  0.192  0.689
-0.132  0.163  0.377
-0.0524  0.162 -0.256
-0.265  0.163  0.332
0.0442  0.192 -0.141
0.00137  0.162  0.495
 0.137 -0.00832  0.174
 0.137 0.0638 0.0842
-0.236 0.0188  0.747
-0.326  0.192 0.0932
 0.118 -0.342  0.536
 0.118 0.00975 -0.494
 0.207 -0.225  0.770
 0.118 0.00975 -0.557
 0.118 -0.261 -0.421
-0.163  0.191 -0.187
-0.281  0.191 -0.376
-0.308 -0.351  0.747
-0.181 0.0639  0.747
 0.234 -0.162  0.747
-0.227  0.192 0.0120
-0.00997  0.192 -0.214
-0.0371  0.192 -0.665
0.0713 -0.117 -0.796
 0.216  0.191 0.0120
-0.209 -0.00831  0.747
 0.270  0.192 -0.169
 0.144  0.192 -0.647
-0.263  0.191 -0.178
-0.118  0.192  0.436
-0.200 -0.342  0.770
 0.118 0.0639  0.427
-0.136  0.192  0.165
0.0984  0.191  0.120
0.0713 -0.315 -0.796
 0.118 -0.333  0.138
-0.281 -0.387 -0.795
 0.234  0.192  0.752
-0.254  0.192  0.409
 0.118 -0.306 -0.475
-0.000934 -0.270  0.747
-0.118 -0.270 -0.795
-0.145  0.192 -0.403
 0.118 -0.351 -0.0963
-0.163  0.192 -0.602
-0.0103  0.163 0.00916
0.0442  0.192 -0.764
0.0803 -0.153  0.747
-0.118 -0.234  0.747
-0.145 -0.378 -0.795
-0.00997  0.192 -0.620
 0.144  0.191 0.0390
0.0713  0.191 0.0390
-0.245 -0.108 -0.795
 0.137 0.00975 0.00294
-0.145 -0.171  0.747
-0.0912  0.192 0.0390
 0.118 -0.135 -0.611
-0.190  0.192 -0.809
-0.172 -0.0534 -0.795
 0.137 -0.108 -0.466
 0.118 -0.108  0.382
-0.190  0.192 -0.575
-0.0280  0.192 -0.566
 0.216  0.192 -0.0783
0.0171 -0.0896  0.747
0.0442 -0.162 -0.796
 0.207  0.192 -0.123
 0.171  0.192 -0.0332
 0.118 -0.225 -0.241
0.0803 -0.252  0.747
-0.371  0.192  0.192
 0.137 -0.162  0.517
-0.312  0.163  0.656
-0.353  0.191 -0.457
 0.137 -0.270  0.400
-0.353  0.191 -0.160
 0.125  0.191  0.238
 0.134  0.192 -0.819
 0.220  0.162  0.605
 0.270  0.192  0.508
 0.216 -0.0805 -0.796
0.0171 0.0909 -0.796
-0.0803  0.162 -0.541
-0.344 -0.378  0.770
-0.100 -0.360  0.747
-0.380 -0.369  0.770
-0.308 -0.108  0.770
 0.258  0.164 -0.403
-0.227 -0.189  0.770
 0.270  0.192 -0.268
-0.290 -0.243  0.770
-0.0461  0.192  0.364
-0.222 -0.419 -0.814
-0.353  0.192  0.120
0.0279 0.0567 -0.819
0.0893 0.0639 -0.796
0.0352  0.192 -0.205
 0.125  0.192  0.644
-0.145 -0.156 -0.820
 0.137 -0.135 -0.773
 0.137 -0.422 -0.521
 0.283  0.163  0.342
 0.157  0.162  0.111
0.0993  0.163 -0.344
 0.136  0.110 0.0451
 0.225  0.192 -0.259
-0.344 0.0636  0.771
 0.137 -0.0496 -0.820
-0.104  0.163  0.204
 0.175  0.162  0.676
 0.139 -0.297  0.735
 0.118  0.106  0.147
 0.137  0.107  0.229
 0.137  0.107  0.301
 0.216 -0.387  0.747
 0.188 -0.0271  0.771
 0.267  0.164 -0.557
-0.312 -0.376 -0.818
 0.144 -0.243  0.770
 0.299  0.185 -0.144
-0.429  0.173 -0.385
 0.184  0.162 -0.117
 0.217  0.163  0.798
-0.426  0.182  0.707
-0.383  0.163  0.605
0.0690 -0.206  0.771
-0.00650  0.163  0.322
-0.127  0.192  0.490
-0.335  0.192  0.337
0.0622 -0.0444 -0.796
-0.0770  0.163 -0.818
 0.180 -0.225 -0.796
 0.118 -0.422 -0.132
 0.137 -0.396  0.590
 0.136  0.162  0.708
-0.380 -0.0896  0.747
-0.281 0.0909 -0.791
 0.118 -0.342 -0.773
-0.403 -0.0415 -0.816
 0.116  0.192  0.517
-0.218  0.192  0.102
 0.116  0.192 -0.0873
 0.261  0.192  0.698
-0.172  0.192 -0.340
 0.252  0.191  0.635
 0.137 -0.0354 0.0390
-0.371 -0.0173 -0.795
-0.371  0.192 -0.800
 0.261 0.0278 -0.795
-0.272  0.191 -0.521
 0.137 -0.162 -0.0422
 0.137 -0.234  0.238
-0.344 -0.351 -0.795
 0.118 -0.252  0.129
0.0984  0.192  0.454
-0.118 0.000725 -0.796
 0.137 -0.243  0.626
 0.118 0.0188  0.563
 0.247  0.162  0.386
 0.118 -0.162  0.671
 0.261  0.192 -0.0422
 0.243  0.192 -0.791
 0.137 -0.279  0.563
 0.137 -0.234  0.310
-0.299  0.192  0.725
0.0803  0.192  0.752
 0.137 -0.387  0.202
 0.137 -0.360 -0.150
-0.344  0.191 -0.295
 0.118 -0.216 -0.484
-0.109  0.192 -0.430
-0.0280 -0.153  0.747
0.00808  0.192  0.463
 0.137 -0.180 -0.719
-0.100 -0.426 -0.797
-0.263  0.192 0.00294
-0.163 -0.270  0.747
-0.127  0.192  0.752
 0.118 -0.0264 -0.187
-0.379  0.162  0.782
 0.217 -0.152 -0.820
 0.171  0.191  0.382
 0.137 0.0368  0.536
 0.189 -0.153  0.747
-0.317  0.191 -0.611
-0.326  0.191 -0.367
-0.0190  0.192  0.129
-0.335  0.192  0.490
 0.137 0.0368 0.0481
-0.109  0.192 -0.593
 0.243 -0.369 -0.796
0.0891 0.0792  0.771
-0.263 -0.427 -0.802
 0.187  0.162 -0.760
-0.172 -0.0986  0.770
-0.168  0.163  0.321
-0.365 -0.244 -0.819
-0.216  0.163  0.268
-0.380 -0.423  0.770
 0.161  0.192 -0.223
-0.0461  0.192  0.689
-0.227  0.192 -0.819
 0.263 0.0764  0.771
-0.263  0.192  0.517
 0.258 -0.181 -0.820
 0.196 0.0214 -0.820
 0.293 -0.0517  0.768
 0.282  0.164 -0.634
 0.198  0.162 -0.706
-0.0243 0.0740 -0.819
 0.223  0.163 -0.393
-0.331  0.163 -0.184
-0.389  0.192 -0.674
-0.104  0.163 0.0551
-0.294  0.161 -0.778
-0.254  0.162 -0.642
0.0981  0.162  0.653
-0.335  0.192 -0.737
 0.118 -0.406 -0.0151
 0.272 -0.124 -0.819
-0.0641  0.192 -0.403
 0.234  0.192 -0.602
-0.262  0.113  0.765
 0.263 -0.391  0.771
0.0111 0.0368  0.771
-0.0551  0.192 -0.448
 0.180  0.191  0.472
 0.197  0.163 -0.248
-0.163  0.192 -0.0242
-0.317  0.163 -0.829
 0.145  0.162 -0.153
-0.100 -0.422  0.770
 0.136  0.162 0.0572
 0.278  0.192 -0.0783
-0.397  0.192  0.590
-0.0530 -0.425  0.770
-0.181  0.192  0.427
-0.184  0.162 -0.170
-0.380  0.191 -0.232
 0.189  0.169 -0.846
 0.296 -0.0149  0.764
-0.0775  0.162 -0.218
 0.241  0.163 -0.516
-0.393  0.162  0.721
-6.84e-05  0.163  0.175
-0.427  0.168 -0.734
-0.280 0.0548  0.771
0.0803  0.192  0.581
-0.131 -0.331 -0.819
 0.114 0.0790  0.741
-0.134  0.162  0.786
-0.112 0.0105  0.771
-0.188  0.162  0.759
-0.299  0.192  0.761
 0.292  0.164  0.199
-0.292 0.0542 -0.820
 0.252  0.192 -0.421
-0.172 -0.396  0.747
-0.406 -0.270 -0.795
 0.216  0.163 -0.331
-0.353  0.191 -0.512
-0.0345  0.162 -0.442
-0.216 -0.315 -0.819
-0.299  0.192 0.0300
 0.239  0.163 -0.634
 0.238 -0.0926  0.771
-0.246  0.162 -0.447
-0.0238  0.162 -0.630
 0.150  0.163  0.798
-0.181  0.192 0.0752
-0.336 -0.461 -0.821
 0.171 -0.171  0.770
 0.116  0.162  0.457
-0.179 -0.396 -0.818
-0.309  0.163  0.542
-0.0551  0.192 -0.530
-0.145  0.191 -0.105
 0.234  0.191  0.373
 0.118 -0.00832 -0.241
 0.118 -0.108  0.445
 0.137 -0.171  0.120
 0.137 -0.279 -0.494
 0.118 -0.387  0.355
 0.118 -0.378  0.265
 0.118 -0.342 -0.566
 0.118 0.0278 -0.638
 0.118 0.0639 -0.683
 0.137 -0.333 -0.430
 0.118 -0.342  0.445
 0.137 -0.369  0.644
 0.118 -0.288 -0.385
 0.118 0.0188  0.337
 0.118 0.0188  0.156
 0.137 -0.351 -0.746
 0.118 0.0549  0.192
 0.137 -0.342 0.0120
 0.137 -0.288 -0.160
 0.137 0.0368 -0.232
 0.118 0.0639  0.319
 0.118 -0.279 -0.286
 0.118 -0.0715  0.626
 0.118 -0.126  0.725
 0.118 -0.189 -0.141
 0.118 -0.0805 -0.430
 0.118 -0.0715  0.572
 0.137 -0.0444  0.725
 0.137 -0.0805  0.355
 0.118 -0.0715 0.0210
 0.137 -0.0805  0.490
 0.137 -0.153  0.283
-0.0641  0.192  0.788
 0.264  0.163 -0.786
 0.118 -0.189 -0.196
 0.118 -0.0625  0.229
 0.270  0.192 0.0300
-0.200  0.188  0.799
-0.322  0.130 -0.806
 0.137 -0.396  0.138
 0.134  0.162  0.160
-0.0579  0.162 -0.171
-0.172 -0.0354  0.747
 0.137 -0.0896 -0.575
0.00667  0.163 -0.0242
-0.410  0.163  0.126
-0.301  0.163 -0.159
-0.218  0.163  0.362
-0.380 -0.426 -0.797
 0.139 -0.234 -0.784
-0.290 -0.396  0.770
0.0893 -0.396  0.747
 0.252  0.191  0.274
0.00810  0.107  0.747
 0.199  0.110 -0.819
-0.196  0.162 -0.0967
 0.294 -0.324  0.749
 0.279 -0.267 -0.819
 0.207 -0.324 -0.796
-0.383  0.163  0.342
 0.176 0.0682 -0.820
 0.155  0.163 -0.303
 0.267 -0.118  0.770
-0.290  0.192  0.283
-0.417  0.163 -0.538
-0.272  0.192  0.147
 0.119  0.162  0.127
 0.108 -0.288  0.745
 0.118 -0.414 -0.620
-0.127  0.192 -0.665
-0.234  0.163  0.568
 0.179  0.162 -0.0149
 0.242  0.162  0.736
-0.0763  0.162  0.655
-0.0641 0.0278  0.747
 0.118  0.106 -0.187
 0.116 0.0721 -0.0271
 0.137 -0.0445  0.310
-0.389  0.192  0.120
-0.412 0.0368  0.754
-0.367  0.162 -0.324
0.0344  0.162 -0.778
-0.407 -0.339  0.768
-0.326 -0.252 -0.795
 0.175  0.163 -0.277
-0.353  0.192 0.0210
 0.142  0.159 0.0246
 0.203  0.119  0.770
0.0921  0.162 -0.754
-0.0190  0.192  0.554
 0.130  0.163  0.299
 0.116 0.0523  0.771
-0.252 0.0153 -0.820
 0.118 -0.306 -0.349
-0.0371  0.192 -0.322
-0.190 -0.0845 -0.820
-0.0316  0.162  0.640
 0.118 -0.00832 -0.593
 0.118 -0.288 0.0932
-0.127  0.111 -0.802
 0.118 -0.135 -0.376
 0.118 -0.108 -0.710
 0.137 0.0278  0.635
 0.118 -0.0535 -0.494
 0.118 0.000725  0.716
 0.137 0.0278  0.409
 0.137 -0.225 -0.674
 0.118 -0.162 -0.322
 0.137 -0.0715 -0.349
 0.118 -0.234 -0.755
 0.137 0.0459  0.463
 0.137 -0.135 -0.160
 0.137 -0.342  0.310
 0.137 0.0278  0.716
 0.137 -0.117  0.310
 0.137 -0.360 -0.259
 0.118 -0.396  0.454
 0.217  0.162  0.519
 0.118 -0.153 -0.557
 0.137 -0.180 -0.286
 0.118 -0.0715 -0.0512
 0.270  0.192  0.229
 0.137 -0.189  0.174
-0.0524 -0.145  0.771
 0.283  0.163 0.0163
-0.262  0.162 -0.256
-0.0724 -0.0858 -0.820
 0.137 0.0909  0.608
 0.137 -0.414 -0.286
 0.171  0.191  0.418
 0.198  0.192 -0.232
 0.137 0.0819 -0.773
-0.0861  0.162 -0.254
0.0800  0.162 -0.790
-0.0551  0.192 -0.0512
 0.207  0.192 -0.187
0.0151 -0.0601 -0.819
-0.308  0.192  0.671
 0.189 -0.135 -0.820
-0.000953  0.188  0.799
-0.365 -0.307 -0.819
 0.131 -0.400  0.771
-0.273  0.107 -0.819
0.0463  0.162  0.565
0.0442  0.192  0.743
-0.0946  0.162 -0.448
0.0171  0.192  0.545
 0.135  0.162  0.761
-0.422  0.168 -0.847
-0.415  0.188 0.0210
 0.270 0.000725  0.747
-0.0778  0.162 -0.111
0.0261 -0.00831 -0.795
 0.159  0.162 -0.0874
 0.286  0.192  0.265
 0.146  0.161 -0.820
0.0622 -0.117  0.747
 0.116  0.192 -0.584
-0.349  0.163 0.0591
-0.0461  0.192  0.229
 0.145  0.162 -0.690
 0.163 -0.0801 -0.820
0.00808  0.192 -0.123
 0.293  0.164 -0.576
 0.116  0.192  0.734
 0.137 -0.234 -0.295
-0.281 -0.198  0.770
 0.234  0.191 0.0932
 0.118 -0.00832  0.508
 0.137 0.0188  0.102
-0.335 0.0188  0.747
-0.154  0.192 -0.286
-0.218  0.192 -0.421
 0.216  0.191  0.581
-0.326  0.192 -0.683
-0.412 -0.189  0.761
 0.118 -0.333  0.689
 0.118 -0.333  0.725
 0.137 -0.279  0.635
 0.137 -0.315  0.436
-0.380 -0.225  0.747
 0.118 -0.234  0.355
 0.118 0.00975 -0.665
0.0803  0.192 -0.557
0.0803  0.192 -0.683
 0.137 -0.324  0.499
 0.118 -0.126  0.617
 0.216  0.192 -0.412
 0.137 -0.396 -0.466
 0.189  0.191  0.265
 0.137 -0.324 -0.214
0.0622  0.192  0.400
 0.225 -0.261  0.770
-0.190  0.192  0.174
 0.198  0.191  0.436
 0.243  0.192 -0.340
 0.118 0.0278 -0.412
-0.281  0.191 -0.466
 0.118 -0.369 -0.484
 0.171  0.192  0.716
 0.118 -0.333  0.202
 0.118 0.0278  0.211
0.0532 0.000725  0.747
0.0261  0.192 -0.169
-0.290 -0.0264  0.747
 0.137 -0.225 -0.367
 0.137 -0.261  0.292
-0.281  0.191 -0.205
-0.190 -0.270  0.770
-0.218 0.0459  0.747
 0.118 -0.387  0.102
-0.254  0.192  0.120
-0.218 -0.243 -0.795
0.0532  0.192 -0.466
0.0622 -0.315  0.747
 0.216  0.192 -0.773
-0.145 -0.378  0.770
 0.137 -0.369  0.156
 0.134  0.192 -0.421
 0.118 -0.252 -0.358
 0.216  0.191  0.292
 0.118 -0.324 -0.701
-0.371  0.192  0.689
-0.245  0.192  0.689
 0.125  0.192 -0.548
 0.118 -0.108 -0.241
-0.0281 -0.0534 -0.795
-0.145 -0.135 -0.795
 0.137 -0.0986  0.517
-0.0732  0.192 -0.475
-0.254 -0.0986  0.747
 0.118 -0.0535  0.427
-0.00997  0.192 -0.692
-0.290 -0.153  0.770
-0.281  0.191 -0.105
 0.118 -0.0625 -0.611
 0.137 -0.135  0.445
 0.118 -0.0264 -0.268
-0.317 -0.135 -0.795
 0.118 -0.0444 -0.214
-0.344 -0.0354  0.747
-0.0461  0.192  0.319
 0.137 -0.0354  0.689
-0.00997  0.192  0.671
 0.118 -0.0805 -0.692
 0.118 -0.0444 -0.0783
 0.118 -0.261 0.0571
0.0171  0.192  0.319
-0.00995 0.0730  0.747
-0.00995 -0.342  0.747
0.0532  0.192 -0.0873
-0.0912 -0.288 -0.795
 0.137 -0.216 0.0120
-0.163  0.191 -0.241
0.0171 0.000725  0.747
-0.0551 -0.243  0.747
-0.000934 -0.117 -0.796
0.0261 -0.369 -0.795
-0.000934 -0.198 -0.796
-0.0551 -0.0715  0.747
0.00810  0.191 0.0752
-0.335  0.191 -0.0603
 0.118 -0.189  0.725
 0.118 -0.288 -0.105
 0.118 0.000725 -0.123
-0.118 -0.189  0.770
 0.118 -0.171 -0.692
-0.181  0.191 -0.0512
 0.137 -0.0535 -0.114
-0.00995  0.191 0.0300
 0.252 -0.270 -0.796
-0.317  0.192  0.463
-0.317  0.192  0.517
 0.137 -0.342 -0.602
 0.162 0.0638  0.747
-0.335 -0.342  0.770
-0.218 -0.405  0.747
 0.161  0.192 -0.710
-0.172 -0.189  0.770
-0.236 -0.0354 -0.795
 0.270 -0.234 -0.796
 0.137 0.0549 -0.746
-0.272 -0.333 -0.795
 0.116  0.191 0.0842
 0.216  0.191  0.120
 0.137 -0.0264  0.147
 0.261  0.191  0.572
-0.335  0.192  0.211
0.0622  0.192  0.346
 0.161  0.191  0.129
 0.137 -0.225 -0.0783
-0.308 -0.135  0.747
 0.118 -0.144  0.174
-0.100  0.192 -0.809
-0.0233  0.162 -0.765
-0.331  0.163  0.159
-0.335  0.192  0.608
-0.0653 -0.310  0.770
 0.284 0.00609 -0.820
-0.0415  0.163  0.450
-0.154  0.192  0.319
 0.110  0.162  0.575
 0.107  0.163 -0.201
-0.317 0.0909 -0.791
 0.261  0.192  0.734
-0.150  0.163 0.0669
 0.174 -0.0312 -0.820
 0.154  0.162  0.440
 0.118 -0.144 -0.0602
0.0211 -0.182  0.771
-0.233  0.163  0.179
0.00959  0.162 -0.343
 0.171 0.0188  0.747
 0.251  0.162  0.149
-0.392  0.163 -0.00163
 0.184  0.158  0.776
0.0773  0.163 -0.183
0.0491  0.162 0.0305
0.0442  0.192  0.202
 0.294  0.164 -0.446
0.0722  0.162 -0.0322
-0.0363  0.162  0.769
 0.209  0.160 -0.818
 0.137 -0.0625 -0.764
 0.225  0.162  0.183
-0.225 0.0562 -0.819
 0.118 -0.324 0.0752
 0.118 0.0549  0.644
 0.137 0.0730  0.581
 0.118 -0.0986  0.680
 0.137 -0.279 -0.593
 0.118 -0.333 -0.141
 0.118 0.0819 -0.313
 0.137 0.0278 -0.178
 0.137 -0.153 -0.358
 0.137 -0.297  0.156
 0.118 -0.216  0.256
 0.137 0.0819  0.202
 0.118 0.0188 -0.358
 0.118 -0.126 -0.737
 0.137 -0.252  0.490
 0.137 0.0459  0.680
 0.137 0.0459 -0.620
-0.334  0.174  0.799
 0.118 -0.153 -0.241
 0.137 -0.0896 -0.0332
 0.137 -0.306 -0.0512
 0.118 -0.369 0.0210
-0.0552 -0.00848 -0.820
 0.118 -0.117 0.0210
 0.179  0.162  0.371
 0.118 -0.0896 0.0752
-0.0461  0.192  0.508
 0.137 -0.387 0.00294
 0.137 -0.306 -0.0873
 0.118 -0.189 -0.629
 0.137 -0.0444 -0.629
 0.137 -0.144  0.653
-0.172  0.192  0.545
 0.137 -0.396 -0.647
 0.137 -0.0354  0.364
 0.137 -0.207  0.463
 0.137 -0.207 -0.539
0.0622  0.192 -0.241
-0.409  0.190 -0.295
-0.373 -0.139  0.771
-0.00893 -0.145  0.771
 0.118 0.0549  0.382
 0.137 0.0638 -0.187
 0.118 0.0730 -0.358
-0.0229  0.162 -0.511
-0.389 -0.270  0.747
 0.299  0.185  0.379
0.0622 -0.414 -0.795
0.0698  0.162  0.723
 0.120  0.110  0.545
-0.122  0.163  0.538
 0.115  0.162 -0.133
0.0706  0.162  0.634
-0.109  0.192  0.689
-0.0439  0.162  0.583
-0.0459  0.162 -0.107
 0.235 -0.125 -0.820
 0.215  0.162  0.259
-0.151  0.163  0.687
 0.225  0.100 -0.794
 0.118 -0.378  0.734
 0.297 -0.182  0.759
-0.213  0.162 -0.595
