ply
format ascii 1.0
element vertex 2048
property float x
property float y
property float z
end_header
 0.384 -0.343 -0.390
-0.467  0.590  0.350
-0.803 -0.476 -0.163
 0.518  0.415  0.296
-0.103 -0.242  0.359
 0.802 -0.482  0.353
-0.356  0.135 -0.229
-0.758 -0.0453  0.358
0.0195  0.589 -0.0493
 0.753 -0.0207 -0.0410
-0.215 -0.417 -0.390
 0.281  0.151 -0.217
 0.402 -0.107  0.333
-0.0655  0.273  0.358
 0.786 -0.486 -0.127
-0.748 -0.105 -0.438
-0.789 -0.484  0.288
-0.0280 -0.107 -0.0504
 0.842 -0.109 -0.438
-0.571  0.238  0.118
-0.402  0.572 -0.0509
-0.788 -0.0702 -0.0410
 0.422  0.596 -0.0460
 0.172  0.601  0.355
0.0655 -0.103 -0.433
 0.792 -0.0757  0.352
-0.393 -0.107 0.0900
-0.458 -0.338  0.357
 0.309 -0.107 0.00578
-0.0374  0.266 -0.136
-0.560 -0.392 -0.384
 0.540  0.281 -0.0379
 0.262  0.198  0.359
-0.393 0.0951  0.359
 0.561 0.00943 -0.318
-0.359 -0.119 -0.431
-0.150  0.601  0.286
 0.190 -0.338  0.356
 0.803 -0.279  0.127
 0.683 -0.373 -0.390
 0.637  0.144  0.218
0.0842 -0.401 -0.390
-0.664  0.105 -0.246
0.0468 0.00154  0.358
 0.215  0.390 -0.0758
-0.496 -0.107 -0.191
 0.580 -0.317  0.359
-0.327  0.357  0.359
-0.773 -0.335 0.0619
 0.290 -0.107 -0.275
-0.112 0.0525 -0.288
 0.552 -0.107  0.118
 0.772 -0.232 -0.191
-0.271  0.358 -0.0694
-0.514  0.287 -0.120
-0.524 -0.107  0.305
-0.159 -0.107  0.165
-0.801 -0.370 -0.385
 0.367  0.602  0.216
 0.131 -0.107  0.165
-0.262 -0.107 -0.153
-0.692 -0.279  0.354
-0.707 0.0451  0.146
-0.140 -0.186 -0.360
-0.547  0.271  0.356
 0.505 -0.107 -0.116
-0.299 -0.120  0.354
-0.195  0.602 0.0415
-0.772 -0.223 -0.209
-0.468  0.432  0.165
-0.168 0.0670  0.359
 0.468  0.104  0.358
 0.168  0.601  0.118
 0.131  0.385  0.359
 0.543 -0.197 -0.384
-0.834 -0.129  0.162
 0.103 0.0580 -0.284
 0.795 -0.486 0.0815
 0.648  0.127 -0.138
-0.552 -0.166 -0.390
 0.788 -0.0702  0.152
 0.467  0.432 0.0713
 0.327  0.469  0.359
 0.197 -0.130  0.359
-0.589 -0.107 0.0619
-0.645  0.133 -0.0504
3.14e-05 -0.107 -0.247
 0.803 -0.270  0.324
-0.374 -0.307 -0.360
 0.384 -0.317  0.354
 0.599 -0.0546  0.358
 0.745 -0.00930 -0.262
 0.468  0.189 -0.190
-0.271 -0.326  0.359
 0.159 -0.107 -0.107
-0.0936  0.441 -0.0509
-0.608 0.0950  0.358
-2.95e-05  0.516  0.359
 0.393 -0.103 -0.433
-0.335  0.602  0.160
-0.00934  0.601  0.156
 0.412  0.414 -0.101
 0.206 -0.242 -0.360
 0.800 -0.486 -0.305
-0.449 0.00943 -0.318
 0.636  0.144 0.0401
 0.225  0.589 -0.0493
 0.525 -0.450 -0.385
-0.205  0.222 -0.167
-0.769 -0.0426 -0.275
-0.159  0.441  0.359
 0.421  0.273  0.358
-0.505  0.419 -0.00357
 0.122  0.206 -0.178
0.0749  0.170  0.359
 0.464  0.569  0.356
-0.674 -0.107  0.212
-0.803 -0.289  0.221
 0.802 -0.251 -0.359
 0.552  0.264  0.140
-0.225  0.226  0.358
 0.309 0.0389  0.359
-0.243 -0.0350 -0.350
0.0187 -0.242 -0.360
 0.402 0.0418 -0.295
-0.0187 -0.107  0.249
-0.646 -0.107 -0.125
 0.692 -0.129 -0.360
-0.309  0.554  0.359
 0.674 -0.107 -0.153
0.0281 -0.338  0.357
 0.803 -0.232 -0.0316
 0.244 -0.424 -0.378
 0.374 -0.107  0.174
-0.487  0.419  0.333
 0.586  0.215  0.353
-0.618 -0.0181 -0.338
-0.253 -0.107 0.0151
-0.674 -0.279 -0.360
 0.449 -0.107 -0.266
0.0530  0.386 -0.0691
-0.515  0.145 -0.221
-0.798 -0.482 -0.00563
 0.225 -0.109 -0.439
 0.849 -0.102 -0.153
-0.803 -0.326 -0.0971
 0.674 -0.195  0.359
-0.356 -0.107 -0.275
 0.691 0.0668  0.346
-0.150 -0.0921  0.359
 0.318  0.601 0.0709
-0.0648 -0.365 -0.390
0.0562 -0.186  0.359
 0.655 -0.107  0.230
 0.774 -0.420  0.221
-0.412 -0.107 -0.0691
-0.718 0.0289 -0.125
 0.356 -0.107 -0.144
-0.271  0.507 -0.0509
-0.774 -0.478  0.144
 0.853 -0.105 0.0214
 0.365  0.271 -0.131
 0.706 0.0446  0.118
-0.803 -0.204 -0.350
-0.853 -0.107 -0.178
-0.374  0.260 -0.140
 0.774 -0.373 -0.219
-0.614  0.177  0.241
 0.140 -0.107 -0.275
 0.468  0.572 0.0993
 0.646 -0.107 -0.00357
-0.384 -0.107  0.240
-0.427 -0.439 -0.369
-0.772 -0.195 0.0245
 0.850 -0.112 -0.294
-0.468  0.544 0.0807
-0.803 -0.176  0.343
 0.533 -0.186  0.354
-0.561 -0.232  0.354
0.0842 -0.107 0.0339
 0.774 -0.373 0.00576
-0.721 -0.481 -0.370
 0.253 0.0200 -0.311
 0.290  0.338  0.359
-0.430 -0.195  0.358
-0.271 -0.214 -0.360
 0.449 -0.107 0.00578
 0.346 -0.204 -0.360
-0.365  0.226  0.359
-0.243 0.0749 -0.272
 0.599 -0.107 -0.266
-0.0187  0.129 -0.233
 0.772 -0.176  0.230
-0.775 -0.354 -0.228
 0.178 0.0202  0.359
 0.290 -0.223  0.359
-0.131 -0.107 -0.228
-0.0468 -0.0675 -0.373
 0.311  0.600  0.353
-0.800 -0.373  0.357
0.0562  0.601  0.277
-0.513  0.320  0.212
-0.384  0.441 -0.0509
-0.468  0.591  0.221
-0.150  0.326 -0.0928
-0.290 0.0202  0.359
-0.0468  0.132  0.359
 0.468  0.469  0.193
-0.487 0.00154  0.359
-0.646 -0.139  0.359
-0.0748 -0.107 0.0713
 0.243 -0.107  0.221
 0.318  0.479 -0.0509
 0.655 -0.251 -0.390
-0.691 0.0671  0.268
 0.664 0.0855 -0.264
 0.524 -0.107  0.258
 0.524 -0.317 -0.360
-0.206  0.601  0.165
-0.103  0.572 -0.0509
 0.702 -0.338  0.357
-0.533 -0.107 -0.0504
-0.664 -0.107 -0.266
-0.502  0.336 0.0907
-0.187 -0.105 -0.439
-0.637  0.144 0.0713
-0.487 -0.107  0.174
0.00936  0.395  0.359
-0.262 -0.107  0.230
-0.703 0.0508 0.0245
 0.578  0.226 -0.150
 0.772 -0.326 -0.107
 0.243  0.271 -0.131
 0.802 -0.373 -0.350
-0.575  0.232 -0.0317
 0.529  0.298  0.268
 0.505 0.0960 -0.257
 0.599 -0.103 -0.433
-0.224 -0.214  0.354
-0.772 -0.186 -0.0971
 0.112  0.516 -0.0509
 0.204  0.601  0.231
-0.440 -0.214 -0.390
-0.487  0.170  0.359
 0.518  0.415 -0.0504
-0.487 -0.107 -0.312
-0.780 -0.0594  0.240
 0.487 -0.0675 -0.373
 0.486  0.358  0.168
-0.702 -0.107 0.0993
 0.715 0.0340 -0.156
 0.710 0.0391  0.233
-0.606  0.188 -0.144
-0.168 -0.317 -0.360
-0.850 -0.112 0.0494
0.0655  0.292  0.359
 0.215 -0.107 0.0713
 0.113  0.299 -0.112
-0.140 -0.107 -0.0691
 0.468 -0.0172  0.358
-0.683 -0.107 -0.0129
-0.803 -0.457 -0.294
-0.552 -0.279 -0.390
-0.412 -0.0827  0.359
-0.0655 -0.0172  0.359
-0.636 -0.102 -0.433
 0.430  0.385  0.359
 0.103  0.601 0.0245
-0.337 0.0250 -0.307
 0.692 -0.107  0.109
 0.580  0.104  0.358
-0.853 -0.105 -0.312
 0.849 -0.102  0.258
-0.159  0.140 -0.225
 0.421 -0.214  0.359
-0.0468  0.601 0.0526
0.0562 -0.107 -0.144
 0.365  0.142  0.359
 0.168  0.488  0.358
-0.0374 -0.129  0.354
 0.319  0.358 -0.0694
-0.702 -0.167 -0.360
 0.159 -0.0238 -0.342
-0.318 -0.401 -0.362
-0.159 -0.333  0.359
 0.356 -0.0405 -0.354
-0.774 -0.391  0.212
 0.168 -0.232  0.354
 0.698 0.0559 0.00889
-0.234 -0.107 -0.256
 0.103 -0.176 -0.360
 0.766 -0.0519 -0.362
 0.225 -0.107 -0.191
-0.290  0.142  0.358
 0.467  0.572  0.240
1.43e-05 0.0361 -0.299
-0.376  0.602  0.274
 0.739 -0.466 -0.390
-0.664 -0.392 -0.362
-0.384  0.479  0.358
-0.739 -0.107 -0.191
-0.803 -0.251  0.118
 0.506  0.331 0.0487
 0.772 -0.195 0.0619
-0.605 -0.338  0.356
-0.337 -0.242  0.354
-0.178  0.338  0.359
 0.299 -0.107  0.315
 0.159  0.245  0.359
 0.150 -0.107  0.268
-0.487 -0.107 0.0432
-0.571 0.0580 -0.284
-0.260  0.602  0.280
 0.178 -0.343 -0.384
 0.469  0.299 -0.112
-0.468 -0.345 -0.390
-0.477 -0.102 -0.425
 0.449 -0.251 -0.390
-0.852 -0.106 -0.437
 0.772 -0.186 -0.284
 0.187  0.107 -0.249
 0.770 -0.119 -0.0878
-0.0468  0.601  0.296
-0.206  0.544  0.359
-0.599 -0.00788  0.359
 0.627 -0.465 -0.385
 0.178  0.123  0.358
 0.458  0.497 -0.0508
 0.384  0.124 -0.237
-0.430  0.353 -0.0734
-0.765 -0.0369 0.0525
 0.215  0.488 -0.0509
-0.468  0.507  0.277
0.00939 -0.107  0.127
-0.711 -0.0511 -0.361
 0.730 -0.107 -0.237
-0.140  0.170  0.358
-0.421  0.320  0.359
-0.290 -0.107  0.109
-0.196  0.425 -0.0538
 0.646 -0.0405 -0.354
-0.702 0.0305 -0.303
-0.292  0.602 0.0683
 0.290 -0.326 -0.360
 0.430 -0.429 -0.362
 0.774 -0.373  0.109
 0.449 -0.107  0.109
-0.262  0.432  0.359
0.0936  0.601  0.184
-0.0815 -0.261 -0.387
-0.0842  0.195 -0.186
0.0468 -0.0350 -0.350
-0.0553  0.353 -0.0734
-0.772 -0.186  0.249
 0.765 -0.0369 0.0557
-0.772 -0.148 -0.275
-0.517  0.314 -0.00358
 0.802 -0.289 -0.266
-0.299  0.200 -0.182
 0.487 -0.289  0.354
 0.802 -0.298  0.230
 0.253 -0.107 -0.0784
-0.0561 -0.107 -0.144
 0.764 -0.0374  0.262
-0.468  0.507 -0.0223
-0.589 -0.107  0.165
-0.775 -0.382 -0.0223
 0.262 -0.158 -0.360
-0.847 -0.116  0.280
 0.802 -0.457 -0.0317
 0.800 -0.179  0.356
0.0934 -0.298 -0.390
-0.803 -0.307 -0.312
-0.504  0.416 -0.0995
 0.772 -0.0483 -0.172
 0.582  0.220 0.0588
-0.0468 -0.167 -0.360
-0.112  0.601  0.146
-0.356 -0.0511 -0.361
 0.683 -0.107  0.324
0.0842  0.563  0.359
 0.337 -0.426 -0.390
-0.112 -0.107  0.258
-0.196  0.582 -0.0509
-0.803 -0.279  0.315
-0.168 -0.107 0.0619
 0.543 -0.107 -0.00357
0.0749  0.135 -0.229
 0.328  0.599 -0.0396
-0.0655 -0.333  0.359
 0.749 -0.108 -0.439
 0.464  0.476  0.356
-0.356 -0.107 -0.153
 0.803 -0.157 -0.369
 0.290 -0.317  0.359
 0.580 -0.107 -0.172
-0.803 -0.270 -0.0223
-0.262  0.282 -0.124
-0.468  0.211 -0.175
-0.606  0.188  0.350
 0.513  0.309  0.358
 0.594  0.204 -0.0317
-0.318 -0.107 -0.0504
 0.580  0.140 -0.225
 0.178 -0.107 -0.0129
 0.281 -0.107  0.137
-0.692 0.0482  0.358
-0.571 -0.107 -0.275
-0.803 -0.429 0.0713
 0.587  0.216  0.262
 0.786 -0.373  0.359
0.0655 -0.107  0.315
-0.271 -0.133 -0.412
 0.430 -0.139 -0.360
 0.772 -0.289 0.0432
 0.803 -0.186  0.146
-0.412 -0.129 -0.360
 0.132  0.416 -0.0994
 0.365  0.195 -0.186
-0.730 -0.107  0.296
-0.259 -0.340 -0.388
 0.505 -0.101  0.359
 0.801 -0.482 -0.217
0.0281  0.469 -0.0509
 0.496  0.189  0.358
-0.524 -0.0294 -0.346
-0.159 -0.107 -0.312
0.0187  0.195 -0.186
 0.234  0.601 0.0432
-0.513  0.419  0.240
 0.590 -0.107 -0.0784
0.0842 -0.107 -0.0597
-0.215 -0.0266  0.359
 0.103 0.0764  0.358
 0.253  0.516  0.359
-0.552  0.264  0.268
-0.412 0.0800 -0.268
 0.621  0.165  0.134
-0.159 -0.00750 -0.330
 0.391  0.602  0.316
-0.730 0.0119 -0.219
-0.293  0.599 -0.0186
 0.728 -0.298 -0.383
-0.468  0.441 0.0713
-0.131 -0.419 -0.370
 0.720 -0.0266  0.359
 0.140 -0.0640  0.359
 0.393 -0.107 -0.0597
-0.0748  0.376  0.359
-0.609 -0.461 -0.364
 0.430 -0.107  0.240
0.0842  0.469  0.358
 0.772 -0.130 0.00577
 0.150 -0.0994 -0.399
-0.355 -0.190 -0.381
 0.206  0.195 -0.186
 0.802 -0.401 -0.135
 0.271 -0.0731 -0.377
-0.757 -0.0263  0.165
 0.608 -0.139  0.359
 0.337  0.263  0.359
-0.356 -0.333  0.354
0.0281 -0.345 -0.361
 0.795 -0.486  0.269
 0.477 0.00372 -0.322
 0.583 -0.369 -0.389
 0.206  0.338  0.359
-0.0187 -0.242  0.359
-0.788 -0.0702 -0.125
 0.795 -0.486  0.166
-0.752 -0.270 -0.389
-0.468  0.516  0.165
-0.775 -0.420 -0.0972
-0.0842  0.479  0.359
 0.271 -0.0359  0.359
0.0655 -0.107 -0.312
 0.468  0.563 0.0151
-0.796 -0.0812 -0.368
 0.803 -0.186 -0.125
-0.468  0.591 -0.00357
-0.652  0.122 -0.163
-0.122  0.255 -0.144
-0.510  0.325  0.306
-0.853 -0.105 -0.0784
-0.0187 -0.109 -0.439
 0.337 -0.120 -0.360
0.0187  0.315 -0.101
-0.803 -0.373  0.137
 0.652  0.122  0.299
-0.113  0.589  0.359
 0.644  0.132 -0.0566
 0.695 0.0615 -0.0722
-0.803 -0.289 -0.172
-0.772 -0.176  0.127
 0.290 0.0855 -0.264
-0.599  0.145 -0.221
-0.112 -0.102 -0.406
 0.508 -0.123 -0.428
 0.103 -0.307  0.359
 0.552 -0.120 -0.360
0.0374  0.601 0.0713
-0.271  0.292  0.359
 0.384 -0.107 0.0526
-0.290 -0.107 -0.322
-0.150  0.507 -0.0509
 0.374 -0.00788  0.359
 0.772 -0.130  0.296
-0.449 -0.0562 -0.365
 0.802 -0.307 -0.181
 0.356 -0.167  0.359
-0.580 -0.0786 -0.381
-0.317  0.418 -0.0948
-0.599 -0.107  0.277
-0.384  0.582  0.359
-0.720 -0.204  0.358
 0.262  0.413  0.359
 0.721 -0.107  0.184
-0.168 -0.107 -0.144
0.0562 -0.107  0.221
 0.393  0.601 0.0993
 0.468  0.497  0.268
-0.720 -0.107 -0.0971
-0.234 -0.107  0.305
-0.515 0.0951  0.359
 0.625 -0.178 -0.380
-0.589 -0.107 -0.181
 0.838 -0.125  0.109
 0.524 0.0389  0.358
 0.524 -0.107 -0.228
-0.196 -0.242 -0.360
 0.720 -0.261  0.358
 0.449 -0.107 -0.172
 0.719 -0.205 -0.387
 0.772 -0.130 -0.172
-0.649  0.127  0.296
-0.0748 -0.00750 -0.330
 0.847 -0.116 -0.0691
-0.00934 -0.417 -0.370
-0.0179  0.418 -0.0948
-0.618 -0.335 -0.390
-0.734 0.00638 -0.0317
 0.580 -0.261 -0.360
 0.206 -0.107 -0.340
-0.841 -0.110  0.358
-0.533 -0.307  0.354
-0.803 -0.448 -0.378
 0.590 0.0692 -0.276
-0.131 -0.167  0.354
 0.599 -0.242  0.354
-0.362  0.601 0.0168
 0.291  0.222 -0.167
-0.664 -0.0640  0.359
-0.374 -0.107 0.0151
 0.505 -0.107  0.184
-0.440  0.245  0.359
 0.374 -0.107 -0.219
-0.0281 0.0576  0.359
-0.742 -0.00426  0.277
0.0655  0.249 -0.147
-0.412 -0.270  0.359
-0.505 -0.445 -0.389
-0.807 -0.149 -0.0348
 0.436  0.601  0.175
-0.803 -0.363  0.277
 0.664 0.0200 -0.311
 0.168 -0.417 -0.364
-0.614  0.177  0.138
-0.599  0.199 0.0338
-0.398  0.602  0.116
 0.132  0.596 -0.0460
-0.116  0.601 0.0207
 0.853 -0.105  0.180
-0.794 -0.457  0.359
-0.664  0.105  0.165
-0.356  0.320 -0.0968
 0.178 0.0361 -0.299
-0.262  0.135 -0.229
 0.744 -0.00987  0.187
-0.571 -0.158  0.359
 0.303  0.601  0.145
-0.655 -0.108 -0.350
 0.458 -0.354 -0.362
-0.636 -0.214 -0.360
 0.243 0.0857  0.359
-0.206  0.132  0.359
 0.337 -0.107  0.240
-0.430 -0.107 -0.228
 0.243  0.273  0.359
-0.0842 -0.107 -0.303
-0.0842 -0.107  0.156
-0.0281  0.207  0.358
-0.0561  0.507 -0.0509
-0.730 -0.354 -0.362
-0.739 -0.107  0.174
-0.608 -0.107 -0.0223
-0.803 -0.382 -0.303
 0.683 -0.107 -0.0784
 0.774 -0.410 -0.284
-0.542  0.222 -0.167
-0.575  0.232  0.193
 0.238  0.602  0.320
 0.667 0.0992  0.152
-0.496 -0.158  0.354
 0.318 -0.105 -0.439
-0.496 0.0580 -0.284
-0.00934  0.601  0.230
 0.356  0.385  0.359
 0.599 0.0202  0.358
 0.172 -0.171 -0.389
 0.281 -0.223 -0.390
 0.802 -0.307 -0.0223
 0.774 -0.363  0.286
-0.309 -0.270 -0.390
 0.772 -0.242  0.184
-0.772 -0.242 -0.294
-0.803 -0.214  0.184
 0.468  0.441 -0.00357
 0.282  0.414 -0.101
-0.206 -0.139 -0.360
-0.0936  0.113 -0.245
-0.467  0.507  0.351
-0.487 -0.0734  0.359
 0.375  0.601 0.0241
 0.773 -0.335  0.174
 0.770 -0.119 0.0807
-0.374 -0.148  0.359
 0.234 -0.270  0.359
-0.544  0.276 0.0525
-0.695 0.0615 -0.0597
-0.122 -0.107 0.00578
-0.775 -0.401 -0.172
-0.720 -0.107 -0.312
-0.449 -0.107 -0.135
-0.533 -0.107  0.230
0.0842 -0.107  0.109
 0.150  0.601  0.285
 0.337 -0.270 -0.390
-0.458 -0.279 -0.360
-0.748 -0.107 0.0432
-0.384  0.189 -0.190
 0.674 -0.107 -0.294
 0.591  0.210  0.190
 0.324  0.602  0.273
 0.816 -0.139 -0.228
 0.517  0.417  0.143
 0.384 -0.107 -0.294
-0.318 -0.107  0.174
 0.853 -0.105  0.330
 0.393 0.0764  0.358
 0.468  0.497  0.127
-0.524 -0.107 -0.125
-0.356  0.507 -0.0509
-0.421 0.0296  0.359
 0.356  0.544  0.358
-0.234 -0.107 -0.0878
 0.327 0.0361 -0.299
 0.758 -0.107 -0.303
-0.529  0.298  0.146
-0.726 0.0175  0.212
 0.849 -0.102 -0.369
-0.774 -0.474  0.214
-0.804 -0.157 -0.172
 0.412  0.348 -0.0772
-0.739 -0.338  0.357
-0.449  0.266 -0.136
 0.803 -0.420 0.0619
 0.533  0.276 -0.128
 0.483  0.368  0.258
-0.680 0.0836 0.0814
 0.792 -0.0755 -0.245
3.14e-05 -0.107 -0.340
 0.484  0.356 -0.0663
-0.498  0.341 -0.0770
 0.421  0.238 -0.155
 0.515 -0.107 -0.303
-0.806 -0.147 -0.389
 0.525  0.303  0.190
 0.544  0.275 0.0307
-0.571  0.238 -0.107
0.0187 -0.0827  0.359
-0.187 -0.0675 -0.373
 0.552 -0.0511 -0.361
-0.780 -0.484 -0.0733
-0.206 -0.139  0.359
-0.281 -0.0546  0.359
 0.131 -0.148  0.354
-2.95e-05  0.310  0.359
 0.271 -0.158  0.359
-0.505 -0.107  0.109
-0.150 -0.00788  0.359
-0.402 -0.107  0.174
-0.664 -0.107 -0.191
-0.243 -0.107  0.165
 0.636 -0.107  0.165
 0.131  0.310  0.359
-0.803 -0.438 -0.228
-0.599 -0.0827  0.359
 0.384  0.460 -0.0509
 0.309 -0.107 -0.200
 0.803 -0.167 -0.0504
 0.636 -0.317 -0.390
-0.130  0.414 -0.101
-0.215 -0.289  0.354
 0.803 -0.457 -0.369
-0.420  0.414 -0.101
 0.365 -0.251  0.354
-0.720 -0.130  0.359
-0.196 -0.107 -0.0223
 0.772 -0.214  0.287
 0.739 -0.139  0.354
-0.636 -0.242  0.354
-0.374 -0.0266  0.359
-0.290 -0.107 -0.219
-0.468  0.582  0.137
 0.468 -0.107 -0.0597
 0.178  0.601 0.00577
-0.122  0.235  0.358
 0.393  0.488  0.359
-0.168  0.601  0.109
 0.430  0.161  0.358
-0.487 -0.232  0.358
-0.215 0.0250 -0.307
-0.384 -0.392 -0.390
-0.772 -0.298  0.156
-0.252  0.601  0.347
 0.468  0.432  0.249
 0.178  0.244 -0.151
-0.449  0.135 -0.229
-0.808 -0.0973 0.0993
 0.243  0.326 -0.0928
 0.328 -0.107 0.0900
-0.103 0.0764  0.359
 0.702 -0.107 0.0432
 0.590 -0.107  0.240
 0.774 -0.429  0.296
 0.206 -0.0453  0.359
-0.290 -0.186  0.359
-0.318  0.469  0.358
 0.197 -0.107  0.156
 0.664 -0.107 -0.228
 0.384  0.217  0.359
 0.571 -0.107  0.305
-0.552 0.0389  0.359
 0.646 -0.289  0.354
-0.0374 -0.107 0.0151
-0.215  0.479  0.359
-0.772 -0.289 -0.247
 0.802 -0.270 -0.125
-0.0468 0.0749 -0.272
 0.774 -0.345 -0.294
 0.103  0.601  0.109
-0.402  0.161  0.359
 0.664 -0.108 -0.439
 0.440 0.0906 -0.260
 0.774 -0.410 -0.0691
-0.196  0.287 -0.120
-0.178 0.0692 -0.276
 0.421 -0.0455 -0.358
 0.758 -0.401 -0.390
0.0936 -0.0731 -0.377
 0.159  0.451 -0.0509
-0.279  0.602  0.195
-0.262  0.366  0.359
0.0655  0.357  0.359
-0.112  0.601  0.212
-0.103 -0.317 -0.360
 0.179  0.299 -0.112
-0.299  0.226  0.359
-0.346 0.0800 -0.268
 0.734 0.00638 -0.100
0.0562 -0.251  0.359
-0.726 0.0175 0.0900
 0.671 0.0941 0.0650
 0.671 0.0941  0.243
-0.816 -0.139  0.227
-0.324 -0.341 -0.389
-0.242  0.416 -0.0995
-0.516  0.410  0.102
 0.502  0.397  0.357
-0.753 -0.0207 -0.0878
-0.808 -0.0973 -0.256
 0.774 -0.438  0.127
 0.225 -0.107  0.305
 0.112 -0.232 -0.390
-0.803 -0.242 -0.0878
-0.424  0.602 0.0576
-0.800 -0.0867  0.315
 0.515 -0.392 -0.362
 0.250  0.601  0.185
 0.640  0.138 -0.200
 0.524 -0.261 -0.390
 0.786 -0.326 -0.390
 0.337  0.420 -0.0692
-0.477 -0.148 -0.360
 0.234 -0.0294 -0.346
0.0187 0.0855 -0.264
 0.629  0.155  0.348
0.0219 -0.139 -0.401
 0.683 -0.448 -0.362
 0.664 0.0109  0.358
 0.356 -0.0734  0.359
 0.393 -0.289 -0.360
-0.0312  0.595  0.357
-0.803 -0.326 0.00578
-0.0281 -0.317 -0.360
-0.853 -0.105 -0.0129
-0.337  0.282  0.359
-0.486  0.358 0.0338
0.0281 -0.107 0.0619
 0.574  0.231 -0.0878
-0.0655 -0.186  0.354
-0.337 0.0670  0.359
-0.0281  0.451  0.359
 0.112 -0.107 -0.172
 0.490  0.352  0.106
-0.543  0.198  0.359
 0.159 -0.289 -0.360
 0.774 -0.438 -0.181
 0.402  0.525 -0.0509
-0.803 -0.242 0.0526
-0.206  0.348 -0.0772
-0.773 -0.0483 -0.181
 0.493  0.390 0.0338
-0.676 0.0890 -0.116
 0.784 -0.0645 -0.00982
-0.391  0.602  0.214
 0.131 -0.107 -0.340
 0.449  0.601  0.297
 0.795 -0.0994 -0.399
 0.802 -0.363  0.221
 0.803 -0.0920  0.215
 0.772 -0.130  0.156
-0.674 -0.338  0.357
 0.112 -0.354 -0.362
 0.636 -0.401 -0.362
 0.515  0.145 -0.221
0.0372  0.601  0.350
-0.699 0.0565 -0.191
0.0749 0.00943 -0.318
-0.103  0.601 0.0806
-0.591  0.210  0.286
 0.707 0.0451 -0.247
-0.772 -0.242  0.277
 0.772 -0.223 -0.0878
-0.801 -0.305 -0.385
-0.384 -0.242 -0.390
 0.780 -0.0594 -0.0909
 0.243 -0.355 -0.385
 0.515 0.0475 -0.291
 0.262  0.441 -0.0509
-0.206  0.173 -0.202
 0.387 -0.171 -0.389
-0.368  0.386 -0.0691
-0.215  0.601  0.240
 0.727 0.00905 -0.317
-0.722 -0.217 -0.386
-0.533 -0.214 -0.360
 0.468 -0.148  0.359
-0.468  0.357  0.359
-0.196 -0.107 -0.209
-0.234 -0.289 -0.360
-0.0748 -0.107  0.305
-0.468  0.469  0.230
 0.271  0.516 -0.0509
0.0281  0.245  0.359
-0.122 -0.107  0.109
 0.599 -0.107 0.0339
-0.552 -0.0453  0.359
0.00939 -0.107 -0.107
-0.299 -0.0181 -0.338
 0.737 0.000870  0.299
-0.561  0.132  0.359
-0.00934 -0.0181 -0.338
-0.421  0.432  0.358
-0.483  0.377  0.184
 0.450 -0.103 -0.415
-0.140 -0.251 -0.390
-0.103 -0.0511 -0.361
 0.729 0.0114 0.0744
-0.779 -0.484 0.0671
-0.757 -0.0263 -0.331
 0.772 -0.0483 -0.303
-0.803 -0.429  0.305
 0.702 -0.0562 -0.365
 0.560  0.254  0.215
-0.206  0.282  0.359
 0.197 -0.107 -0.256
-0.515 -0.107 -0.247
-0.318 -0.107  0.249
 0.402 -0.223 -0.360
 0.122 0.00154  0.359
 0.627 -0.107  0.287
-0.234 -0.107 0.0713
0.0468  0.601  0.137
-0.589 -0.107 -0.0784
-0.772 -0.204 -0.0410
 0.803 -0.186 0.00578
 0.449  0.329  0.358
 0.356  0.320  0.359
 0.477  0.245  0.358
 0.618 -0.107  0.109
 0.561  0.161  0.358
-0.318 -0.107 0.0339
 0.487 -0.158 -0.360
-0.168 -0.107  0.240
 0.141  0.368 -0.0658
 0.498  0.342  0.311
-0.323  0.602  0.234
 0.786 -0.486 0.0232
-0.665 -0.471 -0.385
-0.583 -0.127 -0.424
 0.290 -0.392 -0.362
-0.850 -0.112 -0.372
 0.206  0.554  0.359
 0.225 -0.289 -0.390
-0.803 -0.176 0.0713
 0.346  0.544 -0.0509
-0.772 -0.130 -0.0784
-0.794 -0.242  0.359
 0.608 -0.0786 -0.381
-0.803 -0.429  0.156
 0.609  0.182 -0.128
-0.774 -0.345 -0.144
-0.608 0.0960 -0.257
 0.468  0.420 -0.0785
-0.800 -0.0867 0.0253
-0.440 -0.107  0.315
 0.803 -0.354 0.0526
-0.646 0.0418 -0.295
-0.318  0.249 -0.147
-0.540  0.281 -0.0691
-0.656  0.117 0.0245
 0.564  0.248  0.311
 0.140  0.135 -0.229
-0.402 -0.0181 -0.338
-0.309  0.554 -0.0509
-0.140 -0.364 -0.385
-0.614  0.177 -0.0309
 0.774 -0.354 -0.163
 0.679 0.0841 -0.160
 0.749 -0.107  0.249
-0.112 -0.298  0.354
-0.215  0.479 -0.0509
 0.816 -0.139 0.0526
-0.552 -0.107 -0.340
-0.828 -0.132 -0.122
 0.178  0.601  0.174
-0.393 0.0361 -0.299
-0.533  0.102 -0.253
-0.262 -0.392 -0.362
0.0468 0.0857  0.358
 0.458 -0.107 -0.322
 0.533 -0.107 0.0526
-0.262 -0.158 -0.360
 0.772 -0.242 -0.294
-0.299 -0.0893 -0.389
 0.477 -0.232  0.354
 0.806 -0.149 -0.312
3.14e-05 -0.107 -0.163
 0.243 -0.107 -0.0223
-0.674 -0.107 0.0432
0.0842 -0.0546  0.359
-0.618 -0.270 -0.360
 0.187  0.395  0.359
-0.458 0.0857  0.359
-0.337  0.413  0.359
 0.468  0.507 0.0245
-0.346  0.170  0.358
-0.421 -0.107 -0.284
-0.281 -0.251  0.354
 0.103  0.460 -0.0509
-0.543 -0.335 -0.390
-0.683 -0.107  0.156
-0.702 -0.00788  0.358
-0.800 -0.0867  0.194
 0.794 -0.317  0.358
-0.234 -0.0949 -0.393
 0.636 0.0764  0.358
-0.758 -0.158 -0.360
 0.755 -0.147 -0.396
 0.524  0.195 -0.186
-0.652  0.122  0.240
 0.599 -0.107 -0.331
-0.468 -0.401 -0.362
-0.748 -0.279  0.359
 0.772 -0.251  0.240
 0.772 -0.307  0.277
 0.533  0.254  0.358
 0.346  0.315 -0.101
-0.449 -0.107  0.109
-0.150  0.544  0.359
 0.168 -0.107 -0.172
-0.804 -0.157 -0.228
-0.430 -0.107 0.0432
-0.0749 -0.417 -0.370
0.00938  0.132  0.359
0.0562 -0.107 -0.247
 0.467  0.441  0.127
-0.692 -0.105 -0.439
-0.0187 -0.107  0.305
 0.543 -0.242  0.354
-0.122  0.292  0.358
-0.468  0.563  0.277
 0.524 -0.107 -0.0597
 0.505 -0.107 -0.172
-0.757 -0.0263  0.109
 0.234 0.0202  0.359
 0.803 -0.382  0.165
-0.337 -0.107  0.315
 0.477 -0.214 -0.360
-0.196 -0.190 -0.381
-0.458  0.563 -0.0508
 0.772 -0.251 0.0900
0.0187 -0.289 -0.390
-0.803 -0.214 -0.256
-0.599 -0.167 -0.360
 0.779 -0.428  0.358
 0.766 -0.204 -0.356
-0.772 -0.317  0.258
-0.412 -0.102 -0.433
-0.772 -0.130  0.268
-0.165 -0.139 -0.401
0.00938  0.535 -0.0509
-0.421 -0.354 -0.362
 0.655 -0.0734  0.358
-0.803 -0.345  0.202
-0.664 -0.335 -0.360
-0.430 -0.139  0.359
 0.520  0.308 -0.0847
-0.271 0.0361 -0.299
-0.749 -0.0150 -0.144
 0.412  0.162 -0.210
-0.486  0.386 -0.0441
-0.0928  0.293 -0.116
-0.468  0.441  0.287
 0.449 -0.0921  0.358
 0.737 0.000775  0.130
-0.803 -0.429 0.00578
-0.780 -0.483 -0.251
-0.618 -0.186  0.354
-0.393 -0.0836 -0.385
-0.299  0.315 -0.101
 0.225  0.601  0.137
 0.281 -0.107 -0.153
-0.271  0.425 -0.0538
 0.749 -0.214  0.359
 0.440  0.601 0.0619
 0.402  0.304 -0.108
-0.0467 -0.107 -0.219
 0.281  0.601 -0.0129
0.0281  0.469  0.358
-0.477 -0.107 -0.0878
-0.00934 -0.0359  0.359
0.0842  0.413  0.359
-0.00933 -0.176  0.354
 0.243 -0.101  0.359
-0.103 -0.120  0.359
-0.533 -0.101  0.359
-0.421 -0.107 -0.0129
 0.131  0.151  0.359
 0.206  0.170  0.359
 0.646 -0.107 0.0619
 0.802 -0.298 -0.331
-0.772 -0.214 -0.144
-0.0561  0.601  0.202
 0.365 -0.107 -0.0129
-0.646 -0.107 0.0900
 0.772 -0.317 0.0900
0.00939 -0.107  0.193
 0.356 -0.107  0.305
-0.683 -0.107  0.324
-0.327  0.460 -0.0509
 0.449 -0.107  0.305
-0.412  0.535  0.359
-0.458 -0.107  0.221
-0.346 -0.107  0.118
 0.402  0.432  0.359
-0.393  0.366  0.359
-0.112 -0.139 -0.360
 0.533 -0.0546  0.358
-0.524 0.0200 -0.311
 0.215 0.0692 -0.276
-0.206  0.107 -0.249
-0.290 -0.107 -0.107
 0.103 -0.0294 -0.346
 0.356 0.0855 -0.264
-0.0280 -0.107 -0.294
-0.599  0.199 -0.0785
-0.784 -0.0645  0.137
 0.140  0.441  0.359
-0.680 0.0836 -0.0122
-0.194 -0.360 -0.381
-0.321 -0.147 -0.396
-0.421  0.601  0.324
 0.788 -0.0702 0.0963
-0.718 0.0289  0.315
-0.691 0.0671  0.193
-0.802 -0.249 -0.385
 0.234 -0.197 -0.384
-0.769 -0.0426  0.305
0.00938  0.244 -0.151
 0.464  0.563 -0.0475
-0.150  0.184 -0.194
-0.772 -0.158  0.202
 0.745 -0.00930 -0.197
 0.281 -0.133 -0.412
 0.168 -0.289  0.354
 0.674 -0.195 -0.360
-0.524 -0.0994 -0.399
 0.206  0.151 -0.217
-0.0281 -0.261 -0.390
 0.430  0.601 0.00648
-0.575  0.232  0.333
 0.508  0.401  0.193
 0.808 -0.0973 -0.194
-0.308  0.156 -0.214
 0.795 -0.0820  0.290
 0.449 -0.326  0.359
 0.739 -0.0893 -0.389
 0.521  0.309  0.102
 0.421 -0.279  0.354
 0.299  0.161  0.359
-0.374 -0.204  0.354
-0.0935 -0.107 -0.181
 0.197 -0.107 -0.0691
-0.0842  0.170  0.358
-0.646 -0.107 -0.0597
0.0281 -0.107  0.277
0.0749  0.554 -0.0509
-0.0561 -0.107  0.212
0.0468 -0.107 -0.0223
-0.00934  0.601 0.0151
 0.225  0.451  0.359
-0.206 -0.107  0.202
-0.206 0.0296  0.359
-0.393 -0.107 -0.191
-0.803 -0.289 0.0807
-0.702 -0.107 -0.153
-0.112 -0.0546  0.359
-0.337 -0.0640  0.359
-0.253  0.179  0.358
-0.680 -0.139 -0.401
 0.502  0.336 -0.00359
-0.517  0.417  0.156
-0.191  0.594  0.356
-0.0686  0.405 -0.0949
 0.331 -0.342 -0.389
-0.374 -0.107 -0.331
-0.803 -0.0920 -0.172
 0.772 -0.167 -0.228
 0.772 -0.0488  0.212
-0.0280 -0.298  0.354
 0.262 -0.261 -0.360
-0.0561 -0.133 -0.413
-0.772 -0.279 0.0339
-0.770 -0.119 -0.0129
 0.772 -0.270 -0.0504
 0.382  0.602  0.265
-0.253  0.238 -0.155
 0.772 -0.251 0.00577
-0.772 -0.270 -0.135
-0.680 0.0836  0.315
-0.802 -0.114 -0.435
 0.853 -0.105 -0.241
-0.505  0.301  0.359
-0.103 -0.214 -0.390
-0.589 -0.208 -0.389
 0.337 -0.338  0.357
 0.115 -0.114 -0.435
-0.803 -0.373 0.0807
-0.773 -0.335  0.118
 0.810 -0.143  0.212
 0.206 -0.392 -0.390
 0.660  0.110 -0.0129
-0.749 -0.438 -0.362
 0.802 -0.223 -0.256
 0.140 0.0906 -0.260
-0.0655 0.0361 -0.299
 0.458  0.129 -0.233
 0.262 -0.107 -0.340
-0.627 -0.107  0.324
-0.00935 -0.363 -0.390
-0.641  0.139 -0.116
0.0655  0.178 -0.198
-0.774 -0.345 -0.331
-0.00934  0.378 -0.0660
 0.800 -0.0867 0.0331
0.0749  0.326 -0.0928
 0.664 -0.139  0.359
-0.112  0.353 -0.0734
-0.636 -0.298  0.359
 0.122 -0.251  0.359
-0.356 -0.432 -0.378
 0.774 -0.466 -0.256
 0.722 0.0229  0.348
 0.613  0.176 0.0713
 0.599 -0.420 -0.390
 0.815 -0.100 -0.328
-0.766 -0.111 -0.144
 0.209 -0.139 -0.401
 0.150  0.535  0.359
 0.687 0.0727 -0.209
-0.548  0.270  0.212
-0.477 -0.232 -0.360
-0.299  0.107 -0.249
-0.745 -0.00930 0.0151
 0.290 -0.0350 -0.350
-0.187 -0.107  0.109
 0.178 -0.176  0.359
-0.168  0.497  0.358
-0.00934  0.601 0.0900
-0.0281  0.601 -0.0317
 0.412 0.0296  0.358
 0.309  0.525  0.358
 0.402  0.563  0.358
-0.655 -0.107  0.258
-0.243  0.563 -0.0509
0.0468  0.601  0.202
 0.327 -0.0266  0.359
-0.168 -0.270  0.354
 0.243 -0.204  0.359
 0.206  0.226  0.359
 0.318  0.217  0.359
 0.271  0.563  0.359
-0.608 -0.107 -0.228
-0.206  0.423  0.359
-0.774 -0.410  0.258
-0.580  0.184 -0.194
-0.0748 -0.107 -0.0971
0.0749 -0.139  0.359
-0.0936  0.423  0.359
-0.178 -0.195  0.354
-0.803 -0.373 -0.0784
 0.262 -0.107 0.0526
 0.187  0.601 0.0713
 0.715 0.0340 -0.0348
-0.0468  0.329  0.358
-0.599 -0.107 -0.322
-0.178 -0.107 -0.266
-0.318 -0.289  0.354
-0.271 0.0670  0.359
-0.271 -0.107 -0.0316
-0.580 -0.279  0.354
-0.412  0.315 -0.101
 0.548  0.270 0.0806
-0.0468  0.310 -0.104
-0.758 -0.107  0.221
-0.758 -0.107 -0.237
-0.775 -0.420 -0.266
 0.384 0.00372 -0.322
 0.458 0.0418 -0.295
-0.318  0.377 -0.0657
-0.468  0.304 -0.108
-0.770 -0.119  0.137
-0.625  0.161  0.184
 0.327 -0.120  0.354
-0.803 -0.335 -0.266
-0.490  0.352  0.137
 0.517  0.417  0.246
-0.402 -0.174 -0.384
 0.618 -0.223 -0.360
-0.0374  0.432 -0.0508
-0.772 -0.279 -0.340
 0.802 -0.373 -0.0878
0.0842  0.601 -0.0317
 0.802 -0.410 -0.237
 0.816 -0.139 -0.144
-0.803 -0.448 -0.0410
 0.764 -0.0374  0.336
-0.853 -0.105  0.230
-0.495 -0.190 -0.381
-0.512  0.406  0.293
 0.749 -0.107 -0.135
 0.412 -0.373 -0.362
 0.178 -0.0675 -0.373
 0.558 -0.137 -0.406
-0.777 -0.0921  0.359
 0.328  0.162 -0.210
 0.608  0.107 -0.249
 0.127  0.601  0.241
-0.496  0.244 -0.151
-0.816 -0.139  0.311
 0.345  0.602  0.170
-0.212 -0.338  0.356
-0.262 -0.251 -0.390
 0.150 -0.223 -0.360
 0.487 -0.307 -0.390
-0.187 -0.279 -0.390
0.0562 -0.279 -0.360
0.0468 -0.148 -0.360
-0.772 -0.186  0.305
 0.803 -0.176  0.277
-0.772 -0.214 0.0807
 0.561 -0.307 -0.390
-0.804 -0.157 0.0245
 0.119 -0.147 -0.396
 0.765 -0.120 -0.356
 0.608 -0.00189 -0.326
-0.777 -0.195 -0.390
-0.567  0.243 0.0151
-0.0281  0.206 -0.178
-0.490  0.352  0.240
-0.402  0.124 -0.237
 0.627 -0.333  0.359
-0.253  0.189 -0.190
-0.636 -0.420 -0.390
0.0637 -0.199 -0.378
 0.338  0.233 -0.159
-0.853 -0.105 -0.237
-0.774 -0.401 0.0432
 0.415  0.601  0.224
-0.792 -0.0755 -0.302
 0.692 -0.335 -0.360
-0.664 -0.0618 -0.369
 0.468  0.451  0.315
 0.629  0.155  0.265
-0.537  0.287 0.0993
 0.246 -0.338  0.356
-0.580 -0.354 -0.362
 0.494  0.347  0.215
-0.150  0.102 -0.253
-0.606  0.188 0.0806
-0.702 -0.326 -0.390
-0.774 -0.345  0.324
 0.772 -0.279 -0.228
 0.816 -0.139 -0.0129
 0.467  0.563  0.174
-0.0468 -0.113 -0.356
 0.374  0.390 -0.0758
-0.151  0.601 0.0604
 0.487 -0.270 -0.360
 0.458 -0.393 -0.390
 0.513  0.419 0.0807
-0.0452 -0.204 -0.390
 0.803 -0.167 -0.191
-0.0842 -0.166 -0.390
 0.803 -0.251 0.0432
-0.181  0.406 -0.0952
-0.758 -0.167  0.358
-0.775 -0.474 -0.123
-0.245  0.602 0.0568
 0.772 -0.167 -0.0878
 0.235  0.233 -0.159
 0.103 -0.195  0.354
 0.702 0.0502  0.302
 0.402 -0.158  0.354
 0.561 -0.129  0.354
 0.774 -0.476  0.315
 0.730 -0.0921  0.358
-0.702 -0.0893 -0.389
-0.803 -0.429  0.221
-0.0187  0.254  0.358
-0.402 -0.107 -0.116
 0.440 -0.107 0.0619
0.0374 -0.0731 -0.377
-0.402 -0.317  0.359
-0.187 -0.107  0.315
-0.337 -0.107 -0.228
 0.299 -0.107 -0.0410
 0.178 -0.107  0.315
-0.543 -0.107  0.174
-0.224 -0.107 -0.303
 0.468  0.497 0.0713
 0.131 -0.107 0.0993
0.00937 -0.195 -0.360
-0.468  0.497 0.0713
-0.112  0.338  0.359
0.0374  0.554  0.359
-0.337 -0.107 -0.0971
0.0655 -0.107 -0.200
-0.487 -0.107 -0.0410
-0.0655  0.601  0.156
-0.543 -0.107 0.0526
-0.0748  0.217  0.358
 0.131 -0.107 -0.0504
 0.767 -0.270  0.359
 0.749 -0.363 -0.362
 0.655 -0.107 -0.340
 0.168 -0.129 -0.360
-0.253  0.535  0.359
-0.468  0.525  0.212
 0.122 -0.107  0.212
-0.505 0.0483  0.359
-0.168  0.245  0.358
 0.440 -0.107  0.193
 0.337 -0.107 -0.303
-0.122 -0.107  0.212
-0.552 -0.107  0.118
 0.318  0.423  0.359
 0.458 -0.107 -0.219
-0.580 -0.107  0.221
 0.318 0.0857  0.359
 0.458 -0.107 -0.125
-0.730 -0.107 -0.0504
-0.281 -0.107  0.296
 0.234 -0.107 -0.144
 0.590  0.178 -0.198
 0.753 -0.0207 -0.135
 0.579  0.226  0.130
 0.477 -0.437 -0.362
-0.206 -0.0734  0.359
-0.552 -0.447 -0.390
 0.431 -0.183 -0.378
-0.0468  0.525  0.358
 0.299 -0.270  0.359
 0.346 -0.0786 -0.381
-0.571 -0.0405 -0.354
-0.618 0.0483  0.358
-0.803 -0.391 -0.135
 0.384 -0.435 -0.370
 0.468  0.244 -0.151
-0.703 0.0508 -0.237
 0.178  0.337 -0.0847
-0.579  0.226  0.240
 0.430 -0.00189 -0.326
 0.112  0.244 -0.151
-0.761 -0.136 -0.406
0.0374 -0.415 -0.364
 0.585 -0.458 -0.364
 0.516  0.410 -0.00358
-0.149  0.222 -0.167
-0.496 -0.279  0.359
 0.580 -0.186  0.359
0.00938 -0.130  0.359
-0.243 -0.167  0.354
 0.749 -0.326  0.354
-0.299  0.601  0.347
 0.365  0.591  0.359
-0.664 -0.204  0.354
-0.0655 -0.107  0.258
-0.468  0.479 0.0151
-0.0280 -0.107  0.165
-0.720 -0.0734  0.359
0.0281 -0.289  0.359
 0.772 -0.326 0.0151
 0.646 -0.107 -0.107
 0.552 -0.107 -0.107
-0.803 -0.307 -0.0504
 0.802 -0.429 -0.331
-0.112  0.132  0.359
-0.524 -0.204  0.358
 0.412 -0.0640  0.358
-0.618 -0.382 -0.362
 0.524 -0.317  0.354
-0.515 -0.251 -0.390
 0.561 -0.00788  0.358
-0.627 -0.107  0.137
-0.402  0.273  0.359
-0.477  0.217  0.359
-0.178  0.198  0.358
 0.683 -0.107  0.268
-0.346  0.582 -0.0509
 0.412 -0.107 -0.144
 0.449 0.0576  0.358
 0.561 -0.107  0.202
 0.402 -0.107  0.137
-0.168  0.601  0.193
 0.168 -0.107  0.193
 0.802 -0.326 -0.237
 0.206 0.0576  0.359
 0.262  0.601  0.109
 0.695 0.0615 -0.119
-0.346 0.0109  0.359
 0.772 -0.223  0.127
 0.234  0.601 -0.00359
 0.561 -0.401 -0.362
0.0289  0.418 -0.0948
 0.281  0.601 0.0338
 0.131  0.601  0.156
 0.253  0.195 -0.186
 0.774 -0.420  0.174
-0.752 -0.317 -0.389
 0.803 -0.186 0.0993
0.0187 -0.107 -0.294
 0.112  0.245  0.359
 0.159  0.516 -0.0509
-0.150  0.460 -0.0509
-0.150  0.582 -0.0509
 0.215  0.535 -0.0509
-0.140 -0.107  0.315
-0.309 -0.107 -0.275
-0.393 -0.107  0.315
-0.533  0.184 -0.194
 0.803 -0.186  0.193
 0.524 -0.107  0.305
-0.00934 0.0109  0.359
-0.365  0.535  0.359
-0.468  0.591 0.0432
 0.702 -0.107 -0.00357
-0.0187 -0.107 0.0619
 0.477 -0.107  0.258
 0.281 -0.107  0.184
0.0842 -0.107  0.165
 0.496 -0.107 -0.0223
-0.515 -0.107 0.00578
0.0655  0.497 -0.0509
 0.112 -0.101  0.359
-0.168 -0.107 0.0151
 0.772 -0.270 -0.163
 0.505 -0.107 0.0900
-0.159 0.0305 -0.303
-0.309 -0.223 -0.390
0.0842 0.0296  0.358
-0.772 -0.176 -0.312
-0.243 -0.111  0.359
 0.711 -0.107 -0.322
 0.720 -0.420 -0.362
 0.627 -0.107 -0.200
 0.467  0.535  0.212
-0.496 -0.107  0.268
 0.702 -0.107 -0.200
-0.421 -0.270 -0.390
-0.627 -0.107  0.221
 0.805 -0.120  0.359
-0.430 -0.392 -0.390
-0.346  0.123  0.359
 0.590 -0.148 -0.360
-0.608  0.142  0.359
-0.232  0.599 -0.0234
-0.776 -0.485 -0.368
-0.730 -0.120 -0.360
 0.281  0.293 -0.116
 0.393 -0.0893 -0.389
-0.487 -0.0786 -0.381
-0.218 -0.136 -0.406
 0.636  0.144 0.0963
-0.112 0.0145 -0.315
0.0655 0.0800 -0.268
 0.802 -0.232  0.351
-0.196 -0.0294 -0.346
-0.440  0.421 -0.0599
 0.300 -0.183 -0.378
-0.810 -0.143 -0.300
-0.800 -0.326  0.357
-0.312 -0.119 -0.431
-0.772 -0.139 -0.200
-0.468  0.479  0.315
-0.775 -0.480 -0.206
 0.636 -0.107  0.333
 0.617  0.171 -0.0847
-0.853 -0.107  0.102
 0.421 -0.317 -0.390
 0.337 -0.307 -0.360
-0.447  0.601  0.101
 0.684 -0.0994 -0.399
 0.362 -0.137 -0.406
 0.384 -0.251 -0.390
-0.131 -0.298 -0.390
 0.739 -0.261 -0.360
 0.608 -0.298 -0.360
-0.356 -0.279 -0.390
-0.290 -0.298 -0.360
-0.772 -0.251 -0.0504
-0.772 -0.317 -0.191
 0.187 -0.214 -0.390
-0.505 -0.113 -0.356
-0.680 0.0836  0.128
 0.625  0.160 -0.000455
-0.766 -0.229 -0.356
-0.103 -0.373 -0.362
 0.822 -0.135  0.277
-0.748 -0.107 0.0993
 0.802 -0.214 -0.163
 0.517  0.412 -0.0953
 0.487 -0.113 -0.356
 0.253  0.368 -0.0658
-0.468  0.441 -0.0129
-0.641  0.139  0.146
-0.464  0.451  0.356
 0.355 -0.379 -0.389
-0.816 -0.139  0.115
-0.468  0.102 -0.253
-0.730 0.0119  0.165
-0.772 -0.167 -0.0129
-0.487  0.386 0.0682
-0.716 -0.387 -0.389
 0.287  0.602  0.316
 0.458  0.432  0.359
-0.305  0.602  0.127
 0.773 -0.335  0.240
 0.140 -0.373 -0.390
-0.318 -0.113 -0.356
 0.664  0.105  0.196
 0.431  0.598  0.359
-0.803 -0.363 -0.172
 0.309  0.118 -0.241
-0.356 -0.373 -0.362
-0.0554  0.168 -0.206
-0.487  0.178 -0.198
0.0755 -0.347 -0.385
-0.720 -0.00189 -0.326
-0.774 -0.429 -0.312
 0.803 -0.448  0.202
 0.471  0.425  0.196
-0.625  0.161 -0.0784
-0.346 -0.148 -0.360
 0.767 -0.232 -0.390
 0.717 0.0283  0.159
-0.765 -0.0369 -0.0130
 0.734 0.00638 -0.00670
 0.131 0.00372 -0.322
 0.505 -0.0238 -0.342
-0.299 0.0636 -0.280
 0.206 -0.00189 -0.326
 0.664  0.105 -0.0847
 0.610  0.182  0.237
 0.774 -0.448 0.0806
 0.803 -0.157 -0.266
 0.808 -0.0973 -0.0909
 0.822 -0.134 -0.405
-0.339  0.602  0.297
-0.758 -0.0949 -0.393
-0.174 -0.420 -0.376
 0.172  0.401 -0.0904
 0.766 -0.429 -0.358
 0.661 -0.137 -0.406
 0.802 -0.438 -0.0878
 0.774 -0.438 -0.00359
 0.770 -0.119 -0.247
-0.803 -0.438 -0.125
-0.290 -0.354 -0.362
 0.808 -0.0976  0.124
-0.249  0.602  0.164
-0.730 0.0119 -0.172
 0.547  0.270 -0.0878
 0.486  0.358  0.353
-0.327  0.287 -0.120
-0.540  0.281  0.315
 0.113  0.162 -0.210
 0.561 -0.345 -0.361
-0.822 -0.135 -0.350
 0.525 -0.361 -0.390
 0.543  0.113 -0.245
 0.599  0.199  0.299
-0.0374 0.00943 -0.318
 0.722 0.0232 -0.213
 0.705 -0.123 -0.428
 0.702 -0.166 -0.390
 0.458  0.451 -0.0508
 0.679 0.0835  0.290
-0.462  0.406 -0.0952
-0.483 -0.139 -0.401
-0.0655 -0.232 -0.360
 0.206 -0.176 -0.360
-0.618 -0.0949 -0.393
 0.172 -0.130 -0.419
 0.449  0.331 -0.0888
-0.571  0.118 -0.241
 0.281  0.582 -0.0509
 0.808 -0.0973 -0.138
 0.803 -0.261  0.268
-0.627 -0.242 -0.390
-0.580 -0.00189 -0.326
 0.769 -0.0426 -0.231
 0.168  0.178 -0.198
-0.150 -0.0836 -0.385
-0.772 -0.242  0.193
-0.803 -0.214  0.268
-0.803 -0.279 -0.275
-0.803 -0.186 -0.135
-0.772 -0.186 -0.247
-0.772 -0.242  0.146
-0.803 -0.251 -0.322
-0.803 -0.270  0.165
-0.655 -0.00189 -0.326
 0.337  0.601  0.109
 0.691 0.0573 -0.284
-0.664 -0.190 -0.381
 0.234 -0.0994 -0.399
-0.803 -0.195 -0.191
-0.0748 -0.279  0.359
-0.803 -0.476  0.249
-0.683 -0.158  0.354
 0.772 -0.307  0.324
-0.131  0.404  0.359
-0.143 -0.119 -0.431
-0.775 -0.401 -0.228
 0.206  0.507  0.359
 0.140 -0.325 -0.390
-0.487  0.263  0.359
-0.803 -0.410 -0.359
-0.253 -0.00788  0.359
 0.774 -0.448 -0.303
 0.365  0.451  0.359
 0.571 -0.107  0.156
-0.803 -0.382  0.315
 0.253  0.357  0.359
-0.803 -0.251 -0.191
 0.356 -0.107  0.137
-0.224 -0.107 -0.172
-0.571 -0.107 -0.144
-0.449 -0.107 -0.331
 0.299  0.282  0.359
 0.215 -0.107 -0.294
 0.430  0.601  0.118
-0.449  0.151  0.359
-0.449 -0.0172  0.359
 0.487  0.142  0.358
 0.318  0.601 0.00577
0.0187 -0.107 -0.200
 0.618 -0.204  0.359
 0.802 -0.204 -0.219
-0.112 -0.107 0.0526
 0.721 -0.107 -0.0971
 0.140 -0.107 0.00578
-0.0280  0.376  0.359
-0.0281 -0.0734  0.359
-0.458 -0.186 -0.360
 0.803 -0.401 0.0245
 0.803 -0.223  0.212
-0.159 -0.148 -0.360
 0.159 -0.101  0.359
 0.197 -0.107 0.0245
 0.284 -0.424 -0.389
 0.412 -0.107  0.287
 0.412 -0.107 -0.247
 0.262  0.123  0.359
-0.178  0.544 -0.0509
-0.168 -0.0453  0.359
-0.0655 -0.107 -0.0316
 0.772 -0.204 -0.0504
0.00939 -0.107 -0.00357
 0.803 -0.214 -0.378
 0.675 0.0885 0.0214
 0.683 0.0778 -0.0254
-0.0935 -0.107 -0.247
 0.561 -0.279  0.358
-0.262  0.245  0.359
-0.356 -0.101  0.359
-0.337 -0.107 -0.00357
 0.374 -0.107 -0.0971
 0.803 -0.410 -0.369
-0.533 -0.107 -0.294
 0.346  0.179  0.359
-0.803 -0.410  0.118
 0.243 -0.107  0.156
 0.159 -0.0172  0.359
 0.262 -0.307 -0.390
-0.449 -0.289  0.359
-0.159 -0.107 -0.191
 0.243 -0.107  0.268
 0.571 -0.107 0.0807
-0.112 0.0109  0.359
 0.772 -0.167  0.315
-0.633  0.150 0.0151
 0.774 -0.373 -0.0504
-0.271 -0.107 0.0526
-0.0655  0.554 -0.0509
 0.122 -0.107 -0.125
-0.625  0.161  0.277
 0.393 -0.107  0.212
-0.365 -0.107  0.277
-0.517  0.417 -0.0597
-0.529  0.298  0.258
 0.802 -0.335 -0.135
-0.483  0.377 -0.00358
-0.159  0.271 -0.131
-0.815 -0.100  0.258
 0.627 -0.345 -0.361
-0.758 -0.223  0.354
-0.00856  0.162 -0.210
 0.483  0.368 -0.0223
-0.766 -0.111  0.324
-0.552 -0.251 -0.360
-0.234  0.601  0.202
0.0850  0.358 -0.0694
-0.589 -0.120 -0.360
 0.810 -0.143  0.165
-0.402 -0.307 -0.390
0.0693 -0.239 -0.381
-0.0903  0.601 -0.0116
 0.772 -0.167 -0.0223
-0.772 -0.307 -0.0223
-0.803 -0.204 -0.0691
 0.803 -0.289 0.0151
-0.803 -0.204  0.127
 0.803 -0.270  0.184
-0.298  0.602  0.298
 0.808 -0.0973 -0.287
-0.468  0.544  0.333
0.0289  0.353 -0.0734
-0.798 -0.482  0.181
-0.730 -0.298 -0.360
-0.730 -0.251 -0.360
-0.468 -0.442 -0.364
 0.739 -0.107  0.305
 0.739 -0.107  0.146
-0.471  0.425 0.0339
 0.621  0.165 -0.0441
-0.234 -0.102 -0.433
 0.787 -0.0707  0.246
 0.540  0.281  0.318
 0.571 -0.214 -0.360
-0.471  0.425  0.249
 0.586  0.215 0.0182
0.00937  0.282 -0.124
-0.583  0.221 0.0713
-0.533 -0.0618 -0.369
0.0562  0.211 -0.175
 0.692 -0.298  0.354
 0.671 0.0941  0.112
 0.772 -0.214 -0.135
-0.749 -0.0150  0.221
-0.655 -0.148 -0.360
-0.774 -0.354  0.174
 0.772 -0.298  0.202
-0.515 -0.335 -0.360
-0.774 -0.401 0.0900
0.0686  0.410 -0.0988
-0.374  0.601  0.324
 0.524  0.244 -0.151
 0.803 -0.214  0.315
 0.644  0.132  0.149
 0.802 -0.270 -0.0784
 0.543 -0.102 -0.425
-0.776 -0.0539 -0.0878
0.0687 -0.338  0.356
 0.103  0.420 -0.0599
-0.824 -0.102 -0.0410
 0.374 -0.108 -0.350
-0.824 -0.103 -0.209
 0.757 -0.0263 -0.000465
-0.803 -0.223  0.324
-0.803 -0.476 0.0994
-0.655 0.0749 -0.272
-0.477  0.420  0.127
 0.506  0.331  0.264
 0.374 -0.120  0.359
-0.772 -0.158 0.0526
-0.0834  0.227 -0.163
 0.802 -0.382 -0.172
-0.195  0.601 0.00127
 0.521 -0.147 -0.396
 0.777 -0.186 -0.390
-0.365 -0.270  0.359
0.00939  0.421 -0.0599
0.00939 -0.214  0.354
-0.318 -0.158  0.354
-0.660  0.111 -0.200
-0.196 -0.242  0.359
-0.290 -0.382 -0.390
 0.206 -0.363 -0.362
-0.415  0.602  0.283
 0.828 -0.132 -0.181
 0.168  0.211 -0.175
-0.487 -0.0405 -0.354
 0.412 -0.401 -0.390
-0.496 -0.401 -0.390
 0.774 -0.476  0.202
 0.849 -0.102 -0.107
-0.734 0.00638 0.0526
0.0374 0.0250 -0.307
-0.262 -0.108 -0.350
-0.337  0.189 -0.190
-0.468  0.591  0.305
-0.774 -0.429  0.333
-0.430  0.189  0.359
0.0936 -0.107  0.240
 0.810 -0.143  0.315
-0.159 -0.139  0.354
-0.384 -0.107 -0.0410
 0.234 -0.129 -0.360
 0.561 0.0418 -0.295
-0.571 -0.107  0.305
 0.608 -0.107 -0.144
-0.803 -0.391 -0.200
-0.327 -0.107 -0.181
 0.487 -0.107 -0.247
-0.702 -0.107  0.240
 0.290  0.385  0.359
-0.627 -0.0511 -0.361
0.0281  0.338  0.359
 0.702 -0.120  0.359
-0.761 -0.0318 -0.237
-0.208  0.601  0.125
-0.772 -0.232 -0.0129
 0.730 -0.107 0.0713
-0.346 -0.107 0.0619
 0.112 -0.107 0.0619
 0.384 -0.195  0.359
0.0936 -0.107 -0.284
-0.458 -0.111  0.359
 0.468  0.535 -0.0129
-0.674 -0.107 -0.0878
-0.0561 0.0857  0.359
 0.618 -0.107 -0.0504
-0.168 -0.107 -0.0971
-0.112 -0.107 -0.0410
-0.822 -0.135 -0.0691
-0.0187  0.161  0.358
 0.774 -0.373 -0.266
 0.281  0.488  0.359
-0.131  0.469  0.359
 0.178 -0.107  0.240
-0.561 -0.107  0.258
-0.646 0.0764  0.358
-0.496 -0.107  0.333
 0.337 -0.223  0.354
0.0187 0.0576  0.358
-0.215 -0.107  0.137
 0.664 -0.107  0.137
-0.590 -0.307 -0.390
 0.477 -0.107  0.156
-0.234 -0.107  0.258
 0.159 -0.107  0.137
-0.206  0.366  0.359
 0.552 0.0670  0.358
-0.346 -0.107  0.221
 0.309 -0.107  0.268
 0.159  0.338  0.359
-0.699 0.0565  0.230
 0.528  0.297 -0.00358
 0.738 0.00135 0.0370
-0.449 0.0692 -0.276
 0.687 0.0722  0.174
 0.802 -0.419  0.249
 0.290 -0.356 -0.386
-0.0631 -0.316 -0.378
 0.796 -0.0812 -0.363
 0.365  0.601 0.0716
 0.344  0.602  0.327
0.0749 -0.317 -0.360
 0.847 -0.116 -0.0223
-0.274  0.397 -0.0870
-0.168 -0.382 -0.362
0.0624 -0.147 -0.396
-0.234 -0.370 -0.389
-0.0374 -0.363 -0.362
-0.225  0.266 -0.136
 0.801 -0.484  0.230
-0.775 -0.448 -0.163
-0.496 -0.326  0.359
 0.200  0.602  0.325
 0.262 -0.392 -0.390
-0.0748  0.582  0.359
 0.235  0.418 -0.0948
 0.802 -0.410 -0.0410
 0.318 -0.0994 -0.399
 0.204  0.602  0.270
 0.684 -0.411 -0.384
-0.589 -0.120  0.354
-0.506  0.331 -0.0402
-0.664 -0.102 -0.406
-0.772 -0.130  0.174
 0.807 -0.149 -0.0878
-0.730 0.0119 -0.284
-0.377 -0.147 -0.396
 0.772 -0.148 -0.331
 0.792 -0.0755 -0.0574
 0.206 -0.214  0.354
-0.253 -0.279  0.359
 0.356 -0.289  0.359
-0.384  0.342 -0.0811
 0.770 -0.119  0.193
-0.140 -0.232  0.354
 0.477 -0.186  0.354
-0.853 -0.107  0.318
-0.356  0.420 -0.0878
-0.660  0.111 -0.0878
 0.758 -0.107 -0.0223
-0.112  0.173 -0.202
-0.718 0.0289 -0.00358
-0.378  0.599 -0.0184
 0.803 -0.457  0.296
 0.655 -0.251  0.358
 0.131 -0.0511 -0.361
 0.580 -0.0294 -0.346
-0.618  0.170 -0.199
 0.621 -0.377 -0.388
 0.165  0.601  0.235
-0.563  0.248 -0.143
-0.355  0.233 -0.159
 0.803 -0.438  0.156
 0.262  0.124 -0.237
 0.772 -0.307 -0.284
 0.440 -0.0731 -0.377
-0.683 -0.107 -0.322
-0.524 -0.00788  0.359
 0.468  0.282  0.358
-0.421 -0.107  0.212
 0.505 -0.0266  0.358
 0.271 0.0483  0.359
-0.253  0.488  0.359
 0.253 -0.107 -0.266
 0.262 -0.107 -0.200
 0.393  0.563 -0.0509
 0.683 -0.107  0.193
-0.327 -0.107 -0.312
 0.206  0.451 -0.0509
 0.468  0.535 0.0807
-0.772 -0.279 -0.0971
 0.140  0.601 -0.00359
 0.802 -0.214 -0.294
1.52e-05  0.601  0.268
-0.580 -0.195  0.354
-0.627 -0.107 0.0526
-0.0748 -0.107  0.118
 0.412 -0.107 -0.00357
-0.299 -0.167 -0.360
0.0655  0.601 0.0151
0.0468  0.516  0.359
-0.337 -0.195  0.354
-0.571 -0.107 -0.0316
-0.720 -0.107 -0.00357
 0.393  0.179  0.358
-0.608 -0.107 -0.116
 0.187  0.441  0.359
 0.346 -0.107 -0.266
 0.496 -0.107  0.221
 0.772 -0.307 -0.153
 0.290 -0.107 0.0807
 0.774 -0.401  0.137
-0.772 -0.279 -0.209
 0.774 -0.448 -0.144
-0.803 -0.335 0.0900
 0.122 -0.279 -0.360
-0.393 -0.107  0.137
 0.150  0.554 -0.0509
-0.772 -0.307  0.296
-0.449 -0.107  0.184
 0.412  0.310  0.358
-0.299  0.404  0.359
-0.608 -0.107 -0.284
 0.290 -0.261 -0.390
 0.206 -0.107  0.109
 0.477 0.0692 -0.276
-0.753 -0.0207 -0.200
-0.0187 0.0951  0.359
 0.772 -0.317 -0.0691
0.00937 -0.0455 -0.358
 0.299 -0.186  0.359
0.0936 -0.139 -0.360
 0.711 -0.223  0.359
-0.0280 -0.107 -0.116
-0.0748 -0.148  0.354
0.0468 -0.107  0.118
-0.618 -0.107 0.0151
-0.0561 -0.107 -0.256
 0.187  0.601 -0.0317
0.0749  0.601 0.0619
-0.774 -0.345 0.0245
 0.608 -0.0921  0.358
 0.629  0.154 -0.156
-0.610  0.182  0.305
 0.774 -0.401 -0.107
0.0281 -0.107  0.324
 0.599  0.199  0.149
-0.772 -0.223 -0.107
