ply
format ascii 1.0
element vertex 2048
property float x
property float y
property float z
end_header
-0.146 -0.108 -0.159
 0.157  0.494  0.845
 0.152  0.521 -0.840
-0.147 -0.343  0.757
 0.187 -0.343 -0.852
 0.134  0.127  0.346
-0.148 0.0885 -0.683
-0.138  0.522 -0.385
 0.186 -0.325  0.140
-0.165  0.489  0.477
-0.148  0.126  0.795
 0.184 -0.314 -0.393
 0.154  0.128 -0.368
-0.148 -0.183  0.364
-0.148 -0.314 -0.627
 0.189 -0.304  0.533
0.0775  0.130 -0.00971
 0.134 -0.0986  0.818
 0.154 -0.00503 -0.818
 0.161  0.488  0.381
 0.180  0.517 -0.487
-0.148  0.453 -0.711
-0.148 -0.339 0.0745
-0.162  0.478  0.807
 0.155  0.201  0.711
-0.145 0.0978  0.205
 0.156  0.257 -0.665
-0.148  0.117 -0.374
-0.148  0.145  0.495
-0.107 -0.333 -0.337
0.0869 -0.274 -0.131
-0.148 -0.0986  0.636
0.0120 -0.0986 -0.409
-0.0815 -0.136 -0.820
 0.155 -0.192 -0.627
 0.155 -0.0233  0.570
 0.155 -0.0525  0.159
 0.180 -0.345  0.832
-0.0347  0.257 -0.820
0.0682  0.494  0.608
0.00266  0.313 -0.409
 0.154 -0.0491 -0.191
-0.0534 -0.319  0.533
-0.128  0.130 -0.141
-0.148 -0.108 0.0932
0.0401 -0.316  0.318
 0.155 0.0421 -0.580
 0.155  0.304  0.505
-0.148  0.322  0.626
0.00269  0.332  0.819
-0.140 -0.343 -0.850
-0.148 -0.0892 -0.552
-0.00668 -0.0237  0.407
-0.148  0.285 -0.580
-0.0254  0.350  0.407
-0.0160  0.521 -0.552
-0.110 -0.340 -0.131
0.0214 -0.292 -0.515
0.0214 -0.292 -0.739
-0.0628 -0.136  0.818
0.0214 -0.0584 -0.000351
0.0401 0.0885  0.818
0.0588 -0.292  0.692
 0.124 -0.164  0.407
 0.156  0.444 -0.665
-0.00295 0.0612 -0.261
-0.147 -0.343  0.271
0.0588  0.127  0.177
-0.0441 -0.0584  0.233
0.0308 -0.274 0.0651
 0.124  0.341 -0.820
-0.0378  0.512 -0.840
-0.148 -0.145 -0.346
-0.0254 0.0324 -0.820
 0.143  0.126 -0.178
 0.155  0.332 -0.505
0.0370  0.521 -0.379
-0.148 0.0979 0.0277
 0.155  0.388  0.711
0.0495 -0.274 -0.300
 0.155 -0.183 -0.795
 0.150  0.163 -0.820
 0.155  0.135  0.514
-0.0168 -0.297  0.852
-0.100  0.494  0.654
-0.0347  0.130  0.355
-0.148 -0.0331  0.486
0.0120  0.494  0.776
 0.155 -0.173 -0.468
 0.155 -0.0526 -0.356
-0.148 -0.239 -0.487
-0.148  0.294  0.785
0.00266  0.145 -0.409
-0.148  0.350 -0.421
0.0214  0.494  0.449
-0.148 0.0792 -0.524
-0.146 -0.00504 -0.281
 0.156 -0.336 -0.00969
 0.156 -0.336 -0.571
-0.145 -0.00504  0.336
 0.189 -0.321  0.346
-0.148 -0.164 -0.683
0.00267 -0.0584 -0.150
-0.148  0.304 -0.730
 0.186 -0.325 -0.244
-0.148  0.444 -0.562
-0.148  0.154  0.645
 0.155 0.0515  0.711
 0.150 -0.0478  0.318
 0.146 -0.173  0.673
-0.144  0.157 -0.818
0.0307  0.521 -0.693
-0.148 -0.332  0.421
-0.148 -0.201  0.205
-0.148 -0.201 -0.0471
-0.148 -0.201  0.533
-0.148 -0.239 -0.234
-0.148 -0.0144  0.757
-0.148  0.285  0.449
 0.155  0.173 -0.505
 0.188 -0.304 -0.711
-0.0347 -0.319  0.187
-0.146 -0.0236 -0.0471
 0.154 -0.0490 -0.0409
-0.148 -0.0331 -0.749
0.0681 -0.292  0.467
0.0120  0.129 -0.141
0.0495 -0.0986 -0.820
 0.134  0.294  0.818
-0.148 -0.211  0.711
-0.0628 0.0137 -0.409
-0.0254 -0.211  0.407
 0.188 -0.321  0.692
 0.115 -0.230  0.819
-0.146 -0.314  0.626
 0.155  0.444  0.505
 0.155 -0.0423 -0.693
0.0401  0.238  0.407
 0.134  0.416 -0.409
 0.155 -0.164  0.533
0.0515 0.0242  0.259
0.0401 -0.0584 -0.281
-0.0441 -0.248 -0.409
-0.0160  0.388 -0.820
-0.0254  0.130 0.0651
-0.148 0.0324  0.608
-0.0160 -0.274 -0.0565
 0.155 0.0979 -0.711
0.0682 0.0230 -0.409
 0.155 0.0137  0.449
0.0214 -0.0425  0.819
-0.0254  0.210  0.818
 0.150  0.129 0.0932
 0.134  0.247 -0.409
-0.110  0.229 -0.409
 0.155 -0.0327 -0.477
-0.0877  0.488  0.381
-0.148 -0.239 -0.786
 0.143 -0.274  0.243
-0.0160 -0.274 -0.197
0.0120 -0.0584  0.121
0.0962  0.388  0.407
-0.0441  0.435 -0.409
-0.0160 -0.312 -0.853
-0.145 0.0137  0.112
0.0494 -0.319 -0.627
 0.150  0.154  0.819
-0.148  0.117  0.327
-0.111 -0.340 -0.736
-0.119  0.130 -0.262
-0.144  0.410 -0.818
-0.119 -0.239  0.818
0.0588 -0.316  0.580
-0.148  0.425  0.570
-0.0628  0.127 -0.0471
-0.0441  0.494  0.542
 0.115  0.521 -0.580
-0.145 -0.0986  0.271
0.0401  0.126 -0.820
-0.146 -0.220 0.0745
 0.155  0.219  0.598
-0.0534 -0.319  0.692
 0.163  0.493  0.670
0.0588 -0.319 -0.403
-0.148 -0.0705 -0.431
 0.155  0.219  0.430
-0.148  0.163 -0.599
-0.106 -0.336 -0.449
 0.189 -0.321 -0.131
-0.0593 0.0417  0.282
 0.155  0.124  0.233
 0.143 0.0324  0.819
-0.144  0.521 -0.814
0.0962  0.406  0.818
-0.148 0.0137 -0.150
 0.155 -0.0895 -0.571
 0.152  0.519 -0.378
0.0775 -0.319  0.168
0.0494 0.0698  0.407
-0.0909  0.397  0.818
0.0869 -0.288 -0.832
 0.155 -0.0518  0.682
-0.0815  0.521 -0.636
 0.155  0.332  0.608
 0.155  0.107  0.617
0.0775  0.130 -0.272
-0.148 -0.314 -0.0284
0.0682  0.229 -0.820
-0.0441 -0.319  0.421
-0.148 -0.0144 -0.646
-0.0441  0.130  0.196
-0.148  0.201 -0.711
0.0775  0.435 -0.820
0.0494 -0.201 -0.409
-0.147 -0.343 -0.234
-0.144 0.0448 -0.818
-0.110 -0.0892  0.407
-0.0534 -0.292 -0.664
-0.0628  0.229  0.407
-0.145 -0.00504  0.215
-0.0721  0.521 -0.739
-0.0722 0.0604  0.819
-0.138  0.378  0.407
-0.128  0.521 -0.487
 0.155  0.435 -0.543
-0.148  0.191 -0.496
-0.0628  0.492  0.846
 0.106 -0.0482 0.0558
 0.155  0.124 -0.0752
-0.148 0.0511  0.421
-0.0534 -0.0584 -0.234
-0.148  0.378  0.729
-0.148 -0.248 -0.374
-0.0909 -0.273  0.318
 0.153 -0.339  0.439
0.0120 -0.192 -0.820
-0.148 0.0698  0.701
-0.143 -0.303  0.168
-0.119 -0.332  0.853
0.0308  0.129  0.280
0.0775  0.521 -0.468
-0.0628 -0.274 0.0932
-0.147 -0.343  0.517
0.0775 -0.319  0.841
0.0682 -0.319 -0.215
 0.155  0.135 -0.608
 0.169  0.505 -0.739
-0.148 -0.117  0.776
 0.155 -0.258  0.626
 0.106  0.494  0.748
 0.155  0.360 -0.618
-0.0722 -0.145 -0.409
0.0775 -0.0799  0.407
-0.148 -0.248 -0.131
 0.155 -0.258 -0.515
-0.0722 -0.0584 -0.346
-0.0895 -0.323 -0.543
-0.110  0.127  0.121
 0.124 -0.292 0.0745
-0.128  0.276 -0.820
-0.00665  0.494  0.673
 0.156  0.276 -0.758
-0.0721 -0.0482 0.00903
-0.0815 -0.0425  0.818
 0.156 0.0511 -0.431
 0.115 -0.274  0.383
 0.155  0.425  0.598
 0.155 -0.0898  0.459
 0.153  0.314  0.409
-0.0628  0.129 -0.337
-0.148 0.0230 -0.449
 0.155  0.257 -0.562
-0.148  0.378 -0.655
0.0682 0.0324 -0.820
0.0869 -0.0584  0.233
 0.155  0.388 -0.739
0.00239 0.0612 -0.355
0.0869 -0.274 -0.00968
-0.0815 -0.0482 -0.113
-0.0815 -0.0482  0.149
 0.155 -0.230  0.467
-0.148  0.350  0.514
-0.0347 -0.319 -0.281
0.0681 -0.0584 -0.0845
-0.119  0.210  0.818
-0.146 -0.117 -0.00974
-0.146 0.0791 -0.0658
0.0214 -0.0584  0.327
0.0120 -0.317  0.767
 0.124 -0.319  0.757
 0.150 -0.274 -0.318
 0.155 -0.127 -0.721
-0.148  0.229  0.523
-0.162  0.493  0.720
0.0588  0.521 -0.814
-0.148  0.247  0.673
-0.148 -0.211 -0.608
-0.0441  0.127 -0.215
-0.148  0.369 -0.515
-0.0534  0.521 -0.440
0.0588  0.247  0.819
0.0494  0.219 -0.409
-0.0726 -0.319 0.0184
 0.150 -0.0986 -0.820
0.0696 0.0190 -0.318
-0.110  0.137  0.402
-0.145 -0.127 -0.262
-0.148  0.276 -0.477
-0.0909 -0.0237 -0.820
0.0214 -0.155  0.818
 0.155  0.331 -0.414
 0.146 -0.239  0.729
 0.106 -0.319 -0.693
-0.138  0.435 -0.409
-0.148 -0.145 -0.767
 0.155 0.0792 -0.805
-0.0721 -0.258 -0.820
-0.148 -0.229  0.617
-0.148 -0.117  0.542
-0.148 -0.248 -0.702
 0.155 -0.211 -0.711
0.0120  0.416  0.819
-0.0441  0.135 -0.820
0.0588  0.154  0.407
-0.148 -0.155 -0.496
 0.155  0.126  0.430
 0.155  0.285  0.720
0.0713  0.488  0.381
 0.134 -0.230 -0.409
-0.00666 -0.274  0.262
-0.146 -0.00504 -0.365
0.0401  0.435 -0.409
 0.146 -0.155  0.757
-0.0815 -0.0584  0.308
-0.0628  0.494  0.739
-0.148 -0.0237 0.0371
 0.155  0.182 -0.702
-0.0341 0.0417  0.362
0.0744  0.494  0.845
0.0120 -0.316 -0.131
 0.143 -0.0584 -0.272
 0.115 -0.319 -0.477
-0.0347 -0.292  0.608
0.0561 0.0192  0.344
-0.0628  0.494  0.458
-0.0909 -0.274  0.224
-0.0909  0.130  0.271
-0.0909 -0.00504  0.407
 0.115 -0.0986 -0.409
0.0681 -0.0584 -0.197
-0.148 -0.267  0.467
-0.148 -0.155  0.467
 0.155 -0.117  0.598
0.0214  0.425  0.407
 0.134  0.521 -0.664
 0.155  0.124 0.00901
-0.145 -0.127  0.177
0.0682  0.360 -0.409
 0.155 0.0515  0.542
-0.00668 -0.319 -0.356
-0.148 -0.00502 -0.524
-0.148 0.0605  0.533
-0.0722  0.304  0.819
 0.187 -0.292 -0.630
 0.139 -0.320 -0.780
-0.0909  0.350 -0.820
-0.0254 -0.317 -0.590
-0.138  0.521 -0.580
 0.155  0.126  0.739
 0.155  0.435 -0.805
0.0214 -0.136  0.407
-0.100 -0.266  0.402
 0.156 -0.336  0.617
0.0588  0.130 -0.356
-0.148  0.191  0.748
-0.0345 -0.00505 -0.288
0.0494 -0.239  0.407
-0.0815 -0.292  0.776
0.0962  0.495  0.505
 0.156 -0.279 -0.0752
 0.154  0.128 -0.284
-0.145 -0.201  0.290
0.0307 -0.316  0.402
-0.148  0.397  0.645
-0.148 -0.173 -0.421
-0.0722  0.332 -0.409
0.0401 -0.248  0.818
-0.0908 -0.274 -0.178
-0.128 -0.0584 -0.215
0.0495 -0.0479 -0.365
 0.150 -0.274 -0.178
0.0962 -0.292 -0.552
 0.153 -0.340  0.280
0.0775 -0.0482  0.159
-0.144 0.0324  0.817
-0.0254 -0.319 -0.431
0.0775  0.313  0.407
-0.146 0.0698 -0.300
0.0494  0.129  0.103
-0.148  0.229 -0.636
0.0775 -0.319  0.252
 0.143 -0.0431  0.400
0.00265 -0.316  0.121
-0.148  0.219  0.598
-0.0815 -0.274 -0.103
-0.0909  0.313  0.407
0.0120  0.129 -0.0565
-0.148 0.0511 -0.215
 0.155 0.0978 -0.515
-0.138  0.219  0.407
 0.155  0.369  0.467
-0.0534 -0.292 -0.749
-0.0160 -0.0584 -0.0658
-0.0722  0.416  0.407
-0.0254  0.229 -0.409
-0.0254  0.126  0.819
-0.119  0.494  0.561
-0.148  0.126  0.570
-0.145 -0.183 -0.169
-0.148 -0.0892 -0.674
 0.155 0.0328 -0.655
-0.148 -0.276  0.552
-0.144 -0.0768 -0.818
0.0962  0.521 -0.730
 0.155  0.219  0.505
-0.165  0.489  0.402
-0.146 -0.108 -0.0845
 0.154 -0.0491 -0.116
-0.0628 0.0885 -0.409
 0.154 -0.258 -0.818
 0.159  0.494  0.570
-0.110 -0.340  0.346
 0.155 -0.0326  0.785
 0.188 -0.314 -0.468
0.00264  0.129 -0.290
-0.00589  0.491  0.380
-0.110 -0.292 -0.272
0.0681  0.130 -0.187
0.00268  0.521 -0.767
-0.0815  0.201 -0.820
0.0401  0.521 -0.599
-0.148 -0.267 -0.562
-0.145 0.0511  0.290
 0.156  0.322 -0.702
-0.148 -0.0611  0.701
0.0120 -0.292  0.514
-0.144  0.521 -0.683
-0.0441 -0.239  0.818
 0.155  0.341  0.767
 0.155 0.0327 -0.749
-0.148  0.117 -0.758
0.0682 -0.316 -0.0658
0.00269 -0.316 -0.000328
 0.186 -0.325  0.215
 0.186 -0.325 0.0558
-0.0254 -0.319  0.346
-0.148 -0.0331  0.580
-0.145 -0.192 -0.290
0.0120  0.322 -0.820
-0.148 0.0605 -0.618
0.0775 -0.164 -0.820
0.0775 -0.00504  0.407
0.0868 -0.0144  0.819
 0.155  0.453 -0.468
 0.155 -0.0893  0.533
 0.155  0.425  0.421
0.0869  0.127 -0.0939
-0.148  0.453 -0.487
 0.188 -0.292  0.773
 0.115 -0.292 -0.627
 0.155  0.425  0.785
 0.155  0.229  0.804
-0.0160  0.173  0.407
 0.154  0.120  0.162
 0.106 -0.319 -0.346
-0.0895 -0.323 -0.805
-0.0628 -0.292 -0.487
0.0427 0.0947  0.339
-0.100 -0.0584 0.0838
 0.115 -0.292 -0.262
 0.124  0.494  0.439
 0.134 -0.0144 -0.409
 0.124 -0.319  0.514
-0.148  0.425  0.458
-0.146 -0.314 -0.393
 0.155 -0.0235 -0.599
 0.155 -0.0612 -0.758
-0.0815  0.130 0.0184
-0.0628  0.127 -0.122
-0.148 0.0324 -0.730
0.00268  0.453 -0.820
-0.148 -0.0705 -0.346
0.0214  0.494  0.523
0.0962 -0.164  0.819
-0.00667 -0.0331 -0.820
0.0869 -0.0331 -0.820
-0.148  0.360  0.804
 0.155 -0.155 -0.534
 0.155  0.238 -0.487
-0.148 0.00433  0.682
-0.0441 -0.117  0.407
 0.106 -0.292  0.308
-0.148  0.173 -0.414
 0.155 -0.229  0.551
-0.148  0.304 -0.646
-0.0534 0.0885  0.407
-0.162  0.478  0.611
 0.155 0.0422  0.636
 0.156  0.201 -0.627
-0.0160 -0.0350 -0.407
-0.0534 -0.274 -0.337
-0.145 -0.183  0.140
-0.146 0.0324 -0.000356
0.00268  0.521 -0.477
 0.155  0.154 -0.431
-0.0815 0.0791 -0.820
0.0682  0.494  0.692
-0.00667  0.191 -0.820
-0.148  0.238 -0.767
-0.148 -0.155  0.598
-0.0160 -0.183 -0.409
-0.148  0.285  0.561
-0.148 -0.267  0.748
0.0868  0.129  0.243
-0.00669  0.494  0.598
 0.143 -0.274  0.149
-0.143 -0.303 -0.505
-0.148  0.341 -0.786
-0.0347 -0.0481 0.0745
0.0214 -0.0482  0.224
-0.111 -0.340  0.573
 0.155 -0.0987 -0.468
 0.134  0.266 -0.820
-0.148 -0.0517  0.149
-0.147 -0.343  0.686
-0.145 -0.155 0.0464
-0.0347  0.127  0.131
-0.148  0.126 -0.477
 0.124 -0.292  0.682
-0.0819 -0.320 -0.0565
 0.156  0.210 -0.767
-0.148  0.313  0.692
-0.148  0.388 -0.721
0.0120 0.0230  0.818
0.0682  0.341  0.819
 0.115 0.0604  0.407
0.0401 -0.274  0.215
-0.148 -0.201 -0.543
-0.148 -0.136 -0.599
0.0869  0.294 -0.409
 0.155 -0.248 -0.580
 0.115 0.0979  0.819
-0.00470 -0.00510 -0.349
 0.180  0.517 -0.590
 0.124 -0.292  0.580
 0.155 0.0328 -0.505
-0.0589 0.0523 -0.309
-0.148 -0.145  0.711
0.00269  0.492  0.846
-0.0136 -0.00508  0.259
0.0962  0.191  0.818
 0.155  0.388 -0.468
-0.0628 -0.0584  0.374
-0.110 -0.0584 -0.290
-0.0726 -0.319 -0.225
 0.153 -0.0868  0.749
-0.100 -0.192  0.407
-0.0963 -0.327  0.112
-0.0721  0.519 -0.378
0.0869 -0.292 -0.749
-0.143 -0.260  0.262
0.0214 -0.317  0.645
-0.148 -0.286  0.346
 0.150 -0.0478  0.243
0.0869 -0.0584  0.308
 0.153 -0.340 -0.309
 0.140 -0.297  0.847
-0.148 -0.304 -0.786
0.0775 -0.316 0.0371
-0.148 -0.304 -0.169
0.0121 -0.0482 -0.225
-0.100  0.494  0.795
-0.0909 -0.292  0.477
-0.0534 -0.316  0.252
-0.0815  0.416 -0.820
 0.124 -0.316 -0.412
0.0993  0.137 -0.403
-0.148 -0.0517 -0.113
-0.145 -0.127  0.336
-0.148 0.0417  0.168
0.0214  0.127 0.0184
 0.153 -0.149 -0.410
-0.0160  0.521 -0.627
 0.155  0.388  0.533
0.0307  0.182  0.819
-0.148  0.435  0.701
0.0682  0.369 -0.820
-0.0347  0.285  0.407
 0.106  0.257  0.407
0.0401 0.0791 -0.409
-0.100 -0.201 -0.820
-0.148  0.388 -0.590
0.0494 -0.292 -0.459
-0.0160 -0.0584 -0.318
-0.143  0.117 -0.206
-0.110 -0.340 -0.674
 0.155  0.163  0.570
 0.188 -0.297  0.467
-0.144 -0.0705  0.817
-0.148 -0.332 -0.562
-0.146 -0.248  0.140
 0.151 -0.337 -0.652
-0.0909  0.126  0.819
0.0681 -0.292  0.757
-0.0425 -0.0144  0.328
 0.154 -0.0560 0.0932
0.0308 -0.316 -0.795
-0.148  0.472 -0.646
0.00266 -0.316 -0.674
0.0401 -0.274 -0.365
-0.148 -0.0237  0.421
0.0401 -0.274  0.149
0.0353 0.0137 -0.267
 0.154 -0.275 -0.0128
-0.147 -0.343 -0.0814
0.0962 -0.0482 -0.309
-0.148 -0.229  0.411
 0.124  0.521 -0.786
0.0775 -0.230 -0.820
-0.0193  0.101  0.261
-0.119 -0.0584  0.224
-0.143 0.0604 -0.395
0.0775 -0.0482 -0.0190
 0.155  0.388  0.645
 0.155  0.294  0.654
 0.155 -0.0799 -0.646
0.0962  0.127 0.0651
-0.0347 -0.319 -0.0939
-0.0909 -0.292 -0.618
 0.106  0.191  0.407
-0.148 0.0605 0.0745
-0.0535  0.522 -0.505
0.0214  0.130 -0.225
-0.148 -0.276 -0.0752
-0.148  0.491 -0.758
-0.148  0.425  0.767
 0.156 0.0791  0.467
 0.147 -0.108  0.664
0.00267  0.481 -0.409
-0.0347 -0.274 0.0277
 0.143  0.369  0.819
-0.137 -0.296 0.0277
0.0454 0.0885 -0.301
-0.0954 -0.326  0.196
-0.0909 -0.292 -0.412
-0.0815 -0.274 -0.0190
 0.106 -0.0482 -0.150
0.0588 -0.319  0.103
-0.145 -0.183 -0.103
0.0308 -0.274 -0.243
-0.148 -0.0425  0.290
-0.0815 -0.274  0.149
0.0121  0.129  0.215
0.0308 -0.316 -0.571
-0.148  0.369  0.589
-0.0909 -0.201 -0.409
0.00267 -0.292  0.711
 0.155  0.182  0.654
-0.148 -0.192  0.767
-0.0628 -0.0799 -0.820
-0.148  0.163  0.439
-0.148  0.135  0.701
-0.00667 -0.248 -0.820
-0.00669  0.266  0.819
0.0401  0.521 -0.534
-0.0908 -0.0482 -0.0471
-0.119  0.494  0.439
-0.146 0.0698 -0.131
-0.00667 -0.117 -0.820
-0.148 -0.0986  0.486
-0.128 -0.0584  0.355
-0.0909  0.472 -0.409
 0.151 -0.337 -0.0814
0.00268  0.117  0.405
 0.155 -0.145 -0.665
 0.187 -0.292  0.280
-0.119 -0.292  0.682
 0.189 -0.304  0.402
-0.138  0.294 -0.409
-0.128  0.127 -0.0378
-0.0461 0.0885  0.316
0.0401 -0.273 -0.0939
 0.124  0.130 -0.234
 0.163  0.487  0.748
-0.0722 -0.0584 -0.169
-0.148  0.124  0.262
 0.106 0.0698 -0.409
-0.128  0.444  0.407
-0.137  0.123 -0.318
 0.115  0.521 -0.421
-0.0254 -0.271  0.394
 0.124 -0.316 -0.141
 0.187 -0.292 -0.767
 0.155  0.435 -0.608
 0.155  0.369 -0.562
-0.119  0.130 0.0651
-0.145 0.0604  0.364
-0.00668 -0.319 0.0651
-0.100  0.130  0.177
0.0775 -0.316  0.636
 0.157  0.491 -0.543
0.0682 -0.173  0.407
-0.0909 -0.292  0.617
0.0775 0.0417  0.818
-0.0628  0.129 -0.272
-0.00671  0.369 -0.409
 0.155 -0.201  0.617
-0.148 -0.0425  0.645
-0.148 -0.00502 -0.206
-0.148  0.416  0.514
 0.155  0.117  0.682
-0.148 -0.258 -0.646
0.00267 -0.292  0.458
-0.0721  0.521 -0.562
0.0307 -0.0986  0.819
-0.110 -0.274 -0.328
-0.00669  0.129 -0.346
 0.171 -0.326 -0.187
 0.155  0.444 -0.749
 0.186 -0.304 -0.524
-0.148 -0.304 -0.711
 0.143 -0.273 -0.374
 0.133 -0.321 -0.836
0.0401 -0.274  0.355
 0.133 -0.321  0.352
0.0120 0.0136 -0.409
0.0495 -0.274 -0.187
 0.134  0.130  0.290
-0.0254 -0.317 -0.795
0.0401 -0.312 -0.853
0.0495 -0.0482 0.0558
-0.0441 -0.192 -0.820
-0.0722 -0.0892 -0.409
 0.155 -0.0233  0.626
-0.145 -0.183 -0.225
0.0682  0.313 -0.820
-0.148  0.182 -0.767
-0.0815  0.472 -0.820
-0.148 0.0137 -0.0939
 0.155 -0.164  0.812
-0.0721  0.521 -0.795
 0.155 0.0876 -0.646
 0.155 -0.257 -0.459
 0.124 -0.292  0.439
-0.128 -0.290 -0.842
-0.119 -0.274 0.0745
 0.106 0.0979 -0.820
-0.148  0.500 -0.440
-0.148 -0.0237 -0.805
-0.0441 -0.319 -0.178
 0.155 -0.0233  0.729
 0.155 -0.248  0.787
-0.148  0.238 -0.552
-0.148 -0.0331 -0.477
 0.106  0.444  0.407
0.0682  0.135  0.818
-0.0347 -0.319  0.795
0.0869  0.521 -0.636
0.0775 -0.316  0.374
-0.148  0.257 -0.702
 0.156  0.369 -0.674
-0.110 -0.164  0.818
0.00267 0.0417  0.407
0.00268 0.0791 -0.820
0.0775 -0.155 -0.409
-0.148 -0.0331 -0.571
-0.148 -0.00502  0.533
-0.0347 -0.0705  0.818
-0.0722  0.388 -0.409
-0.148 0.0230  0.467
-0.00668 -0.0584  0.280
-0.148  0.117 -0.571
-0.148  0.173  0.542
0.0869 -0.0584 -0.253
-0.110 -0.0144 -0.409
 0.155  0.173  0.767
-0.148 -0.0986 -0.739
0.0588 -0.292 -0.674
-0.0722 -0.304  0.852
 0.155 -0.136 -0.599
 0.155  0.153 -0.767
 0.163  0.493  0.483
 0.106  0.494  0.561
-0.148 0.0885  0.121
-0.0877  0.136 -0.404
-0.165  0.489  0.533
-0.148 -0.304  0.795
-0.144 -0.170 -0.818
-0.148 0.0511  0.767
 0.188 -0.297  0.598
 0.155 -0.0144  0.495
0.0120 -0.319 -0.187
 0.134  0.472 -0.409
-0.148 -0.127  0.411
-0.110 -0.340  0.458
-0.100 -0.292  0.533
-0.100  0.518 -0.844
-0.138  0.210 -0.820
0.0500 0.0791  0.286
 0.124  0.210 -0.820
 0.155 -0.00505 -0.543
 0.132 -0.318  0.215
 0.115 -0.316  0.121
-0.148 -0.314 -0.309
-0.0441 -0.292  0.299
 0.156 -0.336  0.561
-0.0347 -0.274  0.215
-0.148 -0.0799 0.0277
0.0120 -0.319 -0.0565
 0.156  0.238 -0.721
-0.0254  0.130 -0.00971
-0.0534  0.435  0.819
-0.104 -0.329  0.729
0.0495  0.453  0.818
 0.155 -0.173  0.449
-0.148  0.126 -0.646
-0.111 -0.340 -0.184
-0.100  0.127 -0.0845
-0.148  0.257  0.748
-0.148 -0.211 -0.739
-0.0441 -0.00505  0.819
-0.0909 -0.292 -0.711
-0.0535  0.360  0.818
0.0775  0.163 -0.820
 0.155  0.173 -0.571
-0.148 -0.239 -0.00968
 0.155  0.266  0.467
 0.155 -0.248 -0.749
-0.148 -0.248  0.673
 0.155 -0.211 -0.543
 0.155 0.0604  0.776
-0.0534 -0.274 -0.243
-0.148  0.229  0.458
 0.155  0.443  0.655
0.0682 -0.316  0.514
 0.115  0.127  0.196
-0.0160 -0.274 -0.300
0.0120 -0.319  0.243
 0.106 -0.319 -0.0284
 0.106 -0.274  0.205
-0.0722  0.173  0.407
0.00301 -0.0144  0.357
 0.189 -0.321 -0.0471
0.0401  0.521 -0.431
0.0214 -0.0482 -0.103
-0.00666 -0.0482  0.168
0.0682 -0.0482  0.355
-0.0721 -0.297 -0.853
-0.148  0.416 -0.767
 0.156 -0.0606 -0.412
 0.188 -0.292 -0.836
 0.155  0.276  0.776
0.0455 0.0331 -0.361
 0.155  0.294 -0.450
0.0356 -0.0237  0.267
 0.124  0.397 -0.820
 0.186 -0.304 -0.337
 0.143 -0.239  0.407
-0.147 -0.343  0.199
-0.0998 -0.326  0.280
0.0775 -0.316 -0.300
-0.0160 -0.274 -0.131
-0.111 -0.340 -0.596
 0.115 -0.316 -0.197
-0.137 -0.296 -0.449
 0.106 -0.0584 -0.365
0.0962  0.127  0.121
-0.148 -0.0705 -0.0284
-0.148 -0.108 -0.477
-0.0160 -0.274  0.168
-0.148  0.107  0.617
-0.0815  0.130 -0.169
-0.145 -0.155  0.224
-0.148 -0.173 -0.000324
-0.00672 -0.316 -0.477
-0.0721  0.173  0.819
0.0307 -0.319  0.813
0.0120  0.127  0.159
-0.0722 0.0417  0.407
0.0495 -0.316 -0.0190
 0.155  0.304 -0.646
 0.155 -0.0518 -0.524
 0.155  0.313  0.561
-0.110  0.444  0.819
-0.145 -0.211 -0.337
-0.148  0.276  0.505
-0.148 -0.0705  0.757
-0.119 -0.127 -0.409
-0.148 -0.0892 -0.618
-0.148 -0.192  0.664
-0.148  0.210 -0.449
 0.154 -0.0560 0.00901
-0.0628  0.521 -0.683
-0.128 0.0979 -0.820
-0.0347 -0.319  0.486
0.0962  0.481 -0.820
-0.106 -0.336  0.804
0.00267 -0.0892  0.407
0.0214  0.285  0.407
-0.148  0.107 -0.431
-0.00666 -0.274 -0.384
 0.162  0.521 -0.440
0.00267 -0.230 -0.409
 0.134 -0.292 -0.730
 0.134  0.521 -0.505
 0.155  0.173  0.449
 0.155  0.341 -0.758
-0.0815  0.494  0.608
-0.148  0.332  0.430
 0.180  0.517 -0.646
0.0962 -0.276  0.818
-0.148  0.407 -0.449
-0.0123 0.0417  0.241
 0.154 -0.274 -0.125
0.0214 -0.273 -0.0190
 0.155 0.0978  0.561
 0.187 -0.292  0.177
-0.0347 -0.316 -0.0377
0.0308 -0.316 -0.318
 0.155 -0.276 -0.664
-0.148  0.472 -0.805
0.0307 -0.319  0.196
0.0962 -0.274 -0.328
 0.187 -0.292  0.832
-0.148  0.491 -0.543
 0.143  0.494  0.617
0.0775 -0.319 -0.515
0.0682  0.129  0.364
-0.148  0.107  0.392
-0.0441 -0.319 -0.524
 0.156 -0.286 0.0371
-0.0380 0.0979 -0.301
 0.115  0.127 -0.0471
-0.137 -0.268  0.209
-0.106 -0.336  0.645
0.0588  0.163 -0.409
-0.119 -0.0482 -0.159
-0.0628 -0.0482 -0.281
0.0682 -0.319 -0.131
-0.0254 -0.0584 0.0184
-0.137 -0.296 -0.122
-0.100  0.127  0.327
-0.0347 -0.317 -0.711
0.00271 -0.317  0.589
-0.0628 -0.292 -0.571
 0.155 -0.295  0.720
 0.151 -0.337 0.0870
 0.177  0.520 -0.798
 0.115 -0.0584  0.121
-0.0879 -0.319 0.0651
 0.156 -0.0705  0.617
-0.100 -0.0892  0.818
 0.146 -0.331  0.801
-0.148 -0.0517 -0.262
-0.0909 -0.0479  0.262
-0.0347 -0.0584 -0.113
-0.0995 -0.326 -0.496
 0.115 -0.0584  0.187
-0.146 -0.314  0.477
-0.0254 -0.292  0.654
0.0588 -0.0584 -0.150
-0.0722  0.127 0.0745
 0.155  0.201 -0.440
-0.0441 -0.319  0.131
-0.119  0.276  0.818
-0.145 -0.292  0.851
 0.124 -0.319 -0.524
 0.156  0.304 -0.571
 0.124 -0.0892  0.407
0.0869  0.521 -0.524
0.0869  0.444 -0.409
-0.145 -0.164 0.0932
 0.115 -0.0584 -0.0752
 0.155 0.0979 -0.421
0.0588  0.494  0.785
0.0120  0.266 -0.820
0.0214 0.0230 -0.820
-0.00668  0.229  0.407
-0.0815 0.0230 -0.820
-0.145 0.0417  0.224
0.0962  0.210 -0.409
 0.115 0.0417 -0.820
-0.00668 0.0791  0.819
-0.0452 0.0324 -0.261
0.0682  0.494  0.439
-0.148 -0.0799  0.589
-0.0815  0.360  0.407
-0.148  0.360  0.682
-0.100 -0.136  0.407
-0.148  0.201  0.654
 0.155  0.266  0.608
-0.148 -0.173  0.421
 0.115  0.369 -0.409
-0.0160  0.494  0.720
-0.148 -0.211  0.486
-0.148 -0.258 -0.421
 0.155 0.0328  0.589
-0.0347 -0.192  0.818
 0.155  0.107 -0.468
-0.146 0.0604 -0.346
-0.145 -0.239  0.336
0.0775  0.129  0.290
 0.155 -0.173 -0.749
 0.155  0.229  0.645
-0.145 -0.117 -0.215
0.0869 -0.108  0.818
 0.155  0.219  0.757
-0.0160  0.130  0.299
 0.186 -0.304  0.645
 0.186 -0.297 -0.571
-0.110 -0.340 -0.272
 0.156 -0.279 -0.225
0.0869 -0.319 -0.795
-0.0441  0.154 -0.409
0.0962  0.519 -0.378
 0.156  0.481 -0.627
 0.155  0.153 -0.664
-0.138 -0.0144  0.819
 0.124 -0.316 0.0184
0.0120 -0.316 -0.253
0.0214 -0.274  0.308
0.0869 -0.274 -0.0752
-0.137 -0.296  0.392
 0.187 -0.331 -0.807
-0.148 0.0230 -0.777
-0.148 -0.108  0.224
0.0869  0.130 -0.141
-0.148 -0.239 -0.300
0.0775 -0.316 -0.590
-0.0347  0.127 -0.169
-0.0254 -0.319  0.739
-0.148  0.332 -0.683
-0.0160 -0.0584 -0.365
-0.148  0.182  0.795
 0.134  0.494  0.785
-0.148 -0.145  0.271
-0.145 -0.239 -0.187
-0.0815  0.127  0.224
-0.110 -0.337  0.392
0.0682 -0.274  0.112
 0.106 -0.127 -0.820
-0.0721  0.219  0.818
-0.0160  0.397  0.407
0.0401  0.285 -0.409
-0.148 0.0230 -0.674
-0.0254  0.494  0.486
-0.148 -0.136  0.131
-0.148  0.229  0.785
 0.155  0.276 -0.515
-0.148  0.173  0.598
-0.146 -0.339  0.121
-0.0909  0.494  0.701
-0.0347 -0.0584  0.121
 0.155  0.266  0.533
0.0495 -0.274 0.0184
 0.155  0.126 -0.552
-0.148 -0.0892  0.439
-0.148 -0.136  0.664
-0.148 -0.0237 0.0839
0.0308  0.494  0.720
-0.148 0.0698  0.467
0.0214  0.350  0.407
0.0494  0.127 0.0558
-0.0628  0.313 -0.820
0.0775 -0.0482 0.0932
 0.155  0.210 -0.534
-0.0441 0.00431  0.407
-0.146 0.0791 -0.0191
0.00892  0.512 -0.840
-0.148 0.00433 -0.599
-0.0441  0.444 -0.820
-0.0254 0.0604 -0.409
0.0588  0.294  0.818
-0.147  0.494  0.654
 0.155 -0.211 -0.496
 0.153 -0.340  0.392
 0.155  0.257 -0.608
0.0681 -0.292  0.421
-0.148 -0.286 -0.234
-0.148  0.416 -0.515
-0.148 -0.155 -0.0471
-0.0815  0.247 -0.820
0.00266 -0.316 -0.627
-0.148 -0.155  0.514
0.0401 -0.201  0.818
-0.148 -0.136 -0.646
-0.148  0.126  0.748
0.0120 -0.319 -0.403
-0.146 0.0230 -0.318
-0.0534 -0.319 -0.393
0.0401  0.494  0.654
-0.0160  0.453  0.407
-0.148 0.0417 -0.552
-0.0160  0.129 -0.0939
0.0494  0.388  0.819
 0.106 -0.211  0.407
 0.155 -0.267  0.495
-0.138  0.406  0.819
-0.0815 -0.201  0.818
-0.0722  0.201 -0.409
-0.148  0.210  0.701
-0.148 -0.0986  0.374
-0.148 -0.248  0.514
-0.148 -0.211 -0.674
-0.148  0.350 -0.618
-0.148  0.444 -0.608
-0.148  0.341  0.757
 0.155  0.360  0.570
 0.146 -0.145  0.710
-0.0718 -0.316 -0.309
 0.155  0.434  0.711
0.0869 -0.319 -0.440
 0.155  0.481 -0.693
0.0362 -0.293  0.852
-0.0160 -0.274  0.121
-0.128  0.494  0.505
-0.137 -0.296  0.290
-0.0628 -0.239  0.407
 0.155  0.481 -0.777
-0.110  0.522 -0.421
-0.0628 -0.316  0.580
 0.163 -0.330 -0.739
 0.155  0.341 -0.459
 0.155  0.304 -0.805
-0.0534 -0.319 -0.627
-0.00667 -0.316  0.290
 0.186 -0.304 0.00903
 0.187 -0.292 -0.293
 0.124  0.127 -0.318
 0.141 -0.325 -0.240
 0.115 -0.292  0.626
-0.0815 -0.276  0.818
-0.144 -0.201  0.817
0.0339 0.0518  0.366
-0.110  0.341  0.819
 0.150 -0.274  0.355
-0.151  0.470  0.764
 0.156 -0.336 -0.365
 0.115 -0.0482  0.346
0.0713 0.0417  0.308
-0.147 -0.343 -0.764
0.0110 -0.0237 -0.265
-0.110 0.0698  0.407
 0.154 -0.260  0.672
0.0456 -0.0144 -0.301
-0.111 -0.340 -0.381
-0.0815 -0.292  0.720
 0.124 -0.183 -0.409
-0.148  0.247 -0.421
-0.146 -0.339 -0.431
-0.0955 -0.326  0.505
 0.155 -0.127 -0.786
-0.148 -0.286 -0.346
0.0214 -0.284 -0.824
-0.128 -0.274 -0.0284
 0.106 -0.274 -0.187
-0.0909 -0.248 -0.409
-0.128 -0.0583 -0.393
0.0370 -0.0625  0.400
-0.128 -0.292 -0.664
 0.163 -0.331  0.495
-0.0815 -0.292 -0.365
 0.134  0.444  0.818
 0.109  0.516 -0.844
0.0775 -0.274  0.280
-0.147  0.492  0.846
 0.151 -0.337 -0.493
-0.0726 -0.319 -0.122
-0.0726 -0.319  0.355
 0.155 0.0511  0.421
 0.115  0.483  0.833
0.00298 0.0978  0.357
-0.147 -0.343  0.817
 0.151 -0.337  0.180
-0.138  0.276  0.407
 0.180 -0.326  0.748
-0.107 -0.337 -0.000339
-0.0441 -0.0584  0.187
-0.0815 -0.0481  0.205
-0.148 -0.145  0.812
0.00230 0.0242 -0.240
-0.128 -0.0584 -0.0658
 0.154 -0.274 0.0994
-0.110 -0.0483  0.392
 0.106 -0.319  0.467
-0.100 -0.292 -0.777
-0.0407 0.0179 -0.352
-0.148 -0.332  0.364
0.0869 -0.319  0.729
0.0307 -0.319  0.542
-0.0347 -0.274  0.336
 0.118  0.488  0.381
0.0401 -0.319  0.720
0.0228 0.0978 -0.345
-0.0628 -0.274  0.374
-0.119  0.444 -0.820
 0.186 -0.304  0.103
 0.153 -0.126  0.788
 0.155 0.00431 -0.440
-0.0534  0.494  0.804
 0.155 0.0877 -0.571
 0.187 -0.292 -0.162
 0.150  0.182  0.408
 0.115 -0.274 0.0371
-0.148  0.378  0.449
 0.155  0.369 -0.813
-0.119 -0.292 -0.543
-0.0628  0.127  0.392
-0.0722 -0.292  0.187
 0.134 -0.292 -0.449
0.0494  0.130 -0.309
-0.148 0.0979 -0.243
-0.148 0.0979 -0.169
 0.155  0.163  0.692
 0.155 -0.136  0.430
 0.155 0.0136 -0.693
 0.150 -0.274  0.290
 0.158  0.473  0.421
-0.147 -0.343 -0.346
0.0588  0.492 -0.407
-0.145 0.0230 0.0557
 0.155 -0.0234 -0.655
-0.100  0.276 -0.409
 0.115  0.130 0.0277
-0.148 -0.276  0.608
-0.148 -0.145 -0.300
-0.148  0.117  0.168
 0.155 -0.230 -0.674
 0.155 -0.155  0.617
-0.148 -0.192 -0.459
-0.148  0.266  0.598
 0.155 -0.145  0.495
-0.145 -0.164  0.318
 0.155 0.00434  0.533
-0.148  0.145 -0.515
-0.0160  0.521 -0.805
0.0869 -0.274  0.168
 0.124 -0.0518 -0.820
0.0214  0.229  0.818
-0.148  0.350 -0.477
-0.0628 -0.274 -0.0565
-0.00668 -0.319 -0.552
-0.148 0.0605 -0.468
-0.0160 -0.136  0.818
-0.128 0.0979  0.819
-0.145 -0.0236 -0.328
-0.148 -0.0144 -0.431
-0.100 -0.274 0.0371
0.0682 -0.0518  0.818
-0.148 -0.127 -0.122
0.0494  0.127 -0.0752
-0.148 -0.239 0.0371
-0.100  0.129 -0.356
 0.115 0.0230 -0.409
0.0307 -0.00504  0.407
 0.155  0.238  0.692
-0.148  0.257 -0.515
 0.155 -0.201  0.514
-0.148 -0.136 -0.440
-0.148 -0.276 -0.608
-0.0160 -0.273 0.0651
0.0869 -0.274 0.0745
-0.148 -0.00502  0.626
-0.0254 -0.0584  0.355
-0.0534  0.521 -0.599
-0.148  0.135 -0.721
-0.00668 -0.173  0.407
-0.0254 -0.155 -0.820
-0.0534 -0.274  0.252
0.00266 -0.145 -0.409
-0.148 0.0792  0.570
 0.115 -0.183 -0.820
-0.00667  0.521 -0.711
0.00269 -0.274 -0.337
-0.145 0.0137  0.374
0.0869  0.276 -0.820
-0.148 0.0324  0.729
-0.0534 -0.0482 -0.0284
0.0120  0.145  0.818
-0.148  0.201 -0.580
0.0401  0.495  0.561
-0.148 -0.0705  0.112
 0.115  0.332  0.819
 0.115  0.257  0.818
0.0962  0.129  0.327
 0.150 -0.320  0.664
-0.148 -0.164 -0.730
0.0681 -0.274 -0.225
-0.110  0.313 -0.820
 0.155  0.425 -0.711
0.0682  0.107  0.407
-0.148 -0.0799 -0.777
 0.155 -0.127  0.551
 0.155 -0.211 -0.450
0.0541 -0.0340  0.316
-0.137 -0.0431  0.190
-0.00667 -0.276  0.818
0.0307 -0.0625 -0.401
 0.143  0.521 -0.711
0.0494 -0.292  0.617
-0.00672 -0.316 -0.758
-0.00667  0.521 -0.403
-0.110  0.360 -0.409
-0.137 -0.0625 0.0651
 0.124 -0.292 -0.103
-0.148  0.107 0.0839
-0.147 -0.343 -0.496
0.0495 -0.316 -0.758
 0.147 -0.332 -0.611
 0.134 -0.292  0.795
0.0401 -0.0477 -0.0565
0.0214 -0.0584 -0.337
-0.0347 -0.292  0.561
-0.148 -0.0705 -0.178
0.0401 -0.292 -0.150
0.0962 -0.292  0.533
-0.110 -0.340  0.243
-0.110  0.135 -0.820
-0.100 -0.0584 0.0371
 0.134 -0.0584 -0.225
 0.160  0.480  0.523
0.0682 -0.0482  0.271
-0.148  0.107 -0.113
-0.0628 -0.0584 -0.0752
 0.155  0.135 -0.730
-0.119 -0.292 -0.206
-0.128 -0.0483 -0.000326
0.0597 0.0465 -0.269
0.0494  0.464  0.405
-0.110 0.0791 -0.409
-0.147 -0.343  0.598
 0.155  0.126 -0.805
 0.154  0.128 -0.116
 0.155 -0.192  0.413
-0.0566  0.471  0.401
 0.150  0.472 -0.820
 0.155 0.0792  0.812
 0.154  0.378 -0.414
-0.0300 0.0722 -0.333
 0.154 -0.00816  0.817
-0.137 -0.296  0.103
 0.186 -0.297 -0.0939
-0.111 -0.340  0.162
-0.0441 -0.316 0.0464
 0.150 -0.00426  0.408
 0.155 0.0230  0.682
-0.110 -0.292  0.355
-0.0441 -0.0482 -0.197
-0.119 -0.0479  0.318
 0.115 -0.0584 0.0184
-0.00668 -0.0482 -0.0284
0.0495 -0.0482 -0.243
-0.128  0.491  0.380
 0.134 -0.0584 -0.318
0.0962 -0.317  0.785
-0.145 -0.0986 -0.318
 0.115  0.145 -0.820
-0.148 -0.323  0.720
-0.148 0.0698  0.252
-0.145 -0.230 -0.0752
-0.148 -0.339 -0.150
-0.148 -0.339 -0.805
-0.0534  0.130  0.252
0.00265 -0.316  0.168
0.0401 -0.319 -0.0939
-0.148 0.0137  0.252
-0.148 -0.339 -0.693
0.0214 -0.316 0.0371
 0.155  0.313  0.449
-0.0348  0.495  0.645
-0.100  0.521 -0.515
 0.155 -0.211 -0.767
 0.155 -0.183 -0.683
 0.155  0.210 -0.674
-0.148 -0.0705 -0.711
-0.148  0.453  0.486
-0.148  0.407 -0.683
-0.148  0.322  0.542
-0.0909 -0.292 -0.459
-0.00667 -0.220  0.818
0.0494 -0.292 -0.543
-0.0441  0.495  0.692
-0.148  0.117  0.467
0.0495 -0.0482  0.187
0.0775  0.219  0.407
-0.145 -0.0799  0.177
-0.00669  0.129 -0.197
0.0682  0.521 -0.758
-0.0535 0.0978  0.819
 0.155  0.406 -0.636
0.0495 -0.00503 -0.820
 0.115 -0.274 -0.0377
 0.155  0.453  0.570
-0.148 -0.276 -0.739
 0.146 -0.183  0.729
-0.110  0.521 -0.608
 0.155  0.313  0.692
-0.148  0.378  0.542
-0.148 -0.0705  0.514
-0.100  0.494  0.477
-0.148 -0.0986  0.729
-0.148 -0.0611 -0.505
-0.148 -0.220 -0.403
0.00267 -0.0584 0.0464
0.0775 0.0417  0.407
0.0495  0.191 -0.820
0.0214  0.163 -0.820
 0.150 -0.297  0.399
 0.115 -0.0584  0.262
-0.0441  0.247  0.818
0.0495 -0.0482  0.131
0.00267  0.201 -0.409
0.0962  0.494  0.664
0.0308  0.494  0.813
-0.148 0.0979  0.673
0.0495  0.463 -0.820
0.0401 -0.127 -0.409
0.0682  0.521 -0.571
0.0869 -0.319  0.682
0.0775 -0.319  0.299
-0.0347  0.129 -0.374
0.0588 -0.292  0.804
0.0401 -0.319  0.477
0.0869 -0.292 -0.393
 0.155  0.462 -0.580
 0.155 -0.286 -0.543
 0.155  0.406 -0.580
 0.155  0.360  0.673
-0.148  0.341 -0.543
0.0339 -0.266 -0.403
0.0869 -0.319 -0.253
-0.119 -0.292  0.757
 0.115 -0.319  0.411
-0.100 -0.0584 -0.244
 0.163 -0.331  0.318
 0.154 0.0417 -0.818
-0.101 -0.331 -0.636
 0.143  0.127  0.392
 0.155 0.0604 -0.683
 0.155 -0.0421  0.467
 0.115 -0.258 -0.820
 0.106  0.130 -0.365
-0.143 -0.303  0.580
 0.155 0.0791  0.739
 0.143 -0.211 -0.820
 0.154 0.0885  0.409
 0.155  0.434  0.459
 0.154 -0.0549  0.817
-0.0441 -0.0350  0.405
 0.179 -0.320 -0.674
 0.141 -0.325 -0.0440
-0.0815  0.494  0.421
 0.155 -0.0232 -0.767
-0.147 -0.343  0.327
0.0203 0.0599  0.252
-0.148 -0.0237 -0.169
-0.142 -0.0986 -0.395
-0.0441 -0.0584 -0.393
-0.144  0.363 -0.818
 0.118 -0.266 -0.403
 0.155  0.481 -0.440
-0.119  0.492 -0.821
 0.155 0.0689 -0.608
 0.150 -0.0581  0.280
-0.0347 -0.316 -0.141
0.0962 -0.316 -0.655
0.0495 -0.316  0.140
-0.148 0.00433  0.149
 0.171  0.521 -0.683
 0.155 -0.164 -0.571
-0.0945 -0.322  0.682
0.0869  0.130 -0.328
0.0869  0.127 -0.225
0.0868 -0.316  0.205
-0.0161 -0.316 -0.318
 0.153 -0.340 -0.150
-0.0441  0.127 0.0277
-0.0347 -0.319 0.00901
-0.146 0.0417 -0.253
-0.148 -0.258  0.103
-0.00668 -0.319  0.392
0.0308 -0.316 -0.365
0.0214 -0.316 -0.440
-0.128  0.173  0.407
-0.148 -0.192  0.252
-0.0628 -0.316  0.654
-0.110  0.127 -0.225
-0.101 -0.321 -0.846
-0.0721  0.494  0.570
 0.155  0.276  0.430
 0.155  0.406  0.495
-0.100 -0.274 -0.141
-0.148  0.481 -0.580
-0.0347  0.266 -0.409
-0.148 -0.0237 -0.683
0.0120  0.127 0.0932
0.0214 -0.0482 -0.187
-0.0254  0.350 -0.820
 0.106 -0.0482  0.383
-0.145 -0.145  0.374
 0.155 -0.173  0.570
-0.0815 -0.0482 -0.206
 0.147 -0.211  0.664
-0.148 -0.00502 -0.00968
 0.155 -0.0705 -0.721
 0.155 -0.267  0.542
-0.148  0.238 -0.599
-0.148  0.509 -0.636
-0.148 -0.239  0.561
-0.148  0.294 -0.543
0.0494  0.127  0.233
0.0869 -0.316  0.336
-0.0347  0.313  0.818
-0.00669 -0.0144  0.819
0.0214 -0.0584 0.0838
0.0494  0.521 -0.646
-0.146 0.0604 -0.178
0.0307  0.360 -0.820
-0.00666 -0.274 -0.253
-0.0160 -0.319  0.682
-0.0254 -0.274 -0.0190
 0.115  0.154  0.407
0.0869  0.444  0.818
 0.115  0.322  0.407
-0.0722  0.127  0.140
0.0308  0.129  0.374
-0.0722 -0.0584  0.112
-0.0347 -0.0584 -0.159
-0.0534  0.130  0.308
-0.0534 -0.192 -0.409
-0.0441 -0.0584  0.318
-0.146 0.0417 -0.0378
0.0401 -0.292  0.280
0.0868 -0.316 0.0745
-0.0622 0.0484  0.320
0.0588  0.397  0.407
 0.115 -0.274  0.271
0.0120 -0.230  0.407
-0.110  0.521 -0.730
0.0307 -0.183  0.407
0.0494  0.130 -0.150
0.0401  0.521 -0.487
-0.0534 -0.292 -0.421
 0.155  0.388  0.776
-0.145 -0.0892 -0.272
-0.145 -0.0144 -0.122
-0.0441  0.397  0.819
-0.148 -0.0986 -0.515
-0.100 -0.292  0.580
-0.148 -0.267  0.804
-0.148  0.266 -0.739
-0.148  0.444  0.664
-0.148  0.378 -0.552
-0.148  0.378 -0.777
-0.148 -0.239 -0.533
-0.148 -0.229  0.776
-0.148 -0.183 -0.384
-0.00668 -0.0584 -0.281
0.00268  0.378  0.818
-0.148 0.0792  0.739
0.0307 -0.0584  0.290
-0.148 -0.332 -0.272
-0.0534 -0.0584  0.271
0.0869 -0.117  0.407
-0.148  0.107  0.505
-0.0254  0.521 -0.664
0.0775 -0.292 -0.356
0.0775 -0.292 -0.711
-0.128  0.494  0.739
-0.00671  0.521 -0.590
0.0588 -0.292 -0.262
-0.100  0.521 -0.693
0.00265 -0.273 0.0184
 0.155 -0.229 -0.618
 0.155  0.444 -0.505
 0.155  0.350  0.729
-0.148 -0.164 -0.533
-0.148  0.313 -0.468
-0.119 -0.274  0.159
-0.148 -0.220  0.374
 0.155 0.0604  0.673
-0.0804 -0.317  0.449
-0.0160 -0.292 -0.524
-0.00669 -0.292 -0.0939
 0.115 -0.292  0.729
 0.115 -0.319  0.262
 0.115 -0.319 -0.290
-0.0441 -0.292  0.449
 0.155  0.238 -0.805
-0.0534 -0.292 -0.805
 0.155  0.144  0.477
 0.155  0.257  0.570
 0.179 -0.320  0.252
0.0120 -0.292  0.673
-0.119  0.127 -0.178
-0.148 0.0979  0.290
 0.188 -0.297 -0.215
-0.156  0.495  0.570
 0.155 -0.211  0.795
 0.155 0.0422  0.477
-0.148 -0.304  0.215
 0.155 0.0698  0.598
-0.138 -0.108  0.819
 0.155 -0.267  0.430
-0.142 -0.0350  0.243
0.0120 -0.292 0.0932
-0.0955 -0.326  0.767
0.0308  0.129  0.327
-0.111 -0.337 -0.777
 0.145 -0.322  0.143
 0.124 -0.316 -0.571
 0.155 -0.127 -0.440
 0.155 -0.0612  0.570
-0.144  0.210 -0.410
-0.0628 -0.316 0.0932
 0.134  0.397  0.407
-0.106 -0.336 -0.234
0.0214 -0.292 -0.281
0.0307 -0.292  0.570
-0.162  0.493  0.439
-0.119 -0.0482 -0.356
0.0120 -0.292 -0.599
-0.148 -0.339 -0.197
 0.155 -0.0892 -0.608
 0.150 -0.0478  0.196
0.0962 -0.0625 -0.401
 0.155 -0.0525 0.0464
-0.128  0.521 -0.767
-0.145 0.0791  0.327
-0.0718 -0.316 -0.262
0.0962 -0.319  0.580
 0.155 0.0783 -0.767
 0.155 -0.0612 -0.449
 0.155 0.0422 -0.543
-0.148 -0.339 -0.655
 0.187 -0.292  0.318
-0.0628  0.494  0.495
-0.148  0.378  0.486
0.0495 -0.0611 -0.820
-0.00668 -0.319  0.430
-0.148  0.453 -0.767
-0.148  0.425  0.608
0.0120  0.229 -0.820
0.0588  0.129  0.140
-0.110 -0.340 -0.0939
 0.106 -0.273 -0.225
 0.156 0.0979  0.776
-0.0441 -0.319  0.832
-0.0441 0.0324  0.819
-0.145 0.0137  0.290
-0.0441 -0.0331 -0.820
-0.0347  0.481 -0.409
-0.148 0.0605 -0.777
-0.148 -0.108 0.0558
 0.115  0.127 -0.00971
-0.0254  0.494  0.776
 0.150  0.191  0.819
-0.0254 0.0230 -0.409
-0.0815 -0.00504  0.818
0.0401 -0.164 -0.820
0.0401 0.0511  0.819
-0.148 -0.0237  0.121
0.0962 -0.230 -0.409
 0.156  0.388 -0.777
 0.158  0.491 -0.505
-0.145 -0.239  0.299
 0.155  0.332 -0.543
0.0775 -0.230  0.818
 0.155 -0.258  0.589
 0.134  0.210 -0.409
 0.155  0.173 -0.468
 0.155  0.388 -0.505
-0.148 -0.201 -0.505
-0.0804 -0.317  0.411
-0.148 -0.276 -0.309
-0.148 -0.267  0.430
-0.00667 -0.0705 -0.820
-0.119 -0.136 -0.820
-0.148 -0.127 -0.552
 0.155  0.229  0.467
 0.155  0.257 -0.450
-0.148 -0.155  0.767
-0.148 -0.183 -0.767
-0.148  0.294  0.748
 0.163  0.493  0.707
-0.148  0.350 -0.721
0.00266 -0.316 -0.711
-0.148 0.0885 -0.721
-0.148  0.126 -0.608
-0.0441 -0.319 -0.468
-0.0534 -0.274 -0.178
-0.00669 -0.292  0.364
-0.0347 -0.292  0.711
-0.0726 -0.319 -0.730
 0.106  0.369  0.819
-0.0441 -0.276  0.818
0.00267  0.444 -0.409
-0.138  0.494  0.692
-0.0160 -0.292  0.767
 0.155 0.0229 -0.786
 0.102 -0.292  0.852
 0.143 -0.293 -0.505
-0.0409 -0.0144  0.282
0.00267 -0.292  0.617
 0.124 0.0230  0.407
0.0254 0.0979  0.260
-0.0160  0.471  0.821
-0.00541 0.0979 -0.266
 0.155 0.0136  0.729
-0.101 -0.331  0.608
 0.137  0.137 -0.404
 0.124 -0.0482 -0.0190
-0.147 -0.343 -0.00657
 0.154  0.263  0.817
 0.153 -0.340 -0.272
-0.138 -0.230 -0.820
0.0619 -0.0431 -0.401
0.0307 -0.0584  0.364
-0.0718 -0.316  0.159
0.0178 0.0126  0.250
 0.145 -0.322 -0.708
-0.0347  0.481 -0.820
-0.0628 -0.316  0.617
-0.119  0.478  0.826
-0.148  0.397 -0.414
 0.124  0.130  0.252
 0.155  0.124 -0.215
 0.124  0.130 -0.0939
-0.0331 0.0611  0.264
 0.124 -0.292 -0.814
0.0352  0.114 -0.276
 0.115 -0.0892 -0.820
0.0316 0.0447 -0.246
0.0344 0.00535 -0.340
 0.186 -0.325  0.439
0.0308  0.494  0.411
0.0214  0.127 -0.384
 0.163 -0.330 -0.449
-0.144  0.128  0.131
-0.128  0.130  0.205
 0.155 -0.0425 -0.805
 0.155 -0.304 -0.590
 0.155 -0.286 -0.702
-0.128  0.127  0.355
-0.137 0.0261 -0.404
-0.138  0.492 -0.407
 0.124 -0.292 -0.674
-0.0955 -0.326  0.542
-0.145 -0.230  0.243
 0.155  0.435 -0.431
0.0682 -0.316 -0.477
-0.0160 -0.316  0.542
-0.141 -0.0696  0.393
 0.150 -0.320 0.0558
 0.132 -0.318  0.299
0.0682 -0.319 -0.833
-0.147 -0.343  0.159
-0.107 -0.337 -0.0378
-0.0718 -0.316 -0.767
 0.150  0.248  0.408
 0.155  0.293 -0.414
-0.0819 -0.320 -0.580
 0.134 -0.0477 -0.384
-0.128  0.313  0.407
-0.110 0.0511 -0.820
-0.138  0.494  0.785
-0.0909 -0.0479 -0.318
0.0775 -0.0584 0.0371
 0.163  0.490  0.804
-0.0815 -0.0482  0.346
0.0682 -0.0483  0.392
-0.0359 -0.0113 -0.323
-0.128 0.0137 -0.820
 0.134 -0.292 -0.346
-0.110  0.163 -0.409
-0.0254 -0.292 0.0932
-0.147 -0.343  0.458
0.0775 -0.274  0.318
0.0775 -0.292 -0.178
0.0577 -0.0461 -0.309
0.0775 -0.292 -0.103
0.0962 -0.292  0.103
0.0681 -0.292  0.224
-0.0441 -0.292 -0.309
-0.110 0.0324  0.818
 0.155  0.453  0.748
-0.119 -0.292 -0.0565
 0.179 -0.321  0.794
-0.110 -0.0799 -0.820
-0.148  0.257  0.812
-0.148 0.0698  0.812
 0.124 -0.292 -0.853
 0.156 -0.286 -0.281
-0.148 -0.0799 -0.234
 0.180 -0.326 -0.290
 0.187 -0.292  0.364
 0.154  0.120 -0.0253
 0.159  0.494  0.449
-0.128  0.130  0.290
 0.151 -0.336  0.237
 0.155 -0.295  0.608
-0.0254  0.137  0.402
 0.115 -0.319  0.159
 0.155 -0.304  0.449
 0.155  0.191  0.551
 0.155  0.153  0.636
-0.0378  0.521 -0.379
 0.154  0.120  0.196
 0.155 0.00432  0.785
 0.155  0.107 -0.674
-0.0160 0.0885  0.407
-0.0534 -0.292 -0.113
-0.110 -0.337 0.0464
 0.143  0.126 0.0464
 0.180 -0.326 -0.618
 0.171  0.521 -0.533
-0.0450 0.0199  0.261
-0.146 -0.0799 -0.131
-0.145 -0.155 -0.141
-0.148 -0.0799  0.299
-0.119  0.322 -0.409
-0.0254  0.127  0.168
0.0495 -0.316 -0.187
 0.155 0.0325 -0.459
 0.115  0.107 -0.409
-0.148 -0.220 -0.159
-0.0254 -0.319  0.233
 0.115  0.130 0.0932
-0.0909  0.127 -0.318
-0.146 -0.230  0.187
0.0120 -0.319  0.336
-0.0357 0.0633 -0.286
0.0307 -0.319 -0.693
-0.148 -0.295  0.505
-0.145 -0.173  0.187
-0.148 -0.145 -0.234
-0.145 0.0698  0.149
 0.106  0.130 -0.197
 0.124  0.521 -0.749
 0.155  0.313  0.739
 0.155  0.425  0.533
 0.155  0.191  0.486
 0.155 -0.136 -0.505
 0.155 -0.0611 -0.590
 0.155 -0.276  0.748
-0.148  0.313 -0.805
-0.148  0.294  0.645
-0.148 -0.239 -0.580
-0.100  0.494  0.523
-0.148 -0.304 -0.580
-0.148  0.210  0.552
-0.100  0.247  0.818
-0.119  0.494  0.626
-0.0909 -0.292  0.252
-0.148 -0.0517  0.785
-0.148  0.444  0.533
-0.148 -0.267  0.645
-0.148 -0.0892  0.140
 0.155 -0.0706 -0.496
-0.145 -0.211 -0.262
-0.148 -0.0705 -0.580
0.0494  0.332 -0.409
-0.0815 -0.274 -0.262
0.0588 -0.316  0.664
 0.155  0.107  0.486
-0.148 0.0137  0.580
0.0588  0.285  0.407
-0.148 -0.0237 -0.234
-0.0254  0.219 -0.820
 0.124 -0.319 -0.374
-0.148  0.126  0.533
 0.106 0.0137  0.819
-0.0441 -0.108 -0.409
-0.148 0.0885 -0.328
0.00266 -0.316 -0.814
-0.0254  0.406 -0.409
-0.110 0.0698  0.818
-0.148 0.0511 -0.0845
 0.155 0.0885  0.645
0.0494 -0.292 -0.496
0.0869  0.521 -0.795
0.0494 -0.292 -0.337
-0.0721 -0.173 -0.820
0.0869 -0.117 -0.409
-0.0441 -0.239 -0.820
0.0869 -0.292  0.608
-0.146 -0.0892 -0.0565
-0.0534 -0.319  0.327
-0.148 0.0885 -0.636
 0.155  0.126  0.795
-0.0347  0.201  0.407
 0.106 -0.317  0.823
 0.155 -0.276 -0.767
-0.00667 -0.316 -0.159
-0.0254 -0.00503 -0.820
 0.155  0.350  0.636
0.0588  0.130 -0.0378
-0.0160  0.435  0.819
-0.0347  0.350 -0.409
-0.148  0.247 -0.459
-0.148  0.453  0.439
 0.155  0.304 -0.487
-0.0441 -0.274 -0.281
 0.155  0.332  0.486
 0.156  0.294 -0.730
-0.0815 -0.292  0.121
-0.145 -0.155  0.159
0.0682 -0.274 -0.0377
-0.146 -0.201  0.103
0.0775 0.0791 -0.820
0.0962 -0.316 -0.0845
-0.0721  0.117 -0.820
0.0401 0.0511 -0.820
0.0775 -0.274 0.0371
-0.0721  0.154 -0.820
0.0869 -0.0584 -0.0565
0.0588 0.00430  0.819
-0.145 -0.136 0.0184
0.0869  0.130  0.159
-0.00667  0.145 -0.820
 0.124 -0.183  0.818
 0.134  0.494  0.542
0.0681  0.127 0.0277
-0.0534 -0.0482 0.0371
-0.0908  0.495  0.757
-0.0815  0.129 -0.244
 0.106 -0.0237  0.407
0.0307 -0.0144 -0.409
-0.0628 -0.292  0.495
0.0214 -0.273 -0.0658
 0.155  0.107 -0.749
-0.00670 -0.316 -0.225
 0.156  0.369 -0.711
 0.155  0.257  0.739
 0.155  0.201 -0.730
-0.0254 -0.317 -0.646
-0.148 -0.0425  0.449
-0.148 -0.276 -0.393
-0.110 -0.292  0.795
-0.148 -0.164 -0.618
-0.119 -0.292  0.636
-0.0815  0.127 -0.206
-0.148 -0.0425  0.739
-0.148 -0.0705 -0.646
-0.148  0.444 -0.664
-0.148  0.276 -0.674
-0.148  0.219 -0.683
0.0681  0.494  0.486
-0.0254  0.129 -0.272
0.0494  0.210  0.818
0.0401 -0.316 -0.234
0.0494 -0.117  0.407
0.0869 -0.274  0.364
0.0962  0.494  0.626
0.0307  0.521 -0.749
 0.115  0.294 -0.820
-0.148 0.0324  0.664
0.0307 -0.292 -0.655
0.0869  0.494  0.804
0.0120 -0.319  0.841
-0.0534  0.521 -0.767
-0.148  0.145 -0.449
-0.0160 -0.274  0.308
-0.145 0.0324  0.346
-0.148 0.0324  0.552
-0.148 0.0885  0.439
 0.124 -0.292  0.477
0.0869  0.521 -0.599
-0.148  0.173 -0.693
0.0962  0.397 -0.409
0.0869  0.341 -0.820
-0.148  0.107  0.720
-0.0628 -0.319  0.729
 0.155  0.416  0.682
 0.134 -0.258  0.819
0.00267 -0.292  0.411
-0.0441 -0.292 -0.374
0.0588  0.107 -0.409
-0.0721  0.129 -0.374
0.0962 -0.292  0.664
-0.0441 -0.319 -0.562
0.0120 -0.274 -0.150
 0.143  0.521 -0.599
-0.0441 -0.292  0.748
0.00267 -0.319 -0.290
-0.148  0.182  0.467
-0.0726 -0.319 -0.449
0.0494 -0.292  0.187
0.0494 -0.292  0.533
0.0494 -0.319  0.430
0.0494 -0.319  0.233
-0.0347 -0.292 -0.618
-0.0520 0.0169  0.336
 0.155 -0.211 -0.590
-0.148 -0.117  0.608
-0.148  0.407  0.430
-0.148 -0.267  0.318
-0.0534 -0.292 -0.215
-0.148 -0.117  0.458
 0.155 -0.304 -0.646
-0.148  0.472 -0.459
-0.148 -0.229  0.739
-0.100  0.130 -0.0191
-0.00669 -0.292 -0.421
 0.155  0.322 -0.599
-0.128 -0.274 -0.159
0.0214 -0.292 -0.206
-0.110 -0.340 0.0838
0.0214  0.173 -0.409
-0.100 -0.276 -0.820
 0.155  0.397  0.580
 0.155  0.294  0.589
 0.155 -0.108 -0.693
 0.153 -0.305  0.767
 0.155 -0.0799  0.795
-0.100 -0.0584 -0.0845
-0.119 -0.292 -0.0939
 0.155  0.397  0.449
 0.124 -0.292 -0.767
 0.155 0.0698  0.514
 0.155 -0.0328 -0.562
 0.187 -0.292  0.221
 0.155 0.0604 -0.730
0.0613 0.0519  0.340
 0.155 -0.0422 -0.627
 0.124  0.130  0.149
 0.124 -0.0237  0.819
0.00269  0.129  0.346
 0.156 -0.344 -0.830
 0.171 -0.326 -0.777
-0.110 -0.292 0.00900
 0.155  0.304  0.795
 0.155 0.0329  0.757
 0.187 -0.292  0.711
-0.148 -0.286 -0.813
 0.124 -0.292 -0.309
-0.113 -0.297  0.847
-0.119 -0.292 -0.739
