ply
format ascii 1.0
element vertex 2048
property float x
property float y
property float z
end_header
 0.323 0.0481 -0.180
-0.314 -0.112  0.806
-0.318 -0.0691 -0.946
-0.412 -0.162 0.00224
 0.271  0.306  0.535
 0.330 -0.217 -0.796
-0.128  0.363 0.0909
 0.344 -0.282  0.535
-0.218  0.146 -0.422
-0.235  0.298  0.563
0.0288 -0.176  0.190
-0.356 -0.275 -0.543
 0.111 -0.0238  0.781
 0.196  0.126 -0.580
-0.0533 -0.179 -0.219
-0.372 -0.219  0.411
 0.272  0.321  0.131
 0.409 -0.156  0.160
-0.0106 -0.178 -0.649
0.0686  0.322 -0.223
0.0585 0.0616 -0.914
-0.334  0.112  0.269
 0.363 -0.173 -0.445
0.00888  0.131  0.390
-0.0579 -0.196  0.546
-0.327  0.142 -0.0569
 0.355 0.0188  0.424
0.0703  0.101 0.0444
-0.382 0.00827 -0.656
-0.356 -0.106 -0.284
-0.132  0.141  0.797
 0.224 -0.205 -0.0703
-0.356 0.0364  0.558
-0.0786  0.113 -0.667
0.0486 0.0445 -0.358
 0.326 0.0672 -0.819
 0.369 -0.0600  0.687
0.0814 -0.211 -0.902
-0.199  0.331 -0.188
-0.129 -0.0650 0.0125
0.0419  0.240  0.634
0.0582  0.366  0.268
 0.359 0.0917 0.0719
-0.242  0.340  0.318
 0.147 -0.114  0.407
 0.266  0.162  0.733
-0.252 -0.164  0.199
-0.208 -0.0929 -0.489
 0.137 -0.185 -0.363
-0.168 -0.0344  0.414
-0.201 -0.217 -0.803
 0.354 0.0860 -0.414
 0.273  0.264 -0.124
 0.408 -0.162 -0.224
 0.200 -0.116 -0.609
-0.283 -0.250  0.612
 0.300  0.203  0.318
-0.0797 -0.131  0.760
 0.206 -0.0536  0.156
-0.158 0.0697 -0.894
 0.203 -0.201  0.673
-0.0432  0.349  0.472
 0.110 0.0258 -0.149
 0.193  0.201 -0.344
-0.146  0.138 0.0555
 0.388 0.0102 -0.628
 0.127  0.361 -0.00711
-0.328  0.128  0.741
-0.345  0.133 -0.264
 0.245 -0.0623 -0.952
-0.338 0.00395 0.0909
-0.238 -0.194 -0.146
-0.139 0.0219 -0.288
 0.315 -0.281 -0.609
-0.368 0.0139 -0.451
-0.198  0.158  0.403
-0.0764 -0.104 -0.944
 0.313 -0.180  0.328
-0.109 -0.0211  0.200
-0.0497  0.227 -0.341
 0.368 -0.0809 -0.0405
0.0643 -0.114 -0.0176
-0.211 -0.0654 -0.688
 0.239 0.0108  0.570
0.0584  0.152  0.819
0.00912 -0.105 -0.471
-0.284  0.249  0.154
-0.109  0.140  0.604
-0.368 -0.0254 -0.116
-0.0501  0.359 -0.0868
 0.187  0.166  0.457
 0.118  0.100 -0.747
-0.359 -0.0369  0.392
 0.226 -0.0132 -0.333
0.0197  0.131 -0.514
-0.0499 -0.169  0.348
-0.226 -0.0878  0.573
-0.174 -0.229 -0.606
 0.349 -0.00656  0.249
-0.330 0.0678 -0.836
 0.207  0.344  0.377
-0.222 -0.210 0.0318
-0.375 -0.183 -0.688
-0.198 -0.188 -0.313
-0.259  0.320 -0.0274
0.0384 -0.0174  0.288
-0.262  0.123 -0.584
-0.375 -0.114  0.643
 0.336  0.146  0.560
 0.169 -0.146 -0.777
 0.281 -0.0985  0.822
 0.328 -0.114  0.515
 0.146 -0.130 -0.191
 0.241 -0.207 0.0909
 0.108 -0.114  0.574
 0.113  0.339  0.510
-0.411 -0.161  0.219
 0.394  0.185 -0.218
 0.279 -0.0454 -0.491
-0.0698 -0.126 -0.786
-0.188 -0.0157  0.765
-0.369 -0.158 -0.441
 0.202 -0.223  0.515
-0.208 -0.169  0.348
 0.231 0.0229 0.0197
 0.379 -0.144 -0.638
 0.157 0.0367  0.377
-0.0702 -0.195 -0.0664
 0.274 -0.193 -0.294
 0.167 -0.178  0.269
 0.157  0.227 0.0601
-0.267  0.149  0.604
-0.339 -0.0747 -0.786
-0.0402 0.0139  0.765
-0.344  0.133  0.427
 0.322 -0.0720 -0.760
-0.265 -0.0142  0.230
-0.0797  0.359  0.328
-0.0895 -0.194  0.101
 0.173  0.152 -0.205
-0.149 -0.0757 -0.146
-0.197  0.232 -0.306
0.0190  0.368 0.0909
-0.0601 -0.180 -0.367
 0.363 -0.203  0.660
 0.332  0.138 -0.0668
-0.0151 -0.0106 -0.219
-0.395 -0.164 -0.146
0.0282 -0.185  0.670
 0.103 -0.0710 -0.954
 0.365 -0.0455 -0.294
-0.217  0.103 -0.718
 0.246 0.0148 -0.653
0.0486 -0.0349  0.148
 0.397 0.000600  0.562
-0.204 -0.203  0.485
-0.329 -0.114 -0.570
 0.314  0.179  0.180
 0.196  0.140  0.604
-0.0933  0.280  0.583
-0.0206 -0.0253  0.415
-0.208 -0.174  0.725
 0.305 0.0337  0.768
 0.196 0.0629 -0.906
 0.137 -0.174 -0.501
 0.236 -0.206 -0.896
 0.195  0.353  0.239
-0.286  0.230 -0.161
-0.000737  0.160  0.525
-0.188  0.347  0.446
 0.343 -0.0394  0.118
-0.0598 0.0924 -0.799
0.0560 -0.193  0.474
 0.279  0.258 0.0121
-0.134  0.133 -0.525
 0.332  0.109 -0.544
0.0636  0.180 -0.393
 0.237  0.136 -0.453
-0.380 -0.108  0.503
-0.342  0.136 0.0819
-0.315 -0.201 -0.868
-0.0303  0.167  0.718
-0.0701  0.326 -0.214
0.0287 -0.107 -0.304
-0.310 0.00406  0.702
 0.199  0.293 -0.228
-0.287 0.00400 -0.300
 0.297  0.129 -0.285
-0.232 0.0438 0.0254
-0.129 -0.177  0.239
-0.239 -0.0945 -0.0471
 0.187 -0.0776 -0.0474
-0.110 -0.173 -0.511
 0.124  0.176  0.707
 0.329  0.146  0.433
0.0286 -0.104 -0.146
-0.207  0.350  0.190
 0.177 0.0837  0.789
 0.275 -0.0741  0.395
0.0882 -0.197 0.0811
-0.0402 -0.219 -0.866
-0.293  0.224  0.308
 0.395 -0.0512 -0.448
0.0289 -0.112  0.817
 0.252 -0.0845  0.654
-0.256 0.0428  0.373
-0.332  0.129 -0.481
 0.315 -0.130 -0.148
0.0189  0.111 -0.258
-0.0731  0.110 -0.372
-0.192 -0.129 -0.910
-0.315 -0.146 0.0802
-0.319 -0.134  0.298
 0.236 -0.133 -0.413
 0.329 -0.112 -0.875
-0.280 0.00359 -0.570
 0.369 -0.235  0.421
 0.308 0.0731  0.653
-0.0698 0.0436 0.0507
 0.349 -0.165 0.0548
 0.328  0.102 -0.680
 0.158  0.346 -0.126
-0.281 -0.124  0.434
 0.127 -0.0351 0.0558
0.0487  0.116 -0.649
-0.0402  0.368  0.199
-0.375 -0.252  0.535
0.0476  0.360  0.395
-0.129 -0.116  0.653
 0.216 -0.229 -0.571
-0.181  0.212  0.665
-0.0895 0.0735  0.422
 0.128 -0.143  0.744
 0.210 -0.105  0.516
 0.134 0.0408 -0.279
 0.206 -0.0189  0.268
-0.0204 -0.101 0.0613
 0.405 -0.0766  0.379
 0.317 -0.114  0.219
0.0979 -0.192 -0.106
 0.199  0.257  0.611
-0.325 0.0831 -0.162
 0.117  0.364  0.150
0.0782 -0.124 -0.599
-0.0403 0.00483 -0.901
-0.205  0.112 -0.266
 0.347 0.0916  0.307
 0.295  0.241 -0.259
-0.354 0.0945 -0.372
-0.163  0.350 -0.0812
-0.325  0.103 -0.677
-0.358 -0.0747  0.170
0.0420 -0.139 -0.793
-0.138 -0.170 -0.708
-0.280 -0.203 -0.501
-0.281 -0.242 -0.668
-0.294  0.223  0.505
-0.109  0.164  0.495
-0.222 -0.0202 -0.916
-0.238  0.343 0.0811
-0.0500 -0.0122 -0.346
0.0561 -0.195 -0.241
-0.366 -0.0352  0.278
-0.178 -0.112  0.820
 0.367 0.0338 -0.0767
-0.369 0.0238 -0.0175
-0.297 -0.182 -0.363
 0.231  0.103 -0.729
-0.246 0.0723  0.794
-0.259 -0.0910  0.677
-0.316 -0.173 -0.0471
 0.288 -0.239 -0.485
-0.0993 -0.114  0.436
-0.248 0.0160  0.555
 0.359 0.0745  0.178
-0.289 -0.0849 -0.419
0.0123  0.309  0.554
 0.210 -0.0752 -0.708
-0.301 -0.173 -0.766
-0.359 0.0741  0.168
 0.279 -0.223  0.594
0.0979  0.143  0.564
-0.297  0.229 -0.272
 0.354 -0.111 -0.530
 0.273  0.281  0.252
 0.284  0.246  0.449
 0.220  0.349 0.0394
 0.265 0.0821  0.380
 0.407 -0.148  0.295
 0.234 -0.195 -0.197
-0.205 -0.0699  0.165
-0.178 -0.0205  0.288
-0.297 -0.176  0.539
 0.108  0.167 -0.293
 0.227 0.0256 -0.551
-0.273  0.289  0.426
 0.384 -0.163 -0.343
 0.369 -0.242 -0.689
-0.397 0.00239 -0.554
-0.201 -0.165 -0.416
 0.209 0.0499 -0.162
 0.215 -0.0898 0.0521
 0.216 -0.0253  0.789
-0.318 -0.173  0.705
-0.288  0.229 0.0120
 0.302  0.207  0.648
-0.0203 -0.114  0.594
 0.279 -0.194  0.455
 0.309  0.163 -0.165
-0.341 -0.0273 -0.215
 0.325 0.0139 -0.905
 0.167 -0.192  0.168
-0.0105 -0.112  0.486
-0.276 -0.0134  0.455
 0.231 -0.0727 -0.159
0.0781 -0.178  0.318
 0.288 -0.164  0.716
0.0583  0.356 -0.116
-0.216 -0.0839 -0.589
-0.195 0.0676 -0.363
-0.293  0.209  0.680
 0.167 -0.199 0.0120
-0.136 -0.211 -0.895
-0.139 -0.187 -0.146
0.0979  0.103  0.425
-0.407 -0.161 -0.349
-0.00264 -0.0549 -0.0614
 0.138  0.136 -0.464
-0.397  0.196 -0.207
 0.406 -0.151 -0.0997
0.0492 0.0541  0.782
 0.342 -0.00639 0.0196
 0.366 -0.0451 -0.156
0.0680  0.258 -0.299
-0.344  0.101  0.643
-0.204 -0.184  0.583
0.0190  0.139  0.624
-0.290 -0.259  0.449
 0.162 -0.195 -0.264
-0.0402 -0.124 -0.560
-0.217 0.0864 -0.815
-0.367 -0.0235 -0.360
-0.0699  0.362 0.0120
-0.221 -0.105 -0.206
-0.282 -0.0454  0.328
-0.369 -0.0763 -0.0181
 0.303  0.186 0.0745
 0.374 0.00333 -0.531
0.0581 0.0229  0.375
 0.130 -0.169 -0.669
-0.168  0.119 -0.628
-0.0482 -0.124  0.160
-0.329  0.166  0.182
-0.411 -0.155  0.318
-0.282 -0.190 -0.232
-0.216 -0.0644 0.0539
-0.296 -0.00921 -0.697
 0.119 -0.0935  0.179
 0.311 -0.179 -0.0372
-0.209 -0.125 -0.764
 0.225  0.344 -0.0567
-0.109 -0.114  0.545
0.0157 -0.122 -0.922
-0.367 0.0674  0.347
 0.256 0.0937 -0.369
-0.0764  0.113 -0.267
-0.129  0.187 -0.378
 0.334 0.000993 -0.376
-0.310  0.112  0.525
-0.106  0.223 0.0395
0.0579 -0.146 -0.397
 0.278 -0.00566  0.485
-0.0295  0.121  0.802
-0.208  0.142  0.722
 0.322 -0.0569 -0.618
 0.375 -0.175  0.569
-0.0667 -0.0856 -0.195
 0.338 0.0636  0.515
-0.0685 -0.188  0.651
 0.305 0.0256 -0.280
-0.404 -0.145  0.111
-0.178 -0.196  0.130
0.00922  0.105 -0.738
 0.150  0.117 -0.374
 0.147 -0.216 -0.836
-0.188  0.161  0.545
 0.282 -0.169 -0.732
-0.257  0.145 -0.336
0.0682 0.0876 -0.825
-0.131 -0.0220 -0.894
-0.350 0.0808 -0.569
-0.119 -0.198 0.0121
-0.297 -0.134 -0.674
-0.0828  0.222  0.655
-0.0177 -0.0143  0.210
 0.229 -0.147  0.361
 0.157  0.111 0.0736
-0.139 -0.124 -0.619
 0.174 -0.139 -0.904
 0.372 -0.144  0.434
 0.167 -0.0947  0.823
 0.138  0.355  0.318
 0.276 -0.169 -0.605
0.0980  0.127 -0.560
 0.147  0.112 -0.656
-0.0744  0.153 -0.452
-0.369 -0.234  0.636
 0.256 -0.185  0.181
-0.310 -0.00885 -0.879
-0.119 0.0523  0.794
-0.0741 -0.124 -0.443
-0.168 0.0627  0.380
-0.0927 -0.0625  0.816
-0.387 -0.0237  0.617
 0.266  0.147  0.496
-0.361 -0.272 -0.643
-0.378 -0.188 -0.599
-0.227 -0.200 -0.0568
 0.315 -0.132 -0.238
 0.270  0.288  0.347
-0.260  0.311 -0.116
 0.223  0.156  0.815
-0.264  0.302  0.239
-0.0401  0.129 -0.579
-0.402 -0.0676 -0.446
0.0889  0.124 -0.201
0.0408 -0.195  0.583
0.0388  0.363 0.00208
-0.299  0.246  0.594
 0.177 -0.0191 -0.880
 0.108 -0.114  0.485
-0.318 -0.0497  0.525
-0.170 -0.193 -0.228
0.0960 -0.126  0.660
 0.178 -0.177  0.586
 0.351 0.00422 -0.727
 0.301 -0.0660  0.583
-0.168  0.356  0.268
 0.280 -0.144 -0.499
-0.0250 -0.195  0.441
 0.162 0.0827 -0.820
-0.349 -0.0842  0.721
 0.374 -0.242 -0.501
-0.326 0.0302  0.784
0.0289 -0.0944  0.395
-0.0599  0.176  0.418
 0.206 -0.0931 -0.490
-0.379 -0.170  0.565
 0.328 -0.0496  0.766
 0.114  0.284  0.577
-0.216 -0.112  0.489
 0.226 0.00406  0.416
-0.119 -0.189  0.486
-0.299  0.210  0.407
 0.326 0.0732 -0.00764
-0.0402 -0.114  0.683
-0.345 0.0433  0.426
-0.159  0.355 0.0118
-0.349 0.0429 -0.757
0.0503 0.00989 -0.280
 0.210  0.198  0.681
 0.108 -0.0199  0.239
-0.317 -0.133 -0.122
-0.296 -0.214 -0.589
-0.218 -0.00558 -0.626
-0.198 -0.203 -0.520
-0.280 -0.0452 -0.501
 0.236 0.0719 -0.264
0.0439 -0.124  0.111
-0.301 -0.00187  0.618
-0.0417 -0.185  0.266
-0.168 -0.136 -0.0176
 0.333  0.148 -0.359
 0.127 -0.129 0.0356
-0.129  0.344  0.505
-0.410 -0.162 -0.254
 0.321 -0.0754 -0.420
 0.127 -0.00471 -0.348
0.0574 -0.162 -0.708
-0.116  0.144  0.716
-0.159 0.0444 0.0634
 0.332  0.105  0.735
0.0583 -0.219 -0.809
-0.0716 -0.128 0.00209
 0.275  0.117 -0.618
 0.147  0.351  0.435
 0.367 0.0141  0.328
0.0255 -0.0295  0.791
 0.374 -0.0650 -0.688
-0.324 -0.120 -0.880
-0.223 -0.178 -0.650
-0.0206 -0.108 -0.382
 0.113 -0.195  0.538
-0.368 0.0597 -0.234
-0.0104  0.276 -0.280
0.0790 -0.0869 -0.211
 0.177 -0.117  0.682
 0.281 -0.0454  0.318
 0.304 -0.179 -0.389
-0.0455 -0.134 -0.116
 0.250  0.171  0.405
-0.252 -0.0929  0.249
 0.341 -0.0156 -0.816
-0.290 -0.191  0.389
 0.108 -0.0429  0.411
-0.129 -0.186  0.706
0.0504 -0.194 -0.0153
-0.323 -0.0658 -0.635
 0.364 -0.185 -0.562
 0.373 -0.114  0.624
 0.197  0.352  0.140
-0.285  0.142  0.809
-0.208 -0.00631 -0.320
 0.296 -0.145  0.610
-0.195  0.200 0.0739
-0.109  0.349 -0.146
-0.294  0.214 -0.0768
-0.346 -0.115  0.375
-0.225 0.0133 -0.510
-0.0895 -0.0200  0.278
 0.131 -0.0251  0.331
-0.109  0.357  0.426
 0.247 -0.105  0.259
-0.342 -0.00113  0.210
 0.306  0.219  0.541
-0.139 -0.120  0.366
 0.229 -0.134 -0.106
-0.119  0.361  0.190
 0.358 0.0100  0.650
0.00913  0.124 -0.375
-0.119  0.249 -0.303
-0.237 -0.219 -0.876
-0.248  0.162  0.465
-0.320  0.160  0.347
-0.326 0.0901 0.00303
0.0519  0.144  0.716
-0.0204 -0.125 -0.708
 0.108  0.362 0.0713
 0.320 0.0164  0.580
-0.178 -0.0678 -0.962
 0.199  0.338  0.525
0.0485  0.368  0.190
0.0820 -0.175  0.397
 0.138  0.152  0.799
-0.139  0.100 -0.729
 0.146  0.257 -0.288
-0.164  0.288 -0.244
 0.295  0.263  0.179
 0.106  0.171 0.0328
-0.272 -0.0331  0.151
-0.0507 -0.154 -0.294
 0.279 -0.196 -0.125
 0.232 0.0928 0.0607
-0.0205  0.160 -0.304
-0.294  0.230  0.229
-0.111 -0.0756 -0.0770
0.0456 -0.184 -0.164
-0.353 -0.0988 -0.185
 0.125  0.225  0.646
 0.364 0.0655 -0.340
-0.307 -0.134  0.610
-0.208 -0.118  0.407
 0.347  0.129  0.238
-0.175  0.266  0.601
-0.247 0.0440 -0.880
 0.254  0.319 -0.180
 0.308 -0.192 -0.866
-0.0796 0.00383  0.374
-0.297  0.141 -0.413
-0.209  0.151  0.817
0.000538  0.342 -0.186
-0.376 -0.0157  0.466
 0.264  0.319  0.423
 0.256 0.0724 -0.851
 0.333 -0.112  0.359
-0.381 -0.135 -0.0669
0.0190 -0.143  0.747
 0.127 -0.0752 -0.0964
 0.266 -0.155  0.538
-0.130 -0.182  0.603
-0.0699 0.0733 -0.883
 0.293 -0.269  0.465
-0.0303  0.361  0.386
 0.273 0.0994  0.791
 0.256 -0.219 -0.816
 0.353  0.105 -0.133
-0.136  0.131 -0.312
 0.255 -0.0143  0.209
0.0683  0.166  0.457
 0.226 -0.189 -0.353
-0.299  0.208 0.0910
 0.372 -0.0548  0.495
 0.346 -0.144 -0.769
-0.0595 0.0158 -0.275
 0.279 -0.0455 -0.698
 0.302  0.185 -0.0151
 0.368 -0.0845 0.0614
 0.367 -0.0845  0.288
 0.155 -0.169  0.465
-0.367 -0.100 -0.369
-0.270 0.0607 -0.362
 0.127 -0.0201  0.162
 0.313 -0.154  0.120
-0.252 -0.164  0.278
-0.188 -0.138 -0.116
-0.263 -0.0287  0.766
-0.0401 -0.184  0.724
0.0386  0.347  0.495
 0.266 -0.177  0.269
 0.364 0.0655 -0.241
 0.196  0.133  0.731
-0.126 -0.173 -0.412
-0.312  0.164 -0.136
 0.167 -0.176 -0.432
 0.308 -0.0157  0.702
 0.349 0.0872  0.391
 0.384 -0.163 -0.0274
0.0684 -0.0329 -0.899
-0.0599  0.368  0.121
 0.354 -0.187  0.499
0.0788 0.00367 0.0145
-0.267 -0.203 0.0909
 0.168  0.129  0.395
-0.286 0.0947 -0.746
-0.0301 0.0664  0.377
 0.138  0.334 -0.197
 0.170  0.162  0.538
-0.375 -0.0649 -0.688
-0.257 -0.159 -0.556
0.0512 -0.181 -0.313
 0.295 0.0204 -0.522
-0.000665 0.0800 -0.857
 0.118  0.138  0.644
-0.142 -0.135 -0.799
 0.279  0.264  0.595
-0.366 0.0681 -0.0767
 0.249 -0.125 -0.912
-0.128  0.136  0.396
-0.277  0.103  0.422
0.0288 -0.0603 -0.960
-0.367 -0.0254 -0.284
-0.148  0.149 -0.447
 0.257 -0.106 -0.768
-0.0601 -0.195  0.174
 0.219 -0.178 -0.650
0.0898 -0.186  0.245
 0.368 -0.0845  0.170
-0.286 -0.101 -0.738
-0.0500 -0.0349  0.148
 0.318 -0.0648 -0.940
-0.208  0.131 -0.534
 0.137 -0.165 -0.585
-0.257 -0.128  0.752
 0.236 -0.128  0.752
 0.363 0.0292 -0.459
 0.119  0.210 -0.350
 0.352 0.0840  0.596
-0.312 -0.165  0.150
-0.331 0.0526 -0.501
-0.334  0.157 -0.341
0.00829 -0.106 -0.215
 0.193  0.171 0.0325
0.0435 -0.154 -0.0767
 0.305  0.132 -0.480
 0.382 -0.114 -0.406
-0.257 -0.0975 -0.918
-0.128 -0.193 -0.343
0.0914 -0.139 -0.906
 0.344 0.0862 -0.611
 0.248  0.339  0.301
 0.309 0.0927 -0.749
 0.366 -0.0746 -0.221
0.0288 -0.139 -0.546
-0.371 -0.0948 0.0516
 0.338 -0.112  0.732
 0.234 -0.203  0.743
 0.130 0.0330 -0.895
-0.370 0.0534  0.249
 0.279 -0.00576 -0.589
 0.219 -0.0256  0.352
-0.0781 -0.173 -0.914
0.0777 -0.140 -0.466
-0.0994 -0.216 -0.826
-0.348 0.0609  0.721
-0.365 -0.268  0.466
 0.208 -0.0652 -0.560
-0.326  0.193 -0.215
 0.214 -0.136 -0.0176
-0.377 -0.177  0.489
-0.267 -0.112  0.366
-0.287 -0.182 0.0252
-0.260  0.301 -0.208
-0.267  0.136  0.673
-0.160 -0.148 -0.553
 0.280 -0.200 0.0224
-0.240 -0.0792  0.822
0.0435 -0.154 0.0417
-0.129 0.0846 -0.832
-0.149 -0.195 -0.0768
-0.0337  0.253  0.615
-0.318 -0.172  0.239
 0.305 0.0830  0.456
 0.266  0.149  0.613
-0.366 0.0681 0.0909
 0.134 -0.196 -0.172
 0.148 0.0591 -0.197
-0.229 -0.0445  0.504
-0.374 -0.0886  0.570
-0.307 -0.134 -0.507
 0.127  0.361  0.249
-0.346 -0.00618 -0.819
 0.177 -0.0679 -0.961
 0.190  0.124 -0.273
 0.157 -0.137 -0.106
0.0979 -0.104  0.822
-0.375 -0.193 -0.501
-0.273  0.282  0.357
-0.0534 -0.189 0.0322
-0.178  0.157  0.613
-0.328 0.0268 -0.618
-0.0104  0.189 -0.391
 0.314 -0.138 -0.333
-0.339 0.00493  0.328
 0.234  0.165 -0.386
-0.0599  0.137  0.663
 0.272  0.330  0.199
-0.325  0.173  0.574
-0.0401 -0.113  0.821
-0.172 -0.187  0.292
-0.179  0.349  0.377
-0.272  0.314  0.134
-0.0799  0.362  0.259
 0.248 -0.0683 -0.434
-0.373 -0.105 -0.518
0.0880 -0.194  0.160
-0.297 0.0846 -0.256
-0.325 0.0769 -0.432
-0.0811  0.118 0.0674
-0.375 -0.0354 -0.501
 0.213  0.241 -0.285
0.0867 0.0638 -0.234
-0.139 -0.0868 -0.212
-0.280 -0.262  0.545
 0.270  0.278 -0.0569
 0.137 -0.169  0.350
-0.198 -0.122  0.682
-0.307 0.0731  0.594
 0.157 0.0444 0.0632
-0.348 -0.163 -0.206
-0.285 -0.0453  0.396
 0.266  0.125 -0.541
 0.293 -0.231 -0.705
0.00921  0.152 -0.450
-0.107 -0.179  0.419
 0.279 -0.252 -0.560
 0.367 -0.0940 -0.343
-0.288 -0.197  0.474
-0.140 -0.0841  0.178
 0.288  0.222 -0.195
 0.156 -0.200  0.101
 0.203 -0.163 -0.511
-0.168 -0.116  0.594
-0.374 -0.154  0.426
-0.198 -0.133 -0.698
-0.226 -0.0376 -0.455
-0.206 -0.0276  0.348
 0.215 -0.0257 -0.501
 0.390 0.0110  0.480
0.0782 -0.181  0.720
-0.280 -0.0643  0.605
-0.243  0.341  0.397
 0.346 -0.0389  0.391
-0.0500 -0.125 -0.639
0.0781  0.103 -0.371
-0.297 -0.173 -0.444
-0.0304 -0.0578 -0.922
 0.354 -0.166  0.239
 0.317 -0.110  0.450
-0.364 -0.119  0.239
-0.277 -0.219 -0.816
-0.0300 -0.0172  0.308
-0.119 -0.176  0.337
 0.314  0.138  0.663
0.0484 -0.114  0.545
 0.137 -0.125 -0.718
 0.223 -0.152  0.426
 0.329 0.0564  0.249
-0.351 0.0792  0.485
 0.183 0.0607 -0.362
 0.296  0.199 -0.310
 0.147 -0.218 -0.903
-0.238  0.332  0.486
-0.284 -0.276 -0.609
 0.263 -0.0773  0.192
 0.321  0.137 0.0351
-0.408 -0.0927  0.375
 0.118 0.0559  0.795
 0.374 -0.183 -0.717
-0.0994 -0.0566  0.405
-0.0708 -0.0221 0.0521
 0.254 -0.0203  0.626
-0.340 -0.0259 -0.0570
-0.0106 -0.103 -0.0175
 0.271  0.321 -0.00767
 0.372 -0.214 -0.630
 0.292  0.230  0.377
-0.354 -0.0186 -0.735
-0.218 0.0137  0.417
 0.332 0.0460  0.110
-0.237 0.0435 -0.284
0.00584 -0.186 -0.915
-0.130 0.0127 -0.352
-0.307 0.0335  0.515
0.0190 -0.0132 -0.333
 0.279 0.0133  0.379
0.0289 -0.143  0.352
 0.216  0.115 -0.667
-0.000737 -0.197  0.515
 0.316  0.160  0.364
-0.285 -0.202  0.658
-0.0139 0.0607 -0.362
 0.348 -0.165 -0.191
 0.360 -0.124 -0.284
-0.313  0.170 0.00224
-0.257  0.112 -0.668
-0.318  0.167  0.485
-0.109 -0.137 -0.0570
 0.252  0.329 -0.113
 0.220  0.110 -0.195
-0.0882 -0.112 -0.514
-0.0401  0.154  0.603
-0.129 -0.0275  0.347
 0.296  0.206 -0.110
 0.268  0.281 0.0807
 0.377 -0.131  0.111
 0.157 -0.123 -0.540
 0.323 -0.134 -0.667
 0.341  0.139  0.496
-0.314 -0.145 -0.313
-0.0171  0.208  0.671
-0.159 -0.168  0.540
 0.246  0.136  0.673
-0.189  0.353  0.121
 0.279 -0.232 -0.629
 0.206 -0.120  0.584
0.0518  0.199  0.681
 0.321  0.136 -0.222
-0.370 0.0139  0.150
 0.320 -0.00874 -0.0832
 0.248  0.152 -0.318
 0.224 -0.0513  0.566
-0.0698  0.161  0.545
0.0885 -0.138 -0.156
0.0773  0.154 -0.449
 0.107 -0.161 -0.775
-0.368 -0.0547  0.101
0.00192 -0.0504 -0.125
 0.324 0.0701 -0.494
-0.359 0.0433  0.623
 0.235 -0.0612  0.478
-0.00498 -0.217 -0.805
-0.102 -0.194 -0.257
 0.315 -0.130 -0.0850
-0.0598  0.337  0.532
 0.299  0.142 -0.418
 0.118 -0.199 -0.0273
0.0191  0.362  0.318
-0.326 -0.249 -0.494
 0.275 0.0350 -0.356
-0.267  0.132 -0.510
 0.127  0.174  0.412
 0.306 -0.191 -0.533
 0.326  0.143  0.114
0.0388  0.218 -0.349
 0.344 -0.250  0.622
 0.107  0.356 -0.0764
-0.370 -0.0879 -0.126
 0.128  0.103 -0.261
-0.351 -0.165 0.0318
-0.0705 -0.184 -0.145
-0.0889  0.286 -0.261
-0.254  0.235  0.637
 0.292  0.215  0.133
 0.372 -0.0624  0.558
-0.283  0.283  0.525
 0.226 0.0865 -0.797
 0.314 -0.0882  0.674
 0.193 0.0190 -0.282
-0.367 -0.0835  0.318
0.0676 -0.0737 -0.0778
-0.334 0.0234 -0.145
 0.409 -0.135  0.358
-0.256 -0.0443 -0.730
 0.213 -0.0265 -0.619
-0.0402 -0.0453  0.785
-0.368 0.0593 -0.322
 0.213  0.340  0.452
 0.282 -0.192  0.661
-0.0105 -0.0773  0.177
 0.147 -0.0762 -0.156
 0.167 -0.0204  0.219
-0.158 -0.196 0.0713
-0.178 -0.127  0.753
 0.216 -0.177  0.308
-0.116 -0.0301  0.769
-0.0500  0.148  0.486
 0.292  0.224  0.239
 0.321 0.0246 -0.623
-0.158 -0.118  0.456
0.00913 -0.185  0.301
 0.367 0.0241 -0.294
-0.344 -0.0400 0.0416
 0.242 -0.128 -0.545
 0.348 0.00226  0.163
-0.119 -0.0560 -0.947
-0.156 -0.137 -0.181
 0.312 -0.0633 -0.540
-0.198  0.111 0.0737
 0.315 -0.170  0.181
-0.165 -0.172 -0.465
-0.132 -0.122 -0.922
-0.210 -0.0715 -0.155
-0.108  0.123 -0.614
 0.367 0.00397 0.0812
 0.206 -0.120 -0.200
-0.279  0.163  0.732
 0.296 -0.214  0.536
 0.257 0.0525 -0.909
-0.256  0.210 -0.314
-0.356 -0.135 -0.656
 0.196  0.136 -0.520
-0.0904 -0.0959 0.0504
 0.167 0.00408  0.768
-0.253 -0.153 -0.893
-0.265  0.160  0.401
-0.322  0.170  0.643
-0.0885 -0.157 -0.577
-0.273 0.0134 -0.645
-0.334 0.0353 0.0315
 0.174  0.293  0.566
 0.317 -0.134  0.288
-0.327 -0.0518 -0.452
-0.0695  0.107 -0.727
-0.0105  0.123 -0.632
-0.278 -0.203 -0.0894
 0.178 -0.134  0.179
 0.128 -0.0426 -0.906
-0.178 0.0630  0.791
-0.321 -0.0447  0.767
-0.334  0.138 -0.185
-0.310 -0.0551 -0.552
-0.0402  0.130 -0.519
 0.335 -0.153  0.679
-0.375 -0.173  0.653
 0.365 -0.0496 -0.386
-0.168 -0.0210  0.189
-0.270  0.287 0.0220
-0.0303 -0.0849  0.396
-0.0689 -0.0732 -0.119
-0.000667  0.354 -0.127
-0.329 -0.183 -0.550
-0.276  0.272 0.0910
 0.275  0.143  0.554
-0.178 -0.201 -0.00767
-0.146 -0.174  0.175
-0.0704  0.184 -0.388
-0.000763 0.0344  0.418
0.00905 -0.0147  0.364
 0.225 -0.0782  0.822
-0.237 -0.114 -0.414
 0.108  0.288 -0.252
-0.234 -0.231 -0.611
 0.177 -0.183  0.723
 0.373 -0.0848  0.436
-0.325 -0.163 -0.611
 0.278 -0.0253  0.545
 0.159  0.175 -0.385
-0.384 -0.126 -0.590
-0.228 -0.190 -0.369
-0.375 -0.0156  0.525
-0.334  0.112  0.209
0.0561 -0.113  0.456
 0.308 0.0534  0.712
0.0670 -0.0448 0.0463
-0.317 -0.140 -0.251
 0.305 -0.274  0.579
 0.167 -0.0429  0.411
-0.0482 -0.134 -0.0570
-0.218 -0.00553 0.0581
-0.246  0.257 -0.261
0.0781 -0.0296  0.356
-0.178  0.153  0.672
 0.137  0.357  0.377
 0.187 -0.0750 -0.106
 0.175 -0.152  0.524
-0.337 -0.0702 -0.851
-0.175  0.150 -0.381
-0.325 -0.131 -0.397
-0.0730 -0.127  0.385
 0.207 0.0723  0.381
 0.206 -0.0153 0.0572
 0.328 0.0541 -0.116
 0.147 -0.0851 0.00262
 0.354 -0.270  0.466
 0.178 -0.136 -0.668
 0.333 -0.0458 -0.865
-0.326  0.108  0.374
0.0586 0.0966 -0.768
-0.139 0.0842 -0.367
-0.252 -0.139  0.543
-0.0170 0.0563 -0.916
 0.272 -0.00804 -0.894
 0.366 -0.0449 -0.0865
 0.206 -0.190 -0.146
 0.409 -0.162 -0.165
-0.382 -0.130  0.180
-0.356 -0.00129  0.667
-0.152  0.312  0.548
-0.128  0.329 -0.211
 0.285 -0.148 -0.440
-0.216 -0.0352 -0.540
-0.325  0.107 -0.110
 0.335  0.191 -0.209
-0.292 -0.0447  0.664
 0.327 -0.142 -0.825
 0.369 -0.274 -0.628
0.0979 -0.137 -0.0669
 0.366 -0.0450  0.337
 0.308  0.189  0.466
 0.197 -0.178  0.219
 0.361 0.0722  0.446
 0.267 -0.0379  0.150
-0.0205  0.361 -0.0374
-0.109 -0.178 -0.658
0.0476 -0.140 -0.261
-0.178 -0.0749 -0.0964
-0.0605 -0.189  0.486
 0.206 -0.219 -0.846
 0.264  0.280 -0.231
 0.407 -0.157 -0.284
 0.295 -0.183 -0.204
 0.167  0.136  0.673
0.00896 0.0932 -0.802
-0.209  0.344 -0.0474
 0.381 -0.127 -0.584
 0.127 -0.124 -0.629
0.00914 -0.125 -0.639
-0.337  0.107 -0.619
 0.379 -0.139  0.525
-0.204 -0.232  0.535
-0.280 -0.252 -0.531
-0.306 0.0620 -0.887
-0.0482 -0.105 -0.323
0.0387 -0.105 -0.363
-0.129 -0.0348  0.148
 0.279 -0.164  0.407
-0.246 -0.104  0.185
 0.295 -0.0132 -0.333
-0.0718  0.144 -0.327
 0.223 -0.193  0.466
0.0983 -0.180  0.643
-0.343 -0.137 -0.776
-0.109 -0.117  0.815
 0.108 -0.0782 -0.0378
 0.187 -0.127  0.780
0.0748  0.313  0.548
 0.201  0.339 -0.176
-0.0698 0.0830  0.791
0.00909 -0.104 -0.0865
-0.109 -0.125 -0.688
-0.178  0.346 -0.136
 0.333 0.0195 -0.230
-0.320 -0.0870  0.210
-0.286 -0.0679  0.466
-0.211 -0.111 -0.648
 0.337 -0.114  0.580
 0.307  0.146  0.767
 0.227  0.125  0.428
-0.329 0.0440 -0.372
-0.243 -0.206  0.142
-0.000740 -0.148 -0.757
-0.329 -0.124  0.485
0.0880  0.348 -0.175
-0.120  0.357 -0.0280
-0.267 -0.0533 -0.885
 0.166 0.0171 -0.147
 0.225 -0.0219  0.517
-0.100 -0.135  0.179
 0.264  0.318  0.480
-0.375 -0.165  0.268
 0.137  0.133 -0.521
-0.000671  0.366  0.239
-0.00400 -0.0639  0.824
 0.265  0.337 0.0713
-0.277 0.0793 -0.825
-0.178 -0.116  0.535
-0.0829  0.186  0.697
0.0387  0.157  0.564
-0.0599  0.135  0.752
-0.309  0.112  0.466
 0.177  0.107 -0.707
 0.171 -0.213 -0.599
 0.158  0.357  0.101
-0.203 -0.116 -0.540
-0.198 -0.178  0.200
 0.187 -0.114  0.446
-0.378 -0.0661  0.677
 0.208 -0.0554 0.00890
0.0781 -0.162 -0.651
 0.315 -0.130 -0.0115
 0.217 -0.0287 -0.678
-0.225 -0.196 -0.225
 0.202 -0.196 -0.303
0.0290 -0.0985 0.0220
 0.295  0.263  0.510
-0.129 0.0818 0.0354
-0.0399  0.126  0.428
 0.410 -0.161  0.239
-0.336 -0.214 -0.779
-0.0402 0.0714 -0.263
-0.313 -0.225 -0.710
-0.307 -0.172  0.337
-0.0993 -0.138 -0.136
0.0979  0.114  0.792
 0.279 -0.114 -0.718
-0.223 0.0255 -0.563
-0.288 0.0105  0.404
 0.211 -0.207 0.0449
-0.330 0.0555  0.308
 0.224 -0.0287 -0.914
-0.324 -0.155 -0.838
-0.362 -0.0717 -0.580
-0.247 0.0238  0.765
-0.139  0.200 0.0765
 0.128 0.0137  0.417
-0.0194  0.312 -0.228
-0.0203 -0.0991 -0.261
 0.403 -0.154 0.0581
-0.251  0.341 0.0222
-0.264 -0.133 -0.603
 0.358 -0.0718 -0.580
 0.256 0.0231  0.789
-0.361 -0.133  0.701
 0.357 0.0268 -0.670
-0.351 0.0549 -0.659
0.0280  0.113  0.797
-0.244  0.187  0.688
 0.367 0.00400 -0.0273
 0.327 0.0794  0.787
 0.265 -0.0306  0.431
0.0937 -0.197 -0.284
0.0880 -0.144 -0.550
-0.0890 -0.188  0.294
0.00912 -0.113  0.639
 0.322 -0.113  0.783
-0.159 0.0125 0.0197
-0.235 -0.210 -0.562
 0.287 -0.0890 -0.667
 0.116 -0.188  0.593
-0.0675 -0.114  0.510
-0.168  0.124 -0.570
 0.320  0.173  0.604
 0.177  0.153 -0.317
-0.298 0.0835  0.804
0.0289  0.149 -0.323
 0.335 -0.219 -0.466
0.0678 -0.110 -0.509
-0.276  0.295  0.187
-0.0201  0.113 -0.693
 0.107 -0.190 -0.225
-0.280 -0.0837 -0.670
 0.364 -0.163 -0.136
-0.297  0.264 -0.220
-0.249 -0.114  0.298
0.0189  0.355  0.445
-0.178  0.137  0.770
 0.347  0.118 -0.317
 0.236 -0.122  0.699
-0.337 -0.00590 -0.412
-0.280 -0.124 -0.461
0.0284 0.0823  0.380
 0.352  0.104 -0.192
-0.0204  0.367 0.0318
-0.208 -0.137 -0.0570
0.00944 -0.0150 -0.903
 0.271 -0.113  0.357
 0.305  0.113  0.614
 0.206 -0.198  0.130
-0.283 -0.190 -0.655
-0.205  0.330  0.533
 0.374 -0.0945 -0.471
-0.323 -0.0847  0.278
-0.366 -0.0537 -0.404
0.0480 -0.124  0.684
-0.146 -0.0667  0.820
 0.157 -0.116  0.604
-0.188 -0.203 -0.898
-0.402 -0.116 -0.423
 0.346 0.0419 -0.776
-0.336 0.0871 -0.727
-0.0304  0.363  0.298
-0.353 0.0920  0.574
0.0305  0.287 -0.210
0.0978  0.121 -0.629
-0.350  0.121  0.328
 0.255 -0.201 -0.0273
0.0782  0.157  0.613
-0.317  0.121 -0.561
 0.305 0.0337  0.436
0.0683  0.137  0.663
 0.374 -0.262  0.574
-0.168 0.0931  0.424
 0.255  0.230  0.642
-0.178 -0.0454 0.0128
-0.309  0.182  0.278
-0.000738  0.136  0.673
-0.149 -0.0960 0.0507
 0.147 0.0835  0.422
-0.375 -0.165 -0.294
0.0682  0.368  0.130
-0.109  0.147  0.444
 0.329 0.0539 0.0416
-0.368 0.0140 -0.0766
 0.231 -0.177  0.586
 0.367 -0.0926 -0.637
-0.313 -0.181 -0.145
 0.247  0.124 -0.264
-0.0841 -0.0740 -0.0319
0.0453  0.280  0.584
 0.373 -0.134 -0.698
 0.246 0.0165 -0.282
-0.0204 0.0570  0.788
 0.361 -0.0416  0.199
0.0782  0.158  0.403
 0.212 -0.105 -0.945
-0.305  0.200  0.151
-0.0459 -0.124  0.101
 0.344 0.0660 -0.720
-0.000729 -0.0995  0.130
0.0582  0.362 -0.0466
-0.0510 -0.128 -0.230
 0.313  0.181  0.693
 0.360 0.0818 -0.0569
-0.308  0.170 -0.264
 0.107  0.149  0.749
-0.189 -0.195 -0.162
-0.349 -0.0647 -0.333
 0.278 -0.0202  0.255
 0.372 -0.183 -0.510
-0.255 -0.162 -0.404
 0.279 -0.204 -0.770
 0.284  0.252  0.311
 0.118 0.0790 -0.847
-0.191 0.0342 -0.914
 0.280 -0.270  0.515
-0.379 0.000778 -0.602
0.0540  0.162  0.515
-0.0201 -0.127  0.361
 0.275  0.102 -0.702
-0.333 0.0342 -0.205
-0.232 -0.0362  0.572
-0.288 0.0127 -0.352
-0.394 0.00411  0.573
 0.279 -0.0254 -0.649
-0.194 -0.119  0.179
 0.348  0.128 -0.0182
 0.312  0.157 -0.113
-0.234  0.117 -0.374
0.0387 0.0632 -0.265
 0.305 0.0731  0.554
 0.368 -0.0878 -0.126
-0.297 0.0205 -0.522
-0.220 -0.0775 -0.746
-0.356 -0.160 -0.353
 0.367 -0.126  0.200
-0.374 -0.223 -0.639
 0.316 -0.166  0.526
-0.0436  0.289  0.573
-0.366 0.0668 -0.135
 0.198 0.0615 0.0283
0.0471 -0.184  0.130
 0.167  0.163 0.0765
-0.237 0.0954 -0.765
 0.250 -0.116 -0.599
-0.307 0.0731  0.693
-0.235  0.163  0.524
-0.240 -0.118  0.638
 0.373 -0.120 -0.198
0.0387 -0.191  0.249
 0.186  0.146 -0.449
 0.375 -0.122 0.0270
 0.336 -0.134 -0.393
 0.147  0.159  0.584
-0.0993 -0.00287 -0.313
-0.0905  0.131 -0.495
-0.0865 -0.193 -0.313
-0.116 -0.196  0.544
 0.108 0.0305 0.0614
 0.394 -0.0148  0.421
 0.387 -0.0196  0.608
 0.330  0.132  0.166
-0.119 0.0942 -0.783
-0.327 0.0898 -0.215
-0.229  0.174 -0.367
-0.129  0.355  0.367
 0.332 0.0423 -0.550
-0.316 -0.130 0.0190
0.0579 -0.107 -0.432
-0.404 -0.0429  0.415
-0.178 -0.134 0.0333
 0.321 -0.224  0.406
 0.304 -0.182 -0.254
0.0681 -0.0956  0.179
 0.316 -0.129 0.0680
0.0628 -0.192  0.530
0.0683 -0.123  0.785
-0.0990  0.216 -0.346
-0.242 -0.0939  0.444
-0.198  0.153 0.0437
-0.159 0.00383  0.374
-0.171 -0.164 -0.617
 0.364 -0.00581 -0.422
 0.313  0.167  0.242
-0.329 0.0824 -0.781
 0.152  0.359  0.204
-0.122  0.252  0.614
-0.198  0.113 -0.669
-0.169  0.352  0.328
 0.206 0.0778 -0.854
-0.362 -0.124 -0.235
 0.143 -0.115 -0.936
0.0683 -0.0682  0.803
 0.317 -0.209 -0.579
-0.369 -0.0450  0.209
 0.263 -0.191  0.502
 0.312 -0.261 -0.669
-0.179  0.354 0.0711
-0.298 0.0188  0.572
-0.297 -0.182 -0.284
-0.367 -0.0451 -0.175
 0.332 0.0493  0.331
 0.222  0.350  0.196
 0.237 -0.0831 -0.0547
 0.177 -0.0174 -0.342
 0.287  0.236 0.0680
0.0485  0.124 -0.599
 0.366 -0.0745 0.0121
-0.0796 0.0341 -0.913
 0.187  0.350  0.288
 0.305 0.0238  0.663
 0.137 -0.122  0.794
0.0878  0.109 -0.707
-0.109  0.154  0.653
-0.322  0.160  0.692
 0.131 -0.133 -0.809
 0.167 -0.137 -0.0570
-0.247 -0.190 -0.304
-0.320  0.153  0.239
 0.323 0.0505 -0.365
0.0684 -0.187 -0.370
 0.355 -0.163 -0.0865
-0.180  0.205 -0.344
 0.118 -0.119  0.366
 0.177 -0.135 0.0287
 0.205 -0.204 -0.0208
0.0849  0.128 -0.270
-0.0446 -0.183  0.121
 0.207 0.0672 -0.217
-0.149 -0.216 -0.836
0.0699 -0.202 0.0302
-0.212 -0.0557 -0.639
 0.226 -0.0849  0.396
-0.356 -0.200  0.533
 0.137  0.166  0.465
 0.282 -0.193  0.120
-0.277  0.265 -0.126
 0.184  0.224  0.646
-0.356 -0.181  0.383
-0.355 -0.158  0.329
 0.147  0.125 -0.589
 0.280 -0.0533  0.781
-0.287  0.134 -0.461
0.0364 -0.163 -0.622
-0.280 -0.134  0.663
 0.336 0.0238 -0.846
-0.327 0.0913  0.111
 0.299 -0.114 -0.915
-0.326 -0.282  0.544
-0.364 0.0750 -0.0274
-0.364 0.0751 0.0417
-0.313  0.164  0.111
 0.108  0.223 0.0654
0.0287 -0.0165  0.190
-0.267  0.302  0.298
-0.0208 -0.112 -0.510
0.0289 -0.218 -0.885
 0.224 -0.136 -0.156
-0.148  0.201 0.0273
-0.371  0.158 -0.227
-0.000763 -0.112  0.535
 0.197 0.0132 -0.915
-0.294 0.0234 -0.916
-0.316 0.0437 -0.276
-0.277  0.144  0.545
-0.113  0.141 -0.383
 0.325 -0.280 -0.561
-0.302  0.210  0.456
-0.0993 -0.116  0.693
 0.364 0.0427  0.376
-0.0107  0.367  0.130
 0.256  0.335  0.377
-0.348  0.118 -0.314
-0.00103  0.175  0.411
 0.373 -0.0353 -0.649
-0.247 0.0839 -0.257
-0.239 -0.0945 -0.0964
-0.0599 -0.176  0.219
0.0387 -0.125 -0.678
 0.137 -0.115  0.525
0.00912 -0.124 -0.590
 0.108 0.0368  0.377
-0.129 0.0441  0.419
-0.0500 0.0344  0.418
-0.209 -0.0780 -0.00692
-0.0106 0.0106 -0.279
 0.373 -0.0649 -0.510
 0.193 -0.211 -0.515
-0.237  0.267  0.601
0.0485  0.367 0.0516
-0.228  0.159  0.574
-0.228 0.0822  0.381
 0.248  0.204 -0.319
 0.341  0.139  0.297
 0.176  0.350 -0.0580
-0.132  0.212  0.665
 0.210 -0.105 -0.747
 0.137 -0.0198  0.278
 0.365 -0.0614 -0.736
-0.0700 -0.195 -0.0174
-0.280 -0.0257 -0.609
 0.242  0.342  0.248
 0.279  0.153  0.807
 0.328 -0.144 -0.619
-0.225 -0.0804 -0.957
-0.369 -0.0809 -0.0668
 0.101 -0.0409 0.0114
-0.238  0.136 -0.471
 0.341 -0.0363 -0.0372
-0.152 -0.118  0.699
 0.127 -0.0811 -0.209
-0.119 0.0816  0.383
-0.119 -0.126 -0.757
-0.129  0.160  0.564
-0.319 -0.00468 -0.0179
-0.303 -0.133  0.728
0.0880 -0.174 -0.432
 0.216  0.160  0.564
 0.334 -0.0167 -0.129
-0.0303 -0.157 -0.900
-0.226 -0.0163  0.280
-0.402 -0.159 -0.401
-0.212  0.348  0.238
 0.296 0.0601 -0.877
-0.353 0.0623  0.673
-0.0106  0.141  0.761
 0.343 0.0779  0.687
-0.280 -0.00596  0.525
-0.248 -0.00888 -0.697
-0.310 0.0435  0.633
-0.169 -0.155 -0.742
 0.365 0.0435  0.278
-0.257 -0.202 -0.00754
-0.228  0.117 -0.630
-0.253  0.339  0.180
0.0681  0.130 -0.511
 0.282 -0.0497  0.668
-0.0554 -0.185  0.393
-0.326 -0.185  0.577
 0.346 0.0241  0.711
-0.0993 -0.185 -0.205
 0.118  0.111 0.0454
-0.149  0.166  0.465
 0.202 -0.213  0.564
 0.125 -0.174 -0.905
0.0462 -0.134 -0.205
 0.348 0.0331  0.478
 0.373 -0.0253 -0.570
0.0880 -0.125 -0.718
-0.374 -0.0639  0.465
0.0914  0.257  0.610
 0.177 0.00408  0.416
-0.0106 -0.154  0.173
-0.369 0.0140  0.397
-0.318  0.167  0.397
 0.328 -0.154  0.476
 0.378 -0.126 -0.0575
-0.366 -0.153 -0.540
0.0486 0.00407  0.765
 0.213 -0.0165 -0.570
 0.368 0.0139  0.209
0.0853  0.360  0.365
-0.0205 -0.189  0.653
-0.384 0.0219  0.496
 0.108 -0.136 -0.00776
 0.364 0.0668 -0.160
 0.226  0.141  0.770
-0.409 -0.165 -0.192
-0.00148  0.236 -0.330
-0.283  0.117 -0.374
0.0773 -0.111 -0.941
-0.326 0.00675  0.451
-0.334 -0.0923 -0.742
 0.249 -0.220  0.544
 0.311  0.108 -0.375
 0.266 -0.178  0.318
-0.362 -0.0415  0.341
-0.228  0.154  0.653
 0.206  0.341 -0.106
-0.228 -0.0203  0.162
 0.187 0.0648 -0.270
 0.324 0.0875  0.132
-0.350 -0.165 -0.0865
 0.345 -0.0707 -0.801
 0.202  0.349 -0.0155
 0.393 -0.0147 -0.479
 0.326 0.00188 -0.472
-0.159 -0.187 -0.274
 0.236 -0.0167  0.308
-0.0960 -0.0698  0.165
-0.0308  0.164 -0.427
 0.196 0.0338  0.791
 0.238 -0.0707  0.607
-0.375 -0.252 -0.580
 0.187 0.00315 0.0179
 0.349 -0.0926  0.111
-0.375 -0.166 -0.0274
-0.375 -0.114 -0.471
 0.331 -0.203 -0.724
-0.350 -0.164  0.186
 0.257  0.200  0.682
0.0716 -0.112 0.0373
-0.272  0.279 -0.0471
-0.217 -0.125  0.780
-0.00257 -0.169 -0.705
 0.332 -0.0235 -0.267
-0.0646  0.262 -0.294
 0.154  0.324  0.537
-0.0594 -0.134 -0.390
 0.121 -0.172  0.432
0.0486 0.0834  0.423
-0.0204 0.0833  0.423
-0.198  0.163  0.450
 0.354 -0.163 -0.258
 0.285 0.0840 -0.788
 0.186 -0.189 -0.225
-0.139  0.176  0.418
-0.224 -0.0101 0.0116
 0.229 -0.127 0.0271
 0.187 -0.195 -0.0964
-0.205 -0.193 -0.113
-0.268 -0.195 -0.187
-0.248 -0.146  0.490
 0.219 -0.0388 -0.455
-0.107 -0.164  0.641
-0.149 -0.166 -0.896
-0.172 -0.203 -0.560
-0.345 0.0140  0.732
 0.148  0.302 -0.230
-0.0237 -0.0912 -0.954
 0.341  0.119  0.344
-0.0205 -0.127  0.780
0.0889 -0.197 -0.152
 0.236 -0.119  0.802
 0.305 0.0534  0.604
 0.187  0.128  0.805
-0.317 -0.131 -0.191
 0.195 -0.197  0.627
-0.139 -0.127  0.780
-0.345 -0.133  0.583
0.0880  0.148 -0.363
-0.119 -0.150  0.745
 0.235 0.0223 -0.597
-0.0444 -0.114 -0.165
-0.263  0.300 -0.161
-0.279 -0.0213  0.288
 0.321 -0.0770  0.287
-0.320 -0.239  0.420
 0.157  0.343  0.495
 0.317 -0.0498  0.535
-0.218 -0.125  0.358
-0.110 -0.198  0.160
 0.147  0.133  0.731
 0.327 -0.0346  0.665
 0.362 0.0823  0.229
 0.231 -0.107  0.179
-0.350 0.00314  0.259
 0.180  0.170  0.710
-0.119 -0.174 -0.461
 0.312 -0.181  0.229
0.0603 -0.145  0.176
-0.188 -0.0771  0.397
 0.283 -0.201 -0.458
-0.147 0.0249 -0.892
 0.211  0.349 0.0845
-0.209  0.283 -0.236
 0.205 -0.114 -0.441
-0.144  0.358  0.151
 0.321 0.00503 -0.0374
 0.118 0.00400 -0.300
 0.349 -0.0621  0.252
-0.302  0.214  0.635
 0.201  0.218 0.0509
 0.171 -0.183 -0.560
 0.314 -0.00813  0.419
0.0782 0.0206  0.416
0.0605 -0.194 -0.0638
 0.349 -0.164 0.00275
-0.336 -0.209  0.657
 0.174 0.0325 -0.880
 0.354 -0.164  0.318
-0.177  0.129 -0.501
 0.226  0.162  0.710
-0.299  0.244  0.545
-0.0796 -0.215 -0.895
 0.128  0.149 -0.421
-0.000749  0.152  0.819
 0.189 -0.0672  0.794
 0.108 -0.219 -0.866
-0.350  0.128 0.0122
-0.337 0.0270 -0.871
-0.237  0.337 -0.146
-0.139 0.0931  0.789
-0.337  0.134 -0.392
0.0818  0.349  0.479
-0.352 -0.0309  0.159
-0.0895 -0.0391 -0.900
-0.289 -0.214  0.516
 0.313 -0.159  0.377
-0.364 0.0737 -0.184
-0.280 -0.0244 -0.460
-0.329 -0.0945  0.564
 0.366 -0.124  0.265
 0.322 -0.0659  0.364
-0.309 -0.157  0.449
-0.336 -0.195 -0.452
 0.344 -0.124 -0.437
-0.248 -0.192  0.576
 0.181 -0.0434 -0.919
 0.108 0.0816  0.383
 0.118  0.129  0.395
-0.214  0.349 -0.00270
-0.237 -0.123 -0.167
-0.370 -0.272  0.575
-0.239 0.0215 -0.918
 0.313 -0.203 -0.627
 0.267  0.170 -0.355
-0.250 -0.0362  0.427
 0.289  0.222 -0.0373
0.0643 -0.0848 -0.126
-0.328 0.0644  0.238
 0.365 0.0336 -0.382
-0.142  0.115 -0.270
-0.329  0.181 -0.303
-0.287  0.113 -0.620
 0.305  0.113  0.505
0.0304 0.0230 -0.915
-0.276  0.311  0.466
-0.256  0.319  0.526
-0.0816  0.359  0.391
-0.334 -0.0752  0.670
-0.376 -0.0945  0.407
 0.128  0.156 -0.211
 0.278  0.256 -0.168
 0.313 -0.201  0.489
-0.298 -0.143  0.375
 0.357 0.0516  0.633
 0.238 -0.177 -0.404
-0.159 -0.125 -0.678
 0.364 -0.166  0.180
 0.236 0.0629  0.794
0.0684 -0.0738 -0.170
 0.176  0.357 0.0417
-0.168 -0.0160 -0.339
 0.397 -0.156 -0.415
 0.285  0.134  0.703
 0.193  0.351  0.335
-0.238  0.343  0.130
 0.137  0.146  0.505
-0.0798  0.130 -0.540
-0.342 0.0342  0.180
 0.324 0.0859 -0.448
 0.348  0.120 -0.254
-0.0683 -0.0459 0.0143
-0.109 0.0139  0.765
 0.317 -0.00743  0.781
-0.379 -0.131  0.541
 0.197 0.0977 -0.766
-0.0301 -0.113  0.446
 0.409 -0.165  0.101
-0.249 -0.144  0.239
 0.107  0.353 -0.135
-0.346 0.00535 -0.698
 0.386 -0.0401  0.648
-0.325 -0.0133 -0.349
-0.320 0.0954  0.416
 0.339 -0.0158 -0.175
 0.142 -0.186  0.505
 0.226 -0.126  0.464
-0.307 -0.0607 -0.903
-0.0903  0.358 -0.0678
 0.285 -0.000543 -0.685
 0.341 0.0530  0.751
 0.192  0.104 0.0416
 0.232  0.301  0.555
 0.177 -0.176  0.328
 0.138 0.0739 0.0332
-0.209 0.0922 0.0352
 0.137 -0.188 -0.127
-0.155  0.179  0.699
 0.147 -0.198 0.0516
-0.287 0.0536  0.414
 0.256 -0.0156  0.768
-0.368 0.00413 -0.165
-0.358 0.0904 -0.264
-0.0893  0.365 0.0516
 0.356 -0.0997 -0.757
-0.369 0.0138 0.0614
-0.0106 -0.108 -0.432
-0.335 0.00919 -0.241
 0.367 -0.0156  0.288
 0.226 -0.161 -0.904
 0.305 -0.264 -0.517
-0.316 -0.133 -0.0250
-0.0513 -0.194  0.589
-0.0599 -0.126 -0.728
-0.183 -0.0414 -0.918
 0.167 -0.115  0.485
 0.310 -0.166 -0.116
 0.118 -0.179  0.189
 0.145 0.0964 -0.173
 0.196  0.147  0.496
0.00911  0.369  0.170
 0.238 -0.130 -0.639
-0.282 -0.0551  0.229
 0.247 -0.124  0.219
 0.108 -0.125 -0.668
-0.119 0.0764 -0.874
0.0978 -0.0214  0.298
0.0683 -0.0204  0.219
0.0453 -0.149 -0.903
 0.157 0.0506  0.768
-0.374 -0.233  0.495
 0.127 -0.172 -0.452
 0.313 -0.154 0.0318
 0.187 -0.0758 -0.175
0.0287 -0.114  0.584
-0.237  0.115  0.791
0.0458 -0.164 0.0909
0.0975  0.365  0.190
-0.349 -0.0740 -0.254
-0.203 -0.144  0.564
 0.289 -0.0903 -0.514
-0.208 0.0432  0.377
-0.377 -0.0317 -0.447
 0.226 -0.121  0.624
 0.275 -0.219 -0.856
-0.369 -0.252 -0.502
-0.319 -0.134  0.180
 0.276 0.00362  0.596
-0.109 -0.177  0.199
0.00906 -0.144  0.684
-0.338 -0.0701  0.373
-0.297 -0.214 -0.462
 0.278 -0.0355 -0.540
-0.0744 0.0333  0.784
-0.215 0.00354 -0.879
-0.0929  0.312  0.546
 0.147  0.183 0.0300
-0.324 0.0840 -0.530
 0.308  0.179 0.0318
 0.199 -0.178 -0.461
-0.351 -0.164 0.0976
0.0692 -0.113  0.415
-0.198 0.0218 -0.288
-0.0536 -0.143 -0.343
-0.297 -0.154 -0.887
-0.404 -0.145 0.0417
-0.374 -0.0848 -0.727
0.0387  0.136  0.762
-0.395 -0.147  0.357
-0.0500 -0.161 -0.597
 0.323 -0.0744  0.474
0.0979 -0.0745 0.0539
-0.337 0.0233  0.367
-0.337 -0.0953  0.773
0.0124  0.171  0.711
 0.236  0.133 -0.502
-0.201  0.243  0.627
-0.245 -0.123 -0.0147
-0.284 -0.186 -0.728
 0.368 0.0335  0.140
-0.346 -0.0933 -0.407
 0.187 -0.216 -0.885
-0.325 -0.201 -0.826
 0.344 0.0704 -0.652
 0.328 0.0539 -0.0668
-0.305  0.186 0.0417
-0.217  0.127 -0.589
 0.256 -0.194 -0.234
-0.271 -0.0780 -0.954
-0.0476 -0.173 -0.0964
 0.282 -0.00382 -0.479
-0.159 -0.0352  0.790
-0.339  0.101  0.702
-0.113 -0.134 -0.186
-0.286  0.246  0.387
-0.309 0.0435  0.726
0.0387  0.142  0.436
-0.335 -0.115 -0.827
-0.347 0.0691  0.531
-0.280  0.268  0.259
-0.264 0.00422  0.595
-0.178  0.146  0.505
 0.237 -0.0267 -0.716
 0.357 0.0429  0.584
-0.357 0.0777 -0.461
 0.324 0.0737 -0.256
 0.287 -0.0592 -0.450
 0.227 -0.136 -0.771
 0.131 -0.173 -0.408
 0.323 0.0966 -0.0737
-0.351 0.0650 -0.609
-0.151 0.00411  0.772
-0.303  0.198  0.194
-0.245 0.0267 -0.355
-0.222 -0.0791 -0.435
-0.334 0.0310  0.134
0.0913 -0.0394  0.148
-0.0994  0.114  0.792
 0.102 -0.133  0.179
 0.310  0.174  0.288
-0.178 -0.0296  0.149
-0.135 -0.154  0.449
 0.271 -0.144 -0.783
-0.237 -0.122  0.699
-0.296 0.00410  0.768
-0.336 -0.257 -0.674
 0.142 0.0930 -0.784
-0.119 -0.190 -0.107
 0.266  0.109 -0.660
 0.275 -0.182 -0.891
0.0444 -0.144 -0.146
 0.305  0.176 -0.276
 0.107 -0.191 -0.333
-0.287  0.184 -0.329
 0.333 0.0238 -0.412
 0.295  0.118 -0.570
0.0749  0.221  0.652
 0.374 -0.0223 -0.703
-0.363 0.0752  0.288
-0.119  0.112 -0.681
-0.188 0.0426 0.0255
 0.127 -0.191  0.278
-0.0312 -0.206 -0.905
 0.288 -0.103  0.609
-0.0895  0.112  0.390
-0.332  0.146  0.299
 0.114 -0.0654  0.790
-0.0453 -0.144 0.0318
-0.226  0.346  0.278
 0.244  0.345  0.160
 0.284 -0.123 -0.406
 0.256 -0.185  0.698
-0.0993 0.0778 -0.259
 0.101  0.198  0.679
 0.250 -0.200 -0.590
-0.158 0.0137  0.417
-0.229 -0.175  0.465
 0.225 -0.0823 -0.208
 0.340  0.106  0.549
-0.366 -0.165 -0.244
-0.206 -0.197 -0.263
-0.0496 -0.0245  0.365
-0.291  0.229 -0.0372
 0.127 -0.124 -0.580
 0.209 -0.0653 -0.658
-0.235 -0.229  0.498
 0.134  0.359 0.0383
-0.178 0.0809 -0.828
-0.356 -0.0680  0.538
 0.356  0.153 -0.206
0.00906 -0.115  0.174
 0.349 0.0807 -0.569
-0.218 0.0341  0.793
 0.333 -0.0337 -0.737
-0.346 -0.258  0.611
 0.273 -0.0776  0.239
 0.305 -0.182 -0.156
0.0192  0.292 -0.255
-0.301  0.199 -0.116
0.0644 -0.123 -0.0964
 0.373 -0.156  0.477
0.0669 0.0322 0.0430
-0.297 -0.165 -0.579
 0.281  0.243 -0.0767
 0.308 0.0533  0.485
4.52e-05  0.360 -0.0850
 0.205 -0.116 -0.698
-0.367 0.0678  0.209
-0.159 0.0970 0.0720
 0.304 -0.0486 -0.895
-0.374 -0.133 -0.165
-0.355 -0.173 -0.639
-0.0403  0.346 -0.178
 0.254 0.0164 -0.513
 0.127 -0.0771  0.397
 0.367 0.0335 0.0516
-0.149 -0.114  0.407
-0.267 -0.112  0.818
 0.247 -0.134  0.288
 0.258  0.321 -0.0669
-0.307  0.103  0.624
 0.197 0.0232  0.375
-0.237 0.0755 -0.854
 0.203 -0.208 -0.625
-0.323  0.102 -0.0668
-0.198 -0.117  0.623
0.0979 -0.153  0.351
 0.374 -0.144  0.653
-0.0402 -0.143  0.747
-0.289  0.236 0.0614
 0.118 -0.113  0.436
-0.149 -0.0197  0.258
-0.119  0.362 0.0221
 0.304  0.162  0.505
-0.000738 -0.107 -0.333
-0.341  0.131  0.564
-0.0444  0.104  0.387
-0.340 0.0156 -0.482
 0.339 -0.157  0.579
 0.246  0.121 -0.589
 0.178 -0.136 -0.737
-0.344 -0.00379 0.0210
-0.325 -0.0520 -0.737
 0.288 0.0216  0.515
 0.285 -0.0664 -0.742
0.0510 -0.181 -0.123
-0.370 0.0423 -0.382
 0.305 -0.241  0.632
-0.148  0.346 -0.165
-0.165 -0.103 -0.944
-0.343  0.135 -0.136
-0.0498 -0.107 -0.481
-0.0599 -0.00578  0.416
-0.276  0.291  0.567
0.0381 -0.0960  0.150
 0.147  0.152 -0.288
 0.173 -0.228 -0.547
-0.346 0.0337 -0.797
 0.236 0.0441  0.419
-0.307 0.0435  0.456
-0.332 0.0448 -0.0767
 0.362 0.0749  0.350
-0.271  0.326 -0.0666
-0.192 -0.148 -0.517
-0.149  0.352  0.416
-0.0435  0.157  0.817
-0.0894 -0.172 -0.432
-0.168  0.157  0.811
-0.317 -0.147 -0.356
-0.375 -0.223 -0.530
0.0285 -0.100 0.0810
-0.232  0.339  0.437
-0.0307 -0.101 -0.0766
 0.275  0.272  0.144
-0.0894 -0.193 0.0516
 0.108 0.0139  0.765
-0.272 -0.0107 -0.894
-0.251 -0.164  0.733
 0.356 0.0982 0.00879
 0.256  0.121  0.388
-0.252 -0.0639  0.635
 0.214 -0.0657  0.526
0.0782 -0.176  0.199
 0.177 -0.200 -0.0570
 0.137 0.0727 -0.888
-0.152 -0.144  0.488
-0.306 -0.182 -0.195
 0.302  0.141  0.463
0.0289  0.148 -0.401
 0.196 -0.133 -0.805
 0.104  0.172 0.0737
 0.327  0.123 -0.165
-0.371 -0.135 -0.390
 0.147 -0.0773 -0.0572
-0.149 -0.0821 -0.0189
-0.333 0.0427 -0.540
-0.138  0.222 -0.335
0.0186 0.0331  0.372
 0.357 0.0541 -0.521
 0.167 0.0816  0.383
-0.188 -0.219 -0.846
-0.257 0.0259 -0.542
-0.188 -0.0351 0.0556
-0.139 -0.196 -0.0372
 0.182  0.123 -0.618
 0.108 -0.194 -0.0666
 0.206 -0.184  0.173
-0.119 -0.114  0.584
0.0879 0.0544 -0.168
-0.335 0.0632  0.759
 0.367 0.0241 -0.343
-0.0105 -0.197  0.555
-0.346  0.113  0.170
-0.307  0.103  0.564
 0.326  0.113  0.269
-0.0500  0.149 -0.382
 0.335 -0.0587 -0.454
-0.129 -0.163 -0.613
-0.280 -0.203  0.426
-0.328 0.0158 -0.657
-0.169  0.336  0.502
-0.0988  0.342 -0.185
-0.307 -0.00584  0.663
 0.372 -0.134  0.582
 0.118 -0.138 -0.116
-0.310 0.0336  0.673
-0.0887 0.0789 0.0302
-0.0501 -0.178 -0.658
 0.176 -0.189 -0.185
-0.000724 -0.219 -0.856
 0.177 -0.0261  0.151
0.0662 -0.0625 0.00978
0.0289  0.360  0.357
 0.292  0.214 0.0120
 0.202 -0.174  0.495
-0.299  0.216  0.347
-0.0993 0.0747 -0.365
-0.244  0.151  0.707
 0.239 -0.132  0.557
0.0745 -0.195  0.431
0.0748  0.176  0.707
-0.0800  0.364  0.180
-0.119 0.0134  0.374
-0.149 -0.187 -0.185
0.0289 -0.161 -0.582
-0.367 0.0597  0.397
 0.279 -0.0633  0.356
