ply
format ascii 1.0
element vertex 2048
property float x
property float y
property float z
end_header
0.0352  0.605 -0.730
-0.0483 -0.382  0.794
 0.190 -0.647 -0.406
0.0254  0.619  0.361
-0.0352 0.0585 -0.165
-0.0394 -0.138 -0.822
 0.209 -0.648  0.247
0.00442  0.217  0.806
0.000719  0.618 -0.183
-0.0434 -0.0595  0.356
-0.0519 -0.394 -0.0488
-0.0238  0.220 -0.560
-0.0732 -0.343 -0.469
0.00361  0.615  0.780
-0.0182  0.301  0.139
-0.0584 -0.393  0.435
-0.0182  0.301  0.480
 0.198 -0.608 -0.0757
-0.0117 -0.0841  0.687
0.0172  0.328 -0.282
-0.0523 -0.642 -0.228
-0.0107 -0.0573 -0.434
-0.0517 -0.637  0.113
-0.0477 -0.121 0.0588
0.00354  0.319 -0.820
0.0322  0.544 -0.461
0.0341  0.570 0.0857
-0.0584 -0.393 -0.739
-0.0331 -0.648  0.373
-0.0527 -0.193 -0.210
-0.0747 -0.354  0.193
-0.0435 0.0930 -0.766
 0.118 -0.479  0.103
-0.00984  0.516  0.561
-0.000403 0.0772  0.175
0.0217  0.394 -0.0667
-0.0336 0.0799  0.534
-0.0195 -0.183 -0.614
-0.0198 -0.201  0.507
0.0902 -0.274 0.0886
-0.0456 -0.392 -0.264
0.0234  0.418 -0.641
0.00323  0.129 -0.353
-0.0214  0.409  0.740
0.0247  0.436  0.283
-0.0248  0.207 -0.0391
 0.101 -0.290 -0.107
0.00464  0.149  0.355
0.00288 -0.634 -0.411
0.0207 -0.648 -0.0578
-0.0364 0.0407 -0.587
-0.0249 0.0411  0.813
-0.0721 -0.385  0.618
-0.0132  0.373 -0.470
-0.0192 -0.192  0.238
 0.128 -0.606 -0.246
-0.0606 -0.206  0.804
 0.101 -0.461 -0.111
 0.128 -0.648 0.0947
 0.146 -0.634  0.403
0.0129  0.267  0.642
-0.00447 0.0326 0.00499
0.0291  0.498 -0.291
-0.0540 -0.210 -0.372
0.0566 -0.605  0.238
-0.0158  0.474 -0.807
-0.0430 -0.0533 -0.281
0.00838  0.203 -0.192
-0.0126 -0.0841 -0.0937
-0.0101 -0.0483 -0.704
-0.0565 -0.246 -0.0309
-0.00765  0.452  0.427
0.000851 0.0950  0.678
0.00963  0.221 -0.704
0.00540  0.620 -0.587
-0.0188  0.292  0.328
-0.0120  0.543 -0.0578
-0.0237 -0.256  0.373
-0.0558 -0.237  0.642
-0.00319  0.613  0.220
-0.0247 -0.255 -0.739
-0.00882  0.435 0.0767
-0.0434 -0.0595  0.508
-0.0299 -0.344 -0.605
-0.0213  0.256 -0.399
-0.00981 -0.0573  0.220
0.0332  0.611  0.648
 0.126 -0.372 0.00498
0.0456 -0.533 0.00498
0.0254  0.619 -0.348
0.0217  0.394  0.606
-0.0295 -0.335 0.0678
-0.0283 -0.308 -0.156
-0.0270  0.175 0.0947
0.00776  0.194  0.229
-0.00944  0.426 -0.192
-0.0326 0.0948 -0.470
-0.0337 -0.381  0.311
0.00562  0.620  0.489
-0.0508 -0.165 -0.488
-0.00290 0.0414  0.301
-0.0120 -0.0751 -0.560
0.0106  0.498  0.813
-0.0182  0.301 -0.130
-0.0558 -0.237  0.131
-0.0252  0.201  0.544
-0.0145  0.194 -0.822
-0.0426 -0.0757  0.811
-0.0212 -0.0220 -0.820
-0.0716 -0.309  0.516
-0.0170  0.319 0.0140
 0.223 -0.645 -0.183
0.0291  0.498  0.687
-0.0522 -0.641  0.256
-0.0370 0.0317  0.426
-0.00628  0.472 -0.542
-0.0176  0.310 -0.632
0.0278  0.481  0.175
-0.0728 -0.327 -0.354
 0.101 -0.648 -0.139
-0.00731 -0.0217  0.113
 0.223 -0.633 0.0319
-0.0395 -0.00395  0.615
-0.0113  0.400 -0.363
-0.0377 0.0228 -0.363
0.0655 -0.380  0.103
0.00272  0.122 -0.650
0.00823  0.328  0.809
0.0386 -0.648 -0.309
 0.223 -0.633 -0.291
-0.0252 -0.264 -0.524
-0.0496 -0.147  0.418
0.0293 -0.327 -0.0249
-0.0264 -0.282 -0.264
0.0291  0.498 -0.712
-0.0483 -0.130  0.597
-0.0232  0.229 -0.291
0.0459 -0.551 -0.101
-0.0267 -0.300  0.731
0.0505 -0.578  0.102
0.00178  0.113 -0.0757
 0.217 -0.622  0.142
-0.0248  0.207  0.436
-0.0335  0.199  0.711
0.0566 -0.605  0.346
-0.0555 -0.157 -0.706
-0.0217  0.400 -0.731
-0.0332 0.0861 -0.264
-0.0113  0.525  0.319
0.0302  0.515 -0.147
 0.128 -0.648 -0.0130
-0.0687 -0.325 -0.812
-0.0261 -0.291  0.256
-0.0156  0.339  0.239
-0.0517 -0.179 -0.111
 0.126 -0.470 -0.0130
-0.0520 -0.645 -0.127
-0.0485 -0.648 0.0139
-0.0170 -0.147 -0.300
0.0197  0.364  0.391
 0.101 -0.609 -0.387
0.00540  0.620 0.00499
-0.0420 -0.0397 -0.183
0.0309 -0.230 -0.0728
-0.0483 -0.130  0.166
0.0470 -0.377 -0.107
-0.00529 0.00840  0.722
0.0311  0.527 -0.613
0.0309 -0.230 0.0259
-0.0289  0.301  0.723
0.0211  0.570 -0.819
0.0456 -0.425 0.0139
0.0215  0.394  0.498
 0.223 -0.633  0.346
-0.0408  0.131  0.785
0.0140  0.284 -0.488
-0.0364 0.0407 -0.686
-0.0186 -0.183  0.722
0.0259  0.454 -0.434
0.0329  0.553  0.426
0.0212  0.388  0.166
-0.0522 -0.641 -0.336
-0.0287  0.301 -0.731
0.0207 -0.605 -0.183
-0.0703 -0.313 -0.683
0.0272  0.472 -0.0129
-0.0513 -0.173  0.329
-0.00571 0.0148 -0.0847
-0.0643 -0.392 -0.144
-0.0332 0.0861 0.0767
0.00272  0.122  0.453
 0.126 -0.569 0.0319
0.00651  0.176 -0.479
-0.0126  0.382 -0.560
0.0254  0.619 -0.0967
 0.119 -0.648  0.184
0.00588  0.167  0.624
0.0354  0.588 -0.264
-0.0314  0.113  0.256
 0.126 -0.560 -0.0578
-0.0643 -0.392  0.707
-0.0527 -0.231 -0.820
 0.128 -0.648  0.283
0.00540  0.620 -0.497
-0.0301  0.131 -0.569
0.0153  0.302  0.561
0.0316  0.535 -0.372
-0.0458 -0.0938 -0.363
-0.0149 -0.606  0.184
-0.0728 -0.327  0.373
-0.0496 -0.147 -0.0309
-0.0107 -0.0573 0.0140
0.0190  0.355 0.0857
-0.00623 0.00840 -0.488
0.0297 -0.648 0.0588
-0.0145 -0.111 -0.219
-0.0686 -0.389 -0.545
-0.0110  0.525 -0.219
-0.0407 -0.390 -0.408
-0.0716 -0.309 -0.0847
-0.0643 -0.392  0.528
-0.00778  0.603  0.570
-0.0267 -0.300  0.444
-0.0280 -0.317  0.597
0.0291  0.498  0.489
-0.0585 -0.264 -0.434
-0.0686 -0.389  0.119
 0.126 -0.389 -0.0758
-0.0107  0.408 -0.273
0.0184  0.346 -0.201
-0.0546 -0.219 0.0498
0.00464  0.149 0.0229
0.0172  0.328 -0.408
-0.0129 -0.102  0.292
-0.0553 -0.0759 -0.766
0.0109  0.238 0.0588
0.0971 -0.284 -0.00997
-0.0571 -0.255 -0.623
0.0190  0.355  0.678
-0.0295  0.139 -0.156
0.0158  0.400 -0.815
-0.00571 0.0148 -0.237
-0.0114  0.552 -0.542
0.0140  0.284 -0.0578
-0.0445 -0.284  0.813
-0.0414 -0.0307 -0.632
-0.0113  0.525  0.229
-0.00981 -0.0573  0.435
-0.00825  0.597 -0.416
-0.0113  0.525 0.0319
 0.164 -0.605 -0.336
0.000822  0.618  0.139
0.0102  0.230  0.157
-0.0101  0.570 -0.677
-0.00529 0.00840  0.498
-0.0248  0.207  0.311
-0.0721 -0.385 0.0259
0.0113  0.412  0.810
-0.0741 -0.345 -0.210
0.0124  0.261  0.391
0.0456 -0.461 -0.0578
0.0386 -0.648  0.148
-0.0229 -0.244  0.571
-0.0248  0.207 -0.120
-0.0126  0.534  0.749
-0.00628  0.472 -0.0847
 0.155 -0.605 -0.174
-0.0289  0.148  0.166
-0.0534 -0.0491  0.740
0.0456 -0.506 0.0767
-0.0686 -0.389 -0.653
-0.0356  0.147 -0.713
-0.00882  0.435  0.669
0.0190  0.355  0.310
0.0129  0.267  0.248
-0.0716 -0.309  0.660
-0.0164 -0.138 -0.416
0.0359  0.597  0.283
0.0190  0.355 -0.686
0.0129  0.267 -0.236
-0.0189 -0.174  0.113
-0.0120  0.543  0.642
-0.0597 -0.138  0.767
0.0272  0.472  0.364
-0.0150 -0.605  0.310
-0.00571 0.0148 -0.748
0.00776  0.194 -0.632
-0.00103 0.0682  0.373
-0.0364 0.0407  0.229
-0.0150 -0.131  0.481
-0.0125  0.534  0.131
-0.0716 -0.309  0.131
0.00464  0.149 -0.264
-0.0336 0.0799  0.615
 0.155 -0.605  0.337
-0.0119  0.391 0.00498
-0.0176  0.310 -0.551
-0.00628  0.472 -0.354
-0.00134 0.0772 -0.408
-0.0180 -0.174  0.651
-0.0188  0.292 -0.336
 0.126 -0.416 0.0678
-0.0132  0.373 -0.130
-0.0565 -0.246  0.310
0.0393 -0.645  0.403
-0.0276  0.166 -0.416
0.0422 -0.353 0.0409
 0.118 -0.551  0.103
0.0566 -0.648 -0.228
-0.0477 -0.121 -0.156
-0.0209 -0.243 -0.120
-0.0220 -0.219 -0.300
0.00263 -0.306 -0.0877
-0.0241 -0.249  0.193
0.0207 -0.282  0.104
-0.0292 -0.326 -0.739
-0.00882  0.435  0.220
 0.110 -0.648 -0.318
-0.0439 -0.0670 -0.497
-0.0741 -0.345  0.265
-0.0477 -0.121 -0.632
0.0354  0.588  0.722
-0.0104 -0.0663  0.570
0.000229 0.0861  0.749
-0.0107  0.408  0.346
0.0253  0.445 -0.757
-0.0706 -0.297 0.0147
-0.0703 -0.313 -0.557
0.0266  0.463  0.588
-0.0104 0.0593 -0.817
-0.0540 -0.210 -0.560
-0.0420 -0.0397  0.283
0.0109  0.238  0.489
-0.0138  0.364  0.552
-0.0516 -0.637 -0.0578
-0.0205 -0.210  0.426
-0.0321  0.256 -0.784
 0.121 -0.340 0.0994
-0.0201 -0.192 -0.766
-0.00529 0.00840  0.175
-0.0108  0.561 -0.757
-0.0149 -0.606 -0.273
-0.0226 -0.227 -0.677
-0.0326 0.0948 0.00498
0.0341  0.570  0.175
-0.0308  0.274  0.785
-0.0672 -0.246  0.723
0.00323  0.129  0.562
 0.182 -0.648 -0.130
-0.00259 0.0594 -0.318
-0.0101  0.570 -0.318
 0.182 -0.605  0.202
 0.173 -0.606 0.0678
-0.0402 -0.0129 -0.542
0.00409  0.142 -0.783
0.0253  0.445 -0.139
0.00276 -0.605 -0.345
0.0335  0.562 -0.0129
-0.0274 -0.309  0.328
-0.00888 -0.0305 -0.336
-0.00134 0.0772 -0.542
-0.0145 -0.125  0.230
-0.0177 -0.156 -0.551
0.0190  0.355 -0.757
-0.0425 -0.0471 -0.0481
0.0109  0.238  0.740
-0.0322 -0.376 -0.326
-0.00765  0.452  0.517
-0.0735 -0.336 -0.282
0.0291  0.498 0.0947
-0.0389 0.00501  0.346
-0.0108  0.561 -0.121
-0.00778  0.603  0.418
0.00276 -0.606 -0.121
0.00900  0.212 -0.345
-0.0117 -0.0841  0.131
-0.0439 -0.0670  0.633
0.0265  0.561  0.807
 0.182 -0.605 -0.0130
0.0456 -0.587 -0.0309
-0.0292 -0.326 -0.408
0.0505 -0.443  0.102
 0.101 -0.605  0.139
-0.0247 -0.255 -0.192
0.0193  0.621 -0.650
-0.0320  0.104  0.328
-0.0377 0.0228 0.0678
0.0341  0.570  0.534
0.00464  0.149  0.722
-0.0289  0.148  0.507
-0.0252 -0.264 -0.345
-0.0741 -0.345  0.749
0.0259  0.454 -0.237
 0.126 -0.506 0.0409
0.0297  0.507 -0.775
 0.110 -0.524 -0.111
0.0266  0.463 -0.596
-0.0213  0.256 -0.174
-0.0220 -0.219 -0.470
 0.198 -0.608 -0.228
0.0291  0.498  0.274
-0.0108  0.561  0.471
-0.0243  0.213  0.373
-0.00866  0.509 -0.659
-0.0535 -0.130  0.698
0.0129  0.267 -0.586
-0.0176  0.310  0.418
-0.0156  0.339 -0.0660
-0.0383 0.0139 -0.291
0.0835 -0.648 -0.0578
-0.0123 -0.0930  0.758
-0.0150 -0.131  0.544
 0.101 -0.648  0.355
0.0924 -0.605 -0.183
-0.0101  0.516  0.400
0.0117 -0.648  0.229
-0.0170  0.319  0.624
-0.00352 0.0325  0.561
-0.0571 -0.255  0.489
-0.0149 -0.606 0.0678
-0.0154 -0.123 -0.766
-0.0434 -0.0595 0.0685
-9.19e-05 0.0951 -0.721
-0.0186 -0.183  0.579
-0.0439 -0.382 -0.798
0.0178  0.337  0.740
-0.0455 -0.392  0.238
 0.110 -0.587 -0.111
0.0745 -0.606 -0.282
-0.00755  0.503 -0.485
0.0566 -0.648 -0.372
-0.0686 -0.389  0.361
-0.0145 -0.111 -0.704
0.00900  0.212  0.669
-0.0395 -0.00395 -0.426
 0.223 -0.645 -0.354
0.0234  0.418 -0.488
0.00272  0.122  0.122
-0.0314 -0.362 -0.103
-0.00755  0.503 -0.423
0.0335  0.562  0.606
-0.0299 -0.344  0.687
-0.0220  0.247  0.597
-0.0496 0.00510  0.767
-0.0700 -0.286 -0.766
-0.0189 -0.174 0.0319
-0.0292 -0.326 -0.0399
0.0212  0.388 -0.416
0.0335  0.562 -0.201
 0.101 -0.648 0.0409
-0.0305 -0.353 -0.515
0.00526  0.158  0.292
-0.0238  0.220 -0.452
-0.0314  0.113 -0.210
-0.0135 -0.111  0.364
0.0253  0.445  0.749
0.00540  0.620 0.0678
-0.0370 0.0318  0.678
-0.00290 0.0414  0.113
0.0124  0.261 -0.649
-0.0365  0.193 -0.766
0.0190  0.355  0.453
0.0322  0.544  0.355
-0.0340 0.0737 -0.103
-0.0735 -0.336  0.435
-0.0305 -0.353  0.498
0.0354  0.588 -0.542
-0.0289 -0.317  0.202
0.0178  0.337 -0.345
-0.0558 -0.237  0.247
0.00238 -0.221 0.0767
-0.0522 -0.185 -0.425
 0.118 -0.325 -0.0638
 0.173 -0.605  0.265
-0.00623 0.00840 -0.174
-0.00708  0.459 -0.689
0.0386 -0.648 -0.139
 0.164 -0.648 -0.264
-0.0207 -0.0181  0.812
-0.0213  0.256 0.0140
-0.0352 0.0585  0.480
-0.00888 -0.0305 -0.121
0.0184  0.346 -0.524
-0.0220  0.247  0.202
-0.00571 0.0148 -0.632
-0.0660 -0.284 -0.309
0.0124  0.261 -0.748
0.00526  0.158 -0.112
0.0140  0.284 0.0947
-0.0352 0.0585 -0.0399
-0.00882  0.435 -0.0399
-0.00765  0.452  0.140
0.00552  0.616 -0.788
-0.0514 -0.0203 -0.748
-0.0106 -0.301 0.0259
-0.0276 -0.282 -0.809
0.0456 -0.389 -0.0309
-0.0277 -0.299 -0.479
-0.0533 -0.202  0.175
 0.164 -0.648  0.148
-0.0496 -0.147 -0.246
0.0241  0.427 -0.327
-0.0629 -0.277 0.0678
-0.0431 -0.0338  0.686
-0.0139 -0.102 -0.0219
-0.0258  0.193 -0.237
-0.0283  0.157  0.669
0.0153  0.302  0.202
 0.128 -0.648 -0.201
-0.0314  0.113  0.409
-0.0660 -0.284 -0.219
-0.0382 -0.0815 -0.821
0.0117 -0.648  0.337
-0.0446 -0.0760 -0.668
 0.200 -0.648 0.0947
-0.00614 -0.00395  0.247
-0.0404 -0.617 -0.174
-0.0571 -0.255  0.426
0.00588  0.167  0.409
0.00651  0.176 -0.578
0.0178  0.337  0.507
-0.0237 -0.256  0.768
0.00277 -0.606  0.122
-0.0255 -0.282  0.678
-0.0164 -0.138 -0.0757
-0.0421  0.113  0.723
-0.0520 -0.645  0.169
-0.0213  0.256  0.534
-0.0161  0.484  0.724
-0.0180 -0.174  0.785
-0.0189 -0.174 -0.156
-0.0458 -0.392 -0.470
-0.0283  0.157 -0.309
-0.0471 -0.112 -0.533
 0.111 -0.305 0.0468
0.0241  0.427 0.0319
 0.110 -0.606  0.220
0.0207 -0.606 0.0229
-0.0201 -0.192 -0.0488
 0.101 -0.353 -0.111
-0.0359  0.202  0.767
-0.0186 -0.183  0.373
-0.00679  0.464  0.320
 0.146 -0.648 -0.372
-0.0138  0.364  0.131
-0.0154 -0.123 -0.479
0.0253  0.445  0.471
-0.0248  0.359  0.768
-0.0149 -0.606 -0.0309
-0.0231  0.253  0.686
-0.0138  0.364 -0.641
-0.0119  0.391  0.256
-0.00565  0.480 -0.183
-0.0653 -0.219 -0.748
-0.0508 -0.165  0.274
-0.0238  0.365 -0.802
0.0190  0.355 -0.596
-0.0320 -0.370 -0.183
-0.00951  0.579  0.328
0.00900  0.212 0.00499
-0.0408 -0.0218  0.561
0.0102  0.230 -0.0847
0.0228  0.409 -0.695
0.0745 -0.648  0.104
0.0745 -0.648  0.292
0.0566 -0.327  0.104
-0.0226 -0.227 -0.246
0.00526  0.158 -0.0309
-0.0322 -0.376  0.167
0.0241  0.427 -0.551
-0.0458 -0.0938  0.409
 0.217 -0.647  0.193
-0.0170 -0.147 -0.363
0.0115  0.247  0.310
0.0278  0.481 0.0409
0.0134  0.275 -0.291
0.00713  0.185  0.480
-0.0176  0.310 -0.183
-0.0271 -0.291 -0.659
0.00588  0.167  0.785
-0.0629 -0.277  0.588
-0.0364  0.116 -0.814
-0.0165  0.479 -0.739
0.0779 -0.260 0.0379
-0.0414 -0.0307  0.184
-0.00197 0.0683 -0.219
-0.0170  0.319 -0.461
0.0476 -0.264 -0.111
-0.0714 -0.307 -0.623
-0.0113  0.400  0.453
0.0506 -0.479 -0.110
0.0291  0.498  0.633
0.0291  0.498  0.435
-0.0252 -0.264 -0.578
-0.0108  0.561 -0.614
 0.126 -0.524 -0.0130
-0.0332 0.0861 -0.632
-0.0757 -0.373 -0.596
-0.0735 -0.336 -0.147
-0.0299 -0.344 -0.659
-0.0108  0.561 -0.488
-0.0243  0.213 -0.505
-0.00951  0.579 -0.228
0.0341  0.570 -0.0757
 0.203 -0.646  0.394
0.0733 -0.256 -0.0548
-0.0176  0.310 -0.246
 0.155 -0.648 0.0409
-0.0202  0.426 -0.784
-0.0295 -0.335 -0.237
-0.00778  0.603  0.696
0.0217  0.394  0.714
-0.0478 0.0319 -0.775
0.000719  0.618 -0.291
-0.0606 -0.255 -0.700
-0.0523 -0.642 -0.282
-0.0335  0.232 -0.731
0.0359  0.597 -0.461
0.0456 -0.560 0.0498
 0.128 -0.648 -0.0937
 0.110 -0.606  0.310
 0.146 -0.648  0.229
-0.0261 -0.291  0.534
-0.0283  0.157 -0.524
-0.0735 -0.336  0.579
0.00588  0.167 -0.677
-0.0120  0.543 -0.273
-0.0173 -0.165  0.193
-0.00888 -0.0305 -0.390
-0.0101  0.417 -0.103
-0.0571 -0.255 -0.0847
 0.126 -0.497 -0.0578
-0.0533 -0.202 -0.00398
0.0165  0.319  0.364
-0.0126 -0.0841 -0.174
 0.223 -0.645 -0.0488
 0.217 -0.622  0.295
0.0241  0.427  0.391
0.00838  0.203 -0.408
9.66e-05  0.522 -0.820
0.00272  0.122 -0.497
0.00323  0.129  0.221
-0.0299 -0.344  0.552
0.0322  0.544 -0.515
0.0341  0.570 -0.650
-0.0101  0.570 0.0588
-0.0358 0.0496 -0.434
-0.0464 -0.103 -0.443
-0.0358 0.0496 -0.515
-0.0336 0.0799 -0.354
-0.0696 -0.280  0.768
-0.0301  0.131  0.606
-0.0364 -0.385 0.0767
-9.19e-05 0.0951 -0.156
0.0347  0.579  0.229
-0.0602 -0.147 -0.775
-0.0332 0.0861  0.131
-0.0302 -0.132  0.812
-0.00668 -0.0127  0.382
-0.0741 -0.345 -0.723
0.00464  0.149 -0.210
-0.0141 -0.118  0.633
-0.000403 0.0772  0.229
0.0184  0.346  0.588
-0.00709 -0.00385 -0.0309
0.0316  0.535  0.722
0.0109  0.238 -0.139
0.00323  0.129 -0.434
-0.0170 -0.147 -0.668
0.0477 -0.327 -0.111
0.0354  0.588 0.0319
0.0656 -0.605 -0.130
-0.0409 -0.624 -0.382
-0.00856 -0.0395  0.767
-0.00944  0.426  0.561
-0.0660 -0.284  0.193
0.0655 -0.606 -0.345
0.0208  0.382  0.767
0.0895 -0.618  0.395
-0.0189  0.444  0.785
-0.0232  0.229  0.265
-0.0711 -0.302 -0.505
-0.0108  0.561  0.265
-0.0113  0.525  0.507
 0.126 -0.434 -0.0489
-0.0706 -0.297 -0.398
0.0178  0.337  0.166
0.0352  0.605  0.444
0.0159  0.310  0.274
-0.0540 -0.210 -0.156
-0.0439 -0.0670 -0.130
-0.0307  0.122 -0.390
-0.0305 -0.353  0.382
0.0482 -0.238 0.0887
-0.00509 0.0237 -0.551
-0.0226 -0.227 -0.408
-0.00793 -0.0305  0.328
 0.146 -0.605 -0.0668
-0.0198 -0.201  0.292
0.0203  0.373 -0.255
-0.0508 -0.165  0.489
0.00147  0.104  0.507
-0.0405 -0.390  0.579
0.0378 -0.602 -0.0847
-0.0201 -0.192 -0.712
-0.0629 -0.277 -0.139
-0.0170  0.319 0.0767
0.0835 -0.648  0.220
-0.00825  0.597  0.624
-0.0453 0.0676  0.758
-0.0114  0.552  0.184
0.0347  0.579 -0.130
0.0456 -0.515 -0.0668
-0.00620 -0.648 -0.210
-0.0452 -0.0849 -0.596
0.0322  0.544 -0.318
-0.0508 -0.165  0.543
-0.00778  0.603 -0.0399
0.0322  0.544 -0.739
 0.182 -0.605 -0.282
-0.0131  0.525 -0.722
-0.0248  0.207 -0.667
-0.0114  0.552 -0.390
-0.0253  0.350 -0.727
-0.0753 -0.363  0.669
-0.0684 -0.291  0.293
-0.0223 -0.236  0.704
0.0178  0.337 -0.103
-0.0132 -0.0929 -0.282
0.0234  0.418  0.122
-0.0138  0.364 0.0498
0.0140  0.284 -0.372
-0.0276  0.166 -0.0757
0.0306  0.521 -0.245
-0.00722  0.458 -0.640
 0.128 -0.606 -0.300
-0.0753 -0.363  0.480
0.0140  0.284  0.767
0.0129  0.275 -0.801
-0.0307  0.122 -0.0399
-0.0258  0.193  0.193
-0.0471 -0.112  0.328
-0.0271 -0.291  0.122
-0.0107 -0.0573 -0.775
-0.0383 0.0139  0.139
0.00243 -0.220 -0.0130
0.0222  0.400 -0.165
0.0124  0.261 -0.434
0.0140  0.284  0.444
-0.0215  0.355  0.705
-0.0101  0.570  0.382
0.0208  0.382 -0.309
-0.0132  0.373  0.633
0.0456 -0.398 0.0588
-0.0345 0.0674  0.274
0.0102  0.230  0.561
-0.0747 -0.354 0.0678
 0.125 -0.354 0.0506
-0.0238  0.220  0.113
-0.0571 -0.255 -0.488
-0.00709 -0.00395 0.0409
-0.0202 -0.192 -0.515
-0.0710 -0.350 -0.402
-0.0741 -0.345 -0.0398
-0.00888 -0.0305 -0.596
0.0272  0.472 -0.497
0.0306  0.521  0.535
-0.0527 -0.193 -0.273
-0.0533 -0.202 -0.650
-0.0318 -0.337  0.801
0.0297  0.507 -0.569
-0.0242 -0.264  0.615
-0.0434 -0.0595 -0.227
-0.0248  0.207 0.0506
-0.0407 0.0857  0.803
 0.164 -0.606 -0.112
0.0835 -0.416 -0.111
-0.0314 -0.362 -0.704
-9.19e-05 0.0951 -0.587
-0.0305 -0.353  0.113
-0.00944  0.426 -0.452
0.0329  0.553  0.131
0.0456 -0.470 0.0319
-0.0741 -0.345  0.328
-0.0283 -0.308 -0.363
-0.000403 0.0772  0.579
-0.0201  0.274  0.283
-0.00709 -0.00385 -0.686
-0.0629 -0.277  0.355
0.0190  0.355 0.0140
-0.0159 -0.130 0.0947
0.0306  0.521 -0.0570
0.0115  0.247 -0.542
-0.00628  0.472  0.256
-0.0546 -0.219  0.597
0.0329  0.553  0.489
-0.0101  0.570 0.00498
-0.0513 -0.173 0.0775
-0.0721 -0.385 -0.351
-0.0446 -0.0760  0.462
0.0322  0.544  0.660
0.00776  0.194 -0.748
-0.00509 0.0237 -0.408
-0.00950 -0.0394 -0.515
-0.00529 0.00840  0.651
-0.0710 -0.300  0.714
-0.0747 -0.354 -0.775
-0.00889  0.588  0.104
-0.00897  0.509 -0.0130
0.0296 -0.605  0.166
0.00651  0.176  0.570
-0.0753 -0.363 -0.0847
-0.00415 0.0236  0.767
-0.00342  0.613 -0.695
-0.0320  0.104  0.202
 0.198 -0.609 -0.371
0.0190  0.355  0.211
 0.182 -0.648 -0.327
-0.0201 -0.192 -0.345
-0.0201  0.274 0.0588
-0.0513 -0.173  0.616
-0.0565 -0.246 -0.282
-0.0425 -0.0471  0.140
 0.173 -0.648 -0.183
0.0302  0.515  0.589
-0.0300 -0.610  0.229
-0.0311 -0.362 0.0229
-0.00620 -0.648  0.104
-0.0164  0.326 -0.676
-9.19e-05 0.0951 -0.784
-0.0408 -0.0218 -0.00398
0.0159  0.310  0.660
-0.0148 -0.606  0.363
-0.0464 -0.103  0.256
0.0298  0.615  0.187
-0.0299 -0.344 -0.452
-0.00614 -0.00395  0.453
0.0190  0.355 -0.0399
0.0123  0.621 -0.228
 0.223 -0.645 -0.246
-0.00872 -0.0305 -0.246
-0.0305 -0.353  0.435
-0.0414 -0.0307  0.471
0.0332  0.611 -0.393
 0.173 -0.648  0.337
-0.00579  0.609 -0.542
-0.0292 -0.326 -0.291
-0.0138  0.364 -0.399
-0.0337 -0.381 -0.577
-0.0241 -0.648  0.292
-0.00620 -0.648  0.166
-0.00984  0.516 -0.112
 0.204 -0.611 -0.159
0.0566 -0.606  0.292
 0.110 -0.389  0.104
-0.0252  0.201  0.625
-0.0540 -0.210  0.364
-0.0489 -0.138 -0.201
-0.0489 -0.138  0.373
0.0172  0.328 -0.147
-0.00819  0.444  0.624
-0.0139 -0.102 -0.327
-0.0540 -0.210  0.552
 0.126 -0.461 0.0498
 0.146 -0.605  0.148
-0.000403 0.0772  0.418
-0.0276  0.166 -0.641
-0.0383 0.0139  0.292
-0.00882  0.435 -0.408
-0.0489 -0.138 0.0140
-0.0292 -0.335  0.642
0.00963  0.221 -0.246
0.00651  0.176  0.157
-0.0358 0.0496  0.184
0.0386 -0.648 0.0139
-0.00620 -0.648 -0.147
-0.0125  0.534 -0.174
-0.00856 -0.0395  0.624
-0.0101  0.516  0.462
 0.126 -0.416 -0.00399
-0.0232  0.229 -0.605
-0.0104 -0.0663  0.391
-0.0276  0.166 -0.354
-0.0402 -0.0129  0.418
-0.0358 0.0496  0.337
-0.00951  0.579  0.740
-0.0483 -0.130 -0.587
0.0259  0.454  0.696
0.0284  0.490  0.758
-0.00571 0.0148 -0.327
0.0259  0.454 -0.381
-0.0213  0.256 -0.112
-0.0213  0.256  0.462
-0.00755  0.503 -0.611
-0.0641 -0.201  0.731
0.0322  0.544  0.274
0.0109  0.238 -0.488
0.00526  0.158 0.0678
0.0140  0.284 -0.156
-0.0305 -0.353  0.256
0.0316  0.535 -0.686
0.0228  0.409 -0.228
0.00540  0.620 -0.139
-0.0481 0.0232 -0.731
 0.217 -0.622 -0.118
-0.00565  0.480 -0.255
-0.0414 -0.0307  0.238
-0.0110  0.525 -0.354
0.0123  0.621  0.534
-0.0178 -0.209 -0.0907
0.000361  0.122  0.801
0.0297 -0.605 -0.282
-0.0571 -0.255  0.534
0.0316  0.535  0.767
-0.00620 -0.648 -0.255
-0.0149 -0.606 -0.228
-0.0119  0.391  0.301
-0.0188  0.292  0.373
-0.0274 -0.309  0.373
0.0190  0.355  0.265
-0.0120  0.543  0.687
0.0332  0.611  0.603
-0.0332 0.0861 -0.677
-0.0517 -0.637 0.0677
0.00588  0.167 -0.156
-0.0542 -0.0936 -0.725
0.0835 -0.605  0.184
0.0456 -0.470 -0.0130
-0.0139 -0.102 0.0229
-0.0276  0.166  0.229
0.0134  0.275  0.597
-0.0117 -0.0841  0.184
-0.00981 -0.0573  0.722
-0.0439 -0.0670 -0.327
-0.0390  0.157  0.749
-0.0464 -0.103  0.561
-0.00819  0.444 -0.300
0.0329  0.553 -0.569
-0.0528 -0.0401 -0.793
0.0165  0.319 -0.730
-0.0155 -0.138  0.758
-0.0277 -0.299 -0.704
0.0207 -0.605  0.265
0.0924 -0.606  0.265
0.0476 -0.648  0.256
-0.0390  0.157 -0.793
0.0655 -0.648 -0.103
0.0456 -0.425 -0.0847
0.0775 -0.645 -0.411
-0.0183 -0.165 -0.452
0.0291  0.498  0.319
 0.119 -0.648 -0.264
-0.0119  0.391  0.211
 0.173 -0.648  0.292
-0.00825  0.597 -0.372
0.0311  0.527 -0.416
0.0347  0.579  0.382
0.00272  0.122  0.642
-0.0591 -0.177 -0.812
 0.155 -0.606 0.0229
-0.0264 -0.282 -0.399
-0.0414 -0.0307 -0.461
-0.0205 -0.210  0.758
0.00713  0.185 -0.291
-0.0283 -0.308 -0.578
-0.0283  0.310 -0.775
-0.0558 -0.174  0.697
-0.0176  0.310 -0.506
-0.00819  0.444 -0.506
-0.0565 -0.0937  0.740
-0.0120 -0.0751 -0.390
-0.0230 -0.607 0.0140
 0.126 -0.363 -0.0399
-0.0358 0.0496 0.0319
-0.0132 -0.0929 -0.641
0.0207 -0.605  0.211
-0.0220  0.247  0.418
0.0656 -0.605 -0.237
-0.0458 -0.0938  0.104
-0.0170  0.319 -0.381
-0.0219  0.247 -0.685
-0.0327  0.247  0.740
-0.0139  0.516 -0.775
-0.0716 -0.309  0.229
 0.137 -0.605  0.104
 0.128 -0.606  0.372
-0.0188  0.292  0.229
-0.0470 -0.626  0.337
-0.0558 -0.237 -0.327
-0.0311 -0.362  0.758
-0.0223 -0.227 -0.632
-0.0276  0.166  0.453
-0.0276  0.166  0.328
0.0655 -0.648 -0.273
-0.0220  0.247  0.346
-0.0155 -0.138  0.678
-0.0161  0.485  0.768
-0.0243  0.213 -0.165
-0.0295  0.139 -0.461
-0.00951  0.579 -0.165
0.0117 -0.648 -0.345
-0.0405 -0.390  0.669
-0.0364 0.0407 -0.255
-0.00755  0.503  0.663
0.0159  0.310 -0.775
-0.00181 0.0683 -0.0667
-0.0391 0.0229 -0.817
-0.0160  0.332 -0.317
0.0347  0.579 -0.766
-0.0195 -0.183 -0.237
0.0566 -0.648  0.355
-0.00259 0.0594 -0.461
-0.0145 -0.111 -0.130
 0.128 -0.634 -0.411
0.0272  0.472  0.534
 0.110 -0.648  0.139
-0.00984  0.516  0.606
0.0352  0.605 -0.0488
-0.00889  0.588  0.516
 0.155 -0.606 -0.380
-0.0226 -0.201 -0.809
-0.0126  0.382 -0.183
-0.0132  0.373  0.418
0.0241  0.427  0.328
-0.0241 -0.648 -0.0219
0.00588  0.167  0.525
0.0259  0.454 0.0947
0.000229 0.0861 0.0319
-0.0207  0.265 -0.461
-0.0301  0.131 0.0409
-0.00668 -0.0127  0.588
0.0259  0.454  0.651
-0.0301  0.131 0.0947
-0.0167 -0.156  0.444
0.0266  0.463  0.229
-0.00227 0.0504  0.453
-0.0207  0.265 -0.506
-0.0276  0.166 -0.00398
 0.182 -0.648 -0.00400
-0.00399 0.0326 -0.139
-0.0756 -0.371  0.400
-0.00882  0.435 0.00499
0.0234  0.418  0.534
-0.0117 -0.0841  0.489
0.0147  0.293  0.507
-0.00620 -0.648 0.0229
0.0745 -0.542  0.103
-0.0364 0.0407  0.633
0.0241  0.427  0.184
-0.0119  0.391 -0.0399
0.0295 -0.606 0.0678
-0.0271 -0.291 -0.766
0.0129  0.267  0.705
-0.00778  0.603 -0.748
0.0124  0.261 -0.0212
-0.0264  0.184  0.274
0.0476 -0.615 -0.398
-0.0706 -0.297  0.454
-0.00227 0.0504  0.507
-0.00227 0.0504  0.714
-0.0320  0.104  0.471
-0.0144  0.355 -0.237
-0.0318  0.193 -0.713
-0.0421 -0.648  0.211
0.0347  0.579 -0.363
0.0217  0.394 -0.739
0.0165  0.319 0.0409
-0.0248  0.207  0.499
-0.0233 -0.250  0.463
-0.0289  0.148  0.382
-0.00352 0.0325  0.400
-0.0464 -0.103  0.211
0.0217  0.394  0.660
-0.00793 -0.0305  0.516
-0.0705 -0.296 -0.722
-0.0138  0.364  0.364
-0.0489 -0.138  0.651
-0.00565  0.480  0.202
0.0306  0.521 0.0237
-0.0338  0.180  0.804
0.0278  0.481 -0.650
-0.0585 -0.264 -0.372
-0.0522 -0.185 -0.317
 0.197 -0.610  0.370
-0.0156  0.339  0.329
0.0172  0.328 -0.650
-0.0389 0.00501 -0.659
-0.0132 -0.0929 -0.515
-0.0395 -0.00395 -0.103
-0.0571 -0.255 -0.551
-0.0464 -0.103 -0.246
-0.0377 0.0228 -0.210
-0.0458 -0.0938 -0.0488
0.0211  0.454 -0.813
 0.131 -0.602 0.0618
 0.116 -0.319 0.00498
-0.0364 -0.385  0.471
0.00900  0.212  0.400
0.000841  0.104 -0.282
0.0193  0.621  0.319
-0.0226  0.238 -0.336
-0.0178  0.382  0.806
0.0171  0.454  0.809
-0.0320  0.104  0.570
0.0184  0.346 -0.461
-0.0155 -0.138  0.319
0.00963  0.221  0.606
-0.00578 -0.641  0.404
-0.00618  0.497  0.361
 0.101 -0.648 -0.372
-0.0395 -0.00395 -0.0578
-0.0660 -0.284 -0.587
0.0306  0.521  0.230
-0.00793 -0.0305  0.157
0.00838  0.203  0.714
-0.0296 -0.335 -0.801
-0.00825  0.597 -0.0847
-0.0107  0.408  0.149
-0.0256 -0.234  0.803
0.0924 -0.443  0.103
0.0102  0.230 -0.775
-0.00882  0.435 -0.605
-0.0667 -0.246  0.794
0.0298  0.615  0.403
-0.0686 -0.389  0.289
-0.0747 -0.364 -0.506
-0.0517 -0.179  0.140
0.0306  0.521 -0.192
0.0359  0.597 -0.174
-0.0148 -0.125  0.140
0.0368 -0.339 -0.0727
-0.0325 -0.376 -0.227
-0.0179  0.241 -0.820
-0.0452 -0.0849  0.157
-0.00259 0.0594 -0.668
-0.0477 -0.121 -0.309
-0.0686 -0.389 -0.186
-0.0165  0.399  0.698
-0.0199 -0.228  0.112
0.00776  0.194  0.113
-0.0220  0.247 -0.246
-0.0425 -0.0471 -0.407
-0.00995  0.543  0.800
-0.0550 -0.165  0.807
-0.0643 -0.392 -0.306
0.00366  0.135 -0.703
0.0147  0.293 0.00499
-0.0325 -0.376 -0.631
-0.0168 -0.299 0.0827
-0.00765  0.452  0.382
 0.200 -0.648 -0.0847
-0.00618  0.497 -0.312
-0.0584 -0.393  0.193
0.0250 -0.322 0.0618
-0.0242 -0.264  0.292
-0.00981 -0.0573  0.265
0.0482 -0.238 -0.00996
-0.0711 -0.302 -0.443
-0.0706 -0.297  0.400
-0.0182  0.301 -0.0399
0.0359  0.597  0.139
-0.0395 -0.00395  0.516
-0.0358 0.0496  0.588
-0.0135 -0.111  0.588
0.0228  0.409  0.247
-0.0188  0.292  0.669
-0.0506 -0.0756  0.705
 0.124 -0.416 -0.108
-0.0156  0.339 -0.0212
-0.0508 -0.165 -0.390
0.0745 -0.497  0.103
-0.0260 -0.291 -0.120
-0.0101  0.516  0.166
0.0129  0.267 -0.335
-0.0510 -0.0488 -0.719
0.0453 -0.371 0.00498
-0.0247 -0.255  0.149
0.0165  0.319  0.704
-0.0170  0.319  0.175
0.0745 -0.648  0.166
-0.0364 0.0407 -0.632
-0.00755  0.503 -0.0548
 0.110 -0.605 -0.147
 0.164 -0.648  0.193
-0.0558 -0.237 -0.210
-0.000403 0.0772  0.642
-0.0264  0.184 -0.605
-0.00103 0.0682  0.785
0.0284  0.490 -0.0937
0.0566 -0.648 -0.0219
0.0278  0.481 -0.327
0.0284  0.490 -0.461
0.0172  0.328 -0.560
0.0115  0.247  0.122
-0.0101  0.570  0.220
-0.00951  0.579 -0.578
-0.0126  0.382  0.588
-0.0188  0.292 -0.596
 0.126 -0.587 -0.00399
-0.0107  0.408 0.0409
-0.0735 -0.336 0.0319
-0.0198 -0.201  0.337
-0.0198 -0.201  0.615
0.00900  0.212  0.525
-0.0722 -0.318 -0.246
-0.0722 -0.318  0.615
-0.0722 -0.318 0.0857
0.0159  0.310 -0.219
0.0165  0.319  0.113
-0.0572 -0.103  0.785
-0.0107  0.408  0.400
-0.00197 0.0683 -0.0130
-0.0150 -0.117 -0.560
-0.0103 -0.0573 0.0946
-0.0395 -0.00395 -0.255
-0.00447 0.0326 -0.784
-0.0108  0.561 -0.434
-0.0741 -0.345  0.149
0.00713  0.185  0.337
-0.00918 -0.0484  0.669
-0.0283  0.310  0.767
 0.209 -0.614 -0.333
-0.0721 -0.385  0.752
0.0347  0.579 -0.497
-0.0197 -0.192 -0.569
0.0123  0.621  0.256
0.0347  0.579  0.319
-0.00342  0.613 -0.452
-0.0307  0.122 -0.614
-0.0364 0.0407  0.525
-0.00950 -0.0394 0.0588
0.00651  0.176 -0.372
0.0259  0.454 -0.282
-0.0546 -0.219  0.409
0.0253  0.445 -0.0578
-0.0150 -0.117 -0.605
-0.0540 -0.210  0.489
-0.0107  0.408 -0.659
-0.0756 -0.371  0.561
 0.101 -0.587  0.103
-0.0413 -0.0307 -0.685
-0.0405 -0.390 -0.00398
0.0102  0.230  0.364
0.00209  0.113  0.310
0.00563  0.620  0.740
-0.00875  0.256  0.813
-0.0671 -0.282 -0.809
-0.0132  0.373 -0.327
-0.00414 -0.303 -0.0129
0.0476 -0.605  0.131
-0.0624 -0.272  0.688
-0.0314 -0.362 -0.363
-0.0643 -0.392 -0.692
-0.0230 -0.236 -0.793
-0.00565  0.480 0.0947
-0.0569 -0.201 -0.703
0.0302  0.515  0.140
-0.0685 -0.349  0.806
-0.0522 -0.0326  0.777
0.0217  0.394 0.0857
0.0217  0.394 -0.596
0.0212  0.388  0.355
0.0356  0.597  0.767
 0.217 -0.622 -0.00996
-0.00321 0.0505 -0.614
-0.0552 -0.228 -0.452
-0.0252  0.201 -0.317
-0.0305 -0.353 -0.147
-0.0300 -0.610 -0.0757
-0.0496 -0.147 -0.434
-0.0164 -0.138 -0.515
-0.00755  0.503  0.286
-0.0420 -0.0397 -0.578
-0.00306 0.0504 -0.103
-0.0519 -0.394 -0.0937
-0.0358  0.147  0.705
-0.0489 -0.138  0.113
-0.0159 -0.130 -0.183
-0.0686 -0.389 -0.231
-0.0540 -0.210 -0.515
-0.0660 -0.284 -0.0309
-0.0289  0.148  0.552
-0.0252  0.201 -0.371
0.00409  0.142 -0.595
-0.0607 -0.271  0.149
0.0109  0.238  0.220
-0.0502 -0.156  0.211
-0.0706 -0.297  0.553
-0.0161 -0.147  0.391
-0.0164 -0.138 -0.730
0.00272  0.122 -0.237
0.00272  0.122  0.382
0.00963  0.221 -0.587
-9.19e-05 0.0951 -0.336
-0.00866  0.509 -0.569
-0.0607 -0.271 -0.183
-0.0233 -0.236 -0.551
-0.0270  0.175 -0.174
-0.0629 -0.277 -0.659
0.0159  0.310 -0.443
-0.0242 -0.249 -0.443
-0.0502 -0.156 -0.0757
-0.0585 -0.264  0.104
-0.0713 -0.309  0.793
0.0217  0.394 -0.0129
-0.0483 -0.130  0.462
 0.119 -0.605 -0.354
-0.0114  0.552  0.534
-0.0689 -0.336 -0.596
0.0835 -0.648 -0.201
0.0386 -0.648  0.202
0.00272  0.122 -0.183
 0.146 -0.606  0.292
 0.146 -0.648 -0.156
-0.0439 -0.0670  0.588
0.00147  0.104  0.606
-0.0320  0.104 -0.542
-0.0301  0.131 -0.282
-0.0502 -0.156 -0.614
0.0109  0.238 -0.372
0.00776  0.194  0.758
-0.0107  0.408 -0.533
-0.0135 -0.111  0.714
-0.0280 -0.317  0.283
-0.0395 -0.00395 -0.605
0.0222  0.400  0.418
-0.0552 -0.228  0.202
0.0197  0.364 -0.372
-0.0552 -0.228 -0.112
0.00713  0.185 -0.0847
-0.0125  0.534 -0.461
-0.0277 -0.299 -0.434
 0.126 -0.533 0.0678
0.0207 -0.648 -0.183
0.0456 -0.542 -0.0399
-0.0182  0.301  0.579
-0.0107 -0.0573 -0.0668
-0.0223 -0.236  0.229
-0.0144  0.355  0.471
-0.00819  0.444 -0.156
-0.0332 0.0861 -0.139
 0.110 -0.648  0.247
-0.00825  0.597 0.0319
-0.00903 -0.0394 -0.291
0.0124  0.261 -0.694
0.0322  0.544 -0.103
-0.000403 0.0772  0.480
0.00409  0.142 -0.389
-0.0286 -0.326  0.409
-0.00825 -0.0216 -0.730
0.0291  0.498  0.391
-0.0101  0.570  0.597
0.00963  0.221  0.283
-0.0201  0.274  0.113
-0.0167 -0.156  0.606
-0.0113  0.400  0.534
-0.0659 -0.228  0.758
-0.0464 -0.103  0.489
0.0341  0.570  0.687
-0.00888 -0.0305 -0.659
-0.00565  0.480 0.0229
0.00464  0.149 -0.551
-0.00679  0.464  0.463
-0.00628  0.472  0.552
-0.0383 0.0139  0.480
 0.182 -0.605  0.310
0.0139  0.355 -0.814
-0.0394 0.0947 -0.713
-0.00709 -0.00385 -0.363
-0.0123 -0.0930  0.543
-0.0629 -0.277  0.247
-0.0629 -0.277  0.642
0.00588  0.167 -0.434
0.0352  0.605 -0.300
0.0312  0.536 -0.801
-0.0376 0.0858  0.697
-0.0208 -0.201  0.139
-0.0336 0.0799 -0.578
-0.0332 0.0861  0.382
-0.0246  0.295 -0.813
0.00838  0.203 -0.551
-0.00679  0.464 -0.452
0.0536 -0.611  0.385
-0.0756 -0.371 -0.0130
-0.0207  0.265 -0.569
-0.0155 -0.138  0.265
-0.0364 0.0407 -0.121
0.0129  0.267  0.158
-0.0141 -0.118  0.445
0.0359  0.597 -0.623
0.0341  0.570 -0.434
-0.00722  0.458 -0.120
0.0208  0.382 -0.497
0.0129  0.267 0.0326
-0.0408 -0.0218 -0.139
-0.0101 -0.0483 -0.201
-0.0300 -0.610 -0.139
-0.0346  0.220 -0.793
-0.0164 -0.138 -0.0129
-0.0700 -0.350 -0.560
-0.0430 -0.0533  0.418
-0.00447 0.0326 -0.704
0.0120  0.255 -0.192
-0.0458 -0.0938 -0.00398
-0.0464 -0.103 -0.112
-0.0414 -0.0307  0.642
-0.0527 -0.193  0.220
0.00323  0.129  0.158
-0.0494 -0.121 -0.694
-0.000771  0.586  0.805
-0.0432 0.0796 -0.807
0.0159  0.310 -0.686
0.0129  0.267 -0.102
-0.0111 -0.0752  0.346
 0.209 -0.614 0.0708
0.0332  0.611 -0.689
-0.0183 -0.165 -0.103
-0.0140 -0.0961  0.799
-0.0390  0.157 -0.748
-0.0414 -0.0307 -0.318
-0.0383 0.0139 -0.470
-0.0340 0.0737 -0.201
 0.204 -0.611  0.110
-0.0110  0.525 -0.515
-0.0125  0.534  0.355
-0.0220  0.247 -0.0757
0.000841  0.104 -0.112
-0.0195 -0.183 -0.192
-0.0192 -0.192  0.687
-0.0283 -0.308  0.166
0.0259  0.454 -0.174
0.0184  0.346  0.642
-0.00889  0.588 -0.264
0.0456 -0.425 -0.0399
-0.00227 0.0504  0.149
-0.0283  0.157  0.131
0.000851 0.0950  0.543
0.00588  0.167  0.256
-0.00197 0.0683 -0.497
0.0284  0.490 -0.363
0.0247  0.436 -0.103
-0.0255 -0.282  0.498
-0.0132  0.373 -0.677
-0.0132  0.373 -0.605
0.0316  0.535 -0.282
-0.00888 -0.0305 -0.551
0.0297 -0.648 -0.0937
0.0924 -0.648 0.00497
-0.00227 0.0504 0.0767
0.0456 -0.380 -0.0668
 0.137 -0.648 -0.0578
0.0207 -0.648 -0.381
-0.00618  0.497  0.128
-0.00668 -0.0127  0.283
-0.0295 -0.335 -0.0757
-0.0434 -0.0595 -0.0840
-0.0571 -0.255 0.00498
-0.0602 -0.147  0.731
 0.182 -0.648 -0.219
-0.0201 -0.192 -0.668
-0.0195 -0.183 -0.291
-0.00944  0.426  0.265
-0.0533 -0.202  0.651
0.0297 -0.605 -0.219
-0.0513 -0.173 -0.568
-0.0112 -0.0662 -0.354
-0.0299 -0.344  0.346
-0.0552 -0.228  0.678
-0.0207  0.265  0.498
-0.0176  0.310 -0.416
-0.0233 -0.236 -0.372
-0.00628  0.472 -0.219
0.0147  0.293 -0.524
-0.0483 -0.130 -0.345
0.00276 -0.648  0.265
 0.101 -0.606 -0.219
 0.137 -0.606  0.256
0.0207 -0.648  0.301
0.0297  0.507 -0.0219
-0.0320  0.104 -0.434
0.0165  0.319 -0.0668
-0.0402 -0.0129 0.0767
-0.0145 -0.111 -0.381
-0.00825 -0.0216 -0.784
-0.0201 -0.192 -0.399
0.0354  0.588  0.498
-0.0678 -0.255 -0.739
0.0197  0.364 -0.156
-0.0151  0.346 -0.569
-0.0188  0.292  0.525
-0.0258  0.345 -0.766
-0.00889  0.588  0.175
-0.000403 0.0772  0.292
-0.0114 -0.0662 -0.470
-0.0647 -0.210 -0.784
-0.0132  0.373 0.0947
-0.0255 -0.282  0.570
-0.00944  0.426 -0.569
-0.0477 -0.121  0.292
-0.0276  0.166  0.597
-0.00778  0.603  0.364
-0.00321 0.0505 -0.739
-0.0289  0.148 -0.677
0.0247  0.436 -0.0219
-0.0716 -0.309  0.337
-0.0741 -0.345  0.525
-0.0223 -0.236  0.498
-0.0183  0.453  0.749
-0.0607 -0.271 -0.255
0.0266  0.463 -0.704
-0.0220  0.247  0.157
-0.0230 -0.607  0.265
-0.0756 -0.371 -0.264
-0.0589 -0.129 -0.731
-0.00477 0.0147  0.337
-0.0430 0.0589 -0.719
0.0153  0.302  0.319
0.00588  0.167 -0.515
0.0234  0.418 -0.264
-0.0370 0.0317  0.104
-0.0148  0.436  0.705
-0.0113  0.400 -0.237
0.0208  0.382  0.534
0.0147  0.293  0.731
0.0302  0.515 -0.488
0.0123  0.621  0.104
-0.0107  0.408  0.615
-0.0152 -0.648 -0.372
-0.00623 0.00840 -0.596
-0.0320 -0.370 -0.748
0.0973 -0.284 -0.0548
-0.00779  0.603 -0.336
0.0208  0.382 -0.452
-0.0297 -0.610  0.104
-0.0513 -0.173  0.391
0.00323  0.129 -0.739
-0.0156  0.339  0.526
-0.0237 -0.256  0.651
-0.0242 -0.249 -0.156
-0.0120 -0.0751 -0.237
-0.0252  0.201 0.0147
0.0302  0.515 0.0595
0.0297  0.507  0.355
-0.0439 -0.0670 -0.632
-0.00565  0.480  0.624
-0.0527 -0.193 -0.0757
-0.0446 -0.0760  0.283
-0.00477 0.0147  0.687
0.0212  0.388 -0.103
0.0924 -0.318  0.104
0.00776  0.194 -0.130
0.00366  0.135 -0.317
-0.0408 -0.390 -0.506
-0.0233 -0.250  0.338
0.0129  0.267  0.356
-0.0160  0.332  0.677
0.000851 0.0950 0.0678
-0.0699 -0.349 -0.685
-0.0337 -0.381  0.356
0.0208  0.382 -0.784
 0.217 -0.622  0.223
-0.0517 -0.179 -0.174
0.0212  0.388 -0.345
-0.0164  0.326  0.275
-0.00342  0.613 -0.623
-0.0123 -0.0930  0.247
-0.0320  0.104  0.642
 0.191 -0.606 -0.192
-0.0164  0.326 -0.102
 0.146 -0.605  0.220
0.0506 -0.515 -0.110
0.00713  0.185  0.444
0.00651  0.176 -0.336
0.0335  0.562 -0.237
-0.00765  0.452  0.176
0.00209  0.113  0.346
-0.0107  0.408 -0.309
-0.0439 -0.0670  0.552
-0.0735 -0.336 -0.318
-0.0170 -0.147 -0.264
-0.0414 -0.0307 -0.497
-0.0283  0.157  0.633
0.00464  0.149  0.687
0.000851 0.0950  0.714
-0.0686 -0.389  0.154
0.0456 -0.569 0.00498
-0.0289  0.148  0.418
-0.0108  0.561 -0.793
0.0456 -0.506 0.0319
-0.0458 -0.0938  0.373
-0.00259 0.0594 -0.282
-0.0358 0.0496 -0.551
-0.0314  0.113  0.292
-0.0735 -0.336 -0.112
-0.0252  0.201  0.158
0.00526  0.158  0.104
-0.00700  0.433 -0.819
-0.0113  0.525 0.0678
0.0422 -0.353 0.0767
 0.182 -0.648 -0.0399
0.0456 -0.434 0.0678
-0.00620 -0.648 0.0588
 0.191 -0.648 0.0409
-0.0420 -0.0397 -0.372
-0.0220  0.247  0.651
-0.0295 -0.335 -0.192
-0.0383 0.0139 -0.515
-0.0311 -0.362  0.722
0.0322  0.544  0.310
-0.00571 0.0148 -0.273
 0.164 -0.648  0.113
0.0386 -0.648  0.113
0.0284  0.490 -0.426
-0.0471 -0.112 -0.497
-0.00103 0.0682  0.337
-0.0107 -0.0573 -0.739
-0.00882  0.435 -0.372
-0.0533 -0.202 -0.614
-0.0358 0.0496  0.373
-0.0540 -0.210  0.328
-0.0226 -0.227 -0.712
0.00651  0.176 -0.793
-0.0496 -0.147 -0.533
-0.0446 -0.0760 -0.533
0.0165  0.319 -0.488
-0.0402 -0.0129 -0.210
-0.0728 -0.327  0.480
-0.0198 -0.201  0.193
-0.000403 0.0772  0.113
-0.0295  0.139  0.202
-0.0314  0.113  0.166
-0.0115  0.158 -0.821
-0.0276  0.166 -0.569
-0.0292 -0.326 -0.121
-0.0345 0.0674 -0.399
-0.0533 -0.202 -0.0399
-0.0120 -0.0751 -0.605
-0.0358 0.0496 -0.470
-0.00447 0.0326 -0.372
-0.0439 -0.0670 0.0229
-0.0199  0.399 -0.809
-0.0377 0.0228 -0.165
0.0159  0.310  0.597
0.0266  0.463  0.435
-0.00565  0.480 -0.147
-0.0364 -0.385  0.409
0.0298  0.615 -0.431
0.00323  0.129 -0.147
-0.0337  0.226  0.793
-0.0502 -0.156 -0.659
0.0212  0.388 -0.551
-0.0345 0.0674  0.418
0.0153  0.302 -0.596
-0.0145 -0.125  0.176
-0.0170  0.319 -0.282
-0.00618  0.497  0.433
-0.0183 -0.165 0.0678
0.0234  0.418 -0.434
0.0203  0.373 0.0498
-0.0243  0.213  0.589
-0.0220  0.247  0.382
-0.00572 0.00227  0.418
-0.0107  0.408  0.498
 0.110 -0.645  0.403
 0.124 -0.488 -0.108
 0.164 -0.605 -0.237
-0.0120  0.543 -0.650
-0.0571 -0.255 0.0409
0.0115  0.247  0.525
0.00900  0.212 -0.461
-0.0180 -0.174  0.480
0.00209  0.113 -0.0309
-0.0389 0.00501  0.256
-0.0213  0.256 -0.641
-0.00731 -0.0217  0.704
-0.0517 -0.179 -0.353
-0.0111 -0.0752  0.642
0.00713  0.185 -0.228
-0.00529 0.00840 0.0947
-0.00731 -0.0217  0.193
0.0253  0.445  0.507
-0.0129 -0.102  0.400
-0.00352 0.0325  0.220
0.0241  0.427 0.0678
0.0247  0.436  0.615
0.00178  0.113 -0.542
0.0217  0.394  0.310
-0.0252  0.200  0.677
-0.0358 -0.613  0.157
-0.0745 -0.379  0.256
-0.0156  0.339  0.589
 0.137 -0.648  0.373
-0.0439 0.0380  0.711
0.00838  0.203 -0.0488
-0.0270  0.175 -0.488
0.0159  0.310  0.409
-0.0101  0.417  0.113
-0.0142 -0.102 -0.807
-0.00722  0.458 0.0506
0.0140  0.284 -0.408
0.0109  0.238 -0.408
0.0197  0.364 -0.650
-0.0138  0.364 -0.363
0.0278  0.481 -0.139
0.0217  0.394  0.462
-0.0132 -0.0929 -0.443
-0.0214 -0.210 -0.130
-0.0116  0.155  0.813
-0.00243 0.0504 0.0408
0.0284 -0.231 -0.107
0.00292 -0.608 -0.387
-0.00665 0.00227 -0.434
-0.0139 -0.102 -0.739
-0.0547 -0.0669  0.776
0.0278  0.481  0.139
0.0322  0.544  0.570
-0.0292  0.265 -0.722
-0.0747 -0.354  0.633
-0.0513 -0.173 0.0147
-0.0243  0.213 -0.0750
-0.0513 -0.173  0.580
0.00277 -0.606 -0.0847
-0.0237 -0.256  0.732
-0.0405 -0.390 0.0409
0.00464  0.149  0.193
-0.0364 0.0407 -0.00398
-0.0546 -0.219 -0.416
-0.0439 -0.621  0.301
-0.0214  0.409  0.785
0.0254  0.619  0.711
0.0254  0.619 -0.760
0.0115  0.247  0.678
0.00409  0.142  0.481
0.00963  0.221 -0.291
0.00147  0.104  0.256
-0.00628  0.472 -0.596
-0.0131  0.373  0.677
-0.0520 -0.645 -0.189
-0.0292 -0.326 0.0140
 0.131 -0.602 -0.0369
-0.0261 -0.291  0.785
 0.216 -0.633 -0.386
-0.0214 -0.210 -0.165
-0.0711 -0.302 -0.281
-0.00888 -0.0305 -0.470
 0.198 -0.608  0.166
-0.0217 -0.228  0.391
0.0120  0.255  0.427
-0.0331 -0.648 -0.309
-0.0407 -0.617 -0.0130
-0.0337 -0.381  0.517
-0.0337 -0.381  0.131
-0.0205 -0.210  0.552
-0.0533 -0.202  0.292
0.0134  0.275  0.283
-0.00477 0.0147  0.139
-0.0164  0.326  0.454
 0.116 -0.319 -0.0309
0.00242 -0.221 -0.0578
-0.0307  0.122 -0.497
-0.0307  0.122 -0.650
-0.00628  0.472 -0.0130
-0.0408 -0.0218  0.113
0.0113  0.295  0.804
-0.0160  0.332 -0.147
-0.00679  0.464  0.589
-0.0301  0.131 -0.354
0.0352  0.605 -0.587
-0.0686 -0.389 -0.384
-0.0177 -0.209 0.0528
-0.0426 -0.620 0.0409
-0.0301 -0.610 -0.345
 0.124 -0.380 -0.108
-0.0485 -0.648 -0.0937
0.0151 -0.313 0.0939
-0.0299 -0.344  0.157
 0.200 -0.648  0.131
0.0284  0.490 -0.255
-0.0642 -0.391 -0.772
0.00104  0.617  0.651
-0.0247 -0.255 -0.614
-0.0622 -0.175 -0.757
-0.0446 -0.0760 -0.174
0.0835 -0.318 -0.111
0.0228  0.409  0.749
-0.0258  0.193  0.400
 0.191 -0.648 -0.363
-0.0546 -0.219 -0.246
-0.00819  0.444  0.346
-0.00579  0.609  0.301
-0.0527 -0.193  0.104
-0.0229 -0.244  0.266
-0.0314  0.113  0.534
0.00277 -0.264 -0.111
-0.0105  0.471  0.807
-0.00841  0.490 -0.699
0.0329  0.553 0.0319
-0.0565 -0.246 -0.147
-0.0622 -0.175  0.776
-0.0125  0.534  0.435
-9.19e-05 0.0951 -0.470
 0.126 -0.551 -0.102
-0.0711 -0.302 -0.120
 0.209 -0.614 -0.0458
-0.0711 -0.302  0.167
-0.0139  0.507  0.794
-0.0247 -0.255 -0.488
 0.173 -0.606 -0.147
 0.191 -0.648  0.166
 0.182 -0.648  0.220
 0.101 -0.648 0.0767
-0.0496 -0.147 -0.291
0.0178  0.337 -0.237
-0.0113  0.400 -0.488
-0.0483 -0.130 -0.408
0.0153  0.302  0.471
-0.0151  0.346  0.157
-0.0201  0.274 -0.363
-0.0261 -0.291  0.400
0.0253  0.445  0.561
-0.0402 -0.0129  0.319
-0.0389 0.00501  0.391
0.0102  0.230  0.642
0.0297  0.507  0.785
-0.00795 0.0144 -0.811
0.0745 -0.648  0.328
-0.0241 -0.648  0.139
0.0456 -0.560 -0.0668
-0.0421  0.113  0.758
0.0835 -0.648 -0.345
0.0835 -0.380 -0.111
-0.0370 0.0317  0.561
-0.00321 0.0505 -0.246
-0.0270  0.175 -0.210
-0.000714 0.0862 -0.246
-0.0270  0.175 -0.282
-0.0299 -0.344 -0.336
-0.0364 0.0407 -0.309
 0.119 -0.606  0.166
0.0247  0.436 -0.677
 0.137 -0.605 -0.201
 0.155 -0.648  0.265
0.0241  0.427  0.444
-0.00856 -0.0395  0.462
-0.0138  0.364 -0.533
-0.0108  0.561  0.301
-0.0144  0.355 -0.497
-0.0220  0.247  0.238
-0.0458 -0.0938 -0.560
0.0284  0.490 -0.0488
-0.0108  0.561 -0.192
 0.126 -0.380 0.0767
-0.0477 -0.121 -0.0847
-0.0305 -0.353 -0.0219
0.0297 -0.605 -0.363
-0.00825  0.597 -0.121
 0.155 -0.648 0.0767
-0.0320  0.104 -0.300
-0.0258  0.193  0.346
-0.0565 -0.246  0.579
0.0241  0.427  0.714
0.0153  0.302 -0.309
0.0278  0.481 -0.793
-0.0383 0.0139 -0.560
-0.0489 -0.138  0.256
-0.0101  0.570 -0.354
-0.0120  0.543  0.579
-0.0101  0.417  0.193
-0.0286 -0.326  0.462
-0.0177 -0.156 -0.219
-0.0173 -0.165  0.337
-0.0195  0.283  0.444
-0.0464 -0.103  0.444
0.0476 -0.605 -0.156
-0.0264 -0.282 -0.551
-0.0220  0.247 -0.533
0.00900  0.212  0.184
0.0241  0.427 -0.201
0.0159  0.310 -0.255
-0.00918 -0.0484  0.301
-0.0533 -0.202  0.435
0.0247  0.436 -0.614
 0.126 -0.479 0.0229
0.0297 -0.606  0.310
-0.0220 -0.219  0.166
0.0745 -0.606  0.319
-0.0114  0.552  0.409
0.0117 -0.648 -0.282
0.00279 -0.255  0.104
 0.126 -0.524 -0.0757
0.0456 -0.506 -0.0130
 0.137 -0.605 -0.130
-0.0226  0.238 -0.0129
0.00713  0.185  0.382
0.00900  0.212  0.319
-0.00383 0.0415 -0.434
 0.146 -0.605 -0.273
-0.00498  0.489 -0.381
0.0835 -0.506 -0.111
0.0924 -0.648 -0.291
 0.146 -0.648  0.319
-0.0283  0.157 0.0588
-0.00321 0.0505 -0.192
-0.0301  0.131 -0.237
-0.0377 0.0228 -0.0757
-0.0101  0.570 -0.0399
-0.0389 0.00501 0.0140
-0.0120 -0.0751 0.0409
-0.0126 -0.0841 -0.0488
-0.0552 -0.228 -0.0668
-0.0459 0.0587 -0.757
-0.0120  0.543 -0.0130
-0.0307  0.122  0.364
0.00464  0.149  0.597
0.00588  0.167  0.660
-0.0345 0.0674  0.651
 0.164 -0.606 -0.0399
-9.19e-05 0.0951 -0.381
-0.0722 -0.318 -0.192
-0.00668 -0.0127  0.749
0.0234  0.418 -0.775
-0.00856 -0.0395  0.552
-0.0489 -0.138  0.507
-0.00856 -0.0395  0.364
-0.0395 -0.00395 -0.381
0.0172  0.328  0.435
0.0172  0.328  0.229
-0.0753 -0.363 -0.130
-0.0276  0.166 -0.139
-0.0201  0.274 -0.147
-0.0144  0.355 -0.201
-0.0117 -0.0841  0.606
-0.0201  0.274  0.400
-0.0107 -0.0573 -0.139
0.0203  0.373 -0.219
-0.0414 -0.0307  0.597
0.0329  0.553 -0.147
0.0341  0.570  0.642
-0.0552 -0.228 -0.668
-0.0464 -0.103  0.615
0.0253  0.445 -0.515
-0.0452 -0.0849 -0.470
-0.00819  0.444  0.292
0.00963  0.221  0.247
0.0102  0.230 0.0947
-0.00856 -0.0395  0.409
0.0278  0.481  0.462
-0.0114 -0.0662 -0.677
-0.0108  0.561  0.767
-0.0226  0.238 -0.372
-0.0213  0.256 -0.309
-0.0167 -0.156  0.292
-0.0213  0.256  0.310
-0.0201  0.274  0.561
-0.0286 -0.326  0.525
-0.0402 -0.0129 -0.345
0.0190  0.355  0.714
 0.200 -0.648 -0.273
-0.0292 -0.326 -0.551
-0.00197 0.0683 -0.139
 0.173 -0.606  0.104
0.00900  0.212  0.462
-0.0209 -0.210 -0.596
-0.0183 -0.165 -0.587
-0.00825 -0.0216 -0.00399
-0.0101 -0.0573 -0.318
-0.0389 0.00501  0.444
-0.0267 -0.291  0.220
-0.0232  0.229  0.561
0.00209  0.113  0.193
-0.00498  0.489  0.525
-0.0434 -0.0595  0.311
-0.0389 0.00501  0.660
-0.0745 -0.379 -0.416
-0.00709 -0.00385 -0.139
-0.0502 -0.156 0.0498
-0.0756 -0.371  0.220
-0.0332 0.0861  0.498
-0.0320  0.104 -0.165
-0.0690 -0.357 -0.812
0.0109  0.238 -0.219
-0.0208 -0.200 0.0947
-0.0421  0.113 -0.739
-0.0239  0.373  0.731
0.0820 -0.265 -0.0993
-0.0448 -0.00423  0.698
-0.0149 -0.0607  0.805
0.00276 -0.605  0.337
-0.0745 -0.379 -0.470
-0.0405 -0.390 -0.668
-0.0211 -0.219  0.462
0.0458 -0.479 0.0935
-0.0242 -0.249 -0.309
-0.0241 -0.648 -0.174
-0.0358 0.0496 -0.345
-0.0336 0.0799 -0.506
-0.0722 -0.318 -0.766
-0.0317 -0.370  0.221
-0.0233  0.382 -0.775
0.0212  0.388  0.131
0.0147  0.293  0.624
0.0332  0.611 -0.509
-0.0175 -0.156  0.139
-0.00889  0.588 -0.470
0.00366  0.135  0.257
 0.204 -0.611  0.334
-0.0721 -0.385 0.0618
0.0197  0.364  0.489
 0.118 -0.425  0.103
0.0332  0.611  0.235
-0.0320  0.104 -0.112
-0.0461 -0.0398  0.807
 0.179 -0.619  0.394
-0.00372  0.104 -0.814
0.0152 -0.314 0.0140
-0.00912 0.0861  0.809
-0.0711 -0.302 -0.335
-0.00623 0.00840 -0.524
-0.0320 -0.370 -0.541
-0.00785 0.0175  0.803
0.0347  0.579 -0.712
0.0506 -0.587 -0.110
-0.0243  0.213  0.239
-0.0364 -0.385 -0.156
-0.00509 0.0237 -0.461
-0.0392 0.0141  0.809
 0.217 -0.647 -0.318
0.0140  0.284 -0.560
0.00366  0.135  0.409
-0.0485 -0.0129 -0.809
0.0124  0.261  0.553
0.0247  0.436  0.785
-0.0522 -0.185 -0.532
0.0332  0.603 -0.791
-0.0703 -0.344 -0.530
-0.0281  0.117  0.811
0.0566 -0.264  0.103
0.00241 -0.221 0.0319
-0.0584 -0.393  0.498
-0.0513 -0.173  0.660
-0.0513 -0.173  0.185
0.0941 -0.279 0.0199
0.0294 -0.605 -0.0488
0.0129  0.267 0.0685
-0.0415  0.122 -0.775
-0.0144  0.355  0.265
-0.0164 -0.138 -0.802
-0.00765  0.452 -0.245
