ply
format ascii 1.0
element vertex 2048
property float x
property float y
property float z
end_header
0.0403 -0.0569  0.558
-0.0239  0.499 -0.866
-0.0368 -0.499 -0.434
-0.0331  0.524 -0.0396
-0.0349  0.524  0.823
-0.0155 -0.499  0.160
-0.0239 -0.0893 -0.866
0.0403 -0.0151 -0.151
-0.0331 -0.498  0.823
0.0403  0.379  0.387
0.0403  0.351 -0.448
-0.0369 -0.498 -0.863
0.00860 -0.737 -0.121
-0.0331 -0.105  0.198
-0.0331 -0.100 -0.502
-0.0404  0.175  0.809
0.0403 -0.395  0.493
0.0403  0.221 0.0855
0.0403 -0.349 -0.151
-0.0329  0.209 -0.730
-0.00825 -0.201  0.816
-0.0332  0.260 -0.192
0.0403 -0.307 -0.689
-0.0331  0.104  0.361
-0.0338  0.362  0.628
-0.0404  0.518 -0.614
-0.0331  0.524 -0.285
0.0403 0.0915 -0.373
-0.0155  0.525  0.201
0.0403 -0.289 -0.378
0.0403 -0.312  0.280
0.0403 -0.270 0.0577
-0.0916 -0.552 -0.0531
0.0403  0.161  0.586
-0.0331 -0.499 -0.647
0.0403 0.0266 -0.670
0.0403 0.0173 0.0531
-0.0331 -0.201  0.434
0.0286 -0.0105  0.760
-0.0331  0.524  0.503
0.0403 -0.358  0.702
-0.0331  0.187 -0.529
0.0618 -0.673 0.0530
-0.0285 -0.307 -0.866
-0.0331 -0.0955 -0.307
-0.0338  0.338  0.219
-0.0404 -0.488 -0.248
-0.0338 -0.179 -0.110
0.0403  0.351 -0.0443
-0.0404 -0.474  0.350
-0.112 -0.719 0.0211
0.0403  0.365 -0.675
-0.0402 -0.496  0.623
-0.0285 0.0961 -0.866
-0.0370  0.323 -0.866
-0.0331  0.141 -0.0520
-0.0338 -0.287 -0.533
0.0403 -0.0708  0.350
0.0264 -0.437 0.00670
-0.0404  0.356  0.800
0.0403 -0.224  0.600
-0.0331 0.0853  0.184
-0.0395  0.497 -0.451
0.0403 -0.136 -0.647
-0.00953  0.519  0.663
-0.0334  0.270  0.480
-0.0331  0.233 -0.353
0.0403  0.360 -0.290
0.0403  0.416 0.0994
-0.0338  0.413 -0.164
0.0403  0.226  0.303
0.0403  0.129 -0.225
-0.0404  0.509  0.350
0.0403 -0.224 -0.234
0.0403  0.263  0.721
0.0397 -0.191 -0.785
-0.0331 -0.100 0.0129
0.0403 0.0544 -0.512
0.0403 0.0637  0.480
-0.0331 0.0973  0.689
-0.0331 -0.116  0.689
0.0403 -0.395 -0.485
0.0264 -0.437 -0.758
0.0355 -0.423 -0.346
-0.0332  0.350 -0.562
-0.0338 -0.366  0.182
-0.0131 -0.337  0.823
-0.0337  0.460 -0.733
-0.0338 -0.334 -0.260
0.0403 -0.224  0.183
0.0403  0.416  0.512
0.0403  0.161 -0.633
-0.0338 -0.303 -0.0435
-0.0331 -0.0399  0.453
-0.0331 0.0297 -0.279
0.00637 -0.468 -0.118
0.0403 -0.0337 -0.420
-0.0338 -0.210  0.300
0.0403 -0.201 -0.475
-0.0337 -0.335  0.578
-0.0331  0.210  0.198
-0.0338  0.318 0.0551
0.0403  0.421  0.721
-0.0331 0.0158 -0.0474
0.0359 -0.0105 -0.791
0.0403 0.0127  0.252
-0.0239 -0.499  0.484
0.0358  0.449 -0.543
0.0403 -0.302  0.415
-0.0331 -0.261  0.698
-0.0336 -0.595 0.0448
-0.0366  0.524 0.0813
0.0403  0.189  0.428
0.0394  0.443  0.285
-0.102 -0.666 -0.0907
-0.0331 0.0528  0.574
0.0403  0.124 -0.772
-0.0338  0.405 -0.372
0.0403  0.235 -0.0675
0.0397  0.286 -0.785
0.0408 -0.173 -0.355
0.0403  0.189 -0.438
-0.0338 -0.366 -0.620
0.0403  0.291  0.568
-0.0331 -0.0306 -0.594
-0.0403 0.0590  0.821
0.0285 -0.434  0.266
-0.0338  0.295  0.357
-0.0331  0.113 0.0592
0.0315 -0.644 -0.0535
0.0403 -0.182 -0.0165
0.0403  0.272 -0.600
-0.0404 -0.451 -0.545
0.0392 -0.417  0.605
-0.0101  0.207 -0.861
-0.0155  0.524 -0.151
-0.0404 -0.0939  0.800
0.0403 -0.108  0.113
-0.0338  0.425 0.0156
-0.0331  0.229  0.643
0.0403 -0.117 -0.197
0.0403 -0.238 -0.600
-0.0331 -0.140  0.569
-0.0404 -0.447  0.725
0.0403 -0.122  0.466
0.0403  0.244 -0.271
0.0403 0.0868 -0.114
-0.0338 -0.272 -0.166
0.0403  0.333 -0.160
-0.0331 0.0899 -0.599
0.0403 -0.391  0.109
-0.0331 -0.0306  0.119
0.0403  0.119  0.285
-0.0338 -0.350 -0.758
0.0403  0.319  0.141
0.0403 -0.0661 -0.0582
-0.0329 -0.138 -0.729
0.0403 -0.187  0.716
0.0405  0.402 -0.781
0.00861 -0.741 -0.00719
-0.0331  0.261 -0.456
0.0340  0.451 -0.0953
0.0403  0.333  0.294
-0.0338  0.428  0.440
0.0402 -0.413  0.373
-0.0331 0.0853 -0.446
0.0134 -0.534 -0.0257
-0.0338 -0.179  0.122
0.0403 -0.238  0.498
-0.0331  0.169  0.500
0.0403 -0.0476  0.660
-0.0331 -0.00278  0.328
-0.0331 -0.205 -0.866
0.0286  0.460 -0.236
0.0403 -0.182  0.364
-0.0338  0.428  0.171
0.0403 -0.247 -0.0953
0.0355 -0.423 -0.230
-0.0331  0.150 -0.159
0.0380  0.446  0.612
0.0403  0.129  0.127
0.0403  0.161  0.716
-0.0338 -0.318 -0.439
-0.0331  0.155 -0.293
0.0403 -0.0290 -0.309
-0.0331 -0.0445 -0.210
-0.0338 -0.303  0.485
-0.00826 -0.404 -0.858
-0.0338 -0.334 0.0599
0.0403 -0.131  0.257
0.0403 0.0173  0.391
0.0403 0.0544  0.642
-0.0338 -0.366  0.311
-0.0335  0.418 -0.641
-0.0331 0.0575 -0.186
0.0403  0.295 -0.364
0.0402 -0.413 -0.665
-0.0338 -0.210 -0.414
-0.0338  0.357  0.531
-0.00636  0.265  0.813
-0.0402 -0.496 0.0670
0.0403 -0.0615 -0.707
-0.0335  0.305 -0.0827
0.0403 -0.0476 -0.531
-0.0338  0.401 -0.482
-0.0331 0.00185 -0.372
0.0403  0.328  0.470
-0.0332  0.246 -0.00674
0.0397 -0.298 -0.785
-0.0334 -0.148 -0.590
-0.0337  0.345 -0.232
-0.0338  0.384  0.321
0.00835  0.491 -0.370
-0.0331 -0.105 -0.400
-0.0404 -0.479 -0.341
-0.0338 -0.256 -0.665
0.0403  0.101 -0.0118
-0.0285 0.00340 -0.866
-0.0331 -0.119  0.314
-0.0338  0.472  0.740
-0.0331 -0.00741 -0.492
-0.0395  0.411 -0.839
0.0403 0.0359  0.160
-0.0338 -0.272  0.367
-0.0404 -0.492  0.248
-0.0331 0.00528  0.675
0.0403 -0.386 -0.0675
0.0403 -0.136  0.623
-0.0336  0.314  0.707
0.0403 -0.358 -0.568
-0.0393 -0.498 -0.747
-0.0338  0.452  0.557
-0.0331  0.315 -0.659
-0.0331 -0.0491 -0.112
0.0403 -0.316  0.174
-0.0205 -0.566 -0.105
0.0394  0.443 -0.452
0.0403  0.221 -0.160
0.0403  0.286 -0.512
-0.0285 -0.692 0.0572
-0.0332  0.259  0.121
-0.0331  0.169  0.300
0.0403  0.388  0.215
0.0403 -0.302 -0.485
0.0403  0.217  0.512
0.0403  0.138 -0.540
-0.0333  0.321 -0.317
0.0403 -0.0569  0.192
0.0175 -0.406  0.777
-0.0338 -0.210 0.0399
-0.0331 -0.0539  0.611
-0.0338 -0.411 -0.432
-0.0331 -0.00278  0.208
-0.0114  0.522 -0.529
-0.0396 -0.444  0.554
0.0403 -0.112 -0.457
-0.00799  0.434  0.816
0.0403 -0.140 -0.545
0.0405 0.0776  0.739
-0.0332  0.331 -0.774
0.0403  0.249 -0.707
-0.0331 0.0667  0.277
-0.0338 -0.366 -0.110
-0.0338  0.395 -0.0801
-0.0336 -0.368  0.657
0.0403  0.282 0.0206
0.0403 -0.302 -0.290
-0.0334  0.270  0.276
-0.0563 -0.741 -0.0628
-0.0338  0.413 -0.285
-0.0331 -0.119  0.412
0.0403 -0.330 -0.00256
0.0403 -0.312  0.540
-0.0331  0.210  0.374
0.0403  0.328  0.651
-0.0338  0.342  0.428
0.0305 -0.111  0.757
-0.0373 -0.440 -0.0521
0.0212  0.471  0.393
-0.0331  0.196 -0.613
0.0403  0.244  0.220
-0.0329 -0.0271 -0.729
0.0317 -0.429  0.183
0.0403 -0.140 -0.105
0.0403  0.156  0.206
0.0403  0.189 0.00207
-0.0331 0.0436  0.421
0.0403  0.175 -0.327
-0.0331  0.233  0.555
0.0302  0.457 -0.678
-0.0352 -0.434 -0.182
0.0213 -0.264  0.771
-0.0331  0.159 -0.409
-0.0345  0.155 -0.801
0.0403 0.0405 -0.220
0.0403 -0.293  0.651
-0.0338  0.435  0.666
-0.0932 -0.643 -0.00269
0.0403 -0.0661 0.0252
-0.0331  0.196  0.720
0.0403  0.286  0.401
-0.0331  0.210 -0.0938
-0.0338 -0.411 -0.283
-0.0331 -0.114 -0.163
0.0403  0.434 -0.0165
-0.0338  0.454  0.254
-0.0331  0.141  0.611
0.0403 0.0544 -0.299
0.0403 -0.233  0.266
0.0403 -0.228 -0.702
0.0403 0.0405 -0.591
0.0403 -0.205  0.104
0.0340  0.207 -0.794
0.0102  0.488 -0.795
0.0403  0.356 -0.591
-0.0331 -0.0120 0.0268
0.0251 -0.117 -0.808
-0.0338 -0.287  0.185
-0.0338  0.389 0.0893
0.0403  0.365 0.0392
-0.0333  0.342 -0.421
0.0403 -0.159  0.535
-0.0352 -0.434 -0.692
-0.0331 0.0853 -0.335
0.0282 -0.434 -0.582
0.0403 0.0266  0.568
0.0403 -0.261  0.345
-0.0331  0.201 0.0684
-0.0331 -0.0584  0.532
-0.0330 -0.192  0.743
0.0616 -0.729 -0.0628
-0.0331  0.108 -0.520
0.0403  0.101 -0.693
-0.0338  0.348 -0.0163
-0.0338 -0.303 -0.331
0.0403  0.142  0.359
-0.0338 -0.179  0.228
0.0403 -0.0337 -0.619
0.0102  0.488  0.132
-0.0331  0.270 -0.576
0.0403  0.370  0.586
0.0358  0.449 -0.312
-0.0114  0.522  0.578
0.0403 -0.0522  0.424
0.0403 0.00804 -0.0767
0.0403  0.161 -0.0953
0.0403  0.115 -0.457
-0.0331 -0.220  0.579
-0.0330 -0.318  0.751
-0.0336 -0.163 -0.0296
-0.0345 -0.164 -0.801
0.0622 -0.671 -0.118
-0.0330 0.0377  0.744
0.0403 -0.0429 -0.230
0.0403  0.244  0.628
0.0174  0.477  0.469
-0.0338 -0.241 -0.237
0.0213 0.0637 -0.813
-0.0338 -0.383  0.509
0.0403 -0.0985 -0.369
-0.0404 -0.447 -0.804
0.0403  0.342  0.725
-0.0338 -0.383 -0.353
-0.0331 0.0714 -0.108
-0.0330 0.0172 -0.656
-0.0331  0.229 -0.270
-0.0334 -0.644 -0.110
-0.0338  0.392  0.735
0.0299 -0.432  0.693
-0.0331 0.0436  0.500
0.0403 -0.270 -0.174
-0.0329  0.114  0.762
0.0208 -0.446  0.442
-0.0285  0.524  0.428
0.0403  0.397 -0.197
0.0403  0.212 -0.512
-0.0337  0.329 -0.156
-0.0155  0.524 -0.684
-0.0331 -0.170  0.638
-0.0329 -0.212 -0.729
0.0142  0.483 0.0469
-0.0346  0.256 -0.812
0.0101 -0.462 -0.489
-0.0117 -0.0186  0.821
0.0403 -0.372  0.229
0.0403 -0.150  0.174
0.0403 -0.224  0.424
-0.0331  0.127  0.439
-0.0331 -0.119  0.490
-0.0331 -0.0630  0.258
-0.0330  0.138 -0.656
-0.0395  0.497 -0.214
-0.0345 -0.0575 -0.801
-0.0338 -0.272  0.256
-0.0129  0.524  0.274
-0.0331 -0.128 -0.242
0.0403 0.0776  0.220
-0.126 -0.722 -0.0516
0.0403  0.129  0.651
-0.0338  0.431 -0.553
-0.0338 -0.383 -0.520
0.0403  0.142  0.484
0.0403  0.411 -0.373
-0.0404 -0.265  0.809
-0.0331 0.0389 0.0777
-0.0338  0.329  0.136
0.0403  0.314 -0.230
-0.0331  0.132  0.129
0.0249  0.465  0.206
0.0403 -0.344  0.354
0.0232  0.206  0.768
0.0193  0.474 -0.610
0.0403 -0.136 0.0392
-0.0403 -0.428  0.821
-0.0373 -0.440  0.110
-0.0331 -0.0549  0.724
0.0403 -0.358 -0.749
-0.0338  0.297  0.600
-0.0338 -0.411 0.0318
0.0403 -0.0615  0.280
-0.0338  0.461 -0.110
-0.0338 -0.179 -0.189
0.0403  0.258 -0.443
0.0403  0.314  0.211
0.0403 -0.344 -0.220
0.0403 0.0219 -0.369
0.0376 -0.420 -0.415
0.0403 0.00804  0.322
-0.0331 -0.105  0.129
0.0403 -0.358 -0.378
0.0403 0.0729  0.350
-0.0331  0.113 -0.228
-0.0345 -0.234 -0.801
-0.0238 -0.641 -0.0118
-0.0332  0.315 -0.499
0.0403  0.105 0.0623
0.0175 -0.353 -0.819
-0.0331  0.136  0.231
0.0403  0.170 -0.721
0.0175  0.342 -0.819
-0.0155 -0.499  0.688
0.0403  0.221 -0.378
-0.0331 -0.0399 -0.432
-0.0338 -0.398  0.372
0.0588 -0.740 0.0392
-0.0352 -0.434  0.194
0.0403 0.0127  0.697
-0.0605 -0.514 -0.00722
-0.0373 -0.440  0.291
0.0403 0.0359 -0.448
-0.0331 -0.0677 -0.0474
-0.0331 -0.288  0.625
0.0403 -0.126 -0.726
0.0403 -0.154 -0.290
0.0403 -0.302 -0.619
-0.0404 -0.451  0.415
0.0175  0.382  0.777
0.0154 -0.454  0.517
-0.0336  0.368 -0.718
-0.0338 -0.366 -0.0176
-0.0338 -0.272 0.0848
-0.0331  0.108  0.537
-0.0331 0.0250 -0.557
0.0403 -0.0105 -0.0118
0.0403 -0.256  0.707
0.0403  0.328 -0.730
0.0403 -0.377  0.428
-0.0338  0.456 0.0935
0.0403  0.295 -0.0953
-0.0331 0.0806 -0.0242
-0.0331 -0.0584  0.384
0.0403 0.0915  0.554
0.0403 -0.316 -0.0675
0.0403 -0.0429 0.0994
0.0403  0.383 -0.531
-0.0357 -0.433  0.645
-0.0338 -0.210 -0.614
-0.0285  0.524 -0.749
0.0403  0.105  0.428
-0.0331  0.192 -0.210
0.0403 -0.238 -0.336
0.0403 -0.252 -0.526
-0.0336 -0.163 -0.461
-0.0338  0.444  0.356
-0.0330  0.274 -0.734
0.0321  0.454 -0.166
-0.0331 -0.499 -0.174
0.0403  0.254  0.146
0.0403 -0.247 -0.0211
0.0355 -0.423 -0.155
-0.0586 -0.705 -0.119
-0.0338 -0.241 -0.0234
-0.0338  0.456 -0.0455
-0.0330  0.253  0.752
-0.0338 -0.350 -0.693
0.0213 -0.446 0.0809
-0.0337  0.279  0.183
-0.0338  0.456 -0.333
-0.0331  0.244 -0.657
0.0403 -0.367 -0.281
0.0403  0.411 -0.624
0.0127  0.486  0.782
-0.0331  0.192 -0.465
0.0403 -0.353  0.609
0.0321  0.454 -0.746
-0.0130 -0.498 -0.587
-0.0338  0.437 -0.430
-0.0373 -0.440 -0.622
-0.0331 -0.123 -0.0798
0.0403 0.0451 -0.730
-0.0338  0.435 -0.224
0.0403 0.00341  0.461
0.0403 -0.340 0.0716
-0.0331 -0.0352 -0.288
-0.0563 -0.604 -0.0630
0.0102 -0.463 -0.303
0.0403  0.305 -0.656
0.0403  0.226 -0.642
0.0403  0.133 -0.155
-0.0331 0.0158 -0.140
-0.0331  0.279 -0.396
0.0213 -0.343  0.771
-0.0470 -0.741 0.0206
0.0403 -0.0847 -0.132
0.0403 -0.233 -0.406
0.0403 -0.0615  0.721
0.0403 -0.344 -0.438
-0.0332 -0.512 -0.0626
-0.0338 -0.411 -0.752
-0.0331  0.247 -0.516
0.0139  0.482  0.534
-0.0338  0.393  0.260
-0.0331 0.0711  0.634
-0.0331 -0.169  0.377
-0.0393 -0.498 -0.506
0.0403 -0.126  0.683
0.0403 -0.173  0.303
-0.0331 0.0297  0.138
0.0102 0.0405  0.788
-0.0331 0.0250 -0.437
0.0403  0.434  0.345
0.0102 -0.270 -0.830
0.0403  0.425  0.447
-0.0338  0.293  0.536
0.0403  0.189  0.155
0.0403 -0.117  0.405
0.0213 -0.171  0.771
-0.0285  0.524 0.0206
0.000902 -0.477 -0.392
0.0403  0.383 -0.128
0.0403  0.314 0.0716
0.0403 -0.0615  0.498
-0.00425  0.510 -0.0922
0.0403 -0.326  0.470
0.0403 -0.293  0.118
-0.0334  0.270  0.420
-0.0331  0.192  0.444
-0.0131  0.113  0.823
0.0406  0.388  0.651
-0.0155 -0.499  0.554
-0.0332  0.260 -0.132
0.00450 -0.471 -0.211
0.0101 -0.462  0.753
-0.0710 -0.571 0.00269
-0.0338 -0.318  0.122
0.0403  0.277 -0.183
0.0403 -0.177 -0.591
0.0403  0.207  0.674
0.0403 -0.177 -0.197
0.0403 -0.0105  0.614
0.0403 0.0590 0.0994
-0.0338 -0.383  0.124
-0.0368 -0.499  0.753
0.0155  0.480  0.708
-0.0336 -0.163 -0.289
0.0403  0.147 -0.397
0.0403 -0.275  0.225
0.0403 -0.0985 -0.587
0.0403  0.170 -0.267
-0.0331  0.146 -0.571
0.0403 -0.400  0.313
-0.0331 -0.0908 -0.604
0.00908 -0.460 -0.833
0.0156  0.149  0.780
-0.00946 -0.536 0.0368
0.0174  0.477 -0.495
0.0403  0.351  0.530
0.0403  0.272  0.493
0.0403 -0.117 -0.0165
0.0403  0.105 -0.614
0.0124  0.485 -0.0242
-0.0332 -0.136 0.0795
0.0403 -0.358 -0.647
-0.0338 -0.303  0.318
-0.0338 -0.256 -0.484
-0.0332 -0.281  0.556
-0.0404  0.518 -0.387
0.0403  0.277  0.331
-0.0338  0.395  0.388
0.0403 -0.298 -0.123
-0.0404  0.518 -0.814
0.000773 -0.477 -0.707
-0.0116  0.268 -0.864
0.00285 -0.0383 -0.841
-0.0404  0.509  0.150
0.0106  0.119 -0.831
-0.0395 -0.148 -0.865
0.0368 -0.648 0.00362
-0.0338  0.452  0.492
-0.0331 -0.364  0.716
-0.00451 -0.137  0.810
0.0248 -0.409 -0.808
0.0394  0.443  0.150
-0.0338  0.393  0.576
-0.0155 -0.499 -0.800
-0.0331  0.196 -0.0335
-0.0336 -0.257  0.451
-0.0338  0.378  0.472
0.0403  0.286  0.262
0.0403 -0.0105 -0.480
-0.0338  0.472  0.610
0.0403 -0.0893 -0.262
-0.0331 0.0575 -0.390
0.0403 -0.117  0.313
0.0403 -0.191 0.0484
0.0245 -0.440 -0.0628
0.0403  0.110 -0.290
-0.0338 -0.383 -0.233
-0.0338  0.472 -0.674
-0.0338 -0.225 -0.360
-0.0331  0.233  0.323
-0.0285  0.524  0.767
-0.0338  0.472  0.406
-0.0130 -0.498  0.401
0.0403 -0.386 0.0252
-0.00643 -0.581 -0.00247
-0.0331 -0.0538 -0.543
-0.0352 -0.434  0.486
-0.00462 -0.485  0.308
0.0403 -0.302 -0.549
0.0136 -0.457 -0.642
-0.0333  0.263 0.0651
-0.0331 -0.0584  0.314
0.0403 -0.150 -0.415
-0.0331 -0.0723 0.0824
-0.0331 0.0528  0.333
-0.0331 -0.0584 -0.349
-0.0331  0.178 -0.349
0.0403  0.374  0.136
-0.0330 -0.251  0.753
-0.0329 -0.0203  0.768
0.0403 -0.0337 -0.364
-0.0331  0.163  0.675
-0.000667 -0.741 -0.0628
-0.0816 -0.669 0.0452
0.0403  0.402 -0.726
-0.0338  0.472  0.309
-0.0347 -0.380 -0.816
-0.0332  0.283 -0.258
-0.0338  0.461 -0.602
0.0117 -0.460  0.359
0.0102 -0.182 -0.830
0.00637 -0.468  0.628
-0.00831 -0.491 0.00671
0.0403  0.411 -0.258
-0.0331  0.136 -0.465
0.0403 -0.293  0.591
-0.0331 -0.00741  0.402
0.00648  0.494 -0.307
-0.0338 -0.318 -0.193
-0.0331 -0.392  0.763
0.0402 -0.413  0.544
-0.0331 -0.00278  0.527
0.0403 -0.0800 -0.647
0.0403 0.0405 -0.142
-0.0338  0.472 -0.271
-0.0338  0.469 -0.510
-0.00433 -0.646 0.0434
-0.0395  0.149 -0.865
-0.0338  0.338  0.293
-0.0335  0.422 -0.695
0.0248  0.311  0.766
0.0136 -0.457  0.141
-0.0338  0.376  0.684
-0.0332  0.274  0.671
-0.0338  0.430 -0.778
-0.0328  0.303  0.788
-0.0331 -0.114  0.615
-0.0404 -0.447 -0.471
0.0121  0.416 -0.827
-0.0396 -0.444 -0.383
-0.0395  0.478  0.797
-0.0331  0.183 0.0175
0.0403  0.184 -0.216
0.0403  0.360 -0.359
0.0403 -0.0800  0.619
-0.0961 -0.740 -0.0975
0.0403  0.110  0.178
0.0403 -0.0151  0.526
-0.0331 -0.0120  0.272
-0.0393 -0.498 -0.122
0.0403  0.175  0.289
0.0403  0.156 -0.489
-0.0331  0.159  0.398
-0.0331 -0.171  0.484
-0.0155  0.524  0.716
-0.0331 0.0156  0.611
0.0620 -0.683 -0.0350
0.0403  0.258 -0.327
0.0403 -0.122  0.572
0.0403 0.00804 -0.271
-0.0404 -0.446 -0.860
0.0122 -0.575 -0.0579
-0.00110 -0.479  0.206
-0.0395  0.227  0.797
0.0403 -0.265 -0.744
-0.0331  0.265 -0.312
-0.0338  0.380  0.150
-0.00416 -0.687 -0.119
-0.000933 -0.462  0.805
-0.0404 -0.256 -0.860
0.0403  0.231 0.0345
-0.0331  0.104 -0.284
-0.0331  0.113  0.310
0.0403 -0.196 -0.0860
0.0403 -0.381  0.160
-0.0331 -0.128  0.263
0.0403  0.221  0.581
0.0403  0.249 -0.554
-0.0331  0.108 -0.381
-0.0331 0.0575 -0.511
0.00835  0.491 -0.194
-0.0331  0.219  0.263
0.0403 0.0915 -0.563
-0.0331 -0.0638  0.662
0.0403 -0.214  0.544
0.0403 -0.307  0.716
0.0403  0.333 -0.540
-0.0338  0.389  0.205
-0.0331  0.187  0.578
-0.0338  0.464 -0.168
0.0392 -0.417 -0.295
-0.0338 -0.334 -0.506
0.0102 -0.0754  0.788
0.0403 -0.177 -0.721
0.0403 -0.275 -0.239
0.0403 -0.173  0.461
-0.0331 -0.105 -0.553
-0.0338  0.350 -0.107
0.0403  0.105 -0.0628
0.0403 0.0405 -0.00720
-0.0331  0.219  0.490
0.0403 -0.233 -0.285
-0.0331 0.0621 -0.237
-0.0332  0.326 -0.372
0.0403 -0.224  0.651
-0.0345 -0.113 -0.801
-0.0404  0.518 -0.336
-0.0331  0.122 -0.108
-0.0330 -0.0338 -0.656
0.0174  0.477  0.654
0.0403 -0.363  0.540
0.00823 -0.465 -0.540
-0.0338  0.380 0.0390
-0.0338  0.296 0.00549
-0.0395  0.497 -0.567
-0.0331 -0.189  0.692
0.0213  0.260  0.771
-0.0338  0.472  0.207
-0.0338  0.406  0.783
0.0403  0.393  0.289
-0.0337  0.357 -0.281
-0.0330 -0.118  0.756
0.0403 -0.261 -0.448
0.0403  0.235 -0.211
0.0403 -0.228 -0.146
0.0403 0.00804  0.118
0.0403 0.0127 -0.549
0.0403 0.0544  0.280
0.0403  0.161 -0.0396
0.0139  0.482 -0.435
0.0381 -0.242 -0.789
-0.0404 -0.451  0.776
0.0403 0.0868 -0.174
-0.0338  0.413  0.526
0.0408  0.240  0.382
0.0403  0.434  0.670
0.0403 -0.154 0.0947
0.0403 -0.349 -0.503
0.0403  0.282  0.670
0.0403 -0.0151 -0.726
-0.0331  0.132 0.0129
-0.0331 -0.0306 -0.159
-0.0331  0.220 -0.163
0.0403  0.333  0.368
-0.00825 -0.386  0.816
-0.0404 0.0451 -0.842
0.00638 0.0219 -0.836
-0.00868 -0.622 -0.0721
0.0194  0.166 -0.816
0.0403  0.193  0.623
-0.0331 0.0760 0.0268
0.0403  0.268 -0.0304
-0.0117  0.379 -0.863
0.0403  0.360  0.433
-0.0331  0.169  0.161
-0.0331 -0.0862  0.574
-0.0338 -0.350 -0.317
-0.0334 -0.148 -0.376
-0.115 -0.645 -0.0483
-0.0338  0.476 0.0394
-0.0338  0.469 -0.381
-0.0338  0.481  0.683
0.0403  0.115  0.605
0.0403 -0.219  0.317
0.0403 -0.187  0.252
0.0403  0.309 -0.410
0.0403 -0.173  0.670
-0.0331 0.0389 -0.604
-0.0331 -0.0260 -0.0196
0.0394  0.443 0.0577
0.0403 -0.0754 -0.753
0.0403 -0.0847 -0.322
-0.0404 -0.451 -0.137
0.0336 -0.426 -0.712
-0.0338 -0.334 -0.584
-0.00980  0.519 -0.481
-0.0192 -0.499 -0.290
-0.0334  0.403 -0.596
-0.0337  0.366 -0.332
-0.126 -0.687 -0.0118
0.0212  0.471  0.319
-0.0338  0.395 -0.0245
-0.0331  0.104  0.481
0.0403 -0.108  0.197
-0.0331 0.00649 -0.237
0.0620 -0.724 -0.0118
-0.0102 -0.493  0.104
-0.0338 -0.398  0.270
-0.0331 0.0621  0.226
-0.0334 -0.261  0.508
0.0403  0.439  0.554
-0.0328 -0.171  0.785
0.0347  0.447 -0.793
-0.0337  0.472 -0.824
0.00648  0.494 -0.738
-0.0338 -0.303 -0.688
-0.00110 -0.479 -0.0489
-0.0338 -0.272 -0.578
-0.0338 -0.225 -0.175
-0.0336 -0.163 0.0307
-0.0338 -0.256 0.0307
0.0403  0.421 -0.494
-0.0404 -0.465 0.0299
0.0403 -0.0569 -0.471
0.0403 -0.131 -0.151
-0.0285  0.448 -0.866
-0.0338 -0.411  0.695
-0.0352 -0.434 -0.242
-0.0338  0.425  0.613
-0.000726  0.505 -0.639
-0.0333  0.306 -0.207
0.0403  0.402 -0.429
-0.0338 -0.366 -0.472
0.0408 -0.363 -0.693
0.0403  0.323  0.605
-0.0338 -0.225 -0.105
-0.0331 -0.114  0.365
0.0403  0.235  0.433
-0.0360  0.495  0.539
0.0403  0.217 -0.114
0.0403  0.152 0.0670
0.0402 -0.413  0.651
-0.0331  0.108 -0.182
0.0403  0.147  0.530
-0.0331 -0.0584  0.212
-0.0327 0.0219  0.794
0.0403  0.193  0.382
0.00449 -0.471 -0.258
0.0403 -0.150 -0.234
-0.0338 -0.179  0.182
-0.0331 -0.0908 -0.214
0.0213 -0.218  0.771
0.0403 -0.261  0.544
0.0403 -0.395 -0.619
0.0403 -0.238 -0.647
-0.0352 -0.434  0.240
0.0403 -0.205 -0.554
-0.0338 -0.350  0.225
0.0403 -0.358 -0.105
0.0403 -0.159 -0.0582
0.0403 0.0637 -0.642
0.0403 0.0683  0.401
-0.0331 0.0389 -0.344
-0.0345 -0.0111 -0.801
-0.0331 -0.0213 -0.0752
-0.0338  0.366 -0.184
0.0403 -0.349  0.308
0.0403  0.323 -0.485
0.0403 -0.0939 -0.531
-0.0331 0.00649  0.449
0.0403  0.323 -0.318
-0.0338 -0.210  0.346
-0.0331  0.206 -0.390
0.0403  0.356 -0.767
-0.0338  0.340  0.574
-0.0338  0.325  0.471
-0.0338  0.388 -0.426
-0.0338  0.336  0.379
0.0234 -0.0661 -0.811
-0.0338  0.295  0.237
-0.0338  0.484  0.460
0.0403 -0.381 -0.327
0.0403  0.217 -0.740
-0.0887 -0.741 -0.0304
-0.0329  0.163 -0.730
-0.0331  0.302 -0.609
0.0403 -0.391  0.734
-0.0338  0.464  0.143
-0.0338 -0.366 -0.425
0.0403  0.203  0.201
-0.0331 -0.0491  0.161
0.0403  0.393 0.00207
0.0403 -0.0847 0.0670
-0.0331 0.0297 0.00824
-0.0331  0.159 0.0870
0.0194  0.244 -0.816
0.00327  0.305 -0.842
-0.0331 -0.0862 -0.441
0.0403  0.170  0.109
-0.0331 -0.00319  0.720
0.0174  0.477  0.265
-0.0332  0.247 -0.0668
0.0142 0.0853  0.782
-0.0331 -0.170  0.535
-0.0404 -0.483 -0.689
-0.0674 -0.627 0.0377
-0.0338  0.425  0.303
-0.0333  0.367 -0.512
-0.0338  0.389 -0.244
0.0102  0.488 -0.146
0.0191 -0.448  0.563
-0.0333  0.361 -0.462
-0.0329 0.0719  0.778
0.0121  0.485  0.588
-0.00425  0.510 -0.254
-0.00980  0.519 -0.426
-0.0114  0.522  0.319
-0.0131  0.391  0.823
0.00483  0.496 -0.565
-0.0338 -0.383 -0.664
0.00471  0.336  0.796
-0.0338  0.488 -0.0142
0.0408  0.286  0.452
0.0403 -0.284  0.456
-0.0331 0.0899  0.115
0.0403  0.184 -0.679
-0.0331 -0.105  0.532
0.0403  0.305  0.526
-0.0331 0.0899  0.402
0.0403 -0.289 0.0113
0.0403 0.0776  0.146
0.0403 -0.0290  0.238
0.0403 -0.103  0.512
-0.0327 -0.306  0.794
0.0403 -0.0985 -0.0906
0.0392 -0.417  0.225
0.0403 -0.252  0.132
-0.0336 -0.163 -0.549
0.0549 -0.741 -0.105
0.0408 -0.0615 -0.169
0.0403  0.161 -0.577
0.0403  0.207 -0.295
0.0403  0.383  0.697
0.0620 -0.687 0.0113
0.0403 -0.367 -0.0257
-0.0331  0.178  0.249
0.0403 0.0683 -0.410
-0.0338  0.349  0.738
0.0403 0.0544  0.530
0.0403 -0.0244 -0.573
0.0403 0.0498 -0.0906
-0.0331 -0.741 -0.0999
-0.0331 -0.149  0.725
0.0403 0.0822 -0.753
-0.000460  0.505  0.376
-0.0331  0.150 -0.506
0.0403 -0.163 -0.508
0.0403  0.370  0.326
-0.0404 -0.455 -0.304
0.0403  0.328 0.0160
0.0403  0.101 -0.517
-0.0330  0.156  0.737
-0.0331  0.245  0.702
-0.0338  0.398 -0.123
-0.0327 -0.225  0.789
0.0403  0.421  0.248
0.000961 -0.117 -0.844
-0.0404 -0.0383 -0.842
-0.0338  0.338 0.0940
0.0166 -0.650 -0.0935
-0.0338 -0.256  0.327
-0.0338 -0.287 -0.371
0.0402 -0.413 -0.114
-0.0338 -0.287 -0.125
0.0302  0.457 -0.353
-0.0334 -0.351  0.779
-0.0399  0.521 -0.113
-0.00111 -0.479 -0.448
-0.0338  0.322  0.644
0.0403  0.119 -0.341
-0.0331  0.150  0.546
0.0408  0.166  0.248
0.0403 -0.279 -0.327
-0.0331  0.150  0.356
0.0403  0.193  0.331
0.0403 -0.182  0.415
-0.0331  0.127  0.175
0.0403 -0.265  0.174
0.0403 -0.0337  0.141
0.0403 -0.177 -0.638
0.0403  0.286 -0.740
-0.0331 -0.105 -0.349
-0.0331  0.242  0.597
-0.0331  0.164 -0.0984
0.0403  0.383 -0.0721
-0.0331 0.0250  0.296
-0.0331 0.0991  0.602
-0.0331 -0.0306  0.495
0.0403 -0.0383  0.322
-0.0331 -0.109 -0.0288
0.0403 0.0729 0.0345
0.0232  0.447  0.768
-0.0396 -0.444 -0.00720
-0.0338 -0.318  0.534
0.0403 -0.302  0.336
-0.0331  0.164 -0.242
-0.0598 -0.521 0.0387
-0.0338  0.299  0.315
-0.0332  0.302 -0.443
0.0248 -0.440  0.308
-0.0395 -0.344 -0.839
-0.0155  0.524  0.118
-0.0332  0.242  0.160
-0.0338  0.421 0.0623
-0.0395  0.291 -0.839
-0.00261  0.508 -0.831
-0.0612 -0.595 -0.104
0.00852 -0.465 -0.346
0.0394  0.443 -0.401
0.0403  0.221  0.716
0.0403  0.272 0.0762
0.0403  0.184  0.480
0.0403 -0.177  0.619
0.0403  0.180 -0.155
-0.0331 0.0389  0.379
0.0403 -0.391 -0.526
0.0403 -0.312 -0.730
0.0403  0.425 -0.132
0.0403  0.217 -0.336
-0.0337 -0.423 -0.0902
-0.00451  0.197  0.810
0.0403 -0.0244 0.0299
-0.0331 -0.00278 0.0824
0.0403 -0.0151 -0.665
-0.0331 -0.00741  0.166
-0.0331 0.0111  0.569
-0.0338  0.354 -0.0655
0.0403  0.175 -0.763
-0.0331  0.233 -0.228
-0.0404 -0.451 -0.739
-0.0338 -0.411 -0.557
-0.0373 -0.440 0.0638
0.0405 0.0451 -0.781
0.0405  0.119  0.739
0.0403 0.0544  0.600
0.0403 -0.140  0.364
0.0403  0.166  0.674
0.0403 -0.196  0.498
0.0403 -0.0151 -0.193
-0.0331 -0.0538 -0.502
-0.0338 -0.366 -0.0593
-0.0331 0.0714 -0.0659
0.0405 0.0359  0.739
-0.0838 -0.740 0.0434
0.0403 -0.340  0.113
-0.0327 -0.0529  0.794
0.0403 -0.395 -0.772
0.0317 -0.429 -0.508
-0.0331  0.117  0.652
-0.0338 -0.398  0.622
0.0394  0.443 -0.591
-0.0338 -0.318  0.446
-0.0332  0.283 -0.354
0.00835  0.491 -0.690
0.0403 0.0776  0.697
0.0403  0.397  0.554
0.0403  0.115  0.238
-0.0404  0.518  0.234
0.0403  0.119 -0.730
0.0403 -0.196 -0.267
0.0403  0.231 -0.475
0.0403  0.235  0.475
0.0403 -0.307 -0.420
0.0403  0.277  0.192
0.0403 -0.187  0.141
0.0403  0.226  0.257
0.0403  0.291 -0.563
0.0403 -0.381  0.577
0.0403 -0.0754 -0.434
-0.0331 -0.0769  0.472
-0.0331  0.233  0.448
0.0403 -0.0476 -0.114
-0.0395  0.360 -0.839
0.0403  0.110 -0.415
-0.0330  0.297  0.744
0.0403 0.0915  0.512
0.0403 -0.159 -0.758
0.0403  0.351 -0.248
0.00450 -0.471 -0.777
0.00450 -0.471  0.711
0.00114  0.502 0.0809
0.0376 -0.420  0.415
0.0623 -0.669 -0.0767
-0.0404 -0.474  0.581
-0.0338  0.425  0.224
-0.0155  0.524 -0.193
-0.00831 -0.491  0.447
-0.0404 -0.492  0.289
-0.0404  0.513  0.637
-0.00261  0.508  0.166
0.0286 -0.302  0.760
-0.0332 -0.136 -0.426
0.0102 -0.0337  0.788
-0.0404 -0.474 -0.0767
-0.0335  0.297 -0.0352
-0.0329  0.188  0.762
0.00300  0.499  0.416
-0.0395 -0.380 -0.865
-0.0336  0.493 -0.774
-0.0404  0.184 -0.846
-0.0331 -0.292  0.665
0.00639 -0.296  0.794
-0.0332  0.255  0.521
0.0177  0.477 -0.0690
-0.0156  0.314  0.823
0.0355 -0.423  0.141
-0.0404 -0.488  0.206
0.0397 -0.150  0.743
0.0392 -0.417 -0.0257
-0.00636  0.153  0.813
-0.0338  0.327  0.176
-0.0600 -0.521 -0.0906
-0.0338  0.414 -0.325
0.0212  0.471 0.0963
0.0403  0.319  0.428
0.0403  0.393  0.480
0.0403  0.198  0.549
0.0403  0.305  0.702
0.0403  0.184 -0.545
0.0403 -0.0939  0.660
0.0403  0.300 -0.137
-0.0331  0.146 -0.205
0.0403 -0.326  0.679
0.0403  0.351  0.169
0.0403 -0.182  0.568
0.0403 -0.326 -0.355
0.0403 0.0683 -0.341
0.0403 0.0729 -0.244
0.0403 0.0173 -0.624
0.0403  0.397 0.0623
-0.0382  0.496 -0.0675
-0.0331 -0.0260  0.361
-0.0331  0.238 -0.414
0.0403 0.0868  0.308
0.0380  0.446  0.483
-0.0331  0.210 -0.321
-0.0424 -0.655 0.0523
-0.0331 0.0338  0.648
-0.0331 0.0853 -0.145
0.0408 -0.247 -0.485
-0.0331  0.122 -0.321
0.0403 -0.381 -0.424
0.0403  0.319 -0.619
0.0403  0.416 -0.689
-0.0331 -0.0491 -0.251
-0.0331 0.0436 -0.474
-0.0331 -0.0862 -0.0937
-0.0609 -0.641 -0.0257
-0.0331 0.0297  0.180
-0.0331 0.0343 -0.0937
0.0403 -0.0800 -0.211
0.00803 -0.521 -0.0628
-0.0331  0.234 -0.553
0.0403 -0.404 0.0716
0.00637 -0.468  0.243
-0.0331  0.238 -0.599
0.0403 -0.145  0.498
-0.0331 -0.0769 -0.177
0.00114  0.502  0.229
-0.0101  0.493  0.819
-0.0404  0.231 -0.851
-0.0338  0.439  0.762
-0.0338  0.307  0.406
0.0397 -0.238  0.743
0.0403  0.365  0.262
0.0403 -0.205 -0.378
-0.0338  0.416 -0.741
-0.0331 -0.0908  0.286
0.0139  0.462 -0.825
-0.0404 -0.469 -0.596
-0.0331  0.155 0.0453
-0.0373 -0.440  0.370
0.00114  0.502  0.748
-0.0330 -0.0794  0.759
0.0299 -0.432  0.739
-0.0369  0.133  0.795
0.0217  0.472 -0.279
-0.0332  0.246  0.359
-0.0338 -0.350 -0.549
-0.0404 -0.488 -0.397
-0.0332  0.242  0.221
0.0403  0.430  0.206
0.0364 -0.710 -0.121
-0.0336  0.406 -0.523
-0.0338  0.488  0.273
0.0403 -0.386 -0.239
-0.0338  0.287 0.0945
0.0305 -0.154 -0.799
0.0299 -0.432 -0.193
-0.0336 -0.242  0.416
-0.0678 -0.636 -0.0953
0.0154 -0.454  0.405
-0.00422 -0.485 -0.624
0.000961 -0.238  0.802
-0.00297 -0.482 -0.665
-0.0331 -0.0371  0.689
0.00264 -0.474 0.0623
0.0403 -0.108 -0.406
0.0403  0.184 -0.364
0.0403 -0.349 -0.610
0.0403 -0.0615  0.387
-0.0331 -0.0862  0.435
0.0403 -0.0569 -0.0211
0.0264 -0.437 -0.383
-0.0331 0.0621 -0.567
0.0403 -0.0198 -0.0489
0.0403  0.240 -0.00256
0.0403 -0.256 -0.0582
0.0403 -0.0244  0.707
-0.0331  0.196  0.615
0.0403 -0.344 -0.318
-0.0192 -0.729 0.0590
0.0403  0.147  0.169
-0.00826 -0.233 -0.858
0.0403  0.124 -0.105
0.0403 -0.358  0.271
-0.0335  0.314 -0.120
0.0305 -0.0646  0.757
0.0191 -0.448  0.660
0.0155 -0.454 -0.165
-0.0334 -0.325  0.617
-0.0645 -0.608 -0.000273
-0.0404 -0.474  0.507
-0.0338 -0.411 -0.0284
-0.0333  0.319 -0.268
-0.0337 -0.423 -0.656
-0.0382  0.496  0.577
0.0403 -0.395 -0.387
-0.120 -0.688 -0.0663
-0.0882 -0.539 -0.00636
-0.00980  0.519 -0.593
-0.0400  0.521 -0.656
-0.00451 -0.344 -0.852
-0.0331 -0.156  0.417
-0.0338 -0.318 -0.722
-0.0338 -0.225 -0.448
0.0403 -0.377  0.670
0.0403 -0.279  0.377
0.0403  0.277 -0.234
0.0403 -0.103  0.150
0.0403  0.258 -0.383
0.0403 -0.344  0.503
0.0403  0.379 -0.392
0.0403 -0.131 -0.489
0.0403  0.254 -0.109
0.0403 -0.228 0.0438
0.0403 -0.140  0.132
0.0403  0.235  0.183
0.0403  0.291  0.623
0.0403 -0.210 -0.179
-0.0331  0.192 -0.576
0.0403 -0.182 -0.443
0.0403 -0.122 -0.689
0.0403 -0.330  0.642
0.0403  0.370 -0.480
0.0403 -0.381 -0.169
0.0403 0.00804  0.660
-0.0331 0.0482  0.537
0.0403 0.0173  0.192
0.0403 0.0915 -0.211
-0.0331 -0.0167 -0.339
-0.0331 0.0899 -0.488
0.0403  0.300 -0.0489
0.0403 -0.0476  0.600
0.0403  0.193 0.0392
0.0403  0.416 -0.0489
-0.0331 0.0714  0.462
0.0403 0.0683 -0.466
0.0403 -0.344 0.0345
0.0403 -0.0151  0.428
0.0403 -0.0105  0.572
0.0403  0.430 0.0206
-0.0331 -0.00278 -0.108
-0.0331 -0.0538 0.0500
-0.0336 -0.163 -0.0759
0.0403 -0.238 0.0855
0.00300  0.499  0.495
-0.0331  0.183 -0.131
0.0403 -0.0615 -0.591
0.0403  0.101 0.0994
-0.0404 -0.460  0.670
0.0305  0.101 -0.799
0.0403 -0.261  0.632
0.0403  0.156  0.322
-0.0331  0.146 -0.367
-0.0331  0.169  0.212
-0.0331  0.192  0.106
0.0403  0.346 -0.211
0.0403  0.314  0.326
0.0403  0.388 -0.568
-0.0404 -0.488 -0.549
0.0403  0.217  0.123
0.0403  0.152 -0.452
0.0139  0.379 -0.825
0.0392 -0.417 -0.452
0.0299 -0.432 -0.619
0.00114  0.502 0.0160
-0.0563 -0.720 0.0572
-0.0338  0.413  0.132
-0.0156 -0.289  0.823
0.0403  0.263 -0.642
0.0403 -0.136 -0.587
0.0403 -0.122 -0.0582
-0.0338 -0.318  0.159
-0.0338 -0.210  0.262
0.0403  0.434  0.382
-0.0338  0.338  0.256
-0.0338 -0.256 -0.627
0.0403 0.0637  0.442
-0.0404 -0.488 -0.0350
-0.0338 -0.210 0.00285
-0.0331 -0.0120 -0.557
0.0403 0.00804 -0.309
0.0403 -0.0985  0.280
-0.000924 -0.425  0.805
-0.0404 -0.488 -0.471
-0.0331  0.196  0.328
-0.0338 -0.241  0.236
-0.0338 -0.241 0.0647
-0.0523 -0.557 0.0435
-0.0382  0.496  0.113
-0.0334 -0.150  0.294
-0.0347  0.493 -0.704
-0.0404 -0.145  0.813
-0.0338  0.476  0.647
-0.0338  0.320  0.507
-0.0338 -0.411  0.148
0.0400 -0.353 -0.785
-0.00298 -0.482 -0.151
-0.0116 0.0637 -0.864
-0.0102 -0.493 -0.359
-0.0116 -0.496  0.354
-0.0338  0.368 -0.144
-0.00261  0.508 -0.339
0.0139  0.482 -0.532
0.0193  0.474  0.164
0.0102  0.212 -0.830
0.0191 -0.448  0.600
0.000961 -0.302 -0.844
-0.0338  0.403 -0.207
-0.0338  0.435 -0.136
0.0403  0.416 -0.327
-0.00637 -0.159 -0.855
-0.0331  0.233 0.0958
-0.0338  0.446 -0.465
-0.0338  0.362  0.349
-0.0331  0.122  0.574
-0.0404 -0.409 -0.842
0.0340  0.163  0.752
0.0403  0.244  0.554
0.0403  0.397  0.350
0.0403 -0.326  0.387
0.0403 -0.122 -0.341
0.0403  0.258  0.285
0.0403 -0.367  0.470
0.0403 -0.201  0.211
0.0403 -0.247 -0.202
0.0403 -0.150  0.433
0.0403 -0.256  0.294
0.0403  0.221 -0.684
0.0403 -0.201 -0.679
0.0403 -0.335  0.568
0.0403 -0.0151  0.350
0.0403 0.0312 -0.485
0.0403 -0.0800  0.447
0.0403 0.0961  0.377
0.0403 0.0266  0.433
0.0403 0.0312 -0.0489
0.0403  0.212 -0.0396
-0.0331 -0.0538 0.00360
0.0364 -0.741 -0.0396
-0.0701 -0.580 -0.0396
0.0342  0.452 -0.642
0.0403  0.356 -0.105
-0.0404  0.500 -0.160
0.0403  0.351  0.679
0.0403 0.0312  0.503
0.0403  0.235 -0.772
-0.00825 0.0776  0.816
-0.0338  0.488  0.500
-0.0338  0.433  0.391
0.00829  0.414  0.791
-0.0131 -0.469 -0.865
-0.0338  0.452 -0.00836
0.0503 -0.707 0.0597
0.0397 -0.0476 -0.785
0.0159 -0.455 -0.0300
0.0227 -0.443 -0.276
-0.0117 0.0324  0.821
-0.0547 -0.639 -0.0614
-0.0155 -0.499 -0.220
-0.00637  0.156 -0.855
-0.0129  0.524 -0.792
-0.0393 -0.498 -0.826
-0.0131 -0.0588  0.823
-0.0331  0.206  0.411
-0.0331  0.127  0.716
0.0403  0.402  0.619
0.0403 -0.386  0.623
0.0403 -0.377  0.368
0.0403 -0.326  0.248
-0.0331 -0.0955 -0.256
0.0403  0.254 -0.146
0.0403 -0.340  0.438
0.0403 -0.256  0.410
0.0403 0.0637  0.187
0.0403 0.0544 -0.559
0.0403 -0.256  0.586
-0.0404 -0.465  0.809
-0.0404  0.421  0.818
0.0403 0.0266 -0.188
0.0403 0.0683 -0.679
0.0403 -0.150 0.00670
0.0403  0.147 -0.00720
-0.0331 0.0204  0.258
0.0403 -0.205 0.0160
0.0225 -0.741 0.0253
-0.0193  0.524  0.470
-0.0404 -0.474  0.174
0.0403 -0.0893 -0.485
0.0403  0.328 -0.276
-0.0331  0.183  0.532
-0.0368 -0.499  0.660
-0.0338 -0.318  0.210
-0.0394  0.258  0.823
-0.00588 -0.488 -0.744
-0.0338 -0.411 -0.603
-0.0334 -0.148  0.198
-0.0331 -0.141  0.657
-0.00968 -0.599 -0.101
-0.0338 -0.334  0.333
-0.0404 -0.479  0.461
0.0230  0.468 -0.574
0.0317 -0.429 0.0484
-0.0336  0.353 -0.687
-0.0338 -0.256 -0.206
-0.0338  0.464 -0.641
-0.0331 0.0656  0.724
-0.0338  0.307  0.272
-0.0336  0.277  0.566
-0.0338  0.360  0.121
0.0268  0.463 -0.200
-0.00462 -0.485  0.600
-0.00462 -0.485  0.271
0.0213 -0.210 -0.813
-0.0334  0.395 -0.562
0.0264 -0.437  0.489
-0.0330 -0.279  0.733
-0.0366  0.524  0.684
-0.0101 -0.275 -0.861
-0.0331 -0.130  0.444
0.0193  0.474  0.359
-0.0404  0.500 -0.485
-0.00831 -0.491 -0.494
-0.0337  0.491 0.0723
-0.0331 -0.0901  0.711
-0.0395 -0.126 -0.839
0.0231 -0.321 -0.811
-0.0404  0.504  0.396
-0.0395 -0.394  0.797
-0.0404 -0.465 -0.512
-0.0338 -0.383 0.0130
-0.0366  0.524  0.605
-0.0332  0.324 -0.532
0.000773 -0.477  0.660
-0.0331  0.191  0.657
-0.0338  0.344  0.675
-0.0404 -0.469  0.127
-0.00607  0.513 -0.0196
0.0248 0.0266 -0.808
-0.0338  0.452  0.701
0.0403  0.295 -0.689
0.0403  0.374 -0.642
0.0403  0.286  0.160
0.0403  0.277 -0.480
-0.0331 -0.0306 -0.465
0.0403  0.119 -0.258
-0.0331  0.196 -0.423
0.0403  0.221 -0.429
-0.0331 -0.0955  0.166
0.0403 -0.224 -0.0489
0.0403  0.360  0.489
0.0403  0.393  0.424
0.0403 -0.0290  0.396
-0.0331 -0.00278 -0.270
-0.0331  0.122 -0.0196
0.0403 -0.0893  0.586
-0.0331 0.00649 -0.594
0.0403 0.0405  0.313
-0.0377 -0.741 -0.0118
-0.0331  0.104 -0.0566
0.0403  0.383 -0.318
0.0403 -0.233 -0.753
0.0403 -0.284 -0.206
0.0101 -0.462 -0.587
0.0403 -0.0754  0.123
0.0403 -0.0661 -0.378
0.0193  0.474 0.0113
-0.0338 -0.366 -0.722
-0.0338  0.305  0.205
-0.0338 -0.411  0.546
-0.0331  0.183 -0.168
0.0403 -0.302 0.0855
0.0403 -0.252  0.466
0.0403  0.365 -0.735
-0.0338  0.410  0.357
-0.0338  0.352  0.498
-0.0678 -0.567 -0.0721
0.0403  0.129  0.707
0.0403  0.319 -0.777
-0.0331  0.276  0.716
0.0341  0.452 -0.711
-0.00504 -0.537 0.00205
-0.126 -0.727 -0.00854
0.0403  0.133  0.410
0.0403 0.0544 0.0623
0.0408  0.221  0.350
0.0403  0.231 -0.582
-0.0331  0.141  0.481
0.0403 -0.205 -0.610
0.0403  0.142 -0.702
-0.0331 -0.0677 -0.279
0.0403 -0.159 -0.471
0.0403 -0.404  0.447
0.0403 -0.177 -0.397
0.0403  0.161 -0.183
0.0403 -0.256 -0.684
0.0403 0.00341 -0.220
-0.0331 0.0204 -0.400
-0.0331 0.0667 -0.307
-0.0331 -0.0723 -0.474
0.0403 -0.0522  0.466
-0.0331 0.0806  0.518
0.0403 -0.0105 -0.105
-0.0192 -0.0476 -0.866
-0.0338 -0.383  0.342
-0.0338 -0.398 -0.203
0.0403 -0.377 -0.132
0.0403  0.254  0.104
0.0403 -0.0893  0.702
0.0403 -0.210 -0.318
0.0403 0.0173 -0.749
-0.0338 -0.350  0.508
0.0403 -0.340  0.730
-0.0368 -0.499 0.0299
-0.0332 -0.283  0.592
-0.0404 0.0961  0.813
-0.0370  0.458  0.823
-0.0333  0.266  0.314
-0.0373 -0.440  0.453
-0.0368 -0.499  0.322
-0.0338  0.423  0.723
-0.0338  0.410  0.644
-0.0338  0.435 -0.0708
0.00114  0.502  0.637
-0.0338 -0.303 -0.271
0.0248  0.305 -0.808
-0.0334 -0.148 -0.177
0.0405  0.300  0.739
0.0314 -0.661 0.0523
-0.0332  0.278 -0.225
0.0404 -0.113 -0.239
-0.0204 -0.518 -0.104
-0.0332  0.255 0.0250
-0.0373 -0.440 -0.770
0.00693  0.223  0.794
0.0403  0.129 -0.591
0.0403  0.129  0.452
-0.0338  0.401  0.421
-0.0331  0.104  0.226
0.0408 -0.150 -0.322
0.0403 -0.150 -0.378
0.0408 -0.228 -0.452
-0.0334  0.272  0.381
-0.0332  0.296 -0.296
0.0403 -0.391 -0.587
0.0403 -0.252  0.674
0.0403 -0.386  0.192
0.0403 -0.372 0.0670
0.0403  0.272  0.530
0.0403  0.254 -0.744
0.0403 -0.219  0.470
0.0403  0.244 -0.508
0.0403 -0.214  0.359
0.0403  0.193 -0.406
0.0403  0.407  0.141
0.0403  0.193 -0.471
0.0403 -0.279 -0.0906
0.0403 -0.293  0.197
0.0403 -0.335 -0.401
0.0403  0.268 -0.0721
0.0403 -0.154  0.206
0.0403 -0.0569 -0.675
0.0403 0.0498  0.674
0.0403 -0.0290 -0.452
-0.0331 -0.0538 -0.316
0.0403  0.291 -0.313
0.0403  0.328  0.572
0.0403  0.203 -0.619
0.0403 -0.284 -0.712
0.0403 0.0359 -0.253
0.0403 -0.0105 -0.397
0.0403 -0.0522 -0.285
0.0403  0.184 -0.0721
0.0403 -0.0105  0.276
-0.0331 0.0158 -0.321
0.0403 0.0544 -0.373
0.0174  0.477 -0.764
-0.0331 0.0389 -0.0242
-0.0331 -0.0352 0.0777
-0.0331 0.0528 -0.149
-0.0331 -0.105 -0.469
0.0403  0.439  0.415
-0.0368 -0.499  0.433
-0.0327  0.271  0.793
-0.0239 -0.173  0.823
0.0403  0.337 0.0947
-0.0404 -0.465 -0.420
0.0403 -0.279 -0.573
0.0403 -0.284  0.521
-0.0331 0.0389  0.453
-0.0331 -0.0352  0.421
0.0403 -0.307 -0.244
-0.0155 -0.499 -0.322
0.0358  0.449  0.523
0.0141 -0.443  0.782
0.00853 -0.641 -0.0304
0.0264 -0.437 -0.0953
-0.0338  0.462 -0.784
-0.0338  0.423  0.101
0.0213  0.348  0.771
-0.0404 -0.469 0.0855
0.0403  0.430 -0.285
0.0121 -0.238 -0.827
-0.0331  0.307 -0.577
0.0403  0.328 -0.698
0.0174  0.477  0.436
-0.0331 -0.0120  0.240
0.0403 -0.173 -0.554
0.0403 -0.316  0.141
0.0403  0.342 -0.410
0.0403  0.416 -0.531
-0.0338 -0.179 -0.156
-0.0338 -0.411 -0.464
-0.0331 0.0899  0.147
-0.0329 -0.180 -0.729
-0.0331  0.108 -0.553
0.0403  0.147 -0.364
0.0173 -0.451 -0.410
0.00637 -0.468  0.489
0.00638  0.121  0.794
0.0267  0.410  0.763
0.0403 -0.150 -0.0257
-0.0331 -0.0866  0.639
-0.0331 -0.0214  0.611
-0.0338 -0.334 0.0275
-0.0338  0.290  0.153
0.0156 -0.00586 -0.822
0.0102  0.488 -0.114
0.0321  0.454  0.719
-0.0338  0.306  0.674
0.0381  0.152 -0.789
-0.0331  0.108 -0.413
-0.0155 -0.499  0.720
0.0403  0.319 -0.448
0.0403 -0.103  0.544
-0.0395 -0.293 -0.839
-0.0338  0.442 -0.255
-0.0331 0.0705  0.666
-0.0338  0.431 -0.391
-0.0337  0.441 -0.664
-0.0677 -0.595 0.0345
-0.0338  0.452 -0.296
-0.0331 -0.293  0.704
-0.0338 -0.318 -0.555
0.0397  0.240  0.743
-0.0332  0.333 -0.601
-0.0367  0.524 -0.549
-0.0404 -0.479  0.725
-0.0851 -0.689 -0.105
-0.0404  0.500  0.725
-0.0402 -0.496  0.530
-0.0333  0.297 -0.151
-0.0338  0.481  0.363
-0.00980  0.519 0.0561
-0.0192 -0.499  0.795
0.0340  0.451  0.243
-0.0338 -0.303 0.0770
-0.000460  0.505  0.344
-0.0404  0.518  0.183
-0.0338  0.386 -0.303
-0.0338  0.416  0.470
0.00356  0.500  0.286
-0.00966 -0.615 0.0394
-0.0331  0.210  0.161
-0.0332 -0.136 0.0147
-0.0332 -0.136  0.233
-0.0338 -0.415 -0.812
-0.0395 -0.0939 -0.839
-0.0338  0.347  0.706
-0.0404 -0.479 -0.197
-0.0338  0.437 -0.518
-0.0338 -0.241  0.269
-0.0338  0.431 -0.613
-0.0382  0.496 -0.739
-0.00934 -0.567 0.0299
0.0302  0.457  0.124
-0.0369 0.0868 -0.837
-0.0338  0.325 0.0163
-0.0338 -0.334 -0.0420
0.0243 -0.440 -0.808
-0.0331  0.233 -0.0386
-0.0239  0.411 -0.866
-0.0331  0.183  0.356
-0.0338  0.392 -0.686
-0.0332  0.402 -0.810
-0.0334  0.272  0.214
-0.0337  0.382 -0.395
-0.0155  0.128 -0.866
-0.0338  0.331  0.324
-0.0331  0.210 -0.0614
0.0403  0.360  0.637
0.0403  0.156 -0.665
0.0403  0.235  0.660
0.0403 -0.265 -0.614
0.0403 -0.340  0.220
0.0403  0.365  0.359
0.0403 -0.252 -0.364
0.0403  0.370 0.0762
0.0403 -0.0985 -0.712
0.0403 -0.353 -0.183
0.0403  0.328 -0.123
0.0403 -0.358 -0.466
0.0403  0.272 -0.285
-0.0404 -0.460  0.322
0.0403  0.319  0.266
0.0403 -0.150 -0.702
-0.0331  0.136  0.518
-0.0404 -0.460  0.609
0.0403 -0.340 -0.0396
0.0403  0.105  0.484
-0.0331 0.0621  0.129
-0.0331 0.0482 0.0407
0.0403 0.0451  0.377
-0.0331 -0.0769 -0.386
-0.0331 0.0297 -0.173
-0.0331 -0.0538  0.347
0.0121 0.00958  0.785
-0.00232  0.508  0.527
0.00299  0.499  0.198
-0.0404 -0.488  0.377
0.0403 -0.214 -0.118
-0.0331  0.212  0.823
0.0403 -0.0893  0.484
-0.0338 -0.210 -0.234
-0.0338 -0.287 -0.487
-0.0332  0.242  0.290
0.0403 -0.0476  0.526
0.0403 -0.191 -0.749
0.0403 -0.289 -0.522
0.0403  0.328 -0.577
-0.00110 -0.479 -0.0906
0.0193  0.474 -0.406
0.0403 -0.261 0.0252
0.0403 0.0822 -0.313
-0.0338 -0.179 -0.379
-0.0338  0.328  0.603
-0.0331 -0.0402  0.639
-0.00298 -0.482  0.530
-0.0404 0.00341  0.818
0.0174  0.477 -0.658
0.0403  0.430 -0.763
0.00264 -0.474  0.572
-0.0338  0.446  0.587
-0.0338  0.488 -0.339
0.00637 -0.468  0.109
-0.0338  0.423 -0.0377
-0.00426  0.351 -0.853
-0.0337  0.375 -0.365
0.0282 -0.434  0.628
-0.0327 -0.123  0.793
-0.0338 -0.398  0.664
-0.0367  0.524 -0.466
0.0121 -0.0939 -0.827
-0.0102 -0.493  0.637
0.00264 -0.474 0.0299
-0.0285 -0.710 -0.121
0.0359 -0.202  0.749
-0.0338  0.382  0.504
0.0282 -0.434 -0.318
-0.0404 -0.469 -0.651
-0.0331 -0.499  0.132
-0.0467 -0.543 -0.107
-0.0693 -0.740 -0.112
-0.0102 -0.493 -0.420
-0.0336 -0.273  0.477
-0.0338 -0.241 -0.422
-0.0338 -0.179 0.0569
0.0403  0.425 -0.656
-0.0338 -0.225 -0.207
-0.0337  0.337 -0.194
-0.0331  0.130  0.680
-0.00980  0.519 -0.222
0.0156 -0.125  0.780
-0.114 -0.723 -0.0795
-0.0338  0.488  0.181
-0.0331  0.190  0.689
0.0155  0.480 -0.339
-0.0331 0.0324  0.689
0.00823 -0.465 -0.00256
-0.0338 -0.383 -0.135
-0.106 -0.659 0.0202
0.0248 -0.440  0.211
-0.0116 -0.496 -0.545
-0.0404  0.263 -0.855
-0.0369 0.00805 -0.837
0.00470 0.0590 -0.839
-0.0334  0.438  0.794
-0.0329  0.336  0.778
-0.0360  0.495 -0.244
-0.0114  0.522  0.792
-0.0338  0.461 -0.412
-0.0601 -0.659 -0.114
0.00823 -0.465  0.289
0.0286  0.365 -0.802
-0.0338  0.395  0.615
-0.0338  0.407 -0.453
0.0136 -0.457 -0.726
-0.0331  0.161  0.707
-0.0331 -0.170  0.569
0.0245 -0.440 -0.540
0.0264 -0.437 -0.471
0.0392 -0.417 -0.0767
-0.00980  0.519 -0.305
-0.0338  0.360  0.598
-0.0117  0.236  0.821
-0.0338  0.421  0.693
0.0355 -0.423  0.345
0.0140 -0.570 -0.0211
-0.0403 -0.377  0.821
-0.0332 -0.136 -0.277
-0.0403  0.379  0.821
-0.0393 -0.498 -0.604
0.0403  0.129 -0.633
-0.0333  0.382 -0.617
0.0403  0.119 -0.0350
0.0408 -0.205 -0.424
0.0403 -0.224 -0.503
0.0408  0.254  0.410
0.0408  0.305  0.489
-0.0114  0.522 -0.122
0.0403  0.268  0.605
0.0403 -0.150  0.702
0.0403  0.379 -0.610
-0.0331 -0.128  0.147
0.0403 -0.205  0.396
-0.0331 -0.0955 -0.140
0.0403 -0.201  0.447
0.0403  0.207 -0.234
0.0403 -0.0985  0.336
0.0403  0.161 -0.132
0.0403  0.291 -0.434
0.0403 0.0822 -0.494
0.0403  0.411 -0.587
0.0403 -0.330 -0.707
0.0403  0.184  0.697
-0.0331 0.0158  0.351
0.0403 0.0173 -0.424
-0.0331 -0.0213  0.305
-0.0331 -0.0167 -0.395
0.0403 0.0729 -0.276
0.0403 -0.0800  0.410
-0.0331 0.0806 -0.214
0.0403  0.295 0.0484
0.0403 0.0312  0.623
0.0403 0.0822 -0.0443
0.0403 -0.0847 -0.0350
0.0403  0.249 0.0577
-0.0331 0.0111 -0.469
-0.0331 0.0111 -0.516
0.0403  0.370 -0.0211
0.00450 -0.471  0.178
-0.0331 -0.0723 0.0268
0.0403 -0.154 0.0623
0.0318 -0.741 -0.0860
-0.0332  0.276 -0.0649
0.0403  0.407 -0.109
0.0403 -0.0800  0.169
-0.0332  0.238 0.0492
-0.00425  0.510 -0.398
-0.0102 -0.493  0.243
-0.0404 -0.465 -0.230
0.0403  0.156  0.428
0.0403  0.156 -0.304
0.0403  0.166 -0.522
0.0403  0.152 -0.244
-0.0338 -0.383 -0.274
-0.00580  0.464  0.813
0.0405  0.397  0.739
0.00640  0.306  0.794
-0.0337  0.491  0.244
0.0175  0.178  0.777
-0.0338  0.442 -0.195
-0.0332  0.348 -0.489
0.0248  0.272 -0.808
-0.0336  0.283 0.0441
-0.0338  0.380  0.234
-0.0329  0.149  0.771
-0.000726  0.505  0.557
0.0155  0.480 -0.465
-0.0338  0.357 0.0116
-0.0331  0.224 -0.200
-0.000924 -0.174  0.805
-0.0399  0.521  0.285
-0.0390  0.523 -0.00681
-0.0331  0.256 -0.284
-0.0404 -0.469 -0.786
0.0403  0.119 -0.383
0.0403  0.115  0.317
-0.0394  0.143  0.823
-0.0331  0.132 -0.274
0.0403 -0.0522 -0.735
0.0403  0.175  0.507
0.0403  0.360 -0.559
0.0403 -0.159  0.266
0.0403  0.342  0.340
0.0403  0.342  0.396
0.0403 -0.391  0.340
0.0403 -0.150  0.391
0.0403 -0.395 -0.211
0.0403  0.249 -0.415
0.0403  0.407 -0.225
0.0403  0.244 -0.183
0.0403  0.166 0.0299
0.0403 -0.321 -0.142
0.0403  0.342 0.0623
0.0403 -0.0569 -0.503
0.0403 -0.112  0.438
-0.0331  0.146  0.258
-0.0331  0.122  0.282
0.0403 -0.140 -0.179
0.0403 -0.122  0.229
0.0403 -0.191  0.183
0.0403 -0.108 -0.169
0.0403 -0.358 -0.531
0.0403  0.286 -0.392
0.0403  0.295  0.289
0.0403  0.258  0.252
0.0403  0.370  0.461
-0.0404 -0.465 -0.276
0.0403  0.388 -0.169
-0.0331 -0.0908  0.402
0.0403 -0.140 -0.448
0.0403 -0.284  0.679
0.0403  0.360  0.558
0.0403  0.258 -0.679
0.0403 0.0219 -0.512
0.0403 0.0961  0.456
0.0403 -0.0244 -0.276
-0.0404 -0.465 -0.105
-0.0404 -0.474 0.00208
-0.0331 -0.0955 -0.0659
-0.0331 0.0528 -0.446
-0.0338 -0.179  0.293
0.0403 0.0776 -0.0814
-0.0338 -0.334 -0.218
0.0403 -0.0708 -0.239
0.0409 -0.386 -0.740
-0.0338  0.380  0.442
-0.0331 -0.0584 -0.0845
-0.0338 -0.398  0.483
-0.0239 -0.499 -0.707
-0.0331 -0.0584  0.564
-0.0331  0.215  0.532
-0.0338  0.466 -0.444
-0.0338  0.382  0.653
-0.0404 -0.460  0.215
0.0403 -0.279 -0.410
0.0403  0.129 -0.313
0.0403 0.0219  0.530
-0.0382  0.496 -0.290
-0.00425  0.510 -0.760
-0.0839 -0.643 -0.0720
-0.0338  0.375  0.293
-0.0338 -0.256 -0.0481
-0.0338 -0.194 -0.589
-0.0404  0.328  0.818
-0.0338  0.446  0.634
0.00286 -0.343  0.799
-0.0338 -0.194  0.157
0.0403 -0.265  0.734
-0.00284 -0.0924  0.808
-0.0155  0.525  0.391
-0.0403  0.383 -0.863
0.0503 -0.660 0.0299
-0.0338  0.464 -0.223
-0.0335  0.275  0.448
-0.0382  0.496 -0.406
-0.00451  0.105 -0.852
-0.0337 -0.423 -0.725
-0.0234 -0.516 0.00889
-0.0338  0.379  0.760
-0.0390  0.523  0.531
-0.0347 -0.425  0.793
-0.0332  0.246  0.253
-0.0331 -0.215  0.726
-0.00826 -0.442 -0.858
