ply
format ascii 1.0
element vertex 2048
property float x
property float y
property float z
end_header
-0.352 -0.0933 -0.600
 0.375  0.603  0.663
-0.322 -0.529  0.658
 0.410  0.607 -0.674
 0.358 -0.154 0.0573
 0.369 -0.549 -0.697
-0.356  0.243  0.304
-0.399  0.608 -0.687
 0.382 -0.512  0.650
-0.354 -0.451 -0.0262
 0.254 0.0276 -0.535
 0.117 0.0359  0.643
-0.164  0.607  0.650
-0.133 0.0256 -0.117
-0.327 -0.546 -0.694
 0.353  0.242  0.293
-0.389 -0.0780  0.640
0.00320  0.401 -0.672
 0.362  0.239 -0.148
 0.342 -0.443 -0.269
0.0108 -0.291 -0.683
-0.0652 -0.0348  0.278
-0.360  0.242 -0.378
0.0336 -0.336  0.632
 0.357 -0.191  0.452
-0.348 -0.269  0.314
-0.209  0.241  0.643
-0.362 -0.383 -0.374
 0.110  0.385  0.632
 0.353 -0.451  0.225
-0.0651 0.0731 -0.693
 0.178 -0.0348 -0.201
 0.395 -0.230 -0.678
-0.362  0.221 -0.0163
 0.389  0.279 -0.672
 0.396  0.180  0.640
-0.323  0.294 -0.684
-0.357 -0.101 0.0498
-0.0120  0.236  0.401
-0.0956 -0.0348 -0.406
 0.132 0.0265 0.0802
-0.356 -0.0780 -0.307
-0.118 -0.101  0.644
 0.208 0.0255  0.346
 0.357 -0.162 -0.349
-0.369  0.446  0.632
 0.358  0.242 -0.407
-0.323 -0.00964  0.338
 0.155  0.608 -0.672
-0.149  0.604 -0.662
 0.261 -0.190  0.679
 0.342 -0.412 -0.0186
 0.155  0.195 -0.684
-0.356 -0.305  0.561
 0.364 -0.405 -0.505
 0.352  0.112 0.0667
 0.222  0.234  0.492
 0.110 -0.0780 -0.684
-0.352 -0.336 -0.600
0.0640  0.607  0.657
-0.245  0.102 -0.558
-0.146 0.0475  0.471
-0.339 -0.254 -0.169
 0.363 -0.420  0.445
 0.216 -0.374 -0.684
-0.156 -0.146 -0.684
-0.187 0.0256  0.103
-0.347  0.119  0.518
 0.358 0.0505 -0.309
 0.360  0.393  0.632
 0.344 -0.237 -0.140
-0.357  0.112 -0.193
 0.414 0.0646 -0.663
 0.333 -0.0254  0.574
-0.179 -0.374  0.644
-0.146 -0.448 -0.682
 0.345 -0.228  0.250
 0.208  0.408 -0.672
-0.354 -0.451  0.407
 0.102 0.0256 -0.398
-0.103  0.416  0.632
-0.00604  0.196  0.644
 0.357 -0.00578 -0.0970
-0.407 0.0738 -0.691
 0.224 -0.397  0.632
-0.340 -0.389  0.156
-0.357  0.104  0.171
0.0260 -0.0348  0.468
 0.333 -0.0405  0.217
-0.133  0.249 -0.672
0.0336 -0.0348 -0.0642
-0.224 0.0508  0.647
-0.340 -0.200 -0.452
-0.0120 0.0256 -0.254
 0.347  0.112  0.439
0.0564 -0.146  0.649
-0.209  0.431 -0.684
-0.341 -0.443 -0.208
 0.395 -0.298  0.636
-0.319 -0.0626 -0.117
0.0710  0.100 -0.554
-0.383  0.256  0.632
-0.270 -0.0348 -0.452
 0.334 -0.123 -0.528
-0.184  0.214  0.478
-0.334 -0.161  0.475
-0.258 -0.191  0.675
0.0412 0.0815  0.347
-0.357 -0.268 0.0422
-0.339  0.607  0.650
-0.232 0.0265 -0.284
 0.239 -0.185 -0.683
-0.332 -0.111  0.209
 0.216  0.507  0.644
 0.394  0.446 -0.682
-0.0196 -0.0348 0.0878
 0.170  0.188  0.643
-0.0879 0.0652 -0.531
 0.102 -0.0348  0.225
-0.361  0.227 -0.536
 0.352 -0.0401  0.394
 0.347  0.180 -0.555
-0.0424 0.0350  0.621
-0.232 0.00552 -0.678
-0.343 0.0511 0.0230
 0.383 -0.397 -0.672
 0.239 -0.0348 -0.360
 0.186 0.0265  0.506
 0.261 -0.0348 0.0194
 0.224 0.0434 -0.684
-0.00437  0.552 -0.684
-0.399 0.0730  0.654
-0.357 0.0891 -0.444
 0.345 -0.0780 -0.684
-0.156 -0.298 -0.672
-0.255  0.362  0.567
-0.0348 -0.0773 -0.631
0.0868 -0.448 -0.674
 0.330 -0.101 -0.208
 0.358 0.0891  0.285
0.00323  0.316  0.555
-0.202 0.0256  0.262
 0.347 -0.321 -0.352
-0.387  0.426 -0.682
 0.352 -0.329  0.145
-0.103 -0.245  0.632
-0.278 -0.0348  0.544
-0.357 -0.222 -0.309
-0.343  0.242  0.131
0.0260 -0.0348 -0.505
-0.103  0.119  0.355
 0.163 0.0256 -0.0642
-0.369 -0.222 -0.684
0.0811 0.0610 -0.692
-0.232  0.484  0.636
 0.132  0.187  0.374
 0.281  0.276  0.620
 0.343  0.241 0.0118
 0.277 0.0792  0.648
-0.359 -0.445  0.549
 0.358 -0.253 -0.473
 0.358 0.0891 -0.444
 0.277  0.530 -0.671
0.0108  0.188 -0.672
 0.390 -0.131  0.644
 0.352  0.104 -0.182
 0.363  0.226  0.156
-0.0474 -0.448  0.633
-0.341 -0.435 -0.505
-0.356  0.243  0.441
 0.224 -0.0552  0.644
-0.285 -0.420 -0.684
 0.102 -0.450  0.640
-0.357 -0.238  0.171
 0.342  0.218 -0.277
-0.347  0.242 -0.246
-0.133  0.309  0.553
-0.209  0.135 -0.684
 0.342 -0.352  0.308
0.00173  0.492  0.644
 0.353  0.242  0.445
-0.126 -0.0348 -0.239
-0.171 -0.0348 -0.535
 0.363 -0.376 -0.141
 0.342 -0.405  0.582
 0.216 -0.0348  0.156
-0.341 -0.322  0.435
-0.164 -0.0348  0.369
-0.217 -0.0348 -0.0414
-0.330 -0.183 -0.0635
-0.387 -0.205  0.633
 0.351  0.134 -0.0586
-0.341  0.112  0.308
 0.140 -0.268  0.632
 0.358 -0.283 0.0276
 0.333 -0.131 -0.0642
-0.341 -0.420  0.285
 0.356 -0.0432 -0.433
-0.285  0.552 -0.684
 0.132 -0.260 -0.684
 0.342 -0.314 -0.588
 0.125  0.287  0.552
-0.357 0.0435 -0.581
 0.102  0.476 -0.672
-0.126  0.127  0.643
 0.400 0.0561  0.642
-0.357 0.0663 -0.322
0.0944 -0.0348 -0.292
-0.357 -0.344 -0.0870
0.0260 -0.169 -0.684
-0.330 -0.145  0.354
 0.362 -0.448  0.103
-0.301 -0.382  0.643
 0.217  0.368  0.575
 0.318  0.183 -0.682
 0.364 -0.443 -0.391
-0.0956  0.469 -0.684
 0.343 -0.147  0.339
-0.0803 0.0259 0.00418
-0.0272 -0.412 -0.684
-0.00442 0.0259  0.194
-0.217  0.127  0.553
-0.377  0.188 -0.671
0.0792 0.0265 -0.155
-0.322 -0.00982  0.149
 0.341 -0.214  0.566
-0.341 -0.321 -0.472
 0.220 -0.0798 -0.633
0.0710 0.0493  0.536
 0.155 -0.0348 -0.535
-0.0803 -0.0348  0.536
-0.247 -0.0791  0.647
-0.0500  0.607  0.628
-0.322 -0.00228 -0.216
-0.357 0.0539 -0.0933
-0.265 -0.175 -0.658
-0.357 -0.131 -0.201
 0.140  0.317 -0.684
-0.300 0.0263  0.445
 0.231  0.127  0.555
 0.277 0.0256 -0.216
0.0260 -0.0348  0.346
 0.345 -0.222 -0.254
-0.316  0.165  0.632
 0.358 0.0656 -0.560
-0.0424 -0.0348 -0.148
0.0108 -0.0348 -0.368
 0.358 0.0587  0.171
-0.118 -0.0249 -0.684
 0.132 -0.0348  0.430
 0.193  0.107 -0.580
 0.358 -0.306  0.407
 0.343  0.104  0.562
 0.254 -0.0348  0.445
-0.187 0.0256 -0.414
-0.203 0.0822  0.384
-0.334 -0.215 -0.580
 0.324 -0.0479  0.108
-0.341  0.218 -0.140
-0.0196  0.294 -0.672
 0.358 -0.154  0.171
 0.239  0.264 -0.678
-0.0956  0.264  0.643
 0.375  0.499  0.632
-0.118  0.355 -0.672
0.00313  0.378  0.644
 0.394  0.292  0.643
 0.363  0.233  0.551
 0.178  0.607  0.642
-0.387 -0.450 -0.675
 0.318  0.357 -0.682
 0.357 0.0131 0.0230
0.0336 -0.0351  0.589
 0.162 -0.159  0.657
-0.357 -0.0933 -0.467
-0.356 -0.0628  0.438
 0.117  0.255  0.452
-0.271  0.248  0.559
-0.361 -0.376 0.0545
 0.231 0.0256  0.240
-0.0727 -0.199 -0.652
-0.0855  0.250  0.483
 0.353 -0.451  0.346
 0.251  0.147  0.422
-0.326 -0.131  0.574
-0.331 -0.0249 -0.684
 0.178 0.0259 -0.292
-0.278 -0.0348 0.0422
-0.126 -0.0348  0.194
-0.316 0.0544  0.592
 0.170  0.303  0.644
-0.187  0.355  0.644
-0.00428 0.0204 -0.623
 0.284 -0.450 -0.678
-0.307 0.0818 -0.671
 0.140 0.00885 -0.627
 0.342 -0.321  0.522
 0.277  0.592  0.622
-0.0727 -0.0348  0.414
 0.208 0.0256 -0.436
 0.239 -0.291  0.636
-0.00439 -0.238  0.654
-0.156 0.0513 -0.629
-0.270 -0.0348 -0.588
-0.126  0.514  0.632
 0.358 -0.215 -0.573
-0.347  0.142 0.0667
-0.209 -0.268  0.632
 0.351 -0.0711 -0.306
 0.358 -0.0325 -0.581
-0.118 0.0265 -0.330
 0.316 0.0824 -0.672
-0.103 0.0893  0.554
 0.261 0.0256 -0.0794
-0.341 -0.344 -0.222
-0.300 0.0260  0.247
-0.357  0.165 -0.309
-0.341  0.112  0.414
-0.311 -0.270  0.643
 0.352 -0.116  0.516
-0.232 -0.0348 -0.155
0.0868  0.241  0.643
 0.117  0.514  0.644
-0.0727 -0.0348 -0.528
0.0488 0.0265 0.0118
 0.358 -0.321 -0.222
 0.125 -0.0348  0.551
-0.0481 0.0385  0.352
0.0412 0.0967  0.643
-0.323  0.332  0.643
-0.202 -0.0348  0.483
 0.299 -0.0348  0.308
0.0868 -0.352 -0.684
 0.343  0.137 -0.349
 0.140 -0.0348  0.316
-0.232  0.325 -0.678
-0.389 -0.435  0.640
-0.136 0.0167  0.615
-0.352 -0.184  0.270
0.0640 -0.0348  0.133
-0.330 -0.183 0.0884
-0.232  0.226 -0.678
-0.217 -0.0348  0.171
-0.0956 0.0256  0.126
-0.109  0.200  0.402
-0.321 0.00482 -0.383
-0.149 -0.0348 0.0422
 0.343 -0.329 -0.0599
-0.0879 -0.336  0.643
 0.359 -0.154 -0.444
-0.341  0.150 -0.595
-0.387 -0.336  0.643
-0.179 -0.0694 -0.630
 0.269 0.0256 0.0954
 0.224 -0.276 -0.672
 0.328 0.00499  0.483
 0.299 -0.115  0.631
-0.362  0.208  0.557
-0.253  0.588  0.624
 0.125 -0.176 -0.650
-0.341 -0.435 -0.300
0.0792  0.249 -0.684
0.0108 0.0259 -0.436
-0.0803 -0.0348 -0.0642
-0.343 -0.448 -0.117
 0.132 -0.0348 -0.00340
-0.360 -0.372  0.360
-0.0196  0.107 -0.574
0.0640 -0.0362 -0.604
 0.347 -0.246  0.339
-0.340  0.203  0.225
-0.0169 0.0300  0.531
0.0688  0.607 -0.698
 0.338 -0.153 -0.636
-0.255 -0.0348  0.392
 0.324 -0.254  0.670
 0.140 0.0265  0.171
-0.339 -0.158 -0.372
0.0335  0.171  0.350
-0.0576 -0.0348 -0.307
0.0336 0.0256  0.278
 0.359 -0.00967 -0.216
 0.345 -0.237  0.103
-0.383 -0.336 -0.684
-0.179 0.0257 -0.201
0.0336 -0.0348 -0.201
 0.342 -0.352 -0.437
-0.0196 -0.101  0.643
 0.284 -0.0348 -0.140
 0.309 -0.246 -0.668
-0.323 -0.0174 -0.0414
 0.247 0.0645  0.452
-0.343 -0.309 -0.307
-0.359 -0.445 -0.590
 0.299 0.0265 -0.376
 0.249 0.0404  0.565
0.0412  0.255  0.505
 0.342 -0.420 -0.588
 0.383 -0.0401  0.644
 0.315  0.607 -0.687
-0.311 -0.0198  0.643
-0.324 -0.0244 -0.519
-0.354 -0.116 -0.684
-0.0879 -0.352 -0.672
-0.240 -0.443  0.632
 0.117 -0.359  0.632
 0.342  0.173 -0.459
-0.217 -0.367 -0.684
-0.311  0.466 -0.674
 0.132 0.0663  0.350
 0.341 -0.124  0.255
-0.357  0.150 -0.0645
 0.285  0.160  0.619
-0.341  0.173 -0.472
 0.342  0.203  0.369
 0.117 -0.0857  0.643
 0.269 -0.0348 -0.277
0.0260 -0.0477 -0.684
 0.110 -0.0348 -0.459
-0.217  0.117  0.467
 0.216  0.135 -0.684
-0.312 -0.286 -0.676
 0.239  0.423  0.636
 0.284 -0.0228 -0.634
-0.255 -0.0348  0.293
 0.284 0.0281  0.385
-0.353 -0.238  0.444
 0.193  0.514 -0.671
 0.193 -0.0348 -0.117
 0.186  0.104  0.643
 0.346 -0.451 -0.178
-0.0956  0.173 -0.672
 0.307 -0.0350 -0.512
0.0868  0.393 -0.684
-0.225 0.0256 -0.490
-0.357 -0.215  0.536
 0.339 -0.200 -0.0110
0.0184  0.295  0.644
 0.155 0.0512 -0.531
-0.0569  0.370  0.579
-0.263 -0.0348 -0.338
-0.0656  0.608 -0.666
 0.343  0.137  0.146
 0.246 -0.0348  0.528
 0.351 -0.238 -0.383
 0.360  0.530 -0.672
-0.164  0.522 -0.672
 0.342 -0.359 0.0573
-0.0729 -0.170  0.653
0.0868  0.150 -0.672
-0.222 0.0404  0.565
-0.357 -0.0628  0.285
-0.362 -0.374  0.496
-0.202 -0.222 -0.684
-0.352 -0.00966  0.518
-0.343 -0.448 -0.421
-0.354  0.191  0.376
-0.357 -0.260 -0.0645
-0.133 0.0264  0.308
-0.186 -0.146  0.655
-0.323 -0.104 -0.0406
-0.202  0.157  0.643
-0.339  0.522  0.632
0.0412 0.0256 -0.322
 0.297  0.361  0.575
 0.140 -0.0348 -0.360
 0.284 0.0256  0.179
-0.00437 0.0336 -0.535
 0.208 0.0256 0.0422
 0.353  0.191 0.0803
 0.191 0.0167  0.615
-0.285 0.0265 -0.117
 0.394 -0.400  0.643
-0.314 -0.136  0.657
 0.364  0.218 -0.626
-0.0499 0.0265 -0.383
-0.164 -0.0348 -0.353
-0.359 -0.445 0.0938
 0.342  0.233 -0.0718
 0.304 -0.371  0.643
 0.261 -0.0348 -0.436
-0.171 0.0259 -0.00343
-0.383  0.347 -0.672
-0.209 0.0256 -0.0945
 0.360 -0.321 -0.672
-0.230  0.607 -0.693
-0.126 -0.443  0.632
-0.322 -0.0851  0.126
 0.353 0.0131 -0.672
 0.346 -0.451 -0.0869
 0.347  0.165  0.269
 0.313 0.0251  0.255
 0.342  0.180 -0.208
0.00322  0.104 -0.672
 0.178 -0.443 -0.684
 0.327 -0.0700 -0.00340
-0.357 -0.313  0.150
-0.232 0.0265  0.338
0.0792 0.0265 -0.246
 0.232  0.592 -0.662
-0.232 0.0703 -0.627
 0.358 -0.108  0.430
 0.318 0.0235 -0.454
 0.117 -0.0348 -0.102
-0.0348  0.112  0.644
-0.0651 -0.276 -0.684
-0.156 -0.0348  0.551
 0.302 -0.448  0.633
0.0260 -0.412  0.644
-0.149 -0.0348 -0.163
-0.0402  0.241  0.544
 0.336 -0.161 -0.148
 0.267  0.212  0.550
-0.232 -0.0348 -0.239
 0.178 -0.0249 -0.684
-0.357 -0.0249 0.0573
-0.0120  0.476 -0.684
-0.322 -0.00981 -0.292
0.0716 -0.0348 0.0574
-0.169  0.154  0.408
-0.387  0.502 -0.682
0.0635  0.231  0.394
-0.330 -0.183 0.0124
 0.102  0.142  0.643
-0.341 -0.344  0.285
 0.155  0.446  0.632
 0.345  0.112  0.643
 0.342 -0.376  0.225
-0.340 -0.197 -0.235
-0.0956 0.0256 -0.452
 0.292 -0.376 -0.672
 0.362 -0.372 -0.288
-0.357 -0.0173 -0.452
-0.0949 0.0927 -0.615
0.0412 0.0260 0.0954
 0.162 0.0969  0.550
-0.334 -0.139 -0.125
-0.0803 -0.131 -0.684
-0.103 -0.0351 -0.596
-0.327 -0.146 -0.550
 0.117 0.0256  0.278
 0.201 0.0256 -0.163
-0.177 0.0816 -0.537
 0.160 0.0773 -0.663
-0.156 -0.0348  0.262
0.00318 0.0262 -0.0945
0.0564 0.0798 -0.624
 0.231 -0.0348 -0.0490
-0.194 -0.0348 -0.459
 0.332 -0.101 -0.383
 0.299  0.522  0.632
 0.200 0.0964  0.365
-0.356 0.0232  0.396
 0.330 0.0283  0.643
 0.148 -0.0348  0.118
 0.318  0.266 -0.682
-0.330 -0.153 -0.300
-0.331 -0.0758 -0.376
-0.279 -0.104 -0.650
-0.340 -0.0816  0.513
0.0564 -0.238 -0.661
-0.133 0.0967 -0.684
-0.255 0.0256 -0.0262
-0.0803 0.0256  0.240
-0.263 0.0256  0.171
-0.0424 -0.0173 -0.672
-0.148  0.150  0.546
-0.280 0.0410 -0.535
 0.342  0.239 -0.490
-0.277  0.279  0.624
 0.390  0.173 -0.684
-0.361  0.240 -0.450
-0.185  0.242  0.545
-0.357 -0.370 -0.533
-0.311  0.223 -0.674
 0.208  0.271  0.553
 0.357 -0.0805  0.313
 0.193 -0.124 -0.684
-0.0424 -0.0348  0.202
 0.347 -0.267  0.190
 0.102 -0.200  0.632
 0.342 -0.428  0.513
0.0716 0.0256 -0.0566
-0.0879 0.0256 -0.231
 0.193 -0.0348  0.232
 0.375 -0.222  0.632
 0.193 0.0256  0.118
-0.240 -0.0348  0.103
-0.278 -0.0348  0.217
0.0792  0.454  0.643
 0.352 0.0131  0.315
 0.336 -0.152 -0.267
 0.148 0.0256 -0.224
-0.217 -0.448 -0.674
 0.342  0.233  0.619
-0.164 0.0256  0.194
-0.341 -0.223  0.369
-0.292  0.119  0.563
-0.329 -0.0783 -0.239
 0.251 0.0736 -0.603
-0.0803  0.537 -0.672
-0.407  0.589  0.652
-0.0499  0.226 -0.684
-0.316 -0.450  0.632
-0.387  0.363  0.643
-0.0120 -0.0249  0.644
 0.239 -0.0348 -0.581
-0.169 -0.0514  0.619
-0.343  0.173 -0.226
0.0791 -0.123 -0.638
-0.187  0.431  0.643
-0.334 -0.169 -0.634
 0.178 -0.450  0.636
-0.360  0.241 -0.605
-0.340 -0.389 -0.163
 0.347 0.0764 -0.0983
-0.232 0.0265  0.468
-0.126 -0.0348  0.460
 0.261 -0.0348  0.209
0.0336 -0.0348  0.209
 0.170 -0.321 -0.672
0.0260 -0.0348 -0.277
 0.274 -0.126 -0.642
-0.0500 -0.0348 -0.459
0.0640 0.0256 -0.482
-0.164 0.0264 -0.269
-0.357  0.173  0.156
 0.359 -0.0857  0.156
 0.343 -0.253 -0.0562
-0.0265 -0.147 -0.642
 0.231  0.233  0.644
-0.389  0.256 -0.678
0.0488 0.0281  0.632
 0.125 0.0991 -0.607
 0.193 -0.239  0.666
-0.0879 -0.0249  0.644
-0.255 0.0256 -0.376
 0.193 -0.0348 -0.467
0.0716  0.317 -0.672
-0.0344  0.120  0.345
-0.316 -0.481 -0.672
 0.389 -0.488 -0.672
 0.336 -0.0783 -0.125
-0.225  0.302  0.554
 0.231  0.332 -0.672
 0.318  0.340  0.643
-0.225 -0.0780 -0.683
-0.285 0.0265  0.513
-0.359  0.241 0.0496
-0.0879  0.332  0.643
 0.201 0.0262 -0.368
-0.133 -0.230 -0.684
 0.364 -0.389 -0.216
 0.284 0.0259 -0.00343
-0.316  0.401  0.643
-0.0651 0.0256 -0.110
-0.0879  0.195  0.643
 0.342  0.211 -0.345
 0.178  0.370  0.632
 0.342 -0.253 -0.315
 0.358 0.0359  0.536
0.0488  0.545  0.632
 0.353  0.191  0.490
-0.387 -0.00968  0.643
-0.347 -0.451  0.225
 0.318 0.0235 -0.150
-0.321 -0.204  0.651
 0.269 -0.0359  0.597
-0.0272 -0.306  0.632
 0.224 -0.0348  0.384
-0.0500 -0.0348 0.0270
-0.356 -0.267 -0.433
 0.342 -0.291  0.278
-0.341 -0.435  0.475
-0.341 -0.397 -0.634
 0.356 -0.250  0.485
-0.0956 -0.0348 0.0954
-0.300 0.0257 -0.444
 0.158 -0.0419  0.610
-0.263 0.0265 -0.201
 0.110 -0.00966 -0.684
-0.141 0.0256 -0.520
 0.383  0.347 -0.671
 0.268  0.128  0.484
-0.356 0.0536  0.272
-0.187  0.545  0.643
-0.302  0.314  0.566
-0.334  0.597 -0.700
-0.0529  0.188  0.368
 0.342 -0.397  0.384
-0.125  0.370  0.579
-0.111 -0.0901 -0.633
-0.361 -0.386 -0.0111
-0.263 0.0256 0.0650
 0.155 -0.0919 -0.635
-0.171  0.195 -0.684
0.0488 -0.0704  0.643
0.0944  0.365  0.571
 0.175  0.228  0.439
 0.195  0.159  0.390
0.0260 -0.0348 0.00420
-0.331 -0.175  0.195
-0.245 -0.00809  0.626
-0.361 -0.372  0.594
-0.322 -0.0772  0.338
-0.377  0.188  0.644
-0.179 -0.215  0.655
-0.0575  0.461  0.644
-0.0423  0.355 -0.684
 0.340 -0.0864 -0.619
-0.133 0.0256 0.0650
 0.201 -0.0348 0.0802
 0.336 -0.0254 -0.360
-0.0272 0.0259 0.0650
-0.352  0.173  0.439
-0.0120 -0.0348  0.536
 0.352 0.0663  0.394
-0.357  0.243 -0.312
 0.186 -0.222 -0.684
 0.344 -0.204  0.389
 0.330 -0.0938  0.573
-0.277  0.104  0.624
 0.170 -0.0348  0.490
-0.187 -0.0348 -0.102
 0.342  0.203  0.217
-0.301 -0.0352  0.483
 0.239 -0.0348  0.285
 0.329 -0.00215 -0.284
-0.0196 0.0256 -0.0338
0.0792 -0.0348  0.285
-0.103 -0.0348  0.346
-0.239  0.188  0.554
 0.352  0.165 0.0210
-0.0727 0.0297  0.564
-0.204 0.0623 -0.692
-0.338 -0.246  0.255
-0.264 -0.243 -0.681
-0.341 -0.283 -0.566
-0.285 0.0265  0.376
-0.0424 0.0256 -0.186
0.0184 -0.367 -0.684
 0.347  0.135 -0.600
-0.341 -0.375 -0.437
 0.394 -0.119 -0.674
-0.270 -0.0348 -0.0870
-0.342 -0.246  0.590
-0.318 -0.0550  0.589
 0.117  0.598  0.622
-0.348 -0.0559 -0.182
-0.164  0.295  0.644
 0.110  0.560 -0.684
-0.339 -0.190 -0.163
-0.361  0.236 -0.0825
-0.225  0.492 -0.672
-0.0949 0.0559  0.650
-0.0803  0.408 -0.672
 0.326 0.0116  0.133
 0.337 -0.0542  0.462
-0.347  0.242  0.506
-0.341 0.0435  0.179
-0.315 -0.00575 -0.626
 0.343 -0.368 -0.552
-0.338 -0.253  0.113
 0.333 -0.131  0.118
-0.344 -0.199 -0.520
-0.0192  0.258  0.460
 0.342 0.0511 -0.216
 0.209 -0.117  0.653
 0.358 -0.0628 0.0573
 0.186 -0.0348 -0.277
-0.342 -0.223 -0.391
-0.290 0.0513 -0.610
-0.360 -0.370 -0.309
 0.364 -0.389  0.126
 0.299 -0.0348 -0.201
0.0260 -0.0348 -0.429
 0.224 0.0256 -0.0186
0.0944 -0.0348 -0.186
 0.102 -0.0249  0.643
 0.340 -0.161  0.619
-0.0120  0.560  0.643
 0.208 0.0256  0.179
 0.345 -0.179 -0.500
 0.363 -0.420  0.293
 0.155  0.378 -0.684
 0.224  0.195 -0.672
0.0336 0.0207 -0.672
-0.0120 -0.162  0.632
 0.163  0.256 -0.672
-0.387 0.0157 -0.682
-0.359  0.182  0.280
 0.231 0.00871 -0.627
 0.358  0.172  0.557
 0.347  0.242 -0.558
-0.323  0.363 -0.671
 0.269  0.287  0.561
-0.179  0.355 -0.684
-0.103  0.576  0.630
-0.00438 -0.0351 -0.596
-0.343 0.0511  0.519
-0.347 -0.451  0.156
-0.323 -0.352 -0.684
-0.0499 0.0262 -0.307
-0.190 0.0324  0.423
-0.156 0.0265  0.551
0.0336 0.0265 -0.201
-0.352 0.0517 -0.183
 0.125 0.0256 -0.322
-0.0931 0.0475  0.509
-0.0272 0.0256  0.285
-0.0803  0.287 -0.672
 0.125 0.0256 -0.474
 0.353 -0.255 -0.619
 0.284 0.0265 -0.315
0.0792 -0.0348 -0.368
 0.193 -0.344  0.632
 0.261 -0.0348 0.0878
-0.347  0.104 -0.554
-0.389 -0.276  0.636
-0.323  0.226  0.632
 0.358 -0.184  0.293
 0.130 0.0497  0.522
-0.362 -0.392  0.230
-0.330 -0.136  0.415
-0.377 -0.494  0.632
-0.321 -0.0776 -0.550
 0.353 -0.370 -0.626
-0.186  0.102 -0.603
-0.343 -0.0502  0.189
 0.337 -0.321  0.632
-0.327 -0.0632 0.00421
 0.236  0.461 -0.682
 0.156  0.368  0.575
 0.318  0.418 -0.682
 0.132 0.0265 0.0194
0.0260 -0.108 -0.684
-0.202 -0.0348  0.422
-0.341  0.197 -0.414
 0.345 -0.443 -0.684
 0.132 -0.405 -0.672
 0.277 0.0257  0.513
 0.170  0.545  0.632
 0.318  0.487 -0.682
-0.202 0.00872 -0.627
-0.00374 -0.214 -0.656
 0.343 -0.372  0.490
 0.359 -0.0552  0.528
 0.362 -0.372 -0.379
-0.311  0.469  0.633
-0.293 -0.0348 -0.171
 0.394  0.444  0.643
-0.254 -0.138  0.643
-0.315  0.368  0.589
-0.285 0.0256 -0.322
 0.279 0.0226  0.613
-0.158 0.0950  0.505
-0.217 -0.141 -0.650
 0.246 0.0256 -0.269
-0.337 -0.230 -0.112
0.0716 0.0265  0.323
 0.352 0.0739 0.0210
-0.0576 0.0257 -0.497
 0.270 0.0941  0.404
 0.163  0.446 -0.672
0.0564  0.180  0.643
 0.239 -0.0348 -0.178
-0.126 -0.0348 -0.0262
-0.377 -0.146  0.632
0.0640 -0.0348  0.513
0.0640  0.522 -0.684
-0.141  0.431 -0.684
-0.232 -0.0348 -0.543
-0.141 -0.0856 -0.684
-0.354  0.119  0.632
 0.333 -0.196  0.667
-0.356 -0.129  0.146
-0.187  0.271 -0.684
-0.356 -0.326 0.0230
-0.179 0.0886  0.646
 0.236 -0.0173 -0.682
-0.352 0.0359 -0.476
0.0868 -0.251  0.657
-0.126 -0.184  0.632
 0.361  0.242 -0.227
-0.339 -0.250 -0.261
-0.357 0.00554 -0.338
-0.323 0.0560  0.650
-0.288  0.607 -0.663
0.0844  0.142  0.345
 0.326 0.0115 -0.0414
 0.302 0.0739  0.596
-0.00691  0.607 -0.663
 0.359 -0.268  0.551
 0.359 -0.451  0.619
 0.341 -0.215 -0.193
-0.357 -0.131  0.293
-0.133  0.107 -0.574
 0.339 -0.200 -0.0793
 0.340 -0.207  0.156
 0.364 -0.435 -0.322
 0.284 0.0263 -0.596
 0.330 -0.0803 -0.484
 0.353  0.127 -0.672
 0.364  0.203 -0.0262
0.0488 -0.0348  0.414
-0.149 -0.0348 -0.292
 0.216 -0.0348 -0.520
 0.170 0.0256  0.255
-0.209 -0.0348  0.574
-0.340 -0.397 -0.0717
-0.0120 -0.0348  0.300
-0.323 -0.329  0.644
0.0488  0.368  0.610
-0.156 0.0256 -0.0642
 0.155 -0.0348 -0.0566
-0.235  0.324  0.635
 0.132 0.0256 -0.133
-0.0575 -0.0780 -0.684
-0.111 0.0256 -0.178
-0.156 -0.321  0.643
 0.353  0.552  0.632
-0.0712  0.242  0.427
 0.307 -0.0350 -0.0870
 0.342 -0.253  0.422
 0.353 -0.173  0.509
-0.278 0.0262  0.300
-0.362  0.200 0.0966
 0.224 0.0508  0.647
 0.364 -0.412 0.0346
-0.141 -0.0102 -0.631
-0.357 -0.0704 -0.0718
0.0868  0.244  0.549
 0.324 0.0167 -0.530
-0.216  0.165  0.499
-0.319 0.0113 0.0954
 0.358  0.173  0.414
-0.341 -0.0173 -0.573
-0.337 -0.230 -0.0186
-0.0879  0.271  0.552
-0.347 0.0587  0.439
 0.201 -0.0348  0.574
-0.0727 -0.397  0.632
-0.343 -0.00966  0.272
0.0792 0.0278 -0.623
-0.331 -0.141 -0.452
 0.322 0.0206 0.0751
 0.343 -0.207 -0.432
-0.0575 -0.0359  0.597
 0.359 -0.268 -0.187
-0.352  0.180 0.0211
 0.155  0.249  0.643
0.00823 0.0332  0.353
 0.351 -0.155  0.564
-0.343  0.155  0.562
-0.285  0.537  0.643
-0.187 -0.0325 -0.672
-0.352 -0.268  0.518
 0.337  0.446  0.643
 0.332 -0.101  0.369
 0.102 0.0332 -0.535
-0.194 -0.0348 -0.588
 0.349 -0.201 -0.663
 0.343  0.193 -0.122
 0.282  0.150  0.564
 0.338 -0.0681  0.623
 0.337 -0.170  0.224
-0.346 -0.249 -0.623
-0.322 -0.0592 -0.640
-0.387 -0.281 -0.682
 0.343 -0.268 -0.556
 0.149  0.119  0.354
-0.389 -0.0401 -0.678
-0.343 0.0865 0.0662
-0.0348  0.279  0.644
-0.332 -0.184  0.589
 0.155 -0.0351 -0.596
 0.358 -0.0552 -0.0718
-0.0499 0.0514 -0.629
 0.347 -0.351  0.439
-0.156 0.0359 -0.684
 0.239 -0.230  0.636
0.0184  0.347 -0.672
 0.155 0.0256 -0.421
-0.164 -0.382 -0.684
-0.202 -0.0348  0.225
 0.358 -0.207 0.0422
-0.164 -0.0348 0.0954
-0.0272 -0.0348 -0.0794
0.0792 -0.184 -0.684
-0.0956 0.0256 -0.0490
 0.254 0.0256 -0.148
-0.0651 0.0256  0.187
0.0412 -0.207  0.649
-0.255 -0.0348 -0.398
-0.316 0.0283 -0.684
-0.118 -0.146 -0.644
-0.343  0.112 -0.349
0.0178 0.0857 -0.539
0.0944  0.295  0.644
-0.0727  0.522  0.644
0.0792 -0.298 -0.672
-0.265 -0.0469 -0.642
-0.360  0.238  0.187
-0.352 -0.184  0.145
 0.186 -0.0348 -0.391
0.0792 -0.306  0.632
 0.231  0.363  0.644
-0.194 -0.0348  0.323
-0.209 -0.0348 0.0574
-0.0196 -0.0348  0.437
0.0716 -0.0348 -0.133
-0.00437  0.438  0.632
 0.208 0.0256 -0.0945
-0.141 -0.0348 -0.436
 0.148 -0.405  0.632
 0.307 -0.0350 0.0574
-0.341 -0.389  0.544
 0.330  0.604  0.622
-0.319 0.0113  0.559
-0.343 -0.448 0.0422
 0.299 -0.0348  0.407
 0.330 -0.499  0.640
-0.194 0.00552  0.643
-0.341 -0.268  0.400
-0.359 -0.445 -0.370
-0.300 0.0263 -0.0642
 0.307 0.0257  0.566
 0.327 -0.0624 -0.246
-0.124  0.248  0.520
 0.337  0.165  0.632
-0.352 0.0967 -0.0578
0.0792  0.316  0.555
 0.358 -0.306 -0.467
-0.187 0.0256 -0.148
-0.0348 -0.0348  0.149
0.0336  0.279 -0.672
-0.357 -0.162  0.528
 0.231 0.0265 -0.322
 0.209 -0.185  0.670
 0.132 0.0967  0.643
 0.102 0.0260  0.209
 0.394 -0.0552 -0.682
 0.359 -0.0249  0.156
0.0488 0.0256 -0.391
-0.0423 0.0265 -0.444
-0.194 0.0256 0.0498
-0.0424 -0.0348 -0.376
 0.125 -0.0348 0.0498
0.0640 -0.0348 -0.543
 0.344 -0.0402  0.269
0.00320 0.0259  0.133
 0.110 -0.139  0.649
-0.357 -0.215 0.0498
-0.255 0.0256  0.118
 0.224 0.0256  0.293
0.0412 0.0256  0.225
-0.341 -0.259 -0.351
-0.179  0.484  0.632
 0.346 -0.451  0.171
 0.326 0.0116  0.430
0.00386 0.0889 -0.618
-0.309  0.135 -0.678
 0.413  0.589  0.628
 0.211 0.0818 -0.537
-0.314 -0.0424 -0.414
 0.116  0.228  0.404
-0.323 -0.0826  0.392
-0.317 0.0164 -0.163
-0.296 -0.0953  0.628
 0.342 -0.443 -0.474
 0.269 0.0265 -0.474
-0.255 -0.0348  0.445
 0.140 -0.124 -0.684
 0.353 -0.147  0.391
-0.347 -0.291 -0.227
-0.0196 -0.0348 -0.201
 0.199 0.0571  0.559
-0.383  0.309  0.632
-0.0803 0.0256  0.293
 0.394 -0.172 -0.674
-0.0500  0.119 -0.672
-0.323 -0.184 -0.684
-0.327 -0.0557  0.240
-0.387  0.502  0.633
-0.361 -0.401 -0.234
-0.341  0.197 -0.634
-0.341 -0.428  0.361
-0.172 0.0299  0.344
 0.330 -0.101  0.209
 0.396  0.355  0.640
 0.122 0.0900 -0.542
 0.333 -0.123 -0.581
-0.300 0.0261 0.00421
 0.201 0.0514 -0.629
 0.293 -0.199 -0.652
0.0412 -0.412 -0.672
-0.225 -0.352  0.632
 0.239  0.552  0.632
-0.149  0.150 -0.672
-0.0576 -0.231  0.653
 0.333 -0.100 -0.436
 0.239  0.150  0.640
 0.334 -0.146 0.0118
0.0209 0.0402  0.565
-0.360  0.190 -0.181
-0.300 0.0263 -0.254
-0.288  0.606  0.661
 0.360 -0.268 -0.684
-0.107 0.0543 -0.669
 0.368  0.233 -0.684
-0.356 0.0207  0.313
 0.259 -0.239 -0.683
 0.246  0.187  0.455
0.0184 -0.283  0.643
 0.266 -0.135  0.665
 0.343  0.193 -0.403
 0.359 -0.451  0.566
 0.347  0.127 -0.227
 0.263  0.166  0.517
-0.352 -0.344  0.191
 0.347 -0.352  0.563
 0.342 -0.199 -0.299
-0.225  0.604  0.664
-0.357 -0.146 -0.595
 0.153  0.249  0.532
 0.140 -0.0348 -0.254
-0.336 -0.199  0.315
-0.285 -0.0348 -0.231
-0.179 0.0265  0.506
-0.209 -0.0348 -0.284
 0.329 -0.00213 -0.405
-0.0575  0.393  0.632
-0.0797  0.330  0.557
-0.209 -0.0348 -0.376
-0.0120 0.0434 -0.672
-0.0879 -0.0348  0.232
-0.164  0.218  0.644
-0.103 -0.0348 -0.186
-0.187 -0.0348 -0.216
 0.357 -0.0653 -0.183
-0.179  0.372  0.596
-0.0272 -0.177 -0.684
-0.341 -0.336  0.522
-0.335 -0.132 -0.254
-0.340 -0.405 -0.566
 0.318 -0.167 -0.682
 0.292 0.0256  0.300
-0.325 -0.0332 -0.338
 0.331 -0.0255 -0.163
 0.240 -0.00875  0.635
-0.362 -0.394  0.111
0.0564  0.112 -0.684
0.0868 -0.397  0.644
 0.324 0.00457 -0.617
-0.160 -0.187 -0.656
 0.354 0.0672  0.622
-0.343 -0.344 -0.349
-0.297  0.206  0.564
 0.246 -0.412 -0.672
 0.224  0.604  0.622
-0.357 -0.0552  0.551
0.0716 -0.0736 -0.642
 0.231  0.324  0.556
-0.357 -0.539  0.620
 0.337 -0.165 -0.219
 0.352 -0.234 -0.519
-0.339 -0.122 -0.508
 0.364  0.197 -0.505
-0.361 -0.517 -0.672
 0.359 -0.108 -0.338
-0.352 -0.298  0.269
 0.170 -0.177 -0.673
-0.0196 -0.397  0.632
-0.337 -0.191  0.406
 0.178 -0.298  0.643
 0.364 -0.443 -0.550
-0.341 -0.0223 -0.0983
-0.111 0.0278 -0.623
-0.285 0.0988 -0.598
-0.202 -0.321 -0.672
-0.209 0.0396 -0.534
-0.356 0.0973  0.561
 0.363 -0.390  0.536
-0.358  0.242 -0.198
-0.332 -0.118 0.0882
-0.361  0.568  0.632
-0.0272  0.340  0.643
0.0108  0.598  0.622
-0.327 -0.0632 0.0574
-0.331 -0.101 -0.155
 0.117 0.0294  0.564
-0.343 0.00274  0.439
-0.217  0.216  0.519
-0.357 -0.00206  0.185
-0.209  0.568 -0.672
-0.246  0.142  0.629
-0.387 -0.151 -0.682
0.0716 0.0265 0.0574
-0.0500 -0.0348  0.331
 0.178 -0.0348 -0.330
 0.193  0.302 -0.672
-0.156 -0.0348  0.156
 0.155 -0.0348 -0.436
 0.292 -0.0348  0.475
 0.292 -0.0348 -0.398
0.0412  0.431 -0.672
-0.0956 -0.0348 -0.338
 0.102 -0.0348 -0.573
0.00321 -0.0348 -0.117
-0.0348 -0.0348  0.384
 0.338 -0.146 -0.398
0.0564 -0.0348 -0.467
 0.140  0.507 -0.672
-0.126 0.0256 -0.414
-0.133  0.454  0.632
 0.110 0.0265  0.133
-0.156  0.393  0.643
 0.301  0.218  0.583
-0.230 -0.215  0.644
0.00173 0.0283  0.644
 0.269 -0.0348 -0.543
-0.339  0.271  0.644
-0.307 0.0250 -0.573
 0.216 0.0256 -0.505
-0.233  0.416  0.640
-0.323 -0.0174 0.0194
-0.333 -0.199 -0.345
-0.192  0.182  0.545
 0.358  0.180 -0.0718
 0.358 -0.371  0.612
-0.192 -0.448  0.633
-0.369 0.0730 -0.662
-0.347  0.150 -0.430
-0.349 -0.298 -0.100
0.0184 -0.123 -0.638
-0.341 -0.420  0.604
 0.266 -0.0808  0.627
 0.284 -0.0348  0.262
-0.301 -0.0352  0.376
-0.270 -0.0348  0.338
0.0488 0.0265 -0.110
-0.272 0.0578  0.644
-0.0499 0.0257  0.141
0.0792 -0.0348 -0.0490
-0.118 -0.0348 -0.543
-0.232 -0.0348 0.00420
 0.337 -0.171 -0.582
-0.133 -0.390  0.644
0.0564 0.0585 -0.531
 0.125 -0.0348  0.270
0.0868 -0.0348 0.0118
-0.0424 -0.352  0.644
-0.00437 0.0265 -0.482
0.0944  0.203 -0.684
-0.171 -0.0348 -0.0110
-0.255 -0.397  0.644
-0.0499 -0.230 -0.684
 0.216  0.288  0.644
-0.209 0.0256 -0.360
 0.256 0.0599  0.363
-0.0956 0.0444  0.350
-0.354 -0.451 -0.254
 0.364 -0.405 -0.102
 0.170 -0.138 -0.644
 0.343  0.122 -0.475
 0.323  0.279  0.643
0.0711  0.258  0.439
 0.358 -0.521 -0.656
0.0418  0.588 -0.663
-0.331 -0.114 0.0118
-0.278 0.0739  0.560
 0.155  0.552 -0.671
 0.351 -0.147  0.468
 0.132  0.142 -0.684
 0.208  0.461  0.632
 0.279 -0.239  0.660
-0.341 -0.382 -0.490
 0.358 -0.00208 -0.322
-0.164 -0.108  0.631
-0.341 -0.405  0.407
 0.359 -0.00968 -0.467
 0.334 -0.135  0.659
 0.193  0.604 -0.700
-0.149 -0.276  0.632
 0.344 -0.250 -0.00867
 0.350 -0.303 -0.0990
 0.363 -0.412  0.194
 0.292 -0.0348 -0.345
 0.358 0.0815  0.522
-0.202  0.598  0.622
-0.149  0.476 -0.672
-0.357 -0.131 -0.338
0.0260  0.249  0.643
 0.352 -0.298 -0.306
 0.363 -0.376 0.00360
-0.261 -0.239  0.670
-0.340  0.195 -0.0946
-0.172 -0.109 -0.655
-0.343  0.193  0.604
 0.224 0.0892 -0.672
-0.343 -0.317 -0.184
 0.236 -0.177  0.633
-0.250  0.365  0.614
-0.232 0.0265  0.521
-0.325 -0.0406  0.111
 0.390 -0.177  0.632
-0.346 -0.214  0.490
-0.325 -0.101 -0.429
 0.343 -0.343 -0.184
 0.358 0.0207 -0.573
-0.0829  0.606  0.661
 0.364  0.197 -0.170
 0.347  0.182 -0.601
-0.0778  0.103 -0.558
0.0488 -0.0173  0.643
 0.140 -0.216  0.654
-0.327 -0.115  0.468
 0.236  0.102  0.643
-0.146  0.201  0.431
 0.364  0.203  0.316
 0.344 -0.215  0.202
 0.343  0.241  0.399
-0.113 -0.0561  0.620
 0.357 -0.00967  0.519
-0.0120 -0.0348 -0.550
 0.110 0.0967 -0.684
-0.0145  0.371  0.601
 0.342 -0.359  0.179
 0.358  0.242  0.247
 0.342  0.180  0.164
-0.343 -0.293  0.189
 0.352 -0.101 0.0211
 0.102 -0.231 -0.660
 0.256  0.370  0.606
 0.342  0.233 0.0574
-0.214 0.0751  0.429
-0.0576 -0.0348 -0.588
-0.343 -0.0401  0.396
 0.155 0.0256 -0.360
-0.346 -0.374  0.644
0.0564  0.476 -0.684
-0.0879 -0.0348  0.490
0.0868 -0.0348 -0.246
 0.170 0.0256 -0.467
-0.343 -0.447 -0.633
-0.321 -0.0697 -0.482
0.0741 -0.0422  0.611
-0.0956 -0.0348 0.0194
-0.247 0.0256 0.0194
 0.110  0.188  0.644
-0.217  0.180 -0.684
 0.326 0.0116  0.376
-0.0500  0.180 -0.672
 0.125 0.0584 -0.629
-0.0348 -0.0348 -0.0338
0.0716 -0.0348  0.460
-0.278 -0.0348 -0.0414
-0.0120 -0.0348 -0.315
 0.170 0.0256 -0.0186
 0.357 -0.308 0.0662
 0.351 0.0960 -0.306
 0.358  0.242 -0.315
-0.357 -0.146 0.0422
 0.140 0.0256 -0.178
-0.103 -0.0348 -0.284
-0.255 -0.0348 -0.292
-0.156 -0.0348  0.414
-0.369  0.302 -0.684
 0.342 -0.405 -0.178
 0.376 -0.544  0.618
 0.336 -0.0630 -0.535
 0.363 -0.435  0.399
-0.352 -0.0400 -0.227
-0.224  0.104  0.644
 0.390  0.135  0.643
-0.306 -0.222 -0.663
 0.364 -0.389 -0.452
 0.353 -0.451 0.00421
 0.347  0.242  0.338
 0.315  0.385  0.636
-0.316  0.282  0.599
-0.263 0.0730 -0.662
-0.346  0.522 -0.684
 0.307 0.0258 -0.0869
-0.171  0.335  0.558
-0.338 -0.185 -0.110
 0.301  0.119  0.602
-0.307 0.0250 -0.490
 0.358 -0.238  0.293
-0.347  0.242 -0.649
 0.330 -0.124 -0.672
 0.347 -0.283  0.145
 0.343 -0.326 0.0230
-0.108  0.163  0.375
 0.345 -0.0173  0.632
0.0944  0.552  0.632
0.0716 -0.124 -0.684
-0.0196 -0.344 -0.672
 0.352 -0.0325 0.0210
-0.162 0.0954  0.368
-0.126 -0.405 -0.672
 0.328 -0.0696 -0.345
-0.324 -0.101 -0.330
0.00322 0.0731  0.653
 0.307 -0.0350  0.149
0.0488 -0.192 -0.650
 0.198  0.107  0.524
-0.340  0.211 -0.284
-0.341  0.114 -0.0983
-0.103 -0.298 -0.672
 0.322 -0.0401 -0.672
-0.323 -0.104 -0.0863
 0.125 -0.329 -0.672
-0.347  0.104 -0.600
-0.209 0.0256  0.194
 0.307 -0.0350 -0.467
 0.284 0.0256 0.0422
 0.299 -0.161  0.640
0.0336 0.0265 -0.254
-0.0196 0.0259 0.0118
-0.164 0.0256 -0.330
-0.118 0.0256 -0.284
 0.338 -0.133 -0.484
-0.232 0.0265  0.384
-0.383 -0.382 -0.684
-0.225 0.0256 -0.444
 0.346 -0.451 -0.224
-0.263 -0.0348  0.171
 0.261 -0.0348  0.156
-0.356  0.122 -0.475
-0.225 -0.0458 -0.620
 0.277 0.0256  0.430
-0.347  0.165  0.518
 0.328 0.00498  0.217
 0.357  0.155  0.313
-0.0348 -0.131 -0.684
-0.119  0.607 -0.696
 0.357 0.0891 -0.599
-0.343  0.242  0.594
-0.0382  0.597 -0.701
 0.253  0.253  0.535
 0.299 -0.0699 -0.629
-0.331 -0.420 -0.672
 0.236 0.0921  0.487
-0.0880 -0.0102 -0.631
-0.340  0.233 -0.490
-0.341 -0.405 0.0270
 0.329 -0.0751  0.501
-0.347 0.0511 -0.227
0.0488 -0.450  0.636
-0.361  0.236  0.377
 0.359 -0.100 -0.0932
-0.278 -0.0351  0.589
 0.239 0.0265  0.475
 0.394  0.112 -0.682
-0.307 -0.147 -0.665
 0.174 -0.0199 -0.634
-0.362 -0.386  0.317
-0.131 0.0820 -0.537
 0.336 -0.382 -0.670
-0.0981  0.365  0.614
-0.318 -0.0550 -0.596
-0.354  0.191  0.323
-0.347 -0.260 -0.477
 0.389  0.249  0.632
-0.357 -0.139 -0.0869
-0.340  0.195 -0.338
 0.364  0.218 -0.444
 0.338 -0.103 -0.165
-0.352 -0.0477  0.145
-0.209 -0.177  0.632
 0.280 0.0579 -0.681
-0.352 0.0517  0.562
 0.351  0.142 -0.306
-0.232 -0.306  0.636
-0.209 0.0819  0.555
 0.342 -0.397 0.0878
-0.327 -0.146 -0.0262
-0.335 -0.230  0.209
 0.329 -0.0892 0.0922
 0.394  0.390 -0.674
 0.343 0.0536 -0.475
 0.343 0.0517  0.438
-0.318 -0.0550 -0.300
-0.255 -0.390 -0.672
-0.209 -0.0691  0.624
-0.187 -0.268 -0.684
 0.394 0.00300  0.643
-0.0119  0.253  0.512
 0.315 -0.283  0.636
 0.332 -0.108 -0.269
0.0108 -0.0348  0.171
-0.133 -0.0348  0.513
-0.179 -0.0348 -0.414
 0.140 -0.0348 -0.307
-0.118  0.507 -0.684
 0.193  0.150  0.643
-0.0120 -0.0348 -0.254
0.0336  0.142  0.643
 0.347 0.0587 -0.352
-0.149  0.165  0.643
0.0184 -0.0348  0.111
 0.102 -0.0348  0.111
 0.178  0.157 -0.684
 0.281  0.231  0.620
0.0716 -0.0348  0.376
0.0108 -0.0348  0.247
 0.216 -0.0348  0.468
 0.231  0.537 -0.671
 0.224 -0.0348 -0.300
-0.141  0.317 -0.672
-0.240 -0.0348  0.506
 0.224 -0.0348 -0.414
 0.246 0.0256  0.156
 0.224 -0.0331 -0.639
-0.0651 -0.0628  0.643
-0.225 -0.184 -0.684
-0.358 -0.370 -0.122
 0.332 -0.123 -0.125
 0.343  0.114  0.396
-0.316 -0.0933 -0.684
-0.357 -0.230  0.293
 0.351 -0.543  0.654
-0.339 -0.104  0.626
 0.165 -0.0822  0.626
-0.0120 -0.0627  0.621
-0.0803 0.0967  0.643
0.0787  0.183  0.360
-0.308  0.592  0.622
-0.341  0.142  0.186
 0.342  0.211  0.118
-0.285  0.340  0.623
-0.332 -0.246  0.673
 0.395 0.00553 -0.678
-0.387 -0.389  0.643
-0.352 -0.108 -0.555
-0.347  0.150  0.394
-0.359  0.197  0.475
-0.174  0.607 -0.698
 0.320 -0.0416  0.364
-0.182 0.0790  0.472
 0.345 -0.182  0.121
-0.336 -0.237 -0.208
0.0185 -0.0566 -0.626
 0.339 -0.110 -0.0192
 0.216  0.592  0.663
-0.340  0.203 -0.0490
-0.344 -0.169 -0.414
 0.358 -0.359 -0.0870
-0.357  0.119 -0.309
 0.148  0.340  0.643
 0.269  0.603  0.663
 0.313 0.0251 -0.193
-0.340 -0.428 -0.459
 0.343 -0.267 0.0658
-0.356 -0.0325 -0.307
-0.0956 0.0131 -0.672
 0.231  0.170  0.546
 0.163 -0.374 -0.672
 0.269 -0.0348 -0.231
-0.0652  0.142  0.644
-0.00438 -0.0348 0.0346
-0.0500 0.0256 -0.0642
 0.216 -0.0628 -0.672
 0.121 -0.133 -0.641
0.0184 0.0265 -0.140
0.0412 -0.0348 -0.338
 0.239 -0.246  0.676
 0.363 -0.376 -0.331
-0.247 0.0256  0.270
-0.225 -0.0348 -0.490
-0.225 0.0256  0.149
-0.0803 -0.116  0.631
 0.155 -0.124  0.632
-0.194 0.0265  0.308
 0.110 0.0359 -0.672
-0.0272 -0.0175 -0.632
 0.345  0.454 -0.684
 0.346 0.0891 -0.0574
-0.00438 -0.442  0.643
 0.360  0.332  0.632
-0.285 -0.0348 0.0954
 0.342 -0.382  0.278
-0.317 0.0165  0.202
 0.360  0.187 -0.315
-0.339  0.401 -0.684
-0.362 -0.423  0.510
 0.329 -0.0374 -0.630
-0.347  0.242  0.262
 0.380 0.0561 -0.688
-0.0246 0.0819 -0.537
-0.354 -0.0552  0.632
-0.217 -0.0995 -0.639
-0.0120  0.142 -0.684
 0.358 -0.162 -0.0794
 0.214  0.215  0.455
-0.285  0.211  0.623
0.0646 0.0611  0.654
 0.301  0.302  0.583
 0.132 -0.0568 -0.627
 0.155  0.499  0.632
0.0944  0.347  0.643
0.0640  0.492  0.632
-0.202 -0.405 -0.672
 0.163 -0.0628 -0.672
-0.343 0.0739  0.396
 0.329 -0.0839  0.249
-0.118  0.211 -0.684
 0.347 -0.360 -0.478
-0.225  0.393 -0.672
-0.154 0.0684  0.557
-0.111 -0.161 -0.684
 0.358  0.126 -0.560
 0.320 -0.0415 -0.297
-0.322 -0.0849  0.270
-0.320 -0.522 -0.660
-0.163  0.242  0.503
-0.0500  0.568 -0.672
 0.110  0.607 -0.687
-0.357 -0.244 -0.560
0.0184  0.592  0.663
 0.322  0.598  0.663
-0.353 0.0671  0.622
 0.346 0.0511 -0.430
 0.395 -0.344 -0.678
-0.215 -0.243  0.672
-0.356 0.0283 -0.0599
 0.353  0.191 -0.657
-0.343 -0.363  0.440
-0.319 -0.0626 -0.0566
 0.140 -0.207 -0.672
 0.212 -0.140 -0.649
 0.182  0.194  0.408
 0.383 -0.359  0.644
-0.179 0.0893 -0.672
 0.342 -0.238  0.522
 0.347  0.122 -0.0983
0.0412 0.0731 -0.693
 0.186 0.0889 -0.618
0.0994 0.0406  0.353
 0.347 -0.306  0.563
-0.341 -0.190 -0.284
 0.155  0.248  0.469
-0.317 -0.0488  0.544
-0.361 -0.376 -0.196
-0.341 -0.344  0.400
 0.201  0.408  0.643
-0.356 -0.184 -0.556
 0.343  0.241  0.202
 0.117  0.603  0.663
-0.232 0.0289  0.613
-0.357 -0.306  0.400
-0.131  0.114  0.535
-0.278 0.0128 -0.624
-0.102  0.588 -0.663
0.00675  0.597 -0.701
-0.326 -0.0407  0.301
 0.238 -0.359  0.640
-0.356 0.0739  0.313
-0.0348 0.0516  0.561
-0.111 0.0454  0.563
 0.358 0.0283  0.278
-0.0956 -0.0348  0.582
-0.332 -0.192  0.232
 0.324 0.0168  0.176
-0.0474 -0.448 -0.682
-0.230 0.0992 -0.682
-0.357 0.0131 0.0276
 0.102  0.355 -0.684
-0.247 0.0265 -0.246
 0.140 -0.0348 -0.186
-0.149  0.560  0.643
-0.270 0.0256 -0.414
 0.239 -0.435  0.632
-0.296 -0.172  0.642
0.00323  0.243  0.549
 0.379  0.597 -0.699
0.0184 0.0262 -0.0186
-0.118 0.0256 0.0194
 0.322 -0.412  0.632
0.0412  0.385 -0.672
-0.0576 -0.0348 0.0726
-0.189  0.184  0.450
 0.292 0.0256  0.468
-0.331 -0.488  0.632
 0.216 -0.0348 -0.0110
 0.343 -0.372 -0.246
-0.0803  0.340 -0.672
 0.317 -0.212  0.633
0.0488  0.165 -0.672
-0.0879 -0.207  0.632
0.0944 0.0265 -0.284
0.0260 -0.0348  0.285
-0.0348 0.0265 -0.345
-0.0348 -0.0348 -0.421
-0.247 0.0256  0.209
-0.164 -0.0348  0.209
-0.141 -0.0348  0.331
 0.315  0.545 -0.671
-0.111 -0.146  0.632
 0.201 -0.0348 -0.558
-0.0196  0.150  0.643
-0.187  0.287  0.552
 0.343 -0.281 -0.349
-0.179  0.112  0.552
 0.339 -0.199 -0.125
 0.343 -0.162 -0.0262
 0.280  0.119  0.446
0.0108 -0.168 -0.646
-0.293 -0.0348 -0.543
-0.335 -0.116 -0.368
-0.346  0.150 -0.671
 0.363  0.203  0.445
 0.282  0.607 -0.663
-0.337 -0.154  0.247
-0.346 -0.291  0.643
 0.347 -0.320  0.190
0.0872  0.106 -0.593
-0.354  0.575 -0.672
-0.336 -0.124 -0.648
-0.352 -0.320 -0.555
-0.293 -0.375 -0.672
 0.358 0.0435 0.0498
-0.352  0.150 -0.183
-0.361  0.408  0.644
-0.172 0.0351  0.621
 0.193  0.370 -0.672
-0.126  0.309  0.644
-0.321 -0.00228 0.0574
 0.358 -0.131 -0.222
-0.347 -0.00234 -0.182
-0.0120  0.256 -0.684
-0.126  0.393 -0.684
-0.0576 -0.314 -0.672
 0.239  0.128  0.512
 0.315  0.560  0.644
 0.364 -0.435 -0.619
-0.346 -0.0628 -0.672
 0.342 -0.428 -0.360
-0.0575 0.0207 -0.684
0.0412  0.446  0.632
-0.357 -0.146  0.185
0.0792 -0.352  0.643
 0.193 0.0731 -0.693
-0.0956  0.104 -0.672
-0.362  0.204 -0.243
0.0754  0.257  0.479
 0.318 0.0236 -0.340
 0.243  0.597 -0.701
 0.342 -0.0167 0.0629
 0.140  0.324  0.556
 0.357 -0.286 -0.432
-0.118  0.552 -0.672
-0.320 -0.0623  0.460
-0.209  0.365  0.571
 0.193 -0.162  0.632
-0.343 -0.347  0.561
 0.358  0.104  0.164
 0.352 -0.313  0.315
-0.359  0.182 -0.578
-0.246  0.233  0.629
 0.330 -0.00733 -0.495
-0.0499 -0.116 -0.637
-0.356 0.0612  0.146
-0.340 -0.382  0.262
-0.321 -0.00235  0.596
-0.323 -0.0958  0.555
-0.224 -0.108  0.632
-0.369  0.607  0.624
 0.352 -0.252  0.619
-0.0272  0.522 -0.671
 0.363  0.203  0.582
 0.358 -0.200 -0.338
-0.209 -0.397  0.632
-0.278 -0.428  0.632
-0.362 -0.436 -0.0847
-0.126 -0.367 -0.684
-0.352  0.135  0.145
 0.163 0.0731  0.653
0.0108 -0.132  0.646
 0.363 -0.420  0.247
-0.346 -0.163 -0.504
-0.339 0.0730 -0.693
 0.294  0.352  0.613
-0.00442 -0.0704 -0.672
 0.327 -0.0625 -0.0490
-0.0575 -0.389 -0.672
 0.342  0.203 0.0270
 0.351 -0.0179  0.439
 0.364 -0.405 -0.254
-0.187  0.461 -0.672
-0.0272  0.423 -0.684
-0.194 -0.321  0.632
-0.339 -0.420  0.644
-0.343 -0.298 -0.349
-0.179  0.393 -0.672
0.0868 -0.0401 -0.672
 0.351 -0.147 -0.304
-0.331 -0.0921 -0.276
-0.331 -0.153  0.315
 0.343  0.143 -0.183
-0.103 -0.0857 -0.672
-0.126 -0.344  0.632
 0.125  0.469  0.643
 0.193  0.218 -0.684
0.0184 -0.329 -0.672
-0.247  0.537  0.632
-0.171  0.233 -0.672
 0.355 0.0833 -0.669
-0.357 -0.207 -0.193
 0.342 0.0359 -0.0718
-0.0651 -0.161 -0.645
-0.346 -0.306 -0.672
-0.362 -0.425 -0.143
 0.331 -0.101  0.285
 0.327 -0.0622 -0.391
 0.335 -0.123  0.612
0.0108 -0.250 -0.660
-0.156 -0.246  0.659
 0.323 0.0359 -0.684
-0.352 -0.321  0.315
 0.368 -0.101  0.632
 0.322 0.0206 0.00674
 0.368  0.309 -0.684
 0.342 -0.207  0.338
-0.314 0.0203 -0.528
-0.324 -0.0237  0.217
-0.369 -0.238  0.644
-0.357 -0.222 -0.0793
-0.0792  0.590 -0.698
-0.357 -0.0552 0.0276
 0.328 -0.0775  0.133
 0.178 -0.0477  0.643
 0.331 -0.0330 -0.117
-0.116  0.239  0.461
 0.342 -0.420 -0.414
 0.363  0.233 -0.110
-0.249 -0.125 -0.667
-0.126  0.608  0.635
-0.362  0.224  0.626
-0.317 0.0165  0.285
-0.284 0.0969 -0.556
 0.351 -0.146 -0.180
 0.277 -0.0348  0.559
-0.187 -0.0704 -0.684
-0.357 0.0290 -0.438
 0.343 0.0460 -0.599
 0.342 -0.435 0.0574
0.0943  0.254  0.513
-0.0120 -0.207  0.632
0.0260 0.0265  0.316
 0.170 0.0256 0.0270
-0.0120  0.241  0.644
 0.155 -0.0348  0.240
 0.186 -0.412  0.632
-0.164 -0.0348 -0.497
 0.224 -0.0348  0.194
-0.335 -0.147 -0.163
0.0792 0.0265  0.103
-0.0804 0.0131  0.643
-0.126 -0.0173  0.643
 0.360 -0.283  0.644
 0.342 -0.389  0.316
-0.347  0.127 -0.227
-0.357 -0.0552 -0.595
 0.186 0.0131 -0.684
 0.269 0.0256 -0.0414
0.0488 -0.0348 -0.239
-0.179 -0.0348 -0.0642
 0.186 0.0256  0.300
-0.293 0.0265  0.338
 0.178 0.0256 -0.512
0.0716 -0.00207 -0.684
 0.140 0.0264 -0.262
 0.261  0.515  0.632
-0.0803 -0.0348  0.194
0.0944  0.431 -0.684
0.0944 -0.389 -0.684
-0.0727 -0.169 -0.684
0.0716  0.416  0.643
0.0564 -0.0348 0.0954
 0.359 -0.146  0.300
 0.170 -0.0348 -0.0110
-0.111 -0.0348 -0.505
-0.278 0.0265 -0.155
-0.240 -0.0348  0.209
 0.208 -0.336 -0.684
-0.133 -0.329 -0.684
-0.126 -0.268 -0.684
-0.217 0.0256 -0.322
 0.117 0.0256 -0.436
-0.247  0.545 -0.684
 0.186 -0.0348  0.392
 0.201 0.0256 0.0802
-0.133 0.0256 -0.459
-0.232 -0.0348 -0.444
 0.132  0.279 -0.684
 0.239 0.0256 -0.208
-0.270 0.0265  0.475
-0.0424 0.0259  0.103
-0.319 0.0113  0.475
-0.118 -0.0410 -0.637
-0.340  0.195 0.0650
 0.140  0.135  0.643
-0.361 -0.481 -0.684
-0.0348  0.604  0.663
-0.167 -0.226 -0.665
 0.276  0.325  0.562
 0.367 -0.510 -0.695
0.0817 0.0228  0.613
0.0410  0.208  0.372
 0.343  0.241 -0.603
 0.292 0.0260 -0.558
 0.358 -0.245 0.0346
-0.362 -0.416 -0.191
-0.300 0.0260  0.126
 0.246  0.103 -0.578
 0.338 -0.169  0.262
0.0185  0.251  0.419
-0.359 -0.366 -0.571
 0.165 0.0469  0.353
 0.351 -0.192 -0.544
0.0488  0.249  0.552
 0.342 -0.428 -0.0566
-0.254  0.104  0.556
-0.359 -0.445 -0.537
-0.323 -0.109  0.156
-0.339  0.256 -0.684
 0.353 -0.213  0.493
-0.240  0.279  0.631
-0.0804 -0.0683 -0.641
 0.364  0.197 -0.254
-0.343 0.0891 -0.226
-0.255 -0.450 -0.678
-0.346  0.454 -0.684
-0.232  0.180  0.640
-0.328 -0.154 -0.224
0.0798  0.585 -0.666
-0.347 -0.298 -0.600
0.0418  0.104 -0.598
 0.327 -0.0699  0.171
-0.202  0.608 -0.666
 0.330 -0.0803  0.435
-0.103 -0.238 -0.662
 0.170 0.0256  0.194
 0.342  0.239 -0.0262
-0.0348 -0.261  0.648
 0.346 -0.451  0.278
 0.170 -0.0348 0.0574
-0.156 -0.0421 -0.617
-0.0500 0.0256 -0.269
 0.329 -0.00227 -0.246
 0.163  0.287  0.552
0.0640 -0.0348  0.551
 0.125 0.0256 -0.0642
-0.202 -0.0348  0.369
-0.171  0.568 -0.672
-0.0727 -0.0348  0.452
-0.187 -0.0348 -0.163
 0.201  0.446 -0.672
 0.352 -0.0781  0.394
 0.148 -0.00207 -0.684
 0.362 -0.448 -0.429
 0.224 -0.443 -0.672
 0.269 -0.0348  0.331
-0.164 0.0256 -0.490
 0.148 0.0265  0.225
 0.342 -0.258 -0.0938
 0.373  0.607 -0.663
 0.141 0.0671 -0.693
 0.216 0.0265  0.528
-0.179 0.0256  0.232
-0.341 -0.412  0.445
-0.164 -0.0348 -0.246
 0.364  0.197  0.247
0.0412 -0.268 -0.684
 0.102 0.0259 -0.00343
 0.350 -0.250  0.376
-0.0651  0.241  0.643
 0.352  0.112 0.0210
-0.0652 -0.0348 -0.186
-0.0803 -0.0249 -0.684
 0.315  0.195  0.636
0.00321 -0.0348 -0.0338
 0.102 -0.0348  0.399
-0.343 0.0486 0.0662
-0.118 -0.0348 -0.0642
0.0184 -0.0348 -0.467
-0.0120 -0.0348  0.346
0.0260 0.0256 -0.505
0.0716 0.0256 -0.345
0.0564 -0.0348  0.323
-0.126 -0.0348 0.0726
0.0564 -0.374 -0.684
-0.0424 -0.139  0.632
-0.141 -0.0705  0.644
-0.179 0.00553 -0.684
-0.0120 0.0262 -0.307
0.0944 -0.0348  0.156
 0.261 -0.0348 -0.0262
0.0108 0.0259 0.0726
 0.102 -0.276  0.632
 0.201 -0.0348 -0.0718
0.0488 -0.0348 -0.102
0.0488 -0.0348 -0.398
-0.247 -0.0348 0.0650
-0.0569 0.0559  0.650
 0.360  0.568 -0.671
-0.356 -0.267  0.561
-0.217  0.264  0.553
 0.201  0.256 -0.672
-0.301 -0.0352  0.171
 0.363  0.203  0.528
-0.156 0.0256 -0.171
-0.212  0.365  0.614
-0.133 0.0265  0.521
 0.102 -0.0348 -0.535
 0.132  0.226 -0.684
-0.156 -0.420  0.632
-0.347 -0.451  0.262
 0.201 -0.0348  0.285
-0.0424 0.0256 -0.224
 0.110 -0.0348 -0.497
 0.148 -0.0348 -0.125
 0.170 -0.0348  0.149
 0.201 0.0256  0.217
-0.293 -0.0348 -0.360
-0.340  0.203 -0.512
-0.103  0.476  0.632
 0.239 -0.0348  0.118
 0.125  0.423  0.632
 0.261 0.0256  0.262
-0.209 -0.0348  0.536
0.0564 -0.329 -0.672
-0.0348 0.0256  0.217
-0.149 -0.147  0.652
-0.357  0.112 0.0422
 0.363 -0.376  0.361
 0.231 0.0892  0.555
-0.217  0.568  0.643
-0.118  0.378  0.643
 0.269 -0.0348 -0.0870
-0.325 -0.0407 -0.254
-0.323 -0.0237 -0.132
-0.278 0.0265  0.414
-0.352  0.242  0.544
-0.316  0.123  0.592
 0.201  0.340  0.643
