ply
format ascii 1.0
element vertex 2048
property float x
property float y
property float z
end_header
-0.173 -0.524 0.0381
 0.185  0.547  0.681
 0.270  0.479 -0.555
 0.304 -0.285  0.674
-0.445 -0.0465  0.605
 0.303 -0.319 -0.548
-0.331 0.0866 -0.363
 0.292 0.0840 0.0518
-0.310 -0.676  0.668
-0.326 -0.665 -0.553
-0.227  0.104  0.147
-0.00864  0.454 -0.140
 0.301 -0.661 0.0562
0.0255  0.104  0.564
 0.128 0.0840 -0.379
-0.00183  0.454  0.298
0.0392 -0.524 -0.317
-0.322 -0.264 -0.555
-0.0428 -0.144 -0.0986
 0.281 -0.676  0.670
 0.279 -0.291 0.0654
 0.292  0.454 0.0586
 0.286 -0.676 -0.536
-0.329 -0.224 0.0722
-0.0321  0.328 -0.548
-0.264  0.227  0.681
-0.328 -0.504 -0.256
 0.305 0.0910  0.387
-0.322 -0.347  0.686
 0.301  0.232  0.683
 0.305 -0.135 -0.215
 0.305  0.446  0.400
-0.200 -0.0614  0.407
-0.0155 -0.144 -0.527
 0.278  0.454 -0.249
0.0323  0.241 0.0752
 0.299 -0.524 -0.194
-0.443 -0.0423  0.270
-0.179 -0.0578  0.687
-0.331 -0.135 -0.194
-0.166  0.104 -0.140
-0.0198  0.364  0.685
0.0460 0.0840  0.298
 0.286 -0.0522 -0.555
0.0870 -0.504 -0.0234
 0.222 -0.0366  0.683
 0.282  0.209 -0.553
-0.118 -0.504 -0.522
-0.118 0.0908 -0.532
0.0870 0.0840 -0.112
 0.101 -0.0578 0.0784
0.0802  0.454 -0.379
 0.298  0.102 -0.214
0.0665 -0.144 -0.304
-0.214 -0.144 -0.392
 0.117 -0.522 -0.531
-0.322  0.104  0.496
 0.108  0.433  0.503
-0.317 -0.0391 -0.556
-0.0253  0.454 0.0791
-0.322 -0.673 0.0773
-0.125 -0.524 -0.181
-0.302  0.193 -0.547
-0.111 -0.0578 0.0784
 0.278 -0.504 -0.399
-0.0770  0.104 -0.331
 0.190  0.433  0.229
-0.311 -0.469 -0.555
0.0666  0.535 -0.556
-0.331 0.0911 -0.0370
-0.419 -0.0465 0.0770
 0.162 -0.144 -0.0849
 0.286 -0.477  0.686
0.0148 -0.0439  0.686
-0.331 -0.415 0.0653
 0.224  0.275 0.0548
-0.152  0.104  0.325
 0.244 -0.144 -0.392
 0.292 -0.476 0.0782
 0.183  0.433 -0.0917
 0.305  0.413  0.640
 0.237  0.104  0.564
-0.255 -0.0614  0.223
-0.159  0.104  0.578
 0.301 -0.0966 0.0745
-0.221 -0.144 -0.0507
-0.331 0.0976  0.298
-0.330 -0.167  0.671
 0.305 0.0961 -0.399
 0.210 0.0840  0.229
-0.323 -0.524 -0.0712
-0.179 -0.504 -0.358
-0.0565 0.0840 -0.00290
-0.378 -0.0614  0.428
-0.326 0.0702  0.684
-0.145 -0.123 -0.242
-0.308 -0.510  0.665
 0.151 -0.143 -0.531
0.0392 0.0840  0.134
0.0733 0.0976 -0.532
-0.331 0.0976 -0.201
 0.149 0.0840  0.428
-0.268 -0.0410  0.551
0.0218  0.518  0.679
-0.105  0.231  0.669
 0.135 -0.524 -0.174
 0.292 -0.489 -0.556
 0.128  0.398 0.0548
 0.278  0.433 -0.406
 0.114  0.433 -0.228
-0.0633 -0.123 -0.379
-0.0360  0.104  0.421
-0.152  0.240 -0.556
-0.264 -0.0359 0.0767
-0.164 -0.143 -0.531
-0.0268  0.440  0.441
 0.231 0.0840 -0.0848
-0.316 -0.524 -0.420
 0.149 0.0844 0.0381
 0.305 -0.140 -0.0712
-0.200  0.104 -0.413
 0.217 0.0840 -0.509
-0.331 -0.152 -0.469
 0.265 -0.524 -0.0507
-0.0292 -0.522 0.0530
 0.148  0.104 -0.242
-0.0975 0.0840  0.195
-0.00182 -0.144 0.0381
 0.128  0.454  0.352
-0.0360  0.104 -0.187
 0.297 0.0845  0.686
 0.303 -0.148  0.669
-0.0253  0.435 -0.274
-0.200 0.0840 -0.276
 0.298 -0.181 -0.518
 0.135  0.104  0.652
 0.121  0.433  0.646
0.00501 -0.524 -0.447
-0.0215  0.454 -0.495
 0.135  0.433 -0.502
 0.298  0.351 -0.531
 0.244  0.433  0.523
 0.196 -0.504 -0.290
-0.186 0.0840 0.0176
0.0597  0.454  0.182
0.00501 -0.524 -0.153
-0.304 -0.545 0.0587
-0.0215  0.433  0.571
 0.162 -0.144 -0.215
-0.0565 0.0864  0.661
-0.0223 0.0840 -0.447
-0.0906 -0.504 -0.0575
-0.331 -0.125 -0.345
-0.306 0.0683 -0.489
-0.200 0.0840  0.441
 0.305  0.451 -0.126
 0.128 -0.524 -0.406
0.0597 -0.123 -0.427
 0.183 -0.144 0.0449
 0.305  0.440  0.270
0.0528  0.454 -0.0234
-0.330 -0.0410  0.318
-0.331 0.0976 0.0859
0.0460 -0.144 -0.181
-0.241 -0.504 -0.160
0.0392  0.104 -0.290
 0.190  0.454 -0.331
-0.0770 -0.524 -0.297
-0.294 -0.0520  0.687
-0.331 -0.125 -0.0780
 0.303 0.0999  0.166
-0.364 -0.0614  0.175
 0.178  0.548 -0.551
 0.135  0.200 0.0548
-0.227 -0.524 -0.488
 0.183 -0.524 0.0312
 0.210 -0.0346 0.0586
-0.0155  0.344 0.0752
-0.145 -0.123 -0.133
-0.179 -0.144 0.0499
-0.248 -0.123 -0.276
-0.0253  0.435 -0.383
0.0529 0.0840 -0.00973
 0.237 0.0840 -0.317
 0.128  0.104  0.530
-0.0360 -0.144 -0.276
-0.234  0.104  0.257
-0.111  0.104 0.0927
-0.331 0.0866  0.191
-0.322 -0.367 -0.531
-0.316 -0.123 0.0449
 0.303  0.344 0.0561
 0.285  0.193 0.0752
 0.108  0.104  0.216
 0.190  0.433  0.434
0.0528 -0.144 -0.0575
-0.200 -0.504 -0.0644
 0.304 -0.512 -0.297
-0.00865 -0.0459 0.0789
 0.121 -0.0398  0.660
-0.296 0.0840  0.393
-0.0838 0.0840  0.510
 0.196  0.104  0.127
-0.255  0.104  0.619
 0.299  0.102  0.285
 0.155 0.0840  0.325
-0.331 -0.564 -0.519
-0.104 -0.123 -0.0166
 0.265  0.433  0.161
-0.200 -0.0407  0.305
 0.217 -0.123 -0.297
-0.190 -0.0577  0.141
-0.00865  0.152 0.0548
-0.241 -0.144 -0.153
-0.214 -0.504 -0.256
 0.217  0.454  0.619
 0.217 -0.524 -0.474
-0.104 -0.524 -0.420
-0.234 0.0840 -0.0712
 0.149 -0.144 -0.365
 0.265  0.433 -0.0370
-0.220  0.105 -0.521
-0.0770 0.0840 -0.0986
 0.203  0.433 -0.187
-0.378 -0.0614  0.537
 0.280 -0.578  0.669
 0.301 0.0634 -0.552
-0.261 -0.129 -0.532
-0.0838 -0.0614  0.674
-0.0496 0.0840  0.291
 0.286 -0.381  0.686
 0.278 -0.188 0.0610
 0.258  0.104  0.469
0.0375  0.102  0.661
0.0597 0.0840  0.462
 0.169  0.454  0.120
 0.282 -0.385 0.0559
0.0938  0.309 0.0548
 0.302 -0.584 -0.528
-0.282 -0.0406  0.448
-0.329 -0.321 0.0585
 0.176 -0.524 -0.0780
 0.217  0.433  0.318
 0.217  0.385 0.0752
 0.305 -0.140 -0.317
-0.132 -0.123 -0.440
0.0597  0.454  0.414
-0.0268  0.440  0.209
-0.275 -0.524 -0.338
0.0597 -0.524 -0.228
0.00502 -0.504 -0.0644
 0.210  0.104 -0.413
 0.300 -0.555 0.0343
 0.217  0.104 -0.174
-0.308 -0.253  0.683
0.0870 -0.143 0.0529
-0.111 0.0840 -0.433
-0.0770 -0.144 -0.187
 0.196  0.454 0.0176
-0.191 -0.0605  0.598
-0.260 0.0519 0.0564
 0.149  0.104 -0.0507
-0.439 -0.0406  0.366
-0.0223 -0.517 -0.532
 0.305 0.0962 -0.0370
-0.118  0.104 -0.222
 0.265  0.494  0.681
 0.237 -0.123 -0.126
 0.224  0.433 -0.474
-0.321  0.157  0.679
 0.282  0.332  0.664
 0.230 -0.123 -0.502
-0.152 -0.144 -0.331
0.0392 0.0840 -0.386
0.0665  0.104 -0.194
-0.0312  0.279  0.673
0.0870  0.433 -0.146
0.0119 0.0840  0.216
-0.173 0.0908  0.662
-0.0259  0.446  0.659
 0.224 -0.504 -0.146
 0.162 -0.123 -0.447
 0.142 0.0840 -0.467
-0.309 0.0840 -0.119
-0.0155 0.0908 -0.532
0.0802 -0.504 -0.112
-0.268 -0.504 -0.00974
-0.302 0.0840 -0.283
0.0802  0.454  0.277
-0.357 -0.0614  0.619
 0.224  0.139 0.0548
-0.0706  0.256 -0.531
 0.101  0.542  0.661
0.0665 -0.129 -0.532
-0.443 -0.0423  0.489
0.0665  0.454 0.0654
 0.305  0.426 -0.495
0.0528  0.446 -0.532
 0.224 0.0840  0.646
-0.233  0.242 -0.538
-0.189 -0.0527  0.489
-0.445 -0.0465  0.182
-0.00865 0.0606 0.0701
-0.331 0.0778  0.600
 0.301 -0.0186  0.665
0.0324  0.433 -0.215
 0.287 -0.00778 0.0695
 0.292 -0.401 -0.556
 0.203 -0.524 -0.372
-0.227  0.104  0.516
-0.0496 -0.504 -0.222
-0.305 -0.429  0.674
 0.224 -0.144 -0.0302
0.0392 0.0840  0.380
-0.331 -0.511 -0.174
 0.224  0.104  0.366
0.0665  0.454  0.571
-0.118  0.104  0.421
0.0529  0.433 -0.297
-0.186  0.241  0.661
-0.0268  0.440 -0.0302
 0.305 0.0776  0.605
 0.302  0.454 -0.326
-0.326 -0.597  0.664
 0.218 0.0446 0.0771
 0.162  0.454 -0.427
-0.00183  0.104 -0.0780
-0.317  0.111 -0.556
-0.255 0.0840 -0.181
-0.191 -0.0606 0.0540
-0.248  0.104 -0.338
-0.227 0.0840  0.339
-0.331 -0.183 -0.542
-0.0155 -0.144 -0.440
0.0528 -0.524 0.0449
 0.121 -0.524 -0.304
-0.0565  0.104  0.585
-0.343 -0.0614 0.0928
 0.114  0.104  0.127
-0.0428 0.0840 -0.263
 0.298 -0.505 -0.475
0.0802  0.118 0.0548
-0.152  0.104 -0.351
 0.128 -0.123 -0.00974
-0.132 0.0840 -0.0439
 0.287  0.159  0.662
-0.152 0.0840  0.250
-0.0975 -0.524 0.0176
 0.292  0.104 -0.487
-0.282 -0.0410  0.154
 0.149  0.454  0.578
0.0529  0.433 -0.447
-0.371 -0.0614  0.257
-0.289 -0.144 -0.406
-0.0906 -0.123 -0.528
-0.322 0.0361 -0.555
0.0802 -0.504 -0.467
 0.305 0.0962 -0.140
-0.179 -0.504 -0.433
 0.135 -0.123 -0.283
 0.114 -0.123 -0.160
 0.203 -0.524 -0.215
 0.305 0.0961 -0.290
 0.135  0.454 -0.0234
-0.138 -0.524 -0.256
 0.285 -0.144 -0.454
 0.305  0.440  0.564
-0.0633 -0.504 -0.126
-0.0907 -0.140 0.0536
 0.279 -0.250 -0.543
0.0460  0.433  0.653
-0.268 -0.0614  0.352
-0.0428 -0.504 -0.386
 0.237  0.104 -0.00975
 0.162 0.0840 -0.310
 0.162  0.104 -0.126
-0.255  0.104 0.00392
-0.0155 -0.123 -0.0302
 0.230 -0.123 -0.201
 0.298  0.262 0.0548
 0.303 -0.522 -0.112
-0.152  0.104  0.503
-0.00864  0.433  0.366
-0.289 -0.144 -0.0234
-0.0292  0.104  0.161
0.00513  0.501 -0.543
-0.0633 -0.504 -0.474
 0.286 -0.217  0.686
0.0187  0.454  0.516
 0.305 0.0961  0.537
-0.296 -0.503 -0.495
0.0324  0.391 0.0548
-0.00867  0.390 -0.521
 0.108  0.104  0.373
-0.282  0.104 -0.433
-0.0702  0.104  0.359
 0.304  0.275 -0.543
 0.162  0.337 0.0548
 0.121  0.454  0.216
 0.271  0.454  0.462
-0.261 -0.0614  0.626
0.0734 0.0840 -0.454
-0.0155 0.0840  0.496
-0.214  0.104 0.0791
-0.323 -0.144 -0.263
-0.248 -0.144 0.0381
 0.149  0.454  0.284
 0.210  0.433 -0.256
 0.224  0.104 -0.242
 0.292 -0.120 -0.556
 0.303 -0.143 -0.140
 0.190 0.0840  0.482
0.0483 -0.522 -0.531
0.0870 -0.144 -0.235
-0.331 -0.105 -0.547
0.0187 0.0840 -0.140
 0.176 0.0840  0.585
 0.230  0.104  0.291
0.00502 -0.123 -0.379
-0.193 -0.144 -0.461
 0.149 -0.504 -0.467
-0.152 -0.504 -0.112
-0.326 -0.483 0.0753
 0.251 -0.123 0.0381
-0.261 -0.524 -0.0986
 0.299 -0.158 0.00471
-0.00864  0.433  0.141
-0.190 -0.0527  0.236
-0.316 0.00889  0.660
-0.152 -0.144 -0.0575
-0.0223  0.104 -0.372
-0.145  0.104  0.154
0.0870 0.0840  0.578
 0.135 -0.504 -0.242
-0.00181 -0.504 -0.269
0.0938  0.433 -0.0712
 0.114  0.454 -0.310
-0.337 -0.0410  0.489
 0.155 0.0908 -0.532
-0.308 -0.608 0.0745
 0.149  0.139 0.0752
 0.265  0.104  0.113
-0.391 -0.0614  0.325
 0.169  0.454  0.496
 0.108  0.433  0.127
-0.255 -0.504 -0.413
 0.114 -0.504 0.0449
 0.265 -0.504 0.0107
0.0323  0.454 -0.0849
 0.301  0.150 -0.534
-0.186  0.104 -0.201
-0.0975 0.0840 -0.160
 0.281  0.413 -0.554
 0.230  0.454 0.0996
-0.405 -0.0578  0.662
-0.0251  0.264 0.0561
 0.292 -0.0875  0.687
-0.268 -0.123 -0.0986
 0.251 -0.504 -0.256
 0.237  0.454 -0.119
 0.190  0.454  0.373
0.0733 -0.504 -0.379
0.0938 0.0840 -0.317
-0.323 -0.0614  0.387
0.0187 -0.123 -0.235
-0.214 -0.123 -0.208
-0.0770 0.0606 0.0607
 0.302  0.454 -0.190
-0.329 -0.103  0.667
-0.234 -0.517 0.0534
 0.190  0.446 -0.532
-0.268 -0.0614  0.284
0.0733 -0.123 -0.365
-0.296  0.104  0.243
 0.149  0.275 0.0548
 0.176 -0.144 -0.146
0.0665  0.180 0.0548
0.0597 0.0599 0.0654
 0.292 -0.599 0.0782
-0.445 -0.0527  0.428
-0.173  0.104 -0.481
-0.193 0.0840  0.195
-0.0702  0.104 -0.481
-0.166 0.0840  0.387
-0.261  0.104  0.441
-0.248  0.104 -0.242
-0.316 -0.0410  0.209
-0.145 -0.504 -0.0166
-0.0907 -0.123 -0.297
-0.179 -0.524 -0.527
 0.217  0.200 0.0548
 0.128  0.433  0.441
 0.305  0.446  0.209
-0.139 0.0599 0.0602
-0.132 0.0840 -0.297
-0.282 0.0840  0.127
 0.244  0.433 -0.351
-0.331 -0.506 -0.317
 0.258 -0.504 -0.338
 0.101 -0.144 -0.468
 0.258 -0.144 -0.256
 0.258  0.454  0.359
 0.121 0.0840 -0.167
 0.271 0.0840  0.229
 0.282 0.00880 -0.533
 0.237 -0.517 -0.532
-0.200 -0.123 -0.105
 0.128 0.0840  0.270
-0.282  0.104  0.544
 0.162  0.104  0.188
-0.0223 -0.524 -0.324
0.0460 -0.0527 0.0516
-0.0975 -0.504 -0.358
-0.282 -0.504 -0.208
-0.236 -0.0366  0.683
-0.275 -0.524 -0.276
-0.0269  0.446 -0.215
-0.118  0.104 0.0108
-0.00865 -0.524 -0.00975
-0.234 -0.144 -0.331
0.0119  0.433 0.0176
-0.311 -0.00173 0.0656
-0.0357  0.104 0.0995
-0.331 -0.524 0.0108
0.00501 -0.144 -0.133
 0.121  0.534 -0.534
-0.255 -0.144 -0.454
0.0802  0.364 0.0752
0.00502  0.433 -0.331
0.0802 -0.123 -0.105
-0.186 -0.144 -0.283
-0.179 -0.504 -0.208
0.0802  0.104 -0.0575
0.0187 0.0840 -0.222
 0.149 -0.504 -0.351
 0.142 -0.524 -0.0302
 0.299  0.433  0.113
-0.118  0.104  0.646
 0.210 -0.524 -0.0302
 0.203  0.433 -0.0370
-0.104  0.104  0.291
-0.227  0.104  0.393
-0.0770 -0.144 -0.440
 0.149  0.433 -0.167
-0.00183  0.104 -0.00291
-0.323 -0.0410  0.571
-0.179  0.104 -0.0712
-0.145 -0.144 -0.187
-0.00183  0.454 -0.433
-0.00868  0.446 -0.556
 0.203  0.433  0.564
0.0665  0.104  0.523
 0.155  0.454 0.0586
-0.439 -0.0612  0.544
-0.214 -0.524 -0.00291
-0.00181 0.0840  0.339
0.0392 -0.123 -0.481
-0.275 0.0840  0.298
0.0665 -0.0612  0.667
 0.169 -0.0607  0.685
 0.149 -0.0398 0.0517
-0.322  0.104 0.0182
 0.251  0.454  0.257
-0.316 -0.144 -0.140
-0.248 -0.0614  0.489
 0.244  0.454 -0.297
0.0392  0.433  0.243
 0.224 0.0840  0.428
-0.391 -0.0410  0.127
-0.0770 0.0840  0.134
0.0938  0.234 0.0752
-0.0838 -0.123 -0.133
 0.155  0.433 -0.276
-0.0291 -0.144 -0.338
 0.237 0.0840  0.161
 0.128  0.454 -0.112
 0.298  0.138 0.0747
-0.166 -0.504 -0.304
0.0528  0.454  0.120
 0.271  0.398 0.0752
 0.113 0.0719 0.0799
0.0118 -0.503 -0.208
0.0119 -0.123 -0.297
-0.200 -0.123 -0.00290
 0.237  0.454  0.414
0.0324  0.323 0.0548
 0.258 0.0840 -0.372
-0.255 0.0840  0.209
 0.251  0.337 0.0752
 0.221  0.506 -0.552
-0.327  0.105  0.353
-0.268 -0.144 -0.201
-0.302  0.104  0.646
-0.0770  0.104  0.243
0.0187 -0.504 -0.386
0.0870  0.104 -0.263
 0.108  0.454 0.0244
-0.0565 -0.123 0.0108
0.0665  0.454  0.359
-0.326 -0.169 0.0755
 0.303 -0.143 -0.372
 0.244  0.104 -0.461
 0.305  0.440  0.503
 0.108  0.433 -0.447
0.0528 -0.144 -0.00290
-0.0223  0.104 -0.317
-0.132 -0.123 -0.386
0.0597 -0.524 -0.174
-0.234 0.0840 -0.126
 0.258 -0.0527 0.0783
-0.190 -0.0472  0.543
-0.255 0.0840 -0.481
-0.322 -0.524 -0.555
0.0255  0.454 -0.379
 0.279  0.386  0.679
 0.271  0.454 -0.461
 0.244  0.435  0.661
 0.169  0.104  0.373
-0.0291 -0.144 -0.222
 0.108  0.104  0.475
-0.0906 -0.123 -0.235
-0.207 0.0840  0.605
 0.217  0.454  0.175
 0.230 -0.504 -0.427
-0.306 -0.312 -0.538
-0.443 -0.0606  0.122
0.0460  0.433  0.475
 0.176  0.234 0.0756
 0.196 -0.123 -0.406
 0.142 -0.524 -0.119
-0.0770 0.0840 -0.392
-0.0360 0.0840 -0.133
-0.305 -0.415 -0.548
-0.259 -0.522 -0.531
-0.118 0.0840  0.551
 0.265 0.0840  0.339
-0.0838 -0.144 -0.0644
 0.121 0.0840 -0.00973
 0.189  0.440  0.662
-0.00866  0.104  0.264
-0.138 -0.524 -0.461
-0.302 -0.504 -0.126
 0.114  0.104 -0.427
 0.162  0.433 -0.372
-0.0565 -0.0343 0.0586
-0.201 0.0545 0.0652
-0.241 -0.0614  0.127
 0.237  0.434 0.0448
 0.287 -0.429  0.662
 0.303 0.0449  0.651
 0.301 -0.244 0.0562
-0.305 -0.606 -0.537
 0.169 -0.524 -0.527
0.0187  0.454  0.598
-0.0291 -0.0577  0.660
-0.323 0.0840  0.448
 0.210  0.433 -0.420
 0.114 -0.123 -0.399
 0.190 0.0840 -0.0166
-0.179 0.0840  0.113
-0.248 -0.0410  0.400
-0.384 -0.0614  0.482
-0.323 -0.0410  0.264
0.0733  0.104  0.414
0.0392  0.454 -0.167
-0.207 -0.123 -0.509
 0.162  0.454 -0.222
-0.186 -0.524 -0.160
 0.183 0.0840 -0.208
 0.298  0.454 -0.0712
 0.285  0.104 -0.0917
 0.303  0.282  0.669
 0.285  0.433  0.318
 0.217  0.454  0.475
0.0255  0.104 -0.454
0.0392 -0.504 -0.00290
 0.237 0.0840 0.0381
-0.330  0.102  0.141
-0.118 0.0840  0.359
 0.176  0.104  0.270
0.00502 -0.123 -0.0849
-0.378 -0.0410  0.380
-0.317 -0.271 0.0526
-0.398 -0.0410  0.585
 0.303 -0.530 -0.0118
-0.138 -0.0398  0.660
 0.258 -0.144 -0.338
-0.282  0.104 0.0722
-0.305 -0.0733 0.0604
-0.331 -0.154 0.00420
-0.328 -0.537 -0.474
-0.275  0.105 -0.527
 0.305 -0.531 -0.529
-0.00866  0.416  0.620
 0.282 -0.531 0.0750
-0.328 0.0844 -0.427
 0.301 -0.622  0.683
-0.0267  0.214 0.0597
0.0187  0.104  0.421
-0.0360 0.0840  0.544
-0.207 0.0840 -0.358
 0.128  0.104  0.598
 0.196 -0.144 -0.338
-0.234 -0.0410  0.182
-0.0565  0.104 -0.0575
 0.286 -0.532  0.686
 0.258  0.433 -0.160
 0.169  0.104 -0.358
-0.268 0.0840 -0.379
 0.244 -0.524 -0.105
0.0255 -0.504 -0.488
 0.305 0.0965  0.454
 0.280 -0.332  0.679
-0.322 -0.367 0.0775
0.0938  0.104  0.325
-0.0253  0.435 -0.0963
 0.230 -0.144 -0.440
 0.114 -0.144 -0.0712
 0.176  0.454 -0.474
 0.265 -0.123 -0.00974
0.0734 0.0840  0.626
-0.0975 -0.504 -0.235
-0.248 -0.524 -0.0507
 0.299 0.0842 -0.338
-0.207 -0.0614  0.646
0.0323  0.107 0.0503
-0.0246  0.392 0.0737
 0.203 -0.144 -0.242
-0.214 -0.524 -0.119
-0.186 -0.123 -0.167
-0.104 -0.144 -0.481
-0.0496 -0.504 -0.0302
 0.303 -0.429 0.0703
 0.295  0.450  0.670
-0.282 -0.123 -0.345
 0.282 -0.142 0.0750
 0.305 -0.517 -0.249
-0.0701 -0.506 -0.531
 0.304 -0.333 0.0654
-0.336 -0.0387  0.666
-0.282 0.0840  0.346
 0.303 -0.522 -0.345
 0.101  0.454  0.605
-0.00181 0.0840  0.639
 0.108  0.104 -0.495
-0.138 -0.504 -0.0644
0.0597  0.104  0.209
-0.152  0.104 -0.256
-0.0770 0.0840  0.462
-0.0906 -0.144 -0.345
 0.203 0.0840  0.537
-0.268  0.104 -0.0439
-0.145 0.0840 -0.0986
 0.244  0.104  0.516
 0.190 0.0840 -0.461
-0.227 -0.524 -0.331
 0.217 -0.144 -0.0780
-0.296  0.104 -0.331
 0.121 -0.123 -0.331
 0.265 -0.144 -0.174
-0.302 -0.0614  0.516
0.0665  0.104 0.0996
0.0802  0.454 -0.263
 0.183  0.166 0.0548
0.0665 -0.504 -0.283
 0.169 0.0840 0.0927
 0.114  0.433  0.551
 0.230  0.454 -0.0712
-0.0291 -0.123 -0.160
-0.118 -0.123 -0.0917
 0.190  0.104 -0.276
 0.183 -0.504 -0.433
-0.412 -0.0410  0.216
0.0528 -0.524 -0.0507
 0.258 0.0840 -0.126
-0.234 -0.0407  0.592
-0.0268  0.451  0.257
 0.135 -0.140 0.0536
0.0460 0.0840 -0.495
-0.227 -0.0410  0.264
-0.0360 0.0840  0.229
-0.159 0.0840 -0.399
-0.186 0.0840  0.530
-0.221  0.104  0.564
-0.309 -0.0614  0.626
 0.265  0.104 -0.174
 0.237  0.446 -0.532
-0.227 -0.524 -0.379
 0.169  0.385 0.0752
0.0460  0.104 -0.0986
0.0597  0.104  0.257
-0.152 -0.144 -0.00974
 0.265 0.0840 -0.256
 0.303  0.454  0.610
-0.312 -0.210  0.663
 0.114  0.454  0.400
 0.176 -0.504 -0.160
-0.0565 -0.524 -0.427
0.0187  0.433  0.428
-0.289 -0.504 -0.379
 0.285  0.104  0.639
 0.285  0.303 0.0752
0.0187  0.200 0.0548
 0.101  0.454 -0.528
 0.298 -0.123 -0.269
0.0255  0.431 0.0801
-0.0102  0.321  0.666
-0.0299  0.282 -0.538
 0.183 -0.123 -0.502
 0.303 -0.627 -0.548
 0.183  0.105  0.658
-0.261 0.0864  0.661
 0.302  0.454 -0.0188
-0.302 0.0840 -0.235
-0.304 -0.224 -0.543
 0.280 -0.360 -0.538
-0.166 0.0840 -0.522
 0.196  0.104 0.0312
0.0187  0.104  0.175
0.0870  0.104 -0.372
-0.125 0.0840  0.605
 0.176  0.433  0.612
0.0392 -0.524 -0.105
 0.224 -0.504 0.0381
 0.114  0.104 -0.208
 0.190  0.433  0.277
 0.217 -0.504 -0.0712
-0.261 -0.524 -0.454
-0.322 -0.469  0.686
0.0665  0.433 0.0176
-0.0633 -0.123 -0.488
 0.162  0.433  0.161
0.0119 -0.504 0.0381
 0.258  0.454 0.00392
-0.194 -0.0612  0.346
-0.105  0.236 -0.555
-0.317 -0.558  0.687
-0.289 -0.504 0.0449
0.0938  0.104  0.168
-0.145  0.104 -0.181
0.0187  0.433  0.202
-0.0223 0.0840  0.380
0.0392  0.454  0.318
0.0255  0.104  0.503
0.0187  0.104 -0.338
 0.196  0.104  0.325
-0.0702  0.104 -0.433
-0.0701 0.0840 -0.522
 0.203 0.0840 -0.126
-0.152 -0.0360 0.0540
0.0597 -0.504 -0.427
0.0528  0.454 -0.338
-0.0565 -0.504 0.0176
 0.121  0.454 -0.399
-0.111 -0.504 -0.133
0.0733  0.454 -0.215
-0.118 -0.504 -0.297
-0.0838 -0.504 -0.181
-0.0155  0.104 -0.488
 0.265 -0.123 -0.0575
-0.00344  0.421 -0.470
 0.258 -0.0527  0.660
 0.212  0.511  0.682
0.0118  0.454 -0.256
 0.303  0.103 -0.531
-0.331 -0.125 -0.0302
-0.0152  0.412  0.687
0.0802  0.412 0.0752
-0.195 -0.0414 0.0990
 0.292  0.104 0.0113
-0.326 -0.385  0.664
-0.0701  0.262  0.687
 0.114  0.433  0.257
-0.445 -0.0577  0.325
-0.00181 0.0840 -0.406
-0.179  0.104 -0.310
 0.278 -0.123 -0.413
 0.135 -0.144 -0.126
-0.220 0.0840 -0.0166
-0.0770 0.0840  0.619
-0.166  0.104 -0.0166
 0.101  0.159 0.0752
0.0870  0.454  0.469
-0.166  0.104 0.0517
-0.302 -0.0614  0.120
0.0187 0.0840 -0.0439
 0.210  0.104 -0.0507
 0.101  0.433  0.182
-0.159 -0.524 -0.399
 0.251  0.433  0.598
 0.305 0.0961 0.0928
-0.316 -0.123 -0.509
 0.265  0.241 0.0752
-0.295  0.199  0.667
 0.302 -0.0534 0.0652
 0.258 -0.504 -0.495
-0.194  0.226 -0.547
 0.281 0.0629 -0.500
 0.301 -0.438 -0.534
-0.0383 -0.125 0.0531
-0.104 0.0840 -0.263
-0.186 0.0840  0.277
-0.118  0.104 -0.379
0.0529 -0.123 -0.140
0.0255 0.0840  0.605
-0.111  0.104  0.482
 0.203  0.454 -0.146
-0.289 0.0840  0.475
-0.220 0.0840 -0.454
 0.155  0.433  0.407
 0.162 0.0840 -0.427
 0.155 -0.123 -0.0439
-0.282  0.104  0.182
-0.0907  0.104 -0.0302
 0.203  0.454 0.0654
-0.331 -0.140 -0.386
 0.128 0.0840 -0.283
 0.108 -0.524 -0.0575
-0.282 -0.144 -0.488
-0.227  0.104  0.469
 0.237 0.0840 0.0859
 0.114  0.104 -0.0849
 0.176 0.0840 -0.0780
-0.331 -0.306  0.674
-0.186 -0.123 -0.420
 0.258  0.166 0.0548
 0.128 -0.123 -0.495
 0.114 -0.524 0.00392
 0.155  0.433  0.325
 0.230  0.454 -0.215
-0.296 -0.524 -0.0370
-0.214 -0.0410  0.455
-0.330  0.102 -0.153
-0.304 -0.149 -0.542
 0.297  0.451 -0.537
 0.282 0.0156  0.684
-0.118  0.104  0.229
0.0938  0.433 -0.488
0.0528 -0.144 -0.263
-0.00182 -0.144 -0.481
0.0392  0.433 -0.488
-0.0223  0.104 -0.228
-0.0565 -0.504 -0.345
 0.183 -0.144 -0.0166
-0.282 -0.144 -0.249
 0.142  0.454 -0.0712
 0.217 0.0840 -0.358
 0.176 -0.123 -0.269
-0.132  0.104 -0.468
0.00502 0.0840 -0.181
-0.00182  0.303 0.0752
 0.142  0.547  0.686
 0.121 -0.144 -0.201
-0.234 -0.0612 0.0586
-0.00935  0.364 -0.556
-0.270  0.223 -0.551
-0.221 -0.504 -0.528
-0.331 0.0771 -0.522
-0.000222  0.390  0.653
-0.214 0.0840  0.653
-0.0268  0.451  0.482
-0.302  0.104  0.584
 0.285 -0.504 -0.146
-0.0215  0.454  0.530
 0.285  0.454 -0.365
0.0665 0.0840 0.0313
-0.322  0.104 -0.0843
0.0529  0.433  0.530
-0.322 -0.640  0.686
 0.298  0.103  0.495
-0.268  0.104 -0.140
-0.194 -0.0612  0.195
-0.234 -0.0614  0.537
-0.0838 0.0840  0.393
-0.289  0.104 -0.194
 0.101  0.454 -0.181
-0.145 -0.524 -0.345
-0.241 -0.504 -0.290
 0.224 -0.524 -0.324
 0.169 -0.524 -0.256
-0.118 -0.144 0.0176
-0.00866  0.104 -0.276
-0.0633 -0.504 -0.263
-0.00395  0.486  0.668
0.0392 -0.123 0.0313
-0.0428  0.104 0.0312
-0.200 -0.524 -0.290
-0.234  0.104 -0.290
-0.152 0.0840  0.434
 0.258 0.0840 -0.427
0.0733  0.104 -0.146
 0.303 -0.210 -0.548
-0.289 -0.0614  0.585
-0.255 -0.0410  0.318
-0.412 -0.0614  0.393
0.0733 -0.504 -0.331
 0.114  0.350 0.0548
-0.200 -0.123 -0.358
 0.162 -0.504 -0.392
-0.0291 -0.524 -0.488
 0.237  0.433  0.223
 0.190 -0.504 -0.338
 0.287 -0.0869 -0.531
-0.331 -0.522 -0.356
 0.285 -0.524 -0.440
-0.316 -0.144 -0.310
-0.323  0.152 -0.548
-0.445 -0.0469  0.658
-0.0269  0.446 0.0381
 0.303 0.0999  0.344
-0.0861 -0.506 0.0531
 0.101 -0.524 -0.222
-0.357 -0.0410  0.216
-0.186 0.0840  0.346
-0.166  0.104 -0.440
 0.162  0.454  0.537
 0.196  0.433  0.523
 0.265 0.0840  0.421
 0.155  0.104  0.229
-0.227  0.104  0.298
-0.241  0.104 -0.406
 0.162 0.0840  0.544
-0.296 -0.144 -0.447
-0.248  0.104 0.0449
-0.104 -0.524 -0.0234
-0.0770  0.104 -0.228
0.0938  0.454 -0.0302
 0.155  0.104  0.147
 0.297  0.317 -0.555
-0.261 -0.144 -0.0575
-0.220 -0.504 -0.201
 0.108 -0.135 -0.532
 0.302 -0.507 0.0284
0.0255 -0.125 -0.531
-0.276 0.0163 0.0775
 0.281 -0.545 -0.499
 0.292 -0.123 0.0381
-0.323 -0.0614  0.428
-0.186  0.104  0.154
 0.162  0.104 -0.167
 0.155 -0.504 -0.290
 0.292  0.104 -0.446
 0.265 0.0840  0.380
0.0187  0.454  0.557
-0.312  0.111  0.686
-0.0360 -0.524 -0.153
 0.114  0.104  0.414
 0.287  0.200  0.662
0.00500  0.104 0.0996
 0.265 0.0840  0.605
0.0875  0.105  0.658
-0.0704  0.104  0.168
-0.145 0.0840  0.291
 0.278  0.433 -0.290
0.0870  0.454  0.653
-0.311 -0.565 -0.555
-0.214 0.0840 -0.235
0.0734 0.0840 -0.228
0.0392  0.104  0.332
 0.217  0.104  0.612
-0.255 -0.123 -0.0166
-0.234 -0.144 -0.0917
 0.196  0.344 0.0752
-0.186 -0.123 -0.0439
-0.0360  0.104  0.332
-0.0496 -0.123 -0.0575
0.0255 -0.144 -0.433
-0.00181 -0.504 -0.119
 0.237  0.454  0.557
 0.183 -0.524 -0.126
 0.217 -0.123 0.00393
 0.203  0.104  0.195
-0.111  0.104 -0.105
-0.159  0.104  0.216
-0.0975 -0.524 -0.481
-0.241 -0.144 -0.242
-0.152 0.0840 -0.215
-0.111 -0.123 -0.194
 0.258 -0.524 -0.222
 0.176 -0.504 -0.0234
 0.305  0.446 -0.433
-0.307 0.00662 -0.533
-0.306 -0.174 -0.511
-0.0155 -0.524 -0.228
 0.258 -0.125 -0.531
-0.282 -0.0614  0.414
-0.145 -0.123 0.0501
 0.128  0.454 0.0996
 0.301 -0.162 -0.552
 0.210  0.433 -0.297
 0.251  0.454 -0.386
-0.200  0.104 -0.105
-0.275 -0.144 -0.133
 0.251 0.0225 0.0779
-0.152 -0.144 -0.468
-0.0223 -0.144 0.00393
 0.265  0.104 -0.290
-0.0360  0.104 -0.0986
 0.149  0.104  0.462
-0.405 -0.0410  0.257
 0.245  0.103 -0.530
 0.162  0.454  0.209
-0.296 -0.504 -0.447
-0.0975 0.0840  0.325
-0.296 -0.524 -0.242
 0.101 -0.504 -0.433
0.0870  0.433 -0.413
-0.0360 -0.144 -0.406
0.0460  0.454 -0.413
-0.0770 0.0840 -0.194
-0.138 -0.524 0.0176
-0.0155 -0.524 -0.187
0.0119  0.433 -0.0575
-0.255 0.0840 0.0928
 0.271 -0.504 -0.0848
 0.155  0.454 -0.310
 0.265  0.454  0.195
0.0255 0.0840  0.257
-0.186 0.0840 -0.167
 0.244  0.104  0.250
0.0870  0.104 -0.00975
-0.179  0.104  0.469
 0.101 0.0840  0.510
 0.196  0.104  0.407
 0.210 -0.144 -0.174
-0.186 -0.144 -0.228
 0.135  0.316 0.0752
-0.296 -0.123 -0.181
0.0597  0.104 -0.413
-0.0975  0.104  0.585
-0.0975 -0.123 -0.413
 0.258 0.0840 -0.0370
 0.155  0.433 0.00394
0.0597 0.0840  0.168
-0.316 -0.524 -0.208
0.0733  0.282 0.0752
-0.0155  0.104  0.462
-0.261 0.0840  0.516
 0.224 0.0840 -0.276
-0.132 0.0840 -0.140
-0.289 0.0840 0.00394
0.0597  0.454 -0.126
-0.152 -0.123 -0.297
 0.285  0.433 0.0244
 0.251  0.454 -0.495
 0.155 -0.504 -0.201
-0.152 -0.504 -0.160
 0.108 -0.524 -0.488
 0.176 -0.524 -0.488
-0.255 -0.524 -0.228
 0.114  0.118 0.0751
0.0119  0.433 -0.112
 0.101 -0.524 -0.358
0.0392  0.433  0.154
 0.271  0.433 -0.0917
-0.326 -0.638 0.0554
 0.292  0.433  0.359
0.00501  0.454 -0.297
 0.114  0.433 -0.345
-0.0360 -0.524 -0.105
 0.281  0.394 -0.519
-0.00864 0.0840 0.0381
-0.0268  0.440  0.325
-0.330  0.102  0.401
-0.166  0.104  0.626
-0.0269  0.446 -0.174
-0.138  0.245  0.685
-0.227 -0.0410  0.352
-0.412 -0.0614  0.619
-0.331 -0.579 0.0643
-0.323 -0.0380 0.0577
0.0119  0.454  0.653
 0.114 0.0841 -0.527
 0.303 -0.522 -0.0575
-0.331 0.0444  0.655
-0.331 0.0911  0.229
0.0710  0.519  0.673
-0.318 -0.182 0.0397
 0.305 -0.135 -0.522
-0.331 -0.511 -0.0302
-0.0268  0.451  0.605
-0.00182 -0.144 -0.194
 0.258  0.454  0.127
-0.357 -0.0404  0.291
 0.121  0.454  0.311
-0.0633 -0.123 -0.324
0.0392  0.454 0.0381
0.0118  0.104  0.305
 0.149 -0.504 0.00393
-0.282 -0.123 0.0108
0.0323 -0.524 -0.256
 0.101 -0.123 0.0176
 0.251 -0.504 -0.174
 0.237 0.0840  0.202
 0.299 0.0843  0.202
 0.304  0.227 0.0704
-0.316  0.104 -0.481
 0.183 -0.0527 0.0783
-0.304 0.0715  0.626
0.00501  0.454  0.236
-0.308 -0.0687 -0.534
-0.0269  0.118 0.0654
0.0460  0.132 0.0752
-0.331 -0.506 -0.509
-0.296 -0.504 -0.304
0.0597 -0.524 -0.495
-0.304 -0.544 -0.502
 0.279 -0.291 -0.543
0.0323  0.527 -0.543
 0.149  0.451 -0.532
-0.326 -0.442 -0.533
 0.282 -0.187  0.664
 0.265  0.111 0.0766
0.0118  0.454  0.106
 0.285  0.420  0.605
-0.0215  0.454 -0.351
-0.443 -0.0606  0.218
-0.302  0.104 -0.379
-0.118 -0.144 -0.310
-0.118 -0.0578  0.687
 0.176  0.454 -0.0507
 0.258  0.454  0.633
0.0187  0.364 0.0753
 0.292  0.454  0.147
-0.317 -0.107 0.0782
 0.303  0.435 -0.228
-0.398 -0.0406  0.182
 0.155  0.433  0.243
 0.217 -0.524 -0.249
-0.412 -0.0614  0.441
0.0938  0.433  0.428
-0.159 -0.123 -0.0986
-0.261 0.0840  0.380
-0.289 -0.0614  0.236
-0.296 -0.144 -0.0712
-0.104  0.104 -0.495
 0.183 -0.123 -0.372
0.0460 -0.123 -0.392
0.0324 -0.504 -0.351
0.0255  0.433  0.277
0.0187 -0.123 -0.0507
-0.220 0.0840  0.223
 0.237  0.454  0.291
 0.128 0.0840 -0.331
 0.210 -0.129 -0.532
0.00500  0.104  0.141
-0.0223 -0.524 -0.413
-0.0428 0.0840 -0.406
 0.149 -0.144 -0.310
-0.343 -0.0614  0.346
0.0118 -0.144 -0.00974
-0.241  0.104  0.182
-0.261 0.0840 -0.310
0.0460  0.104 -0.242
 0.278 0.0840  0.141
-0.0770 -0.504 -0.399
0.0529 -0.123 -0.222
0.0597  0.433 -0.0575
 0.114 -0.504 -0.0986
-0.296 -0.0410  0.332
 0.244 -0.504 -0.372
 0.271  0.433  0.284
-0.241 -0.144 -0.488
0.0118 -0.524 -0.515
-0.00865 -0.123 -0.263
0.0528  0.104 -0.324
 0.265  0.104 -0.331
 0.231 0.0840  0.482
 0.176  0.104  0.510
 0.210  0.104  0.455
-0.125 0.0840  0.120
-0.0291 0.0840 -0.0439
-0.0633  0.104 -0.146
0.0187  0.104 -0.509
-0.0497  0.104  0.516
0.0870 -0.144 -0.146
 0.142 -0.144 -0.413
-0.296 -0.0614  0.182
 0.121 -0.504 -0.146
0.0733  0.433  0.619
 0.271  0.433 -0.194
0.0665  0.221 0.0548
 0.251 -0.504 -0.0234
-0.255 -0.524 0.0176
 0.271 -0.123 -0.365
 0.149 -0.123 -0.242
-0.145 -0.144 -0.413
 0.196  0.125 0.0752
-0.398 -0.0410  0.510
-0.384 -0.0410  0.633
0.0870 -0.524 -0.406
 0.285  0.433  0.434
 0.108  0.433 -0.276
 0.135  0.454  0.175
 0.149  0.433 -0.461
-0.227 -0.504 -0.0917
-0.166 -0.524 -0.0507
-0.207 -0.524 -0.447
 0.292 -0.244  0.661
-0.200 -0.504 0.0244
0.0323 -0.524 -0.413
-0.186 -0.504 -0.0166
 0.155  0.454  0.455
 0.258  0.433  0.489
 0.217  0.433  0.387
 0.299 0.0843 -0.174
-0.0565 0.0840  0.195
-0.255 0.0840  0.557
 0.278 -0.554 -0.538
-0.405 -0.0410  0.352
0.0392 0.0844 0.0860
0.00502  0.433  0.482
0.0802 -0.144 -0.502
 0.277 0.0710  0.652
0.0187  0.454 -0.522
-0.289 -0.0402  0.653
0.0118  0.454 -0.468
-0.296 -0.504 -0.174
 0.203 -0.524 -0.515
 0.277 -0.156 -0.502
-0.282 -0.144 0.0499
-0.331 0.0911 -0.263
-0.331 -0.506 -0.392
 0.190 -0.0346  0.667
 0.305 -0.128 -0.105
-0.384 -0.0578 0.0772
-0.302 -0.504 0.00393
-0.234  0.228  0.661
 0.286  0.132  0.686
 0.282 -0.0532  0.687
 0.258  0.454 -0.427
 0.271 -0.144 -0.222
0.0802 0.0840  0.229
-0.0702  0.104  0.311
-0.214  0.104 -0.146
0.0802 -0.144 -0.406
 0.149 -0.144 -0.474
 0.196  0.405 0.0548
-0.275 -0.0410  0.202
-0.289 -0.0410  0.373
-0.0496 -0.144 -0.140
0.0733 -0.123 -0.0234
0.0870 -0.123 -0.283
 0.169  0.104 0.00392
 0.302 0.0428 -0.521
0.0733  0.433  0.141
-0.0907 -0.524 -0.112
 0.265 -0.524 0.0449
0.0597  0.433 -0.187
0.0597  0.433  0.298
 0.155  0.454  0.633
 0.237  0.433  0.455
-0.248 -0.504 -0.358
0.0733 -0.504 -0.0712
 0.244 -0.504 -0.304
 0.190 0.0840 -0.392
-0.200  0.104  0.243
 0.183 0.0840  0.168
0.0870 -0.524 -0.263
-0.234 -0.504 -0.0234
-0.214 -0.123 -0.310
 0.224  0.454 -0.0166
0.0802 -0.504 -0.194
 0.128 -0.524 -0.447
0.0392  0.433  0.393
-0.306 -0.142  0.669
-0.331 -0.125 -0.447
-0.0261  0.180 0.0704
-0.0428 0.0661 0.0767
 0.196 0.0824 0.0586
 0.282 -0.121  0.684
-0.132 -0.129 -0.532
-0.275 -0.0577 0.0517
-0.289 -0.0410  0.482
-0.309 0.0840  0.537
 0.203 0.0840 -0.310
 0.142  0.234 0.0548
 0.169  0.454 -0.187
-0.0155  0.433  0.400
0.0528  0.454  0.216
-0.0975  0.104 -0.0644
-0.316 0.0410 -0.521
-0.166 -0.123 -0.365
-0.0975 0.0840 -0.304
 0.230  0.104 -0.208
 0.196  0.454  0.339
-0.316 -0.0410  0.161
 0.169 0.0840  0.619
 0.196  0.433 -0.222
-0.132 -0.524 -0.495
 0.121 0.0840  0.161
 0.271  0.433  0.557
-0.0565 -0.129 -0.532
-0.227 0.0840 0.0176
-0.296 0.0840 0.0381
-0.0565 -0.504 -0.0644
0.0938 -0.123 -0.440
 0.114 -0.144 -0.358
 0.301  0.180 -0.552
0.0323  0.454  0.352
 0.108 0.0840  0.441
-0.0223 -0.123 -0.304
-0.0428 -0.524 -0.290
 0.101  0.454 0.0586
-0.159  0.104 0.0859
 0.231 0.0840  0.120
-0.207 -0.123 0.0313
-0.0702  0.104  0.428
-0.241 -0.123 -0.358
 0.230 -0.123 -0.263
0.0733  0.433  0.387
 0.237  0.454 -0.263
0.0187  0.433 -0.0234
 0.217 -0.504 0.00393
-0.152 -0.504 -0.515
 0.108 0.0840 -0.235
-0.405 -0.0410  0.544
-0.289 0.0840  0.428
 0.183  0.433  0.469
-0.193 -0.504 -0.0986
 0.251  0.454  0.325
0.0870 0.0840  0.264
0.0392 0.0840  0.530
-0.0906 0.0840 0.00394
-0.132  0.104 0.0586
0.0392 -0.123 -0.358
 0.278 -0.123 -0.481
 0.251  0.104 -0.399
 0.203 0.0840  0.277
0.0529  0.357 0.0548
-0.316 -0.144 -0.228
 0.196  0.433  0.195
 0.128 -0.524 -0.269
 0.217  0.241 0.0548
-0.173 -0.524 -0.263
 0.121  0.104 -0.119
 0.196 -0.524 -0.181
-0.00864 0.0840  0.434
-0.125 -0.144 -0.358
 0.258  0.364 0.0548
 0.169 -0.123 -0.331
-0.118 -0.144 -0.126
 0.190 -0.144 -0.474
 0.251 -0.123 -0.310
-0.234 0.0840  0.434
-0.275 0.0840 -0.0712
-0.214  0.104 -0.331
-0.111  0.104  0.387
-0.302 0.0840  0.270
0.0733 -0.123 -0.474
0.00502  0.234 0.0548
-0.00865 -0.123 -0.413
 0.244  0.309 0.0548
 0.135  0.371 0.0752
 0.155 -0.123 -0.187
-0.248 -0.123 -0.427
-0.275 -0.144 -0.317
 0.244  0.207 0.0752
-0.261 -0.0410  0.250
0.0392  0.433 -0.263
0.0324 -0.504 -0.160
0.0324 -0.504 -0.454
-0.200 -0.504 -0.495
 0.224  0.433  0.147
0.0187  0.433 -0.146
 0.196  0.433 0.0927
0.0733 -0.524 -0.140
0.0529  0.433 -0.386
 0.265  0.433 -0.126
 0.101  0.433 -0.00290
 0.251 -0.524 -0.140
-0.138 -0.504 -0.372
 0.155 -0.524 -0.324
 0.121  0.433 -0.140
0.0255 -0.0398 0.0792
-0.326 -0.552 0.0304
-0.0770 -0.0614 0.0654
-0.0428 -0.0607 0.0763
 0.264  0.458  0.683
 0.301  0.384 -0.552
 0.209  0.538 -0.538
 0.285 -0.504 -0.522
 0.183  0.104 -0.515
 0.292 0.0504  0.687
-0.173 0.0707 0.0526
 0.305  0.446  0.462
 0.303  0.241 -0.538
-0.331 -0.524 0.0642
-0.0702  0.104 0.0996
-0.419 -0.0410  0.311
-0.330 -0.449 0.0688
 0.286  0.422 -0.467
-0.0215  0.433  0.106
 0.251 -0.144 -0.468
 0.196  0.454  0.592
 0.258  0.104 -0.228
-0.268 -0.0614  0.106
 0.305 -0.162 0.0381
 0.108 -0.123 -0.126
 0.149  0.173 0.0752
-0.145 -0.504 -0.208
 0.282 -0.565 0.0750
 0.149 -0.504 0.0449
0.0255  0.104 -0.420
-0.255 -0.0402  0.653
 0.142  0.433  0.503
 0.196  0.433 -0.372
-0.323 -0.524 -0.105
 0.114  0.275 0.0548
-0.241 -0.504 -0.126
-0.111 -0.144 -0.0439
0.0802  0.433 -0.317
 0.155  0.104 -0.284
-0.0838 -0.524 -0.447
 0.108 0.0840 -0.467
 0.190 0.0840 -0.167
 0.258 0.0840  0.291
-0.0906 0.0840 -0.461
-0.248  0.104  0.120
-0.00181 0.0840  0.585
-0.00183  0.104  0.544
-0.302 0.0840  0.154
-0.0292  0.104  0.605
0.0392 -0.123 -0.317
0.0392  0.159 0.0548
0.0118  0.104 -0.372
-0.214  0.104 0.0449
0.0392 0.0840 -0.181
-0.0770 -0.144 -0.0986
-0.296  0.104 -0.0234
-0.214 -0.0614  0.564
 0.203 -0.504 -0.406
 0.265  0.433 -0.324
-0.302 -0.0410  0.298
-0.118 -0.504 -0.0917
-0.255  0.104  0.318
 0.203 -0.524 -0.0986
-0.118 0.0840 -0.187
0.0938  0.454  0.332
 0.142  0.454 -0.249
 0.149 0.0840 -0.0986
-0.125 0.0840  0.175
 0.292  0.371 0.0752
-0.357 -0.0614  0.462
 0.210 -0.123 -0.146
 0.237 -0.144 -0.228
0.0665  0.454  0.496
-0.0428  0.104 -0.290
-0.0428  0.104 -0.345
-0.419 -0.0404  0.147
0.0938  0.104  0.544
0.0665  0.433  0.448
0.0529 0.0840 -0.0575
-0.391 -0.0410  0.291
 0.176  0.268 0.0752
 0.285  0.454 -0.495
0.0801  0.454  0.243
 0.265 0.0840  0.571
-0.0838 0.0840  0.544
 0.162  0.433 -0.338
0.0802 -0.524 0.00392
 0.230  0.104  0.325
0.0802 -0.123 -0.0712
 0.128 0.0840  0.236
-0.214 0.0840  0.113
-0.255 0.0840  0.475
 0.121 -0.144 -0.235
-0.261 -0.524 -0.488
-0.0428 -0.123 -0.440
-0.0838 -0.144 0.0108
-0.118 -0.144 -0.235
-0.0428 0.0840 -0.488
0.0802 -0.0527 0.0516
 0.121  0.104 0.0176
0.0802 0.0840 -0.495
-0.227  0.104 -0.181
-0.234  0.104 -0.0439
 0.128 0.0840  0.626
0.0938 0.0840  0.298
 0.101  0.104  0.619
0.0733 -0.144 -0.338
 0.265  0.268 0.0548
 0.183  0.193 0.0752
-0.302 -0.0410  0.544
-0.330 -0.0614  0.291
-0.241 -0.0614  0.455
-0.350 -0.0410  0.428
0.0460  0.433  0.598
0.0187  0.433 -0.413
 0.224  0.433  0.257
 0.142 -0.504 -0.0575
 0.210  0.433 -0.119
0.00501 -0.524 -0.0917
-0.302 -0.504 -0.338
 0.258 -0.524 -0.468
-0.330 0.0783 -0.465
-0.104 -0.0343  0.667
0.0802 -0.511 -0.532
 0.149 0.0840 -0.215
-0.331 -0.627 -0.544
 0.299 -0.144 -0.174
-0.0223 0.0976  0.663
 0.305 -0.128 -0.00974
-0.302 0.0840  0.209
 0.298  0.398 0.0548
-0.132 -0.144 -0.502
-0.296 -0.504 -0.529
-0.159 -0.0579 0.0787
-0.0269  0.446 -0.0644
0.0870 -0.0346  0.667
 0.305  0.451 -0.392
-0.317 -0.0117  0.687
-0.0832  0.104  0.652
-0.296 -0.0402 0.0859
-0.330  0.102  0.264
 0.224 -0.0578 0.0784
-0.0236  0.394 -0.552
 0.280 -0.223 0.0708
-0.173 -0.524 -0.495
-0.289  0.165  0.674
-0.292  0.160 -0.543
-0.331 -0.333 -0.543
 0.305  0.440 -0.263
0.00228  0.426 -0.529
 0.155  0.440  0.662
-0.331 -0.143 -0.110
 0.279 0.0387 -0.546
-0.331 0.0839  0.639
 0.256  0.506 -0.542
 0.128 -0.0607  0.685
-0.445 -0.0577  0.393
-0.0167 -0.0346  0.683
 0.303 -0.585 0.0507
 0.275 0.0820 -0.469
-0.0360 -0.144 -0.502
-0.301 -0.149 0.0176
-0.317 -0.388 0.0526
-0.111 -0.0360 0.0540
-0.159 -0.144 0.0244
 0.286 -0.620 0.0534
 0.286  0.119 -0.555
 0.237  0.426 0.0766
 0.292 0.0840 -0.372
-0.268  0.192 -0.540
 0.285 -0.504 -0.365
-0.305 -0.244 0.0654
-0.312 -0.292 0.0772
 0.277  0.426  0.658
 0.217  0.454  0.653
-0.330 -0.292 -0.540
 0.303 0.0865  0.236
-0.186  0.104  0.401
-0.104 -0.144 -0.276
 0.271 -0.144 -0.133
-0.425 -0.0614  0.585
 0.304 -0.271 -0.543
 0.282 -0.0163 -0.553
0.0323 -0.0527  0.660
 0.183 0.0840  0.346
-0.0614  0.285 -0.543
-0.159 0.0840  0.175
0.0392  0.104  0.448
0.0119 0.0840 -0.290
 0.278 -0.144 -0.283
 0.169 0.0840 -0.263
-0.275  0.104 -0.495
 0.244  0.104  0.633
-0.138  0.104 -0.413
-0.316  0.104 -0.304
 0.121 0.0840  0.352
 0.190  0.104  0.564
 0.237  0.104  0.407
 0.142  0.104  0.305
-0.0155 0.0840  0.182
0.0938 0.0840  0.141
-0.166 -0.123 -0.201
0.00502 -0.123 -0.454
0.0529  0.255 0.0548
 0.149 -0.123 -0.146
-0.227 -0.144 -0.290
-0.425 -0.0410  0.462
-0.337 -0.0614  0.243
-0.0975 -0.123 -0.454
-0.0975  0.104  0.147
-0.331 -0.506 0.0381
-0.00865 -0.144 -0.0644
-0.00182 -0.144 -0.317
0.0255 -0.144 -0.502
0.00502 0.0840  0.400
-0.0223  0.104 -0.153
-0.0496 0.0840  0.441
0.0392  0.104 0.0108
-0.0633 -0.123 -0.167
 0.280 -0.353 0.0708
0.0460  0.303 0.0752
0.0734 0.0840  0.339
-0.412 -0.0614  0.113
 0.121  0.454  0.482
 0.265 0.0840  0.503
-0.282  0.104 -0.269
 0.108  0.104  0.250
-0.193 0.0840 -0.133
 0.237  0.104 -0.112
 0.217  0.454 -0.509
0.0870 0.0840 -0.181
 0.217  0.330 0.0548
-0.268 -0.123 -0.228
 0.169  0.125 0.0548
-0.391 -0.0410  0.455
-0.221 -0.0410  0.516
 0.142 0.0840  0.127
-0.0565  0.104  0.633
 0.291  0.363  0.660
 0.176  0.433  0.352
 0.114  0.433  0.373
 0.128  0.454  0.530
 0.162 -0.504 -0.105
-0.166 -0.524 -0.133
-0.104 -0.524 -0.317
-0.261 -0.524 -0.174
-0.282 -0.524 -0.140
-0.166 0.0840 -0.331
 0.176  0.433 0.0313
0.0665  0.433 -0.242
-0.0975 -0.524 -0.160
0.0597 0.0840 -0.263
-0.00865 -0.524 -0.0439
0.0733  0.454 -0.461
 0.210 -0.123 -0.454
0.0733  0.104  0.482
-0.0633  0.104  0.482
-0.0428 -0.123 -0.242
 0.155  0.433 -0.0370
-0.221 -0.0410  0.141
0.0733  0.433 -0.351
 0.183  0.433 -0.440
 0.224  0.454  0.510
-0.193 -0.524 -0.228
0.0528 -0.524 -0.365
 0.169 -0.123 0.0244
-0.309 0.0840 -0.181
-0.0223 0.0840  0.120
0.00501  0.454  0.161
-0.132 -0.524 -0.146
-0.200 -0.517 0.0534
 0.292  0.104  0.565
-0.0633 -0.144 0.0381
 0.301 -0.0664  0.665
-0.207 0.0840 -0.502
-0.0496 -0.524 -0.515
 0.266  0.446 -0.545
-0.263  0.196  0.674
-0.331 0.0976 -0.392
 0.274 0.0833 -0.523
 0.282 -0.265  0.684
-0.0269  0.439 -0.522
-0.236 0.0447 0.0750
 0.189 0.0515 0.0594
-0.331 0.0866  0.327
-0.0269  0.446 -0.304
-0.328 -0.123 -0.160
-0.195 -0.0414  0.625
 0.292  0.454  0.236
-0.0215  0.454  0.182
 0.305 0.0910 -0.0712
 0.303 -0.535 -0.474
-0.0213  0.316 0.0548
-0.138 0.0864  0.661
-0.326 0.0794 -0.553
 0.292 -0.599 -0.556
 0.230 -0.144 0.0499
-0.366 -0.0423  0.662
-0.316  0.104  0.113
-0.255 -0.0613  0.680
-0.331 -0.497 -0.543
 0.282 -0.463 -0.534
 0.169  0.454 -0.509
 0.282 -0.447 0.0559
-0.248 0.0908 -0.532
-0.323 0.0840  0.571
-0.317 -0.0732  0.687
 0.285 0.0840  0.264
0.0877  0.553 -0.543
 0.238  0.520  0.668
0.0528 -0.144 0.0499
 0.280  0.262  0.669
-0.329 -0.531  0.681
 0.303 -0.654  0.669
-0.0565 -0.0578  0.687
 0.285 -0.524 -0.276
-0.445 -0.0527 0.0928
-0.179  0.104  0.311
 0.149 -0.0347  0.674
-0.309 -0.524 -0.153
-0.261  0.104 -0.208
 0.169 -0.144 -0.399
-0.138  0.104  0.530
-0.0428 -0.144 -0.194
0.0187 -0.504 -0.0370
0.0733  0.104  0.284
0.0119 -0.504 -0.242
-0.0392  0.314  0.673
0.0733  0.454 -0.167
 0.155 0.0840 -0.495
-0.207 -0.504 -0.174
 0.142  0.104  0.571
 0.251 -0.123 -0.153
-0.371 -0.0614  0.592
 0.190 -0.144 -0.0986
-0.138 0.0840  0.407
-0.00866  0.104 -0.112
-0.234 -0.144 0.0108
-0.132  0.104 -0.0166
 0.224 0.0840 0.0108
-0.0838 -0.504 -0.331
0.0187 -0.144 -0.167
0.0460 0.0840 -0.126
-0.192 -0.0430  0.370
 0.203  0.221 0.0751
 0.258  0.104 -0.0780
 0.135 0.0840  0.400
-0.296 -0.144 -0.276
-0.186  0.104 -0.386
 0.114 0.0840  0.564
 0.183 -0.123 -0.201
-0.261 -0.0614  0.523
 0.135  0.104  0.202
 0.114 -0.144 -0.427
-0.309 -0.0614  0.359
-0.275 -0.123 -0.290
-0.152 0.0840 -0.495
-0.152 -0.504 -0.276
 0.176 0.0840  0.441
 0.155 -0.524 -0.228
-0.207 -0.504 -0.345
 0.203 -0.524 -0.447
 0.135  0.433 -0.194
 0.128 -0.524 -0.208
 0.176  0.309 0.0548
 0.176  0.454 -0.249
 0.231 0.0840 -0.140
 0.122 0.0712 0.0507
-0.0565  0.104 0.0722
-0.0770 0.0840 -0.276
0.0597 0.0840  0.598
0.0528  0.104  0.550
-0.0907 -0.524 -0.269
-0.0223  0.104  0.305
0.0665  0.330 0.0548
 0.265 0.0840 0.0244
-0.0496 -0.123 -0.351
0.0529 0.0840 -0.358
-0.118 -0.504 -0.00290
0.0324  0.433  0.626
-0.371 -0.0614  0.106
-0.0565 0.0840 -0.461
-0.00864  0.433  0.510
 0.286 -0.0801 0.0534
-0.104  0.104 0.0381
 0.210  0.104 0.0996
 0.101  0.104 0.0996
0.00501 -0.524 -0.310
-0.261  0.104  0.147
 0.210 0.0840  0.147
 0.101  0.104 -0.399
 0.149 -0.504 -0.420
-0.159 0.0840  0.544
-0.125 0.0840  0.448
-0.234 0.0840 -0.372
-0.214 -0.144 -0.167
-0.289 -0.0410  0.270
-0.248 0.0840  0.407
-0.316 -0.144 -0.420
-0.186 -0.144 -0.379
-0.159 0.0840 -0.0575
-0.166 -0.144 -0.495
-0.350 -0.0410  0.557
 0.278  0.433  0.387
0.0938 0.0840 0.0176
 0.271 0.0840 -0.00973
0.0534 -0.0403  0.685
 0.163  0.526  0.674
0.0452  0.536  0.671
-0.104 0.0627 0.0739
 0.278 0.0840  0.175
 0.265 -0.0399 0.0516
-0.243  0.211 -0.543
0.00501  0.398 0.0755
 0.286 -0.264 0.0775
-0.330 -0.164 -0.498
-0.305 -0.647 -0.543
 0.128 -0.144 0.0244
-0.0565 -0.123 -0.269
 0.278 0.0840  0.530
 0.286 -0.541 0.0121
0.0597 -0.0527 0.0783
-0.00366  0.440  0.686
-0.191 -0.0605  0.455
 0.189  0.454 -0.112
0.0296  0.489  0.674
-0.173 -0.0459  0.660
 0.176 -0.125 -0.531
 0.114 -0.0577 0.0517
-0.234 -0.0346 0.0722
 0.244 -0.524 0.00392
 0.280 -0.517 -0.548
 0.298  0.454 -0.160
-0.326  0.127  0.664
-0.220 -0.0614  0.311
-0.111 -0.522 0.0530
-0.214 -0.0410  0.223
 0.282 -0.647 0.0750
0.0597 0.0840  0.653
-0.138 0.0840 -0.447
-0.173  0.104  0.257
 0.135  0.104 -0.399
-0.322 -0.408  0.686
-0.0360 0.0840  0.639
-0.0253  0.454  0.380
-0.145 0.0840 -0.372
 0.217 0.0840 -0.0302
-0.241  0.104 -0.0917
-0.179 0.0840 -0.0986
-0.0770  0.104  0.202
-0.0155 0.0840 -0.351
-0.275  0.104 0.0312
-0.302 0.0840 0.0791
-0.227 -0.144 -0.420
-0.227 -0.144 -0.515
 0.128  0.145 0.0548
-0.275  0.104  0.106
-0.227 -0.0410  0.639
-0.419 -0.0614  0.482
0.0597 -0.144 -0.0986
-0.179 0.0840  0.571
 0.251  0.433 -0.447
 0.101 0.0840  0.195
-0.138  0.104 -0.0780
-0.268  0.104  0.400
 0.258  0.104  0.359
-0.214  0.104  0.626
 0.155 0.0840 -0.0302
-0.200 0.0840 -0.0644
 0.183 0.0840  0.250
-0.104  0.104 -0.413
0.0938 0.0840 -0.351
-0.261  0.104 -0.461
 0.128 0.0840  0.469
-0.132 0.0840  0.510
 0.237  0.104 -0.365
-0.0975 0.0840  0.428
 0.237 0.0840 -0.481
-0.132 0.0840 -0.249
0.0597  0.104 -0.0302
-0.0155  0.454  0.633
-0.234 -0.144 -0.0234
-0.296 -0.123 -0.0439
 0.237 -0.144 -0.00290
0.0255 -0.144 -0.215
0.0255 -0.144 -0.0712
0.0187 -0.144 -0.276
-0.173 -0.123 -0.454
 0.244 -0.144 -0.290
0.0460  0.214 0.0752
 0.108 -0.144 -0.276
 0.176 -0.144 -0.0507
 0.292  0.173 0.0548
 0.108  0.180 0.0548
 0.176 -0.144 -0.181
 0.196 -0.144 -0.304
 0.155 -0.144 -0.263
-0.419 -0.0614  0.516
-0.419 -0.0614  0.195
-0.343 -0.0614  0.510
-0.330 -0.0410  0.633
-0.261 -0.123 -0.474
-0.302 -0.123 -0.481
0.0938 0.0840 -0.0302
-0.0633 0.0840 -0.351
0.00502 0.0840 -0.461
0.00502 -0.123 -0.509
0.0938 0.0840  0.407
 0.217  0.433  0.421
 0.271  0.454  0.592
 0.183  0.454  0.168
 0.237  0.433 -0.0507
 0.224  0.454 -0.358
-0.173 -0.524 -0.454
 0.128 -0.504 -0.495
-0.111 -0.504 -0.440
-0.111 -0.504 -0.399
 0.142  0.104  0.346
 0.121  0.104 -0.310
0.0802 -0.504 -0.502
 0.128  0.433 0.0313
-0.0975 -0.524 -0.0780
0.00502  0.433 -0.372
-0.0633 -0.524 -0.365
 0.305 -0.135 -0.406
 0.176  0.454 0.0859
-0.0702 -0.524 -0.0370
0.0529  0.433 -0.105
0.0118  0.454 -0.351
-0.234 -0.504 0.0108
0.0665 -0.524 -0.447
-0.0428 -0.524 -0.242
0.0255  0.104 -0.201
 0.265  0.454  0.537
 0.169  0.433  0.571
0.0392  0.454 -0.0507
 0.176  0.454 -0.283
 0.135  0.454 -0.283
 0.176  0.454  0.250
-0.275 -0.524 -0.406
 0.114 -0.504 -0.0370
-0.138 -0.524 -0.304
 0.155  0.454 -0.392
 0.183 -0.524 -0.399
 0.224 -0.504 -0.208
 0.251 -0.524 -0.433
 0.190 -0.504 -0.249
-0.118 -0.524 -0.228
 0.237 -0.524 -0.502
-0.255 -0.504 -0.0712
-0.296 0.0840 -0.399
 0.231 0.0840 -0.406
 0.210  0.104 -0.454
-0.159 0.0840  0.482
-0.00864 -0.504 -0.481
-0.00182 -0.144 -0.242
0.0187  0.433  0.311
0.0528  0.454  0.633
0.0460  0.433  0.564
0.0529 -0.504 -0.133
0.0119 -0.504 -0.420
 0.271 -0.123 -0.194
0.0870  0.391 0.0548
-0.0360 -0.504 -0.194
-0.405 -0.0410  0.414
-0.337 -0.0410  0.366
-0.138 -0.524 -0.0370
-0.104 -0.524 -0.379
 0.108  0.454  0.571
 0.210  0.454  0.223
-0.207 0.0840  0.407
-0.289 0.0840  0.564
-0.200  0.230  0.685
 0.258  0.104 0.0448
