ply
format ascii 1.0
element vertex 2048
property float x
property float y
property float z
end_header
 0.100 0.0140 -0.0796
-0.0618 -0.0134  0.997
 0.253 0.00633 -0.641
-0.0874 -0.0134  0.442
-0.115 -0.00491 -0.439
-0.260 0.000561 0.0853
 0.138 0.0121  0.229
 0.166 -0.0124 -0.362
-0.0157 0.0181  0.718
-0.132 0.00314 -0.111
-0.0392 0.0180 0.0958
0.0643 -0.0151 -0.549
-0.0122 -0.0152 -0.269
-0.0324 -0.0152  0.271
 0.204 -0.0146 0.0607
-0.128 -0.0151  0.840
-0.209 -0.0125  0.245
-0.0157 0.0181  0.570
 0.208 0.0141 -0.500
0.0283 -0.0152 -0.408
 0.117 -0.00716 -0.217
-0.0234 -0.0152 -0.0347
-0.0605 0.00933 -0.553
-0.162 0.0142 0.00927
 0.218 0.0128 -0.0554
-0.0189 0.0185 -0.149
0.0917 -0.0117 0.0327
-0.0957 0.0108 -0.333
0.0811 -0.0143  0.314
-0.0189 0.0183  0.370
-0.0841 -0.0152  0.647
0.0778 0.0137 -0.316
-0.0841 0.0183  0.188
 0.121 -0.0152 -0.460
 0.134 -0.0152  0.132
-0.0618 0.0127  0.899
 0.178 -0.0130 -0.584
-0.0827 -0.00941 -0.210
0.00350 0.0144 -0.489
-0.0927 0.0119  0.764
-0.0874 -0.0134  0.532
-0.0157 0.0131  0.483
-0.248 0.00652  0.171
0.0598 -0.0152 -0.154
-0.0841 -0.0152 0.0283
-0.242 -0.0104 0.00276
-0.0871 -0.0146  0.335
-0.193 -0.0130 -0.0622
-0.0460 0.0142 -0.404
 0.154 -0.0152 -0.0167
0.00134 0.0140 -0.341
 0.137 -0.0147 -0.142
-0.0155 -0.0146  0.179
0.0485 0.0140 -0.0234
 0.199 -0.0124 -0.430
-0.106 0.0122 -0.0415
0.0980 0.0145 -0.388
0.0508 0.0137 -0.244
-0.0157 0.00858  0.642
0.0260 -0.0152 -0.0909
 0.242 0.0127 -0.566
 0.125 0.0141 -0.527
-0.0641 0.0127  0.829
-0.0150 0.0172 0.0260
-0.0640 -0.0152 -0.109
-0.197 -0.0152 0.0620
-0.0595 -0.0152 -0.478
0.00801 -0.0152 -0.201
-0.122 -0.0147  0.908
-0.0871 -0.0146  0.130
-0.0772 -0.0151 -0.275
-0.0336 -0.0139  0.774
 0.145 0.0140 0.0576
-0.0840 0.0183  0.253
 0.123 -0.0150 -0.280
-0.000916 -0.0152 -0.545
0.0665 0.0145 -0.482
 0.156 -0.0152 -0.0819
-0.0189 -0.0152  0.426
-0.0706 -0.0152  0.712
-0.0730 0.0185  0.595
 0.186 0.0144  0.114
-0.0239 0.0123  0.955
-0.214 -0.0146  0.124
 0.204 0.0137 0.00585
-0.0801 0.0183 -0.156
 0.165 0.0143  0.174
-0.0868 0.0180  0.384
-0.0954 -0.0152 -0.386
-0.0302 0.0183  0.224
 0.150 0.0137 -0.413
0.0980 -0.0152 -0.0234
-0.0460 -0.0152 -0.332
-0.0167 -0.0152 -0.442
-0.0984 0.0120  0.951
-0.0347 0.0145 -0.224
-0.0616 0.0183 -0.00991
 0.109 0.0141  0.275
-0.0154 -0.0116  0.323
-0.0279 -0.0152  0.528
0.0283 0.0141 -0.293
-0.0936 0.0140 -0.508
 0.168 0.0137 -0.464
-0.0189 0.0137 -0.0886
-0.0820 0.0183  0.489
 0.114 -0.0152 -0.343
0.0508 0.0140 -0.363
0.0733 -0.0152 -0.437
-0.0874 0.00633 0.0756
-0.0505 0.0180  0.148
 0.168 -0.0152 -0.527
-0.0639 0.0185  0.300
 0.105 0.0140 -0.170
-0.0151 -0.0134  0.127
-0.203 0.0140 -0.0212
-0.0600 0.00991 -0.0602
-0.0460 -0.0152 -0.174
 0.226 -0.0152 -0.604
-0.140 -0.0152 -0.0639
0.0643 -0.0152 -0.0594
-0.0279 -0.0152 0.0598
0.0260 0.0145 -0.446
0.0575 0.0140 -0.192
-0.0324 -0.0152  0.683
-0.0324 -0.0152  0.604
-0.0999 0.0126  0.867
-0.233 0.0140 0.0485
-0.0527 0.0180  0.422
-0.0730 0.0185  0.678
-0.0505 -0.0152  0.381
-0.0932 -0.0152  0.804
-0.0617 -0.0152  0.213
-0.0617 -0.0152  0.937
 0.134 -0.0151 -0.563
-0.0392 0.0141 -0.296
-0.0144 -0.0152 -0.386
 0.120 -0.0144 0.0873
0.0238 0.0137 -0.131
-0.0706 -0.0152 -0.430
0.0868 0.0137 -0.127
 0.213 -0.0152 -0.538
0.0125 0.0140 -0.0526
 0.172 0.0137 -0.0482
0.0913 -0.0152 -0.511
0.0373 -0.0152 -0.502
 0.123 0.0140 0.0104
-0.224 0.0142  0.210
-0.0369 0.0140 -0.514
0.0440 -0.0152 -0.325
 0.138 0.0134 -0.318
-0.0550 -0.0152  0.476
-0.0595 -0.0152  0.568
0.0800 -0.0152 -0.262
 0.168 -0.0152 0.0260
-0.194 -0.0152 0.0149
-0.0595 0.0183  0.345
-0.145 -0.0152 -0.0189
-0.0932 0.0142 -0.0931
 0.116 -0.0152 -0.415
 0.138 -0.0152  0.195
-0.258 -0.00697  0.131
 0.129 0.0142 -0.0369
-0.0572 0.0183  0.636
-0.0572 0.0180 0.0350
-0.102 -0.0152 -0.140
0.00584 0.0137 -0.237
 0.141 0.0137 -0.109
-0.0550 0.0180  0.746
 0.177 -0.0150  0.143
-0.0841 -0.0152  0.285
0.0304 0.0128 -0.550
 0.215 -0.0145 -0.469
-0.165 0.0140 -0.0459
-0.0234 -0.0152 -0.125
-0.0550 -0.0152 -0.374
-0.00317 0.0140 -0.415
-0.102 -0.0152 -0.478
 0.170 -0.0152 0.0891
0.00359 -0.0152 -0.158
-0.0324 -0.0152 0.00585
-0.0527 0.0180  0.528
0.0643 -0.0152 -0.107
 0.147 -0.0152 -0.491
-0.206 0.0145 0.0888
 0.204 -0.0152 -0.0234
-0.0595 -0.0152  0.170
 0.109 0.0140 -0.489
-0.0774 -0.0152 -0.0324
0.0305 -0.0152 -0.264
 0.136 0.0140 -0.374
-0.0707 -0.0152  0.863
0.0778 -0.0152 -0.219
-0.0122 -0.0152 -0.309
-0.0234 0.0183  0.291
 0.165 0.0144 -0.554
0.0800 0.0137 0.00134
-0.0867 0.0180  0.557
-0.0775 0.0141 -0.458
0.0778 -0.0152 -0.365
-0.0231 -0.0141  0.985
0.0620 0.0144 -0.523
 0.141 0.0142  0.105
-0.0572 -0.0152 -0.239
0.0643 0.0142 -0.408
 0.114 0.0142 -0.255
 0.103 0.0140 -0.437
-0.0324 0.0142 -0.462
-0.0347 0.0140 -0.359
 0.116 -0.0152 -0.0999
-0.0572 -0.0152  0.105
-0.116 0.0123 -0.404
0.0215 0.0140 -0.176
 0.184 0.00408 -0.398
-0.0156 0.0184 -0.0174
0.0982 0.0140 -0.555
-0.0257 -0.0152  0.735
 0.192 -0.0152 -0.0684
-0.0167 0.0169 -0.188
-0.158 0.0143 -0.0836
 0.208 0.0142 -0.583
 0.116 -0.0152 -0.0571
-0.0729 0.0183  0.114
-0.0122 -0.0152 -0.507
 0.121 -0.0150  0.249
-0.0773 -0.0152 -0.529
0.0553 0.0140 -0.0841
 0.188 0.0140 0.0418
-0.0527 0.0126  0.793
-0.0460 0.0183  0.260
0.0845 0.0137 -0.0437
-0.0841 -0.0152  0.402
-0.0871 -0.0146  0.609
-0.108 0.0126  0.826
0.00801 0.0141 -0.379
-0.186 0.0142 0.0416
-0.0157 0.0181  0.680
 0.108 0.00876 0.0596
-0.0157 0.0181  0.410
-0.104 -0.0152 -0.0729
-0.0505 -0.0152  0.312
-0.0774 0.0142 -0.298
-0.0751 0.0144 -0.365
0.0125 -0.0152 -0.469
-0.218 0.0140  0.147
-0.0151 -0.0134  0.235
0.0283 -0.0152 -0.363
-0.0873 0.0171  0.717
-0.0706 -0.0152  0.775
 0.159 -0.0152 -0.444
-0.0256 0.0187 -0.0524
-0.0437 0.0183  0.460
-0.0170 0.0188 0.0666
-0.0841 -0.0152 -0.172
-0.0527 0.0145 -0.262
 0.159 0.0140 0.00585
0.0418 -0.0152 -0.215
 0.165 0.0142 -0.502
-0.00542 -0.0152 -0.0661
-0.0841 -0.0152  0.905
-0.256 -0.0136 0.0511
0.0935 0.0140 -0.350
-0.0154 0.0153  0.159
 0.177 0.0144 -0.0842
 0.188 -0.0152 -0.496
-0.0593 0.0164 -0.198
-0.183 -0.0152 -0.0279
-0.226 -0.0152  0.188
-0.237 0.0140  0.109
0.00125 0.0141 -0.525
0.0665 0.0140 -0.282
-0.0640 -0.0152 0.0576
0.0913 -0.0152 -0.300
 0.100 -0.0152 -0.143
-0.0157 0.0181  0.529
-0.0871 -0.0146  0.240
-0.226 -0.0130 -0.0288
-0.0369 -0.0152 -0.543
-0.0189 0.0180  0.609
 0.192 0.0142 -0.532
 0.154 0.0142  0.141
-0.0523 0.0126  0.976
0.0868 -0.0152 -0.185
-0.0157 0.0131  0.753
-0.0167 -0.0152 -0.226
 0.233 0.0101 -0.526
-0.0482 -0.0152  0.638
-0.0775 0.0185  0.451
-0.0414 -0.0152  0.345
-0.224 -0.0152 0.0846
0.0305 -0.0152 -0.0482
-0.0841 0.0145 -0.419
0.0800 -0.0152 -0.471
0.0935 0.0137 -0.203
-0.0369 0.0180  0.190
-0.0212 -0.0152 0.0935
 0.199 0.0131 0.0804
 0.109 0.0140 -0.298
-0.109 0.0110 -0.368
-0.0212 -0.0152  0.564
-0.0550 0.0139 -0.125
 0.208 -0.0152 0.0238
 0.125 -0.0152 0.0395
-0.0860 -0.0150  0.496
-0.0369 -0.0152 -0.0864
-0.0234 0.0185  0.336
0.0620 -0.0152 -0.0122
-0.0796 -0.0152 -0.318
 0.199 0.0141 -0.451
-0.0168 -0.0150  0.386
-0.0684 -0.0152  0.678
0.0800 -0.0152 -0.399
-0.0505 0.0180  0.388
-0.0527 -0.0152  0.415
 0.121 -0.0152 -0.381
-0.102 0.0126  0.912
-0.130 -0.00267  0.872
-0.0640 -0.0152 -0.145
-0.0189 -0.0152 -0.352
-0.0437 0.0183  0.699
-0.0786 0.0108 -0.239
-0.0873 0.0171 0.0193
 0.227 -0.0138 -0.503
-0.00767 0.0140 -0.284
-0.219 -0.0152 0.0373
0.0845 0.0140 -0.239
 0.112 -0.0152 -0.538
-0.0774 -0.0152  0.966
-0.0871 -0.0146  0.191
 0.124 -0.0117 -0.176
 0.152 -0.0152 -0.397
-0.0751 0.0183  0.222
 0.133 0.0126  0.165
 0.123 0.0142 -0.138
 0.148 -0.0139 -0.333
0.0103 -0.0152 -0.125
0.0575 -0.0152 -0.293
-0.0279 -0.0152  0.494
-0.0572 0.0180 0.0688
-0.208 0.0142 0.0149
 0.134 0.0141 -0.458
-0.0868 0.0180  0.323
-0.0999 0.0137 -0.125
-0.0189 0.0185  0.125
0.0418 -0.0152 -0.444
 0.125 -0.0152 -0.00316
-0.110 0.0139 -0.466
-0.0662 0.0141 -0.489
-0.0527 0.0140 -0.437
-0.0873 0.0171  0.521
-0.0473 0.0120  0.928
 0.150 -0.0152 -0.0482
0.0463 0.0140 -0.154
-0.0574 -0.0130  0.811
0.0283 0.0137 -0.215
-0.0505 0.0142 -0.0931
-0.0482 0.0183  0.496
0.0305 0.0145 -0.511
-0.228 -0.0152  0.154
 0.228 -0.0152 -0.572
0.0575 0.0141 -0.444
-0.0257 0.0140 -0.547
0.0125 0.0140 -0.0864
-0.0819 -0.0152 -0.350
-0.0684 -0.0152  0.744
0.0800 -0.0152 -0.334
-0.129 0.0140 -0.0706
-0.0857 0.0181  0.415
-0.0154 0.00859  0.258
-0.0841 -0.0152  0.370
-0.0482 -0.0152 -0.511
-0.0999 -0.0152  0.932
 0.188 0.0137 -0.0212
 0.152 -0.0152 -0.113
 0.152 0.0142 -0.347
-0.0640 0.0140 -0.336
-0.0482 -0.0152  0.244
-0.0550 -0.0152  0.512
-0.0617 -0.0152 -0.00541
0.0103 -0.0152 -0.334
0.0894 0.0136  0.303
 0.100 -0.0124  0.290
-0.0157 -0.00493  0.456
-0.248 0.0138 0.0216
 0.242 0.0137 -0.613
-0.0437 -0.0152 -0.287
-0.115 0.0119  0.796
-0.0460 0.0180  0.564
-0.0874 -0.00716  0.579
-0.0874 0.0153  0.141
-0.134 0.0142 -0.0279
0.0350 0.0142 -0.325
-0.0234 0.0142 -0.253
-0.0662 0.0137 -0.523
0.0283 -0.0152 -0.532
-0.0347 -0.0152  0.152
 0.129 0.0140 -0.0706
0.0913 -0.0152 -0.0774
-0.0414 -0.0152 -0.421
-0.0871 -0.0146 0.0988
 0.159 -0.0152  0.170
 0.177 0.0141 -0.430
0.0148 -0.0152 -0.235
 0.179 -0.0152 -0.467
-0.104 -0.0152  0.881
 0.168 0.0140 0.0778
 0.112 -0.0152 -0.248
-0.122 -0.0152 -0.0392
-0.0932 -0.0152  0.843
0.0373 0.0142 -0.390
-0.0437 0.0183  0.663
-0.0505 -0.0152 0.0305
-0.210 0.0101 -0.0529
0.0170 -0.0152 -0.291
-0.219 0.0127  0.179
-0.0167 -0.0152 -0.181
-0.0505 -0.0152 -0.210
-0.0324 -0.0152  0.206
-0.0896 0.0131 -0.184
 0.127 -0.0152 -0.311
-0.0189 -0.0152 -0.478
 0.218 0.0126 -0.0215
-0.0437 0.0137 -0.165
-0.0154 -0.0116 0.0328
-0.0144 0.0144 -0.118
 0.154 0.0132  0.201
 0.172 -0.0152 0.0553
0.0553 -0.0152 -0.183
0.0238 0.0137 -0.264
-0.0841 0.0183 0.0485
 0.121 -0.0152 -0.509
-0.0437 0.0180  0.593
-0.00542 -0.0152 -0.0954
-0.0871 -0.0146  0.160
-0.0796 0.0126  0.804
 0.134 0.0140 -0.564
-0.0347 0.0137 -0.329
-0.163 -0.0149 0.0101
 0.189 -0.0146  0.114
-0.0874 0.0131  0.654
-0.111 -0.0152 -0.413
-0.0751 0.0183 -0.0369
 0.116 0.0141 -0.410
 0.147 -0.0152 0.0711
-0.244 -0.0152  0.105
-0.0718 -0.00264 -0.0844
-0.0122 0.0142 -0.442
 0.143 0.0145 -0.485
 0.109 0.0140 -0.107
0.0373 -0.0152 -0.134
0.0530 -0.0152 -0.390
-0.0168 -0.0150  0.658
-0.0704 0.0126  0.946
-0.221 -0.0152  0.219
0.0666 0.0139 -0.551
-0.00317 -0.0152 -0.417
-0.0874 0.00408 -0.0144
0.0665 -0.0152 -0.498
 0.105 0.0137 -0.0234
 0.119 0.0137 0.0865
-0.0369 0.0180 0.00360
-0.0707 0.0126  0.858
-0.234 0.0107 -0.0142
-0.0170 0.0183  0.440
0.0845 -0.0152 0.00585
 0.169 0.0142 -0.370
-0.167 -0.0152 -0.0729
-0.0857 0.0181  0.620
-0.0482 -0.0152 -0.0571
0.0980 0.0140 0.0238
 0.161 -0.0152 -0.554
0.0485 -0.0152 -0.471
 0.138 -0.0152 -0.532
-0.0279 -0.0152  0.957
-0.172 0.0137 -0.0167
 0.251 -0.0117 -0.620
 0.140 -0.0149  0.224
-0.111 -0.0152 -0.113
-0.0157 -0.00940  0.359
-0.0189 -0.0152  0.629
 0.190 -0.0152 -0.554
0.0440 0.0140 -0.0504
-0.00317 0.0141 -0.314
 0.121 0.0126 -0.192
0.00317 0.0127 -0.553
-0.125 0.0126  0.847
-0.0926 -0.0151 -0.507
-0.0865 0.0140 -0.390
-0.211 0.0142  0.240
-0.0839 0.00858  0.978
0.0373 0.0144 -0.421
 0.120 0.0137 -0.338
-0.0819 -0.0152 -0.455
-0.0392 -0.0152  0.447
0.0485 0.0140 -0.120
-0.0347 -0.0152 -0.149
-0.0369 -0.0152 -0.257
-0.0527 -0.0152  0.132
0.0890 0.0140 -0.520
0.0395 0.0141 -0.480
-0.0482 0.0180 -0.0347
-0.0157 -0.00940  0.296
 0.217 0.0142 -0.547
-0.0550 -0.0152  0.539
0.0125 -0.0152 -0.386
-0.0154 0.00857  0.204
-0.0368 0.0126  0.771
-0.0874 -0.000417  0.696
-0.0505 -0.0152  0.973
-0.0962 -0.0147  0.767
 0.238 -0.00940 -0.548
-0.0874 -0.00492  0.309
-0.0874 0.0108  0.280
 0.121 0.0143  0.249
-0.184 0.0116 -0.0670
 0.196 -0.0149 0.0867
-0.0874 -0.000417  0.471
 0.182 0.0140 -0.585
 0.220 -0.0136 -0.0537
-0.0282 0.0112  0.990
-0.131 -0.0152 -0.0886
-0.0925 0.0139 -0.0669
0.00576 0.0141 -0.201
 0.132 0.0142 0.0350
 0.172 -0.0152 -0.421
0.0508 -0.0152 -0.0819
 0.163 -0.0152  0.118
0.0733 0.0137 -0.377
0.0643 0.0137 -0.221
 0.152 0.0137 -0.525
 0.213 0.0144 -0.473
0.0910 -0.0119 -0.554
-0.116 -0.0152  0.818
 0.202 -0.00716 -0.598
-0.0633 -0.0146  0.890
 0.247 -0.00717 -0.591
0.00801 0.0141 -0.152
-0.0392 0.0140 -0.487
-0.0684 -0.0152  0.264
-0.163 -0.0152 -0.0437
 0.103 0.0142 -0.464
0.0485 -0.0152 -0.239
 0.152 0.0140 -0.0189
0.0800 0.0140 -0.0954
0.0913 -0.0152 -0.0504
0.0710 0.0142 -0.147
 0.188 0.0142 -0.480
-0.246 0.0142  0.139
 0.138 -0.0152 -0.363
 0.180 0.0123  0.142
-0.0595 -0.0152 -0.404
-0.0617 -0.0152  0.611
-0.0682 0.0126  0.771
-0.256 0.0138 0.0576
0.00484 -0.0134 -0.0431
-0.179 -0.0129 0.0350
0.0328 -0.0152 -0.158
 0.150 -0.0152 0.00810
-0.0616 0.0183  0.177
 0.190 0.0145 -0.559
0.0980 -0.0152 -0.449
-0.213 0.0121  0.115
0.0912 0.0137 -0.415
0.0396 -0.0152 -0.0235
-0.0527 -0.0152 0.0801
 0.197 -0.0152 0.00134
-0.0841 -0.0152 -0.408
-0.0874 0.00408  0.354
 0.131 0.0139  0.132
-0.125 0.0108  0.902
-0.233 -0.0152 0.0598
-0.0791 0.0108 -0.273
-0.108 -0.0134 -0.363
-0.0871 -0.0146 0.00210
-0.210 -0.0152 -0.00991
 0.111 0.0140 -0.230
0.0103 -0.0152 -0.444
-0.0437 -0.0152 -0.446
0.0913 0.0140 -0.280
 0.143 -0.0152 0.0958
-0.0157 0.00183  0.699
-0.0505 -0.0152 -0.0324
0.0125 -0.0152 -0.509
 0.132 0.00882  0.190
-0.105 0.0127 -0.149
-0.0613 -0.0151 -0.549
0.0553 -0.0152 -0.264
 0.159 0.0140 0.0305
-0.0874 -0.00267  0.217
-0.0151 0.0153  0.100
-0.0794 0.0143 -0.215
-0.0909 0.0126  0.845
-0.0558 -0.00700  0.912
-0.112 -0.0109  0.788
-0.0437 0.0180  0.323
 0.183 -0.0152 -0.0369
0.0350 0.0137 -0.0999
 0.107 -0.0152 -0.489
-0.0157 0.00183  0.591
0.0710 -0.0152 -0.525
0.0958 -0.0152 -0.113
 0.198 0.00858 -0.0690
 0.233 0.0142 -0.590
-0.0617 -0.0152  0.438
-0.0527 0.0180  0.233
 0.218 0.0114 -0.610
0.0170 0.0144 -0.469
0.0305 -0.0152 -0.192
0.0935 -0.0152 -0.424
-0.120 0.0140 -0.0931
-0.0572 -0.0152 -0.309
-0.0482 -0.0152  0.721
0.0598 0.0137 -0.341
-0.0774 0.0142 -0.116
 0.197 0.0142 -0.0437
-0.0444 -0.00473 -0.564
-0.0925 -0.00566 -0.0502
-0.0158 -0.0124  0.758
-0.0706 -0.0152  0.831
0.0305 0.0137 -0.0706
-0.0617 0.0185  0.714
-0.0302 0.0140 -0.386
-0.0550 0.0142 -0.314
-0.0841 0.0126  0.885
-0.0157 -0.000402  0.546
0.0508 0.0137 -0.307
-0.0874 0.00858  0.166
 0.150 0.0141 -0.439
 0.103 0.0142 -0.323
-0.0662 0.0185  0.370
-0.250 -0.0141 0.0279
-0.0819 -0.0152 -0.125
-0.0662 -0.0152 -0.192
 0.177 -0.0150 -0.386
-0.0662 0.0188  0.273
-0.0154 -0.000408  0.507
-0.190 0.0140 -0.0414
 0.127 -0.00698  0.111
-0.0151 -0.0134 -0.00991
 0.170 -0.0152 -0.0616
 0.107 0.0137 -0.0504
-0.0874 -0.00716  0.732
-0.0572 0.0145 -0.230
-0.242 0.0141 0.0801
-0.0871 -0.0146 0.0606
-0.0671 0.0157 -0.176
 0.106 -0.0143 0.0570
 0.163 0.00183 -0.102
 0.114 0.0140 -0.361
0.0193 0.0140 -0.359
-0.0369 0.0180 0.0463
-0.0932 -0.0152 -0.0931
 0.147 -0.0152 -0.464
0.0710 -0.0152 -0.134
0.0733 -0.0152 -0.0324
0.0620 -0.0152 -0.417
0.0980 0.0142 -0.147
0.0733 0.0140 -0.260
 0.134 -0.0152 -0.0279
 0.174 -0.0152 -0.00541
-0.0437 -0.0152  0.663
 0.113 -0.00286 -0.559
0.0463 0.0137 -0.271
-0.0479 0.0126  0.953
 0.129 0.00640 -0.163
 0.123 0.0108 -0.276
-0.0437 0.0180  0.366
-0.0685 0.0183  0.573
0.00359 -0.0152 -0.356
-0.0640 -0.0152  0.350
 0.168 0.0140 0.0531
 0.138 -0.0152  0.154
-0.149 0.0144 -0.00991
-0.0873 0.0171 0.0958
-0.0369 -0.0152  0.582
-0.0505 0.00633  0.999
-0.0841 -0.0152  0.555
-0.111 0.0145 -0.428
0.0265 0.00182 -0.0312
-0.239 0.0142  0.190
-0.260 0.0135  0.106
-0.0954 -0.0152 -0.435
-0.185 0.0140 0.0126
0.0687 0.0140 -0.170
 0.163 0.0140 -0.392
-0.0550 0.0140 -0.460
 0.190 -0.0152 -0.525
-0.0154 0.0108  0.181
-0.0782 -0.0136 -0.253
-0.0774 0.0188  0.744
 0.160 0.00708 -0.575
-0.0527 0.0140 -0.372
 0.147 -0.0152 0.0485
-0.0302 0.0183  0.510
0.0530 -0.0152 -0.368
 0.100 -0.0152 -0.361
-0.0874 -0.00716  0.669
0.0868 -0.0152 -0.161
 0.141 -0.0152 -0.430
-0.0347 0.0185  0.541
-0.0279 0.0141 -0.417
-0.0369 -0.0152 -0.491
-0.0550 -0.0152  0.282
-0.111 0.00427  0.933
0.0665 0.0137 -0.0571
-0.00992 0.0138 -0.365
-0.215 0.0142 0.0621
-0.00542 0.0137 -0.0661
-0.0701 0.0126  0.924
 0.206 -0.0152 -0.572
 0.109 -0.0152 0.0193
-0.0706 -0.0152 -0.502
-0.0685 0.0185  0.543
0.0446 -0.00437 -0.550
 0.209 0.00409 0.0348
-0.237 -0.0152  0.130
-0.00767 -0.0152 -0.246
-0.244 -0.0152  0.170
-0.0324 -0.0152  0.402
0.0350 -0.0152 -0.111
 0.100 -0.0152 -0.280
 0.127 -0.0152 -0.122
 0.163 0.0137  0.121
-0.0482 0.0180  0.116
 0.134 0.0145 -0.505
-0.103 0.00408 -0.489
0.00125 0.0140 -0.264
-0.0154 0.0153  0.316
 0.158 -0.00643  0.190
-0.0157 0.00183 0.0104
-0.209 -0.0146  0.102
0.0596 0.00859 -0.00533
-0.0155 -0.0146  0.476
-0.0399 -0.0145  0.938
0.0192 -0.00942 -0.551
-0.0706 -0.0152  0.321
-0.0347 0.0181 -0.131
-0.0157 0.00858  0.390
-0.106 0.0126  0.889
-0.0155 -0.0146  0.258
-0.0868 0.0180  0.301
-0.0143 0.000334 -0.0500
-0.0962 -0.0117  0.954
-0.0874 -0.00492  0.264
-0.0965 0.00183 -0.167
-0.0157 -0.00491 0.0756
0.0778 0.0142 -0.0234
-0.0234 -0.0152 -0.206
-0.0279 -0.0152 -0.0639
-0.0144 0.0145 -0.217
 0.123 -0.0152 -0.0774
0.0935 -0.0152 -0.381
0.0238 -0.0152 -0.311
0.0733 -0.0152 -0.314
-0.127 0.00184  0.825
-0.0684 0.0137 -0.401
 0.115 -0.00417  0.267
0.00801 -0.0152 -0.262
-0.0684 -0.0152  0.631
-0.0960 -0.0144 -0.334
-0.0155 -0.0146  0.712
-0.0684 -0.0152  0.458
-0.0685 -0.00942 -0.0543
-0.0685 0.0185  0.399
0.0508 0.0142 -0.505
-0.0707 0.0185  0.471
-0.0460 0.0180  0.618
-0.0572 0.0142 -0.284
-0.0189 -0.0152 -0.532
-0.0392 -0.0152 -0.228
0.0890 -0.0152 -0.237
 0.177 0.0141 0.0171
 0.165 -0.0152 -0.502
 0.205 0.00633 0.0572
0.0733 0.0144 -0.505
-0.0437 -0.0152  0.188
 0.105 0.0137 -0.000907
-0.0347 0.0140 -0.273
-0.000916 -0.0152 -0.489
 0.190 -0.0152 -0.449
-0.0460 0.0180  0.289
 0.130 -0.0152 -0.480
-0.0572 -0.0152 -0.350
 0.129 0.00483 -0.295
-0.154 -0.00585 -0.0890
-0.254 -0.000416  0.152
-0.0874 0.00858  0.435
 0.176 -0.00701 -0.0877
-0.111 -0.0151 -0.457
 0.189 -0.0146 -0.406
-0.222 0.0116 -0.0356
-0.0237 -0.00942 -0.558
-0.0347 0.0137 -0.0706
 0.221 -0.00267 -0.485
-0.0685 0.0180 0.0104
 0.156 0.0137 -0.0796
-0.0189 0.0142 -0.482
-0.0392 -0.0152 -0.361
-0.109 -0.0152  0.856
 0.192 -0.0152 0.0373
-0.0751 -0.0152 -0.381
-0.0437 -0.0152 -0.120
-0.103 0.00183 -0.350
-0.0302 0.0183  0.246
0.0238 -0.0152 -0.487
 0.136 0.0140 -0.00541
0.0170 0.0145 -0.426
-0.0324 0.0180  0.741
0.0395 0.0141 -0.345
 0.129 0.0140 -0.435
-0.00767 -0.0152 -0.138
-0.0279 -0.0152 -0.406
-0.0392 0.0137 -0.203
0.0238 -0.0152 -0.428
-0.0706 -0.0152  0.386
 0.136 -0.0152 -0.410
-0.113 -0.000230 -0.385
-0.230 0.0137 0.00585
-0.0874 0.00408  0.597
 0.222 0.0140 -0.568
 0.214 -0.00491 0.00568
-0.0347 -0.0152  0.703
-0.0729 -0.0152  0.795
-0.0550 0.0180  0.442
-0.0640 -0.0152 0.0149
0.0283 -0.0152 -0.0706
-0.145 0.0140 -0.0482
-0.0234 -0.0152 -0.289
-0.0841 -0.0152  0.879
-0.0414 0.0183  0.719
-0.0841 0.0126  0.825
0.0890 0.0138 -0.487
0.0373 0.0144 -0.190
-0.0505 0.0180  0.213
 0.118 0.0140 -0.386
 0.100 -0.0152 -0.401
-0.0157 0.00183  0.141
-0.0706 -0.0152  0.148
 0.165 0.0140 0.0980
 0.194 0.00433 0.0979
0.0170 0.0140 -0.311
-0.0685 0.0183  0.134
-0.0189 0.0145 -0.527
-0.0796 -0.0152 -0.476
 0.209 -0.00527 -0.452
-0.0874 0.00183  0.507
0.0305 0.0140 -0.244
-0.0572 -0.0152 -0.260
-0.0796 -0.0152 -0.298
0.0125 0.0140 -0.107
-0.183 -0.0152 -0.00766
-0.119 0.00708 -0.128
-0.0874 0.00633  0.237
 0.174 0.0141 -0.520
 0.141 0.0144 -0.395
-0.0324 0.0142 -0.109
-0.0369 -0.0152  0.467
-0.0369 -0.0152 -0.314
-0.0392 0.0180 0.0260
 0.134 -0.0146  0.175
 0.100 -0.0152 -0.318
0.0643 -0.0152 -0.455
 0.116 0.0142 -0.545
 0.132 -0.0152 0.0171
-0.0157 -0.000431  0.341
0.0620 0.0137 -0.104
0.0890 -0.0152 -0.534
-0.0324 -0.0152  0.372
0.0553 -0.0152 -0.0414
-0.206 0.0140 0.0395
 0.129 0.00539  0.209
0.0485 -0.0152 -0.534
 0.107 -0.0152 -0.185
-0.0729 0.0140 -0.0954
 0.232 -0.00641 -0.621
-0.0874 -0.00492  0.627
-0.0730 0.0185  0.507
0.0809 0.00427 0.0187
 0.227 0.00858 -0.507
 0.200 0.0108 -0.431
-0.217 -0.00275  0.203
-0.0874 0.0153  0.577
-0.0157 0.00407  0.226
0.0845 0.0144 -0.541
-0.128 -0.0117  0.889
-0.0154 -0.00715  0.676
-0.0797 0.0185  0.699
-0.00167 0.0183 -0.132
 0.172 0.00334  0.160
-0.172 0.00333 0.0222
-0.0667 -0.00267  0.847
-0.0170 0.0183  0.660
 0.228 -0.0152 -0.523
 0.125 0.0140 0.0666
-0.0664 0.00184  0.874
-0.195 0.0144 0.0616
-0.0460 0.0137 -0.541
-0.0732 0.00539 -0.539
-0.0257 0.0183  0.629
-0.0874 0.00633  0.399
 0.100 -0.0152 -0.212
-0.0347 0.0183  0.406
 0.177 0.0140 -0.00541
0.0508 0.0137 -0.464
0.0868 0.0142 -0.449
-0.00767 -0.0152 -0.462
-0.199 -0.0152 -0.0392
-0.0662 -0.0152  0.298
-0.0864 -0.0152 -0.152
-0.120 -0.0152 -0.0616
-0.0437 -0.0152 -0.392
-0.0640 -0.0152  0.233
-0.237 -0.00248  0.200
0.0598 -0.0152 -0.336
0.0710 -0.0152 -0.172
0.0845 0.0137 -0.0684
 0.159 -0.0149 -0.574
 0.253 -0.0148 -0.639
-0.0414 -0.0152  0.746
 0.188 0.0140 -0.415
-0.0550 -0.0152  0.701
 0.206 -0.0152 -0.487
 0.141 0.0137 0.0171
0.0733 0.0144 -0.464
-0.102 -0.0152  0.912
-0.0617 -0.0152  0.494
 0.141 -0.0152 -0.509
-0.0157 0.00182  0.276
0.0350 -0.0152 -0.284
 0.134 0.0142 -0.354
 0.138 -0.0152 -0.0886
-0.0662 -0.0152  0.188
0.0845 -0.0152 -0.491
 0.156 -0.0152  0.148
 0.118 -0.0152 -0.149
0.0868 0.0140 -0.176
 0.147 0.0137 0.0868
-0.0874 -0.00942  0.420
-0.233 0.0142  0.163
-0.0796 0.0185  0.341
-0.0662 -0.0152  0.654
-0.0751 -0.0152 -0.233
-0.0616 0.0183 -0.152
0.0125 -0.0152 -0.104
0.0710 0.0140 -0.430
-0.104 0.00333  0.777
-0.0302 -0.0152 -0.107
 0.127 0.0140 -0.0954
-0.0324 0.0183  0.139
-0.0594 0.0180  0.100
-0.0324 0.0184  0.273
-0.0392 -0.0152  0.118
-0.0874 -0.00492 0.0440
 0.147 0.00408 -0.124
-0.0909 0.0142 -0.444
-0.0751 -0.0152  0.923
-0.0874 -0.000417  0.112
-0.0451 -0.00716  0.788
 0.204 -0.0152 -0.0437
-0.0873 -0.0135  0.750
-0.0874 0.0131  0.206
-0.123 0.0126  0.881
-0.0157 -0.00940  0.408
-0.0871 0.00652 -0.317
-0.228 -0.0152 0.0149
-0.0324 0.0185  0.476
-0.0864 -0.00117 -0.521
-0.113 0.0137 -0.111
-0.0157 -0.00940  0.161
 0.134 -0.00417  0.237
0.0395 0.0137 -0.534
-0.111 0.0142 -0.0594
-0.0794 0.0126  0.905
-0.0154 -0.0116  0.213
-0.0154 -0.0117  0.611
-0.131 -0.00342 -0.0228
 0.238 0.0108 -0.548
0.0686 -0.00491 0.00376
0.00576 -0.0152 -0.316
-0.0572 -0.0152  0.955
-0.0324 -0.0152 0.0778
-0.0437 -0.0152 -0.00991
-0.0966 0.0126  0.793
0.0283 0.0137 -0.149
-0.0460 0.0180  0.166
0.0665 -0.0152 -0.244
 0.165 -0.0152 -0.0324
0.0553 0.0137 -0.381
-0.260 -0.00669  0.102
-0.0153 0.0172  0.465
 0.183 0.0141 -0.498
-0.00767 -0.0152 -0.329
0.0103 0.0140 -0.289
 0.145 -0.0152 -0.0661
 0.170 -0.0152 -0.485
-0.0157 0.00858  0.735
-0.201 -0.0152 0.0440
-0.0640 0.0137 -0.419
-0.0157 0.00410  0.422
-0.217 -0.00791 -0.0437
-0.114 0.0126 -0.446
-0.0167 0.0137 -0.170
-0.0751 -0.0152  0.519
 0.216 -0.00716 -0.0123
-0.215 0.00183  0.221
 0.120 -0.00940 -0.199
-0.0156 0.0184 0.00285
 0.150 0.0145 -0.543
-0.0189 0.0188 0.0440
0.0215 0.0142 -0.491
0.0193 0.0140 -0.334
0.0215 0.0137 -0.527
-0.0234 0.0183  0.591
0.0305 -0.0152 -0.388
-0.0527 0.0180  0.476
-0.00992 0.0140 -0.460
 0.107 0.0140 -0.129
0.0463 0.0140 -0.212
-0.0234 0.0144 -0.305
0.0395 0.0145 -0.172
 0.215 -0.0152 -0.588
-0.0414 0.0180  0.348
-0.0617 -0.0152 -0.449
-0.0279 -0.0152 -0.329
-0.0279 -0.0152 -0.516
-0.0257 -0.0152 -0.458
-0.0302 -0.0152 -0.377
 0.107 -0.0152 -0.0392
0.0553 -0.0152 -0.516
-0.0164 -0.00351  0.972
0.0733 -0.0152 -0.284
0.0148 -0.0152 -0.183
0.0440 -0.0152 -0.0616
 0.123 -0.0152 -0.433
 0.138 -0.0152 -0.383
0.0688 -0.0152 -0.0841
-0.0369 -0.0152  0.170
-0.0706 0.0183  0.649
-0.0369 0.0180 0.0778
 0.105 0.0140 -0.529
0.0982 0.00558  0.289
-0.0730 0.0185  0.431
0.0463 0.0137 -0.406
-0.254 0.0108 0.0399
 0.103 0.0140 -0.188
 0.107 0.0137 -0.507
-0.0482 -0.0152  0.363
-0.0392 -0.0152 -0.473
-0.0874 -0.000417 0.0149
-0.0751 0.0137 -0.505
 0.243 -0.00491 -0.572
-0.0819 -0.0152  0.352
-0.0167 0.0142 -0.329
 0.120 0.0140 -0.320
-0.0189 0.0144 -0.509
-0.0505 -0.0152  0.330
-0.0392 -0.0152  0.564
-0.145 -0.0152 -0.0369
-0.0640 -0.0152 -0.174
 0.121 -0.0152 -0.363
-0.0157 -0.000415 -0.0279
-0.0871 -0.0146 0.0808
-0.0774 -0.0152  0.474
-0.0324 -0.0152  0.318
 0.149 -0.00717  0.210
 0.219 -0.00717 -0.0370
-0.0932 0.0140 -0.473
-0.0482 -0.0152  0.764
-0.0874 0.00183  0.375
-0.0257 -0.0152  0.546
-0.0814 0.0126  0.960
 0.150 0.0137  0.184
0.0492 -0.00267 -0.0153
-0.188 -0.00191 0.0488
-0.140 0.0142 -0.0864
-0.0661 0.0127  0.993
-0.0796 0.0172 -0.0540
-0.217 -0.00792  0.140
-0.0874 0.00633 -0.0324
-0.0154 -0.00266  0.528
-0.0792 0.0126  0.785
-0.0157 -0.00940  0.109
-0.176 -0.0152 -0.0571
-0.219 -0.00491  0.166
-0.107 0.0140 -0.0774
-0.0874 -0.000417  0.714
-0.0887 0.0140 -0.354
0.0755 0.0137 -0.395
-0.0212 0.0183  0.552
-0.0212 0.0142 -0.347
 0.118 0.0140 -0.0122
-0.0595 -0.0152 -0.0841
-0.0369 0.0180 -0.0212
 0.201 -0.0152 -0.507
0.0733 -0.0152 -0.197
 0.123 0.0140 -0.478
0.0845 -0.0152 -0.0122
 0.109 -0.0152 -0.125
 0.114 0.0141 -0.451
 0.143 0.0140 -0.0482
 0.159 0.0140 -0.0594
-0.0796 0.0183 -0.00316
-0.0460 0.0141 -0.343
-0.0954 0.0142 -0.406
-0.151 -0.0146 -0.00241
 0.100 -0.000413 0.0465
-0.0779 -0.00491  0.987
 0.156 0.0141  0.159
-0.0590 0.00409  0.815
-0.116 -0.0134  0.924
 0.121 -0.0152 0.0666
 0.133 0.00183  0.152
-0.224 0.0140 0.0891
-0.255 -0.0152 0.0801
-0.257 0.0142  0.125
-0.0520 0.0129  0.762
 0.157 -0.00792 -0.347
-0.0365 -0.0108  0.995
-0.0774 -0.0152  0.116
 0.148 0.00331 -0.333
 0.188 -0.0152 0.0666
0.0260 -0.0152 -0.341
0.0913 0.0140 -0.255
0.0553 0.0141 -0.424
-0.0820 0.0185  0.363
-0.0347 -0.0152 0.0440
-0.0684 -0.0152 0.0350
-0.0460 -0.0152  0.618
-0.0257 -0.0152  0.339
-0.0302 -0.0152 -0.167
-0.0347 -0.0152  0.420
-0.0932 -0.0152  0.863
0.00801 0.0141 -0.509
 0.161 0.0140 -0.480
 0.141 -0.0152 -0.449
-0.0324 -0.0152  0.251
 0.118 -0.0152 -0.0189
0.0710 -0.0152 -0.350
-0.0730 0.0142 -0.255
0.0958 -0.0152 -0.341
0.0485 -0.0152 -0.0999
0.0463 -0.0152 -0.424
0.0958 -0.0152 -0.255
 0.152 0.0141 -0.458
 0.100 -0.0152 -0.0931
-0.127 -0.0152  0.861
-0.0706 0.0142 -0.435
0.0665 0.0140 -0.300
-0.0154 0.0108 0.0823
-0.0783 0.0165 -0.198
-0.0911 -0.00136 -0.0745
0.00359 -0.0152 -0.401
-0.0212 -0.0152 -0.421
0.0868 0.0137 -0.334
-0.0684 -0.0152  0.595
0.0496 0.0135 -0.550
-0.0751 -0.0152 -0.0954
-0.200 -0.00491 0.0751
 0.170 -0.0152 -0.401
 0.183 -0.00568  0.130
-0.0874 0.0108  0.674
-0.0154 0.00183  0.372
-0.0157 0.00858  0.357
-0.228 -0.0152 -0.0122
-0.0751 0.0183  0.152
-0.0932 0.0126  0.935
-0.118 0.0121  0.919
-0.0157 0.00633 0.0553
-0.0685 0.0183 -0.134
 0.112 -0.0152 -0.230
-0.172 0.00333 -0.0752
-0.0157 0.0131 -0.0392
-0.0887 0.0142 -0.143
-0.0347 0.0168 -0.179
 0.207 -0.00698 -0.0625
 0.208 -0.0106 0.0427
-0.0874 -0.00716  0.175
-0.0864 -0.0152 -0.491
-0.0874 0.00183  0.332
-0.00233 0.0164 -0.178
 0.252 0.00634 -0.624
-0.119 -0.00942  0.803
-0.0157 -0.00940  0.195
-0.0155 -0.0146 0.0126
 0.195 -0.0152 -0.586
-0.0157 0.00633  0.620
-0.0191 0.0125  0.975
 0.120 -0.000428 -0.260
-0.0482 0.0184 -0.0524
-0.107 -0.00887 -0.0403
 0.201 0.00933 -0.597
-0.0145 0.00408 -0.556
-0.00992 0.0145 -0.242
-0.0662 0.0185  0.193
-0.0414 0.0141 -0.557
-0.0369 0.0137 -0.442
-0.0887 -0.0152  0.789
-0.000916 -0.0152 -0.221
-0.0414 0.0183  0.640
-0.0572 -0.0152  0.399
-0.0774 -0.0152  0.847
-0.0122 -0.0152 -0.154
-0.0595 -0.0152 -0.291
-0.0527 0.0180 0.0149
-0.0774 -0.0152  0.811
-0.0864 -0.0152 -0.365
0.0890 0.0137 -0.365
 0.125 -0.0152 -0.397
 0.134 -0.0152 -0.104
 0.183 0.0140 -0.460
0.0800 0.0137 -0.217
0.0665 0.0145 -0.359
 0.128 0.00858  0.116
 0.145 -0.0152 -0.550
 0.163 -0.0152 -0.460
-0.0616 0.0183 0.0531
-0.0775 0.0185 0.0801
 0.192 0.0142 0.0215
-0.116 -0.0127 -0.132
0.0215 0.0140 -0.194
-0.116 4.23e-05 -0.416
 0.165 0.0140 -0.417
 0.119 0.00634 -0.208
0.0440 0.0144 -0.136
-0.0460 0.0181 -0.147
 0.105 -0.0152 0.00360
 0.177 0.0140 -0.0639
-0.0640 -0.0152  0.728
-0.0751 0.0183  0.240
 0.233 -0.0152 -0.588
-0.0279 0.0183  0.386
-0.198 0.00258 -0.0600
-0.243 -0.00716  0.185
0.0283 0.0142 -0.372
-0.00992 0.0141 -0.541
-0.0167 0.0142 -0.271
-0.233 0.0140 0.0666
-0.0437 0.0141 -0.424
-0.00542 -0.0152 -0.523
-0.0189 -0.0152 -0.0774
-0.181 0.0137 -0.00316
-0.0189 -0.0152  0.280
-0.0482 0.0145 -0.244
0.0485 -0.0152 -0.307
0.0463 -0.0152 -0.489
 0.163 -0.0152 0.0418
 0.125 -0.0152 -0.0414
-0.233 0.0142  0.130
-0.0801 -0.000979 -0.226
-0.0874 0.00858  0.636
 0.154 -0.0152 -0.421
0.0778 -0.0152 -0.0684
 0.117 0.00182 -0.239
-0.156 0.00108 0.00201
 0.177 0.0137 -0.568
 0.143 -0.0152  0.118
-0.0874 0.0131  0.121
0.0958 0.0140 -0.307
-0.0707 0.0183  0.327
0.0710 0.0142 -0.201
-0.0706 -0.0152  0.424
-0.0527 0.0137 -0.212
-0.0302 0.0183  0.451
-0.0729 -0.0152 0.0711
 0.192 -0.0152 -0.478
-0.0796 -0.0152  0.210
0.0170 -0.0152 -0.0571
-0.0168 -0.0150  0.595
 0.132 0.0137 -0.125
-0.0640 0.0183  0.665
-0.0189 0.0142 -0.404
 0.181 -0.0152 -0.568
-0.0841 0.0184 -0.0212
 0.141 -0.0152 0.0305
 0.123 -0.0152 -0.329
 0.100 -0.0152 -0.0639
-0.134 -0.0127 -0.109
-0.0874 -0.0134  0.386
 0.129 -0.0136  0.208
-0.0874 -0.00716  0.145
-0.0839 0.0180  0.539
-0.0860 -0.0150  0.708
-0.0354 -0.000416  0.944
-0.00117 0.00859 -0.0464
-0.0874 0.00858 0.0328
 0.246 0.0108 -0.581
-0.142 0.00558 -0.0997
0.0710 0.0142 -0.129
 0.150 0.0137 -0.507
0.0238 -0.0152 -0.458
0.0913 0.0141 -0.502
-0.0662 0.0185  0.487
-0.0257 0.0145 -0.237
0.00359 0.0140 -0.221
-0.0347 0.0183  0.575
-0.0527 0.0137 -0.476
-0.0819 0.0185 0.0643
0.0935 0.0137 -0.0122
 0.195 0.0141 -0.516
 0.181 0.0142 -0.543
-0.210 0.0142 -0.000907
-0.228 -0.0152  0.103
-0.0505 -0.0152  0.150
-0.239 -0.0152 0.0823
-0.116 -0.0152 -0.0864
-0.0482 -0.0152 -0.0976
 0.168 -0.0152 0.0733
-0.0617 -0.0152 -0.329
 0.206 0.0137 -0.00991
-0.0730 0.0185  0.726
-0.0257 -0.0152 -0.246
-0.167 -0.0152 -0.00541
0.0530 0.0137 -0.291
0.0800 0.0137 -0.291
 0.183 0.0142 0.0756
0.0755 -0.0152 -0.149
-0.0505 -0.0152  0.224
 0.121 0.0137 0.0463
 0.116 0.0142 -0.0841
-0.0302 0.0183  0.114
-0.0157 0.0181  0.270
 0.177 -0.0152 -0.514
0.0215 -0.0152 -0.147
0.0913 -0.00567  0.301
 0.107 -0.0152 -0.298
0.0823 -0.0152 -0.451
 0.147 0.0137  0.123
-0.0347 -0.0152  0.222
 0.154 -0.0152  0.132
-0.0874 0.00858  0.735
0.0530 -0.0152 -0.131
0.0260 -0.0152 -0.217
-0.0168 -0.0150  0.442
-0.0347 0.0183  0.154
-0.0874 0.00183  0.537
-0.102 0.0126  0.811
 0.125 0.00389  0.226
-0.253 0.0145 0.0912
0.0823 -0.0152 -0.122
-0.0796 0.0145 -0.338
-0.0154 0.00408  0.305
0.0575 -0.0152 -0.199
-0.0572 -0.0152 -0.419
-0.0482 -0.0152 -0.194
-0.0550 0.0183  0.651
-0.156 -0.0152 -0.0616
 0.109 -0.0152 -0.473
 0.114 0.0142 -0.426
-0.0168 -0.0150  0.696
-0.0154 -0.0116 0.0508
0.0809 0.00146  0.314
-0.248 -0.00267 0.0174
-0.0874 -0.0117  0.458
 0.181 0.0142 0.0980
-0.0168 -0.0150 -0.0526
-0.0392 0.0141 -0.314
0.0598 0.0137 -0.325
 0.217 0.0142 -0.532
-0.210 -0.0152 0.0149
-0.0774 0.0140 -0.473
-0.0460 -0.0152  0.494
-0.0662 -0.0152 -0.210
-0.129 0.0140 -0.0549
-0.0279 -0.0152  0.510
 0.136 0.0141 -0.338
-0.0874 -0.000417  0.559
 0.107 -0.0152 -0.433
-0.244 -0.0152  0.154
-0.0706 -0.0152  0.132
-0.0586 -0.0117 -0.0684
0.0283 0.0137 -0.0504
-0.0527 0.0180  0.512
-0.102 0.0140 -0.390
-0.0774 -0.0152  0.951
 0.206 -0.0152 -0.557
-0.0437 0.0183  0.678
-0.206 -0.00567 0.0900
-0.0257 0.0185  0.172
 0.157 0.0138 -0.110
-0.0665 0.0184  0.756
-0.120 -0.0152  0.876
 0.136 0.00856 -0.145
-0.101 -0.0133 -0.157
0.0755 -0.00473 -0.552
-0.0874 0.00858  0.458
-0.0369 0.0126  0.977
 0.123 -0.00248 0.0966
-0.259 0.00633 0.0711
 0.156 -0.0152 -0.374
-0.248 -0.0152 0.0643
-0.216 0.0127  0.132
-0.0157 0.0181  0.140
-0.244 -0.0152 0.0418
-0.0662 0.0126  0.962
-0.0490 -0.00493  0.926
 0.163 0.00730 -0.358
-0.112 -0.0146 -0.380
-0.211 0.000332  0.105
 0.128 -0.0117 -0.294
-0.0857 0.0181  0.474
-0.0304 0.0184  0.756
0.0395 0.0142 -0.439
0.0710 0.0140 -0.0369
 0.159 0.0140 -0.0414
-0.0157 0.00185  0.469
-0.0369 0.0184  0.309
-0.0909 0.0145 -0.109
 0.168 0.0144 -0.534
-0.0527 0.0140 -0.516
-0.0595 0.0142 -0.386
-0.152 -0.0152 -0.0774
-0.101 -0.0109 -0.495
-0.113 0.0126  0.861
-0.0662 -0.0152  0.555
 0.183 -0.0152 -0.538
-0.0774 -0.0152  0.568
-0.0482 -0.0152 -0.156
-0.0414 -0.0152 -0.136
-0.0505 -0.0152 -0.460
-0.0460 -0.0152  0.264
-0.206 -0.0152 -0.0257
 0.197 0.0140 -0.467
-0.219 -0.0152 0.0666
0.00576 -0.0152 -0.372
-0.219 -0.00266  0.184
0.0485 -0.0152 -0.170
-0.0505 0.0180  0.197
-0.0369 0.0180  0.206
 0.147 0.0142 -0.0954
0.0800 -0.0152 -0.417
0.0957 0.0140 -0.113
 0.138 -0.0152 -0.00991
0.0418 -0.0152 -0.401
0.0665 -0.0152 -0.383
 0.156 -0.0152 -0.478
-0.0751 -0.0152  0.251
-0.217 0.0137 -0.0144
 0.118 0.0140 0.0283
-0.0527 -0.0152  0.453
-0.0617 -0.0152  0.757
-0.0561 0.0126  0.940
 0.114 0.0145 -0.0639
 0.131 -0.0117 -0.156
 0.177 -0.0152 -0.0751
0.0238 0.0141 -0.413
 0.147 0.00108 -0.570
-0.0550 -0.0152  0.685
-0.000916 -0.0152 -0.111
0.0125 -0.0152 -0.538
-0.0572 -0.0152 -0.496
-0.206 -0.0145 -0.0552
-0.00550 0.0179 -0.157
0.00350 0.0140 -0.401
-0.0865 0.00315 -0.195
 0.126 -0.0117  0.224
 0.127 0.0144 -0.307
 0.213 0.0137 -0.0414
 0.125 0.0143  0.100
-0.0684 -0.0152  0.982
-0.230 -0.0152  0.204
-0.0801 -0.00248 -0.283
 0.213 0.0135 0.0178
-0.0157 0.00633  0.559
-0.0774 0.0126  0.838
-0.0937 0.0134 -0.0493
 0.108 -0.00303  0.279
 0.172 -0.00627 -0.374
-0.0819 -0.0152  0.764
 0.131 -0.000229  0.136
-0.0234 0.0183  0.494
 0.122 -0.000422 -0.185
 0.221 -0.00417 -0.612
-0.0920 -0.0147 -0.0616
-0.0877 0.00183  0.755
-0.0874 -0.00267  0.291
-0.0841 -0.0152 -0.0122
-0.0943 0.0126  0.900
-0.0678 0.0126  0.794
-0.0550 -0.0152 -0.536
 0.133 -0.000415  0.172
-0.0823 -0.0134 -0.0829
 0.120 0.0145 -0.154
-0.0752 0.0142 -0.314
-0.0257 0.0183  0.708
0.0688 0.0137 -0.536
-0.115 -0.0117 -0.399
 0.188 -0.00266 -0.589
-0.0154 -0.00940  0.726
 0.165 -0.00341  0.175
 0.223 0.0110 -0.494
-0.125 0.0137 -0.0392
 0.139 0.0140 -0.0819
0.0373 0.0140 -0.455
-0.0617 0.0183  0.687
-0.0550 0.0183  0.314
0.00134 0.0137 -0.451
-0.0706 0.0180 0.0418
-0.124 -0.0124 -0.120
-0.0167 0.0142 -0.426
 0.181 0.0142 -0.0369
-0.0460 -0.0152  0.294
-0.0414 -0.0152 0.0666
-0.0999 -0.0152 -0.404
 0.192 -0.0152 -0.0527
-0.0595 0.0142 -0.0819
-0.0662 -0.0152 -0.365
-0.0302 -0.0152  0.435
-0.0684 -0.0152 -0.0212
-0.0527 -0.0152 0.00585
-0.0189 -0.0152 -0.368
 0.156 -0.0152 -0.514
 0.130 -0.0152 0.0553
 0.183 -0.0152 -0.0167
0.0395 -0.0152 -0.460
 0.109 -0.0152 -0.518
0.0193 0.0140 -0.161
0.0125 0.0144 -0.122
0.0755 0.0140 -0.185
0.0440 -0.0152 -0.149
 0.100 0.0142 -0.239
 0.154 0.0140 0.0688
0.0665 0.0137 -0.0751
 0.161 -0.0152 -0.102
 0.139 0.0142  0.202
 0.103 0.0142 -0.264
 0.127 -0.000603 -0.563
 0.168 0.0140 -0.0167
0.0148 0.0140 -0.248
0.0350 0.0142 -0.280
 0.249 -0.00267 -0.604
-0.0684 -0.0152  0.579
-0.0279 -0.0152  0.456
-0.0640 0.0140 -0.356
-0.0640 0.0183  0.606
-0.174 0.0137 -0.0571
-0.0460 0.0183  0.735
-0.0572 0.0144 -0.500
-0.0572 -0.0152 -0.0459
-0.0774 -0.0152  0.307
-0.0234 -0.0152  0.307
 0.170 -0.0150  0.161
-0.103 -0.00267  0.945
-0.130 -0.00267  0.847
-0.0729 -0.0152  0.100
-0.259 -0.00267  0.116
 0.163 0.0137 -0.444
0.0980 0.0142 -0.217
-0.0932 0.0140 -0.491
-0.00542 0.0144 -0.473
-0.0392 0.0141 -0.0841
-0.0482 0.0183  0.546
0.0553 0.0141 -0.491
-0.0189 0.0141 -0.104
0.0305 0.0137 -0.113
-0.0167 -0.0152 -0.493
-0.0527 0.0180 0.0823
-0.109 -0.0152 -0.430
0.00576 0.0140 -0.302
-0.113 -0.0152  0.843
-0.0324 0.0180 0.0598
-0.0819 -0.0152 -0.0459
-0.0796 -0.0152  0.660
-0.0324 -0.0152 -0.300
-0.0977 -0.0152 -0.118
-0.0347 -0.0152 -0.347
-0.000916 -0.0152 -0.343
-0.0706 -0.0152  0.280
-0.0234 -0.0152 -0.0909
 0.170 -0.0152 -0.0459
 0.188 -0.00492 -0.0771
-0.242 0.0140  0.152
-0.0437 0.0173 -0.190
0.0935 -0.0152 -0.467
-0.0874 -0.000417 0.0621
0.0755 -0.0152 -0.538
 0.121 0.0137 -0.500
 0.172 -0.0152 -0.439
 0.132 -0.0152 -0.545
 0.136 0.0145 -0.538
-0.0527 0.0180  0.130
 0.132 -0.0152 -0.0616
-0.0874 -0.000417  0.251
-0.0257 0.0137 -0.208
-0.0157 0.00408  0.114
0.0553 0.0140 -0.174
 0.188 -0.0152 -0.421
0.00134 -0.0152 -0.188
 0.144 -0.0145 -0.130
 0.107 0.0137 -0.343
-0.0168 -0.0150  0.577
 0.154 0.0140 -0.426
-0.000916 0.0137 -0.0909
-0.181 0.0138 0.0260
-0.0796 -0.0152 -0.188
-0.0640 0.0142 -0.302
-0.0774 -0.0152 -0.140
 0.105 -0.0152 -0.266
 0.154 -0.0152 0.0215
0.0508 -0.0152 -0.278
0.0913 -0.0152 -0.199
-0.221 0.0140 0.0193
-0.0806 0.0184  0.757
-0.251 -0.000416 0.0310
-0.0157 -0.00491  0.246
 0.111 -0.00267 0.0669
 0.238 0.00558 -0.626
-0.0751 0.0126  0.872
 0.172 0.00333 -0.581
 0.144 0.0142  0.217
-0.0666 -0.0148  0.876
-0.109 -0.0152 -0.0527
-0.0874 -0.0134  0.226
 0.195 -0.00284 -0.420
 0.124 0.0128 -0.178
 0.138 -0.0152 -0.343
 0.192 0.0137 -0.0571
-0.0821 0.0143 -0.0847
 0.120 -0.0147 -0.260
-0.00292 -0.00473 -0.554
0.0598 0.00183 -0.551
 0.211 0.0127 -0.458
-0.107 -0.0152  0.800
0.0819 -0.00941 0.0199
-0.0868 0.0180  0.267
 0.186 -0.0152  0.100
-0.0841 0.0140 -0.172
-0.0157 -0.00940  0.492
-0.0170 0.0185  0.193
-0.0279 -0.0152 -0.0144
 0.134 -0.00342 -0.308
-0.0784 0.00183 -0.253
-0.0151 -0.0134  0.645
0.0418 0.0140 -0.0819
-0.0167 0.0180 -0.136
-0.0460 0.0137 -0.107
-0.185 0.0141 -0.0189
-0.0729 0.0140 -0.379
 0.125 0.0142 -0.109
0.0890 0.0138 -0.435
-0.0392 0.0137 -0.374
-0.0324 0.0183  0.611
-0.0369 0.0183  0.528
-0.000916 0.0137 -0.428
-0.0616 0.0183  0.287
-0.0482 0.0140 -0.327
-0.208 -0.0152 0.0801
 0.147 0.0137 0.0440
 0.145 0.0142 -0.471
-0.0302 -0.0152  0.186
-0.0347 -0.0152  0.640
-0.0909 0.0126  0.921
-0.165 -0.0152 -0.0302
-0.0684 -0.0152 -0.122
-0.0527 -0.0152 -0.226
-0.0347 0.0180 -0.0369
 0.192 -0.0152 -0.462
-0.0369 -0.0152 -0.215
-0.0751 -0.0152  0.487
-0.0144 -0.0152 -0.113
-0.0392 -0.0152  0.543
 0.199 0.0142 -0.0302
-0.0729 -0.0152 -0.489
-0.0819 -0.0152 -0.395
-0.143 0.0140 -0.0729
0.0620 -0.0152 -0.323
-0.0414 -0.0152  0.525
-0.0460 -0.0152 -0.525
0.0283 -0.0152 -0.230
-0.0954 -0.0152  0.829
-0.0954 -0.0152 -0.453
-0.0279 -0.0152  0.352
-0.0595 0.0183  0.732
-0.181 -0.0152 0.0171
-0.0157 0.00408  0.577
-0.0157 0.00408  0.685
-0.0157 0.00408 -0.00316
 0.120 0.0137 -0.0257
 0.107 -0.0152 -0.505
0.0350 -0.0152 -0.516
 0.111 0.0140 -0.284
0.0170 -0.0152 -0.170
0.0643 -0.0152 -0.230
0.0418 0.0137 -0.520
0.0305 0.0141 -0.309
-0.0157 -0.00266  0.633
-0.000999 0.0140 -0.327
 0.161 0.0140 -0.0931
-0.0505 0.0183  0.246
-0.235 -0.0152  0.116
 0.134 -0.0152 -0.493
 0.148 0.0141 -0.561
-0.0874 0.0108  0.219
0.0868 -0.0152 -0.282
-0.0223 0.000324  0.984
-0.180 -0.0117 -0.0697
0.00359 -0.0152 -0.293
-0.0572 0.0127  0.912
0.0193 0.0140 -0.235
-0.215 0.0142  0.226
-0.219 0.0137 0.0418
-0.0662 0.0183 0.0238
0.00576 -0.0152 -0.275
-0.0751 -0.0152 -0.332
-0.0572 -0.0152  0.777
-0.0897 0.00183  0.961
-0.107 -0.0152  0.894
-0.0608 -0.000416 -0.0757
-0.0515 -0.0134  0.799
0.0332 0.0127 -0.0267
-0.242 0.0137 0.0350
 0.242 -0.0152 -0.610
 0.105 -0.0152 0.0328
-0.120 0.0126  0.834
-0.0985 0.0140 -0.160
-0.0302 0.0183  0.323
-0.0460 0.0142 -0.390
 0.100 0.0140 -0.0661
-0.194 -0.0152 0.00134
-0.0505 -0.0152  0.986
-0.0887 0.0140 -0.368
 0.143 0.0140 -0.0347
 0.121 -0.0152 -0.446
-0.0527 0.0180 0.00134
0.0440 -0.0152 -0.338
-0.0460 -0.0152  0.604
-0.145 -0.0152 -0.0504
0.0823 -0.0152 -0.109
 0.204 -0.0152 -0.525
 0.105 0.0137 -0.0369
-0.0302 -0.0152 -0.181
-0.0347 -0.0152  0.717
 0.201 0.00333 0.0700
0.0440 -0.0152 -0.199
 0.143 -0.0152 -0.478
-0.237 0.0140 0.0958
 0.139 0.0140 -0.0189
0.0868 -0.0152 -0.318
-0.0870 -0.0145 -0.519
-0.219 0.00857  0.166
0.0778 0.0141 -0.415
-0.0640 -0.0152  0.905
 0.210 -0.0152 -0.00316
-0.0535 0.00258  0.802
0.00125 0.0137 -0.354
-0.190 0.0137 -0.0549
-0.147 0.0140 -0.0279
 0.177 0.0140 0.0305
-0.176 -0.0152 -0.0437
-0.0414 -0.0152  0.512
0.0103 -0.0152 -0.417
0.00801 0.0137 -0.0661
-0.0841 -0.0152  0.892
 0.146 -0.0147 -0.569
0.0530 -0.0152 -0.0234
-0.231 -0.00417 -0.0200
 0.215 -0.00117 -0.470
-0.0823 0.00183 -0.297
-0.120 0.000348 -0.0307
-0.0843 0.00408 -0.0544
-0.109 0.0145 -0.415
-0.220 0.0143  0.192
-0.0939 -0.00192 -0.508
-0.0820 0.0185  0.399
-0.0153 0.0172  0.224
 0.235 -0.00776 -0.535
 0.201 -0.00940 0.0753
-0.0650 -0.000416  0.996
 0.168 0.0142  0.136
-0.0835 0.0126  0.944
0.0643 0.0137 -0.0167
-0.0347 0.0127  0.946
 0.100 -0.00266 -0.556
-0.0819 0.0185  0.172
-0.0662 0.0140 -0.273
-0.0212 0.0183  0.422
 0.156 0.0140 -0.374
-0.0339 0.00427 -0.561
-0.0934 -0.00248 -0.329
-0.219 0.00184  0.152
-0.0874 0.00408 0.0980
-0.0158 0.00108  0.758
0.0733 0.0137 -0.347
0.0912 0.0137 -0.399
-0.0505 -0.0152 0.0935
 0.188 0.0137 0.00134
0.0103 0.0144 -0.437
0.0463 0.0142 -0.107
0.0553 0.0141 -0.534
-0.0212 0.0142 -0.372
-0.0595 0.0141 -0.251
-0.0595 0.0183  0.359
-0.0707 0.0185  0.352
-0.0909 0.0142 -0.430
-0.00767 0.0142 -0.228
-0.0437 0.0183  0.753
-0.0460 0.0137 -0.527
 0.170 -0.0152  0.132
-0.0527 0.0141 -0.0706
 0.222 0.0141 -0.583
-0.00992 -0.0152 -0.430
-0.0414 -0.0152  0.732
-0.0324 0.0183  0.656
 0.213 -0.0152 -0.514
-0.0392 -0.0152  0.964
-0.0977 -0.0152 -0.372
-0.127 0.0140 -0.104
-0.0572 0.0180  0.557
-0.0460 -0.0152 0.0171
-0.0729 -0.0152  0.408
-0.0437 -0.0152 -0.0437
-0.0437 0.0180 0.0666
-0.0392 -0.0152 -0.0257
-0.0279 0.0169 -0.194
-0.0728 0.0126  0.818
 0.213 -0.0152 -0.500
-0.0302 -0.0152  0.753
0.0125 -0.0152 -0.305
-0.0189 -0.0152 -0.257
-0.0595 0.0126  0.782
 0.128 0.00335  0.247
0.0935 -0.0152 -0.131
0.0913 -0.0152 -0.437
0.0463 0.0140 -0.332
 0.114 -0.0152 -0.309
 0.134 -0.0152 -0.460
0.0598 -0.0152 -0.401
-0.0392 0.0180  0.127
-0.226 0.0140  0.118
 0.116 -0.0152 -0.113
 0.168 -0.0152 -0.0167
0.0845 -0.0152 -0.0886
 0.138 -0.0126 -0.318
0.0778 -0.0152 -0.505
-0.0157 -0.000415  0.604
 0.174 -0.0152 -0.453
0.0980 -0.0152 -0.167
-0.0550 -0.0152  0.202
 0.172 0.0141 -0.491
0.0395 0.0137 -0.498
-0.0157 -0.00266  0.172
0.0845 0.0137 -0.383
-0.0153 0.00632  0.240
-0.0621 -0.00866  0.823
-0.235 0.0142 0.0215
0.0598 0.0137 -0.154
 0.103 0.0138 -0.408
 0.159 -0.0152 0.0958
 0.197 -0.0152 0.0171
-0.145 -0.00567 -0.00950
0.0103 0.0140 -0.415
 0.172 0.0140 -0.406
-0.0482 0.0180  0.303
-0.0640 0.0184 -0.0437
-0.0661 0.0141 -0.467
-0.00992 -0.0152 -0.406
-0.235 -0.0152 0.0260
-0.0751 -0.0152 0.00810
-0.0122 0.0142 -0.493
-0.0157 -0.00491 0.0215
0.0913 0.0137 -0.0549
 0.121 -0.0152 -0.134
-0.217 0.0142  0.100
-0.111 0.00165 -0.462
-0.0640 -0.0152  0.525
-0.219 -0.00941  0.231
-0.0558 -0.00642 -0.557
-0.102 0.0142 -0.354
-0.0279 -0.0152  0.665
-0.228 -0.00491  0.216
 0.123 -0.00267 -0.276
 0.132 0.0135  0.241
 0.209 0.00652 -0.0617
-0.0811 0.0168 -0.131
 0.187 0.00858 -0.0782
-0.0902 -0.00942 -0.183
-0.0730 0.0185  0.622
0.0887 0.00202 0.0288
 0.121 -0.0152 -0.163
-0.131 0.0108  0.858
-0.0774 0.0185  0.309
-0.0157 0.00633  0.665
-0.0874 0.0108  0.705
-0.109 -0.0152 -0.444
-0.0660 -0.00341 -0.547
-0.124 0.0107  0.816
-0.104 0.0141 -0.480
 0.113 0.00689  0.261
0.0373 0.0142 -0.262
-0.142 -0.0124 -0.0997
0.0148 0.0140 -0.140
 0.172 0.0141  0.112
-0.0157 0.00633 0.0688
0.0170 0.0140 -0.388
-0.0234 0.0141 -0.453
-0.0684 -0.0152 -0.538
-0.0369 -0.0152  0.627
 0.183 -0.0152 0.0463
-0.0550 0.0180  0.573
-0.120 -0.0152 -0.104
-0.0437 -0.0152  0.694
-0.0460 -0.0152 -0.552
-0.0437 -0.0152 0.0531
-0.0482 -0.0152 -0.269
 0.199 -0.0152 -0.545
-0.163 0.0137 -0.00766
-0.192 -0.0152 -0.0167
-0.0909 -0.0152  0.941
-0.0279 -0.0152  0.289
0.0553 -0.0152 -0.446
 0.125 -0.0152 -0.0909
 0.170 -0.0152 -0.545
0.0260 -0.0152 -0.120
 0.161 -0.0152 -0.410
 0.161 -0.0152 -0.388
-0.253 -0.0152  0.114
0.0755 -0.0152 -0.00316
 0.109 -0.0152 -0.392
0.0215 -0.0152 -0.0392
0.0283 0.0142 -0.399
0.0665 -0.0152 -0.302
-0.190 -0.0152 0.0283
0.0598 0.0140 -0.253
-0.0874 0.00408  0.197
-0.0625 -0.00266  0.894
-0.0157 0.0108  0.519
-0.0874 0.00633  0.150
 0.161 0.0140 -0.516
-0.121 -0.00266  0.912
 0.121 -0.00491  0.240
-0.127 -0.0104  0.828
-0.0786 -0.00491 -0.239
-0.0151 -0.0134  0.534
-0.0774 -0.0152  0.735
-0.0595 -0.0152 0.0440
-0.179 0.00485 0.0349
-0.0874 -0.0134  0.298
 0.134 0.0142 -0.0571
-0.0751 0.0183  0.202
-0.0594 0.0180  0.222
0.0868 -0.0152 -0.350
0.0710 -0.0152 -0.408
 0.123 -0.0152 0.0260
-0.201 0.00947 0.0783
 0.138 0.0144  0.177
 0.116 -0.0151 -0.558
-0.0157 0.00858  0.710
 0.208 0.0127 0.0439
-0.0455 0.0126  0.780
-0.0319 0.00108  0.771
-0.0871 -0.0146  0.515
 0.134 -0.0152  0.105
 0.142 0.00283  0.222
-0.0840 0.0183  0.231
0.0515 -0.0147 -0.550
 0.204 0.00183 -0.442
-0.0157 0.00858  0.456
-0.0874 -0.00716  0.546
-0.0155 -0.0146  0.746
-0.0156 0.0184  0.113
-0.0452 0.0126  0.989
-0.251 -0.00698  0.164
-0.225 0.000146 -0.0316
-0.211 -0.000416  0.243
-0.0751 -0.0152  0.442
-0.00534 0.0167 -0.196
-0.0155 -0.0146  0.150
-0.245 0.00858 0.0108
 0.154 -0.0152 -0.359
 0.111 0.0140 -0.201
0.0148 0.00858 -0.552
 0.177 -0.0152  0.114
-0.104 -0.0115 -0.352
 0.241 -0.00491 -0.559
 0.211 0.00183 0.0214
 0.145 -0.0152  0.179
-0.0977 -0.0152  0.780
-0.102 -0.000602 -0.156
-0.0257 -0.0152  0.973
-0.0803 -0.0147 -0.220
-0.0874 -0.00492 -0.00541
-0.116 0.00266 -0.428
-0.0661 0.0140 -0.453
-0.0302 0.0180 -0.143
-0.0931 -0.0151 -0.0774
-0.0157 -0.00491  0.393
-0.0168 -0.0150 0.0688
0.0937 0.0128 0.0351
-0.0157 -0.00493  0.435
-0.0347 0.0168 -0.158
-0.0836 0.0126  0.773
-0.0706 0.0140 -0.325
-0.0819 0.0140 -0.401
0.0125 -0.0152 -0.491
-0.0324 0.0137 -0.343
0.0620 0.0141 -0.370
 0.111 0.0142 -0.518
0.0148 0.0140 -0.278
-0.0324 0.0144 -0.525
0.00134 0.0141 -0.248
0.0530 0.0138 -0.0347
0.0733 0.0142 -0.109
 0.138 0.0144 -0.408
-0.0154 0.00859  0.294
-0.0212 0.0145 -0.467
-0.0369 0.0140 -0.473
 0.197 0.0140 -0.543
-0.0639 0.0185  0.148
-0.0279 0.0183  0.262
-0.0212 0.0144 -0.318
-0.0347 0.0141 -0.399
 0.107 0.0137 -0.311
-0.104 0.0127  0.939
-0.0324 -0.0152 -0.269
-0.0189 -0.0152 -0.397
-0.0234 -0.0152 -0.543
0.0283 -0.0152 -0.469
-0.0572 -0.0152  0.622
 0.217 -0.0152 -0.552
-0.0122 -0.0152 -0.210
-0.0572 -0.0152 -0.520
-0.0887 -0.0152 -0.136
-0.00542 0.0137 -0.0796
 0.199 -0.0152 -0.0122
-0.00317 -0.0152 -0.381
-0.0257 0.0180 -0.0257
-0.000916 -0.0152 -0.0841
-0.0482 0.0180 -0.0167
-0.0796 -0.0152  0.269
-0.0279 -0.0152 -0.0459
0.00125 0.0140 -0.111
-0.0460 0.0180  0.336
-0.0662 -0.0152  0.507
-0.0887 0.0126  0.872
-0.0527 -0.0152 -0.430
-0.0841 -0.0152  0.777
-0.0932 0.0140 -0.379
 0.218 0.00409 -0.0325
-0.0170 0.0185  0.251
-0.0874 0.00408  0.424
-0.0874 0.00858  0.343
-0.0874 -0.000417  0.609
-0.233 -0.0152  0.175
-0.0729 0.0183  0.181
-0.0157 -0.000415 -0.0144
-0.0279 0.0181  0.100
0.0755 -0.0152 -0.482
0.0733 -0.0152 -0.0954
-0.0595 -0.0152  0.249
-0.0257 0.0185  0.213
