ply
format ascii 1.0
element vertex 2048
property float x
property float y
property float z
end_header
 0.331 -0.0639 -0.451
-0.493 -0.772  0.402
-0.495  0.650  0.394
 0.394 -0.472  0.390
 0.394  0.628  0.147
-0.487 -0.457 -0.451
-0.251  0.628 -0.451
-0.227 -0.0717  0.401
 0.153 -0.781 -0.221
-0.502  0.117 -0.129
 0.386  0.550 -0.450
 0.394 0.0462  0.116
-0.0148  0.416  0.401
-0.502 -0.365 0.0735
0.00160 -0.779  0.258
-0.125  0.141 -0.451
-0.125  0.652 0.00545
-0.0148 -0.378 -0.451
 0.394 -0.394 -0.120
-0.502  0.233  0.279
-0.217 -0.770 -0.419
 0.394 -0.764  0.106
-0.501  0.510 -0.0405
 0.166 -0.119  0.401
-0.235 -0.473  0.401
 0.394  0.353 -0.120
-0.293 -0.666 -0.0349
-0.487  0.321 -0.451
 0.378  0.345  0.401
 0.386 -0.583 -0.450
-0.447 -0.0796 -0.451
 0.198  0.652 -0.160
0.0481  0.439 -0.451
-0.499 -0.265  0.402
-0.502 -0.0593  0.159
0.0795 -0.441  0.401
 0.284 -0.777  0.402
 0.205  0.642  0.401
 0.284  0.243 -0.451
-0.172  0.652  0.304
 0.394 0.0462 -0.183
-0.314  0.416  0.401
 0.394 -0.268  0.139
-0.487  0.652 -0.293
 0.392 0.0599  0.399
0.00878  0.133  0.401
0.0638 -0.646 -0.451
0.0560 -0.103 -0.451
 0.260 -0.331 -0.451
-0.502 -0.182 -0.129
 0.394 -0.669 -0.160
 0.119  0.652  0.123
-0.0541  0.652 -0.254
-0.219 -0.740  0.401
-0.203 -0.182 -0.451
-0.0255 -0.779 -0.00525
 0.394  0.306  0.139
-0.400  0.652  0.147
-0.418 -0.543  0.240
-0.235 -0.520 -0.451
-0.471 -0.709 -0.451
-0.498 0.00217  0.402
 0.394 -0.221  0.390
-0.196  0.384 -0.451
 0.394 -0.512 0.0998
-0.282  0.164  0.401
 0.174  0.652 -0.411
 0.394 -0.190 -0.262
-0.494 -0.577 -0.249
-0.298  0.652 -0.152
-0.0777 -0.268  0.401
-0.502  0.295 0.0499
-0.502  0.455  0.249
 0.199 -0.780 0.00364
 0.394  0.589 -0.0810
-0.187 -0.758  0.146
 0.111  0.109 -0.451
 0.221  0.196  0.401
-0.125 -0.777 -0.196
 0.281 -0.769 -0.439
-0.337  0.117 -0.451
 0.394  0.557  0.351
-0.499  0.440 -0.274
 0.394 -0.119 -0.0496
 0.103 -0.662  0.401
 0.394  0.376 -0.333
-0.503 -0.344 -0.259
 0.206 -0.781  0.209
 0.394 -0.646  0.273
-0.432  0.534 -0.451
-0.298 -0.276  0.401
 0.198  0.432  0.401
-0.400 -0.276 -0.451
 0.394 -0.433 -0.317
-0.0305  0.628 -0.451
0.00922  0.651  0.390
-0.503 -0.0370 -0.259
-0.502 -0.472  0.401
 0.221 -0.308  0.401
 0.394  0.101 -0.372
 0.347  0.652 -0.293
 0.394  0.188 -0.0260
-0.0934 -0.599  0.401
-0.0227 -0.0875  0.402
-0.369 -0.622  0.401
 0.237  0.439 -0.451
-0.0350 -0.775 -0.356
 0.190 -0.512 -0.451
-0.502 -0.249  0.213
-0.502  0.122  0.136
-0.321  0.597  0.401
 0.394 -0.111  0.226
 0.394  0.196  0.281
0.0560  0.652 -0.0496
-0.0541  0.652  0.171
-0.499  0.363  0.402
-0.502 -0.0193 -0.0129
 0.394  0.455 0.0448
-0.109 -0.0324 -0.451
 0.276 -0.599  0.402
-0.502  0.230 -0.259
 0.394  0.227 -0.246
-0.141  0.298  0.401
0.000932  0.259 -0.451
 0.395 -0.765 -0.303
-0.188 -0.355 -0.451
-0.502 -0.185 0.0421
 0.394 -0.229 -0.435
-0.164  0.494  0.401
 0.253  0.652 0.0212
-0.101 -0.630 -0.451
-0.290  0.652 0.0208
-0.487  0.652 -0.128
 0.394  0.432  0.241
 0.394 -0.347  0.281
 0.394  0.494 -0.223
 0.205 -0.182 -0.451
-0.495  0.141 -0.451
 0.394 -0.646 -0.00241
-0.227  0.652 -0.293
-0.0627 -0.777  0.402
 0.268  0.652  0.257
0.0830 -0.779  0.111
 0.237 0.0383  0.401
-0.392 -0.150  0.401
 0.394 -0.276 -0.0181
-0.306  0.274 -0.451
-0.339 -0.774 -0.323
-0.447  0.156  0.401
-0.211  0.652  0.155
-0.384 -0.583 -0.451
-0.0384 -0.229 -0.451
 0.260 0.0698 -0.451
-0.148 0.0934  0.402
-0.502 -0.116  0.299
-0.0934 -0.418  0.401
-0.259 -0.0167 -0.451
 0.394 -0.591 -0.301
0.0717 -0.292  0.401
-0.487  0.652 0.0212
-0.501  0.510  0.109
0.0953  0.652 -0.285
-0.496  0.607  0.250
 0.150  0.306 -0.451
-0.133  0.518 -0.451
-0.502 -0.381  0.286
0.0481  0.274  0.401
-0.353 0.00689  0.401
-0.337  0.424 -0.451
-0.345 -0.426 -0.451
0.0874  0.652  0.265
 0.331 -0.0717  0.401
-0.293 -0.666  0.114
-0.499  0.507  0.402
 0.349 -0.773 -0.0724
 0.221 -0.457  0.401
 0.119 -0.316 -0.451
 0.394 0.0305 -0.0260
 0.344 -0.778  0.272
0.0874 0.0148  0.401
 0.394 -0.504  0.241
 0.394 -0.0481 -0.325
-0.187 -0.758 0.00486
-0.361  0.652 -0.356
-0.329  0.652  0.273
0.0245 -0.512 -0.451
-0.148  0.652 -0.152
 0.394 -0.544 -0.0968
-0.354 -0.777  0.402
-0.502 0.0927  0.272
 0.122 -0.779  0.330
 0.142 -0.756 -0.451
0.00910 -0.777 -0.203
 0.378 -0.433 -0.451
-0.502 -0.350 -0.0601
-0.361  0.290  0.401
 0.394 0.0148  0.273
-0.502 -0.613  0.401
-0.502  0.341  0.175
-0.503 -0.210 -0.259
 0.119  0.542  0.401
 0.386 -0.677  0.401
-0.500 -0.581 -0.387
 0.229 -0.638 -0.451
 0.308  0.652 -0.419
-0.0493 -0.779  0.136
 0.394  0.235 -0.380
-0.337 -0.150 -0.451
-0.502  0.247 -0.125
 0.394 -0.221 -0.136
-0.502  0.381 -0.0525
 0.394 -0.331 -0.238
-0.376 -0.378  0.401
0.0893 -0.779 -0.0635
0.0875  0.565 -0.451
 0.166 -0.0167 -0.451
-0.126 -0.779  0.272
 0.347  0.361 -0.451
-0.141  0.652 -0.388
-0.0227 0.0619 -0.451
-0.345 -0.732 -0.451
-0.500 -0.220 -0.387
 0.394 -0.150 0.0919
-0.180 -0.190  0.401
-0.0698  0.369 -0.451
 0.394  0.172  0.131
-0.502  0.106 0.00279
-0.500 0.0320 -0.387
-0.219 -0.606  0.401
-0.227 -0.646 -0.451
 0.363  0.188  0.401
 0.394 -0.0875 -0.191
 0.394 -0.394 0.0605
 0.323  0.455  0.401
-0.109 -0.457 -0.451
 0.276 -0.190  0.401
-0.384  0.652 -0.0575
-0.0463  0.534  0.401
 0.386 -0.347  0.401
 0.323  0.652  0.383
0.0166 -0.544  0.401
-0.481 -0.431  0.179
 0.331  0.652 -0.160
0.0402  0.652 -0.168
 0.182  0.314  0.401
-0.180  0.266 -0.451
 0.394 -0.732 -0.443
 0.108 -0.773 -0.330
 0.386  0.652  0.281
-0.502 -0.0405 -0.129
 0.394  0.314  0.281
-0.376 -0.496  0.401
 0.394  0.510 -0.341
 0.394 -0.323 -0.356
-0.503 -0.462 -0.259
-0.500 -0.361 -0.387
 0.261 -0.780  0.107
 0.394  0.157 -0.152
-0.498  0.627 -0.442
-0.188 -0.308  0.401
 0.394  0.597 0.0369
 0.237  0.652  0.147
 0.394  0.337 0.0290
 0.394 -0.614  0.163
-0.117  0.628  0.401
-0.392  0.652 -0.215
0.0245  0.652 0.0605
-0.400  0.211 -0.451
 0.223 -0.777 -0.107
-0.498  0.423 -0.402
 0.260  0.550 -0.451
-0.235  0.164 -0.451
0.0245 -0.190  0.402
-0.384 0.0148 -0.451
 0.394 -0.496 -0.199
-0.290 -0.253 -0.451
0.0953  0.384  0.401
-0.251  0.274  0.402
 0.111  0.180  0.401
-0.502  0.232  0.159
 0.264 -0.771 -0.226
-0.495  0.552 -0.339
-0.502  0.405 0.0653
 0.394  0.479 -0.0732
 0.205  0.652 -0.270
-0.321  0.534 -0.451
-0.0620  0.652  0.304
-0.500  0.253  0.396
 0.394  0.542  0.241
-0.109 -0.00884  0.401
0.0953 -0.205 -0.451
 0.237  0.534  0.401
 0.394 -0.409  0.186
-0.500 -0.153  0.402
 0.182  0.203 -0.451
0.0875 -0.426 -0.451
 0.347  0.156 -0.451
-0.0777 -0.748 -0.451
 0.394 -0.245  0.249
 0.284  0.282  0.401
 0.394 -0.481 -0.0103
 0.213 -0.685  0.401
-0.384  0.510  0.401
-0.180  0.196  0.401
 0.378 0.0305 -0.451
-0.243 0.0462  0.401
-0.00666  0.652 -0.348
-0.0620 -0.127 -0.451
0.0464 -0.776  0.402
-0.495  0.615  0.126
-0.502  0.357  0.284
 0.366 -0.767 -0.178
 0.135  0.652 0.0212
 0.394  0.329 -0.230
-0.0148  0.526 -0.451
-0.235  0.651  0.390
 0.394  0.109 -0.270
 0.394 -0.559  0.336
0.000913 -0.654  0.401
0.0403 -0.764 -0.451
-0.487 -0.371  0.402
-0.0699  0.652 -0.0810
-0.196  0.384  0.401
-0.282 -0.158  0.401
-0.502 -0.162  0.159
 0.394  0.494  0.139
-0.502 -0.263  0.113
-0.499  0.518 -0.141
 0.394 -0.127 -0.403
-0.502 0.0198 0.0970
 0.394  0.109  0.210
-0.392  0.652  0.351
0.000913 -0.378  0.401
-0.0699  0.196  0.401
 0.241 -0.781  0.303
 0.394 -0.717  0.202
-0.188 0.0541 -0.451
-0.502  0.201 -0.0365
 0.142  0.408 -0.451
-0.311 -0.677  0.342
 0.394  0.251 -0.120
-0.384  0.620 -0.451
0.0638 0.0148 -0.451
-0.418 -0.539  0.143
 0.394 -0.135  0.320
-0.227  0.494 -0.451
-0.0856 -0.166  0.401
 0.308 -0.158 -0.451
 0.395 -0.764  0.358
-0.419 -0.563  0.335
 0.394  0.424  0.344
-0.112 -0.779 -0.0522
0.0717  0.652 -0.411
 0.394  0.636 -0.380
 0.315 -0.418  0.401
 0.111  0.652  0.383
 0.205 -0.410 -0.451
 0.158 0.0934  0.401
 0.394 -0.0324 0.0605
0.0795  0.203 -0.451
 0.166 -0.229  0.401
 0.394  0.243 0.0526
 0.394 -0.677 -0.364
-0.266  0.518  0.401
-0.439 -0.182 -0.451
 0.355 -0.316 -0.451
-0.502 -0.209  0.324
 0.105 -0.779  0.236
-0.502 -0.00247  0.279
-0.500  0.250 -0.388
 0.182  0.652  0.296
 0.142 -0.575  0.401
-0.502 -0.271 0.00279
 0.189 -0.777  0.402
 0.378  0.455 -0.451
 0.315 -0.284  0.401
 0.394  0.125 0.0448
 0.394 -0.0167 -0.113
-0.361  0.101  0.401
 0.308 -0.496 -0.451
-0.00692  0.164 -0.451
-0.392  0.314 -0.451
-0.00694 0.0226  0.401
-0.196 -0.0875 -0.451
 0.253  0.652 -0.0732
-0.245 -0.774 -0.323
-0.502  0.193 0.0735
-0.251  0.652 -0.0650
-0.432 -0.371 -0.451
 0.395 -0.764 0.0133
-0.0140 -0.779 -0.0976
-0.120 -0.779 0.0656
-0.500  0.571  0.335
-0.376  0.652 0.0526
-0.416 -0.709  0.401
-0.101 -0.323 -0.451
 0.253  0.329 -0.451
-0.148 -0.504  0.401
-0.501 0.0894  0.368
 0.237 -0.0953 -0.451
-0.424  0.416  0.401
-0.502 -0.0981 0.0735
-0.408 -0.253  0.401
 0.394 -0.591 -0.207
-0.141 -0.693  0.401
 0.103 -0.559 -0.451
-0.439 -0.0717  0.401
-0.502 -0.137 -0.0365
 0.394 -0.512 -0.364
 0.394  0.117  0.328
 0.347  0.652 -0.0181
-0.500 -0.117 -0.387
-0.502 -0.343  0.190
 0.394  0.266  0.359
 0.394 -0.433  0.304
-0.109  0.652 0.0998
0.0560  0.471  0.401
 0.394 -0.693 -0.246
0.0324  0.652  0.194
 0.170 -0.781 0.0879
 0.394  0.235  0.194
-0.306  0.652  0.108
 0.394  0.589 -0.254
-0.141  0.652 -0.277
-0.196  0.652 0.0684
 0.182  0.510 -0.451
 0.394 -0.378 -0.0260
-0.141 -0.245 -0.451
-0.0620  0.337  0.401
 0.142 -0.119 -0.451
 0.394  0.439 -0.152
0.0676 -0.779 0.0250
 0.288 -0.774 0.0243
-0.502  0.434  0.351
 0.308 -0.504  0.401
-0.243 -0.386  0.401
 0.394 -0.198 -0.348
 0.174 -0.0324  0.401
-0.282 -0.339 -0.451
 0.300 -0.583 -0.451
-0.314 -0.646 -0.451
0.0481  0.353 -0.451
-0.314 -0.0717  0.401
-0.503 -0.124 -0.259
-0.0856  0.259 -0.451
-0.101  0.416  0.401
 0.394 0.0226 -0.270
-0.146 -0.778  0.376
-0.499  0.570 0.0450
-0.502 -0.295  0.292
-0.503  0.144 -0.259
-0.274  0.652 -0.372
-0.502 0.0500  0.198
 0.276  0.384  0.401
-0.298  0.652 -0.246
 0.253  0.652 -0.341
 0.394 -0.182  0.178
-0.376  0.203  0.401
 0.308 0.0856  0.401
-0.290 -0.559  0.401
-0.00692 -0.0324 -0.451
-0.00692 -0.599 -0.451
-0.125  0.652  0.218
 0.150 -0.355  0.401
 0.253  0.156 -0.451
-0.502  0.315 -0.261
 0.394  0.416 -0.254
 0.308 -0.669 -0.451
 0.394 -0.198 0.0133
 0.315  0.652  0.178
 0.394 -0.0324  0.194
 0.394  0.101 -0.0889
-0.497  0.592 -0.0569
0.0289 -0.779  0.175
-0.172 -0.575 -0.451
-0.502  0.168  0.213
-0.487 -0.308 -0.451
 0.198 -0.276 -0.451
 0.394  0.557 -0.168
 0.284  0.652 -0.238
-0.0305  0.652 -0.00241
-0.148 -0.111  0.401
 0.394  0.274 -0.0260
-0.439  0.652 -0.388
 0.394 -0.677  0.108
-0.266  0.652  0.218
-0.502  0.287 -0.0523
-0.500  0.545  0.184
-0.117  0.605 -0.451
-0.172 -0.709 -0.451
 0.142 -0.669 -0.451
 0.260 -0.0167 -0.451
0.00880 -0.300 -0.451
-0.408 -0.481 -0.451
-0.361 -0.0639 -0.451
 0.394  0.298 -0.309
 0.394 -0.559 0.0133
-0.502  0.420  0.151
 0.355 -0.150  0.401
 0.323  0.573  0.401
-0.306 -0.559 -0.451
-0.455 0.0541 -0.451
-0.0541 -0.504  0.401
 0.394 -0.0246  0.383
 0.127  0.652 -0.0889
 0.324 -0.774  0.156
 0.308 -0.693  0.401
 0.292 -0.418 -0.451
 0.394 -0.418 -0.238
-0.416  0.455 -0.451
 0.394 -0.316 -0.136
-0.203 -0.433 -0.451
-0.432  0.652  0.266
-0.0495 -0.779  0.324
 0.394  0.416  0.147
 0.174  0.652  0.218
 0.245 -0.111  0.401
 0.394 -0.316 0.0526
-0.0699 0.0856  0.401
 0.394 -0.111 -0.270
-0.400  0.652 -0.136
-0.172  0.652 -0.0653
 0.119 -0.740  0.401
 0.152 -0.780 -0.141
 0.268 -0.229 -0.451
 0.394 -0.709 -0.0496
-0.487  0.652 -0.215
-0.180  0.581  0.401
 0.394  0.526 -0.0103
-0.298  0.337  0.402
-0.274  0.377 -0.451
 0.355  0.652 0.0762
-0.251  0.652  0.304
-0.204 -0.777 -0.196
-0.502  0.189  0.351
 0.394 -0.347  0.139
 0.392  0.492  0.399
-0.463 -0.606 -0.451
 0.198  0.652 0.0762
-0.0698  0.471 -0.451
-0.447  0.589  0.402
-0.500 -0.676 -0.387
0.0953 -0.158  0.401
 0.363  0.235 -0.451
-0.00692 -0.677 -0.451
-0.141  0.439 -0.451
-0.416 -0.764 -0.451
0.0481 -0.0560  0.401
-0.117 -0.339  0.401
-0.219 -0.284 -0.451
-0.266 -0.119 -0.451
 0.127  0.652 -0.215
-0.501  0.529  0.269
-0.502 -0.216 -0.0601
-0.502 -0.0581  0.356
-0.499 -0.697  0.402
0.0272 -0.779  0.330
-0.488  0.652  0.319
0.0324  0.581  0.401
-0.00179 -0.779 0.0656
 0.150 -0.481  0.401
-0.243  0.447  0.401
-0.424 0.0305  0.401
 0.394  0.408 -0.0496
 0.394  0.526 0.0684
0.000913 -0.261  0.401
0.0245  0.345  0.401
-0.306  0.188 -0.451
 0.394 -0.198 -0.0653
0.00879  0.652  0.281
-0.439  0.384 -0.451
 0.394 -0.465 -0.0968
-0.337  0.652  0.194
 0.150  0.652 -0.341
 0.174  0.589 -0.451
 0.394  0.439 -0.372
 0.394  0.298 -0.419
-0.235  0.652 -0.191
0.0874 -0.520  0.401
 0.370  0.628 -0.451
 0.394 -0.284  0.351
 0.394 0.0148 -0.364
 0.205 -0.717 -0.451
 0.315  0.494 -0.451
-0.274 -0.457 -0.451
-0.298 0.0541 -0.451
-0.141 -0.142 -0.451
-0.290 -0.717  0.401
-0.502  0.295  0.324
-0.488  0.649  0.190
 0.331 0.00689  0.401
0.0363 -0.774 -0.371
-0.481 -0.444  0.314
-0.501  0.488 0.0396
-0.298 -0.433  0.401
-0.424 -0.433  0.401
-0.105 -0.779  0.183
-0.471 -0.528 -0.451
 0.127  0.266  0.401
-0.211  0.565 -0.451
-0.0934 0.0384 -0.451
-0.0305 -0.449 -0.451
 0.394 -0.583 0.0841
 0.394 -0.512 -0.270
 0.103  0.494 -0.451
0.000923  0.652 -0.0968
 0.394 -0.630 -0.0732
-0.125  0.321 -0.451
0.000913 -0.457  0.401
 0.394  0.180 -0.333
-0.227 -0.245  0.401
-0.400 -0.685 -0.451
 0.245  0.620 -0.451
 0.213 -0.559  0.401
-0.408  0.652 -0.285
0.0717 -0.591  0.401
 0.172 -0.779  0.278
-0.463 -0.551  0.401
-0.447  0.314  0.401
 0.370 -0.544  0.401
 0.378 -0.512 -0.451
-0.487  0.211 -0.451
 0.394 -0.599 -0.372
 0.292  0.211  0.401
 0.394 -0.205  0.312
 0.308  0.424 -0.451
 0.394  0.581 -0.325
 0.394  0.644 -0.191
-0.321  0.652 -0.443
-0.101 -0.559 -0.451
-0.500 -0.511 -0.387
 0.394 -0.512  0.171
-0.0305  0.652 -0.168
-0.0384  0.652 0.0998
 0.394 -0.0560 -0.403
-0.502 0.0303 -0.129
-0.0620  0.266  0.401
0.00878  0.203  0.401
 0.394 -0.402 -0.380
 0.198  0.101 -0.451
-0.439  0.652 0.0841
 0.355 -0.614  0.401
 0.213  0.266 -0.451
-0.172  0.196 -0.451
 0.394 -0.0717  0.289
 0.245  0.652  0.328
 0.213 -0.386  0.401
-0.187 -0.758 0.0755
-0.481 -0.430 0.0547
-0.502  0.443 -0.0139
 0.176  0.652 -0.0397
-0.502  0.308  0.235
 0.394  0.612  0.226
 0.385  0.604  0.401
-0.424 -0.779  0.401
-0.0856  0.652 -0.317
-0.502  0.287  0.120
0.0481 -0.709  0.401
 0.394 -0.701  0.312
 0.394  0.345  0.194
-0.337 -0.198  0.401
-0.0541 -0.693  0.401
-0.416 -0.323  0.401
 0.174  0.502  0.401
-0.447  0.266 -0.451
 0.394 -0.127 -0.136
 0.395 -0.0947  0.396
-0.500 -0.440 -0.387
-0.487 -0.237 -0.451
 0.394  0.109 -0.443
 0.394 -0.0957 0.0136
 0.394 -0.166 -0.199
-0.306  0.227  0.401
 0.370  0.652 -0.0810
-0.298  0.652  0.367
 0.394  0.361 0.0919
-0.0384 -0.536 -0.451
0.0638 -0.363 -0.451
 0.394 -0.174  0.249
 0.292 -0.355  0.401
 0.394 -0.253 -0.238
 0.127 0.0384 -0.451
0.0324 -0.237 -0.451
 0.394 -0.583  0.249
 0.394 -0.433  0.123
 0.147 -0.780  0.151
 0.287 -0.781  0.211
 0.394  0.510  0.304
0.0560 0.0856  0.401
 0.394 -0.0403 -0.238
 0.394 -0.245 0.0605
-0.353 -0.229 -0.451
 0.245 -0.465 -0.451
-0.227  0.314 -0.451
-0.502 -0.0626  0.250
-0.274 -0.756 -0.451
-0.495 -0.135 -0.451
-0.502 -0.123  0.213
-0.0560 -0.777 -0.197
 0.332 -0.770 0.0873
 0.394 -0.402  0.367
 0.395 -0.764 -0.120
-0.432  0.125 -0.451
-0.495 -0.386 -0.451
 0.302 -0.781  0.340
 0.394  0.557  0.155
 0.394 0.0305  0.336
 0.394 -0.127 -0.333
 0.253  0.471  0.401
 0.205 -0.575 -0.451
0.0717  0.652  0.328
-0.251  0.101 -0.451
-0.141 -0.253  0.401
-0.188  0.652  0.234
 0.394 0.0462 0.0369
0.0324  0.612 -0.451
-0.463 -0.0167 -0.451
0.0402  0.652  0.123
-0.502  0.350  0.105
 0.394 -0.0953  0.163
-0.447  0.652 -0.0732
-0.0305  0.597  0.401
 0.323  0.565 -0.451
-0.314 -0.339  0.401
-0.314  0.652 -0.309
-0.211  0.652 -0.388
-0.502 -0.196  0.250
 0.395 -0.764 -0.238
-0.0778  0.652 -0.403
 0.394  0.589  0.289
 0.348 -0.770  0.402
-0.502  0.152  0.299
 0.395 -0.765 -0.367
 0.347  0.259  0.401
 0.394 -0.339  0.202
 0.394  0.125 -0.207
-0.487  0.463 -0.451
 0.394  0.259 -0.191
-0.0348 -0.779  0.206
 0.119  0.636 -0.451
0.0874 -0.363  0.401
-0.164 -0.512 -0.451
 0.370  0.125  0.401
0.0953 -0.489 -0.451
-0.369 -0.363 -0.451
0.0874  0.652 -0.348
0.0403 -0.174 -0.451
 0.394  0.471 -0.285
 0.127  0.439  0.401
 0.394  0.384 -0.199
 0.394  0.235  0.116
 0.394 -0.0246 -0.175
 0.394 -0.0560 -0.0575
 0.394  0.180 -0.0889
-0.502 -0.357 0.00279
-0.188 -0.418  0.401
 0.245 -0.245  0.401
 0.150 -0.378 -0.451
-0.314 -0.654  0.401
 0.315  0.306 -0.451
 0.386 -0.371 -0.450
 0.394  0.329 -0.0575
-0.0305  0.314 -0.451
 0.276 -0.0246  0.401
-0.188  0.636 -0.451
 0.394  0.376  0.273
-0.502  0.240 0.0185
-0.101  0.502  0.401
0.0560  0.290 -0.451
-0.227 -0.669  0.401
 0.221  0.101  0.401
-0.439 0.0934  0.401
 0.111  0.652  0.186
0.0481  0.652 -0.230
 0.174 -0.630  0.401
 0.394  0.180 -0.411
 0.190  0.251  0.401
 0.394 -0.709 0.0448
-0.502 -0.0351 0.0656
0.0292 -0.779 -0.0370
 0.392 -0.669 -0.448
-0.314  0.652 -0.0575
-0.502 0.0907 0.0813
 0.394 -0.654 -0.301
-0.369 -0.559  0.401
-0.502 0.0436 -0.0129
 0.158 0.0305  0.401
 0.394 -0.316 -0.0732
 0.394 0.0462 -0.120
-0.282  0.101  0.401
 0.292  0.148  0.401
 0.331 -0.229 -0.451
0.0339  0.652 -0.299
-0.502  0.403  0.213
-0.502  0.481  0.166
 0.182 -0.780 -0.0561
-0.275 -0.777  0.402
-0.439  0.243  0.401
 0.394  0.502 -0.411
 0.334 -0.767 -0.309
-0.294 -0.666  0.176
 0.130 -0.780 0.0405
-0.502 0.00551  0.341
 0.394  0.361 -0.411
-0.376  0.376  0.401
 0.208 -0.781  0.142
-0.290 0.00689  0.401
-0.133  0.156  0.401
-0.502  0.342 -0.00516
-0.321 -0.0167 -0.451
0.0717  0.652 0.0212
 0.103 -0.0324 -0.451
-0.101  0.652 -0.191
 0.150 -0.237 -0.451
 0.394 -0.433 -0.168
 0.394  0.518 -0.120
 0.276  0.612  0.401
 0.394 -0.276 -0.396
 0.315  0.652  0.296
-0.329 -0.300 -0.451
 0.190  0.573  0.401
-0.274  0.455 -0.451
-0.0777  0.557 -0.451
-0.0227 -0.150  0.401
 0.308 0.0305 -0.451
-0.0934 -0.182 -0.451
 0.393 -0.766  0.238
-0.216 -0.757  0.343
-0.502 -0.351  0.346
 0.385  0.408  0.401
 0.308 -0.774 -0.117
 0.394 -0.433  0.241
-0.502 -0.382  0.144
 0.394  0.337  0.344
-0.356  0.647  0.399
-0.0148 -0.740  0.401
 0.174  0.376  0.401
 0.103 -0.0796  0.401
 0.308  0.652 -0.0968
0.0481  0.141 -0.451
 0.190 0.0384 -0.451
-0.243  0.652 -0.128
 0.276  0.652 0.0762
-0.0698  0.164 -0.451
-0.164 -0.000960 -0.451
0.0245 -0.426 -0.451
-0.00692 -0.103 -0.451
 0.394 -0.0324 -0.00241
-0.424  0.652  0.202
-0.235  0.243 -0.451
 0.198  0.353 -0.451
 0.315 0.0934 -0.451
-0.361 -0.300  0.401
-0.439 -0.654  0.401
 0.394  0.487  0.218
-0.133 -0.378 -0.451
 0.394  0.400 0.0212
0.0717  0.652 -0.113
-0.125  0.361  0.401
-0.0541 -0.355  0.401
 0.394  0.321 -0.364
 0.142 -0.284  0.401
-0.345  0.652 -0.00241
 0.394  0.196  0.351
 0.395 -0.764  0.166
-0.164  0.652 -0.223
 0.331 -0.740 -0.451
-0.463 -0.198  0.401
-0.503 -0.0944  0.401
-0.0118 -0.770 -0.426
-0.148  0.652  0.359
 0.227 -0.780 0.0600
-0.243 -0.701 -0.451
 0.394  0.628 -0.136
-0.0541 -0.0246  0.401
 0.394 0.0226  0.178
 0.394 -0.0167  0.116
-0.502 -0.0822 -0.0522
-0.502  0.122 -0.0522
0.0481 -0.575 -0.451
 0.323  0.329  0.401
-0.306 -0.504  0.401
-0.353  0.479 -0.451
 0.394  0.259  0.265
0.0481  0.510 -0.451
-0.504  0.579  0.398
 0.111  0.652 -0.0339
0.0402  0.400  0.401
-0.117 -0.685 -0.451
-0.384 -0.0875  0.401
 0.363 -0.142 -0.451
-0.203 -0.127  0.401
-0.290 -0.402 -0.451
 0.394  0.180  0.210
-0.211  0.439 -0.451
-0.321  0.534  0.401
 0.394 -0.559 -0.152
 0.150 -0.174  0.401
-0.502 -0.200 0.0970
-0.235  0.652 -0.0103
 0.394 -0.653  0.343
-0.502 -0.114  0.128
-0.188 -0.559  0.401
 0.394  0.196 -0.199
-0.0305 -0.213  0.401
-0.00694  0.298  0.401
0.0245 -0.323  0.401
-0.0777  0.652  0.249
 0.394  0.620 -0.0339
-0.0541 -0.292 -0.451
-0.219  0.321  0.401
 0.394 -0.363 -0.191
-0.369  0.565 -0.451
 0.394 -0.284 -0.191
 0.394 -0.512  0.304
 0.135  0.235 -0.451
 0.111  0.361 -0.451
 0.260 -0.528 -0.451
-0.345  0.463  0.401
-0.0620  0.652 0.0448
-0.133  0.549  0.401
-0.0227  0.652  0.234
0.0560  0.164  0.401
-0.0384  0.416 -0.451
-0.306 -0.198 -0.451
-0.502 -0.106 0.0107
 0.229  0.353  0.401
 0.260 -0.724  0.401
-0.361 -0.685  0.401
-0.211 0.0934  0.401
-0.345  0.652 -0.120
-0.251  0.211  0.401
 0.135  0.172 -0.451
 0.158 -0.606 -0.451
-0.502  0.113  0.198
-0.501  0.308  0.382
-0.502  0.489  0.337
-0.501 -0.414  0.368
-0.243  0.597  0.401
-0.499  0.135  0.401
0.000923  0.652 -0.403
-0.439  0.651  0.390
-0.502  0.286  0.183
 0.125 -0.780 -0.0204
0.0481 -0.709 -0.451
-0.141 0.0383  0.401
-0.0777  0.109 -0.451
-0.0541  0.652  0.359
-0.432 -0.504  0.401
 0.229  0.652 -0.403
 0.174  0.455 -0.451
 0.339  0.510  0.401
0.000913  0.479  0.401
-0.447  0.487  0.401
 0.394 0.0541 -0.325
0.0324 -0.135  0.401
 0.394 -0.237 -0.309
 0.166 -0.449 -0.451
 0.394 -0.292 -0.278
-0.266 -0.599 -0.451
-0.101 -0.654  0.401
 0.205 -0.158  0.401
 0.182 -0.0796 -0.451
 0.394 -0.426 -0.0575
-0.141 -0.0796 -0.451
 0.394  0.447 -0.0103
 0.394  0.117 -0.0103
-0.109  0.652  0.163
-0.0541 -0.000960 -0.451
-0.0777 -0.0796  0.401
 0.142 -0.410  0.401
-0.251  0.392  0.401
 0.237  0.211 -0.451
 0.394 -0.355  0.336
 0.394  0.644  0.336
-0.502 -0.384  0.228
-0.0934  0.652 -0.136
 0.394 -0.473 0.0605
 0.245  0.494 -0.451
 0.394 -0.662  0.194
 0.323 -0.229  0.401
-0.266  0.542 -0.451
 0.394 -0.331 -0.411
-0.00694  0.652 -0.223
 0.182  0.156  0.401
-0.502  0.419  0.291
-0.502  0.451 0.0960
 0.219 -0.779  0.355
-0.487  0.652 -0.0342
-0.0569 -0.779 0.0813
-0.502  0.222  0.221
-0.502 -0.224  0.152
-0.172 -0.764 -0.451
 0.394 -0.268  0.194
 0.394  0.117  0.131
 0.395 -0.764 -0.0418
-0.180  0.141 -0.451
-0.0535 -0.779  0.257
-0.0698 -0.378 -0.451
-0.502 -0.0956 -0.129
-0.502 -0.216 -0.00506
 0.394 -0.496 -0.144
-0.432 -0.426 -0.451
-0.384  0.565  0.401
 0.394  0.164 -0.270
-0.503 -0.399 -0.259
-0.293 -0.666 0.0201
-0.117  0.196 -0.451
-0.0569 -0.779 -0.0523
0.0166  0.652  0.336
-0.501 -0.318  0.391
 0.174 -0.724  0.401
 0.394 -0.166  0.367
-0.502 -0.313  0.236
-0.489  0.635 -0.345
-0.112 -0.779  0.324
-0.500  0.551 -0.00603
 0.276 -0.717 -0.451
0.0995 -0.779  0.182
-0.494  0.626 0.0674
-0.499  0.451  0.402
-0.487  0.196  0.402
 0.394  0.628 -0.293
-0.502 0.00207  0.221
-0.497  0.598  0.185
-0.369  0.652 -0.411
-0.502  0.384  0.334
-0.502 -0.311  0.136
-0.164  0.652  0.131
 0.229 -0.764 -0.451
-0.125  0.652 -0.0889
-0.0463 -0.622  0.401
 0.394 -0.685 -0.0968
 0.221  0.652 -0.207
 0.394  0.282 -0.254
-0.156  0.243  0.401
 0.308 -0.355 -0.451
 0.166  0.652  0.147
 0.158  0.652  0.344
 0.150  0.652 -0.262
 0.394 -0.378 -0.333
-0.416  0.652 -0.341
0.0560  0.628  0.401
 0.394 -0.654 0.0605
 0.394 -0.0796 -0.113
-0.0934  0.416 -0.451
 0.394 -0.599 -0.0260
-0.0777  0.652 -0.0260
-0.0463  0.148  0.401
 0.300 -0.143  0.401
-0.502  0.154 0.0264
 0.394 -0.520 -0.0496
-0.392 -0.158 -0.451
 0.229 -0.622  0.401
 0.394  0.298  0.218
 0.394 -0.292  0.273
 0.394 0.0934 -0.160
 0.284  0.652 -0.183
 0.394  0.306 -0.144
 0.394 0.0698 -0.230
-0.141 -0.394  0.401
-0.353  0.235 -0.451
-0.392  0.408 -0.451
 0.339  0.652  0.131
 0.394 -0.748  0.289
 0.199  0.652 0.0236
 0.151 -0.780  0.210
-0.502 -0.287 0.0656
-0.502  0.240 0.0970
 0.272 -0.780  0.158
 0.394 -0.606  0.312
-0.502  0.169  0.159
-0.424 -0.594  0.377
 0.378 -0.0403 -0.451
-0.502 -0.158  0.335
-0.499  0.564  0.125
 0.326 -0.769 -0.408
0.0928 -0.779  0.286
 0.395  0.228  0.396
 0.351 -0.771  0.209
 0.363  0.652  0.234
-0.502 -0.267  0.351
 0.355  0.652 -0.223
-0.502 -0.246  0.279
-0.400  0.620  0.401
 0.394  0.550 -0.372
 0.386  0.652 0.0140
 0.111  0.605  0.401
 0.145 -0.778  0.376
-0.335 -0.770 -0.419
0.0167  0.101 -0.451
-0.447  0.652 -0.246
-0.329 0.0619  0.401
-0.274  0.652  0.147
0.0795 0.0698 -0.451
 0.394 -0.363 -0.278
 0.339 -0.544 -0.451
-0.266 -0.213  0.401
 0.394 0.0856 0.0841
-0.219  0.549  0.401
 0.394 -0.544  0.210
 0.394 -0.457 -0.270
-0.447 -0.284  0.401
 0.111 -0.245  0.401
 0.394 -0.559 -0.341
-0.361  0.353 -0.451
 0.339 -0.465  0.401
-0.0541 -0.449  0.401
-0.0462 -0.630 -0.451
 0.394 -0.599 -0.113
-0.0384  0.227 -0.451
-0.125 -0.198  0.401
-0.0620  0.447  0.401
 0.394 -0.339 0.00545
-0.0462 -0.709 -0.451
 0.394  0.235 -0.0575
 0.213 -0.0639  0.401
-0.180  0.133  0.402
 0.119 0.0619  0.401
 0.394 -0.0167  0.312
-0.0698 -0.496 -0.451
-0.117 -0.465  0.401
-0.502 -0.0542  0.305
0.000923  0.652 -0.0417
 0.394  0.581 -0.412
-0.502 0.0513 0.0499
 0.394 -0.630 -0.238
 0.394  0.479  0.344
 0.260 -0.662  0.401
-0.227 -0.386 -0.451
-0.227 -0.528  0.401
 0.394 -0.221 -0.199
 0.190 -0.512  0.401
 0.394  0.549 -0.285
 0.347 -0.378  0.401
-0.290  0.597 -0.451
-0.188  0.652 -0.120
 0.213 -0.0403 -0.451
 0.394 -0.0953 -0.443
-0.502 -0.0118  0.136
-0.502 0.0590  0.128
-0.502 0.0476  0.250
-0.353  0.652  0.124
 0.394 -0.473  0.202
 0.290 -0.781  0.261
 0.221  0.652  0.234
-0.156 -0.646  0.401
 0.310  0.653  0.228
 0.182  0.652 -0.113
 0.394 -0.0639 0.0998
 0.142  0.219  0.401
 0.245 -0.378 -0.451
 0.394 -0.693  0.155
 0.127 -0.166 -0.451
 0.284  0.652  0.131
 0.394  0.133 -0.317
 0.394 -0.465 -0.380
-0.384 -0.638 -0.451
 0.394  0.156 0.0841
 0.127  0.652  0.234
 0.268  0.652  0.194
 0.394  0.400 -0.105
0.0403 -0.0481 -0.451
-0.125 -0.0560  0.401
-0.0384 -0.551  0.401
-0.00694  0.652  0.155
 0.119 -0.0324  0.401
-0.447 -0.150  0.401
-0.117  0.211  0.401
 0.394 -0.512 0.0290
0.000932  0.573 -0.451
-0.432  0.534  0.402
-0.353 -0.245  0.401
-0.251 0.0384 -0.451
 0.394  0.581 0.0841
 0.394 -0.284 0.0919
-0.0934 -0.260 -0.451
 0.268 -0.402  0.401
 0.300  0.196 -0.451
 0.394 -0.701  0.249
-0.290 -0.504 -0.451
 0.158 -0.677  0.401
-0.384  0.101 -0.451
-0.148  0.652 0.0526
 0.394 -0.198  0.131
-0.447  0.581 -0.451
 0.237  0.266  0.401
-0.345 -0.449  0.401
 0.394  0.400  0.194
-0.439  0.369  0.401
-0.502 -0.287 -0.0444
 0.394 -0.174 -0.120
-0.0963 -0.779  0.120
 0.394 -0.197 0.0761
 0.248 -0.777 -0.0643
0.00342 -0.778  0.376
-0.503 -0.521  0.400
-0.0148  0.652 -0.293
 0.363 -0.630 -0.451
 0.329 -0.772 -0.0278
 0.239 -0.777 -0.153
-0.424  0.649 -0.448
-0.125  0.652 -0.443
-0.180  0.650  0.396
 0.394 0.0541 -0.411
-0.502 -0.178  0.206
0.000186 0.0148 -0.457
 0.394 -0.158 0.0444
 0.371  0.651  0.390
-0.487  0.652  0.264
 0.395 -0.724  0.396
-0.502  0.451 -0.0613
-0.251  0.652 -0.238
 0.245  0.377 -0.451
-0.479  0.416 -0.451
-0.211 -0.229 -0.451
 0.394  0.424 0.0998
-0.211  0.487  0.401
-0.400 -0.528 -0.451
-0.498  0.615  0.361
-0.235 -0.000979  0.401
-0.180  0.510 -0.451
 0.386  0.408 -0.450
 0.378 -0.300  0.401
-0.125 -0.740 -0.451
-0.259  0.652 0.0998
0.0560  0.227  0.401
-0.479 -0.662 -0.451
-0.329  0.172  0.401
-0.361  0.652 -0.293
-0.196 0.0383  0.401
-0.447  0.652  0.139
 0.315 -0.551  0.401
 0.221 -0.0167  0.401
 0.323 -0.0167 -0.451
 0.394 -0.000969 -0.317
-0.203 -0.0403 -0.451
-0.502 -0.0587 0.0185
 0.323 -0.111 -0.451
0.000913  0.542  0.401
 0.394 -0.245 -0.0575
 0.394  0.290 0.0369
0.00878 -0.591  0.401
 0.394 0.0148 -0.223
 0.135 -0.0717 -0.451
0.000913  0.251  0.401
 0.260 -0.166 -0.451
-0.487  0.652 -0.396
 0.339 -0.331  0.401
-0.502  0.138 0.0735
 0.394  0.298 0.0919
-0.314  0.274  0.401
 0.394 0.0619  0.218
 0.315  0.612 -0.451
 0.394 -0.567  0.155
-0.180 -0.654 -0.451
-0.353 -0.677 -0.451
 0.394 -0.504 -0.317
-0.227 -0.182  0.401
 0.166 -0.323 -0.451
-0.321 -0.386  0.401
-0.439 -0.323 -0.451
-0.471  0.408  0.401
-0.502  0.188  0.265
-0.502  0.334 -0.0602
 0.363  0.652 -0.348
 0.236 -0.777  0.402
-0.447 -0.135 -0.451
-0.189 -0.776  0.402
 0.394  0.369 -0.262
0.0560  0.518  0.401
-0.219 -0.575 -0.451
 0.363 -0.190 -0.451
-0.499 0.0494  0.402
-0.00209 -0.779  0.136
-0.259 -0.0639 -0.451
-0.0227  0.369 -0.451
-0.495 -0.0875 -0.451
 0.135  0.652 0.0684
-0.0777  0.314 -0.451
-0.141 -0.599  0.401
-0.117  0.369 -0.451
-0.439  0.652 0.0212
 0.394 0.0148  0.226
-0.235 -0.308  0.401
-0.495 0.0934 -0.451
 0.394 -0.544 -0.207
 0.198 -0.229 -0.451
 0.276  0.337  0.401
-0.141  0.652 -0.341
 0.394 -0.701 -0.301
 0.190  0.408 -0.451
-0.502 -0.232 0.0421
0.0953  0.337  0.401
 0.394  0.259  0.312
 0.394  0.432 -0.199
-0.471 -0.433  0.401
 0.394  0.117  0.281
 0.363  0.652  0.178
-0.274  0.314 -0.451
-0.251 -0.182 -0.451
 0.205  0.156 -0.451
 0.127  0.652 -0.168
-0.500 -0.629 -0.387
 0.119  0.494  0.401
-0.392  0.266 -0.451
-0.361 -0.481 -0.451
 0.244 -0.781  0.238
 0.221  0.652 -0.0260
 0.394 -0.347 0.0919
-0.369 -0.732  0.401
-0.502  0.100  0.318
-0.502 -0.0455  0.401
-0.502  0.533  0.364
 0.392  0.650  0.106
-0.496  0.561 -0.158
-0.439  0.652  0.344
0.0925 -0.777  0.393
-0.500 -0.0143 -0.386
 0.347 -0.779  0.350
-0.108 -0.770  0.402
-0.502  0.363  0.235
 0.395 -0.764 0.0604
-0.329  0.652 0.0448
 0.394  0.463 -0.333
 0.141 -0.780 -0.0752
-0.495 0.0305 -0.451
-0.490  0.611 -0.236
-0.148 -0.331 -0.451
-0.0804 -0.779 -0.0129
 0.394  0.463  0.178
0.0875  0.416 -0.451
 0.213  0.652 -0.317
 0.284  0.652 -0.380
-0.314  0.353 -0.451
-0.180 -0.371  0.401
 0.237  0.589  0.401
 0.119 -0.709 -0.451
 0.394  0.259  0.155
-0.211 -0.481 -0.451
 0.394  0.259 -0.341
 0.315 -0.292 -0.451
-0.400  0.314  0.401
 0.394 -0.386  0.116
-0.188  0.337 -0.451
 0.111  0.274 -0.451
-0.282  0.620  0.401
-0.219 -0.127 -0.451
-0.251 -0.111  0.401
-0.337 -0.111  0.401
 0.394 0.0541  0.296
 0.394  0.203 0.0762
-0.0148 -0.190 -0.451
0.0481 -0.00884  0.401
 0.394  0.148 -0.0496
-0.0541  0.652 -0.207
-0.133  0.652  0.281
 0.394 -0.00883 -0.403
-0.235  0.652 0.0448
-0.306 -0.0953 -0.451
 0.394 0.0619 -0.0653
-0.141  0.565 -0.451
-0.502  0.240 -0.0601
-0.0856 -0.0875 -0.451
-0.156 -0.418 -0.451
 0.394  0.487 0.0919
-0.164 -0.284 -0.451
0.0167  0.314 -0.451
 0.394  0.203 -0.128
 0.347 -0.717  0.402
-0.369  0.652  0.249
-0.314  0.652 -0.396
-0.353  0.290 -0.451
-0.392  0.502 -0.451
 0.135  0.141  0.401
 0.190  0.652 -0.364
0.0481 -0.386  0.401
 0.198 0.0619  0.401
 0.150 0.0856 -0.451
-0.141  0.455  0.401
-0.290  0.479  0.401
 0.394 -0.709 -0.183
 0.394 -0.418 0.0212
 0.394  0.534  0.116
0.0560 -0.481  0.401
-0.337 -0.606 -0.451
-0.353  0.652  0.328
 0.205  0.652  0.351
 0.363 -0.253  0.401
-0.400  0.266  0.401
 0.394 -0.0875 -0.356
0.0717  0.652  0.218
-0.361 0.0541 -0.451
 0.394 -0.103 0.0762
-0.502 -0.145 0.0656
 0.347  0.652 -0.396
 0.276  0.432  0.401
 0.355 0.0698 -0.451
-0.502 -0.326 0.0421
-0.502  0.234  0.341
-0.498  0.587  0.291
-0.408  0.652  0.304
 0.394 -0.496  0.351
-0.492  0.637 -0.0770
-0.501 -0.225  0.368
-0.502 -0.405  0.324
-0.502 -0.149  0.250
-0.502 0.0113  0.175
-0.211  0.652  0.351
-0.502  0.145  0.346
 0.394 -0.449  0.351
-0.502  0.528  0.314
 0.394 -0.363 -0.0889
-0.172  0.652 -0.309
-0.219  0.243  0.401
 0.229  0.400  0.401
 0.394 -0.544 -0.396
 0.394 -0.559 -0.270
 0.292  0.542  0.401
 0.394 -0.229 -0.380
 0.394  0.141  0.241
-0.282  0.652  0.273
 0.394 -0.237  0.344
0.0875 -0.135 -0.451
-0.392 -0.0953 -0.451
 0.394  0.219 0.00545
-0.0777  0.565  0.401
-0.392 -0.0324 -0.451
-0.408 -0.0403  0.401
 0.229 0.0148 -0.451
-0.0384  0.133 -0.451
-0.0305 -0.410  0.401
 0.284  0.652 -0.0103
-0.0384  0.227  0.401
-0.180 -0.0796  0.401
 0.394 -0.150 -0.0810
-0.502 0.0121 -0.0444
 0.300 0.0383  0.401
-0.484  0.652  0.102
-0.455  0.494 -0.451
 0.276  0.463 -0.451
-0.274  0.565  0.401
 0.370 -0.433  0.401
0.0875  0.321 -0.451
 0.119 -0.268 -0.451
-0.502 0.0750 -0.0444
 0.347 -0.402 -0.451
0.0795 -0.740 -0.451
0.0672 -0.779  0.213
-0.502  0.412 0.0180
-0.499  0.570  0.226
-0.109  0.652 -0.246
 0.253  0.649  0.396
-0.502  0.260  0.243
-0.501  0.503  0.204
 0.394 0.0776  0.359
 0.198  0.649 -0.448
 0.394 -0.693 -0.411
 0.183 -0.781 0.0463
-0.503 -0.569  0.401
-0.211 -0.740 -0.451
 0.394 -0.300 -0.443
-0.337  0.612 -0.451
 0.129 -0.780  0.102
 0.127  0.652 -0.411
 0.386  0.196 -0.450
0.0662 -0.777 -0.320
 0.395 -0.629  0.396
 0.394 -0.638 -0.419
-0.502 -0.307  0.335
-0.266  0.652 -0.419
-0.497  0.476 -0.412
-0.502 -0.0746  0.113
0.0481 -0.316 -0.451
0.0166 0.0698  0.401
 0.190 -0.339  0.401
 0.339 -0.654  0.401
 0.323  0.259 -0.451
 0.300  0.652  0.336
 0.394 -0.606 -0.168
 0.394 -0.599  0.202
 0.394 -0.221  0.194
0.0795 -0.245 -0.451
 0.150 -0.528 -0.451
-0.259 -0.591  0.401
 0.394  0.439  0.304
0.0403  0.243 -0.451
-0.392 -0.213 -0.451
 0.347 0.0698  0.401
 0.292 -0.630 -0.451
-0.290  0.235 -0.451
-0.392  0.164  0.401
 0.355  0.510 -0.451
 0.221  0.534 -0.451
0.0795 -0.198  0.401
 0.394  0.353 -0.0103
 0.292  0.652 -0.136
0.0638 -0.528 -0.451
 0.394  0.534 -0.0810
-0.0934  0.652  0.344
0.0324  0.400 -0.451
 0.394 -0.481 -0.427
 0.394  0.172 0.0448
-0.0148 -0.489 -0.451
-0.0305 -0.339 -0.451
 0.394 -0.127  0.265
0.0166 -0.496  0.401
 0.394  0.369 -0.0732
 0.394  0.494 0.0290
 0.394 -0.111  0.123
0.0403 -0.473 -0.451
-0.0620 -0.308  0.401
 0.292 -0.0481 -0.451
0.0245  0.652  0.241
 0.394 -0.158 -0.0339
 0.237 -0.496  0.402
 0.339  0.416  0.401
-0.447  0.652 -0.309
 0.221  0.652  0.281
 0.190 -0.363 -0.451
 0.394  0.573 -0.207
 0.229 -0.205  0.401
-0.471  0.652 -0.175
-0.188 -0.685  0.401
-0.156  0.400 -0.451
 0.394  0.321 -0.183
-0.408 -0.544  0.401
 0.394  0.361  0.155
-0.274 -0.323  0.401
 0.355  0.290 -0.451
-0.203  0.432  0.401
-0.455 -0.724  0.401
-0.314  0.652 -0.207
 0.300  0.494  0.401
 0.182 -0.268  0.401
 0.276  0.109 -0.451
 0.119 -0.622  0.401
-0.353  0.652 -0.230
-0.266 -0.300 -0.451
 0.245  0.652 -0.168
-0.400  0.652 0.0998
 0.394 -0.646 -0.199
 0.394 -0.394  0.289
-0.314  0.652  0.312
-0.384 -0.323 -0.451
-0.0541  0.400  0.401
-0.455 -0.0324  0.401
 0.158 -0.0717  0.401
-0.0148  0.361  0.401
 0.198 -0.119 -0.451
 0.394 -0.150 -0.285
-0.0777  0.620 -0.451
-0.0227  0.652  0.320
-0.203 0.0148 -0.451
 0.394 -0.135  0.178
-0.502 -0.153 0.00279
0.000932  0.211 -0.451
 0.394 -0.646 -0.113
 0.394 -0.583 -0.0732
0.0717  0.628 -0.451
-0.156 -0.449  0.401
-0.125 -0.496 -0.451
 0.394  0.455 -0.113
-0.133 -0.591 -0.451
-0.0699 -0.732  0.401
 0.394  0.510 -0.270
 0.127  0.550 -0.451
 0.246 -0.781  0.195
 0.394  0.534  0.396
-0.203  0.652 -0.238
-0.384  0.652  0.186
-0.496  0.607 -0.0174
-0.502  0.366 0.0498
 0.394 -0.00853 -0.0415
 0.395 -0.766 -0.409
-0.00972 -0.779 -0.0524
-0.502 -0.295  0.175
0.0763 -0.779  0.324
 0.365 -0.767  0.136
-0.502 0.0337  0.299
-0.502 -0.112  0.364
 0.392  0.649 0.0585
-0.502 -0.345  0.305
 0.370 -0.190  0.401
 0.394 0.0154  0.390
-0.501  0.395  0.373
-0.487  0.652  0.146
 0.151  0.651  0.390
 0.386  0.148 -0.450
-0.502 -0.0987  0.167
 0.394 -0.567  0.296
-0.502  0.381  0.143
-0.495  0.282 -0.451
0.00880  0.447 -0.451
0.0560  0.314  0.401
0.0402 -0.646  0.401
-0.101  0.306  0.401
 0.394 0.0383 0.0762
 0.135  0.463 -0.451
 0.394  0.141 -0.364
-0.439  0.203 -0.451
-0.172  0.101 -0.451
-0.109  0.101  0.401
-0.329 -0.158  0.401
-0.148 -0.300  0.401
-0.148 0.0462 -0.451
-0.0384  0.274 -0.451
 0.394 -0.0246  0.234
 0.394 -0.355 0.0448
 0.315 -0.0324  0.401
-0.125  0.479 -0.451
 0.394 -0.0639  0.328
-0.345 -0.103 -0.451
 0.394 -0.599 0.0212
-0.00694 -0.693  0.401
 0.394  0.455 -0.246
-0.408  0.172 -0.451
 0.182  0.211  0.401
-0.439 -0.669 -0.451
-0.384 -0.457  0.401
-0.447 -0.465 -0.451
-0.479 -0.662  0.401
-0.432  0.652 -0.207
 0.260  0.109  0.401
 0.111  0.652  0.336
-0.188 -0.237  0.401
 0.394  0.636 -0.254
-0.251 -0.237 -0.451
0.0403  0.565 -0.451
 0.394 -0.198 -0.301
 0.394  0.361 -0.160
-0.432 -0.221 -0.451
 0.111 -0.371 -0.451
 0.198 -0.677 -0.451
-0.290 0.0541  0.401
 0.276 -0.292  0.401
-0.345 -0.551 -0.451
-0.314  0.471 -0.451
-0.219  0.652 -0.348
-0.306 -0.614  0.401
-0.321 -0.347 -0.451
 0.394  0.605  0.186
-0.400  0.361 -0.451
 0.166 -0.174 -0.451
 0.363  0.565  0.401
 0.355  0.117 -0.451
 0.394 -0.292 -0.230
 0.205 -0.473 -0.451
-0.227 -0.347  0.401
-0.259  0.329  0.401
 0.253 -0.363  0.401
 0.331  0.156  0.401
 0.150  0.369 -0.451
 0.221 -0.323 -0.451
 0.142  0.652  0.289
-0.0620 0.0148  0.401
-0.0148 -0.316  0.401
-0.361 -0.0324  0.401
 0.394 -0.229 -0.0968
0.0245 -0.355 -0.451
 0.395  0.283  0.396
 0.394 -0.504 -0.105
0.0795  0.652 -0.160
 0.286 -0.780  0.303
 0.216 -0.781  0.103
-0.502 0.0986 0.0421
-0.164  0.353  0.401
 0.253 -0.567 -0.451
 0.308  0.652 -0.285
 0.394 -0.433 0.0684
-0.337  0.369  0.401
-0.376 -0.190  0.401
-0.243 -0.433  0.401
 0.213  0.581 -0.451
-0.282  0.416 -0.451
-0.188 -0.614 -0.451
 0.386  0.321 -0.450
 0.347  0.652  0.321
 0.394 -0.770  0.398
 0.234 -0.779 -0.0273
-0.196  0.652 -0.159
 0.394 -0.135 0.00519
-0.501 -0.187  0.382
0.0372 -0.779 0.0732
0.0298 -0.779  0.286
0.0346 -0.779  0.236
 0.394 -0.536  0.264
-0.447  0.652  0.305
-0.384  0.471  0.402
 0.363 -0.764 -0.451
0.00880  0.644 -0.450
-0.495 -0.559 -0.451
 0.174 -0.433  0.402
 0.394 0.0226 -0.0889
 0.127 -0.323  0.402
 0.394  0.211 -0.309
 0.394  0.211  0.234
 0.394  0.369  0.367
 0.221 -0.536 -0.451
-0.266  0.141 -0.451
 0.394  0.227 -0.160
 0.260 -0.662 -0.451
 0.394  0.148  0.163
 0.394 -0.544  0.123
 0.292 -0.449  0.401
-0.196  0.290  0.401
 0.268  0.589 -0.451
-0.408 0.0698  0.401
-0.274  0.652  0.336
 0.347 -0.268 -0.451
 0.237 -0.205 -0.451
-0.266 -0.544 -0.451
 0.394 -0.614  0.108
-0.345  0.251  0.401
-0.447 -0.347  0.401
0.0560  0.652  0.163
 0.347  0.652 -0.113
 0.394  0.557 -0.113
-0.0856 -0.528  0.401
-0.0462 -0.166 -0.451
-0.251 -0.0403  0.401
 0.268 -0.0796  0.401
-0.0227  0.109  0.401
0.0717  0.652 0.0998
-0.101 -0.402 -0.451
 0.127 0.00689  0.401
-0.203  0.652 0.0212
 0.394 -0.276 0.0369
 0.308  0.652 0.0526
 0.103 -0.0953 -0.451
 0.339  0.652 -0.0575
-0.148 -0.465 -0.451
 0.394 -0.284 -0.113
-0.203  0.652 -0.0339
-0.0227  0.652 -0.128
0.0245  0.652 -0.128
0.00878 -0.0639  0.401
-0.384  0.652 -0.00241
 0.284 -0.229  0.401
-0.502 -0.318 0.00279
 0.394  0.400  0.304
-0.314 -0.777  0.402
 0.394 -0.402 -0.419
-0.353 -0.190 -0.451
 0.150  0.573  0.401
-0.487  0.652 -0.254
-0.243  0.164  0.401
 0.394 0.0934 -0.325
-0.502 -0.221 -0.129
 0.166  0.652  0.108
-0.101  0.455  0.401
0.0560 0.0462  0.401
 0.394 -0.127 -0.175
 0.394  0.628 -0.333
-0.0148  0.487 -0.451
 0.394 -0.276 -0.356
 0.394 -0.363 -0.152
 0.221 0.0698 -0.451
 0.308  0.361 -0.451
 0.394 -0.284  0.312
 0.127  0.306  0.401
 0.150 -0.520  0.401
-0.133  0.589  0.401
 0.315 -0.190  0.401
 0.394  0.141 -0.0889
 0.394 -0.402 -0.278
-0.400 0.0541 -0.451
-0.314  0.652 -0.356
 0.213 -0.724  0.401
 0.394 -0.339  0.241
 0.268  0.652  0.296
-0.00692 -0.638 -0.451
 0.394 -0.457 0.0212
 0.394 -0.559 -0.0260
-0.0934 -0.693  0.401
-0.306 -0.0560 -0.451
 0.394 -0.000969 0.0212
-0.500 -0.157 -0.387
 0.253  0.652 -0.113
 0.395 -0.134  0.396
-0.502 -0.135 -0.129
-0.133 -0.182 -0.451
-0.148 -0.559  0.401
 0.394 0.0148 -0.144
-0.502 0.0121 0.0107
 0.394 -0.646 -0.341
 0.205  0.479  0.401
-0.188  0.526  0.401
 0.103  0.235  0.401
-0.408 -0.213  0.401
 0.394 0.0934  0.249
-0.266  0.203 -0.451
 0.166  0.652 -0.183
-0.274 -0.481  0.401
-0.314  0.125  0.401
0.0875  0.141 -0.451
 0.174  0.652 -0.230
-0.463 -0.622  0.401
-0.345 -0.591  0.401
 0.394  0.156 -0.230
-0.203  0.612  0.401
 0.394  0.392 -0.388
 0.260  0.188  0.401
 0.394 -0.0560 -0.144
0.0638  0.557  0.401
 0.394 -0.724  0.131
-0.196 -0.638  0.401
-0.439 -0.504 -0.451
 0.394 -0.724 -0.223
-0.502  0.169  0.105
-0.439  0.424 -0.451
 0.339  0.400 -0.451
-0.211  0.211 -0.451
 0.394  0.259 -0.411
 0.394  0.141  0.359
0.0875 -0.614 -0.451
 0.150  0.471  0.401
 0.394 -0.221 -0.0260
 0.394  0.549 0.0212
-0.424 -0.119  0.401
 0.394  0.306 -0.0889
-0.0148  0.652 0.0684
-0.502 0.0121 0.0499
-0.0148 -0.520  0.401
 0.395 -0.764 -0.0811
 0.394  0.589 -0.136
 0.394  0.259 0.0133
-0.0620 0.0619 -0.451
-0.502 -0.326 0.0813
-0.164 -0.724  0.401
-0.337 -0.536  0.401
-0.306  0.652  0.241
 0.394  0.345  0.249
 0.394 -0.473  0.320
 0.394 -0.717 -0.380
-0.384  0.652 -0.254
 0.394 -0.646  0.234
 0.221  0.314  0.401
-0.236 -0.777  0.402
 0.394 -0.0246  0.273
-0.455  0.652  0.226
 0.221  0.306 -0.451
 0.394  0.463 -0.403
-0.502  0.441  0.204
-0.293 -0.666 0.0750
-0.321  0.652  0.147
-0.219  0.652 -0.0968
-0.502 0.0525  0.356
-0.502  0.133  0.265
-0.502  0.318  0.285
-0.0530 -0.779 -0.0973
0.0452 -0.779  0.120
-0.495  0.579 -0.366
-0.0260 -0.779  0.167
-0.502  0.273  0.356
-0.502  0.400  0.257
-0.0905 -0.778  0.368
-0.502  0.188  0.312
0.0717  0.652  0.375
 0.392  0.650  0.208
 0.182 -0.781  0.170
-0.481 -0.430  0.141
-0.500  0.538 0.0668
-0.496  0.615  0.321
-0.479  0.549  0.401
-0.101  0.652 -0.373
-0.498  0.587 0.0947
-0.116 0.0143 -0.470
 0.197 -0.781  0.246
-0.502 -0.0286  0.198
 0.169 -0.780 -0.107
 0.268 -0.780  0.357
-0.0305 -0.748 -0.451
-0.0246 -0.777  0.401
-0.502 -0.0684  0.213
 0.392  0.369 -0.448
 0.394 -0.700  0.367
-0.501  0.524 0.0291
 0.394 -0.260  0.383
-0.502 -0.354  0.250
-0.491  0.641  0.227
 0.380 -0.769  0.325
 0.394  0.644 -0.427
 0.192 -0.779  0.329
-0.0142 -0.779  0.335
-0.502  0.346  0.320
0.0717 -0.748  0.401
 0.392  0.589 -0.448
 0.378  0.652 -0.159
0.0390 -0.778  0.364
0.0625 -0.769 -0.422
-0.487 0.0934  0.402
 0.394 -0.174 -0.443
-0.490  0.651  0.355
-0.502  0.460  0.316
-0.501  0.163  0.379
 0.394 -0.00883 -0.443
 0.394 -0.551  0.375
-0.264 -0.770 -0.419
-0.471 -0.504  0.401
 0.394  0.597  0.367
-0.180  0.652 -0.419
 0.395 -0.764 -0.199
-0.463  0.447  0.401
-0.501  0.361  0.364
 0.394 -0.363  0.171
-0.148  0.652 -0.191
-0.502  0.270  0.299
 0.392 -0.506  0.399
-0.495 -0.622 -0.451
-0.266  0.652 -0.0968
-0.00968 -0.779 0.0263
-0.0732 -0.779  0.167
-0.479  0.172 -0.451
 0.174 -0.638 -0.451
 0.166  0.416  0.401
 0.394 -0.316  0.367
-0.164 -0.339  0.401
 0.308  0.361  0.401
0.0953 -0.410  0.401
-0.408 -0.394  0.401
-0.251 -0.276  0.401
-0.203 -0.693 -0.451
 0.127 -0.638 -0.451
 0.103 -0.489  0.401
 0.142  0.518 -0.451
 0.394  0.369  0.320
-0.314 -0.748 -0.451
-0.298 -0.190  0.401
-0.0777  0.652  0.116
-0.0698 -0.575 -0.451
-0.0384  0.652  0.139
 0.394  0.510 -0.0417
-0.101 -0.371  0.401
0.0403 -0.394 -0.451
-0.148  0.652  0.249
-0.00694  0.652  0.202
 0.394  0.369 0.0448
-0.188 -0.142 -0.451
0.00879  0.652 -0.254
 0.394 -0.276 -0.0732
0.0166 -0.229  0.401
 0.394 -0.677 -0.0339
 0.394  0.620 -0.0968
-0.0777  0.369  0.401
-0.0305  0.502  0.401
 0.394  0.557 -0.0260
 0.394 -0.0324 -0.356
-0.109 -0.213 -0.451
 0.135 -0.103  0.401
-0.0856 -0.662 -0.451
 0.174 -0.394  0.401
-0.479  0.604  0.402
-0.306 -0.473 -0.451
 0.323 -0.614 -0.451
-0.203  0.652  0.202
 0.394 -0.371  0.218
 0.205  0.652  0.202
-0.282  0.652 -0.325
 0.394  0.479 -0.191
0.0874 -0.323  0.401
 0.198  0.235 -0.451
-0.463  0.125  0.401
-0.259 -0.685  0.401
 0.331  0.203  0.401
 0.394 0.0776 -0.285
-0.298  0.652  0.202
 0.394 -0.174  0.296
 0.284 -0.536  0.401
0.0638  0.369  0.401
 0.394 -0.496 -0.396
 0.284  0.652  0.367
-0.408  0.227  0.401
 0.292  0.141 -0.451
 0.394  0.573  0.257
0.0953  0.573  0.401
-0.180  0.652 -0.372
 0.394 0.0462  0.249
-0.156  0.227 -0.451
0.0717  0.259 -0.451
-0.196  0.479 -0.451
0.0875  0.526 -0.451
-0.243  0.345 -0.451
-0.180  0.321  0.401
 0.394 -0.544 0.0841
 0.229  0.117 -0.451
-0.329 0.0384 -0.451
-0.432  0.612 -0.451
 0.237 -0.426  0.401
 0.394  0.471  0.289
 0.394 -0.000969 0.0762
-0.0305  0.652 -0.0575
0.000923  0.652 0.0133
0.00880 -0.135 -0.451
 0.394 -0.0246 -0.0732
 0.394 -0.449 -0.128
 0.394 0.0541  0.163
0.0245 -0.0167 -0.451
-0.125 -0.111 -0.451
0.0874  0.652 0.0526
-0.00692 -0.551 -0.451
-0.0227 -0.00884  0.401
 0.394  0.172 0.00545
-0.0462  0.573 -0.451
-0.0620 -0.198  0.401
-0.267  0.652 -0.0335
-0.0699  0.487  0.401
-0.392 -0.00884  0.401
 0.394 -0.724 -0.0810
-0.101 -0.363 -0.451
0.0324  0.652 -0.388
-0.117 -0.284  0.401
 0.394 -0.00883 -0.254
-0.0777 -0.441 -0.451
0.0324 -0.630 -0.451
-0.0463  0.652  0.265
-0.502  0.138 -0.0208
-0.502  0.303 -0.0208
 0.394 -0.567 0.0526
-0.502 -0.373 -0.0286
-0.502 -0.366  0.113
 0.394 -0.732 -0.285
 0.394 0.0856  0.312
-0.432 -0.622 -0.451
-0.306 -0.433 -0.451
 0.394  0.211  0.312
-0.0934  0.652 0.0684
0.0166 -0.724  0.401
0.0481 -0.528  0.401
 0.394 -0.732 0.0919
-0.125 -0.724  0.401
0.0166  0.510  0.401
 0.394 0.0776 0.0212
 0.221  0.652 -0.0968
-0.424 -0.0167 -0.451
-0.0541  0.196 -0.451
 0.260 -0.0639 -0.451
-0.298  0.652 0.0605
-0.00694  0.172  0.401
-0.502 -0.247 0.0813
-0.439 -0.724 -0.451
 0.394  0.156  0.273
 0.394 -0.662  0.139
 0.394 -0.449  0.273
0.0717  0.117  0.401
 0.394  0.196 -0.364
-0.188 -0.402 -0.451
 0.394  0.573  0.320
