ply
format ascii 1.0
element vertex 2048
property float x
property float y
property float z
end_header
 0.252  0.387  0.274
-0.404 -0.778 -0.444
 0.327 -0.796  0.435
-0.432  0.751 -0.496
 0.326 -0.197 -0.441
-0.378 -0.249  0.403
-0.424  0.766  0.484
 0.328  0.748 -0.396
-0.358 0.0411 -0.325
 0.328 -0.790 -0.216
 0.328 -0.231  0.188
-0.100  0.766 0.00748
-0.263 -0.800  0.403
-0.117 -0.537 -0.0527
-0.255  0.267  0.396
0.0888  0.293 -0.443
0.0115 0.0824 -0.00971
0.0545  0.755  0.495
-0.420  0.439 -0.0698
-0.135 -0.326 -0.443
0.0373 -0.480  0.396
 0.329  0.757 0.0676
0.0545 -0.0165  0.439
 0.328  0.361 -0.121
0.0115 -0.695 -0.443
-0.372 0.0522 0.0668
-0.0572  0.662 -0.443
 0.295 -0.601  0.111
-0.373  0.396 -0.442
-0.0314  0.435 -0.121
-0.404 -0.708 0.0705
-0.427  0.764  0.128
 0.295 -0.446 -0.199
 0.328 0.0178 -0.156
0.00289 -0.0252 -0.399
-0.0658  0.435  0.196
 0.328 0.0779  0.257
-0.358  0.766 -0.190
-0.394 -0.563 -0.216
 0.328  0.688  0.377
-0.420  0.490  0.257
 0.328 -0.412  0.435
-0.246 -0.537  0.257
-0.178  0.559  0.439
0.0287 -0.781  0.439
 0.295 -0.609 -0.443
 0.329  0.129 -0.431
 0.140  0.766 -0.181
 0.328  0.464 -0.396
-0.143 0.0384  0.231
0.0888  0.766  0.214
0.0201  0.258  0.439
 0.304 -0.128  0.439
-0.378 -0.214 -0.422
 0.123 -0.386 -0.399
-0.377 0.0291  0.398
-0.178  0.215 -0.443
-0.169  0.766  0.274
-0.117 -0.266  0.439
-0.220 -0.566 -0.443
-0.00569 -0.581  0.171
0.0888  0.499  0.439
 0.328 -0.231 -0.0613
 0.328  0.602 -0.190
 0.157  0.435 0.0418
-0.152 0.0834 -0.190
0.0630 -0.537 -0.216
-0.392 -0.601  0.444
 0.295  0.172 0.0247
 0.295  0.224  0.439
-0.229  0.435 -0.250
0.0974 0.0384  0.222
 0.140 -0.283  0.439
-0.420  0.568 -0.276
 0.132 0.0832 -0.242
-0.0916  0.766 -0.216
 0.298 -0.799 0.0103
-0.272  0.435  0.102
-0.100  0.422 -0.443
 0.115  0.525 -0.443
-0.186 -0.800 -0.437
 0.328  0.542  0.128
-0.169 -0.0251  0.439
-0.281  0.593 -0.443
-0.212 -0.0681 -0.443
 0.218 -0.601  0.396
 0.328 -0.0423 0.0762
-0.152 -0.618  0.439
 0.140  0.435 -0.250
 0.312 -0.800  0.222
 0.209 -0.800 -0.406
-0.192  0.764  0.489
 0.123  0.755 -0.498
 0.123 -0.537 0.00748
-0.378 -0.420 -0.437
-0.332 -0.537 -0.0183
 0.295 -0.420 0.00748
 0.319  0.481  0.439
-0.403 -0.714  0.271
-0.378  0.577  0.435
 0.295 -0.618 -0.0870
 0.329 -0.394 -0.431
 0.200 -0.0337 -0.399
-0.186 0.0832 0.00745
0.0888 -0.197 -0.443
 0.295  0.258 -0.285
-0.229  0.766 -0.353
 0.295 -0.455  0.248
-0.434  0.570 0.0723
-0.340 0.0830 -0.139
 0.328 -0.154 -0.242
-0.0315 -0.489 -0.443
 0.123  0.766 0.00748
-0.152 -0.581 -0.267
-0.378  0.207 -0.406
 0.226 0.0522  0.439
-0.392  0.702  0.300
-0.246  0.433  0.317
-0.324 -0.438  0.396
 0.328  0.361 0.0934
-0.203  0.435 -0.0698
-0.246  0.766  0.111
-0.379 -0.708 -0.113
 0.326  0.766 -0.124
-0.0658  0.413  0.439
-0.378  0.388  0.434
 0.157 -0.581  0.231
-0.406 -0.584 -0.388
 0.106  0.121 -0.443
 0.132 -0.558 -0.443
 0.183 0.0824 -0.0784
-0.399 -0.721 -0.284
0.0888  0.435  0.274
 0.261  0.766  0.222
 0.218 -0.581 -0.267
-0.195 -0.581  0.102
-0.373 -0.537  0.145
 0.269  0.310 -0.443
 0.295 -0.0853  0.274
-0.400  0.409 -0.233
 0.166  0.766  0.360
 0.328  0.233  0.196
-0.0572  0.435 -0.285
-0.0486  0.104  0.396
-0.321 0.0693  0.222
-0.160 -0.446  0.396
-0.420  0.619 -0.121
 0.328 -0.644  0.265
-0.272  0.766 -0.0527
-0.0658 -0.180 -0.399
-0.152 0.0834 -0.353
 0.328  0.181 -0.147
-0.409  0.722 -0.336
 0.209  0.602  0.439
-0.0830  0.435 0.0333
 0.235  0.628 -0.443
 0.192  0.379  0.439
0.0287  0.766 -0.319
0.0287 -0.180  0.396
 0.328  0.619 -0.00971
 0.295 -0.300 -0.310
 0.295 -0.257  0.351
-0.00567 0.0384 -0.164
-0.306 -0.102  0.439
 0.183 0.0384 0.0934
0.00291  0.766  0.342
-0.246 -0.537 -0.147
 0.183 -0.755  0.396
0.0716 -0.626  0.439
-0.195  0.731 -0.499
-0.0830 -0.581  0.308
0.0115  0.766 -0.0956
-0.423  0.766 -0.0441
 0.286 0.0840 -0.285
-0.212  0.129  0.439
-0.404 -0.764  0.441
 0.175  0.766 -0.353
-0.373  0.173  0.439
-0.0315  0.215 -0.399
 0.328  0.516  0.274
 0.328  0.447 -0.242
 0.115  0.138  0.396
 0.218  0.748  0.497
-0.117 -0.764  0.439
 0.166 -0.102  0.396
 0.328  0.473 -0.00971
-0.238  0.387 -0.388
-0.384 -0.555  0.300
-0.00569 0.0834 -0.302
-0.415  0.417  0.113
 0.175 -0.438  0.396
 0.183 -0.537 -0.130
 0.328 -0.712 -0.336
-0.238 -0.223 -0.399
 0.328  0.619 -0.336
 0.209 -0.283 -0.443
-0.378 -0.0423 -0.437
-0.289 0.0779 -0.443
-0.281 -0.537 -0.319
-0.298 -0.687 -0.443
 0.207  0.429 -0.0985
-0.0830 0.0824  0.102
-0.0830  0.662  0.439
 0.328 -0.0509 -0.345
-0.246 -0.317  0.439
0.0115 -0.352  0.439
0.0115 -0.581 -0.0784
 0.295 -0.352  0.128
 0.295 -0.0853 -0.0698
0.0115 -0.317 -0.443
-0.203  0.387  0.439
-0.117  0.267  0.439
-0.412  0.562 -0.416
 0.295 -0.506 -0.353
-0.255 -0.377 -0.399
 0.328  0.645  0.231
0.0115  0.766 0.0848
 0.326  0.766 -0.262
-0.0830 -0.609 -0.399
-0.238 0.0384  0.343
 0.201 0.0384  0.308
 0.209  0.198 -0.399
 0.166  0.387 -0.388
0.0630  0.435  0.136
-0.152  0.559 -0.443
 0.328 -0.532  0.368
 0.295 -0.188 0.0590
-0.281 -0.581  0.377
0.0630  0.379  0.395
-0.420  0.628  0.196
 0.175  0.258  0.396
0.0373 -0.537 -0.345
 0.328 0.0350 -0.0269
-0.0143  0.525 -0.443
 0.295 0.0953  0.128
0.0803 -0.800 -0.413
-0.289  0.766  0.342
 0.224  0.410  0.151
 0.295 -0.334 -0.130
 0.328  0.344  0.411
-0.0658 -0.0939  0.396
-0.143 -0.446 -0.399
-0.0658 -0.790 -0.398
 0.328 -0.00797  0.394
 0.166 -0.687 -0.443
-0.126  0.396  0.325
0.0115  0.387 -0.379
 0.328 -0.601 -0.207
-0.255 0.0831 -0.267
 0.328 -0.472  0.119
-0.315  0.387 -0.0269
0.0545  0.619  0.439
 0.295  0.293 -0.00970
-0.126  0.766  0.145
 0.218 -0.455 -0.443
0.0459 0.0384  0.102
-0.0486 -0.581 0.0418
-0.281  0.688  0.439
-0.324  0.387  0.205
 0.328 -0.644  0.435
-0.315  0.722 -0.465
-0.255 0.0834  0.111
-0.289  0.490  0.440
0.0888  0.435 -0.0612
-0.0486 -0.669  0.396
-0.0400  0.533  0.439
-0.195  0.435  0.205
0.0630  0.636 -0.443
-0.212 -0.180  0.439
 0.328  0.267  0.317
-0.109  0.766 -0.371
 0.295 -0.738 -0.104
 0.209  0.766 -0.0784
0.0716 -0.581  0.317
 0.106 -0.537  0.128
 0.295 -0.738  0.119
 0.252 -0.537 0.0161
-0.0143 0.0865 -0.443
0.00290  0.766 -0.487
 0.326 -0.799 -0.437
-0.0143 0.0384  0.300
-0.212  0.766 -0.207
 0.328  0.112  0.403
 0.328 -0.498 -0.0956
 0.209 -0.171 -0.399
-0.281 -0.687  0.439
 0.218 0.0779 -0.443
 0.328  0.490 -0.130
-0.289  0.766  0.222
-0.420  0.464 -0.336
-0.169 -0.678 -0.443
-0.289 0.0384 -0.0269
-0.294  0.401 -0.141
 0.192  0.766  0.128
-0.0572 -0.581 -0.173
 0.295 -0.326  0.248
 0.261  0.387 -0.319
-0.289  0.284 -0.399
-0.143  0.435 -0.173
-0.109  0.301 -0.399
-0.0916 0.0832 -0.0613
-0.406 -0.635 -0.0183
 0.328 -0.687 -0.00112
 0.235  0.766 -0.474
 0.243 -0.334  0.439
 0.326  0.766  0.460
 0.326 0.00921 -0.441
-0.385  0.404  0.322
-0.0773  0.766  0.485
0.0888 0.0384 -0.345
-0.349  0.766 0.0418
-0.298  0.482 -0.443
-0.126 -0.537  0.179
-0.100 -0.0337 -0.443
-0.229 -0.581 -0.0269
-0.0916 -0.523  0.439
0.0974 -0.0853 -0.443
-0.420  0.507 -0.181
 0.226  0.464 -0.443
 0.328  0.654  0.111
 0.328 -0.291 0.0332
-0.406 -0.652  0.179
 0.209 0.0824  0.196
-0.0229 0.0384  0.188
-0.298 -0.137 -0.443
 0.218 0.0384 -0.190
-0.229 0.0832 -0.113
 0.295 -0.00796  0.196
-0.324 -0.515 -0.443
 0.243 -0.537  0.300
-0.00856  0.429  0.323
 0.328 -0.549  0.205
-0.367 -0.582 -0.113
 0.328  0.413  0.188
 0.328  0.568  0.368
-0.0315  0.766  0.196
 0.328 -0.712  0.351
-0.315 -0.300 -0.443
-0.432  0.559 -0.0336
-0.315  0.387 -0.293
 0.295 -0.197 -0.336
-0.117 0.0384  0.334
 0.278 -0.103 -0.443
 0.295 -0.137  0.154
 0.328 -0.412 -0.293
 0.328  0.224 -0.379
-0.0658 0.00920  0.440
 0.295 -0.0337 -0.242
0.0974 0.0384 -0.121
-0.377  0.270  0.398
0.0287  0.435 -0.224
 0.243 -0.214  0.439
-0.289 -0.781 -0.398
 0.209 -0.537  0.145
-0.272  0.181 -0.399
 0.295  0.276 -0.181
-0.100  0.766  0.360
 0.235  0.387 -0.190
 0.226  0.766 0.0247
-0.420  0.671 -0.00111
 0.226  0.147  0.396
 0.295 -0.240 -0.173
-0.143  0.766 -0.0870
 0.132  0.688  0.439
 0.157  0.387  0.342
-0.404 -0.675 -0.444
-0.186  0.435 0.0333
0.0974 0.0384  0.325
-0.117  0.121 -0.443
 0.123 0.0178 -0.443
-0.109 -0.369  0.439
-0.420  0.593  0.343
-0.378 -0.359  0.434
-0.298 -0.581 0.0676
 0.278  0.766  0.334
 0.295  0.155  0.317
 0.226  0.766 -0.242
-0.0744 -0.537 -0.328
 0.243  0.387 0.0161
-0.406 -0.687  0.377
 0.328 -0.412  0.334
-0.324  0.766 -0.285
-0.195 0.0436 -0.443
0.0630 -0.618 -0.399
-0.160 -0.154 -0.443
 0.329  0.593 -0.437
 0.243 -0.515  0.439
-0.392  0.766  0.222
-0.432  0.725  0.388
 0.226 0.0384 -0.00110
-0.229 -0.463 -0.443
-0.178 -0.581  0.334
-0.289 0.0694  0.439
 0.106 0.0824 0.0161
 0.328  0.422  0.325
0.0372 -0.412 -0.443
-0.378 0.0951 -0.406
-0.00569 -0.582  0.386
-0.406 -0.661 -0.207
-0.326  0.766  0.485
 0.252 -0.712 -0.399
-0.246 0.0384 -0.353
0.0974  0.207 -0.399
 0.123 0.0522  0.439
-0.298 -0.581 -0.216
-0.255 -0.489  0.439
-0.0486  0.207  0.396
-0.0315 -0.266  0.396
-0.126 -0.180  0.396
-0.143  0.181  0.396
 0.252 -0.704  0.439
-0.203  0.464 -0.443
 0.200 -0.581 -0.362
0.0716  0.766 -0.405
-0.169 -0.581 -0.362
-0.195  0.766 0.0247
 0.328  0.533 -0.285
0.0545  0.766 -0.224
-0.203  0.766  0.385
-0.420  0.654 -0.233
 0.157 -0.669  0.439
-0.152 -0.537 -0.164
 0.200 0.0834 -0.328
 0.328 -0.609 -0.353
 0.115 -0.515  0.439
-0.281 -0.240  0.396
-0.418  0.656 -0.408
-0.375 0.0744 -0.0467
 0.149 -0.188  0.439
0.0287  0.164  0.439
-0.378  0.301 -0.437
-0.152  0.654 -0.443
-0.385  0.706 -0.113
 0.295  0.319  0.171
 0.329  0.757 -0.0269
 0.123 -0.291 -0.399
-0.406 -0.601 0.0848
 0.328  0.190  0.110
 0.295 -0.687 -0.224
-0.434  0.748 -0.250
-0.378 -0.515  0.411
 0.183  0.435  0.231
 0.328 -0.102 -0.164
0.0115 -0.145 -0.443
 0.295  0.215 -0.0612
-0.289  0.387  0.385
-0.0744 0.0371 -0.389
-0.376 -0.635 -0.310
 0.328 -0.326 -0.216
0.0888 -0.581 -0.139
 0.298 -0.799 -0.325
0.0888 -0.377  0.396
 0.328  0.654 -0.0956
0.0545  0.435 0.0247
0.0888  0.766  0.308
 0.328  0.456 0.0934
-0.117  0.387 -0.336
 0.209 -0.581 -0.0527
-0.00569 -0.581 -0.259
0.0716 -0.111  0.439
 0.328 -0.669  0.171
 0.328 -0.300 -0.396
-0.378 -0.162  0.434
 0.123 -0.537 -0.285
-0.281  0.190  0.439
 0.295 -0.188  0.291
-0.0658 0.0834 -0.233
-0.135 0.0694  0.439
-0.0658 -0.386 -0.443
 0.304 -0.800  0.342
-0.135 0.0384 -0.276
-0.298 -0.581  0.171
-0.169 0.0384 0.0848
 0.328 -0.584 -0.00971
 0.329  0.763  0.162
-0.367  0.766 -0.405
-0.306 -0.592 -0.399
-0.298 -0.0252 -0.399
0.0459 -0.537  0.231
 0.328  0.344 -0.276
 0.166 -0.581 0.0762
-0.220 0.0824  0.214
-0.0658 0.0384 0.0247
 0.123  0.319  0.439
 0.278 0.0384 -0.371
 0.252 -0.0681  0.396
 0.328  0.164 -0.293
-0.420  0.533  0.154
-0.420  0.473  0.368
-0.195 -0.712  0.439
0.0974 -0.730  0.396
 0.243 -0.369 -0.443
-0.152 0.0384 -0.113
-0.0229  0.293 -0.443
 0.106  0.215  0.439
 0.326  0.379 -0.441
 0.328  0.679 -0.242
0.0888 -0.712 -0.399
-0.385 -0.782 -0.357
-0.400 -0.781  0.354
-0.106  0.725 -0.496
-0.203  0.327 -0.443
-0.0143  0.327  0.396
0.0201 0.0694  0.439
-0.152  0.766 -0.293
0.0458 -0.532 -0.443
-0.117  0.490  0.439
 0.329 -0.283  0.428
 0.295 -0.111 0.0161
 0.328 -0.00797  0.300
 0.328 -0.532 -0.276
 0.269 -0.537 -0.190
 0.328  0.379 -0.0355
 0.175  0.482  0.439
-0.195  0.645  0.439
 0.295  0.636  0.439
 0.106  0.435 -0.147
-0.378 -0.128 -0.406
 0.140 -0.537  0.360
0.0974  0.429 -0.325
0.0373 0.0834 -0.224
 0.292 0.0882 -0.190
-0.366  0.679  0.440
 0.183  0.319 -0.443
 0.106  0.766  0.119
 0.304 -0.523 -0.443
 0.157 -0.0166  0.396
-0.392  0.408 -0.147
-0.281 0.0384 -0.181
 0.295 -0.618  0.360
 0.295  0.155  0.214
-0.0486 -0.412  0.396
-0.135 -0.231 -0.399
0.0287  0.147 -0.399
 0.235  0.301  0.439
-0.0229  0.766 -0.388
 0.140 -0.581 -0.207
-0.0143  0.435 0.0848
0.0974  0.766 -0.0956
-0.0314  0.435 -0.0355
-0.0658 -0.704 -0.398
-0.143  0.435 -0.259
 0.149  0.628 -0.443
0.0545 -0.537 0.0590
 0.328  0.559 -0.0784
-0.0143  0.439 -0.443
-0.0143 -0.249 -0.398
-0.0572 -0.537  0.239
 0.326 -0.712 -0.441
-0.332 -0.738  0.396
-0.0572 -0.537  0.119
-0.349  0.766  0.403
0.0630  0.766  0.403
 0.328 -0.412  0.179
-0.373 -0.343 -0.398
 0.292 0.0882 0.0333
 0.295  0.284 0.0848
 0.295  0.310 -0.362
0.0115  0.435  0.239
 0.252 0.0384 -0.113
0.0115  0.447  0.439
0.0888 -0.463 -0.399
-0.178 -0.523  0.439
-0.420  0.431  0.196
 0.261  0.387  0.385
 0.328 -0.334 -0.0526
-0.324 0.0384  0.334
-0.373 -0.0767  0.396
-0.0229 0.0384 -0.0784
-0.367 -0.582  0.222
-0.373  0.491  0.439
-0.117 -0.537 0.0590
0.0716 -0.266  0.396
-0.0401 -0.764  0.396
-0.324  0.319  0.439
-0.203 -0.309 -0.399
-0.126 -0.515 -0.443
 0.244 -0.796  0.439
-0.246 -0.0251  0.396
-0.347 0.0452  0.146
-0.420  0.636 -0.328
-0.195  0.301  0.440
-0.100  0.353  0.396
-0.195 -0.581  0.188
-0.0143 -0.601 -0.443
 0.106 0.0824  0.136
-0.298  0.593  0.439
 0.175 -0.111 -0.443
-0.0658 -0.111 -0.443
 0.328  0.104 -0.353
-0.238  0.766 -0.130
 0.328 -0.231 -0.267
-0.152 -0.537  0.257
 0.329  0.757  0.265
 0.328 -0.137 -0.379
-0.0572 -0.317 -0.399
 0.328  0.207 -0.224
0.0803 -0.537 -0.0612
-0.400  0.482 -0.421
-0.238 -0.635 -0.399
-0.420  0.482 -0.00110
 0.328  0.310  0.248
 0.278  0.550  0.439
-0.380  0.397 -0.362
 0.328 -0.669 0.0848
 0.328  0.284 -0.0870
 0.166 0.0824  0.368
 0.278  0.705 -0.443
 0.192  0.705 -0.443
-0.220 -0.738 -0.399
-0.126 -0.747 -0.443
-0.169 -0.309  0.396
 0.295 -0.730  0.257
0.0458 0.0824  0.265
-0.376 -0.704 -0.371
 0.312 -0.566  0.439
 0.328 -0.171  0.377
-0.289 -0.581 -0.0956
-0.434  0.748 0.0504
-0.306 -0.537  0.308
 0.235 -0.145  0.396
 0.295 -0.249  0.111
 0.328  0.430 -0.319
-0.0744  0.766 0.0848
-0.109  0.198 -0.398
-0.324 -0.300  0.439
-0.246  0.766 -0.431
-0.229 -0.394  0.439
0.0287  0.766 -0.0183
-0.186  0.766  0.196
-0.143 0.0824  0.154
 0.328  0.568 0.0504
-0.126  0.435  0.248
-0.135  0.435  0.154
-0.0916  0.766  0.257
-0.0400  0.766 -0.276
-0.0400  0.766 -0.156
-0.195 -0.537 -0.0870
-0.263  0.766  0.437
-0.406 -0.609  0.360
 0.226 -0.537  0.222
-0.143  0.719  0.447
0.0115 -0.764 -0.399
-0.186  0.138 -0.399
 0.157  0.258 -0.399
-0.178 -0.790  0.396
-0.0830 0.0824  0.257
-0.315  0.129  0.396
 0.218 -0.274  0.396
-0.220 -0.0853  0.439
 0.166 -0.343  0.396
-0.378 -0.542 -0.328
 0.140  0.766  0.446
 0.295 -0.429 -0.113
-0.0916 -0.582  0.386
 0.328  0.147 -0.0441
 0.295 0.0178  0.119
-0.212  0.482  0.439
 0.252 -0.429  0.396
 0.328 -0.154 -0.0527
-0.384 -0.727  0.181
-0.220 -0.581 -0.207
-0.435  0.739 -0.173
 0.269 0.0824  0.308
 0.132  0.611  0.439
 0.328  0.645  0.308
 0.140  0.435  0.136
 0.328  0.490  0.188
 0.328 -0.506 -0.00971
-0.00569 -0.581  0.308
 0.123 -0.581 -0.362
 0.226  0.696  0.439
 0.328 -0.180 -0.139
0.0458 0.0831  0.368
-0.349  0.387 0.0848
 0.295 -0.403 -0.362
-0.152 -0.120  0.439
0.0545  0.361 -0.443
 0.243  0.447  0.439
 0.328 -0.343  0.368
 0.328  0.190  0.377
0.00290 -0.0595  0.396
 0.328 -0.566 -0.139
-0.281  0.433 0.0247
0.0545 0.0522 -0.443
-0.0658 -0.163  0.439
 0.328 -0.137  0.222
 0.295 -0.609 -0.285
-0.412  0.698  0.162
-0.404 -0.708 -0.0412
-0.00568 -0.537 -0.139
-0.0916 -0.537 -0.224
-0.0572  0.361 -0.399
 0.149 0.0824  0.257
-0.366 0.0951  0.439
-0.298  0.404 -0.443
 0.213  0.418 -0.265
 0.209 0.0384 -0.267
-0.220  0.688 -0.443
-0.420  0.628  0.119
-0.293  0.390  0.274
-0.203 -0.537 0.0418
-0.238 -0.145 -0.399
 0.269  0.190 -0.443
-0.263 -0.145  0.396
 0.140 0.0824 -0.164
-0.281 0.0824  0.291
 0.261  0.121 -0.399
 0.175  0.121 -0.399
-0.304  0.406 -0.222
0.0974 -0.437  0.439
-0.220  0.198  0.396
-0.289 -0.463 -0.398
-0.195 -0.377 -0.443
-0.152 -0.0681 -0.399
 0.295 -0.678 -0.147
-0.0658  0.766 -0.448
 0.328  0.585  0.188
 0.269  0.766 -0.181
 0.106  0.696 -0.443
-0.195 0.0384 -0.233
-0.126  0.435 -0.0269
0.0287  0.258 -0.398
0.0716 0.0824 -0.0527
 0.328  0.696 0.0247
 0.286  0.507 -0.443
 0.235  0.766 -0.396
 0.295 0.00922 -0.302
-0.332  0.766  0.282
-0.0486 -0.609  0.439
-0.341  0.147 -0.443
-0.212  0.422 -0.328
-0.229  0.533 -0.443
 0.328 -0.506  0.300
-0.212 0.0384  0.274
-0.109  0.593  0.439
 0.175  0.190  0.439
0.0459 -0.541  0.439
-0.332 -0.0337  0.439
 0.328  0.387 -0.190
-0.255 -0.609  0.439
 0.269 -0.537 -0.0784
-0.367 -0.669  0.441
 0.328  0.748 -0.474
-0.298 0.0832 -0.328
-0.143 0.0384 -0.0355
 0.328 0.0693 -0.104
 0.295 -0.738 -0.276
 0.328 -0.738 0.0504
 0.123  0.430  0.439
-0.246 -0.537  0.145
-0.143 -0.581 0.00748
-0.0830 -0.266 -0.443
0.0630 -0.581 -0.293
 0.132 0.0384 -0.0355
-0.306 -0.515  0.396
-0.00570 0.0824  0.128
 0.157 0.0384  0.162
-0.306 0.0827 0.0590
-0.0744  0.155  0.439
-0.0830 -0.317  0.396
 0.115 -0.145 -0.399
-0.324  0.654 -0.443
-0.272 0.0384  0.179
0.0974 -0.800  0.428
-0.431  0.761  0.317
 0.292 -0.531 0.0934
 0.319 -0.206  0.439
-0.378 -0.726 -0.199
 0.304 -0.800 -0.0612
 0.325 -0.484  0.438
-0.212  0.387  0.368
0.0545  0.705  0.439
-0.0916 0.0834 -0.310
-0.420  0.645  0.265
-0.341  0.766 -0.0355
 0.328 -0.463 -0.413
-0.229  0.766 -0.276
 0.140  0.766 -0.422
 0.175  0.766  0.196
 0.278  0.387 -0.250
 0.200 -0.575 -0.443
-0.0486  0.435 -0.190
 0.140 -0.581  0.300
0.0803 0.0384 -0.190
-0.420  0.507 -0.0870
 0.132 -0.644 -0.398
-0.238 -0.581 -0.285
-0.117 -0.581 -0.121
-0.160 0.0827  0.368
 0.183  0.435 -0.181
-0.255  0.725  0.494
-0.229 -0.538 -0.379
-0.152 0.0824  0.291
-0.332 -0.537 -0.173
 0.209 -0.652 -0.399
 0.157 -0.343 -0.443
-0.00568 -0.446  0.439
-0.0658 -0.446 -0.399
-0.358 -0.537 0.0762
 0.328 -0.0595  0.162
 0.328 -0.120  0.325
 0.295 -0.618  0.205
-0.377 -0.498 -0.400
 0.328 -0.317  0.179
 0.226  0.353 -0.398
-0.0143 -0.111  0.440
0.0716  0.301  0.396
-0.0400 -0.535 -0.388
 0.269 -0.581 -0.379
-0.255  0.233 -0.443
-0.298 -0.188  0.439
-0.0916 0.0384  0.171
0.00290 0.0178  0.396
 0.252 0.0384  0.360
-0.306 -0.395 -0.443
-0.281 -0.377  0.396
-0.203 -0.635  0.396
0.0888 -0.0595  0.396
 0.286  0.766 -0.319
-0.398 -0.568 -0.0527
 0.329  0.413  0.428
 0.226 -0.537  0.368
 0.328 0.0264 0.0590
 0.328 -0.360 0.0676
 0.149 -0.575  0.439
-0.255  0.435  0.171
-0.341  0.559 -0.443
 0.269  0.112  0.439
-0.135  0.766 -0.156
 0.286  0.766  0.403
-0.306 -0.231 -0.399
 0.261  0.766  0.136
 0.328  0.611 -0.267
-0.281  0.766 0.0504
 0.328 -0.386  0.257
-0.135  0.766 -0.439
-0.0830  0.516 -0.443
-0.349  0.387 -0.0870
-0.0572  0.155 -0.443
 0.175 -0.231 -0.399
-0.255 0.0384 0.0333
 0.295 -0.0251 -0.0355
0.0545 -0.240 -0.399
0.0974  0.766 -0.310
-0.160 0.000618 -0.399
-0.406 -0.644 -0.0870
 0.235 -0.0165  0.439
0.0287 0.0834 -0.371
-0.212 -0.257  0.439
 0.328  0.447  0.248
-0.349 0.0436 -0.443
 0.157  0.766 0.0676
 0.328  0.336  0.325
0.0373 0.0824  0.196
 0.166  0.766 -0.285
 0.157 -0.755 -0.443
 0.295  0.267  0.385
 0.192  0.418 -0.330
-0.314 0.0385 -0.242
 0.140 0.0384 -0.293
 0.328 -0.790 -0.147
 0.295 -0.352 0.00748
 0.157 -0.581  0.162
0.0803 0.0384 -0.259
 0.328 -0.738  0.179
-0.135  0.435 0.0848
-0.0744  0.766 -0.0870
0.0201 -0.669  0.396
-0.315 -0.537  0.222
0.0115 0.0824 0.0590
-0.117 -0.669  0.396
0.0373  0.435 -0.121
-0.341  0.344 -0.399
-0.203  0.435 -0.139
 0.328  0.533 -0.190
 0.328 -0.137 -0.310
-0.0658 0.0831 -0.164
 0.183  0.435  0.300
-0.420  0.464 -0.267
 0.243 -0.506 -0.399
-0.434  0.731 -0.431
 0.157 -0.537 -0.0612
 0.209 0.0371 -0.389
-0.324 -0.790  0.439
0.0459 -0.537  0.162
-0.229 -0.537  0.325
0.0803 -0.214  0.439
0.00289 -0.369 -0.399
-0.195 -0.257 -0.443
 0.132  0.327 -0.399
-0.416  0.694 0.0941
-0.0487  0.387 -0.336
-0.0401  0.387  0.377
0.0974  0.387 -0.379
0.0573  0.390  0.328
 0.329  0.284 -0.422
-0.186 0.0262  0.396
 0.269 0.0384  0.257
0.0545 -0.581  0.111
-0.0744 -0.581  0.179
 0.328 0.0522 -0.242
 0.175 0.0824 -0.00112
-0.195 0.0384  0.154
 0.295 -0.764 -0.387
0.0545  0.215  0.396
 0.328 -0.796  0.128
-0.358 -0.626 -0.443
0.0430  0.719 -0.449
 0.295 -0.231 0.00748
 0.209  0.766  0.308
 0.261 -0.214 -0.399
-0.298  0.766  0.154
-0.281  0.766 -0.233
 0.328 0.0436  0.351
-0.0658  0.435  0.128
-0.324  0.766 -0.353
 0.183  0.516 -0.443
 0.261  0.766 -0.0355
-0.238 0.0264  0.439
-0.100  0.435 -0.121
-0.315  0.766 -0.139
 0.226  0.258 -0.443
-0.0572  0.276  0.396
-0.332 -0.755 -0.443
-0.349 -0.618  0.396
-0.420  0.628  0.400
 0.149 -0.394  0.440
 0.295  0.241  0.265
 0.328  0.138 -0.216
 0.235 0.0824 0.0676
 0.295 -0.283 -0.0870
 0.261 -0.537 -0.293
0.0545 -0.581 -0.0183
 0.192 -0.412 -0.399
-0.0229 -0.712  0.439
-0.0572 -0.652 -0.443
0.0201 -0.403  0.396
-0.229  0.112 -0.443
-0.358 -0.274 -0.399
-0.324  0.215  0.396
 0.328  0.181  0.265
-0.0658 -0.480  0.396
 0.286 0.0840  0.205
-0.420  0.482  0.102
-0.306  0.422  0.439
-0.358 -0.581 -0.276
 0.295 -0.472  0.368
-0.0315  0.766  0.437
-0.385  0.706 -0.0441
-0.377  0.699 -0.441
 0.295  0.164 -0.362
-0.366  0.766  0.154
-0.0143 -0.537 0.00744
-0.415  0.417 -0.00756
-0.0229  0.731  0.496
-0.373  0.387  0.162
-0.117 -0.537  0.342
0.0458 -0.111 -0.399
 0.328  0.507  0.342
-0.255 0.0178 -0.443
0.0373  0.766  0.145
0.0888  0.464 -0.443
-0.315 -0.584  0.439
-0.238 -0.531  0.392
-0.126 0.0834 0.0332
0.0888 -0.352 -0.443
0.0803  0.104  0.439
 0.157  0.422 -0.443
-0.0572 -0.537 -0.0784
-0.126 -0.0681  0.396
 0.132 0.0824 0.0762
0.00291  0.435 -0.310
-0.255  0.327  0.439
 0.328 -0.730 -0.173
 0.295 -0.480  0.188
 0.106 -0.537  0.257
 0.183 -0.537 -0.310
0.0716 -0.326  0.439
 0.312 0.0608  0.439
-0.376 -0.661  0.325
 0.192  0.435 -0.0355
-0.341 -0.581  0.342
-0.349 0.0384 0.00749
 0.269 -0.755  0.396
 0.269  0.387 0.0848
-0.272  0.435 -0.302
 0.295 -0.0165 -0.113
-0.0229 0.0384 -0.250
 0.295 -0.0509  0.334
 0.295  0.370  0.222
 0.295 -0.626 0.0504
 0.269 -0.618  0.439
0.0458  0.215 -0.443
-0.406 -0.609  0.274
 0.123 0.0846 -0.389
 0.295 -0.455 0.0676
-0.169 -0.537 -0.310
-0.315 -0.537 -0.259
 0.218 -0.102  0.439
 0.328 -0.154  0.102
-0.377 -0.601  0.145
0.0630 0.0384 -0.00110
-0.117 -0.137 -0.399
-0.195  0.258 -0.399
 0.269  0.241 -0.399
 0.295 -0.463 -0.276
 0.295 -0.394 -0.242
 0.295  0.336 -0.207
-0.315 -0.0939 -0.399
0.0716 0.0262  0.396
-0.178  0.370 -0.399
-0.0486  0.435  0.274
 0.235 -0.755 -0.443
-0.00569 -0.581 -0.362
-0.332  0.258 -0.443
 0.312 -0.352  0.439
-0.238 0.0839  0.386
 0.286 -0.652 -0.398
-0.392  0.766 -0.293
-0.416  0.533  0.410
 0.328  0.662 -0.173
 0.328 -0.738  0.411
0.0287 -0.480 -0.399
-0.220 -0.0166 -0.399
 0.295 -0.249  0.274
 0.157 -0.0509 -0.443
-0.377 -0.678 0.0161
 0.286  0.713  0.442
-0.0229  0.679  0.439
-0.0143 -0.0853 -0.399
 0.295 -0.326 -0.443
 0.295  0.439 -0.443
 0.329  0.757 -0.199
-0.195  0.435  0.136
-0.422  0.611 0.0161
-0.238  0.542  0.439
 0.226 -0.581 0.0934
-0.00568  0.435  0.179
-0.0315  0.585 -0.443
-0.406 -0.626 -0.147
 0.200 -0.581  0.282
 0.328 -0.240 -0.379
 0.235  0.396 -0.443
 0.106 -0.582  0.386
-0.281 0.0827 -0.0699
-0.246 0.0827 -0.00972
 0.278 0.0824 -0.0698
0.0287 0.0384 -0.328
0.0545 0.0826 -0.130
 0.192 0.00920 -0.443
-0.392  0.703 -0.259
 0.295 -0.489 -0.147
-0.358  0.766 -0.474
 0.157 -0.231  0.396
-0.0400 0.0384 0.0934
 0.295 -0.163 -0.190
-0.272 0.0384 -0.113
-0.406 -0.618 -0.259
-0.135 -0.403 -0.443
 0.132 -0.455 -0.443
-0.126 -0.618 -0.443
 0.106 -0.0423 -0.399
-0.298  0.327 -0.443
 0.200  0.336  0.396
-0.195 -0.128  0.396
-0.178 -0.352  0.439
 0.295 -0.678 -0.0527
-0.420  0.456  0.308
 0.328  0.593  0.274
 0.328 -0.0853 -0.250
 0.269 -0.446 -0.399
 0.295 -0.352  0.317
 0.328 -0.661 -0.276
 0.328  0.731  0.325
0.00291  0.585  0.439
 0.328 0.0693 -0.405
 0.328  0.344 0.0161
0.0716  0.766 0.0676
0.0974  0.585 -0.443
 0.200  0.576 -0.443
 0.106  0.435  0.188
 0.328  0.654 -0.388
 0.175  0.766 -0.130
-0.203  0.593 -0.443
-0.229  0.435  0.257
0.0201 -0.300  0.396
 0.328  0.568 -0.371
-0.0315  0.766  0.291
-0.178 0.0832 -0.0785
-0.0916  0.611 -0.443
 0.140  0.435 -0.0956
-0.0658 -0.214  0.396
 0.149  0.766 -0.0612
 0.132 -0.537  0.196
-0.406 -0.644 -0.371
 0.328 -0.412  0.102
 0.328 -0.438 -0.0613
-0.420  0.602 -0.199
-0.420  0.671 -0.156
 0.292 -0.0423 -0.394
-0.220 0.0840 -0.389
 0.252  0.387 -0.104
-0.418  0.690  0.223
-0.160 -0.721 -0.399
-0.255  0.764 -0.492
-0.126 -0.581  0.136
-0.0229 -0.537 -0.199
0.0115 -0.581 0.0590
 0.106 -0.523 -0.399
-0.0400  0.722 -0.482
-0.0572 0.0953 -0.399
 0.183 -0.537 -0.207
 0.140 -0.799 -0.400
-0.349 0.0824  0.368
-0.0400 -0.537  0.334
-0.117 -0.581  0.231
 0.209 -0.343 -0.399
-0.0744 0.0824  0.334
0.00289  0.327 -0.399
 0.319 -0.0688  0.439
0.0459 0.0384 -0.0870
-0.263 -0.738 -0.443
 0.115 -0.669  0.396
 0.140 -0.755  0.439
0.0802 -0.274 -0.443
-0.0314 -0.506  0.439
 0.278 -0.669  0.396
-0.229 -0.455  0.396
-0.212  0.396 -0.443
 0.325  0.289  0.438
 0.175  0.172 -0.443
-0.126 -0.472  0.439
 0.295 -0.386 -0.0527
 0.286 -0.535  0.162
 0.243 0.0384 -0.319
 0.328  0.112 0.0762
 0.295  0.121 -0.139
 0.201  0.433 0.0848
-0.341 -0.128  0.396
-0.407  0.439  0.417
-0.195 0.0834 -0.276
 0.328  0.147  0.154
 0.235  0.215  0.439
 0.106 -0.581 0.0676
 0.209 0.0824  0.265
 0.295 -0.360 -0.302
-0.406 -0.661  0.239
-0.109 -0.687 -0.443
-0.169 -0.537  0.136
0.0458  0.507 -0.443
-0.0658 0.0384 -0.121
-0.420  0.464 -0.130
-0.135  0.766 0.0762
 0.295 -0.0165 0.0247
-0.126  0.404  0.439
 0.123  0.370  0.396
 0.295  0.250 0.0333
 0.295 -0.635 -0.00970
-0.0572 -0.0423 -0.399
0.0287  0.568 -0.443
 0.328  0.688  0.188
-0.0229 0.0264 -0.443
-0.0229  0.435 0.0247
-0.195 0.0384 -0.156
-0.117 -0.537 -0.371
-0.238 -0.755  0.439
 0.328  0.568 -0.139
 0.295 -0.0939  0.111
 0.328  0.688 -0.302
-0.263 -0.523 -0.443
 0.328 -0.747 -0.0441
-0.160  0.344  0.396
-0.0916  0.766  0.420
-0.272 -0.537 -0.0269
0.0287  0.766  0.205
-0.420  0.654  0.325
 0.166  0.542  0.439
 0.149 -0.188 -0.443
-0.143  0.336 -0.443
 0.192 -0.581  0.342
 0.328  0.422 -0.113
-0.420  0.550  0.248
-0.301 0.0331  0.392
-0.377 -0.687  0.136
 0.328 -0.377 -0.156
-0.380 -0.549 0.0161
 0.295 -0.0251 -0.181
-0.272  0.129  0.439
 0.328  0.628  0.377
 0.328  0.447 -0.181
 0.295  0.215  0.334
 0.328  0.276  0.145
-0.117 0.0608 -0.443
-0.415  0.417 0.0526
-0.0486 -0.369  0.439
 0.261  0.361  0.439
 0.328 -0.541 -0.207
 0.175 -0.498  0.396
 0.295 -0.188  0.231
0.0115 -0.206 -0.443
-0.272 -0.0681 -0.443
-0.186  0.433  0.317
 0.295 -0.618 -0.147
 0.328  0.714  0.128
 0.269  0.387 -0.0441
 0.328  0.456  0.385
 0.217  0.387  0.342
 0.326 -0.0681 -0.441
0.0545 -0.755 -0.443
 0.106 0.0834 -0.310
 0.226  0.387  0.205
-0.289 0.0331 -0.395
 0.295 -0.515  0.239
 0.295 -0.609  0.300
-0.0716  0.418  0.328
0.0974 -0.661 -0.443
-0.203 0.0827  0.325
-0.0487 -0.755 -0.443
-0.385  0.719 0.0132
-0.272  0.112 -0.399
-0.281 -0.581  0.274
 0.252 -0.581 -0.113
-0.0916 -0.581 -0.293
-0.238 -0.581 0.0590
-0.306  0.387 -0.379
 0.200 -0.581 -0.164
-0.0916 -0.537 -0.156
 0.140 0.0384 0.0333
 0.140 -0.257 -0.443
-0.203  0.233  0.439
-0.358  0.233  0.439
 0.200 -0.537 0.0590
-0.0486 -0.0595  0.439
-0.0143  0.361 -0.443
-0.117 -0.291 -0.399
 0.192 0.0384  0.231
-0.0744  0.310  0.439
0.0372 -0.00797 -0.443
 0.243 -0.154 -0.443
0.0716 0.0178 -0.399
-0.100 -0.369 -0.399
 0.120  0.429  0.323
 0.269  0.319  0.396
 0.132 -0.154  0.396
-0.263 -0.652  0.396
0.0974 -0.480  0.396
0.0115  0.671 -0.443
0.0803 -0.537  0.360
-0.281  0.433  0.222
-0.366  0.725  0.494
-0.373  0.387  0.377
 0.200  0.766 -0.190
 0.252 -0.581  0.257
-0.160  0.422 -0.443
-0.195 -0.515 -0.443
0.0115 0.0384  0.248
-0.298 -0.0509  0.396
0.0888  0.435 0.0848
 0.226 -0.0853 -0.399
-0.203 -0.575  0.439
0.0373  0.525  0.439
 0.319  0.172  0.439
 0.252  0.766 0.0762
0.00291 -0.635  0.439
 0.192 -0.506 -0.443
0.0888  0.435 -0.224
 0.295  0.370  0.145
 0.218 -0.386  0.439
 0.243  0.766 -0.130
-0.349  0.456 -0.443
 0.166 0.0384 -0.345
0.0630  0.422  0.439
-0.384  0.766 -0.139
 0.209 -0.704  0.396
 0.328 -0.549 -0.0698
0.0201 0.0824  0.317
 0.328  0.422 0.0161
-0.186  0.766 -0.413
-0.152  0.435 -0.0956
-0.0229  0.155  0.396
 0.328 -0.128 -0.113
-0.195  0.766  0.136
 0.328 -0.352 -0.371
 0.295 -0.266 -0.224
-0.195 0.0384 -0.328
-0.203 0.0834 0.0762
 0.252 -0.661 -0.443
0.0373 -0.537 -0.267
-0.404 -0.717  0.328
 0.166 0.0384 -0.139
-0.0658 -0.790  0.439
-0.0916 -0.695  0.439
 0.235 -0.581  0.171
0.0372 -0.644 -0.443
-0.0143 -0.669 -0.399
-0.420  0.576 -0.362
-0.195 -0.0595  0.396
 0.269 -0.360  0.396
 0.295  0.215  0.154
 0.295 -0.781 0.0676
 0.328 -0.0681  0.231
 0.328  0.319 -0.164
0.0287  0.370  0.439
-0.315 0.0831 -0.00113
-0.299  0.387 0.0590
-0.246 0.0829 -0.173
 0.149 -0.0853 -0.398
-0.293  0.417 -0.0870
 0.328  0.344 -0.396
-0.186 -0.581 -0.156
-0.0229 -0.581 -0.0269
 0.328 0.0436 -0.345
 0.328 0.0951 -0.00974
-0.306 -0.537  0.102
 0.132 -0.537 -0.173
 0.149 -0.581 -0.121
-0.306 -0.537 0.0333
 0.123 -0.581 -0.0527
0.0372 -0.0767 -0.443
-0.0229 -0.300  0.439
-0.100  0.267 -0.443
-0.0744 -0.575 -0.443
 0.140  0.361 -0.443
-0.238  0.319 -0.399
-0.281 -0.291 -0.399
 0.157 -0.609  0.396
-0.186 -0.386  0.396
-0.315 -0.386  0.439
0.0458 -0.326 -0.399
-0.420  0.679 -0.0784
 0.209 0.0824 -0.156
0.0373 -0.257  0.439
 0.175 -0.721 -0.399
 0.209 -0.223 -0.443
 0.123 -0.00795  0.439
-0.238 -0.283  0.396
 0.328  0.714 -0.104
 0.304 -0.249 -0.443
 0.175  0.722  0.471
-0.255  0.435 -0.164
-0.329 0.0522  0.275
-0.415  0.417  0.250
-0.255 -0.537 -0.207
0.0115 -0.537 -0.0441
-0.246 -0.581  0.222
-0.360 0.0404 -0.108
-0.272 -0.592 -0.443
-0.178  0.181  0.439
-0.238 -0.669 -0.443
 0.226  0.293 -0.399
-0.238 -0.188 -0.443
-0.163  0.719 -0.449
 0.295 -0.781  0.291
 0.115  0.722  0.480
-0.382  0.713 -0.388
 0.292 0.0882  0.368
 0.328 -0.592  0.154
 0.295  0.353  0.282
-0.0916 -0.498 -0.399
-0.377 -0.661 0.0762
 0.312  0.725  0.494
 0.295  0.121  0.265
-0.341 -0.223  0.439
 0.328 -0.154 0.0247
 0.295 -0.0939 -0.336
0.0803 0.0384 0.0590
 0.243 0.0384  0.119
 0.328 -0.369 -0.0956
-0.420  0.516 0.0590
-0.152  0.764 -0.491
-0.135 -0.558  0.439
-0.143 -0.581  0.291
-0.0143 -0.0165  0.439
-0.0486 -0.537 -0.259
 0.235  0.766  0.368
 0.328  0.387  0.377
-0.420  0.525  0.300
 0.295 -0.197 -0.233
 0.149 0.0865 -0.443
 0.192  0.766 -0.0183
 0.328 -0.214  0.342
-0.341 -0.171 -0.443
-0.420  0.542 -0.224
-0.0401 0.0824  0.222
-0.315  0.766 0.0934
 0.295  0.293 -0.242
-0.229  0.766  0.231
-0.186 -0.480 -0.399
-0.358 -0.395  0.396
 0.295 -0.420  0.291
0.0974  0.568  0.439
-0.406 -0.601 0.0247
-0.246 0.0384 -0.0612
0.0201  0.766 -0.181
-0.00568  0.121  0.439
-0.0916 -0.0853 -0.399
 0.295 -0.274 -0.0269
 0.295 -0.730 0.00748
 0.226 0.0824 -0.0441
-0.332 0.0350  0.439
-0.00570 -0.438 -0.399
 0.295 -0.669 -0.319
0.0287  0.766  0.446
 0.140 -0.790  0.396
-0.126  0.301  0.396
-0.409  0.722  0.454
 0.106 0.0846  0.386
-0.272  0.766 -0.319
-0.324 -0.537 -0.353
-0.109 -0.0251  0.439
0.0545 -0.403  0.439
 0.295 -0.206  0.145
 0.328  0.301 -0.310
-0.371 -0.799  0.398
 0.328 -0.687 -0.388
 0.328  0.731 -0.336
 0.328  0.568 -0.233
-0.152 -0.781 -0.399
0.0516 -0.586  0.392
 0.321 -0.137 -0.443
-0.109 -0.796  0.396
 0.295  0.636 -0.443
-0.341 -0.537 -0.0956
0.0201 -0.537  0.368
 0.329 -0.652 -0.437
 0.328 -0.0337 -0.285
-0.434  0.748  0.179
 0.286  0.147  0.395
-0.152 -0.531  0.392
 0.328  0.147 -0.104
 0.328 -0.592  0.394
-0.203 0.0384 -0.0183
 0.328  0.233 -0.130
-0.220 -0.581 -0.345
-0.341 -0.566 -0.443
 0.328 0.0264  0.171
-0.378 -0.299  0.434
0.0545 0.0834 -0.276
 0.328  0.602 0.0934
 0.328 0.000624 -0.0698
 0.200 -0.0509  0.396
 0.328 -0.300 -0.267
-0.117 0.0384 -0.328
0.0115 -0.231  0.396
 0.295 -0.0681 -0.139
-0.169 -0.687  0.396
 0.132 0.0824  0.308
-0.298  0.766 -0.413
 0.328 -0.661 -0.190
 0.328  0.121  0.342
 0.328 -0.704  0.222
0.0373  0.766  0.291
-0.238 0.0384 -0.293
-0.212  0.766 -0.0269
 0.192 -0.581 -0.00111
 0.328 -0.0595  0.377
-0.100 -0.537  0.274
-0.0572  0.611  0.439
0.0373  0.435  0.291
-0.0229  0.766 -0.0355
 0.328  0.361 -0.328
0.0716 -0.145 -0.443
 0.295 -0.111 -0.207
-0.298 -0.326  0.396
-0.00568 -0.558  0.439
-0.00568 -0.537  0.102
-0.00570  0.172 -0.443
-0.178 0.0951 -0.443
0.0459  0.435  0.196
-0.100 -0.214 -0.443
 0.328 -0.240 0.0504
-0.0486  0.464  0.439
0.0115 -0.581 -0.310
-0.0830  0.215 -0.443
-0.109  0.766  0.205
 0.295 -0.231 -0.104
 0.132 -0.343  0.439
-0.229 -0.581  0.360
 0.261 -0.283  0.439
-0.298  0.241  0.439
-0.169 -0.584 -0.443
-0.272  0.766  0.291
 0.157 -0.537  0.111
 0.115 0.0384  0.274
-0.263  0.766 -0.181
 0.235 -0.537 -0.147
-0.349 -0.704 -0.443
-0.220  0.593  0.439
-0.0572  0.766  0.136
-0.434  0.748 -0.379
-0.272 -0.747  0.396
 0.321  0.207 -0.443
-0.178  0.766  0.437
-0.385  0.719 -0.167
0.0716  0.739 -0.499
0.0115 -0.128  0.396
-0.272 -0.581 -0.164
-0.169 -0.581 -0.104
 0.252 -0.581  0.351
-0.0916 -0.581 0.0762
-0.212 -0.537  0.214
0.0201 -0.581  0.248
-0.0572  0.722  0.454
-0.229 -0.326 -0.443
 0.183 -0.317  0.439
-0.0486 0.0824 0.0504
-0.178 -0.0252 -0.443
 0.278 -0.266 -0.399
 0.261 -0.163  0.439
-0.229 -0.343  0.396
-0.324  0.276  0.396
-0.186  0.147  0.396
-0.126  0.336  0.439
-0.324 -0.00797 -0.443
-0.238 -0.0853 -0.399
-0.0916 -0.111  0.439
 0.200  0.207  0.396
-0.433  0.755 -0.0956
 0.320 -0.800 -0.276
-0.298  0.336  0.396
-0.332 -0.377 -0.399
-0.229 -0.800 -0.406
-0.341 -0.678  0.396
-0.376 -0.669 -0.156
-0.169 -0.535 -0.388
-0.349  0.387 -0.242
 0.295 -0.403  0.377
-0.377 -0.618 -0.190
-0.341 -0.581  0.282
-0.332 -0.0681 -0.443
-0.109  0.713 -0.445
 0.243  0.258  0.396
0.0545 -0.796  0.396
-0.392  0.766 0.0762
-0.349 -0.581 -0.371
-0.0572 0.0384 -0.207
-0.377 0.0812 -0.353
-0.422  0.610 -0.0698
 0.295  0.284 -0.130
-0.281 -0.535 -0.388
-0.423  0.766  0.265
-0.272  0.435 -0.0269
 0.278 0.0384 0.0247
-0.378 0.0435 -0.397
-0.293  0.390  0.119
 0.123 -0.609 -0.443
 0.286 -0.0251  0.439
 0.295  0.224 -0.173
-0.195 -0.429 -0.399
-0.406 -0.738  0.385
-0.377 -0.661 -0.259
-0.160  0.190 -0.399
-0.178 -0.188  0.396
0.0458 -0.721  0.396
0.0545  0.319 -0.399
-0.0315 -0.274 -0.443
-0.0400 0.0834 -0.0527
-0.117 0.0832 -0.242
-0.329 0.0766 -0.189
-0.135  0.654  0.439
-0.220 -0.120 -0.443
 0.328 -0.283 0.0848
0.0115  0.766 -0.267
-0.420  0.662 0.0504
-0.152  0.766 -0.0355
 0.329  0.679  0.428
-0.100  0.766 -0.302
-0.366 -0.309 -0.443
-0.289  0.155 -0.443
 0.328 -0.0166  0.248
 0.278  0.766 0.0161
-0.117  0.353 -0.399
-0.0916 -0.163 -0.443
-0.135  0.129  0.396
-0.143 -0.537 -0.216
-0.143 0.0834 -0.302
-0.358  0.628  0.439
 0.328 -0.120  0.394
0.0716 -0.377 -0.399
 0.252  0.499  0.439
 0.328  0.413 -0.388
-0.366  0.387 -0.302
 0.226 -0.489  0.396
-0.160  0.766 -0.345
-0.238 -0.412 -0.443
 0.269 0.0384 -0.199
 0.132 0.0824 -0.113
 0.328 -0.541 -0.328
-0.384  0.766 -0.242
 0.115  0.172 -0.443
0.0630  0.129  0.396
-0.186 -0.206 -0.443
0.0630 -0.678  0.439
-0.117 0.0384 0.0762
-0.298 0.0831  0.342
-0.160  0.310 -0.399
-0.400  0.702  0.351
 0.218 0.0953  0.396
-0.373  0.336  0.439
-0.289 -0.581 -0.345
-0.406 -0.755 -0.396
 0.286 -0.0252 -0.443
 0.172 0.0331  0.392
 0.286 -0.472 -0.443
 0.115 -0.537 -0.336
-0.109 -0.581 -0.345
0.0630 -0.537 -0.130
0.0716 -0.581 -0.0870
0.00290 -0.581 -0.207
-0.435  0.739 -0.00113
0.0459 -0.537  0.308
0.0974 0.0384  0.162
-0.306 -0.581 -0.00970
 0.252 -0.581 -0.319
-0.0572 0.0384  0.248
 0.175 0.0824  0.119
0.0545  0.155 -0.443
 0.235 0.0824 -0.276
-0.117 -0.395  0.396
-0.332 -0.240 -0.443
-0.178 -0.455 -0.443
0.0974  0.267 -0.399
-0.220 -0.721  0.396
0.0630 -0.137  0.396
-0.00569  0.250  0.396
-0.0229  0.198  0.439
-0.341 -0.00797  0.396
-0.0744  0.258 -0.399
-0.126  0.147 -0.399
 0.149  0.233 -0.443
-0.341 -0.730 -0.399
-0.255  0.387  0.439
-0.0572  0.310 -0.399
 0.261 -0.343 -0.399
 0.209 -0.669  0.439
 0.269 -0.537 -0.242
0.0372 -0.712 -0.399
-0.169  0.387 -0.336
-0.160 -0.592  0.396
-0.0658 -0.537 0.00748
-0.186 0.0694  0.439
-0.0229 0.0384 -0.0269
-0.0744 0.0264 -0.443
 0.328  0.559 -0.0269
-0.0229 -0.180  0.396
-0.0916 0.0834 -0.00971
 0.166 -0.592 -0.399
 0.328  0.696 -0.0269
-0.0143 0.0834 -0.224
-0.401  0.766  0.394
-0.367 -0.721  0.441
 0.328  0.499 -0.242
-0.0143 0.0384  0.351
-0.272  0.688 -0.443
-0.281 -0.581  0.325
 0.295  0.233 0.0848
0.0459 0.0384  0.154
-0.324  0.370  0.439
 0.218 -0.537 -0.0784
0.0459 0.0384  0.343
-0.420  0.525  0.360
-0.315 0.0384 -0.293
-0.315 -0.463 -0.443
-0.373  0.387 -0.00112
 0.328 -0.446 -0.147
-0.358  0.387  0.282
 0.210  0.422 0.0333
-0.377 0.0810 0.0160
 0.328 -0.300 -0.147
 0.252  0.387 -0.371
 0.295  0.301  0.300
 0.328  0.258 -0.224
-0.00569 0.0834 -0.0956
 0.328 -0.0939 -0.0183
-0.272 0.0384 0.0934
 0.295 -0.437  0.136
-0.203 -0.537 -0.0269
-0.220 -0.581 -0.0870
-0.0315 -0.581  0.102
-0.117 -0.537 0.00748
 0.252 -0.581 0.0418
-0.00568 -0.537  0.248
-0.143 0.0824  0.205
-0.00568 -0.800 -0.431
-0.0658 -0.240  0.439
 0.106  0.241  0.396
 0.218 -0.334  0.396
-0.0315 -0.438 -0.443
 0.295 -0.472  0.317
-0.109 -0.317  0.439
 0.328 -0.489 0.0504
 0.295 -0.171 -0.0183
 0.295 -0.472 -0.0269
 0.278 -0.128 -0.399
 0.183 -0.283 -0.399
-0.0486 0.0779  0.439
-0.203  0.258  0.396
 0.295 -0.343 -0.250
 0.328  0.241 -0.319
-0.0486 0.0384 -0.345
 0.328 -0.721 -0.242
-0.123 0.0882 -0.395
 0.278 -0.403  0.439
 0.278  0.722 -0.491
-0.404 -0.606 -0.444
0.0373  0.411 -0.342
-0.195  0.719  0.447
 0.140 0.0371 -0.389
-0.126  0.198  0.440
 0.213  0.401 -0.147
-0.203 -0.537 -0.190
-0.152 0.0826  0.102
-0.341 -0.581 -0.0698
 0.140 -0.581 -0.267
-0.109 -0.581 -0.207
-0.0315 0.0824  0.282
 0.200 -0.581 -0.113
 0.183 -0.537  0.300
-0.255 -0.687 -0.399
-0.169 -0.403  0.439
-0.0916  0.319 -0.443
 0.226 0.0384  0.179
 0.252 0.000622  0.396
 0.278  0.104 -0.443
 0.261 -0.231  0.396
 0.201 -0.257  0.439
 0.157  0.241  0.439
-0.178 -0.463  0.439
 0.201 -0.738  0.439
-0.0830 -0.145  0.396
-0.405 -0.578 -0.293
-0.0830 -0.463 -0.443
-0.0401 -0.334 -0.443
 0.326 -0.799 -0.371
-0.186 -0.661 -0.399
0.0888  0.138 -0.399
 0.175 -0.395 -0.443
0.0803 -0.747  0.439
-0.212  0.435 -0.190
 0.149 -0.581 -0.319
 0.328  0.482 0.0504
-0.0487  0.766 0.00750
-0.0401  0.241 -0.443
 0.252 0.0824 -0.00112
 0.328  0.696 -0.413
-0.420  0.585  0.145
 0.328  0.525 -0.345
-0.229 0.0834  0.154
 0.295 -0.300  0.291
-0.0744  0.241  0.439
-0.238 -0.214  0.396
-0.246 0.0384  0.136
-0.195  0.766 -0.156
 0.157  0.435  0.188
 0.132 -0.206 -0.399
-0.366  0.387  0.231
-0.246 0.0384  0.222
-0.420  0.550 -0.156
0.0545 -0.581 0.0333
-0.315 -0.581 -0.139
-0.220 0.0829 -0.0527
-0.0401 -0.00797  0.396
-0.417  0.420  0.357
0.0545  0.435 -0.267
-0.126 0.0384 -0.156
 0.149 -0.0166 -0.399
0.0630 -0.438  0.396
 0.295  0.327 0.0590
-0.375  0.722 -0.490
-0.169 -0.581 -0.0355
-0.246 -0.128  0.439
0.0716  0.766 0.00748
-0.420  0.516 -0.267
 0.328  0.688  0.257
-0.246  0.181 -0.443
 0.295 -0.412  0.222
 0.123 -0.317  0.396
 0.226  0.164 -0.443
-0.178  0.284 -0.443
 0.132 -0.626  0.439
-0.160 -0.240  0.439
-0.0745  0.766 -0.0354
-0.280  0.387 -0.336
-0.109  0.433 -0.319
-0.420  0.456  0.154
-0.332  0.112 -0.399
 0.213  0.390 -0.0412
-0.406 -0.635  0.411
-0.373  0.215  0.396
 0.328 -0.584 -0.259
 0.295 -0.678  0.248
 0.295 -0.695  0.145
 0.295  0.336 -0.0956
 0.295 -0.317 0.0590
 0.328 -0.704 -0.0784
-0.203  0.766 -0.465
 0.295  0.112 -0.242
 0.328  0.396  0.248
-0.420  0.499 -0.379
-0.332 0.0831 -0.0699
-0.186 -0.609 -0.399
 0.295 -0.274 -0.353
 0.252 -0.800 -0.431
-0.349 -0.800 -0.431
 0.286 0.0371  0.317
0.0573 -0.531 -0.395
 0.325  0.564  0.438
-0.378 -0.542 -0.139
 0.292 -0.531 -0.0355
0.00290 0.0834 -0.147
-0.0744 0.0384 -0.302
 0.328  0.215 0.0246
-0.212 0.0384 0.0590
-0.135 0.0384 0.0161
-0.385  0.625 -0.425
-0.406 -0.712  0.222
 0.295  0.181 0.0762
 0.328  0.293 0.0505
-0.281 0.0832 -0.130
-0.195 0.0384 -0.0698
 0.328 -0.429 -0.233
 0.328 -0.0595  0.300
 0.295 -0.240 -0.302
 0.328 -0.257  0.145
 0.295  0.172 -0.207
 0.295 -0.334 -0.181
 0.328  0.361  0.179
-0.406 -0.635  0.128
 0.328 -0.377 -0.0183
 0.328 -0.412 0.0418
 0.243 -0.0681 -0.443
 0.235 -0.584  0.440
-0.406 -0.678 -0.336
-0.263  0.435 -0.216
-0.203  0.766  0.308
-0.406 -0.618  0.214
 0.166  0.654  0.439
-0.315  0.654  0.439
 0.226 -0.197  0.396
 0.295 -0.102  0.188
-0.315  0.766  0.437
 0.295  0.129 -0.328
 0.328  0.550  0.239
 0.328  0.327  0.136
-0.178 -0.581 0.0418
 0.192 -0.537 -0.0269
0.0630  0.766 -0.130
-0.135  0.766  0.325
-0.0143 -0.369  0.396
 0.261 0.0384 -0.0355
 0.295  0.138 -0.00970
-0.00568  0.499  0.439
-0.100 -0.197  0.439
 0.328  0.533 0.0161
 0.123  0.435 -0.0269
-0.109  0.435 -0.207
 0.278 0.0264  0.439
-0.0143 0.0350  0.439
 0.328 -0.764 -0.310
0.0373 -0.145  0.440
-0.143 -0.343 -0.398
 0.166 -0.537  0.248
0.0630 -0.163 -0.398
 0.295  0.378 0.00748
 0.278 -0.538  0.334
 0.269  0.181  0.439
 0.328  0.473  0.308
-0.315 -0.652  0.439
 0.328  0.396 0.0590
-0.0830 0.0384  0.300
0.0201  0.396 -0.443
 0.286 -0.154  0.395
-0.385  0.719  0.202
 0.321  0.542 -0.443
 0.243 0.0824 -0.190
0.0372  0.276 -0.443
 0.218 0.0846 -0.389
 0.298 -0.799  0.165
-0.349 -0.300  0.396
-0.289 0.0834  0.179
-0.376 -0.669 -0.0355
-0.332 -0.537  0.360
 0.328 -0.472 -0.353
-0.195 -0.537 -0.139
 0.140 -0.581 -0.00111
-0.0658 -0.581  0.257
-0.229 -0.581  0.154
0.0545 -0.581 -0.233
-0.315 -0.581  0.119
 0.235 0.0824  0.351
 0.140 0.0824 -0.0527
 0.261 0.0824 -0.328
 0.115 0.0824  0.214
-0.358  0.387 -0.173
-0.0744 0.0824  0.179
 0.209 0.0384 -0.0526
 0.218 0.0384 0.0590
 0.200 -0.635 -0.443
-0.212 -0.721 -0.443
 0.106  0.155  0.439
-0.0744  0.147 -0.399
-0.0401 -0.0337 -0.443
-0.169 -0.171 -0.399
-0.0315 0.00921 -0.399
-0.160 -0.0853 -0.443
-0.0229 -0.618 -0.399
0.0716 -0.601 -0.443
 0.278  0.258 -0.443
 0.140 -0.438 -0.399
 0.269 -0.197 -0.443
-0.349 -0.206  0.396
-0.0229  0.344  0.439
 0.295 -0.712  0.317
 0.295 -0.154  0.325
 0.292  0.384 -0.159
 0.328  0.215 -0.0269
-0.373 -0.537  0.257
 0.328 -0.618 -0.0527
 0.295  0.258 -0.362
-0.152  0.739  0.496
-0.400 -0.711 -0.156
-0.291  0.396  0.171
-0.349  0.198 -0.443
-0.306  0.755 -0.498
 0.328 0.0608  0.205
 0.286 -0.772  0.439
-0.135  0.435  0.300
0.0286 -0.197  0.440
-0.306 -0.781  0.396
 0.328 -0.377  0.403
-0.281 -0.796 -0.443
0.0459  0.766 -0.456
0.0974  0.387  0.360
-0.377  0.115  0.398
 0.106 -0.581  0.145
-0.0744 -0.581 -0.0784
-0.0830 -0.581 0.00748
-0.238 -0.537 0.0762
0.0115 -0.581 -0.139
0.0287 -0.581  0.351
 0.226 0.0824  0.119
 0.243 -0.523 -0.443
-0.203 -0.652  0.439
 0.132 -0.137  0.439
-0.281 -0.0509  0.439
0.0458 -0.480 -0.443
0.0287 -0.721  0.439
-0.341  0.387 0.0332
 0.192 -0.437  0.439
-0.358  0.344 -0.443
 0.106 -0.712 -0.443
-0.0916 -0.712  0.396
 0.106  0.370  0.439
 0.278 -0.283  0.396
 0.213  0.401  0.248
-0.229  0.353  0.396
-0.380  0.397 -0.0527
-0.378 -0.540 -0.431
 0.292 0.0882 -0.379
 0.286 -0.240  0.439
 0.328 -0.558 -0.422
-0.315  0.719  0.447
 0.326  0.766 0.0218
-0.238  0.766  0.479
-0.337 0.0394 -0.162
-0.178 0.0384  0.351
0.0888 0.0824  0.342
-0.366 -0.103 -0.443
-0.238 0.0834 -0.345
-0.426  0.565 0.0226
 0.123 0.0384 -0.233
-0.0136 -0.800  0.435
-0.246  0.267 -0.399
 0.328 -0.171  0.145
 0.328  0.370 -0.233
 0.295 0.0436 -0.443
 0.328  0.748  0.394
0.0287  0.766 0.0418
-0.349 -0.0767  0.439
-0.143 -0.180  0.439
-0.186 0.0829  0.136
-0.160  0.516  0.439
 0.295 -0.180 -0.379
-0.420  0.482 -0.224
 0.328  0.190  0.179
 0.149  0.766 -0.242
0.0974  0.766 -0.199
-0.00568 -0.537 -0.285
-0.341  0.172  0.396
-0.212  0.766 0.0676
-0.255  0.310 -0.443
 0.106  0.766  0.385
 0.243 -0.386 -0.399
-0.203 0.0824  0.257
-0.186  0.435 -0.233
 0.175  0.464 -0.443
 0.201 0.0384  0.136
 0.209  0.516  0.439
0.0888 0.0824 -0.0956
0.0373 0.0834 -0.319
-0.126 0.0178  0.439
-0.0658 -0.369  0.396
-0.0916  0.550  0.439
 0.106 0.0693 -0.443
-0.0744 0.0384  0.128
 0.115  0.435 0.0247
-0.392  0.766 0.0247
-0.0400 -0.537  0.162
 0.328 0.0264  0.265
-0.109 0.0384 -0.0956
 0.328  0.301 -0.0441
0.0201  0.766 -0.371
-0.135  0.766  0.403
0.00290 -0.747  0.396
-0.160 0.0384  0.188
-0.186 0.0831 -0.224
 0.269 -0.537  0.205
 0.328 -0.309 -0.00971
 0.329 -0.695  0.428
-0.324 0.0831  0.102
-0.100 -0.537  0.136
 0.201 -0.498  0.440
-0.332 -0.537 -0.302
 0.261 -0.446  0.439
-0.406 -0.652  0.291
-0.306  0.241 -0.399
-0.109 -0.498  0.396
0.0888  0.258  0.439
-0.195  0.172 -0.443
-0.238 -0.581  0.291
 0.132  0.766  0.325
 0.328  0.430  0.145
-0.420  0.507  0.214
 0.235  0.688 -0.443
-0.238  0.662  0.439
-0.195  0.766 -0.310
0.0803  0.766 -0.0527
-0.186 -0.537  0.308
-0.229  0.766  0.179
0.0974 -0.537  0.317
-0.178 -0.300 -0.443
 0.192  0.129 -0.443
 0.226 -0.111 -0.443
 0.295  0.370  0.325
 0.166 0.0824  0.214
 0.166  0.435 -0.139
 0.106  0.766  0.257
