ply
format ascii 1.0
element vertex 2048
property float x
property float y
property float z
end_header
-0.0347 -0.469  0.156
0.0289  0.933  0.359
0.000488 0.0904 -0.539
-0.291  0.241  0.360
 0.333 0.0931 0.0513
 0.290 -0.456 -0.395
-0.312 -0.441 -0.379
-0.382 0.0699 -0.150
 0.364  0.526  0.348
-0.343  0.688  0.317
 0.359 -0.348 0.0187
0.00878 -0.0617  0.302
-0.376 -0.309 0.00407
 0.334 -0.0456 -0.329
-0.0149  0.511  0.355
0.000233 -0.278 -0.540
-0.0144 -0.471 -0.188
 0.186  0.232  0.351
-0.269 -0.0797 -0.428
-0.298 -0.0224  0.163
 0.286  0.804  0.306
 0.182 -0.304  0.255
 0.225 -0.271 -0.208
-0.227 -0.294  0.232
-0.235 -0.240 -0.213
 0.183 -0.116 0.0727
0.0854 -0.0926 -0.377
-0.0536  0.194  0.306
-0.193 -0.473 -0.0260
 0.371 -0.116 -0.0957
-0.108  0.735  0.361
 0.155 -0.473 -0.00287
0.0946 0.0904  0.141
-0.270  0.472  0.361
0.0625 -0.473 -0.421
 0.333 -0.473 -0.173
-0.242 -0.0772 -0.0492
 0.240 0.0887 -0.173
-0.202 0.0801 -0.289
 0.248 -0.232 -0.436
-0.0221 -0.247  0.164
 0.202 0.0931 -0.452
-0.135 -0.461 -0.515
-0.380 -0.469 -0.173
 0.163  0.627  0.305
-0.307 -0.472  0.152
 0.279 -0.472  0.176
-0.118 0.0789  0.138
-0.114 -0.302 -0.371
 0.178  0.426  0.306
 0.352  0.326  0.300
-0.367 -0.100 -0.259
-0.185 0.0919 -0.482
-0.0924 -0.0772 -0.528
-0.170 -0.116  0.266
 0.163 -0.473 -0.258
 0.103 -0.469  0.288
-0.293 0.0908 0.0126
 0.235 -0.0101  0.216
-0.192 -0.471 -0.243
-0.196 -0.208 0.0712
-0.131  0.364  0.311
 0.185 -0.307 0.0643
-0.293 -0.258 -0.404
-0.0556 -0.363  0.297
0.0801 -0.302 -0.379
-0.146  0.901  0.314
 0.230 -0.0926 -0.196
0.0702  0.774  0.308
 0.343 -0.178 0.0717
-0.0149 -0.473 -0.0183
-0.359 -0.139 0.0577
-0.120 -0.126 -0.366
-0.0386 0.0234 -0.392
 0.351 -0.348 -0.279
0.0779  0.109  0.352
0.0469  0.317  0.355
-0.381 -0.155 -0.103
-0.156 -0.371  0.108
 0.174 -0.379 -0.492
 0.146 -0.142  0.268
 0.230 -0.193 -0.0649
 0.363 -0.185 -0.242
-0.364 -0.320 -0.271
-0.186 -0.464  0.259
 0.231 -0.0694 -0.451
 0.181 0.0234 -0.309
-0.168 -0.220 -0.498
-0.373 -0.469 0.00557
-0.193  0.604  0.314
 0.121 -0.177 -0.516
-0.0695 -0.0694  0.155
 0.224 0.0106 -0.0225
-0.243 -0.340 -0.0955
-0.356 0.0875 -0.301
 0.371 -0.286 -0.127
-0.100 -0.473 -0.366
-0.262  0.813  0.362
-0.240 -0.0358 -0.195
-0.127 0.0466  0.285
 0.110 -0.0153 -0.521
 0.371 0.0699 -0.103
0.0999 -0.405  0.137
 0.310  0.658  0.305
 0.229 -0.371 -0.0804
-0.378 -0.0230 -0.0261
0.0307 -0.247  0.301
 0.346 0.0908 -0.289
 0.264 -0.160  0.190
-0.352  0.366  0.314
-0.284 -0.162  0.181
 0.167 -0.201 -0.324
0.00832  0.650  0.355
 0.165  0.899  0.355
 0.334 -0.0411 0.0893
0.0732 -0.0829  0.149
-0.193 -0.0456 0.0759
-0.248 0.0923 -0.135
 0.285 -0.299  0.164
-0.230 -0.374 -0.464
-0.239 0.0927  0.206
0.0140 -0.425 -0.538
-0.00689 -0.193 -0.399
0.0779 0.0928 -0.390
-0.183  0.146  0.357
-0.382 -0.286 -0.142
-0.323 -0.278  0.126
-0.0149 0.0931  0.222
-0.106 -0.240  0.292
 0.368 -0.472 -0.0261
 0.367 -0.0307 -0.196
 0.105 -0.229  0.134
 0.101 -0.473 -0.127
-0.244 -0.216 -0.0569
 0.181 -0.356 -0.305
-0.215 -0.350 -0.274
 0.125 -0.00815  0.278
-0.139  0.488  0.359
-0.294 0.0648 -0.407
-0.348  0.573  0.363
 0.233 0.0908  0.144
-0.191 -0.0411 -0.312
 0.186  0.751  0.355
 0.248  0.526  0.303
-0.108 -0.332 -0.523
 0.116  0.519  0.355
-0.123 -0.472 -0.134
 0.295  0.418  0.350
-0.183 -0.219 -0.318
-0.353 -0.209 -0.312
 0.155 -0.00239 0.0980
 0.227 -0.394 -0.197
-0.0458  0.836  0.358
0.0313 -0.471 -0.307
-0.185  0.256  0.311
 0.317 -0.169 -0.350
0.0313 -0.100 -0.535
0.0781 -0.356  0.293
 0.171 -0.473 -0.374
 0.184 0.0917  0.250
 0.369 -0.0229 -0.0262
-0.229  0.714  0.313
 0.299 -0.316 -0.377
-0.226 -0.371 0.0133
 0.295 -0.472 -0.281
-0.00267 -0.378 -0.397
-0.242 -0.456 -0.127
 0.293 0.0699 -0.387
-0.00743 -0.472  0.305
-0.0149  0.410  0.307
 0.369 -0.224 -0.0261
-0.327 0.0776  0.124
-0.350 -0.394 0.0869
-0.100 -0.473 0.0668
-0.381 -0.387 -0.0956
-0.383 -0.0462 -0.134
0.0780  0.225  0.304
-0.0924  0.596  0.359
 0.186 -0.0926 -0.296
 0.334 -0.428 0.0893
-0.199 0.0699 0.0635
-0.117 -0.170  0.136
-0.331 -0.0333 -0.351
-0.362 -0.472 -0.280
-0.247  0.341  0.359
 0.121 -0.285 -0.516
0.00783 -0.356  0.165
-0.227 -0.131 -0.243
-0.183 -0.0307 -0.493
-0.284 -0.371  0.181
-0.381 -0.193 -0.204
 0.287  0.240  0.300
 0.121 -0.469 -0.516
0.0154 0.00797  0.164
-0.146 0.0908 -0.382
-0.0691 -0.193 -0.530
-0.0691  0.287  0.356
 0.230 -0.00749 -0.127
 0.225 -0.473 -0.127
 0.203 -0.436  0.239
0.0393 -0.473 0.0823
 0.119 0.0889 -0.517
 0.369 -0.402 -0.103
-0.363  0.472  0.314
-0.374 0.00797 -0.236
-0.0374 -0.155  0.302
-0.354 -0.0153 0.0741
 0.210 0.0930 0.0437
-0.213 0.000200  0.242
-0.243 -0.131 -0.142
 0.163  0.325  0.303
-0.124 -0.278  0.131
-0.0446  0.104  0.352
-0.101 0.0234 -0.525
 0.229 -0.0926 -0.0726
0.0855  0.410  0.354
-0.154 -0.392 -0.343
-0.371 0.0885 -0.0493
 0.279 0.0908 -0.0725
-0.239 0.0234 -0.0358
-0.229 -0.472 -0.464
-0.0613 0.0923 -0.459
 0.376  0.441  0.300
-0.0104 -0.0874 -0.397
0.00878 0.0389  0.302
 0.209 -0.468 -0.464
-0.0227  0.735  0.312
 0.339 -0.276 0.0826
-0.321 -0.132 -0.362
-0.259 -0.175 -0.440
 0.217 -0.178 -0.245
 0.209 -0.222 0.0258
 0.153 -0.473 0.0956
0.00745 -0.00749 -0.539
 0.181  0.137  0.350
0.0779 0.0931  0.245
-0.378 -0.201 -0.0126
 0.101  0.681  0.354
0.0857  0.874  0.308
-0.0923 -0.473 -0.243
-0.0535  0.921  0.311
-0.328 -0.340 -0.356
-0.161  0.797  0.315
 0.357 0.0887 -0.196
-0.125 -0.00239 -0.366
-0.379 -0.379 -0.196
 0.231 -0.278 -0.103
-0.244 -0.0848  0.218
0.0750 0.000200 -0.382
0.0779  0.588  0.307
 0.367 -0.356 -0.189
 0.209 -0.405 0.0295
-0.0993 -0.469  0.294
0.0906 -0.185 -0.375
-0.0924 -0.0385  0.292
0.0777 -0.471 -0.215
0.0853 -0.394 -0.377
-0.186 -0.371  0.259
-0.189 -0.456 0.0769
 0.256 0.0908 -0.305
-0.278  0.642  0.361
 0.240  0.604  0.350
-0.242 -0.387 -0.195
-0.219 -0.131 0.0293
 0.248  0.341  0.350
 0.254 -0.371 -0.433
 0.235 -0.242  0.216
-0.208  0.410  0.311
 0.232 -0.193 -0.158
-0.189 -0.134 -0.488
 0.363 -0.129 0.000810
 0.254 -0.376  0.197
-0.0803 -0.379  0.153
 0.223 -0.00749 -0.219
 0.178 0.0927 -0.366
-0.0381 -0.473 -0.103
-0.0940 -0.209 -0.378
-0.270 0.0908 -0.235
 0.118 -0.252  0.283
 0.268 -0.147 -0.418
 0.214 -0.0926  0.233
0.0842 -0.320  0.144
-0.231 -0.285 -0.00587
 0.196 -0.155 -0.479
 0.283 -0.0772  0.172
0.00818  0.240  0.355
-0.0149 -0.473 -0.382
-0.134 -0.00690  0.126
-0.0767  0.666  0.310
 0.287 -0.0153 -0.399
-0.320 -0.100  0.134
-0.248 0.00279 -0.446
 0.248  0.720  0.304
 0.345 -0.263 -0.290
 0.224 -0.307 -0.0225
-0.108 -0.473 -0.0493
 0.360 -0.425 -0.244
 0.356 -0.0926 -0.254
-0.355 -0.224 0.0686
-0.231 -0.276 -0.460
-0.272  0.571  0.315
 0.368 -0.193 -0.158
-0.0222 -0.162  0.164
-0.175 -0.201  0.263
-0.00689 -0.294 -0.399
 0.229 -0.456 -0.0411
-0.382 -0.469 -0.0803
 0.196 -0.294 -0.479
0.0730 -0.472 -0.0171
0.0470 0.0927 -0.467
-0.0923  0.441  0.309
 0.256 -0.472 -0.204
-0.0228  0.588  0.310
-0.146 0.0931  0.214
 0.318  0.743  0.352
 0.372  0.604  0.301
-0.250 -0.448  0.210
 0.369 -0.263 -0.212
-0.123  0.225  0.357
 0.124  0.813  0.357
-0.170  0.681  0.361
 0.307 0.0569  0.135
0.0472 -0.209 -0.531
 0.217  0.836  0.353
 0.148 -0.0849 -0.504
 0.165 -0.196 0.0915
0.0621 -0.163  0.154
0.0391  0.472  0.309
-0.382 -0.116 -0.181
-0.301  0.758  0.317
-0.205  0.869  0.362
-0.243 -0.255 -0.135
 0.209 -0.0513 0.0258
-0.173 -0.467 -0.323
-0.185 -0.302 0.0818
 0.333 -0.418 -0.326
-0.363 0.0699 0.0453
0.0772 -0.170  0.294
-0.172 -0.131 0.0932
 0.371 -0.00749 -0.119
-0.0540 -0.464 -0.531
0.0239  0.139  0.304
-0.381 -0.124 -0.0262
0.0995 -0.394 -0.525
 0.180 -0.00749 -0.487
-0.0227  0.325  0.307
-0.377 -0.387 -0.00698
-0.277 -0.240  0.189
 0.209  0.480  0.353
 0.368 0.0621 -0.0113
 0.368 -0.108 -0.173
-0.247 0.0908  0.129
-0.0845  0.519  0.309
-0.355 0.0908 -0.219
 0.171 -0.278 -0.320
-0.0880 -0.384 -0.383
-0.208  0.488  0.314
 0.163 -0.473 -0.0802
-0.380 -0.240 -0.0802
 0.124  0.279  0.353
 0.299 -0.239 -0.377
 0.146 -0.387  0.271
-0.0612 0.0312  0.159
-0.227 0.0234 -0.243
-0.224 0.0908 -0.390
0.0546 -0.332 -0.530
-0.243 -0.0229 -0.103
-0.322  0.295  0.314
-0.122  0.119  0.309
-0.288 -0.369 -0.415
-0.134 -0.441  0.129
-0.350 -0.469 0.0811
-0.355 -0.392 -0.295
-0.286  0.403  0.312
-0.157 -0.387 -0.503
0.0614 -0.473  0.154
 0.163 -0.374 0.0907
0.0237  0.805  0.359
-0.180 -0.144 -0.322
-0.00859 0.0917 -0.400
 0.177 -0.209  0.257
 0.304 -0.381  0.139
-0.243 -0.418 -0.0424
 0.217 0.0699 -0.245
0.0856 -0.0694  0.292
 0.295 0.0923 -0.235
-0.133 -0.325  0.280
 0.124  0.147  0.304
 0.364  0.387  0.349
-0.270 0.0925 -0.0570
 0.357 0.0241 -0.261
0.000342 -0.0926  0.165
-0.380 0.0157 -0.0957
 0.221 -0.155 -0.00387
 0.148 -0.0462 -0.337
0.0894 -0.0127  0.142
0.0314  0.720  0.358
 0.153 0.0724  0.103
-0.187 -0.291 -0.314
-0.131  0.845  0.361
-0.376 -0.263 -0.229
-0.0502 -0.285  0.298
 0.140 -0.473 -0.444
-0.193  0.542  0.358
-0.224  0.217  0.359
-0.238 -0.317 -0.211
-0.0854 -0.263 -0.527
0.0160  0.859  0.312
 0.240  0.186  0.347
-0.323 -0.185  0.126
 0.235 0.0157 -0.447
-0.289 0.0466  0.179
-0.0691 0.0931  0.268
 0.302  0.480  0.301
 0.124 0.0908 -0.444
 0.295  0.581  0.305
 0.202  0.681  0.354
 0.302 -0.100 -0.376
-0.174 -0.296 -0.496
-0.0388 -0.124 -0.534
0.0470 -0.473 -0.498
 0.140  0.720  0.309
 0.223 -0.471 -0.327
-0.106 -0.139  0.293
0.0156 -0.387  0.304
-0.286 0.0923 -0.305
 0.310 -0.150  0.127
-0.139  0.310  0.356
0.0858  0.348  0.305
 0.310  0.294  0.347
 0.292 -0.229  0.159
-0.165 -0.0456  0.265
 0.163  0.534  0.304
-0.222 0.000200 0.0281
-0.0537  0.379  0.357
 0.368 -0.185 -0.0879
 0.264 0.0492  0.191
-0.0388 -0.379 -0.534
 0.327 0.0234 -0.339
 0.369 -0.294 -0.0261
-0.255  0.279  0.313
 0.252 -0.302 -0.433
 0.367 -0.402 -0.0337
0.0979  0.923  0.357
-0.0827 -0.0539 -0.386
-0.352 -0.325 0.0810
 0.183 0.0182  0.252
-0.317 0.0908 -0.127
 0.124  0.201  0.350
-0.129 -0.162 -0.518
 0.359  0.688  0.349
 0.161 -0.425 -0.326
 0.351 0.0157 0.0366
 0.288 -0.0101  0.160
-0.332  0.419  0.360
-0.134 -0.0843  0.126
0.0162 0.0852  0.161
0.0470 -0.473 -0.0802
 0.207 -0.402 -0.262
-0.223 -0.0643 -0.255
0.0232 -0.317  0.303
-0.208  0.758  0.360
 0.179  0.372  0.350
-0.354 0.0131 -0.301
 0.370 -0.469 -0.0957
 0.163  0.851  0.307
 0.143 -0.0752  0.109
-0.162  0.418  0.359
-0.0621 0.0312  0.297
 0.159 -0.232 -0.499
-0.355  0.619  0.315
0.0951 -0.471 -0.328
 0.248  0.387  0.302
 0.318 0.0908 -0.142
0.0682 0.0473 -0.530
-0.226 -0.415 -0.254
0.0546  0.550  0.356
0.0470  0.186  0.353
 0.111  0.450  0.307
 0.227 0.0776 -0.0334
 0.134 0.0389 -0.353
-0.139 -0.473 0.0127
 0.229 -0.332 -0.142
 0.231 -0.131 -0.127
-0.328 0.0389 -0.356
-0.286  0.712  0.361
 0.228 0.0544 -0.104
0.0237  0.379  0.355
-0.100  0.163  0.356
-0.382 -0.309 -0.0803
-0.170 -0.473 -0.181
-0.164 0.0415 -0.337
-0.0923  0.820  0.314
-0.115  0.271  0.308
 0.143 -0.284  0.109
 0.124  0.604  0.353
 0.137 -0.471 -0.187
 0.157 -0.0772  0.264
 0.145 -0.116 -0.341
 0.355 -0.430 0.0241
-0.315 -0.196 -0.372
-0.196 0.0621  0.254
-0.0605 -0.155 -0.392
-0.104  0.916  0.361
0.0447 -0.232 -0.390
-0.246 0.0750 -0.450
-0.238 -0.185  0.221
-0.146  0.542  0.313
 0.201 -0.468 0.0439
 0.125 -0.160  0.127
-0.297 0.000200 -0.402
-0.365 -0.0772 0.0399
 0.279  0.689  0.352
0.0629 0.000200  0.295
-0.122 -0.410  0.284
 0.333  0.619  0.351
-0.351 -0.278 -0.318
-0.0645 -0.265 -0.390
 0.210 -0.325 -0.257
-0.288 -0.302  0.177
-0.241 -0.278 -0.0726
-0.242 -0.193 -0.119
 0.368 -0.418 -0.173
-0.193  0.348  0.312
-0.244 0.0157 -0.158
-0.0458  0.696  0.357
 0.240  0.457  0.302
 0.344 -0.131 -0.303
 0.132 -0.325 -0.352
-0.143 -0.0617 -0.355
-0.0468 -0.325  0.158
0.0624  0.658  0.310
-0.177 0.0908  0.121
-0.0608 0.0776 -0.533
-0.0426 -0.471 0.0923
-0.0837 0.0878 -0.383
 0.109 -0.473 0.0513
-0.224 -0.0617 0.0192
 0.348 -0.0900 0.0529
-0.263 0.0931 0.0668
-0.123 0.0908 -0.452
 0.130 -0.240 -0.356
-0.00731  0.449  0.356
-0.177  0.194  0.311
0.0470 -0.473 -0.158
-0.0149  0.797  0.310
-0.0536  0.774  0.360
-0.166 -0.471 -0.0821
-0.00716 -0.473 -0.258
-0.239  0.651  0.313
-0.162  0.735  0.312
 0.287  0.333  0.302
 0.187 0.0929 -0.305
-0.218 -0.260 -0.269
 0.287  0.534  0.351
 0.119 0.0666  0.283
-0.208  0.286  0.359
-0.259 -0.423 -0.440
-0.179 0.0312 -0.493
-0.346 -0.0874 -0.325
-0.242 -0.155 -0.0571
-0.380 -0.224 -0.142
0.0234 0.0389 -0.395
-0.234 0.0908 -0.00337
-0.242 -0.448 -0.195
 0.339 -0.338 0.0826
0.0926 -0.100 -0.527
0.0493 -0.438  0.299
-0.240 -0.387  0.222
 0.248  0.658  0.306
-0.243 0.0389 -0.0955
 0.306 -0.386 -0.371
-0.0192 -0.0649 -0.536
 0.132 0.0908  0.191
0.00866 -0.425  0.162
 0.318  0.387  0.303
-0.381 -0.0385 -0.196
-0.0224 -0.216  0.305
 0.248  0.783  0.354
 0.225  0.418  0.349
-0.227 -0.448 0.0183
 0.209  0.263  0.303
-0.240 -0.394 -0.134
-0.232  0.836  0.314
 0.196 -0.0307 -0.284
 0.302 -0.473 -0.121
 0.201 -0.361  0.244
-0.0540 -0.0153 -0.531
-0.247  0.410  0.358
-0.378 -0.436 -0.223
-0.154  0.596  0.360
 0.140  0.248  0.303
-0.317  0.511  0.361
-0.0845  0.325  0.308
 0.204  0.800  0.306
-0.230 -0.200 -0.000360
-0.380 -0.0849 -0.0879
 0.209  0.573  0.306
 0.370 0.0312 -0.165
 0.264 0.0908 0.0126
 0.370 0.0234 -0.0648
0.0934  0.743  0.354
-0.0813 -0.216  0.151
-0.0223  0.171  0.352
 0.287 0.0908 0.0899
-0.199 -0.363 0.0666
-0.175 0.0241 0.0945
 0.331 0.0182 0.0947
 0.190 -0.155 -0.294
 0.216 -0.116 -0.250
-0.188 -0.438 -0.491
-0.239  0.588  0.362
 0.334 -0.316 -0.329
-0.219 -0.209 -0.470
 0.201 -0.263 -0.271
 0.161 -0.469  0.264
 0.228 -0.240 -0.0275
-0.123  0.611  0.311
 0.233 0.0931 -0.390
 0.229 -0.0307 -0.0726
-0.340 -0.468 -0.335
 0.322 -0.222  0.109
-0.263  0.534  0.362
 0.159 0.0466 -0.496
0.0625  0.286  0.307
0.0314 -0.116  0.299
 0.179  0.170  0.302
 0.225 0.0898  0.206
0.00358 -0.0307 -0.396
 0.353 -0.232 0.0296
 0.216 -0.410 -0.465
-0.317 -0.418  0.136
-0.283 -0.472 -0.418
-0.0385 -0.472 -0.329
-0.343  0.331  0.360
-0.278  0.503  0.313
-0.370 0.00797 0.0220
-0.199 0.0208 -0.294
 0.341 -0.193 -0.303
-0.363 -0.0359 -0.272
0.0779 -0.473 -0.274
 0.256  0.248  0.348
-0.288 -0.0772  0.177
 0.143  0.459  0.354
-0.0768 0.0928  0.175
-0.130 -0.0281 -0.515
-0.0218 -0.224 -0.538
-0.231 -0.188 -0.237
-0.365 -0.170 -0.272
 0.325 -0.473 -0.335
0.0624  0.859  0.358
-0.158 -0.335 -0.339
-0.0374 -0.0230  0.162
-0.107 -0.402 -0.526
0.000841 -0.471 0.0403
-0.213 -0.240  0.242
-0.0149  0.673  0.309
-0.367  0.529  0.315
-0.0150  0.263  0.308
 0.194 -0.00239 0.0503
 0.349  0.457  0.347
-0.231  0.682  0.360
-0.108  0.666  0.358
0.0527 -0.146 -0.391
-0.240 -0.0772 -0.119
-0.0601  0.134  0.306
 0.215 -0.456 -0.244
0.000681  0.209  0.305
0.0568  0.413  0.306
-0.0464 -0.309 -0.533
 0.318 -0.472 -0.227
-0.296 -0.315 -0.399
-0.380 0.0157 -0.165
-0.254 -0.0307  0.206
 0.210 -0.167  0.237
 0.202 -0.473 -0.188
 0.178  0.294  0.352
 0.225 -0.473 -0.390
 0.117 -0.473 -0.390
 0.230 -0.0616 -0.142
-0.241 -0.309 -0.150
-0.0613  0.464  0.355
-0.381 0.0312 -0.0417
 0.222 -0.0926 -0.0169
 0.316 -0.472  0.118
0.0616 -0.155 -0.531
-0.193 0.0931 -0.343
0.0160 0.0908  0.268
-0.115  0.542  0.359
-0.224  0.542  0.312
-0.270 0.0931 -0.359
0.0548  0.921  0.309
0.0701  0.519  0.308
 0.371 -0.0694 -0.127
 0.369 -0.0848 -0.0494
-0.0459  0.627  0.358
0.0629 0.0941  0.301
-0.122 -0.0849  0.284
 0.231 -0.418 -0.111
0.0238  0.596  0.355
-0.0906 -0.469  0.149
-0.0462 -0.332 -0.391
-0.333 -0.0462  0.115
-0.155 -0.254  0.270
-0.0844  0.743  0.311
 0.157 -0.471 -0.135
-0.243 -0.356 -0.0424
-0.193 -0.392 -0.304
 0.254 -0.441 -0.433
-0.0691 -0.471 -0.149
 0.352 -0.0307 -0.267
0.000402 -0.340 -0.538
 0.101 -0.471 -0.0681
0.0318 -0.332 -0.392
-0.244 0.0389  0.218
0.0160  0.116  0.354
0.0926 -0.240 -0.527
0.00145 -0.472 -0.434
0.0625  0.248  0.351
 0.124  0.666  0.306
 0.369 -0.348 -0.111
 0.178 0.0908  0.152
-0.0844  0.874  0.312
0.0159  0.550  0.309
-0.242 -0.0926 -0.181
 0.117  0.333  0.353
0.0779  0.480  0.353
-0.0378 -0.425 -0.395
 0.140  0.387  0.306
0.0547  0.712  0.308
-0.239  0.782  0.314
-0.100 -0.473 -0.297
 0.148 -0.332 -0.504
-0.150 -0.232  0.116
 0.232 -0.147 -0.188
 0.233 -0.327  0.214
-0.170  0.364  0.359
-0.157 -0.0926 -0.503
-0.340  0.642  0.362
-0.0813 -0.131  0.151
-0.381 -0.271 -0.0339
 0.233  0.542  0.353
 0.139  0.904  0.308
-0.0380  0.898  0.358
-0.0691  0.232  0.354
-0.123 -0.332  0.134
-0.185  0.658  0.312
 0.318 0.0931 -0.336
 0.115 -0.464  0.132
 0.174 -0.433 -0.492
 0.135 -0.323  0.273
0.0554 -0.216  0.155
-0.0274 0.0338 -0.538
 0.351  0.715  0.304
-0.365 -0.271 0.0399
-0.217 -0.139  0.238
-0.291 -0.126 -0.411
 0.239 -0.468  0.212
 0.204 -0.350 0.0391
 0.348 -0.473 -0.273
 0.382  0.581  0.348
-0.199 -0.103 -0.294
-0.156 -0.260 -0.344
0.0392 -0.418 -0.391
0.0270  0.345  0.306
-0.327 -0.363  0.124
 0.355 -0.0359 0.0241
-0.380 -0.433 -0.0415
 0.310 -0.0952  0.131
-0.213 -0.316 0.0390
 0.220 -0.371 -0.00968
-0.381 -0.433 -0.134
-0.108  0.797  0.361
-0.205 -0.172 -0.285
-0.0697 -0.100  0.295
 0.214 -0.356 -0.464
-0.239 -0.0307 -0.0243
 0.327  0.275  0.300
 0.226 -0.216 -0.209
 0.237 -0.177 -0.448
-0.337 -0.412 -0.342
 0.129 -0.201  0.278
0.0470 -0.0385  0.159
 0.209 0.0415 0.0258
-0.119 0.0725 -0.522
0.0732 -0.269  0.149
 0.381  0.493  0.301
-0.204 -0.0823 -0.484
 0.363 0.0928 -0.0570
-0.317 0.0908 0.0745
-0.0769  0.387  0.310
-0.208 -0.255 0.0519
 0.341  0.542  0.304
-0.131  0.681  0.314
-0.0614  0.534  0.358
-0.308  0.449  0.314
 0.233  0.217  0.301
 0.195 -0.0926 -0.482
0.0239 -0.193  0.300
 0.264 0.0908 -0.127
 0.209 0.0925 0.0977
 0.163  0.766  0.306
-0.309 0.0908 -0.196
-0.193 -0.473 -0.134
-0.193 0.0927  0.183
-0.0149 0.0908 -0.483
 0.130  0.583  0.306
-0.241 0.0492 -0.201
-0.139  0.464  0.310
 0.186  0.488  0.304
0.0779  0.170  0.305
-0.322 0.0921 -0.357
0.0318 -0.471 -0.360
-0.116  0.379  0.358
-0.309 -0.0668 -0.384
 0.362  0.665  0.302
 0.231  0.857  0.308
 0.368 -0.470 -0.219
 0.171 -0.250 0.0834
-0.238 -0.469 -0.0495
-0.253 -0.332  0.211
-0.368  0.457  0.363
-0.0149  0.101  0.307
 0.200 -0.167 0.0405
 0.302  0.743  0.303
-0.244 -0.193 -0.188
 0.310 -0.327  0.130
 0.175 -0.430 0.0792
 0.209 -0.111 0.0295
-0.380 -0.330 -0.224
 0.214 -0.271 0.0140
0.0113 -0.147 -0.536
-0.150 -0.194 -0.347
-0.232  0.225  0.310
-0.286  0.619  0.316
0.000708 -0.473 -0.535
 0.115 0.0286  0.129
-0.177  0.805  0.362
 0.215 -0.0539 -0.244
0.0791 -0.440 -0.529
-0.0151  0.317  0.356
 0.268 -0.0617 -0.418
0.0315  0.611  0.308
-0.154  0.851  0.314
-0.365 -0.402 0.0399
0.0389 -0.0462 -0.534
-0.335 0.0312  0.108
 0.238  0.717  0.354
0.0476 0.0466  0.156
-0.288 -0.433  0.177
 0.202  0.689  0.305
-0.0305  0.495  0.310
 0.268 0.0389 -0.418
0.000523  0.859  0.359
-0.154  0.317  0.309
-0.278  0.681  0.314
-0.247  0.441  0.314
-0.0383 -0.0462  0.300
 0.368 -0.255 -0.0879
0.0625  0.627  0.354
-0.376 -0.147 -0.229
-0.193 0.0908 -0.428
 0.177 -0.0307  0.257
-0.324 0.0908 -0.0261
 0.346 -0.469 0.0534
 0.240  0.302  0.304
0.0500 -0.0462 -0.389
-0.380 -0.340 -0.165
-0.201  0.449  0.360
 0.231 -0.232 -0.127
 0.318  0.495  0.350
-0.380 -0.356 -0.0570
 0.367 -0.155 -0.0492
-0.255  0.348  0.311
-0.104 0.0441 -0.373
0.0238 -0.473 -0.219
 0.371 -0.147 -0.134
 0.325  0.565  0.351
 0.109  0.147  0.351
-0.170 0.00797  0.266
 0.155  0.565  0.354
 0.367 -0.147 -0.212
-0.317  0.550  0.316
 0.109 -0.113  0.135
 0.226 0.0389 -0.202
 0.120 -0.350  0.129
 0.155  0.704  0.353
-0.252 -0.126 -0.442
-0.122 -0.193  0.287
 0.237 -0.123 -0.448
 0.256  0.457  0.349
 0.373  0.385  0.301
-0.100  0.178  0.309
-0.301  0.588  0.361
-0.254 -0.131  0.206
-0.380 -0.170 -0.150
-0.154 -0.473 -0.274
-0.154  0.263  0.357
-0.371 0.0589 -0.253
-0.0146 0.0466  0.165
 0.140  0.650  0.355
-0.154  0.418  0.310
0.0780  0.789  0.355
-0.374 -0.155 0.0110
0.0682 -0.285 -0.530
 0.230 -0.139 -0.0572
-0.00712  0.905  0.310
 0.124 0.0898 -0.374
-0.381 0.0544 -0.196
 0.287  0.635  0.352
 0.325  0.341  0.349
 0.318 0.0923 0.00490
 0.186  0.526  0.353
 0.325 0.0928 -0.0879
-0.356 -0.129 -0.301
0.0946 -0.471 -0.462
 0.230 -0.441 -0.165
 0.227 0.0441  0.223
-0.344 -0.0926 0.0920
-0.362 -0.256 -0.276
-0.294  0.766  0.364
 0.265  0.830  0.353
 0.365 -0.309 -0.225
-0.312 -0.385 -0.376
 0.204 0.0466 -0.476
-0.0612 -0.278  0.159
-0.0918 -0.471 -0.0950
-0.199  0.873  0.314
-0.161 0.0928  0.266
 0.280 -0.410 -0.405
 0.248  0.774  0.307
 0.179 -0.0411 0.0747
-0.316  0.287  0.361
-0.333  0.720  0.363
 0.313 -0.271  0.122
-0.379 -0.170 -0.0492
 0.346 -0.379 0.0529
-0.154  0.890  0.360
-0.367  0.526  0.363
 0.193  0.602  0.354
 0.138 -0.131 -0.509
-0.331 -0.250 -0.351
 0.140 -0.371 -0.344
-0.0919  0.110  0.353
 0.243 -0.0565  0.209
0.0315 0.0908  0.206
-0.366 -0.356 0.0288
-0.343 -0.162 -0.333
 0.286 -0.185 -0.396
 0.101 -0.138 -0.372
 0.189 -0.456 -0.294
-0.280 -0.214 -0.422
 0.245 0.0782 -0.441
 0.323 -0.216 -0.340
-0.243 -0.124 -0.0955
-0.329 -0.232  0.120
-0.370 0.0854 -0.00211
-0.107 -0.0462  0.139
 0.132  0.403  0.353
-0.309  0.341  0.312
 0.282 -0.426  0.169
-0.100 -0.472 -0.196
 0.116 0.0312 -0.516
-0.0923  0.565  0.310
 0.295  0.433  0.301
 0.287 0.0923 -0.188
 0.367 -0.356 -0.0415
-0.0691  0.263  0.307
-0.383 -0.108 -0.134
-0.0845 0.0927  0.222
 0.124 0.0931  0.237
0.0705 -0.309  0.294
0.0472 -0.379 -0.531
 0.124  0.201  0.303
 0.351 -0.278 0.0366
 0.109  0.294  0.306
 0.232 0.000200 -0.173
-0.241 -0.387 -0.0880
-0.381 -0.0772 -0.0417
 0.197 -0.250  0.247
 0.229 -0.0462 -0.189
-0.218 -0.0462  0.239
-0.0992 -0.286  0.293
-0.121 0.000200  0.287
0.0697 0.0466 -0.384
-0.0502 -0.409  0.298
-0.236 -0.0411 -0.456
-0.242 -0.330 -0.454
-0.285  0.240  0.313
 0.103 -0.423  0.290
 0.116 -0.471 -0.247
 0.171  0.813  0.353
-0.203  0.154  0.310
0.0701  0.820  0.311
-0.222 0.0466 0.0247
-0.0630 -0.193  0.298
-0.178 -0.343 -0.496
-0.0545 -0.471 -0.0599
 0.240  0.650  0.353
 0.299 0.0241 -0.377
 0.286 -0.345  0.167
0.0773 -0.216  0.295
-0.216 -0.178 0.0379
-0.0768  0.619  0.310
 0.334 -0.363 -0.329
-0.114 -0.255 -0.371
0.0781 -0.124  0.293
-0.0304  0.542  0.308
-0.248 0.0922 -0.181
 0.225  0.294  0.351
 0.190 -0.201 -0.485
 0.370 -0.469 -0.142
-0.265 -0.291 -0.432
 0.260 -0.471 -0.355
 0.112 -0.0378 -0.364
-0.218 -0.0204 -0.269
 0.218 -0.363 -0.233
 0.266 -0.263  0.186
 0.130 -0.170 -0.356
-0.138 0.0390  0.126
-0.298 -0.208  0.163
 0.117 -0.425 -0.364
 0.349 -0.394 -0.279
0.0903 -0.231 -0.377
-0.0845 -0.471 0.0238
 0.288 0.0891  0.162
-0.373 -0.376 -0.242
 0.328 -0.379 0.0992
-0.233 -0.361 -0.231
-0.311  0.378  0.362
-0.374 -0.0617 -0.236
-0.381 -0.294 -0.196
-0.154 -0.105 -0.343
 0.224 -0.415 -0.0225
-0.0713 -0.0101 -0.390
 0.232 0.0389 -0.0570
-0.200 -0.436 -0.294
0.00132 -0.473 -0.490
 0.256 -0.206  0.198
-0.0147 -0.100  0.305
 0.331 -0.113 0.0947
-0.244 -0.356 -0.158
-0.354 -0.436 -0.306
-0.139  0.217  0.308
 0.231 -0.394 -0.150
 0.233 0.0929 -0.343
-0.247 0.0925 -0.274
 0.369 -0.317 -0.0648
-0.0536 -0.473 -0.219
-0.154  0.155  0.310
 0.178 0.0924 -0.413
 0.124  0.828  0.307
0.0469  0.434  0.355
0.00831 -0.473 -0.134
0.0394  0.248  0.305
0.0160 -0.473  0.121
 0.370 -0.0307 -0.0803
 0.163  0.178  0.349
 0.232 -0.255 -0.165
 0.366 0.00797 -0.219
-0.177  0.225  0.356
-0.309 0.0927 -0.266
-0.208  0.294  0.310
 0.109  0.495  0.305
 0.202  0.333  0.351
-0.0616 -0.418 -0.530
 0.117  0.758  0.307
-0.125 -0.436 -0.366
-0.0304 -0.379  0.161
 0.231 -0.170 -0.103
-0.189 -0.180 -0.488
-0.125 -0.363 -0.363
 0.362 -0.356 -0.237
 0.337 0.0621 0.0879
-0.0845 0.0923 -0.498
 0.312 -0.433 -0.362
-0.323  0.505  0.314
0.0780 0.0927  0.183
-0.255  0.279  0.358
-0.0454 -0.472 -0.281
 0.364 0.0844 -0.152
-0.146 -0.472  0.276
0.0191  0.296  0.306
-0.107 -0.216 -0.526
0.0249 0.0395 -0.536
 0.251 -0.118  0.201
-0.232 0.0931 -0.320
0.000342 -0.0462  0.165
 0.345 -0.0694 -0.290
-0.0184 -0.142 -0.398
 0.364 0.0621 -0.231
-0.328 -0.294 -0.356
-0.310 0.0157  0.144
 0.155 -0.471 0.0515
-0.362  0.573  0.316
 0.161 -0.152 0.0956
 0.307 -0.431  0.132
 0.161 -0.330 0.0956
-0.141 -0.271 -0.510
-0.164 -0.193  0.101
-0.177 -0.0843 0.0894
 0.256 -0.472 -0.250
-0.154 -0.473 0.0977
 0.216 0.0234 -0.250
 0.375  0.634  0.349
 0.106 -0.356 -0.369
 0.202 -0.473 -0.0106
-0.231 -0.332 -0.00587
 0.214 -0.232 -0.464
-0.347 -0.170 0.0867
 0.382  0.557  0.301
-0.229  0.638  0.360
 0.161 0.0544  0.264
-0.242 -0.278 -0.181
 0.226 -0.0333 -0.0220
 0.318  0.666  0.349
0.0470 0.0908 -0.421
-0.0227  0.743  0.359
0.0682 -0.00690 -0.530
0.0160 -0.473 -0.0493
 0.325  0.611  0.304
-0.108  0.457  0.359
 0.155 0.0908 -0.475
 0.279 -0.473 -0.158
-0.0227  0.271  0.353
-0.233 -0.123 -0.0111
0.0812  0.367  0.352
 0.264  0.611  0.303
 0.367 0.0157 -0.00429
 0.153 -0.0385 -0.501
-0.270  0.815  0.316
-0.118 -0.394  0.137
-0.131  0.766  0.314
0.0619 0.0903 -0.530
-0.219 0.0234 -0.470
-0.199 -0.247 -0.486
0.0232 -0.0153  0.303
-0.270  0.727  0.314
 0.351 -0.155 0.0366
-0.314 -0.147  0.143
-0.366 -0.193 0.0288
-0.222 -0.472  0.236
 0.138 -0.418 -0.509
-0.00592 -0.236 -0.397
 0.183 -0.400  0.252
0.0470 -0.116  0.159
0.0315  0.890  0.359
-0.0815 -0.129 -0.530
 0.193 -0.201 -0.290
-0.195  0.762  0.315
-0.229 0.0699 -0.236
0.0933 0.0908 -0.483
-0.0462 -0.379 -0.391
-0.115 0.0931  0.276
 0.308 -0.0462 -0.363
-0.154 -0.302  0.113
-0.265 0.0415 -0.431
-0.289  0.424  0.362
 0.112 -0.278 -0.364
-0.349 -0.322 -0.323
 0.190 -0.471 -0.427
 0.125 -0.101  0.278
-0.208 -0.402 0.0519
-0.248 -0.229 -0.446
 0.324 -0.116 -0.343
 0.122 -0.471 -0.0312
-0.0197 -0.182 -0.536
 0.313 -0.0462  0.126
 0.109 -0.0668  0.135
 0.179 0.0286 0.0747
 0.369 -0.441 -0.0648
-0.353  0.372  0.360
 0.256 -0.0229 -0.429
-0.267 0.00797  0.196
 0.230 -0.317 -0.181
-0.343 -0.369 -0.329
 0.358 -0.247 -0.249
0.0470  0.681  0.355
-0.0536  0.580  0.356
 0.272  0.573  0.352
 0.131 -0.0281  0.120
-0.355 0.0908 -0.0880
-0.0970 0.0157  0.144
-0.100  0.503  0.356
-0.241 -0.0385 -0.142
 0.368 -0.332 -0.150
-0.171 -0.332  0.263
-0.286 0.0908 -0.0957
-0.329 -0.464  0.116
-0.125 -0.116 -0.517
-0.100  0.874  0.359
 0.230 0.0389 -0.142
-0.157 0.0698 -0.503
0.0933  0.627  0.309
-0.185  0.642  0.361
0.0238  0.495  0.354
-0.0303  0.836  0.310
 0.341  0.464  0.301
0.000577  0.449  0.307
-0.380 0.0544 -0.0802
-0.170  0.503  0.313
-0.309  0.712  0.315
-0.224  0.828  0.361
-0.0536  0.426  0.308
-0.379 -0.418 -0.181
 0.295 0.0908 -0.0338
-0.154 -0.473 -0.219
-0.286 0.0908  0.144
 0.132  0.758  0.356
-0.223 -0.167 -0.467
 0.283 -0.285 -0.401
 0.159 -0.278 -0.499
-0.0149  0.364  0.354
 0.233 -0.420  0.214
 0.103  0.106  0.303
-0.0547 -0.432  0.160
 0.339 0.0544 -0.308
-0.348  0.434  0.316
 0.308 -0.278 -0.363
-0.194 -0.387 -0.486
-0.209 -0.307 -0.478
 0.171 -0.473 -0.482
-0.00743 -0.201  0.163
-0.279 -0.472  0.186
-0.119 -0.167 -0.369
-0.146 0.0106 -0.508
 0.116 -0.0617 -0.516
-0.138 -0.473 -0.350
-0.0907 -0.471  0.107
-0.0683 -0.178  0.157
 0.129 -0.0772 -0.355
 0.341 0.00797 -0.303
-0.0358 -0.124  0.160
-0.00721 -0.263  0.306
 0.189 -0.219 0.0630
-0.242 -0.254  0.217
-0.0993 -0.0900 -0.376
 0.356 -0.147 -0.254
0.0705 0.0544  0.294
 0.334 -0.270 -0.329
-0.197 -0.425  0.251
-0.344 -0.271 0.0920
-0.0225 0.0887  0.174
 0.227 0.0928 -0.212
 0.291 -0.122  0.155
-0.229 -0.473 -0.226
 0.154  0.501  0.354
 0.194 -0.258 0.0503
 0.216 -0.00490 0.0144
-0.291 -0.428 -0.411
 0.139 -0.235  0.113
 0.352 -0.309 -0.267
-0.376 -0.255 0.00407
-0.376 -0.0926 0.00407
-0.230 -0.409 -0.000360
 0.212 -0.0468  0.232
0.0392 -0.108 -0.391
-0.236 -0.240 -0.0248
-0.0232  0.151  0.308
 0.138 -0.371 -0.509
-0.0536 -0.473 -0.366
-0.143 -0.363  0.275
-0.224 -0.471 -0.0941
0.0938 -0.340 -0.524
-0.112 -0.239  0.139
 0.242  0.814  0.307
0.0230 -0.464  0.162
0.000665 -0.433  0.303
 0.278 -0.247 -0.412
0.0527 -0.193 -0.391
0.0478 -0.0539  0.297
 0.186 -0.317 -0.296
 0.142 -0.00749 -0.346
-0.0924 -0.348  0.292
 0.217 -0.232 -0.245
-0.128 -0.124  0.131
-0.0462 -0.193 -0.392
 0.156 -0.464 -0.336
0.0476 -0.309  0.156
 0.231 -0.464 -0.0802
-0.147 -0.471 -0.0424
0.0714 -0.471 0.0382
-0.0762 -0.433 -0.388
 0.271  0.751  0.353
0.0862 -0.193 -0.525
 0.161 -0.247  0.264
-0.332 0.0931 0.0358
 0.368 -0.0617 -0.165
 0.222 -0.206  0.226
-0.379 -0.317 -0.0415
 0.216 -0.322 0.0144
-0.0536  0.789  0.313
-0.0866 -0.325  0.149
-0.177  0.457  0.313
 0.209  0.379  0.305
0.0856  0.209  0.352
-0.247 0.0844 -0.0904
-0.146  0.133  0.357
-0.282 -0.0333 -0.417
 0.194  0.209  0.303
 0.264  0.495  0.352
 0.287  0.542  0.302
-0.0532 -0.0848 -0.534
0.0933  0.387  0.307
 0.124  0.539  0.308
-0.164 -0.0281 -0.337
-0.324  0.472  0.363
-0.201  0.325  0.357
 0.295 0.0931 -0.297
 0.264 0.0931 -0.266
-0.309  0.550  0.363
-0.0614  0.325  0.356
0.0857 0.0927 -0.436
 0.240 0.0927 -0.0802
-0.324  0.588  0.314
 0.302  0.256  0.349
 0.229 -0.317 -0.0958
-0.247  0.395  0.311
 0.264  0.286  0.348
-0.146  0.727  0.361
-0.382 -0.425 -0.0881
-0.201 0.0931  0.222
 0.287  0.379  0.350
-0.181 -0.162  0.258
0.0779 -0.473 0.0900
-0.0691 0.0927 -0.421
0.0238 -0.473 -0.0106
 0.101  0.913  0.311
 0.117  0.240  0.350
-0.00731  0.364  0.309
-0.177  0.696  0.312
-0.177 -0.473 0.0204
-0.0149  0.797  0.359
0.0164 -0.155  0.301
-0.0227  0.635  0.311
-0.0527 0.0776  0.300
 0.370 -0.278 -0.165
0.0625 -0.473 -0.119
 0.101  0.851  0.357
0.0159  0.727  0.311
-0.170 -0.0224 0.0982
-0.185  0.550  0.314
-0.154  0.534  0.358
-0.208 -0.472 -0.283
0.0160  0.557  0.356
 0.371 -0.0772 -0.0880
0.0456 -0.379 -0.390
0.0315  0.511  0.307
-0.242 -0.155 -0.181
-0.0930 -0.441 -0.526
-0.0536 -0.116 -0.390
-0.242 -0.317 -0.0492
0.0242 -0.271 -0.393
0.0921 -0.0307  0.292
-0.213 -0.348  0.242
 0.161 -0.162 -0.326
 0.174 -0.0797 0.0848
-0.193  0.820  0.315
0.0162 -0.255  0.161
-0.366 -0.416 -0.266
-0.375 0.0389 -0.00145
-0.372 -0.0307 0.0166
 0.281 -0.332 -0.408
0.0160 -0.448 -0.396
 0.360 -0.472 0.0122
 0.299 -0.139 -0.381
-0.213 -0.100  0.242
 0.114 -0.271  0.132
-0.139 0.0931  0.167
-0.0614  0.139  0.353
-0.286  0.348  0.361
 0.341 -0.235 0.0772
 0.287  0.797  0.353
-0.115  0.263  0.355
-0.381 -0.348 -0.0956
 0.135 -0.443  0.276
-0.382 -0.394 -0.150
-0.375 -0.201 -0.241
-0.231 0.0898 0.0354
 0.231 -0.0617 -0.103
-0.255  0.766  0.361
-0.240 -0.425 -0.103
 0.229 -0.100 -0.157
-0.217 -0.299 -0.265
 0.369 -0.379 -0.158
 0.279 0.0931 -0.359
0.0471  0.139  0.351
-0.382 -0.472 -0.134
-0.0148 -0.325  0.306
-0.108  0.905  0.315
-0.236 -0.0848 -0.219
-0.242 -0.286 -0.111
 0.153 -0.193 -0.501
 0.370 -0.433 -0.127
-0.0456 -0.271 -0.535
 0.232 -0.0617 -0.0494
-0.263 0.0931  0.175
 0.140 0.0927  0.152
 0.368 -0.216 -0.0647
0.00829 0.0908 -0.452
 0.264  0.271  0.302
0.0701  0.712  0.357
 0.326  0.379  0.347
-0.309 0.0929 -0.0648
0.0798 -0.464 -0.383
-0.380 0.0389 -0.127
-0.0536 -0.473 -0.0183
 0.178  0.650  0.354
-0.00716 -0.473 -0.0802
-0.0846  0.828  0.361
 0.287  0.689  0.305
-0.193  0.580  0.359
-0.108  0.712  0.313
-0.354 0.0234 0.0741
 0.371 0.0312 -0.119
-0.196 -0.169 0.0712
0.0316  0.186  0.304
0.0315  0.774  0.309
-0.379 -0.216 -0.0493
-0.0380  0.882  0.311
 0.147  0.843  0.356
 0.333  0.503  0.301
-0.317  0.642  0.316
-0.108  0.333  0.358
 0.194 -0.473 -0.103
 0.367 -0.232 -0.189
 0.124  0.348  0.304
 0.210  0.611  0.304
-0.382 -0.124 -0.0803
-0.165 -0.402  0.268
0.0856  0.689  0.309
-0.376 -0.472 -0.235
-0.177  0.387  0.312
-0.154  0.635  0.314
 0.369 -0.178 -0.0184
 0.210  0.534  0.306
0.0315  0.820  0.309
 0.230 -0.363 -0.119
-0.115  0.851  0.312
-0.381 -0.278 -0.103
-0.309  0.666  0.363
 0.163  0.666  0.308
-0.0306 -0.471 -0.150
0.0306 -0.387  0.161
-0.0328 -0.471 0.0216
 0.209  0.163  0.348
-0.332 -0.00690  0.112
 0.209  0.782  0.354
-0.0854 -0.302 -0.527
 0.228 -0.433 -0.203
 0.140  0.426  0.304
 0.171 0.0931  0.214
-0.101 -0.0926  0.144
-0.230 -0.473 -0.0109
 0.232 -0.247 -0.0647
 0.226 -0.188 -0.0219
 0.140  0.125  0.349
-0.379 -0.348 -0.00621
-0.241 -0.216 -0.158
0.0237  0.101  0.306
-0.228 -0.224 -0.249
 0.355 0.0928 0.0122
-0.206 -0.227 -0.288
-0.176 -0.366 -0.326
-0.158 -0.436 -0.339
 0.186  0.867  0.356
-0.326  0.394  0.315
 0.367 -0.255 -0.00429
-0.170 -0.0746 -0.328
 0.377  0.431  0.348
0.0237  0.395  0.309
 0.209 0.0931 -0.274
-0.148 -0.162  0.115
 0.145 -0.121  0.110
 0.113 -0.163  0.286
 0.355 0.0569 0.0241
 0.185 -0.0539 -0.487
-0.361  0.611  0.364
-0.377 0.0928 -0.188
-0.371 -0.425 0.0109
-0.202 0.00797 0.0587
-0.360 -0.0772 -0.288
 0.157 -0.240 -0.330
 0.367 -0.379 -0.00429
 0.119 -0.356  0.281
 0.165 -0.0772 -0.322
 0.274 0.0851 -0.416
 0.172 -0.167  0.259
-0.219 -0.410 -0.470
 0.310 -0.00239  0.131
 0.148 0.0842 -0.346
-0.207 -0.467 0.0430
-0.160 0.0473  0.268
 0.202 -0.363 -0.275
 0.132  0.882  0.355
0.0838  0.316  0.353
-0.0849 0.000200  0.293
-0.348 -0.131 0.0919
0.0834 0.0466  0.147
-0.302 -0.332  0.162
-0.347 -0.433 0.0868
 0.237 -0.175  0.211
-0.211 -0.0307 0.0471
 0.106  0.441  0.352
-0.261 -0.209  0.203
-0.354 -0.0255 -0.306
-0.232 -0.473 -0.158
-0.172  0.769  0.360
 0.141 -0.278  0.271
 0.239 -0.291  0.212
0.0234 0.000200 -0.395
 0.230 -0.317 -0.0572
0.0625  0.913  0.356
-0.137 -0.227 -0.358
-0.143 -0.139  0.275
0.0805 -0.471 -0.179
0.0826 -0.471 -0.506
-0.359 -0.448 0.0524
-0.148 -0.410  0.115
 0.155  0.127  0.302
 0.147 0.0364  0.105
 0.167 -0.113  0.259
 0.110 -0.193  0.132
 0.361 -0.0926 0.00632
 0.313 -0.186  0.122
 0.210 -0.129  0.237
-0.00133 -0.471 -0.324
-0.231 -0.0823 -0.460
-0.0616 0.0234 -0.530
 0.280 -0.100 -0.405
 0.170 -0.131 -0.492
-0.210 -0.0848 0.0436
-0.180 -0.183 -0.322
 0.119 -0.0571  0.283
-0.0760 -0.348 -0.531
-0.328 -0.0926 -0.356
-0.00704  0.928  0.358
-0.0703 0.0544 -0.387
0.0834 -0.356  0.147
-0.145 -0.348 -0.511
-0.372 -0.299 -0.241
-0.0468 -0.209  0.158
-0.115 -0.0437 -0.368
 0.353 -0.209 -0.273
 0.123 -0.471 0.0137
 0.318  0.310  0.300
0.0977 -0.281  0.292
 0.126 -0.312  0.124
-0.151 -0.188 -0.505
 0.266 0.000200  0.186
 0.314 0.0628 -0.354
 0.171 -0.387 -0.320
-0.0304 0.0908  0.276
 0.173  0.731  0.306
-0.196 -0.115 0.0712
-0.379 -0.232 -0.212
-0.254 -0.286  0.206
0.0416 -0.345  0.160
-0.0827 -0.309 -0.386
 0.367 0.0544 -0.196
-0.0129 0.0563 -0.399
 0.349 0.0931 -0.119
-0.177 -0.347 0.0894
-0.209 -0.136 -0.284
 0.139 0.000200 -0.507
-0.206  0.707  0.360
 0.355 -0.314 0.0295
 0.382  0.495  0.348
-0.267 -0.346 -0.432
 0.230 -0.418 -0.0572
 0.367 -0.216 -0.226
-0.0386 -0.0229 -0.392
-0.131 -0.473 -0.0879
-0.135 0.0647 -0.361
-0.170  0.178  0.358
 0.290 -0.363 -0.394
-0.0760 -0.0462 -0.531
-0.0274 -0.415 -0.538
0.0306 -0.0694  0.161
-0.0765 -0.317  0.297
 0.296 -0.471 -0.363
 0.165 -0.325 -0.323
 0.201 -0.0694 -0.275
-0.231  0.519  0.359
-0.0303 -0.263 -0.396
 0.219 -0.0848 -0.228
 0.368 -0.441 -0.0112
-0.380 -0.363 -0.127
-0.380 -0.0617 -0.165
 0.309 -0.00749 -0.366
 0.151 0.0106  0.266
 0.217  0.217  0.348
 0.157 0.0544 -0.330
0.0540 -0.470 -0.532
 0.365 -0.325 -0.0105
 0.116 -0.216 -0.516
 0.197 -0.0848 0.0487
-0.229 -0.0153 -0.236
 0.306 -0.200 -0.371
-0.273 -0.402  0.193
0.0623  0.511  0.356
 0.371 -0.216 -0.103
-0.150 -0.294 -0.347
-0.0922  0.704  0.358
-0.240 -0.240 -0.103
-0.131  0.696  0.358
 0.334 -0.467 0.0893
 0.259 -0.471 -0.122
 0.183 -0.418 -0.301
0.00842  0.155  0.352
 0.186 -0.361 0.0674
 0.318  0.704  0.303
 0.264  0.418  0.304
-0.193 0.0931 0.0899
-0.242 -0.0617 -0.0803
 0.266 -0.193 -0.423
-0.115 0.0908  0.237
-0.108  0.410  0.311
 0.129 -0.420  0.125
 0.194  0.403  0.352
 0.140 0.0923 -0.413
 0.217  0.364  0.349
0.0549 -0.472  0.297
-0.00715  0.619  0.355
 0.140  0.480  0.305
-0.0614  0.697  0.312
 0.248 0.0931  0.175
 0.194  0.642  0.305
-0.224 0.0931  0.167
-0.239  0.511  0.312
 0.256 0.0908 0.0745
0.0779  0.596  0.354
-0.0858 0.0544  0.151
-0.139 0.0908 -0.483
 0.367 -0.402 -0.204
-0.231 0.0234 0.000642
0.0314  0.673  0.310
-0.228 -0.155 0.00607
-0.270  0.317  0.314
 0.171 -0.00749 -0.320
0.0934  0.642  0.354
 0.101  0.727  0.307
-0.0847  0.209  0.309
-0.244 -0.108 -0.0646
-0.0458  0.434  0.355
-0.0613  0.480  0.308
 0.194  0.341  0.305
-0.0845  0.364  0.355
 0.132 -0.473 -0.0957
 0.101  0.550  0.355
-0.170  0.472  0.360
-0.224  0.333  0.310
-0.139  0.194  0.355
-0.242 -0.410 -0.165
-0.200 0.0569 -0.484
-0.100  0.488  0.309
-0.139 -0.473 0.0668
 0.179  0.240  0.302
0.0162 -0.131  0.161
 0.336 -0.0848 -0.320
 0.344 -0.124 0.0599
 0.325  0.348  0.302
 0.302  0.604  0.349
-0.0537  0.201  0.355
-0.309  0.627  0.363
-0.0536  0.573  0.309
 0.295  0.325  0.347
-0.239  0.580  0.312
-0.0998 -0.178 -0.527
 0.349  0.410  0.300
0.0242 -0.0772 -0.393
 0.155  0.248  0.350
-0.311 -0.247  0.144
-0.150 -0.0591 -0.508
 0.325 0.0928 0.0970
-0.232 -0.0509 -0.225
 0.195 0.00797 -0.281
 0.339 -0.0752 0.0826
 0.258 -0.0926 -0.430
 0.201  0.766  0.306
-0.321 -0.472 -0.363
-0.247  0.712  0.363
-0.240 0.0699 -0.0297
0.0439 -0.289  0.300
0.0790 -0.193  0.146
-0.298 -0.402  0.166
-0.190 -0.472 -0.489
-0.0844  0.110  0.308
-0.0760 -0.387 -0.531
-0.243 0.0621 -0.150
 0.216 -0.183 0.0144
 0.366 -0.0694 -0.231
-0.0919 -0.271  0.146
-0.278  0.387  0.359
-0.324 0.0924 -0.312
 0.288 -0.265  0.160
-0.131  0.813  0.312
 0.283 -0.379  0.172
-0.151 -0.134 -0.506
 0.195 -0.124 -0.281
-0.188 -0.252 -0.315
0.0548  0.325  0.305
0.0160 -0.473 -0.173
 0.231 -0.0307 -0.451
-0.265 0.0842 -0.423
-0.0129 0.00212 -0.399
-0.0386 0.0776 -0.392
-0.217 -0.0101 -0.475
-0.379 -0.155 -0.196
-0.269  0.567  0.360
 0.252 -0.471 -0.284
-0.0540 -0.232 -0.531
-0.219 -0.278 0.0293
 0.186 0.0544 -0.296
 0.139 -0.382  0.113
-0.148 -0.216  0.276
0.0478 -0.379  0.297
 0.118 -0.201 -0.362
-0.156 -0.420 -0.506
 0.209  0.573  0.353
-0.0381 0.0931 -0.513
-0.309 0.0415 -0.384
-0.226 -0.0978 -0.254
 0.204  0.715  0.352
-0.354  0.656  0.316
-0.0307 -0.448  0.301
-0.222 -0.216 0.0281
-0.240 -0.387 -0.0297
0.0493 -0.338  0.299
-0.271 -0.258 -0.429
 0.230 0.0900 -0.127
 0.348 -0.0204 0.0529
-0.222 0.0928 -0.465
-0.208 -0.473 -0.0647
0.0547 -0.473 -0.336
 0.226 -0.471 -0.436
-0.235 -0.0848 -0.0174
-0.284 -0.173 -0.418
0.0238 -0.473 -0.459
-0.00699 -0.116 -0.540
 0.144 0.0832  0.266
-0.364 -0.317 0.0342
-0.00715 -0.178  0.306
-0.179  0.736  0.362
0.0619  0.376  0.308
-0.338 -0.302  0.102
 0.229 -0.271 -0.0411
-0.165 -0.286  0.268
 0.226 -0.302 -0.454
-0.202 -0.317  0.248
-0.224  0.681  0.313
 0.118 -0.108 -0.361
-0.257 -0.472 -0.439
-0.349 -0.0617 0.0808
-0.0989 -0.432  0.291
 0.124 -0.471 -0.312
 0.170 -0.309 -0.492
 0.298 -0.469  0.149
 0.175 -0.0462 -0.316
 0.220  0.745  0.352
-0.0310 -0.0617 -0.394
 0.351 -0.441 -0.279
-0.337 -0.194 -0.339
-0.340 0.0725 -0.337
-0.0159 -0.348 -0.396
 0.264  0.565  0.305
-0.124 -0.0797 -0.520
-0.0247 -0.000385 -0.536
-0.0145 -0.325  0.165
-0.379 -0.0952 -0.229
-0.300 -0.227 -0.398
0.0857  0.882  0.356
 0.302  0.712  0.350
 0.209 0.0928  0.167
 0.197 0.0621 0.0485
-0.181 -0.240  0.258
0.0392  0.882  0.312
 0.262 -0.299  0.190
-0.115 0.0908  0.191
-0.239 0.0908 0.0899
 0.325 -0.297  0.104
-0.154 -0.0617  0.113
 0.240  0.387  0.351
-0.255  0.480  0.312
 0.233  0.356  0.304
-0.139  0.441  0.359
 0.148  0.789  0.354
-0.123 0.0908 -0.405
 0.209  0.256  0.350
-0.340 0.0908 -0.150
 0.367 -0.170 -0.181
 0.367 -0.441 -0.196
0.0856  0.271  0.353
-0.340 -0.00490 -0.337
-0.170 0.0923 -0.405
 0.279 -0.473 -0.227
0.0547  0.565  0.307
-0.0613  0.348  0.307
-0.184 0.0595 -0.319
0.0791 -0.0378 -0.529
 0.155  0.426  0.353
-0.286 0.0931 0.0899
-0.379 -0.216 -0.181
 0.342 0.0286 0.0653
-0.193 -0.471 -0.204
-0.172 0.0106 -0.330
 0.369 -0.0848 -0.196
 0.231 -0.384  0.219
 0.367 -0.0462 -0.0492
 0.185 -0.263 -0.487
-0.224  0.372  0.313
-0.293 -0.131  0.175
0.0160 -0.170 -0.396
-0.146  0.813  0.359
-0.202 -0.185  0.248
0.0472 -0.433 -0.531
 0.297 -0.471 -0.318
-0.271 -0.100  0.192
-0.183 -0.335 -0.318
-0.261 -0.170  0.204
0.0401 -0.418  0.158
-0.170 -0.440 0.0982
-0.306  0.266  0.312
 0.361 -0.286 0.00632
-0.0621 -0.0229  0.297
 0.258 -0.0874  0.193
 0.203 0.0673  0.239
0.0629 -0.0926  0.295
-0.132 -0.441  0.283
 0.233 -0.142  0.214
-0.244 -0.332 -0.181
 0.204 -0.289 0.0391
-0.115 -0.473 -0.165
-0.361  0.404  0.316
-0.364 -0.367 -0.271
 0.190 -0.348 -0.485
-0.0815 0.0492 -0.530
-0.309 -0.166 -0.381
 0.199  0.145  0.302
 0.226  0.867  0.354
0.0727 0.0131  0.152
-0.359 -0.224 -0.283
-0.0849 -0.170  0.293
-0.279 -0.332  0.185
-0.254  0.620  0.313
 0.225 -0.126 -0.0280
-0.0386 -0.232 -0.392
-0.270  0.674  0.363
0.0860  0.473  0.306
 0.123 -0.456 -0.358
-0.0222 -0.410  0.164
-0.224 -0.100 0.0192
0.0239 -0.464  0.300
-0.154  0.635  0.358
0.0624  0.751  0.357
-0.135 -0.330 -0.361
 0.371 -0.178 -0.119
0.0680 0.0745  0.152
-0.189 -0.247 0.0769
-0.154  0.248  0.308
 0.369 -0.363 -0.0726
-0.0305  0.457  0.309
-0.162  0.596  0.311
 0.228 -0.201 -0.111
-0.278  0.503  0.362
-0.0536  0.503  0.355
 0.218 0.0673 0.00900
-0.193 0.0389 0.0727
-0.0767  0.743  0.358
-0.269  0.219  0.360
0.0999 -0.131 -0.522
 0.231 -0.302 -0.150
-0.201 -0.433 0.0583
-0.229 -0.0307 0.00616
-0.286 0.0931 0.0436
-0.0842 0.0544  0.296
0.0701  0.820  0.358
-0.224  0.550  0.361
 0.171  0.797  0.309
 0.155  0.294  0.305
0.0160 0.0931 -0.490
-0.0459 0.0908  0.229
-0.170 0.0924  0.152
 0.310 -0.473 -0.196
-0.216  0.248  0.357
 0.271  0.472  0.302
 0.240  0.689  0.307
 0.233  0.488  0.303
 0.210  0.720  0.305
 0.202 0.0925  0.129
 0.163 -0.473 -0.405
 0.295 0.0931 -0.119
-0.382 -0.139 -0.142
 0.370 0.0544 -0.0725
0.0470 0.0931  0.175
-0.0690  0.882  0.359
 0.279  0.511  0.304
 0.356  0.356  0.349
 0.109 0.0927 -0.405
-0.381 -0.00749 -0.204
 0.155 -0.473 -0.227
 0.369 -0.286 -0.0571
-0.309 0.0925 -0.158
 0.229 -0.124 -0.0958
-0.0866 -0.410  0.149
-0.243 -0.00749 -0.135
-0.379 -0.263 -0.189
 0.346 -0.472 -0.117
-0.0923 0.0908 -0.467
-0.381 -0.0539 -0.0185
 0.240  0.248  0.301
0.0933  0.178  0.352
 0.264 0.0924 -0.0415
-0.0459  0.379  0.309
 0.171  0.457  0.304
 0.314 -0.332 -0.354
-0.314 -0.387  0.143
 0.185 -0.152 0.0643
-0.229 -0.294 -0.236
-0.0692  0.170  0.355
-0.0382  0.666  0.358
-0.185 0.0925 -0.374
-0.0922  0.774  0.311
 0.333  0.534  0.351
 0.367 0.000200 -0.189
-0.232  0.797  0.361
-0.340 0.0931 0.00490
-0.208  0.201  0.312
-0.241 -0.433 -0.0726
 0.371 0.000200 -0.0880
-0.146  0.387  0.359
 0.132  0.859  0.307
 0.264  0.217  0.349
-0.0303  0.867  0.358
 0.264  0.410  0.349
 0.229 -0.0307 -0.150
 0.343 -0.232 -0.297
-0.177  0.286  0.312
-0.216  0.403  0.360
-0.303 -0.468 -0.393
 0.221 -0.448 -0.00404
 0.219 -0.271 -0.239
-0.0304 0.00797  0.161
-0.00745 -0.131  0.304
-0.101 -0.0230 -0.526
 0.185 0.0699 -0.487
-0.0456 -0.155 -0.535
-0.371 0.0887 -0.127
 0.327 -0.0153 -0.336
-0.340 0.0908 -0.274
-0.376 0.0389 -0.229
-0.242 -0.124 -0.173
-0.0923 -0.473 -0.336
-0.267 0.0621  0.196
-0.0713 -0.234 -0.390
-0.0923 -0.473 -0.127
 0.134  0.914  0.355
-0.370 -0.124 0.0163
-0.221 0.0466 -0.264
-0.361 -0.108 0.0453
-0.0944 -0.139 -0.379
-0.00745 -0.0230  0.304
 0.140 -0.473 -0.0570
 0.288 -0.0488  0.160
0.0562 -0.0772 -0.388
 0.138 -0.255 -0.506
-0.116 -0.379  0.287
 0.231 -0.139 -0.158
 0.191 -0.407 0.0551
-0.240 -0.00749  0.222
-0.235 -0.116 -0.213
-0.291 -0.0642 -0.411
-0.303 -0.0281 -0.390
-0.156 -0.108  0.108
 0.210 -0.325 -0.468
-0.246 -0.417  0.213
 0.252 -0.263 -0.432
 0.368 -0.448 -0.165
-0.0413 -0.0926  0.159
 0.136 -0.402 -0.348
-0.114 -0.363 -0.524
 0.366 -0.387 -0.231
-0.364 -0.240 0.0342
-0.350 -0.247 -0.313
 0.155 -0.405 0.0980
0.00596 -0.371 -0.537
 0.163 -0.473 -0.297
 0.206  0.631  0.354
-0.278  0.457  0.314
-0.0290  0.219  0.306
 0.179 0.0908  0.106
 0.365 -0.100 -0.225
-0.223 -0.245 -0.467
 0.241 0.0208  0.207
0.0320 0.0699 -0.533
-0.140 -0.219 -0.513
-0.329 -0.394  0.116
 0.106 -0.00749 -0.369
 0.369 -0.185 -0.212
0.0781 -0.448  0.293
-0.354 -0.173 -0.301
 0.369 -0.402 -0.0648
-0.177  0.286  0.356
-0.116  0.519  0.312
-0.247  0.248  0.360
-0.0127 -0.471  0.101
-0.296 0.00797  0.171
0.00833  0.588  0.308
-0.0614  0.836  0.313
 0.363 -0.160 0.00641
 0.367 0.0544 -0.0415
0.00834  0.743  0.356
-0.351 0.0544 0.0755
-0.243 -0.193 -0.0878
-0.124 -0.363  0.131
 0.210 -0.116 -0.468
 0.105 0.0621 -0.523
-0.314 0.0466  0.143
 0.333  0.745  0.304
 0.369 -0.472 -0.0648
-0.357 -0.363 0.0578
-0.308 -0.178  0.152
0.0242 0.0699 -0.393
0.0778 -0.136  0.149
-0.309 -0.291 -0.384
0.0779  0.256  0.306
 0.231 -0.232 -0.0956
-0.224 0.0931 -0.428
-0.255  0.310  0.360
-0.0236  0.186  0.306
-0.123 -0.200  0.134
 0.354 -0.185 0.0351
-0.241 -0.162 -0.142
 0.369 -0.124 -0.0493
-0.107 -0.0153  0.142
 0.109  0.116  0.349
 0.194 -0.471 -0.0725
-0.165 0.0809 -0.338
 0.229 -0.224 -0.157
-0.379 -0.0694 -0.196
 0.209 0.0931 -0.413
 0.229 -0.00749 -0.0958
-0.380 -0.472 -0.204
 0.178  0.480  0.353
 0.349 0.0550 -0.279
 0.371 -0.317 -0.111
 0.124 0.0931 -0.475
-0.0149  0.294  0.306
