ply
format ascii 1.0
element vertex 2048
property float x
property float y
property float z
end_header
-0.0516 -0.0637 -0.300
0.000471  0.336  0.942
 0.844 0.0647  0.304
-0.841 0.0643  0.312
0.00122 -0.0163 -0.990
0.00116 -0.0783  0.391
 0.425 0.00964 -0.0438
-0.395 0.0133 0.0804
-0.273 0.0604  0.896
 0.276 0.0649  0.940
0.0219 0.0876 0.0433
0.0574 0.0658 -0.632
0.00948  0.111  0.680
 0.273 -0.120 -0.313
-0.147 -0.146 -0.0189
 0.143 -0.146 -0.0515
 0.589 0.0270  0.181
0.000275 0.0311  0.934
-0.302 -0.0810 -0.224
-0.652 0.0352  0.118
-0.0442 -0.0620 -0.778
0.00113 0.0895  0.257
0.0665 0.0545 -0.162
0.0521 0.0709 -0.424
 0.258 -0.0145 0.0686
-0.00880 -0.0771  0.150
 0.262 -0.00804 -0.154
0.0166 -0.0578  0.583
-0.0559 -0.0530 -0.531
 0.156 0.0436  0.793
-0.266 0.00753 -0.0637
-0.0277 0.0851  0.471
-0.117 0.0482  0.792
0.00712  0.197  0.834
-0.0956 -0.00986 -0.112
 0.429 0.0103  0.122
-0.216 -0.0357 0.0838
0.0494 0.0471 -0.850
-0.00418 -0.0836 -0.00486
 0.744 0.0512  0.188
0.0183 -0.0160  0.767
0.0957 -0.0435 -0.275
-0.0310 0.0832 -0.278
-0.0777 0.0201 -0.662
 0.549 0.0229 0.0425
-0.531 0.0187 0.0350
 0.119 -0.0394 0.0593
0.0386 -0.0836 -0.144
-0.0687 -0.0347  0.271
0.0374 -0.0686 -0.422
0.0739 0.0408  0.380
0.0341 -0.0700 -0.652
-0.197 -0.0812 -0.314
-0.718 0.0450  0.238
-0.0703 0.0445  0.140
0.0760 -0.0234  0.246
-0.407 0.00600 -0.0547
-0.0731 0.0375 -0.395
 0.146 -0.00686 -0.0638
-0.0441 0.0761 -0.524
-0.493 0.00334  0.163
0.0741 -0.0269 -0.540
-0.202 -0.0132 -0.190
-0.0639 0.0412  0.583
-0.0413 0.0726 -0.769
0.0706 0.0431  0.532
-0.0629 -0.0388  0.490
 0.155 0.0512  0.915
-0.108 -0.0267 0.0253
 0.227 -0.116 -0.198
0.0660 0.0543  0.154
-0.149 0.0492  0.909
 0.307 -0.0169 -0.0419
-0.0685 0.0478  0.359
0.0157 -0.139 -0.848
0.0762 -0.0187 -0.751
-0.0277 0.0852 -0.0904
-0.0557 -0.000977 -0.887
 0.228 -0.0208 -0.267
 0.139 -0.0467 -0.171
0.00282 0.0741  0.829
0.0601 0.0161  0.656
-0.0520 0.0204  0.692
-0.255 -0.0809 -0.122
0.0645 0.0580 -0.319
-0.0580 -0.0801 -0.188
0.0608 -0.0453  0.476
0.0376 -0.0474 -0.896
-0.302 0.00394 0.0347
 0.362 -0.0199 0.0487
0.00119  0.297  0.836
-0.0783 0.0150 -0.208
0.00272  0.193  0.735
 0.118 -0.136 0.0438
-0.283 -0.0357 -0.316
0.0687 0.0512 -0.0637
-0.170 -0.0380 -0.0478
-0.0622 0.0580 -0.00485
 0.307 -0.0758 -0.236
 0.231 0.0573  0.856
0.0139 -0.0766  0.295
 0.669 0.0360  0.131
-0.0605 -0.0471 -0.433
0.0760 -0.0669 -0.0530
-0.206 -0.107 -0.224
0.0397 0.0793 -0.725
-0.200 0.0535  0.833
0.0575 0.0659 -0.515
 0.222 -0.0384 -0.0152
0.0812 0.0364  0.856
-0.587 0.0300  0.182
-0.0470 -0.0836 -0.0904
0.0158 0.0857  0.593
 0.461 0.00499 0.0379
0.0722 -0.0422  0.139
-0.0275 0.0848 -0.614
0.0875 0.0367  0.737
0.000672  0.246  0.908
-0.0476 -0.0600 -0.681
0.0132 -0.0821 -0.244
-0.0638 0.0425  0.877
-0.0564 -0.0796 0.0698
0.00829 0.0412 -0.926
-0.0719 0.0409  0.225
-0.0277 0.0852 -0.192
0.00288 0.0937  0.348
-0.802 0.0584  0.234
-0.00949 0.0892 -0.368
 0.520 0.0258  0.133
0.0707 -0.0346  0.343
0.0702 0.0475  0.291
-0.272 -0.124 -0.290
0.0486 -0.0831 0.0699
-0.0783 0.0150 -0.304
0.0798 -0.00614 -0.459
0.0440 -0.0647 -0.336
-0.0703 -0.0311  0.408
-0.136 -0.0407 -0.234
 0.664 0.0384  0.215
0.00643 -0.0392  0.685
0.0806 0.0150 0.0112
 0.200 -0.0984 -0.285
0.0392 -0.0649 -0.807
-0.341 -0.00539 -0.101
-0.446 0.00353 0.0181
-0.0467 -0.0282  0.624
0.0485 0.0729 -0.238
 0.291 -0.0408 -0.314
 0.775 0.0512  0.264
 0.245 -0.0750 -0.113
-0.0101 0.0746  0.749
-0.0721 -0.0271  0.182
-0.00948 0.0892  0.166
-0.571 0.0358  0.102
0.0798 -0.00613 -0.663
0.00542 0.000922  0.861
-0.275 -0.00848 -0.146
0.0186 -0.0756 -0.732
0.0186 -0.0756 -0.566
-0.0783 0.0150 -0.561
 0.155 -0.0833 -0.00770
-0.261 -0.0176 -0.240
-0.181 -0.000420 -0.117
-0.0717 0.00431 -0.807
-0.0987 -0.0776 -0.0318
 0.188 -0.000549 -0.128
0.0464 0.0761  0.453
-0.0277 0.0638 -0.844
 0.326 -0.00355 -0.114
-0.0347 0.0814 -0.449
-0.0717 0.0358  0.508
-0.220 -0.00598 0.0148
 0.594 0.0241  0.102
-0.0467 0.0734 0.0700
-0.0384 0.0798 -0.695
-0.474 0.00859 0.0912
-0.0507 -0.0576 -0.604
-0.0470 0.0249  0.796
0.0267 -0.0729  0.214
0.0800 0.0201 -0.379
-0.661 0.0345  0.193
 0.214 -0.0435 -0.196
-0.0476 -0.0600  0.340
-0.0703 -0.0311 -0.362
-0.117 -0.124 0.0423
-0.368 0.0161 0.0109
0.0806 0.0150 0.0861
-0.0763 -0.0113 -0.727
0.0676 -0.00550  0.588
0.0170 0.0883 -0.0316
-0.00715  0.138  0.781
-0.121 -0.0515 -0.165
 0.188 -0.0262 0.0592
-0.0154 -0.0758 -0.376
-0.0271 -0.0649 -0.847
 0.238 0.00427 -0.0690
-0.0786 0.00439 -0.491
-0.00376 -0.0724  0.508
-0.0743 0.0338  0.439
-0.213 0.0566  0.934
0.00202  0.245  0.785
 0.365 0.0169 -0.0102
0.0170 0.0885  0.525
-0.0755 -0.0223  0.102
-0.0483 -0.0449  0.558
0.0809 0.00967 -0.235
0.0265 0.0867 -0.572
0.0971 -0.0585 -0.117
0.0777 0.0299 -0.577
 0.357 -0.00903  0.116
-0.0643 0.0546 -0.144
 0.150 -0.0338 -0.236
-0.0117 -0.0766 -0.468
 0.301 0.00623 0.0213
-0.0364 0.0686  0.648
-0.199 -0.0453 -0.256
0.0270 0.0781 -0.790
-0.0786 0.00967 -0.0476
0.0600 -0.0500  0.407
-0.0186 -0.0463 -0.934
-0.319 -0.0147 -0.0316
0.0735 -0.0680 -0.197
-0.255 -0.118 -0.183
-0.0755 0.0299  0.289
0.00100  0.141  0.867
-0.0242 0.0867  0.407
 0.146 -0.0143 -0.000118
0.0551 0.0429  0.792
0.0520 0.0711  0.223
 0.270 -0.0232 -0.217
0.0723 0.0299 -0.790
-0.115 -0.129 -0.0701
0.0399 0.0593  0.699
-0.0281 -0.0713  0.446
0.0821 -0.0553 0.0111
-0.270 0.0643  0.958
 0.258 -0.128 -0.251
0.0805 0.00442  0.444
 0.170 0.0415  0.853
-0.166 -0.0207 0.0471
0.0469 -0.0624 -0.496
0.0806 0.00441  0.188
0.0809 0.00440 -0.101
 0.215 0.0589  0.937
-0.0768 0.0251 0.0486
 0.274 -0.0917 -0.169
 0.366 -0.00638 -0.0661
0.0923 -0.00923 -0.165
0.0711 -0.0193  0.530
-0.355 -0.0193  0.112
-0.234 -0.0288 -0.101
0.0406 0.0796  0.106
0.0334 0.0832 -0.121
0.0226 -0.0836 -0.0744
-0.718 0.0415  0.174
-0.0882 0.0373  0.741
0.0764 0.0331 -0.715
-0.0602 0.0607 -0.342
0.0687 -0.0376 -0.598
-0.0351 -0.0686  0.204
 0.496 -0.00164 0.0864
0.0639 -0.0220 -0.850
-0.153 -0.0831 -0.00775
-0.222 -0.0274 -0.313
0.0528 0.00914 -0.903
-0.117 0.0498  0.851
0.0401 -0.0342  0.631
-0.0324 -0.00851  0.740
-0.354 -0.0230 0.0511
-0.0889 -0.0305 -0.265
 0.220 -0.0479 -0.317
-0.124 -0.0494 -0.0809
0.0787 -0.0114 -0.331
-0.0381 0.0793  0.311
0.0219 0.0880 -0.475
0.0171 0.0887 -0.310
 0.193 -0.0353 -0.0798
-0.0615 -0.0793 0.0112
0.0579 0.0517  0.611
-0.0464 -0.0792 -0.246
 0.402 0.0191 0.0325
-0.0379 0.0793  0.535
0.00486 0.0558  0.882
0.0608 -0.0494 -0.697
-0.229 -0.0266 -0.0370
0.0434 -0.000987  0.719
-0.221 -0.0709 -0.166
-0.279 -0.0563 -0.180
-0.0750 -0.0670 -0.137
0.0688 -0.0372 -0.379
0.0118 0.0892 -0.673
-0.00374 -0.0820 0.0954
 0.312 -0.00660 0.0838
-0.0322 0.00846 -0.944
0.0574 0.0660 -0.00129
0.00117 -0.0788 -0.304
0.0358 -0.0215 -0.945
-0.219 -0.122 -0.277
-0.0664 0.0512 -0.251
0.0300 0.0852  0.400
0.00422  0.325  0.883
-0.154 -0.00577 -0.165
 0.152 -0.138 0.00157
-0.304 -0.0793 -0.291
-0.0782 -0.000877  0.337
-0.0685 0.0478 -0.0904
0.00117 -0.0836 -0.192
 0.150 -0.0648 -0.0580
-0.00747  0.133  0.728
-0.0312 0.0831  0.214
 0.306 -0.0863 -0.288
-0.223 0.0499  0.883
 0.253 0.00170 9.57e-05
-0.128 -0.0109 -0.0324
 0.172 -0.0109 -0.191
-0.539 0.0186  0.139
 0.717 0.0464  0.232
-0.0318 -0.0700  0.261
-0.266 -0.0137 0.0682
0.0993 -0.0181 -0.0244
 0.279 -0.0201 -0.101
-0.0685 0.0478 -0.620
0.0727 0.0445 -0.467
 0.503 0.0189 0.0114
0.0198 -0.0824 -0.858
0.0372 0.0817  0.311
-0.0634 -0.0552  0.140
-0.525 0.0146 0.0893
 0.225 -0.0805 -0.160
-0.357 0.0134 -0.0527
 0.194 -0.00247 -0.0370
0.0301 0.0747  0.651
-0.00953 -0.0836 -0.128
0.0341 -0.0700  0.353
-0.758 0.0549  0.210
 0.108 0.0317  0.813
-0.0717 -0.000728  0.551
-0.0325 0.0437 -0.897
-0.00454  0.246  0.835
-0.0774 -0.00615 -0.620
-0.0492 0.0706  0.262
-0.0383 0.0796  0.124
0.0619 -0.0708 -0.248
-0.0755 0.0299 -0.449
0.0520 0.0711 -0.365
0.0171 0.0887 -0.171
 0.294 -0.0346 -0.260
-0.0945 -0.0576 -0.213
-0.426 0.00596  0.118
0.0625 0.0607 0.0522
-0.0627 -0.0440 -0.482
 0.109 0.0457  0.897
 0.135 -0.00463 -0.112
 0.696 0.0376  0.172
-0.202 0.000176 -0.0693
0.00647 0.0896 -0.422
-0.277 0.00590 -0.0158
-0.223 -7.24e-05 -0.142
0.00601 -0.0780 -0.518
-0.00865 -0.00970  0.807
 0.107 -0.0840 -0.0196
0.0790 0.0250  0.241
-0.0726 0.0361 -0.737
0.0403 -0.0697  0.163
-0.250 -0.0155 -0.192
 0.232 -0.0277 -0.111
-0.151 -0.0853 -0.0563
-0.0441 0.0761 -0.400
0.0783 -0.0438 0.0859
 0.791 0.0548  0.218
0.0806 0.0150 -0.283
-0.0349 0.0817 -0.0369
-0.0387 -0.0460 -0.890
 0.285 -0.113 -0.214
0.0809 0.00967  0.327
0.0341 -0.0699  0.444
-0.00374 -0.0780 -0.609
0.0439 -0.0836 0.0219
0.00237  0.192  0.882
 0.621 0.0409  0.140
-0.0602 0.0607 -0.566
-0.00936 0.0878 -0.732
 0.397 -0.000848 0.0758
-0.0300 0.0674  0.695
-0.117 -0.0112 -0.197
-0.298 -0.0432 -0.256
 0.200 -0.00966 0.0158
 0.244 -0.0838 -0.297
-0.275 -0.120 -0.229
-0.249 -0.0645 -0.299
-0.295 -0.0173 -0.0924
-0.0768 0.0250 0.0967
-0.489 0.0153 0.00257
 0.266 0.0636  0.887
0.0385 0.0311  0.836
-0.159 -0.0370 0.000347
-0.00953 -0.0836 0.0486
-0.762 0.0503  0.258
0.0791 0.0251 -0.524
-0.138 -0.00560 -0.0907
-0.00418 -0.0492  0.636
 0.119 -0.0136 -0.208
 0.463 0.0136 -0.0169
-0.320 -0.00362 0.0845
-0.0277 0.0852 0.0112
-0.0623 -0.0234 -0.846
-0.00948 0.0892 -0.235
0.0784 0.0200  0.492
-0.411 0.0195 -0.0101
-0.438 0.0215 0.0644
0.0403 0.0450  0.743
 0.158 -0.0434 -0.128
-0.0123 -0.0765 -0.655
-0.159 0.0394  0.819
 0.198 -0.0522 -0.251
-0.0783 0.0150 0.000495
0.00833  0.191  0.781
 0.568 0.0341  0.139
 0.104 -0.0538 -0.229
-0.0366 -0.0227  0.683
-0.0505 -0.0576 -0.727
0.0170 0.0885 -0.625
0.00190  0.294  0.924
-0.00426  0.100  0.635
 0.212 -0.00656 -0.169
 0.291 -0.0526 -0.185
-0.00327 -0.0770 -0.795
-0.186 -0.00464 -0.0213
-0.0337 0.0787  0.581
-0.155 -0.0434 -0.114
-0.0553 -0.0824 -0.0459
0.0393 -0.0606  0.516
-0.0595 0.0203  0.647
-0.165 0.0553  0.867
0.0120 0.0622 -0.870
-0.0312 0.0405  0.835
-0.0785 -0.0436 -0.0103
-0.0417 -0.0647  0.389
-0.629 0.0407  0.156
-0.0737 -0.0234 -0.680
-0.0774 -0.00615 -0.422
 0.124 0.0503  0.851
-0.0186 0.0594  0.792
-0.191 -0.0350 -0.144
0.0297 0.0846 -0.0761
-0.808 0.0597  0.283
0.0575 0.0659 -0.686
0.0645 -0.0436  0.300
-0.114 -0.117 -0.0123
0.0726 0.0445  0.426
 0.253 -0.0189 -0.309
0.0765 0.0337 -0.424
0.0724 0.0443 -0.204
0.0789 -0.0113  0.396
0.0732 -0.0114 -0.807
-0.0733 -0.0277 -0.315
 0.199 -0.0809 -0.217
 0.260 -0.0228 -0.0419
0.0809 0.00439 -0.620
0.0544 0.0681  0.500
-0.0669 -0.0379  0.225
 0.436 0.0201 0.0778
0.0458 -0.0714 -0.293
 0.643 0.0315  0.177
-0.496 0.0292 0.0594
-0.0836 -0.0471 0.0590
 0.496 -0.00202  0.157
-0.0242 0.0867 -0.561
 0.196 0.0582  0.898
0.0608 -0.0810 -0.106
0.0336 0.0834  0.168
-0.0622 0.0580 -0.208
-0.0586 0.0283 -0.855
-0.0684 0.0478 -0.695
 0.552 0.0339 0.0967
-0.0777 0.0201  0.391
-0.0492 0.0706  0.177
-0.00376  0.117  0.824
-0.208 -0.0435 0.0327
-0.0578 0.0635 -0.481
-0.0281 -0.0714 -0.570
-0.0675 0.0399 -0.780
-0.0777 0.0201  0.188
 0.407 -0.00244 -0.00475
0.0484 -0.0769  0.113
0.0493 -0.0836 -0.0209
-0.127 -0.0359 0.0627
0.0809 0.00967  0.129
 0.118 0.0431  0.767
-0.0740 0.0448  0.835
 0.229 -0.120 -0.315
-0.158 -0.0397 -0.196
-0.0803 -0.00576 -0.170
0.0530 0.0666  0.563
-0.0118 -0.0766 -0.426
0.0645 0.0580 -0.276
-0.612 0.0316 0.0890
0.0219 0.0880 -0.524
-0.685 0.0429  0.144
-0.260 -0.0178 -0.283
0.0741 -0.0269 -0.497
0.0669 -0.0407 -0.641
-0.0346 0.0811  0.364
-0.466 0.0165  0.132
0.0374 -0.0686 -0.604
-0.260 -0.0194 0.0163
0.0465 0.0761  0.352
-0.0951 -0.0399 -0.0518
-0.153 -0.124 0.0216
-0.0385 -0.0668 -0.340
 0.140 -0.00588 -0.160
0.0742 0.0409 -0.122
-0.103 0.0468  0.891
 0.236 -0.0214 0.0325
 0.219 -0.119 -0.239
 0.301 0.00880 -0.0744
 0.115 -0.125 -0.0252
 0.338 -0.0111 0.0112
-0.0782 -0.000877  0.150
-0.0719 0.0409 -0.513
0.0867 -0.0138 -0.0639
 0.168 -0.0381 -0.0317
 0.509 0.0290 0.0541
-0.450 0.00867 -0.0230
0.0117 0.0957  0.718
 0.814 0.0621  0.273
0.00878 0.0901  0.786
0.0111 0.0136 -0.957
-0.00417 0.0893 0.0754
0.0760 -0.0234 -0.422
0.0499 -0.0600 -0.544
0.0501 -0.0430  0.564
 0.118 -0.0516 -0.0798
-0.0687 -0.0347  0.367
-0.236 -0.124 -0.315
-0.0759 -0.0162 -0.534
-0.574 0.0268 0.0621
-0.00533  0.159  0.824
-0.0408 -0.0790  0.112
 0.188 -0.0359 -0.154
0.00644 0.0893  0.129
-0.0617 -0.0385 -0.808
-0.0149 -0.130 -0.822
-0.399 -0.00227 0.0431
0.0648 -0.0439 -0.459
-0.0748 -0.0105 -0.769
-0.0809 -0.0612 -0.0833
 0.469 0.00948  0.115
-0.0119 -0.0655  0.547
-0.0602 0.0607  0.396
-0.0774 -0.00613  0.444
0.0600 -0.0503  0.214
-0.191 -0.0358 -0.0958
0.0580 -0.0522 -0.764
-0.00304  0.277  0.883
0.0557 -0.0554  0.262
-0.0193 0.0764 -0.806
-0.0602 0.0607 -0.294
-0.375 -0.00656 -0.0229
-0.150 -0.146 -0.0602
-0.0313 0.0834 -0.326
-0.00417 0.0893 -0.133
-0.0163 -0.0756 -0.712
0.00111 -0.0289  0.732
0.0823 -0.0320 0.0446
0.0117 0.0888  0.476
 0.218 -0.0368 0.0828
-0.0446 -0.0624 -0.399
0.00119 -0.0632 -0.892
-0.0545 0.0496 -0.818
-0.0396 -0.0585  0.518
-0.0318 -0.0700 -0.504
-0.222 -0.0273 -0.221
0.0554 0.0637 -0.758
-0.0783 0.0150 -0.262
 0.129 -0.0446 -0.0271
-0.264 0.00470 -0.111
0.0624 0.0606 -0.557
 0.188 0.0485  0.819
0.0708 0.0479  0.339
-0.000204  0.152  0.694
-0.0623 0.0579 -0.657
-0.0240 0.0864 -0.486
-0.0782 -0.000877  0.230
-0.0192 -0.0531  0.598
-0.0793 0.0447  0.781
-0.0469 0.0737  0.439
-0.0521 0.0216  0.754
-0.0149 -0.0836 -0.0637
-0.500 -0.000510  0.123
0.00131 0.00956  0.902
-0.317 0.00965 -0.00149
0.0789 -0.0113  0.284
 0.238 -0.0383 -0.165
-0.00859 -0.0772  0.353
 0.157 -0.0202 0.0372
-0.201 -0.0712 -0.199
 0.290 0.00690 -0.0157
-0.0840 -0.0170 -0.229
-0.0627 -0.0440  0.309
0.0740 -0.0697 -0.149
 0.333 0.00577 0.0532
0.00626 -0.0758  0.471
-0.122 -0.0466 -0.0197
-0.234 -0.0200 0.0483
0.0435 0.0395  0.873
0.0267 -0.0729 -0.689
-0.0759 -0.0162 -0.459
0.0665 0.0546 0.0896
-0.576 0.0229  0.145
 0.242 -0.00772 -0.192
-0.00417 0.0893  0.439
-0.0359 0.0541  0.730
0.00607 -0.0780 -0.342
-0.0590 -0.0210  0.589
 0.285 -0.118 -0.277
-0.0313 0.0834 -0.652
0.0408 -0.0668 -0.384
-0.00323  0.234  0.872
0.00220 0.0915  0.301
-0.186 0.0498  0.904
-0.349 -0.0178 0.0143
 0.156 -0.0992 -0.0438
0.0686 0.0357  0.578
-0.238 -0.124 -0.217
-0.0648 -0.0407  0.451
-0.208 -0.0423 -0.00476
-0.0685 0.0478  0.321
 0.114 -0.0238 0.0163
0.0386 -0.0836 -0.192
0.0779 0.0297 -0.673
 0.205 0.00156 -0.0852
 0.515 0.0295 0.0966
-0.121 -0.0521 -0.128
0.0723 0.0444  0.464
0.0520 0.0711  0.261
-0.287 -0.0379 -0.211
0.00116 -0.0783  0.241
 0.102 -0.0573 -0.176
0.0804 -0.000858 -0.700
-0.138 -0.00425 -0.128
 0.576 0.0311 0.0668
0.0675 0.0196 -0.833
-0.219 -0.107 -0.183
-0.198 -0.0500 -0.293
 0.386 0.0152 -0.0440
-0.0441 0.0761 -0.235
0.0311 0.0151  0.797
-0.0746 -0.00111  0.514
 0.232 -0.127 -0.277
 0.210 -0.0449 0.0201
-0.625 0.0317  0.197
0.0809 0.00440 -0.197
-0.230 -0.0186 -0.261
 0.250 0.00436 -0.104
-0.0750 -0.0199 -0.586
 0.261 -0.0566 -0.140
-0.0520 0.0680 0.0326
0.0725 -0.0310  0.183
0.0723 -0.0309  0.439
0.0499 0.0583 -0.810
 0.115 -0.129 -0.0677
-0.343 0.0102 0.0416
 0.226 0.00116 -0.133
-0.00374 -0.0780  0.188
-0.0622 0.0580  0.102
-0.273 -0.0885 -0.164
-0.311 -0.00553 -0.123
 0.477 0.0259 0.0700
-0.0404 -0.0681  0.166
 0.354 -0.0101 -0.0315
 0.395 0.00389  0.114
0.0742 0.0409 -0.0209
0.0220 -0.0745 -0.454
 0.758 0.0463  0.230
0.0105  0.117  0.754
0.0780 0.0254  0.770
0.0298 0.0477 -0.898
-0.0687 -0.0347 -0.397
-0.232 -0.0299 -0.160
-0.0309 -0.0836 -0.213
-0.0363 -0.0836 -0.160
-0.0149 -0.0805 -0.272
0.0809 0.00439  0.364
0.0755 -0.0171  0.492
-0.0693 -0.0617 0.0979
-0.0416 0.0780 -0.122
-0.609 0.0400  0.124
-0.218 0.00332 -0.101
0.0374 -0.0261  0.673
0.0215 0.0572  0.804
-0.304 0.00934 -0.0707
0.0465 0.0761 -0.600
 0.627 0.0375  0.105
-0.681 0.0414  0.221
-0.0731 0.0375 -0.181
 0.263 -0.0172 -0.271
-0.0534 -0.0554 -0.639
-0.197 -0.0993 -0.262
 0.290 -0.00201 0.0538
 0.247 -0.0442 -0.0842
 0.227 -0.0277 -0.0530
-0.0507 -0.0576  0.422
-0.0782 -0.000877  0.268
-0.0575 0.0634  0.471
 0.245 0.0638  0.915
-0.290 -0.100 -0.316
-0.466 0.0258 0.0368
0.0766 0.0334  0.207
-0.259 -0.0234 -0.0783
-0.250 -0.0433 -0.128
-0.0777 0.0201 -0.112
0.0717 -0.0450 -0.300
 0.142 0.0362  0.824
-0.239 -0.0969 -0.291
0.00644 0.0893 0.00584
 0.119 -0.0262 -0.248
 0.199 -0.0534 -0.286
 0.155 -0.0404 -0.202
0.0622 0.0311  0.714
0.0159 -0.0485 -0.935
 0.434 0.00124 0.0166
0.0787 0.0148 -0.759
-0.0456 0.0653  0.610
-0.302 -0.0962 -0.261
-0.392 0.00297  0.113
 0.551 0.0250  0.168
-0.0623 0.0527  0.551
-0.0753 -0.0596 -0.253
0.0755 0.0375 -0.639
0.00908  0.165  0.760
0.0222 -0.0635  0.546
-0.0384 0.0799 -0.160
-0.170 -0.00373 -0.0585
-0.00949 0.0892  0.503
-0.0721 -0.0271 -0.646
-0.00168  0.217  0.761
 0.195 -0.0861 -0.251
0.0426 0.0189  0.765
-0.191 -0.00368 -0.159
-0.0780 -0.0117 0.0326
 0.274 -0.0593 -0.291
-0.0336 -0.0665 -0.810
0.0372 0.0817 -0.395
0.0513 0.0704 -0.199
0.0708 0.0479 -0.244
-0.0179 -0.0308 -0.966
 0.279 0.00820 -0.0477
0.00644 0.0893 -0.278
0.00644 0.0893 -0.203
-0.0767 -0.0114  0.305
0.0601 0.0635 -0.0940
0.0794 -0.00608 -0.588
 0.327 -0.0134 -0.0689
-0.106 0.0329  0.824
-0.0497 0.0711 -0.0690
0.0253 0.0605  0.769
-0.370 0.00120 -0.0813
0.0267 -0.0729  0.262
-0.0768 0.0251 -0.336
0.0118 0.0892  0.193
0.0498 -0.0341  0.599
-0.137 -0.0419 -0.0499
 0.295 -0.000251 -0.125
0.0547 0.0685  0.189
0.0407 0.0799 -0.285
-0.0666 -0.0373 -0.748
-0.0152 -0.0162  0.768
0.0304 -0.0713 -0.764
0.0168 0.0854 -0.753
0.00631 0.0712 -0.838
 0.154 -0.129 0.0340
0.0817 -0.0216 -0.254
 0.172 -0.0341 0.0112
0.00154 -0.0807 -0.830
-0.0627 0.0309  0.615
-0.117 -0.0103 -0.0640
-0.282 -0.0195 -0.0371
 0.365 0.00968 0.0639
-0.153 -0.116 -0.0443
0.0384 -0.0606 -0.841
0.0265 0.0867  0.279
-0.0719 0.0409 -0.0316
0.0704 0.0294  0.818
 0.209 -0.0906 -0.187
0.000453  0.273  0.813
-0.187 -0.0110 0.0148
-0.0243 0.0374  0.867
 0.162 0.0545  0.883
0.0754 0.0370 -0.351
0.0519 0.0510  0.658
 0.235 -0.0151 -0.235
-0.553 0.0259  0.168
-0.255 0.0571  0.924
-0.101 -0.0195 -0.0108
0.0408 -0.0668  0.386
0.0653 0.00869  0.618
0.0726 0.0445 0.0254
 0.363 -0.0213 0.0859
0.0791 0.0251 -0.155
-0.245 -0.0981 -0.150
-0.363 0.00613 0.0852
0.0140 -0.0766 -0.400
 0.300 -0.0853 -0.204
 0.501 0.00371  0.118
-0.0750 0.0291  0.471
 0.130 -0.0109 -0.0321
0.00101  0.110  0.855
0.0279 -0.0836 -0.106
-0.229 -9.23e-05 -0.0158
-0.0363 -0.0836 -0.0102
-0.0416 -0.0836 -0.122
0.0809 0.00439 -0.491
0.0726 0.0445 -0.606
-0.0783 -0.000828 -0.138
-0.113 0.0353  0.763
-0.0781 -0.00619 -0.0851
-0.0753 -0.0112  0.476
-0.0685 0.0478 0.0700
0.0186 -0.0756 -0.486
-0.138 -0.0188 0.0166
 0.423 0.000534 0.0485
 0.256 -0.116 -0.184
0.0791 -0.0589 -0.0208
-0.298 -0.0158 0.00578
0.0438 -0.0833 -0.224
-0.0401 0.0773 -0.737
0.0485 0.0729 -0.0512
-0.00810 -0.0772  0.321
-0.0783 0.0150 -0.593
-0.00953 -0.0836 -0.0958
-0.195 -0.0759 -0.230
0.0226 -0.0836 0.0486
-0.00418 -0.0836 -0.160
0.0435 0.0775 0.0718
0.00116 -0.0783  0.423
 0.132 -0.0492 -0.109
 0.257 -0.0902 -0.138
0.0117 0.0883  0.562
-0.00417 0.0893 -0.593
-0.0782 -0.000877 -0.368
-0.125 -0.143 0.0185
-0.00949 0.0892 -0.518
0.0541 0.0141  0.687
0.0557 -0.0552 -0.732
-0.0385 -0.0209 -0.934
-0.00460  0.165  0.723
-0.194 -0.0213 0.0621
-0.163 -0.0256 -0.225
0.0540 -0.0832 -0.0690
-0.0301 0.0538  0.762
-0.710 0.0504  0.204
-0.0155 0.00302  0.836
 0.290 -0.0886 -0.315
-0.207 -0.0316 -0.0691
-0.164 -0.0406 -0.0799
 0.214 -0.0303 -0.138
-0.0622 0.0580 -0.443
-0.0948 -0.0583 -0.112
 0.188 -0.0367 -0.122
-0.0798 -0.0553 0.0200
-0.104 -0.0506 -0.245
 0.219 -0.000709 -0.0181
 0.280 -0.0169 0.0224
0.0783 -0.0168  0.102
-0.236 0.00432 -0.0704
-0.00246  0.170  0.856
0.0659 -0.0761 0.0429
0.0388 0.0161 -0.930
-0.117 -0.134 -0.0382
0.0440 -0.0647  0.311
0.0575 0.0659  0.389
-0.250 -0.129 -0.246
-0.0471 -0.0180  0.654
-0.0507 -0.0576 -0.369
-0.221 -0.0466 -0.186
-0.0244 -0.0729 -0.534
-0.217 -0.0295 -0.128
-0.271 -0.0923 -0.291
-0.409 -0.00202 0.0125
0.0460 0.0756 -0.151
0.0490 0.0734  0.136
-0.0783 0.0150 -0.529
-0.00410 0.0832 -0.780
0.0800 0.0201 0.0433
 0.173 -0.00267 -0.0799
0.00638 0.0887 -0.705
-0.196 0.0579  0.868
0.0201 0.00593  0.834
-0.0625 0.0359  0.723
0.0598 -0.0500 -0.406
-0.0277 0.0852 0.0486
0.0615 -0.0406  0.508
 0.179 -0.00745 -0.0107
 0.201 0.0584  0.864
0.0495 -0.0213 -0.907
-0.293 -0.0650 -0.317
-0.0737 -0.0234 -0.504
-0.0372 -0.0650  0.475
0.0172 -0.0774  0.134
-0.508 0.0223  0.144
0.0777 0.0299 -0.310
-0.298 -0.0112 0.0646
 0.117 -0.120 0.0178
 0.717 0.0404  0.198
0.00766 -0.111 -0.832
0.0300 0.0852 -0.349
0.0318 0.0769  0.620
-0.0471 0.00518 -0.915
0.0766 0.0426  0.885
-0.00948 0.0892  0.380
-0.00511  0.218  0.797
-0.0277 0.0852  0.279
-0.0602 0.0607  0.204
0.00116 -0.0783 -0.759
0.0192 0.0450  0.855
0.0579 -0.0528  0.364
-0.125 -0.0495 -0.195
0.0805 -0.000877  0.225
0.0630 0.00414 -0.865
0.0557 -0.0554 -0.577
 0.146 -0.113 -0.0140
 0.300 -0.0530 -0.217
-0.0384 0.0799 -0.368
-0.147 -0.0449 -0.143
0.0404 0.0793 0.0201
0.0334 0.0832 -0.650
 0.211 -0.0376 -0.227
 0.297 -0.105 -0.240
0.0147 -0.0334 -0.969
 0.199 -0.0691 -0.312
 0.273 -0.0916 -0.290
-0.501 0.0263 0.0297
 0.664 0.0457  0.161
 0.123 -0.145 -0.00418
-0.372 0.0140 0.0441
0.00882  0.159  0.797
-0.0731 0.0375 -0.481
-0.116 -0.0186 -0.229
 0.307 -0.0615 -0.262
-0.0507 -0.0576  0.241
-0.150 -0.0110 -0.0119
 0.617 0.0338  0.192
0.0787 -0.0113  0.161
 0.349 0.0118 0.0270
-0.0782 -0.000877  0.412
 0.212 -0.0425 0.0534
0.0646 -0.0437 -0.342
 0.373 -0.00707 0.00575
-0.0687 -0.0347 -0.611
-0.0209 0.0321 -0.930
0.0806 0.0150 -0.0583
0.0200 0.0701  0.731
-0.000492  0.337  0.910
-0.0508 -0.0485 -0.835
-0.0685 0.0478  0.177
 0.139 -0.0756 -0.0325
 0.147 -0.122 -0.0689
0.0866 -0.0402 -0.0428
0.0725 -0.00582  0.556
0.0492 0.0737  0.419
0.0577 -0.0526 -0.668
0.0922 0.0451  0.792
-0.0627 -0.0440 -0.573
-0.0161 -0.0793 -0.874
-0.251 -0.0352 -0.309
-0.539 0.0325 0.0703
-0.0196 0.0880  0.102
 0.134 -0.0420 0.00569
-0.0606 -0.0474 -0.336
 0.114 -0.00994 -0.0747
 0.466 0.0247 0.0166
 0.598 0.0252  0.148
 0.255 -0.0275 -0.133
-0.150 0.0416  0.791
0.0680 -0.0604 -0.274
-0.148 -0.115 -0.0152
 0.490 0.00937 0.0435
0.0391 -0.0646  0.482
-0.0672 -0.0746 -0.0173
-0.146 -0.0664 -0.0341
0.0645 0.0580 -0.388
-0.266 -0.0553 -0.150
-0.170 -0.00177 -0.0899
0.0454 -0.0492 -0.868
-0.283 -0.118 -0.258
 0.343 -0.000192 0.0905
 0.186 -0.0285 -0.210
-0.0750 -0.0424 -0.290
0.0226 -0.0805 -0.272
 0.183 0.0552  0.924
-0.224 0.0554  0.851
0.00667 0.0491  0.912
-0.0195 0.0873  0.556
0.0799 0.0201  0.412
0.0430 0.0771  0.532
0.0182 -0.0757 -0.368
-0.0755 0.0299  0.252
0.0236 -0.0266  0.714
 0.107 -0.0499 -0.00875
-0.0631 0.00218  0.611
 0.312 0.0115 -0.0476
0.0455 0.0699  0.592
0.000202  0.218  0.896
-0.0685 0.0479 -0.368
-0.490 0.0249  0.113
-0.744 0.0463  0.186
-0.0195 0.0588 -0.876
 0.253 -0.125 -0.211
-0.0520 0.0680  0.230
-0.291 -0.0355 -0.283
-0.0122 0.0840  0.680
 0.810 0.0564  0.240
 0.686 0.0467  0.198
-0.0446 -0.0624  0.296
0.0724 -0.0307 -0.716
 0.194 -0.0326 -0.0204
-0.427 0.0222 0.0377
0.0262 0.0861 -0.251
0.00651 -0.0836 0.0219
 0.343 0.0118 -0.0632
-0.238 0.0606  0.947
-0.0732 0.0374 -0.283
-0.657 0.0445  0.166
-0.248 -0.0229 -0.00925
 0.230 -0.0185 0.0628
-0.0743 0.0338 -0.229
 0.253 -0.111 -0.294
 0.178 -0.00376 -0.154
 0.269 0.00753 -0.0743
-0.0430 -0.0754 -0.274
-0.0318 -0.0699 -0.744
-0.00603  0.191  0.808
-0.192 -0.0759 -0.283
-0.358 0.0158 -0.0208
-0.331 0.0134 -0.0422
-0.0578 0.0635 -0.598
-0.211 -0.112 -0.309
0.0726 -0.0311  0.375
0.0574 -0.0822 -0.171
-0.231 -0.0620 -0.141
 0.295 -0.0184 -0.0689
-0.0276 -0.0387  0.649
 0.149 -0.0301 0.0628
0.0407 0.0799 -0.456
0.0806 0.0149  0.295
-0.0381 -0.0105  0.712
 0.251 0.00394 -0.0424
-0.0604 -0.0472  0.198
-0.214 -0.0291 -0.281
0.0800 0.0201 -0.449
-0.0196 0.0880 -0.411
-0.249 -0.00735 -0.161
 0.424 0.0203 -0.00664
-0.0196 0.0880  0.332
0.0219 0.0880  0.428
-0.0743 0.0338 0.0219
-0.0244 -0.0729  0.412
0.0975 -0.0173 -0.226
0.00503  0.138  0.840
0.0766 0.0338  0.170
 0.113 -0.0532 -0.203
-0.272 -0.00303 0.0429
-0.0327 0.00568  0.770
 0.304 -0.0555 -0.293
0.0700 -0.0592  0.109
 0.306 -0.0158 -0.0103
 0.524 0.0238 0.0286
0.0772 -0.0199  0.311
 0.266 -0.0416 -0.180
-0.245 -0.129 -0.288
 0.117 -0.00676 -0.133
-0.0244 -0.0729 -0.630
-0.324 -0.0130 -0.0794
0.0610 -0.0455 -0.791
-0.0439 0.0654 -0.796
-0.0309 -0.0834 0.0805
-0.0242 0.0867  0.241
0.0219 0.0876 0.0861
-0.292 -0.0808 -0.183
-0.141 0.0526  0.880
-0.295 0.00993 -0.0443
-0.254 0.0606  0.876
 0.316 0.00929 -0.00232
-0.443 0.00479 0.0860
 0.282 -0.0260 -0.290
-0.0318 -0.0700 -0.450
-0.0643 0.0546  0.284
-0.0446 0.0565  0.674
-0.0190 0.0817  0.620
-0.0698 -0.0719 -0.163
-0.549 0.0180  0.102
0.0469 -0.0624  0.193
0.0722 -0.0304 -0.572
 0.371 0.00594 0.0904
 0.137 -0.0390 0.0349
-0.0671 -0.0335 -0.782
0.0763 0.0166  0.536
0.0766 0.0338  0.106
-0.00221  0.309  0.861
 0.167 -0.00642 -0.0372
-0.144 -0.140 0.0419
 0.391 -0.00353 0.0432
0.0684 0.0511  0.252
-0.153 -0.0402 -0.0265
0.0113 -0.0537  0.610
-0.323 -0.0123 0.0207
0.0745 0.0362 -0.742
-0.186 -0.0340 -0.0258
-0.0776 -0.00622 0.0593
-0.0699 -0.0662 -0.227
-0.747 0.0457  0.236
0.0119 -0.0436  0.658
-0.0363 -0.0836 0.0433
0.00117 -0.0836 -0.0316
0.0798 -0.00614 -0.304
-0.224 0.00126 -0.0425
 0.174 -0.0382 -0.0584
-0.0671 0.00431 -0.833
-0.0930 0.0474  0.864
0.0950 0.0474  0.835
 0.118 -0.0532 -0.154
0.0800 0.0201 -0.550
-0.00898  0.106  0.733
0.0772 0.0297 -0.181
-0.0767 -0.0114 -0.336
-0.216 -0.120 -0.246
-0.0845 0.0463  0.808
 0.192 -0.0324 -0.181
 0.208 0.0538  0.836
-0.267 -0.115 -0.315
0.0917 -0.0582 -0.0798
 0.145 -0.0124 -0.202
-0.0786 0.00438  0.364
-0.0446 -0.0624 -0.474
0.0249 0.0750  0.677
0.0669 -0.0771 0.00584
0.0407 0.0799 -0.541
 0.236 -0.0663 -0.138
-0.0768 0.0251 -0.636
-0.00948 0.0892 -0.165
 0.391 0.00362 -0.0679
0.0827 -0.0214 -0.00326
 0.392 0.0182 -0.0153
0.0300 0.0852  0.213
0.0742 -0.0270 -0.689
0.0666 0.0546 -0.440
 0.768 0.0526  0.201
0.0304 -0.0714  0.418
0.0186 -0.0756 -0.630
-0.0481 -0.0203 -0.906
-0.262 -0.0222 -0.112
-0.0664 0.0512 -0.117
-0.0703 0.0445 -0.0637
-0.0702 -0.0310 -0.709
-0.431 0.00179 -0.00472
-0.00972 0.0311  0.890
-0.0622 0.0580 -0.540
-0.0774 -0.00615  0.198
-0.0134 0.0756  0.715
0.0299 0.0850  0.501
-0.170 -0.0133 -0.202
0.0790 -0.0114 -0.518
-0.0721 -0.0271  0.337
-0.353 -0.0247 0.0857
 0.167 -0.00182 -0.112
-0.0722 -0.0276  0.155
0.00820  0.133  0.802
0.00646  0.218  0.851
0.0297 0.0846 -0.215
 0.451 0.0239 0.0538
0.0638 0.0573 -0.661
0.0554 -0.0646  0.142
-0.0732 0.0372 -0.422
-0.00143 0.0532 -0.904
-0.0135 -0.0821 -0.244
0.0226 -0.0836 -0.0476
-0.00948 0.0892  0.530
0.00651 -0.0836 0.0700
 0.381 0.0177 0.0163
-0.0719 0.0409 -0.593
0.0790 -0.0169 0.0753
-0.681 0.0471  0.180
-0.154 0.0394  0.845
-0.112 -0.00935 -0.0906
0.0809 0.00439  0.262
0.00894  0.117  0.781
-0.0783 0.0150  0.316
 0.147 -0.0440 -0.0744
0.0552 0.0291 -0.871
 0.688 0.0407  0.226
0.0180 -0.0757  0.327
-0.128 -0.117 0.0166
-0.0784 -0.000927 -0.0209
-0.0784 0.00440 -0.705
-0.0844 -0.0139 -0.0585
-0.0782 -0.000877 -0.283
-0.0146 -0.131 -0.849
-0.336 0.0110 -0.0683
-0.258 0.00429 -0.0336
-0.318 0.00342 0.0552
-0.0197 -0.0744 -0.775
-0.0193 -0.0587  0.571
0.0108 0.0899  0.754
-0.447 0.00350 0.0446
 0.244 -0.0232 -0.00240
0.0118 0.0892 -0.395
-0.0565 -0.0230 -0.872
-0.00943 0.0888 -0.0316
-0.132 0.0353  0.824
0.0469 -0.0624 -0.630
0.0488 0.0732 -0.335
 0.128 -0.0460 -0.224
 0.124 0.0332  0.792
-0.0786 0.00967  0.118
0.0244 0.0738 -0.816
 0.242 0.0524  0.888
-0.0413 0.0777  0.492
-0.0577 0.0631 -0.0316
0.0408 -0.0668  0.236
-0.0782 -0.000877 -0.646
0.0798 0.00445  0.471
0.0609 0.0542 -0.781
 0.489 0.0261 0.0996
-0.817 0.0578  0.256
-0.132 -0.0894 -0.0388
-0.774 0.0574  0.236
-0.428 0.00497 -0.0378
 0.226 -0.0653 -0.291
-0.225 -0.0506 -0.294
0.0806 0.0150 -0.406
-0.395 0.0194 0.0165
-0.0121 -0.0765  0.291
 0.247 -0.101 -0.160
0.0782 -0.0162  0.204
-0.0741 0.0177  0.533
-0.0706 0.0201  0.567
-0.0134 0.0838  0.653
-0.0614 0.0572 -0.727
-0.00417 0.0893 -0.101
0.0619 0.0355  0.631
-0.00531  0.218  0.824
0.00976 -0.138 -0.821
-0.0125 0.0555  0.845
-0.341 0.0125 0.00567
-0.346 -0.0103 -0.0529
 0.348 -0.00390 -0.0986
0.0601 0.0635 -0.0298
0.0766 0.0338 -0.0975
0.0171 0.0887  0.369
0.0148 0.0311  0.877
-0.0242 0.0867  0.145
-0.0768 0.0250  0.156
-0.384 0.0165 -0.0312
-0.215 -0.0887 -0.295
0.00592  0.272  0.840
-0.0196 0.0880 -0.679
-0.0120 -0.0333  0.702
0.0777 0.00458  0.514
-0.0674 -0.0269  0.513
 0.209 -0.104 -0.212
-0.00841 0.00322 -0.976
-0.258 -0.0424 -0.173
-0.608 0.0267  0.150
0.0768 -0.0238 -0.286
-0.0469 0.0736  0.343
 0.141 0.0414  0.869
-0.0514 0.0422  0.777
 0.103 0.0480  0.872
-0.220 -0.0440 0.0551
-0.282 0.00741 -0.0849
 0.740 0.0471  0.248
-0.205 -0.0123 0.0347
-0.250 0.000594 -0.132
-0.834 0.0639  0.288
-0.0605 -0.0471  0.391
 0.102 -0.0465 0.0375
0.0150 -0.0764  0.369
0.0521 0.0710  0.293
 0.527 0.0147 0.0650
-0.185 -0.0296 0.0323
-0.399 -0.00298 -0.0155
0.00922  0.122  0.712
 0.277 -0.0609 -0.166
-0.0754 0.0292 -0.711
 0.214 -0.0117 0.0402
 0.229 -0.0224 -0.299
 0.215 -0.0185 -0.191
0.0802 -0.0622 -0.224
-0.0772 0.00951 -0.753
-0.0628 0.0291  0.818
 0.131 -0.123 -0.0452
0.00912  0.149  0.738
 0.226 -0.00516 0.0157
-0.459 0.0209 -0.00240
 0.302 -0.0996 -0.267
-0.0305 -0.0738 -0.310
-0.0672 -0.0746 -0.103
0.0781 -0.0162 -0.390
0.0336 0.0834  0.248
-0.0756 0.0255  0.763
0.0687 0.0513  0.129
 0.565 0.0202  0.118
-0.0631 0.0533  0.525
 0.737 0.0528  0.217
-0.229 0.0539  0.915
0.0805 -0.000877 -0.433
-0.488 0.00269 0.0710
-0.153 -0.0358 0.0270
-0.212 -0.0603 -0.315
-0.374 -0.00558 -0.0534
 0.513 0.0180  0.156
-0.0416 0.0780 -0.577
-0.472 0.0256 0.0627
0.0534 -0.0565  0.455
-0.0627 0.0529 -0.753
0.0713 0.0441  0.507
-0.0402 -0.0523 -0.866
-0.100 -0.0500 0.00101
-0.0741 -0.0237  0.127
 0.426 0.00345 0.0939
0.0597 -0.0501 -0.524
-0.0518 -0.00178  0.672
0.0446 -0.0117  0.692
-0.175 0.0551  0.835
-0.0441 0.0761 -0.550
0.0300 0.0852 -0.429
-0.00948 0.0892 -0.641
 0.210 -0.0323 -0.101
 0.149 -0.145 -0.0221
0.0173 -0.0104  0.791
-0.188 -0.0328 -0.184
 0.226 0.00126 -0.0425
0.0397 0.0481 -0.875
 0.207 -0.0657 -0.187
0.0200 -0.0765 -0.320
0.0119 -0.0598 -0.852
0.0625 0.0607  0.320
-0.0768 0.0250 -0.374
0.0342 0.00290 -0.950
-0.147 -0.0606 -0.0630
-0.375 -0.00666 0.00382
 0.489 0.0207  0.132
0.0536 -0.00675  0.663
-0.205 -0.0452 -0.219
0.0408 -0.0668 -0.716
-0.0196 0.0880  0.193
-0.284 -0.0167 -0.124
0.0762 0.0336  0.271
-0.0631 -0.0285  0.546
-0.0837 -0.0542 -0.0350
-0.474 0.00780 0.0220
 0.229 -0.0285 -0.0802
-0.629 0.0381  0.109
-0.283 -0.0280 -0.235
-0.586 0.0239 0.0865
-0.0602 0.0607 -0.411
0.0646 0.0578 -0.586
-0.127 -0.0420 0.0217
0.0760 -0.0234 -0.352
0.0555 -0.0551 -0.368
-0.258 -0.0227 -0.0390
0.0390 0.00213  0.743
-0.0469 0.0737  0.412
-0.00948 0.0892 0.0326
0.0561 -0.0427 -0.839
-0.139 -0.124 -0.0635
 0.466 0.00737 0.0912
-0.0632 0.0292 -0.831
-0.0469 0.0736 -0.262
0.0530 -0.0576 -0.443
 0.407 -0.00244 0.0217
 0.172 -0.0400 -0.0906
-0.115 -0.0323 -0.257
-0.0517 0.0229 -0.883
 0.541 0.0312  0.118
-0.0643 0.0546  0.252
0.0601 -0.0532  0.163
 0.208 -0.0364 -0.267
-0.0737 -0.0234 -0.557
-0.656 0.0327  0.145
-0.0157 0.0159  0.859
 0.549 0.0196  0.142
-0.245 -0.0442 -0.0860
0.0648 -0.0284  0.551
-0.0703 0.0445  0.418
 0.114 -0.00880 -0.101
0.0666 0.0546 -0.413
0.0545 0.0216  0.744
 0.641 0.0304  0.129
-0.0500 0.0664  0.567
-0.246 -0.000927 0.00944
 0.209 -0.113 -0.269
0.0407 0.0799 -0.504
0.0753 0.0375 -0.265
0.0726 -0.0673 0.0645
-0.0648 -0.0608 -0.275
-0.0576 0.0354  0.854
-0.0672 -0.0746 -0.0654
-0.118 -0.145 -0.00436
-0.0549 0.0657  0.134
 0.316 -0.0103 0.0592
-0.0504 -0.0574 -0.753
-0.210 -0.0286 -0.168
0.00295 0.0955  0.612
-0.271 -0.0601 -0.290
-0.0642 0.0546  0.450
-0.523 0.0304  0.107
 0.156 0.0523  0.835
-0.0635 0.0542  0.492
-0.208 0.0597  0.904
 0.236 -0.00709 -0.166
-0.100 -0.0381 -0.0262
-0.140 -0.0115 -0.199
-0.111 -0.0433 0.0423
0.00665  0.240  0.808
 0.729 0.0450  0.171
-0.0782 -0.000877 0.0914
 0.269 -0.0165 0.0437
0.0111 -0.0771 -0.433
0.0806 0.0150  0.386
-0.0361 -0.0389 -0.916
-0.306 0.00962 -0.0229
-0.0553 -0.0824 -0.142
 0.183 -0.00231 -0.0584
-0.274 -0.101 -0.184
0.0172 -0.0836 -0.128
0.0279 -0.0836 -0.165
-0.306 -0.0658 -0.256
0.0555 -0.0159  0.631
-0.0202 -0.0836 -0.181
-0.0416 0.0412  0.813
-0.00417 0.0896 -0.443
-0.0490 0.0704  0.514
 0.124 -0.104 -0.0127
0.0809 0.00440 -0.0102
-0.0403 0.0509 -0.859
-0.0786 0.00439 -0.443
0.0806 0.0150 -0.122
0.0372 0.0817 -0.181
0.00113 -0.0783 -0.582
0.0793 -0.00606  0.423
-0.309 -0.0162 -0.0529
-0.154 -0.0898 -0.0318
-0.319 0.00518 -0.0987
-0.561 0.0202  0.123
-0.792 0.0522  0.255
-0.0622 0.0580 -0.176
-0.0533 -0.0555  0.264
-0.177 -0.0386 -0.124
0.00520  0.110  0.654
 0.665 0.0445  0.187
0.0781 -0.0161 -0.641
0.0660 0.0543 -0.712
 0.220 0.0534  0.915
0.0803 -0.0117 0.0326
0.0614 0.0403 -0.823
 0.215 0.00281 -0.106
-0.0196 0.0880 -0.256
-0.0398 -0.0402  0.605
-0.275 0.00447 0.00773
-0.217 -0.0182 0.0653
0.0235 -0.0712 -0.824
0.0118 0.0892 -0.502
-0.352 0.00789 0.0644
0.0806 0.0150 -0.652
 0.161 -0.0187 -0.218
-0.260 -0.128 -0.267
-0.0768 -0.0116 -0.251
-0.181 -0.00827 -0.181
-0.0351 -0.0686 -0.700
0.00552  0.256  0.877
0.0799 0.0200 -0.598
0.0768 0.00444 -0.789
-0.00880 -0.0771 -0.737
 0.364 -0.0102 0.0274
-0.426 0.00158 0.0592
-0.204 -0.0961 -0.203
-0.0476 -0.0600 -0.563
-0.332 -0.0120 -0.00153
0.0220 -0.0608 -0.881
-0.00380 -0.0780 -0.497
0.0111 -0.0770  0.444
-0.125 0.0485  0.905
-0.0281 -0.0714  0.238
0.0492 0.0266  0.808
 0.196 -0.0283 0.0296
-0.239 -0.0290 -0.0691
 0.819 0.0591  0.296
0.00509  0.298  0.888
-0.246 0.0634  0.898
-0.0472 -0.0597  0.453
 0.443 0.00334 -0.00487
 0.117 -0.142 -0.0429
0.0344 -0.0399 -0.923
-0.270 -0.0290 -0.198
0.0111 -0.0771 -0.657
0.0264 0.0867 -0.0102
0.0804 -0.00627 -0.0316
-0.00880 -0.0771  0.268
 0.143 0.0464  0.895
0.0224 0.0722  0.707
0.0755 0.0373 -0.0462
0.0791 0.0251 -0.481
0.0782 -0.0162 -0.609
-0.168 0.0525  0.921
-0.207 -0.0342 -0.0369
-0.0558 -0.0532 -0.456
-0.0768 0.0251  0.353
-0.0566 -0.0797 -0.214
-0.507 0.0292 0.0859
 0.283 -0.00818 -0.143
-0.554 0.0268 0.0505
-0.734 0.0525  0.217
-0.229 -0.0250 -0.184
0.0531 -0.0455  0.541
 0.376 0.0143 0.0431
-0.0768 -0.0277 0.0699
-0.157 -0.00710 -0.0398
 0.252 -0.0271 -0.0693
0.0337 -0.0820 0.0954
0.0136 0.0862  0.639
 0.132 -0.0481 -0.0575
-0.00408  0.256  0.856
 0.311 0.00698 -0.0950
0.0439 0.0780 -0.671
0.0693 -0.00622 -0.833
 0.482 0.0126 -0.00307
0.0599 0.0335  0.845
0.0682 0.0418  0.757
-0.203 -0.108 -0.288
 0.150 -0.0555 -0.0276
-0.160 -0.0141 0.0107
-0.443 0.0174  0.107
-0.294 -0.0551 -0.198
-0.299 -0.0522 -0.225
0.0959 -0.0414 0.0626
-0.0246 -0.0450  0.626
0.0584 -0.0115 -0.881
0.0626 0.0607 -0.125
 0.349 -0.0190 0.0683
 0.291 -0.109 -0.304
-0.0113 0.0164 -0.952
-0.165 0.0552  0.893
-0.0196 0.0878 -0.0530
-0.0874 -0.0325 0.0349
 0.103 -0.0142 -0.0478
 0.109 -0.0487 -0.251
-0.345 -0.00442 0.0976
 0.365 0.0153 -0.0350
0.0264 0.0867 -0.604
-0.269 -0.0220 -0.304
0.0265 0.0867  0.348
 0.104 -0.0422 -0.0578
-0.0384 0.0799 -0.299
-0.0244 -0.0729  0.369
-0.197 -0.00104 -0.134
 0.273 -0.123 -0.235
0.0685 0.0512  0.182
-0.00417 0.0896 -0.550
-0.0349 0.0817 -0.0102
0.0392 0.0426  0.772
-0.422 0.0181 0.0802
 0.183 0.0446  0.872
 0.162 -0.0377 -0.00986
-0.0745 -0.0654 -0.194
-0.00703  0.122  0.696
0.0809 -0.0641 -0.170
 0.300 -0.0140 0.0323
-0.0197 -0.0864 -0.836
-0.0719 0.0409  0.380
 0.611 0.0385  0.160
 0.682 0.0363  0.151
0.0805 -0.000858 0.0593
-0.494 -0.00212 0.0924
 0.381 -0.00570 -0.0370
0.0374 -0.0686  0.289
0.0374 -0.0686 -0.358
-0.0738 -0.0662 0.0390
 0.274 0.00318 -0.117
 0.243 -0.0442 -0.125
 0.293 -0.0760 -0.184
0.00647 0.0896 -0.352
-0.00479 0.0926  0.804
 0.285 -0.0180 0.000258
-0.129 -0.0492 -0.103
0.0702 -0.0339 -0.662
 0.219 -0.0269 -0.246
-0.0312 0.0831  0.172
 0.536 0.0328 0.0807
0.0557 0.0350  0.678
-0.000176 0.0903  0.844
0.00630 -0.0641  0.562
-0.555 0.0344 0.0862
-0.592 0.0241  0.129
-0.138 -0.0170 -0.221
-0.383 -0.00331 0.0591
-0.337 -0.00936 0.0592
0.0463 0.0759  0.480
-0.234 -0.0222 0.0219
0.00116 0.0763 -0.817
 0.236 -0.0325 -0.319
0.0625 0.0607  0.368
 0.295 -0.0378 -0.238
-0.00948 0.0892 -0.326
-0.0467 0.0734 0.0967
-0.213 -0.0290 -0.249
-0.0627 -0.0440 -0.686
 0.159 -0.00586 -0.173
-0.324 0.00900 0.0280
-0.00398 0.0883  0.578
-0.0524 0.0685  0.369
 0.137 -0.116 0.00819
-0.142 -0.138 0.00148
-0.00660  0.175  0.786
0.0624 0.0609 -0.493
0.0660 -0.0320 -0.812
 0.599 0.0332 0.0823
0.0599 0.0633 -0.297
0.0556 -0.0555  0.428
0.0216 -0.0734 -0.796
-0.0220 0.0849 -0.750
-0.0533 -0.0555  0.371
-0.0469 0.0736 -0.101
-0.154 -0.00253 -0.107
 0.124 0.0490  0.819
-0.0669 -0.000808  0.583
-0.0441 0.0761 -0.347
 0.221 0.0605  0.894
-0.784 0.0548  0.216
 0.269 0.00154 0.0160
0.0800 0.0201  0.348
-0.0189 -0.0257  0.722
-0.118 -0.0937 -0.0217
-0.235 -0.0185 -0.283
-0.702 0.0404  0.158
 0.124 -0.00847 -0.176
 0.401 -0.000818 -0.0475
0.0369 0.0764 -0.770
-0.609 0.0349  0.182
-0.175 -0.00261 -0.144
0.0742 0.0409 -0.545
-0.138 -0.0372 0.0431
 0.586 0.0370  0.118
 0.443 0.00356 0.0647
-0.0281 -0.0714  0.344
-0.292 -0.108 -0.237
-0.271 -0.0756 -0.143
-0.255 -0.0186 -0.213
0.00373  0.277  0.904
0.0453 -0.0243  0.652
 0.151 -0.00903 -0.0214
0.0485 0.0729 -0.265
-0.221 -0.0448 0.0132
0.0440 -0.0647 -0.518
-0.0416 0.0780 -0.497
0.0321 -0.0555  0.567
-0.186 0.0436  0.851
 0.145 -0.0459 -0.149
-0.0351 -0.0686 -0.593
 0.632 0.0293  0.155
-0.0348 -0.0574  0.545
-0.482 0.0143  0.147
-0.0481 -0.0394  0.579
0.0805 -0.000877 -0.262
 0.178 -0.0132 0.0163
0.0172 -0.0836 -0.0102
-0.0363 -0.0836 -0.0583
-0.0202 -0.0836 -0.0423
-0.00584  0.186  0.765
0.0171 0.0887  0.455
-0.0743 0.0338 -0.315
0.0642 -0.0435 -0.550
 0.495 0.00599 0.0658
0.0439 -0.0836 -0.122
 0.228 -0.0957 -0.177
 0.407 0.0172 -0.0308
-0.0786 0.00967 0.0272
-0.191 -0.0308 0.00563
0.0792 -0.00605 -0.721
 0.192 -0.0340 -0.0422
 0.162 -0.00234 -0.133
-0.0755 0.0299 -0.684
 0.793 0.0547  0.275
-0.346 -0.00864 -0.0793
-0.0731 0.0375 -0.133
 0.269 0.00464 -0.0212
-0.0384 0.0649 -0.817
0.0111 -0.0771 -0.540
 0.229 -0.0270 -0.206
-0.139 -0.0433 -0.210
 0.311 -0.0142 -0.101
-0.186 -0.0361 -0.0745
 0.236 -0.0255 -0.0263
-0.531 0.0198  0.160
 0.333 -0.0108 0.0325
-0.197 0.00104 -0.0958
-0.00784  0.133  0.760
 0.202 -0.0908 -0.313
0.00284 -0.0444 -0.954
-0.00377 -0.0780 -0.561
0.0415 -0.0691 -0.314
-0.299 0.00662 0.0109
 0.429 0.0216 0.0483
0.0770 -0.0662 -0.106
0.0624 0.0607  0.453
-0.394 -0.00304 -0.0366
0.00607 -0.0780  0.166
-0.00948 0.0892  0.225
-0.343 -0.0126 0.0354
0.0113 -0.0731  0.492
 0.237 0.0588  0.941
-0.0312 0.0831  0.386
0.0622 -0.0468 -0.497
-0.0551 0.0410  0.652
 0.209 -0.109 -0.301
0.0625 0.0607 -0.215
0.0520 0.0711 -0.573
 0.277 -0.112 -0.188
-0.0507 -0.0576  0.182
-0.0551 0.0659 -0.695
-0.336 0.0139 -0.0210
0.0809 0.00966  0.156
 0.252 -0.127 -0.309
-0.133 0.0504  0.808
 0.108 -0.0381 -0.0369
0.0922 -0.0134 -0.202
-0.0743 0.0338 -0.160
-0.0684 0.0261  0.792
 0.188 0.0567  0.845
0.0499 -0.0600 -0.475
 0.635 0.0340  0.204
 0.247 0.00223 -0.0210
-0.432 0.0231 0.0166
-0.0201 -0.0745 -0.332
0.0150 -0.0764 -0.711
-0.0578 0.0635 -0.315
-0.0416 0.0780 -0.673
0.0177 -0.00748 -0.979
-0.0354 -0.0637  0.498
-0.0602 0.0607 -0.229
0.0557 -0.0554  0.343
-0.0777 0.0149 -0.727
-0.122 -0.00830 -0.176
 0.115 -0.0545 -0.133
-0.0777 0.0201  0.225
 0.144 -0.145 0.0203
-0.0777 0.0201  0.418
-0.0662 0.0353 -0.801
0.0800 0.0201 -0.695
-0.0951 -0.0126 -0.197
-0.0740 -0.0458  0.112
 0.279 -0.0114 0.0724
-0.121 -0.116 -0.0487
0.0796 -0.00612 -0.540
 0.236 -0.0916 -0.144
-0.0891 -0.0575 -0.0638
-0.211 -0.0815 -0.183
 0.108 0.0361  0.847
-0.00324  0.202  0.861
-0.0441 0.0761 -0.422
 0.137 -0.00619 -0.0906
-0.0578 0.0635 -0.513
0.0539 0.0676 -0.736
-0.101 0.0460  0.776
-0.342 -0.0115 -0.0320
0.0352 0.0796  0.576
 0.288 -0.0348 -0.218
0.0784 -0.0587 0.0431
-0.470 0.00952  0.112
-0.0786 0.00439 -0.684
0.0741 -0.0269 -0.475
-0.0703 -0.0311  0.430
 0.306 -0.0150 0.0111
-0.123 -0.00585 -0.113
0.0115 0.0101  0.879
-0.224 -0.0280 -0.00668
-0.0777 0.0201 -0.0904
 0.119 -0.0273 0.0367
 0.466 0.00648 0.0699
-0.228 -0.0856 -0.150
-0.641 0.0312  0.171
-0.261 0.00638 -0.0849
-0.687 0.0467  0.200
-0.0627 -0.0440  0.346
 0.274 -0.0216 -0.0583
-0.0202 -0.0793  0.118
 0.258 -0.129 -0.272
 0.370 0.0128 -0.0577
-0.0148 0.0887 -0.0102
 0.224 -0.0386 0.00600
 0.279 -0.0233 -0.249
-0.143 -0.134 -0.0378
0.0677 0.0507  0.487
 0.836 0.0617  0.283
-0.0768 0.0251  0.134
-0.0517 -0.0539 -0.798
0.0742 0.0409 0.0753
-0.0119 -0.0551 -0.916
0.0347 -0.0444  0.609
-0.486 0.0268 0.0858
-0.0577 0.0414  0.749
 0.611 0.0261  0.129
 0.509 0.0298 0.0753
-0.101 -0.00848 -0.165
-0.147 -0.0290 0.0601
 0.204 -0.0533 -0.212
0.0706 0.0266  0.797
 0.247 -0.0171 -0.288
 0.573 0.0357 0.0968
 0.216 -0.0274 -0.170
0.0492 -0.0756 -0.264
-0.0774 -0.00615 -0.304
-0.0781 -0.00619 -0.208
0.0495 -0.0548 -0.823
 0.215 0.0483  0.877
0.0669 -0.0771 -0.0369
-0.274 -0.0216 -0.256
 0.171 0.0486  0.806
-0.0494 0.0709 0.00584
0.0809 0.00967 -0.176
-0.116 -0.0381 -0.0476
-0.0651 -0.0471 -0.314
-0.000315 -0.0796 -0.853
-0.405 0.00177 0.0965
 0.140 -0.0948 -0.0240
 0.493 0.0273 0.0331
-0.207 -0.00133 -0.0307
0.0332 0.0412  0.819
-0.256 -0.109 -0.294
0.0220 -0.0745  0.391
 0.254 -0.0654 -0.300
-0.0876 -0.0175 -0.0297
 0.210 -0.0229 0.0639
 0.239 -0.00981 -0.213
-0.0524 0.0685 -0.379
0.0462 0.0558  0.679
-0.0318 -0.0700 -0.360
 0.528 0.0146 0.0864
-0.240 -0.104 -0.178
0.0444 -0.0112 -0.929
0.0381 -0.0765  0.134
-0.0546 -0.0473  0.509
-0.145 -0.00642 -0.0710
-0.00417 0.0893  0.412
-0.0242 0.0867 0.0700
-0.353 -0.0104 -0.00612
-0.0721 -0.0271  0.252
-0.00357 -0.0164  0.785
-0.120 -0.0746 -0.0299
 0.274 -0.0718 -0.146
-0.181 0.0462  0.883
0.0869 0.0442  0.771
-0.235 -0.0125 -0.213
 0.193 -0.0312 0.000312
-0.00518 -0.0605 -0.840
0.0720 -0.0304  0.460
-0.0417 -0.0647 -0.654
0.000328  0.171  0.879
0.0374 -0.0686 -0.572
-0.130 -0.0170 -0.00267
 0.364 0.00156 -0.0870
 0.118 -0.141 0.0154
 0.338 0.00794 -0.0846
 0.266 0.0576  0.923
-0.0384 -0.0761  0.133
-0.0768 0.0251 -0.497
-0.261 -0.0208 -0.133
 0.423 0.00141 0.0699
 0.182 -0.0171 0.0402
-0.268 -0.119 -0.199
-0.0737 -0.0234  0.287
 0.557 0.0336 0.0757
-0.111 -0.0481 -0.0648
0.0404 0.0793 -0.0334
 0.106 -0.0554 -0.0959
-0.0804 -0.0264 0.0165
 0.703 0.0433  0.153
 0.398 0.0160 0.0640
0.0117 0.0890 -0.0851
-0.132 0.0376  0.845
-0.0703 0.0445 0.0486
 0.231 -0.0384 -0.185
0.0772 -0.0198  0.359
 0.235 -0.0305 -0.142
-0.410 0.0158 -0.0345
 0.273 -0.0192 -0.127
-0.250 -0.00748 0.0488
-0.140 -0.120 0.0363
0.0483 -0.0563  0.498
-0.00795 -0.147 -0.832
0.0753 0.0375  0.147
-0.0669 -0.0380 -0.663
-0.491 0.0101 0.0374
0.0495 0.0589  0.640
-0.558 0.0197 0.0723
-0.00762  0.111  0.770
 0.158 -0.103 -0.000670
-0.217 -0.114 -0.209
0.0304 -0.0714 -0.550
-0.305 -0.0847 -0.244
-0.0163 -0.0756  0.207
0.0616 -0.0721 0.0961
-0.0599 -0.0464 -0.768
0.0398 -0.0820 -0.244
-0.0719 0.0409 -0.652
 0.456 0.0233 0.0752
-0.0319 -0.00960 -0.954
 0.294 -0.0179 -0.0263
-0.0441 0.0241 -0.902
 0.153 -0.129 -0.0474
0.0673 -0.0410 -0.427
-0.000696 0.0144  0.921
-0.256 -0.0438 -0.292
0.0232 0.0202 -0.942
 0.462 0.0145  0.134
0.0437 0.0778 -0.623
-0.533 0.0167  0.118
-0.173 -0.0388 -0.152
-0.137 -0.0976 -0.0154
0.0372 0.0817 -0.374
0.00620 -0.0686  0.535
0.0504 -0.0353 -0.887
0.0468 0.0657 -0.790
0.0757 -0.0233  0.145
0.0644 -0.0746 -0.223
0.0800 0.0201 -0.256
 0.573 0.0231  0.155
-0.495 -0.00428  0.144
0.0435 0.0266 -0.906
0.0150 -0.0764  0.198
-0.249 -0.0769 -0.104
-0.194 -0.0250 -0.204
-0.264 -0.00123 0.0240
0.0213 -0.0867 -0.836
0.0313 -0.000798  0.770
0.0748 0.0373  0.403
-0.304 -0.0164 -0.0743
-0.283 -0.0759 -0.294
-0.0294 0.0768 -0.785
-0.0183 0.0453 -0.912
-0.576 0.0244  0.166
-0.0669 -0.0379 -0.545
-0.0240 0.0866 -0.593
-0.148 -0.147 0.0234
-0.206 -0.0415 -0.311
0.0641 0.0577  0.414
 0.246 0.0558  0.868
0.0708 0.0479 -0.372
-0.266 -0.0209 -0.0210
-0.529 0.0152 0.0696
0.0547 0.0685 -0.404
0.0547 0.0685 0.0290
0.0515 0.0706 -0.0708
-0.00795 -0.0773 -0.406
-0.0750 -0.0199 -0.479
0.00298  0.325  0.925
-0.0580 -0.0505 -0.511
0.0571 0.0656  0.170
0.0822 -0.0409 -0.00770
-0.00895  0.101  0.690
-0.0662 0.0202  0.599
0.0182 -0.0227  0.740
-0.0743 0.0338 -0.256
-0.374 0.0110 0.0691
-0.299 -0.0994 -0.281
0.0719 -0.0353 -0.325
0.0705 -0.0341 -0.400
-0.0628 -0.0440 -0.381
 0.125 -0.146 -0.0607
-0.0703 0.0445  0.198
 0.316 0.00522 0.0429
-0.120 -0.146 -0.0608
 0.115 -0.125 -0.00126
-0.0253 -0.0583 -0.882
0.0763 -0.0267  0.119
 0.197 -0.0659 -0.230
0.00535 0.0592  0.855
0.0778 0.0299 -0.00486
0.0576 -0.0824 -0.138
-0.00380 -0.0780 -0.673
0.00596  0.159  0.840
-0.0719 0.0409  0.268
-0.0750 -0.0199  0.393
0.0344 0.0579 -0.858
0.0815 0.0457  0.819
-0.464 0.00593 0.0539
-0.0954 -0.00911 -0.144
 0.302 -0.0731 -0.315
0.0574 -0.0587 -0.309
0.0435 0.0775 -0.0138
 0.134 -0.0382 -0.246
-0.129 -0.0435 -0.00146
-0.0202 -0.0749  0.166
0.0710 -0.0347  0.209
-0.297 -0.0912 -0.208
-0.195 -0.0560 -0.272
-0.288 -0.108 -0.218
0.0420 0.0609 -0.828
-0.0719 0.0409 -0.540
-0.587 0.0378  0.113
-0.0719 0.0409 -0.00485
-0.0494 0.0709 -0.0476
-0.194 -0.0335 -0.0521
 0.445 0.0162 -0.0235
-0.0744 -0.0194 -0.746
0.0232 -0.0536 -0.908
-0.0196 0.0880 -0.459
0.0707 -0.0346  0.322
0.0743 0.0306 -0.769
0.0368 0.0810 -0.705
 0.360 0.0146 0.0111
-0.0759 0.0201  0.498
 0.419 0.0217 0.0219
-0.0281 -0.0714 -0.666
-0.0441 0.0761 -0.620
-0.0514 0.0352  0.707
-0.0441 0.0761  0.284
-0.0277 0.0852 -0.352
0.0766 0.0335  0.362
-0.0721 -0.0271  0.316
-0.0767 -0.0114  0.172
0.0633 -0.0213  0.578
0.0299 0.0850  0.469
-0.0417 -0.0647 -0.520
0.0215 -0.0320  0.695
 0.505 0.0258  0.120
-0.432 0.0213 -0.00418
-0.185 0.0478  0.820
 0.263 0.0623  0.954
 0.247 -0.127 -0.230
-0.0417 -0.0647 -0.627
-0.0738 -0.0612 0.0683
-0.0625 -0.0232  0.565
-0.0677 -0.0334  0.469
-0.00720  0.154  0.760
-0.101 -0.0405 0.0632
-0.0417 -0.0647  0.277
0.0262 0.0861 -0.138
-0.0259 -0.0340 -0.948
 0.167 -0.0391 -0.187
-0.0416 0.0219  0.776
0.0171 0.0887 -0.112
-0.00856 0.0646  0.807
-0.0759 -0.0162 -0.662
0.0423 0.0473  0.724
0.0143 0.0599  0.822
0.0562 0.0648  0.539
