ply
format ascii 1.0
element vertex 2048
property float x
property float y
property float z
end_header
-0.301 -0.211  0.274
0.0619  0.247 -0.967
 0.483  0.257 -0.0863
 0.170  0.269  0.886
-0.421  0.313 -0.321
0.0666 -0.297 -0.418
 0.372 -0.209  0.405
-0.342  0.312  0.571
-0.0329 -0.203  0.751
-0.425 -0.207 -0.257
 0.376  0.132 -0.577
 0.333  0.310  0.397
-0.286 -0.00878 -0.705
 0.430 -0.224 -0.0861
-0.473  0.202  0.132
0.0210 -0.300 0.0210
 0.105 -0.134 -0.795
0.00942  0.464  0.527
-0.191  0.155  0.877
-0.327 -0.0496  0.607
0.0312 -0.302  0.407
 0.174 0.0407  0.602
 0.397 -0.178 -0.424
 0.456 0.0669  0.192
-0.279  0.321 -0.643
-0.236 -0.278 -0.523
-0.467 -0.105 0.0317
-0.308 0.0342 -0.400
 0.344 0.0561 -0.258
 0.206  0.317 -0.721
-0.311 0.0828  0.352
 0.385  0.322 -0.365
-0.365  0.113 -0.126
-0.150 -0.284 -0.204
-0.200  0.184 -0.887
 0.277 -0.233  0.145
-0.225 -0.284  0.524
 0.400 0.0566  0.459
0.0626 0.0132  0.875
 0.334  0.244  0.679
 0.226 -0.219  0.622
-0.124  0.324  0.700
 0.198 -0.268 -0.204
 0.232 -0.245 -0.607
0.0595  0.108 -0.739
-0.0209 -0.301 -0.654
-0.0820 0.0335  0.674
-0.241 -0.255 0.0246
 0.439  0.312  0.164
-0.377  0.320  0.321
 0.468 0.0131 -0.0540
-0.101 -0.0334 -0.849
-0.408  0.321 -0.0540
 0.280 -0.0225 -0.708
-0.0862 -0.296  0.214
 0.149  0.354  0.649
-0.377  0.135 -0.573
-0.317  0.153  0.705
-0.0462  0.313  0.893
-0.453 0.00257  0.223
 0.257 -0.0402 -0.503
-0.108 -0.113 -0.659
 0.237 0.0867  0.795
-0.386 -0.152 -0.464
-0.0463  0.277 -0.788
 0.451 -0.137  0.202
 0.321  0.322 -0.558
-0.168  0.148 -0.672
 0.232  0.139 -0.826
-0.413 -0.0826  0.394
0.0316  0.184  0.721
-0.239  0.152  0.529
 0.327 -0.0298  0.301
-0.447 0.0132 -0.268
 0.367  0.163 0.0317
 0.106 -0.293  0.203
 0.330 -0.0688  0.580
 0.245  0.199  0.521
 0.184 -0.0889  0.761
-0.199 -0.124  0.723
-0.366 0.0668 0.0532
 0.347 -0.137 -0.226
0.0302 -0.299  0.590
-0.363 -0.0727 -0.130
 0.209 -0.265 -0.0219
-0.419  0.197  0.449
-0.297  0.285 -0.466
 0.415 0.00276 -0.420
 0.199 -0.255  0.354
 0.340  0.239 -0.194
-0.258 -0.226 -0.352
 0.367 -0.115 0.0424
 0.202  0.119 -0.631
-0.414 -0.240 -0.0736
0.0421  0.178  0.968
0.0551 0.0405 -0.903
 0.232 -0.239 -0.375
 0.442  0.174  0.331
0.0313 -0.302 -0.161
-0.110 0.000417  0.843
-0.452 -0.185  0.184
-0.106 -0.289 -0.404
 0.313  0.152 -0.398
-0.239 -0.0911 -0.525
-0.138 -0.277  0.378
 0.147 -0.101 -0.633
-0.431  0.156 -0.382
-0.303  0.200 -0.756
-0.262 -0.184 -0.658
 0.326 0.0787  0.651
-0.446  0.153  0.288
0.0511 -0.0877  0.666
-0.240 -0.126  0.493
-0.341  0.257 -0.194
 0.329  0.218 -0.708
 0.461  0.132 -0.181
-0.0504 -0.174 -0.795
 0.398  0.228  0.533
-0.116 -0.279  0.639
-0.149  0.173  0.652
0.0962  0.321 -0.837
-0.339 -0.229  0.438
-0.386 0.0620  0.520
-0.238 0.0206  0.754
 0.343 -0.283 -0.268
-0.289 -0.230 -0.174
 0.349  0.174  0.204
-0.340  0.248  0.193
-0.468  0.153 -0.0219
 0.275 -0.0264  0.445
 0.391  0.316 0.0210
-0.0687 0.0327 -0.715
-0.231 0.0554 -0.572
 0.458 -0.0404 -0.193
-0.272  0.283  0.763
-0.335 -0.0800 -0.299
 0.303  0.142  0.386
-0.364 -0.283  0.117
 0.340 -0.157 -0.558
 0.371 -0.282 0.0425
-0.195  0.313 -0.817
-0.468 0.0132 -0.0754
0.00116  0.382  0.649
 0.263 -0.271  0.491
-0.378 -0.00496 -0.531
-0.0791 0.0955 -0.923
 0.423  0.228 -0.471
-0.477  0.219 -0.160
 0.368 -0.258  0.256
-0.0781  0.280 -0.944
-0.346  0.120 -0.268
 0.441  0.153 -0.331
0.0654  0.313  0.799
-0.334 -0.0620  0.276
 0.167  0.210  0.638
 0.240  0.305  0.766
-0.190 0.0125  0.586
-0.352  0.238 0.0531
 0.166 -0.0115 -0.826
 0.102 -0.244 -0.709
 0.105 -0.278 -0.558
-0.0966 -0.295 -0.0540
-0.0217 -0.302 -0.290
-0.0679  0.107  0.925
 0.462  0.275 -0.260
-0.246  0.192 -0.565
 0.191 -0.0912  0.566
-0.291  0.273  0.449
-0.346 0.0881  0.214
 0.353 -0.0440  0.168
0.0927 -0.230  0.704
-0.204 0.0532 -0.825
-0.207 -0.265  0.156
-0.0890 -0.106  0.645
-0.386  0.271 -0.573
-0.135 -0.238 -0.605
0.0241 -0.0810 -0.699
-0.284 -0.177  0.617
 0.299 -0.225 -0.119
 0.316 -0.0621 -0.356
-0.265 0.00227  0.466
 0.482  0.224 0.0639
 0.469 -0.0404 0.0852
-0.377  0.184  0.584
 0.255  0.208 -0.542
-0.0326 -0.299 -0.515
-0.175  0.294  0.853
 0.264  0.314  0.591
 0.180  0.227 -0.910
 0.367 0.0239 0.0317
 0.393 -0.0831  0.438
-0.363 -0.0833  0.108
0.0628 -0.110  0.807
 0.145  0.134  0.900
 0.360  0.306  0.268
 0.354 -0.00741 -0.583
 0.439 0.0323  0.325
-0.218  0.271  0.602
0.0438 0.0562  0.695
-0.0979 -0.292 0.0853
 0.366 -0.105 -0.0862
-0.207 -0.0986 -0.753
-0.0734 -0.293  0.514
-0.429 -0.183  0.311
 0.138 -0.265  0.521
-0.302  0.156 -0.438
 0.438 -0.104 -0.310
 0.463 -0.193 0.0744
 0.129  0.217 -0.719
-0.364 -0.179 0.0247
-0.414 -0.0509 -0.396
 0.130 -0.286 -0.311
 0.286 -0.264 -0.485
 0.366 0.0989 -0.0754
-0.166  0.278 -0.701
 0.217 -0.172 -0.708
 0.468 0.0882 0.0639
 0.427 -0.133  0.323
 0.299  0.278 -0.441
-0.462 -0.144 -0.146
 0.141 -0.285 0.0854
-0.448  0.297  0.224
-0.0684  0.151 -0.747
-0.314  0.217  0.333
-0.436  0.317 0.0853
 0.351  0.221 -0.0724
0.0139 -0.0670 -0.850
 0.332 -0.181  0.539
-0.0891 -0.107  0.794
 0.266 0.0928 -0.514
-0.00153  0.438  0.412
-0.416  0.292 -0.438
 0.249 0.0736  0.503
-0.154 -0.202 -0.730
-0.467 -0.00829  0.107
-0.352  0.219 -0.0755
 0.314 0.0892 -0.694
-0.367 -0.0619 -0.0111
-0.297 -0.137  0.378
 0.249  0.269 -0.818
-0.324 -0.0788 -0.605
 0.247  0.202  0.827
 0.446 -0.194 -0.203
 0.298 -0.123  0.380
-0.365 -0.109  0.514
-0.450  0.174 -0.268
-0.155 -0.00643 -0.647
-0.203 -0.267 -0.0933
-0.324  0.250 -0.320
0.0102 -0.301  0.278
-0.434 0.0564  0.352
0.0100 -0.303  0.139
 0.363 0.00237 -0.144
-0.323  0.115 -0.679
 0.148 0.0223 -0.664
 0.256 -0.120  0.674
 0.335 0.0881  0.279
-0.0756  0.215  0.961
 0.359 0.0882  0.129
 0.138  0.118 -0.900
 0.343 -0.149  0.234
 0.442 0.0348 -0.310
-0.0301  0.277  0.752
-0.353 0.0230 -0.206
 0.163 -0.261 -0.462
-0.299 -0.107 -0.401
 0.227 -0.158 -0.537
 0.459  0.187  0.203
 0.380  0.238 -0.609
-0.203 -0.262  0.267
-0.0413 -0.198 -0.687
-0.368 -0.236 -0.360
 0.467  0.142 -0.0647
 0.116 -0.292 -0.0754
 0.468 -0.0940 -0.0111
 0.417  0.121 -0.434
 0.321  0.239 -0.330
 0.247 -0.140  0.481
-0.330  0.267  0.671
 0.417  0.321 -0.172
 0.258 0.00100  0.731
 0.434  0.270  0.385
-0.226 -0.231  0.424
-0.153  0.414  0.645
 0.262 -0.236  0.267
-0.173 -0.126  0.580
0.0719  0.286  0.927
 0.315 -0.193 -0.323
-0.461 0.0764 -0.163
-0.433  0.315 -0.214
 0.237  0.294 -0.619
-0.307 -0.221 -0.0682
 0.309 0.0450 -0.392
 0.322  0.214  0.308
 0.348  0.238  0.118
-0.462 0.0935  0.168
-0.350 -0.148 -0.205
-0.309 -0.209 -0.558
 0.332  0.321  0.503
 0.467 -0.115 -0.118
-0.395  0.301  0.448
 0.376  0.129  0.571
0.0103  0.155 -0.960
 0.418  0.171  0.434
-0.459 -0.0297 -0.172
 0.129 -0.173  0.623
-0.313 -0.255 -0.454
 0.398 -0.246  0.138
-0.301 -0.0298  0.372
 0.106  0.258  0.709
-0.310 -0.283  0.353
 0.289 -0.136 -0.426
-0.346 -0.137  0.204
-0.424 -0.147 -0.352
 0.302 -0.282  0.377
-0.309 0.0467  0.681
 0.128  0.116  0.664
 0.151 -0.00271  0.825
 0.455  0.268  0.278
 0.107 -0.290  0.310
-0.367 -0.281 0.0103
-0.342 -0.267 -0.261
-0.426 0.0536 -0.377
-0.248  0.128  0.797
-0.347  0.238 -0.672
 0.445 -0.0510  0.256
-0.0112  0.321 -0.879
 0.215 0.0288 -0.587
-0.288  0.141  0.431
-0.442 -0.0839  0.274
 0.301  0.174  0.747
 0.345 -0.202 -0.0325
-0.174 -0.272 -0.301
-0.196 -0.254 -0.434
-0.484  0.255 -0.0541
-0.366 -0.266  0.216
 0.345  0.163 -0.269
 0.365 -0.278 -0.171
-0.297 -0.221  0.157
-0.0220 -0.271  0.680
-0.270 0.0941 -0.764
-0.269 -0.00330 -0.491
-0.449 -0.105 -0.236
-0.367 0.0453 -0.0433
-0.205 -0.243  0.614
 0.420 -0.201 -0.315
 0.385 -0.0503 -0.498
-0.348 -0.00829  0.193
-0.0455  0.119  0.706
 0.212 -0.0810 -0.748
 0.136 -0.280  0.618
 0.324 -0.268 -0.385
-0.404  0.153 -0.482
0.0406 0.0116 -0.721
-0.452 -0.202 0.0599
 0.366 0.0343  0.554
 0.357  0.120 -0.183
-0.265 -0.0602  0.692
 0.286 -0.130 -0.657
-0.468 0.0346 0.0210
 0.394 0.0570 -0.502
-0.377 -0.266 -0.166
-0.190 -0.162 -0.587
 0.198 -0.269  0.203
0.0314 0.0953  0.922
-0.125 -0.279 -0.502
-0.0973  0.320  0.804
-0.394 -0.0186  0.470
 0.353  0.303 -0.268
-0.138 -0.196  0.723
 0.190 -0.187  0.703
-0.162  0.278 -0.898
 0.207  0.126  0.582
 0.285 -0.233 0.0317
-0.463 -0.105  0.138
-0.126 -0.112 -0.798
 0.387  0.313 -0.458
 0.193  0.213 -0.651
 0.281 -0.228 -0.215
0.0620 -0.346  0.483
-0.0821  0.215  0.706
-0.482  0.249 0.0426
-0.254 -0.184 -0.487
-0.307 -0.214  0.523
 0.136 -0.280  0.417
-0.262  0.289 -0.559
-0.165 -0.0542  0.791
-0.175 0.0687  0.850
 0.320  0.301 -0.670
 0.227 0.0472 -0.790
-0.265  0.304 -0.758
-0.0755 -0.296  0.310
-0.000626 -0.300 -0.0754
0.0625 -0.299 -0.247
0.0988 -0.0106  0.657
 0.451  0.258 -0.365
-0.461  0.303 -0.129
-0.272  0.102 -0.504
 0.310 0.0380  0.359
 0.343 -0.0512 -0.255
-0.0329 0.0316  0.889
-0.357 0.0989  0.605
 0.229 -0.0193  0.527
0.0282 -0.208 -0.769
 0.391  0.316 -0.0862
-0.364  0.163  0.101
 0.140  0.125 -0.696
 0.280  0.257  0.462
-0.251 -0.244 -0.264
-0.328 -0.180 -0.303
-0.187  0.108  0.604
0.0522  0.216 -0.763
0.0628 -0.158 -0.679
-0.248  0.242  0.520
-0.367 -0.158 -0.0863
-0.0305 -0.169  0.665
 0.457 -0.0189  0.171
 0.287  0.196 -0.783
-0.468 -0.126 -0.0540
-0.327 0.0140 -0.630
 0.456 0.0454 -0.214
-0.390  0.318  0.161
 0.161  0.330  0.736
 0.219 -0.256 -0.289
-0.0771 -0.296 -0.140
 0.119 -0.156  0.757
-0.257  0.321  0.685
 0.354 -0.192 0.0859
-0.333 0.0246  0.286
 0.314 -0.00672  0.639
-0.467  0.120 0.0853
 0.480  0.223 -0.166
-0.0561 -0.296  0.428
-0.0329 -0.0439  0.847
 0.153 -0.211 -0.611
-0.456  0.238  0.299
-0.103 -0.258 -0.690
 0.246  0.321  0.675
-0.184 -0.0326 -0.804
 0.367 -0.282 -0.0719
-0.456  0.228 -0.343
-0.0216 -0.302 -0.418
-0.240  0.237  0.829
-0.154 -0.262  0.461
-0.0639  0.196 -0.973
 0.201 -0.196  0.543
 0.208 -0.267 -0.107
-0.190 -0.0665 -0.598
-0.0111 -0.0310  0.681
-0.104  0.233 -0.739
-0.330  0.152 -0.346
 0.333 0.0987 -0.330
-0.149 -0.243  0.551
-0.251  0.221 -0.830
-0.357  0.163 -0.194
 0.362 -0.169 -0.141
 0.357 -0.126  0.140
 0.405  0.283  0.464
-0.213 -0.0623  0.542
-0.396 0.0634 -0.485
-0.435  0.163  0.374
 0.125  0.206  0.938
-0.0964  0.320 -0.867
 0.467 0.0668 -0.129
-0.0289 -0.00213 -0.881
-0.146 -0.0517  0.617
-0.364  0.295 -0.124
 0.446  0.110  0.278
 0.432 -0.194  0.267
 0.279 -0.203  0.365
 0.106 -0.294 0.0103
-0.374 -0.0868 -0.516
-0.264 -0.104 -0.693
0.0202 -0.301 -0.579
-0.397 -0.163  0.408
 0.115  0.287 -0.917
-0.339 0.00227 -0.291
-0.365 0.00951 -0.123
-0.170 -0.277 -0.0183
-0.140 0.0654 -0.876
-0.371 -0.241  0.307
 0.396  0.274 -0.537
-0.358 0.0561  0.140
-0.00786  0.261  0.952
-0.236 0.0555  0.521
-0.397  0.142  0.506
-0.435  0.269  0.384
-0.177 -0.274 0.0711
-0.0220 -0.348  0.482
-0.172  0.322  0.771
-0.366  0.142 0.0211
 0.455  0.308 0.0711
 0.333  0.163  0.672
0.0556 -0.169  0.659
-0.343  0.321 -0.525
-0.440 -0.0536 -0.314
 0.126 -0.290 -0.172
 0.294 0.0899  0.725
-0.357 -0.182  0.120
-0.444 0.0991 -0.300
 0.352  0.246 0.0319
 0.208 -0.0517 -0.582
-0.212 -0.262 -0.598
 0.452 -0.203 -0.0110
0.0926 -0.0384 -0.846
-0.134  0.210 -0.936
-0.415 0.0777  0.427
-0.298 -0.228 0.0746
 0.344  0.303  0.592
 0.366 0.0132 -0.0647
 0.428 -0.0542  0.337
 0.107 -0.0476 -0.678
 0.144 -0.190 -0.750
-0.270 -0.214  0.347
-0.139  0.241  0.920
 0.418 -0.109 -0.389
 0.177 0.0694  0.847
0.0474 -0.297 -0.504
 0.328 -0.225  0.469
-0.242 0.0140 -0.768
 0.352  0.285  0.182
 0.465  0.142  0.138
 0.461  0.303 -0.0156
0.0571 -0.286 -0.648
-0.361  0.306  0.243
-0.468  0.153 -0.118
 0.301 -0.137  0.608
-0.365  0.312 -0.265
-0.304  0.230 -0.409
 0.183 -0.233 -0.533
 0.342  0.154 -0.657
-0.334  0.120  0.287
 0.137  0.318  0.833
 0.284 0.0236 -0.463
 0.385 -0.0220  0.487
-0.413  0.228 -0.503
-0.205 -0.189  0.542
-0.297  0.206  0.759
 0.344 0.0239  0.235
-0.0435 -0.298 -0.215
-0.466  0.218  0.224
 0.341 -0.204  0.178
 0.216 -0.265 0.0746
 0.458  0.197 -0.257
-0.366 -0.00829 0.0746
-0.365 -0.00702  0.550
-0.432 -0.0292  0.341
-0.217 -0.260 -0.172
 0.288  0.197 -0.473
 0.351 -0.213 -0.476
-0.108 -0.202  0.633
-0.367  0.319 -0.376
 0.374  0.204  0.602
 0.468  0.153 0.0211
 0.215  0.244  0.589
 0.379  0.308  0.108
-0.132 0.0976  0.657
 0.324 -0.115  0.301
 0.411 0.00296  0.405
-0.315 -0.0406 -0.366
 0.120  0.284 -0.756
 0.138 -0.279 -0.650
 0.144 -0.278 -0.386
-0.279  0.215 -0.489
 0.181  0.322 -0.793
-0.159 0.0727 -0.662
 0.210 -0.232  0.452
 0.462 -0.126  0.127
-0.213  0.274 -0.640
-0.430 -0.213 -0.177
-0.342  0.197 -0.269
 0.447 -0.0296 -0.268
 0.357 -0.248  0.331
0.0316  0.320  0.867
-0.0847 -0.0371 -0.689
 0.467 -0.0297 -0.118
 0.180  0.285  0.662
-0.0786 -0.287 -0.596
 0.302 -0.0409  0.375
0.00554  0.316  0.697
 0.365 -0.0297 0.0855
 0.355 -0.0726 -0.183
-0.468 -0.0405 -0.0219
0.0850  0.150 -0.944
 0.367 -0.0404 -0.0111
-0.395  0.238  0.534
-0.416 -0.230  0.134
 0.137 -0.0913  0.620
 0.254 -0.210 -0.441
-0.108 -0.290 -0.268
 0.285 -0.229 -0.555
 0.184 0.0792 -0.854
-0.366 0.0607 -0.572
-0.125  0.167  0.929
-0.331 -0.137  0.284
0.0576 -0.297 -0.343
-0.0536 -0.301 0.0103
 0.370 -0.134  0.489
 0.466 0.0346  0.117
-0.470  0.238 -0.236
-0.0378 -0.339  0.561
 0.366  0.163 -0.118
 0.288 -0.0523 -0.436
 0.273 -0.224  0.565
0.0529 -0.191  0.761
-0.278 -0.275  0.454
-0.339  0.196  0.247
 0.287  0.297 -0.736
 0.478  0.218  0.138
 0.210 -0.272  0.542
-0.144  0.345  0.619
-0.122  0.315 -0.798
-0.376  0.202 -0.604
-0.353  0.152  0.173
 0.343 -0.0729  0.235
-0.141  0.247  0.676
-0.107 -0.187 -0.657
 0.319 -0.0232 -0.646
-0.273 0.0769  0.462
 0.214  0.141  0.848
-0.430  0.213 -0.433
 0.301  0.214  0.383
 0.287  0.249  0.770
 0.396  0.186 -0.524
0.0666 -0.265  0.646
 0.312 -0.193  0.302
-0.173 -0.244 -0.666
-0.280 -0.0676 -0.459
-0.125 -0.287  0.152
 0.468 0.0775 -0.0218
0.0103  0.291 -0.943
-0.461  0.302 -0.000494
-0.450 0.0882  0.257
-0.197  0.115 -0.861
-0.355  0.274  0.115
 0.173 -0.271  0.289
-0.0184 -0.260 -0.713
 0.452 -0.105 -0.224
-0.304 -0.281 -0.388
-0.367  0.153 -0.0540
-0.367 -0.213 -0.433
 0.446 -0.197  0.159
-0.138  0.132 -0.907
-0.386  0.313 0.0353
-0.131 -0.283  0.268
-0.0665 -0.0943 -0.833
-0.0677 -0.296 -0.345
 0.145 -0.0760 -0.805
 0.386 -0.126 -0.470
 0.287 0.0916  0.434
-0.220 -0.156 -0.713
-0.355 -0.154 -0.529
0.0641 -0.289  0.525
-0.325 -0.158  0.561
 0.103 0.0691  0.890
-0.242 -0.156  0.669
-0.0759 -0.219 -0.748
-0.307 -0.160 -0.610
-0.290 0.0950  0.733
-0.333 0.0843 -0.328
 0.332 -0.126 -0.307
 0.399  0.164  0.501
 0.296 -0.190 -0.613
-0.00629  0.405  0.583
0.0426  0.257  0.740
 0.433 0.0884 -0.374
-0.349  0.185  0.651
 0.276 -0.240 -0.0540
 0.468 -0.126 0.0532
-0.312  0.152  0.359
 0.201 -0.0232  0.780
-0.251 -0.244  0.206
-0.470  0.281  0.159
-0.275 -0.0622  0.442
 0.447 0.0240  0.256
 0.293  0.109 -0.452
 0.129 -0.0705  0.800
0.0137  0.155 -0.762
 0.328 -0.103 -0.599
-0.142 0.0227  0.635
 0.266  0.282 -0.545
-0.395 -0.0411 -0.462
-0.452 -0.202 -0.0290
-0.347 -0.0512 -0.237
 0.407 -0.198  0.335
-0.267 -0.180  0.446
 0.433 -0.0188 -0.353
 0.418  0.313  0.315
-0.195 -0.224 -0.534
-0.0115 0.0647 -0.737
 0.158 -0.0269  0.608
0.0103 -0.146 -0.811
 0.422 0.0672  0.384
0.0662  0.129  0.699
 0.177 -0.225 -0.689
 0.361  0.286 -0.0327
-0.458 -0.0511  0.181
 0.370 -0.239 -0.342
0.0630 -0.300 0.0961
-0.0110 -0.303  0.353
 0.232 -0.280 -0.530
 0.236 -0.0728  0.718
-0.198 -0.256  0.356
-0.0605 -0.286  0.597
-0.279  0.301  0.530
 0.468 0.0239 0.0425
 0.367 0.0775 -0.0111
 0.367 0.0989 0.0531
-0.295  0.217  0.398
-0.334  0.314 -0.604
-0.342  0.312  0.379
 0.395 -0.235 -0.262
 0.327 0.0128 -0.335
 0.269 -0.191  0.431
-0.251 -0.218 -0.420
 0.247  0.141 -0.557
-0.179 -0.265 -0.370
 0.475  0.200 -0.0316
-0.184  0.299  0.678
-0.208  0.206  0.589
-0.342 -0.204  0.204
-0.312  0.269 -0.726
 0.257  0.281  0.533
-0.00752 0.0619 -0.914
-0.0115  0.142  0.950
 0.350 0.0892 -0.622
-0.337 -0.203 -0.136
-0.248 -0.253 -0.0469
0.0933  0.192  0.696
 0.167 -0.237  0.659
 0.195  0.390  0.617
 0.462 -0.187 -0.139
-0.143 -0.286 -0.133
 0.292 -0.208 -0.387
 0.282 0.0466 -0.733
-0.158 -0.236  0.667
-0.0988 0.0545  0.880
-0.458 -0.197 -0.100
 0.327  0.278  0.323
-0.431  0.304  0.287
 0.169 -0.0312 -0.631
 0.390 0.0995  0.512
-0.423 -0.205  0.249
-0.232 -0.0305 -0.551
-0.325 -0.202 -0.232
0.0422 -0.0555  0.838
-0.325  0.319  0.483
-0.357 -0.177  0.501
-0.185  0.319 -0.752
 0.231  0.217 -0.854
-0.357  0.207 -0.0111
 0.415  0.319  0.235
-0.297 -0.114  0.627
-0.119 -0.289 0.0210
 0.465  0.268  0.213
-0.000544 -0.295  0.514
 0.127 0.0521  0.653
 0.360  0.153  0.119
 0.339  0.152  0.269
-0.103  0.105 -0.716
 0.335 -0.197 -0.194
 0.350  0.110  0.194
 0.411 -0.237 -0.150
-0.0221 -0.300  0.203
-0.379 -0.215  0.366
 0.108 -0.203 -0.658
 0.250 -0.247 -0.161
-0.414 -0.0188  0.406
 0.352 -0.272  0.175
-0.350  0.219 -0.140
 0.106 0.0213 -0.868
 0.101 -0.288  0.471
-0.000540  0.217 -0.976
0.0884  0.132  0.932
-0.272  0.207  0.471
 0.335  0.163 -0.333
 0.185 -0.158 -0.594
0.0862 -0.292  0.375
-0.319 -0.218 -0.000420
-0.349 0.0354  0.597
0.0588  0.291 -0.794
-0.216  0.205 -0.620
 0.216 0.0652  0.561
 0.416  0.320 -0.257
 0.451  0.184  0.267
-0.249  0.136 -0.807
-0.366 -0.115 0.0532
-0.233 -0.258 0.0959
 0.311 -0.211  0.235
-0.266  0.313  0.600
-0.195 -0.190  0.694
 0.250 -0.0767  0.483
-0.364  0.321 -0.461
-0.387 -0.115  0.455
 0.101 -0.288 -0.472
 0.180  0.268 -0.680
 0.110 0.0546 -0.703
-0.397 -0.255 0.0710
-0.208  0.133 -0.624
 0.363 0.0658 -0.145
 0.153 -0.216  0.583
-0.0221 -0.0982  0.816
-0.206 -0.223  0.488
 0.307  0.219 -0.388
-0.414 0.0885 -0.428
-0.0997 -0.160  0.762
 0.208  0.296  0.819
-0.292 0.0237  0.405
 0.166 -0.134 -0.769
-0.248 -0.244  0.567
 0.366  0.174 -0.0326
 0.256 -0.126 -0.490
-0.287 0.0556 -0.464
-0.0719 -0.0358  0.666
-0.366 -0.137 -0.0218
 0.227 -0.0947 -0.541
-0.0111 -0.0950  0.669
 0.404 -0.0720 -0.437
 0.360  0.297 -0.183
-0.176  0.211 -0.667
0.0606 -0.298 -0.0325
-0.0964  0.151  0.688
-0.328 -0.281 -0.330
 0.366 -0.137 -0.0326
-0.312 -0.162 -0.360
-0.201  0.225  0.876
 0.419 -0.235 0.0318
 0.467 -0.0619 -0.0647
-0.202 0.0370  0.802
 0.234 -0.0227 -0.752
-0.401 -0.104 -0.427
0.0419 -0.301  0.225
-0.466 -0.158  0.106
-0.352 -0.0833  0.173
-0.287 -0.169 -0.432
 0.168  0.290 -0.885
-0.0950  0.280  0.732
-0.167 -0.277  0.217
 0.414 -0.219  0.213
-0.343 0.0839 -0.625
-0.121  0.173 -0.724
-0.427 -0.126  0.334
-0.341 -0.208 -0.504
 0.426  0.310 -0.318
 0.332  0.235 -0.256
-0.232 -0.00878  0.518
 0.365  0.295 -0.592
 0.263  0.152  0.485
-0.340  0.172 -0.665
 0.430  0.197 -0.418
-0.159 0.0148 -0.841
 0.316 0.0988  0.344
 0.404 -0.124  0.394
 0.452  0.238  0.331
-0.148  0.113  0.887
 0.209  0.207  0.874
-0.0675 -0.297 -0.465
-0.0219  0.311  0.803
 0.444 -0.147 -0.267
 0.468  0.292 -0.157
 0.423  0.298 -0.406
-0.255 -0.249 -0.118
 0.224  0.202 -0.601
 0.167  0.145  0.628
-0.367 -0.0940 -0.0647
 0.168 -0.278 0.0318
-0.468 0.0775 -0.0219
 0.392  0.317  0.384
-0.467 -0.0619 0.0746
-0.383  0.293  0.507
-0.406 -0.181 -0.399
-0.0324 -0.302 0.0961
 0.291 0.0308  0.416
0.0102 -0.223  0.665
-0.468  0.110 -0.0754
-0.482  0.214 -0.101
-0.394  0.291 -0.513
0.0563  0.239  0.961
-0.457  0.120 -0.204
-0.286 -0.233  0.409
 0.159 -0.281  0.160
 0.463 0.0132 -0.160
-0.192 -0.268 -0.244
 0.253 -0.243  0.204
-0.332 -0.282  0.288
-0.340 -0.0920  0.567
-0.0434 -0.147  0.789
 0.280  0.303  0.721
-0.110 -0.0524  0.814
 0.287 -0.274  0.436
-0.440 -0.118 -0.303
-0.390  0.318 -0.172
0.0120  0.469  0.468
 0.381 0.00276 -0.524
-0.357 0.0775 -0.183
0.0733 -0.0920 -0.829
 0.296  0.317  0.641
-0.354 -0.0870 -0.187
 0.223 0.0874 -0.586
-0.452 0.0598 -0.232
 0.453  0.209 -0.321
 0.224 -0.258  0.139
 0.451 -0.0724  0.202
0.0917 -0.123  0.642
 0.289  0.171  0.436
 0.387  0.285  0.519
-0.208  0.249 -0.875
-0.358 -0.0297  0.140
 0.258 0.0200  0.481
-0.344 0.0605 -0.275
-0.0217 0.0660  0.700
0.0317 -0.0172 -0.875
 0.353 0.0453 -0.201
 0.338  0.315 -0.419
-0.319  0.295 -0.412
-0.0944 -0.230  0.704
-0.148 -0.156 -0.766
-0.0388  0.179  0.719
 0.417 -0.177 -0.369
-0.297 -0.0173  0.670
 0.327 -0.281  0.293
0.0749 -0.101 -0.678
-0.0113 -0.148 -0.688
-0.454 -0.126  0.191
-0.362  0.237  0.629
0.0682 -0.297 -0.108
 0.236  0.311 -0.777
 0.363  0.320  0.449
0.0554 -0.223 -0.682
-0.0432  0.134 -0.948
 0.437  0.120  0.353
-0.441  0.286 -0.369
-0.314 0.0238  0.341
 0.180 0.0654 -0.642
-0.295 -0.0192 -0.431
-0.367 -0.212 -0.0540
0.0621  0.310 -0.912
 0.385 -0.166  0.443
-0.261  0.186  0.811
0.0931 -0.278  0.574
-0.231 -0.0377  0.733
 0.220  0.184  0.571
-0.323  0.212  0.707
 0.258  0.153  0.798
-0.464 0.0240 -0.138
-0.392  0.196 -0.546
 0.141 -0.158 -0.635
 0.349 0.0694  0.596
 0.299  0.322 -0.611
 0.306 0.0256 -0.685
0.0193 -0.301  0.653
-0.000461 -0.301 -0.365
 0.297 0.0396  0.697
 0.284 -0.0836  0.420
-0.0619 -0.0898 -0.686
-0.310 0.0411 -0.678
 0.262 -0.186 -0.659
-0.175 -0.255 -0.487
-0.440 0.0107 -0.325
 0.259 -0.0756 -0.707
 0.467  0.174 -0.139
-0.124  0.301  0.879
 0.244 -0.214 -0.497
 0.297  0.299 -0.494
 0.468  0.163 0.0854
 0.178 -0.155  0.575
 0.216 0.0338  0.795
 0.268 -0.223 -0.328
-0.131 -0.282 -0.344
 0.351  0.136  0.622
-0.465 0.0454  0.138
 0.269 -0.243 0.0851
-0.408 -0.245 -0.00399
-0.376 -0.244 -0.304
 0.368 -0.0820  0.510
 0.355 -0.0613 -0.566
-0.236  0.276 -0.826
 0.365 -0.180 0.0317
 0.342  0.224  0.178
-0.375 -0.276 -0.111
 0.165 -0.275 -0.268
 0.354 0.0123  0.169
-0.355 -0.244  0.157
-0.461  0.267 -0.284
-0.154  0.364  0.673
-0.462 -0.0797 -0.146
0.0609  0.101 -0.931
-0.475  0.201 0.0138
 0.395 -0.243 -0.203
 0.115 -0.289 -0.227
 0.183 -0.235  0.505
 0.135 -0.267 -0.511
 0.151 -0.282 -0.0326
-0.354  0.202  0.140
 0.364 -0.258 0.0928
 0.240 0.0125 -0.540
 0.410 0.0671 -0.448
 0.350 -0.00838 -0.216
 0.305 -0.0714  0.629
-0.283  0.155 -0.493
 0.309 -0.116 -0.370
-0.359 -0.137 -0.151
 0.408 -0.245 -0.0218
-0.0616 -0.297  0.164
 0.347  0.249 -0.140
 0.202  0.176 -0.878
 0.363 -0.0311  0.537
 0.408  0.110  0.447
0.0521 -0.301  0.332
 0.203 -0.284 -0.579
-0.134  0.285 -0.746
-0.0341  0.226 -0.770
-0.444 -0.00799  0.277
-0.330  0.174  0.303
 0.483  0.256 0.0185
 0.121  0.293  0.891
-0.246 -0.0623  0.489
-0.348 -0.0386 -0.575
0.0760 -0.296  0.150
-0.307  0.152 -0.728
-0.441 0.0994  0.318
 0.269 -0.233 -0.269
-0.367 -0.0189 -0.0754
 0.324 -0.196 -0.269
-0.366  0.262 -0.626
0.0458 -0.342  0.560
-0.205 0.0172 -0.601
 0.364 -0.0499 -0.127
0.00999 -0.00164  0.869
 0.366 -0.212 -0.108
 0.119 -0.288  0.257
-0.323  0.272  0.347
 0.378  0.256  0.585
 0.230 -0.237  0.396
-0.232  0.258 -0.592
-0.468 0.0882 0.0317
0.0314 0.00296  0.687
-0.392  0.110 -0.514
-0.0856 -0.294  0.364
-0.211 -0.126  0.540
-0.0960 0.0143 -0.875
 0.376  0.185 -0.595
-0.304 -0.0834  0.363
-0.403 0.0349  0.459
 0.147 -0.280  0.364
 0.316 -0.260 -0.438
 0.330 -0.283 -0.321
 0.310  0.301  0.446
 0.400  0.110 -0.491
 0.187 -0.264 -0.333
-0.319 0.0999  0.682
 0.338 0.0159  0.597
-0.445 -0.158  0.234
0.0171  0.254 -0.780
-0.255 -0.238  0.267
 0.343  0.110 -0.276
-0.301 -0.218 -0.384
-0.342 -0.119 -0.261
 0.248  0.317 -0.666
 0.173  0.188  0.911
0.0661  0.161 -0.751
 0.467 -0.178 -0.0861
-0.417  0.131  0.431
 0.442 0.0884 -0.321
 0.368 -0.157 -0.511
-0.333  0.249  0.257
 0.257 -0.232  0.320
-0.108 -0.264  0.578
-0.481  0.249  0.107
 0.179 -0.278  0.587
 0.367 -0.0619 0.0425
-0.366 -0.00829 0.0211
 0.467  0.120 -0.129
-0.467 0.0668 0.0853
-0.468 -0.0725 -0.0647
 0.236  0.249 -0.578
0.0497 -0.245 -0.730
 0.473  0.275  0.145
-0.454 0.0132 -0.203
-0.304 -0.0606 -0.651
0.0210 -0.299 -0.451
 0.336 0.0247 -0.630
-0.344  0.302 -0.330
-0.0321 -0.301 -0.568
 0.307  0.248 -0.746
-0.279 -0.126  0.427
 0.367 -0.233 0.0210
 0.452 0.0882 -0.246
 0.235 -0.226  0.502
0.0103 -0.300 -0.236
-0.414 -0.207 -0.310
 0.366  0.297 -0.129
-0.129 -0.272 -0.645
-0.358 -0.126  0.140
 0.117 -0.228  0.621
-0.365  0.293 -0.0397
0.0117  0.310  0.750
-0.275 -0.218 -0.598
-0.0634 -0.223  0.653
-0.0816 0.0872  0.684
-0.196 0.0795 -0.625
-0.226  0.320 -0.719
-0.280  0.260 -0.785
0.00945 -0.135  0.794
 0.362 -0.105 -0.141
-0.0364  0.313 -0.833
 0.231 -0.186  0.663
 0.373 -0.104 -0.516
0.0317 -0.299 -0.290
 0.368  0.315 -0.507
-0.455 -0.169 -0.192
 0.194 -0.253 -0.408
-0.237 -0.242  0.317
 0.279  0.248 -0.480
 0.159 -0.282 -0.118
 0.226  0.299  0.625
-0.395 0.0100 -0.474
 0.364 0.0570 -0.583
 0.332 -0.118  0.560
 0.445  0.307 -0.214
 0.217  0.254  0.850
-0.334 -0.132 -0.572
-0.0991 -0.282 -0.547
-0.0220 -0.218 -0.757
-0.142 -0.155 -0.635
-0.0778  0.161  0.950
 0.351 -0.0941  0.183
-0.112  0.385  0.631
-0.451 -0.0465 -0.221
-0.461  0.163 -0.173
-0.120 -0.275  0.499
-0.423  0.258  0.437
 0.325 -0.208  0.129
-0.221 -0.0381 -0.767
-0.437 0.0991 -0.353
 0.467 -0.158 -0.0325
-0.218 -0.203 -0.678
0.0953 -0.193 -0.767
-0.240 0.0680  0.775
 0.155  0.354  0.598
0.0222 -0.296 -0.685
-0.154 -0.249 -0.558
 0.197 -0.244 -0.645
 0.331  0.251  0.273
0.0822  0.289  0.749
 0.431  0.217  0.415
-0.0282  0.199  0.975
 0.336 -0.0298 -0.301
0.0423 -0.239  0.712
-0.417  0.149 -0.432
-0.291 -0.215 -0.298
-0.218 -0.228 -0.472
 0.102 -0.265 -0.608
-0.223  0.312  0.770
-0.373 -0.263 -0.218
-0.414 0.0134 -0.406
 0.213  0.272 -0.855
-0.265  0.256 -0.519
 0.197 -0.0275 -0.789
 0.353  0.222 -0.0133
 0.361 0.0132  0.119
0.0994 0.000515 -0.694
-0.101 -0.183 -0.774
 0.428 0.0296 -0.379
-0.333  0.240 -0.242
-0.250  0.109  0.503
0.0112  0.105  0.706
-0.266 -0.00555  0.715
0.0849  0.321  0.846
-0.188  0.372  0.635
 0.358  0.218 -0.651
-0.237 -0.151 -0.523
 0.141 -0.197  0.717
-0.377 -0.0610  0.502
-0.246 -0.246 -0.211
-0.364 0.0882  0.101
-0.416  0.319 -0.268
-0.0433  0.308 -0.919
 0.163 0.0943  0.623
 0.262 0.0798 -0.766
-0.204 -0.0112  0.775
 0.347  0.196 -0.226
0.0702 -0.299  0.268
-0.294 -0.219  0.214
 0.185 -0.258  0.407
-0.124 -0.0653 -0.662
 0.222 -0.0694  0.531
 0.308 -0.165  0.348
-0.0211 -0.288  0.565
-0.185  0.236  0.623
 0.178 -0.135  0.741
-0.0665 -0.280 -0.653
0.0315 0.0477  0.895
-0.209  0.294  0.817
-0.145 -0.182  0.605
-0.151 -0.242  0.601
 0.190  0.128 -0.870
-0.315 -0.0942 -0.355
 0.419 -0.0507 -0.394
 0.155  0.173 -0.692
-0.0440 -0.239  0.713
 0.361 -0.219 -0.427
 0.109 0.0136  0.857
-0.300  0.106 -0.435
-0.249 -0.108  0.684
 0.461 -0.115 -0.176
 0.219 -0.253  0.289
 0.388  0.319  0.193
-0.330  0.304  0.619
 0.436  0.319 -0.108
 0.156 0.0378 -0.854
-0.466  0.153  0.139
 0.277  0.120  0.760
 0.308  0.132 -0.719
-0.226  0.171  0.845
 0.336  0.286  0.639
-0.264 -0.253  0.521
 0.155  0.413  0.635
-0.343 -0.0941  0.229
-0.159 -0.134  0.751
 0.310  0.269 -0.388
-0.249 -0.212  0.615
-0.355  0.322  0.428
-0.188 -0.0810  0.756
 0.262 0.0687  0.756
 0.341 -0.199 -0.523
-0.289 -0.242 -0.527
 0.358  0.208 0.0640
-0.326  0.218 -0.715
-0.209 0.0554  0.569
 0.342 -0.246  0.378
 0.321 -0.214 -0.0755
-0.357  0.145 -0.617
-0.467 -0.158 0.0424
-0.386  0.313  0.111
-0.000344 -0.330  0.441
0.0914 -0.0593  0.652
-0.321  0.207 -0.345
-0.230  0.166 -0.842
 0.389 -0.226  0.299
-0.0607 -0.278  0.650
-0.301  0.261  0.730
0.0948 -0.293 -0.375
 0.256 -0.246 -0.108
 0.168 -0.265 -0.609
0.0773 -0.212  0.648
 0.360  0.186 -0.162
-0.120 -0.282 -0.451
-0.0432  0.253 -0.966
-0.339 -0.169  0.247
 0.408  0.174 -0.477
0.0532 -0.295  0.450
 0.177  0.342  0.687
-0.0875 -0.294 -0.193
 0.407 -0.0543  0.401
-0.0200 -0.300  0.621
-0.441  0.177 -0.339
 0.360 -0.233 -0.152
 0.255 -0.250 -0.0111
-0.173  0.205  0.911
 0.271 -0.130  0.440
-0.327 0.0250  0.640
 0.462 0.0883  0.148
-0.123 -0.136  0.626
-0.00785 0.00452 -0.721
 0.145  0.257  0.680
 0.163  0.307 -0.743
-0.441  0.212  0.377
 0.312 -0.222 0.0744
-0.341 -0.0297  0.237
 0.318 -0.0728  0.324
-0.343  0.127  0.643
 0.422  0.132  0.405
 0.138  0.249  0.917
-0.248 0.0284 -0.535
-0.110 0.0225 -0.692
-0.338 -0.205 0.0567
0.0416 -0.0365 -0.708
-0.397  0.191  0.521
 0.361 -0.273 -0.224
-0.217 -0.123 -0.557
-0.312 0.0827 -0.394
-0.468 -0.115 -0.107
 0.333  0.205 -0.294
-0.413  0.310  0.353
 0.433 -0.196 -0.269
-0.407  0.321  0.235
-0.215  0.125  0.568
0.0424  0.321 -0.869
 0.147  0.267 -0.716
-0.0824 -0.133 -0.808
 0.433 -0.147 -0.331
 0.141  0.298  0.705
-0.110 -0.0746 -0.824
 0.346 -0.244  0.214
 0.262  0.133 -0.789
-0.196 -0.265  0.558
-0.103 -0.289  0.410
-0.418 -0.233 -0.121
-0.281  0.155  0.774
-0.142 -0.286  0.103
-0.356 -0.0190 -0.183
 0.212 -0.130 -0.730
-0.238  0.147 -0.577
-0.349 0.0131 -0.587
 0.134  0.160 -0.923
-0.348  0.298  0.289
-0.168 -0.278 -0.608
0.0518 -0.167 -0.800
-0.340 -0.251 -0.398
-0.0221 -0.300 -0.118
-0.276  0.183 -0.791
-0.142 -0.284 -0.0647
-0.468 -0.0189 0.0210
 0.365 -0.137 0.0853
 0.407  0.283 -0.489
-0.356  0.293  0.186
 0.366 0.0561 -0.0969
 0.468 -0.0404 -0.0218
-0.337 -0.196 -0.183
-0.367 0.0989 -0.000368
-0.0960 0.0572 -0.896
-0.367  0.110 -0.0754
-0.366 0.0453 0.0104
-0.223 0.0972 -0.824
 0.366 -0.0618 -0.0540
-0.301 -0.120 -0.636
-0.472  0.193 -0.0469
-0.437 -0.137  0.288
-0.0324 -0.302 -0.0325
-0.102  0.271  0.921
 0.222  0.152 -0.603
-0.0328 0.0732  0.913
 0.441 -0.0938  0.277
-0.000631 -0.223 -0.689
-0.441 0.0447  0.306
 0.466 -0.0832  0.106
-0.466  0.198  0.181
-0.363 0.0560 -0.141
0.0209 -0.137  0.664
-0.384 -0.242  0.252
-0.0926 -0.287  0.458
 0.317  0.109 -0.378
-0.442 -0.158 -0.278
-0.125  0.317  0.747
-0.185 -0.113 -0.592
-0.251 -0.225  0.463
-0.292 -0.184  0.378
0.0855  0.198  0.962
-0.0575 -0.0518 -0.856
 0.245 -0.136 -0.696
 0.105  0.238 -0.949
 0.430 -0.0829 -0.352
-0.0387 0.00707  0.687
-0.283 0.0598 -0.734
 0.201 -0.198 -0.560
 0.118 -0.290  0.128
-0.0754  0.321  0.846
 0.359  0.239  0.630
0.0210 -0.300 0.0746
-0.131 -0.281  0.332
 0.233 -0.256 0.0318
-0.254 -0.244  0.136
-0.268 -0.258 -0.469
-0.362  0.304 -0.219
 0.342 -0.0226  0.243
0.0437 -0.0425  0.676
-0.428 0.0993  0.388
 0.427  0.321 -0.0433
 0.132  0.163  0.669
-0.0789 -0.201  0.742
 0.210 -0.144  0.542
 0.471  0.268 -0.215
-0.347 -0.247  0.356
 0.309 -0.175  0.579
 0.324 -0.247  0.427
-0.331 0.0327 -0.326
 0.214 -0.116  0.718
-0.226 -0.253 -0.304
 0.312 -0.00858 -0.374
0.00288  0.291 -0.805
 0.184 -0.273 -0.0647
-0.0748  0.199 -0.752
 0.195 0.0364 -0.822
 0.328 -0.210 0.0317
 0.223 -0.211 -0.665
 0.101  0.103 -0.719
 0.445  0.208 -0.375
 0.194 -0.0449  0.569
 0.269 -0.154  0.644
0.0608 -0.292 -0.600
-0.385  0.110  0.538
-0.217 -0.264 -0.0147
0.0776 -0.298 -0.161
-0.341 0.0560  0.247
-0.0570 -0.244 -0.682
-0.179 -0.207 -0.585
-0.137 -0.0908  0.783
-0.277 -0.239 -0.000410
-0.454 0.0562  0.224
-0.115  0.287 -0.917
 0.317 -0.244 -0.346
 0.453 0.00257 -0.235
 0.350  0.314  0.354
-0.384 0.0446 -0.526
-0.466  0.298 -0.0540
 0.354  0.262 0.0751
 0.312  0.267  0.365
-0.311 -0.221  0.329
 0.478  0.208 0.0210
 0.280 -0.0940 -0.453
-0.280  0.242  0.783
 0.402 0.0242 -0.471
-0.176  0.325  0.715
 0.125 -0.111  0.779
-0.325 0.0667  0.311
0.0914 -0.277 -0.677
-0.366 -0.233 0.0103
 0.359 -0.193  0.479
 0.415  0.206  0.464
 0.261  0.217 -0.820
-0.335 -0.213  0.482
-0.450 -0.201  0.113
-0.220 0.0906  0.810
-0.238 -0.229 -0.514
 0.180  0.319  0.792
-0.240  0.268  0.562
 0.282  0.268 -0.779
-0.236 -0.230 -0.621
-0.456  0.174  0.224
 0.408  0.320 0.0746
-0.0113 -0.301 -0.183
 0.468 -0.158 0.0210
-0.366 -0.265 -0.0325
 0.234 -0.252 -0.247
-0.221 -0.0809  0.723
-0.299 -0.0624 -0.411
-0.467  0.153 0.0532
 0.207 -0.235 -0.481
0.0628 -0.294 -0.547
-0.186  0.112  0.861
 0.455  0.268 -0.321
 0.149  0.322 -0.825
 0.442 -0.0188  0.288
-0.00434  0.115 -0.751
-0.462  0.258  0.245
 0.430  0.131 -0.392
 0.305 -0.226 -0.0218
-0.0217 -0.302 0.0425
 0.445 -0.126  0.245
 0.350  0.109 -0.227
0.0100 -0.180  0.770
0.0273  0.283  0.934
-0.234  0.195  0.542
-0.151 -0.197 -0.622
 0.267 -0.235  0.446
 0.115 -0.250  0.670
-0.201  0.288 -0.855
-0.282 -0.0571 -0.690
-0.171 -0.243  0.509
-0.467 -0.126 0.0746
 0.266 -0.0779  0.685
-0.173 0.0661  0.611
-0.185 -0.272 -0.140
-0.211 0.0130 -0.800
 0.459 0.0882 -0.193
-0.476  0.258 -0.182
-0.363 0.0239  0.108
-0.137 0.0451  0.854
 0.451 0.0992  0.234
-0.0641 -0.300 -0.0968
0.00182  0.310  0.899
-0.300  0.312 -0.533
-0.174 -0.268  0.301
 0.297 -0.223 -0.173
 0.183 -0.271 -0.161
 0.365  0.121 -0.139
-0.0618  0.301  0.773
 0.295 -0.0943 -0.410
 0.424  0.260  0.429
 0.302  0.318  0.537
 0.206 -0.126 -0.570
-0.366  0.183 -0.118
-0.0323 -0.302  0.300
-0.143  0.241 -0.710
-0.365 -0.148 0.0929
 0.141 0.0886  0.878
 0.359 -0.281  0.132
 0.334 -0.244 -0.299
 0.355  0.193  0.136
-0.367  0.279  0.588
 0.135 -0.252 -0.581
-0.291  0.320 -0.591
 0.264 -0.181 -0.474
-0.140  0.125 -0.697
-0.0879  0.288 -0.776
 0.232 0.0251  0.527
 0.116 0.0802 -0.893
 0.319  0.174 -0.710
 0.398 -0.0289  0.437
-0.346 -0.201 -0.0922
 0.439  0.258 -0.417
-0.374  0.132  0.580
 0.141 -0.271  0.461
-0.331 -0.126 -0.304
-0.361  0.279 0.0208
 0.105  0.314 -0.883
-0.186 -0.251  0.429
 0.228  0.106  0.547
 0.323 0.0524  0.319
 0.161 -0.0388  0.801
-0.365 -0.233 0.0929
 0.183 -0.0755 -0.783
0.0758 -0.295 -0.290
-0.111  0.128  0.914
 0.472  0.213 -0.208
 0.367 -0.0833 -0.000424
 0.468 0.0561 -0.0647
 0.263 0.0339 -0.508
 0.456 0.0240  0.181
-0.0328 -0.299  0.246
 0.294  0.218 -0.431
-0.216 -0.254 -0.346
 0.366 -0.255 -0.0326
 0.366  0.142 -0.0647
-0.445 0.0562 -0.289
0.00940 -0.302 -0.622
-0.212 -0.232  0.531
-0.468 0.00247 -0.0326
0.0317 -0.299  0.182
 0.468 -0.0833 0.0425
-0.468 -0.0833 -0.0112
 0.467 -0.105 -0.0754
0.0783  0.206 -0.966
-0.468 0.0561 -0.0647
 0.367  0.131 -0.0219
 0.359 -0.0833  0.129
 0.423 -0.0186  0.362
-0.325  0.248  0.302
-0.213 -0.260  0.224
-0.349  0.208 -0.183
 0.354  0.283 -0.632
-0.238  0.309 -0.653
-0.301 -0.0550  0.647
 0.158 -0.280 -0.225
-0.439  0.284  0.326
-0.192 -0.0306  0.577
 0.206 -0.262  0.246
-0.418  0.321 -0.0969
-0.351 0.0774 -0.227
-0.254 -0.148 -0.683
0.0102 -0.301 -0.0218
-0.415 -0.105 -0.385
-0.205 -0.211  0.657
-0.262 -0.0486 -0.494
-0.371 -0.199  0.436
 0.116 -0.292 -0.129
 0.460 -0.0546  0.145
-0.249 -0.223  0.388
-0.398 0.0886  0.487
-0.430 -0.223 0.0282
-0.399  0.319 -0.0111
 0.393  0.238 -0.568
-0.456  0.289 -0.246
 0.485  0.248 -0.129
 0.447  0.163 -0.289
-0.341  0.152  0.247
0.0323 0.0647 -0.737
-0.0468 0.0339 -0.898
 0.263  0.217  0.485
 0.343  0.321 -0.472
 0.228 -0.172  0.514
-0.190  0.152  0.607
 0.287 0.0671 -0.462
0.0208 -0.212  0.740
 0.383 0.0994 -0.549
0.0207 -0.0908  0.819
0.0682 -0.297 0.0317
-0.348  0.196  0.183
 0.341 -0.0941 -0.262
-0.302  0.309 -0.679
-0.334 -0.237 -0.296
-0.244 -0.169  0.487
 0.174  0.182 -0.912
-0.430 0.0136  0.359
 0.232 -0.0515 -0.542
-0.465 -0.0404 -0.128
-0.312 -0.148  0.338
-0.467  0.110  0.128
-0.0637 -0.300 -0.300
-0.0999  0.229 -0.954
 0.481  0.215 -0.0756
 0.472  0.226  0.188
 0.203  0.321  0.739
-0.443  0.314  0.128
-0.0693 -0.297 -0.250
 0.386  0.321 -0.290
 0.138 -0.252  0.565
-0.450  0.191  0.269
 0.169  0.114 -0.665
 0.237 -0.247  0.570
 0.357 -0.0297 -0.173
 0.186 -0.168 -0.738
 0.330 -0.155  0.283
-0.281 -0.0918  0.661
-0.409 -0.178  0.369
-0.216  0.128  0.834
 0.354  0.313  0.539
 0.332 -0.0496 -0.614
-0.167  0.188 -0.915
 0.355  0.282  0.139
-0.194 -0.191 -0.720
-0.444 -0.0296 -0.278
 0.110 -0.285 -0.429
 0.306 -0.244  0.355
-0.306 -0.271  0.405
-0.111 -0.233 -0.646
 0.302  0.264  0.732
 0.212  0.283 -0.652
-0.0873 -0.293  0.257
-0.408 -0.125  0.390
 0.219 -0.237 -0.440
 0.286 -0.241  0.510
 0.445 -0.169  0.235
-0.388 -0.102 -0.468
 0.366  0.163 0.0747
 0.443 -0.206  0.117
-0.0786  0.160 -0.955
0.0207  0.215  0.970
-0.303 0.0918 -0.713
-0.391  0.315  0.406
-0.167 -0.277  0.146
-0.318 -0.0727  0.324
 0.350 0.0667  0.194
-0.464 -0.0617  0.138
-0.292 -0.228 -0.119
-0.379  0.237  0.587
-0.0507 -0.0788  0.666
-0.347 0.0131 -0.248
-0.0147 -0.0952 -0.835
 0.238  0.159  0.535
-0.000588 -0.239  0.713
-0.302  0.259  0.405
 0.382 -0.168 -0.469
 0.467 0.0989 -0.0647
 0.362  0.304  0.225
-0.468  0.153 -0.0647
 0.468 0.0239 -0.000361
 0.446 -0.0724 -0.268
-0.303 -0.192  0.574
0.0625 -0.300 -0.204
 0.350 -0.137  0.183
-0.0109 -0.303  0.396
-0.468 -0.0297 -0.0647
 0.367 -0.0189 0.0317
 0.386 -0.266 -0.107
-0.440  0.179  0.335
-0.468  0.290 0.0756
 0.195  0.193  0.605
 0.282 -0.0190 -0.462
 0.361  0.304 -0.226
 0.384  0.320 -0.407
-0.0396  0.221  0.727
 0.172 -0.232  0.549
-0.365 -0.179 -0.0182
-0.202 -0.270 0.0317
 0.174 -0.116 -0.604
-0.244 0.0544 -0.781
 0.457 -0.198 0.0318
-0.221 -0.241 -0.401
 0.401 -0.186  0.383
 0.333  0.203  0.690
 0.344  0.110  0.236
 0.248  0.244  0.817
-0.449 0.0989 -0.258
 0.248 -0.0337  0.492
-0.280  0.282  0.492
-0.450  0.282 -0.322
 0.357 -0.233  0.140
-0.0315 -0.300 -0.611
 0.419 -0.235 0.0741
 0.214  0.301 -0.824
-0.418  0.320  0.192
 0.103  0.315  0.780
 0.303 -0.233 -0.517
-0.244  0.296 -0.606
-0.352  0.120 -0.227
 0.300 0.0952  0.394
0.0132  0.437  0.564
0.0315 -0.270  0.680
 0.291 0.0894 -0.737
-0.339 -0.275  0.247
 0.158 -0.278  0.246
-0.0950 -0.260  0.670
 0.294  0.297  0.484
 0.246  0.321 -0.708
 0.311 -0.119  0.340
-0.428  0.185  0.409
 0.265  0.102  0.477
 0.163 -0.109  0.591
0.0227 -0.292  0.479
 0.101 -0.158 -0.662
0.00966  0.343  0.660
 0.173  0.302  0.848
-0.119 -0.229 -0.715
 0.383 0.0577  0.524
-0.265  0.195 -0.528
0.0448  0.311 -0.828
-0.367 -0.255 -0.0754
-0.438  0.268 -0.406
 0.109  0.184 -0.735
-0.345 -0.169 -0.247
-0.139 -0.0290 -0.833
-0.327 -0.0298  0.301
 0.182 0.0257  0.821
-0.266 0.0553 -0.508
-0.365  0.183 0.0639
-0.249 0.0822 -0.545
 0.148 -0.279  0.321
-0.148 -0.00115  0.825
 0.133 -0.242 -0.631
-0.366  0.131 0.0746
-0.449 -0.200 -0.143
-0.328 0.0675  0.651
 0.317 -0.158 -0.346
-0.226 0.0929 -0.588
 0.303  0.186 -0.747
-0.00152  0.406  0.438
0.0663  0.217  0.715
 0.290  0.203  0.774
-0.0724 -0.0478  0.836
 0.215  0.101 -0.828
-0.354 -0.158  0.165
 0.384  0.167  0.559
 0.378 0.00355  0.521
 0.288 -0.224  0.193
-0.0111  0.140  0.714
-0.0715 -0.173 -0.675
 0.209 0.0693  0.820
-0.289 0.0568  0.718
-0.0665 0.0990 -0.734
 0.360 -0.187 -0.0755
-0.468 -0.169 -0.0111
 0.343 -0.244 -0.247
-0.381 -0.250 -0.255
-0.462  0.125 -0.156
 0.459  0.228  0.278
-0.457  0.208 -0.289
-0.250 -0.246 -0.582
-0.364 -0.0404  0.101
 0.125 -0.0360  0.822
0.0626 0.0712  0.907
0.0416 -0.301 -0.386
-0.0691  0.306 -0.810
-0.298 -0.218 -0.258
 0.334 -0.0834 -0.301
-0.344  0.276 -0.657
-0.149 -0.273  0.417
 0.287  0.320 -0.653
 0.336 0.0452 -0.312
 0.320 -0.187 -0.577
 0.205 -0.248  0.602
 0.357  0.175  0.629
-0.0875 -0.294 -0.0111
-0.324 -0.183  0.292
 0.253 0.0260 -0.753
-0.353 -0.0984 -0.549
 0.322  0.274 -0.350
 0.449 -0.164 -0.230
 0.139 0.0411  0.855
 0.331 -0.208 -0.139
 0.396  0.321  0.278
-0.151  0.131  0.643
-0.142 -0.283 -0.247
-0.0540  0.321 -0.869
-0.0451 -0.00995 -0.714
 0.254 -0.254 -0.560
0.0923 -0.134  0.782
 0.448  0.293  0.240
 0.265 -0.222 -0.603
-0.319 -0.212  0.125
 0.227  0.223  0.557
0.0583 -0.0231  0.855
-0.279 -0.219 -0.449
 0.381 -0.218 -0.374
 0.147 0.0266  0.629
 0.118 -0.290 0.0532
 0.275  0.131 -0.506
 0.459 -0.169 -0.175
 0.135 -0.133  0.618
-0.470  0.193 0.0924
 0.367 -0.223 0.0640
-0.0424  0.176 -0.764
-0.0770 -0.296 0.0425
-0.365 -0.237 -0.112
 0.134  0.166  0.922
-0.365 -0.123 -0.104
 0.309 -0.00486  0.359
 0.238 0.0900 -0.797
-0.397 -0.212 -0.347
-0.127 -0.288 -0.0182
 0.134 -0.0431 -0.825
0.0945 -0.261  0.618
0.0425  0.133 -0.951
-0.236 -0.0862 -0.729
 0.172 -0.221 -0.577
-0.138 -0.279 -0.383
0.0816 -0.0564  0.831
-0.0692 -0.297  0.125
 0.324 -0.0281  0.607
-0.353 -0.282  0.182
-0.151  0.321 -0.825
 0.301 -0.151 -0.623
 0.319 -0.230  0.316
-0.180 0.0300 -0.630
 0.107  0.242 -0.741
0.0314  0.130  0.941
-0.329 -0.233  0.292
 0.429  0.303 -0.357
-0.479  0.269 -0.139
 0.447 0.0668 -0.279
-0.0791 -0.284  0.558
-0.127 -0.290 -0.172
-0.298 -0.200 -0.348
-0.287  0.197  0.431
 0.449  0.145  0.260
 0.338  0.288 -0.301
 0.245 0.0820 -0.546
-0.175 0.0740 -0.859
 0.292 -0.223  0.397
-0.149 0.0297 -0.663
-0.164 -0.00829  0.608
 0.174 0.0116 -0.636
-0.405 -0.139 -0.409
 0.450 -0.186  0.197
 0.452 -0.0509 -0.235
-0.187  0.230 -0.904
-0.320 -0.116  0.315
-0.358  0.131  0.140
 0.354  0.141  0.169
 0.208 -0.00848  0.561
0.00976 -0.303 -0.493
-0.398 -0.234  0.216
 0.193  0.152  0.879
-0.453  0.153 -0.235
-0.238  0.301 -0.796
-0.179  0.255 -0.671
-0.144  0.291  0.696
 0.194 -0.270  0.107
-0.300 -0.225 0.0353
 0.459 -0.0940  0.150
-0.242 -0.280  0.489
 0.295 -0.0497  0.661
 0.197 -0.267 -0.247
-0.375 -0.174  0.466
 0.185 -0.0745 -0.604
 0.359 -0.0405  0.129
-0.313  0.242 -0.373
 0.299 0.0655 -0.425
-0.479  0.279 -0.0862
-0.222 0.0876  0.550
-0.107 -0.244  0.611
 0.281 -0.0925 -0.679
-0.263  0.132 -0.527
0.0314 -0.137 -0.689
 0.107  0.305 -0.786
 0.155  0.227 -0.692
-0.258 -0.0894 -0.492
-0.340  0.118 -0.644
 0.186  0.234  0.894
-0.239 -0.191  0.652
0.0930  0.236  0.947
-0.230  0.300  0.626
-0.303 -0.235  0.488
 0.150  0.207 -0.929
 0.478  0.279 -0.0540
-0.182 -0.137 -0.758
 0.235 -0.244 -0.327
 0.131  0.310  0.752
-0.185 -0.273 -0.0540
-0.181  0.273  0.649
-0.169 -0.270 -0.407
-0.353 -0.205  0.157
-0.352 -0.231  0.391
 0.284 -0.177  0.617
-0.358  0.279 -0.0755
-0.311  0.195 -0.393
 0.257 -0.213  0.600
-0.0530  0.247  0.959
 0.372 0.0246 -0.555
 0.319  0.188  0.336
-0.288  0.313  0.568
-0.289  0.303  0.699
0.0317  0.141  0.713
 0.457 -0.198 -0.0539
 0.281 -0.282 -0.450
-0.153 -0.278  0.616
 0.268 0.0646  0.468
-0.309 -0.241 -0.494
-0.172  0.130 -0.887
 0.417 -0.0748  0.367
-0.272  0.248  0.476
-0.352  0.275 -0.154
 0.190  0.257 -0.888
-0.283 -0.234  0.110
 0.319 -0.281  0.331
-0.294  0.185 -0.462
-0.451 -0.142 -0.219
 0.366 -0.137 -0.108
-0.0881  0.304  0.893
-0.467 0.0239 0.0853
-0.367 -0.105 -0.000368
 0.468  0.110 -0.000351
-0.365 -0.201 -0.475
-0.366 -0.0833 0.0318
-0.167  0.167  0.907
 0.442  0.197  0.362
-0.105  0.133 -0.927
-0.366 0.0882 -0.0433
 0.379 -0.220  0.351
-0.366 -0.137 0.0211
 0.468 -0.0619 0.0103
0.0210  0.313 -0.913
 0.226 -0.0302  0.751
0.0102 -0.301  0.321
 0.365  0.184 -0.0862
-0.0114  0.109  0.931
 0.278  0.310 -0.581
 0.443 0.0455  0.288
-0.473  0.284 0.0316
0.0174 0.0331 -0.900
-0.0645 -0.296 -0.536
 0.110 -0.0844 -0.667
-0.445  0.209 -0.374
-0.251 -0.127 -0.496
 0.468 -0.0189 0.0532
-0.373 0.0565  0.556
 0.468  0.120  0.106
 0.395 0.00628  0.463
-0.419  0.301 -0.401
 0.347 0.0238 -0.237
-0.000661 -0.303 -0.322
 0.351 -0.105 -0.205
-0.401 -0.237 -0.211
 0.417 -0.161  0.347
-0.206 -0.234 -0.645
-0.458 0.0240  0.192
-0.483  0.234 -0.00367
 0.460  0.161  0.175
 0.465 -0.148 -0.139
-0.468 -0.00819 -0.107
-0.290  0.127 -0.752
 0.438 -0.0404 -0.321
 0.346 -0.115  0.214
 0.206 0.0657 -0.612
-0.290 -0.0514  0.402
 0.215  0.320  0.697
-0.387  0.321  0.268
-0.468 -0.178 -0.0540
-0.462  0.131  0.174
-0.255 0.0558  0.488
-0.348 -0.105 -0.226
-0.177 -0.206  0.562
-0.129  0.196  0.675
 0.353 -0.148 -0.190
 0.252  0.278  0.789
0.0682 -0.297  0.193
 0.141  0.340  0.705
0.0317 -0.299 -0.0968
 0.153 0.0649 -0.669
-0.378 -0.122 -0.498
-0.425  0.121 -0.396
0.0316 -0.348  0.525
-0.424 -0.228 0.0675
 0.289 -0.172  0.405
-0.00955  0.438  0.461
-0.253  0.207  0.507
0.0514 -0.293  0.621
-0.177 -0.276 -0.179
-0.406 -0.199  0.337
 0.415  0.292  0.410
 0.474  0.199 0.0960
0.0355 -0.339  0.449
-0.126 0.0805  0.880
 0.427  0.321 0.0318
-0.151 -0.0834 -0.801
-0.138 -0.250 -0.682
 0.257 -0.252  0.538
-0.398  0.321 -0.226
-0.000381 0.0228  0.691
 0.342  0.273 -0.210
-0.399  0.319 -0.129
-0.0677 -0.0859  0.817
 0.222 -0.213 -0.533
 0.373  0.310  0.484
-0.341  0.318 -0.567
 0.437  0.301  0.281
 0.343 -0.276  0.234
 0.343 -0.119 -0.569
 0.128 -0.000561 -0.847
-0.267 0.0691  0.748
-0.280 -0.215  0.305
-0.0564 -0.254 -0.718
 0.467  0.163 -0.0325
-0.432 -0.0804 -0.339
-0.137  0.303 -0.885
-0.340  0.268  0.226
 0.396  0.321 -0.226
-0.0219  0.186 -0.974
-0.220  0.206 -0.865
 0.144 -0.0525 -0.649
 0.326  0.132 -0.683
-0.145  0.271  0.899
 0.321 -0.0951 -0.339
-0.138 -0.221  0.695
-0.143 -0.286 0.0496
-0.146  0.192 -0.703
-0.290 -0.190 -0.623
-0.360 -0.260  0.277
-0.415  0.184 -0.451
-0.225 -0.135  0.695
-0.385 -0.210 -0.388
 0.316  0.268 -0.716
-0.300  0.137  0.734
 0.339 -0.185  0.235
-0.125 -0.268  0.535
 0.113 -0.212 -0.740
-0.266 -0.239  0.171
 0.350 -0.0808  0.543
-0.0597 -0.330  0.533
 0.356  0.314 -0.549
 0.394 -0.242  0.192
 0.403  0.262  0.495
-0.348  0.316 -0.421
-0.264 -0.243 -0.0790
-0.405  0.257 -0.524
-0.280 -0.231 -0.229
-0.0779 0.0753  0.902
-0.295  0.259 -0.440
-0.267  0.112  0.769
 0.419 -0.224  0.159
-0.286 -0.158  0.409
0.0320  0.222  0.728
-0.452  0.273  0.282
-0.467  0.209 -0.214
0.00985 -0.348  0.566
-0.386 -0.0338 -0.497
 0.240 -0.256 -0.0754
