ply
format ascii 1.0
element vertex 2048
property float x
property float y
property float z
end_header
 0.332 -0.158 -0.254
-0.370 0.0512  0.923
-0.359 0.0485 -0.913
 0.379 -0.232  0.608
-0.285  0.286  0.112
 0.330 -0.0261 -0.935
-0.303 -0.185 -0.330
 0.309  0.233  0.214
-0.165 -0.175  0.435
 0.165  0.146  0.924
0.0184  0.153 -0.535
-0.0283  0.255  0.516
 0.180 -0.182  0.155
0.0832  0.287 -0.142
-0.367 -0.125 0.0869
-0.0463 -0.164 -0.772
-0.399  0.123  0.532
 0.366  0.159  0.593
 0.371 -0.258 -0.631
-0.271  0.201 -0.263
-0.0679 -0.132  0.790
 0.378 0.0873 -0.524
 0.415  0.163 -0.142
-0.0140 -0.184 -0.136
-0.394 0.0642 -0.568
-0.373 -0.254 -0.658
-0.0138 0.0820 -0.980
-0.373 -0.165  0.685
0.0507 -0.185 -0.448
 0.387 -0.0574  0.349
-0.111  0.172  0.801
0.0183  0.315  0.198
 0.320 -0.100  0.870
 0.116 -0.168  0.502
 0.394 -0.0275 0.0582
 0.202  0.123 -0.738
-0.153  0.126 -0.750
-0.100 -0.182  0.177
-0.403 -0.00212 -0.154
-0.406 0.0773  0.253
-0.268  0.283  0.370
 0.200  0.167 -0.356
-0.186 0.00471  0.608
 0.165 -0.114 -0.653
 0.212  0.280  0.434
-0.206 -0.0815 -0.610
 0.209 -0.0156  0.675
 0.111 -0.122 -0.944
-0.0355 0.0195  0.964
-0.264 -0.156 -0.860
-0.143  0.300 -0.0702
-0.380 -0.0923  0.414
 0.368  0.119  0.822
 0.264  0.291 -0.00623
 0.104  0.184  0.683
 0.379 -0.0487 -0.718
-0.0354  0.202 -0.324
-0.230 -0.184 -0.0820
-0.326  0.169  0.737
 0.201 0.0302  0.456
 0.270 -0.104 -0.458
-0.218  0.151 -0.470
 0.212 -0.183 -0.0605
-0.403 0.0608 -0.357
-0.249 -0.121  0.896
-0.387  0.110 0.0474
 0.377  0.149  0.389
 0.396 0.0640 -0.323
 0.117 -0.119  0.866
-0.100 -0.185 -0.319
-0.211  0.210  0.579
-0.0999 -0.102 -0.956
 0.374 -0.0439  0.549
-0.0562 -0.158  0.595
-0.376 -0.0699 -0.718
 0.234 -0.181  0.349
-0.379 -0.114 -0.492
 0.180 0.0929 -0.932
-0.219 0.0103  0.420
0.0399 -0.181  0.306
-0.316 -0.258  0.512
-0.262 -0.181  0.274
 0.148 -0.185 -0.265
0.0292  0.133 -0.793
 0.254  0.243 -0.183
 0.399 0.0748  0.205
 0.266 -0.160 -0.836
-0.319  0.225 -0.0927
-0.398 0.0158  0.683
 0.353  0.145 0.0510
0.0184 -0.183 0.0473
-0.178 0.0588 -0.924
-0.338  0.111 -0.751
 0.352 -0.136  0.187
0.00751  0.312 0.0152
-0.186 -0.184 -0.470
 0.223 0.0385 -0.589
 0.396 -0.00886 -0.136
 0.377 -0.208  0.438
-0.204 0.0352  0.952
0.0938 -0.151  0.672
-0.0571 -0.177 -0.578
-0.121  0.310  0.295
 0.375 -0.0658  0.716
 0.169  0.308  0.134
-0.222 -0.127  0.727
 0.280 0.0365  0.943
-0.323 -0.0764  0.563
 0.344  0.101 -0.806
0.0219  0.306  0.363
-0.373  0.164  0.382
-0.132  0.311 0.0907
 0.115 -0.164 -0.793
-0.250  0.136 -0.621
-0.428  0.147 -0.185
-0.327  0.213  0.242
-0.0749  0.187  0.652
 0.256  0.177  0.706
-0.218 -0.0340 -0.756
0.0373  0.167  0.842
-0.244 -0.0397 -0.469
 0.376 -0.112 -0.566
-0.252  0.157  0.876
-0.389 -0.0728  0.259
 0.155  0.307  0.292
-0.121  0.252 -0.213
-0.388 -0.0699 -0.287
 0.137 0.00580  0.958
 0.211  0.213  0.571
-0.364 -0.0680  0.822
-0.219 -0.182 0.0904
-0.374 -0.110 -0.0605
 0.223 -0.141  0.747
 0.327 -0.164 0.0474
 0.223 -0.0329 -0.758
 0.381 -0.0696 -0.373
 0.348 -0.142 -0.0928
 0.201  0.150 -0.502
 0.280 -0.230 -0.524
-0.100  0.148 -0.620
 0.320  0.120 -0.664
 0.104  0.227 -0.265
 0.272 -0.251  0.522
-0.285 -0.246 -0.552
-0.197 -0.167 -0.729
-0.122 -0.0831  0.931
 0.115  0.147 -0.631
-0.111  0.136  0.933
-0.00319 -0.175  0.435
-0.168  0.274  0.460
-0.404 -0.00454  0.144
-0.322 -0.174 -0.179
-0.277 -0.0526 -0.945
0.0720  0.164 -0.395
 0.327  0.175 -0.272
-0.408 0.0377  0.425
-0.186 -0.125  0.576
-0.369 -0.0750 -0.852
 0.288 -0.0729  0.435
 0.180 -0.186 -0.405
 0.313  0.214  0.485
-0.111 -0.183 0.0150
 0.318  0.136 -0.404
-0.164  0.176 -0.353
 0.274 -0.195 -0.691
 0.188 -0.0599  0.554
0.0399 -0.171 -0.674
 0.394 0.0694  0.683
-0.0786  0.154 -0.448
-0.186 -0.185 -0.222
-0.197  0.180  0.704
 0.166 -0.0384 -0.502
-0.305 0.00511 -0.642
-0.00310 -0.162 -0.898
-0.319  0.213  0.488
-0.291 -0.183  0.412
0.0882 0.00545 -0.928
-0.324 -0.144 -0.615
 0.202 -0.0367 -0.967
 0.115 -0.178 -0.556
-0.276 -0.228  0.636
0.0970  0.249  0.521
 0.397 0.0741 -0.0424
 0.326  0.197 -0.0604
 0.309  0.242  0.342
-0.256  0.295 -0.0118
 0.275 -0.173  0.638
-0.366  0.120 -0.459
0.0292 -0.185 -0.298
 0.115 -0.184 -0.147
-0.402 -0.0199 0.0222
 0.399 0.0322  0.455
 0.390 -0.0373 -0.254
-0.251  0.109 -0.836
-0.143 -0.163 -0.857
 0.127  0.306 -0.00440
-0.229  0.304  0.241
 0.270 0.0272  0.565
0.0615 -0.182  0.187
-0.288  0.143 -0.367
0.0107 -0.0636 -0.989
 0.375 -0.00309  0.828
-0.0894 -0.181  0.295
-0.0679 -0.185 -0.459
 0.374 -0.172 -0.753
-0.382  0.116 -0.0711
 0.377 0.00735 -0.610
 0.302  0.247 0.0977
 0.148  0.171  0.801
 0.277  0.152  0.887
-0.229  0.258 -0.166
-0.399 0.00490 -0.459
0.0186 -0.0981  0.924
0.00759  0.145 -0.675
-0.211 0.0249 -0.559
 0.321 -0.169 -0.373
-0.344  0.175  0.134
-0.381  0.106  0.823
-0.304 -0.182  0.166
-0.372 -0.180 -0.749
-0.340  0.178  0.613
 0.223 -0.0787  0.925
-0.304 -0.183 0.00421
-0.272 0.0151  0.521
 0.148 -0.183 0.0473
-0.330  0.204 0.0258
 0.245 -0.184 -0.190
-0.377 -0.189  0.575
-0.294 -0.167 -0.443
 0.402 0.0481  0.317
 0.394 0.0264 -0.427
 0.392 -0.0377  0.220
 0.337 -0.153  0.295
-0.122 -0.184 -0.104
-0.0139  0.303 -0.0921
-0.262 -0.0812  0.377
 0.373 -0.0317 -0.826
 0.298 0.0781 -0.924
 0.325 -0.157  0.542
 0.288 -0.00663 -0.671
-0.0133  0.252 -0.225
 0.136  0.118 -0.825
 0.193 -0.0566  0.385
0.0218  0.205  0.607
 0.362 -0.176 -0.479
-0.393 0.0361 -0.696
-0.329 -0.0332 -0.543
 0.148 -0.181  0.284
-0.0354  0.118 -0.879
0.0830 -0.183 -0.0389
 0.201  0.287 -0.101
 0.256 -0.182  0.231
 0.223  0.143 -0.610
-0.0890 0.00225 -0.934
0.0191  0.113  0.931
-0.0893  0.314  0.187
 0.356  0.157  0.271
 0.302 -0.0320 -0.528
-0.165 -0.176 -0.588
-0.186 -0.0815  0.479
-0.277 -0.236 -0.695
 0.396 0.0716 -0.218
 0.308 -0.0419  0.640
-0.382 -0.0870 -0.391
 0.166 0.0159 -0.686
 0.400 0.0673  0.101
-0.335 -0.0467  0.923
 0.183 -0.159  0.591
-0.404 0.0267 -0.254
-0.00322  0.181  0.726
-0.0815  0.298  0.410
-0.165 -0.128  0.823
 0.209 -0.125 -0.913
-0.178 -0.0296 -0.975
-0.197 -0.185 -0.352
-0.357  0.144 -0.265
-0.377 -0.178  0.467
 0.108  0.294  0.415
0.0624 -0.134  0.782
-0.244 -0.0282  0.684
-0.377 0.00638  0.543
-0.206 0.00474 -0.664
-0.404 -0.00338  0.330
 0.105 -0.178  0.403
-0.314 -0.137  0.765
 0.402 0.0801  0.543
 0.288 -0.103 -0.730
 0.353  0.156  0.720
-0.197 -0.182  0.198
 0.277 -0.182  0.134
 0.389 -0.0475 -0.0389
-0.379 -0.222 -0.535
 0.223  0.304  0.220
 0.380 -0.157  0.672
-0.355  0.117 -0.641
-0.316 -0.00661  0.425
-0.0131 -0.147  0.710
-0.344 -0.153  0.335
-0.141  0.115 -0.846
 0.374 -0.0956 -0.178
 0.360 -0.161 -0.657
-0.109  0.228  0.562
-0.316 -0.0912  0.658
 0.201  0.212 -0.270
-0.175  0.149 -0.556
-0.271 -0.114 -0.757
 0.381 -0.0597 -0.481
 0.358 0.0977  0.914
 0.202 -0.125 -0.774
-0.338  0.182 -0.179
 0.187 -0.103  0.468
-0.199 -0.112 -0.933
-0.401  0.102  0.642
0.0828  0.312 0.0799
-0.401 0.0898  0.154
 0.243  0.168  0.800
 0.350 -0.0244  0.917
-0.305  0.131 -0.545
 0.375 -0.107  0.438
-0.0975 -0.169 -0.694
 0.158  0.255 -0.195
 0.328  0.189 -0.165
-0.0679 -0.184 -0.211
-0.0891  0.310 0.00452
-0.0885 -0.169  0.487
-0.386 -0.00585 -0.793
 0.288  0.132 -0.545
-0.176 -0.181  0.328
 0.347 -0.110 -0.866
 0.313 -0.137  0.763
0.0971  0.155 -0.488
-0.0463 -0.183 -0.0497
 0.377 -0.254  0.517
-0.341  0.138  0.898
 0.202 -0.127  0.834
 0.272 -0.252 -0.621
 0.299 0.0162  0.426
-0.377 -0.103 -0.150
-0.229  0.170  0.790
 0.285 -0.218  0.440
0.0879 0.0898 -0.959
-0.377 -0.104  0.173
-0.100 -0.151  0.672
 0.289  0.263 -0.105
-0.317 -0.179 -0.0865
0.0532 0.0337  0.960
-0.0999  0.101 -0.935
 0.380 0.0567 -0.739
 0.104  0.312  0.220
-0.356 0.0894 -0.835
 0.337  0.176  0.135
-0.406 0.0268 -0.0712
-0.374 -0.0782  0.736
-0.0786  0.142 -0.707
-0.394 0.0994  0.736
-0.229  0.125 -0.707
 0.165 -0.0276 -0.610
-0.186 0.0261  0.511
 0.319 -0.0653 -0.613
 0.105 -0.185 -0.362
-0.312 -0.103  0.468
 0.223 -0.185 -0.308
0.0292 -0.178 -0.567
 0.221  0.297  0.347
-0.0885 -0.179  0.394
-0.0355  0.314 0.0906
-0.0247  0.314  0.274
 0.187 0.0153  0.597
-0.365 -0.0694 -0.631
0.0300 -0.158  0.595
 0.277  0.184  0.618
 0.191  0.185  0.651
-0.261 0.0768 -0.938
 0.371 -0.238 -0.538
-0.390 0.0266  0.791
 0.320 -0.140  0.381
0.0398  0.279  0.465
-0.280 -0.00792  0.603
 0.379 0.00449  0.619
-0.0355  0.161  0.887
-0.219 -0.183 0.00419
 0.245 -0.183 0.0366
-0.186 -0.0815  0.651
-0.206 -0.114 -0.513
0.0830  0.139 -0.728
 0.223  0.302 0.0691
-0.197  0.307  0.145
 0.297 -0.183 -0.0389
-0.287 0.0406  0.936
-0.114 0.0522  0.936
-0.175  0.301  0.359
-0.378  0.144  0.296
-0.0355 -0.182  0.231
-0.0463 -0.182  0.112
-0.0140 -0.186 -0.395
 0.376 -0.112  0.598
0.0505  0.115 -0.889
0.00762  0.155 -0.447
 0.250  0.113 -0.805
 0.166 -0.135 -0.470
 0.164 0.0175 -0.896
-0.409 0.0797  0.339
 0.136 -0.168 -0.709
-0.186  0.211 -0.280
-0.250  0.257  0.476
-0.262  0.183  0.640
 0.137 -0.0753  0.933
-0.197 -0.0506  0.940
-0.273 -0.185 -0.244
0.0292 -0.163 -0.804
0.0184 -0.184 -0.211
 0.378  0.150  0.507
 0.283 -0.0923 -0.921
 0.280 -0.247  0.604
-0.176  0.305 0.00435
-0.344 -0.144 -0.817
 0.356 -0.0778  0.801
 0.187 -0.167  0.414
 0.317 0.000833  0.504
 0.360 0.0560 -0.877
-0.312 -0.175 -0.524
-0.317  0.230  0.408
 0.233  0.151 -0.427
-0.186 -0.0600  0.393
 0.327 -0.175 -0.570
 0.288  0.253  0.418
-0.362 -0.129 -0.240
-0.376 -0.0604  0.489
-0.157  0.189  0.634
 0.370 -0.101 -0.298
-0.349 -0.148  0.256
 0.374 -0.0963  0.123
-0.337 -0.255  0.592
 0.397 -0.00493  0.134
-0.0840  0.284 -0.152
 0.137 -0.139  0.757
0.0113 0.0209 -0.933
-0.295 -0.165  0.688
 0.271 -0.103  0.673
 0.310  0.233 0.0187
 0.137  0.150 -0.556
 0.125 -0.0467 -0.980
-0.371  0.137  0.209
-0.154  0.163  0.866
-0.110  0.210 -0.301
-0.197  0.136  0.927
-0.403 0.0738 -0.136
-0.335  0.207  0.329
-0.306 -0.220 -0.625
 0.166 -0.0923 -0.567
-0.290  0.280  0.199
-0.0890  0.175 -0.373
-0.143 -0.182  0.112
 0.158 -0.162 -0.858
 0.377 0.0846 -0.603
-0.0570  0.152 -0.556
-0.376 -0.0253  0.621
0.0830  0.177  0.759
 0.126 0.0799  0.926
0.0506  0.307 -0.0486
-0.375 -0.120  0.609
-0.206 -0.0815 -0.696
 0.357 -0.130 -0.0173
 0.317 -0.0797  0.512
 0.385 0.0258  0.758
 0.280  0.155 -0.341
 0.287  0.117 -0.739
-0.111 -0.186 -0.395
0.0612  0.258 -0.209
-0.397  0.131  0.446
 0.241 -0.00594 -0.491
-0.122 -0.181 -0.513
-0.311 -0.107 -0.904
-0.294 -0.183 0.0797
-0.0140 -0.181  0.360
-0.240 -0.129  0.801
-0.262 0.0149 -0.715
-0.0463 -0.111  0.888
-0.256  0.284 -0.0867
-0.312 -0.123 -0.694
 0.158  0.152 -0.437
-0.240 0.00643 -0.915
 0.234  0.248  0.498
 0.223 0.0973  0.921
-0.404 -0.00346  0.233
-0.230 -0.157  0.376
 0.126  0.299 -0.0808
 0.165 -0.0600 -0.718
 0.332 -0.158 -0.179
 0.356  0.138 -0.0963
-0.143 -0.164 -0.782
 0.277 -0.177 -0.442
 0.187 -0.114  0.651
-0.122 -0.163  0.554
-0.294  0.136 -0.471
-0.00319 -0.124  0.826
0.0909  0.148  0.926
-0.0464 -0.0473  0.934
0.0506  0.312  0.295
-0.219  0.147 -0.394
-0.0658 -0.0450 -0.990
 0.369 -0.230 -0.707
 0.234 0.00640 -0.915
-0.374 -0.111 0.0151
-0.368 -0.124  0.529
-0.379 0.0159 -0.621
 0.176  0.178  0.723
 0.365 -0.0119  0.402
-0.358 -0.135 -0.334
0.0344  0.221 -0.287
-0.374 -0.120 -0.564
-0.0998  0.267  0.486
-0.398 -0.0164 -0.384
-0.176 -0.150  0.672
 0.115  0.215  0.583
 0.349  0.126 -0.470
 0.161  0.260  0.490
 0.295 -0.168 -0.761
 0.299 -0.147 -0.509
 0.362 -0.115 -0.437
-0.316 -0.0320 -0.703
 0.115 -0.182  0.112
-0.186 -0.0492  0.543
 0.277 -0.184 -0.125
 0.223  0.103 -0.875
 0.370 -0.103 -0.772
 0.104  0.195 -0.330
-0.186 -0.157  0.511
 0.403 0.0803  0.381
 0.399 0.0670 -0.114
-0.143  0.153 -0.492
 0.387 0.0540 -0.667
-0.219 -0.164 -0.804
-0.197 -0.172 -0.653
 0.187 0.00473  0.522
-0.284 -0.114 -0.501
-0.0569  0.308  0.337
-0.295  0.208  0.556
-0.288  0.279  0.274
 0.274 -0.143  0.436
 0.378 0.0981 -0.394
 0.306 0.00518 -0.589
 0.374 -0.0961  0.273
-0.317 -0.104  0.883
0.0754 -0.159 -0.895
-0.270 0.00419 -0.525
-0.353  0.152 -0.0173
-0.371 -0.184 -0.672
 0.288  0.276  0.161
 0.386 0.0174 -0.534
-0.284 -0.187 -0.746
 0.373 -0.0434  0.470
 0.368  0.119 -0.287
 0.284  0.213  0.549
-0.330 -0.179  0.627
-0.143  0.151 -0.415
-0.284 -0.218  0.566
 0.373 -0.158  0.486
-0.393 -0.0555 -0.218
-0.294  0.123 -0.675
-0.230 -0.135 -0.445
-0.325 -0.187  0.512
 0.245 -0.103  0.376
0.0506 -0.0373  0.936
-0.326  0.159  0.833
-0.0140 -0.181 -0.513
 0.400 0.0161 0.00430
 0.359 -0.0922 -0.664
-0.272 -0.226  0.463
-0.367  0.154  0.683
-0.292  0.233 -0.188
 0.256 -0.0284  0.390
-0.0355 -0.171 -0.664
0.00378 -0.124 -0.956
0.0610 -0.0164 -0.990
 0.185 -0.164  0.501
-0.154 -0.181  0.252
-0.394 -0.0576  0.101
 0.158  0.129 -0.685
 0.157 -0.174 -0.621
0.0291  0.150 -0.610
0.00743  0.177 -0.375
 0.375  0.137  0.658
-0.0355  0.137 -0.760
-0.164  0.309  0.220
-0.272  0.116 -0.771
-0.387 -0.0799  0.328
-0.358 -0.0192 -0.922
-0.0894  0.131 -0.804
 0.385  0.126  0.325
-0.182 -0.111  0.904
-0.356  0.179  0.543
-0.409 0.0587  0.489
0.0615 -0.172  0.456
-0.408 0.0480 -0.00648
-0.380 -0.0289  0.389
-0.132  0.179  0.726
 0.333  0.202  0.410
 0.270  0.286  0.302
 0.342 -0.103  0.659
-0.396 -0.0476 -0.0712
-0.304 0.0919 -0.889
 0.402  0.101  0.468
-0.381 0.0631 -0.771
-0.172  0.239  0.533
-0.348 -0.147 -0.409
 0.334 -0.150 -0.814
 0.375 0.0551  0.862
 0.234 0.0260 -0.694
-0.00230 -0.168  0.502
-0.0737 -0.147 -0.914
 0.298  0.169  0.758
-0.251 0.0400 -0.610
-0.262 -0.0212  0.943
-0.132 -0.137  0.766
 0.395 -0.0183  0.296
 0.195 0.0226 -0.529
 0.340 -0.171  0.620
 0.212 -0.0704 -0.457
 0.277 -0.181  0.295
-0.403 0.0341  0.612
 0.126  0.108 -0.890
-0.177  0.145 -0.622
 0.275  0.210 -0.237
-0.123 -0.117  0.873
 0.198 0.0311  0.956
 0.373  0.124  0.170
-0.377  0.111 -0.394
 0.398 0.0801  0.618
 0.389 -0.00510  0.683
 0.394 0.00484 -0.351
-0.0356 -0.163 -0.837
 0.115 -0.186 -0.427
-0.379 -0.0491 -0.502
0.0507 -0.184 -0.125
0.0830 -0.185 -0.222
0.0184 -0.183 -0.0281
0.0507 -0.182  0.123
 0.180 -0.184 -0.179
0.0936  0.313  0.155
 0.264 0.0351  0.486
-0.229  0.302 0.0475
-0.318 -0.0298  0.512
 0.147  0.309 0.0693
-0.0785  0.303 -0.0813
-0.0138  0.281 -0.166
 0.320 -0.0599  0.380
 0.368  0.129 -0.0101
-0.348 -0.257 -0.579
-0.152  0.133 -0.685
-0.395 0.0873 -0.233
-0.0247  0.170  0.823
-0.218  0.288  0.411
-0.294  0.275 0.0367
-0.373 -0.242  0.476
0.0856  0.306  0.352
 0.180 -0.182  0.220
 0.148 -0.181  0.349
 0.148 -0.183 -0.0605
0.0291 -0.152  0.661
 0.358  0.136 -0.225
-0.229  0.301  0.306
 0.115 -0.183 -0.491
 0.323 -0.0814  0.576
 0.385  0.106  0.744
-0.0576 0.0812  0.930
 0.374 -0.199  0.553
 0.265 0.0149  0.628
 0.244 -0.0214  0.944
 0.319  0.159  0.833
-0.208  0.119 -0.782
 0.236 0.0669 -0.946
 0.332 -0.159  0.112
 0.256 -0.128  0.800
 0.115  0.165  0.856
 0.170 -0.122  0.905
 0.105 -0.157  0.610
-0.272 -0.0931  0.705
 0.212  0.162  0.855
-0.154 -0.00325  0.956
-0.373 -0.178 -0.588
-0.383  0.106 -0.308
-0.194 -0.180 -0.532
 0.333 -0.205  0.502
 0.320 -0.0966 -0.540
0.00759 -0.167 -0.729
 0.396 0.00866 -0.211
-0.401 -0.00586 -0.308
 0.381 -0.0801 0.0258
 0.287  0.136 -0.459
-0.148  0.273 -0.160
-0.283 -0.181  0.349
-0.100 -0.173 -0.632
-0.00320  0.187  0.662
-0.0210  0.294  0.426
-0.206 -0.0492 -0.556
-0.00319 -0.182  0.177
-0.154 -0.184 -0.168
 0.188 -0.0599  0.619
0.0831 -0.183 0.0581
-0.0248 -0.185 -0.330
-0.122 -0.185 -0.244
-0.0247 -0.185 -0.265
-0.219 -0.185 -0.276
 0.234 -0.186 -0.373
-0.0355  0.315  0.155
-0.244  0.145 -0.540
 0.309  0.175  0.672
-0.301  0.262 -0.0389
 0.287 0.0914  0.914
-0.408 0.0579  0.101
-0.397 0.0672 -0.470
 0.361 -0.0474 -0.570
 0.299 -0.155  0.692
-0.380 0.00486  0.478
 0.380 0.0260  0.522
-0.358 -0.186 -0.483
-0.273 -0.186 -0.384
-0.322 -0.145  0.565
 0.340  0.168  0.213
-0.204 -0.158 -0.875
-0.270 0.0245  0.460
-0.207  0.233 -0.227
 0.260 -0.115  0.862
 0.316 -0.125 -0.633
 0.259  0.187 -0.292
 0.325 -0.221 -0.612
0.0182  0.236  0.551
-0.319 -0.107 -0.452
-0.0356  0.155 -0.492
 0.233  0.303  0.155
0.0830 -0.166 -0.739
 0.158  0.299  0.380
-0.363  0.117 -0.556
 0.377 -0.0890 -0.0819
-0.322 -0.0818 -0.589
-0.230 -0.184 -0.179
-0.0787 -0.184 -0.147
-0.219 0.0992 -0.901
 0.202 -0.183 0.0797
0.0722  0.151 -0.567
 0.172 0.0353 -0.621
-0.262 -0.182  0.209
-0.396 -0.0477  0.187
-0.289  0.259 -0.133
 0.320  0.213  0.270
-0.367 -0.122 -0.669
-0.408 0.0374  0.187
-0.0607  0.178  0.744
 0.187 -0.0276  0.446
-0.378 -0.0922  0.662
 0.193 -0.0697  0.696
 0.320 -0.215  0.655
-0.348  0.160 -0.0927
-0.362  0.179  0.446
-0.206 -0.0923 -0.761
-0.297 -0.129  0.387
 0.165 -0.175 -0.524
 0.315 -0.0599 -0.689
 0.360 0.0999 -0.703
 0.333 -0.156 -0.314
-0.326  0.215  0.182
 0.265 0.0236 -0.549
-0.166 0.0791  0.924
-0.139 0.0681 -0.967
 0.274 -0.0232  0.465
-0.301 0.00322 -0.581
-0.375 -0.0802 -0.793
-0.218  0.179 -0.328
-0.336  0.143 -0.332
-0.330 -0.219  0.438
 0.272 -0.0174 -0.728
 0.312 -0.135  0.479
-0.273 -0.0391  0.449
 0.293  0.102 -0.844
-0.380 0.00375  0.844
 0.385 0.0823 -0.455
 0.320 -0.253 -0.563
 0.262 -0.144 -0.892
-0.0470 0.0418 -0.925
 0.365 -0.115  0.526
-0.0462  0.147 -0.653
-0.330  0.191 -0.242
-0.00230 -0.137  0.766
-0.111  0.305  0.360
 0.371 -0.0574  0.637
-0.240 0.0219  0.633
-0.165 -0.183 -0.0174
 0.187 -0.125  0.543
-0.0894 -0.163 -0.815
0.0938 -0.172 -0.653
-0.142  0.294  0.412
 0.297 -0.0768  0.918
-0.00324 0.0597  0.936
-0.349 -0.148  0.148
 0.399 0.0162  0.187
 0.179  0.299 -0.0488
0.0831 -0.181  0.349
0.0183  0.315  0.112
 0.162 -0.0953 -0.943
-0.0784  0.233 -0.259
-0.0894  0.165  0.866
-0.121 -0.0201 -0.985
 0.344 -0.114 -0.715
0.0507 -0.145  0.726
 0.381 0.00486 -0.782
-0.378 -0.210  0.650
-0.0247 -0.00693 -0.969
-0.247  0.230  0.534
-0.399 0.0287 -0.523
-0.286  0.167  0.786
-0.272 0.0923  0.916
 0.397 0.0192 -0.287
-0.404  0.111  0.393
-0.395  0.170 -0.143
-0.320 -0.0521  0.614
 0.345  0.123 -0.553
 0.275 -0.0365 -0.949
-0.155 -0.141 -0.909
-0.205 -0.0644  0.703
 0.363 -0.0490 -0.879
 0.358 -0.0469  0.865
-0.309 -0.188 -0.695
-0.143 0.00834 -0.917
-0.179  0.307  0.274
-0.207  0.283 -0.116
-0.328 -0.169 -0.262
 0.377 -0.178 -0.598
-0.375 -0.0613  0.546
0.0938 -0.163  0.554
 0.375 -0.0162 -0.672
-0.344 -0.153 0.0438
 0.335 -0.169 -0.711
-0.316  0.176  0.672
 0.280 -0.214 -0.578
 0.154  0.232  0.547
 0.317 -0.174  0.209
-0.384 -0.0785 -0.446
 0.402  0.136 -0.190
-0.378 -0.125 -0.730
 0.147  0.126 -0.749
-0.294 -0.125  0.816
0.0396 0.0657 -0.974
 0.360 -0.124 0.0690
-0.327 -0.102  0.719
 0.137 -0.128  0.812
 0.288 -0.185 -0.233
0.0722 -0.109  0.898
 0.371 -0.154  0.399
 0.399 0.0163  0.252
 0.255 -0.0571  0.700
 0.288  0.275  0.245
0.0722  0.195  0.628
-0.360  0.146 0.0797
 0.271 -0.0600 -0.492
-0.358  0.145  0.790
 0.148 -0.153  0.651
 0.292 -0.246 -0.680
-0.264 -0.0273  0.390
-0.316 -0.0583 -0.653
-0.0329  0.210  0.600
 0.328 -0.0235  0.591
-0.359  0.110 -0.696
-0.147 -0.0717 -0.957
-0.307  0.253  0.343
-0.344 -0.153 -0.0424
 0.126 -0.182  0.231
0.0399 -0.185 -0.352
 0.187 -0.0492  0.500
 0.147  0.207 -0.298
-0.111 -0.183 -0.0497
-0.0772 0.0662 -0.972
-0.406 0.0373 -0.200
 0.374 -0.0952 -0.243
-0.122  0.150 -0.567
 0.169 -0.163 -0.804
-0.354 -0.142 -0.103
 0.277 -0.185 -0.319
 0.202 -0.185 -0.254
-0.0247 -0.181  0.284
 0.212  0.304  0.274
-0.186 -0.114  0.403
-0.240  0.303  0.187
-0.394 -0.0575 -0.0173
-0.197  0.111 -0.847
-0.401  0.114  0.586
 0.212  0.301 0.0153
-0.176  0.173  0.780
0.0291  0.139 -0.739
-0.316  0.234 0.0698
 0.331  0.143  0.892
-0.373 -0.182  0.413
 0.398 0.00550 -0.0496
-0.276 -0.0578 -0.509
0.0829  0.125 -0.835
 0.276  0.128 -0.631
-0.304  0.107 -0.814
-0.394 0.0269  0.737
 0.274  0.289 0.0576
-0.0355  0.131  0.933
 0.232  0.146 -0.547
 0.348 -0.142  0.241
 0.390 -0.0268 -0.438
 0.353 -0.122 -0.505
-0.383 -0.0261  0.779
-0.337 -0.0615  0.396
-0.363 -0.0462  0.876
-0.380 -0.0167 -0.707
-0.323 -0.108 -0.539
 0.180 -0.00658 -0.739
 0.377 -0.0889  0.209
 0.385 -0.0655 -0.130
-0.0676  0.257 -0.209
 0.245 0.0384 -0.643
 0.173 -0.0792 -0.768
-0.268  0.272  0.424
 0.137 0.0620 -0.944
 0.355  0.179  0.453
-0.100 -0.0372  0.949
-0.332 0.0105  0.942
-0.324 -0.174  0.216
 0.309 0.0258 -0.916
-0.0354  0.105 -0.931
-0.230 -0.182  0.155
-0.283 -0.0678  0.925
 0.359 -0.122 -0.384
 0.389 -0.0371 -0.308
 0.373  0.124  0.116
-0.186 -0.184 -0.114
-0.0463 -0.183 0.0581
-0.382 0.0693  0.862
-0.154 -0.183 0.0473
-0.206 -0.114 -0.653
 0.166 -0.0599 -0.653
0.0399 -0.181 -0.513
0.0831 -0.185 -0.298
 0.245 -0.0923 -0.773
 0.202 -0.181  0.306
 0.212 -0.184 -0.136
0.0831 -0.175 -0.599
 0.245 -0.183 -0.0174
 0.180 -0.183 -0.0174
-0.408 0.0480 0.0474
-0.273 -0.163 -0.804
 0.169  0.309  0.187
-0.0893  0.314  0.134
0.0615 -0.181  0.241
 0.166 -0.0384 -0.556
-0.230 -0.181  0.317
0.0822 -0.0790 -0.960
 0.390 0.0990  0.253
-0.186 -0.00603  0.468
-0.408 0.0594  0.543
-0.0679 -0.181 -0.513
-0.358  0.143 -0.211
0.0506  0.314  0.241
0.0184  0.174  0.791
-0.206 -0.0815 -0.470
 0.125  0.160 -0.391
0.0345  0.295 -0.121
-0.0460  0.309 -0.0274
-0.389 -0.0272  0.726
-0.305 -0.00827 -0.935
 0.288 -0.181  0.369
-0.338 -0.240 -0.695
 0.233  0.292 -0.0598
-0.273 -0.183 -0.0389
-0.201 -0.00408  0.664
-0.00318  0.127 -0.835
 0.331 -0.262  0.543
 0.359 0.0273  0.927
-0.198  0.306 0.0906
 0.382 0.00451 -0.729
-0.0494 -0.122 -0.955
-0.374  0.131  0.133
-0.314 -0.135  0.510
 0.360 -0.124  0.349
 0.158 -0.00813 -0.957
 0.179 -0.148  0.693
 0.374 0.0265 -0.835
-0.290  0.144  0.912
-0.273 -0.184 -0.114
-0.371 -0.157 -0.525
-0.373 -0.208  0.521
 0.379 -0.0266  0.758
-0.226 -0.0551 -0.958
 0.245 -0.164 -0.775
-0.336 -0.207 -0.563
-0.240 -0.186 -0.435
 0.369 -0.0866  0.389
 0.223 0.00517  0.414
-0.375 0.0258 -0.868
-0.326 -0.165 -0.771
 0.331  0.143 -0.331
-0.269 -0.0285 -0.743
 0.330  0.190 -0.00292
-0.223 0.00499 -0.503
 0.305  0.240 -0.0389
-0.276 -0.208 -0.506
-0.219 0.0398  0.587
 0.335 -0.178  0.457
 0.201  0.173  0.769
-0.379  0.124 -0.126
-0.100  0.117 -0.878
-0.149  0.102 -0.917
-0.275 -0.136  0.433
0.0917  0.277  0.463
-0.111 -0.126  0.819
-0.197 -0.135  0.772
-0.408 0.0480  0.295
 0.234 0.0449  0.532
-0.356 -0.130  0.440
0.0397  0.195 -0.339
0.0184 -0.115  0.872
 0.272 -0.127  0.727
 0.317 -0.222 -0.719
-0.345 -0.122 -0.868
-0.312 -0.180  0.285
0.0255  0.156  0.903
 0.358  0.141  0.770
-0.175 -0.180  0.379
-0.331 -0.0638 -0.924
-0.143 -0.168 -0.718
 0.315 -0.119  0.822
 0.272 -0.188 -0.493
-0.375 -0.257  0.557
0.0300 -0.180  0.387
 0.374 -0.165 -0.528
-0.386 0.0770 -0.631
-0.154  0.213  0.583
-0.260 -0.133 -0.905
 0.269  0.146 -0.390
-0.327 0.00753  0.554
 0.331 -0.155 -0.442
 0.157 -0.185 -0.459
0.0291 -0.163 -0.858
 0.147  0.282  0.445
-0.281 -0.0552  0.647
 0.190 -0.0432  0.942
 0.342 -0.237  0.461
 0.331 -0.250  0.606
 0.327 -0.0197 -0.641
-0.142 -0.146  0.717
 0.148 -0.174  0.446
 0.382 0.0477  0.812
 0.375  0.106 -0.344
-0.374 -0.0270 -0.868
-0.366 -0.0474 -0.575
 0.317  0.219  0.166
-0.0463 -0.151  0.672
 0.276  0.272  0.373
 0.147  0.235 -0.240
-0.206 -0.0276 -0.707
-0.379  0.145  0.629
 0.230  0.147  0.915
0.0626 0.0549 -0.931
-0.308  0.247  0.134
 0.389 -0.0477 -0.179
-0.110 -0.158  0.602
-0.341  0.184  0.285
 0.201  0.118 -0.793
 0.222  0.265 -0.151
-0.348 -0.136  0.382
 0.323  0.187  0.569
 0.104  0.134 -0.775
-0.273 -0.255 -0.600
 0.336 -0.0754  0.447
 0.352  0.103 -0.752
-0.0679 -0.165  0.532
-0.287  0.165 -0.322
-0.186 -0.135  0.457
 0.385 -0.0652  0.166
-0.338 -0.0182 -0.607
-0.271  0.177  0.694
-0.378 -0.223 -0.610
 0.370 -0.0611 -0.617
-0.358 -0.136 -0.183
-0.312 -0.0870 -0.728
-0.208  0.163  0.855
 0.320 -0.212 -0.502
 0.136  0.276 -0.156
 0.200 -0.124  0.377
-0.00240 -0.0159  0.955
0.0723 -0.121  0.844
0.0937  0.171  0.812
 0.211  0.231 -0.226
 0.260 -0.0114  0.669
 0.388 -0.0114 -0.487
-0.284 -0.215  0.510
 0.370 -0.160  0.582
 0.391  0.121  0.575
-0.329  0.204 -0.136
-0.0245  0.158 -0.410
-0.0236  0.231 -0.268
 0.284 -0.208  0.494
-0.0390  0.275  0.472
 0.295  0.244 -0.156
 0.320 0.00753  0.554
 0.325  0.178  0.624
0.0572 -0.121 -0.954
 0.399 0.00540  0.371
-0.219 -0.127  0.845
-0.316  0.244  0.296
 0.334 -0.204 -0.676
-0.273 -0.114  0.661
 0.329 -0.0780 -0.914
 0.378 0.00497  0.566
-0.378  0.102 -0.502
 0.366  0.163 -0.148
-0.143  0.225 -0.262
-0.326 -0.232 -0.523
0.0290  0.105 -0.931
-0.363 -0.130  0.213
-0.250 -0.0673 -0.770
0.0940  0.154 -0.440
-0.315  0.135 -0.426
 0.396 0.0480 -0.373
-0.308 0.0576 -0.923
 0.152  0.199  0.610
 0.223 -0.160 -0.858
-0.381 -0.0373 -0.753
 0.191  0.112 -0.840
 0.219 -0.121  0.901
 0.377 -0.124 -0.632
-0.154  0.307 0.0475
0.0827  0.310 0.0153
-0.0390  0.233  0.558
 0.187 -0.103  0.597
 0.169 -0.184 -0.104
 0.223 -0.182  0.177
 0.277 -0.186 -0.395
-0.206 -0.0384 -0.643
 0.166 -0.114 -0.524
-0.327 -0.199  0.670
-0.0571 -0.184 -0.104
-0.0679 -0.181  0.338
-0.186 -0.0599  0.608
0.0830 -0.181  0.284
-0.111 -0.183 0.0689
-0.240 -0.183 0.0473
 0.313 -0.254  0.495
-0.0248 -0.183 -0.00658
 0.223 -0.182  0.123
-0.165 -0.185 -0.265
-0.154 -0.186 -0.416
-0.186 -0.125  0.629
-0.358 -0.0931  0.782
 0.105 -0.182  0.166
0.0184 -0.182  0.220
 0.303 -0.143 -0.867
-0.186 -0.183 -0.0605
0.0723 -0.184 -0.168
0.0399 -0.174 -0.621
-0.266  0.144 -0.432
-0.100 -0.165 -0.761
 0.309  0.132 -0.502
-0.0678  0.313  0.252
0.0577  0.220  0.579
 0.338 -0.254 -0.667
-0.0140 -0.174 -0.621
-0.219 -0.181  0.241
 0.401 0.0373 0.0474
-0.379 -0.0170  0.436
-0.327 -0.116  0.613
 0.371 -0.0812 -0.523
-0.366 -0.123 -0.288
 0.158  0.147 -0.599
 0.200  0.189 -0.313
 0.169  0.161  0.876
 0.126  0.179  0.726
 0.126  0.311  0.112
 0.234 -0.157 -0.444
-0.410 0.0802  0.446
-0.164 -0.158  0.602
 0.220 -0.0882 -0.941
-0.197 -0.00411 -0.940
 0.388 0.0962 0.0654
-0.309 -0.184  0.462
-0.326 -0.153 -0.564
 0.336  0.175 -0.212
 0.396 0.0824  0.159
 0.379 -0.251  0.564
-0.380 -0.0943 -0.344
 0.310 -0.104  0.701
 0.396 0.0736 -0.161
-0.108  0.197  0.620
 0.331  0.190  0.310
-0.389 -0.0721 -0.117
-0.379 0.0458 -0.825
-0.357 -0.0377 -0.665
0.0254  0.296  0.418
 0.367 0.0955 -0.657
 0.105 -0.146  0.717
-0.400 -0.0274  0.274
-0.380 -0.232  0.597
0.0794 -0.0745  0.935
0.00758 -0.163  0.554
-0.392 -0.0651 0.0294
-0.0248 -0.155  0.629
 0.330 -0.115 -0.589
 0.393 -0.0272 -0.0927
-0.241 0.0591  0.925
 0.375 -0.255 -0.584
 0.317 -0.174  0.156
0.0886 -0.0176  0.955
 0.393  0.124  0.428
-0.402 -0.00763 -0.212
-0.348 -0.0278  0.469
 0.325 0.0906 -0.876
-0.367 -0.0846 -0.535
-0.391 -0.0640 -0.173
 0.370 -0.205 -0.644
 0.276 -0.223  0.644
 0.381 -0.0798 0.0797
-0.250  0.233 -0.209
 0.361 -0.0941 -0.825
 0.244  0.181  0.661
 0.281  0.245  0.473
0.0901 0.0521  0.936
 0.157 -0.165 -0.750
 0.165 -0.157 -0.675
-0.0248  0.306  0.371
-0.371  0.103  0.892
 0.127  0.306  0.329
-0.327 -0.136  0.655
 0.374 0.0617 -0.785
-0.399 -0.0269 -0.254
-0.374 -0.143 -0.619
 0.242 0.0554  0.925
 0.318 -0.0433  0.483
 0.361 -0.0844  0.487
-0.230  0.294 -0.0495
-0.0927 0.0473 -0.924
 0.288 -0.103 -0.501
-0.379 -0.00560 -0.545
 0.265  0.132 -0.587
 0.347 -0.110  0.747
-0.175  0.151 -0.448
-0.227  0.296  0.355
-0.394 0.0961 0.00430
-0.392 0.0748  0.775
-0.0787 -0.0979  0.924
-0.262 -0.182  0.112
 0.256 -0.185 -0.276
 0.165 -0.114 -0.740
-0.393  0.121 -0.172
-0.273 -0.141  0.747
0.0723 -0.186 -0.395
-0.133 -0.182  0.209
-0.0750  0.154  0.911
 0.166 0.00473 -0.578
 0.115 -0.183 -0.00658
 0.148 -0.182  0.187
 0.324 -0.113  0.609
-0.313 -0.152 -0.854
0.0830 -0.163 -0.826
 0.261  0.297  0.119
-0.0786 0.00510  0.961
 0.279 -0.147 -0.722
 0.400 0.0268 -0.0927
-0.0247  0.151 -0.588
-0.286  0.188  0.602
0.0289  0.273 -0.180
 0.328 -0.164  0.338
-0.399 0.0894  0.209
-0.377  0.154  0.575
0.0613  0.237 -0.252
0.0722  0.181  0.715
-0.0364 -0.168 -0.709
-0.333  0.197 -0.0603
-0.0569  0.126 -0.835
-0.334 -0.155 -0.718
-0.403 -0.0112 -0.0450
 0.392 0.0478 -0.567
-0.312  0.240 0.00429
0.0614  0.302  0.392
-0.337 -0.261 -0.631
-0.122 -0.172  0.456
-0.111  0.138 -0.739
 0.348  0.181  0.532
-0.396 -0.0371 -0.341
-0.272 -0.157 -0.503
 0.256 -0.147  0.375
 0.189  0.133 -0.653
 0.243  0.278 -0.112
 0.191 -0.130  0.790
 0.192 0.0356  0.554
-0.406 0.0161  0.371
-0.273  0.121 -0.718
-0.133 -0.178 -0.556
-0.317 -0.179 -0.377
 0.383  0.102 -0.0891
-0.365 -0.216 -0.723
-0.154 -0.171 -0.674
 0.115  0.143 -0.686
-0.330  0.124 -0.604
-0.305 -0.0730  0.435
-0.314 -0.0740  0.505
-0.347  0.168  0.231
-0.276  0.285  0.316
-0.330 -0.187 -0.644
 0.360 -0.124 -0.147
-0.192  0.295 -0.0762
-0.0679 -0.123  0.834
-0.234  0.196 -0.290
-0.273 -0.185 -0.298
 0.403 0.0480  0.414
 0.331 -0.0160 -0.686
-0.283 -0.184 -0.158
 0.126 -0.184 -0.190
 0.188 -0.0168  0.565
 0.180 -0.185 -0.298
 0.187 -0.0923  0.425
 0.166 -0.103 -0.610
-0.186 -0.0384  0.500
-0.186 -0.0923  0.522
-0.206 -0.0384 -0.513
-0.0786 -0.185 -0.254
 0.126 -0.185 -0.308
-0.00318 -0.184 -0.0928
 0.148 -0.185 -0.352
 0.148  0.185  0.661
0.0723 -0.183 0.00419
-0.0892  0.313 0.0799
 0.266 -0.182 0.0904
-0.218 0.0806 -0.947
0.0721  0.147 -0.642
-0.0679 -0.183 0.00419
-0.0462  0.312 0.0475
0.00760 -0.186 -0.438
0.0614  0.154 -0.524
 0.279 -0.0605 -0.721
 0.147  0.310  0.231
 0.148  0.152 -0.513
-0.154 -0.182  0.155
-0.0571 -0.182  0.155
-0.111 -0.184 -0.470
 0.398 0.00544 0.0904
-0.132  0.312  0.177
-0.331 -0.00749  0.596
 0.202 -0.124 -0.446
 0.299 -0.194 -0.541
-0.327 -0.213  0.585
-0.207  0.247  0.508
 0.378 -0.0790 -0.416
0.0935  0.312  0.263
 0.390 -0.0477  0.263
-0.186 -0.114  0.694
-0.399 0.0798 -0.189
0.0615  0.185  0.672
 0.349  0.119 -0.599
-0.372  0.138  0.737
 0.315 -0.166 -0.663
 0.378 -0.0367 -0.521
 0.330  0.210  0.363
-0.384 0.0746 -0.675
-0.0248  0.176  0.770
-0.345 -0.0747  0.461
-0.378  0.134  0.253
-0.295  0.157  0.865
-0.380 -0.0955 -0.205
 0.165 -0.167 -0.567
-0.381 0.0726 -0.728
-0.262  0.163  0.834
 0.243  0.148 -0.470
-0.208  0.150 -0.513
-0.400 0.0815 -0.0927
-0.334 -0.164 0.0869
-0.206 -0.166 -0.599
-0.370 -0.118  0.342
 0.324 -0.203  0.422
 0.265 0.0939 -0.899
-0.350 0.0827 -0.878
 0.332 -0.158 -0.0497
 0.380 -0.0815  0.673
-0.154  0.168  0.822
-0.391  0.103 0.0905
 0.277  0.160  0.844
-0.0899  0.307 -0.0393
 0.363 -0.116 -0.341
-0.0906  0.155 -0.490
-0.272 0.0158  0.565
-0.377 -0.136  0.653
-0.345  0.197  0.381
-0.272 -0.117  0.852
 0.357 -0.130  0.144
 0.180 -0.144  0.737
-0.393  0.137  0.489
-0.132  0.290 -0.123
 0.378 -0.00422  0.488
 0.397 0.0887  0.294
-0.319 -0.0614 -0.510
 0.318 -0.0543 -0.571
-0.380 -0.0413 -0.818
-0.323 -0.186 -0.601
-0.154  0.142  0.930
 0.306 -0.181  0.263
-0.210 0.0341 -0.625
-0.358 -0.165  0.545
 0.297 -0.184 -0.179
-0.305 -0.0196  0.470
-0.217  0.147 -0.595
 0.140 -0.138 -0.916
-0.381  0.147  0.339
-0.309  0.247  0.220
 0.379 -0.198  0.660
 0.169  0.305 0.00434
 0.288 -0.183 0.0473
 0.390 -0.0267 -0.395
 0.264 0.0350 -0.603
-0.279 -0.253  0.591
 0.320 -0.0487  0.547
-0.0422 -0.0750 -0.970
-0.272 -0.189  0.661
-0.133 -0.180  0.370
-0.0463 -0.170  0.478
-0.143 -0.185 -0.319
-0.0678  0.170  0.823
 0.374  0.124  0.213
-0.330  0.204 -0.0173
 0.202 -0.181  0.263
-0.394 -0.0576  0.144
-0.111 -0.181  0.252
 0.165 -0.114 -0.696
 0.198 -0.00594 -0.491
-0.165 -0.163  0.554
-0.00319 -0.182  0.112
 0.356 -0.130 0.0258
0.0507 -0.163  0.554
0.0291 -0.184 -0.168
-0.00319 -0.164 -0.772
 0.202 -0.183 0.0366
 0.168  0.157 -0.388
 0.288 -0.202  0.608
0.0723 -0.178 -0.556
0.00753  0.314 0.0583
0.00753  0.308 -0.0505
 0.277 -0.184 -0.0820
-0.143 -0.173 -0.632
-0.186 -0.0169  0.414
-0.406 0.0267 -0.114
-0.292  0.242  0.472
 0.279 -0.0817  0.394
 0.346  0.152 -0.0388
-0.121  0.311  0.252
-0.363  0.127  0.855
-0.206 -0.00605 -0.589
-0.230 -0.0514  0.381
-0.387 -0.0692  0.376
-0.142  0.122 -0.804
 0.298  0.173  0.715
-0.206 -0.146 -0.556
-0.186  0.261 -0.177
-0.398  0.100  0.694
-0.229  0.129 -0.664
-0.359 -0.0744 -0.894
-0.351 -0.0785  0.595
 0.371 -0.210 -0.504
-0.0463 -0.175  0.435
-0.133 -0.181  0.328
-0.390 0.00461 -0.750
-0.360 0.0936 -0.792
-0.431  0.138 -0.143
-0.229  0.174  0.748
-0.0463 -0.144  0.737
 0.385 0.0941 -0.256
 0.171 -0.0811 -0.461
 0.327 -0.0614 -0.510
 0.304 -0.183 -0.276
-0.261 0.0951 -0.899
 0.352 -0.104  0.700
 0.123 0.0234 -0.905
 0.202 0.0343 -0.668
-0.116 -0.135 -0.924
0.0615  0.163  0.876
 0.369 0.0161  0.887
-0.132  0.248  0.519
-0.251  0.136  0.924
 0.299 -0.135 -0.464
-0.111  0.190 -0.339
 0.282  0.278 -0.0422
 0.308 0.00475  0.943
-0.382 -0.00682 -0.503
0.0577  0.242  0.536
 0.378 -0.0487 -0.760
 0.349 -0.0591  0.601
-0.275 -0.0147 -0.688
-0.366 -0.122 -0.373
-0.319 -0.178  0.372
-0.0678  0.183  0.694
-0.358 -0.125  0.488
0.0988  0.264 -0.190
 0.131  0.155  0.902
 0.180  0.301  0.338
-0.316 -0.182 -0.480
 0.152  0.187 -0.335
-0.218 -0.0156  0.948
 0.331 -0.114  0.431
 0.280 -0.258  0.564
 0.244  0.172  0.758
 0.365  0.115 -0.430
-0.164  0.239 -0.229
 0.234 -0.0106 -0.953
0.0324 -0.149 -0.916
 0.252  0.278  0.422
-0.368 -0.135 -0.769
-0.165 -0.170  0.478
 0.271  0.233  0.515
 0.275 -0.203 -0.732
0.0882  0.306 -0.0306
 0.176  0.106  0.924
-0.132  0.167 -0.377
-0.366 0.00546  0.918
 0.362 -0.205 -0.570
-0.401 -0.0184 -0.115
-0.316 -0.125  0.432
-0.342  0.136 -0.372
-0.383 0.0349  0.572
 0.201  0.250 -0.191
 0.272 0.0162  0.522
-0.266 -0.0139 -0.954
 0.331 -0.206  0.600
-0.390 -0.0263  0.685
 0.389  0.109  0.693
 0.191  0.152 -0.462
 0.350 0.0252 -0.916
-0.278 0.0223 -0.911
 0.291 -0.00795  0.603
-0.165 -0.0749  0.932
 0.163  0.285 -0.126
-0.346 -0.102 -0.710
 0.378 -0.158  0.446
0.0292  0.155 -0.482
 0.329 -0.172 -0.521
-0.402 -0.0199 0.0869
 0.335 -0.195 -0.744
0.0826 0.0919  0.929
-0.333 -0.164 -0.311
 0.334 -0.0140 -0.546
 0.300 -0.0327  0.404
-0.272 -0.0853 -0.474
0.0622  0.135 -0.769
 0.228  0.231  0.535
 0.137  0.153 -0.472
-0.122 -0.167  0.511
 0.223 0.0406  0.489
 0.320  0.212 0.0523
 0.377 -0.214  0.510
-0.368 -0.144 -0.466
 0.237  0.196  0.598
 0.277 -0.184  0.462
 0.376 -0.138 -0.468
-0.330 -0.0372  0.555
 0.389  0.120  0.618
-0.334  0.197 0.0689
-0.138 0.0568 -0.926
-0.0354  0.192  0.637
 0.241 -0.0397 -0.469
 0.312  0.225 -0.0855
 0.188 -0.0492  0.662
0.0289 -0.0934 -0.964
-0.378  0.123 -0.0280
-0.254  0.210  0.568
-0.347 -0.0816  0.857
-0.354  0.154  0.177
-0.327  0.212  0.124
-0.327 -0.145 -0.465
 0.223 6.52e-06 -0.735
 0.341 -0.0622 -0.721
-0.250 -0.159 -0.771
-0.0713  0.243  0.536
-0.305 -0.0314  0.395
 0.175 -0.00771  0.953
 0.320  0.212  0.108
 0.375 -0.0577 -0.678
-0.404 0.0480 -0.319
-0.370 -0.118  0.126
0.0750 -0.169 -0.694
 0.219  0.146 -0.390
-0.339 -0.159 -0.00292
 0.357  0.127 -0.376
-0.269 -0.0168  0.651
-0.313 -0.244  0.474
-0.377 -0.103 0.0546
-0.153  0.195 -0.319
-0.209 0.0372 -0.911
-0.229 0.0973  0.921
-0.0165 0.0577 -0.946
 0.385 -0.0629 -0.222
-0.208 -0.0869  0.923
-0.301 -0.0774  0.383
 0.187 -0.0397 -0.469
-0.212 0.0110 -0.716
 0.380 -0.0800  0.317
 0.329 -0.200  0.541
-0.206 -0.157 -0.492
 0.301  0.165 -0.307
 0.288  0.111 -0.793
-0.378 0.0264  0.877
 0.282  0.124 -0.677
 0.234 -0.186 -0.416
 0.331 -0.0247 -0.597
-0.304  0.213 -0.220
 0.201 -0.103  0.718
-0.207 -0.146 -0.761
 0.377  0.117 0.0331
 0.390 0.0669 -0.491
-0.267  0.296  0.230
0.0732 -0.169  0.494
-0.250  0.301  0.101
 0.392 0.0678 -0.416
 0.398 0.0575 -0.276
-0.346  0.168 0.0259
-0.250  0.151 -0.369
 0.311 -0.179 -0.103
 0.389 -0.0393  0.385
-0.142 -0.120  0.908
 0.243  0.174 -0.326
 0.247 -0.113 -0.912
-0.349  0.187  0.489
-0.387 0.0106  0.645
 0.387 0.0692  0.758
 0.273 -0.186  0.419
 0.315  0.124 -0.624
 0.331 -0.00666  0.425
-0.243 0.0307  0.953
 0.392 -0.0376  0.112
-0.0714  0.213  0.592
 0.332 -0.148  0.584
-0.381 -0.0961  0.223
 0.373 -0.162 -0.702
 0.396  0.116  0.529
 0.183 -0.147 -0.893
-0.348 0.0162  0.426
 0.381  0.101 -0.197
-0.362 -0.110 -0.824
-0.399 -0.0377  0.349
-0.283 -0.211 -0.569
 0.180  0.305 0.0474
-0.251 -0.124  0.375
 0.347 -0.141 -0.222
 0.397 0.0363  0.603
-0.404 0.0647 -0.265
0.0721  0.303 -0.0814
-0.271 -0.192 -0.709
-0.199  0.156  0.893
 0.149 -0.157  0.610
-0.299 -0.253 -0.667
-0.0693 0.0413  0.948
 0.316 -0.174 -0.00557
-0.136  0.307 0.00431
 0.271 -0.00647 -0.524
-0.373 -0.108 -0.423
 0.202 -0.164 -0.775
 0.333  0.182 -0.0963
-0.360 -0.0837 -0.676
 0.132 -0.114  0.913
 0.361 -0.0165 -0.901
 0.185  0.241  0.524
 0.152 0.0519  0.934
 0.371 -0.151  0.542
-0.165 -0.164 -0.815
-0.369 -0.107 -0.605
-0.345 -0.0654  0.641
 0.312 -0.103 -0.695
-0.396  0.109  0.296
-0.344 -0.153 -0.215
 0.326 -0.114  0.533
 0.364  0.115  0.860
 0.299 -0.126  0.657
-0.266  0.296 0.0589
0.0145 0.0307  0.964
-0.133 -0.184 -0.201
 0.180 -0.127  0.867
-0.0571 -0.185 -0.352
 0.272 -0.0240  0.633
-0.322  0.188  0.580
 0.115 -0.162 -0.847
-0.186 -0.127  0.867
-0.143 -0.186 -0.373
 0.187 -0.135  0.446
-0.219 0.0445  0.521
0.0536 -0.0545 -0.988
-0.186 -0.182  0.112
0.0507 -0.165 -0.761
-0.0247 -0.178 -0.556
0.0507 -0.185 -0.265
 0.169 -0.182  0.101
-0.0355 -0.163  0.554
0.0399  0.314  0.166
-0.206 -0.103 -0.578
0.00759 -0.181  0.263
 0.166 -0.0707 -0.535
-0.0786 -0.186 -0.416
0.0292 -0.182 0.0904
-0.339  0.103  0.915
-0.186 -0.185 -0.298
-0.240 -0.184 -0.136
 0.234 -0.185 -0.233
 0.245 -0.181  0.274
 0.187 -0.125  0.500
0.0723 -0.183 -0.491
0.0938 -0.181 -0.523
-0.186 -0.0276  0.629
-0.0894 -0.175  0.435
 0.327 -0.107 -0.452
0.00755  0.314  0.252
 0.126 -0.161  0.575
 0.394 0.0371  0.662
0.0291 -0.170  0.478
 0.115 -0.174 -0.621
0.0399  0.313 0.0798
-0.0247  0.153 -0.535
0.0291  0.178  0.747
-0.229  0.121 -0.750
-0.165  0.183  0.672
 0.115  0.309 0.0369
-0.0786  0.136 -0.760
 0.309  0.118 -0.707
-0.0355 -0.183 -0.481
-0.0571 -0.173 -0.632
0.0506 0.0120 -0.922
-0.0679 -0.154  0.640
0.0399 -0.176  0.424
0.0615  0.143 -0.696
 0.362 -0.0954 -0.601
 0.378  0.150  0.465
-0.271  0.138 -0.513
 0.137  0.311  0.155
 0.185 -0.151  0.640
-0.186 -0.00603  0.532
-0.0461  0.172 -0.381
 0.212  0.298 -0.0274
-0.00319  0.312  0.306
 0.393 -0.0274  0.166
-0.154  0.310  0.123
-0.0899  0.146 -0.658
-0.190 0.0356  0.561
 0.243 -0.0582 -0.950
-0.186  0.308  0.187
-0.0106 -0.0252  -1.00
-0.383  0.114  0.785
-0.278 -0.00357  0.417
-0.197  0.302  0.327
 0.273 -0.0170  0.425
 0.363 -0.138 -0.592
 0.255  0.122 -0.718
-0.406 0.0693  0.597
-0.335 0.00465  0.515
-0.197  0.300 -0.0275
 0.170  0.103 -0.896
-0.327 -0.134  0.697
-0.303  0.259 -0.0822
-0.197  0.168  0.812
 0.183  0.273  0.458
 0.374 -0.111  0.640
-0.280 -0.214 -0.652
-0.0894  0.176  0.769
-0.409 0.0588  0.371
 0.329 -0.134 -0.539
 0.242  0.289  0.380
 0.402 0.0797  0.339
 0.388 0.0961 -0.0101
 0.298  0.164  0.802
 0.191 -0.177 -0.442
-0.394 -0.0308 -0.472
 0.219  0.178  0.711
 0.363 -0.117 -0.0604
 0.320 -0.261 -0.600
-0.278 -0.0550 -0.717
-0.133  0.145 -0.654
 0.331 -0.189 -0.638
-0.372 -0.149  0.577
 0.376 -0.0761  0.528
-0.313  0.168 -0.295
 0.374 -0.0339  0.587
-0.122  0.100  0.928
 0.185  0.307  0.236
 0.376 -0.0155 -0.555
-0.294 -0.137 -0.725
 0.186 0.0361 -0.572
 0.374 0.0164  0.426
 0.202 -0.181  0.369
-0.318 -0.0392 -0.579
 0.137 -0.172 -0.653
-0.376  0.120 -0.244
 0.337 -0.153 -0.136
 0.319 -0.0701 -0.651
-0.357 -0.158  0.507
-0.402 0.0263 -0.373
 0.264  0.282 -0.0795
 0.170 -0.0572 -0.968
-0.230 0.0319 -0.677
-0.327 -0.103 -0.501
 0.201 -0.00273 -0.932
-0.328 -0.169 -0.122
 0.169 0.0713 -0.962
 0.346 -0.143  0.645
 0.327 -0.170  0.403
-0.236 -0.107 -0.925
-0.361  0.158 -0.153
 0.370 0.0986 -0.567
-0.206 -0.135 -0.621
 0.334 0.0551  0.920
-0.245 -0.0640  0.930
 0.388 0.0419 -0.632
 0.358 -0.132 -0.683
 0.318 -0.0393  0.930
-0.399 -1.75e-05  0.408
 0.380 -0.135 -0.750
-0.380 0.00122 -0.840
 0.346  0.170  0.669
 0.402 0.0490  0.489
 0.265 0.0589 -0.923
 0.374  0.157  0.428
0.0340 0.0641  0.933
-0.269 0.0170 -0.567
-0.0786  0.112  0.930
 0.202 0.0617 -0.933
 0.357  0.148 -0.181
0.0399 -0.128  0.811
-0.377 -0.114  0.564
-0.394 -0.0575  0.295
-0.316 -0.261 -0.600
-0.356  0.170  0.650
 0.180 -0.0908  0.923
 0.212 0.0973 -0.910
-0.165 -0.142  0.747
 0.292  0.269  0.208
-0.354 -0.0406  0.595
 0.320 -0.0725  0.622
 0.289 -0.198  0.669
 0.395  0.116  0.390
 0.126  0.269  0.476
-0.358  0.144 -0.0603
 0.320  0.226  0.306
 0.296  0.228 -0.190
 0.310  0.142 -0.362
-0.380 -0.0717  0.693
 0.377 -0.203 -0.732
 0.233  0.215 -0.252
 0.275 -0.246  0.485
 0.148 -0.166  0.521
-0.327 -0.124  0.797
-0.208 -0.103  0.375
 0.126  0.134  0.932
 0.126 -0.00110 -0.933
-0.283  0.102 -0.853
-0.289  0.279 -0.00644
-0.275 -0.203  0.609
0.0237  0.253 -0.222
-0.379 -0.179 -0.708
 0.361 0.0695 -0.843
-0.0409 -0.0168  0.954
0.0470  0.145  0.931
 0.350 -0.0178  0.508
 0.321 -0.236 -0.529
 0.230 0.0173  0.640
 0.298  0.254 0.0618
-0.111 -0.144  0.737
 0.400 0.0374 -0.136
 0.288 -0.182  0.177
0.00751  0.258  0.508
-0.291 -0.213  0.434
 0.230 0.0259 -0.537
0.00329  0.146  0.932
 0.360 -0.124  0.295
 0.165 -0.0168 -0.707
 0.355  0.179  0.496
 0.248 0.0356  0.602
-0.224 -0.0197 -0.967
-0.318 -0.151  0.475
-0.240  0.272 -0.134
-0.283 -0.106  0.897
-0.397 -0.0375 -0.147
 0.212 0.0398  0.587
 0.209  0.167  0.819
-0.326  0.197  0.531
 0.351 -0.132 -0.782
-0.344 -0.192  0.482
-0.370 -0.118  0.256
 0.291  0.268 0.000685
-0.299  0.246  0.435
 0.376 -0.0846 -0.723
 0.371  0.155  0.353
-0.144 -0.120 -0.942
 0.348  0.124 -0.516
 0.316 -0.175 0.0806
 0.378 -0.202 -0.687
-0.204  0.272  0.458
-0.0355 -0.102  0.921
 0.377 -0.236  0.470
 0.234 0.0123  0.953
 0.376 -0.0712  0.446
-0.378 -0.250  0.511
-0.378 -0.218  0.450
 0.255 -0.0484 -0.764
 0.271 -0.0552  0.931
 0.375 -0.182  0.621
-0.120 -0.160 -0.885
 0.299 -0.208 -0.668
 0.396  0.168 -0.175
-0.363 -0.130 -0.0137
-0.361  0.134 -0.303
 0.139  0.122 -0.789
-0.0786 -0.171 -0.664
-0.113  0.156  0.903
 0.377  0.128  0.271
 0.319  0.126 -0.577
-0.0569 -0.00393 -0.953
-0.339 -0.142 -0.521
-0.244 0.0557 -0.915
-0.186  0.129 -0.674
-0.272 0.0130 -0.620
0.0947 -0.137  0.766
-0.358 -0.153 -0.649
 0.171  0.216  0.575
 0.265 0.0248 -0.911
 0.266 0.0246 -0.668
-0.388  0.144  0.414
-0.344 -0.210 -0.616
-0.377 -0.190  0.620
 0.217  0.264  0.471
-0.294 -0.175  0.637
 0.325 -0.158 -0.622
 0.342 -0.193  0.674
-0.277 -0.148 -0.468
-0.244 0.0259 -0.537
-0.192 0.0232  0.448
 0.255 -0.0704 -0.457
 0.260  0.287  0.345
-0.132 0.0249  0.961
-0.186  0.177  0.738
-0.341  0.184  0.199
-0.206 -0.125 -0.470
-0.291 -0.0212 -0.539
 0.396 0.00494 -0.254
 0.337 -0.0640  0.652
0.0166 -0.0477  0.936
-0.0334 -0.140 -0.929
-0.372 -0.0258 -0.611
-0.274  0.240  0.502
-0.332 -0.208  0.550
-0.374  0.118 -0.341
 0.375 -0.0281 -0.605
-0.409 0.0909  0.522
-0.366 -0.179 -0.552
-0.386 0.0372  0.834
 0.332 -0.158 -0.405
 0.396 -0.0118 -0.0173
-0.228  0.186  0.629
 0.342 -0.0650  0.891
 0.367 -0.111  0.241
 0.357 -0.0536  0.391
 0.267  0.293  0.223
 0.382 -0.0484  0.685
 0.255 -0.0911  0.917
 0.379 -0.103 -0.472
 0.272 -0.241 -0.557
 0.223 -0.127  0.866
-0.185  0.295  0.393
-0.121  0.133 -0.772
 0.395 -0.00696 -0.180
-0.226 -0.140 -0.895
-0.0927  0.286  0.441
-0.106 0.0164 -0.907
 0.255  0.117 -0.771
-0.0243 0.0918  0.930
-0.244 -0.0719  0.707
0.0937  0.117 -0.878
 0.369 -0.123  0.489
-0.349 -0.0507 -0.708
-0.283  0.173  0.726
-0.367 -0.122 -0.530
 0.347  0.152 0.00432
-0.356  0.160  0.715
 0.223  0.125 -0.706
-0.398 -0.0378  0.231
 0.299 -0.258 -0.642
0.00396  0.167  0.852
-0.383 0.0345  0.496
-0.392 0.0738 -0.534
-0.358 -0.0904  0.493
-0.377 -0.0373  0.812
-0.375 -0.0282  0.556
0.0636  0.293  0.425
 0.320 0.00769 -0.621
-0.341 -0.0295  0.630
 0.369  0.141  0.694
 0.125 -0.0449  0.945
 0.369 0.0692  0.898
 0.202 -0.0584 -0.767
-0.0355  0.144 -0.686
 0.165 0.00453 -0.535
-0.393 -0.0453 -0.402
 0.397 -0.00339  0.221
-0.206 -0.165 -0.685
 0.119  0.196  0.619
 0.375  0.148  0.561
-0.197 -0.136  0.377
 0.171 -0.126 -0.925
 0.115  0.243 -0.231
-0.355 -0.0118  0.406
-0.377 -0.0585  0.769
0.0390 -0.168 -0.709
-0.387 -0.0802 -0.0496
0.0971 0.0560 -0.928
-0.377 -0.102 -0.256
-0.298 -0.222 -0.718
-0.372 -0.00703 -0.646
-0.271 -0.0815  0.673
-0.384 -0.0889  0.112
 0.299 -0.168 -0.474
0.0882 -0.00698 -0.961
-0.375 -0.257 -0.607
-0.378 0.00479 -0.588
-0.0569 -0.163 -0.889
-0.387 0.0307 -0.565
 0.302  0.247  0.184
-0.187  0.306 0.0581
-0.122 -0.178  0.403
 0.149 -0.147  0.710
0.0615  0.154 -0.471
-0.318  0.235  0.370
-0.380 -0.0815 -0.750
0.0347 -0.0144  0.956
 0.347 -0.141 -0.286
-0.100 -0.164 -0.847
-0.0248 -0.164 -0.869
 0.321  0.211  0.452
-0.334 0.0774 -0.913
-0.405 0.0349  0.465
-0.350 -0.144  0.631
-0.231  0.178  0.710
 0.382 0.0163  0.791
-0.372  0.166  0.516
-0.305  0.114 -0.761
-0.321 -0.0707 -0.685
-0.208 0.0676  0.925
 0.104  0.174 -0.369
 0.376 -0.0375 -0.793
 0.393 0.0156 -0.459
 0.331 -0.117  0.784
 0.386 0.0954 -0.129
 0.321 -0.120 -0.667
0.0830 -0.164 -0.782
-0.0355 -0.185 -0.222
-0.186 -0.0492  0.662
