ply
format ascii 1.0
element vertex 2048
property float x
property float y
property float z
end_header
 0.131 -0.229 -0.190
-0.356  0.771  0.528
 0.426  0.289  0.510
-0.165 -0.647  0.454
-0.107  0.184 -0.782
-0.435 0.0811  0.231
-0.175 -0.634 -0.684
 0.186  0.768  0.259
0.0747 -0.142  0.364
-0.373 0.0615 -0.317
-0.222 -0.638 -0.0827
 0.328  0.189 -0.468
-0.0899  0.323  0.576
 0.320  0.190 0.0327
 0.221 -0.637  0.136
 0.210 -0.639 -0.410
0.0804 -0.240 -0.662
-0.106  0.194 -0.0221
-0.303  0.480  0.238
-0.202 -0.371 -0.392
0.0756  0.418  0.215
0.00211  0.693  0.569
-0.0826 -0.290 0.0875
-0.434  0.300  0.503
 0.363  0.656  0.534
-0.214 -0.0767 -0.587
-0.145  0.777  0.271
-0.121  0.123  0.315
 0.166 -0.626  0.459
 0.391  0.489  0.254
 0.196 0.0647 -0.734
 0.123 -0.544 -0.706
 0.132 -0.0434 -0.433
-0.215 -0.0951 -0.104
0.0916 -0.585 -0.133
 0.329 0.00105 -0.203
 0.150  0.179  0.435
 0.431 0.0804  0.293
-0.0899 -0.645 -0.361
0.0864 -0.0253 0.0347
-0.0134 -0.394  0.483
-0.0894 -0.583  0.168
 0.155  0.458  0.574
-0.279  0.194 -0.543
 0.192 -0.355 -0.424
-0.287  0.521  0.575
-0.159 -0.347 -0.647
-0.117 -0.0546 -0.348
-0.347  0.181 -0.0934
-0.0394 0.0720  0.554
-0.0794 -0.352 -0.164
-0.413  0.698  0.301
 0.123  0.170  0.176
-0.0324 -0.0485 -0.758
-0.368 0.0826  0.552
-0.0850 -0.0871  0.207
-0.280  0.249  0.205
 0.402  0.762  0.333
 0.362 0.0821  0.545
0.0613 -0.496  0.300
0.00476  0.623  0.233
 0.195  0.779  0.476
-0.451  0.512  0.435
 0.383  0.276  0.220
0.0369 -0.0387 -0.184
0.0415 -0.478 0.0414
 0.123  0.193 -0.0372
0.0363 -0.646 -0.551
 0.290  0.192 -0.267
-0.462  0.334  0.305
 0.443  0.481  0.450
 0.280 0.00591 -0.560
-0.0207 -0.0455 -0.559
 0.117 -0.424 -0.244
-0.0818  0.299  0.203
-0.310  0.181  0.391
-0.161  0.779  0.499
-0.0159 -0.315  0.301
0.0771 -0.197  0.135
-0.318 0.0818 0.0806
-0.210 -0.520 -0.274
-0.197 -0.505 -0.527
-0.0511 -0.182 -0.0805
0.0126  0.785  0.372
-0.237 0.0778 -0.699
-0.0261 -0.648 0.000480
-0.122 0.0143 0.0262
 0.237 -0.165 -0.330
-0.194 -0.221 -0.282
-0.289 -0.0729 -0.415
-0.114  0.481  0.222
 0.218  0.553  0.240
 0.190 -0.505 -0.534
-0.223  0.197  0.571
 0.106 0.0321  0.316
-0.0742  0.505  0.574
 0.198  0.188 -0.601
-0.00510 -0.648  0.370
0.0878 -0.315 -0.0379
 0.243 0.0168 -0.0418
-0.0595 -0.221  0.453
 0.194  0.284  0.576
 0.179 -0.197 -0.506
-0.181 -0.229 -0.495
-0.246 0.0636 -0.177
0.0865  0.190 -0.791
-0.0630 -0.502 -0.716
-0.482  0.150  0.388
 0.178  0.639  0.576
 0.270 0.0485 -0.362
 0.312  0.179  0.372
 0.241  0.370  0.220
-0.0793 -0.182 -0.653
-0.0584 -0.646 -0.180
0.0915 -0.646 -0.290
-0.200 -0.593  0.293
 0.143 -0.0801 -0.671
0.0616 -0.648  0.193
 0.212 -0.647 -0.0360
-0.256  0.655  0.255
-0.287  0.355  0.576
-0.296  0.193 -0.377
 0.337 0.0799  0.159
 0.311  0.410  0.571
 0.206 -0.644  0.302
 0.472  0.221  0.365
 0.161 -0.395 -0.651
 0.350  0.143 -0.124
-0.287 -0.0866 -0.248
-0.0432 0.0111  0.405
-0.225 -0.611 0.0881
-0.0791 -0.497  0.380
-0.267  0.782  0.380
 0.148 -0.153 -0.0377
-0.161  0.165  0.143
 0.188 -0.647 -0.602
 0.213 -0.537 -0.291
-0.0426 -0.489 -0.228
 0.436  0.615  0.364
0.0726  0.185  0.567
0.00712 -0.410  0.175
-0.0112 -0.359 -0.699
0.0607 -0.0338  0.184
-0.258 0.0457 -0.502
 0.156 -0.0275 -0.274
 0.233 -0.105 -0.151
-0.0110 -0.646 -0.693
-0.213 -0.631 -0.448
-0.425  0.655  0.460
-0.141  0.150  0.458
 0.211 -0.647 -0.192
-0.248  0.194 0.0172
-0.100 -0.0151 -0.144
-0.248  0.686  0.573
-0.0338 -0.129 0.0737
-0.319  0.192 -0.235
0.0521  0.347  0.577
0.00618 -0.0989  0.490
-0.0723 0.0545  0.167
0.0638 -0.528  0.442
 0.451  0.371  0.308
-0.431  0.523  0.282
-0.0110  0.193  0.135
-0.174  0.190 -0.641
 0.308  0.658  0.262
0.00676 -0.457 -0.101
-0.00326 0.0811 -0.00276
0.0658 -0.276  0.427
-0.247 0.0299 -0.0326
0.0210 -0.0685 -0.353
-0.427  0.233  0.216
 0.470 0.0961  0.424
-0.0824 -0.109  0.342
-0.129 0.0487 -0.781
0.0672 0.0320 -0.692
-0.208 -0.645 -0.219
 0.257  0.193  0.173
-0.208  0.363  0.219
 0.194 -0.292 -0.306
 0.291 -0.0582 -0.439
-0.0106  0.757  0.243
 0.321  0.229  0.567
 0.328  0.773  0.475
-0.130 -0.0448 -0.480
 0.218  0.125 -0.125
-0.178 -0.355 -0.263
 0.111 -0.583 0.0837
 0.125 0.0233 -0.100
0.0521  0.544  0.574
 0.123 0.0526  0.461
0.00837 0.0904 -0.828
 0.159 0.0849 0.0328
-0.0898  0.192  0.573
-0.238 0.00870 -0.324
 0.186  0.183  0.309
-0.350  0.356  0.230
-0.139 0.0157 -0.639
 0.150 -0.00760 -0.563
-0.177 -0.495 -0.656
0.0520  0.284  0.201
-0.0658 -0.525 -0.0117
0.0542 -0.319 0.0977
0.0678 -0.646 -0.417
 0.289  0.536  0.572
-0.352  0.221  0.561
-0.133 -0.168 -0.178
-0.130  0.654  0.238
-0.0944 -0.307 -0.0458
-0.0521 -0.208  0.182
-0.153 -0.645 -0.558
 0.369 0.0948 -0.282
-0.0347  0.784  0.490
-0.400  0.770  0.404
 0.123  0.756  0.575
0.0420 -0.212 0.0146
-0.185  0.426  0.576
-0.417  0.426  0.517
-0.201  0.180 -0.0998
 0.174 -0.324 -0.542
-0.358 0.0862 -0.436
 0.313 -0.0562 -0.314
-0.208 -0.506 -0.406
-0.0892 0.00290  0.288
0.0610 -0.402  0.376
0.0420 -0.137  0.244
-0.346  0.623  0.551
 0.242  0.111 -0.519
-0.0199 -0.380 0.0141
0.0439 -0.639  0.480
 0.118  0.151 -0.680
-0.342  0.193  0.112
-0.216  0.181  0.277
0.0181 -0.123 -0.682
-0.367 0.0863 -0.202
-0.0543 -0.487  0.238
 0.224 -0.0929 -0.533
-0.114 -0.0945 -0.0374
 0.340 0.0487 -0.455
 0.178  0.192 0.0724
0.0570 -0.369 -0.156
-0.436  0.166  0.505
 0.115  0.655  0.240
0.0126  0.195 0.00936
 0.267  0.103 -0.638
 0.115 -0.586  0.356
-0.0920 -0.264 -0.237
-0.184 -0.355 -0.535
 0.254  0.781  0.377
-0.0542 -0.487  0.104
-0.212  0.550  0.238
-0.114  0.787  0.380
-0.0688 -0.323  0.403
-0.389  0.164  0.310
-0.00249  0.506  0.222
 0.431  0.173  0.227
-0.169  0.568  0.576
-0.0608 -0.597  0.467
0.0684 0.0553  0.112
 0.201 -0.478 -0.387
 0.352  0.386  0.232
 0.107  0.544  0.228
 0.253  0.754  0.568
-0.123 -0.648 0.0596
-0.155 0.0927 -0.0471
-0.0662 -0.645  0.277
-0.0737 -0.0543 -0.245
-0.0110 -0.206  0.318
 0.303 0.0815 0.0489
 0.351  0.189 -0.358
 0.123  0.783  0.372
-0.478  0.260  0.395
-0.0176 -0.568 -0.101
-0.326  0.761  0.280
-0.202 -0.149 -0.422
-0.00318  0.142 -0.731
-0.0848  0.110 0.0732
-0.00402 0.00422 -0.0808
0.0925 -0.315 -0.245
-0.106  0.710  0.578
 0.422  0.688  0.445
0.0729 -0.523 -0.235
-0.461  0.435  0.345
-0.184 -0.00942 -0.232
 0.260 0.0832 -0.217
 0.413  0.397  0.512
 0.443  0.184  0.486
 0.186  0.277  0.209
-0.226  0.111 -0.588
0.0917 -0.585 -0.0223
 0.385  0.550  0.525
 0.104 0.0527 -0.795
-0.265 0.0133 -0.616
-0.223 -0.615 -0.322
0.0689 -0.530  0.167
-0.343  0.126  0.199
0.0993 -0.645 -0.661
 0.146 -0.166 -0.607
-0.0269 -0.0652 -0.448
0.0814 -0.226 -0.0958
0.0735 0.0942  0.236
-0.310 -0.0170 -0.149
-0.416 0.0782  0.448
 0.334  0.162  0.481
 0.202  0.186  0.538
-0.0978 -0.646 -0.0775
 0.370  0.184  0.142
 0.241  0.194 -0.0381
-0.331 0.0794 -0.0716
-0.0356  0.392  0.214
-0.0362 0.00329 -0.667
-0.132 -0.0415 -0.726
-0.0509 -0.0319  0.107
 0.320  0.174  0.254
-0.170 -0.648  0.209
-0.0979  0.174  0.227
-0.138 0.0526  0.423
-0.153 -0.584 -0.156
-0.192  0.308  0.574
-0.0203 -0.424  0.315
0.0678  0.783  0.475
-0.335  0.576  0.257
0.0147 0.00792  0.490
-0.0662  0.615  0.577
 0.206 -0.426 -0.298
-0.464  0.363  0.428
 0.447  0.497  0.340
0.0836  0.778  0.278
-0.0189 -0.645  0.128
0.0880 -0.445 -0.701
 0.193 -0.648 -0.301
0.0863  0.149 0.0671
 0.147 -0.586  0.199
 0.186  0.458  0.228
 0.313 0.0468 -0.114
 0.191 -0.254 -0.424
 0.382  0.591  0.265
 0.189 0.0143 -0.189
 0.198 -0.607 -0.504
 0.218 -0.127 -0.433
0.00724 -0.284  0.206
-0.193 -0.252 -0.377
-0.159 -0.160 -0.591
-0.289  0.121 -0.298
 0.218 -0.213 -0.235
-0.120  0.114 -0.707
-0.184 -0.586 0.00141
-0.429  0.415  0.253
 0.220 0.00624 -0.463
-0.240  0.182  0.475
 0.317  0.763  0.284
 0.296  0.473  0.237
-0.122 -0.433 -0.246
 0.269  0.150 -0.400
-0.153 -0.584  0.380
 0.212  0.167 -0.702
 0.459  0.387  0.404
-0.153 -0.251 -0.631
0.0284  0.450  0.577
0.0847 -0.0495 -0.742
-0.00284  0.245  0.577
0.0572 -0.0437  0.351
 0.126  0.118  0.356
 0.253 -0.112 -0.250
-0.336 -0.0270 -0.327
0.0757 -0.0486 -0.518
0.0848 -0.346 -0.684
 0.187 -0.0660 -0.0456
0.0536 -0.108  0.108
-0.429 0.0812  0.348
 0.249  0.185  0.443
-0.129 -0.645 -0.275
-0.0540 -0.481  0.470
0.0432 -0.179  0.456
-0.194  0.167 -0.734
 0.216 -0.0247 -0.646
0.0226 -0.418 -0.229
-0.248  0.195  0.120
-0.213 -0.426 -0.314
-0.271  0.778  0.474
-0.344  0.157  0.484
-0.0650 -0.285 -0.679
-0.269  0.116 -0.441
-0.187 -0.0271 -0.409
-0.0146 -0.103 -0.0137
-0.199 -0.434 -0.464
 0.451  0.276  0.284
-0.214 -0.132 -0.213
-0.0628 -0.209 0.0372
 0.344  0.112 -0.0281
0.0599 -0.645  0.285
0.0641 -0.0556 -0.270
-0.431  0.609  0.316
 0.202  0.379  0.574
 0.350  0.316  0.558
0.0757  0.639  0.577
 0.199 -0.593 0.0592
-0.327  0.116 -0.530
-0.162  0.156 0.0396
0.0851 0.0693 -0.0320
-0.470  0.230  0.310
 0.192 -0.588 -0.125
0.0808 0.0743  0.539
 0.152 0.0404 -0.653
 0.177 -0.528 -0.621
 0.429  0.586  0.454
-0.0984 -0.258 -0.147
 0.398  0.142  0.395
-0.0958 -0.604 -0.717
-0.102 -0.567 -0.229
-0.239  0.748  0.258
-0.0662 -0.645 -0.448
-0.0977 -0.645 -0.629
-0.228 -0.107 -0.497
0.0354 -0.545 -0.726
-0.200  0.457  0.226
 0.222  0.683  0.254
-0.192  0.230  0.199
-0.124 -0.105 -0.663
 0.155 -0.308 -0.628
-0.373  0.347  0.548
 0.408  0.670  0.298
0.0284 -0.646 -0.117
0.0757 -0.646 -0.196
-0.195 0.0117 -0.560
 0.147 -0.586 -0.203
-0.260  0.190 -0.166
-0.351  0.121 0.00440
-0.0915 0.0295 -0.0682
 0.147  0.366  0.214
-0.303  0.176  0.261
 0.304  0.169 -0.551
0.0267 0.00971 -0.795
 0.265  0.152 0.0959
-0.258 -0.112 -0.343
 0.469  0.300  0.403
0.0546 -0.0160 -0.619
 0.163  0.103 -0.0543
-0.188 -0.307 -0.456
-0.327 -0.00245 -0.451
0.0678 -0.646 0.0409
-0.242  0.774  0.557
-0.369  0.512  0.547
 0.358  0.151 -0.211
 0.297  0.285  0.214
-0.0662  0.195 0.0645
0.00474 -0.646 -0.298
 0.162  0.544  0.576
 0.185 -0.182 -0.111
-0.190 -0.576 -0.621
-0.0726 -0.410  0.412
 0.178 -0.0255 -0.361
 0.265  0.191 -0.156
 0.184 -0.402 -0.496
-0.0824 0.0820  0.248
-0.110 0.0621  0.504
-0.0331 -0.382 -0.0933
-0.0107  0.158  0.573
 0.354 0.0336 -0.353
-0.110  0.566  0.229
0.0984  0.168  0.271
-0.0452 -0.134  0.266
 0.107 -0.646 -0.503
 0.355  0.126 -0.416
-0.238  0.111 -0.00171
-0.0916 -0.386 -0.692
-0.185 -0.439 -0.579
-0.255  0.169 -0.651
-0.0272  0.178 -0.810
 0.320 0.0763 -0.536
-0.0549 -0.127  0.439
-0.192  0.786  0.419
 0.413 0.0952  0.191
 0.158 -0.00992 -0.725
0.0112 -0.568 -0.180
-0.182 0.0230 -0.142
-0.295 0.0717 -0.374
-0.0818 -0.560  0.325
0.0273 -0.472  0.227
-0.00311 -0.444 -0.717
 0.107  0.260  0.576
-0.0873 -0.142  0.144
0.0541 -0.357  0.451
-0.200 -0.0378 -0.659
-0.340  0.167 -0.465
0.0795 -0.0545  0.261
 0.170 -0.607 -0.678
-0.0135 -0.386 0.0960
 0.407 0.0806  0.475
-0.372  0.142 -0.298
-0.0995 -0.648  0.404
 0.222 0.0591 -0.585
 0.305  0.568  0.252
 0.139 -0.648 -0.369
 0.380  0.159  0.307
0.0185 -0.514 -0.0429
 0.256 -0.0418 -0.0979
 0.208 -0.559 -0.370
 0.283  0.121 -0.324
 0.174 -0.647  0.377
 0.336  0.775  0.380
-0.0989 -0.347 -0.245
-0.347 0.00117 -0.251
 0.117 -0.0227 -0.194
0.00959 -0.371  0.246
-0.00321 -0.205 -0.670
 0.179 -0.430 -0.572
-0.334  0.671  0.269
 0.202  0.176  0.230
0.0520  0.707  0.254
0.0905 -0.299 -0.133
-0.0798 -0.552 0.0645
 0.200 -0.521 -0.456
0.0777 -0.112 0.0314
 0.222  0.127 0.00678
-0.0426 -0.646 -0.535
-0.106  0.410  0.574
 0.295  0.678  0.570
-0.0862  0.113 -0.812
-0.454  0.161  0.263
 0.184 -0.0928 -0.603
 0.203 -0.643  0.214
 0.382  0.468  0.535
-0.0544  0.680  0.238
-0.405  0.583  0.514
-0.0735  0.782  0.311
-0.203 -0.583 -0.511
-0.179 -0.0490 -0.0275
-0.410  0.165  0.177
0.0588 -0.623 -0.726
-0.153 -0.586  0.120
 0.273  0.316  0.576
-0.233  0.108 -0.109
-0.146  0.176  0.383
0.0415 -0.268  0.352
0.0779 -0.573  0.235
-0.279  0.276  0.577
-0.0505 -0.0464 0.0278
-0.374 0.0836  0.136
 0.123 -0.645  0.143
0.0522 0.0163  0.421
-0.421  0.697  0.380
 0.132 -0.648  0.247
-0.0748  0.115 -0.00481
 0.363  0.735  0.534
-0.393  0.773  0.318
0.0613 -0.444  0.442
-0.114  0.402  0.215
 0.177 -0.363 -0.262
0.0853  0.117 -0.743
-0.0984 -0.0346 -0.551
 0.473  0.118  0.349
-0.258 0.0222 -0.422
-0.444  0.615  0.396
-0.259 0.0445 -0.258
-0.00580 0.0472 -0.724
 0.257  0.607  0.576
 0.147 -0.646 -0.101
 0.351 0.0710 -0.177
-0.0899  0.195  0.151
0.0505 -0.0626 -0.445
-0.0146 -0.323  0.143
-0.0973 -0.582  0.246
-0.0536  0.767  0.570
-0.0668 -0.249  0.381
 0.180  0.182 -0.0880
 0.461  0.181  0.299
 0.163 -0.587 -0.0538
-0.268 -0.0459 -0.542
-0.247  0.182  0.347
 0.294 -0.0667 -0.205
 0.383  0.155  0.540
-0.288  0.122 -0.203
0.0559 -0.0246  0.104
-0.279  0.331  0.218
-0.145 -0.645  0.301
-0.0583 -0.645  0.199
 0.357  0.134 0.0862
0.00927 -0.442 -0.0223
-0.131 -0.190 -0.252
 0.230  0.189 -0.532
-0.239  0.140 -0.508
-0.0111  0.237  0.197
-0.469  0.205  0.449
-0.00325 -0.536  0.477
0.0600  0.209  0.191
0.0171 -0.0677  0.423
-0.263  0.168  0.198
-0.106 -0.583 -0.0377
 0.159  0.186 -0.751
 0.297  0.120 -0.463
-0.271  0.195 -0.0774
 0.226  0.481  0.576
-0.170 0.0717 0.0317
-0.193 -0.648  0.380
 0.250 0.0378 -0.276
-0.343  0.189 0.0331
-0.169  0.182  0.522
-0.128 -0.536 -0.705
-0.335  0.410  0.564
-0.0127 -0.418 -0.164
 0.163 -0.253 -0.579
0.0591 -0.0109 -0.119
 0.132  0.184  0.515
-0.208  0.781  0.336
-0.453  0.507  0.360
-0.188 0.0302 -0.727
-0.203 -0.308 -0.329
-0.161  0.237  0.574
 0.399  0.699  0.372
-0.186  0.111 -0.650
 0.425  0.347  0.243
-0.319  0.698  0.562
-0.0265 -0.0295 -0.148
-0.306 0.0479 -0.558
-0.0177 -0.276  0.477
-0.110  0.186 -0.698
0.0521  0.775  0.546
-0.153  0.316  0.211
-0.0502 -0.0675 -0.322
0.0277 -0.211  0.187
-0.267 -0.0257 -0.0903
-0.382  0.180  0.403
 0.152  0.111 -0.771
-0.275 -0.0769 -0.171
0.0832 -0.284 0.0409
-0.161 -0.645 -0.377
-0.0189  0.394  0.577
-0.366  0.128 -0.377
0.0626  0.153 -0.0380
-0.178 -0.0315 -0.316
 0.392  0.768  0.425
 0.314  0.148  0.173
-0.192 -0.646 -0.148
-0.0606 -0.0371  0.354
 0.334  0.181 -0.0648
 0.257  0.179  0.325
-0.354  0.187 -0.172
0.0757 -0.646  0.356
-0.202 -0.147 -0.283
-0.156  0.121 -0.774
-0.0594 0.0457 -0.807
0.0546 -0.357 0.0104
 0.165 -0.648 0.0278
-0.0740 0.0297 0.0773
-0.374  0.470  0.245
-0.293  0.139 -0.598
-0.176 -0.284 -0.543
 0.185 0.0574 -0.118
 0.194  0.162  0.136
-0.0915 0.0485 -0.707
-0.0190  0.552  0.575
-0.381  0.679  0.522
-0.357 0.0304 -0.379
 0.115 -0.645 -0.574
-0.137 -0.646 -0.204
-0.00318 -0.646 -0.622
-0.137 -0.645 -0.456
-0.0743 -0.585 -0.141
-0.0890 -0.274 0.0172
0.0778 -0.102  0.175
-0.159 -0.138 -0.119
 0.195 -0.347 -0.354
0.0589 -0.331  0.382
-0.224 -0.613  0.159
-0.281  0.145 0.0572
 0.146 -0.528 -0.245
-0.303  0.135  0.125
-0.216  0.623  0.574
0.0547 -0.371 -0.0854
 0.344  0.221  0.200
-0.248  0.458  0.577
 0.131  0.725  0.245
0.00474 -0.646 -0.385
 0.202  0.706  0.562
0.00897 -0.489 -0.164
 0.187  0.615  0.242
 0.186  0.786  0.404
 0.445  0.350  0.471
0.0941 -0.128 -0.655
 0.276 -0.0893 -0.378
 0.133 -0.0820 -0.00329
 0.194  0.182  0.380
 0.218 -0.177 -0.175
-0.405  0.299  0.224
-0.128 0.0621  0.354
-0.0132 -0.647  0.441
-0.0828  0.126  0.548
0.0722  0.115 -0.811
-0.422  0.505  0.498
0.0539  0.180 -0.722
 0.178 -0.589  0.270
-0.0833 -0.230  0.122
 0.298 -0.0170 -0.498
-0.145  0.181  0.277
0.0643 -0.514 0.0960
 0.245 0.0410 -0.659
-0.208 -0.647 0.0201
0.0166 -0.210 -0.0785
 0.281 0.0851 -0.0212
 0.140 -0.254 -0.254
 0.412  0.415  0.248
 0.281  0.189 -0.338
-0.106 -0.645  0.143
0.0466 -0.163 0.0656
0.0420 -0.269  0.144
-0.362  0.134 0.0791
-0.00314 -0.0618 -0.259
 0.192  0.120 -0.595
-0.0331 -0.378 -0.228
 0.249  0.179 -0.646
 0.183 0.0269 0.00660
0.0736 0.0950  0.167
-0.216 -0.553 -0.350
-0.357  0.126 -0.133
 0.462  0.240  0.453
0.00474  0.332  0.207
-0.153  0.770  0.566
0.00954 -0.450  0.104
-0.137 -0.645 -0.0222
-0.188 -0.0130 -0.498
 0.178 -0.280 -0.485
-0.153 -0.584  0.191
 0.454  0.430  0.343
-0.145  0.505  0.574
-0.00314 -0.645  0.254
-0.146 -0.497 -0.247
0.0836 -0.646 -0.0775
-0.173 -0.426 -0.644
-0.381  0.111  0.259
-0.193  0.677  0.246
 0.189 -0.567 -0.559
-0.0810 -0.0649 -0.408
 0.291  0.179  0.530
-0.0741  0.786  0.435
-0.0733 0.0152  0.222
 0.215 -0.242 -0.346
 0.208 0.0170 -0.528
 0.368 0.0993 -0.352
0.0896 0.0400 0.0496
 0.226  0.779  0.317
0.0685 0.0280  0.227
 0.193 -0.422 -0.431
0.0677  0.718  0.579
-0.466 0.0877  0.293
-0.318  0.778  0.427
-0.217  0.192 -0.591
 0.147 -0.646 -0.172
0.0730 -0.505  0.380
 0.169 -0.144 -0.546
0.00698 -0.246  0.262
-0.185  0.701  0.557
-0.384  0.158  0.546
 0.261  0.188 -0.467
-0.0632 -0.344 0.0535
-0.0107 -0.164  0.215
 0.407 0.0859  0.361
-0.466  0.118  0.465
-0.167 -0.220 -0.560
0.0833 -0.168 -0.0342
-0.107 -0.185 -0.119
-0.0506  0.194 -0.748
-0.366  0.216  0.197
-0.0669 -0.0344  0.171
 0.269  0.149 -0.217
-0.135 -0.0396 -0.268
-0.281  0.191 -0.450
 0.352 0.0331 -0.266
-0.192 -0.575 -0.244
 0.126 0.0816 -0.707
-0.189 -0.213 -0.432
-0.0651 -0.480  0.302
 0.354  0.183 -0.276
-0.146 -0.299 -0.252
 0.323  0.612  0.562
 0.131  0.785  0.458
0.0679  0.347  0.211
-0.449  0.450  0.453
-0.299  0.397  0.230
-0.169 -0.584 -0.0617
-0.424  0.103  0.516
 0.299  0.113 -0.262
0.0279 -0.308 -0.689
-0.287  0.187  0.565
 0.398  0.218  0.529
0.0442  0.560  0.229
0.0368  0.112  0.568
-0.0743  0.742  0.242
0.0847 -0.0599 -0.361
 0.117  0.108  0.497
 0.116  0.468  0.222
0.0814 -0.590  0.451
 0.352  0.125  0.220
-0.411  0.221  0.526
-0.286 -0.0538 -0.477
-0.0583 -0.645 0.0644
-0.0283 -0.477 0.0165
-0.151  0.158 -0.0655
-0.412  0.744  0.462
 0.421  0.545  0.288
-0.294 0.0839 0.0167
-0.0428  0.186 -0.0330
0.0786 -0.580  0.304
0.0281 -0.147  0.306
-0.216  0.185  0.404
 0.329 -0.00522 -0.397
-0.186 -0.136 -0.538
-0.161  0.175  0.214
 0.273  0.780  0.443
-0.0769 -0.567  0.388
-0.198 -0.190 -0.338
 0.263 0.0537 -0.464
 0.224 -0.181 -0.400
-0.181 -0.648  0.126
-0.0799  0.118  0.175
-0.438  0.587  0.453
 0.202 -0.410 -0.361
-0.138  0.110  0.396
-0.470  0.354  0.365
-0.0740 -0.524  0.187
0.0131 -0.363  0.332
 0.147 -0.646 -0.432
-0.272  0.576  0.248
-0.192  0.194 0.0881
-0.311  0.178  0.325
-0.344 0.0248 -0.192
-0.311  0.192 -0.298
 0.210  0.192 0.0172
0.0732 -0.583 -0.206
-0.0148 -0.166 0.0252
-0.00315 -0.646 -0.211
-0.283  0.704  0.287
-0.0978  0.260  0.576
-0.129 -0.646 -0.141
0.0126  0.785  0.443
 0.138 -0.224 -0.630
-0.0610  0.102 -0.755
 0.432  0.237  0.238
-0.232  0.552  0.574
-0.208 -0.647  0.260
-0.335  0.279  0.214
-0.0432 -0.0903 -0.711
-0.0351 -0.591 -0.727
 0.437  0.457  0.288
 0.177 -0.590  0.346
-0.0426  0.458  0.221
-0.0943  0.781  0.509
-0.0578 -0.0574 -0.502
 0.473  0.189  0.419
-0.0376 -0.569 -0.219
 0.136  0.119  0.435
-0.0178 -0.467  0.167
 0.196 -0.587 -0.241
0.0498 -0.206  0.350
-0.0494 -0.360  0.357
 0.130 0.0705  0.395
 0.221 -0.642 -0.112
 0.144 -0.465 -0.683
-0.0775 -0.189  0.403
-0.370 0.0826  0.490
 0.170 -0.646 -0.243
 0.100 0.0911  0.292
-0.0913 -0.260 -0.0851
 0.192 -0.132 -0.489
-0.0504  0.552  0.226
-0.207 0.0572 -0.629
 0.163  0.194 -0.677
0.0814 -0.237 0.0882
0.0188 -0.483 -0.227
-0.0963 -0.0134 -0.767
 0.281  0.774  0.514
 0.155  0.221  0.576
 0.259  0.133 -0.584
 0.139 -0.584 0.0172
-0.189 -0.528 -0.583
-0.311 0.0100 -0.509
 0.133 -0.0328 -0.504
-0.404  0.579  0.269
0.0534 -0.648  0.413
0.0228 -0.0816 -0.727
-0.103 -0.459 -0.701
 0.203 0.00233 -0.248
-0.442  0.371  0.484
0.0171 -0.100 0.0566
0.0820  0.142  0.127
-0.0256  0.150 0.0244
-0.216  0.284  0.211
0.00422 -0.473  0.486
0.0910 -0.582  0.143
0.00906 -0.426 0.0409
 0.283 0.0541 -0.597
 0.337  0.499  0.560
 0.377  0.726  0.291
-0.0666 -0.0854  0.397
-0.0508 0.0548 -0.0295
0.0671 0.0437  0.489
-0.129  0.261  0.203
 0.392 0.0788  0.247
-0.204 -0.589 -0.125
-0.00319  0.134 -0.0316
-0.208 -0.594  0.214
 0.227 0.00583 -0.377
0.0205  0.442  0.219
-0.177 -0.369 -0.594
-0.209 -0.554 -0.459
 0.327  0.193 -0.149
-0.181 -0.442 -0.257
-0.0892 0.0328  0.452
 0.359  0.181  0.419
 0.176  0.121 -0.692
-0.129 -0.586 0.0645
 0.131 -0.210 -0.126
-0.304 0.0332 -0.0985
 0.113 -0.00626 -0.612
 0.292 0.0886 -0.400
-0.137 -0.586  0.301
-0.445  0.459  0.291
-0.129  0.718  0.242
 0.272  0.143 0.0359
 0.215 -0.615 -0.345
 0.207 0.0933 -0.646
-0.303  0.779  0.333
 0.312  0.194 -0.211
-0.303  0.183  0.451
-0.0139 -0.0377  0.515
0.0276 -0.239  0.468
 0.242  0.437  0.231
 0.169 -0.450 -0.254
-0.173  0.613  0.238
0.0741 -0.108  0.285
0.0285  0.158 -0.814
 0.197  0.772  0.563
 0.224 0.0655 -0.162
 0.366  0.402  0.550
-0.107 0.0583  0.298
 0.202 -0.592  0.170
 0.112 -0.648  0.454
 0.331 -0.0214 -0.259
 0.255 -0.0790 -0.485
 0.297  0.100  0.104
-0.0577 -0.00597 -0.104
0.0203 -0.0597 -0.503
0.000732  0.780  0.315
 0.267  0.703  0.286
 0.186 -0.600  0.409
0.0698 -0.205  0.411
0.0306 -0.573 -0.0687
 0.233  0.496  0.234
 0.329  0.332  0.224
-0.186 0.0218 0.00650
-0.323  0.152 -0.409
0.0678  0.623  0.232
0.0820 -0.258 -0.239
-0.440  0.356  0.256
 0.124  0.169  0.328
-0.193 -0.633 -0.616
-0.0838 -0.350 -0.106
-0.398  0.646  0.279
-0.0644 -0.0260 -0.598
0.0759 -0.258 -0.0414
0.0706 -0.567  0.388
 0.131  0.261  0.204
-0.0693 -0.0834  0.141
 0.190 -0.291 -0.369
 0.228 -0.0579 -0.588
-0.207 -0.449 -0.393
 0.264  0.623  0.250
0.0510 -0.490 -0.718
-0.401  0.127  0.412
-0.328  0.316  0.567
-0.0118 -0.189  0.470
 0.123  0.194 0.0566
-0.365  0.528  0.252
0.0174 0.0939 -0.755
-0.347  0.165 -0.0382
-0.161  0.192 -0.00648
-0.167 -0.0964 -0.0594
-0.0331 -0.276  0.343
 0.304  0.194 0.0882
0.00952 -0.389 -0.0457
-0.160 -0.592  0.441
-0.232  0.371  0.577
-0.0900 -0.303 -0.191
0.0521  0.276  0.574
-0.335 0.0691 -0.130
-0.197 -0.284 -0.278
0.0678  0.786  0.356
 0.439  0.559  0.340
 0.280  0.465  0.576
 0.350 0.0882 -0.101
-0.137  0.663  0.576
 0.194 -0.646 0.0802
 0.399  0.721  0.492
-0.0592 -0.200  0.348
 0.183 -0.591 -0.614
-0.296  0.750  0.565
-0.329 -0.0238 -0.383
-0.108 -0.135 -0.0767
0.0363 -0.645 0.0882
0.0205  0.192 0.0881
-0.0189 -0.646 -0.0853
-0.114  0.552  0.574
 0.194  0.402  0.220
-0.177 -0.645 -0.306
-0.114  0.195 0.0960
0.0123 0.0393 -0.0380
0.0641 0.0389  0.167
 0.352  0.108  0.482
-0.346  0.564  0.554
0.0589 -0.511 -0.00315
 0.132 -0.0462 -0.322
0.0143 -0.448  0.277
 0.453  0.126  0.268
0.0218 0.0615  0.547
0.0643 -0.514  0.238
-0.100 -0.213 -0.211
-0.0566 -0.339  0.456
-0.0741  0.228  0.194
-0.0484 -0.262  0.152
 0.121  0.144 -0.00831
-0.0480 -0.648  0.334
-0.0812 -0.345 4.79e-05
 0.263 -0.0445 -0.541
 0.131  0.778  0.308
 0.405  0.150  0.178
-0.199 -0.591 -0.188
-0.153 -0.0208 -0.543
 0.207 -0.595 -0.0150
-0.303  0.465  0.571
 0.147  0.192  0.128
0.0123 -0.0689  0.103
-0.350  0.777  0.380
-0.250  0.121 -0.161
0.00470  0.762  0.573
0.0751 -0.386 -0.238
-0.221 -0.602 -0.0380
 0.211 -0.0972 -0.0995
-0.203 -0.489 -0.471
0.0359 -0.0441 -0.558
-0.358  0.411  0.238
-0.450  0.245  0.484
-0.239 0.0300 -0.669
-0.276 0.0773 -0.0401
-0.137 -0.194 -0.629
-0.291 0.0884 -0.487
 0.139  0.679  0.573
 0.274 -0.0964 -0.306
 0.249  0.178  0.269
0.0570  0.152 0.0177
 0.183 -0.0216 -0.417
-0.0111  0.489  0.575
 0.241  0.292  0.213
-0.222 0.00250 -0.270
 0.257  0.387  0.574
0.0678  0.489  0.577
0.0377 -0.117  0.439
-0.0735 -0.178 0.0824
-0.367  0.142 -0.204
 0.117 -0.391 -0.686
 0.220 -0.645 0.0310
-0.00315 -0.646 -0.440
-0.0820 -0.645 -0.306
0.00750 -0.339  0.199
-0.232  0.194 -0.0381
-0.0969 -0.332 -0.682
 0.384  0.103  0.140
-0.257  0.114 -0.661
-0.0657 -0.239 -0.0188
-0.229 -0.00488 -0.377
 0.132 -0.000782 0.0152
-0.137  0.782  0.325
0.0611 -0.0677 0.0667
0.0294 -0.313  0.473
-0.249 -0.110 -0.420
-0.0854 -0.0564  0.308
0.0599  0.192  0.135
-0.0953  0.133  0.267
 0.154 -0.647 -0.533
 0.295 -0.0351 -0.159
-0.00327 -0.260 -0.679
-0.0231 -0.0551  0.459
-0.0866 -0.0483  0.246
-0.177 -0.555 -0.671
-0.00280 -0.501 -0.725
-0.303  0.194  0.151
 0.271  0.191 -0.589
-0.129  0.784  0.435
 0.138  0.134 0.0461
-0.00316  0.639  0.577
-0.0141 -0.210 -0.00737
 0.107  0.192 -0.732
0.0205  0.194 -0.764
 0.454  0.297  0.457
-0.287  0.576  0.575
 0.249  0.187  0.566
-0.434  0.134  0.216
 0.173 -0.465 -0.614
 0.142 -0.647  0.332
0.0924 -0.00245 -0.770
-0.0505  0.678  0.576
-0.255  0.778  0.301
-0.382  0.140  0.130
 0.206 -0.568 -0.424
-0.224  0.164  0.159
 0.441  0.544  0.420
-0.356  0.167  0.249
 0.433  0.646  0.411
-0.0383 -0.131 -0.675
 0.324  0.143 -0.505
 0.217 -0.599 -0.290
0.0985 0.00646  0.364
-0.178 0.0542 -0.0975
-0.303  0.192 -0.133
-0.458  0.387  0.316
-0.123  0.140 -0.00580
-0.0689 -0.433 -0.235
 0.139  0.591  0.233
0.0836 -0.583 -0.0772
-0.224  0.779  0.506
 0.222 0.0733 -0.00125
-0.118  0.143  0.510
-0.216  0.160 0.0486
-0.170 -0.647 -0.0943
0.0612 0.0300 -0.0609
0.0630 -0.164  0.202
 0.182 0.0302 -0.608
 0.204 0.0221 -0.701
-0.242 0.0615 -0.574
 0.336  0.158  0.567
 0.453  0.451  0.405
-0.410 0.0933  0.175
-0.302  0.647  0.571
-0.180  0.122 -0.703
-0.204  0.111 -0.0612
 0.273  0.252  0.574
 0.273  0.237  0.205
0.0793  0.157  0.222
 0.148 0.0490 -0.765
 0.274 0.00775 -0.0858
 0.202 -0.0170 -0.0284
0.0286 -0.583 -0.125
-0.0510 -0.123 -0.0483
0.0726 -0.567 0.0248
 0.367 0.0889 -0.225
-0.466  0.418  0.396
 0.416  0.487  0.498
-0.0143 -0.0703 -0.396
 0.193 -0.457 -0.471
-0.191 -0.402 -0.511
 0.149 0.00905 -0.146
-0.199 -0.615 -0.566
-0.139 -0.417 -0.685
 0.461  0.145  0.455
 0.170 -0.347 -0.590
 0.171  0.529  0.233
 0.381  0.770  0.482
-0.400  0.103  0.309
-0.0540 -0.420 -0.709
0.0954 -0.291 -0.668
-0.0755 -0.536  0.277
-0.0509 -0.0411 -0.194
 0.232 -0.126 -0.382
 0.312  0.152 -0.369
0.0812  0.129  0.544
 0.340  0.438  0.238
-0.352  0.190 -0.384
 0.172 -0.647 -0.480
0.0667 -0.101 -0.691
 0.186  0.198  0.184
 0.371  0.642  0.270
 0.131  0.418  0.218
 0.449  0.401  0.456
-0.215 -0.568 -0.401
 0.463  0.323  0.356
 0.170  0.331  0.574
0.0993  0.371  0.574
 0.139  0.778  0.529
0.0126 -0.646 0.0409
-0.161 -0.646 -0.503
-0.179 -0.0894 -0.625
 0.186  0.195 -0.0301
-0.0741 -0.646 -0.0301
-0.271  0.410  0.576
-0.212 -0.496 -0.354
 0.341  0.552  0.556
-0.217 0.0618 -0.133
-0.445 0.0805  0.404
 0.324  0.768  0.548
-0.120 0.0640 0.0475
0.00916 -0.390 -0.125
 0.205 -0.242 -0.292
-0.0158 -0.418  0.246
 0.129 -0.0520 -0.713
0.0125  0.678  0.235
0.0773 -0.00752  0.285
-0.0269  0.292  0.575
-0.0898 -0.0614 -0.00444
-0.477  0.145  0.336
-0.172 0.0692 -0.760
-0.0191 -0.0190 -0.623
 0.417  0.124  0.516
-0.122 -0.616  0.467
-0.378  0.450  0.542
 0.297  0.191 -0.0301
0.0250 -0.156 -0.00725
 0.185 -0.227 -0.197
-0.287 0.0642 -0.429
-0.375 0.0721 -0.266
-0.364  0.182 -0.258
-0.169 0.0708 -0.678
0.0724 -0.341 -0.196
-0.287  0.182  0.514
 0.387  0.358  0.534
-0.293 0.0708 -0.309
-0.0278 -0.537 -0.0610
-0.304  0.135 -0.251
 0.134 -0.0480 -0.377
-0.273  0.173 -0.221
 0.366  0.252  0.550
 0.170 -0.645  0.175
 0.318 0.0795 -0.0618
 0.247 0.0466 -0.514
-0.185 -0.588 0.0645
-0.294 -0.0853 -0.317
0.00971 -0.520 -0.0932
-0.359  0.700  0.304
 0.326  0.700  0.529
-0.229 0.0260 -0.221
0.0815 -0.648  0.113
-0.476  0.203  0.353
 0.376  0.176  0.364
-0.0485 -0.648  0.398
0.0380 -0.478  0.136
-0.0856 -0.583 -0.0844
 0.136  0.144 -0.732
 0.136 -0.647 -0.0511
-0.280  0.144 -0.374
 0.228  0.119 -0.694
-0.222 -0.0141 -0.0336
-0.453  0.223  0.259
-0.103 -0.0311 -0.193
 0.329  0.363  0.565
 0.395  0.103  0.428
-0.146 -0.299 -0.653
-0.169 -0.286 -0.593
0.0261 -0.0440 -0.761
-0.206 -0.378 -0.298
-0.131 0.0245 -0.0990
-0.349  0.125  0.530
 0.425  0.663  0.348
-0.0240 0.00926 -0.795
0.0996 -0.481 -0.241
-0.0662  0.442  0.577
-0.337  0.173  0.555
-0.271  0.149 0.00179
 0.256 -0.00547 -0.603
-0.303  0.776  0.522
-0.185  0.147 -0.615
0.0909 -0.268 -0.172
0.0442  0.599  0.575
0.0521  0.195 0.0487
 0.154  0.183  0.270
-0.161  0.347  0.576
 0.273  0.194 -0.0775
 0.144 -0.648 -0.289
-0.0109 -0.592  0.472
 0.202  0.138 -0.0772
-0.197 -0.324 -0.408
-0.0808 -0.137  0.198
 0.130 -0.599 -0.707
-0.447  0.560  0.412
0.0126  0.778  0.515
-0.161  0.418  0.222
-0.445  0.286  0.251
-0.474  0.292  0.357
 0.204 -0.457 -0.338
-0.225  0.189 -0.686
-0.153  0.512  0.227
-0.200 -0.612  0.420
 0.341  0.125  0.530
-0.212 -0.147 -0.361
0.0126 -0.645  0.183
-0.444  0.552  0.339
-0.129 -0.645  0.364
0.0915  0.194 0.00145
 0.340 -0.00642 -0.306
-0.0732 -0.536  0.427
 0.366  0.594  0.537
-0.210 -0.631  0.325
 0.208 -0.520 -0.338
0.0442  0.402  0.575
0.0816 -0.0712  0.214
-0.0923 0.000966 -0.646
 0.326 -0.0291 -0.353
-0.208  0.252  0.576
-0.245 -0.122 -0.291
 0.220 -0.644 -0.251
 0.241  0.434  0.574
0.0363 -0.646 -0.0617
-0.226 -0.000998 -0.452
-0.0426 -0.646 -0.401
 0.278 0.0769 -0.289
 0.375  0.536  0.256
-0.0427  0.339  0.575
 0.233  0.185  0.490
 0.107 -0.646 -0.243
-0.114 0.0136  0.330
0.0794 0.0716 -0.725
-0.222 -0.584 -0.283
-0.0583 -0.144  0.316
-0.153  0.366  0.214
 0.392  0.111  0.308
 0.179 -0.386 -0.543
 0.131 -0.646 0.0644
 0.187  0.145 -0.739
-0.155 -0.0171 0.00243
 0.170 -0.248 -0.530
-0.0919 0.0159  0.397
 0.198 -0.494 -0.270
-0.380  0.119  0.456
 0.234  0.759  0.265
-0.429  0.670  0.339
-0.0649 -0.236 -0.669
0.00993 -0.260  0.309
 0.312  0.186  0.435
-0.0738 -0.644  0.477
 0.123  0.179  0.229
 0.362  0.772  0.302
-0.309 -0.0524 -0.198
 0.338  0.166 -0.00659
-0.112 -0.245 -0.657
-0.377 0.0806  0.221
-0.320 0.0896  0.134
 0.241  0.195  0.104
-0.182 -0.0139 -0.706
 0.136 -0.589  0.447
 0.317  0.281  0.570
 0.180 -0.121 -0.0698
 0.258 0.0393 -0.417
-0.272  0.442  0.233
-0.226  0.157 0.0965
-0.0218 -0.0300  0.389
-0.221 -0.644  0.213
 0.113 -0.132 0.00286
0.0683 -0.449  0.394
-0.314  0.112 -0.354
 0.347  0.103 0.0403
-0.126  0.151 -0.750
 0.126  0.151 -0.782
 0.294 -0.0759 -0.267
 0.205 -0.607 -0.456
-0.406  0.379  0.524
0.0298 -0.375 -0.196
-0.0628 -0.292  0.446
-0.239  0.218  0.196
-0.169  0.181  0.341
-0.0482 -0.323 0.0972
-0.404  0.126  0.364
 0.344  0.489  0.245
-0.194 -0.355 -0.455
 0.425  0.440  0.491
 0.265  0.183  0.380
-0.200 -0.645 -0.0301
-0.462  0.323  0.455
0.0616 -0.195 -0.659
0.0136 -0.347 0.0866
 0.171 -0.212 -0.152
 0.140 -0.313 -0.252
 0.147 -0.584 -0.109
-0.341  0.268  0.566
-0.295  0.193 0.0329
 0.225  0.782  0.435
 0.210  0.552  0.576
-0.319  0.164 -0.526
-0.0889  0.142 -0.0424
 0.226  0.190 -0.100
-0.0427 0.0489  0.512
-0.0578 -0.447  0.336
 0.467  0.269  0.364
 0.273  0.173  0.214
 0.186  0.182  0.467
 0.239 -0.129 -0.298
 0.455  0.229  0.281
 0.419  0.599  0.295
-0.152 -0.158 -0.221
-0.192  0.185  0.467
 0.123  0.631  0.574
 0.247 -0.109 -0.203
 0.376  0.340  0.230
 0.352 0.0814  0.111
-0.219  0.142 -0.552
-0.0162 -0.544 -0.148
-0.305  0.134 -0.487
0.0898 -0.323 -0.0852
 0.139 -0.586  0.151
0.0757 -0.646 -0.369
-0.0978 -0.645 -0.409
-0.0904 -0.0836 -0.706
 0.226  0.245  0.574
-0.190 -0.260 -0.424
 0.296  0.520  0.246
-0.0712  0.128 -0.716
-0.0583 -0.646 -0.700
-0.220  0.614  0.246
-0.0505 -0.646 -0.637
 0.320  0.775  0.427
-0.0720 -0.465  0.429
0.0263 -0.531 -0.227
-0.0140 -0.371  0.151
 0.152  0.121 -0.650
 0.384  0.196  0.186
 0.405  0.673  0.487
0.0588 0.0582 -0.811
-0.137  0.191  0.568
0.0362  0.113 -0.0152
 0.235 0.0147 -0.315
-0.224  0.177  0.223
0.0907 -0.0599 -0.416
 0.194 -0.645  0.423
-0.227  0.150 -0.131
-0.0250  0.137 -0.773
0.0446 -0.647 -0.324
 0.106 -0.0441 -0.252
-0.122 -0.0538 -0.434
-0.200 -0.236 -0.330
-0.00397 0.0143  0.534
-0.0941 -0.584  0.120
 0.123  0.214  0.192
 0.357  0.201  0.553
-0.00667 -0.227  0.216
 0.314 -0.0153 -0.441
-0.103 -0.583 0.0251
-0.130  0.111 0.0474
0.0775 -0.150  0.159
-0.119 -0.00890 -0.604
-0.180 -0.113 -0.584
-0.105 -0.520 -0.237
-0.374  0.179  0.356
-0.327 0.0580 -0.517
 0.162  0.195 0.0172
-0.0607 -0.174  0.446
-0.0830 -0.0123 0.0233
-0.248  0.192 0.0645
0.00965 -0.147  0.464
0.0284 -0.646 -0.164
-0.137  0.203  0.185
-0.0157 -0.434 -0.0617
-0.381  0.703  0.482
-0.206 -0.402 -0.354
 0.273  0.778  0.317
-0.0910  0.158  0.122
 0.106 -0.562 -0.233
-0.358  0.185  0.443
-0.227 -0.0895 -0.543
-0.0346  0.200  0.179
 0.430  0.126  0.225
-0.269 0.0702 -0.220
-0.0645 -0.562 -0.0429
 0.206 -0.595 -0.196
-0.146 -0.252 -0.256
 0.189 -0.300 -0.416
-0.147 -0.495 -0.693
-0.356 0.0154 -0.324
0.0147 -0.00133  0.396
-0.0938 -0.300 -0.109
 0.306  0.110 -0.565
 0.320  0.194 -0.393
 0.451 0.0783  0.385
-0.0594 -0.552 -0.722
-0.222  0.780  0.455
-0.0970 -0.394 -0.241
 0.451  0.323  0.287
0.0311 -0.315  0.347
-0.287  0.132 -0.553
-0.162 -0.648 0.0248
0.0931 -0.585  0.193
0.0560 -0.0819  0.401
0.0766 -0.0315 -0.577
 0.178 -0.645  0.254
 0.255 0.0863 -0.557
 0.181 -0.0203 -0.313
-0.0659  0.498  0.222
-0.172 -0.0327 -0.453
-0.105  0.149 0.0582
-0.185 -0.186 -0.476
-0.0900 -0.585 -0.188
0.0410 -0.477  0.183
 0.414  0.743  0.375
0.0531 -0.344 0.0586
 0.113 0.0292  0.409
0.0394 -0.507  0.475
-0.154 -0.549 -0.244
 0.178  0.332  0.213
 0.241  0.162  0.144
-0.0856 -0.352 -0.0526
-0.185 -0.479 -0.603
0.0129 -0.0148 -0.120
-0.139 -0.0307 -0.223
 0.254 -0.0968 -0.433
-0.0133 -0.378  0.285
 0.343  0.126 -0.462
0.0825 -0.584 -0.720
-0.131 0.0550 -0.0592
 0.112 0.0803 0.0486
-0.358  0.631  0.265
-0.256  0.179  0.301
0.0533 -0.0687  0.132
-0.248  0.191 -0.117
0.0362 -0.0642 -0.306
 0.258  0.127 -0.439
0.0594 -0.191 -0.0663
 0.312  0.195  0.179
 0.200 -0.370 -0.314
 0.123 -0.586  0.238
-0.0194 -0.0795 0.0377
0.0836 -0.645  0.246
-0.192  0.528  0.574
-0.292 0.000907 -0.550
-0.0268 -0.645 -0.251
 0.107 -0.646 0.0172
 0.218  0.663  0.576
-0.289 0.0969 -0.617
 0.267 -0.0803 -0.170
-0.152 -0.0700 -0.676
 0.308  0.148 -0.425
-0.255 -0.109 -0.223
 0.131  0.300  0.576
-0.0169 -0.152 -0.0599
-0.121 -0.645  0.262
0.0521 -0.646 -0.235
-0.185  0.481  0.576
 0.217  0.159 0.0486
-0.278 0.0909 -0.531
 0.471  0.251  0.410
 0.413  0.609  0.490
 0.210  0.783  0.364
 0.367  0.134 -0.322
0.0976  0.124 -0.0432
0.0836 -0.317 0.00915
-0.0839 0.0772  0.544
 0.336  0.693  0.272
0.0835  0.505  0.223
 0.240  0.153 -0.159
 0.139  0.772  0.264
 0.213 -0.606 -0.0854
 0.303 0.000672 -0.132
-0.0329 -0.0906 0.0982
 0.217 -0.619 -0.152
-0.209 0.0239 -0.180
 0.447  0.531  0.376
 0.289  0.192 -0.503
-0.195 -0.182 -0.385
-0.161  0.783  0.364
 0.395  0.313  0.533
 0.186 -0.590  0.222
-0.159 -0.0426 -0.362
-0.260 0.0686 -0.657
 0.194 -0.630 -0.560
-0.200 -0.411 -0.425
-0.364 0.0908 0.0921
-0.0144 -0.442 -0.218
-0.0192 -0.323  0.476
-0.0842 -0.252 0.0564
 0.473  0.150  0.396
 0.114  0.107 -0.795
 0.175 -0.552 -0.660
 0.210 -0.181 -0.444
 0.310 0.0336 -0.525
-0.0187  0.711  0.236
 0.155 -0.584 0.0645
-0.0678 0.00301  0.146
0.0134 -0.648 -0.0226
0.0523 -0.0655 -0.393
0.0519 -0.584 -0.164
-0.321  0.161  0.180
-0.232 -0.0251 -0.631
 0.119 -0.497 -0.702
-0.414  0.708  0.435
 0.150 -0.187 -0.0835
 0.145 0.0421 0.0307
 0.131  0.324  0.211
-0.00316 -0.623 -0.732
-0.302 -0.0711 -0.372
 0.121 0.0507 -0.0649
-0.370 0.0700 -0.362
 0.162  0.781  0.341
-0.0176 -0.467 0.0724
-0.0426  0.786  0.403
-0.237 -0.113 -0.180
-0.0587 -0.0660 -0.369
-0.414  0.623  0.490
-0.0147 0.0529 -0.819
 0.340  0.265  0.215
 0.233  0.776  0.498
-0.271  0.160  0.144
 0.441  0.583  0.396
-0.192  0.775  0.538
-0.352  0.102 -0.0389
 0.228 0.0653 -0.692
 0.131 -0.269 -0.651
-0.382  0.263  0.214
 0.233  0.347  0.574
-0.0110  0.194 0.0566
0.0915  0.192 0.0881
0.0678 -0.646 -0.629
-0.126  0.103  0.492
0.0851 -0.0555 -0.475
 0.194 -0.646 -0.0775
0.0714 -0.120  0.215
 0.283  0.129 -0.524
0.0600  0.750  0.243
0.0367  0.144 -0.773
-0.0815 -0.142  0.372
 0.185 -0.434 -0.527
-0.137  0.192 0.0487
0.0129 -0.250  0.173
-0.235  0.186 -0.539
-0.321  0.152 -0.317
-0.303  0.106 -0.414
 0.101 -0.00211 -0.130
-0.236 -0.0440 -0.0656
0.0448  0.782  0.311
 0.169 -0.418 -0.614
 0.376  0.116  0.266
-0.311  0.194 -0.180
-0.0919 0.0778 -0.0215
-0.479  0.103  0.426
 0.108  0.135  0.298
 0.157  0.166 -0.643
 0.362  0.699  0.500
 0.209 -0.600  0.101
 0.113 -0.648  0.379
-0.352 0.0838 0.0281
 0.107 -0.586  0.404
-0.328 -0.0349 -0.233
-0.185 -0.531 -0.632
0.0636 -0.551 -0.0231
-0.0820 -0.645  0.364
-0.227 0.0566 -0.00465
-0.0209 -0.489 -0.0250
 0.354 0.0869 -0.438
-0.161  0.194 -0.724
-0.209 -0.641 -0.490
 0.352 0.0480 -0.222
-0.191  0.153 -0.0481
-0.0291 0.0227  0.445
 0.344  0.176 -0.429
0.0287 -0.591 -0.728
-0.381  0.775  0.459
 0.189  0.711  0.255
-0.183 -0.588  0.333
 0.219  0.148 -0.662
-0.0973 -0.254 -0.190
 0.191 -0.647 -0.372
-0.0663  0.592  0.231
-0.0538  0.162  0.568
0.0755 -0.281 0.0986
-0.222 -0.612 0.0409
-0.421  0.727  0.333
-0.140 0.00540 -0.137
-0.0156 -0.434  0.136
-0.0740 -0.350 -0.207
 0.135 -0.648  0.418
 0.360 0.0491 -0.306
0.0273 -0.228 -0.0407
 0.189 -0.0584 -0.640
-0.0829 -0.181  0.163
 0.433  0.505  0.300
-0.240  0.699  0.279
-0.228 0.0272 -0.537
-0.0660 -0.509 0.0285
-0.0849 -0.122 -0.666
-0.334  0.194 -0.346
0.0208  0.186 -0.0320
-0.149 -0.605 -0.703
 0.280  0.418  0.229
0.0620 0.00531 -0.656
 0.292  0.112 -0.215
-0.350  0.777  0.317
 0.305  0.148 -0.298
 0.354  0.103 -0.148
 0.302  0.111 -0.362
 0.194 -0.540 -0.509
0.0369  0.120 -0.727
-0.0560 -0.310  0.364
0.00496 -0.00340 -0.655
-0.208  0.776  0.293
0.0513 -0.432  0.347
-0.0584  0.221  0.574
-0.0268  0.775  0.538
 0.107  0.703  0.557
0.0917  0.693  0.245
-0.284  0.180 -0.338
-0.0152  0.104  0.568
0.0645 -0.158  0.425
 0.120 0.0634  0.342
 0.192 -0.321 -0.275
-0.192  0.663  0.573
-0.00311 -0.140  0.262
-0.0832  0.129  0.216
-0.173 -0.331 -0.575
 0.156 -0.0502 -0.0206
 0.266 0.0478 -0.318
 0.194 0.0914 -0.0934
-0.104 -0.207 -0.156
 0.429  0.231  0.504
-0.397  0.260  0.536
-0.376  0.102 -0.329
0.0369  0.400  0.213
-0.271  0.163 -0.419
-0.190 -0.149 -0.497
 0.354  0.189  0.103
0.0188 -0.412  0.327
-0.0899 -0.645  0.104
-0.139 0.0946  0.435
0.0915  0.599  0.576
 0.170  0.497  0.576
-0.271  0.118 -0.0295
 0.216 -0.220 -0.418
0.0757 -0.646 -0.535
 0.320  0.194 -0.322
-0.197 -0.481 -0.262
 0.289  0.194 -0.117
 0.205  0.158 -0.572
-0.248  0.237  0.574
 0.241  0.521  0.577
-0.121  0.363  0.576
-0.263  0.194 -0.582
 0.155  0.371  0.574
-0.193 -0.643 -0.535
-0.0504  0.195  0.104
-0.131 0.0624 -0.701
0.0666 0.0159 0.0960
 0.107 -0.645  0.183
-0.0717 -0.129  0.107
 0.194  0.205  0.575
 0.178  0.776  0.514
-0.196 -0.450 -0.503
-0.448  0.504  0.318
 0.380  0.446  0.246
 0.409  0.733  0.442
 0.120  0.150  0.493
 0.219  0.181  0.342
 0.430  0.516  0.471
 0.170  0.654  0.241
-0.0138 -0.386  0.214
0.0960 -0.230 -0.140
-0.130 -0.648 -0.602
 0.296  0.185  0.474
0.0626 -0.316  0.440
-0.406  0.474  0.522
 0.281  0.106 0.0153
 0.122 0.0902 -0.0376
-0.145 -0.583 0.0254
0.00828 -0.292  0.159
-0.383  0.552  0.532
0.0729 -0.0261 -0.166
-0.458  0.261  0.283
-0.183 -0.599 -0.655
-0.203 -0.355 -0.354
0.0125  0.205  0.183
-0.344 0.0565 -0.463
 0.281  0.191 0.0487
-0.217 -0.639 -0.288
-0.320 0.0802 -0.0155
-0.0245 -0.464  0.256
-0.205 -0.593  0.128
0.0760 -0.0662  0.321
0.0139 -0.0315 -0.601
-0.00314 -0.0510 -0.218
0.0636 -0.236  0.156
 0.136  0.150  0.380
 0.156  0.149 -0.0299
-0.116  0.136 -0.795
-0.0250 -0.0889  0.434
-0.248  0.529  0.240
-0.0802 0.0713 0.0880
 0.200 -0.600  0.303
0.0917  0.311  0.207
0.0740 -0.573 0.0664
-0.278 -0.0535 -0.137
 0.174 -0.00899 -0.221
-0.0808 -0.473 -0.235
 0.154 -0.112 -0.624
 0.273  0.189 -0.227
-0.196 -0.568 -0.574
 0.274  0.150 -0.354
-0.183 -0.647 -0.252
0.0640 -0.363  0.411
-0.222 -0.614 -0.243
-0.274 0.0364 -0.374
-0.326  0.194 -0.416
-0.116 0.0863 -0.799
-0.216  0.136 -0.717
-0.0478 -0.378  0.466
-0.0569 -0.552  0.462
 0.190 -0.112 -0.561
-0.105  0.774  0.259
-0.220 -0.544 -0.306
-0.142 -0.648 -0.0633
 0.235  0.121 -0.620
0.0733 -0.149  0.118
0.0277 -0.0385  0.380
-0.0848 -0.101  0.302
 0.154 -0.585  0.380
 0.232 -0.206 -0.330
 0.253 -0.112 -0.338
-0.0980  0.701  0.263
0.0402  0.160  0.570
 0.357  0.143 -0.378
 0.193 -0.496 -0.488
-0.0750 -0.0606 -0.449
 0.104  0.780  0.495
0.0765  0.102  0.120
 0.264  0.567  0.244
-0.131  0.181  0.500
 0.400 0.0866  0.529
0.0288 -0.158 -0.664
-0.0334 -0.639  0.482
-0.152 -0.00773 -0.738
-0.0651 -0.418  0.451
-0.0135 -0.323  0.230
-0.390  0.363  0.235
-0.146  0.709  0.568
-0.0111  0.205  0.577
0.0384 0.0456 -0.718
 0.389  0.625  0.519
-0.245  0.179 -0.498
-0.173 0.0256 -0.618
-0.224 0.0930 -0.639
-0.350  0.128 -0.459
-0.0956 0.0258 -0.787
 0.444 0.0963  0.479
-0.0506  0.261  0.200
-0.269 0.0409 -0.457
-0.113  0.762  0.572
 0.107 -0.0325 -0.549
-0.0561 -0.0120 -0.782
-0.0192 -0.166 -0.666
-0.332  0.191 -0.00621
-0.0141 -0.457  0.206
-0.0746 0.000760  0.360
-0.191  0.142 -0.0912
0.0848  0.105 0.0656
-0.216  0.749  0.576
 0.420  0.349  0.512
 0.153 -0.355 -0.649
0.0174 -0.132 0.0249
 0.446  0.263  0.483
0.0599 -0.646 -0.693
 0.304 -0.0635 -0.353
-0.200 -0.645  0.167
0.0822 -0.264 -0.0813
-0.217 -0.499 -0.313
-0.0973 -0.582  0.356
0.0762 -0.117  0.325
0.0464 -0.372 -0.0266
 0.469  0.159  0.345
-0.294  0.670  0.260
 0.176 -0.648  0.116
-0.154 -0.386 -0.254
 0.292  0.351  0.222
0.0322  0.485  0.223
 0.334  0.111  0.186
 0.123  0.153 -0.0559
 0.375 0.0803  0.191
 0.165 -0.205 -0.543
 0.412  0.562  0.497
 0.384  0.230  0.208
-0.385  0.766  0.501
-0.374  0.122 -0.263
-0.415  0.339  0.519
 0.110 -0.198 -0.0919
 0.425  0.699  0.403
0.0714 -0.0330  0.223
0.0825 -0.0400 -0.207
-0.0553 0.0319 -0.700
 0.101  0.164  0.532
 0.314 -0.0498 -0.236
-0.0428  0.127 -0.0355
 0.204 -0.648 -0.452
-0.0798 -0.580  0.426
-0.430  0.466  0.490
-0.231 -0.102 -0.141
 0.363  0.141  0.462
 0.172  0.743  0.577
-0.0742  0.576  0.574
0.0599 0.000829  0.374
-0.178 -0.194 -0.516
-0.353  0.111 -0.0851
-0.0161 -0.394 0.0566
 0.155 -0.584 -0.148
 0.115  0.786  0.411
-0.178 -0.268 -0.503
 0.367  0.127 -0.258
 0.353 0.0503 -0.390
-0.259  0.145 -0.618
-0.0883 -0.300 0.0485
 0.107 -0.646 -0.409
-0.0899 -0.646 -0.669
-0.208 -0.600  0.254
-0.248  0.183  0.435
-0.177 -0.645 -0.464
-0.271  0.156  0.104
-0.0584  0.195 0.0251
-0.398  0.505  0.257
-0.0347  0.785  0.443
-0.350  0.191  0.151
 0.312  0.391  0.229
-0.145  0.418  0.574
-0.0820 -0.646 -0.527
-0.0978  0.655  0.574
-0.232  0.481  0.232
0.0756  0.465  0.222
 0.149 0.00848 -0.601
-0.0110 -0.645 0.0882
0.0280 -0.347 -0.698
0.00827 -0.395 -0.0854
-0.177  0.387  0.576
 0.305  0.124  0.143
 0.223  0.150 -0.530
 0.257  0.560  0.576
-0.0713 -0.371  0.434
 0.230 0.0114 -0.425
-0.155 -0.648 -0.653
-0.0717 0.0387  0.128
-0.268  0.111 -0.581
0.0787  0.135  0.167
-0.358  0.134 -0.418
 0.165 -0.441 -0.646
-0.139  0.182 -0.671
-0.174  0.119 0.0349
-0.177  0.184  0.412
-0.246 -0.0689 -0.106
-0.0325 -0.389  0.335
-0.117  0.159  0.295
 0.332 0.0489 -0.150
 0.466  0.339  0.396
0.0835  0.762  0.573
 0.274 0.0621 -0.0531
-0.318  0.315  0.218
-0.224 -0.623 -0.133
-0.0818  0.378  0.212
-0.258 -0.0199 -0.595
-0.114  0.323  0.207
-0.189 -0.355 -0.495
0.0624 -0.240 -0.00838
-0.0189 -0.0560 -0.511
-0.460  0.473  0.380
0.0901 -0.0682 0.0392
0.0204 -0.0700 -0.416
-0.294  0.741  0.267
-0.0151 -0.189 -0.0461
-0.270 -0.101 -0.379
-0.192  0.513  0.231
-0.436  0.529  0.468
-0.217 -0.591 -0.361
-0.454  0.410  0.450
 0.163  0.238  0.199
-0.0741  0.434  0.217
 0.339  0.186 -0.104
-0.0416 -0.648  0.235
 0.301  0.580  0.569
 0.193 0.0342 -0.155
 0.183 -0.647 -0.157
-0.0515 -0.481  0.183
 0.161 0.0625 -0.0868
 0.186 -0.367 -0.477
-0.0567 -0.370 -0.127
-0.0943 -0.307 -0.242
-0.466  0.158  0.461
-0.124 0.0206  0.374
 0.437  0.276  0.246
-0.185  0.192  0.128
0.0695 -0.497  0.418
-0.365  0.119 -0.172
-0.161  0.474  0.227
-0.0829  0.118  0.112
 0.233 -0.140 -0.223
-0.0861 -0.0448 -0.746
 0.217  0.159 0.0882
0.0901 -0.242 -0.204
 0.147  0.260  0.574
-0.256  0.623  0.576
-0.0799 -0.552  0.214
 0.268  0.700  0.551
 0.218  0.623  0.574
-0.345 0.0939  0.177
-0.232  0.434  0.229
0.0460 -0.480 0.0854
 0.112 -0.0375 0.00764
-0.0842 -0.0870  0.254
-0.0345  0.592  0.577
0.00957 -0.473 -0.0459
 0.186  0.245  0.574
 0.257  0.647  0.576
-0.0704 -0.514  0.128
-0.0584  0.268  0.577
-0.153 -0.586  0.230
-0.0350 -0.583 -0.141
0.0757 -0.646 -0.574
-0.0899 -0.645  0.222
-0.0505 -0.645  0.151
-0.145  0.465  0.576
-0.0741 -0.646 0.00930
-0.0584 -0.646 -0.0853
-0.108 -0.0551 -0.293
0.0442  0.663  0.577
0.0206  0.371  0.575
0.0599 -0.646 -0.141
 0.352  0.180  0.325
-0.114 -0.645 0.00929
 0.139 -0.586  0.325
-0.0110  0.552  0.225
-0.137 -0.584 -0.0854
-0.0134 -0.497 -0.133
 0.226  0.182  0.404
0.0915 -0.645 0.0724
0.0917  0.261  0.201
-0.192  0.192 0.0172
0.0910  0.153 -0.760
-0.0189 -0.646 -0.353
0.0227 0.0206  0.454
-0.141 -0.347 -0.252
 0.210  0.179  0.269
-0.318  0.193 0.0803
 0.115  0.458  0.574
 0.107 -0.646 -0.172
-0.106 -0.645  0.183
-0.176  0.760  0.253
-0.271  0.183  0.388
-0.343  0.725  0.279
-0.356  0.165 -0.133
 0.319  0.169  0.208
 0.103 -0.0776 -0.699
 0.289  0.181  0.301
-0.0827  0.192 -0.726
 0.194 -0.379 -0.393
-0.0514 -0.0932 -0.0227
-0.0964 -0.0501 -0.502
 0.188 -0.529 -0.566
-0.468  0.267  0.321
-0.279  0.699  0.554
 0.354  0.150 -0.172
 0.169 -0.648 -0.339
-0.227 -0.638 -0.186
-0.0654 -0.458 -0.712
-0.341  0.109 -0.494
 0.139 -0.645  0.104
