ply
format ascii 1.0
element vertex 2048
property float x
property float y
property float z
end_header
0.0997  0.344 -0.204
-0.881 -0.335  0.317
 0.875 -0.343  0.317
-0.814  0.308 -0.324
-0.00765 -0.342  0.324
 0.897  0.275 -0.323
 0.424 -0.343 -0.312
-0.408 -0.340 -0.324
-0.431  0.283  0.329
 0.587  0.307  0.328
0.0800  0.195  0.301
-0.882 -0.188 -0.174
 0.883 -0.198 -0.165
-0.882  0.175  0.160
-0.343  0.146 -0.297
 0.414 -0.139  0.301
-0.441 -0.316  0.150
0.0210 -0.129 -0.297
 0.483  0.106 -0.297
 0.883  0.136 0.0909
 0.188 -0.316 -0.00737
-0.205  0.318 0.0123
 0.414  0.319 0.00245
-0.244 -0.0312  0.301
-0.569  0.318 -0.0172
 0.581 -0.316 0.0320
-0.618 -0.0410  0.301
-0.156 -0.316 -0.0270
-0.628 -0.0115 -0.297
 0.739 -0.0606  0.301
 0.709  0.319 -0.0762
-0.618 -0.316 -0.0860
-0.882 -0.129  0.111
-0.882 0.0966 -0.125
 0.630 -0.139 -0.297
 0.897  0.301  0.324
 0.198 0.0966 -0.297
 0.355  0.146  0.301
 0.129 -0.100  0.301
 0.119  0.343 0.0713
-0.696  0.339  0.274
-0.166  0.360 -0.260
 0.592 -0.340  0.328
-0.156  0.322  0.276
 0.883 -0.169  0.101
-0.244 -0.110 -0.297
-0.549  0.310 -0.283
 0.355  0.339 -0.269
-0.832  0.343 -0.0369
 0.257 -0.343  0.248
 0.866 0.00818 -0.324
 0.640  0.308 -0.323
 0.168 -0.343 -0.319
-0.117 -0.343 -0.319
-0.263 -0.340  0.328
-0.726 -0.343 -0.312
-0.0871 0.0966 -0.297
-0.618 -0.343  0.324
 0.336 -0.110 -0.297
-0.864 -0.0213  0.329
-0.857 -0.343 0.0123
 0.752 -0.340 -0.324
 0.739  0.343  0.150
 0.247  0.343  0.266
 0.883  0.136 -0.135
-0.392 -0.316 -0.0860
-0.879 -0.0279 -0.323
-0.376  0.343 -0.153
-0.421 -0.159  0.301
-0.402  0.319  0.120
 0.581 0.0966  0.301
-0.677 -0.316  0.120
-0.431 0.0770  0.301
 0.424 -0.316 -0.106
 0.859 -0.343 -0.0172
-0.451 -0.129 -0.297
-0.890  0.293  0.328
 0.739 -0.335  0.164
0.00137 -0.316  0.120
-0.0478 0.0278  0.301
 0.881 0.0835  0.328
-0.716  0.136  0.301
0.0210 -0.316 -0.125
 0.689 0.0966 -0.297
 0.898  0.302 -0.0172
 0.621 -0.343 -0.174
 0.444 -0.343  0.171
-0.746 -0.188  0.301
 0.521  0.343 -0.158
-0.0871 -0.169  0.301
 0.883 -0.0410 -0.0565
 0.424  0.343  0.199
-0.0194  0.339 -0.0573
 0.739  0.205  0.301
 0.247  0.319 -0.0958
-0.176 -0.335  0.164
-0.755  0.116 -0.297
-0.696  0.343 -0.184
-0.185  0.146  0.301
-0.254 -0.343 -0.204
 0.883 -0.169  0.288
-0.440 -0.334  0.329
-0.832  0.343  0.140
-0.706 -0.169 -0.297
-0.0478  0.343  0.140
-0.882 0.0377 0.0516
 0.286 -0.0213  0.301
-0.568  0.343  0.158
 0.562  0.319 0.0909
 0.883 -0.0115  0.179
 0.248 -0.342 -0.167
-0.569 -0.277 -0.297
-0.0281  0.283 -0.324
 0.198  0.267 -0.319
-0.510  0.116 -0.297
 0.729 -0.238  0.301
-0.879 -0.274 -0.323
-0.775 -0.319 -0.153
 0.571 -0.0705  0.301
-0.313  0.310 -0.319
 0.859 -0.159 -0.324
 0.778  0.343 -0.224
 0.403 -0.319  0.328
-0.885  0.261 -0.168
 0.898  0.283  0.160
 0.277  0.319  0.101
 0.797 -0.343 -0.166
 0.188 -0.169 -0.297
 0.336 -0.316 0.0516
-0.313 -0.316 0.0516
 0.336  0.175 -0.297
-0.879  0.136  0.328
 0.581 -0.319 -0.324
0.0374  0.343  0.271
-0.569  0.185  0.301
 0.267 -0.198  0.301
-0.254  0.343  0.159
-0.254 -0.188  0.301
 0.473 -0.198 -0.297
-0.706  0.319 0.0516
-0.882 -0.0803 -0.0467
-0.834 -0.335  0.164
-0.195  0.215 -0.297
0.0308 -0.287 -0.297
-0.882  0.205 -0.00738
0.0701 0.0180 -0.297
 0.159 0.0573  0.301
 0.884 -0.326  0.130
 0.496  0.270 -0.324
-0.225 0.0376 -0.297
 0.503 -0.0410 -0.297
 0.434 0.00816  0.301
0.0701  0.175 -0.297
-0.126 -0.198 -0.297
-0.362 -0.0115 -0.297
 0.129 -0.296  0.301
-0.882 -0.188  0.248
 0.897  0.283 -0.165
 0.146 -0.319  0.158
 0.719 -0.316 -0.0467
-0.549 -0.316 0.0418
 0.883 -0.297 -0.273
 0.365  0.293  0.329
-0.323  0.195  0.301
-0.0969 -0.0508 -0.297
-0.638  0.195 -0.297
-0.323 -0.228 -0.297
-0.882  0.185 -0.302
 0.483  0.205  0.301
-0.116 -0.334 -0.160
-0.362  0.319 -0.0172
 0.532 -0.218  0.301
-0.608 -0.179  0.301
 0.817  0.165 -0.297
-0.205  0.319 -0.125
 0.336 0.0376 -0.297
-0.510 -0.343 -0.166
 0.306 -0.277 -0.297
-0.746 -0.343  0.278
-0.882 0.0377  0.209
-0.569 -0.343  0.199
-0.560  0.339 -0.152
-0.0478  0.244  0.301
 0.883 -0.0705 -0.204
-0.323  0.339  0.274
-0.146 -0.287  0.301
 0.650  0.343 -0.194
 0.591 -0.326  0.162
 0.758 -0.0803 -0.297
 0.778  0.339  0.274
-0.0478  0.343 -0.184
-0.736 -0.316 -0.0270
-0.882 -0.0311 -0.194
 0.719 0.0671  0.301
 0.581  0.319 -0.0369
-0.834 -0.149 -0.297
 0.883  0.185  0.248
-0.579 -0.149 -0.297
 0.881 -0.0443  0.328
 0.883 -0.169 -0.0270
0.0505 -0.316 0.00246
 0.188 -0.0410 -0.297
-0.755 -0.0213 -0.297
-0.421  0.244 -0.297
-0.647 -0.343 -0.214
-0.559  0.310  0.297
-0.736 -0.00167  0.301
-0.490 -0.0115 -0.297
 0.365  0.319 -0.135
-0.677  0.310 -0.319
-0.294 -0.343  0.199
-0.882 -0.247 -0.0664
 0.883 0.0770 -0.0172
 0.493 -0.343 -0.204
 0.119 -0.343 -0.194
 0.134  0.343 -0.0500
 0.168  0.275  0.329
-0.392 -0.0410  0.301
-0.382 -0.343 -0.204
-0.271 -0.340 -0.324
 0.562  0.343  0.209
-0.879 -0.341 -0.211
 0.247  0.343 -0.214
 0.591  0.165 -0.297
-0.785  0.234  0.301
 0.758  0.267 -0.319
-0.687  0.318 -0.0664
 0.797  0.343 0.0319
 0.463 -0.316 0.0418
 0.611 0.00816 -0.297
 0.709 -0.228 -0.297
0.0112 -0.0901  0.301
 0.883 0.0475 -0.214
0.0505 -0.208  0.301
-0.313 0.0770  0.301
 0.883 -0.0410 0.0614
-0.470  0.343  0.229
 0.129  0.343  0.199
-0.0674 -0.343  0.209
 0.552 -0.316 -0.0860
-0.882 -0.247 0.0712
-0.126 -0.0606  0.302
-0.882 0.0770 -0.263
-0.510 -0.0803  0.301
 0.365 -0.343 -0.214
-0.470  0.319 -0.0762
-0.274  0.343 -0.214
 0.267  0.224  0.301
-0.520 -0.257  0.301
 0.827  0.343 -0.0958
 0.316 -0.316 -0.0762
-0.598 0.0770  0.301
0.0505 0.0868  0.301
-0.805  0.343 -0.214
 0.689 -0.316 0.0614
 0.267 -0.316  0.140
-0.244  0.270  0.328
 0.699 -0.343  0.268
-0.894  0.269 0.0843
 0.660 -0.139  0.301
-0.0970  0.343 0.0221
-0.895  0.283  0.209
0.0603 -0.343  0.228
 0.883 -0.277  0.228
-0.882 -0.0803  0.228
 0.883  0.195 -0.0369
-0.686  0.339  0.157
-0.431  0.343 -0.253
-0.461 -0.238 -0.297
 0.630  0.195  0.302
-0.0478  0.136  0.301
 0.660  0.343  0.258
-0.0380 -0.343 -0.233
 0.486  0.314  0.280
 0.883 -0.287 -0.106
-0.343 -0.247  0.301
-0.657  0.244  0.301
 0.512 -0.343  0.258
 0.257  0.106  0.301
-0.156  0.318  0.130
-0.500  0.319 0.0614
-0.814  0.339  0.274
 0.797 -0.316 0.0614
 0.699  0.318 0.0516
-0.510 -0.316 -0.0663
-0.293 -0.316 -0.0565
 0.306  0.318 0.00240
-0.0969 -0.316 0.0909
-0.411 -0.316 0.0221
 0.385  0.319  0.101
-0.195 -0.277 -0.297
-0.0871  0.205 -0.297
 0.454  0.343 -0.233
 0.345 -0.343  0.199
 0.159 -0.316 -0.106
 0.807 0.0180  0.301
 0.883 -0.110  0.199
 0.883 0.0868  0.199
-0.618 0.0966 -0.297
 0.552  0.343 -0.253
-0.879 -0.341 -0.102
-0.857 -0.120  0.329
 0.309  0.270 -0.324
0.0702  0.310 -0.292
 0.884  0.205 -0.224
-0.490 -0.343 -0.263
-0.176 0.0475  0.301
-0.215 -0.316 0.0614
-0.470  0.175  0.301
-0.0576  0.344  0.238
-0.785 -0.257 -0.297
-0.882 -0.159 0.0123
 0.650 -0.0115  0.301
-0.107  0.343 -0.106
0.0112 0.0966 -0.297
-0.667 -0.343  0.219
-0.795 0.0770  0.301
 0.748 0.0180 -0.297
 0.227 -0.100  0.301
-0.372 -0.343  0.258
 0.807 -0.238 -0.297
-0.667 -0.267 -0.297
0.0220  0.339 0.0721
-0.323 -0.110  0.301
 0.483  0.319 -0.0664
 0.316 -0.287  0.301
-0.890  0.310 -0.263
 0.119 -0.238 -0.297
 0.404 -0.0410 -0.297
 0.208  0.319 0.0319
 0.404  0.244 -0.297
 0.660 -0.343 -0.273
 0.788 -0.159  0.301
-0.775  0.343 -0.115
 0.473 0.0966  0.301
-0.0576 -0.316 0.00246
-0.647 -0.316 0.0123
 0.827  0.343  0.189
 0.326  0.343  0.179
-0.895  0.283 -0.0762
 0.630 -0.257  0.301
 0.883  0.254 0.0712
 0.827 -0.257  0.301
-0.824 -0.343 -0.292
-0.795 -0.316 0.0811
-0.726  0.224 -0.297
-0.352 -0.139 -0.297
 0.884 0.0475 -0.106
-0.539  0.205 -0.297
-0.667 -0.267  0.302
-0.323  0.319 0.0712
 0.883 0.0966 -0.302
 0.883 -0.247 0.0516
-0.0281 -0.208 -0.297
0.0505  0.343 -0.125
 0.109 -0.0901 -0.297
 0.394 -0.247 -0.297
 0.178  0.156  0.301
 0.797  0.116  0.301
0.0603 -0.0115  0.302
-0.284  0.319 -0.0762
 0.709 -0.319 -0.153
 0.650  0.319  0.140
-0.480 -0.343  0.228
-0.205  0.302 -0.324
 0.680  0.270  0.328
-0.882 -0.257  0.189
-0.244  0.126 -0.297
 0.129 -0.316 0.0614
-0.529 0.0180  0.301
-0.882 -0.0213  0.120
-0.882 0.0770 -0.0369
-0.677 -0.110  0.301
-0.421 0.0966 -0.297
 0.149 -0.188  0.301
 0.345 0.0475  0.301
-0.136  0.224  0.301
-0.185 -0.129  0.301
-0.0781  0.341 -0.271
 0.611 -0.238 -0.297
-0.166 -0.343 -0.243
 0.709  0.195 -0.297
-0.843 -0.254  0.307
-0.882  0.175 -0.194
 0.209 -0.342  0.324
0.0505  0.275  0.329
 0.769 -0.342  0.324
 0.522 0.0180  0.301
-0.882  0.185  0.248
 0.503 -0.129  0.301
-0.840  0.339 0.0516
 0.883 0.0475 0.0909
-0.284  0.215 -0.297
 0.473  0.319 0.0909
-0.624 -0.340 -0.324
 0.881 -0.341 -0.194
 0.227 -0.343 -0.253
 0.424 -0.238  0.301
 0.883 -0.0803 -0.292
 0.797 -0.343  0.228
-0.882  0.136 0.0811
 0.883 -0.120 -0.125
-0.185 -0.0410 -0.297
-0.0183 -0.0115 -0.297
-0.882 -0.00166 -0.0860
-0.667 -0.0901 -0.297
0.0505  0.344  0.160
-0.470  0.343 -0.174
 0.168  0.319 -0.135
 0.375 -0.0606  0.301
-0.628  0.319 0.0909
 0.855  0.205  0.328
 0.168  0.378 -0.244
-0.618  0.343  0.238
 0.336  0.343  0.266
 0.797  0.267  0.317
 0.883 -0.198 -0.253
 0.286 -0.0410 -0.297
 0.385  0.106 -0.297
-0.687 -0.316 -0.135
-0.382  0.343  0.199
-0.559 -0.0606 -0.297
-0.882 -0.0999 -0.145
 0.512 -0.316  0.130
-0.0281 -0.343 -0.319
0.0898 -0.343 -0.273
 0.883 0.0180  0.258
 0.679 -0.0508 -0.297
 0.562 0.0770 -0.297
-0.313 0.0671 -0.297
 0.434 -0.120 -0.297
-0.0281 -0.238  0.301
-0.882 0.0671  0.130
 0.208  0.324  0.149
-0.156 -0.120 -0.297
 0.188 -0.0213  0.301
 0.797 -0.316 -0.0762
-0.244 -0.198 -0.297
-0.834 -0.343  0.248
 0.630  0.319 -0.106
-0.215 -0.316 -0.135
-0.579 -0.316  0.120
 0.886  0.310  0.238
-0.235  0.343  0.258
 0.247 -0.316 0.0516
-0.136  0.344 -0.184
 0.748 -0.343 -0.233
 0.836  0.314 -0.275
-0.765  0.343  0.189
-0.746  0.332 -0.270
-0.882 -0.129 -0.233
-0.752 -0.340  0.166
 0.611 -0.343  0.248
-0.726  0.283  0.328
 0.709  0.343 -0.267
 0.168  0.195 -0.297
 0.165  0.343  0.272
 0.227 -0.257 -0.297
-0.569 -0.343 -0.243
-0.441  0.319 0.00245
 0.640 -0.316 -0.0663
-0.284 -0.0312 -0.297
 0.286 -0.198 -0.297
-0.441 -0.238  0.301
 0.571  0.244 -0.297
 0.168 -0.343  0.248
-0.0912  0.307  0.328
-0.895  0.302 0.00244
-0.480  0.319  0.140
-0.755  0.343 -0.00737
 0.512 -0.287 -0.297
-0.490  0.275 -0.324
 0.883  0.205  0.160
-0.264 -0.316  0.130
-0.352  0.267  0.317
-0.618  0.343 -0.261
 0.837 -0.335 -0.324
-0.520 -0.343  0.297
 0.394  0.215  0.301
-0.0675 -0.277 -0.297
-0.765 -0.100 -0.297
-0.303 -0.316 -0.135
 0.493  0.185 -0.297
 0.109  0.106 -0.297
 0.375 -0.316 -0.0172
-0.882 -0.0410 0.0221
-0.392  0.146  0.301
 0.473 -0.316 -0.0369
 0.883 -0.247 -0.0369
 0.267  0.136 -0.297
-0.795  0.185 -0.297
 0.227 -0.267  0.301
-0.882 -0.228 -0.243
 0.336 -0.129  0.301
-0.126  0.343  0.199
 0.345 -0.343 -0.319
-0.529 -0.179  0.301
 0.482 -0.319  0.328
 0.758 -0.159 -0.297
-0.882 -0.159 -0.0664
 0.883 -0.247  0.130
-0.882 -0.277 -0.165
-0.726 -0.343 -0.214
-0.746 -0.267  0.301
-0.882  0.175 -0.116
0.0407  0.343 -0.00738
 0.266  0.301  0.329
-0.785 -0.110  0.301
 0.721  0.343 -0.149
-0.369 -0.340  0.166
 0.562 -0.343 -0.253
-0.814 -0.316 -0.0663
 0.257 -0.335 -0.324
-0.0961 -0.340  0.328
-0.608  0.275 -0.324
0.0710 -0.340  0.328
-0.126  0.267 -0.319
-0.0773 -0.316 -0.0958
 0.503  0.342  0.158
 0.404 -0.316  0.111
-0.628  0.319 -0.116
-0.549 0.0376 -0.297
-0.687 0.0376 -0.297
 0.562 -0.179 -0.297
-0.864 0.0573  0.329
 0.883 -0.0901 0.00244
 0.797 0.0770 -0.297
-0.136 0.0376 -0.297
 0.522  0.318 0.0123
 0.679  0.136  0.301
-0.146  0.156 -0.297
 0.404 -0.343  0.248
 0.660  0.319 -0.0172
-0.353 -0.319  0.328
-0.842  0.322 -0.145
 0.837 -0.100  0.302
-0.814 0.0671 -0.297
-0.166 -0.343  0.238
 0.843  0.332 -0.184
 0.881  0.195 -0.324
-0.765  0.343 0.0909
0.0203  0.332 -0.214
-0.796 -0.319  0.328
-0.814  0.165  0.301
0.0898 -0.169 -0.297
-0.176 -0.218  0.301
 0.119 -0.316 -0.0369
-0.323 -0.0115  0.301
-0.529  0.106  0.301
 0.883  0.224 -0.106
 0.827  0.344  0.101
-0.352 -0.343 -0.273
-0.235  0.318 0.0811
-0.882  0.106  0.238
 0.227 -0.316 -0.0762
-0.411  0.339  0.274
 0.345 -0.316 -0.145
0.0308 -0.343 -0.194
0.00136  0.310  0.209
 0.893  0.310 -0.0958
 0.884 -0.335 0.0516
-0.392  0.310 -0.312
 0.434  0.310 -0.312
 0.123  0.270 -0.324
 0.208  0.322 -0.271
-0.244 -0.343  0.258
-0.873  0.116 -0.324
-0.853  0.220  0.328
 0.881 -0.228 -0.324
-0.882 -0.326  0.111
 0.110  0.310  0.307
-0.0371 -0.340 -0.162
-0.805 -0.343 -0.224
-0.638  0.165  0.301
 0.883 -0.0901  0.130
-0.500  0.267  0.317
-0.667 0.0180  0.301
 0.375 -0.179 -0.297
-0.254  0.126  0.301
 0.778  0.343 -0.0369
0.0702 -0.316  0.140
 0.139 0.0376 -0.297
 0.883 -0.0213 -0.125
 0.483 -0.0606  0.301
-0.882 -0.149  0.179
-0.687  0.136 -0.297
 0.326  0.319 -0.0664
-0.470  0.185 -0.297
 0.430  0.343 -0.153
-0.146  0.320 -0.0270
-0.461 -0.316 0.0811
 0.837  0.244 -0.297
 0.286  0.339 -0.152
 0.493 -0.316 -0.125
 0.208 -0.343  0.189
 0.424 -0.343 -0.174
-0.421 -0.0508 -0.297
-0.0576 -0.110 -0.297
 0.883 -0.0115 -0.253
-0.579 -0.316 -0.0270
-0.0183 -0.316 -0.0565
 0.444 0.0475 -0.297
-0.647  0.318 -0.00741
-0.0281  0.156 -0.297
 0.571  0.234  0.301
 0.424  0.165 -0.297
 0.227 -0.110 -0.297
 0.591 -0.179  0.301
 0.630 -0.316  0.101
-0.882 0.0573 -0.184
 0.699 -0.120 -0.297
-0.529  0.343 -0.224
0.0701 -0.139  0.301
 0.571 -0.100 -0.297
-0.225 -0.287  0.301
-0.834  0.244 -0.297
-0.392 -0.277 -0.297
 0.404  0.332  0.275
 0.881 -0.341  0.199
-0.310  0.324 -0.144
 0.296 -0.343 -0.243
 0.355 -0.228  0.301
 0.883 -0.188 -0.0958
-0.402  0.319 -0.0860
-0.225 -0.316 -0.0172
-0.352  0.234 -0.297
 0.817 -0.343 -0.243
-0.441 -0.316 -0.135
-0.0969 0.0770  0.301
-0.0576 -0.100  0.301
 0.404  0.319 -0.0664
 0.883  0.185 0.0319
 0.884 0.00818 -0.00738
 0.788 -0.316 -0.00737
 0.522  0.146  0.302
 0.807 -0.0312 -0.297
-0.362 -0.316  0.101
 0.883  0.126 -0.0664
-0.882 -0.0115  0.258
-0.382 0.0278  0.301
-0.392  0.319 0.0516
-0.618 -0.218 -0.297
-0.882  0.244 -0.243
-0.510 -0.316  0.130
 0.542 -0.296  0.301
-0.539  0.319 -0.0860
-0.628  0.310  0.307
 0.237  0.205 -0.297
-0.775 -0.188 -0.297
 0.660 -0.335  0.164
 0.807 -0.326  0.162
 0.444  0.263  0.309
 0.277 -0.340  0.328
-0.176  0.275  0.329
-0.0183  0.323 -0.125
-0.677 -0.188  0.301
 0.424  0.146  0.301
 0.883  0.136 -0.204
 0.630  0.318 0.0516
 0.267 0.0671 -0.297
-0.192 -0.340 -0.324
-0.156 -0.316 -0.0958
-0.244 0.0376  0.301
-0.284  0.319 -0.00739
 0.883 -0.179  0.199
-0.882 -0.188  0.317
-0.451 -0.343 -0.204
-0.598 -0.343 -0.166
-0.894  0.278 -0.323
0.0112  0.234 -0.297
-0.303  0.343  0.209
-0.352  0.343 -0.267
-0.0296  0.343 0.0115
-0.411  0.224  0.301
-0.687 -0.326  0.328
-0.894  0.308  0.140
 0.552  0.308 -0.323
-0.882  0.254  0.268
-0.520 -0.315 -0.323
 0.532 -0.343  0.189
 0.680  0.255 -0.299
-0.0183 -0.343  0.258
 0.709 -0.296 -0.297
0.0407 -0.287  0.301
-0.0281  0.310  0.288
 0.671 -0.340  0.328
 0.881 -0.221  0.328
 0.257  0.310 -0.319
 0.729  0.310  0.307
-0.264  0.314 -0.275
-0.805 -0.0312  0.301
-0.824 -0.0705 -0.297
-0.510 -0.159 -0.297
 0.817 -0.110 -0.297
 0.591 0.0180  0.301
-0.382 -0.198 -0.297
-0.706 -0.316 0.0614
 0.257 -0.316 -0.0172
0.0898 -0.316 -0.0958
-0.882  0.106 0.0221
-0.352 -0.169  0.301
-0.569 -0.110  0.301
-0.126 -0.316 0.0320
 0.640 -0.316 0.00246
 0.404 0.0770  0.301
-0.352 -0.316 -0.00737
 0.473 -0.188  0.301
0.0112 -0.343  0.179
 0.866  0.310 0.0418
 0.562  0.339  0.274
 0.893  0.310 -0.243
 0.178  0.319 0.0909
 0.179 -0.340 -0.162
 0.375  0.343 -0.194
-0.261  0.270 -0.324
 0.883 -0.277 -0.184
-0.746 -0.316 -0.0958
-0.849 -0.218 -0.310
 0.893  0.310  0.101
 0.345 -0.343  0.317
-0.588 -0.343  0.268
-0.864 0.0377 -0.324
 0.129  0.323 -0.273
 0.884  0.146  0.317
 0.883  0.244  0.288
-0.726 -0.0705  0.301
-0.333 -0.0705 -0.297
 0.522 0.0278 -0.297
-0.834 -0.343 -0.166
-0.618 -0.316 0.0713
-0.00846 -0.316 0.0418
0.00134 -0.169  0.301
-0.549 -0.208 -0.297
 0.463 -0.343 -0.263
 0.129  0.116  0.301
-0.195 -0.343  0.297
 0.660  0.156 -0.297
-0.500 -0.316 0.00246
-0.785 -0.316 0.0123
0.0505 -0.218 -0.297
-0.882 0.0180 -0.233
 0.748 -0.316  0.101
 0.883 -0.129 0.0516
 0.855 -0.340 -0.122
-0.176 -0.0213  0.301
-0.500 -0.0901 -0.297
 0.709  0.343  0.219
-0.559  0.319  0.101
 0.840  0.343 -0.0303
-0.824 -0.169  0.301
-0.882  0.244  0.140
-0.882 -0.287 0.00244
-0.882 -0.0901 -0.319
 0.884 0.0180  0.324
 0.611  0.332 -0.270
-0.833  0.339 -0.269
-0.814 -0.00167 -0.297
 0.630 0.0770 -0.297
-0.500  0.319 -0.0172
-0.244 -0.110  0.302
-0.107 -0.343 -0.224
 0.227  0.318 -0.0369
 0.119 -0.0312  0.301
-0.117  0.136  0.301
-0.402 0.0376 -0.297
 0.277 0.0474  0.301
-0.0773 0.00816 -0.297
 0.483  0.343  0.219
-0.529  0.343  0.209
 0.621  0.343  0.189
-0.264  0.215  0.301
-0.215  0.343 -0.194
-0.284 -0.267  0.301
-0.235 -0.343 -0.263
0.0112  0.156  0.301
0.00134 -0.0705 -0.297
 0.883 -0.0901  0.258
-0.117  0.343 0.0811
 0.883 -0.129 -0.224
 0.543 -0.342 -0.167
-0.882 -0.0606  0.170
 0.670 0.0278 -0.297
 0.748  0.116 -0.297
-0.313 -0.343  0.278
 0.453 -0.267 -0.297
-0.882 -0.188  0.130
 0.679 -0.0803  0.301
-0.421 -0.343 -0.263
-0.343  0.319  0.140
-0.824  0.343  0.209
-0.0773 -0.316  0.150
-0.881 -0.335  0.209
 0.109 -0.238  0.301
-0.628 -0.343  0.171
0.0774  0.374 -0.253
-0.608 -0.287  0.301
0.0439 -0.340 -0.324
 0.277  0.339 -0.269
-0.882 -0.0705  0.297
-0.881 -0.335 -0.312
0.0112 -0.343 -0.273
-0.490  0.339 -0.269
 0.141  0.325  0.143
-0.274 -0.287 -0.297
 0.689 -0.343 -0.204
-0.451 -0.0705  0.301
 0.768  0.205 -0.297
-0.637  0.343 -0.194
-0.0478 -0.0410  0.302
-0.785  0.293  0.328
0.0996 0.0475  0.301
 0.729 0.00816  0.301
 0.119 -0.0312 -0.297
0.0701  0.244 -0.297
0.0997  0.343 0.00246
-0.882 0.00817 -0.0270
0.0603 -0.0410 -0.297
 0.883 0.0868 0.0418
-0.677 -0.316 -0.0762
-0.696 -0.0312 -0.297
-0.746 0.0475 -0.297
 0.345 -0.0508 -0.297
-0.882  0.195 0.0712
-0.441 0.0180  0.301
-0.185  0.343  0.209
 0.883  0.215 -0.165
-0.579  0.244  0.301
-0.136 -0.257 -0.297
-0.882  0.116  0.179
 0.512 -0.110 -0.297
-0.195  0.215  0.301
 0.883  0.126  0.258
-0.362 -0.316 -0.145
-0.500  0.322  0.276
 0.883 -0.277  0.307
-0.667  0.255 -0.299
-0.883  0.310 -0.204
 0.835  0.344  0.258
-0.755  0.332  0.275
 0.580  0.339 -0.152
 0.640 -0.315 -0.323
 0.722 -0.305  0.307
 0.267  0.165  0.301
 0.208 -0.188  0.301
-0.333 -0.287 -0.297
 0.404 -0.316 0.0516
-0.687  0.319 -0.125
0.0505  0.343 -0.0664
-0.126 -0.120  0.301
-0.215 -0.316 -0.0762
 0.110  0.343 -0.125
-0.667 0.0770  0.301
-0.736 0.0573  0.301
 0.552 -0.316 -0.0270
-0.778  0.263 -0.304
-0.677  0.344 -0.261
 0.336  0.215  0.301
 0.729 -0.159  0.301
-0.323  0.136  0.301
-0.726 -0.257 -0.297
-0.343  0.319 -0.0860
 0.316 -0.316 -0.0172
 0.883  0.195 0.0909
 0.881 -0.341  0.258
 0.621 -0.0508 -0.297
-0.608 0.0180  0.301
 0.883  0.254 -0.263
 0.493  0.322 -0.271
 0.748  0.343 0.0713
 0.227  0.331 -0.150
 0.807  0.302 -0.324
 0.159  0.224  0.301
 0.512 -0.343 -0.312
 0.355  0.310 -0.319
 0.718  0.324 -0.0172
-0.775 -0.314 -0.319
-0.775 -0.343  0.219
-0.195  0.319 -0.0565
 0.679 -0.208  0.301
 0.660 -0.188 -0.297
-0.195 -0.169 -0.297
-0.864  0.310  0.268
 0.463  0.319 0.0319
 0.883  0.136  0.170
-0.441 -0.316 -0.0270
 0.218 0.00816 -0.297
-0.588  0.146 -0.297
-0.431  0.344  0.170
-0.392 -0.110  0.301
-0.746  0.343 -0.214
-0.677 -0.343 -0.283
-0.647 -0.169 -0.297
-0.882  0.126 -0.224
-0.431 -0.343  0.258
 0.532  0.136 -0.297
-0.882 -0.188 -0.116
-0.0969 -0.00167  0.301
 0.394 0.0180 -0.297
-0.0969 -0.343  0.258
 0.453 -0.0115 -0.297
-0.156  0.318 0.0418
-0.539 -0.316 -0.115
 0.611 -0.316 -0.115
 0.178 -0.316  0.111
-0.461 0.0376 -0.297
-0.156 -0.316 0.0811
 0.316 -0.316  0.111
-0.195 -0.343 -0.194
 0.178 -0.129  0.301
 0.286 -0.100  0.301
-0.706  0.215  0.301
 0.807 -0.0508  0.301
 0.493 -0.267  0.301
 0.660 -0.267 -0.297
 0.883  0.254 -0.0565
-0.431  0.319 -0.135
-0.451  0.319 0.0909
-0.235 -0.343  0.171
-0.00847  0.275  0.329
-0.667 -0.343  0.278
-0.0228  0.343 -0.257
 0.119 -0.314 -0.319
 0.883  0.156 -0.283
 0.345  0.234 -0.297
 0.316  0.267  0.317
-0.461 -0.319 -0.324
 0.881 -0.123  0.328
 0.188  0.343 -0.204
-0.706  0.343  0.219
-0.110  0.376 -0.240
-0.824 0.0278  0.301
 0.286 -0.316 -0.135
 0.854 -0.277 -0.319
 0.532  0.267  0.324
-0.726  0.283 -0.324
0.0702  0.343  0.101
-0.560 -0.319  0.328
-0.882 -0.169 -0.319
 0.758  0.310 -0.283
 0.826 -0.319  0.329
-0.126 -0.343  0.189
-0.294 -0.343 -0.273
-0.352  0.343 -0.204
 0.807  0.195  0.301
-0.882  0.215 -0.0762
 0.168  0.318 -0.00741
-0.765 -0.343 -0.263
 0.883  0.244  0.199
 0.739 -0.343  0.228
-0.882  0.215  0.199
 0.316  0.106  0.301
-0.882 -0.120  0.268
-0.510  0.215  0.301
0.0210 0.0278  0.301
-0.0675 -0.277  0.301
-0.0675 -0.169 -0.297
 0.316  0.319 0.0614
 0.883 -0.287 0.0909
-0.882 -0.0705 -0.233
 0.542 -0.316 0.0713
-0.274 -0.316 0.0123
 0.883 -0.208 0.0123
 0.883 0.0868  0.130
 0.237 0.00816  0.301
 0.883 -0.238  0.268
-0.156  0.319 -0.0958
-0.736  0.343 -0.0762
-0.510 -0.267 -0.297
-0.882 -0.297 -0.273
 0.277  0.331  0.154
 0.385  0.331  0.154
-0.205  0.310  0.297
-0.882 -0.257  0.268
-0.411 -0.296  0.301
 0.326  0.319  0.130
-0.715  0.324  0.114
 0.218  0.310  0.297
 0.453  0.324  0.149
 0.837 0.0671  0.302
-0.284  0.310  0.297
-0.451  0.310 -0.312
-0.559  0.255 -0.299
-0.693 -0.340  0.166
 0.881 -0.341 -0.0664
-0.0773 -0.343 -0.283
 0.208  0.343  0.199
-0.838  0.307  0.328
-0.882  0.254 0.0221
 0.581  0.331  0.154
-0.838  0.343 -0.0958
 0.385 -0.335  0.164
-0.343 -0.335 -0.324
 0.630  0.310  0.297
-0.316 -0.319  0.158
-0.569 -0.335 -0.324
-0.882  0.156 -0.0664
 0.883 0.0475 -0.283
 0.463  0.319 -0.116
-0.470 -0.120  0.301
-0.156 0.0868 -0.297
 0.778 -0.218  0.301
-0.303 -0.343 -0.184
 0.129  0.156 -0.297
 0.883 -0.257 -0.233
-0.195 -0.0705  0.301
 0.247 -0.159 -0.297
 0.119  0.215 -0.297
 0.375 -0.179  0.301
 0.768 -0.110  0.301
-0.805 -0.218  0.301
 0.778 -0.277  0.301
 0.689  0.224  0.301
 0.345 -0.228 -0.297
 0.601  0.343 -0.214
 0.699  0.343 -0.214
 0.562 -0.267 -0.297
 0.385 -0.343 -0.263
-0.0969  0.185  0.301
 0.660 0.0868  0.301
-0.882 0.0573 -0.0860
-0.882 -0.0213 -0.135
-0.882 -0.0606 -0.0958
 0.883  0.136 0.0123
-0.549  0.319 0.0418
-0.618 -0.0705 -0.297
-0.362 0.0966  0.301
-0.882 0.0573  0.258
0.0800  0.343  0.219
-0.156 0.0966  0.301
 0.168 -0.0901 -0.297
 0.257  0.319 0.0516
-0.706 0.0868 -0.297
 0.365  0.319 0.0221
 0.473  0.343 -0.184
 0.326 -0.343  0.248
 0.139 -0.149 -0.297
-0.176 -0.218 -0.297
-0.0871  0.343 -0.0565
-0.628 -0.228  0.301
-0.303 -0.179 -0.297
 0.758  0.156  0.301
 0.453  0.224 -0.297
 0.581  0.175  0.302
-0.136 -0.316  0.130
0.0308  0.234  0.301
 0.139 -0.343 -0.253
-0.411  0.343 -0.204
 0.689  0.343  0.170
-0.726 -0.340 -0.161
-0.895  0.302 -0.125
0.0210  0.302 -0.324
 0.827  0.310  0.324
 0.689  0.310 -0.302
-0.0871  0.310 -0.312
-0.00824  0.311  0.150
-0.421 -0.343  0.189
-0.0296  0.343 0.0704
 0.404  0.322 -0.271
 0.168  0.310 -0.319
-0.737 -0.314  0.324
-0.245  0.339 -0.152
-0.755 -0.316  0.120
-0.678  0.301  0.328
 0.892  0.266 0.0221
 0.247  0.255 -0.299
 0.413  0.309  0.324
-0.0773  0.255 -0.299
 0.375 -0.287  0.301
-0.879 -0.341 -0.0336
-0.362  0.310  0.288
 0.837  0.116 -0.297
 0.316  0.310 -0.283
-0.849 -0.326 0.0712
 0.208  0.255  0.303
0.0210  0.310  0.307
 0.375 -0.306 -0.302
 0.897  0.269 -0.214
-0.303  0.270  0.328
 0.739  0.255  0.303
-0.117  0.343  0.150
-0.343 -0.316 -0.0663
 0.552 -0.120  0.301
-0.726 -0.343  0.228
 0.159 -0.247  0.301
-0.840 -0.304  0.309
-0.0773  0.343  0.189
 0.532 -0.316 0.0221
 0.119 -0.316  0.111
0.0603  0.136  0.301
 0.277 -0.0901 -0.297
 0.277 0.00816 -0.297
 0.365 -0.0115  0.301
 0.883 -0.0901 -0.0664
0.0603 -0.0803  0.301
-0.411  0.195 -0.297
-0.402 -0.149 -0.297
-0.235  0.175 -0.297
 0.168 -0.228 -0.297
-0.882 -0.198  0.199
 0.660 -0.316 -0.125
-0.569 -0.0115 -0.297
 0.883 -0.0410  0.268
0.0603 0.0868 -0.297
0.0407 -0.316 0.0516
-0.882 -0.0901 0.0319
 0.883  0.244  0.120
 0.581 -0.316  0.111
 0.473 -0.316 0.0909
-0.628 -0.0901  0.301
-0.882  0.126  0.130
 0.178 -0.0705  0.301
 0.883 -0.0705 -0.116
 0.680 -0.316  0.111
-0.274 0.0278 -0.297
-0.0183 -0.257 -0.297
 0.883 -0.00166  0.130
 0.424 -0.316 -0.00737
-0.882 -0.238 0.0123
0.00134  0.106  0.301
 0.532 0.0868  0.301
-0.0380  0.195  0.301
0.0505 -0.343  0.278
 0.424 -0.0508  0.301
-0.362 -0.316 0.0418
-0.569 0.0868 -0.297
-0.569 -0.0312  0.301
 0.630 -0.0705  0.301
 0.336 0.0966 -0.297
-0.795  0.343 -0.165
 0.768  0.343 -0.174
 0.758  0.344  0.209
 0.562 -0.343  0.238
 0.748 -0.343  0.278
 0.424 -0.188 -0.297
 0.316 -0.188  0.301
-0.136 -0.179  0.301
-0.882 -0.267  0.140
 0.306 -0.343 -0.194
-0.882  0.224 -0.125
 0.119 -0.343  0.238
 0.159 -0.343  0.297
-0.235 -0.238  0.301
-0.882  0.185 -0.243
-0.882 -0.287 -0.116
-0.529 -0.343  0.248
 0.611  0.343  0.238
 0.581 -0.228  0.301
 0.611 -0.343 -0.224
-0.765  0.146  0.301
-0.569  0.343  0.248
-0.736 -0.120  0.301
-0.480 -0.169  0.301
-0.628 -0.343 -0.273
-0.569 -0.247  0.301
 0.689 -0.343  0.219
 0.414 -0.316 -0.0565
 0.788 -0.316 -0.125
 0.778  0.343 -0.106
 0.855 -0.179  0.328
 0.848  0.265  0.328
-0.647 -0.335 -0.160
 0.178  0.318 -0.0860
-0.618  0.319  0.140
 0.159 -0.343  0.199
-0.824 -0.316 -0.125
 0.683 -0.340 -0.324
 0.866 -0.343 -0.273
-0.126  0.267  0.324
 0.306 -0.335  0.164
-0.146 -0.306 -0.302
 0.856  0.308 -0.324
 0.463 -0.314 -0.319
 0.542 -0.343  0.317
 0.849  0.314  0.134
-0.145 -0.342  0.324
 0.630  0.267  0.324
 0.884 -0.179  0.150
-0.107  0.322  0.276
 0.385  0.343  0.229
 0.286  0.205 -0.297
 0.326 -0.0606  0.301
-0.687 -0.316 -0.0270
-0.195  0.126 -0.297
-0.588 -0.316 -0.125
-0.706  0.318 0.00240
-0.274  0.319  0.111
 0.227 -0.316 -0.125
-0.392  0.136 -0.297
-0.215 0.0966  0.301
0.0603  0.343 -0.174
-0.500  0.234 -0.297
 0.797 -0.188 -0.297
 0.748 -0.257 -0.297
-0.235 -0.247 -0.297
 0.532 -0.218 -0.297
 0.286 -0.343  0.209
 0.621  0.205 -0.297
 0.306 -0.149 -0.297
 0.640 -0.343  0.288
-0.195 -0.316  0.111
 0.827 -0.316  0.101
-0.480 -0.0312  0.301
 0.883 0.0475  0.170
 0.542 -0.0312  0.301
-0.254 0.0770 -0.297
-0.882 -0.110 -0.0860
 0.883 -0.198 0.0614
-0.882 -0.0213 -0.263
-0.608  0.319 0.0221
 0.453  0.319 -0.0270
 0.473 0.0376  0.301
 0.699 -0.0312  0.301
 0.621 0.0573  0.301
 0.522  0.319 -0.0958
-0.628 -0.120 -0.297
-0.117 -0.316 -0.0565
 0.883 0.0770 -0.174
 0.198 0.0868  0.301
 0.883 0.0180 -0.174
-0.882 -0.0311  0.209
-0.882 -0.198 -0.0369
-0.382 -0.0803 -0.297
-0.480 0.0475  0.301
 0.365  0.319 -0.0369
 0.512  0.319 0.0614
-0.146 -0.0115 -0.297
 0.884 0.0475 -0.0565
-0.882 -0.159 0.0614
-0.402 -0.316 0.0713
 0.591 -0.316 -0.0565
 0.729 -0.316 0.0320
-0.0576 0.0573 -0.297
-0.882 0.0770 0.0811
-0.882 -0.0115 0.0614
0.0308 0.0475 -0.297
-0.303 -0.316  0.101
-0.628 0.0376 -0.297
 0.883 0.0377 0.0418
-0.0478 0.0770  0.301
 0.807 0.0180 -0.297
-0.0478 -0.0508 -0.297
 0.581  0.319 -0.0860
-0.667 -0.0312  0.301
 0.129 -0.316 0.0123
0.0210 -0.0410  0.301
 0.277  0.318 -0.0565
 0.630  0.146  0.301
 0.758 -0.0312 -0.297
 0.689 -0.316 0.00246
-0.569 -0.316 -0.0762
 0.463 -0.343  0.258
 0.424 -0.188  0.301
 0.463  0.309  0.324
-0.303 -0.188  0.301
-0.294  0.146 -0.297
-0.706 -0.120 -0.297
-0.882 -0.0803  0.111
 0.473 -0.149 -0.297
 0.227  0.319 0.0909
-0.176 -0.316 0.0320
-0.882 -0.179 -0.233
0.0210 -0.179 -0.297
 0.709 -0.179 -0.297
 0.797 -0.343  0.278
-0.264 -0.316 0.0614
-0.882 -0.297 -0.0664
 0.709 -0.343 -0.273
-0.588  0.205 -0.297
 0.884 0.0966 -0.106
 0.532  0.215 -0.297
 0.218 -0.316  0.140
 0.883  0.116 -0.253
-0.539  0.156 -0.297
 0.286 -0.149  0.301
-0.677 -0.208 -0.297
 0.453 -0.110  0.301
-0.500 -0.208 -0.297
-0.284 -0.0803 -0.297
 0.788  0.343  0.130
-0.284 -0.0606  0.301
 0.463 -0.0705 -0.297
-0.638  0.116  0.301
 0.670  0.319 -0.135
 0.718  0.323  0.111
-0.333 -0.343  0.228
 0.883 -0.139  0.238
 0.129 -0.316 -0.145
0.00136  0.310 -0.00739
-0.834  0.106  0.302
-0.205  0.343  0.163
 0.444  0.343  0.248
 0.139  0.344 -0.165
 0.208 -0.314 -0.319
-0.569  0.343 -0.253
-0.882 -0.306  0.248
-0.156  0.316 -0.276
-0.873 -0.343 -0.263
-0.677 -0.319 -0.324
0.0407  0.344 -0.261
-0.0576  0.343 -0.106
-0.529 -0.343  0.171
 0.719  0.344  0.266
 0.103 -0.340  0.166
0.0898  0.343  0.266
-0.834 -0.296 -0.297
 0.611  0.267 -0.312
 0.884 -0.326 -0.319
-0.882 -0.297 0.0516
-0.138  0.327 -0.140
-0.0773  0.343 -0.223
-0.729  0.343 -0.125
 0.394  0.283 -0.324
 0.866  0.310 -0.0565
-0.490  0.343  0.179
 0.414  0.319 -0.116
-0.372  0.343  0.248
-0.834 -0.316  0.120
 0.316  0.310  0.297
-0.846  0.314  0.179
-0.0486 -0.319  0.328
 0.857  0.310 -0.145
-0.854  0.310 -0.0664
-0.225  0.339 -0.269
-0.0773 -0.315 -0.323
-0.303  0.339 -0.269
-0.706  0.310 -0.283
 0.851 -0.0508 -0.310
 0.542  0.310  0.307
 0.119  0.267  0.324
-0.628  0.310 -0.292
 0.679 -0.287  0.301
0.0172  0.315 -0.155
-0.647  0.339  0.274
-0.834  0.255  0.304
 0.630  0.339 -0.152
-0.393  0.309  0.324
-0.481  0.309  0.324
 0.208 -0.343  0.278
-0.609  0.343 -0.158
-0.254 -0.326 -0.158
 0.866  0.146 -0.324
-0.765  0.308 -0.324
-0.805  0.343 0.0221
 0.857  0.310  0.199
 0.306 -0.315 -0.323
 0.797 -0.343 -0.302
 0.614 -0.306  0.307
-0.156  0.302 -0.324
-0.481 -0.314  0.324
 0.883 -0.247 -0.283
-0.882  0.234 -0.319
-0.873  0.310 0.0614
 0.512  0.319  0.120
 0.463 -0.316  0.140
 0.512  0.343  0.258
-0.569  0.308 -0.323
 0.881 -0.120 -0.324
 0.849 -0.342  0.163
-0.879 -0.341  0.163
 0.375  0.255  0.303
-0.879 -0.341 -0.161
-0.176 -0.326 -0.158
-0.677  0.319 0.0909
 0.840  0.343 0.0582
-0.647  0.344  0.179
 0.827  0.344 -0.243
-0.854  0.310 -0.0172
-0.0674 -0.343 -0.194
 0.286 -0.343 -0.292
 0.817 -0.287 -0.297
-0.618  0.263  0.309
 0.897  0.293  0.278
 0.883 -0.0705  0.179
 0.883 -0.188 -0.302
0.0407 -0.316 -0.0860
-0.882  0.254 -0.0467
 0.512  0.343 -0.204
 0.611 -0.139  0.301
 0.571 -0.316 -0.135
 0.719  0.116  0.301
-0.795  0.136 -0.297
-0.755 -0.149 -0.297
 0.621 -0.343 -0.292
-0.480 -0.343  0.278
-0.706  0.185 -0.297
 0.139  0.185  0.301
 0.188 -0.343 -0.233
-0.402 -0.218  0.301
-0.480 -0.218  0.301
-0.146  0.343  0.238
 0.748  0.165 -0.297
-0.323 -0.287  0.301
 0.719 -0.100  0.301
 0.699 -0.316 -0.0860
 0.699 -0.0115 -0.297
 0.218 -0.316 0.0909
0.0308  0.136 -0.297
-0.117 -0.0901 -0.297
-0.882 -0.110 0.0712
 0.542 -0.0606 -0.297
-0.882 -0.208 0.0516
-0.225 -0.0606 -0.297
 0.512 -0.316 -0.0565
-0.185 0.0180 -0.297
 0.168 -0.316 0.0320
-0.882 -0.120 -0.00738
-0.0969  0.343 -0.165
 0.883 -0.129  0.150
-0.746 -0.316 0.0418
 0.571 0.0278 -0.297
 0.522 -0.0803  0.301
 0.159 0.0770 -0.297
-0.470 -0.316 -0.0860
-0.882 0.0180  0.101
0.0210 -0.247  0.301
-0.0675 -0.208  0.301
 0.365  0.319 -0.0860
-0.402  0.319 -0.0369
-0.352 0.0475 -0.297
 0.227 -0.0410  0.301
0.0603  0.343 0.0319
-0.588  0.318 -0.0565
-0.0478 -0.316 0.0614
-0.579  0.319 -0.106
-0.706 -0.287  0.301
 0.884 -0.297  0.268
 0.640 -0.179  0.301
-0.529 -0.129  0.301
-0.569 -0.159  0.301
-0.431  0.126  0.301
-0.628 -0.343  0.248
-0.882  0.205  0.120
-0.882 -0.267 -0.224
-0.490  0.136  0.301
-0.785  0.343 -0.253
-0.274 -0.149  0.301
 0.611 -0.179 -0.297
-0.882 -0.228  0.111
 0.188  0.156 -0.297
 0.355 -0.316  0.130
 0.375 -0.129 -0.297
-0.225  0.165  0.301
 0.365 -0.343  0.278
 0.267 -0.247  0.301
-0.882 -0.139  0.228
-0.598  0.146  0.301
 0.883 -0.129 -0.0467
-0.136 -0.343  0.278
-0.470 -0.0508 -0.297
-0.0969 -0.316 -0.0172
-0.882 0.0180 -0.155
0.0702 -0.343 -0.174
-0.882  0.156 0.0418
-0.0281 -0.149 -0.297
-0.0478 -0.149  0.301
 0.267 -0.316 0.0909
 0.404  0.319 0.0614
 0.883  0.175 -0.0762
-0.205 0.0770 -0.297
 0.660 -0.0901 -0.297
0.0996 0.0573 -0.297
-0.461  0.319 0.0418
-0.0969  0.244  0.301
-0.0969 -0.238 -0.297
0.0898  0.343 -0.0860
0.0701 -0.110 -0.297
-0.303  0.318 0.0319
 0.611  0.319 0.0909
 0.884  0.234 -0.302
-0.323  0.310  0.317
 0.611  0.126 -0.297
-0.882 -0.0999  0.189
-0.235 -0.306 -0.302
 0.591  0.318 0.0319
-0.244  0.319 -0.0565
-0.195 -0.100 -0.297
-0.882  0.224 -0.204
 0.883 -0.306 -0.0172
-0.421 -0.316  0.111
 0.837  0.136  0.302
 0.846 0.0737 -0.302
 0.444 -0.316 -0.145
-0.834  0.165 -0.297
-0.379  0.270 -0.324
 0.447  0.270 -0.324
-0.0216 -0.319  0.158
-0.362  0.319  0.101
0.0172  0.315 -0.0663
-0.303  0.331  0.154
0.0109  0.311  0.258
 0.846 -0.00167  0.307
 0.729  0.244 -0.297
-0.0229  0.343  0.195
-0.864 -0.129 -0.324
 0.749 -0.334 -0.160
 0.851 -0.326 0.0221
 0.109  0.343  0.120
 0.296  0.319 -0.116
-0.254 -0.316 -0.115
-0.549 -0.343 -0.184
-0.598  0.343  0.189
 0.887  0.261  0.248
-0.529 -0.343 -0.292
 0.670  0.310  0.317
 0.680  0.318 0.0909
-0.391 -0.340  0.328
-0.0486  0.301  0.328
 0.581  0.310 -0.292
 0.126  0.376 -0.240
 0.732  0.343 0.0319
-0.873 -0.343  0.268
-0.746  0.255  0.303
 0.385 -0.326 -0.158
 0.483  0.267  0.324
-0.864  0.310  0.219
-0.824 -0.343  0.307
 0.168  0.344  0.170
-0.0674 -0.343  0.297
 0.493 -0.335  0.164
0.0603 -0.343  0.171
-0.277  0.343  0.272
 0.257 -0.343  0.171
 0.887  0.261 -0.125
-0.226 -0.319  0.328
0.0308 -0.326  0.329
 0.846 -0.221 -0.302
-0.716  0.310  0.297
 0.188 -0.343 -0.283
-0.882 -0.238 -0.292
-0.166  0.343 -0.214
 0.512  0.234  0.301
-0.352  0.224  0.301
 0.883 -0.110 -0.263
 0.355  0.136 -0.297
-0.706 -0.149  0.301
 0.227  0.136  0.301
 0.109  0.156  0.301
-0.882  0.156  0.219
-0.882 -0.297  0.170
-0.0773 -0.319 -0.153
-0.814 -0.0803  0.301
-0.313 -0.110 -0.297
0.0898 -0.343 -0.224
0.00134  0.185 -0.297
 0.883 -0.139 0.00244
-0.490 -0.316 0.0516
-0.588 -0.0705  0.301
-0.313  0.319 -0.0467
-0.775 0.0180 -0.297
 0.883 -0.0115 -0.204
-0.559 0.0475  0.301
-0.882 0.0278  0.288
0.0112 -0.343  0.228
 0.630  0.319 -0.0467
-0.657 0.0671 -0.297
 0.365 -0.0115 -0.297
 0.375  0.106  0.302
 0.778 -0.316  0.130
 0.883 -0.0705 0.0909
 0.345  0.343 -0.165
-0.470 -0.267  0.301
-0.795 -0.129 -0.297
-0.274 -0.149 -0.297
 0.119 -0.159  0.301
-0.882 -0.228  0.160
-0.706 -0.343 -0.253
 0.778 -0.343 -0.204
-0.882 -0.218 -0.145
-0.647 -0.159  0.301
-0.882 -0.110 -0.283
-0.294  0.255 -0.299
-0.638 0.0475  0.301
-0.185  0.318 0.0712
-0.882 0.00817  0.150
 0.883 -0.0901 -0.155
-0.647 -0.316 -0.0467
 0.601 -0.0410  0.301
0.0407  0.205 -0.297
-0.294 0.0180  0.301
-0.726 0.00816 -0.297
 0.758 -0.0213  0.301
-0.795  0.343  0.120
 0.503 -0.316 -0.00737
 0.149 -0.00169  0.301
-0.882 -0.188 -0.283
-0.882 0.0180 -0.292
-0.854  0.310 -0.233
-0.274 -0.228 -0.297
 0.444 -0.311  0.315
 0.739  0.310 -0.319
-0.0478 -0.316  0.120
-0.539  0.319  0.140
-0.135  0.339 -0.0664
 0.883 -0.0311 -0.292
-0.579  0.275  0.329
-0.0380 -0.306 -0.302
 0.671 -0.342 -0.167
-0.451 -0.343 -0.292
-0.0193  0.339  0.257
0.0898 -0.343 -0.319
-0.598  0.332  0.275
-0.882 0.0770  0.297
-0.0150 -0.306  0.307
 0.847 -0.343  0.288
-0.882  0.175  0.317
 0.172 -0.306  0.307
-0.569 -0.326  0.162
 0.883 0.0770  0.288
 0.503 -0.334 -0.160
-0.205 -0.343  0.199
-0.381  0.343  0.158
-0.303 -0.311 -0.310
-0.264  0.310 -0.319
 0.129 -0.326  0.329
-0.117 -0.343 -0.273
-0.569 -0.100 -0.297
 0.483 -0.316 -0.0860
-0.480  0.319 -0.116
-0.0179  0.323 -0.204
-0.755  0.343  0.150
 0.552  0.318 0.0516
 0.660  0.343  0.199
-0.362 -0.238 -0.297
-0.628 -0.277 -0.297
 0.267 -0.343 -0.204
-0.126  0.215 -0.297
-0.726  0.175  0.301
-0.254 -0.343  0.219
 0.883 -0.188 -0.214
 0.512 -0.179  0.301
-0.785 -0.343  0.288
0.0702  0.310  0.317
-0.352  0.319 0.0417
 0.884 -0.0312 0.00242
 0.768 -0.120 -0.297
-0.333 -0.0508  0.301
-0.0969  0.136 -0.297
-0.795  0.343 -0.0172
-0.726  0.344  0.179
-0.510 0.0278 -0.297
-0.520 -0.0508 -0.297
 0.758 0.0770  0.301
 0.758 -0.316 -0.0565
 0.326 -0.00167  0.301
 0.237  0.344 -0.253
-0.00849 -0.129  0.301
-0.608 -0.316 0.00246
-0.461 -0.316 0.0123
 0.316 -0.00167 -0.297
 0.689 0.0180  0.301
 0.542  0.319 -0.0270
-0.539 -0.316 -0.0369
 0.483 0.0180 -0.297
 0.883 -0.0213  0.219
-0.882  0.116 -0.0762
 0.883 -0.228 -0.0860
-0.480 -0.316 -0.0369
 0.208 -0.316 0.0418
-0.441  0.319 -0.0467
 0.227 0.0573 -0.297
0.0210 -0.343 -0.233
-0.882 0.0671 -0.224
-0.657 -0.0410 -0.297
 0.522 0.0868 -0.297
 0.562  0.136  0.301
 0.807  0.343 -0.165
-0.667  0.343  0.228
 0.884 -0.238  0.219
-0.490 -0.343 -0.214
-0.569  0.116  0.301
-0.628  0.136 -0.297
 0.650  0.234  0.301
-0.785 -0.179  0.301
 0.827 -0.149  0.301
 0.650 -0.343  0.228
-0.362  0.195 -0.297
 0.394  0.205 -0.297
 0.522  0.195  0.301
 0.883  0.175 -0.145
 0.178  0.234 -0.297
 0.129 -0.198 -0.297
 0.247 -0.343  0.288
-0.882 -0.159  0.278
-0.882 -0.218  0.278
 0.640  0.343 -0.233
-0.795 -0.343 -0.184
 0.827 -0.149 -0.297
 0.670  0.175  0.301
-0.451  0.343 -0.214
 0.883 -0.287  0.140
 0.237 -0.218 -0.297
 0.434  0.343 -0.194
 0.883  0.195  0.209
 0.198  0.343  0.238
-0.470  0.224  0.301
-0.176 -0.343 -0.283
-0.421 -0.247 -0.297
 0.883 -0.257  0.170
 0.267 -0.247 -0.297
 0.404 -0.343 -0.224
-0.588 -0.188 -0.297
 0.650 -0.343 -0.233
-0.637 -0.316  0.111
 0.522 -0.169 -0.297
-0.00846 -0.316 -0.0172
-0.00846 -0.316 -0.0958
0.0112 -0.316 0.0811
0.0210 -0.0312 -0.297
 0.883 0.00817 -0.0958
0.0407 -0.0803 -0.297
0.0996 -0.198  0.301
-0.00849  0.224  0.301
-0.264 -0.316 -0.0270
-0.746 0.0966  0.301
-0.520 -0.0410  0.301
 0.797 -0.0705 -0.297
-0.882 0.0770  0.199
 0.404 0.0573 -0.297
 0.883 -0.0508  0.140
-0.637  0.319 0.0516
-0.0478  0.195 -0.297
-0.882 -0.0705 -0.184
 0.883 -0.238 0.0909
-0.0281 -0.343  0.219
-0.0281 0.0278 -0.297
 0.621  0.319 -0.00739
-0.0145  0.315 0.0451
-0.882  0.254  0.179
 0.689  0.318 0.0123
-0.618 -0.129  0.301
-0.647  0.343 -0.233
 0.247  0.267  0.317
 0.591 -0.343  0.288
-0.0577  0.343  0.101
 0.837 -0.218  0.302
-0.657  0.319  0.130
-0.185 -0.296  0.301
-0.480 -0.316 -0.145
 0.571  0.116 -0.297
 0.109 0.00816 -0.297
-0.107 -0.287 -0.297
 0.277 -0.316 -0.0663
-0.244 -0.0213 -0.297
-0.431 -0.316 -0.0762
 0.650 -0.228 -0.297
-0.882 -0.120  0.150
 0.218 -0.228  0.301
-0.882  0.165 -0.155
-0.677  0.156  0.301
 0.621 -0.100 -0.297
-0.244  0.310  0.307
 0.883 -0.188  0.238
-0.510  0.343 -0.184
 0.296  0.339  0.274
 0.473 -0.343  0.297
 0.277  0.343  0.238
-0.451  0.310  0.297
-0.195  0.310 -0.283
 0.237 -0.296 -0.297
-0.529 -0.296  0.301
 0.758 -0.296 -0.297
 0.797  0.234 -0.297
-0.834 -0.316 -0.00737
-0.323 -0.343  0.317
-0.333  0.275 -0.324
-0.853 -0.0615  0.324
 0.841 -0.321 -0.155
 0.110  0.308 -0.323
-0.441 -0.296 -0.297
-0.0183 -0.316 -0.135
 0.149  0.310  0.288
 0.139 -0.287 -0.297
 0.581  0.267  0.324
 0.854 -0.0901 -0.319
 0.542  0.343  0.170
-0.598 -0.311 -0.310
 0.835  0.344 -0.135
-0.879 -0.297  0.328
-0.520  0.343  0.248
-0.0576  0.343 0.0418
-0.0576  0.343 -0.0172
 0.847 -0.343  0.219
-0.671  0.343 -0.153
-0.392  0.267  0.324
-0.166  0.344  0.170
 0.552  0.319  0.130
0.0439  0.270 -0.324
-0.882 -0.257  0.317
 0.748  0.343 -0.261
 0.631 -0.334  0.329
 0.709  0.283 -0.324
0.0256  0.343  0.111
-0.421  0.343 -0.165
-0.529  0.310 -0.319
 0.710 -0.342  0.324
 0.611  0.319  0.130
 0.375 -0.100  0.301
-0.0871 -0.316 0.0320
 0.883  0.126  0.130
-0.539  0.319 -0.125
 0.178  0.343 -0.165
-0.189  0.343  0.272
-0.746  0.343 -0.174
-0.313  0.343 -0.204
 0.129  0.343  0.238
-0.706  0.255  0.303
 0.650 -0.316 0.0614
-0.882 0.0770 -0.302
-0.529 -0.343 -0.243
-0.755  0.185 -0.297
 0.827 -0.316 -0.00737
-0.441 -0.198  0.301
-0.0380 -0.343 -0.273
-0.882 -0.306  0.288
 0.883 -0.238 -0.184
 0.837  0.205 -0.297
 0.571  0.205 -0.297
-0.107 -0.287  0.301
-0.294  0.106 -0.297
 0.483  0.146 -0.297
-0.834 -0.110 -0.297
-0.882 -0.247 -0.116
-0.882 -0.139 -0.145
-0.480 -0.343  0.189
 0.463 -0.238  0.301
-0.569  0.343 -0.214
-0.882 0.0180 -0.194
 0.483  0.165  0.301
-0.882  0.136 -0.125
-0.146 -0.247  0.301
-0.470  0.146 -0.297
 0.881 -0.341 -0.155
-0.696  0.343 -0.224
 0.394  0.175  0.301
 0.883 0.0180 -0.135
 0.883  0.156 -0.0369
 0.390  0.343 -0.153
 0.227  0.156 -0.297
 0.640 -0.218  0.301
 0.883 -0.297 -0.233
 0.883  0.156 -0.243
 0.883 -0.0901  0.297
 0.883 -0.0213 -0.165
-0.176 -0.179  0.301
-0.431 -0.120  0.301
-0.372 -0.343  0.219
 0.453 -0.149  0.301
-0.441  0.319  0.140
 0.355  0.319 0.0614
 0.512 -0.343 -0.273
 0.709  0.156 -0.297
 0.532 -0.316 -0.125
 0.748 -0.316 -0.125
-0.785 -0.267  0.301
-0.667 -0.316 0.0614
-0.529 -0.0115 -0.297
 0.709 0.0278 -0.297
 0.883 -0.00166 0.0418
-0.785 -0.316 -0.0270
 0.866 0.0475 -0.324
-0.840  0.339 0.0909
-0.882  0.156 -0.0270
0.0505 -0.343 -0.273
-0.244 -0.0705  0.301
 0.542 -0.0213 -0.297
 0.483 0.0573 -0.297
-0.882 -0.0508 0.0614
0.0800 -0.287  0.301
0.0701  0.234  0.301
-0.882 -0.198 -0.0762
-0.0576 -0.238 -0.297
 0.883 0.0180  0.219
0.0701  0.136 -0.297
 0.883 -0.287 0.0516
 0.444 0.0868 -0.297
-0.0183 -0.110 -0.297
-0.882 -0.0606 -0.135
0.0505 -0.316 -0.0369
-0.539 -0.316 0.00246
 0.883 -0.247 0.0123
0.0112 -0.218 -0.297
0.00134 0.0671  0.301
 0.884 -0.0901 0.0417
 0.168  0.318 -0.0467
 0.884 0.00815 -0.0566
-0.500  0.319 0.0221
0.0702 -0.316  0.101
-0.883  0.310 -0.165
 0.512  0.343 -0.243
-0.843 -0.215  0.307
-0.431  0.165  0.301
-0.195  0.165 -0.297
 0.375 -0.139  0.301
 0.188 -0.316 -0.0762
-0.244  0.215 -0.297
 0.211 -0.306  0.307
-0.461  0.234 -0.297
-0.549 -0.0705  0.301
 0.434 -0.343  0.209
-0.530  0.309  0.324
 0.582 -0.342 -0.167
 0.797 0.0671  0.301
 0.845  0.322 0.00245
-0.280 -0.306  0.307
 0.542  0.319 -0.135
 0.444  0.224  0.301
 0.797  0.314 -0.275
 0.529  0.263 -0.304
 0.194  0.307  0.328
-0.873  0.310 -0.319
 0.689  0.318  0.140
-0.814 -0.228 -0.297
-0.186  0.339 -0.152
 0.312 -0.315  0.327
 0.238  0.343  0.162
 0.739  0.343 -0.0762
-0.849  0.205 -0.310
 0.247  0.314 -0.275
-0.352  0.319 -0.135
-0.411 -0.326 -0.158
0.00136 -0.319 -0.324
 0.778 -0.343  0.179
-0.811  0.270 -0.324
 0.552 -0.343 -0.319
 0.883 -0.316  0.228
 0.512  0.301  0.329
-0.215  0.267 -0.312
-0.235  0.244  0.301
-0.313  0.244  0.301
 0.542  0.314 -0.275
-0.0180  0.323  0.101
 0.897  0.283 -0.283
 0.670  0.283 -0.324
-0.882  0.254 -0.0958
 0.483  0.331 -0.150
 0.434 -0.277  0.301
 0.138  0.339 0.00245
-0.895  0.302  0.288
 0.404  0.267  0.324
 0.898  0.302 0.0614
 0.859 -0.257  0.329
-0.832  0.343 -0.174
 0.837  0.224  0.302
-0.588 -0.343 -0.292
-0.805 -0.316  0.150
-0.510  0.310 -0.283
 0.385 -0.335 -0.324
-0.529  0.267 -0.319
 0.854 -0.0705  0.324
 0.884  0.234  0.324
-0.795  0.310  0.288
-0.628  0.255 -0.299
-0.00846  0.310 -0.302
-0.664 -0.306  0.307
 0.138  0.332 -0.0860
0.0505 -0.319 -0.153
 0.857  0.310 0.0909
-0.724  0.342 0.0287
-0.882  0.234 0.0811
 0.827  0.344  0.140
-0.0181  0.323 -0.165
-0.814 -0.315 -0.323
 0.650  0.339 -0.269
-0.274  0.319 -0.135
-0.382 -0.314 -0.319
-0.392 -0.316  0.150
 0.286  0.343 -0.234
 0.365  0.343 -0.234
-0.844 -0.343 -0.224
 0.375  0.310  0.297
-0.723  0.339 0.0811
-0.450 -0.342 -0.167
-0.126  0.310  0.317
 0.372  0.263 -0.304
-0.834  0.310 -0.292
-0.834 -0.129  0.302
-0.795  0.310 -0.292
-0.588  0.310 -0.292
0.0206  0.323  0.170
-0.687  0.275 -0.324
 0.306  0.244 -0.297
-0.00847 -0.343 -0.184
-0.894  0.308  0.248
 0.840  0.269 -0.323
 0.739 -0.343 -0.194
0.0734  0.314  0.280
 0.883  0.195  0.307
 0.267  0.275 -0.324
-0.879 -0.0901  0.328
 0.898  0.302 0.0221
-0.849 -0.326 -0.0860
-0.879 -0.341 0.0549
 0.473  0.255 -0.299
 0.591 -0.296 -0.297
-0.125  0.343 -0.00738
 0.208 -0.343 -0.184
 0.138  0.332  0.101
 0.897  0.307 -0.207
 0.345 -0.335  0.164
-0.225  0.343 -0.233
0.0220  0.339  0.210
-0.0478  0.234 -0.297
-0.490  0.343 -0.234
 0.768  0.234  0.302
-0.647  0.270  0.328
 0.855 -0.340  0.114
 0.884 -0.326 -0.106
-0.274  0.263  0.309
-0.421  0.293 -0.324
-0.853  0.147 -0.323
-0.755  0.310  0.317
0.0603 -0.311 -0.310
 0.129  0.339  0.274
-0.167  0.309  0.324
-0.170 -0.315  0.327
-0.461  0.267  0.317
-0.381 -0.342 -0.167
-0.844  0.283 -0.324
 0.365  0.343  0.199
 0.444  0.319 -0.0860
 0.778  0.343  0.179
 0.884  0.116 -0.165
-0.588 -0.218  0.302
 0.109  0.344  0.170
 0.394 -0.218  0.301
 0.424 -0.228 -0.297
-0.392 -0.179  0.301
 0.699 -0.139  0.301
-0.470 -0.159 -0.297
 0.286  0.195  0.301
-0.431  0.165 -0.297
-0.657  0.116 -0.297
-0.107 -0.343  0.219
-0.882  0.136  0.258
-0.225 -0.169  0.301
-0.392 -0.343  0.288
-0.746  0.343  0.219
-0.716 -0.343  0.297
 0.385 -0.343  0.307
-0.785 -0.343 -0.292
 0.883 -0.149 -0.106
-0.882 -0.238 -0.174
 0.883 -0.0803 -0.243
-0.726 -0.316 -0.125
-0.726 -0.198 -0.297
 0.129 -0.343  0.278
 0.345 -0.267  0.301
-0.696 -0.287 -0.297
