ply
format ascii 1.0
element vertex 2048
property float x
property float y
property float z
end_header
0.0766 -0.719 -0.543
-0.0840  0.824  0.552
 0.108  0.544 -0.670
-0.113 -0.419  0.657
-0.745 0.0887 -0.115
 0.740 -0.0103 0.0721
 0.563  0.799 -0.00801
-0.547 -0.707 -0.0113
 0.401 -0.864  0.191
-0.447  0.829 -0.177
 0.340  0.231  0.647
-0.312 -0.102 -0.678
-0.492  0.197  0.546
 0.451 -0.0757 -0.593
 0.467 -0.345  0.502
 0.584 -0.517 -0.243
-0.430  0.436 -0.566
 0.593  0.410 -0.390
-0.625 -0.296  0.325
-0.210 -0.869  0.386
-0.567  0.649  0.288
-0.407 -0.555 -0.475
 0.396  0.718  0.458
-0.0953 -0.878 -0.125
-0.0968  0.385  0.708
 0.513  0.368  0.188
 0.245  0.816 -0.338
0.0621  0.116 -0.752
0.0894 -0.312 -0.700
-0.533 -0.286 -0.101
-0.207  0.816 -0.528
-0.0433 -0.0111  0.570
 0.365 -0.873 -0.253
 0.176 -0.724  0.502
-0.536  0.442 -0.0846
 0.505 -0.362  0.107
 0.608 0.0657  0.425
 0.682 0.0276 -0.307
-0.579 0.0970 -0.479
-0.694  0.276  0.233
-0.316 -0.503  0.353
-0.397 -0.186  0.606
 0.366 -0.484 -0.541
 0.280  0.249 -0.497
-0.261  0.533  0.436
 0.721  0.314 -0.0860
 0.189 -0.233  0.684
-0.562 -0.253 -0.449
 0.139  0.496  0.491
0.0609 -0.874  0.174
-0.291  0.829  0.292
-0.215 -0.823 -0.431
-0.185  0.196 -0.549
-0.561 -0.0244  0.125
-0.172 -0.335 -0.509
 0.453 -0.233 -0.306
 0.345 -0.563  0.289
 0.565 -0.656 0.0311
 0.403  0.611 -0.519
 0.702 -0.269 -0.110
 0.305 -0.0468  0.474
 0.435  0.616 -0.205
 0.508  0.426  0.479
-0.130  0.508 -0.504
-0.529  0.639 -0.383
-0.287 -0.866 0.0927
-0.655  0.330 -0.324
 0.663 -0.197  0.284
 0.125 -0.426  0.481
-0.656 -0.464 0.0962
-0.350 -0.666 -0.220
-0.0302 -0.0898 -0.571
-0.618  0.710 0.0180
-0.287 0.0670  0.688
 0.374  0.825  0.200
-0.0746 -0.627  0.420
 0.152  0.829  0.383
 0.577  0.644  0.258
-0.588 -0.508 -0.270
-0.429 -0.0114  0.378
-0.436 -0.744  0.299
0.0869  0.184  0.733
 0.247 -0.635 -0.348
0.0613  0.816 -0.563
 0.546  0.157 -0.506
-0.443  0.379  0.320
-0.143 -0.581 -0.594
-0.232  0.280  0.513
0.0787 -0.462 -0.490
-0.510 -0.0815 -0.264
 0.229 -0.220 -0.504
 0.165 -0.874 -0.0599
 0.663  0.569 0.0279
-0.722 -0.205 0.0474
 0.570  0.106 -0.0939
 0.416  0.219  0.373
0.0636 -0.836 -0.311
 0.202 -0.0835 -0.710
 0.537 0.0797  0.189
-0.123  0.369 -0.713
 0.388 -0.654 -0.149
-0.663 0.0406  0.335
-0.234 -0.309  0.479
-0.401  0.123 -0.637
-0.430  0.256 -0.382
-0.552 -0.523  0.311
-0.692  0.472 0.0974
 0.714  0.245  0.156
-0.408  0.808 0.0694
-0.288  0.639 -0.386
-0.162 -0.168  0.701
-0.432  0.429  0.561
 0.107  0.698  0.607
-0.458 -0.385  0.495
-0.569  0.223 0.0442
 0.454 -0.850 -0.0339
 0.193  0.316 -0.701
 0.452 0.00188 -0.363
-0.412  0.715  0.451
-0.123  0.602  0.635
 0.163  0.624 -0.460
-0.358 -0.0732 -0.454
 0.569 -0.532  0.249
 0.480  0.824 -0.288
 0.518  0.328 -0.187
 0.326  0.119 -0.675
-0.248 -0.582  0.555
-0.709 -0.175 -0.184
 0.561 -0.128 -0.00787
 0.318 -0.554  0.523
-0.414 -0.365 -0.327
-0.537  0.141 -0.224
-0.375 -0.319 -0.598
-0.436 -0.568  0.121
-0.441 -0.854 -0.138
 0.449  0.387 -0.556
 0.421 -0.190  0.352
 0.625  0.286  0.357
-0.496  0.171  0.281
-0.727  0.339 -0.0856
 0.336  0.514  0.384
 0.265 -0.862  0.359
-0.144 0.0553 -0.740
0.00879 -0.851  0.452
-0.526 -0.259  0.138
-0.475 -0.513 -0.0817
-0.496  0.559  0.107
-0.221 -0.605 -0.383
0.0220  0.362 -0.557
0.0468 -0.585  0.600
-0.107 -0.232 -0.720
 0.212  0.400  0.669
 0.258 0.0406  0.689
-0.400 -0.220  0.375
-0.407  0.462 -0.346
-0.295  0.602 -0.595
 0.140 0.0798 -0.560
 0.247 -0.249  0.477
 0.638  0.533 -0.227
 0.162  0.154  0.540
0.0220 -0.208  0.545
 0.502 -0.0927  0.524
 0.431 -0.286 -0.561
 0.374  0.462 -0.376
 0.396 -0.452 -0.303
 0.600 -0.140 -0.420
-0.640  0.603 -0.163
-0.265 -0.0244  0.503
-0.679 0.0233 -0.315
-0.391  0.815 -0.408
 0.682  0.237 -0.271
 0.463 -0.640 -0.350
-0.00424  0.287  0.556
-0.579 -0.142  0.449
 0.376  0.822 -0.115
 0.632 -0.326 -0.290
 0.433  0.250 -0.367
-0.745 0.0895 0.0852
 0.229 -0.819 -0.424
 0.644 -0.472 -0.0591
 0.258  0.338  0.479
 0.448  0.670 0.0871
-0.496  0.829  0.251
-0.0822  0.633 -0.649
 0.208  0.437 -0.501
-0.666 -0.432 -0.103
 0.303  0.555  0.588
 0.535  0.406 -0.00801
 0.712 -0.227 0.0815
-0.634  0.466  0.290
-0.0388  0.660  0.460
-0.251 -0.686  0.308
 0.388 -0.673  0.107
 0.476 0.0959  0.564
-0.576 -0.0762 -0.0601
-0.450  0.631 -0.179
 0.425 -0.390  0.281
 0.286 -0.0380 -0.497
0.0218 -0.128  0.726
0.0985 -0.398  0.666
 0.266 -0.347 -0.647
-0.0775  0.704 -0.451
 0.535 -0.0506 -0.192
-0.119  0.442  0.517
-0.266  0.460  0.641
-0.242  0.720  0.554
-0.398  0.572  0.308
 0.434 0.0320  0.365
-0.285  0.363 -0.474
 0.357 -0.180  0.624
-0.619  0.248  0.401
-0.472 0.0149  0.577
 0.498 -0.349 -0.164
 0.732 -0.0114 -0.113
 0.240  0.779 -0.531
-0.331  0.309 -0.657
 0.424 -0.728  0.315
-0.188 0.00164 -0.548
 0.541  0.617 -0.358
-0.0958  0.171  0.735
 0.389  0.647  0.259
-0.534  0.379  0.134
 0.209 -0.568 -0.582
0.0512  0.488  0.679
-0.0953 -0.874 0.0572
 0.689 0.0147  0.266
-0.483 -0.0284 -0.578
 0.649  0.479  0.235
 0.566  0.223 0.0442
-0.0518 -0.422 -0.673
 0.317 -0.388  0.593
 0.583 -0.336  0.365
 0.595  0.697 -0.166
 0.115 -0.769  0.328
 0.140 -0.0639  0.544
 0.529 -0.0981  0.204
 0.469 -0.508 0.00501
-0.0258 -0.849 -0.465
-0.0931 -0.451  0.484
 0.687 -0.135 -0.237
-0.693 -0.115  0.255
-0.367 -0.792 -0.345
-0.239 -0.831 -0.217
 0.539 -0.353 -0.438
-0.509  0.269 -0.539
-0.460 -0.842 0.0686
-0.279 -0.467 -0.599
-0.565  0.456 -0.423
-0.0301  0.119 -0.578
 0.181 -0.578  0.407
-0.447 0.0581 -0.372
-0.361  0.287  0.632
-0.645 -0.294 -0.293
-0.492 -0.646 -0.318
-0.0171 -0.0629 -0.746
 0.316 -0.345 -0.424
 0.158  0.658  0.436
-0.350 -0.671  0.446
-0.0301  0.822  0.390
 0.253  0.611 -0.609
-0.502  0.341 -0.251
-0.495  0.558  0.447
-0.339  0.159  0.460
-0.00858 -0.618 -0.436
-0.108 -0.874  0.226
 0.481  0.775  0.323
 0.476 -0.493  0.420
-0.00415 -0.323 -0.539
-0.209 -0.165 -0.532
-0.449 -0.347  0.276
 0.230 -0.874  0.175
 0.373  0.402  0.593
-0.222  0.791 -0.357
-0.149 -0.155  0.534
 0.525  0.574  0.404
 0.306  0.444 -0.636
-0.165 -0.744  0.497
-0.286 -0.399  0.609
 0.543  0.793  0.157
-0.294 -0.455 -0.406
 0.510  0.144 -0.265
-0.320 -0.264 -0.451
 0.649 -0.366  0.189
-0.500 -0.114  0.270
-0.121 -0.0112  0.731
-0.598 -0.0923 -0.443
 0.709  0.392 0.0824
 0.299  0.663 -0.363
-0.413 -0.507 -0.244
 0.729  0.157 -0.136
 0.260  0.800  0.502
-0.140  0.119  0.551
 0.495  0.572 -0.0339
 0.482  0.524  0.149
-0.410  0.660 -0.492
 0.315  0.137  0.470
-0.393 -0.696 -0.0663
-0.524 -0.704  0.169
 0.349  0.275 -0.643
-0.506 -0.417 0.0442
 0.434  0.382  0.328
 0.414  0.760 -0.423
-0.441 -0.205 -0.354
 0.343 -0.632 -0.483
-0.705  0.209 -0.231
-0.741 -0.0510 0.00515
 0.509  0.270  0.518
-0.580 0.0733  0.473
-0.107 -0.820 -0.313
-0.212  0.274  0.697
0.0348 -0.547 -0.625
-0.104 -0.725 -0.530
0.0478  0.380 -0.718
-0.563  0.391  0.446
-0.210  0.702  0.399
 0.112  0.767 -0.414
 0.228 -0.781 -0.269
-0.158  0.214 -0.727
 0.302 -0.854 0.0182
-0.569 -0.623 -0.162
 0.595 0.0144 -0.453
 0.554 -0.653 -0.127
 0.289 -0.736  0.233
0.0873 0.0164  0.733
 0.269 -0.421  0.419
0.0350  0.549 -0.514
 0.367  0.106 -0.444
-0.382  0.714  0.235
-0.349 -0.872  0.271
 0.146 -0.0766 -0.557
-0.579  0.751 -0.147
-0.452  0.715 -0.0469
-0.297  0.102 -0.498
 0.579 -0.193  0.426
-0.734  0.283 0.0831
 0.393 -0.0285  0.622
 0.437 -0.511  0.170
-0.332  0.590  0.562
-0.577  0.122 -0.0724
-0.0968 -0.481 -0.486
-0.686 -0.322  0.146
-0.639  0.605  0.153
 0.272  0.756  0.320
-0.341 -0.737  0.154
 0.493 -0.503 -0.410
-0.263 -0.647 -0.524
-0.172  0.507 -0.670
 0.737  0.184 0.0182
 0.426  0.825 0.0572
-0.426 -0.535  0.453
-0.339  0.390  0.430
-0.556  0.826 0.0955
-0.501  0.777 -0.311
-0.476 -0.177 -0.558
0.0938  0.223 -0.569
-0.555 -0.397 -0.405
 0.633 -0.500 0.0880
 0.263 -0.497 -0.404
-0.274 -0.257  0.657
 0.194 -0.495  0.603
-0.649  0.172 -0.363
 0.370 -0.141 -0.429
 0.534 -0.273 -0.00801
 0.633  0.158 -0.387
 0.479 -0.767 -0.181
-0.186 -0.363 -0.663
0.0730  0.681 -0.632
 0.528  0.829 -0.151
-0.556  0.119  0.149
-0.0972 -0.600  0.586
 0.400 -0.618  0.422
 0.354 -0.760 -0.379
 0.323 -0.142 -0.656
-0.588 -0.574  0.175
 0.514 -0.683  0.210
-0.128  0.369 -0.542
-0.706  0.133  0.233
-0.313  0.818  0.467
-0.479  0.494 -0.225
 0.479 -0.264  0.238
-0.0973 -0.299  0.521
 0.598  0.426  0.363
0.0838  0.822  0.539
 0.163 -0.347 -0.507
-0.685  0.468 -0.149
 0.611  0.677  0.106
-0.277  0.503 -0.447
 0.447 0.0927 -0.602
-0.308 -0.0905  0.664
-0.178 -0.0820 -0.723
 0.662  0.154  0.317
 0.681  0.486 -0.0861
 0.115 -0.719 -0.373
-0.131 -0.765  0.329
 0.529 -0.188 -0.160
-0.627  0.484 -0.299
-0.487 -0.247  0.514
 0.462  0.433 -0.263
-0.389  0.145  0.626
 0.124  0.339  0.533
0.0219 -0.878 -0.0209
-0.0303 -0.723  0.531
 0.434  0.549  0.509
-0.478 -0.389 -0.204
 0.225 -0.705 -0.505
-0.0562 -0.260  0.701
-0.424 -0.483  0.232
 0.583  0.281 -0.451
 0.673  0.398 -0.231
-0.282 -0.237 -0.671
-0.0812  0.762 -0.594
 0.283 -0.845 -0.128
 0.152 -0.878 -0.203
-0.724 -0.0367 -0.188
-0.492 -0.743 -0.204
 0.726 -0.115 -0.0209
-0.552  0.291 -0.132
-0.507 0.0276  0.270
-0.284 0.0323 -0.700
0.000105  0.512  0.511
-0.469  0.484  0.229
-0.699 -0.335 0.00501
0.0988 -0.219 -0.550
-0.00381 -0.838  0.309
 0.436 -0.517 -0.188
 0.358 -0.321  0.380
-0.365 -0.687 -0.434
-0.500  0.572 -0.0591
 0.181 -0.0973  0.706
-0.607 -0.585 0.00612
 0.438  0.700 -0.0969
 0.678 -0.364 0.0180
 0.529  0.216  0.194
-0.462 -0.394 -0.505
 0.176  0.572  0.635
 0.213  0.218  0.696
-0.225 -0.878 -0.0860
-0.560 -0.206 0.00501
-0.338 -0.128  0.455
-0.330  0.825 -0.282
 0.722 0.0930  0.161
-0.464 -0.626  0.360
-0.693 -0.302 -0.130
 0.707 -0.103  0.163
-0.496 -0.261 -0.243
 0.121 -0.296  0.514
-0.191 -0.523  0.425
-0.160  0.828  0.422
 0.503  0.478 -0.130
-0.354 -0.345  0.384
0.0873 -0.181 -0.727
 0.317 -0.750  0.412
-0.388  0.591 -0.313
 0.351 -0.575 -0.283
-0.575  0.728  0.183
0.0610  0.248 -0.743
 0.505 -0.763 0.0812
 0.378 -0.715 -0.0329
 0.157 -0.836  0.434
0.0349  0.132  0.566
 0.122 -0.433 -0.660
 0.529 -0.220  0.125
-0.537 -0.423  0.396
 0.456  0.223 -0.586
-0.721 -0.00481  0.190
-0.232 -0.800  0.246
0.0391  0.305  0.721
-0.124 -0.693 -0.381
 0.573 0.0930 0.0564
-0.369 -0.620  0.220
-0.146  0.585  0.468
 0.518 -0.201 -0.501
 0.676  0.338  0.250
 0.216 0.0670 -0.718
 0.233 -0.668  0.330
 0.614 -0.0624  0.405
-0.280  0.185 -0.694
-0.389  0.263  0.404
 0.262 0.0930 -0.519
-0.0434  0.516 -0.684
0.0218 -0.508  0.471
-0.260 -0.725 -0.290
 0.452 -0.228  0.553
 0.110 -0.866 -0.435
 0.360  0.828 -0.242
-0.634 -0.399  0.250
-0.441  0.805  0.363
-0.522  0.288  0.223
0.00873 -0.715  0.380
-0.334 -0.807 -0.0444
-0.0172  0.825 -0.464
 0.113 -0.581 -0.439
 0.645 -0.400 -0.189
-0.380  0.714 -0.252
-0.332 -0.562 -0.323
 0.320  0.374 -0.448
-0.509 -0.513 -0.395
-0.488  0.538 -0.479
-0.554  0.341 0.00515
-0.280 -0.770  0.419
-0.588  0.665 -0.257
-0.658 -0.175 -0.326
 0.571 -0.0101 -0.0462
 0.278  0.558 -0.426
 0.557  0.262 -0.0730
 0.310 -0.690 -0.256
0.0219 -0.878 -0.164
-0.305  0.484 -0.631
 0.478  0.140  0.303
 0.165 -0.878 0.0703
0.0739 -0.283  0.699
 0.417  0.508  0.293
-0.312  0.668  0.339
 0.589  0.186  0.440
-0.210  0.690 -0.595
-0.351  0.206 -0.460
 0.382  0.819  0.392
-0.594  0.317 -0.429
-0.0812  0.261 -0.571
-0.165  0.621 -0.462
-0.687  0.498 -0.0209
-0.740  0.210 -0.110
 0.470 -0.0770  0.308
-0.445 -0.0798 -0.371
0.0176  0.599  0.646
-0.0128  0.713  0.603
-0.633  0.355  0.336
 0.644  0.616 -0.0816
-0.574  0.546  0.356
-0.00420 -0.731 -0.380
 0.565 -0.0378 0.0716
 0.456 -0.116 -0.334
 0.307 -0.797  0.126
-0.0303 0.0670  0.739
-0.143  0.488  0.669
 0.537 -0.0755 -0.510
 0.477  0.488 -0.499
-0.483  0.315  0.536
 0.343  0.714 -0.513
-0.443  0.617  0.203
 0.279  0.651  0.375
 0.239  0.701  0.563
-0.400 -0.313  0.569
 0.261 -0.464 -0.608
-0.698  0.326 -0.214
 0.413 -0.875 -0.142
 0.193 -0.618  0.550
-0.392  0.548 -0.555
-0.121  0.262  0.549
 0.159  0.178 -0.725
 0.479  0.283  0.283
-0.542 -0.180 -0.150
 0.511 -0.387 -0.0209
-0.261 -0.413  0.432
-0.501  0.682  0.383
-0.648 -0.400 -0.214
 0.605 -0.251 -0.375
-0.170 -0.308  0.674
 0.308  0.829 -0.451
-0.389 -0.851 -0.247
-0.169 -0.475 -0.636
 0.357  0.330  0.419
 0.403 -0.341 -0.347
-0.214  0.158  0.702
 0.391 -0.0906  0.404
-0.383 -0.0155 -0.645
 0.394 -0.466  0.519
-0.366 -0.450  0.543
 0.189  0.326 -0.530
-0.486 -0.384  0.173
-0.576 0.0408 0.0312
-0.703  0.366  0.160
-0.512 -0.0820  0.529
-0.573  0.807 -0.0465
-0.564 -0.293  0.422
-0.398 -0.679 0.0729
-0.428  0.158  0.377
-0.236  0.367 -0.686
-0.0562  0.279 -0.737
-0.745  0.171 0.00515
-0.281 -0.872 -0.352
-0.420 -0.855  0.175
0.0350  0.656 -0.477
 0.594  0.512 -0.329
0.0724  0.599  0.481
 0.207 -0.379  0.638
 0.142 -0.869  0.253
-0.119 -0.835  0.449
 0.111 0.0149 -0.744
 0.205 0.0277  0.530
 0.344 -0.257 -0.626
-0.727 -0.181 -0.0730
 0.382  0.719 -0.226
 0.653 -0.0771 -0.337
-0.172 -0.517  0.607
 0.222 -0.145  0.514
 0.441 -0.575 -0.0906
-0.616 -0.515 -0.159
-0.233  0.590  0.615
 0.203  0.469 -0.670
-0.225  0.391  0.496
-0.124  0.722  0.591
 0.227  0.570  0.434
 0.348 -0.449  0.344
-0.0925 -0.255 -0.544
-0.447  0.825 -0.0599
-0.121  0.825 -0.425
-0.0433 -0.503  0.635
 0.433  0.215  0.588
 0.389  0.598 -0.305
-0.557 -0.0369 -0.162
0.0728 0.0280  0.568
 0.581 -0.585  0.153
 0.396  0.482 -0.574
-0.403 -0.121 -0.617
-0.629 -0.192  0.360
-0.379  0.350 -0.408
 0.454 -0.379 -0.505
 0.503 -0.564  0.340
-0.227 -0.0243  0.700
0.0220  0.407  0.533
 0.244  0.232  0.504
0.0955 -0.650  0.397
 0.303 -0.0728  0.666
 0.362  0.630  0.525
 0.737 0.0680 -0.00413
-0.360  0.816  0.202
-0.431  0.225 -0.610
 0.337 -0.751 -0.150
-0.536 -0.154  0.167
 0.635  0.322 -0.341
-0.523 0.0363 -0.251
-0.172 0.0149  0.546
 0.491  0.715 -0.361
 0.584  0.642 -0.259
 0.476  0.319 -0.287
0.0430  0.750  0.425
-0.383 -0.471 -0.540
-0.499  0.227 -0.279
-0.446 -0.591 -0.0122
-0.520  0.499 0.0182
-0.361  0.495  0.374
-0.250 -0.674  0.499
-0.513 -0.647  0.260
-0.724 -0.129  0.123
 0.351 -0.0378 -0.653
-0.207 -0.618  0.378
 0.319 -0.283  0.618
-0.690 -0.209  0.203
 0.539 -0.613 -0.257
-0.526  0.372 -0.491
 0.208  0.709 -0.398
-0.626 -0.0624  0.396
-0.434  0.713  0.112
0.0218 -0.102  0.562
 0.176  0.688 -0.603
 0.528 0.0540 -0.527
 0.331 -0.191  0.445
 0.333 -0.874  0.277
 0.667 -0.0904  0.295
-0.00419 -0.259 -0.713
-0.186 -0.518 -0.442
-0.509 -0.766 -0.102
-0.269 -0.209  0.477
-0.327 -0.775 -0.146
 0.607 -0.573 -0.0209
-0.305  0.808 -0.488
 0.213 -0.349  0.476
 0.565  0.320  0.444
 0.446 -0.181 -0.575
 0.469  0.638 -0.441
 0.282  0.447  0.444
-0.339 0.0410  0.466
 0.636 -0.309  0.276
 0.447  0.145 -0.362
-0.416 -0.596 -0.176
-0.719  0.379 0.0442
-0.199 -0.878  0.174
-0.212 -0.874 0.0182
-0.653 -0.482 -0.0123
-0.594  0.215 -0.452
 0.592 -0.437  0.288
 0.724 -0.115 -0.128
 0.194 -0.444 -0.462
 0.475 -0.463 -0.108
0.0760 -0.780  0.490
-0.452 -0.861 -0.0339
-0.368 -0.463 -0.333
 0.271 -0.519  0.381
 0.251 -0.212 -0.684
 0.384 -0.603  0.201
-0.488 -0.218  0.263
-0.220  0.824  0.515
 0.663  0.520  0.120
 0.313  0.127  0.671
-0.339 -0.356 -0.407
-0.378 0.0367 -0.447
 0.457  0.364  0.544
 0.152  0.825 -0.490
-0.0562  0.444 -0.539
 0.419 -0.758 -0.299
-0.239  0.106  0.524
-0.501 0.0710 -0.557
 0.426 -0.871 0.0914
 0.317 -0.656  0.469
-0.540 -0.305 0.0223
-0.628  0.672 -0.0883
 0.128 -0.182  0.534
 0.604 -0.425 -0.289
0.0988 -0.676  0.549
 0.613  0.701 -0.0339
-0.199 -0.180 -0.701
 0.707  0.119 -0.228
 0.250  0.217 -0.699
-0.267  0.355  0.665
0.0720  0.456 -0.534
-0.456 -0.277 -0.551
-0.450  0.731 -0.414
 0.138  0.340  0.704
-0.445 -0.127  0.354
-0.580 -0.646 0.0835
 0.288  0.461  0.626
-0.556  0.274  0.479
-0.0432 -0.878  0.148
 0.687  0.467 0.0137
 0.434 -0.608 0.00515
-0.588  0.584 -0.318
0.0416 0.0475 -0.580
-0.368 -0.216 -0.622
 0.416 -0.568 -0.454
-0.00407 -0.338  0.519
 0.360  0.270 -0.434
-0.129 0.0973 -0.570
 0.415  0.768 -0.0253
 0.369 -0.0111 -0.446
 0.554 -0.103 -0.105
 0.159  0.114  0.722
 0.508  0.313 -0.520
-0.0817 -0.115  0.729
-0.0301 -0.365  0.676
 0.712  0.261 -0.171
 0.473  0.459  0.226
 0.552 0.00594  0.483
-0.197 -0.749 -0.496
-0.343  0.400  0.616
-0.726  0.184  0.150
 0.195  0.735  0.385
 0.397  0.126  0.617
 0.524  0.236 -0.227
-0.108  0.287  0.722
-0.387 -0.417  0.323
 0.406  0.720  0.163
 0.520  0.481 0.0561
-0.461  0.261  0.335
-0.448  0.359 -0.333
0.0609 -0.874 0.0703
-0.00406 -0.515 -0.480
 0.320 -0.251 -0.451
 0.112 -0.167  0.718
-0.473  0.646 0.0510
-0.0693  0.119 -0.746
-0.408  0.348 -0.604
 0.532 0.0420 -0.224
 0.493  0.690  0.370
-0.568  0.171  0.478
0.0148 -0.653 -0.581
-0.619 -0.482  0.190
0.0970  0.248  0.555
 0.452  0.624  0.448
 0.724  0.280 0.00931
 0.211 -0.800  0.258
-0.525  0.395 -0.169
 0.657 -0.231 -0.295
 0.474 -0.385  0.197
-0.310  0.210  0.665
 0.497  0.828  0.235
-0.659  0.505  0.183
-0.256 -0.366 -0.458
 0.394  0.367 -0.380
-0.686 -0.0725 -0.301
-0.633 0.00591 -0.399
-0.203  0.827  0.335
-0.147 -0.873 -0.242
-0.665  0.588 -0.0590
-0.359 -0.769  0.363
 0.586  0.560  0.304
-0.200  0.290 -0.531
 0.586 -0.568 -0.160
 0.455 -0.417 -0.216
 0.488 0.0190  0.286
 0.549 -0.491 -0.332
-0.0476  0.490  0.684
-0.0500  0.177  0.564
-0.338  0.499  0.590
 0.338 -0.426 -0.376
 0.269 -0.874 -0.356
-0.749 0.0671 -0.00801
0.0224 -0.601  0.435
 0.468 -0.00284  0.568
 0.315  0.324  0.646
 0.401 -0.491  0.261
 0.526 -0.413  0.405
 0.422 -0.117  0.594
-0.277 -0.0727 -0.504
-0.121 -0.115 -0.558
-0.490  0.137 -0.308
-0.201  0.420 -0.507
 0.392  0.127  0.414
 0.288 -0.147 -0.488
 0.505 -0.771 -0.0209
-0.426 -0.0625  0.606
-0.573 -0.0890 0.0571
-0.548 -0.160 -0.486
-0.232 -0.263 -0.499
-0.301 -0.606  0.312
-0.391  0.642  0.510
-0.0431 -0.874 -0.268
 0.537  0.302  0.124
-0.539 -0.0436  0.215
 0.711 -0.215 -0.0335
 0.399  0.828 -0.359
-0.600 -0.421 -0.301
-0.159 -0.659  0.545
 0.426 -0.302  0.316
-0.423  0.717 -0.153
 0.423 -0.788  0.243
-0.317  0.250  0.465
-0.190  0.405  0.681
-0.677  0.367  0.252
 0.403 -0.311  0.562
-0.526  0.819 -0.225
 0.191  0.157 -0.545
-0.619  0.578  0.256
 0.685 -0.306  0.127
 0.323  0.254  0.460
 0.179 -0.312 -0.677
-0.524 -0.754 0.0653
 0.319  0.548 -0.597
 0.684  0.397  0.178
-0.355  0.827 -0.187
 0.542  0.139 -0.175
-0.135 0.0798  0.726
 0.210 -0.0112 -0.544
-0.564 -0.0201 -0.490
-0.514  0.734  0.308
 0.686 -0.205  0.195
-0.391  0.127 -0.434
 0.101 -0.0904 -0.737
-0.493 -0.541  0.390
 0.738 -0.0243 -0.0210
-0.472 -0.781  0.188
 0.156  0.772 -0.569
-0.735 -0.0968 -0.107
 0.682 -0.222 -0.206
 0.678  0.119 -0.316
-0.465 -0.477 -0.175
-0.322 -0.539 -0.545
-0.304  0.828 -0.385
 0.704 -0.0111 -0.227
 0.474 -0.651  0.308
 0.552  0.367 -0.460
-0.344  0.433 -0.426
 0.526  0.150  0.509
-0.519  0.106  0.533
 0.431  0.465  0.544
 0.611 -0.492  0.176
 0.353 -0.762 0.0554
-0.313 -0.283  0.441
 0.373  0.825  0.292
0.0247  0.394  0.707
 0.537  0.391 0.0817
-0.00405  0.185  0.731
 0.503 -0.263  0.486
-0.502 -0.427 -0.0716
-0.280 -0.730 -0.463
-0.297 -0.345 -0.636
 0.199 -0.561 -0.410
-0.169 -0.371  0.484
 0.295  0.828  0.370
 0.505 -0.102 -0.260
-0.621  0.409 -0.351
 0.479 -0.296 -0.246
 0.645 0.0193  0.357
 0.280 -0.205  0.663
-0.346  0.722 -0.505
 0.148 -0.795 -0.477
-0.486  0.554 -0.146
 0.724 -0.138 0.0777
 0.181  0.538 -0.480
-0.486  0.828  0.161
 0.332 0.0489  0.461
0.0350  0.468 -0.701
-0.0696  0.747  0.420
 0.176 0.0149  0.716
 0.441  0.537 -0.247
 0.157  0.398 -0.700
-0.588 -0.637 -0.0644
-0.547 -0.612 -0.256
-0.410 -0.714 -0.361
0.0219  0.825  0.474
-0.0563  0.559 -0.505
-0.0432 -0.414 -0.513
-0.0945 0.0148 -0.578
 0.310 -0.656  0.267
 0.700  0.114  0.246
 0.478 0.0736 -0.316
-0.393 -0.274 -0.384
-0.473 0.0800  0.334
 0.176  0.482  0.662
 0.298 -0.714 -0.454
-0.434  0.828 -0.281
-0.615 -0.240 -0.369
-0.539  0.233 -0.198
-0.512  0.829 0.0182
-0.0563 -0.600 -0.601
-0.215 -0.0950  0.526
-0.495  0.414  0.500
 0.176  0.416  0.505
-0.636  0.559 -0.241
 0.127 -0.600 -0.592
-0.290  0.718 -0.346
-0.201  0.691 -0.422
 0.271  0.371 -0.673
 0.346  0.616  0.329
 0.493 -0.440 0.0687
-0.319  0.722  0.510
-0.296 0.0135 -0.498
 0.620  0.605  0.192
 0.439  0.566  0.230
-0.558 0.0927 -0.153
 0.336 -0.804  0.345
-0.356  0.825  0.357
-0.575  0.136 0.0443
-0.289 -0.505  0.568
-0.685  0.110 -0.307
 0.553  0.725  0.234
 0.637 0.0535 -0.377
 0.517  0.540 -0.442
-0.281  0.278 -0.493
-0.427 -0.771 -0.285
-0.489 -0.175 -0.287
-0.745 -0.0115 -0.0728
-0.0848  0.341  0.541
-0.682 -0.254 -0.212
-0.0562  0.828 -0.542
 0.158  0.777  0.549
 0.514 -0.177  0.497
-0.268  0.755  0.331
 0.201 -0.141 -0.535
-0.483 -0.497 0.0183
-0.175  0.501  0.485
 0.485 -0.680 -0.273
-0.202  0.289 -0.705
-0.316 -0.600  0.503
-0.639  0.645 0.0707
 0.554 -0.264 -0.453
0.0218 0.0146 -0.746
 0.631  0.430 -0.316
-0.561  0.536 -0.389
-0.475 -0.464  0.450
 0.227 -0.768  0.447
 0.547 -0.688 -0.0471
-0.665 -0.283  0.249
 0.303 0.0276 -0.682
 0.170 -0.640 -0.389
 0.557  0.153  0.116
-0.677  0.159  0.310
-0.290 -0.638 -0.320
-0.224  0.574 -0.635
 0.391 -0.261 -0.377
 0.243 -0.367 -0.464
-0.550  0.249  0.151
-0.525  0.453 0.0923
 0.672  0.253  0.293
 0.309 -0.568 -0.529
-0.600 -0.340 -0.360
 0.492  0.571 0.0518
 0.206 -0.408 -0.646
-0.369 -0.751 0.0108
0.0948  0.558  0.658
-0.629 0.0927  0.394
 0.517  0.829 0.0572
 0.738  0.115 0.0797
-0.548 -0.0115  0.497
 0.706  0.404 -0.0860
0.0220 -0.434  0.654
 0.106  0.424  0.696
 0.139  0.825  0.474
 0.555 0.0365  0.117
 0.620  0.618 -0.186
-0.118 -0.0507  0.553
-0.131 -0.799 -0.481
-0.385 -0.188 -0.415
 0.520  0.481 -0.0468
 0.489 -0.749  0.163
-0.565  0.275 -0.0469
 0.152  0.827 -0.370
-0.276 -0.168  0.671
 0.483 -0.154  0.274
 0.538 -0.243 -0.0967
-0.625 -0.546 0.0786
-0.536  0.193 -0.514
 0.287 -0.339  0.437
-0.145 -0.658 -0.560
-0.563  0.743 -0.233
 0.322  0.744  0.491
-0.358  0.414 -0.620
 0.352  0.689 -0.299
 0.294  0.754 -0.310
 0.320 -0.523 -0.348
 0.392 -0.400 -0.557
 0.464  0.618 -0.127
-0.712 -0.260 -0.0469
 0.574  0.772 -0.0867
-0.414 -0.693  0.363
-0.488  0.404  0.244
 0.397 -0.550  0.472
-0.293 -0.744  0.233
-0.293  0.683 -0.557
-0.0173  0.682 -0.628
 0.553  0.327 0.0312
 0.309  0.473 -0.428
-0.420 -0.625 -0.424
0.00876  0.280 -0.566
-0.162 -0.247  0.515
0.0480  0.607 -0.660
-0.00369  0.741 -0.437
-0.413 0.0799  0.401
-0.191 -0.432  0.633
0.0641 -0.652 -0.415
-0.0912 -0.621 -0.426
0.00888 -0.0113  0.733
 0.256 -0.878 -0.0469
 0.176  0.584 -0.642
-0.355 -0.0244  0.645
-0.587 -0.373  0.351
 0.265 0.0800  0.505
-0.0932 -0.697  0.379
-0.445  0.166 -0.371
 0.529 -0.604  0.268
 0.610 -0.236  0.362
-0.0953 -0.0112 -0.748
-0.0676 -0.787  0.492
 0.544  0.449 -0.449
 0.429  0.299  0.347
-0.423  0.459  0.318
 0.659 -0.319 -0.212
 0.409 0.0149 -0.627
 0.740 0.0668 -0.0865
-0.0171 -0.180 -0.732
-0.173 -0.874 -0.151
-0.147 -0.878 -0.0599
-0.252 -0.0505 -0.702
 0.577  0.770 0.0852
-0.304 -0.805 -0.396
 0.431  0.300 -0.597
-0.0172 0.0668  0.567
 0.353  0.754  0.236
-0.666  0.400 -0.282
-0.709 0.0319 -0.239
-0.701 0.0279  0.264
-0.413 0.0670  0.619
-0.276 -0.811  0.178
 0.268 -0.454  0.593
0.0350 -0.430  0.493
 0.157 -0.784 -0.310
 0.569  0.153 0.000857
-0.248 -0.541 -0.586
-0.210  0.119 -0.547
 0.180  0.655  0.598
0.0703  0.828  0.383
 0.127 -0.509 -0.631
-0.286  0.456  0.445
 0.341 -0.789 -0.0209
-0.491 -0.0207 -0.314
 0.720 0.0666 -0.167
 0.271  0.707 -0.552
 0.166 -0.234 -0.697
0.0846 -0.129 -0.567
 0.441 -0.549 0.0977
-0.512 -0.302 -0.490
-0.375 -0.522  0.283
 0.318  0.157 -0.484
 0.210  0.824  0.326
 0.531 -0.488  0.361
-0.498 -0.789 -0.0252
 0.351  0.354 -0.627
 0.112 -0.0628  0.730
-0.542  0.183  0.198
 0.115  0.354 -0.541
0.0391 -0.780 -0.506
 0.476 -0.806 -0.0983
 0.616 -0.0622 -0.411
-0.347  0.214 -0.661
 0.549 -0.299  0.428
 0.279 -0.865 0.0944
0.0609  0.825 -0.438
 0.398 -0.587 -0.194
-0.508 -0.325  0.470
-0.0172 -0.0113 -0.581
 0.372 -0.695  0.394
-0.591  0.749  0.107
-0.427 -0.285  0.336
-0.441 0.0310 -0.612
-0.106 -0.865 -0.443
-0.346  0.563 -0.376
 0.191 -0.640 -0.552
-0.526 -0.335 0.0956
 0.685  0.315 -0.223
-0.225  0.825 -0.451
-0.384 -0.673 -0.147
-0.00421 -0.482 -0.651
-0.734  0.294 -0.0201
-0.576  0.197 -0.0339
 0.530 -0.689  0.131
-0.282  0.342  0.469
-0.359 -0.403 -0.575
 0.184  0.237 -0.541
 0.104 -0.532  0.616
-0.679  0.232 -0.302
-0.669 -0.199  0.291
 0.412  0.499 -0.316
 0.273 -0.600  0.336
 0.629 -0.489 -0.136
 0.251  0.368 -0.488
0.0792  0.684  0.449
 0.190 -0.704 -0.346
 0.628  0.655 0.0311
 0.660  0.533 -0.150
-0.379  0.791  0.432
 0.545 -0.0374  0.149
 0.506  0.414 -0.176
-0.143  0.750 -0.411
-0.0259 -0.739 -0.530
 0.421 -0.495 -0.485
 0.424 -0.179 -0.371
0.0851 -0.869  0.432
-0.651 -0.413  0.171
0.0391 -0.386 -0.518
-0.725  0.133 -0.178
 0.187 -0.504  0.436
0.0870 -0.874 -0.0730
 0.634 -0.146  0.341
-0.258  0.188 -0.520
-0.342 -0.776 0.0812
0.0218 -0.352 -0.692
 0.450 -0.421  0.485
-0.662 -0.102  0.327
0.0349  0.171 -0.580
-0.209  0.520 -0.482
-0.344 0.0757 -0.671
-0.396  0.801 -0.123
-0.185 -0.726 -0.342
 0.559  0.507  0.382
-0.346  0.667 -0.324
-0.0433 -0.655  0.568
 0.590 0.0928 -0.457
 0.259 -0.823 -0.199
0.0158 -0.229  0.707
 0.398 -0.639 -0.426
 0.572 -0.400 -0.357
-0.562 -0.193 -0.0724
-0.581 0.0410 -0.0471
 0.656 -0.155 -0.314
-0.721  0.288 -0.149
-0.513  0.479  0.459
 0.258  0.628  0.584
-0.225 -0.102  0.697
-0.233 -0.345  0.645
-0.0563 -0.102  0.563
-0.0958 -0.155 -0.730
-0.559 -0.193 0.0820
-0.345 -0.600 -0.502
 0.464  0.828 -0.0339
 0.128  0.691 -0.441
-0.134  0.825 -0.503
 0.121  0.740  0.408
 0.213  0.477  0.472
-0.316 -0.673  0.255
-0.222 -0.295 -0.675
0.0609 -0.874  0.252
-0.394 -0.102  0.408
-0.587  0.432  0.385
-0.400  0.560  0.541
 0.708  0.316  0.125
 0.101  0.433  0.518
-0.407 -0.607  0.431
-0.472 -0.459  0.156
-0.261 -0.554  0.372
 0.714 -0.0285  0.182
 0.535 -0.283 0.0687
-0.489 -0.286  0.227
-0.131  0.701  0.430
-0.734 -0.125 -0.0163
 0.694 -0.300 -0.0210
0.0350  0.754 -0.600
-0.376 -0.573 -0.258
-0.372  0.650  0.294
 0.733  0.172 -0.0601
 0.239 -0.0599  0.511
 0.252 -0.696  0.483
0.0351 -0.782  0.344
-0.442  0.237  0.588
-0.230  0.602  0.424
 0.596  0.196 -0.442
 0.479  0.196 -0.312
 0.541  0.339 -0.115
-0.552  0.366 -0.0840
-0.0706  0.590  0.481
 0.542 -0.113  0.130
 0.370 -0.322 -0.595
-0.0587 -0.779 -0.356
-0.608 -0.572 -0.0986
-0.405 -0.633  0.145
-0.305 -0.824  0.359
 0.564 -0.125  0.456
-0.303 -0.322  0.626
-0.747 0.0148 0.0703
-0.518 -0.569 -0.343
 0.112 0.0929  0.561
-0.486  0.445 -0.516
 0.261 -0.640 -0.519
-0.110  0.564 -0.666
-0.392  0.780  0.144
-0.707  0.425 -0.0209
 0.431  0.760  0.388
 0.626  0.209  0.378
 0.249 -0.138  0.682
 0.230  0.825  0.409
-0.262 -0.870 -0.152
0.0609 -0.874 -0.229
 0.334  0.828 -0.320
-0.189 -0.806  0.449
 0.126 -0.874  0.135
-0.307  0.577  0.394
-0.409  0.328  0.371
-0.533  0.604  0.385
 0.412  0.828  0.135
 0.467 -0.444  0.149
-0.00848  0.819  0.549
-0.440 -0.587 -0.0875
-0.475  0.137 -0.583
-0.600 -0.186 -0.419
-0.443 -0.817 -0.204
-0.140 -0.589  0.420
 0.553 0.0840  0.484
-0.158  0.196  0.544
 0.241  0.624 -0.417
-0.140  0.674 -0.621
 0.684  0.443 -0.148
 0.326 -0.481  0.553
-0.274 -0.180 -0.497
-0.530 -0.710 -0.148
-0.635 -0.114 -0.381
-0.513 -0.303 -0.182
 0.598 -0.323 -0.357
-0.0823 -0.875 -0.203
-0.560 -0.472 -0.340
-0.441 -0.275 -0.326
 0.520 -0.685 -0.185
0.0856 -0.0371 -0.576
-0.0825 -0.535 -0.629
-0.159  0.366  0.521
 0.592 -0.598 0.0705
-0.352 -0.204  0.431
-0.0561  0.656  0.626
 0.139 -0.496 -0.462
 0.499  0.119 -0.550
-0.287  0.418 -0.661
 0.378 -0.390  0.551
 0.515 -0.197  0.195
 0.552 0.00160 -0.141
-0.642  0.184  0.371
 0.395 -0.515 -0.263
 0.519 -0.423 -0.422
-0.455 -0.195  0.560
-0.358  0.640 -0.541
-0.591 -0.464  0.288
-0.104 -0.371 -0.518
 0.731  0.183  0.107
 0.555 -0.181 -0.0599
 0.323  0.811  0.459
-0.453 -0.464 -0.483
-0.213 -0.0911 -0.539
-0.535  0.106  0.220
-0.164 -0.679  0.364
-0.610  0.681  0.137
0.0478 -0.431 -0.668
 0.451  0.622  0.143
 0.477  0.538 -0.165
-0.577 -0.549  0.246
-0.505 -0.377 -0.126
-0.0301 -0.568  0.604
 0.558  0.437  0.425
-0.198 -0.739  0.310
-0.716 -0.0775  0.177
 0.253 -0.716 -0.294
-0.463  0.650  0.438
-0.557 0.0410  0.159
 0.552 -0.206 0.0182
-0.206 0.0667  0.707
-0.715  0.263  0.164
-0.278 -0.878 -0.0339
 0.358 -0.252  0.406
-0.108  0.828  0.474
-0.477 -0.0242  0.324
 0.371 -0.00681  0.433
 0.186  0.271  0.528
-0.174 -0.794 -0.298
 0.417 -0.0888 -0.390
 0.555  0.765 -0.175
 0.282 -0.0902 -0.687
-0.322  0.138  0.668
 0.475  0.491  0.484
 0.632  0.385  0.313
-0.661  0.533 -0.175
-0.0431  0.646 -0.479
 0.386 -0.149 -0.619
-0.178 -0.588  0.575
 0.505 -0.207 -0.227
 0.694  0.197  0.251
-0.724 0.0668  0.175
-0.149  0.433 -0.692
-0.0953 -0.333  0.684
 0.204  0.313  0.686
 0.305  0.636 -0.565
 0.504  0.397 -0.506
-0.108 -0.712  0.529
-0.487  0.423 -0.240
 0.514 -0.581 -0.318
-0.409  0.635 -0.260
 0.434 -0.819 -0.205
 0.516 -0.0242 -0.257
-0.584 -0.0638  0.455
-0.566  0.172 -0.124
 0.346 -0.736  0.125
-0.472 -0.328 -0.258
-0.0566 -0.242  0.539
-0.669  0.552  0.113
-0.296 -0.774 -0.211
 0.477  0.828 -0.216
-0.323  0.752  0.285
 0.343 -0.0770 -0.459
 0.286  0.276 -0.678
-0.432  0.543 -0.283
 0.396  0.581  0.286
 0.632  0.229 -0.378
 0.349  0.475  0.590
 0.236  0.150  0.694
 0.316  0.210 -0.670
 0.137 -0.464  0.635
-0.697  0.210  0.260
-0.457  0.667 -0.100
-0.0936 -0.556 -0.457
-0.0570  0.407  0.533
-0.0303  0.286  0.724
-0.172  0.767  0.386
-0.389 -0.799  0.298
 0.109 -0.584  0.423
-0.217 -0.602 -0.564
 0.504 -0.308  0.155
-0.552 -0.633  0.192
-0.680 -0.380  0.104
-0.624 0.0900 -0.423
-0.266  0.432 -0.475
-0.488  0.332  0.267
-0.0707 -0.813  0.314
-0.280 -0.562 -0.373
-0.282  0.642  0.568
-0.256 -0.407 -0.630
 0.145 -0.700 -0.531
-0.543  0.406 0.0312
 0.236 -0.290 -0.489
 0.385 -0.700 0.0384
 0.333 -0.108  0.449
 0.330 0.0537 -0.476
 0.583  0.722  0.153
-0.366  0.285 -0.435
0.0480 -0.273  0.532
-0.709 -0.215  0.134
-0.0475  0.572  0.656
-0.146  0.791 -0.564
-0.263  0.825 -0.305
-0.475 -0.713 -0.267
 0.552 -0.167 0.0824
-0.651  0.250  0.338
-0.641 -0.509 -0.0906
 0.523  0.223 -0.522
-0.709  0.404 -0.107
 0.728 0.0280  0.133
-0.465 -0.573 -0.403
-0.299  0.288  0.667
0.0983 -0.491  0.468
-0.585  0.780 0.0441
 0.248 -0.573  0.551
-0.410 -0.380  0.547
 0.332 -0.694  0.196
 0.712  0.179  0.181
 0.230  0.148  0.523
-0.121 -0.232  0.703
 0.104  0.540 -0.504
-0.443  0.502 -0.538
-0.484  0.629 -0.0210
-0.134 -0.323 -0.689
-0.113 -0.184 -0.552
-0.168  0.670  0.603
-0.525 -0.587  0.304
-0.544 -0.0846 -0.509
-0.486  0.825 0.0833
 0.559 -0.147 -0.476
-0.291  0.825  0.383
-0.579 -0.0241 0.00501
 0.228  0.521  0.636
0.0709  0.532  0.503
 0.535  0.693  0.294
 0.217 -0.878 -0.177
 0.337  0.417  0.413
-0.484 -0.788  0.120
 0.190 -0.478 -0.627
 0.144  0.463 -0.514
-0.00418  0.223 -0.740
 0.365 -0.209 -0.416
-0.219 -0.180  0.516
-0.0563 -0.508  0.467
-0.551  0.739  0.247
 0.401  0.762 -0.140
 0.621  0.126  0.393
-0.496  0.720 -0.364
 0.452  0.552 -0.500
-0.742 -0.0759 0.0701
 0.621 -0.464 -0.201
 0.462 -0.744 -0.245
-0.00286 0.0918 -0.751
-0.0488  0.766  0.578
 0.644  0.615 0.0855
-0.454  0.598 -0.484
 0.402 0.0409 -0.414
-0.712 -0.270 0.0701
 0.557  0.183 -0.124
-0.182 -0.436  0.462
 0.473  0.638 0.0312
 0.222 -0.149 -0.698
-0.553 -0.0892  0.148
 0.162 -0.656  0.378
 0.597  0.342 -0.398
-0.680  0.533 -0.0987
-0.439  0.733 0.0182
0.0864  0.119 -0.578
 0.472 -0.151  0.546
-0.703 -0.102 -0.241
 0.300  0.395  0.638
-0.462 -0.552 0.0600
 0.477 -0.309 -0.515
-0.449 -0.218  0.328
-0.153 -0.590 -0.422
0.0525 -0.764 -0.359
 0.375  0.157 -0.644
-0.672  0.429  0.224
-0.606  0.638  0.226
 0.508 0.0754  0.253
-0.318 -0.0559  0.475
-0.00411  0.487 -0.529
 0.130 -0.610  0.576
-0.459 -0.0928 -0.592
 0.431  0.733 0.0309
 0.624 -0.180 -0.370
-0.680 -0.211 -0.272
 0.485 0.0147 -0.562
 0.505 -0.0551  0.251
-0.513  0.436  0.165
-0.269  0.524  0.621
 0.102  0.460 -0.694
 0.426 -0.661  0.370
 0.672 -0.377 0.0847
-0.311 -0.670 -0.482
0.00892 -0.791  0.487
 0.319 -0.439 -0.584
0.0600  0.720 -0.449
-0.464 0.0925  0.582
 0.157 -0.717  0.342
-0.0303 -0.400  0.505
-0.510  0.510 -0.100
 0.457 -0.600  0.375
 0.440 -0.447  0.212
-0.463 -0.684  0.315
 0.534 0.0149  0.209
0.00896  0.211  0.561
-0.0735 -0.677 -0.567
-0.299 0.0927  0.486
-0.172 -0.818  0.271
 0.570 -0.401  0.341
0.0996 -0.658 -0.570
-0.104 -0.384  0.497
-0.646  0.628 -0.00787
 0.154  0.263 -0.719
-0.237  0.493 -0.655
-0.272  0.159  0.497
-0.224 -0.218  0.680
-0.00410  0.602  0.479
 0.450 -0.240  0.306
-0.401 -0.118 -0.405
-0.225  0.828  0.448
 0.300 -0.503 -0.569
 0.299 -0.621 -0.308
0.0983 -0.836  0.294
 0.194 -0.221  0.508
-0.107  0.494 -0.691
9.85e-05 -0.806 -0.337
-0.0173 -0.156 -0.564
 0.380 -0.699 -0.0982
 0.307  0.690  0.529
 0.690 -0.116  0.227
-0.366 -0.555  0.497
 0.470  0.402  0.261
-0.0691 -0.876  0.432
-0.158 -0.244 -0.532
 0.141 0.0146  0.547
-0.692 0.0927  0.285
-0.619 0.00192  0.414
-0.481  0.535  0.186
 0.731  0.248 -0.0730
-0.250 -0.466  0.606
-0.287  0.266 -0.685
 0.457  0.773 -0.364
 0.363  0.799 -0.182
 0.614 -0.555 -0.0850
 0.240 -0.720  0.288
 0.471  0.629 -0.0608
0.0601 -0.725  0.526
 0.638  0.535  0.200
-0.525 -0.212 -0.208
 0.712  0.371 -0.0280
 0.385 -0.788  0.303
 0.204 -0.875 -0.396
-0.0824 -0.0768 -0.740
 0.468 -0.824 0.0689
 0.517  0.739 -0.304
0.0748  0.289 -0.562
0.0348 -0.0368  0.568
-0.369  0.828 -0.346
 0.520  0.786 -0.247
 0.704  0.210 -0.214
-0.326 -0.0241 -0.679
 0.529 -0.314 -0.0599
 0.439  0.348 -0.334
-0.628 -0.462 -0.198
 0.507 -0.740 -0.127
-0.293  0.119 -0.693
-0.554 -0.361  0.414
 0.423  0.732 0.0995
-0.139  0.303 -0.724
-0.614  0.667 -0.153
-0.456 -0.425  0.221
-0.369  0.828  0.291
 0.523 -0.348 0.0312
-0.549  0.806  0.160
 0.687  0.171 -0.271
-0.643  0.278 -0.364
-0.121 -0.874  0.161
0.0478  0.315 -0.729
-0.160 -0.874 0.0703
 0.508  0.468  0.120
 0.381  0.267  0.403
0.0823 -0.821 -0.477
 0.108 -0.316 -0.528
-0.706  0.353 -0.153
-0.434  0.327  0.578
 0.720 -0.155 -0.0731
-0.656 -0.345  0.218
 0.533 -0.725 0.0184
-0.699 -0.0496  0.263
-0.424 -0.251  0.575
 0.563  0.197 -0.0601
 0.101 -0.248 -0.712
 0.462 -0.735  0.249
-0.266  0.768  0.515
-0.592  0.339  0.418
 0.342 -0.632 -0.251
-0.0866 -0.160  0.553
-0.485  0.361 -0.541
0.0218 -0.646  0.572
0.0480  0.184 -0.747
 0.662 -0.274  0.228
-0.556 -0.335 -0.428
-0.223 -0.752  0.465
-0.249 -0.503 -0.412
0.0349 -0.102 -0.738
 0.379 -0.810 -0.299
-0.111  0.512  0.496
-0.660 -0.0332 -0.347
 0.476 -0.0377 -0.316
-0.445 -0.434 -0.237
 0.357  0.570  0.550
 0.427 -0.121  0.358
 0.258 -0.339  0.636
 0.550 -0.0595  0.481
-0.202  0.538  0.638
 0.112  0.612 -0.648
 0.423  0.828  0.341
-0.537 -0.659 -0.212
-0.0430 -0.0624  0.735
 0.300 -0.275  0.439
 0.497  0.326  0.236
 0.434  0.446  0.304
 0.330  0.778 -0.486
-0.348  0.603  0.336
 0.204 -0.878 -0.112
0.0219  0.106  0.735
 0.191  0.828 -0.438
 0.255 0.0277 -0.517
-0.102  0.797  0.393
 0.465  0.828  0.174
 0.269  0.825 -0.398
 0.441 -0.309 -0.304
-0.486  0.825 -0.112
 0.685 -0.0371 -0.297
 0.240  0.754 -0.357
 0.215 0.00192 -0.717
 0.240 -0.0758 -0.523
 0.304 -0.755 -0.205
-0.442  0.286 -0.592
-0.282 -0.127  0.487
 0.643 -0.0110 -0.372
 0.104 -0.124  0.552
 0.243 -0.878 0.0312
-0.0564 0.0406 -0.746
0.0338 -0.356  0.682
-0.378  0.272 -0.632
-0.708  0.410  0.113
-0.191 -0.691 -0.529
0.0621 -0.522 -0.471
 0.251 -0.263  0.656
-0.712  0.144 -0.240
 0.389  0.417  0.359
 0.540 -0.0110 -0.513
 0.525  0.136  0.219
 0.249 -0.764 -0.449
-0.600 -0.257  0.383
 0.288  0.553  0.404
 0.405  0.157 -0.409
 0.150 -0.0498 -0.731
-0.421 -0.235 -0.591
 0.163 -0.283 -0.521
 0.411 0.0324  0.612
-0.264  0.669  0.382
 0.515  0.518  0.433
-0.332 -0.168  0.640
-0.534 -0.336 -0.0340
 0.415 -0.391 -0.298
-0.330  0.511 -0.412
 0.125  0.826 -0.548
 0.556  0.507 -0.402
 0.494 -0.448 0.00515
-0.0158  0.606 -0.655
-0.155 -0.371  0.657
-0.656 0.0841 -0.358
 0.184  0.346  0.512
-0.434  0.829  0.304
-0.238  0.217  0.512
-0.461  0.555 -0.215
-0.366  0.211  0.432
 0.488 -0.403 -0.126
-0.439 -0.339 -0.547
 0.635  0.479 -0.274
 0.367  0.298  0.621
 0.667  0.315 -0.284
 0.425  0.829 -0.255
 0.215 -0.827  0.409
 0.441 -0.0540  0.359
0.0760  0.595 -0.489
 0.263 -0.00156  0.505
 0.514 -0.251 -0.182
-0.188 -0.391 -0.484
 0.529 -0.129 -0.184
-0.242  0.621 -0.426
 0.349  0.683  0.293
-0.0560  0.470  0.522
 0.419  0.641  0.203
-0.404 -0.123  0.606
 0.602  0.728 0.0442
 0.618 -0.539 0.0311
 0.564 -0.0643 -0.00801
 0.561  0.701 -0.264
-0.549 -0.471  0.355
 0.377  0.564 -0.554
 0.544  0.262 -0.135
-0.0475  0.428  0.696
0.0480  0.471  0.517
-0.236 -0.478  0.425
 0.466 -0.491  0.107
 0.215  0.736 -0.570
-0.0692  0.237  0.728
-0.724 0.0277 -0.178
-0.281  0.761 -0.523
 0.427 -0.693 -0.352
 0.495  0.381 -0.229
-0.604  0.144  0.433
 0.346  0.209 -0.461
0.0894  0.771  0.576
 0.401 -0.221  0.589
 0.391 -0.352  0.335
 0.663 0.0919  0.328
 0.414 -0.647 0.0558
 0.461 0.0844  0.343
 0.452  0.825  0.279
-0.664  0.106  0.343
-0.174  0.747  0.562
-0.407 -0.876 -0.187
0.0220 -0.530  0.619
-0.425  0.675  0.185
 0.347  0.584 -0.350
 0.137 -0.784  0.476
-0.351  0.509 -0.596
-0.106 -0.0464 -0.570
-0.0303 -0.162  0.721
-0.416  0.787 -0.0209
-0.694  0.278 -0.262
-0.463  0.525  0.491
-0.351 -0.160 -0.644
-0.225 -0.662 -0.355
 0.336  0.766 -0.265
 0.167 -0.832 -0.271
-0.570 0.0407 0.0981
 0.734 -0.0759 0.0826
-0.229 -0.781 -0.271
 0.318 -0.857 -0.320
-0.0303  0.365  0.712
 0.318 -0.818 -0.0709
 0.710 -0.0577 -0.186
-0.0172  0.223 -0.571
-0.0285 0.0501 -0.582
-0.486  0.219 -0.568
 0.304 -0.0110  0.675
-0.678 -0.392 0.0182
-0.550 -0.192  0.473
-0.552  0.300  0.116
-0.395  0.479  0.564
-0.227  0.630 -0.610
 0.210  0.670  0.404
-0.0303 -0.672  0.402
-0.150  0.153 -0.736
 0.105 -0.228  0.708
-0.143  0.449 -0.516
-0.408  0.828  0.240
-0.162 -0.872 -0.419
-0.119  0.546  0.661
 0.378  0.185  0.624
 0.263  0.505  0.439
 0.188  0.821  0.512
 0.207 0.0797  0.705
 0.112 0.0800 -0.745
 0.351 -0.703 -0.425
 0.701  0.367 -0.135
 0.194 -0.445  0.451
0.0478  0.538 -0.679
-0.171 -0.0209 -0.726
 0.176  0.559  0.467
-0.293  0.543 -0.620
 0.259 -0.513  0.578
 0.572  0.259  0.451
 0.102 -0.703  0.367
0.0523  0.646  0.628
-0.464 -0.125 -0.334
-0.238 0.0279  0.522
-0.306 -0.364  0.418
-0.0171 -0.556  0.449
 0.451 -0.332  0.268
-0.562  0.639 -0.322
-0.457  0.637  0.146
-0.315 -0.287 -0.641
-0.419 -0.574  0.180
 0.372  0.520 -0.358
 0.666  0.559 -0.0730
-0.302  0.763 -0.305
-0.591  0.487  0.358
 0.434  0.161  0.365
 0.688 -0.329 -0.116
-0.143  0.644  0.448
 0.260 -0.190  0.487
 0.568 0.0669 -0.0469
 0.130  0.225  0.719
 0.436  0.276  0.585
 0.395 0.0797 -0.632
 0.111  0.741 -0.595
-0.540 -0.272 0.0798
-0.519  0.341  0.494
 0.507  0.244  0.245
-0.681 -0.383 -0.0703
-0.329 -0.724 -0.200
 0.496 -0.0511 -0.548
 0.291 -0.800  0.389
-0.456 -0.295  0.535
 0.404  0.355 -0.597
 0.267 -0.788  0.212
-0.287 -0.706  0.463
 0.621 -0.427  0.236
 0.662 -0.384 -0.133
 0.331 -0.129  0.646
 0.337 -0.378  0.386
-0.619 -0.360 -0.306
-0.378  0.771 -0.194
 0.126  0.825 -0.425
-0.487  0.647 -0.426
-0.463 -0.744  0.245
-0.0693  0.379 -0.553
-0.512 -0.393  0.445
-0.441  0.736  0.403
-0.556 -0.688 0.0486
 0.475 -0.352 -0.219
-0.356 0.0927  0.647
-0.626  0.302  0.364
 0.169 -0.769  0.302
 0.357 -0.670 -0.198
 0.277  0.145 -0.695
-0.431 -0.875  0.110
 0.595  0.346  0.399
 0.551  0.250 0.0984
 0.356 -0.306 -0.398
-0.0823 -0.470 -0.654
 0.503  0.649 -0.393
-0.530  0.821 -0.165
-0.268  0.133  0.695
 0.499  0.176  0.259
-0.541  0.723 -0.285
 0.212 0.0667 -0.541
-0.457 -0.103  0.575
-0.699 -0.247 -0.152
-0.511 -0.167  0.241
-0.428  0.754 -0.0846
-0.413 -0.637 -0.110
-0.126  0.297 -0.554
 0.259  0.475 -0.461
-0.355 -0.672  0.194
 0.467  0.157 -0.583
-0.482 -0.817 -0.0753
 0.527  0.278  0.178
-0.454 -0.517  0.146
-0.601 -0.404  0.300
-0.398 -0.845  0.229
-0.438  0.512  0.271
 0.634  0.637 -0.0253
-0.563  0.203  0.115
-0.629 -0.134  0.375
 0.102 -0.352  0.506
 0.703 -0.141 -0.177
 0.361 -0.494  0.305
 0.653 -0.0370  0.340
 0.295  0.702  0.330
-0.737  0.223 0.0831
-0.502 -0.141  0.529
-0.0822 -0.373 -0.688
-0.333 -0.414 -0.389
 0.149  0.222  0.542
-0.448 -0.381 -0.272
-0.528  0.516 -0.440
-0.453  0.779 -0.379
-0.163  0.797 -0.383
 0.568 -0.00980 0.0196
 0.376  0.769  0.437
0.0768  0.382  0.535
-0.0429 -0.741  0.368
 0.451 -0.561 -0.0339
 0.294  0.610 -0.388
-0.534 -0.460 -0.393
-0.309 -0.426  0.400
 0.646 -0.449  0.114
0.0472 -0.609 -0.603
-0.510 -0.476  0.404
 0.141 -0.430 -0.484
-0.368 -0.516 -0.306
0.0610  0.236  0.726
-0.458  0.203  0.346
-0.409 -0.450 -0.292
-0.198  0.469  0.662
-0.388 -0.0284 -0.431
-0.172 -0.529 -0.613
-0.474  0.382 -0.286
-0.125 -0.301 -0.526
-0.719 -0.0950 -0.182
-0.0301  0.788 -0.583
-0.466  0.146  0.334
-0.364  0.196  0.640
 0.543 -0.629  0.217
 0.403  0.655 -0.234
-0.246 -0.775 -0.447
0.0982 -0.334  0.686
-0.618  0.611 -0.217
 0.522  0.640  0.358
-0.502 -0.449 -0.0171
0.0742  0.315  0.550
 0.128  0.315 -0.717
 0.607 -0.545  0.114
-0.449  0.322  0.327
-0.624  0.211 -0.403
-0.0173  0.365  0.544
0.0305 -0.212 -0.723
 0.714  0.365 0.0312
-0.472 -0.155  0.300
-0.0693 -0.878 0.00515
-0.681 -0.0105  0.302
-0.483 -0.432 -0.142
 0.152 -0.874  0.187
 0.349  0.203  0.448
 0.217  0.825 -0.490
 0.412  0.829 -0.0599
-0.111 -0.754 -0.357
-0.549 -0.541 -0.303
-0.361 0.0930  0.453
 0.128 -0.168 -0.547
 0.285 -0.601  0.515
-0.445  0.425 -0.321
-0.156 -0.875  0.408
-0.545  0.287 -0.497
-0.506 0.0797 -0.285
 0.186  0.760 -0.384
-0.0433  0.236  0.563
 0.415 -0.627 -0.0874
-0.570 -0.128 -0.0340
 0.282  0.829 -0.294
 0.560  0.552 -0.366
-0.137  0.237  0.717
 0.388  0.224 -0.413
 0.708 0.0286  0.213
 0.693  0.446 0.0704
-0.404  0.599 -0.531
 0.573 -0.639 -0.0340
-0.559 -0.0888 -0.137
 0.617  0.542  0.260
-0.477  0.469  0.503
0.00121 -0.856 -0.308
 0.416 -0.647 -0.0334
-0.0563  0.119  0.740
-0.516 0.00626 -0.546
-0.650  0.496  0.239
-0.463  0.304 -0.324
 0.300 -0.469  0.385
-0.184  0.314  0.524
 0.433 0.0928 -0.380
-0.602 -0.181  0.410
-0.372 -0.725 0.0963
 0.316 -0.803 -0.371
 0.359 -0.343  0.579
 0.561 -0.103 0.0441
 0.519 -0.292 -0.120
 0.448 -0.826  0.123
-0.727  0.132  0.172
 0.639 -0.360  0.249
-0.705 -0.310 -0.0731
 0.586  0.509  0.332
 0.488 -0.155 -0.271
 0.435  0.446 -0.551
-0.413  0.610  0.251
-0.476 -0.0893  0.315
-0.142 -0.462  0.631
 0.527  0.372  0.471
 0.291  0.223  0.675
-0.371 -0.0820 -0.646
-0.326 -0.736  0.415
-0.331  0.459  0.410
 0.650 -0.455 0.0571
-0.444  0.678 -0.448
 0.160 -0.548 -0.606
-0.716 -0.195 -0.127
 0.467 -0.0797  0.568
 0.681 -0.298 -0.164
-0.566  0.227 -0.106
 0.566 -0.581 -0.212
 0.371 -0.177  0.406
 0.606 -0.00711  0.417
 0.613 -0.116  0.386
 0.557 -0.641  0.146
 0.116 -0.757 -0.506
 0.116  0.224 -0.734
-0.647 -0.0240  0.359
 0.385  0.779  0.144
 0.188  0.726  0.570
 0.720 -0.192 0.0182
-0.522 -0.376 0.00460
-0.542  0.429 -0.0210
-0.405  0.181 -0.409
 0.431 -0.171  0.582
 0.383  0.721 -0.473
 0.310  0.617  0.563
-0.241  0.146 -0.707
 0.139  0.626  0.625
-0.248  0.331 -0.503
 0.157 -0.338  0.499
-0.216 -0.0378  0.528
-0.693 -0.162 -0.237
 0.514 0.0189  0.523
-0.337  0.768  0.475
 0.509  0.420  0.150
-0.289 -0.320 -0.452
-0.227  0.421 -0.674
-0.574 -0.589 -0.207
-0.0302 -0.155  0.553
 0.299 -0.791 -0.162
 0.233 -0.475  0.423
 0.450  0.161  0.587
 0.582  0.466 -0.373
 0.512  0.213  0.521
 0.161 -0.676  0.527
-0.485  0.261  0.551
 0.542  0.275 -0.490
-0.507 -0.355 -0.471
-0.498 -0.254 -0.514
 0.682 -0.0906 -0.271
 0.122 -0.827 -0.304
 0.115  0.289  0.715
 0.574 -0.0778 -0.467
 0.380 -0.412 -0.340
 0.272  0.488 -0.642
 0.396  0.289 -0.395
-0.222 -0.230 -0.689
 0.368 -0.202 -0.621
-0.222  0.676  0.587
-0.531  0.287 -0.213
-0.475  0.146  0.567
-0.305 -0.822  0.123
 0.480  0.250 -0.294
 0.144  0.527  0.654
-0.292 -0.154 -0.677
-0.704 -0.154  0.200
 0.465  0.374 -0.282
 0.601  0.655  0.176
 0.422  0.335  0.577
 0.729  0.222 -0.123
 0.668  0.393  0.240
-0.181 -0.644 -0.391
-0.395  0.712 -0.477
 0.313  0.356  0.443
-0.525  0.500 -0.0471
-0.302 -0.715 -0.254
-0.330  0.649  0.538
-0.287  0.339 -0.676
 0.644  0.330  0.318
-0.622  0.145 -0.415
 0.359 -0.548 -0.515
 0.266  0.196 -0.510
-0.530  0.684 -0.338
-0.216  0.744 -0.386
 0.227 -0.621  0.360
0.0882 -0.0509  0.560
-0.353  0.142 -0.659
-0.387  0.339  0.607
-0.0128  0.752  0.421
 0.250 -0.562 -0.386
 0.235  0.565 -0.635
