ply
format ascii 1.0
element vertex 2048
property float x
property float y
property float z
end_header
-0.00131  0.629 -0.125
-0.0621 -0.946  0.315
 0.127 -0.275 -0.301
-0.0915 0.0536  0.314
0.0902 -0.933 -0.316
-0.323 -0.471 0.0496
 0.226 -0.457  0.235
-0.253  0.106 -0.203
0.00230  0.908  0.337
 0.326 0.0845 0.00908
-0.320 -0.937 -0.0761
 0.328  0.926 0.00226
-0.330  0.927 -0.000779
 0.318 -0.879 0.0742
-0.136 -0.587 -0.298
 0.257 -0.615 -0.199
0.0584  0.342  0.108
 0.106 0.0947 -0.310
 0.116  0.927 -0.307
-0.318 -0.111 0.0810
-0.115 -0.327  0.304
-0.217 -0.238 -0.247
 0.325 -0.265 -0.0210
-0.239  0.395 -0.0372
 0.192 -0.128  0.261
-0.164 -0.645  0.284
-0.0110 -0.946 -0.0112
-0.189  0.889 -0.270
 0.134 -0.724  0.295
0.0735  0.818 0.0731
-0.226  0.671 0.0388
-0.118  0.124 0.0459
-0.164 -0.852 -0.286
-0.278 -0.851  0.174
 0.205  0.598 0.0326
-0.304 -0.676 -0.122
 0.257 -0.0800 -0.199
-0.241  0.909  0.237
 0.143  0.108  0.184
 0.241  0.897  0.241
0.0127  0.249 -0.124
 0.319 -0.604 0.0596
 0.283 -0.941 -0.163
 0.255  0.335 -0.0370
-0.0141  0.599  0.122
-0.0412 -0.101 -0.325
 0.185 -0.945  0.266
0.0811 -0.522 -0.319
-0.273 -0.450 -0.182
0.0193 -0.522  0.325
-0.0898  0.825 -0.0795
-0.327 0.0947 0.0193
0.00932 -0.738 -0.329
-0.0109 -0.142  0.326
-0.322 -0.286 -0.0615
 0.280 -0.409 -0.170
-0.205 -0.132  0.253
 0.130  0.817 -0.133
-0.304 -0.0903 -0.122
-0.0760 -0.392 -0.320
0.0965  0.455 -0.0782
-0.273 -0.306  0.180
 0.153  0.107 -0.104
-0.316 -0.666 0.0901
-0.255  0.102  0.203
 0.307 -0.0938  0.106
0.0986 -0.327  0.310
 0.317 -0.759 -0.0828
 0.204 -0.790 -0.255
-0.111  0.803  0.111
-0.0826  0.102 -0.318
 0.284 -0.283  0.162
 0.278  0.920 -0.180
-0.0981  0.434 0.0764
-0.242 -0.491  0.220
 0.174 -0.946 -0.0112
0.0404 -0.946  0.164
-0.0781  0.458 -0.0982
-0.155 -0.946 0.0917
-0.134 -0.946 -0.135
 0.319 -0.419 0.0596
 0.266 -0.711  0.185
-0.194 -0.0423 -0.264
-0.0831  0.107 -0.124
 0.117  0.198 0.0381
0.0743 0.0159  0.318
-0.0174  0.845 -0.241
-0.248  0.240 0.0385
 0.271 -0.245 -0.181
-0.0613 -0.769  0.319
 0.127 -0.111 -0.301
0.0815 -0.946 -0.155
 0.321 -0.0698 -0.0513
-0.306  0.898 -0.155
0.0961  0.492 0.0762
-0.278 -0.824 -0.176
-0.118  0.283 -0.0472
-0.0142  0.208  0.123
 0.284 0.0459  0.162
 0.319 -0.522 -0.0688
0.0671 -0.865  0.318
-0.0845  0.691 -0.0108
-0.185  0.547 -0.0406
 0.290 0.0639 -0.150
 0.212  0.831 -0.000990
-0.326 -0.831 0.0294
0.0907  0.844  0.219
 0.142 -0.656 -0.295
-0.0522 -0.946 -0.258
0.0813  0.691 -0.0191
-0.246  0.858  0.100
-0.199 -0.714 -0.260
-0.0513 -0.245 -0.323
-0.122 -0.471  0.301
 0.174 -0.409 -0.278
-0.193 -0.933  0.261
-0.0842  0.888  0.227
 0.174 -0.591  0.275
0.00951  0.107  0.236
-0.217  0.107 -0.0626
-0.187 -0.779  0.266
-0.219  0.835 -0.0366
 0.219  0.463 0.0189
 0.111  0.311 -0.0539
 0.257 -0.844  0.197
0.0403  0.107 -0.176
0.00923 -0.656  0.326
 0.318 -0.742 0.0670
 0.192  0.842  0.131
-0.322 -0.337 0.0597
-0.326 -0.584 -0.0312
-0.199 -0.375 -0.260
-0.242 -0.591 -0.222
-0.238 -0.943 -0.228
 0.236  0.709 -0.0404
 0.312  0.903  0.129
 0.266 -0.577  0.185
-0.124  0.107  0.174
 0.215 -0.946  0.112
-0.313 -0.945 0.0938
-0.0935  0.300 0.0820
 0.203 0.00564  0.253
 0.204 0.0331 -0.255
-0.199 0.00222  0.257
-0.292 -0.00720  0.149
-0.0727  0.924 -0.323
 0.321 -0.892 -0.0513
 0.205  0.107 0.0403
-0.313 0.0331 -0.101
-0.260 -0.635  0.198
-0.321 -0.426 -0.0689
 0.120 -0.450  0.301
 0.203 -0.251  0.253
-0.000794 -0.399  0.326
 0.236  0.232 0.0292
-0.00741  0.722  0.123
 0.101  0.578 -0.0725
 0.199 -0.945 -0.258
0.0986 -0.193  0.310
-0.108 -0.0698  0.307
0.00932 0.0228 -0.329
-0.0210 -0.615 -0.327
 0.135  0.927  0.296
0.0127  0.383 -0.124
-0.110  0.568 0.0585
-0.0110  0.491 0.0197
-0.0108 -0.275  0.326
-0.000744  0.763 -0.125
-0.172  0.842 -0.162
 0.181  0.870 -0.225
-0.0727 -0.946  0.194
0.0672 -0.388 -0.321
-0.286 -0.328 -0.164
-0.000793 -0.861 -0.329
-0.227  0.107 0.0814
-0.310 -0.224  0.106
-0.329 -0.0389 -0.0111
 0.314 -0.635 -0.0917
 0.321 -0.388 -0.0514
 0.106 -0.820 -0.310
-0.0704  0.564 -0.0485
-0.205 -0.388  0.253
-0.193 -0.245  0.262
-0.143 -0.142 -0.295
-0.237 -0.946 0.00941
 0.240 -0.502 -0.222
0.0963  0.605 0.0763
-0.0112  0.840  0.146
 0.318 -0.200 0.0742
0.0815 -0.946 0.0505
 0.266 -0.728 -0.187
 0.266 -0.176  0.185
 0.121  0.393 0.0197
-0.298 -0.553  0.134
-0.101 -0.00805 -0.313
0.0584  0.126  0.108
-0.323 -0.173 -0.0515
-0.194 -0.485 -0.264
-0.286 -0.215 -0.164
-0.206  0.475 0.0385
 0.274  0.868 -0.0829
0.0960  0.198 -0.0779
-0.000797  0.444  0.123
 0.134  0.104  0.296
 0.204 -0.203 -0.255
-0.0918 -0.779 -0.316
-0.0210 -0.491 -0.327
0.0686  0.794 -0.0483
-0.238 -0.135 -0.228
-0.269 -0.0149 -0.188
-0.286 -0.737  0.163
-0.320 -0.824 -0.0761
0.00585  0.516 -0.125
 0.293 -0.481  0.141
-0.329 -0.717 -0.000948
-0.182 0.0742 -0.273
-0.298 -0.567 -0.136
 0.106 -0.0835  0.307
-0.134 -0.946 -0.0112
-0.295 -0.430  0.142
-0.124  0.389 -0.0143
0.0916  0.715 0.0818
-0.152  0.898  0.305
0.0796  0.875 -0.203
 0.257 -0.0732  0.197
 0.192 -0.354  0.262
 0.215 -0.306 -0.247
-0.0213 -0.946 -0.145
0.0301 -0.946  0.267
 0.302 -0.142 -0.122
 0.256  0.107 -0.0626
 0.292 -0.841 -0.143
-0.122 -0.183  0.301
-0.227 -0.946  0.164
 0.321 -0.00806 0.0495
-0.269 -0.173  0.186
-0.0613 -0.584  0.320
 0.180 -0.563 -0.273
0.0396 -0.203 -0.325
 0.154  0.300 0.0380
 0.186 -0.844  0.266
0.0271  0.896 -0.340
-0.136 -0.289 -0.298
-0.0726  0.204 -0.102
-0.145  0.797 0.0159
-0.168  0.887  0.175
 0.127 -0.00806 -0.301
-0.0885  0.681 0.0868
-0.267  0.301 -0.0358
-0.167  0.106  0.281
 0.267 -0.946 0.0197
 0.305 -0.317 -0.115
-0.227 -0.946 -0.104
 0.318 -0.323 0.0742
-0.000734  0.107 -0.268
-0.186  0.713 -0.0374
-0.294  0.929  0.143
 0.184  0.691 0.0385
-0.114 -0.680 -0.307
-0.190  0.316 0.0341
 0.174  0.107 -0.196
-0.0316 -0.946  0.102
-0.120  0.219 0.0383
-0.0726  0.348 -0.102
-0.000832 0.0845  0.327
-0.181 -0.543  0.271
 0.184 -0.946 -0.165
 0.164  0.516 -0.0407
 0.219  0.106  0.239
-0.104  0.107 -0.227
 0.257 -0.371  0.197
-0.101  0.894 -0.237
-0.000724  0.845  0.239
 0.326 -0.162 -0.0110
-0.143 -0.861  0.292
-0.145 -0.946 -0.268
0.0986 -0.635  0.310
-0.260 -0.0800  0.198
0.0918 -0.946 -0.0626
-0.0667  0.815 -0.168
-0.0317  0.107  0.153
0.0404 -0.946 -0.237
-0.176  0.107 -0.145
-0.0109 -0.327 -0.329
0.0496 -0.748  0.321
-0.310 0.0742  0.106
 0.203 -0.683  0.253
-0.0781  0.715 -0.0982
 0.196  0.886 -0.137
-0.125  0.486 -0.000891
-0.116  0.139 -0.0471
 0.238  0.891 0.0720
-0.115 -0.485 -0.307
-0.196  0.240 -0.0405
0.0707  0.242  0.100
 0.174  0.249 -0.0408
 0.317 0.0228 -0.0760
-0.264 -0.711 -0.194
 0.215 -0.676 -0.247
 0.290 -0.543 -0.150
 0.246 -0.946 -0.0831
 0.112 -0.946  0.215
-0.0310 -0.0286  0.323
 0.284 -0.921  0.162
 0.325 -0.697 -0.0210
 0.327 -0.820 0.00916
-0.0307  0.362  0.119
 0.236 -0.872 -0.228
-0.327 -0.224 0.0193
-0.169  0.628 -0.0111
-0.219  0.910 -0.188
-0.222 -0.796 -0.242
 0.189  0.406 -0.0391
 0.295 -0.642  0.134
-0.268  0.903 -0.0596
-0.329 -0.923 0.00916
 0.277  0.108  0.102
0.0133  0.844 -0.154
 0.121  0.136 -0.0215
 0.166  0.897  0.201
0.0830  0.527 -0.000767
0.0766  0.660 -0.0982
 0.322 -0.502 0.0394
 0.226 -0.766  0.235
-0.292 -0.910 -0.151
-0.233 -0.717  0.231
-0.0918 -0.882 -0.316
 0.122  0.763 0.0197
 0.295 -0.786  0.134
 0.307 -0.224 -0.108
 0.192 -0.0492 -0.264
-0.168  0.857 0.0707
 0.298 -0.0492 -0.129
-0.0733  0.925  0.307
 0.150  0.845 0.0518
 0.133 -0.946  0.123
0.0497 -0.0492 -0.323
-0.0209 -0.841  0.325
-0.250  0.891 0.0200
 0.184  0.629 -0.0408
-0.299  0.107 -0.0626
0.0561  0.907  0.275
0.0199  0.167 -0.123
-0.0666  0.516  0.105
-0.320 -0.748 0.0739
-0.304 -0.759 -0.122
 0.109  0.856  0.141
 0.133  0.107 0.0814
0.0996 -0.945  0.309
 0.136  0.839 -0.0534
0.0450  0.544  0.114
-0.216 -0.851  0.244
0.0106 -0.941 -0.328
 0.215  0.352 0.0384
 0.299 -0.382  0.127
 0.174 -0.861 -0.278
-0.0661  0.773 0.0524
 0.279  0.234 -0.0373
 0.156  0.527 0.0375
 0.233  0.908  0.160
-0.322 -0.563 0.0597
-0.321 -0.0286 0.0671
-0.186  0.455 -0.0408
0.0198  0.491 -0.0523
 0.225  0.107 -0.135
 0.113 -0.728 -0.307
-0.326 -0.358 -0.0312
0.0744 -0.625 -0.320
0.0322  0.650 0.0764
-0.000893  0.290  0.123
-0.260 -0.388  0.198
0.0899 -0.553  0.314
 0.256  0.895 -0.0113
-0.184  0.557 0.0384
-0.323 -0.502 -0.0515
-0.314  0.885 0.0639
0.0764  0.420 0.0962
 0.266 -0.162 -0.187
 0.262 -0.337 -0.193
 0.120 -0.800  0.301
-0.107  0.643 -0.0668
-0.0624  0.107  0.267
-0.161  0.857 -0.0877
 0.153  0.714 -0.0310
 0.161 -0.512  0.283
-0.143 -0.717  0.293
 0.123  0.609 8.16e-05
-0.227  0.383 0.0382
 0.244 0.0844 -0.216
-0.0821  0.823  0.178
-0.0513 -0.491  0.321
 0.181  0.106 -0.272
 0.266 0.00221 -0.187
-0.310 -0.841  0.106
-0.0779  0.177 0.0961
 0.141 -0.0183  0.292
 0.228  0.927 -0.237
 0.307 -0.546  0.106
-0.0826 -0.656  0.316
 0.287 -0.946 0.0917
-0.248  0.107 0.00942
0.0918  0.107 -0.237
0.0710  0.743 -0.102
-0.0845  0.619 0.00942
-0.0826 -0.409  0.316
-0.264 -0.526 -0.194
-0.0625 -0.946 -0.0831
-0.238 -0.320 -0.228
 0.205  0.107  0.143
-0.0760 -0.546 -0.320
 0.106 -0.450 -0.310
 0.321  0.924 -0.0733
0.0598 -0.296 -0.322
-0.259  0.713 -0.0261
0.0706  0.872 -0.286
 0.123  0.465 -0.00755
 0.113 -0.203 -0.307
 0.325 -0.0903 0.0192
 0.298 -0.697 -0.129
 0.215 -0.132 -0.247
 0.231 -0.399 -0.233
-0.240  0.856 -0.108
-0.000656  0.784 0.0829
-0.295  0.102 -0.143
0.0251  0.578 -0.0813
-0.155 -0.946  0.174
0.0609  0.107  0.184
-0.0108  0.691 -0.0849
-0.0830 -0.946 -0.186
-0.176  0.107 -0.000862
-0.329 -0.646 0.00916
-0.199 -0.317  0.257
-0.134  0.710 0.0385
 0.184  0.321 -0.0310
 0.326 -0.450 -0.0110
0.0766  0.362 -0.0982
-0.124 -0.946  0.246
-0.255 -0.790  0.204
-0.182 -0.646 -0.273
-0.143 -0.419 -0.295
-0.255 0.0228  0.204
-0.329 -0.111 -0.0111
 0.174 -0.946 -0.0831
0.0696  0.115 -0.110
-0.0726  0.276 -0.102
 0.215 -0.539  0.244
 0.257 -0.810 -0.199
0.00927 -0.913  0.326
-0.196  0.107  0.164
-0.113  0.362 0.0523
-0.228 -0.584  0.236
-0.261  0.320 0.0353
-0.193 -0.461  0.261
-0.278 -0.639 -0.176
-0.164 -0.770 -0.286
-0.129 -0.584  0.299
-0.301 -0.395 -0.129
0.0499  0.813  0.168
 0.199  0.833 -0.0829
-0.278  0.232 -0.0310
-0.304 -0.471 -0.122
 0.178  0.899 -0.292
-0.332  0.899 -0.0897
0.0743 -0.262  0.318
-0.269 -0.0869 -0.188
 0.184  0.107 -0.0317
 0.318 0.0571 0.0742
-0.235  0.871  0.172
0.0710  0.280 -0.102
-0.151 -0.221 -0.292
-0.155  0.107  0.102
-0.217 -0.875 -0.247
0.0664  0.100  0.319
-0.0667  0.602 -0.107
 0.265  0.303 0.0337
-0.0630  0.495 -0.0419
 0.298 -0.0115  0.127
 0.161 -0.203  0.283
 0.112  0.107 -0.165
 0.174 -0.946  0.184
 0.318 -0.673 0.0742
-0.0316  0.108 -0.207
 0.240 -0.299  0.220
 0.253 -0.642  0.203
-0.327 0.0228 0.0193
0.0671 -0.392  0.318
0.0193 -0.203  0.325
 0.156 -0.501 -0.289
-0.0512 -0.347  0.321
 0.209 -0.0629  0.248
-0.255 -0.245  0.204
-0.222 0.0159 -0.242
 0.327 -0.574 -0.000974
 0.134 -0.879  0.295
 0.299 -0.461 -0.129
-0.151 -0.408  0.289
 0.326 -0.358 0.00907
-0.304 -0.296  0.120
 0.326  0.891 0.0605
 0.123 -0.946 -0.258
-0.0217  0.902  0.269
0.0672 -0.142 -0.321
 0.180 -0.728 -0.273
-0.0688 -0.179 -0.321
-0.121  0.218 -0.0308
-0.321 -0.714 -0.0689
-0.251 -0.903  0.209
-0.136 -0.255  0.295
 0.263  0.107  0.181
-0.129 -0.0766 -0.301
-0.178  0.836  0.133
-0.248 -0.946 0.0814
-0.298 -0.155 -0.136
-0.233 -0.437 -0.233
-0.122  0.743 -0.0309
-0.0758 -0.131  0.318
-0.122 -0.790  0.301
 0.310 -0.945 -0.101
-0.295 -0.131  0.142
-0.151 -0.120  0.289
-0.0847  0.802 -0.0109
-0.320 -0.0320 -0.0761
-0.144  0.868  0.247
-0.304 -0.368  0.120
-0.214  0.833 0.0310
 0.174 -0.946 0.0608
 0.102  0.107  0.236
0.0296  0.816 -0.0962
-0.129 -0.354 -0.301
-0.0726  0.523 -0.102
-0.321 -0.642 -0.0689
0.0396 -0.810 -0.325
-0.329 -0.409 0.00916
-0.186  0.321 -0.0310
-0.0311 -0.687 -0.326
 0.244 0.0468  0.214
 0.180 0.0639  0.271
-0.313 -0.234 -0.101
-0.111  0.865 -0.163
 0.262 -0.509  0.192
0.0295 -0.574 -0.326
 0.137  0.876 -0.173
 0.172  0.883  0.264
-0.0787  0.516 0.0323
-0.206 -0.946 -0.165
 0.244  0.714 0.0283
0.0294 -0.594  0.324
0.0193 -0.0698  0.325
-0.164 -0.0483  0.284
-0.0545  0.767 -0.0668
-0.264 -0.553  0.192
-0.0482  0.609 0.0685
0.0395 -0.450  0.322
-0.158 0.00822 -0.289
 0.233 -0.945  0.223
-0.269 -0.385 -0.188
0.0688  0.818 -0.173
0.0583  0.763  0.108
-0.292 -0.665  0.149
-0.194 -0.166 -0.264
-0.0108  0.547 0.0825
0.0292  0.444 -0.122
 0.141 -0.378  0.293
 0.320  0.106 -0.0564
-0.292 -0.922  0.149
 0.130  0.807 0.0998
 0.236 -0.946 -0.207
-0.0758 -0.224  0.318
 0.310 -0.265 0.0985
 0.293 -0.861  0.141
-0.188 -0.313 -0.269
 0.266 -0.0115  0.185
 0.313  0.899 -0.132
 0.231 -0.563 -0.233
-0.176  0.249 0.0380
-0.216 0.0742  0.244
-0.159  0.898 -0.211
-0.325 0.0536 -0.0413
-0.157  0.805 -0.0456
-0.000780  0.321 -0.125
0.0651  0.506 -0.107
-0.132  0.924 -0.302
-0.222 -0.193  0.240
-0.0614 0.0434 -0.322
-0.145 -0.946 -0.196
-0.329 -0.286 0.00916
-0.0110 -0.946  0.205
-0.326 -0.162 0.0294
0.0301 -0.946 -0.0729
-0.0727 -0.946 -0.000870
0.0194 0.0845 -0.327
 0.325 -0.923 0.0192
 0.168 -0.299  0.280
-0.0266  0.681 0.0792
 0.183  0.415 0.0353
-0.0827 -0.615 -0.319
-0.0826 -0.841  0.317
 0.114  0.372 -0.0468
 0.293 -0.604 -0.143
 0.105  0.328 0.0649
-0.133  0.568 -0.0148
-0.301 -0.491  0.127
 0.149 -0.778 -0.292
-0.0656  0.868 -0.279
 0.304 -0.378 -0.115
 0.321 -0.327 -0.0514
 0.317 -0.820 -0.0828
 0.325 -0.759 -0.0210
 0.318 -0.817 0.0742
 0.277  0.107 0.0402
-0.194 -0.546 -0.264
-0.310 -0.334 -0.108
 0.231  0.652 0.0191
 0.204  0.465 -0.0407
-0.214  0.611 0.0276
-0.0308  0.820 -0.105
0.0295 -0.666 -0.326
 0.112  0.823 0.00977
-0.122 -0.00807  0.301
 0.120 -0.882 -0.304
-0.0110  0.115 -0.132
 0.122  0.208 -0.0215
-0.0666  0.743  0.105
 0.180 -0.440  0.271
-0.183  0.927  0.261
 0.322 -0.265 0.0394
0.0406  0.492 0.0509
0.0810 -0.697  0.316
-0.0183  0.916 -0.298
 0.186 -0.625 -0.269
 0.180 -0.347 -0.273
 0.254  0.871 -0.144
 0.320 -0.142 0.0596
-0.255 -0.258 -0.205
-0.0614 -0.831 -0.322
-0.114  0.107  0.236
0.0598 -0.882 -0.322
 0.112 -0.946 -0.000870
-0.129 0.0673 -0.301
-0.0308  0.424 -0.122
 0.244 -0.231  0.215
-0.273 0.0536 -0.182
-0.0109 -0.0492 -0.329
 0.132  0.873 -0.265
0.0451  0.184  0.114
0.0946  0.896  0.328
0.0590  0.561 0.0581
-0.000837 0.0228  0.327
 0.296 -0.169  0.134
 0.326 -0.646 0.00910
-0.0981  0.396 -0.0782
 0.271 -0.471 -0.181
 0.154  0.578 -0.0407
-0.101 -0.941 -0.313
-0.236  0.659 -0.0250
-0.321 -0.275 0.0671
-0.176 -0.183  0.276
 0.164  0.234 0.0353
 0.295 -0.714  0.134
 0.325 0.00223 -0.0210
0.0405  0.869  0.200
-0.135  0.324 -0.00111
0.0497 -0.461 -0.323
-0.292 -0.0689  0.149
 0.215 -0.179  0.244
 0.108  0.660 0.0584
-0.298 -0.0115 -0.136
-0.125  0.167 0.00574
-0.238 -0.649 -0.228
-0.0688 -0.334 -0.321
 0.197  0.545 -0.00103
0.0810 -0.491  0.316
-0.0633  0.870 -0.199
-0.0411 -0.697  0.322
0.0294 -0.347  0.323
 0.161 -0.656  0.283
 0.180 -0.759  0.271
-0.0724  0.249  0.100
 0.108  0.270 0.0582
 0.235 -0.255 -0.227
-0.248  0.900 -0.238
0.0450  0.698  0.114
0.0672 0.0228 -0.321
0.0369  0.835 -0.218
 0.204 -0.471 -0.255
-0.176 -0.946 0.0300
-0.307 -0.865 -0.115
-0.0486  0.647 -0.0709
 0.102  0.107  0.143
-0.112  0.811 -0.132
0.0672 -0.145  0.319
-0.100 -0.903  0.310
0.0523  0.479  0.111
 0.257  0.868  0.122
 0.120 -0.594 -0.304
-0.320 -0.399 0.0743
-0.326 -0.882 -0.0312
 0.114  0.753 -0.0469
 0.262 -0.447  0.192
 0.238  0.401 0.0186
-0.201  0.888 -0.139
0.0914  0.170 0.0816
-0.286 0.0751  0.163
-0.0316 -0.946  0.267
-0.158 0.0339  0.287
 0.236 -0.118  0.226
-0.295 -0.275 -0.143
-0.119  0.444 -0.0400
-0.0538  0.424  0.111
 0.207  0.872 -0.0422
-0.116  0.650 0.0452
-0.100  0.825 0.0597
 0.254  0.854 0.0298
-0.0821  0.121 0.0924
-0.127  0.859  0.135
-0.321 -0.0971 -0.0686
 0.319 -0.584 -0.0688
-0.145  0.107 -0.0831
-0.307 -0.604  0.113
 0.230  0.876 -0.194
 0.236  0.270 -0.0408
-0.0142  0.575 -0.124
-0.107 -0.532  0.307
 0.301 -0.892 -0.122
 0.106 -0.0595 -0.310
0.0522  0.602  0.111
-0.103  0.878  0.288
 0.280 -0.125  0.168
-0.194  0.873  0.223
 0.120 -0.388 -0.304
 0.113  0.894  0.228
 0.108  0.249 -0.0601
-0.252  0.910 -0.138
-0.242 -0.0286  0.220
-0.187 -0.697  0.266
 0.163 -0.151 -0.286
-0.248  0.107 -0.114
 0.283 -0.656 -0.163
-0.0419  0.795  0.134
-0.113  0.338 -0.0541
-0.186  0.714 0.0197
 0.149 0.0648 -0.292
-0.282  0.866 -0.0176
-0.255 -0.865 -0.205
-0.190  0.394 -0.0112
0.0301 -0.946 -0.176
 0.262 -0.766  0.192
0.0198  0.393  0.121
 0.111  0.506 -0.0540
-0.165  0.107  0.215
0.0507 -0.946 -0.0214
-0.0316 -0.946 0.0403
-0.0540  0.153 -0.113
0.0609 -0.946  0.112
 0.287 -0.946 -0.0317
-0.278  0.107 0.0608
 0.277  0.107 -0.114
-0.196  0.107 -0.196
-0.0210 -0.152 -0.327
0.0194 -0.255 -0.327
-0.289 -0.946 -0.0214
-0.273 -0.769 -0.182
-0.278 -0.471  0.174
 0.326 -0.214 0.00907
 0.275 -0.882 -0.175
 0.308  0.880 -0.0210
 0.287 -0.101 -0.157
 0.319 -0.183 -0.0614
-0.187  0.424 0.0377
-0.145  0.672 -0.0405
 0.124  0.658 -0.0309
 0.236 -0.748 -0.228
 0.164  0.807 0.00908
 0.235 -0.0183 -0.227
-0.113  0.513 -0.0541
-0.133  0.845  0.199
 0.127 -0.269  0.298
0.0294 -0.820  0.323
 0.142  0.841  0.182
 0.214  0.840 0.0813
-0.0307  0.156  0.120
-0.274  0.914  0.191
-0.0513 -0.440 -0.323
 0.165  0.473 0.0262
-0.134  0.851 -0.215
0.0256  0.823  0.109
-0.0517  0.839  0.223
 0.295 0.0125 -0.136
-0.304 -0.790  0.120
 0.293 -0.748 -0.143
0.00578  0.503  0.123
-0.0918 -0.131 -0.316
 0.316 -0.275 -0.0828
-0.233 -0.440  0.231
-0.0416 -0.946 -0.317
-0.279  0.275 0.00893
 0.101  0.767 0.0707
0.0938  0.830 -0.0848
 0.174  0.642 0.0204
0.0667 -0.748 -0.321
-0.0959  0.106  0.311
 0.200  0.929  0.251
-0.194 -0.927 -0.264
 0.149 -0.143  0.290
-0.228 -0.515 -0.238
 0.231 -0.875  0.231
-0.265  0.906 0.0898
-0.00645  0.660  0.123
0.0338  0.896 -0.257
-0.165  0.668 0.0350
-0.161  0.846 0.00642
 0.122  0.878  0.278
-0.0688 -0.0560 -0.321
 0.287 -0.0535  0.156
 0.143  0.107 0.0300
0.0198  0.107  0.143
 0.156 -0.233 -0.289
-0.0830 -0.946  0.112
0.0301 -0.946 0.0608
 0.225 -0.946  0.164
-0.278 -0.946 -0.114
-0.228 -0.275  0.236
-0.0419  0.107  0.205
 0.225 -0.946 -0.0214
-0.269  0.928 -0.188
-0.238 -0.0321 -0.228
-0.233 -0.190 -0.233
 0.125  0.331 -0.00778
0.0533  0.619 -0.0654
-0.209  0.887  0.123
 0.154  0.107  0.133
-0.155  0.107 -0.237
 0.168 -0.0732  0.280
-0.135  0.290 0.0386
-0.155  0.510 0.0339
0.0765  0.712 0.0321
 0.120 -0.327 -0.304
 0.288  0.233 0.0140
-0.220  0.880 -0.0635
-0.158 -0.357  0.287
-0.276  0.880  0.141
-0.0108 -0.759  0.326
 0.317 -0.471 -0.0760
 0.316 -0.111 -0.0828
0.0811 -0.676 -0.319
 0.318 -0.707 -0.0761
-0.307 -0.173  0.113
 0.287 -0.537  0.156
-0.0412 -0.748 -0.325
-0.326 -0.234 -0.0312
-0.0311 0.0947 -0.326
 0.296 -0.231  0.134
 0.226 -0.385  0.235
-0.0109 -0.378 -0.329
0.0609  0.107 -0.278
-0.0599  0.578  0.108
-0.258  0.107  0.123
-0.0522  0.107 -0.268
-0.322 -0.625 0.0597
-0.186 -0.946 -0.0729
-0.000759 -0.946 -0.268
-0.134 -0.946 -0.0626
 0.205  0.300 0.0388
-0.258 -0.946 -0.0626
0.0506  0.107  0.267
-0.104  0.108 -0.176
0.00926 -0.707  0.326
 0.154 -0.946 -0.207
0.0301 -0.946 -0.124
 0.145  0.856  0.104
-0.186 -0.946  0.133
 0.215 -0.946 -0.124
 0.143 -0.946 -0.135
-0.114 -0.946 0.0608
-0.273 -0.584 -0.182
0.0300  0.107 -0.227
 0.290 -0.430  0.149
 0.143  0.108 -0.237
 0.195  0.107  0.194
-0.259  0.710 0.0250
0.0814  0.585 0.0173
-0.143 -0.903 -0.295
0.00932 -0.111 -0.329
-0.329 -0.502 0.00916
 0.282  0.910 0.0405
-0.217  0.100 -0.246
0.0194 -0.419 -0.327
-0.0412 -0.892 -0.325
-0.321 -0.872 0.0671
-0.122  0.444 0.0290
-0.205 -0.0492  0.253
 0.284 -0.345  0.162
-0.147  0.805 0.0672
-0.0432  0.815 0.0875
-0.326 -0.0698 0.0294
 0.271  0.904  0.201
 0.192  0.858  0.182
-0.136 -0.941  0.295
-0.238 -0.0835 -0.228
 0.318 -0.0629 0.0670
 0.237  0.391 -0.0370
 0.280 -0.296 -0.170
-0.0310 -0.625  0.323
-0.310 0.0125  0.106
-0.000862  0.821  0.192
 0.325 0.0331 0.0192
0.0533  0.691 -0.0654
-0.0209 -0.553  0.325
0.0586  0.208 -0.110
-0.316 -0.522 0.0901
 0.120  0.848 -0.215
-0.313 -0.450 0.0989
-0.0605  0.712 0.0580
-0.304 -0.615 -0.122
-0.289 -0.264  0.156
 0.195  0.370 -0.00428
-0.0340  0.547 -0.0787
-0.182 -0.0903 -0.273
-0.238 -0.382 -0.228
0.0199  0.701 -0.123
-0.0538  0.311  0.111
-0.0399  0.239 -0.119
 0.325 -0.728 0.0192
0.00254  0.865 -0.282
 0.106  0.124 -0.0677
-0.304 -0.718  0.120
0.0176  0.743 -0.0836
-0.0832  0.732 0.0174
-0.0637  0.784 -0.114
-0.242 -0.755 -0.222
 0.195  0.681 -0.0408
-0.199  0.868 -0.209
-0.228 -0.635  0.236
 0.200  0.868 0.0303
-0.292 -0.715 -0.151
-0.102  0.496 0.0709
 0.169  0.915 -0.246
-0.142  0.874 -0.264
0.00917  0.872  0.294
0.0507 -0.946 -0.289
0.0623  0.795 -0.127
 0.168 -0.0903 -0.282
-0.242 -0.131  0.220
 0.173  0.844 -0.163
-0.0141  0.818 -0.186
-0.0192  0.602 -0.0836
-0.0448  0.106  0.321
-0.227  0.446 -0.0158
-0.136 -0.814 -0.298
-0.307 -0.0389  0.113
0.0704  0.861  0.264
-0.317  0.926 0.0901
-0.113  0.753 0.0523
 0.242  0.898 -0.105
 0.155  0.857 -0.0949
 0.205  0.713 -0.000862
0.0524  0.609 -0.113
 0.132  0.546 -0.00995
 0.318 -0.467 0.0742
-0.325 -0.790 -0.0413
-0.0519  0.863  0.271
-0.0613 -0.0800  0.319
-0.204  0.610 -0.0406
-0.102  0.760 -0.0727
 0.301 -0.327  0.120
-0.0411 -0.903  0.322
 0.141 0.0433  0.292
0.0597  0.927 -0.322
 0.293 -0.594  0.141
-0.181 -0.831  0.271
 0.266 -0.563 -0.187
-0.320  0.929 -0.0531
-0.0655  0.695 -0.0553
 0.132  0.717 0.0290
0.0937  0.849 -0.137
-0.0688 -0.488 -0.321
 0.164  0.107  0.256
-0.102  0.246 -0.0727
0.0902 -0.245 -0.316
-0.0915 -0.286  0.314
 0.134 -0.550  0.295
-0.292 -0.213  0.149
-0.157  0.504 -0.0312
0.0765  0.794 0.0321
0.0826  0.753 -0.0109
0.0507  0.491 -0.000857
0.0686  0.527 -0.0483
 0.244 0.0331 -0.216
-0.289 -0.506 -0.158
-0.158 -0.465 -0.289
 0.257 -0.896  0.197
-0.283  0.874 -0.0993
-0.128  0.652 -0.000621
 0.276  0.107 -0.165
-0.0469  0.684 -0.116
-0.110  0.177 0.0585
 0.142 -0.946  0.285
-0.264 -0.707  0.192
-0.101 -0.440 -0.313
-0.0935  0.609 0.0820
-0.227  0.342 -0.0408
-0.164 -0.501  0.284
-0.122 -0.543 -0.304
-0.155  0.232 -0.000854
 0.290 -0.214 -0.150
0.0174  0.585 0.0812
-0.233 -0.358  0.231
-0.100 -0.728  0.310
 0.111  0.139 0.0521
-0.115 -0.248 -0.307
 0.145  0.579 0.0293
-0.0726  0.372  0.101
-0.228 -0.769  0.236
0.0531  0.749 0.0634
 0.204 -0.892 -0.255
0.0450  0.287  0.114
 0.235 -0.450 -0.227
-0.0111  0.108  0.287
 0.284  0.872 0.0703
 0.105  0.441 0.0649
-0.257 -0.946 -0.185
 0.132  0.896 -0.224
-0.149  0.813 -0.0981
0.0613  0.929  0.317
0.0671 -0.793  0.318
 0.111  0.701 -0.0539
-0.151 -0.725 -0.292
-0.290  0.923 -0.114
-0.0399  0.732 -0.119
-0.0927  0.913 -0.279
-0.158 -0.295  0.287
-0.136 0.0742  0.295
-0.189  0.835 -0.118
-0.216 -0.522  0.244
-0.265  0.883 -0.174
 0.105  0.554 0.0649
-0.165  0.280 -0.0408
-0.214  0.876 0.0483
-0.0411 -0.193  0.322
-0.187 -0.0903  0.266
 0.253 -0.687 -0.205
0.0454  0.547 -0.116
-0.0418  0.894  0.333
 0.111  0.619 -0.0540
 0.249 -0.214 -0.210
-0.282 -0.128 -0.170
 0.280 -0.814  0.168
-0.135  0.915  0.265
 0.168 -0.286 -0.282
 0.200  0.512 0.0354
-0.227  0.280 -0.0408
-0.322  0.886 -0.0264
-0.180  0.858 -0.0449
-0.104 -0.946 -0.248
 0.174  0.441 -0.00515
-0.278 -0.946 0.0300
-0.289  0.107 -0.0111
0.0507 -0.946  0.225
-0.0316 -0.946 -0.217
 0.121  0.414 -0.0215
0.00952 -0.946  0.123
-0.286 -0.367  0.163
 0.225  0.107 -0.000862
0.0291  0.239  0.120
 0.205  0.107 -0.0934
-0.217 -0.946 -0.0317
0.0712 -0.946 -0.104
-0.0311 -0.00806 -0.326
-0.0512 0.0125  0.321
 0.103  0.874  0.187
-0.0703  0.650 0.0466
-0.329 -0.790 0.00916
 0.203  0.876  0.223
 0.138  0.795 -0.0263
-0.0661  0.557 0.0524
-0.114  0.107  0.123
 0.300  0.922 0.0819
-0.320 -0.577 -0.0761
-0.212  0.928 -0.243
 0.215 -0.817  0.244
-0.170 -0.262 -0.282
-0.321 0.0331 0.0671
-0.0183  0.864 -0.195
-0.0812  0.647 -0.0268
0.0703  0.852 -0.245
-0.0651  0.847 -0.238
-0.295 0.0433 -0.143
 0.272  0.906 -0.0578
0.0986 0.0536  0.310
-0.273 -0.121  0.180
-0.207  0.837 0.0872
0.0923  0.896 -0.330
-0.206  0.232 0.00943
-0.206  0.507 -0.0358
-0.320 -0.193 0.0743
0.0987 -0.748  0.310
 0.149 -0.933 -0.292
 0.113 -0.591  0.304
-0.322 0.0125 -0.0615
0.0294 -0.255  0.323
-0.251 -0.841  0.209
 0.197  0.886  0.135
-0.125  0.850 -0.115
0.00948  0.732 0.0825
 0.325 -0.111 -0.0211
-0.259  0.857 -0.0554
-0.158 -0.681 -0.289
-0.243  0.888 -0.0252
 0.316  0.102 0.0810
-0.199 -0.591 -0.260
-0.194 -0.824 -0.264
 0.168 -0.00806 -0.282
-0.0634  0.864  0.183
 0.152  0.861  0.223
-0.259  0.856 0.0468
-0.0108  0.629 0.0825
 0.310 -0.553 -0.100
-0.227  0.280 0.0385
0.0176  0.640 -0.0833
-0.305  0.920 0.0371
-0.219  0.911  0.186
-0.103  0.891 -0.317
 0.231 -0.0218  0.231
 0.280 -0.0492 -0.170
0.00917  0.800  0.150
 0.231 -0.711  0.231
-0.0308  0.372 -0.122
-0.0783  0.732 -0.0340
0.0198  0.146  0.121
 0.221 -0.615 -0.242
 0.240 -0.587  0.220
-0.222  0.864 -0.171
-0.0412 -0.574 -0.325
-0.298 -0.824 -0.136
0.0793  0.664 0.0249
 0.197  0.906 -0.197
 0.282  0.916 -0.0997
-0.113  0.575 -0.0541
-0.238 -0.700 -0.228
 0.275 -0.231  0.174
 0.168 -0.700  0.280
 0.231 -0.820 -0.233
 0.122  0.509 0.0124
0.0395 -0.111  0.322
 0.235 -0.347 -0.227
 0.141  0.825  0.141
-0.123  0.537 0.0197
-0.0336  0.798 -0.144
 0.314 -0.430 -0.0917
-0.122  0.599 0.0290
0.0586  0.414 -0.110
 0.295 0.0776  0.134
 0.196  0.825 0.0401
-0.0688 -0.714 -0.321
 0.228  0.864  0.157
-0.100 -0.368  0.310
-0.0128  0.205 -0.125
 0.202  0.591 -0.0311
-0.0600  0.605 -0.0610
-0.273 -0.594  0.180
 0.304 -0.502 -0.115
-0.0258  0.903 -0.340
 0.319 -0.0183 -0.0614
-0.188 -0.416 -0.269
 0.192 -0.512 -0.264
0.0918 -0.946 -0.227
0.0813  0.609 -0.0191
 0.123 -0.946 -0.176
-0.196 -0.946  0.194
-0.104 -0.946 -0.104
-0.258 -0.946  0.133
 0.143 -0.946 -0.0523
 0.205 -0.946 0.0300
-0.206 -0.946 0.0608
 0.143 -0.946 0.0300
-0.0830 -0.946  0.277
 0.246  0.107 0.0711
0.0727  0.650 -0.0415
0.0383  0.660 -0.119
-0.0217  0.878  0.221
 0.253  0.852 -0.0211
-0.255 -0.485 -0.205
 0.192 -0.245 -0.264
-0.000759 -0.946  0.297
 0.231 -0.341  0.231
-0.0708  0.842 -0.134
 0.203 -0.498  0.253
-0.0686 -0.450  0.318
0.0811 -0.101 -0.319
 0.295 -0.255 -0.136
-0.0109 -0.779 -0.329
-0.0417  0.491 0.0505
-0.0210 -0.275 -0.327
 0.321 -0.666 -0.0513
0.0402  0.890  0.326
-0.260 -0.344 -0.199
 0.118  0.795 -0.0763
-0.0936  0.143 -0.0840
-0.000793 -0.543 -0.329
-0.329 -0.553 -0.000948
-0.248  0.848 0.00576
-0.167  0.473 -0.000870
-0.329 -0.193 -0.0111
0.0294 0.0536  0.323
-0.222 -0.0903  0.240
-0.310 -0.909 -0.108
-0.326 -0.687 -0.0312
-0.0310 0.0536  0.323
 0.325 -0.851 -0.0210
 0.215 0.0947 -0.247
-0.318 -0.769 -0.0829
0.0915  0.537 -0.0834
0.0396 -0.512 -0.325
 0.120 -0.532 -0.304
 0.307 -0.906  0.106
-0.124  0.833 -0.0499
 0.316 -0.512 0.0809
 0.326 -0.296 0.00907
 0.325 0.0536 -0.0210
 0.226  0.905 -0.162
 0.231 -0.0800 -0.233
 0.208  0.879 -0.0846
-0.260 -0.440  0.198
0.0599  0.106 -0.321
-0.152  0.915 -0.256
-0.290  0.233 0.0123
 0.224  0.636 -0.0261
0.0819  0.664 0.0916
 0.266  0.915  0.134
 0.149 -0.830 -0.292
 0.156 -0.696 -0.289
-0.202  0.580 -0.0107
0.0819  0.530 0.0915
 0.215  0.108  0.102
 0.184  0.107 -0.145
-0.196 -0.946 -0.207
-0.237 -0.946  0.205
 0.213  0.917  0.212
-0.0213 -0.946  0.164
-0.327 -0.368 0.0193
-0.326 -0.748 -0.0312
 0.123 -0.946 0.0814
 0.202  0.889 -0.256
-0.165  0.107 -0.0420
-0.0213  0.491 -0.0214
-0.0213 -0.946 -0.0523
 0.327 -0.409 -0.000974
-0.000794 -0.317  0.326
 0.326 -0.0492 0.00907
 0.267  0.107 -0.0214
-0.145  0.107 -0.196
 0.112  0.107 -0.114
-0.124 -0.946  0.123
-0.237  0.107 -0.155
-0.0667  0.396 -0.107
0.0193 -0.861  0.325
-0.325 -0.121 0.0395
0.0497 -0.337 -0.323
-0.0512 -0.810  0.321
-0.329 -0.327 -0.000948
-0.234  0.423 0.0192
 0.120  0.352 0.0290
-0.193 -0.882  0.261
-0.316 -0.193 -0.0919
0.0902 -0.563 -0.316
-0.0981  0.304 -0.0782
-0.0915 -0.615  0.314
 0.310 -0.625 0.0985
 0.121  0.650 0.0197
-0.323 -0.913 0.0496
-0.102  0.249 0.0709
0.0292  0.126 -0.122
0.0198  0.331  0.122
 0.226 -0.173 -0.238
0.0597 -0.214  0.320
 0.197 -0.906  0.257
-0.0210 -0.820 -0.327
-0.0354  0.899 -0.264
 0.106  0.905 -0.257
-0.000793 -0.193 -0.329
0.0589  0.732 -0.0598
-0.0397  0.270  0.117
-0.0889  0.571 -0.0891
-0.103  0.829 -0.184
-0.237  0.232 -0.0214
 0.198 -0.831 -0.260
-0.210 -0.810  0.249
-0.0412 -0.409  0.323
0.0175  0.537 -0.0833
-0.201  0.353 0.0197
 0.215 0.0468  0.244
 0.244 -0.539  0.214
0.0619  0.836  0.125
 0.168 -0.450 -0.282
 0.195 -0.946 -0.217
0.0643  0.568 -0.0540
0.0651  0.156 -0.107
 0.113 -0.128  0.304
 0.312  0.885 -0.0622
-0.321 -0.707 0.0671
-0.129  0.114 -0.0165
-0.158 -0.758  0.287
 0.318 -0.556 0.0670
0.0194 -0.625 -0.327
 0.323 -0.810 -0.0311
-0.246 -0.306  0.215
 0.318 -0.234 -0.0688
 0.106 -0.402  0.307
 0.130  0.796 0.0596
-0.000779  0.475 -0.125
0.00920 -0.0184  0.326
-0.264 -0.906 -0.194
 0.322 -0.553 -0.0412
0.00578  0.554  0.123
-0.0918 -0.214 -0.316
-0.199 -0.656  0.257
0.0821  0.701 -0.0935
-0.0975  0.846  0.220
-0.189  0.824 -0.0669
0.0900 -0.831  0.314
-0.0631  0.903  0.267
-0.0781  0.664 -0.0982
 0.168  0.814 -0.0613
 0.310 -0.430 0.0985
-0.289 -0.624  0.156
-0.337  0.894 0.0309
 0.246  0.107  0.143
 0.156  0.870 -0.136
-0.0538  0.208  0.111
-0.151 -0.213  0.289
-0.237  0.108  0.164
 0.205  0.328 0.00600
-0.151 -0.902  0.289
-0.217  0.107  0.123
 0.266 -0.769 -0.187
-0.310 -0.882  0.106
 0.236 -0.946 -0.165
 0.299 -0.419 -0.129
 0.163 -0.192 -0.286
0.00951  0.107  0.194
-0.255 -0.217 -0.205
-0.206  0.107 -0.114
0.0198  0.753  0.121
-0.203  0.526 0.0193
-0.186 -0.946 -0.114
0.0301 -0.946 0.0197
0.0743 -0.0252  0.318
-0.158 -0.0329 -0.289
-0.205 -0.738  0.253
-0.206  0.107  0.215
-0.0666  0.475  0.105
-0.322 -0.327 -0.0615
-0.155  0.107 0.0608
-0.321 -0.234 0.0671
-0.0830 -0.946  0.236
-0.122  0.403 0.0290
-0.124 -0.946  0.205
-0.0688 -0.293 -0.321
-0.181 -0.584  0.271
-0.107  0.684 -0.0668
-0.0830  0.107  0.205
 0.321 -0.430 -0.0513
 0.314 -0.0698 -0.0918
-0.0825  0.806  0.140
 0.253 -0.378 -0.205
 0.253 -0.419 -0.205
-0.0939  0.774 0.0825
-0.0397  0.691  0.117
 0.209 -0.368 -0.251
-0.000495  0.881 -0.230
0.0987 -0.892  0.310
 0.314 -0.388 0.0898
-0.316 -0.388 -0.0919
 0.102  0.829  0.183
 0.298  0.897  0.167
0.0174  0.688 0.0812
0.0927  0.919  0.289
 0.123  0.174 0.00564
-0.113  0.929  0.301
0.0382  0.434  0.117
-0.307 0.0708 -0.115
 0.319 -0.923 0.0596
 0.204  0.509 -0.0331
-0.327 0.0125 -0.0211
0.0992  0.837 0.0988
-0.298 -0.0526 -0.136
 0.114  0.167 -0.0469
-0.326 -0.933 -0.0312
-0.000794 -0.450  0.326
 0.307 -0.742  0.106
 0.310 -0.0389 0.0985
-0.0399  0.331 -0.119
-0.170 -0.519 -0.282
-0.0399  0.640 -0.119
0.0671 -0.608  0.318
-0.123  0.823  0.152
0.0304  0.892  0.248
 0.257 -0.913 -0.199
 0.141 -0.101  0.293
0.0598 -0.946  0.315
 0.186 -0.628  0.266
 0.106  0.822 -0.0327
-0.251 0.0365 -0.211
 0.105  0.225 0.0649
 0.209 -0.423  0.249
-0.228 -0.556 -0.238
 0.325 -0.923 -0.0210
-0.158 -0.799  0.287
 0.113 -0.769 -0.307
-0.106  0.820 0.0203
-0.189  0.887  0.262
-0.183  0.821 0.0598
0.0914  0.386 0.0816
 0.100  0.799 -0.112
 0.310 -0.142 0.0985
-0.0710  0.807 -0.0494
 0.293 -0.945  0.131
 0.311 -0.00806 -0.101
-0.178  0.435 -0.000881
0.0811 -0.183 -0.319
 0.195  0.232 -0.0111
-0.0832  0.540 -0.0193
 0.195  0.259 0.0380
-0.296  0.873 0.0193
 0.155  0.881  0.166
-0.292 -0.172  0.149
0.0754  0.915 -0.288
 0.304 -0.779 -0.115
-0.176  0.609 0.0386
-0.0112  0.860  0.187
 0.290  0.911 -0.000823
 0.196  0.898  0.175
0.0609  0.107  0.143
-0.316 -0.0698 0.0901
-0.0397  0.640  0.117
-0.167  0.871 -0.126
-0.107  0.879 -0.201
 0.142 -0.0492 -0.295
0.0383  0.763 -0.119
 0.212  0.859 -0.164
-0.251  0.900 -0.0948
-0.116  0.873  0.178
 0.231 -0.659  0.231
-0.326 -0.0183 0.0294
-0.321 -0.152 0.0671
 0.266 -0.310  0.185
-0.154  0.891 -0.297
-0.0900  0.835  0.101
-0.199  0.857  0.174
-0.0815  0.595 -0.0269
 0.129  0.835 -0.179
 0.171  0.660 -0.0146
0.0710  0.857 -0.168
0.0531  0.708 0.0634
-0.133  0.106 -0.296
-0.209  0.870 0.00982
 0.257  0.913 -0.213
-0.295 0.0433  0.142
-0.143 -0.0800  0.292
0.0401  0.773 -0.0750
 0.273  0.928  0.170
 0.315 -0.946 -0.0622
-0.0482  0.527 0.0685
0.0773  0.894  0.243
0.0727  0.616 0.0397
-0.101 0.0434 -0.313
-0.115 -0.121  0.304
 0.143 -0.946  0.246
-0.0832  0.557 0.0174
-0.320 0.0708 -0.0761
0.0620  0.857  0.169
 0.216  0.342 -0.0407
 0.164  0.473 -0.0249
 0.244 -0.190  0.215
 0.336  0.905 -0.0299
-0.277  0.905 -0.0184
 0.284 -0.810 -0.164
 0.148 -0.824  0.289
-0.325 -0.0698 -0.0413
-0.310 -0.282 -0.108
 0.307 -0.855  0.106
0.0902 -0.00806 -0.316
 0.161  0.898  0.301
0.0405  0.872 -0.208
-0.0578  0.886 -0.235
-0.0807  0.498 -0.00749
 0.316  0.107 0.0389
 0.236  0.107 -0.186
-0.199  0.917  0.227
-0.260 -0.149 -0.199
-0.316 -0.491 -0.0919
0.0467  0.787 0.0685
 0.310 -0.861 -0.100
 0.120 -0.224  0.301
 0.174 -0.903 -0.278
-0.313 -0.337 0.0989
 0.290 -0.491 -0.150
 0.310 -0.584 0.0985
 0.320 -0.101 0.0589
 0.141 -0.419  0.293
 0.298 0.0399  0.127
-0.122 -0.0389 -0.304
 0.142 -0.563 -0.295
 0.148 -0.341  0.289
-0.250  0.887  0.205
 0.276 -0.652  0.174
 0.271 -0.615  0.180
 0.197 -0.721  0.257
 0.180 -0.553  0.271
 0.319 -0.779 0.0596
 0.187  0.860 -0.0114
 0.253 -0.807  0.203
-0.168  0.867  0.113
 0.155 -0.909  0.287
-0.295 -0.440 -0.143
-0.307 -0.536 -0.115
-0.323 -0.131 -0.0515
0.0671 -0.299  0.319
0.0821  0.458 0.0918
-0.0487  0.729 -0.0711
 0.311 0.0947 -0.100
 0.115  0.833 0.0622
-0.260 -0.673 -0.199
-0.199 -0.128 -0.260
 0.283 -0.696 -0.164
0.0496  0.796  0.134
 0.142 -0.419 -0.295
-0.0217  0.919  0.303
 0.192 -0.162 -0.264
-0.170 -0.570 -0.282
-0.143 -0.532  0.292
 0.134 -0.179  0.295
 0.262 -0.262  0.192
0.0401  0.880 -0.307
-0.145  0.317 -0.0374
 0.257 -0.0389 -0.199
0.0708  0.878  0.298
-0.318 -0.882 -0.0829
 0.149 0.0236 -0.292
0.0351  0.836  0.218
-0.186  0.818 -0.0245
 0.293 -0.101  0.141
-0.220  0.855  0.139
-0.176 -0.351 -0.278
-0.107  0.468 -0.0668
-0.0973  0.793 -0.0974
-0.304 -0.0903  0.120
-0.301  0.106  0.125
 0.280 -0.742  0.168
 0.195  0.824 -0.0367
 0.258 -0.275 -0.199
-0.145  0.713 -0.0374
-0.107  0.712 0.0650
 0.234  0.898  0.119
0.0165  0.929 -0.324
 0.271 0.0536 -0.182
 0.314 -0.707 0.0900
-0.206  0.681 -0.0408
-0.211 -0.663 -0.251
-0.108 -0.642 -0.310
 0.161  0.614 -0.000869
 0.198 -0.101 -0.260
 0.244 -0.646 -0.216
 0.202  0.876 0.0828
-0.0991  0.865 -0.262
-0.260 -0.337  0.198
0.0159  0.807 -0.166
-0.231  0.643 0.00889
 0.248  0.855 0.0750
-0.0469  0.499 -0.116
0.0586  0.331 -0.110
 0.143  0.107 -0.0112
0.0710  0.578 -0.102
0.0743 -0.437  0.318
-0.291  0.877 0.0930
 0.156 -0.614 -0.289
0.0743 -0.0663  0.318
-0.214  0.495 -0.00100
-0.129 -0.868 -0.301
-0.179  0.889 -0.169
0.0583  0.640  0.108
-0.110  0.198 -0.0603
 0.298 -0.515  0.127
-0.0422  0.833  0.126
 0.114  0.465 -0.0469
 0.180 -0.388  0.271
-0.286 -0.532  0.163
-0.233 0.0434  0.231
-0.242 -0.666  0.220
 0.231 -0.707 -0.233
 0.276 -0.868  0.174
 0.251  0.693 -0.0106
-0.0110  0.493 -0.0731
 0.319 -0.358 0.0596
 0.164  0.714 0.00937
-0.273 -0.913  0.180
 0.123  0.107 -0.278
0.0821  0.619 -0.0935
-0.0214  0.475  0.121
-0.318 -0.676 -0.0829
-0.000774  0.107 -0.186
-0.304 -0.646  0.120
-0.000759 -0.946 -0.104
-0.188 -0.231 -0.269
 0.153  0.107 -0.0523
-0.187 0.0433  0.266
 0.251  0.361 -0.0108
 0.256 -0.946  0.112
 0.146  0.927 -0.285
-0.206  0.107 -0.0214
-0.186 -0.946 -0.0112
0.0712 -0.946  0.194
-0.104 -0.946 -0.0317
0.0918 -0.946  0.246
-0.0933 -0.946 0.0300
-0.260  0.912  0.134
 0.112 -0.946 -0.0934
-0.176  0.107  0.133
-0.165 -0.946 -0.155
-0.165 -0.946  0.215
-0.114 -0.946 -0.165
-0.227  0.107 0.0403
0.00952 -0.946 -0.217
-0.227 -0.946  0.112
0.0301  0.107  0.297
 0.184  0.107 0.00942
-0.104 -0.946  0.174
-0.278  0.107 -0.0934
0.0174  0.523 0.0812
-0.329 -0.861 0.00916
 0.102  0.107  0.277
-0.186  0.107 -0.0831
-0.0109 -0.656 -0.329
-0.237 -0.946 -0.145
0.0497 -0.697 -0.323
-0.0613 -0.265  0.319
-0.0625  0.107 -0.155
 0.324 -0.358 -0.0311
 0.323 -0.851 0.0293
0.0597 -0.532  0.319
0.0297  0.858  0.263
 0.287  0.928 -0.145
-0.228 -0.913  0.236
 0.308  0.107 -0.0214
-0.000793 -0.461 -0.329
-0.0612 -0.872  0.319
0.0194 -0.892 -0.327
-0.329 -0.471 -0.0111
 0.198 -0.00807 -0.260
0.0916  0.321 -0.0835
 0.290 -0.162 -0.150
0.0914  0.129 0.0815
-0.000819 -0.101  0.327
-0.307 -0.409  0.113
0.0193 -0.481  0.325
 0.321 -0.707 0.0495
0.0497 0.0639 -0.323
-0.0210 -0.224 -0.327
0.0396 -0.0903 -0.325
 0.321 -0.738 -0.0513
-0.323 0.0742 0.0496
-0.0399  0.280 -0.119
 0.322 -0.142 -0.0413
 0.207  0.895  0.267
-0.282 -0.0389  0.168
-0.0311  0.812  0.172
-0.300  0.900  0.166
-0.188 0.0159 -0.269
-0.132  0.835 0.0436
 0.257 -0.125  0.197
 0.162  0.823  0.111
-0.327 -0.430 -0.0211
-0.327 -0.625 -0.0211
 0.111  0.407 0.0520
 0.124  0.911  0.259
-0.266  0.321 -0.00103
-0.0996  0.904  0.324
-0.248  0.377 0.00896
0.0960  0.732 -0.0779
 0.317  0.928 0.0501
 0.164  0.320 -0.000882
0.0193 -0.779  0.325
-0.0108 -0.502  0.326
-0.242 -0.899 -0.222
 0.113 -0.683  0.305
 0.150  0.905  0.232
-0.170 -0.440  0.280
 0.114  0.523 0.0450
-0.278 -0.248 -0.176
-0.0209 -0.933  0.325
-0.147  0.557 0.0382
 0.244  0.881  0.193
-0.125  0.797 -0.0746
-0.233 -0.478 -0.233
-0.0812  0.794 0.0251
-0.282 0.0228  0.168
-0.289 -0.0946 -0.158
-0.242 0.0776 -0.222
0.0810 -0.358  0.316
 0.231 -0.505  0.231
-0.211 -0.0766 -0.251
-0.228 0.00222  0.236
 0.180 -0.769 -0.273
-0.273 -0.666  0.180
-0.273 -0.214  0.180
-0.0397  0.537  0.117
-0.196  0.414 -0.0408
-0.0706  0.785  0.108
-0.275  0.106 -0.173
-0.166  0.869 -0.237
-0.246 -0.803 -0.217
-0.314  0.106 0.0908
 0.190  0.836 -0.117
 0.165  0.892 -0.188
-0.318 -0.594 0.0810
-0.0418  0.804 -0.0749
 0.126  0.852 -0.116
-0.0821  0.858  0.253
-0.199  0.893  0.157
 0.124  0.222 0.0127
 0.323 -0.317 0.0395
0.0852  0.813  0.155
0.0727  0.533 0.0397
-0.115 -0.419  0.305
-0.325 -0.831 -0.0413
-0.00761  0.775  0.125
-0.0135  0.119  0.125
-0.177  0.925 -0.279
 0.287  0.105  0.155
-0.286 -0.173 -0.164
 0.115  0.557 -0.0471
-0.211 -0.334 -0.251
-0.123  0.743 0.0197
 0.271  0.298 -0.00104
-0.298 -0.197 -0.136
 0.101  0.393 -0.0726
-0.168  0.608 -0.0406
0.0199  0.599 -0.123
 0.321 -0.615 -0.0513
-0.0142  0.403  0.122
-0.251 -0.584  0.209
 0.161  0.809 0.0496
 0.284  0.889 -0.164
 0.106 0.0228 -0.310
 0.117  0.486 0.0380
-0.316 -0.810 0.0901
-0.0297  0.873 -0.295
-0.0915 -0.502  0.314
 0.231 -0.923 -0.233
-0.0832  0.557 0.0912
 0.117  0.599 0.0380
-0.258  0.259 -0.0408
0.0454  0.475 -0.116
0.0960  0.156 -0.0779
 0.214  0.488 -0.00746
 0.249 -0.543 -0.211
-0.139  0.834 -0.169
 0.235  0.417 -0.0130
 0.215 -0.303  0.244
-0.205 -0.443 -0.255
 0.127 -0.485  0.299
0.0710  0.455 -0.102
-0.000759  0.107 -0.309
0.00994  0.908  0.283
-0.198  0.373 -0.0383
 0.174  0.557 0.0385
-0.205 -0.615  0.253
-0.321 -0.251 -0.0689
-0.000557  0.802 -0.0853
-0.217 -0.618 -0.247
-0.0108  0.763 -0.0849
-0.122 -0.111 -0.304
-0.113  0.109 0.0808
-0.264 -0.0526 -0.194
-0.307 -0.125 -0.115
 0.197  0.383 0.0379
-0.170 -0.385 -0.282
 0.113 -0.0355  0.304
 0.134 -0.0663  0.295
-0.136 -0.176 -0.298
-0.312  0.102 -0.101
 0.164 -0.946 -0.258
0.0597 -0.574  0.319
 0.155 -0.622  0.287
-0.242 -0.214  0.220
-0.0666  0.660  0.105
0.0194  0.852 -0.255
 0.236 -0.622  0.226
-0.0338  0.578 0.0764
-0.0832  0.671 0.0174
 0.236 -0.0560  0.226
-0.217 0.0502 -0.247
-0.0781  0.242 -0.0982
0.0869  0.348 0.0869
 0.240 -0.156  0.220
0.0201  0.847  0.159
0.0524  0.376  0.112
0.0685  0.898 -0.254
0.0622  0.815 -0.0755
 0.114  0.881 -0.199
-0.0758 -0.543  0.318
 0.143  0.311 -0.0405
-0.0758 -0.317  0.318
-0.318 -0.946 0.0400
-0.217 -0.402 -0.247
-0.238 -0.872  0.226
-0.150  0.586 0.00937
 0.226 0.0536 -0.238
-0.325 -0.748 0.0395
-0.102  0.544 -0.0727
 0.174 -0.810 -0.278
 0.174 0.0433 -0.278
0.0855  0.786 0.0954
-0.325 -0.255 0.0395
 0.321 -0.224 0.0495
-0.0314  0.878  0.304
-0.175  0.107 -0.267
-0.158 -0.604  0.287
-0.157  0.897  0.207
-0.298 -0.759  0.134
-0.175 -0.388  0.275
-0.310 -0.265  0.106
 0.127 -0.173 -0.301
-0.148  0.538 -0.0214
-0.113  0.719 -0.0541
 0.328  0.896 0.0945
 0.262 -0.502 -0.193
-0.129 -0.687  0.298
-0.269 -0.502  0.186
 0.106 -0.358 -0.310
-0.0687 -0.717  0.319
-0.0946  0.854  0.146
 0.326  0.894 -0.0922
 0.314 -0.903 -0.0917
 0.275 -0.193 -0.175
-0.255 -0.433 -0.205
 0.180 -0.481  0.271
0.0902 -0.317 -0.316
-0.102  0.208 0.0709
-0.108 -0.385 -0.310
-0.313  0.928 -0.0866
0.0744 -0.851 -0.320
-0.153  0.840  0.172
 0.123  0.372 -0.00758
 0.335  0.906 0.0311
 0.198 -0.594 -0.260
-0.199 -0.282 -0.260
-0.209  0.872 -0.0320
 0.121  0.136 0.0197
-0.243  0.864 -0.141
 0.267 -0.111 -0.187
 0.301 -0.646 -0.122
 0.314 -0.152 -0.0917
0.0811 -0.779 -0.319
 0.253 -0.478  0.203
0.0454  0.300 -0.116
-0.105  0.905  0.255
-0.251 -0.522  0.209
 0.253 0.0159  0.203
-0.251 -0.622 -0.211
 0.203 -0.786  0.253
 0.192 -0.221  0.261
-0.278  0.107  0.153
-0.292 -0.664 -0.151
-0.0838  0.492 -0.0938
0.0822  0.249 -0.0937
-0.0981  0.438 -0.0782
-0.0182  0.834 -0.134
-0.251 -0.560 -0.211
0.0872  0.424 -0.0889
 0.240 -0.111 -0.222
 0.318 -0.790 -0.0687
-0.228 -0.844 -0.238
-0.244  0.926  0.203
0.0819  0.273 0.0915
-0.0981  0.650 0.0764
-0.233 -0.0595  0.231
-0.242 0.0742  0.220
 0.122  0.438 0.0124
 0.274  0.271 0.0319
 0.226 -0.224 -0.238
 0.246  0.365 0.0333
-0.0755  0.859 -0.170
 0.245  0.895 -0.239
 0.154  0.672 -0.0405
 0.113 -0.364  0.304
-0.0918 -0.0800 -0.316
 0.148 -0.238  0.290
-0.310 -0.580 -0.108
-0.101 -0.327 -0.313
 0.111  0.705 0.0521
 0.222  0.847 -0.103
-0.0414  0.763 0.0726
 0.284  0.878 -0.113
0.0454  0.722 -0.116
 0.160  0.926  0.273
-0.178  0.815 0.0273
0.0811 0.0536 -0.319
-0.160  0.927  0.286
0.0307  0.831 -0.126
 0.248  0.908 -0.136
-0.170  0.824  0.104
-0.118  0.779 -0.0477
-0.113  0.109 -0.0927
-0.194  0.106  0.261
0.0292  0.218 -0.122
 0.177  0.869  0.104
 0.108  0.362 0.0582
 0.154  0.232 -0.0214
-0.175 -0.0183  0.276
-0.203  0.875 0.0794
-0.156  0.828 -0.137
-0.0688 -0.00462 -0.321
 0.210  0.601 -0.000764
-0.145  0.107  0.256
 0.287 -0.00207  0.156
-0.113  0.311 0.0524
-0.247  0.894 0.0651
 0.145  0.887 -0.291
 0.307 -0.669  0.105
-0.125  0.841 -0.0833
-0.289 -0.753 -0.158
-0.0688 -0.909 -0.321
-0.0614 -0.790 -0.322
-0.0614 -0.142 -0.322
0.0598 -0.923 -0.322
0.0905  0.831 -0.193
-0.248  0.107 -0.0523
 0.203 -0.868  0.253
-0.182 -0.738 -0.273
 0.144  0.668 0.0352
-0.0915 -0.790  0.314
 0.275 -0.0869  0.174
0.0467  0.530 0.0685
0.0712  0.107  0.225
0.0201  0.926  0.317
-0.188  0.910 -0.220
 0.253 -0.735  0.203
0.0815  0.107 -0.155
 0.195  0.475 0.0385
0.0918  0.107  0.194
-0.165  0.107  0.174
 0.225  0.107  0.205
-0.145  0.107  0.143
 0.143  0.108 -0.176
-0.196  0.107 0.0917
-0.237  0.352 0.0380
 0.246  0.107 -0.104
 0.225  0.671 -0.0408
 0.143 -0.946  0.194
-0.196 -0.946  0.102
-0.289 -0.946 -0.0831
-0.258 -0.946  0.174
0.0401  0.858 -0.178
 0.126  0.842 -0.0848
 0.104  0.876 -0.283
0.0198 -0.946  0.194
-0.165 -0.946 0.0608
 0.225 -0.946 0.0814
-0.0213  0.108  0.256
-0.0727 -0.946 -0.217
-0.0110 -0.946 -0.299
0.0918 -0.946 -0.268
0.0918 -0.946 -0.186
 0.277 -0.946 -0.0934
-0.248 -0.946 -0.0214
 0.256 -0.946 -0.0112
0.0771  0.774 -0.0988
 0.287  0.107 -0.0523
-0.0727 -0.946 0.0814
0.0712 -0.946 0.0197
 0.195  0.713 -0.0374
0.0397  0.505 -0.0739
-0.000746  0.491 0.0506
-0.0625 -0.946 0.0505
-0.0522  0.107  0.236
-0.289 -0.946  0.123
-0.114 -0.946 -0.278
 0.112 -0.946 0.0403
 0.236  0.107 0.0300
0.0193 -0.563  0.325
0.0295 -0.388 -0.326
0.0294 -0.173  0.323
 0.326 -0.892 0.00913
 0.184 -0.946 -0.0420
-0.0522 -0.946 -0.176
 0.184 -0.946 0.0917
-0.000759 -0.946 -0.186
-0.0310 -0.728  0.323
 0.321 -0.388 0.0495
0.0497 -0.543 -0.323
-0.0625  0.107 -0.196
-0.0512 -0.162  0.321
 0.323 -0.522 -0.0311
-0.0209 -0.790  0.325
-0.0830  0.107 -0.258
 0.146  0.866  0.135
 0.215  0.414 0.0388
-0.0513 -0.861 -0.323
-0.127  0.775 -0.000704
-0.000793 -0.707 -0.329
-0.000793 0.0536 -0.329
-0.217  0.311 -0.0406
0.0193 -0.625  0.325
-0.329 -0.255 -0.000948
-0.329 -0.142 -0.000948
-0.124 -0.946 0.0197
 0.325 -0.193 -0.0210
 0.174 -0.946  0.236
 0.186  0.401 -0.00429
 0.287  0.107 0.00942
-0.329 0.0639 0.00916
 0.327 -0.481 -0.000974
-0.0702  0.813 0.0604
-0.186 -0.946 -0.237
 0.297 -0.946 0.0300
-0.178  0.858 0.0400
 0.133  0.107  0.246
 0.106 -0.526  0.307
-0.110  0.372 -0.0603
 0.322 -0.296 -0.0413
-0.115 0.0331  0.304
 0.284 -0.191  0.162
-0.122 -0.718 -0.304
0.0253  0.691 -0.0816
 0.304 -0.594 -0.115
 0.327 -0.327 -0.000974
-0.114  0.107 -0.135
-0.213  0.476 -0.0378
-0.322  0.107 0.0499
 0.289  0.923  0.112
 0.182  0.823 0.0703
 0.285  0.870 -0.0520
 0.316  0.927 -0.0414
 0.228  0.881 0.0201
-0.0209 -0.358  0.325
-0.325 -0.399 0.0395
-0.00744  0.684 -0.125
-0.0412 -0.646 -0.325
-0.217  0.714 0.0292
-0.0108 -0.183  0.326
-0.192  0.385 0.0197
 0.310 -0.358 0.0985
 0.226 -0.0869  0.236
-0.257  0.344 -0.0217
-0.298 -0.892  0.134
-0.0307  0.239  0.120
-0.0412 -0.388 -0.325
