ply
format ascii 1.0
element vertex 2048
property float x
property float y
property float z
end_header
 0.478  0.491 0.0288
-0.686 -0.678 -0.00717
 0.693 -0.680 -0.0112
-0.690  0.704 -0.0700
-0.00795 -0.198  0.181
-0.669 0.0143 -0.0190
-0.138  0.399 -0.0760
 0.703 -0.0727 0.00343
-0.209 -0.607 -0.00898
 0.310 -0.417 -0.0795
 0.227  0.109 -0.0760
-0.329 -0.211 -0.0699
-0.491  0.340 0.0620
-0.686 -0.334 -0.0785
 0.227  0.710 -0.0749
-0.225  0.709 0.00318
-0.207  0.106 0.0586
 0.706  0.704 -0.0754
 0.706  0.260 -0.00899
 0.169  0.399 0.0586
 0.407 -0.113 0.0620
 0.706 -0.377 -0.00175
-0.544 -0.210  0.146
 0.108 -0.216 -0.0805
 0.235 -0.680 0.00132
 0.453  0.192 0.0628
-0.460 -0.557 -0.0760
 0.480 -0.558 0.0616
-0.421 0.0479 -0.0699
 0.222 -0.285  0.137
-0.0156  0.557 0.0625
-0.322 -0.410 0.0624
0.0310  0.114 0.0628
-0.667  0.473 -0.0226
-0.107 -0.285 -0.0163
 0.517 -0.265 -0.0795
-0.304  0.489 0.0585
-0.253 -0.210  0.146
 0.678  0.478 -0.0795
 0.348  0.340 -0.0795
-0.689  0.237 -0.0154
 0.537 0.0466 -0.0795
-0.544 -0.413 0.0628
0.0770  0.254 -0.0805
-0.337  0.337 -0.0760
-0.529 -0.199 -0.0795
-0.473  0.479 -0.0795
 0.115  0.553 -0.0805
 0.225 -0.0854 -0.00190
-0.0917  0.261 0.0527
-0.216 -0.0778 0.00549
 0.545  0.337 -0.0699
-0.368  0.199 0.0451
-0.0815  0.110 -0.0795
-0.687 -0.170 0.00339
 0.226  0.570 0.0615
-0.690 -0.500 -0.00899
-0.513  0.199 -0.0546
 0.583 -0.562 -0.0805
-0.421 -0.116 0.0451
 0.376 0.0479 -0.000962
 0.345 -0.255 -0.0240
-0.228 -0.398 -0.0787
 0.246  0.207 0.0615
-0.237  0.199 -0.0798
 0.537 -0.405 0.0220
0.0310  0.412 -0.0470
-0.176  0.562 -0.0760
 0.698 0.0910 -0.0204
 0.611 -0.257 0.0620
-0.368 -0.569 0.0586
-0.531 0.0466 0.0616
-0.582  0.344 -0.0805
 0.283  0.490 -0.0681
0.0694 -0.285 0.0681
 0.570 -0.113 -0.0795
 0.399 -0.569 -0.0760
 0.383 -0.410 0.0624
-0.414 -0.406 -0.0760
-0.230  0.351 0.0451
 0.414  0.344 0.0625
 0.314 -0.557 0.0583
-0.559 -0.569 0.0586
 0.368  0.186 -0.0760
 0.683 -0.245 -0.0792
 0.353 -0.109 -0.0805
-0.528  0.490 0.0613
 0.642 -0.558 0.0620
-0.347 0.0466 0.0616
 0.627  0.489 0.0617
 0.575  0.185 -0.0239
-0.0719  0.409 0.0617
 0.247 -0.552 -0.0798
-0.130 -0.284  0.181
-0.244 0.0390 -0.0805
 0.581 0.0466 0.0616
 0.606  0.344 0.0628
 0.107  0.257 0.0624
 0.244 0.0556 0.0612
-0.639  0.348 0.0616
-0.567 -0.103 0.0527
0.0719  0.110 -0.0795
 0.222  0.253 -0.0804
 0.552 -0.109 0.0628
 0.468 -0.261 0.0628
-0.0278  0.550 -0.0795
-0.329  0.483 -0.0804
 0.342  0.486 0.0629
 0.225 -0.331 -0.00898
-0.161  0.557 0.0625
 0.169  0.405 -0.0805
-0.567 -0.406 -0.0760
-0.322 -0.558 -0.0795
-0.391 -0.211  0.143
-0.679 -0.227  0.133
 0.445 -0.410 -0.0805
-0.115  0.257 -0.0805
 0.123 -0.198  0.160
-0.199 -0.216 -0.0805
-0.360  0.337 0.0586
-0.00732 -0.198 -0.0240
-0.570  0.195 0.0616
 0.691  0.605 0.00559
-0.588 -0.566 -0.0795
-0.145 -0.198 0.0681
-0.406 -0.109 -0.0805
 0.284  0.337 0.0297
-0.552 0.0348 -0.0623
-0.375  0.196 -0.0795
-0.621 -0.105 -0.0795
-0.228 -0.300 0.00538
-0.687  0.605 0.00333
 0.192 -0.198 0.0374
-0.460  0.337 -0.0699
-0.669 -0.401 0.0617
 0.146  0.120 0.0220
 0.703  0.388 0.00343
 0.108  0.549 0.0451
 0.545  0.488 -0.0717
-0.211 -0.487 0.00328
 0.225 -0.453 -0.00190
 0.402  0.479 -0.0795
 0.226 -0.199 -0.0776
-0.0457 -0.285 0.0911
-0.306 -0.199 0.0451
-0.211  0.467 -0.0189
 0.652  0.187 0.0620
 0.632 -0.417 -0.0795
-0.414  0.478 0.0297
-0.506 -0.198 0.0374
 0.468 0.0393 0.0628
-0.283 -0.105 -0.0795
 0.706 -0.492 -0.00175
-0.687  0.122 0.00339
-0.0795  0.117 0.0616
-0.437 -0.418 0.0374
 0.468 -0.103 -0.0393
0.0387  0.405 0.0628
-0.211  0.247 0.0168
-0.229  0.340 -0.0648
 0.345  0.185 0.0297
-0.00733  0.261 -0.0163
-0.513 -0.103 -0.0393
 0.698 -0.177 0.00570
 0.468  0.199 -0.0470
0.0310 -0.285 -0.0700
-0.232  0.605 0.00314
0.0617 -0.277  0.186
 0.662  0.187 -0.0795
-0.429 -0.198 -0.0316
 0.304 -0.106 0.0617
 0.284 -0.255 0.0583
-0.626  0.187 -0.0795
-0.675 -0.277 0.00571
-0.570  0.490 -0.0510
-0.669 -0.570 0.0620
 0.215  0.564 -0.0393
 0.637 -0.413 0.0628
 0.670  0.339 -0.0791
-0.0994 -0.202 -0.0805
 0.453  0.350 -0.0316
-0.184  0.108 -0.0393
 0.437 0.0431 -0.0805
-0.649 -0.210 -0.0795
-0.322 -0.405 -0.0393
 0.681 0.0334 0.0585
-0.475  0.185 0.0374
 0.138 -0.285 -0.0163
 0.245  0.480 0.0221
-0.672  0.351 -0.0311
-0.467 -0.556 0.0220
-0.184 -0.285 0.0988
 0.220 -0.199  0.185
 0.686 -0.567 -0.0623
 0.637 0.0431 -0.0805
 0.284 0.0348 -0.0316
-0.613 -0.211 0.0527
 0.283 -0.410 0.0624
-0.229 -0.397 0.0348
-0.314 -0.103 0.0527
-0.260 0.0348 0.0144
 0.249  0.651 -0.00197
-0.0994  0.562 -0.0163
0.0770 -0.198 0.0221
 0.683 -0.117 -0.0794
 0.246  0.345 -0.0700
 0.491 -0.556 -0.0546
-0.222 -0.177 0.00576
 0.422 -0.257 -0.0795
 0.599 -0.254 -0.0316
-0.268 -0.557 0.0450
-0.276  0.187 0.0620
-0.629 0.0359 0.0619
-0.161 -0.198  0.168
-0.621  0.490 0.0619
 0.537 -0.418 -0.0760
 0.622 -0.116 -0.000932
-0.0150 -0.198 0.0681
 0.276  0.185 -0.0316
-0.669 -0.101 0.0616
-0.439 0.0466 0.0616
-0.666 -0.420 -0.0546
-0.231 -0.549 -0.0793
 0.691 -0.277 0.00570
 0.399 -0.569 0.0221
-0.153  0.399 0.0221
 0.522  0.337 0.0297
 0.238 -0.570 0.00864
 0.177  0.248 0.00673
-0.0227  0.121 -0.00861
-0.0610  0.412 -0.0316
 0.542  0.196 0.0620
-0.660  0.190 0.0626
-0.0380 -0.282  0.184
 0.568 -0.569 0.00673
-0.334 0.0359 -0.0795
 0.375 -0.255 0.0583
-0.0226 -0.285 0.00673
 0.706  0.505 -0.00175
 0.258 -0.117 -0.0758
-0.498 -0.405 -0.0239
 0.161 -0.285 0.0757
-0.0763 -0.198  0.129
 0.108  0.411 -0.00860
-0.218  0.672 -0.0737
 0.233  0.124 0.00886
-0.675 -0.592 -0.0204
 0.322 -0.557 -0.0393
 0.200 -0.284 -0.0760
 0.146 -0.282  0.185
-0.687 -0.0829 -0.0190
-0.306  0.199 -0.0316
-0.406 -0.211 0.0604
 0.445 -0.405 0.00673
-0.552  0.350 0.00672
0.0387  0.549 -0.000952
 0.232  0.413 -0.0255
-0.0508 -0.282 -0.0795
 0.703 0.00660 -0.0190
-0.598 -0.418 -0.000952
 0.353 0.0466 -0.0795
 0.368 -0.406 -0.0239
 0.284 -0.267 -0.0760
-0.590 -0.198 -0.0239
 0.686 -0.338 -0.0690
-0.232 -0.318 -0.0754
-0.0840 -0.198 -0.000922
 0.522 0.0469 -0.000942
 0.609  0.491 -0.0162
-0.628 0.0466 -0.0795
-0.391 -0.557 -0.0163
 0.673 -0.117 0.0621
-0.421  0.337 -0.000932
-0.467 -0.198  0.129
 0.330 0.0359 0.0619
-0.228  0.160 0.00538
-0.690 -0.354 -0.00179
0.0617 -0.198 0.0987
 0.361 -0.116 -0.000932
-0.0105  0.260 0.0615
 0.702  0.708 0.00218
-0.337 -0.103 -0.0240
 0.637  0.350 -0.00859
-0.231 -0.680 -0.00123
 0.537 -0.254 0.0297
-0.205 -0.269  0.186
-0.582  0.185 -0.0163
-0.230 -0.215 0.0732
 0.225 -0.00873 -0.00897
-0.287  0.491 -0.0174
-0.605 -0.556 -0.000972
-0.682  0.697 0.00543
-0.229  0.499 0.0502
-0.204  0.266 -0.0674
-0.161 -0.285 -0.0700
-0.475 0.0479 -0.0163
 0.154  0.108 -0.0546
 0.552  0.478 0.0527
-0.299  0.337 0.0144
 0.606 0.0348 -0.00862
-0.483  0.478 -0.000932
 0.691 -0.599 0.00571
-0.107  0.120 -0.00866
-0.391 0.0469 -0.000942
 0.606 -0.418 -0.00862
 0.407  0.478 0.00673
-0.210  0.418 -0.0759
 0.244  0.290 -0.0201
-0.444  0.185 -0.0316
 0.368  0.337 -0.00860
 0.249 -0.231 -0.00197
 0.698  0.175 0.00570
-0.590 0.0479 -0.000962
-0.211 -0.00875 -0.0189
 0.437 -0.267 -0.00863
-0.391  0.478 -0.0393
-0.115 -0.285 0.0681
0.0694  0.261 -0.00860
-0.605 -0.103 -0.00866
 0.138 -0.198 -0.0163
 0.131 -0.199 0.0757
-0.491 -0.110 0.0625
 0.244 -0.154 0.00540
-0.0431  0.250 -0.0795
-0.138  0.248 -0.000932
0.0770  0.120 -0.00860
-0.322 -0.211  0.114
 0.484 -0.103 0.0451
 0.678  0.354 0.0614
0.000347  0.120 -0.0760
-0.232  0.496 -0.0802
 0.243 -0.351 -0.0745
0.0234 -0.285  0.122
 0.299 -0.406 -0.00866
-0.613 -0.198  0.137
-0.536 -0.569 -0.00860
 0.445 0.0348 -0.00862
 0.532  0.187 -0.0795
-0.276 -0.569 -0.0239
 0.338  0.490 -0.0239
-0.232  0.390 -0.0152
-0.231  0.538 -0.0187
-0.360 -0.198 -0.00861
-0.375 -0.406 0.00670
-0.236 -0.118 0.0585
0.0387 -0.198 -0.0760
0.0464 -0.285 -0.000932
-0.681 -0.223 0.0604
-0.687  0.536 0.00339
0.0464  0.553 -0.0805
 0.100  0.399 -0.0760
 0.138  0.562 -0.0163
 0.154  0.254 -0.0805
 0.545 -0.116 -0.0163
 0.399  0.198 -0.0163
 0.222 -0.198 0.0987
-0.665 -0.562 -0.0803
-0.690  0.413 -0.00179
 0.461  0.478 -0.0469
-0.161  0.250 0.0619
-0.211 -0.362 -0.0189
-0.276 -0.116 -0.000932
 0.118 -0.282 -0.0795
-0.228 -0.239 -0.0201
 0.227 -0.282 0.0374
-0.0840 -0.231  0.186
 0.115 -0.285  0.122
 0.480 -0.406 0.0615
-0.0150  0.412 0.0144
-0.669  0.295 0.00345
-0.168  0.549 -0.00862
-0.633  0.488 -0.0759
-0.437 -0.116 -0.0239
-0.490  0.337 -0.00860
-0.322 0.0348 -0.0163
-0.291 -0.211 -0.0163
-0.490 0.0392 -0.0805
 0.614  0.483 -0.0804
 0.682 -0.249 0.0624
-0.360  0.337 -0.0163
 0.637  0.185 -0.00861
-0.391 -0.558 -0.0795
 0.637 -0.569 -0.00860
0.0617 -0.198  0.175
 0.499  0.185 0.00673
 0.299 -0.116 -0.0163
-0.521 -0.569 -0.0700
 0.232 0.0679 -0.0202
 0.245 -0.413 -0.0700
 0.338  0.340 0.0620
-0.0994  0.549 0.0451
 0.225  0.206 -0.00190
-0.466  0.489 0.0622
-0.391 -0.206 -0.0805
-0.209  0.321 -0.00898
 0.691  0.321 -0.0204
 0.232 -0.392 0.00544
 0.244 -0.515 -0.0201
-0.232 -0.118 -0.0470
-0.606 -0.410 0.0624
 0.422 -0.109 -0.0805
-0.687 -0.423 0.00339
-0.145 -0.198 -0.0393
-0.644  0.185 -0.00861
 0.606  0.337 -0.0623
-0.161 -0.285 0.0144
 0.575  0.337 -0.000932
-0.0687  0.261 -0.00865
 0.228  0.413 0.0451
 0.100  0.114 0.0628
 0.215  0.263 0.0527
-0.608  0.490 0.00193
-0.521  0.348 -0.0795
-0.467 -0.202 -0.0805
 0.230  0.709 0.00297
-0.0840 -0.198 0.0681
-0.276 -0.418 -0.000952
-0.467 -0.109 -0.0805
 0.177  0.549 0.0297
-0.211 0.0731 0.00328
 0.522  0.478 -0.0163
 0.507 -0.557 0.00668
 0.245 -0.117 0.0552
-0.0380  0.549 0.00672
 0.247 0.0393 -0.0796
 0.292  0.337 -0.0316
 0.680 -0.125 -0.0177
-0.345  0.490 0.0144
-0.613  0.350 -0.0163
-0.559 -0.116 -0.0760
-0.429  0.337 0.0586
 0.598  0.198 0.0374
-0.0227  0.399 -0.0760
-0.544 -0.198 0.0834
 0.430 -0.103 0.00672
 0.499 -0.254 -0.0163
-0.0840 -0.285  0.137
-0.199 -0.198  0.122
 0.399 0.0348 0.0527
 0.232  0.352 0.00541
 0.386 -0.417 -0.0795
 0.363 -0.265 -0.0795
 0.244  0.589 0.00526
 0.685  0.477 0.0614
-0.567  0.192 -0.0804
 0.682  0.451 -0.00887
0.0975  0.410 0.0620
0.0464  0.248 0.0527
-0.322 -0.569 0.0221
 0.437 -0.569 -0.0316
-0.529  0.185 0.0144
-0.161  0.108 0.0144
 0.629 -0.103 -0.0623
-0.268 -0.211 -0.0699
 0.310  0.187 -0.0795
 0.248  0.520 -0.0188
 0.682 -0.421 -0.0311
-0.490 -0.413 -0.0805
-0.209 -0.431 -0.00898
 0.215  0.114 0.0628
0.0534  0.557 0.0625
-0.483 -0.211 -0.0163
 0.177  0.399 -0.0163
 0.245 -0.550 0.0618
-0.115  0.549 -0.0699
 0.399  0.489 0.0624
-0.232 0.0554 0.0619
 0.484 -0.418 -0.0393
0.0464  0.399 0.00673
 0.484  0.348 -0.0795
 0.514 -0.116 -0.0700
-0.437 -0.405 -0.0239
-0.211  0.658 -0.0185
-0.582  0.337 0.0527
-0.421  0.186 0.0585
 0.407  0.337 -0.0623
-0.233 -0.539 -0.00180
-0.559 -0.211 0.0221
-0.590 -0.202 -0.0805
 0.573 -0.558 0.0620
 0.172  0.550 -0.0795
-0.429 -0.566 0.0620
 0.161 -0.199 -0.0794
 0.629 -0.261 -0.0805
-0.383  0.199 -0.0240
 0.248  0.192 -0.0795
-0.0150 -0.239 -0.0805
-0.666 -0.224 -0.00882
-0.211  0.549 0.0323
-0.398  0.350 -0.0546
-0.670 0.0520 0.0221
-0.291  0.350 -0.0393
 0.468  0.350 0.0374
-0.529 -0.116 0.0144
 0.683  0.658 -0.0151
 0.338 -0.418 0.0297
 0.284  0.199 0.0221
-0.192  0.401 0.0620
 0.330  0.198 -0.0240
-0.122  0.411 -0.0240
 0.669 0.0489 0.00673
 0.491 0.0479 -0.0469
0.0233  0.261 -0.0623
 0.131  0.248 -0.0239
 0.685 -0.544 0.00635
 0.244 -0.630 -0.0201
-0.370 -0.105 0.0620
-0.211  0.206 -0.0189
-0.670  0.477 0.0400
 0.522 0.0476 0.0583
 0.399  0.198 0.0585
 0.215 -0.262  0.186
 0.652 -0.267 -0.0316
-0.0233  0.113 0.0624
 0.226  0.413 -0.0795
 0.606 -0.116 0.0586
 0.232 -0.277 -0.0255
 0.292 0.0348 0.0221
0.0157 -0.285 0.0604
-0.536 0.0475 -0.00866
 0.123 -0.285 0.0374
-0.544 -0.418 0.00672
-0.444 -0.211 0.0221
-0.268  0.198 0.00672
 0.507  0.337 -0.0316
 0.289  0.491 0.0518
-0.107 -0.284 -0.0760
-0.613 -0.569 0.0527
 0.161  0.261 0.0582
 0.345 -0.556 0.0144
-0.491 -0.406 0.0582
-0.371  0.489 0.0614
-0.283 0.0392 0.0628
 0.100 -0.239  0.186
 0.586  0.187 -0.0795
 0.348  0.479 -0.0795
 0.575 -0.261 -0.0805
 0.184 -0.199  0.137
 0.703  0.559 -0.0189
-0.667 -0.545 0.00764
-0.210 -0.269 0.0451
-0.506 -0.557 0.0583
 0.545 -0.556 -0.0393
-0.526  0.479 -0.0795
-0.145  0.108 -0.0760
-0.621 -0.116 0.0451
-0.360 -0.406 -0.0760
-0.0533 -0.198 -0.0546
-0.675  0.651 -0.0198
 0.169 -0.285  0.137
 0.686 0.0451 -0.0623
 0.683 -0.223 -0.0153
-0.644  0.350 -0.0760
-0.205 -0.285 -0.0393
 0.245  0.355 0.0600
-0.667 -0.317 -0.0310
-0.345 -0.103 -0.0760
-0.276 0.0479 -0.0393
-0.667  0.208 -0.0546
-0.613 -0.418 -0.0546
 0.228 -0.231  0.145
-0.656 -0.117 0.00673
 0.682 -0.323 -0.0165
 0.681 -0.420 0.0374
 0.368 -0.563 0.0625
 0.560 -0.405 -0.0316
 0.568 -0.417 0.0619
-0.391 -0.406 0.0582
-0.138 -0.285  0.122
-0.675 -0.0394 0.00571
0.0157 -0.198  0.122
 0.322 -0.254 0.0221
-0.0380 -0.198 0.0221
-0.0687 -0.285 0.0297
0.0847  0.549 -0.0240
-0.669 -0.117 -0.0674
 0.430  0.192 -0.0804
 0.629 0.0474 0.0450
-0.483 0.0348 0.0374
-0.559  0.478 0.0144
-0.268 -0.413 0.0628
-0.176 -0.199 0.00672
-0.319  0.187 -0.0795
-0.491 -0.556 -0.0316
 0.292 -0.569 0.0144
-0.0738  0.401 -0.0795
-0.391 -0.104 0.00669
-0.210 -0.246  0.129
0.000357  0.563 -0.0393
 0.192  0.108 -0.0163
-0.286  0.348 0.0620
-0.322  0.185 0.0144
-0.483 -0.211 0.0834
0.0233  0.108 -0.0240
0.0617 -0.246 -0.0805
-0.437 -0.569 -0.0316
-0.276 -0.199 0.0987
-0.613  0.185 0.0374
 0.353 -0.103 0.0527
 0.292  0.478 -0.00860
-0.467  0.186 -0.0760
 0.629 -0.569 -0.0623
-0.0840  0.399 0.0144
-0.523  0.490 -0.0278
 0.161 -0.216  0.186
 0.591 0.0479 -0.0623
 0.215  0.247 -0.0316
-0.228 0.0374 -0.0319
 0.422  0.337 0.0144
-0.130 -0.198  0.129
 0.652  0.490 0.00673
0.0234 -0.198 0.0144
-0.210  0.127 -0.0759
-0.522  0.191 0.0625
-0.0150  0.401 0.0620
 0.384 -0.556 -0.0316
-0.123  0.411 0.0584
 0.184 -0.285 -0.000932
-0.204  0.416 0.0175
-0.191  0.411 -0.0316
-0.0610 -0.285 -0.0316
-0.329 -0.556 -0.0316
 0.422 -0.254 0.0451
0.0617 -0.198 -0.0240
 0.330 0.0348 -0.0163
 0.552 -0.254 -0.0163
 0.391 0.0479 -0.0469
0.0156 -0.262  0.186
 0.583 -0.267 0.0220
-0.434  0.490 -0.0126
 0.399 -0.418 0.0144
 0.686  0.207 -0.0419
 0.461 -0.569 0.0144
-0.184  0.260 -0.0240
 0.169 -0.246 -0.0805
-0.352 -0.211 0.0374
 0.207 -0.285 0.0911
 0.284 -0.255 -0.0240
-0.644 -0.406 -0.00865
-0.253  0.478 0.0144
-0.665 0.0558 -0.0495
-0.375 0.0348 -0.0546
-0.291 -0.406 -0.0760
-0.536  0.350 0.0527
-0.153 -0.239 -0.0805
 0.430 -0.569 0.0586
 0.292 -0.569 -0.0760
-0.253  0.349 -0.000922
-0.0533  0.549 -0.0393
 0.353 -0.558 -0.0795
 0.645 -0.267 0.0297
-0.682 -0.198 -0.0470
 0.445 -0.558 -0.0795
-0.690  0.175 -0.00179
 0.430  0.199 0.0221
 0.384  0.490 -0.0329
-0.161  0.248 -0.0760
 0.575 -0.104 0.0220
 0.445  0.479 0.0620
-0.209 -0.199  0.168
-0.682 -0.630 0.00566
 0.225  0.459 -0.0153
 0.686 -0.408 -0.0759
 0.460 -0.267 -0.0546
-0.260 -0.211 0.0374
 0.685  0.129 0.00343
-0.231  0.270 -0.0188
-0.324  0.196 0.0620
 0.307 -0.116 -0.0760
 0.491 -0.418 0.00672
-0.559  0.350 -0.0393
 0.391 -0.254 -0.0316
 0.177 -0.199 0.0834
 0.422 -0.418 -0.0316
0.0924 -0.285 -0.0239
0.0694 -0.285  0.129
-0.668  0.359 0.0143
 0.560  0.490 0.00673
 0.292  0.350 -0.0760
-0.421  0.198 -0.0760
 0.560  0.340 0.0620
-0.211  0.571 -0.0470
-0.161  0.110 0.0620
-0.0380 -0.285  0.137
 0.244  0.252 0.00540
-0.0303 -0.198  0.122
-0.421  0.199 0.0144
-0.184 -0.285  0.145
 0.434 -0.406 0.0615
-0.575 0.0348 0.0527
-0.232  0.114 0.00319
-0.0380  0.108 -0.0546
 0.247 0.0319 0.0140
-0.636 -0.199 0.0144
 0.499  0.185 0.0527
-0.628 -0.569 -0.0546
 0.229 -0.231 0.0681
 0.242 -0.119 -0.0273
 0.260 -0.556 -0.0316
-0.375 -0.198 0.0911
-0.276 -0.557 -0.0760
-0.210  0.249 0.0620
-0.421 -0.569 0.0144
 0.322  0.350 -0.000972
 0.247 -0.245 -0.0623
-0.567 -0.557 -0.0393
-0.686 -0.199 0.0987
 0.545  0.198 0.00670
 0.622  0.199 -0.0546
 0.292 0.0466 -0.0795
 0.307  0.186 0.0585
-0.229 -0.570 -0.0394
 0.529 -0.569 0.0586
 0.652 -0.406 -0.000922
 0.681 -0.571 0.0451
 0.560 0.0479 -0.0239
 0.108 -0.198  0.114
 0.399 -0.116 -0.0239
 0.146  0.411 0.0144
-0.0457  0.261 0.0297
0.0157  0.261 0.0220
-0.636 0.0472 -0.0163
-0.536 -0.211 -0.0163
 0.491 -0.103 -0.000972
-0.590 -0.198 0.0987
 0.677  0.494 -0.0345
-0.138 -0.231  0.186
 0.338 -0.116 -0.0393
 0.368 -0.254 0.0144
-0.268  0.478 -0.0623
-0.232  0.710 -0.0546
-0.229 -0.570 0.0613
-0.237 -0.197 -0.0311
 0.614 -0.569 0.0297
 0.683 -0.453 -0.00161
-0.666 0.0833 -0.00882
-0.577  0.490 0.0597
 0.222 -0.192 -0.00173
-0.236  0.204 0.0527
-0.233 -0.397 -0.0317
0.0157  0.121 0.0221
 0.691 -0.638 -0.0204
-0.233 -0.323 -0.0316
 0.161 -0.285 -0.0546
 0.247 -0.315 -0.0495
-0.667 -0.461 -0.00156
 0.681  0.207 0.0297
 0.244  0.499 0.0612
-0.309 -0.558 0.0620
-0.513 -0.198  0.114
-0.529 -0.405 -0.0546
 0.591 -0.116 -0.0316
-0.444 0.0479 0.0144
 0.123  0.108 -0.0240
-0.0533  0.121 0.0221
0.00802 -0.285 -0.0239
-0.644 -0.198  0.106
 0.529 -0.103 0.0220
-0.391 -0.198 0.0221
 0.484 -0.267 0.0220
 0.595  0.490 0.0325
 0.683 -0.0394 -0.0153
-0.0764  0.261 -0.0546
-0.191 -0.198 0.0681
-0.636 -0.104 -0.0393
 0.249  0.698 -0.0393
-0.314 -0.406 0.0144
-0.352 0.0348 0.0144
 0.369  0.490 0.0295
-0.235  0.498 -0.0375
-0.452 -0.418 -0.0623
 0.491 -0.406 -0.0795
 0.215  0.553 -0.0805
 0.504  0.489 0.0622
-0.324  0.491 -0.0368
 0.192  0.411 0.0221
 0.476 0.0479 0.0221
 0.591 -0.556 -0.0393
-0.268  0.185 -0.0546
-0.398 0.0359 0.0619
 0.330 -0.265 0.0620
 0.261 -0.268 0.0144
 0.376  0.337 0.0451
-0.0738  0.550 -0.0795
 0.100  0.248 0.0221
 0.552 0.0479 0.0297
-0.0610  0.550 0.0619
 0.529  0.199 -0.0393
-0.398 -0.418 -0.0393
-0.205 -0.277 -0.0802
-0.217 -0.233 0.0264
-0.613  0.490 -0.0393
-0.0540 -0.203  0.186
 0.249  0.336 -0.0296
-0.115 -0.198  0.168
 0.289 0.0466 0.0616
 0.645 0.0348 -0.0240
-0.429  0.478 -0.0546
 0.115  0.108 -0.0700
-0.0994 -0.198 -0.0393
0.0387 -0.198 0.0527
-0.210 -0.254 0.0834
-0.391 -0.211 -0.0393
-0.475 -0.418 0.0220
 0.461  0.185 -0.00861
 0.445  0.478 -0.00860
-0.429 -0.198  0.114
-0.519 -0.113 -0.0795
 0.645  0.337 0.0451
-0.138  0.549 0.0297
-0.467  0.350 0.0297
 0.645  0.337 -0.0469
 0.269 -0.116 0.0221
-0.598 -0.116 -0.0469
-0.383  0.490 -0.000912
-0.130  0.261 0.0374
 0.322 -0.254 -0.0700
 0.184  0.261 -0.0546
 0.254 -0.424 -0.00878
 0.685 -0.117 0.0221
 0.249  0.160 -0.00197
 0.225  0.127 -0.0393
-0.299 -0.202  0.147
-0.460 -0.103 0.0374
-0.216 -0.147 -0.0202
 0.245 -0.413 0.0374
 0.445 -0.116 0.0451
-0.322 -0.198 0.00673
-0.352  0.185 -0.0470
-0.452 -0.198 0.0604
-0.345 -0.116 0.0297
-0.437  0.350 -0.0393
 0.430 0.0479 0.0297
 0.244 -0.0548 -0.0201
0.0694  0.399 -0.0470
 0.677 -0.573 -0.0233
 0.545  0.350 -0.0316
-0.544  0.185 -0.0316
-0.521  0.337 -0.0393
 0.215  0.563 0.0144
-0.228 -0.0394 0.00538
-0.613  0.337 0.0221
 0.229 -0.254  0.106
 0.484  0.350 -0.000981
-0.628 -0.211 -0.0240
 0.322 -0.418 -0.0393
 0.575 -0.406 -0.0760
 0.468 -0.105 -0.0795
-0.575 -0.406 -0.0316
-0.613  0.198 -0.0393
 0.169  0.108 0.0527
-0.670  0.496 -0.0623
-0.233  0.436 -0.00198
 0.686  0.358 -0.0343
 0.245  0.480 -0.0757
-0.115  0.108 0.0451
-0.0150 -0.199 -0.0795
-0.687 -0.390 -0.0190
-0.291 0.0476 -0.0760
-0.161 -0.198 -0.0760
-0.575 -0.569 0.0221
 0.687  0.337 0.0155
 0.683 -0.0941 -0.0470
-0.314 -0.116 -0.0546
 0.192 -0.198 -0.0546
-0.667 -0.547 -0.0317
-0.232 -0.571 0.0221
-0.0917 -0.277  0.185
 0.115  0.261 -0.0760
 0.353 -0.405 -0.0623
-0.276 -0.104 0.0450
-0.176 -0.285 0.0604
 0.123 -0.285 0.0834
-0.475 -0.116 -0.0163
 0.177  0.562 -0.00859
-0.383 -0.569 0.0221
-0.521  0.478 0.0221
-0.598 -0.211 0.0144
-0.122  0.120 -0.0469
-0.536 -0.556 0.0297
-0.268 -0.418 -0.0393
-0.184 -0.199 -0.0316
-0.153 -0.285 -0.0316
-0.437 0.0479 -0.0239
-0.575  0.185 0.0221
 0.614 -0.418 0.0297
 0.514 -0.267 0.0585
-0.682  0.566 -0.0202
0.0234 -0.223  0.185
-0.552 -0.103 -0.0316
0.0694 -0.198  0.137
 0.108 -0.285  0.160
 0.227  0.615 -0.0186
-0.655 -0.199  0.146
-0.595  0.479 -0.0795
-0.209 -0.645 -0.00189
 0.229 -0.216 -0.0318
-0.260  0.478 0.0585
-0.00731 -0.277 -0.0805
-0.176  0.399 -0.0700
-0.682  0.497 0.00562
 0.445  0.344 -0.0805
 0.706 0.0449 -0.0154
 0.330  0.350 -0.0469
-0.199  0.121 0.0221
 0.244 0.0366 -0.0388
 0.685  0.694 -0.0444
-0.429 -0.199 -0.0795
 0.529 -0.418 0.0585
-0.161 -0.262  0.186
 0.241  0.674 -0.0735
 0.131  0.412 -0.0393
-0.644 -0.405 0.0297
-0.360  0.198 0.00671
-0.513  0.337 0.0221
 0.621 -0.267 -0.000952
 0.422  0.478 -0.0469
 0.522 -0.405 -0.0316
-0.322  0.350 -0.0163
0.000355 -0.285  0.152
 0.606 -0.418 -0.0470
 0.100 -0.198 -0.0240
0.0540 -0.285 -0.0393
0.0770  0.121 0.0297
0.00800  0.549 0.0220
0.0694  0.399 0.0374
 0.522  0.478 0.0297
 0.161 -0.285 0.0297
-0.467  0.185 -0.000942
 0.146 -0.199  0.114
-0.575 -0.103 0.0144
-0.107 -0.198 0.0987
 0.138  0.248 0.0221
 0.558 -0.257 0.0620
-0.467 -0.566 0.0620
-0.299  0.337 -0.0760
 0.192  0.108 -0.0546
 0.161 -0.198 0.0144
-0.228  0.506 0.00850
 0.491  0.478 -0.0699
-0.221 -0.354 -0.0736
-0.644 -0.569 0.0297
-0.670  0.207 0.0297
-0.506 0.0479 -0.0469
-0.689  0.321 -0.0154
-0.338 -0.202  0.147
 0.244 -0.300 0.00540
-0.306  0.490 0.0144
 0.227 -0.597 -0.0189
-0.690  0.451 -0.00179
-0.689 -0.202 0.0221
-0.324  0.348 0.0620
 0.284 -0.406 -0.0546
 0.445  0.483 -0.0804
 0.629  0.478 -0.0469
 0.686  0.416 -0.0190
-0.208  0.137 -0.0160
-0.107 -0.239 -0.0805
-0.138  0.248 -0.0469
 0.491  0.198 -0.0760
 0.248  0.375 -0.0187
 0.322 -0.103 0.0297
 0.245  0.185 0.0246
-0.383  0.337 0.0297
-0.665 0.0349 0.0620
 0.254  0.476 -0.0317
-0.231 -0.100 -0.0795
 0.227 -0.199 0.0502
 0.686  0.496 0.0297
-0.214 -0.198 0.0374
 0.245  0.202 -0.0444
0.0847  0.563 -0.0623
-0.260 -0.198 -0.000942
 0.146  0.563 0.0451
 0.522 -0.569 -0.0700
-0.228  0.566 0.00535
0.0387  0.121 -0.0546
-0.232 -0.118 0.0221
-0.391  0.478 -0.0760
 0.248 -0.487 0.00321
-0.406 -0.103 -0.0393
0.0157  0.412 -0.00863
-0.521 0.0348 0.0221
-0.0994  0.248 0.00673
 0.407 0.0348 -0.0163
 0.686 -0.262 -0.0470
 0.514 -0.113 0.0620
 0.229 -0.246 0.0297
0.0847  0.248 -0.0393
 0.284 -0.104 -0.0469
-0.231 -0.466 -0.0188
 0.575 -0.406 0.00673
-0.306 0.0469 0.0144
-0.322 -0.211 0.0757
 0.637 -0.104 0.0297
-0.107  0.399 -0.0546
-0.360 -0.418 0.0451
-0.161  0.399 -0.0163
-0.513 -0.405 0.0297
 0.248 -0.356 0.00321
 0.402 0.0359 -0.0795
 0.583  0.478 -0.0623
0.0234 -0.198  0.160
 0.225 -0.546 -0.0153
-0.268 -0.103 -0.0470
-0.00732  0.254 -0.0805
-0.222 0.0392 0.00816
-0.513 -0.198 -0.0470
0.00802  0.553 -0.0805
 0.315 0.0348 -0.0546
-0.210 -0.246 -0.0623
-0.337  0.478 0.0527
 0.248  0.549 0.00316
-0.414 0.0348 0.0297
 0.703  0.628 -0.0187
-0.184  0.261 0.0374
 0.705 -0.318 -0.0470
 0.703  0.226 0.00343
 0.686 -0.245 0.0272
-0.690 -0.124 -0.00179
-0.682 -0.254 -0.0204
-0.230 -0.215  0.119
-0.489  0.490 -0.0500
 0.407  0.199 -0.0546
-0.216  0.359 -0.0202
 0.358  0.195 0.0616
-0.327 -0.417 -0.0795
-0.605  0.337 -0.0546
-0.559 -0.198 -0.0623
-0.414 -0.405 0.0144
-0.352  0.478 -0.0546
-0.669  0.390 -0.0190
0.0617  0.563 0.0221
-0.430  0.490 0.0583
-0.498 -0.211  0.143
-0.669 -0.326 0.00345
-0.375 0.0479 0.0374
-0.314 -0.198 -0.0393
-0.406  0.185 -0.0470
0.0234  0.412 0.0297
-0.345  0.350 0.0297
-0.352 -0.569 -0.00860
-0.393  0.348 0.0620
0.0233  0.405 -0.0805
-0.230  0.689 -0.0251
 0.698 -0.423 0.00569
 0.248 0.0884 0.00321
 0.518  0.490 -0.0502
 0.491  0.344 0.0628
-0.0533  0.254 0.0628
-0.229 -0.0910 -0.0247
0.0464  0.563 -0.0469
-0.299 -0.557 -0.000922
-0.427  0.340 -0.0795
0.0847 -0.285 -0.0700
-0.360 -0.211  0.122
 0.552  0.478 -0.0393
-0.668  0.338 0.0412
-0.232  0.298 0.00319
 0.233  0.415 0.00886
-0.0917  0.121 0.0221
 0.694  0.672 -0.0734
-0.406 -0.211 -0.00861
-0.498  0.199 -0.0240
-0.368 -0.569 -0.0393
 0.345 0.0479 0.0144
-0.467 -0.211 -0.0470
-0.689  0.275 -0.0154
 0.583 0.0469 0.0144
 0.591  0.337 0.0297
-0.0994 -0.285  0.106
 0.368  0.199 -0.000962
 0.545 -0.116 -0.0546
-0.490  0.478 0.0374
 0.622 0.0479 -0.0469
 0.299  0.198 -0.00866
-0.406 0.0348 -0.0393
-0.306 -0.116 0.0144
-0.0303 -0.285 0.0604
 0.537 -0.569 0.0221
 0.637 -0.405 -0.0316
 0.307  0.490 -0.0393
 0.115  0.412 0.0297
-0.636 0.0479 0.0221
-0.0226 -0.285 -0.0393
0.00802 -0.285 0.0221
-0.00732  0.108 -0.0393
0.0540 -0.239  0.186
-0.130  0.562 -0.0316
-0.437 -0.116 0.0144
-0.613 -0.211 -0.0546
-0.122 -0.285 0.0144
 0.108 -0.285 0.00673
 0.115  0.563 -0.0469
 0.123 -0.198 0.0144
-0.161 -0.199 0.0374
-0.368 -0.405 -0.0316
-0.498 -0.103 0.00672
-0.467 -0.418 -0.0316
 0.499  0.185 -0.0316
-0.161 -0.198 0.0987
-0.260  0.337 -0.0469
 0.437 -0.116 -0.0469
-0.483  0.350 -0.0393
 0.678  0.204 -0.00861
-0.467 0.0348 -0.0470
 0.514  0.350 -0.0623
 0.598  0.350 -0.0316
-0.00733  0.549 -0.00862
 0.491  0.478 -0.0316
-0.406 -0.569 -0.0469
 0.368 0.0479 0.0451
0.0770  0.261 0.0451
-0.228  0.194 0.0102
 0.430 -0.254 -0.0393
-0.115  0.412 0.0221
 0.545 -0.267 -0.0470
-0.208  0.565 0.0623
 0.507 -0.267 -0.0470
-0.575 -0.198  0.137
-0.575  0.198 -0.0470
-0.0763  0.108 -0.0163
 0.292 -0.418 0.0220
 0.430  0.185 -0.0239
-0.352 -0.556 0.0297
-0.552 -0.558 -0.0795
 0.629  0.478 0.0297
 0.703 -0.0190 0.00343
-0.260  0.337 0.0374
-0.675  0.712 -0.0240
-0.233  0.207 -0.0470
0.0387  0.248 -0.000932
 0.461 -0.116 -0.00860
 0.338  0.350 0.0297
-0.375  0.337 -0.0760
-0.176  0.248 0.00673
 0.652 -0.104 -0.00860
 0.345  0.199 -0.0546
 0.606 -0.557 -0.000922
 0.115  0.120 0.00673
 0.529  0.349 -0.000922
 0.154  0.108 -0.00862
-0.643  0.491 0.0233
-0.669 0.0404 -0.0794
 0.207  0.260 -0.000922
 0.138  0.120 0.0586
 0.422  0.478 0.0374
 0.229 -0.231  0.181
 0.685  0.195 0.0619
-0.211  0.620 -0.0186
0.0770 -0.202 -0.0804
 0.225  0.497 -0.00897
 0.606 -0.562 0.0628
-0.524 -0.106 0.0617
-0.667 -0.397 -0.0794
 0.315  0.478 -0.0760
-0.228 -0.377 0.00538
-0.299 -0.202 -0.0805
-0.667 -0.651 -0.0151
 0.484 0.0466 -0.0795
-0.621 0.0469 -0.0469
-0.156  0.409 0.0617
-0.210 -0.231  0.160
 0.368  0.350 -0.0393
 0.453 -0.405 -0.0393
 0.430 -0.556 0.0144
-0.475 -0.198 0.0221
 0.146  0.549 -0.0470
 0.491 -0.569 -0.0239
 0.338 -0.405 -0.000962
 0.281 -0.558 0.0616
-0.675  0.195 -0.0249
 0.422 0.0348 -0.0470
-0.0380  0.248 -0.0163
0.0464  0.108 0.0221
 0.154 -0.198 -0.0470
0.000343  0.399 -0.0470
 0.706  0.474 -0.0154
 0.244 -0.0318 0.00540
 0.399 -0.116 0.0297
-0.689 0.0603 -0.0154
-0.216 -0.269 0.00861
-0.552 -0.211  0.114
-0.375 -0.116 -0.0700
-0.228  0.643 0.00524
 0.691 -0.515 -0.0204
 0.568  0.185 0.0374
 0.254 -0.268 0.0527
 0.686 0.0562 0.0348
 0.686  0.531 -0.0190
-0.0687  0.549 0.0297
 0.430 0.0431 0.0625
-0.598 -0.569 -0.0393
 0.138  0.399 -0.0700
-0.687  0.147 -0.0190
-0.276 -0.406 0.0297
 0.315 -0.267 -0.0240
-0.345 -0.418 0.00672
-0.443  0.490 0.0204
-0.636  0.478 -0.00860
 0.660 -0.116 -0.0546
-0.360 -0.569 -0.0760
 0.703 -0.101 -0.0190
-0.676  0.675 -0.0731
 0.247 -0.0944 -0.0546
 0.322 -0.418 0.0585
-0.422 -0.202  0.147
 0.706 -0.346 -0.0154
-0.322 0.0348 0.0451
 0.222 -0.198  0.152
-0.215  0.105 -0.0235
-0.0533 -0.198 0.0987
 0.681 -0.398 0.0614
 0.108 -0.198 0.0527
-0.130  0.121 0.0144
0.0464 -0.285 0.0451
-0.212  0.252 -0.0393
 0.583  0.482 0.0628
-0.567 0.0479 0.0221
-0.429 -0.569 -0.0700
 0.225 -0.323 -0.0755
 0.660  0.185 0.0144
-0.444  0.199 0.0374
 0.315  0.478 0.0144
 0.499  0.478 0.00673
-0.283 0.0348 -0.00862
 0.115 -0.285 -0.0469
-0.209 -0.282  0.124
 0.476  0.185 0.0297
 0.384  0.199 0.0297
-0.211 -0.523 -0.0189
 0.703  0.145 -0.0190
-0.687 0.0296 0.00339
-0.669  0.520 -0.0190
-0.670 -0.0951 0.0297
-0.184  0.108 -0.0760
-0.200  0.548 -0.0163
 0.242 -0.246 -0.0305
 0.619  0.196 0.0620
-0.236 -0.418 0.0619
 0.307  0.337 0.0527
-0.230 -0.198 -0.0623
-0.245  0.198 -0.0163
 0.683  0.290 -0.0153
-0.233 0.0142 -0.00896
 0.225  0.313 -0.00897
 0.292 -0.267 0.0297
-0.211  0.704 -0.0785
 0.231 -0.116 0.00538
-0.231 -0.627 -0.0188
-0.651 -0.570 -0.0163
 0.706 -0.561 -0.0154
-0.559  0.483 -0.0804
-0.209 -0.116 -0.0153
-0.399 -0.557 0.0583
 0.225 0.0296 -0.00897
 0.227  0.685 -0.0200
-0.247 -0.570 -0.0112
 0.703 -0.147 -0.0190
 0.391 -0.254 -0.0700
-0.268 -0.211 0.0681
-0.429  0.350 0.0297
 0.154 -0.285  0.106
 0.177 -0.285  0.168
-0.161  0.562 -0.0393
-0.138  0.120 -0.0163
 0.399 -0.254 0.0221
0.00802 -0.198 0.0911
 0.161  0.412 -0.0470
-0.644  0.337 0.0144
 0.345 0.0348 -0.0470
 0.453  0.337 0.00673
 0.376  0.478 -0.000932
-0.467 -0.116 -0.0469
 0.507 -0.116 -0.0393
-0.567 -0.211 0.0527
-0.0533 -0.239  0.186
 0.468 -0.267 -0.0240
-0.00731 -0.285  0.114
-0.0533 -0.198 0.0604
-0.552  0.478 -0.0163
 0.229 -0.216 0.0221
-0.0303  0.412 -0.0239
 0.100  0.399 -0.0393
 0.645 -0.569 0.0221
-0.452 -0.211 -0.00861
 0.276  0.199 0.0527
-0.0457 -0.246 -0.0805
-0.222  0.345 0.00739
-0.352 -0.198 -0.0393
0.0617  0.120 0.0586
 0.138  0.405 0.0628
 0.225 -0.369 -0.0153
-0.138  0.563 -0.000962
 0.591  0.198 0.00672
 0.384 -0.103 -0.0760
 0.703 -0.262 -0.0190
 0.461 0.0479 -0.0393
 0.376  0.199 -0.0470
0.0770 -0.285 0.0988
-0.682 -0.00873 0.00566
 0.255  0.201 -0.0137
-0.299 -0.556 -0.0546
-0.130 -0.285 -0.0546
0.0227  0.562 0.0583
-0.636 -0.418 -0.0760
 0.461 -0.569 -0.0546
-0.209 -0.576 -0.0153
-0.575 -0.418 0.0585
-0.490 -0.569 -0.0760
-0.452 0.0476 -0.0760
-0.360 -0.211 -0.0760
-0.260 -0.405 -0.0699
-0.211  0.505 -0.0189
 0.583 -0.405 0.0374
-0.690 -0.300 -0.00900
-0.130 -0.208 -0.0805
-0.391 0.0431 -0.0805
-0.687  0.206 0.00339
 0.660  0.490 0.0451
-0.216  0.175 -0.0202
 0.138  0.261 -0.0546
 0.227  0.382 0.00327
-0.575 0.0466 -0.0795
 0.222 -0.246 -0.0805
-0.460  0.478 -0.0239
-0.605 0.0479 0.0451
-0.232 -0.331 0.00319
 0.225  0.175 -0.0153
 0.222 -0.285 -0.0546
 0.284  0.185 -0.0623
 0.376  0.478 -0.0623
-0.498  0.192 -0.0804
-0.210 -0.269  0.152
-0.636 -0.417 0.0619
-0.644  0.337 -0.0316
-0.209 -0.400 -0.00190
-0.291  0.198 0.0374
 0.244  0.681 0.00516
-0.674 -0.575 0.00901
 0.478 -0.265 -0.0795
-0.506  0.199 0.0374
-0.0994  0.563 0.0144
 0.345 -0.557 -0.0163
 0.476 0.0475 -0.00864
 0.131 -0.239  0.186
-0.184  0.563 0.0374
 0.169  0.114 -0.0805
 0.238 -0.615 0.00575
-0.391  0.198 0.00669
-0.552  0.348 -0.0795
 0.606 -0.413 0.0628
 0.552 -0.569 -0.0700
 0.177  0.120 0.0221
-0.231  0.239 -0.0188
-0.498 -0.556 0.0220
 0.138 -0.246 -0.0805
-0.644 -0.198 0.0757
-0.131  0.557 0.0625
 0.399  0.337 -0.00860
 0.368 -0.418 0.0144
 0.123 -0.198 -0.0470
0.0234 -0.285 0.0911
-0.521 0.0392 -0.0805
-0.231 -0.497 -0.0188
 0.575  0.337 -0.0699
-0.582  0.350 -0.0163
 0.645 -0.418 0.0297
 0.629  0.348 -0.0795
0.0157 -0.239 -0.0805
0.0310 -0.198 -0.0240
-0.644  0.185 0.0221
-0.00732 -0.198 0.0144
-0.0994  0.248 -0.0239
0.0540  0.248 -0.0393
-0.575 -0.405 0.0144
 0.514 -0.267 0.0144
0.0694  0.399 -0.0163
 0.322  0.199 0.0144
-0.184  0.108 -0.00862
-0.613  0.185 0.00673
0.0924 -0.198  0.175
-0.437 -0.116 -0.0546
 0.284  0.337 -0.000932
-0.590 0.0469 -0.0316
-0.0840 -0.199 0.0297
-0.605 -0.103 0.0220
 0.249 -0.185 -0.0152
-0.276 -0.198 -0.0393
-0.536 -0.556 -0.0470
 0.545 0.0348 -0.0470
-0.391  0.187 0.0620
-0.0226  0.248 0.0144
 0.468 -0.116 0.0221
-0.669 -0.117 -0.0368
-0.567 -0.557 -0.00866
 0.529 -0.569 -0.0163
 0.476 -0.405 0.0297
-0.467  0.199 -0.0470
-0.513 -0.198 -0.000942
 0.422 -0.556 -0.0546
 0.368 -0.116 0.0297
 0.445  0.337 0.0527
-0.283 -0.211 0.0144
 0.422 -0.418 -0.0623
-0.490  0.337 -0.0699
 0.629 -0.254 -0.0469
-0.337 -0.569 0.0527
-0.529  0.337 -0.00860
-0.0994  0.563 -0.0469
 0.399 0.0348 0.0144
-0.398 -0.211  0.106
 0.468  0.337 -0.0546
-0.444 -0.211 0.0911
 0.552 0.0350 0.0585
 0.169  0.121 -0.0316
 0.200  0.412 -0.0316
 0.522 -0.418 -0.000952
 0.322 -0.103 -0.000972
 0.414 -0.556 -0.0163
 0.622  0.185 0.0221
 0.261  0.350 0.0144
0.0924  0.562 0.0220
-0.0687 -0.202 -0.0805
-0.0917  0.411 -0.0316
 0.225 -0.651 -0.00189
 0.269 0.0475 -0.00865
 0.115  0.121 0.0374
-0.0687  0.562 -0.0163
 0.261 -0.268 -0.0393
-0.536 -0.116 -0.0546
-0.322 0.0479 -0.0546
-0.687 -0.443 -0.0190
-0.529 -0.406 -0.0163
 0.575 -0.104 -0.00860
 0.463  0.187 -0.0795
0.0464  0.254 -0.0805
 0.322 -0.569 -0.000932
 0.368 -0.569 -0.000932
 0.652  0.337 0.0144
 0.545 -0.254 -0.0760
0.0770  0.549 0.0451
0.0540  0.108 -0.0240
 0.154  0.261 -0.00860
 0.698 -0.193 -0.0204
 0.227 -0.160 -0.0189
-0.153  0.108 -0.0393
 0.637  0.478 -0.0163
-0.161  0.411 -0.0469
-0.253  0.185 0.0297
 0.614  0.349 0.0144
-0.590  0.478 -0.0239
-0.291  0.185 -0.00861
 0.652 0.0392 0.0628
-0.398 -0.418 -0.00862
 0.629 0.0469 0.00673
 0.507 0.0348 0.0221
-0.211  0.380 0.00328
 0.248 -0.541 0.00354
-0.305  0.490 -0.0599
 0.269 0.0469 -0.0546
 0.197  0.410 0.0620
 0.227  0.283 0.00325
 0.222 -0.285  0.168
-0.682  0.683 -0.0212
 0.207 -0.285 0.0604
-0.452 -0.413 0.0628
-0.0303  0.549 0.0374
 0.232 -0.477 -0.0202
-0.176  0.412 0.00673
-0.679 -0.227 0.0937
-0.211  0.549 -0.0674
 0.691  0.589 -0.0201
0.0847  0.121 -0.0546
-0.0687  0.121 -0.0546
 0.606 -0.267 -0.0623
-0.644 -0.406 -0.0393
 0.703  0.433 0.00343
 0.268 0.0343 0.0451
-0.346  0.490 -0.0154
0.000343  0.108 0.0451
 0.184  0.550 0.0585
-0.143  0.550 -0.0795
 0.684 0.0577 -0.0311
 0.453 -0.556 0.0451
 0.660 -0.569 -0.0469
-0.216 -0.0471 -0.0202
 0.698 0.0219 0.00570
 0.244 -0.569 0.0374
-0.253 -0.569 -0.0623
 0.698  0.543 0.00568
 0.683  0.237 -0.0153
-0.686 -0.199 -0.0759
-0.291  0.196 -0.0795
-0.360  0.350 -0.0546
 0.223  0.247 0.0297
 0.232 -0.337 -0.0393
 0.476 -0.558 -0.0795
 0.263 -0.570 -0.0623
-0.529  0.186 -0.0760
 0.514 -0.556 0.0374
 0.177  0.248 0.0374
 0.223  0.106 0.0297
-0.689 -0.318 -0.0546
-0.687  0.101 -0.0190
 0.227 -0.515 0.00327
-0.247 -0.117 -0.00350
-0.444 -0.569 0.0374
-0.209 -0.330 -0.0623
 0.632  0.187 -0.0795
 0.583 -0.267 0.0527
 0.683  0.690 -0.0158
 0.249  0.499 -0.0495
-0.667 -0.0624 -0.0152
-0.234 0.0592 -0.00880
-0.669  0.193 -0.0794
 0.667 -0.255 0.00672
-0.176  0.261 -0.0546
 0.248 0.0142 -0.0187
-0.211  0.290 -0.0189
 0.184 -0.198  0.181
-0.544  0.478 -0.0469
-0.252 0.0345 0.0585
 0.269  0.337 -0.0546
 0.376 -0.556 -0.0623
 0.679 -0.0972 -0.000883
-0.00732 -0.198  0.152
 0.706  0.359 -0.00175
-0.229 -0.548 0.0425
-0.191 -0.285 0.0297
-0.391 -0.116 0.0451
 0.184 -0.216 -0.0805
-0.605 -0.406 -0.0795
 0.249  0.444 -0.00898
-0.682 -0.185 -0.0203
-0.252 -0.419 0.0144
 0.706 -0.315 -0.00175
 0.686 -0.572 0.0140
 0.146 -0.277 -0.0805
-0.208  0.581 -0.00879
-0.232  0.681 0.00306
-0.667  0.597 -0.0151
-0.222  0.221 0.00572
 0.685 -0.147 0.00343
 0.269  0.340 0.0620
-0.608  0.491 0.0366
-0.107  0.248 -0.0546
-0.425 -0.406 0.0615
-0.209 -0.282 0.0783
-0.0533  0.114 -0.0805
 0.276 -0.104 0.0583
 0.208  0.549 -0.0163
-0.687 -0.566 -0.0190
 0.691 -0.477 -0.0204
 0.701 -0.656 0.00159
-0.621 -0.202 -0.0805
 0.683 -0.385 -0.0160
 0.246 -0.0912 -0.0246
 0.691  0.635 0.00555
-0.521 -0.413 -0.0805
-0.690  0.367 -0.00179
-0.399  0.484 0.0629
 0.683  0.359 -0.0623
-0.682 -0.0317 -0.0204
-0.675 -0.622 -0.0204
 0.683  0.500 -0.0623
-0.644 -0.113 0.0620
-0.663 -0.0969 -0.0113
 0.192  0.254 -0.0805
-0.232 -0.592 0.00320
 0.578  0.490 -0.0147
-0.262  0.491 -0.0322
 0.679 -0.550 -0.0393
 0.703 0.0654 0.00343
 0.552  0.350 0.0374
 0.313  0.482 0.0628
-0.0303  0.563 -0.0546
-0.666 -0.523 -0.00882
 0.263 -0.117 -0.00862
 0.317  0.340 -0.0795
-0.667  0.244 -0.00156
-0.552 -0.103 -0.000972
-0.176 -0.284  0.181
 0.239  0.237 -0.0204
-0.491 -0.211 -0.0623
 0.514 0.0479 -0.0623
-0.467 -0.556 -0.0163
-0.575  0.350 0.0220
-0.276 -0.557 0.0144
 0.279 -0.417 -0.0795
-0.603 0.0359 -0.0795
-0.122 -0.254  0.186
-0.521 -0.198 0.0681
 0.468 -0.418 -0.0623
-0.352 -0.103 -0.0470
 0.437  0.350 -0.0546
-0.552  0.478 0.0527
 0.184 -0.285  0.114
0.0924 -0.239 -0.0805
-0.0763  0.248 0.0221
-0.0763 -0.285 -0.0546
0.00802 -0.198 0.0374
-0.0533  0.108 -0.0316
 0.345  0.349 -0.0240
 0.568 -0.103 -0.0393
 0.100  0.248 -0.0163
0.0617 -0.285 0.0221
-0.0380 -0.285 0.0297
-0.0303 -0.198 -0.00861
-0.460 -0.103 0.00672
 0.384  0.350 -0.0700
-0.501  0.489 0.0622
 0.200  0.114 -0.0805
 0.361 -0.103 -0.0546
-0.0303 -0.198 -0.0393
 0.345 -0.254 -0.0546
 0.353  0.478 -0.0469
-0.368 -0.211 0.0604
-0.598 -0.556 0.0297
 0.399 -0.418 -0.0470
-0.383 -0.103 -0.0240
-0.352 0.0348 -0.0393
 0.660 -0.405 -0.0469
0.0387 -0.285  0.145
-0.0994 -0.285 0.0297
 0.522  0.185 0.0221
 0.368 -0.556 0.0297
-0.184 -0.285 -0.000932
-0.0917  0.399 0.0451
-0.429 -0.211 0.0451
0.0387 -0.198 0.0834
-0.559 -0.405 0.0374
-0.138 -0.285 0.0374
-0.291 -0.418 -0.0240
-0.452  0.350 0.00672
-0.559 0.0469 -0.0240
 0.154  0.562 0.00673
-0.669  0.421 -0.0190
-0.0303 -0.223  0.186
 0.507 -0.405 -0.0546
-0.644 -0.557 0.0583
-0.184 -0.239 -0.0805
-0.176 -0.198  0.137
 0.184 -0.231  0.186
-0.613 -0.198 0.0834
-0.122 -0.262 -0.0805
-0.161 -0.285 0.0834
 0.683 -0.0701 -0.0153
 0.706 -0.231 -0.00175
 0.407 -0.254 -0.00863
-0.391  0.337 -0.0316
0.00803  0.248 0.0451
 0.238 -0.0624 0.00575
 0.330 -0.267 -0.000952
 0.430 -0.254 0.0144
 0.399  0.350 -0.0393
 0.445 -0.556 -0.00862
-0.444 -0.418 -0.000952
-0.536  0.199 0.0374
 0.361 -0.405 0.0374
 0.614 -0.103 -0.0393
 0.614 -0.569 -0.0316
 0.568 -0.569 -0.0316
 0.499  0.350 0.0220
-0.460  0.337 -0.0316
0.00801  0.108 -0.000952
 0.568  0.350 -0.0470
 0.667 0.0342 -0.0393
-0.513 -0.569 -0.0393
-0.0457  0.108 -0.000952
-0.460  0.337 0.0527
-0.475 0.0431 0.0625
-0.613 0.0348 0.0144
-0.0303  0.108 0.0297
-0.276  0.199 -0.0316
-0.0380  0.399 -0.0470
 0.453 0.0348 0.0374
 0.685 -0.549 0.0614
-0.0380  0.399 0.00673
 0.246 -0.102 0.0272
 0.660 0.0469 0.0374
 0.232  0.628 0.00529
-0.228  0.338 -0.0375
-0.0414  0.409 0.0616
-0.0763  0.412 -0.00866
 0.292 -0.103 0.0297
-0.228 -0.00874 0.00538
 0.476 -0.406 -0.0163
-0.0610  0.248 -0.0316
 0.681 -0.397 0.0221
-0.682  0.658 0.00548
-0.0994  0.108 -0.0316
-0.322  0.199 -0.0546
 0.115  0.549 -0.00862
-0.559  0.198 -0.00866
 0.225  0.658 -0.0150
-0.211  0.436 -0.0189
 0.368  0.479 0.0620
 0.522 -0.104 -0.00860
 0.330 -0.569 -0.0700
-0.0457 -0.198  0.160
-0.340 -0.105 0.0620
 0.430 -0.418 0.0374
 0.645 -0.255 -0.00859
0.0694 -0.198 -0.0546
0.0617  0.562 -0.00859
-0.314 -0.104 -0.00860
 0.307 -0.255 -0.0469
-0.368 -0.116 -0.000932
 0.345  0.478 0.0221
 0.691 -0.607 -0.0204
-0.233 0.0559 -0.0623
-0.229  0.478 -0.0546
 0.675  0.184 -0.0317
 0.606 -0.255 0.0297
 0.691  0.306 0.00571
-0.657  0.493 0.0585
 0.138 -0.203  0.185
-0.322 -0.418 -0.00862
-0.337 -0.104 0.00673
-0.644  0.490 -0.0316
-0.567 -0.199 -0.000932
 0.575 0.0348 0.0374
-0.651 -0.199 -0.0163
-0.536 -0.199 0.0144
-0.506 0.0479 0.0527
-0.130  0.399 -0.000952
-0.644 0.0348 -0.0546
-0.656 -0.117 0.0374
-0.368 0.0348 -0.00862
-0.253 -0.211 0.0911
-0.211 -0.177 -0.0189
-0.375  0.478 0.0221
 0.675  0.476 0.0144
 0.169  0.399 0.0297
 0.200 -0.285  0.152
-0.582 -0.556 0.0527
-0.0457  0.412 -0.0700
 0.691 -0.354 0.00571
-0.0687 -0.262 -0.0805
-0.682 -0.476 -0.0204
 0.652  0.185 -0.0546
-0.682  0.574 0.00561
 0.248 -0.268 -0.0760
 0.545 -0.105 -0.0795
-0.232 -0.216 0.0116
-0.306  0.337 0.0451
 0.499 0.0348 0.0527
 0.276 -0.569 0.0374
 0.325 0.0359 -0.0795
-0.595 -0.113 -0.0795
 0.703 -0.525 0.00343
 0.667 -0.558 -0.0795
-0.199 -0.216  0.186
 0.232 -0.400 -0.0202
 0.232 0.0603 0.00544
 0.660 0.0479 -0.0623
-0.216 -0.300 -0.0202
-0.605 -0.556 -0.0623
 0.253 -0.414 0.0628
 0.698  0.712 -0.0240
 0.192  0.254 0.0628
 0.230 -0.269 0.0141
0.0387  0.114 -0.0805
-0.460 -0.113 0.0620
-0.205  0.243 -0.00879
-0.0891  0.250 -0.0795
 0.221  0.104 -0.00366
-0.368  0.478 -0.0239
 0.228  0.270 -0.0336
-0.204  0.125 -0.0502
-0.659 -0.212 0.0142
-0.184  0.549 0.0144
 0.422 -0.405 -0.00860
 0.529  0.185 -0.0163
-0.559 -0.211 -0.0393
 0.384 -0.103 -0.000972
 0.345 -0.267 0.0220
-0.345 -0.418 -0.0316
-0.314  0.337 -0.0393
-0.590 -0.405 -0.0546
-0.467 -0.405 -0.000932
 0.637 -0.556 -0.0316
 0.422  0.350 -0.00862
 0.491 -0.569 0.0374
-0.582  0.350 -0.0546
 0.552  0.199 -0.0240
-0.161  0.121 0.0374
-0.575 -0.116 -0.00860
 0.368  0.185 -0.0239
-0.0533  0.108 0.0451
-0.208  0.270 0.0368
-0.591 -0.110 0.0625
0.0387 -0.285  0.175
-0.613 -0.405 0.0374
-0.659 -0.211 0.0527
-0.253  0.337 -0.0760
-0.414 -0.569 -0.0163
 0.703  0.183 -0.0190
0.0694  0.412 0.0144
-0.429 -0.405 -0.0546
-0.667 -0.213  0.114
 0.640  0.488 -0.0770
 0.399 -0.406 -0.0239
-0.345 -0.569 -0.0546
-0.209  0.698 -0.0470
-0.659 -0.421 0.00649
0.0234 -0.198 -0.0546
-0.644 -0.116 -0.0623
-0.230 -0.199 0.0987
-0.253 -0.406 -0.0163
-0.590 -0.198 -0.0546
-0.383  0.199 -0.0546
 0.706 -0.0471 -0.00175
 0.691  0.275 0.00571
 0.606 0.0348 0.0451
-0.675 -0.346 -0.0217
 0.583 -0.103 0.0585
 0.629 -0.103 0.0585
-0.391 -0.418 -0.0760
-0.582  0.478 0.0374
-0.671 0.0382 -0.0311
 0.660 -0.557 -0.00860
-0.590  0.199 0.0451
 0.703 -0.453 -0.0190
-0.253 -0.211 -0.0470
-0.232  0.476 0.0297
 0.227  0.520 0.00327
 0.232 -0.423 0.00542
 0.192  0.412 -0.0700
 0.252  0.498 -0.00664
-0.383  0.349 0.00670
 0.172 -0.282 -0.0795
 0.675  0.476 -0.0164
-0.115 -0.285  0.160
-0.184  0.549 -0.0546
0.0924 -0.284  0.181
 0.568 -0.418 -0.0546
 0.514  0.483 -0.0804
-0.613 -0.406 -0.0316
-0.644 -0.116 -0.0163
 0.522 0.0348 -0.0240
 0.407 -0.405 0.0527
 0.322  0.337 -0.0239
-0.552 -0.418 -0.0316
-0.161  0.248 -0.0239
 0.248  0.219 0.00314
 0.146  0.399 -0.00862
-0.228  0.405 0.00538
 0.461  0.478 0.0144
 0.691 -0.338 -0.0393
-0.184  0.399 0.0374
-0.345  0.192 -0.0804
 0.138 -0.285  0.160
-0.291  0.478 -0.0393
 0.207 -0.285 -0.0239
 0.443 -0.257 0.0620
 0.686  0.197 -0.0760
 0.686 -0.298 -0.0190
 0.394  0.187 -0.0795
 0.430  0.185 0.0527
-0.682 -0.599 0.00566
 0.292  0.478 0.0297
 0.683 -0.396 -0.0393
-0.669  0.347 -0.0794
-0.0795 -0.199  0.185
 0.506 -0.406 0.0582
-0.687 -0.0701 0.00339
-0.659 -0.211 -0.0470
 0.200  0.563 -0.0623
-0.663 -0.550 -0.0572
 0.338 0.0348 0.0374
 0.591  0.186 0.0585
 0.248 -0.203 0.00321
-0.567 -0.569 -0.0623
 0.244 0.0986 -0.0201
 0.245 -0.548 -0.0546
 0.614 -0.558 -0.0795
 0.284 -0.105 -0.0795
-0.260 -0.116 -0.0760
-0.211  0.487 0.00328
 0.691  0.122 -0.0204
-0.687  0.492 -0.0190
-0.521 -0.418 0.0527
0.0381 -0.203  0.185
-0.209  0.704 -0.0163
-0.228  0.152 -0.0201
 0.276  0.478 -0.0469
 0.655 -0.113 -0.0795
-0.0687  0.399 -0.0546
 0.244 0.00660 0.00540
-0.687 -0.246 0.00339
-0.667 -0.396 -0.0393
-0.434  0.479 -0.0795
-0.498  0.478 -0.0699
-0.536  0.337 -0.0623
-0.690 -0.538 -0.00179
-0.675 -0.484 0.00571
 0.414 -0.267 -0.0546
 0.276 -0.405 0.0374
 0.322 -0.103 -0.0546
-0.329  0.350 -0.0546
-0.513  0.185 -0.00861
0.00803  0.248 -0.000932
-0.234 -0.430 -0.00879
-0.475  0.490 0.0194
 0.460 -0.418 0.0451
 0.422 0.0479 -0.000942
 0.245  0.477 0.0476
-0.605 -0.211  0.114
-0.352  0.187 0.0620
 0.177  0.549 -0.0546
 0.375 -0.110 0.0625
-0.491 0.0348 -0.000952
-0.375 -0.103 0.0297
-0.360 0.0479 -0.0699
-0.437 0.0348 -0.0546
-0.138  0.412 0.0374
-0.283 -0.116 -0.0316
 0.591 -0.405 -0.0316
 0.391  0.350 0.0297
-0.506  0.350 -0.0546
-0.345  0.337 -0.0393
 0.224  0.137 -0.0160
 0.606  0.478 0.0527
-0.131  0.257 0.0624
 0.269  0.185 0.00673
-0.598  0.350 0.0374
-0.661 -0.571 -0.0393
-0.513 -0.103 0.0297
 0.499 -0.116 0.0297
-0.0687  0.412 0.0297
 0.249  0.628 -0.0150
 0.667 -0.557 0.0221
-0.582 -0.116 0.0374
 0.575 0.0348 -0.00862
 0.591 0.0479 -0.0239
0.000343  0.399 0.0297
-0.521 0.0348 -0.0316
-0.253 -0.103 -0.0240
-0.682 -0.392 0.00565
 0.552 -0.418 0.0374
-0.210  0.400 -0.0444
-0.666  0.129 -0.00882
0.0234  0.261 -0.0163
-0.337 -0.198 0.0910
-0.582 -0.198 0.0374
-0.437 -0.557 -0.000972
-0.320  0.490 -0.00676
 0.660 -0.254 -0.0760
 0.208  0.399 0.00673
 0.537 -0.267 -0.000952
-0.329  0.337 0.0144
-0.506  0.350 0.0451
-0.115  0.261 -0.00866
-0.567 -0.116 -0.0469
0.0234  0.562 -0.0163
 0.100  0.399 0.0144
-0.421 -0.103 -0.000972
-0.266  0.187 -0.0795
 0.252 -0.420 -0.0470
 0.706  0.329 -0.00175
-0.208  0.571 0.0214
 0.161  0.549 -0.0240
-0.184  0.257 -0.0805
 0.698 -0.318 -0.0791
-0.686 -0.199 0.0604
 0.269  0.478 0.0585
 0.263 -0.570 0.00674
 0.682  0.476 -0.0546
 0.227  0.571 0.0348
-0.598  0.337 -0.000932
-0.406  0.185 -0.00861
-0.452 -0.206  0.147
0.0924  0.108 -0.0240
-0.227 -0.417 0.0115
0.0770  0.549 0.00672
-0.658  0.352 -0.0521
-0.0764  0.549 -0.0546
0.0387  0.120 -0.00863
-0.0994  0.108 -0.0623
-0.229 -0.0954 0.0502
 0.361 -0.569 -0.0316
 0.284 -0.557 -0.0393
-0.314 -0.103 -0.0760
 0.668  0.337 -0.0383
-0.291 -0.211  0.114
 0.249  0.398 -0.00898
 0.247 -0.245 0.0584
-0.375  0.185 0.0221
-0.322  0.198 0.0374
 0.115  0.248 -0.0546
-0.667 -0.396 0.0374
-0.291 0.0348 -0.0546
 0.680 -0.272 -0.0184
 0.506 -0.563 0.0625
-0.613 -0.199 -0.000952
-0.138  0.399 -0.0393
 0.660  0.478 -0.0393
 0.361 -0.267 -0.00863
-0.260 -0.104 0.0144
-0.209  0.272 0.0120
-0.0610 -0.285  0.175
-0.337 0.0469 -0.000922
 0.660 -0.406 0.0450
-0.306 -0.557 0.0374
-0.345  0.185 -0.00861
 0.629 -0.406 0.0144
 0.427  0.490 -0.0203
 0.250 -0.277 -0.00879
 0.529  0.488 0.0625
 0.249 -0.323 -0.00900
-0.221 -0.230 0.0911
-0.670 -0.567 0.0374
-0.168  0.120 -0.0240
-0.216 -0.523 0.00549
-0.651  0.197 -0.0316
 0.307  0.199 0.0374
-0.231 -0.0941 -0.0546
 0.667  0.349 -0.000922
 0.227 -0.282 0.0757
 0.681 -0.244 -0.0310
-0.290  0.490 0.0378
 0.685  0.520 0.00343
 0.249 -0.461 -0.00197
 0.468 -0.110 0.0625
-0.209 -0.330 -0.0316
-0.231 0.0568 0.0374
-0.230 -0.547 -0.0311
 0.249  0.207 0.0348
 0.660  0.198 0.0374
 0.200 -0.198 0.00673
 0.249  0.313 -0.00197
-0.231  0.638 -0.0184
 0.220  0.415 -0.0470
 0.686  0.377 -0.0190
 0.245  0.355 0.0318
-0.232 0.0334 0.0297
 0.100 -0.199 0.0910
-0.391 -0.418 0.0374
 0.228 -0.231  0.114
 0.229 -0.254  0.137
-0.231  0.569 -0.0187
 0.192 -0.269  0.186
-0.161 -0.285  0.114
 0.338 -0.556 0.0527
-0.299 0.0479 -0.0316
 0.345 -0.103 0.0220
