ply
format ascii 1.0
element vertex 2048
property float x
property float y
property float z
end_header
-0.574  0.196 0.0497
 0.560 -0.804  0.190
 0.562  0.436 -0.155
-0.459 -0.805  0.166
0.0628 -0.194 -0.223
0.0134  0.439  0.196
 0.556 -0.119  0.196
-0.544 -0.336 -0.111
-0.207 -0.129  0.193
 0.469 -0.0364 -0.241
 0.454 -0.455 -0.0468
-0.177  0.189 -0.0989
 0.447  0.265  0.187
 0.166 -0.0475  0.125
 0.193  0.265 -0.0989
-0.574 -0.133  0.187
-0.410 -0.0360 -0.244
-0.345  0.443  0.156
-0.472 -0.455  0.196
-0.485  0.435 -0.160
-0.0374  0.443 -0.0875
 0.562 0.0934 -0.0120
-0.0606 -0.0483 -0.0257
 0.556 -0.517  0.196
 0.263  0.444 0.0898
 0.433 -0.195 -0.0257
-0.570 -0.592 -0.00442
-0.218 -0.205 -0.218
 0.241 -0.0357 -0.129
-0.369 -0.0483 0.0154
-0.572  0.441 0.0784
-0.461  0.203 -0.159
-0.574 -0.0917 -0.0874
-0.266  0.403 -0.0744
 0.447  0.231 -0.155
 0.546  0.443 0.0825
 0.450 -0.663 0.0481
-0.459 0.0728  0.192
 0.447 -0.332  0.166
 0.338 -0.223 -0.218
-0.0812 -0.0360 -0.244
 0.344 -0.140  0.196
-0.458 -0.263 0.0703
0.0765 0.0865 -0.101
 0.364  0.416 -0.0989
 0.461 0.0591  0.187
-0.567 -0.633  0.196
-0.150  0.444 0.0824
-0.469  0.293  0.195
-0.0201 -0.0517  0.191
 0.560 -0.256 -0.159
-0.410 -0.235 -0.217
-0.225 0.00422 -0.0989
 0.562 -0.0780 -0.0874
 0.337 -0.0475 0.0291
 0.562 -0.318 0.0154
-0.390 -0.133  0.196
 0.153  0.442 -0.0924
-0.458  0.326 -0.00513
 0.548  0.272 0.0223
 0.330  0.114 -0.0825
-0.454 -0.435 0.00919
0.00795  0.272 -0.0825
 0.406  0.435  0.196
-0.574 0.0865 -0.0943
 0.124 -0.0379 -0.248
-0.574 0.00422 0.0497
-0.335  0.128 -0.0825
-0.574 -0.297  0.192
 0.111 -0.0509 -0.0257
 0.562 -0.551 0.0154
-0.198 -0.0509 0.0566
-0.459 -0.688 0.0646
-0.239 -0.0379 -0.248
-0.444 -0.174 -0.0668
0.0560  0.404 0.0292
 0.502 -0.661  0.196
-0.459  0.100 0.0222
 0.412 -0.0164 -0.0989
 0.536 0.0728 -0.160
 0.442 -0.496 0.0977
 0.562  0.155  0.132
-0.574  0.279 -0.0874
 0.406  0.404 0.0497
 0.166  0.406  0.195
 0.562 -0.174 0.0497
-0.574 -0.352 0.0360
 0.562 -0.00947 0.0977
-0.574 -0.160 0.0429
-0.432 0.0180 -0.0987
-0.355  0.285 -0.101
-0.488  0.440  0.196
-0.0675 0.0796 -0.101
 0.447  0.169 0.0291
 0.560  0.352  0.195
 0.207 -0.169 -0.226
-0.122  0.326 -0.101
 0.447 -0.798  0.105
-0.574 -0.489  0.105
-0.574  0.169  0.187
 0.330 -0.0479 -0.242
0.0148 -0.0357 -0.142
-0.574 -0.757 0.0977
 0.461 -0.160 -0.160
 0.433 -0.201  0.111
 0.447 0.0317 0.0291
 0.562  0.299 -0.142
-0.572 -0.206 -0.159
-0.472 -0.0507  0.118
 0.337  0.285 -0.0825
-0.383  0.443 0.0281
-0.0880 -0.174 -0.226
 0.560 -0.252  0.195
-0.561  0.416 -0.0531
 0.430 -0.0576  0.125
 0.488  0.443 -0.0457
-0.225  0.406  0.195
0.0697 -0.147  0.196
 0.214 -0.147  0.196
-0.301 -0.0483  0.153
 0.562 -0.387  0.146
 0.562 -0.722 0.0908
-0.458  0.196  0.105
0.0217 -0.0509 0.0703
 0.471 -0.318 -0.0941
-0.561 -0.469 -0.0469
-0.454 -0.544 0.0703
 0.447  0.320 -0.0326
 0.548  0.183 -0.101
 0.442 -0.373 0.0497
-0.574  0.354  0.166
-0.574 -0.00947  0.192
 0.454  0.354 -0.160
-0.321 -0.140 -0.209
-0.335 -0.0509 -0.122
-0.464 -0.228  0.196
 0.193  0.114 -0.0989
-0.479 -0.0849 -0.160
-0.459  0.210 -0.0257
-0.462 -0.691  0.195
-0.458 -0.572  0.187
 0.275 -0.0475  0.173
-0.109  0.406  0.195
 0.445 0.0934 -0.0791
 0.562 -0.435 -0.0120
-0.129 -0.0483  0.153
-0.460 -0.566 -0.0430
 0.461 -0.0849 -0.00514
-0.458  0.388 0.0977
-0.390  0.395 -0.0989
 0.467 -0.441  0.195
-0.444 -0.151 0.0497
-0.459 -0.311 -0.0396
-0.472  0.313 -0.129
-0.109 -0.0359 -0.129
 0.282  0.406  0.195
 0.241  0.404 -0.0326
-0.472 -0.0643 -0.0326
0.0902  0.347 -0.101
 0.221 -0.0509 0.00171
 0.460 -0.568 -0.0386
 0.104  0.196 -0.101
-0.0388  0.444 0.0736
 0.548 -0.195 -0.0668
-0.458 -0.339  0.187
-0.561  0.320 0.0360
-0.109  0.404 -0.0120
 0.448 -0.564  0.192
-0.560 -0.236 -0.0531
-0.253  0.404 0.0840
-0.246  0.292 -0.101
-0.533 0.0111 -0.161
 0.149  0.444 0.0697
-0.574 -0.421  0.192
 0.562  0.368 -0.0394
-0.561  0.169 -0.160
-0.571 -0.797  0.195
 0.460  0.285 0.0840
-0.0537 -0.151  0.195
-0.0743  0.203 -0.0825
 0.447  0.162  0.166
 0.562 -0.592  0.111
-0.479 -0.256 -0.143
 0.118 -0.0509 -0.142
 0.562  0.258  0.146
-0.561  0.182 -0.0531
-0.574  0.107  0.105
-0.574  0.368 -0.142
 0.562 0.0591  0.173
 0.562 -0.476 0.0839
 0.262  0.189 -0.101
-0.163 -0.0509 -0.0394
-0.454 -0.366 0.0840
-0.280 -0.0483 -0.0326
-0.574 -0.640 0.0840
-0.561 -0.531  0.195
 0.221 -0.0691 -0.227
-0.574 -0.263 0.0977
0.0398 -0.0966 -0.225
 0.548 -0.0232 -0.00514
-0.452  0.128 -0.0817
0.0880 -0.0486  0.195
-0.483  0.443 0.00227
-0.163 -0.112 -0.209
 0.458 -0.156  0.195
 0.455 -0.763  0.196
0.0765  0.404  0.125
 0.562 -0.263 0.0977
 0.520  0.441  0.192
-0.561  0.100 0.00172
 0.460  0.361  0.146
-0.574  0.258  0.125
0.0148  0.162 -0.0825
-0.423 -0.139 -0.224
-0.239  0.100 -0.101
 0.323 -0.0475 -0.0668
-0.143  0.429 -0.0989
 0.548  0.347 0.0977
-0.458  0.292 0.0909
 0.484 -0.262 0.0279
 0.502 -0.0301 -0.144
 0.448 -0.229 -0.226
 0.447  0.224 -0.0600
-0.205  0.404 0.00173
 0.160 0.0248 -0.0989
-0.469  0.169  0.195
-0.273  0.203 -0.0833
 0.255  0.340 -0.101
0.0565  0.443 -0.0869
 0.396 -0.147 -0.226
 0.461  0.100 0.0977
-0.472 0.0385 0.0908
 0.330  0.404 -0.00513
-0.490 -0.414 -0.0741
 0.547 -0.647 0.0380
 0.262 0.0522 -0.101
-0.574 -0.0712  0.118
-0.486 -0.784 0.0802
-0.574 0.00422 -0.0531
-0.493 0.0934 -0.161
 0.431 -0.112 -0.0874
-0.328 0.0385 -0.101
 0.364  0.196 -0.101
 0.460  0.141 -0.160
 0.131 -0.119 -0.209
 0.262 -0.0509 0.0840
-0.472 -0.133  0.159
 0.289 -0.133 -0.226
-0.390  0.196 -0.101
 0.145  0.404 -0.0120
 0.449 0.0408 -0.159
 0.556 -0.167 -0.160
-0.0949 -0.0509 0.0703
 0.562 -0.0986 0.0977
-0.157 0.0728 -0.0833
 0.344  0.404  0.132
 0.450  0.444  0.118
-0.0332  0.347 -0.101
 0.444 -0.244 -0.138
 0.548 0.0316 -0.0737
 0.453 -0.250  0.196
 0.442 -0.640  0.132
 0.454  0.444 -0.126
0.0217 -0.0483 -0.0531
-0.397 -0.0479  0.180
 0.337 -0.0509 -0.156
 0.551 -0.0232  0.196
-0.0194  0.404 -0.0120
-0.454 -0.469  0.111
 0.529 -0.366 -0.0533
-0.321 -0.0357 -0.225
 0.541 -0.804  0.107
-0.472  0.402 -0.0806
 0.522 -0.510 -0.0469
-0.574 -0.0712 -0.00514
 0.562 0.0728 0.0703
-0.574 -0.373  0.118
 0.548 -0.181  0.139
 0.359 -0.0568  0.193
-0.314  0.404 -0.00513
-0.198 -0.0509 -0.156
 0.460 -0.119 0.0771
 0.562 -0.716  0.180
 0.562 -0.105 -0.00514
-0.280 -0.0475 0.0703
-0.499 -0.167 -0.144
-0.00576 0.0248 -0.0825
-0.574 -0.215  0.173
-0.218 -0.0483  0.166
 0.344 0.0316 -0.0825
-0.287 -0.151  0.195
-0.564  0.443  0.164
-0.376 -0.0509 0.0977
-0.538 -0.262 0.0219
 0.179 -0.0509 -0.0737
 0.548  0.183 0.0566
-0.0400 -0.0986 -0.209
-0.526  0.251 -0.162
-0.410  0.416  0.196
-0.567 -0.380 -0.0468
-0.561 0.0701  0.195
 0.337 -0.0475  0.111
-0.472 0.0111 -0.00514
 0.447 -0.304 0.0908
-0.342  0.404 0.0840
 0.445 -0.583 0.0382
 0.447 -0.325 -0.0188
0.0834 -0.00267 -0.0825
 0.536 -0.332  0.196
-0.0538  0.443  0.153
 0.166  0.361 -0.0828
 0.529  0.231 -0.161
 0.515 -0.263 -0.0460
 0.472  0.443 0.0354
-0.454 -0.620  0.125
-0.572 -0.124 -0.159
 0.145 -0.0509 0.0497
-0.390 -0.0483 -0.0600
 0.550 -0.599  0.195
-0.163 -0.0357 -0.225
-0.472  0.121  0.118
-0.500 -0.618 0.0181
 0.399 -0.0575 -0.207
 0.392 -0.0509 -0.0257
 0.289  0.435 -0.0985
-0.574 -0.462 0.0291
-0.129 -0.112  0.196
-0.410 -0.0509 -0.149
-0.574 -0.709  0.180
 0.118  0.272 -0.0833
-0.308 -0.213 -0.226
0.0902 -0.0509  0.111
 0.218  0.443  0.154
 0.406  0.347 -0.100
 0.159 -0.0780  0.196
-0.253 -0.105 -0.209
-0.469 -0.0298  0.195
 0.461 0.0248  0.111
 0.562  0.292 -0.0531
 0.461 0.0111 -0.0463
-0.205  0.354 -0.0825
-0.321  0.354 -0.101
-0.560 0.0248  0.125
0.0981  0.441  0.192
-0.437 -0.0531 0.0497
-0.445 -0.215 0.00857
 0.443 -0.496 0.0162
 0.447 -0.0780  0.196
 0.543 -0.0917 -0.160
-0.444  0.258 -0.0825
 0.560  0.440 -0.0164
-0.273 -0.0357 -0.163
 0.430 -0.0426 0.0497
 0.548  0.183 -0.0257
 0.461  0.203  0.105
 0.460  0.258 0.00857
 0.548  0.368 -0.115
-0.566  0.440 -0.157
-0.165  0.265 -0.0997
 0.460  0.347 0.0428
 0.442 -0.414  0.111
-0.472 -0.208  0.118
 0.269  0.265 -0.101
 0.562 -0.359 0.0771
-0.486 -0.483 -0.0469
 0.460  0.285 -0.108
 0.442 -0.729  0.132
 0.562  0.100 -0.0943
-0.574 -0.140 -0.0326
-0.574 -0.304 -0.0257
 0.135 -0.195 -0.214
 0.426  0.404 -0.0600
-0.273  0.443  0.153
-0.574  0.285  0.192
-0.369  0.443 -0.0495
 0.562 -0.236 0.00174
 0.490 -0.719 0.0693
 0.269 -0.207 -0.226
-0.0400 -0.0509 -0.0943
-0.458 -0.284  0.139
 0.221  0.404 0.0360
-0.560 -0.147  0.111
 0.548  0.381 0.0291
-0.191  0.404  0.125
-0.547 -0.0575 -0.144
-0.390 0.0865 -0.101
-0.572 -0.274 -0.140
-0.458  0.231 0.0429
 0.447  0.107 -0.00513
0.00797 -0.0379 -0.248
-0.499 -0.757  0.196
 0.549  0.183  0.195
 0.433 -0.174 0.0429
 0.173 -0.0365 -0.183
 0.562 0.00422 -0.149
 0.323  0.354 -0.0825
-0.574 -0.572 0.0977
 0.562 -0.455  0.159
 0.179  0.196 -0.0989
-0.561  0.333 -0.0326
-0.480 -0.0393 -0.246
-0.458  0.368  0.180
-0.459 0.0659 -0.0463
 0.536  0.148 -0.160
-0.443 -0.0780 -0.0943
-0.574 -0.181 -0.0943
-0.561  0.402 0.0223
-0.465 0.0248 -0.160
 0.449 -0.105 -0.211
-0.454 -0.359 0.0154
0.00110 0.0934 -0.0825
-0.0400 -0.0483  0.125
 0.447 -0.263 -0.0531
-0.122  0.148 -0.101
-0.376 -0.0849 -0.210
-0.0537 -0.0357 -0.170
-0.574  0.237 -0.00514
 0.511 -0.595 -0.00143
-0.441  0.444  0.133
0.0560 -0.0365 -0.197
 0.540 -0.297 -0.108
 0.454 -0.387 -0.0468
-0.170  0.443  0.180
-0.534 -0.366  0.196
-0.525 -0.679 0.0545
 0.389  0.444 -0.00263
-0.534 -0.805  0.124
-0.102  0.404  0.125
-0.567  0.100 -0.160
 0.562  0.416  0.146
 0.426  0.169 -0.0989
 0.227  0.409 -0.0989
0.0285 -0.0509  0.139
-0.534 -0.531 -0.0469
 0.442 -0.572  0.125
 0.316  0.404 0.0703
 0.507 -0.427 -0.0769
-0.438  0.404 0.0360
0.00468 -0.119  0.194
 0.502  0.409 -0.160
-0.560  0.189  0.125
 0.458 -0.0126  0.195
-0.102 0.0111 -0.0825
 0.137  0.444  0.138
0.0285  0.361 -0.0825
-0.0812  0.388 -0.0828
-0.493 -0.633  0.196
-0.444 -0.201 -0.135
 0.495  0.292 -0.162
 0.474 -0.0986 -0.144
-0.410  0.333 -0.101
-0.513  0.430  0.105
 0.492 -0.806  0.164
 0.562 -0.654  0.132
-0.369 -0.185 -0.225
 0.138 -0.140  0.196
 0.562  0.429 -0.0806
 0.399  0.265 -0.0833
0.00111 -0.174 -0.226
-0.502 -0.263 -0.0420
 0.186  0.404  0.105
-0.486  0.368 -0.160
 0.522 -0.407  0.196
-0.454 -0.400  0.139
 0.255 -0.0509 -0.0531
-0.472  0.169 0.0223
-0.561 -0.0986 0.0566
 0.343  0.442  0.185
-0.0743  0.265 -0.101
-0.454 -0.723  0.139
 0.444 -0.428 0.0107
-0.574 -0.531 0.0154
-0.486 -0.352 -0.0874
 0.226 -0.0826  0.193
0.0902  0.443 -0.0326
-0.458  0.231  0.180
-0.225 -0.0509 -0.0669
 0.500 -0.263  0.112
-0.560 0.0659 0.0566
 0.138 0.0865 -0.0825
-0.287 -0.0164 -0.0989
-0.534  0.313 -0.144
-0.561  0.361 0.0840
0.00796 -0.0509 0.00857
-0.472 -0.112 0.00857
-0.205  0.416 -0.0989
 0.562  0.121  0.187
-0.136 -0.0509 0.0223
-0.472 0.0659 -0.108
-0.560 -0.0717  0.192
 0.269 -0.0509 -0.190
 0.562 -0.0507 0.0497
-0.163 -0.00947 -0.0989
-0.345 -0.0810  0.193
 0.461 -0.208 -0.0806
-0.454 -0.517  0.152
 0.276 -0.146  0.194
 0.460  0.162 -0.0326
 0.515 -0.215 -0.144
 0.447 -0.510  0.161
-0.493 -0.284  0.196
 0.448 -0.701  0.192
-0.459 0.0248  0.153
 0.461 -0.126  0.139
-0.282  0.444 0.0471
-0.472 -0.229 -0.0874
 0.193  0.443 -0.0326
-0.163  0.404 -0.0463
 0.268  0.114 -0.0826
-0.443 -0.112 0.0977
-0.561  0.217 -0.122
0.0148  0.404  0.146
 0.289 -0.00267 -0.0989
-0.397  0.404  0.118
0.00797  0.404 0.0703
-0.301  0.258 -0.0825
 0.562 -0.414 0.0497
0.0765 -0.0509 0.0429
-0.0743 -0.0849  0.196
 0.460  0.388 0.0908
 0.290  0.443 -0.0378
0.0285  0.443 -0.0326
 0.454  0.395  0.196
 0.461 -0.0438 -0.0737
-0.109 -0.0904 -0.224
 0.111  0.400 -0.0796
-0.249  0.444 -0.00995
 0.548 -0.0712  0.159
-0.0828  0.444 0.0323
 0.561 -0.566 -0.0431
 0.562 -0.140 -0.0874
 0.358 -0.0991 -0.226
 0.425 -0.0531 -0.145
 0.562  0.292 0.0771
-0.443 -0.126 -0.135
 0.509 -0.736  0.196
-0.163 -0.181 -0.226
 0.467 -0.380  0.196
-0.472  0.388 -0.0189
-0.574 -0.215 0.0154
-0.273 0.0522 -0.0825
 0.392  0.121 -0.0825
-0.479 -0.393  0.196
-0.459  0.141 -0.155
-0.294  0.404  0.192
 0.200 -0.0509 0.0771
 0.406  0.404  0.146
-0.232 -0.0483 0.00171
 0.562 -0.297  0.146
-0.574 -0.428 0.0771
-0.454 -0.496 0.0360
-0.459  0.313 -0.0668
-0.163 -0.0483  0.105
-0.451 -0.195 -0.226
-0.376 0.00422 -0.0828
 0.339 -0.164 -0.226
 0.433 -0.234 0.0291
 0.548 -0.174 -0.0120
-0.472 -0.167 -0.0120
-0.574 -0.620  0.139
-0.191  0.128 -0.0825
 0.489 -0.262 -0.105
-0.574 -0.702  0.118
-0.472  0.210 -0.101
 0.455 -0.626  0.196
-0.445 -0.0849 -0.226
-0.0332 -0.0483 0.0497
-0.513 -0.496  0.196
 0.560 -0.190  0.195
-0.265 -0.0704  0.193
 0.548  0.224 0.0977
-0.328  0.210 -0.101
-0.472  0.265 -0.0120
-0.561  0.272 0.0703
 0.549  0.285  0.195
 0.269  0.404  0.139
 0.562 -0.524  0.139
 0.399 0.0659 -0.101
-0.438 -0.0849  0.196
-0.273 -0.167 -0.225
-0.170 -0.0575  0.196
-0.458 -0.0231 -0.129
-0.472 -0.126 -0.0531
-0.0469  0.406  0.195
-0.516  0.443 -0.0763
 0.548  0.237 -0.0600
-0.472  0.340  0.125
 0.548 0.0454 0.0223
-0.560 0.0111 -0.108
 0.548 0.0454  0.118
-0.560  0.231  0.173
-0.216 -0.148 -0.225
-0.474  0.443 0.0649
 0.461 -0.147 0.00172
-0.561  0.141 0.0428
 0.138  0.155 -0.0825
 0.207 0.0522 -0.0828
-0.143  0.404 0.0429
 0.562 -0.304 -0.0396
-0.472 -0.0364 -0.190
 0.392 -0.208 -0.226
 0.461  0.217  0.159
 0.562 -0.531 0.0703
-0.0195  0.217 -0.0825
0.0628  0.258 -0.0831
 0.111  0.404 0.0429
 0.562  0.326 0.0292
 0.562 -0.489 0.0292
-0.560 0.0454 -0.0120
-0.561  0.313  0.125
 0.460  0.374 -0.0257
 0.378 -0.0475 0.0703
-0.444 -0.181  0.173
-0.561  0.148 -0.108
 0.512 -0.354 -0.108
 0.495  0.182 -0.144
0.0948 -0.0792 -0.224
 0.562 -0.249 -0.0874
-0.458  0.258 -0.149
 0.447 -0.510 -0.0396
 0.488 -0.496  0.196
-0.458 -0.303 0.0314
 0.460  0.388 -0.101
-0.00644  0.444 0.0286
 0.221 -0.0509  0.132
-0.458 0.0454 0.0360
 0.548  0.134 0.0291
 0.461  0.299  0.146
-0.229  0.444  0.114
 0.364 -0.0509 -0.108
0.0765  0.148 -0.101
-0.574 -0.318 0.0908
 0.461 -0.0301 0.00172
 0.508 0.0248 -0.144
-0.335 -0.0509 -0.0394
-0.574 -0.208  0.105
-0.574  0.272 -0.142
-0.454 -0.421 0.0771
 0.548 -0.0232 -0.0668
-0.280  0.134 -0.0825
-0.574  0.374 -0.0874
-0.207 -0.0790 -0.224
 0.227  0.406  0.195
-0.0675  0.134 -0.101
-0.459 -0.366 -0.0396
-0.511 -0.263 0.0864
-0.574 -0.428  0.132
-0.520 -0.289 -0.125
 0.275 -0.0509 0.00171
 0.234 -0.119 -0.210
 0.508  0.353 -0.162
 0.433 -0.201  0.180
 0.548  0.320  0.153
-0.517 -0.805  0.175
-0.302  0.440 -0.0927
 0.556 -0.661  0.195
 0.166  0.443 0.0184
-0.122 -0.0467 -0.0744
-0.560 -0.0164 -0.00514
 0.433 -0.181 -0.204
-0.211  0.244 -0.0829
-0.459 -0.0164 -0.0531
-0.459  0.148 -0.0326
0.0561 -0.0947  0.194
 0.200  0.320 -0.0825
 0.275  0.404 0.0360
-0.246 -0.0509  0.111
-0.458  0.347 0.0634
-0.444 -0.167 -0.177
 0.548  0.217 0.0154
-0.369  0.404 -0.00513
 0.463  0.443  0.169
-0.0743  0.404 0.0771
-0.518 -0.575 -0.0225
 0.469 -0.0364 -0.186
-0.574 -0.400 0.00172
-0.558  0.423 -0.108
 0.177 -0.0441 -0.245
 0.503 -0.263  0.181
-0.431  0.429 -0.0989
-0.513  0.203 -0.144
-0.376 -0.0357 -0.190
 0.442 -0.531 0.0566
-0.506 -0.551  0.196
 0.406 -0.151  0.195
-0.460 -0.237 -0.188
-0.232  0.176 -0.100
-0.539  0.443 -0.00219
 0.221  0.162 -0.0833
 0.104 -0.0509 -0.0806
 0.460 0.0865 -0.129
-0.301 -0.0509 0.0223
 0.207 -0.00947 -0.0989
 0.173 -0.0475 -0.0189
-0.143  0.374 -0.0989
-0.0126  0.395 -0.0989
 0.447 -0.284  0.146
-0.472 -0.00947 0.0429
-0.574 -0.592 0.0497
-0.335  0.404 -0.0531
 0.461 0.0385 -0.108
0.0560 -0.0509 -0.0120
-0.551 -0.260  0.160
-0.472 -0.160 0.0977
0.0423  0.210 -0.0833
0.0902 -0.151 -0.210
-0.454 -0.345  0.132
-0.0332  0.404  0.125
 0.481 -0.276 -0.155
 0.303  0.230 -0.0825
-0.122  0.210 -0.101
-0.472  0.244  0.132
 0.548 -0.119 0.0429
-0.459 -0.263 -0.00514
 0.284 -0.0945  0.193
0.0560  0.404 -0.0531
0.0560  0.410  0.196
-0.354  0.436 -0.0986
0.0354 -0.0164 -0.0989
-0.383  0.148 -0.0833
-0.543 -0.421 -0.0665
 0.562 -0.764  0.132
 0.562  0.231 -0.122
0.0354 -0.0475  0.192
-0.560  0.107  0.159
 0.297  0.443  0.161
 0.515  0.430 -0.101
 0.562 -0.599 0.0497
 0.562 -0.208 0.0977
 0.447  0.100  0.159
-0.527 -0.441  0.196
 0.406 -0.0509  0.173
 0.227  0.230 -0.0825
-0.0537 0.00474 -0.0991
 0.447  0.333  0.187
 0.447  0.231 0.0497
-0.364  0.444  0.107
 0.375  0.444  0.138
-0.229  0.443 -0.0641
 0.534 -0.262 0.0555
-0.472  0.409  0.153
 0.502  0.430  0.105
-0.231  0.444 0.0378
 0.289 -0.0509 -0.122
 0.131 -0.0475  0.166
-0.458 -0.616 0.0467
 0.444 -0.320 0.0429
-0.534 -0.236 -0.144
 0.562 -0.201 -0.115
 0.447 0.0591 -0.0394
-0.472 -0.215 0.0634
-0.455 -0.769  0.119
-0.574 -0.483  0.187
 0.556  0.402  0.196
-0.475 -0.288 -0.101
 0.447 -0.676 0.0967
0.0364  0.444 0.0582
 0.548 0.0111  0.159
-0.561  0.326 -0.0943
-0.574 -0.0507 0.0634
-0.549 -0.300 -0.0766
 0.562  0.395 0.0840
-0.574 -0.236 -0.101
 0.560  0.347 -0.159
 0.562 -0.0643 -0.0394
 0.442 -0.428 0.0634
 0.548 -0.119  0.146
-0.307 -0.0917 -0.210
-0.454 -0.668  0.111
-0.0812 -0.0509 0.0223
 0.447  0.155 0.0771
-0.561  0.169 -0.00514
0.0422 0.0385 -0.0825
-0.342 -0.147  0.196
 0.442 -0.359 0.0977
 0.316  0.404 -0.0531
-0.205  0.404 0.0703
 0.562 -0.483 -0.0257
-0.574  0.285 -0.0188
 0.488 -0.318  0.196
-0.574 -0.359  0.166
-0.472 -0.222 -0.0326
-0.424 -0.0509 0.00171
 0.124  0.404  0.111
-0.328 -0.0509  0.111
-0.171  0.320 -0.0989
 0.444 -0.625 0.0791
-0.458  0.121  0.180
-0.0332  0.292 -0.101
 0.562  0.141 -0.0668
 0.431 -0.140 -0.0463
 0.562  0.438 0.0359
 0.145  0.313 -0.0831
-0.574 -0.531  0.132
 0.371  0.404 0.0909
-0.443 -0.0849  0.139
-0.157 -0.0509 -0.129
-0.456  0.361 -0.103
 0.420 -0.0379 -0.247
 0.562  0.333 -0.0806
-0.198 0.0454 -0.0825
-0.355 -0.0475  0.153
-0.403  0.285 -0.0825
-0.136 -0.0357 -0.183
 0.562 -0.0507 -0.129
-0.109  0.100 -0.0833
 0.378  0.306 -0.101
 0.426  0.404 -0.00513
 0.450 -0.747 0.0762
 0.460 -0.00947 0.0703
-0.513 0.0522 -0.144
 0.508 -0.764 0.0783
-0.506  0.141 -0.144
-0.458 -0.585 0.00173
 0.338  0.444 -0.0345
-0.369  0.404  0.173
-0.342 -0.0475 0.0634
 0.460  0.299 0.0360
-0.0743 -0.0509  0.159
-0.574  0.395  0.192
 0.447 -0.791  0.153
 0.461 -0.160  0.105
-0.574  0.388  0.132
-0.0743  0.320 -0.101
-0.560 0.0522 -0.0600
0.0628 -0.0357 -0.135
-0.560 -0.188 -0.0463
 0.515 -0.455  0.196
-0.232 -0.0509 -0.115
 0.502 -0.606  0.196
0.0697  0.306 -0.0825
 0.234  0.404 0.0977
 0.562 -0.311 0.0839
-0.547 -0.750  0.196
 0.442 -0.462  0.132
 0.562 -0.633 0.0839
 0.138  0.230 -0.101
-0.417  0.404 -0.0600
 0.431 -0.119 -0.135
-0.218 -0.0357 -0.204
 0.316 -0.0363 -0.197
 0.460  0.134 -0.101
-0.574 -0.311  0.146
-0.534 -0.599  0.196
-0.472  0.155 0.0840
-0.424 -0.0475 0.0977
 0.103 -0.107  0.194
 0.330  0.162 -0.0825
-0.572 -0.686 0.0600
 0.548  0.272 -0.101
-0.472  0.176  0.146
 0.447 0.0591 0.0771
-0.0469  0.404 -0.0531
-0.472 -0.00947 0.0908
-0.459 0.0796  0.139
-0.454 -0.319 0.0771
 0.461 -0.229  0.139
-0.547 -0.167 -0.144
 0.447  0.326  0.105
-0.480  0.444 -0.113
-0.461 -0.119 -0.197
 0.193  0.404 -0.00513
-0.102  0.443  0.166
-0.218  0.443  0.166
-0.438  0.182 -0.0829
 0.460  0.279 -0.0531
 0.447  0.217 -0.0120
-0.0195  0.134 -0.101
 0.111 0.0522 -0.101
-0.101  0.444 0.0780
 0.385 -0.0357 -0.163
-0.545 -0.630 0.0270
 0.433 -0.234 0.0771
-0.456 -0.657  0.162
-0.307  0.404 0.0497
 0.508  0.430 -0.00515
-0.526 -0.378 -0.0850
0.0354 -0.147 -0.209
-0.0332 -0.147 -0.209
-0.115 0.0522 -0.101
 0.431 -0.0986 0.0291
 0.548 -0.236  0.153
 0.124  0.404  0.159
 0.316 -0.0849 -0.209
 0.449 -0.215 -0.177
 0.296  0.388 -0.0989
 0.449  0.301 -0.159
 0.562 -0.565  0.166
 0.152 -0.0337 -0.107
-0.458  0.402 -0.142
0.00200  0.444 0.0961
 0.461 -0.00947 -0.135
 0.173  0.404 -0.0668
-0.365 -0.0441 -0.245
-0.547 -0.790 0.0805
 0.515  0.430 0.0497
0.0560 -0.0366 -0.244
-0.572 -0.0209 -0.159
 0.248 -0.0379 -0.248
 0.393 -0.0909  0.193
-0.0832  0.440 -0.0941
 0.433 -0.195 -0.115
 0.522 -0.133 -0.161
 0.562 0.0522 -0.129
-0.504  0.443  0.148
-0.539  0.443 0.0456
 0.213  0.361 -0.0991
-0.541 -0.681  0.196
-0.0377 -0.0512 -0.239
-0.431 0.0659 -0.0828
-0.560 -0.105  0.146
-0.560 -0.0369  0.146
 0.385 -0.0475  0.118
-0.560 -0.0643 -0.0531
 0.241 -0.0475 0.0429
 0.562 -0.153  0.105
-0.574  0.162 0.0908
 0.548 0.0248 0.0703
-0.185  0.444 -0.0372
 0.296  0.306 -0.0825
-0.0400  0.176 -0.101
-0.301  0.404  0.105
-0.454 -0.585 0.0908
 0.461 -0.0849 -0.0531
 0.412 -0.0509 -0.0669
 0.447 0.0865 0.0360
0.0697  0.443 0.00857
-0.574 -0.236 0.0566
 0.548 0.0522 -0.0326
0.0422  0.114 -0.0825
 0.461 0.00422  0.153
 0.186 -0.0475  0.166
 0.562 -0.119 -0.129
-0.443 -0.0986 0.0497
-0.560  0.231 0.0908
-0.499 -0.0369 -0.144
 0.344 -0.0475 -0.0257
-0.574 -0.668  0.159
-0.314  0.169 -0.0825
 0.460 -0.0712 0.0703
-0.424 -0.0357 -0.190
-0.369  0.354 -0.101
 0.502 -0.469 -0.0469
-0.459 -0.263 -0.0600
-0.349 0.0796 -0.0825
0.0217  0.320 -0.101
 0.186 -0.0509 -0.142
0.0697  0.395 -0.0989
 0.337 0.0728 -0.101
-0.115  0.251 -0.0825
-0.307  0.299 -0.101
 0.431 -0.119  0.173
 0.548  0.196  0.146
 0.256 -0.160 -0.210
-0.458 -0.524 -0.0257
 0.548 -0.105 -0.0531
 0.131 -0.0575 -0.207
-0.472 0.0248 -0.0668
-0.459 0.0796 0.0771
 0.460  0.210 -0.101
-0.472  0.114 -0.122
-0.335  0.422  0.196
-0.294 -0.106  0.196
 0.424  0.443 -0.0829
-0.443 -0.0986 -0.0326
-0.246  0.354 -0.101
-0.376 -0.0337 -0.107
-0.0391 -0.193 -0.218
-0.0949 -0.0531 -0.203
-0.266  0.404 0.00173
-0.328 -0.00267 -0.0831
-0.282 -0.0573 -0.231
-0.321  0.444 0.0803
-0.0526  0.444 -0.00103
-0.493 -0.208 -0.161
-0.524 -0.263 -0.0812
 0.447 -0.414  0.166
-0.462 -0.527  0.195
-0.574 -0.791  0.139
-0.00576 -0.0232 -0.0825
-0.239  0.404  0.153
0.0971  0.404 -0.0120
-0.170  0.443  0.132
-0.472 -0.0507 0.0223
 0.419 0.0248 -0.0828
-0.493  0.430 -0.0394
 0.323 -0.0509  0.166
 0.351 -0.0164 -0.0831
 0.457  0.443 -0.0137
-0.314  0.404  0.153
-0.560 0.0316  0.173
-0.129 -0.153 -0.225
-0.499 -0.742 0.0748
-0.127  0.444 -0.00594
 0.275 -0.0904 -0.224
-0.438 -0.0461  0.159
-0.307 -0.0519  0.196
 0.145  0.443 -0.0326
 0.241  0.443 -0.0531
-0.470 0.0179  0.195
-0.458 -0.757  0.180
 0.303 0.0522 -0.0825
 0.241 0.0179 -0.0825
-0.526 -0.133 -0.162
 0.118  0.121 -0.101
 0.221 -0.0365 -0.197
 0.406  0.210 -0.100
-0.574 -0.592  0.180
 0.296 -0.0475 0.0566
 0.562 -0.366  0.187
-0.472  0.237 0.0840
-0.472  0.272 0.0360
 0.562  0.189 -0.142
 0.461  0.244  0.125
 0.548  0.299 -0.0120
-0.0743  0.404 0.0154
-0.560 -0.0301 -0.0806
-0.403  0.404 0.0634
0.0354  0.404  0.105
-0.574 -0.174 -0.00514
-0.447 -0.238  0.139
-0.472 -0.0712  0.173
-0.472  0.361 -0.0531
 0.234 0.0865 -0.101
 0.548 -0.0438  0.125
-0.574 -0.743  0.153
 0.548  0.244 0.0566
 0.461 -0.0301  0.111
 0.433 -0.167  0.139
-0.574 -0.167  0.159
-0.150  0.404  0.180
 0.548  0.374  0.153
-0.397  0.444  0.136
-0.143  0.404 0.0977
 0.447  0.340 -0.115
 0.492 -0.655 0.0427
 0.548 -0.222 0.0497
 0.364  0.404 0.0360
 0.179  0.404 0.0497
-0.0880 -0.0509  0.118
 0.173  0.404  0.146
-0.259  0.251 -0.101
-0.574 -0.112 0.00857
-0.177 -0.0509  0.153
 0.193 -0.105 -0.210
-0.00297  0.443  0.142
 0.141  0.443  0.181
 0.548 -0.00947 0.0360
 0.442 -0.373  0.139
-0.184 -0.0509 0.0154
-0.458  0.361 0.0223
0.0971 -0.0365 -0.183
-0.574 -0.00947 0.0908
 0.447 -0.366 -0.00529
-0.574  0.100 -0.0531
 0.548 -0.236 -0.0394
 0.447 -0.284 -0.00513
 0.562 -0.606  0.153
-0.191 -0.0509 -0.101
-0.472  0.326  0.166
 0.461  0.162  0.118
-0.0743 -0.0483 -0.0668
 0.447 -0.250 -0.0943
-0.574  0.361 0.0360
 0.442 -0.681  0.145
-0.472 0.0659 -0.00514
-0.472  0.155 -0.108
 0.502  0.128 -0.144
 0.460 -0.201 0.0703
 0.537 -0.414 -0.0490
 0.461 -0.0643 -0.122
 0.529 -0.263 0.00171
 0.531  0.444 -0.0505
-0.260 -0.210 -0.223
-0.424  0.224 -0.0999
 0.447  0.388 0.0291
-0.554  0.427  0.125
 0.488  0.237 -0.144
-0.0332 -0.0986  0.196
0.0824  0.444  0.152
 0.131 -0.00267 -0.0825
 0.556 -0.693 0.0607
 0.447  0.121 -0.0463
-0.437 -0.0531 -0.0600
 0.331  0.442 -0.0929
0.00797  0.404 0.0223
 0.371 -0.0357 -0.231
 0.562 -0.428  0.192
-0.170 -0.151  0.195
-0.574 -0.448 -0.0120
-0.472 -0.0849 0.0840
 0.562  0.251 -0.0120
 0.562  0.148 -0.122
 0.461 0.0659 0.00172
-0.458  0.279  0.153
-0.205  0.299 -0.0826
 0.548  0.388 -0.0737
-0.574 0.0454 0.0908
-0.572  0.329 -0.159
-0.219 -0.0811  0.193
 0.346 -0.0970  0.193
 0.536 -0.771  0.196
-0.574 -0.284 0.0154
 0.228 -0.207 -0.218
-0.574  0.251 0.0360
 0.460  0.128 0.0291
 0.454  0.196  0.196
0.0157  0.440 -0.0961
-0.455 -0.455  0.158
-0.266 -0.0467 -0.0744
-0.120 -0.0512 -0.239
 0.462  0.427 -0.0806
 0.269 -0.0509  0.132
0.0386  0.443  0.163
 0.214 -0.0475 -0.0394
 0.378 -0.0509 0.0223
-0.431  0.404  0.153
-0.115 -0.0478  0.192
-0.102 -0.0509 -0.0189
-0.150  0.114 -0.0833
 0.562 -0.345  0.139
-0.273 -0.0509 -0.122
-0.443 -0.0712 -0.177
-0.0606  0.443  0.111
 0.442 -0.469 0.0566
-0.574 -0.345 -0.0188
-0.459  0.107 -0.0257
-0.454 -0.462 0.0703
 0.562 -0.00258 -0.108
 0.138 -0.0509 0.00857
-0.574 -0.140 -0.101
-0.0126 -0.0359 -0.177
 0.562 0.0865 -0.0531
-0.574  0.244 -0.0463
 0.548  0.141 -0.0120
-0.211  0.404 -0.0394
-0.157  0.404 -0.00513
 0.562 -0.366 0.0360
-0.574 -0.366 0.0771
-0.472 0.0179 -0.108
 0.562 -0.709  0.139
 0.562  0.114  0.139
 0.562 -0.524 -0.0326
 0.275  0.404 0.0909
-0.157 -0.0509 0.0634
-0.444 -0.174  0.125
-0.513  0.409 -0.144
-0.0436  0.444 -0.0418
 0.562 -0.592 0.00866
-0.561  0.402 0.0703
 0.560  0.395 -0.159
 0.337  0.244 -0.101
-0.0195 0.0591 -0.101
-0.287  0.368 -0.0825
-0.543 -0.347 -0.0628
 0.548 0.0865  0.111
 0.562 0.00422 -0.0394
 0.473 -0.334 -0.0495
-0.560 -0.0986 -0.128
-0.534 -0.325  0.196
 0.536 -0.291  0.196
0.0902 -0.0509  0.153
 0.461 0.0591  0.146
 0.556 -0.476  0.196
 0.488 -0.800  0.103
0.0765  0.404 0.0840
-0.143  0.404  0.139
-0.335 -0.0509 -0.0806
-0.109  0.404 -0.0531
-0.454 -0.544 0.0291
-0.376 -0.126 -0.209
-0.349  0.395 -0.0989
-0.499 -0.716  0.196
-0.287 -0.0509  0.111
-0.0675 -0.132 -0.226
-0.541  0.432  0.195
-0.469 -0.153  0.195
 0.460  0.347 -0.0600
-0.267  0.435  0.196
 0.553 -0.806  0.150
-0.493 -0.592  0.196
 0.522  0.320 -0.144
-0.330 -0.180 -0.210
-0.534 -0.271  0.196
 0.560  0.443  0.190
 0.488 -0.558  0.196
 0.419  0.313 -0.0825
 0.562 -0.208 -0.155
-0.191  0.404  0.173
-0.443 -0.133 -0.0806
 0.461 -0.167 -0.0394
 0.501 -0.386 -0.0800
-0.264  0.444 0.0833
-0.472 -0.0507 -0.0806
 0.447 -0.584 -0.00414
-0.143  0.444 -0.0610
 0.176  0.443  0.154
 0.330  0.404  0.187
 0.447  0.183 -0.0668
-0.347 -0.223 -0.226
 0.424  0.444  0.158
 0.488 -0.262 0.0732
 0.323 -0.0337 -0.107
-0.474  0.427  0.116
-0.554  0.402 -0.160
-0.456 -0.0295 -0.00970
-0.459 -0.750 0.0840
-0.458 -0.462 -0.0257
 0.445  0.400  0.157
 0.502 0.0865 -0.144
 0.467 -0.201 -0.144
-0.0743 -0.0343 -0.107
 0.461 -0.140 -0.0874
 0.417  0.444 -0.0433
 0.319  0.444 0.0740
 0.131 -0.0509  0.105
-0.403 -0.0509  0.139
0.0285  0.402 -0.0989
-0.00574  0.404  0.192
-0.253 -0.0509 0.0360
 0.447 -0.476  0.192
 0.562  0.292  0.125
 0.249  0.442 -0.0924
-0.520  0.347 -0.163
0.0582 -0.0429 -0.0795
-0.560  0.107 0.0634
-0.417 -0.0509 -0.108
-0.458 -0.263  0.173
-0.574 -0.284 0.0634
-0.527  0.107 -0.144
 0.364 -0.0475  0.153
-0.574 -0.263 -0.0188
-0.572  0.121  0.195
-0.458  0.196 0.0634
-0.459  0.244 -0.0463
 0.445  0.249 -0.103
 0.562 -0.448 0.0292
 0.562  0.176 0.0977
 0.562  0.134 0.0977
-0.561  0.217 -0.0737
-0.00579 -0.0481  0.105
 0.461 0.00422 -0.0874
-0.574 -0.469 0.0703
 0.358 -0.0509 -0.190
-0.561  0.395 -0.0189
 0.289  0.148 -0.0825
-0.458 -0.709 0.0985
-0.321 -0.0357 -0.156
 0.291 -0.0403 -0.247
-0.572 -0.542 -0.0444
-0.102  0.443  0.118
-0.574 -0.722 0.0775
 0.204  0.441  0.191
 0.173 -0.194 -0.226
 0.416 -0.0895 -0.226
 0.426  0.404  0.105
 0.502 -0.167 -0.163
 0.451 -0.0780 -0.169
-0.522 -0.463 -0.0473
 0.562  0.402 -0.00514
-0.349  0.162 -0.101
 0.537 -0.329 -0.0668
-0.459 -0.489  0.180
-0.560 -0.105 -0.0531
 0.548 -0.0712 0.00857
-0.560  0.148  0.125
-0.507  0.285 -0.162
-0.472  0.402 0.0634
 0.447 0.0248 -0.0120
 0.548 0.0865 0.0360
-0.472  0.313 0.0291
 0.490 -0.622 0.0212
-0.445 -0.174 0.0154
0.0971  0.231 -0.0833
 0.432 -0.151 0.0794
0.0148 -0.0509 -0.101
-0.561  0.134 -0.0668
 0.385 0.0184 -0.101
-0.574  0.134 -0.0188
 0.460  0.196 0.0634
-0.00600  0.443 -0.0527
-0.445  0.435  0.195
-0.0400  0.244 -0.101
-0.239  0.134 -0.0825
-0.355  0.251 -0.0825
 0.255  0.306 -0.0825
 0.337  0.320 -0.101
 0.358  0.134 -0.101
-0.369 0.0522 -0.101
0.0285  0.244 -0.101
-0.0675 0.0454 -0.0825
-0.232 0.0522 -0.100
 0.426 -0.0461 -0.00514
 0.412 -0.0509 0.0908
-0.572 -0.274 -0.0577
-0.253 -0.133  0.196
-0.560  0.285  0.153
-0.574  0.114 -0.122
 0.457  0.139  0.195
 0.358  0.404 -0.0326
 0.351  0.381 -0.0828
-0.472 -0.0232  0.146
-0.574 -0.558  0.159
0.0354  0.404 -0.00513
-0.410 -0.173 -0.211
-0.0743  0.404  0.153
 0.330  0.203 -0.0834
 0.562 -0.572 0.0771
-0.520 -0.0849 -0.144
-0.301 0.0796 -0.0825
-0.273  0.404  0.132
-0.574 -0.0643 -0.115
-0.0948  0.169 -0.0833
 0.556  0.258 -0.160
-0.563 -0.174  0.196
 0.447 -0.284 0.0566
-0.266  0.326 -0.0825
-0.537 -0.753 0.0768
 0.449 -0.147 -0.197
 0.461 -0.0507  0.173
 0.166 0.0591 -0.0825
-0.163  0.230 -0.0825
-0.472 -0.126 0.0566
 0.153 -0.161 -0.210
 0.529 -0.633  0.196
 0.527 -0.263 -0.0944
-0.307  0.400 -0.0796
 0.511  0.443 -0.146
 0.550 -0.0301 -0.160
 0.290 -0.171 -0.224
 0.562 -0.380 -0.0396
-0.369  0.442  0.186
-0.211  0.203 -0.0831
 0.152 -0.0357 -0.149
-0.301  0.443  0.180
 0.131  0.374 -0.0989
 0.562 0.0934 -0.142
-0.0652 -0.0739 -0.226
 0.430 -0.0576 -0.101
-0.198 0.0797 -0.0989
-0.488 -0.669 0.0499
 0.447 -0.544 -0.0120
 0.467  0.265 -0.160
 0.461 -0.0780  0.118
-0.342 -0.0945 -0.226
-0.259 0.00422 -0.0826
 0.447 -0.592  0.166
-0.225  0.388 -0.0828
-0.0537  0.409 -0.0989
 0.481  0.430  0.139
 0.481  0.374 -0.144
-0.454 -0.579 0.0497
-0.473 -0.260  0.113
0.0217 -0.0509 -0.190
-0.574 0.0454 -0.115
 0.447  0.128  0.125
 0.548 -0.0438 0.0840
-0.560 -0.222  0.139
 0.461 -0.229 -0.0463
-0.560 -0.0575 0.0291
 0.512 -0.803  0.195
-0.460 -0.147 -0.223
 0.562  0.333 -0.0188
-0.473 -0.260 0.0359
-0.490 -0.387 -0.0489
-0.574  0.429 -0.00514
 0.447 -0.619 0.0295
-0.232 -0.0357 -0.156
 0.461 -0.208 -0.00514
-0.511 -0.274 -0.159
-0.472  0.100 -0.0668
-0.574  0.326 0.0703
-0.472  0.279 -0.0531
-0.561 -0.201 0.0703
 0.460  0.237 0.0840
 0.529 -0.276 -0.155
 0.477  0.444 0.0806
-0.477 -0.805  0.133
 0.433 -0.0357 -0.177
 0.392  0.403 -0.0744
 0.447  0.409 -0.135
-0.472 -0.174 0.0429
 0.497 -0.566 -0.0442
 0.562  0.182 -0.0668
 0.104 -0.0475 0.0771
-0.0263 -0.0481 -0.00517
-0.472  0.258 -0.115
-0.458 -0.377  0.168
-0.560 0.0316 0.0291
 0.241  0.442  0.186
-0.574 0.0659 0.0154
-0.0263 -0.0483 -0.0600
 0.562  0.224  0.166
-0.447 -0.238 -0.129
-0.561  0.347 0.00172
 0.548 0.0659 -0.0874
 0.562 -0.489  0.118
-0.129 -0.0509 0.0908
 0.447 -0.0231 -0.0463
-0.454 -0.345 0.0497
0.0560  0.176 -0.0825
 0.431 -0.140 0.0291
-0.454 -0.531  0.105
-0.472 -0.195  0.153
-0.0332 0.0934 -0.101
 0.442 -0.565 0.0703
 0.330 -0.0475 0.0703
-0.561  0.203 0.00857
-0.561  0.285 0.0223
-0.472  0.134 0.0360
-0.454 -0.496 0.0840
-0.472 -0.188 -0.0463
-0.410 -0.00947 -0.0831
-0.177  0.388 -0.0989
-0.560 0.0591  0.139
-0.383  0.404 0.0292
-0.560 -0.0232 -0.122
-0.253 -0.0483  0.153
 0.303 0.0865 -0.101
-0.527 -0.647  0.196
-0.574 -0.496  0.153
-0.454 -0.407 0.0429
-0.136  0.443  0.153
 0.221 -0.0475  0.180
 0.282  0.404 -0.0668
-0.574 -0.414 0.0429
-0.410 -0.0690 -0.227
 0.481 -0.236 -0.144
 0.442 -0.448 0.0977
-0.572 -0.425 -0.0444
 0.234  0.128 -0.0833
 0.460 -0.195 0.0291
 0.186  0.416 -0.0989
-0.465 -0.414 -0.0468
-0.457 -0.496 -0.00119
-0.420  0.444  0.165
-0.561  0.374 -0.0531
-0.574  0.182 -0.0874
 0.447  0.347 -0.00513
 0.548  0.395  0.118
 0.447 -0.743  0.166
 0.338  0.444  0.140
-0.456  0.292 -0.103
-0.472 -0.119 -0.115
 0.431 -0.105  0.132
 0.426  0.121 -0.0989
-0.472 -0.105  0.132
-0.487 -0.802  0.196
-0.307  0.444  0.140
-0.459 -0.298  0.192
 0.502 -0.318 -0.113
 0.522 -0.531  0.196
 0.446 -0.766  0.122
 0.433 -0.181 -0.149
 0.549 -0.0643  0.195
-0.362 -0.0478  0.192
-0.0743  0.429  0.196
-0.517 -0.263 -0.00930
-0.493 -0.119 -0.161
-0.500 -0.00258 -0.162
 0.303 -0.0519  0.196
-0.563  0.320  0.196
-0.0880  0.347 -0.0825
0.00797 -0.0917 -0.209
 0.431 -0.0644 -0.0394
-0.307  0.114 -0.101
 0.431 -0.0986 0.0840
-0.250 -0.0739 -0.226
 0.502 -0.0849 -0.163
-0.241 -0.173 -0.210
-0.136  0.182 -0.0831
 0.355  0.443 -0.0660
 0.315 -0.115  0.193
 0.531 -0.575 -0.0225
-0.192  0.444  0.103
 0.476 -0.414 -0.0532
 0.115 -0.0740  0.193
 0.461 -0.174  0.159
 0.461 -0.174 -0.122
 0.433 -0.234  0.166
 0.440 -0.240  0.111
 0.461 -0.222 -0.115
 0.463 -0.698 0.0624
 0.447 -0.407 -0.0188
-0.466 -0.142 -0.164
 0.433 -0.133 -0.226
-0.173 -0.147 -0.224
 0.454  0.196 -0.160
-0.417  0.134 -0.0831
 0.442 -0.551 0.0223
-0.499 -0.708 0.0659
 0.561  0.440 -0.120
-0.574 0.0659 -0.155
-0.479  0.326 -0.160
 0.461 -0.126 -0.0326
-0.443 -0.119  0.173
 0.431 -0.0986 -0.0189
 0.449 -0.274 -0.119
-0.574 -0.256  0.187
 0.303 -0.0509  0.105
-0.445 -0.201 0.0977
0.0697 -0.105 -0.209
-0.397 -0.0509 -0.0257
-0.198 -0.0483 -0.0326
-0.211 -0.0509  0.132
-0.438  0.395 -0.0989
-0.444 -0.215  0.166
-0.574  0.436 0.0291
 0.186  0.155 -0.0825
 0.461 -0.0917 -0.0874
-0.561  0.347  0.132
-0.458  0.196  0.173
 0.562 -0.167 -0.122
 0.118  0.404 0.0771
 0.467  0.107 -0.160
-0.376 -0.0509 -0.142
-0.472  0.141  0.153
 0.522  0.196 -0.161
-0.472  0.395 0.0154
-0.0469 -0.0359 -0.135
 0.460  0.313 -0.0669
-0.574 -0.496 0.0360
 0.447  0.265 0.0429
 0.461 -0.133 -0.122
0.0491 0.0728 -0.0825
 0.431 -0.112 -0.170
-0.444 -0.208 -0.170
 0.310  0.404 0.0292
0.0765 0.0454 -0.0825
 0.303 -0.213 -0.226
0.0354  0.443 0.00171
 0.262  0.224 -0.0825
 0.447  0.313 0.00173
 0.275 -0.0509 -0.156
-0.444 -0.208 -0.0737
-0.129 -0.188 -0.226
 0.562  0.333 0.0634
 0.460  0.395 -0.0669
-0.383 -0.0986  0.196
-0.474  0.169 -0.140
-0.383  0.230 -0.101
-0.574 -0.537 0.0908
 0.515  0.430  0.159
 0.464 -0.293 -0.0500
-0.459  0.292 -0.155
-0.455 -0.313  0.111
-0.538 -0.603 0.00534
-0.280 -0.133 -0.226
-0.505 -0.263 0.0500
-0.561 0.0316 -0.160
-0.447 -0.238 0.0908
-0.537 -0.262 0.0639
0.0354 -0.151  0.195
 0.378 0.0865 -0.0825
0.00110  0.196 -0.101
 0.166  0.279 -0.0831
0.0902  0.406  0.195
0.0560 -0.0475  0.118
0.0560 -0.0475  0.159
 0.364 -0.0509 -0.0531
 0.172 -0.00267 -0.0825
-0.143  0.285 -0.0825
-0.191 -0.0483 -0.0668
-0.390  0.429 -0.0989
-0.458 -0.339 -0.0188
 0.562 -0.277 -0.0188
-0.560 -0.167 0.0839
-0.163  0.148 -0.0831
 0.460 -0.297  0.196
-0.246  0.224 -0.0833
 0.460  0.182 -0.122
 0.529 -0.572  0.195
 0.562 -0.407 0.00857
-0.574 -0.201 -0.122
-0.574  0.313 0.00172
 0.442 -0.537 0.0908
 0.186 -0.0986  0.196
-0.574 -0.674 0.0977
-0.246 -0.0509 -0.183
 0.419  0.237 -0.0825
 0.442 -0.393 0.0223
-0.218 -0.0509 0.0908
 0.460  0.326 0.0703
 0.316 -0.0475 0.00172
 0.214  0.404 0.0703
 0.562 -0.297 0.0429
-0.541  0.141 -0.144
 0.461  0.121 0.0703
-0.560  0.196 0.0908
 0.303  0.182 -0.0828
-0.349 -0.0644 -0.210
-0.493 -0.668  0.196
 0.173  0.237 -0.0989
-0.383  0.313 -0.101
-0.171  0.354 -0.0989
 0.442 -0.606  0.132
-0.342 -0.0357 -0.190
 0.548 0.0111 -0.00514
 0.289 -0.0509 -0.0874
-0.177  0.404 0.0429
-0.574 -0.531 0.0497
0.0491  0.404  0.146
-0.493 -0.318  0.196
 0.548 0.0111  0.125
 0.549  0.251  0.195
-0.527 -0.407  0.196
 0.543 -0.764 0.0783
-0.472  0.409  0.187
 0.562 -0.750  0.180
-0.486 -0.517 -0.0469
 0.193 0.0797 -0.0989
-0.0537  0.404 -0.0120
-0.109  0.404 0.0223
-0.472 -0.147 0.0154
-0.574 -0.0369  0.111
0.0765 -0.0509 -0.0394
0.0560 -0.0509 0.0703
 0.316  0.404  0.105
 0.488 -0.407  0.196
-0.397 0.0316 -0.0825
-0.122  0.402 -0.0989
 0.488  0.430 -0.122
 0.364  0.340 -0.101
 0.548 -0.0232  0.153
 0.562 -0.366  0.111
-0.574 -0.339  0.125
-0.574 -0.455  0.153
 0.214  0.404  0.125
-0.136 0.0248 -0.101
-0.335  0.320 -0.101
 0.509 -0.352  0.196
0.0908  0.443 -0.0869
-0.00575 -0.0483 -0.0326
-0.472  0.306 -0.0326
-0.136 -0.0509 -0.0189
 0.562 -0.441 0.0703
-0.472 -0.0369 0.0634
 0.172 -0.0509 0.0291
-0.561  0.306 -0.0531
-0.574 -0.0438 -0.0257
 0.104  0.404 -0.0463
 0.152 -0.0509 -0.0531
-0.273  0.278 -0.0830
0.0560 -0.0712 -0.209
 0.467 -0.524  0.195
 0.460  0.388  0.125
-0.472 0.00422  0.125
-0.454 -0.421  0.111
-0.170 -0.0509 -0.177
 0.562 -0.325  0.166
 0.193  0.404  0.173
 0.562  0.326 -0.122
 0.392 -0.0357 -0.122
-0.272  0.444  0.119
 0.461 -0.0301 -0.108
 0.445 -0.315  0.132
 0.433 -0.160 -0.0120
 0.378  0.244 -0.101
-0.540 0.0797 -0.161
-0.493 -0.441 -0.0528
 0.562 -0.270 -0.115
 0.508  0.258 -0.163
-0.0537 -0.0481  0.187
-0.456  0.400 -0.0463
 0.152  0.409 -0.0989
 0.275 0.0796 -0.0825
-0.301  0.326 -0.0825
-0.572 -0.0757 -0.159
-0.294  0.230 -0.101
 0.431 -0.140  0.111
 0.536  0.430 0.0154
 0.393  0.440 -0.0968
 0.536 -0.688  0.196
0.0834  0.121 -0.0825
-0.0263  0.320 -0.0825
 0.461 -0.0849  0.166
-0.0126 -0.126 -0.226
0.0697 -0.0509 -0.170
 0.220  0.285 -0.100
 0.447 -0.640  0.166
0.0560  0.443 -0.0531
 0.447 -0.00258 0.0154
 0.481  0.333 -0.161
-0.574  0.203  0.187
 0.548  0.148 0.0703
 0.562  0.128 -0.155
 0.562  0.224  0.132
-0.574  0.217  0.146
 0.461  0.251  0.159
 0.447  0.231  0.187
-0.458  0.326 0.0977
-0.536  0.443 -0.123
-0.574 0.0179 0.00172
 0.562 -0.147 0.00172
 0.548 -0.236 0.0840
 0.440  0.279 -0.0817
-0.458  0.292 0.00173
-0.560 -0.0232 0.0360
 0.548  0.224 -0.0257
-0.0606  0.367 -0.0993
 0.562 0.0248  0.187
-0.574 0.00422  0.159
-0.431  0.108 -0.0992
 0.522 -0.0507 -0.161
 0.522 -0.544 -0.0469
-0.514 -0.351 -0.111
 0.118  0.320 -0.101
 0.483 -0.582 -0.0151
-0.0332 -0.0644 -0.209
 0.444 -0.244 -0.0211
-0.129 -0.0780  0.196
0.0697  0.203 -0.101
-0.459  0.224 -0.0736
-0.472 0.0522  0.125
-0.191 -0.0360 -0.244
 0.548  0.368 0.0703
-0.574  0.196 -0.0257
-0.554  0.292 -0.160
-0.109  0.367 -0.0993
-0.574 -0.0849 0.0840
-0.472  0.326 -0.0943
-0.574  0.388 0.0977
-0.163 -0.0689 -0.227
-0.454 -0.688  0.152
-0.461 -0.00947 -0.159
 0.482  0.435 -0.160
-0.506  0.430 0.0223
 0.502 -0.00258 -0.163
0.0971 -0.112 -0.226
-0.431 -0.0475  0.192
-0.561  0.395 -0.128
 0.562 -0.503  0.166
-0.513  0.176 -0.163
 0.111 0.0248 -0.0825
-0.231  0.435 -0.0986
 0.118 -0.0295 -0.102
 0.221  0.404 -0.0668
 0.560 -0.441 -0.0444
-0.547  0.347 -0.144
 0.193 -0.0644 -0.209
 0.562  0.438  0.111
-0.574 -0.627 0.0429
-0.472  0.347 -0.135
-0.234 -0.0486  0.195
 0.548 -0.0849 -0.128
 0.186  0.443 -0.0806
 0.460  0.251 -0.0737
-0.458 0.0454 -0.135
 0.447 -0.709 0.0909
 0.265  0.443  0.154
 0.562 -0.674  0.166
 0.547 -0.256  0.127
-0.459 -0.654 0.0501
 0.432 -0.156 -0.0829
 0.445 0.0706 -0.103
0.0880 -0.0441 -0.245
0.0217  0.404 -0.0668
 0.248 -0.0357 -0.170
-0.115 -0.0509 -0.163
 0.548 -0.249 0.0291
 0.207 -0.0357 -0.163
0.0902  0.272 -0.101
 0.448 0.0185  0.192
-0.560 -0.0712  0.159
 0.529  0.292 -0.161
-0.464  0.259  0.196
 0.548 -0.147  0.180
-0.412  0.441 -0.0751
-0.545 -0.274 -0.159
-0.493 -0.563 -0.0467
-0.154 -0.0429 -0.0795
 0.234 -0.0164 -0.0828
 0.173  0.333 -0.0989
-0.218 -0.0232 -0.0825
 0.440  0.361 -0.0817
-0.444 -0.146 0.0908
-0.485 -0.323 -0.0535
-0.474 -0.0575 -0.141
-0.441 -0.0575 -0.129
-0.443 -0.0712 0.0840
-0.547 -0.563 -0.0467
-0.574 -0.270 -0.108
-0.567 -0.510 -0.0468
-0.456 -0.423  0.163
 0.316 -0.133 -0.209
 0.460 -0.153 0.0360
-0.444 -0.126 0.00172
 0.447 0.0385  0.166
-0.560 -0.188  0.125
-0.472  0.306  0.118
-0.466 -0.723  0.195
0.0285  0.404  0.180
 0.474 -0.0575 -0.160
-0.458  0.265  0.111
 0.562  0.176  0.166
 0.562  0.320  0.192
-0.472 -0.0780 -0.108
-0.321 -0.0295 -0.102
 0.209 -0.0403 -0.247
 0.412 0.0934 -0.0825
-0.362 -0.153 -0.226
 0.515 -0.249 -0.144
-0.144  0.435  0.196
 0.460  0.422 0.0566
 0.431 -0.0644  0.159
-0.560 0.0797 -0.0326
-0.0468  0.442  0.186
-0.198 -0.174 -0.226
 0.214 -0.0509 -0.122
-0.472 -0.215 -0.129
-0.0332  0.404  0.166
-0.444 -0.201 -0.0394
 0.461 -0.215  0.173
 0.442 -0.599 0.0977
 0.435 -0.238 -0.195
 0.468 -0.791 0.0805
-0.561 -0.660 0.0452
 0.406  0.404  0.187
-0.511 -0.643 0.0353
 0.314  0.443 -0.0592
-0.561  0.409  0.153
-0.472  0.189 -0.00514
-0.496 -0.263 -0.101
-0.561  0.292 -0.122
-0.472  0.169 -0.0531
-0.459 0.0316 -0.0257
-0.191 -0.0575 -0.207
-0.472 -0.174 -0.129
 0.536  0.374 -0.160
 0.540 -0.614 0.0149
-0.445 -0.0544 -0.235
-0.122 -0.126 -0.209
-0.438  0.155 -0.0989
 0.296  0.434  0.196
-0.0700  0.444 0.0680
-0.458  0.196 0.0291
 0.548 -0.0301 -0.101
 0.562 -0.147  0.139
 0.562 -0.0917 0.0360
-0.574 -0.0986 -0.0257
-0.560 -0.147 -0.0600
-0.574 -0.229 -0.0257
 0.548 -0.153 0.0291
 0.548  0.134 -0.0943
 0.548  0.326 -0.0531
 0.461 0.0659  0.105
 0.124  0.429 -0.0989
-0.574  0.258  0.166
 0.447 0.0111 -0.115
-0.458  0.217  0.139
-0.472  0.354 0.0908
-0.560 0.0728 0.0977
-0.560 -0.0232 -0.0463
 0.562 0.0179 0.0291
 0.461 0.0591 0.0429
-0.574 0.0797  0.166
-0.458  0.381  0.146
 0.542 0.0316 -0.141
0.0634  0.444  0.127
 0.548 -0.208 -0.00514
 0.447 -0.00258 0.0977
-0.458  0.443 0.0947
 0.241 -0.0509 -0.101
 0.474 -0.524 -0.0469
 0.548  0.443  0.153
-0.414 -0.204 -0.211
-0.472 0.0934 0.0497
 0.448 0.0871  0.192
 0.467 -0.260  0.141
 0.562 -0.236 -0.135
-0.205 -0.119 -0.226
-0.0743 -0.0986 -0.209
-0.561  0.251 -0.0806
 0.433 -0.215 -0.142
 0.448 -0.0780 -0.226
 0.447  0.368  0.173
-0.574  0.134 0.0703
 0.562  0.340  0.125
 0.447  0.155 -0.00513
-0.546  0.443 -0.0658
 0.548  0.299 0.0497
-0.574  0.182 -0.135
-0.458  0.196 -0.129
 0.447  0.333  0.153
-0.472 -0.236 0.00172
 0.412  0.381 -0.0826
 0.447  0.128 -0.129
 0.441 -0.0337 0.0777
 0.255 -0.0519  0.196
0.0217 0.0115 -0.0999
 0.447  0.395 0.0634
 0.331 -0.190 -0.210
 0.433 -0.222 -0.0806
-0.403  0.244 -0.0825
0.0217 0.0796 -0.101
 0.562 -0.688 0.0908
-0.0538  0.114 -0.0825
0.0285  0.141 -0.101
-0.0880  0.299 -0.0825
 0.316  0.141 -0.101
-0.349  0.107 -0.101
 0.378  0.176 -0.0825
-0.0537 -0.0357 -0.218
-0.00986  0.444 0.0595
-0.259 -0.0357 -0.225
-0.369  0.210 -0.0825
0.0765  0.368 -0.0825
 0.386  0.443  0.167
 0.461 -0.0917 0.0360
 0.440  0.422  0.196
-0.462 -0.0646 -0.211
 0.207 -0.0475 0.0291
-0.488 -0.592 -0.00466
 0.248 -0.0644 -0.209
 0.289 -0.0644 -0.209
 0.548  0.114 -0.0531
 0.193 -0.0509  0.111
 0.436 -0.0361  0.146
-0.438  0.347 -0.0825
 0.432 -0.151 -0.167
 0.173 -0.0475 0.0634
-0.472  0.292 0.0634
 0.461 0.0591 -0.0668
 0.548 -0.181  0.105
 0.378 -0.181 -0.224
 0.548 -0.00947 0.0703
-0.246 -0.0509 -0.0257
-0.444 -0.151 -0.0463
-0.465  0.107 -0.160
-0.0126  0.361 -0.0828
 0.548 0.0934  0.187
-0.574 -0.00258  0.125
-0.560  0.169  0.159
-0.0469 -0.0509 0.0223
-0.355 0.0184 -0.101
-0.0195 -0.0509 0.0771
 0.138 -0.0365 -0.177
-0.0263 -0.0509  0.153
 0.378  0.404  0.132
 0.447 -0.270  0.118
 0.562 -0.640  0.159
 0.447 -0.448 -0.0120
-0.443 -0.133  0.146
-0.438  0.320 -0.0989
 0.227 -0.0509 -0.0669
 0.454 -0.276 -0.0806
 0.323 -0.00267 -0.0825
 0.562 -0.503 0.00172
-0.574  0.210 -0.149
-0.191 0.00422 -0.0989
-0.253  0.162 -0.0825
 0.118 -0.0509  0.139
-0.560 0.0934  0.132
 0.562 -0.517  0.105
-0.499 -0.421  0.196
 0.562 -0.140 0.0771
-0.157 -0.0986  0.196
 0.227  0.404 -0.00513
 0.433 -0.188 0.0840
0.0285  0.182 -0.101
 0.548  0.100 0.0840
0.0834 -0.0509 0.00171
 0.562 -0.558 0.0497
 0.207  0.189 -0.0826
 0.159 -0.0359 -0.211
 0.138  0.347 -0.0831
 0.249 -0.103  0.193
-0.574 -0.606  0.111
 0.548 0.0797 -0.115
 0.166  0.100 -0.0989
 0.316  0.404  0.146
-0.266  0.107 -0.0825
 0.562 -0.0507 -0.0737
 0.296  0.279 -0.101
 0.460 -0.229 0.0566
-0.00574  0.404 0.0977
-0.0332  0.404 0.0154
 0.562 -0.291  0.111
-0.472 -0.153 -0.0668
-0.574 -0.147 0.00857
-0.280  0.404 0.0292
-0.0538  0.333 -0.0825
0.0697  0.404 0.00173
 0.461 -0.0438 -0.0257
 0.562  0.155 -0.0394
0.00796 -0.0509 0.0429
-0.157  0.400 -0.0796
 0.460  0.292 -0.0257
-0.472 -0.105  0.173
-0.0743  0.404  0.111
-0.472 -0.0780 -0.0600
 0.548 -0.208  0.166
-0.541  0.430 0.0908
 0.159 -0.0712 -0.209
-0.00574 -0.0849  0.196
-0.342 -0.0483 0.00171
-0.472  0.361 -0.00514
 0.461 -0.215  0.111
 0.433 -0.215  0.139
 0.562 -0.105 -0.101
 0.234 -0.0509 0.0977
 0.152  0.404 0.0634
 0.234 -0.145 -0.226
 0.460  0.189 -0.0189
-0.574  0.224 0.0634
-0.541  0.189 -0.144
-0.369  0.404  0.132
-0.574 -0.332  0.180
-0.454 -0.503  0.118
-0.301 0.0385 -0.0825
 0.562 0.0385 -0.101
 0.562 -0.270  0.159
 0.536 -0.483 -0.0469
 0.550 -0.393  0.196
-0.574 -0.524  0.166
-0.574 -0.0849 0.0223
-0.355  0.333 -0.0825
 0.166 -0.119 -0.209
 0.183 -0.157 -0.210
-0.122 -0.0298 -0.102
 0.460 0.0865 -0.0394
 0.434 -0.0387  0.180
 0.488 -0.496 -0.0469
-0.259 -0.0295 -0.102
-0.474  0.427 0.0269
-0.136 0.0865 -0.101
-0.443 -0.146 -0.108
 0.440 -0.0358 -0.225
 0.460  0.196 0.0291
 0.556 -0.119 -0.160
 0.447 0.0797 -0.155
-0.574  0.272 0.0977
 0.562  0.395 -0.129
-0.410 -0.0483 0.0360
-0.246 -0.140 -0.226
-0.246  0.409 -0.0989
 0.488 -0.119 -0.162
-0.457 -0.000344 -0.0787
-0.0330 -0.129  0.194
 0.370  0.438  0.196
 0.463 0.0202 -0.141
-0.476 -0.288 -0.0669
-0.0400 0.0316 -0.101
-0.303 -0.161 -0.224
 0.248  0.404  0.173
-0.460 -0.718 0.0699
0.0197 -0.119 -0.226
 0.206  0.217 -0.0989
