ply
format ascii 1.0
element vertex 2048
property float x
property float y
property float z
end_header
-0.237 -0.284 -0.566
 0.251  0.719  0.634
 0.273 -0.759  0.565
 0.265  0.720 -0.519
-0.261 -0.00645  0.345
-0.283  0.720 0.0512
 0.269 -0.742 -0.212
 0.276 0.0911 -0.144
-0.265 -0.675  0.182
-0.261  0.352 -0.503
 0.273 -0.143  0.565
 0.276  0.629 0.0675
-0.261  0.515  0.565
 0.276 -0.316 -0.503
-0.244 -0.746 -0.340
 0.276 -0.365  0.116
-0.261 0.00963 -0.144
-0.123 -0.431  0.562
 0.241  0.254 -0.591
 0.276  0.303  0.410
-0.139  0.720 -0.340
-0.261 -0.398 -0.128
0.0893 -0.676 -0.563
-0.261  0.336  0.149
-0.00851  0.720  0.328
 0.257 -0.733  0.190
 0.276  0.450 -0.259
-0.0574 0.0422 -0.558
 0.276 -0.00671  0.214
-0.0235  0.157  0.570
-0.237 -0.766  0.555
-0.262 -0.333  0.231
-0.290  0.712 -0.636
-0.263  0.417 -0.177
-0.0411 -0.665 -0.0629
 0.276 -0.463  0.426
 0.276 -0.235 -0.177
0.0241 -0.665  0.394
0.0567  0.482  0.562
0.00780  0.548 -0.558
 0.276  0.319 0.0838
0.0241  0.720 -0.0792
 0.276 -0.0230 -0.422
-0.0900 -0.137  0.562
 0.276  0.596  0.377
-0.291  0.717  0.361
-0.221 -0.577 -0.566
-0.0751  0.719  0.633
-0.261  0.254  0.459
 0.265  0.720 -0.210
0.00780 -0.414 -0.558
 0.276 -0.480 -0.291
-0.262 -0.0723 -0.405
-0.263 -0.105  0.100
 0.233  0.110  0.595
-0.00850  0.287 -0.558
 0.276 -0.577 -0.0141
-0.261 -0.545  0.394
0.0893 -0.170 -0.558
0.0404 -0.665 -0.291
0.0893 -0.300  0.562
-0.261  0.189 -0.324
-0.261 -0.267  0.459
 0.276  0.222 -0.340
-0.262 -0.512 -0.340
-0.260 -0.734 -0.106
 0.276 -0.219  0.345
 0.276  0.466 -0.503
-0.237 0.0420  0.570
0.0893  0.720 -0.373
-0.0248 -0.665  0.165
 0.276 -0.545 -0.519
 0.276 -0.0882 0.00225
-0.262  0.124 0.0675
0.0893 -0.528  0.562
-0.262  0.466  0.345
-0.291  0.692 -0.172
-0.264  0.124 -0.537
-0.262  0.564 -0.438
 0.276  0.466  0.555
-0.291  0.717  0.634
 0.276 -0.752 -0.471
-0.265 -0.219 -0.242
-0.261 -0.496 0.0675
0.0730  0.720  0.133
-0.108 -0.749 -0.552
-0.262  0.516 0.0512
 0.276 0.0911  0.394
0.0893 -0.0393  0.562
-0.261  0.222 -0.112
-0.0737  0.720 -0.630
 0.154 0.0585 -0.558
 0.106  0.720  0.491
-0.106  0.368  0.562
 0.276 -0.659  0.394
 0.276  0.124 0.0511
-0.123  0.720  0.165
 0.276  0.287 -0.128
 0.276  0.466  0.230
 0.154  0.287  0.562
-0.253 -0.750  0.361
 0.276 -0.545  0.230
-0.0900 -0.642  0.562
0.0818 -0.742  0.566
-0.261  0.189  0.279
-0.261 -0.300 0.0349
 0.276 -0.414 -0.112
 0.265  0.720  0.231
 0.122  0.708 -0.638
-0.123 -0.137 -0.558
 0.276  0.466 -0.0304
 0.122 -0.665 0.0512
 0.266 -0.349  0.570
 0.276 -0.202 -0.356
 0.276  0.222  0.247
-0.262  0.596  0.214
-0.251 -0.561  0.569
-0.156  0.482 -0.561
 0.276 -0.186  0.149
 0.273 -0.583  0.565
-0.123  0.720  0.459
 0.138 -0.665 -0.128
 0.276  0.629 -0.373
 0.273 -0.153 -0.561
-0.261 -0.577 -0.177
-0.123 -0.665 -0.242
-0.261 -0.153 -0.0629
-0.188  0.720 -0.503
-0.261 -0.153  0.263
 0.276 -0.0556 -0.226
-0.261 -0.431 -0.487
-0.0900 -0.665 -0.405
 0.187  0.720 -0.0466
-0.139  0.720 -0.0466
-0.264 -0.121  0.557
-0.265 -0.724 -0.503
-0.189 -0.680 0.0349
 0.276 -0.382  0.279
-0.261  0.368 -0.340
-0.123 -0.665  0.296
-0.261  0.352 -0.0140
-0.00851  0.720 -0.242
-0.263 -0.349 -0.340
 0.122  0.434 -0.558
 0.122 -0.665  0.247
 0.154 -0.665 -0.405
-0.0900  0.548  0.562
 0.276 -0.251 0.00225
 0.276 -0.0719  0.410
 0.171 -0.431 -0.561
-0.261 -0.0339 -0.561
 0.273 -0.733 -0.0467
 0.276  0.140 -0.487
-0.293  0.709 -0.373
 0.187  0.580 -0.563
-0.156  0.236 -0.563
-0.0411 -0.561 -0.558
 0.154  0.720  0.345
-0.261 0.0422  0.198
-0.220  0.205  0.598
0.0893  0.699  0.642
-0.265 -0.512  0.247
-0.0574 0.00960  0.562
-0.0411  0.720 -0.454
 0.276 -0.577 -0.177
 0.276  0.368 -0.389
-0.156 -0.284  0.565
 0.276  0.580 -0.161
-0.265 0.0420 -0.308
-0.261 -0.414  0.475
-0.261  0.596  0.443
-0.261 -0.219 -0.422
-0.263  0.564 -0.291
 0.276  0.694  0.491
-0.261  0.368  0.565
-0.263  0.548 -0.112
 0.187  0.580  0.568
-0.139 -0.398 -0.558
-0.179 -0.679  0.459
 0.106  0.205 -0.566
-0.0411 -0.251 -0.558
 0.276 -0.594 -0.373
 0.276 -0.349 -0.340
-0.233  0.596 -0.581
 0.276 0.0748 -0.324
 0.276  0.189  0.491
 0.154 -0.669  0.478
 0.276  0.434  0.361
 0.138 -0.300 -0.558
-0.155  0.720  0.296
0.0241  0.319  0.562
-0.0411  0.417 -0.558
-0.188  0.661  0.571
-0.261 -0.137  0.426
-0.261 0.00963 0.00228
 0.106  0.107  0.562
-0.261 -0.610 -0.438
 0.276 -0.626  0.116
-0.263 -0.0886 -0.275
-0.155  0.720 -0.177
 0.106  0.720 -0.503
-0.261 -0.561 -0.0466
0.0730 -0.170  0.562
0.00777 -0.414  0.562
 0.276  0.482  0.100
-0.261  0.466  0.198
 0.276 -0.496  0.100
 0.106 -0.545 -0.558
 0.138  0.720 -0.177
 0.220 -0.0230  0.570
-0.261 -0.414  0.345
 0.276 -0.0230 -0.551
 0.276 -0.333  0.442
 0.273 -0.746 -0.340
 0.236 -0.675 -0.566
-0.291  0.717  0.182
-0.262  0.124 -0.210
-0.261  0.222 -0.454
0.00777  0.629  0.570
0.00780 -0.0719 -0.558
-0.261  0.336  0.361
 0.276 -0.431 -0.438
-0.261 0.0748  0.443
-0.283  0.720  0.508
 0.203  0.720  0.116
 0.276  0.596  0.214
 0.171 -0.431  0.564
 0.241  0.385 -0.591
-0.261 -0.267 -0.128
-0.0248 -0.251  0.562
-0.262  0.303 -0.226
-0.261 -0.626  0.296
 0.203  0.720 -0.324
0.0241 -0.665 -0.454
-0.0411 -0.528  0.562
-0.00853  0.157 -0.566
-0.156 -0.669 -0.112
-0.265 -0.708 -0.226
 0.266  0.336  0.570
-0.263 -0.153 -0.538
 0.252  0.699 -0.638
-0.261 0.0911 -0.422
-0.0900  0.616 -0.566
-0.00857  0.720 0.0349
 0.276 0.0259 -0.0304
 0.276  0.336  0.279
 0.276  0.417 -0.144
 0.276 -0.104  0.296
-0.261 -0.431 -0.242
-0.261  0.238 0.0349
-0.261 -0.219  0.133
 0.276  0.596 -0.487
-0.139  0.107  0.562
 0.267 -0.747  0.316
 0.276 -0.137 -0.112
 0.276  0.270 -0.454
 0.276 -0.382 -0.226
 0.276  0.189 -0.0467
0.0241 -0.665 -0.161
-0.261 -0.398  0.133
 0.187 -0.235  0.567
-0.261 -0.268  0.328
-0.0737 -0.665 0.0512
 0.276  0.645 -0.0630
 0.171  0.417  0.564
 0.171 -0.0719 -0.561
-0.173 0.0585 -0.563
 0.276  0.107  0.198
 0.276 0.00960 0.0838
-0.261  0.450 -0.422
 0.276  0.482 -0.373
 0.276  0.336 -0.275
 0.276  0.156 -0.242
-0.253  0.720 -0.0629
0.00781 -0.665  0.279
-0.262  0.580  0.328
0.0892  0.720  0.247
-0.261  0.205  0.165
-0.261 -0.414 -0.0140
 0.267 -0.733 0.0743
-0.261  0.450  0.459
 0.276 -0.268  0.230
-0.00851  0.720  0.475
 0.276  0.708  0.345
-0.139 -0.665  0.182
-0.261 -0.333  0.565
 0.154 -0.665 -0.275
 0.106  0.319 -0.558
 0.233  0.140 -0.594
 0.276 -0.545  0.345
 0.276  0.352 -0.0304
-0.156  0.368 -0.561
-0.106  0.235  0.567
-0.237  0.720 -0.275
0.0241  0.687 -0.584
 0.164 -0.758 -0.543
-0.263  0.499 -0.538
-0.156 -0.0393  0.565
 0.276 -0.463  0.555
-0.261 -0.0393  0.475
 0.276 -0.643  0.279
 0.276 -0.235  0.491
-0.261  0.450 -0.0629
 0.276  0.548  0.475
-0.172  0.720 0.0675
 0.276 -0.414 0.0186
 0.276  0.580 -0.275
 0.276 -0.643 -0.275
-0.263 -0.105 -0.161
-0.262  0.124 -0.0629
-0.264 -0.659  0.525
 0.276 -0.643 -0.471
-0.108 -0.749  0.557
 0.170 -0.670  0.343
-0.291  0.692 -0.530
0.0404 -0.642  0.562
 0.241  0.232  0.596
-0.262 -0.642 -0.324
 0.276 -0.414 -0.551
-0.165 -0.674 -0.481
0.0730  0.218  0.570
-0.189  0.686 -0.616
 0.276 0.0422  0.508
-0.0737 -0.665  0.459
-0.261  0.629  0.100
-0.261 -0.610 0.0675
-0.173  0.450  0.567
 0.171 -0.121  0.564
 0.276 -0.0882 -0.340
 0.106  0.720 0.0186
-0.262  0.173  0.394
 0.276 -0.577  0.459
 0.276  0.385  0.475
 0.276  0.205  0.116
 0.274 -0.751  0.442
-0.263  0.417 0.0838
-0.00859 -0.723 -0.566
 0.273  0.717 0.0131
 0.171 -0.594  0.564
-0.263  0.450 -0.275
 0.276  0.205  0.377
 0.276 0.0585  0.296
-0.0248  0.720  0.198
 0.276 -0.121 -0.454
-0.263  0.303  0.247
0.0567 -0.665 -0.0303
-0.0575  0.720 -0.144
-0.0411  0.450  0.562
 0.276 -0.0882  0.116
-0.261 -0.316 -0.454
 0.154 -0.665  0.149
-0.261 0.0912  0.312
-0.237 -0.447  0.569
 0.203  0.720 -0.438
-0.252  0.270 -0.565
 0.181 -0.675 -0.0371
-0.244 -0.734  0.100
-0.168 -0.674 -0.340
 0.215  0.484 -0.581
0.0404 -0.316 -0.558
-0.262 -0.333 -0.226
-0.261  0.319 -0.128
 0.276 -0.00671 -0.128
-0.123 -0.496 -0.558
 0.276  0.303  0.182
-0.263 -0.659 -0.0304
-0.262 -0.642  0.410
-0.139 -0.235 -0.558
-0.139 -0.545  0.562
-0.264  0.157  0.525
-0.244 -0.743  0.263
 0.245 -0.689 -0.130
-0.264 -0.235  0.557
-0.0900  0.645  0.570
-0.270  0.677  0.274
 0.276 -0.480 -0.193
-0.261 0.00963  0.100
-0.0411  0.720 -0.340
 0.220 -0.235 -0.566
-0.261 -0.202 0.0349
 0.276  0.368 -0.487
 0.171  0.686  0.588
-0.123  0.141 -0.563
 0.179 -0.761  0.549
-0.237 -0.480 -0.566
-0.237 -0.382 -0.566
 0.276  0.613  0.555
 0.276 -0.333 -0.0467
-0.0737 -0.333  0.562
-0.0900  0.720 -0.536
 0.122  0.720 -0.275
0.0567 0.00963 -0.558
0.00777 -0.0882  0.562
-0.0737 -0.665 -0.161
-0.106 -0.0393 -0.558
 0.276 -0.528 -0.0956
 0.276 -0.268  0.100
0.0730  0.720  0.394
-0.261 -0.170 -0.340
-0.204  0.720  0.410
 0.276  0.548  0.296
 0.276 -0.251 -0.275
 0.276 -0.153 -0.226
-0.261 -0.512 -0.438
 0.276 -0.235 -0.454
0.0241 0.0585  0.562
-0.00857 -0.723  0.544
-0.262 -0.0723  0.214
-0.139 -0.626 -0.558
-0.261  0.596 -0.193
 0.180  0.676 -0.572
-0.0574 -0.678 -0.499
-0.263  0.613  0.542
0.0893  0.583  0.565
-0.265 -0.724  0.459
-0.261 -0.00668 -0.471
-0.263  0.401  0.263
-0.0574 -0.665 -0.307
-0.261 -0.577  0.182
-0.261  0.287 -0.389
 0.276 -0.316  0.345
0.0241  0.720  0.573
 0.171 -0.610 -0.561
 0.276 0.0748 -0.422
-0.261  0.613 -0.0467
 0.154 -0.678 -0.499
 0.236 -0.675  0.570
-0.211  0.298  0.596
-0.188 -0.692  0.570
-0.189 -0.170  0.570
 0.276 -0.137  0.475
 0.265  0.720 -0.112
0.0567 -0.669  0.478
-0.204 -0.766 -0.553
0.0893  0.629 -0.566
 0.276 -0.675  0.491
 0.187  0.720  0.426
 0.276  0.401 0.0512
 0.276  0.548 -0.0630
 0.171  0.720  0.214
-0.262 -0.333 -0.0466
0.0567 -0.665  0.133
-0.0574 -0.665  0.361
 0.276  0.238 0.0349
-0.261 -0.496 -0.144
 0.276  0.254 -0.242
 0.276  0.385  0.149
-0.261 -0.577  0.475
-0.00850 -0.170 -0.558
-0.228  0.439 -0.591
-0.261 -0.431  0.214
-0.106 -0.316 -0.558
 0.266  0.645 -0.565
-0.263 -0.544 -0.259
-0.262 -0.0723 -0.0303
-0.261  0.629 -0.356
-0.162  0.716  0.640
-0.262  0.661 -0.454
 0.138 -0.676  0.567
-0.260 -0.653 -0.561
-0.190  0.564  0.571
-0.156 -0.669  0.377
-0.219  0.189 -0.594
-0.221 -0.684 -0.405
 0.252 -0.766 -0.551
 0.276 -0.659 0.0349
 0.204 -0.680  0.231
 0.250 -0.697 -0.411
 0.273 0.0748 -0.561
-0.263 -0.0886  0.328
-0.262  0.124  0.214
-0.189 -0.680  0.247
-0.139 -0.665 -0.0303
-0.204  0.720 -0.422
-0.261 -0.316  0.149
-0.261 -0.186  0.345
 0.276  0.499 -0.177
-0.0411  0.720  0.116
 0.276 -0.104  0.198
-0.261  0.205 -0.242
 0.276  0.287  0.491
 0.106 -0.665  0.410
0.0893 -0.398  0.562
 0.187 -0.153 -0.563
 0.187 -0.512  0.567
 0.187 -0.528 -0.563
 0.276 0.00960  0.377
-0.262 -0.251  0.214
 0.276 -0.00671 -0.307
 0.276 -0.170 0.0675
 0.276 0.0259 -0.210
0.0893  0.531 -0.558
 0.276  0.515  0.394
 0.276 -0.0393  0.491
0.0404  0.401 -0.558
-0.0737  0.531 -0.558
-0.262 -0.268 -0.324
 0.138  0.499  0.562
0.0730  0.401  0.562
 0.276 -0.219 -0.0956
 0.276 -0.496 0.00225
0.0567 -0.665 -0.373
 0.276  0.140  0.312
 0.276 -0.398  0.198
 0.276 -0.496 -0.373
-0.204  0.720  0.182
 0.276 -0.398  0.361
 0.276  0.173 -0.161
-0.265  0.270 -0.308
-0.123  0.720 -0.259
-0.261  0.319 0.0675
 0.106  0.720 -0.0956
 0.204 -0.680 -0.340
 0.204 -0.680 -0.210
0.0893 -0.447 -0.558
 0.171 -0.316  0.564
-0.263  0.532 -0.0304
-0.262  0.516 -0.210
-0.251 -0.0393  0.570
-0.261 -0.186 -0.144
-0.139  0.720  0.540
-0.173 -0.365  0.567
0.0404 0.0912 -0.558
0.0404 -0.610 -0.558
-0.106  0.303 -0.558
 0.155  0.173  0.570
 0.204 -0.680 0.0675
-0.263  0.516  0.263
 0.154 0.0259  0.562
-0.263  0.532  0.149
-0.204 -0.680 -0.177
-0.204 -0.104 -0.566
-0.261  0.368  0.459
-0.261 -0.398 -0.405
 0.276 -0.626  0.198
-0.261 -0.431 -0.324
 0.276  0.466  0.459
 0.276 -0.626 -0.0793
 0.276  0.107 -0.0304
-0.263 -0.349  0.394
0.0893 -0.0882 -0.558
0.0404  0.720 -0.438
0.0404  0.720 -0.307
-0.0411 -0.479 -0.558
 0.276  0.548 0.0512
-0.00853  0.548  0.562
 0.276  0.678 -0.307
 0.276  0.303 -0.536
-0.261 -0.496  0.459
 0.276  0.548  0.149
 0.276 -0.333 -0.161
 0.276  0.352 -0.193
 0.276 -0.170  0.247
 0.187  0.720 0.0349
-0.261 -0.496  0.165
 0.276 -0.170 -0.0141
-0.261 -0.626 -0.112
0.00781 -0.665 0.0675
0.0241  0.720 -0.161
0.0893 -0.665 -0.210
 0.187  0.720  0.508
0.00779 -0.333  0.562
 0.276 -0.545 -0.438
 0.266 -0.268  0.570
 0.276 -0.480  0.279
-0.261  0.254  0.377
 0.276  0.270 -0.0467
 0.276 -0.316 -0.422
 0.199  0.319 -0.565
-0.0574  0.720 -0.0466
-0.228  0.124  0.595
-0.0900  0.720 0.0512
 0.276  0.140 -0.373
-0.263 -0.496  0.328
0.0730 -0.665  0.328
-0.0574  0.720  0.410
-0.261 -0.186  0.491
 0.276  0.548 -0.422
-0.139 -0.665  0.100
-0.263 -0.00628  0.263
-0.263 -0.00628 -0.242
-0.263  0.532  0.394
-0.270  0.677  0.437
-0.264 -0.723 0.0185
 0.266  0.564 -0.565
 0.276 -0.414  0.491
 0.276  0.708  0.149
-0.261 0.0476 -0.561
 0.277  0.694 -0.422
-0.228  0.341 -0.591
-0.0574  0.219 -0.566
-0.0574  0.720  0.557
 0.233  0.515  0.598
-0.221 -0.684  0.328
-0.188 -0.692 -0.566
 0.187  0.205 -0.566
 0.276 -0.659 -0.193
 0.273  0.167  0.565
-0.237  0.720  0.573
 0.276  0.645 -0.210
0.00780  0.693  0.641
-0.262  0.287  0.526
-0.252 -0.756 -0.437
-0.0411  0.271  0.562
-0.204 -0.680 -0.259
0.00779  0.720 -0.519
 0.236 -0.316 -0.566
-0.173 -0.610  0.567
-0.262  0.434 -0.503
-0.263 -0.0886 -0.503
-0.262  0.516  0.491
-0.262  0.661 -0.112
 0.203 -0.00670 -0.566
-0.261 0.0911 0.00228
-0.261  0.107 -0.340
-0.261  0.482 -0.144
-0.261 -0.463 -0.0792
-0.261 0.0422 -0.0792
-0.0900  0.720  0.328
 0.276  0.254  0.312
 0.276 -0.561 -0.307
 0.276  0.303 -0.356
-0.237  0.720  0.116
 0.276  0.205 -0.519
-0.188  0.720 -0.112
 0.276  0.629  0.279
 0.276  0.629  0.442
-0.204  0.720  0.508
 0.276 -0.561 0.0675
0.0730 -0.251 -0.558
0.0404 -0.665  0.214
-0.0574 -0.665  0.231
 0.276 -0.316 0.0349
-0.220  0.720 0.00227
-0.0411 -0.349 -0.558
-0.0900  0.720  0.231
-0.261  0.270 -0.0303
-0.0574 -0.104 -0.558
-0.261 -0.496 -0.0140
 0.276 -0.0556 -0.0629
 0.276 0.0748  0.116
-0.261 -0.235 -0.0629
-0.261 -0.577 -0.503
-0.220  0.720  0.328
 0.276  0.548 -0.340
-0.123  0.720 -0.471
 0.276 -0.512  0.491
 0.276 0.0422 -0.487
-0.261  0.596 -0.503
-0.261  0.482 -0.356
 0.276 -0.480  0.198
 0.276 -0.153  0.377
-0.263  0.157 -0.144
 0.233  0.401  0.598
 0.204 -0.680  0.426
 0.138  0.141 -0.563
 0.276 -0.610 -0.551
 0.276 -0.0882 -0.519
-0.265  0.628 -0.259
 0.234  0.652  0.614
-0.172  0.629 -0.566
0.0404  0.235 -0.563
 0.276 -0.675 -0.340
 0.252 -0.496 -0.566
-0.200  0.124 -0.573
 0.245 -0.689  0.131
-0.221 -0.202 -0.566
-0.264  0.661 0.0177
-0.173 -0.480  0.567
-0.106 -0.235  0.562
 0.251 -0.708 -0.273
-0.263  0.157 -0.389
-0.261 -0.0555 -0.112
-0.204 -0.680 -0.0629
-0.261 -0.0230  0.165
-0.261 -0.0230 -0.356
 0.276 -0.300 -0.226
0.0404  0.482 -0.558
0.0730  0.720 -0.210
 0.203  0.720  0.296
-0.261 -0.235  0.394
 0.276  0.417  0.279
-0.261 -0.447  0.410
 0.276  0.417 -0.340
 0.187  0.720 -0.226
 0.276  0.189 -0.438
-0.263  0.450  0.542
-0.261 -0.0393 0.0512
 0.171  0.385 -0.561
0.0567 -0.463  0.562
0.0893 -0.365 -0.558
-0.261 0.0911  0.149
0.00777 -0.577  0.562
-0.0248 -0.665 -0.210
-0.263  0.417  0.394
 0.276 -0.545  0.149
-0.261  0.254 -0.177
 0.276 -0.0882 -0.161
-0.261  0.629  0.377
0.0818 -0.742 -0.543
-0.261 -0.170  0.182
 0.276  0.352  0.361
 0.276  0.140  0.442
-0.261 -0.561 -0.389
 0.106  0.336  0.562
-0.204 -0.680  0.116
-0.0411 0.0911  0.562
-0.00853  0.629 -0.566
-0.243  0.672 -0.575
-0.263 -0.333 -0.520
-0.261 -0.610 -0.242
0.0893 -0.669 -0.474
-0.263  0.434 0.0177
-0.0737 -0.692 -0.566
-0.139 0.0259  0.562
-0.263 -0.366 0.0512
-0.190  0.385  0.571
-0.262  0.384 -0.259
-0.261 -0.153 -0.226
-0.265 -0.219  0.279
-0.265  0.270  0.312
-0.189 -0.00670 -0.566
 0.187 -0.365 -0.563
-0.261 0.0422  0.508
-0.262 -0.0723  0.394
-0.00853 -0.153  0.562
 0.276 -0.414 -0.356
 0.276 -0.137 -0.291
 0.276 -0.219  0.426
 0.276 -0.316  0.508
-0.261 0.0585  0.377
 0.276 -0.0230  0.279
-0.262  0.384 -0.405
-0.263  0.140 -0.275
-0.219  0.680  0.635
-0.106  0.482  0.562
 0.276  0.482 -0.0956
 0.122  0.720 0.0838
-0.00850 -0.665 -0.356
 0.276 -0.398 -0.291
-0.261 -0.202 -0.487
-0.139  0.720  0.394
 0.276  0.222 -0.112
 0.276 -0.463  0.345
 0.187  0.720 -0.503
 0.276  0.450 -0.438
0.0730 -0.665 -0.0955
 0.276 -0.0230 0.0186
-0.261  0.645  0.165
 0.276 0.0911 -0.259
-0.0411 -0.0230 -0.558
-0.0574 -0.0719  0.562
-0.00850 -0.665 0.00229
 0.265  0.720 0.0838
-0.261  0.222  0.100
-0.261 0.0259 -0.405
0.0241 -0.0230  0.562
-0.0737 -0.186 -0.558
-0.263  0.401  0.165
-0.155  0.720 -0.568
 0.138 -0.186  0.562
0.0241  0.720  0.263
-0.262  0.173 0.0186
 0.220 -0.680  0.296
 0.122  0.720 -0.568
 0.276 -0.219 -0.519
 0.276 -0.268 -0.340
-0.0574 -0.398  0.562
-0.261  0.205 -0.0466
-0.261 -0.137 0.0186
-0.0248  0.352 -0.558
-0.262 -0.333  0.312
-0.262 -0.496  0.526
 0.266 -0.0719  0.570
 0.276 -0.333  0.214
 0.276 -0.284  0.165
-0.220  0.720 -0.193
 0.276 -0.528  0.410
 0.276  0.401  0.214
0.0893  0.720  0.328
 0.106 -0.610  0.562
 0.236 0.0420  0.570
-0.261  0.499 -0.471
 0.154 -0.0556  0.562
 0.171 0.0911  0.565
 0.276  0.401  0.540
 0.187  0.720 -0.630
-0.139 -0.684  0.525
 0.276  0.708  0.426
 0.154  0.271 -0.558
-0.252 -0.741  0.182
-0.156  0.319  0.565
-0.156 -0.561 -0.561
 0.122  0.645  0.569
-0.173 -0.300 -0.563
-0.291  0.692 -0.302
-0.265 -0.675 -0.454
 0.154  0.499 -0.558
 0.273  0.434 -0.561
-0.263  0.548 -0.356
-0.139  0.173  0.570
 0.204 -0.680 -0.454
0.0567  0.717 -0.637
 0.154 -0.235 -0.558
 0.276  0.270  0.555
 0.276  0.107  0.508
0.0404 -0.251  0.562
-0.262 -0.333 -0.128
-0.0737 -0.665  0.116
 0.276  0.629  0.133
-0.139  0.720 -0.405
-0.204  0.720 -0.340
 0.276  0.694  0.557
 0.276  0.531 -0.487
-0.265 -0.708 -0.291
-0.261 -0.431  0.279
-0.123  0.720 -0.112
-0.263 -0.0886 -0.340
 0.276 -0.398  0.426
-0.262  0.173  0.459
 0.276  0.531  0.230
-0.261  0.270  0.149
 0.187  0.720 -0.112
 0.138  0.720 -0.438
 0.276  0.156  0.247
 0.276 -0.577 -0.242
-0.265 -0.675  0.247
-0.291  0.692 -0.237
 0.276 -0.316  0.279
 0.276  0.515 -0.259
-0.00851 -0.669  0.478
0.00779  0.720  0.410
 0.276  0.466 0.0349
 0.276 0.00960  0.149
 0.276  0.140  0.116
 0.276  0.645 -0.128
0.0893 0.0259  0.562
-0.262 -0.642 -0.177
-0.262 -0.496 -0.210
 0.276 -0.398 -0.0467
 0.276  0.466  0.165
-0.0411 -0.626 -0.558
-0.0574  0.107 -0.558
-0.262 -0.121  0.491
-0.261 -0.577 -0.324
-0.291  0.717 -0.438
-0.261  0.580 0.0512
-0.172 -0.754  0.570
 0.250 -0.716  0.377
 0.122 -0.665 -0.0140
-0.265 -0.675 0.0838
-0.207  0.515 -0.583
-0.228  0.466  0.595
-0.204 -0.104  0.570
 0.252  0.720 -0.0466
-0.221 -0.284  0.569
 0.245 -0.689 -0.505
-0.139  0.600  0.567
-0.0628  0.677 -0.572
-0.00852  0.218  0.570
-0.139  0.717 -0.637
 0.236 -0.104 -0.566
 0.273 -0.268 -0.561
-0.253  0.720 -0.487
 0.276  0.662 -0.503
0.00780 -0.684 -0.521
-0.253  0.720 -0.128
 0.202  0.323  0.575
-0.264  0.189 -0.553
 0.253 -0.713 0.0177
-0.190  0.287 -0.567
-0.261 -0.735 -0.172
 0.213  0.457  0.584
-0.204 -0.680  0.182
-0.221 -0.684  0.394
-0.291  0.692  0.122
 0.276 -0.202  0.555
-0.263 -0.235 -0.538
-0.252 -0.738 -0.0467
 0.252  0.720 -0.373
 0.241  0.575  0.596
 0.220 -0.170  0.570
-0.156 -0.669 -0.422
-0.293  0.699  0.573
-0.263 -0.349  0.508
-0.263 -0.528 -0.538
 0.106 -0.680  0.511
 0.187  0.236  0.570
-0.173 -0.463 -0.563
-0.156  0.515  0.565
-0.106  0.401 -0.558
-0.0887  0.141  0.567
 0.257 -0.743  0.257
 0.236  0.720 -0.585
 0.187 -0.684  0.525
 0.220  0.720  0.361
-0.262  0.661  0.508
0.0730  0.141 -0.563
0.0744  0.157  0.570
-0.261 -0.750 -0.561
-0.261  0.482  0.116
-0.261 -0.0393 -0.193
-0.263  0.401 -0.0956
-0.261 -0.268 -0.210
-0.0248  0.720 -0.585
-0.262 -0.642  0.133
-0.261  0.352  0.296
 0.276  0.238  0.165
 0.276  0.287  0.247
 0.276 -0.153 -0.405
 0.171  0.720 -0.389
 0.276 -0.577  0.296
-0.172  0.720  0.231
 0.276 -0.431  0.149
 0.220  0.720  0.182
-0.261 -0.610  0.231
-0.261 -0.594  0.361
 0.276  0.499  0.328
 0.276 -0.365 -0.454
 0.276 -0.284  0.410
 0.276  0.222  0.442
 0.276 -0.284 -0.128
 0.276 0.00960 -0.373
 0.276  0.401 -0.0630
-0.261 0.0585 -0.471
-0.0411  0.482 -0.558
0.00779  0.720 -0.389
 0.276 -0.00671  0.442
 0.276 -0.268 -0.0630
0.0404  0.720 0.0837
-0.261 -0.577  0.116
-0.261 -0.610 0.00228
 0.106 -0.665 -0.340
0.0567 -0.512 -0.558
 0.122  0.720  0.165
-0.263  0.157  0.116
 0.138  0.720  0.279
-0.123 -0.693 -0.533
 0.220 -0.577 -0.566
 0.276 0.0748 -0.0793
-0.0737 -0.463  0.563
-0.0901  0.720 -0.210
 0.276 0.0585 0.0186
-0.261 -0.267 0.0838
-0.261 -0.170 0.0838
 0.276  0.580 -0.0141
-0.261 -0.528 -0.0955
0.00779  0.720  0.149
-0.106 -0.665 -0.340
 0.276 -0.0393 -0.487
 0.276  0.156 -0.0956
-0.261  0.303 -0.471
-0.0737 -0.665 -0.0140
 0.276 -0.463 -0.0467
0.0404  0.319 -0.558
-0.0900 -0.665 -0.0955
0.0567 -0.665 0.0349
-0.262  0.173 -0.487
-0.261 -0.300 -0.275
 0.276 0.0585  0.230
-0.261 0.0748 -0.128
-0.0248  0.352  0.562
-0.0900  0.720 -0.373
 0.122 -0.480  0.562
-0.0900  0.720  0.508
 0.276 -0.626  0.524
 0.276 -0.675  0.328
 0.276 -0.316 -0.291
 0.276  0.662  0.231
 0.276 -0.170 -0.161
 0.276 -0.610  0.361
 0.276 -0.512 -0.242
 0.276 -0.496 -0.487
 0.276 -0.643 -0.405
 0.276 -0.219  0.279
 0.276  0.205 -0.275
0.0730  0.720 -0.0466
 0.276  0.385 -0.242
 0.276 -0.0556  0.165
-0.261 -0.463 -0.405
-0.261  0.303  0.410
 0.276  0.629 -0.438
 0.276  0.385  0.410
 0.138  0.720  0.540
-0.261 -0.267 -0.487
 0.187 -0.708 -0.566
 0.276  0.189  0.198
-0.0411  0.720  0.279
 0.276  0.303 0.00225
 0.276  0.580  0.100
 0.276 -0.463 0.0512
-0.261 -0.00668  0.426
0.0404 -0.121 -0.558
 0.276 -0.121 -0.0467
 0.276 0.0585  0.442
-0.123  0.720  0.100
-0.00850 -0.665 -0.112
-0.261 -0.251 0.00228
-0.261 0.0422 -0.193
 0.138  0.720 -0.340
-0.0411 -0.610  0.562
 0.276 -0.0393  0.345
-0.261 -0.447 0.0349
0.0730  0.287  0.562
 0.276  0.531 -0.128
 0.276 -0.480 -0.128
 0.276  0.336 -0.0956
 0.122 -0.0393 -0.558
-0.262 -0.642 -0.389
-0.261 -0.284  0.263
-0.0900 -0.431 -0.558
-0.0900 -0.577  0.562
-0.261  0.238 -0.356
-0.106 -0.665  0.410
0.0567  0.661  0.569
-0.261  0.221  0.231
-0.264  0.385 -0.552
-0.261  0.336 -0.291
-0.263  0.140  0.345
-0.261 -0.137 -0.471
-0.262  0.516 -0.405
-0.264  0.205  0.557
-0.220  0.720 -0.552
 0.155  0.699  0.642
 0.276  0.515  0.524
-0.139  0.686  0.588
-0.173 -0.170 -0.563
-0.264 0.0911  0.557
 0.276 -0.153 -0.503
 0.276  0.499 -0.551
 0.254 -0.753  0.511
-0.264 -0.708  0.555
 0.220 -0.463  0.569
-0.0792 -0.693  0.537
-0.237  0.720 -0.617
-0.0248  0.677  0.576
-0.204 -0.528  0.570
-0.0411  0.600  0.567
 0.236 -0.398  0.570
0.0404  0.600 -0.563
-0.283  0.720 -0.0140
-0.263  0.661  0.328
 0.236  0.720 -0.161
 0.236  0.720 -0.259
-0.261 -0.0991 -0.561
-0.221 -0.686 -0.520
 0.268 -0.734 -0.105
-0.234  0.629  0.587
-0.0411  0.583 -0.561
 0.276  0.662 0.00226
 0.276 -0.104  0.524
0.0567  0.720 -0.552
 0.224  0.620 -0.592
-0.265 -0.724  0.312
 0.276 -0.691  0.247
 0.201 0.0877 -0.567
 0.220  0.164  0.594
 0.224  0.538 -0.591
 0.192 -0.680 -0.0915
 0.170 -0.670 0.0172
 0.268 -0.748 -0.397
-0.00851  0.691 -0.629
 0.245 -0.689 -0.0646
 0.273 -0.518  0.565
-0.265 -0.675  0.361
-0.0248 -0.676  0.567
 0.273  0.352 -0.561
 0.266  0.173 -0.565
 0.201  0.433 -0.566
-0.232 -0.693 -0.340
0.0241 -0.684  0.525
-0.190 0.0911  0.571
 0.154 -0.665 -0.193
-0.253  0.720  0.247
 0.155  0.629 -0.566
-0.221 -0.684  0.491
-0.189 0.00962  0.570
-0.293  0.699 -0.585
 0.276 -0.708 -0.551
-0.262 -0.594  0.526
 0.273 0.00416  0.565
 0.273 -0.734  0.133
-0.156  0.253  0.566
-0.262 -0.431  0.526
-0.156 -0.219  0.565
-0.123 0.0422 -0.558
-0.106  0.303  0.562
-0.156 -0.0556 -0.561
-0.106  0.466 -0.558
 0.106 -0.626 -0.558
-0.262 -0.642  0.475
-0.264  0.629 -0.553
-0.264 -0.739 -0.389
-0.261 -0.0555  0.116
0.0893  0.691 -0.601
-0.188  0.156  0.571
-0.244 -0.743 -0.259
-0.251 -0.186  0.569
-0.263  0.516  0.328
-0.156 -0.669 -0.193
-0.139 -0.665 0.0349
-0.221 -0.684 -0.112
-0.139 -0.0882  0.562
-0.139  0.531 -0.558
0.0893  0.531  0.562
 0.250 -0.699  0.438
-0.204 -0.643 -0.566
-0.106  0.691 -0.601
 0.220 -0.610  0.569
-0.220  0.352  0.598
 0.220 -0.414 -0.566
-0.106  0.251 -0.561
-0.262 -0.382 -0.0629
-0.262 -0.382  0.247
-0.261  0.368 -0.161
-0.263  0.417 -0.356
-0.261  0.368  0.100
-0.265  0.613  0.263
0.0404 -0.692 -0.566
0.0254  0.141  0.567
-0.261 -0.300  0.377
-0.261  0.222  0.328
-0.0737  0.720 -0.275
-0.263 -0.659 -0.275
-0.221 -0.684 -0.0140
-0.252 -0.761  0.492
-0.261 -0.202  0.230
-0.263  0.450  0.279
-0.261 -0.0394 -0.307
 0.276 -0.153  0.312
 0.276  0.564 -0.210
 0.276 -0.626  0.442
-0.0737  0.157 -0.566
-0.189 -0.349 -0.566
-0.189 -0.512 -0.566
0.0241 -0.463 -0.558
 0.276  0.352 0.0349
0.0241 -0.665 -0.242
-0.262 -0.382 -0.177
-0.0248 -0.665 -0.405
 0.138  0.720 -0.0303
0.0404  0.720  0.214
-0.0411 -0.665  0.410
0.0893 -0.660  0.565
 0.276 -0.251 -0.405
 0.276  0.238 -0.389
 0.276  0.270 -0.193
 0.276 -0.186 -0.275
 0.276 -0.365 -0.519
 0.276  0.124 -0.536
 0.138 -0.251  0.562
-0.262 0.0747  0.263
 0.203 -0.0719  0.570
 0.187 -0.382  0.567
-0.265 -0.219 -0.308
-0.263 -0.479 -0.259
-0.263 -0.349 0.00225
-0.261  0.287 0.0186
 0.276 0.0422 -0.275
0.00780 -0.528 -0.558
-0.0411 -0.665  0.296
 0.106 -0.665  0.116
-0.261  0.499 -0.0955
 0.276 0.0585  0.165
-0.0248  0.720 -0.0956
 0.154  0.368  0.562
0.0404  0.720  0.345
-0.263 -0.659 0.0349
-0.139 -0.665  0.247
-0.263  0.548  0.100
-0.00850 -0.300 -0.558
-0.261  0.287 -0.0792
0.0893 -0.665 -0.275
 0.154 -0.479 -0.558
-0.173  0.434 -0.563
0.0893 0.0748 -0.558
-0.00850 0.0585 -0.558
 0.276 -0.0719 0.0512
-0.0900 0.0748  0.562
-0.106  0.720 0.00227
-0.263  0.401 -0.454
-0.261 0.0748 0.0512
-0.261  0.319  0.198
-0.263  0.499 -0.308
-0.261 -0.316 -0.177
 0.276 -0.0393  0.100
0.00780 -0.00667 -0.558
-0.263 -0.0886  0.165
-0.263 -0.0886  0.263
 0.276 -0.675 0.0838
-0.261 -0.431 0.0838
 0.276 -0.0556 -0.291
-0.0574  0.271 -0.558
 0.276 -0.235 0.0512
 0.276  0.417 0.00225
 0.138  0.720  0.443
-0.263  0.417  0.214
 0.276  0.596  0.491
-0.261  0.613 -0.144
-0.261 -0.153 -0.389
 0.276 -0.431  0.263
 0.276  0.205  0.296
-0.188  0.720  0.589
 0.276  0.434 -0.193
 0.276  0.352 -0.438
 0.276 -0.153 -0.340
 0.276  0.352  0.198
 0.276  0.156 -0.324
-0.261 -0.235 -0.373
 0.276  0.613 -0.324
 0.276  0.499 -0.307
-0.261  0.238  0.508
-0.261 -0.284  0.508
-0.0411  0.720 -0.193
0.0404 -0.186 -0.558
 0.276 -0.643 -0.0304
 0.276  0.107 -0.193
0.0567 -0.665  0.263
0.00780 -0.235 -0.558
 0.276  0.417  0.100
-0.155  0.720 0.0186
-0.261 -0.0230 -0.422
0.0730  0.720 -0.144
-0.106 -0.545 -0.558
0.0893  0.271 -0.558
 0.276  0.140  0.377
0.0567 -0.349  0.562
 0.187  0.515  0.567
 0.276  0.173 0.0675
-0.106 -0.382  0.562
-0.261 -0.610 -0.0629
-0.0248  0.720 -0.291
 0.276 0.0748  0.345
0.0730 -0.665 -0.422
-0.0574  0.499  0.562
 0.276 -0.0882  0.361
-0.0737 -0.665 -0.259
-0.262  0.384  0.508
0.00777 -0.202  0.562
-0.106 0.0912 -0.558
0.0567  0.720 -0.487
-0.261 -0.561 0.0512
 0.276  0.596 -0.0793
 0.276 -0.577 -0.112
-0.261 -0.00668 -0.0955
-0.0900 -0.284  0.562
-0.0900  0.352 -0.558
0.00781 -0.665  0.345
 0.276 -0.365 -0.0956
-0.0900 -0.365 -0.558
-0.0900  0.434  0.562
0.0241 -0.365 -0.558
0.0404  0.720  0.524
0.0893 -0.219  0.562
 0.276  0.678 0.0512
 0.138 -0.545  0.562
-0.263  0.532 -0.161
 0.276 -0.414  0.100
-0.261 0.0259  0.149
 0.276 -0.0882  0.247
0.0404  0.564  0.562
-0.221 -0.398  0.570
-0.261 -0.447 -0.193
-0.261 -0.153 -0.291
 0.276  0.645  0.182
 0.276  0.287  0.133
 0.276  0.270 -0.291
-0.261  0.352 -0.210
 0.276 -0.398 -0.177
-0.261 -0.316  0.443
-0.261 -0.479 -0.503
 0.276  0.629 -0.259
 0.276  0.107  0.263
 0.252 -0.365 -0.566
-0.261  0.303  0.475
-0.261 -0.300 -0.405
 0.276  0.303  0.345
-0.188  0.720 -0.259
 0.276  0.368 -0.324
 0.276  0.434 -0.389
 0.276  0.238  0.508
 0.276 -0.691  0.540
-0.261 -0.626 -0.487
-0.261  0.368 0.0349
0.0567  0.720 0.0349
-0.263  0.532  0.214
-0.123 -0.496  0.562
-0.261  0.580  0.491
-0.261 0.0912 -0.291
-0.263 -0.366  0.459
 0.265  0.720  0.296
-0.261  0.107 -0.487
-0.261 -0.577  0.279
-0.0900 -0.665  0.165
 0.122 -0.708 -0.540
-0.139 -0.153  0.562
-0.0900 -0.610 -0.558
-0.261 -0.594  0.426
-0.262 -0.382 -0.503
-0.253  0.720  0.459
-0.263  0.140  0.263
-0.293  0.699 -0.0955
-0.210  0.642 -0.602
 0.154 -0.665  0.394
-0.253  0.720 -0.324
-0.265  0.482 0.00217
-0.263 -0.0886 0.0349
-0.262  0.173 -0.193
-0.261  0.205 -0.405
-0.0590 -0.737 -0.544
-0.261 -0.626  0.565
 0.276  0.564  0.540
 0.276 0.0259 -0.536
-0.263 -0.105 -0.0793
 0.138 -0.665 -0.0629
 0.273  0.102  0.565
 0.276  0.708 -0.471
-0.263  0.580 -0.242
-0.204 -0.235  0.570
-0.0737  0.189  0.570
 0.213  0.676 -0.610
 0.203  0.689  0.633
-0.265 -0.691 -0.0793
-0.139 -0.708  0.570
 0.236  0.720  0.540
-0.270  0.677 0.0783
-0.139  0.189 -0.566
 0.154 -0.665  0.296
 0.276 -0.431 -0.503
 0.276 -0.691 -0.454
 0.219  0.277  0.594
 0.128 -0.747  0.548
 0.220 -0.740  0.569
 0.236 0.0420 -0.566
 0.220 -0.680  0.361
-0.252  0.564  0.569
-0.253  0.720 -0.405
-0.261 -0.425 -0.561
 0.181 -0.675 -0.151
 0.266 -0.202 -0.565
 0.122  0.691  0.606
-0.155 -0.740 -0.540
-0.261  0.482  0.394
 0.220 -0.316  0.570
-0.264  0.548 -0.537
-0.0737 -0.665 -0.454
-0.232 -0.693  0.279
-0.263 -0.366 -0.454
-0.262 -0.00644  0.214
-0.263 -0.349 -0.275
-0.261 0.0422 -0.356
-0.263  0.516 -0.259
 0.276 -0.251 -0.226
-0.0248  0.401  0.562
 0.276 -0.480 -0.438
 0.276  0.678 -0.356
-0.261  0.270 -0.128
 0.138 -0.349 -0.558
 0.276 -0.594 -0.422
 0.154 -0.665 -0.356
 0.276 -0.512 -0.0467
-0.265  0.628 -0.308
-0.263 -0.105 -0.210
 0.276 -0.463 -0.242
 0.276  0.319 -0.487
 0.276 -0.153  0.198
-0.261 -0.577 -0.128
-0.123 -0.665 -0.291
 0.276  0.254 -0.519
0.0730  0.720  0.443
 0.276 -0.219  0.230
 0.276  0.531 -0.0141
-0.261 -0.447  0.165
-0.291  0.717  0.410
0.0567 -0.561 -0.558
 0.276 -0.365  0.508
-0.173 -0.431  0.567
 0.276 -0.480  0.149
 0.138 -0.382  0.562
 0.241  0.319 -0.591
-0.0738  0.720 -0.0955
 0.138 -0.170 -0.558
-0.123 -0.665  0.459
 0.106 0.00963 -0.558
 0.276 -0.0556 -0.112
-0.0737  0.720  0.459
 0.122  0.218  0.570
-0.261 -0.496  0.377
0.0730 -0.665 -0.161
-0.106 -0.665  0.361
 0.276 -0.316 0.0838
-0.0411  0.720 -0.519
0.0404 -0.528  0.562
 0.276 -0.170 -0.0630
-0.0248 -0.665 -0.259
0.0567 -0.577  0.562
-0.261  0.352 -0.0629
 0.276 0.0422 -0.144
0.0567 -0.0882  0.562
-0.0574 -0.300 -0.558
-0.00852  0.235 -0.563
-0.00850 -0.665  0.231
0.00777  0.482  0.562
 0.276  0.189 0.00225
 0.276 0.0259 -0.0793
0.0241  0.720 -0.0303
 0.276 -0.0719 -0.422
-0.0411 -0.414 -0.558
-0.261 0.0748  0.100
0.0567 -0.665 0.0838
-0.261 -0.284 -0.0466
-0.264  0.336 -0.553
 0.276 -0.0882  0.475
 0.276 -0.545 -0.389
 0.220 -0.121  0.570
-0.261  0.270  0.198
-0.261  0.629 -0.405
-0.262  0.661 -0.503
 0.276 -0.268 -0.503
0.00777 -0.463  0.562
-0.261 -0.528  0.116
 0.276  0.645  0.377
-0.261 -0.561 -0.438
 0.276 -0.268  0.279
-0.261  0.368  0.410
 0.106 -0.496 -0.558
-0.261 -0.235  0.508
-0.0248 -0.665 -0.161
-0.261 -0.170  0.133
 0.276 -0.333  0.165
-0.220  0.720 0.0675
-0.0737 -0.665 -0.210
-0.262 -0.382  0.296
 0.171  0.720  0.165
 0.276 -0.284 -0.177
-0.263  0.532  0.442
 0.276  0.189 -0.389
 0.276 -0.186  0.491
-0.219  0.238 -0.594
-0.261 -0.267  0.149
 0.276  0.336  0.475
 0.276 -0.00671 -0.259
 0.276 -0.137  0.426
 0.154 -0.665  0.198
 0.138  0.720 -0.226
-0.221 -0.153 -0.566
 0.276  0.499 -0.438
 0.204 -0.680 -0.291
 0.276  0.531  0.100
0.0893  0.720 -0.422
 0.276  0.417 -0.487
 0.187  0.720 -0.161
0.0893 -0.316 -0.558
-0.263  0.157 -0.438
 0.276  0.303 -0.405
 0.276  0.401 -0.438
-0.228  0.390 -0.591
-0.262  0.336  0.526
 0.276 -0.577  0.508
 0.276 0.0911 -0.487
 0.276 -0.626 -0.128
-0.261 -0.316  0.100
-0.172  0.720  0.116
 0.276 0.0748 0.0675
-0.261  0.352  0.247
-0.00850  0.107 -0.558
-0.0900 -0.235 -0.558
-0.261  0.254 -0.226
-0.190  0.580 -0.567
 0.252  0.720 -0.324
 0.106 -0.665  0.459
-0.261 -0.447 -0.128
-0.261 -0.398  0.410
 0.154 0.00963 -0.558
0.0241  0.271  0.562
 0.122  0.417  0.562
 0.122 -0.121  0.562
 0.250 -0.697 -0.216
-0.262  0.173  0.214
 0.187  0.157 -0.566
-0.260 -0.605 -0.561
-0.263  0.157  0.165
-0.262 -0.544  0.328
-0.241  0.151 -0.572
0.0567 -0.684 -0.521
 0.202  0.371  0.575
-0.262  0.287 -0.521
-0.293  0.699  0.231
 0.274  0.690 -0.584
-0.239 -0.708  0.214
-0.239 -0.708  0.149
 0.276 -0.463  0.508
-0.251 -0.512  0.569
-0.252  0.303  0.569
-0.0411 -0.680  0.511
-0.263 0.00961  0.542
 0.273  0.216  0.565
-0.262 0.0748 -0.521
-0.232 -0.693  0.443
-0.156  0.107 -0.561
-0.139 -0.642  0.562
 0.233  0.189 -0.594
-0.156  0.319 -0.561
0.0567  0.691  0.606
-0.263  0.661 -0.0295
-0.221 -0.724  0.543
 0.220 -0.680  0.491
-0.200  0.504  0.578
 0.276 -0.691  0.182
-0.123 -0.0882 -0.558
-0.265 -0.691 -0.128
-0.270  0.677 -0.411
 0.236  0.720  0.589
-0.261  0.466 0.0512
 0.220 -0.680 0.0186
-0.263 -0.382  0.541
 0.138 -0.660 -0.561
-0.00850 -0.660 -0.561
 0.171 -0.642  0.564
 0.154 -0.665 -0.454
-0.261  0.629 0.0512
-0.156 -0.669  0.328
-0.123 -0.665 -0.161
-0.123  0.691  0.634
-0.270  0.677  0.372
 0.276  0.336  0.524
 0.276  0.678  0.100
-0.244 -0.750  0.426
-0.261 -0.0394  0.296
 0.203 -0.561  0.570
-0.123  0.583 -0.561
 0.203 -0.463 -0.566
-0.264  0.548  0.525
-0.261 -0.0393 0.00228
 0.154 -0.561 -0.558
 0.154 -0.121 -0.558
-0.106  0.661 -0.566
-0.221 -0.659  0.570
-0.261 0.0911 -0.177
-0.263 -0.366  0.345
-0.263 -0.366  0.198
-0.172  0.720 -0.454
-0.261  0.303 -0.340
-0.221 -0.684 0.0675
 0.187  0.531 -0.563
-0.263 -0.479  0.279
-0.262  0.434  0.133
-0.262  0.124 -0.112
 0.220  0.720  0.459
 0.187 -0.268 -0.563
-0.262  0.173 -0.0793
-0.261 -0.300  0.198
-0.261  0.205 -0.161
 0.106 -0.665  0.296
 0.276 -0.235  0.133
-0.0900 -0.528  0.562
-0.0248 -0.300  0.562
 0.122 -0.431  0.562
 0.276  0.678 -0.177
 0.276 -0.382 -0.389
 0.276  0.662  0.312
 0.276  0.385  0.312
 0.276 -0.512 -0.324
 0.276 -0.512 -0.161
 0.276 -0.268  0.524
 0.276 -0.610  0.247
-0.220  0.720  0.279
 0.276 -0.104 -0.259
 0.276 -0.594  0.410
 0.276  0.515  0.182
-0.172  0.720 -0.307
-0.261  0.222  0.426
 0.276 -0.594  0.165
 0.276  0.385 -0.112
-0.261 -0.267 -0.438
 0.276  0.580  0.328
 0.276 -0.316 -0.373
 0.276  0.580 -0.389
-0.261  0.319 -0.422
 0.276 -0.186 -0.438
 0.276  0.205 -0.193
 0.276  0.515  0.442
 0.276  0.303 -0.226
-0.263  0.417 -0.308
-0.204 -0.414 -0.566
 0.276  0.270  0.442
 0.276  0.580  0.263
 0.171  0.720 -0.291
 0.106  0.466  0.562
-0.261 -0.153 -0.112
-0.263  0.417  0.312
 0.276 -0.121 -0.193
 0.276 -0.414  0.312
 0.276  0.417  0.442
-0.172  0.720  0.361
 0.276 -0.610 -0.210
 0.276 -0.447 -0.161
-0.155  0.720  0.491
 0.276 -0.349  0.312
-0.261 -0.219  0.459
 0.276 -0.284  0.475
-0.261 0.00963  0.475
-0.252  0.156  0.569
0.0730  0.352 -0.558
-0.0737  0.720  0.149
0.0730  0.434 -0.558
 0.276  0.124 -0.291
 0.276 0.0259  0.263
 0.276 -0.0393 -0.340
0.00781 -0.665  0.133
 0.155  0.720 -0.0792
-0.0574  0.720 -0.405
-0.0574  0.720  0.361
0.0404  0.368  0.562
 0.276  0.368 0.0838
0.00779  0.720 -0.340
-0.0574 -0.219  0.562
 0.276 -0.610 0.0186
0.0241 -0.665 -0.405
-0.123 -0.316  0.562
 0.276 -0.561 -0.0630
0.0730  0.720 -0.275
0.0893 -0.665  0.165
 0.276 -0.0393 -0.161
-0.0574 -0.170  0.562
 0.276 -0.137 0.0186
-0.00850  0.450 -0.558
-0.261 0.00963 -0.0466
-0.261 0.0585 -0.0303
-0.00853 0.00960  0.562
 0.276 -0.626 0.0675
 0.122 -0.398 -0.558
0.0567 -0.0556 -0.558
-0.0574  0.720 0.0186
-0.0900 -0.0393  0.562
-0.0248 -0.0393  0.562
0.0567 0.0911  0.562
0.0893 -0.665  0.214
-0.0900 0.00963 -0.558
-0.261  0.450 -0.210
0.0404  0.434  0.563
 0.276  0.678 -0.0956
-0.106  0.720 -0.307
 0.276  0.238 0.0838
-0.106  0.720  0.573
-0.261 -0.0555 -0.454
 0.171  0.720 0.0838
-0.261 -0.219  0.182
0.0729  0.720  0.182
-0.261 -0.528 -0.177
-0.261 -0.528  0.198
 0.276 -0.577 -0.471
 0.276  0.466  0.394
 0.155  0.720 -0.536
-0.123  0.720  0.263
-0.261 -0.398 -0.291
-0.261 -0.431 -0.438
 0.276  0.140  0.165
-0.261  0.303  0.116
-0.261 -0.235 -0.161
 0.276  0.270  0.377
 0.276 -0.251  0.377
 0.276 -0.349  0.377
 0.276  0.173  0.345
 0.276 -0.545 -0.210
 0.276  0.434  0.491
0.0241  0.720 -0.210
-0.188  0.720 -0.0303
-0.0248 -0.365  0.563
 0.276  0.613 0.0186
-0.261  0.189 0.0675
-0.106 -0.665  0.214
-0.139 -0.349 -0.558
 0.122  0.564 -0.558
-0.139 -0.00667 -0.558
-0.241  0.674  0.582
-0.106 -0.186  0.562
-0.139  0.401  0.562
-0.265 0.0259  0.312
-0.262 -0.121 -0.0303
-0.261  0.221 -0.291
-0.261  0.319 -0.177
-0.261 -0.610 -0.356
 0.187  0.140  0.569
-0.263  0.140  0.426
-0.262 -0.121  0.361
 0.122  0.661 -0.565
-0.221 -0.0556 -0.566
-0.261  0.629  0.475
-0.262  0.564  0.182
-0.0900  0.600  0.567
0.0404  0.645 -0.566
0.0404  0.173 -0.566
 0.277 -0.708  0.296
0.0241 -0.692  0.570
-0.264 -0.0887  0.525
 0.220  0.720  0.231
-0.291  0.717  0.279
-0.244 -0.762 -0.520
 0.154  0.319 -0.558
 0.276 -0.675 -0.0956
 0.236 -0.0393 -0.566
-0.265 -0.512 -0.291
-0.189 -0.235 -0.566
 0.276 -0.643 -0.519
 0.276  0.645  0.524
 0.236 -0.219  0.570
 0.276 -0.414  0.555
-0.237 0.00960 -0.566
-0.265 -0.708 -0.422
 0.276 -0.0393  0.540
-0.215 0.0674 -0.574
 0.187  0.720 -0.585
 0.171  0.645  0.570
 0.276  0.596 -0.536
 0.266  0.531  0.569
-0.261  0.439 -0.561
-0.265 -0.675 -0.519
-0.239 -0.708 -0.471
 0.273 -0.561 -0.561
 0.273 -0.0719 -0.561
 0.273  0.222 -0.561
 0.236  0.720  0.410
-0.211  0.249  0.596
-0.263  0.238 -0.538
-0.265 -0.691  0.491
-0.252  0.417  0.569
-0.204 -0.724 -0.540
-0.0317  0.716  0.640
 0.220 -0.740 -0.566
-0.189  0.205 -0.567
0.0404  0.189  0.570
 0.138  0.691 -0.601
 0.273 -0.743 -0.259
 0.251 -0.708 -0.354
 0.236  0.720 -0.487
 0.106 -0.708  0.544
 0.235 -0.684 -0.177
 0.276 -0.691 -0.161
-0.221 -0.349  0.570
-0.264 -0.708 -0.551
-0.221 -0.610  0.569
-0.220  0.401  0.598
-0.263  0.661 -0.226
-0.220  0.580  0.598
 0.276 -0.675 -0.242
0.0499  0.716  0.640
 0.233  0.352  0.598
-0.123 -0.669 -0.474
 0.273 -0.748  0.394
 0.252 -0.447 -0.566
 0.155 -0.708  0.544
 0.276 -0.333 -0.551
-0.200  0.466 -0.573
0.0405 -0.739  0.557
 0.192 -0.680  0.186
 0.192 -0.680  0.137
0.0893  0.720  0.605
-0.261 -0.344 -0.561
 0.259 -0.737 -0.302
 0.273 -0.632  0.565
-0.239 -0.708  0.361
-0.172 -0.684 -0.521
-0.293  0.709  0.459
 0.245 -0.689 -0.0157
 0.255  0.677  0.588
-0.0900  0.691  0.606
 0.250 -0.697 -0.314
-0.144  0.677 -0.572
 0.274 -0.659 -0.561
0.0241 -0.723 -0.540
 0.250 -0.723 -0.452
-0.188  0.205  0.571
-0.269  0.720 -0.552
 0.250 -0.716  0.475
 0.276  0.401 -0.536
-0.253  0.720  0.198
 0.220 -0.708 -0.540
-0.0139  0.677 -0.572
-0.179 -0.679 -0.226
-0.179 -0.679 -0.389
-0.179 -0.679 -0.144
-0.262 -0.0230 -0.521
-0.0955 -0.674  0.492
 0.192 -0.680 -0.401
-0.239 -0.708 -0.193
-0.269  0.691  0.606
 0.220 -0.708  0.544
 0.233  0.580 -0.594
 0.245 -0.689 0.0495
-0.265 -0.675  0.296
-0.261 -0.284  0.565
-0.219  0.287 -0.594
 0.187  0.720  0.573
-0.264 -0.723 0.0675
-0.246 -0.742 -0.218
-0.241  0.558 -0.572
-0.265 -0.740  0.524
-0.291  0.692 0.0240
 0.266  0.270 -0.565
0.0567  0.564 -0.558
-0.168 -0.674  0.279
-0.189 -0.680 -0.307
-0.168 -0.674  0.214
 0.276 0.0422  0.555
 0.138  0.235 -0.563
0.00781 -0.665  0.443
0.0676  0.677 -0.572
-0.264 -0.736  0.231
 0.203  0.615  0.573
 0.277  0.694 -0.0303
 0.273  0.717  0.388
 0.210  0.266 -0.571
 0.241  0.314  0.596
-0.222  0.719  0.633
 0.236  0.720 0.00227
 0.255  0.107 -0.572
 0.122 -0.737 -0.565
-0.261 -0.745 -0.302
-0.237 -0.528 -0.566
-0.189 -0.680 -0.438
 0.192 -0.680 -0.255
 0.255  0.374  0.576
 0.255  0.423  0.576
 0.192 -0.680  0.267
-0.261  0.466  0.508
-0.262 -0.284 -0.521
0.0404 -0.673 -0.488
 0.106 -0.680 -0.506
 0.122  0.564  0.562
 0.123  0.141  0.567
-0.239 -0.723 -0.0140
-0.241  0.216 -0.572
-0.263  0.434 -0.0287
0.0241  0.720 -0.617
-0.204 -0.680 -0.487
 0.273  0.717 -0.557
 0.203  0.192  0.575
 0.240 -0.765  0.548
 0.273  0.717 -0.166
-0.172  0.720 -0.617
 0.276 -0.496 -0.536
 0.273  0.717 -0.264
 0.273 -0.762 -0.520
 0.199  0.629 -0.565
-0.139  0.271 -0.558
-0.271  0.677  0.551
 0.246  0.189  0.586
 0.236 -0.153 -0.566
-0.139 -0.186 -0.558
-0.173 -0.610 -0.563
-0.291  0.717 -0.487
 0.246  0.482  0.586
-0.00853 -0.642  0.562
-0.156 -0.660 -0.562
 0.155  0.600  0.567
-0.293  0.699  0.328
-0.291  0.717 -0.0629
-0.262 -0.610 -0.521
-0.263  0.564 0.0177
 0.251 -0.718 -0.154
-0.270  0.677 -0.329
 0.247  0.450 -0.581
-0.251 -0.0882  0.570
 0.122  0.107 -0.558
 0.203 0.0586  0.572
-0.262 -0.414 -0.521
-0.106  0.699 -0.638
 0.273  0.692  0.622
-0.139  0.548  0.562
-0.221 -0.684 -0.226
 0.276 -0.316  0.555
-0.156 -0.669 -0.275
-0.188 -0.680  0.508
 0.274 -0.741  0.222
 0.276  0.140  0.540
-0.233  0.108 -0.580
-0.261  0.499  0.165
-0.261 -0.0555  0.345
-0.261 -0.0394 -0.259
-0.139 -0.665 -0.0792
-0.262 -0.560  0.247
-0.262  0.124  0.508
-0.156 -0.669 0.0675
-0.156 -0.669 0.00229
-0.265 -0.675  0.442
-0.155  0.645  0.569
-0.261  0.107  0.361
-0.0900 -0.660 -0.561
-0.0411  0.691 -0.601
-0.261 -0.0394  0.231
0.0241  0.124 -0.561
-0.261 0.0912 -0.226
-0.171  0.691  0.606
 0.187 -0.186  0.567
-0.0900  0.720 -0.585
 0.138  0.720  0.589
 0.187 -0.00671  0.567
-0.291  0.717 -0.144
-0.261 -0.479  0.230
 0.251 -0.700 0.0920
-0.261 -0.0555  0.426
-0.262 -0.0723 -0.177
-0.262 -0.642  0.198
-0.200  0.618  0.578
-0.263 -0.105 -0.422
-0.261 -0.316 -0.356
-0.265 -0.675 -0.193
-0.262 -0.382 -0.356
 0.171  0.124 -0.562
-0.262  0.287  0.345
-0.173 0.0422  0.567
-0.263 -0.00651 -0.324
 0.276  0.319  0.230
0.0567  0.600  0.567
 0.236 -0.545  0.569
-0.263  0.401  0.442
-0.173 -0.0719  0.567
-0.263 -0.202 -0.275
 0.203 -0.186 -0.566
-0.265 -0.691 -0.0141
 0.187 -0.104 -0.563
 0.187 0.0259 -0.563
-0.263  0.417  0.491
-0.262  0.124  0.296
 0.171 -0.480  0.564
 0.187 -0.284  0.567
-0.263  0.417 -0.242
-0.172  0.720 -0.389
-0.206  0.647  0.603
 0.154  0.450  0.562
-0.263 -0.349  0.165
-0.263 -0.349 -0.487
-0.263  0.254  0.247
-0.0411 -0.676 -0.563
-0.263 -0.105 -0.307
-0.263 -0.105  0.296
-0.263 -0.0886 -0.128
-0.263 0.0585  0.328
 0.255  0.635  0.576
 0.106  0.157 -0.566
-0.156 -0.268 -0.561
-0.263  0.303 -0.275
-0.173  0.515 -0.563
-0.261 -0.316 -0.0140
-0.0900 -0.665  0.279
-0.263 -0.349 -0.193
-0.263 -0.349 -0.0793
-0.262 -0.333 -0.307
0.0567 -0.660 -0.561
-0.262  0.173  0.312
-0.262  0.434  0.426
-0.261  0.580 -0.405
-0.265  0.613  0.312
0.0730 -0.665 -0.324
 0.276  0.434  0.133
-0.0900 -0.479 -0.558
0.0730 -0.665  0.394
0.00779 -0.284  0.563
-0.123 -0.594  0.562
-0.0561  0.124  0.564
-0.156 -0.512  0.565
-0.0900  0.720 -0.454
 0.276 -0.121  0.133
 0.276 -0.121 -0.536
-0.00854  0.720 -0.0466
-0.261 -0.170  0.312
 0.276 -0.447 -0.340
 0.276  0.548  0.377
 0.276 -0.643 -0.356
 0.276  0.678  0.394
-0.221 -0.137  0.570
 0.277 -0.708  0.345
 0.276  0.434  0.312
 0.276 -0.659  0.133
 0.203 -0.349  0.570
 0.276 -0.708 -0.487
 0.276  0.385  0.263
 0.276 -0.512  0.182
 0.276  0.482  0.263
-0.261  0.352  0.182
-0.261 -0.463  0.133
-0.172  0.720 -0.226
 0.276  0.466 -0.340
-0.261  0.270 -0.454
-0.261 -0.186 -0.438
 0.276 -0.594 -0.324
-0.253  0.720 -0.210
 0.122 -0.267 -0.558
-0.261  0.352 -0.438
 0.276  0.173  0.394
-0.265 -0.675 -0.308
-0.265 -0.675 -0.405
-0.253  0.720  0.345
 0.276  0.417 -0.275
 0.276 -0.365  0.459
-0.261 -0.202 -0.177
-0.155  0.720  0.426
-0.261 -0.202 -0.112
-0.155  0.720  0.573
 0.220 -0.643 -0.566
 0.276  0.254 -0.144
 0.276  0.417  0.165
 0.276  0.222 -0.226
-0.220  0.720 -0.144
 0.236 -0.545 -0.566
 0.276  0.401 -0.210
 0.276  0.499 -0.226
 0.155  0.720 -0.487
 0.276 -0.414 -0.259
-0.261 -0.545  0.491
-0.265 -0.691  0.394
-0.261 -0.202  0.410
 0.276 -0.626  0.328
 0.276 -0.480  0.394
 0.276  0.531 -0.373
-0.261  0.596 -0.112
-0.261 -0.545 -0.471
 0.276 -0.300  0.133
 0.276 -0.496  0.459
 0.236 -0.268 -0.566
-0.139  0.720  0.214
 0.276  0.482  0.491
-0.261 -0.479  0.491
-0.261 -0.398  0.182
 0.276  0.107 -0.112
-0.00851  0.720  0.247
0.0241 -0.137  0.562
0.0730 -0.121  0.562
 0.276 0.0259  0.312
 0.276 -0.186 0.0186
-0.0574  0.336 -0.558
-0.0737  0.434 -0.558
-0.263  0.401 0.0512
0.00780  0.499 -0.558
 0.276 -0.00671 -0.193
0.0404  0.720 -0.356
 0.276  0.319 -0.0630
 0.276 0.0911  0.459
-0.155  0.720 -0.0792
0.00779  0.720 -0.568
-0.261 -0.170 -0.0303
-0.261 -0.219 -0.0303
0.0404 -0.398  0.562
0.0404 -0.665  0.312
 0.276 -0.316 -0.0141
0.0567 -0.382 -0.558
-0.0248  0.720  0.394
