ply
format ascii 1.0
element vertex 2048
property float x
property float y
property float z
end_header
-0.390  0.324 -0.139
 0.940 -0.167 0.0970
 0.127 -0.164  0.316
-0.947 -0.103  0.276
 0.302  0.115 -0.424
-0.780 -0.135 -0.350
-0.401 0.0421  0.350
-0.126 -0.167 -0.192
 0.118  0.304 0.0539
 0.675 -0.245 -0.349
 0.557  0.117  0.310
 0.328 -0.169 -0.0868
-0.791  0.176 -0.0445
 0.681  0.115 -0.116
-0.517 -0.160 -0.0129
 0.613 -0.266  0.347
-0.0581  0.208 -0.301
-0.424 0.00872 -0.362
-0.221  0.323  0.189
-0.211 -0.169  0.145
-0.597 -0.239  0.314
-0.723  0.166  0.292
-0.942 -0.116 -0.0586
 0.236  0.148  0.311
 0.623 -0.168 0.0399
 0.367  0.164 -0.107
-0.0733 0.0724  0.351
 0.907 -0.0750 -0.205
 0.148 -0.138 -0.334
 0.836 -0.00984  0.325
-0.641  0.196 -0.293
-0.527 -0.262 -0.298
-0.503  0.293  0.155
 0.564 0.0338 -0.359
 0.370 -0.169  0.188
0.0428 -0.167 0.0400
-0.126  0.327 -0.0656
-0.889 0.0983 -0.281
 0.846 0.0772 0.0824
 0.405 -0.165 -0.334
-0.738 -0.146  0.114
 0.156  0.274 -0.191
-0.635 -0.0317 -0.182
-0.573 0.0151  0.178
-0.179 -0.00114 -0.355
-0.925 0.0956  0.135
 0.417  0.147  0.125
0.0146  0.265  0.261
 0.571 -0.0957 -0.171
-0.369 -0.127 -0.192
-0.739 -0.0653  0.344
-0.386 -0.178  0.304
 0.391 -0.0292  0.357
-0.586  0.261 -0.0658
-0.284  0.180 -0.302
-0.0945 -0.158  0.324
 0.774 0.0439 -0.333
 0.650 -0.0796  0.252
 0.106 0.0720 -0.358
 0.619  0.127 0.0784
-0.961 -0.0899 -0.263
-0.249  0.163  0.303
 0.813 -0.163 -0.0551
0.0850 -0.169 -0.150
-0.295 -0.169 -0.0234
-0.538  0.181  0.309
-0.621 0.0197 -0.360
 0.492 -0.0165  0.170
 0.433  0.143 -0.287
-0.673  0.222 0.0923
 0.677 -0.0855 -0.441
 0.565 -0.0464  0.414
-0.778 -0.139 -0.136
 0.779 -0.183  0.333
 0.222 -0.166 0.0716
 0.727 0.0973  0.228
-0.232 -0.0212  0.351
-0.263 -0.159 -0.336
-0.401 -0.0334  0.184
-0.933 0.0616 -0.0761
 0.939 -0.0312 -0.0251
 0.127 0.00989  0.357
-0.548 -0.160  0.163
-0.337  0.327 0.0294
 0.254  0.224  0.153
 0.738 -0.0436 -0.169
-0.470  0.233 -0.286
-0.0142 -0.0577 -0.351
-0.881 0.0544  0.307
 0.771 -0.164  0.135
 0.833 -0.178 -0.320
-0.211  0.320 -0.214
 0.286 -0.0430 -0.360
-0.524 -0.0728  0.340
-0.391  0.259  0.276
-0.962 -0.0772  0.103
-0.476 0.0173 -0.168
-0.0734  0.327 0.0927
 0.271  0.191 -0.277
 0.849 0.0728 -0.136
 0.527  0.140 -0.0550
 0.455 -0.166 0.0505
 0.252  0.238 -0.0234
0.0327  0.320 -0.0868
 0.396  0.128  0.325
-0.105 -0.167 -0.0340
 0.286 -0.169  0.324
-0.622 -0.140 -0.357
-0.0523 -0.169  0.167
-0.527 -0.156 -0.171
 0.533 -0.240 -0.280
 0.275 -0.169 -0.235
-0.780  0.174 -0.203
-0.390 -0.168  0.114
 0.688 0.0284  0.358
 0.491 -0.179  0.323
 0.570  0.126 -0.225
-0.643 0.0514  0.353
 0.892 -0.114  0.230
-0.665 -0.153 -0.0340
-0.759 0.0717 -0.346
-0.408 -0.149 -0.363
 0.474 -0.0393 -0.266
0.0600  0.137  0.326
-0.133  0.252  0.279
 0.643 -0.114 -0.300
 0.435 -0.164 -0.182
0.0955 -0.169  0.177
-0.791  0.174  0.156
 0.155  0.252  0.260
0.000529 -0.169 -0.266
-0.813 -0.134  0.230
-0.479  0.303 0.0188
-0.528 -0.0533 -0.276
-0.00989  0.317 -0.230
-0.0629 0.0735 -0.353
 0.687 -0.165 -0.129
 0.127  0.194 -0.299
-0.527  0.124 -0.346
 0.684 -0.212  0.229
-0.263  0.329 -0.0868
-0.658 -0.162 -0.228
0.0166 -0.0685  0.347
 0.919 -0.0272  0.128
 0.528 -0.165  0.163
-0.253 -0.169  0.324
 0.254 -0.0334  0.354
 0.634 0.0205  0.165
-0.674 -0.128  0.230
 0.945 -0.170 -0.0755
-0.200  0.329 0.0504
 0.740  0.107 0.00826
-0.360  0.327  0.166
 0.656 0.0288 -0.264
-0.824 -0.132 -0.00231
-0.615  0.238  0.210
 0.222 -0.169  0.209
-0.133 -0.158 -0.329
-0.341  0.292 -0.256
 0.428 0.0362 -0.361
-0.514  0.288 -0.170
-0.899  0.161 -0.149
 0.814 -0.161 -0.192
-0.856 -0.0108 -0.338
 0.180 -0.169 -0.0656
 0.540  0.132  0.178
-0.924  0.146 0.0189
 0.850 0.0475  0.205
-0.675  0.218 -0.150
-0.968 -0.0323 -0.151
-0.253 -0.167 -0.171
 0.502 -0.00632  0.293
-0.401  0.142 -0.334
-0.179  0.127 -0.338
 0.497 -0.169 -0.0656
 0.761 -0.0772 -0.312
-0.455 -0.230  0.216
-0.306 0.0411 -0.356
 0.744 -0.0363  0.188
 0.337  0.164  0.221
-0.496 0.0284  0.272
-0.348 -0.0701  0.347
-0.485 -0.233  0.361
-0.419 -0.224 -0.246
0.0312  0.322  0.156
-0.948 0.00667  0.221
 0.538 -0.170  0.431
 0.346  0.184 0.0396
-0.851 -0.129  0.341
-0.946 0.0199 0.0399
 0.456 -0.104  0.241
-0.369  0.151  0.321
 0.742 0.0938 -0.214
 0.338 -0.169 0.0399
 0.146  0.291 -0.0759
 0.571 0.0201 -0.168
-0.0734  0.320  0.210
-0.772 0.0742  0.337
 0.306  0.121  0.396
-0.687  0.214 -0.0225
-0.822 -0.135 -0.245
-0.168  0.231 -0.284
-0.116 -0.0494  0.347
 0.636 -0.155  0.334
-0.717 -0.0420 -0.355
-0.327 -0.167  0.209
 0.634 -0.220 -0.235
-0.627 -0.117  0.354
 0.465  0.146 -0.159
-0.400 -0.0301 -0.238
-0.849  0.154  0.269
0.0111 -0.169  0.293
 0.864 0.0749 -0.0272
 0.853 0.0217 -0.233
 0.233 0.0532 -0.358
 0.765 -0.0862  0.283
 0.138 -0.0320 -0.358
-0.200 -0.167 0.0294
-0.390 -0.168 -0.0762
-0.327 -0.0651 -0.349
-0.868 -0.128  0.121
 0.729 -0.165 0.0189
-0.929 0.0619 -0.188
-0.0206 -0.169 -0.129
 0.719  0.108  0.114
 0.669 0.00101 -0.378
0.0224  0.143 -0.325
 0.392 -0.143  0.336
 0.247  0.227 -0.161
-0.559 -0.149  0.273
 0.602 -0.166 -0.0656
-0.517 -0.139 -0.336
 0.169 -0.169 -0.235
-0.444 -0.0962  0.273
-0.158 -0.166  0.241
0.00138  0.324 0.0188
 0.539 -0.116 -0.308
 0.507  0.143 0.0715
 0.164  0.276  0.152
-0.643 -0.156 0.0716
-0.105 -0.167 0.0716
 0.432  0.145 -0.0128
-0.0530  0.188  0.295
 0.630 0.0225  0.272
 0.863 -0.0537 -0.304
-0.190 0.0734  0.348
-0.288  0.279  0.254
-0.295 0.0830  0.349
 0.402 -0.0647 -0.355
-0.500  0.264  0.262
-0.0839  0.329 -0.161
-0.538 0.0727  0.354
-0.898 -0.120 -0.150
 0.464  0.138  0.250
-0.652 -0.0529  0.165
-0.618 -0.00564  0.273
0.0831  0.291 -0.260
-0.496 -0.0746  0.168
 0.655 -0.167  0.135
 0.911 -0.00554 -0.132
-0.822  0.173 0.0610
-0.295 -0.167 0.0822
 0.866 -0.158 0.0294
-0.190 -0.167 -0.0867
-0.612 -0.158 -0.118
 0.570 -0.0826  0.321
 0.374  0.148 -0.205
 0.284 -0.139 -0.339
 0.705 -0.177 -0.413
 0.468 -0.0559 -0.170
-0.665  0.111 -0.338
 0.576 -0.0288 -0.253
-0.621 -0.221 -0.301
 0.562 -0.247  0.265
 0.571 -0.0746  0.167
 0.923 -0.174 -0.170
-0.606  0.245 -0.213
 0.617  0.105 -0.319
0.0217 0.0518  0.355
 0.170 -0.0817  0.345
-0.843 -0.0324  0.339
-0.442 -0.241 -0.339
 0.620  0.116  0.237
 0.472 0.0576  0.359
 0.770 0.0609  0.321
-0.584 -0.236  0.219
-0.606 0.00306 -0.266
-0.585  0.260 0.0922
-0.401 -0.165 0.0188
0.0533 -0.169 -0.0551
-0.400  0.324 -0.0445
 0.670 0.0229 -0.169
 0.517  0.119 -0.323
 0.620  0.126 -0.0164
-0.517 0.0303 -0.319
-0.154  0.163  0.303
-0.622  0.140  0.323
 0.138 -0.169 0.0294
-0.569 -0.232 -0.219
 0.233 -0.167 -0.150
-0.439  0.304 -0.231
-0.782  0.150 -0.294
-0.700  0.201  0.197
-0.327 -0.167 -0.266
 0.474 -0.0724  0.368
-0.893 -0.0977 -0.327
 0.328 0.0541 -0.359
 0.568 0.0313  0.347
-0.0945  0.286 -0.266
-0.465  0.133  0.339
-0.933 0.0175 -0.274
 0.782 0.0954 -0.0774
 0.204  0.258 0.0721
 0.562 -0.187 -0.189
0.0641 -0.104 -0.344
 0.858 -0.177  0.285
-0.105 -0.0649 -0.347
 0.148 0.0968  0.342
 0.296 -0.167  0.124
-0.474 -0.164 0.0716
 0.236  0.217  0.242
 0.611 -0.181 -0.351
0.0321 0.0204 -0.358
-0.750 -0.143  0.293
-0.221 -0.167 -0.256
-0.433  0.314  0.103
 0.201  0.132 -0.328
-0.890  0.160  0.187
-0.439 -0.141 -0.271
-0.379  0.220 -0.294
-0.972 -0.0183 -0.0622
-0.179 -0.111  0.336
 0.711 -0.0136  0.268
-0.879  0.168 -0.0551
-0.453 -0.106 -0.171
 0.740 -0.188 -0.328
-0.695 -0.152 -0.308
 0.918 -0.0853 0.0611
 0.247 0.0551  0.356
-0.470 0.0208  0.174
-0.969 -0.0752 0.0152
 0.773 -0.157  0.223
-0.430 -0.0407  0.361
 0.591  0.129 -0.139
 0.892 -0.155 -0.258
-0.200 -0.0859 -0.344
-0.527 -0.0534 -0.171
 0.656  0.111 -0.214
-0.475 -0.162 -0.0973
 0.498 -0.117 -0.224
-0.555  0.217 -0.299
 0.666 -0.0851  0.167
-0.913 0.0855  0.231
-0.934 -0.111  0.178
 0.857 -0.159  0.125
 0.583 -0.0502 -0.350
-0.620 -0.0874 -0.252
 0.709 0.0895 -0.299
-0.591 -0.0218  0.361
-0.263  0.327  0.114
 0.338  0.142 -0.298
-0.750 -0.143 -0.0445
 0.359 0.0503  0.359
 0.687 -0.247  0.308
 0.359 -0.167 -0.224
 0.655 -0.0851 -0.171
 0.791 0.0901  0.156
-0.517 -0.225  0.283
-0.431  0.310  0.208
-0.422 -0.0659 -0.323
-0.559 -0.158 0.0610
 0.412 -0.169 -0.0656
-0.476  0.304 -0.0765
 0.549 -0.168 0.0822
0.0481  0.316 -0.169
-0.739 -0.144 -0.235
 0.846 -0.100  0.318
-0.242 -0.169  0.241
-0.285  0.325 -0.175
-0.158  0.329  0.135
 0.333  0.182  0.122
-0.557 0.0250 -0.182
 0.531 -0.231  0.375
-0.753  0.181 -0.118
0.0955  0.202  0.289
 0.884 -0.0264  0.220
 0.754 -0.0326  0.345
 0.914 -0.0957 -0.0962
 0.672 0.0936  0.310
-0.0417 -0.169 0.0188
 0.735 -0.0268 -0.252
 0.391 -0.169  0.103
0.0322 -0.167  0.124
-0.865  0.160 -0.224
-0.327 -0.169 -0.129
0.0216  0.239 -0.277
0.0821  0.296  0.226
 0.559 0.0237  0.198
 0.325  0.196 -0.0445
 0.193  0.233 -0.269
-0.0523 -0.149 -0.335
-0.179  0.329 -0.140
 0.900 0.0312 0.0419
 0.602 -0.266 -0.320
 0.501 -0.0147 -0.339
-0.908 -0.119 0.0505
 0.449 -0.165 -0.266
 0.687 -0.0759 -0.356
-0.749  0.181 0.0294
 0.176  0.277 -0.00232
-0.370 -0.106  0.241
-0.105  0.330 0.0188
-0.557  0.274 0.00827
-0.273  0.114 -0.347
-0.506 -0.190 -0.270
-0.548 -0.0444  0.267
-0.474 -0.145  0.329
 0.274  0.222 0.0572
-0.327 0.00980  0.354
 0.212 -0.169  0.293
 0.805 -0.00212  0.249
-0.437 -0.238  0.294
-0.606 -0.0521 -0.329
-0.443 -0.138  0.164
-0.577 -0.148 -0.278
 0.303  0.189 -0.200
0.0850 -0.169 -0.298
 0.314  0.134  0.313
-0.629  0.242 0.0294
-0.717 0.0203  0.354
-0.623  0.209  0.283
-0.316  0.202  0.289
 0.208 -0.0898 -0.349
-0.446  0.195  0.295
 0.718 -0.148  0.291
 0.918 -0.168  0.181
-0.274 -0.0950  0.342
-0.400 -0.0301  0.290
-0.105  0.148 -0.327
 0.465 -0.106  0.164
-0.171  0.311  0.246
-0.706 -0.151 -0.161
-0.922 -0.00984  0.298
-0.0207  0.116  0.317
-0.0523  0.329 -0.0868
 0.620 -0.0361  0.356
-0.665 -0.153  0.145
-0.844 -0.129 -0.0762
-0.664 -0.0724  0.304
 0.568 -0.187  0.320
0.0639 -0.167 -0.224
 0.180 -0.167  0.145
-0.0417 -0.169 -0.203
 0.264 -0.169 -0.0445
-0.506 -0.0377 -0.351
-0.0523 -0.169  0.251
-0.711 -0.148 0.0259
-0.464 0.0827 -0.352
 0.939 -0.174 0.0189
 0.750 -0.127 -0.169
-0.570 -0.166  0.347
 0.162  0.170  0.303
-0.960 -0.00261  0.114
 0.423 -0.169  0.262
 0.773 -0.166 -0.256
 0.275  0.120 -0.335
-0.228  0.231  0.279
-0.0310 -0.0107  0.352
-0.909  0.161  0.102
 0.752 -0.117 -0.375
-0.556 -0.239 -0.363
-0.781  0.170  0.230
-0.617 -0.0728  0.240
-0.116 -0.169 -0.108
-0.570 -0.0640  0.167
-0.211  0.327 -0.0340
-0.409 -0.117  0.354
0.0216 -0.169  0.198
 0.159 -0.166 -0.140
 0.307 -0.0852  0.348
-0.739  0.187  0.103
 0.589 -0.154 -0.268
-0.591 -0.156 -0.0129
-0.369 -0.117 -0.308
-0.485 0.0212  0.362
 0.296 -0.167  0.209
 0.511 -0.00290 -0.213
0.0519  0.319 0.0822
 0.338 -0.167  0.272
-0.830 0.0783 -0.321
-0.907 -0.122 -0.224
-0.612 -0.106 -0.171
-0.779 0.000907 -0.352
 0.303  0.199 -0.116
-0.221 0.0628 -0.352
-0.646 -0.185  0.338
 0.626 -0.199  0.273
 0.402  0.101 -0.340
-0.803 -0.135 0.0821
 0.623 -0.151 -0.166
 0.654  0.119  0.145
-0.515  0.279 -0.243
-0.719  0.177 -0.268
-0.232  0.260 -0.266
 0.516 -0.0967  0.432
-0.605  0.249 -0.141
 0.687  0.116 -0.0445
-0.886 -0.125  0.230
 0.416  0.147  0.198
 0.212 -0.169 -0.319
-0.370 -0.117  0.169
-0.295  0.323  0.198
-0.0734 -0.00114 -0.354
-0.669  0.213 -0.223
 0.233 -0.115  0.340
 0.453 -0.0977 -0.318
-0.728 -0.148  0.188
0.0955 -0.0536  0.348
-0.481 -0.256 -0.232
-0.668 -0.0871 -0.329
 0.497 0.0583 -0.359
-0.414 -0.0240 -0.169
-0.709  0.107  0.335
 0.709 -0.122  0.209
-0.126 -0.167  0.177
-0.0734 -0.169 -0.266
 0.127 -0.169  0.241
-0.0311 -0.169 0.0927
0.0637 -0.119  0.332
-0.509  0.295 0.0828
 0.528 -0.168 -0.129
 0.560 -0.168 0.00827
 0.597 -0.133  0.280
-0.822  0.172 -0.108
 0.633 -0.117 -0.373
 0.192  0.263 -0.131
-0.706 -0.150  0.350
-0.442 0.00872 -0.294
 0.780 0.0961 0.0691
-0.639 -0.197  0.241
-0.963 -0.109 -0.171
 0.716 -0.00388 -0.316
 0.906 0.0226 -0.0547
-0.396 -0.169  0.217
0.0982  0.303  0.156
0.0217 -0.159 -0.336
 0.325  0.157 -0.373
-0.793 -0.137  0.156
 0.877 -0.155 -0.0973
-0.0626 -0.0935  0.339
 0.793 -0.0216 -0.344
-0.274 -0.0212 -0.356
 0.545  0.136 0.0145
-0.812 -0.0740 -0.344
 0.765 -0.0861 -0.235
 0.821 0.0744 -0.203
-0.137  0.322 -0.204
-0.0168  0.326 -0.147
-0.650  0.231 -0.0873
 0.676 -0.162 -0.340
 0.668 -0.0272  0.212
-0.337 -0.141  0.335
-0.580 0.0816 -0.353
-0.781 -0.00105  0.345
-0.458 -0.0253  0.255
0.0653  0.314 -0.00229
 0.846 -0.0132 -0.176
 0.568 0.0293 -0.287
 0.831 -0.159  0.188
 0.676 -0.165 -0.0234
 0.632 -0.0453 -0.410
 0.687 -0.167 0.0716
 0.676  0.118 0.0294
-0.306  0.329 -0.0340
-0.485  0.170 -0.319
 0.792 0.0806  0.230
-0.358 0.0828 -0.352
 0.349 -0.0211 -0.364
-0.147 0.00980  0.351
-0.966 -0.0429  0.167
-0.548 -0.161 -0.0973
 0.666 0.0671 -0.345
 0.453 -0.107  0.314
 0.349 -0.124 -0.344
-0.612 -0.117  0.164
-0.432 -0.166 -0.150
 0.793 -0.162 0.0716
 0.455 -0.166  0.124
-0.0417 -0.167 -0.0656
-0.147 -0.166 -0.256
 0.117 -0.167 0.0927
 0.117 -0.166 -0.0868
-0.274 -0.167 -0.0867
-0.962 -0.0102 -0.220
-0.931 0.0823 -0.0127
 0.792 -0.165 -0.118
 0.191 -0.0112  0.355
-0.553  0.264  0.215
-0.454 -0.162 -0.0340
 0.587 -0.121  0.373
 0.471  0.147 -0.0901
-0.451  0.310 -0.160
-0.585  0.153 -0.329
 0.887 0.0293  0.115
 0.108  0.301 -0.129
-0.0512  0.272  0.258
 0.845 -0.117 -0.295
 0.525  0.137 -0.133
 0.592 -0.209  0.389
-0.821  0.114  0.312
 0.483 -0.137  0.392
-0.539  0.281 -0.108
-0.833 -0.133 -0.171
-0.547 -0.253  0.354
 0.506  0.137 -0.214
 0.292  0.176  0.267
-0.637  0.234  0.145
-0.900 -0.0844  0.318
-0.485 -0.159  0.267
-0.402  0.321 0.0399
-0.400 -0.203 -0.308
-0.930 0.0795 0.0609
 0.607 0.0846  0.336
 0.479 -0.0370  0.241
 0.764 -0.106  0.165
-0.500 -0.110 -0.259
-0.557 0.0250  0.293
 0.117  0.131 -0.333
 0.681 -0.213 -0.294
 0.422  0.145 0.0609
 0.901 -0.0868  0.171
 0.897 -0.155 -0.0340
-0.654 -0.0324  0.356
-0.337 -0.167 0.0294
 0.796 0.0735 -0.280
 0.275 -0.169 0.0294
-0.179 -0.166 -0.150
-0.527 0.0299 -0.256
 0.212 -0.169 0.00826
0.0639 -0.167  0.251
-0.413 -0.190  0.361
-0.316 -0.169 -0.192
0.00222  0.314  0.222
-0.200  0.178 -0.305
 0.245  0.220 -0.225
-0.284  0.317 -0.240
 0.560 -0.103 -0.234
 0.208  0.260 -0.0641
-0.348  0.327  0.103
 0.201  0.250  0.200
 0.169 0.0634 -0.356
 0.509 -0.181 -0.290
 0.592 -0.168  0.156
0.0639  0.187 -0.300
 0.399  0.147  0.260
-0.348  0.297  0.244
 0.833 -0.00701  0.177
-0.327 -0.169  0.145
 0.296 -0.167 -0.150
 0.781 -0.107  0.340
 0.682 -0.0847  0.306
 0.527  0.131  0.250
-0.629 -0.0153  0.211
-0.327 -0.169  0.272
0.0745 -0.0318 -0.357
 0.433 -0.169  0.188
-0.126 0.0735 -0.353
-0.0317  0.329  0.156
 0.135  0.257 -0.277
0.0111  0.209  0.290
-0.937 0.0431  0.167
 0.402 -0.169 -0.129
-0.943 0.0217 -0.0235
 0.801 0.0964 -0.00227
 0.439  0.148 -0.217
0.000686 0.0901 -0.350
 0.655 -0.141  0.253
 0.529 -0.0108  0.371
 0.256  0.229 -0.0856
-0.707 0.0408 -0.357
 0.599 -0.0718 -0.292
 0.803 -0.00280 -0.260
-0.569 -0.171 -0.351
 0.624 -0.00994 -0.327
-0.843  0.169  0.124
-0.179 -0.167 0.0927
-0.844 -0.129 -0.345
 0.623 -0.0323 -0.171
-0.918  0.132 -0.0982
-0.473 -0.0140 -0.221
-0.0312  0.267 -0.263
 0.697 -0.00153  0.164
-0.306  0.246 -0.273
 0.570  0.133  0.124
 0.750  0.103 -0.129
 0.296 0.00989  0.360
 0.207  0.215  0.296
-0.368 0.0946  0.344
-0.905  0.119 -0.193
-0.190 -0.169 -0.308
 0.454 -0.000656  0.357
-0.140  0.114  0.336
-0.483 -0.189 -0.341
-0.728  0.138 -0.319
-0.938 0.0361 -0.134
 0.556 0.0165  0.258
-0.263 0.0303  0.353
 0.622 -0.227  0.219
 0.609 -0.0233  0.238
 0.454  0.112  0.330
-0.154  0.283 -0.253
-0.582  0.258  0.156
-0.965 -0.0760  0.218
-0.685 -0.154  0.293
 0.139  0.278  0.208
-0.972 -0.0307 0.0598
-0.358  0.329 -0.0867
0.0940  0.311 -0.0550
 0.531 -0.127  0.331
 0.623 -0.0429  0.164
-0.253  0.329 0.00825
 0.454 -0.169 -0.0234
-0.792 -0.126  0.336
 0.887 -0.0319 -0.241
 0.212  0.188 -0.303
 0.878 0.0381 -0.175
 0.913 -0.0262 0.0328
 0.476  0.146  0.135
 0.748 0.0397  0.270
 0.923 -0.0651 -0.148
-0.723  0.186 -0.193
 0.657 -0.212 -0.409
-0.914 -0.0218 -0.314
-0.0764  0.134  0.325
 0.871 -0.0543  0.291
-0.309 -0.121 -0.339
 0.746 0.0303 -0.278
-0.466 -0.109 -0.336
 0.613 0.0351 -0.224
-0.629 -0.199 -0.357
0.0321 -0.0119  0.351
-0.561 -0.0882 -0.343
 0.287  0.199  0.212
-0.411  0.272 -0.273
 0.560 -0.174 -0.318
 0.645 -0.175  0.204
 0.720 -0.208  0.274
-0.580 0.0178 -0.319
-0.420 -0.172 -0.221
-0.384  0.206  0.298
 0.881 -0.178  0.232
-0.661  0.214  0.240
-0.879  0.168 0.0505
-0.738 -0.0951 -0.346
 0.706  0.108 -0.171
-0.608 -0.175  0.289
-0.591 -0.159  0.124
-0.728 -0.148 -0.108
 0.591  0.131 -0.0655
-0.410 -0.106 -0.227
-0.506 -0.00886  0.314
 0.848 0.0725  0.139
 0.823 0.0213 -0.307
 0.593 -0.252 -0.259
 0.338 -0.169 -0.277
 0.317 -0.166 -0.0129
 0.528  0.126 -0.267
 0.729 -0.165 -0.0446
-0.179 -0.167 -0.0234
-0.263 -0.169  0.188
-0.470 -0.254 -0.287
-0.0840 0.0101  0.354
-0.126 -0.169 0.0188
-0.0945  0.329  0.145
-0.179 -0.169  0.293
-0.606 -0.0519  0.304
-0.622 -0.212 -0.227
 0.507 -0.168 0.0294
-0.0152  0.326 0.0731
 0.881 -0.0860 -0.257
-0.827  0.167 -0.171
 0.892 -0.128 -0.182
-0.355 -0.165 -0.334
 0.497 -0.138 -0.171
-0.510  0.292 -0.0331
-0.561 -0.216 -0.298
-0.373 -0.0863  0.293
0.0743 0.0310  0.354
-0.672 -0.107  0.177
-0.530  0.126  0.336
 0.812 -0.0749 -0.346
-0.647 -0.0381 -0.256
-0.692  0.214 0.0399
 0.487  0.146 -0.000434
 0.885 0.0407 -0.108
 0.850 -0.160 -0.149
-0.803 -0.135 -0.298
 0.184 0.0550  0.356
 0.453 -0.107 -0.192
-0.379 -0.0112  0.351
-0.263 -0.0755 -0.346
-0.610 -0.126  0.257
-0.538 0.0292  0.219
-0.432  0.194 -0.299
 0.831 -0.158  0.331
 0.549 -0.0218  0.167
-0.966 -0.112 -0.115
-0.917 0.0637 -0.247
 0.528 0.0705  0.351
-0.496 -0.0745  0.267
-0.446  0.277  0.265
-0.971 -0.0221 -0.00233
-0.189 -0.0562  0.344
-0.204  0.141  0.326
 0.665 -0.139 -0.420
-0.961 -0.0630 -0.202
-0.0405  0.156 -0.310
 0.522 -0.225  0.298
-0.239 0.0988  0.344
-0.921 0.0412  0.264
 0.370 -0.0939  0.350
 0.419 0.0724  0.349
-0.369  0.317 -0.214
-0.379 -0.0697 -0.280
 0.342  0.110  0.355
 0.646 -0.252  0.262
 0.784 -0.158 -0.342
 0.697  0.107  0.177
-0.384 -0.0701 -0.178
 0.722 0.0550 -0.348
-0.861 -0.129  0.181
-0.147  0.325  0.198
 0.409  0.147 -0.140
 0.586 0.00335  0.391
 0.905 -0.127  0.134
 0.729 0.0862  0.293
-0.431 -0.181  0.272
-0.770 -0.140 0.00826
 0.380  0.159 0.00475
0.000373 -0.119  0.331
-0.574  0.242  0.261
 0.922 -0.106 -0.0331
 0.654 -0.0309  0.277
-0.557 -0.117  0.328
 0.286 0.0964  0.340
-0.337  0.326 -0.161
 0.244 -0.000265 -0.363
 0.804 -0.0531  0.340
-0.926  0.136 -0.0443
-0.0981  0.300  0.254
-0.500  0.217  0.293
-0.927 -0.119  0.124
 0.467 -0.0583  0.293
 0.503  0.127  0.310
-0.787  0.157  0.283
 0.887 -0.00466  0.167
-0.493 -0.256 -0.354
-0.455 -0.0375 -0.267
 0.744 -0.0376 -0.362
-0.844 0.0243  0.334
 0.113  0.141  0.317
 0.466  0.106 -0.333
 0.674 -0.182  0.306
 0.613 0.0563 -0.363
-0.115 -0.109  0.332
-0.604  0.227 -0.271
-0.740  0.188 -0.0551
-0.561 -0.0164 -0.245
 0.570 -0.0183  0.325
 0.697 -0.158  0.167
-0.506 -0.0218  0.164
-0.785 -0.138 -0.196
 0.613 -0.165 0.0928
-0.893 0.0278 -0.316
-0.464 -0.0534 -0.168
-0.400 -0.0956 -0.364
0.0640  0.112 -0.340
 0.476 -0.169 -0.118
0.0322 -0.167 -0.118
-0.0523  0.327 0.00827
-0.443 -0.0640  0.164
 0.233 -0.167  0.124
-0.876 -0.127  0.293
 0.619 -0.230 -0.376
-0.211  0.330  0.124
-0.358  0.172 -0.304
-0.274 -0.169 -0.277
-0.126  0.195 -0.310
-0.738 -0.146  0.241
-0.464 -0.165 0.0188
-0.253 -0.167 0.0400
 0.138 -0.169 -0.287
-0.591 0.0637  0.352
-0.602 -0.156 -0.0656
 0.613 -0.165 -0.0129
 0.296 0.00989 -0.364
0.0850  0.237 -0.281
-0.485 0.0825  0.349
-0.242  0.307  0.236
 0.127 -0.114  0.338
-0.861 -0.129 -0.294
-0.691  0.207  0.145
-0.950 -0.0420  0.265
 0.763 -0.0768  0.230
 0.664 0.0262  0.209
 0.877  0.110 0.0115
 0.485  0.143  0.187
-0.0628  0.321 -0.223
-0.496 -0.00798  0.221
-0.442  0.313  0.156
 0.560 -0.0323 -0.171
-0.876 -0.127 0.00827
-0.674 -0.128 -0.266
-0.00672  0.327 -0.0514
-0.665  0.179  0.294
-0.852  0.134 -0.295
-0.0417 -0.159  0.331
-0.665 -0.153 -0.118
-0.633 0.0720 -0.354
 0.524 -0.206 -0.240
 0.642 -0.178 -0.302
-0.411 0.0881 -0.349
-0.873  0.112  0.290
 0.498 -0.188  0.388
-0.126 0.0204 -0.355
-0.137 0.0629  0.349
-0.898 -0.120 -0.0868
 0.561 0.0272 -0.235
-0.179 -0.167  0.188
 0.581 -0.166 -0.129
-0.105 -0.169  0.241
-0.654 -0.147 -0.171
 0.275 -0.167 -0.287
-0.306  0.329  0.145
-0.559 0.0313 -0.366
-0.274 -0.167 -0.224
-0.0207 0.0418 -0.357
-0.348 -0.169 -0.0234
 0.631 -0.0847  0.339
 0.233 -0.169 -0.0973
-0.623 -0.146 -0.305
0.0216 -0.169 -0.192
-0.454 -0.0946  0.338
0.0850 -0.169 0.00826
-0.485 -0.164  0.145
-0.242 -0.169 -0.0445
 0.645 -0.167 -0.0973
-0.168  0.329 -0.00232
0.0217 -0.166 -0.0129
-0.0839 -0.167  0.124
-0.0839 -0.169 -0.161
 0.191 -0.169 -0.182
 0.169 -0.167  0.209
 0.370 -0.167 -0.171
-0.190 -0.169 -0.213
-0.538 -0.106  0.167
 0.643  0.109 -0.265
-0.942 -0.116 -0.00582
-0.137  0.329 0.0610
 0.381 -0.169 -0.0234
-0.0839  0.327 -0.0340
-0.306  0.327 0.0716
 0.507 -0.0746  0.164
 0.740 -0.165 -0.129
-0.126  0.329 -0.129
-0.348 -0.167 0.0822
 0.212 -0.169 -0.266
 0.301  0.207 0.00121
-0.337 -0.00105 -0.356
-0.681  0.158 -0.308
 0.118  0.304 0.00120
-0.517 -0.225  0.230
 0.782 -0.166 -0.0128
 0.338 -0.0216  0.357
-0.915 -0.121 -0.276
 0.154  0.282 0.0861
 0.542 -0.155 -0.245
 0.767 -0.128 -0.298
 0.498 -0.0841 -0.295
-0.930 -0.0701 -0.300
-0.738  0.180  0.167
-0.380 -0.166 -0.150
 0.580  0.119 -0.276
 0.267 -0.0917 -0.352
-0.556  0.266 -0.213
 0.391  0.155 -0.0614
 0.596 0.00579 -0.389
-0.415 -0.0823  0.231
 0.105  0.268  0.264
 0.709 -0.0608 -0.408
 0.219  0.252 0.0223
-0.791 -0.0635  0.343
 0.824 -0.159 -0.266
 0.350  0.167 -0.163
 0.242  0.238  0.105
0.0626 0.0903  0.350
0.0121 -0.103 -0.342
 0.639 -0.0616 -0.324
 0.614  0.121  0.178
 0.374  0.160 0.0991
 0.570 0.0930 -0.337
 0.634  0.124 -0.0973
-0.423 -0.200 -0.364
 0.194  0.248 -0.215
 0.360  0.148  0.294
-0.500  0.285  0.215
 0.698 -0.0996  0.260
 0.109  0.290 -0.215
 0.568 -0.204 -0.265
 0.698 -0.127 -0.382
-0.820 0.0300 -0.342
 0.457 -0.0759 -0.235
-0.844  0.165  0.219
-0.0626 -0.0934 -0.343
 0.640 0.0323  0.321
-0.232  0.326 -0.168
-0.419 -0.00886  0.226
-0.936 0.0372 0.0926
-0.577 -0.149 -0.161
 0.326  0.178  0.172
 0.919 -0.131 0.0366
-0.908  0.113  0.183
-0.577 -0.0957 -0.278
 0.823 -0.162  0.251
-0.453  0.313 -0.0234
 0.624 -0.225 -0.298
 0.727 -0.167  0.245
 0.518 -0.0640 -0.171
-0.629  0.246 -0.0436
 0.691 -0.0354  0.313
-0.592 -0.0778  0.345
-0.428 0.00188  0.333
-0.00300  0.163  0.306
 0.348  0.160  0.341
 0.816 0.0236 -0.200
-0.489  0.171  0.315
-0.609 -0.215  0.357
 0.380 0.0202 -0.365
-0.594 0.0104 -0.213
 0.844 0.0809 -0.0866
-0.200  0.272  0.258
 0.678 0.0203 -0.219
-0.165 -0.0494 -0.352
 0.832 0.0318  0.274
-0.969 -0.0750 -0.0480
-0.663 -0.0725 -0.174
 0.369  0.153  0.180
 0.773 0.0913 -0.172
 0.476 -0.123 -0.270
-0.686 -0.0888  0.345
-0.410 -0.135  0.293
 0.945 -0.0621 0.0184
 0.634  0.119 -0.161
 0.684  0.115 0.0787
 0.716 -0.00368 -0.189
-0.521 -0.160  0.336
 0.619 -0.00447 -0.260
 0.666 -0.251 -0.265
-0.544 -0.0115 -0.297
-0.860 -0.0605 -0.341
-0.924 0.0854 -0.119
-0.295  0.155  0.321
-0.408 -0.0392 -0.362
 0.658 -0.127  0.192
-0.390 -0.165  0.163
-0.221 -0.0419 -0.353
 0.919 -0.00642 0.0779
-0.232  0.135 -0.331
-0.941 0.0119 -0.181
-0.790  0.113 -0.325
-0.707  0.190  0.245
 0.602  0.113  0.283
-0.316  0.150 -0.325
-0.442 0.00882  0.286
 0.613 0.0351 -0.308
 0.169 -0.138  0.330
-0.470 0.0213 -0.333
-0.232 -0.119  0.335
 0.736 0.0275  0.349
-0.147 -0.148  0.329
-0.568 -0.0142  0.217
-0.966 -0.109 0.0505
 0.449 -0.149 -0.320
 0.125 -0.0783 -0.349
-0.612 -0.0112  0.165
 0.358  0.146 -0.254
 0.623 0.0344 -0.174
 0.665  0.111  0.219
 0.766 -0.158  0.293
-0.545 -0.0114  0.347
 0.549  0.133 -0.181
-0.379 -0.172 -0.277
 0.895 -0.0359 -0.179
 0.664 -0.00515 -0.301
-0.619 -0.144 -0.252
 0.555 -0.231 -0.322
 0.740  0.106 -0.0562
 0.610 -0.0500  0.281
-0.491 -0.109  0.302
 0.771 0.00374  0.292
 0.791 -0.00163  0.342
 0.766 -0.158 -0.203
-0.546  0.278  0.114
 0.851 -0.0130  0.276
 0.539 -0.0682 -0.259
 0.551 -0.0208 -0.329
 0.452 -0.159  0.304
-0.805  0.168 -0.256
-0.458 -0.208 -0.287
 0.699 0.0525  0.318
 0.749 0.0990  0.177
 0.571 -0.0597 -0.209
 0.706 -0.210 -0.378
 0.526 0.0108 -0.298
 0.592 -0.267  0.304
 0.823 0.0903 0.0397
 0.464 -0.0594  0.177
-0.0382  0.231  0.279
-0.664 -0.0727  0.251
-0.643 -0.192 -0.270
 0.264  0.187  0.304
 0.542 -0.0532  0.353
-0.180  0.233  0.276
-0.274 -0.0428  0.347
-0.538  0.165 -0.323
 0.117  0.298  0.113
-0.168 0.0519 -0.357
-0.682 -0.151 -0.354
-0.553 -0.219  0.314
 0.117 0.0629  0.352
-0.0205 0.0736  0.353
 0.908 -0.0713  0.115
 0.578 -0.253  0.378
-0.952 -0.110 -0.220
 0.545 -0.185  0.381
-0.534 -0.0904  0.292
-0.454 -0.0957 -0.276
 0.169 -0.167  0.262
 0.519 0.00667  0.230
 0.802 0.0695  0.275
 0.812 0.0889  0.113
-0.570 -0.0745 -0.168
 0.903 0.0573 -0.00579
-0.928  0.120 0.0871
-0.200  0.329 -0.0973
 0.275 -0.167 0.0822
 0.328 -0.167  0.167
 0.254 -0.169  0.167
-0.232 -0.169 -0.129
 0.317 -0.169 -0.203
 0.402 -0.169 -0.245
 0.708 -0.148 -0.171
 0.169 -0.169 -0.0128
 0.349 -0.167 -0.129
 0.201 -0.0436 -0.356
-0.242 0.0207 -0.355
-0.644 -0.154 0.00822
-0.517 0.0300  0.177
-0.582 -0.205  0.255
 0.830 -0.122 -0.340
-0.793 -0.137  0.272
 0.159 0.00989 -0.362
 0.159  0.111 -0.339
-0.422 -0.167 0.0611
-0.583  0.194  0.306
 0.906 -0.0237 -0.0620
-0.126  0.252 -0.284
-0.593 -0.0403 -0.286
 0.860 -0.117  0.264
-0.366  0.327 -0.0128
-0.0980  0.195  0.306
 0.593 -0.232 -0.215
-0.348 0.0524  0.348
0.0441  0.312  0.200
 0.898 -0.153 0.0821
 0.660  0.105  0.266
-0.504 -0.0831 -0.327
-0.547 -0.259  0.241
 0.169  0.170 -0.308
-0.0207 -0.0117 -0.354
-0.686 -0.000949 -0.357
-0.625 -0.160  0.217
-0.511 0.0477 -0.362
-0.133 -0.101 -0.342
-0.0358  0.106 -0.326
-0.379  0.319  0.208
 0.926 -0.0447 -0.107
 0.349 -0.158  0.326
-0.653  0.222  0.188
 0.581 -0.119 -0.327
-0.759  0.175 -0.245
-0.422 -0.0659  0.321
 0.896 -0.147 -0.140
 0.243  0.155 -0.313
 0.660 -0.204 -0.363
-0.452 -0.0295 -0.354
 0.551  0.134 0.0823
 0.688  0.101 -0.246
-0.739 -0.144 -0.319
-0.407  0.315 -0.188
-0.547 -0.259 -0.256
 0.150  0.284 -0.136
-0.410 -0.212  0.229
 0.718 -0.106  0.167
-0.763 -0.0565 -0.350
-0.274 -0.169  0.283
 0.553 0.0242  0.304
 0.697 -0.0640 -0.168
 0.571  0.135 -0.0234
 0.744 -0.0363  0.241
 0.360 0.0862 -0.351
 0.504 -0.0614  0.400
 0.895 -0.118 -0.226
-0.517 -0.225 -0.330
 0.485  0.137 -0.256
 0.522 -0.0451 -0.304
-0.496 -0.261  0.262
-0.527 -0.262  0.314
-0.516 -0.127  0.255
-0.695 -0.152 -0.0762
-0.957 0.00677 -0.0972
-0.0945  0.107 -0.344
 0.560 -0.0918  0.412
0.0533  0.187  0.297
-0.443  0.123 -0.346
-0.500 -0.147 -0.286
-0.441 -0.193  0.325
-0.574  0.264 -0.171
-0.781  0.174 0.0929
-0.0206 -0.167 -0.308
-0.382 -0.0629  0.255
 0.846 -0.158 -0.224
-0.628 -0.0954 -0.363
 0.454  0.149 0.0926
 0.659 -0.0145  0.337
 0.521 -0.0230 -0.252
-0.581 0.0199  0.347
 0.495 -0.106  0.346
0.0440  0.303  0.249
-0.438  0.316 -0.0972
 0.309  0.169 -0.268
-0.430 -0.000167  0.167
0.0655  0.313  0.125
-0.0839 -0.166  0.198
-0.295  0.327 -0.118
-0.116 -0.169 -0.287
0.000539 -0.167 0.0611
 0.486 -0.169 0.0927
0.0850 -0.169 0.0611
 0.328 -0.169 0.0927
-0.147 -0.169  0.124
 0.564 -0.142 -0.188
 0.591 -0.0124 -0.297
 0.432 -0.0326 -0.361
 0.718 -0.167  0.103
-0.391  0.322  0.135
 0.423 -0.169 0.00826
-0.411 -0.0957  0.164
-0.137 -0.167 -0.0656
 0.659 -0.230  0.338
 0.243 -0.169  0.262
 0.243 -0.169 -0.203
 0.359 -0.167  0.135
 0.200  0.260  0.117
-0.408 -0.0185 -0.280
 0.761 -0.167 -0.0762
-0.612 -0.158 0.0399
 0.434 -0.0648  0.350
0.0428 -0.159  0.331
-0.713 -0.150 -0.0199
-0.812 -0.136 -0.108
 0.531 -0.200  0.340
 0.243 0.00989  0.357
-0.358 -0.164  0.241
-0.232 -0.127 -0.338
 0.275 0.0804 -0.355
-0.506 -0.163 -0.0656
 0.810 0.0293  0.313
 0.892 0.0563 0.0776
-0.516 -0.162 0.0505
-0.634 -0.106  0.216
-0.738 -0.146 0.0611
-0.805 0.0441  0.338
-0.622  0.119 -0.341
 0.730 0.0903 -0.257
-0.456 0.0155  0.230
-0.453 -0.213 -0.219
 0.412 0.0302  0.360
-0.548 -0.117 -0.171
-0.371 -0.0642 -0.345
-0.852 -0.0850  0.335
 0.306  0.201 0.0790
 0.308  0.115 -0.374
 0.900 0.00843 0.00396
 0.434  0.148 -0.0658
 0.423 -0.117 -0.344
 0.243 -0.159  0.332
 0.720 -0.0659  0.293
-0.422  0.123  0.341
-0.893  0.169 -0.00231
 0.571  0.120  0.252
 0.813 0.0923 -0.0444
-0.971 -0.0429 -0.108
 0.913 -0.125  0.191
-0.544 -0.108 -0.308
-0.418  0.164  0.310
-0.791  0.177 0.0188
 0.656 0.0599  0.352
-0.937 0.0328 -0.223
 0.856 -0.157 -0.0551
-0.629 -0.0153 -0.222
 0.871 0.0719 0.0332
-0.632  0.234 -0.172
-0.456  0.240  0.286
-0.496 -0.0218 -0.168
-0.408  0.295  0.251
 0.710 -0.234 -0.318
 0.583 -0.109 -0.274
 0.768 -0.148  0.177
-0.352  0.240  0.272
-0.0754  0.251 -0.284
 0.193  0.141  0.312
-0.707 -0.0221  0.351
 0.949 -0.169 -0.0320
-0.689  0.141  0.316
 0.475 0.0204 -0.364
 0.412 -0.169 0.0611
-0.591 -0.0855  0.281
-0.712  0.196 -0.140
-0.316 -0.169 -0.0762
 0.138 -0.167  0.167
-0.868 -0.128 -0.196
 0.575  0.125  0.203
 0.497 -0.166 -0.0129
-0.704 -0.149 -0.210
-0.479  0.272 -0.268
-0.284 -0.167 -0.139
-0.116  0.329  0.103
-0.0839 -0.166 -0.213
 0.159 -0.166  0.103
-0.0628 -0.166 -0.118
-0.834  0.169 -0.0657
-0.221 -0.167  0.198
 0.687 -0.165 -0.0657
0.0955 -0.167 -0.0340
0.0533 -0.166  0.167
-0.116 -0.167  0.283
 0.148 -0.167 -0.192
0.0428 -0.167 -0.287
 0.761 0.0975  0.125
 0.728  0.110 0.0713
-0.778 -0.139 -0.263
-0.295 -0.158  0.324
-0.598 -0.229 -0.357
 0.528 -0.106 -0.171
 0.581 -0.168 0.0505
-0.422 -0.167 -0.108
-0.147 -0.167 0.0611
-0.253 -0.169  0.135
 0.338 -0.167  0.219
 0.328 -0.169 -0.319
0.0955 -0.169 -0.256
-0.573  0.124  0.336
-0.692  0.214 -0.0656
0.0981  0.302 -0.172
 0.822 0.0488 -0.256
 0.551  0.134 -0.0975
 0.644  0.124 -0.0551
-0.778  0.123  0.313
 0.517  0.141  0.114
 0.662 -0.127  0.314
 0.138  0.212  0.286
 0.554 -0.0200 -0.213
0.0320 -0.0652 -0.349
-0.686 0.0615  0.349
 0.287  0.209  0.129
-0.629 -0.0153 -0.328
-0.200 0.0314  0.350
 0.106 -0.148 -0.333
-0.898 -0.120  0.156
-0.929 0.0499  0.210
 0.156  0.284 0.0352
0.0111  0.202 -0.297
 0.782 0.00276 -0.297
-0.634  0.241 0.0924
-0.396 -0.0673  0.359
 0.710 0.000517  0.205
 0.916 -0.138 -0.0865
 0.869 -0.159 -0.306
0.0638 0.0633 -0.355
 0.893 -0.0645  0.239
-0.752  0.177 -0.161
-0.837  0.168  0.167
 0.392  0.137 -0.318
-0.643 -0.0747 -0.218
-0.436 0.00394 -0.192
-0.263  0.209  0.290
-0.685 -0.154 0.0611
-0.0628 -0.0391  0.346
-0.0417 0.0310  0.354
 0.592 0.0274  0.171
-0.834  0.170 0.0189
 0.584 -0.135  0.332
-0.867 -0.125 -0.0338
 0.603 -0.264  0.262
 0.486 -0.169  0.156
-0.762  0.179 -0.0129
 0.293  0.209 -0.0734
-0.316 0.0905 -0.352
-0.462  0.310 0.0714
-0.396  0.304 -0.245
 0.844 -0.0237 -0.328
 0.892 -0.159 -0.211
-0.605 -0.182 -0.326
-0.592  0.262 -0.0234
 0.745 -0.142 -0.337
 0.496 -0.0113  0.336
-0.496 -0.127 -0.171
 0.454 -0.138  0.209
-0.200 -0.148  0.331
-0.613  0.251 -0.0970
-0.337  0.210 -0.291
-0.242  0.187 -0.302
-0.552 -0.0136 -0.339
 0.877 -0.158  0.177
-0.0197  0.231 -0.284
 0.247  0.112  0.332
-0.137  0.121 -0.337
-0.116  0.156  0.320
0.0503  0.317 -0.0480
 0.609  0.116 -0.238
-0.654 0.0103  0.355
-0.211  0.180  0.298
-0.501  0.296 -0.118
 0.117 0.00960 -0.358
 0.595 -0.188 -0.216
-0.105  0.319 -0.232
 0.310  0.159 -0.413
 0.219 -0.130 -0.339
-0.600  0.187 -0.310
 0.329  0.168 -0.230
-0.168  0.319 -0.232
 0.296 -0.167  0.283
0.0744  0.149 -0.313
-0.0308  0.323 -0.194
 0.634 -0.264  0.304
 0.495 -0.0664  0.324
-0.629 -0.0153  0.327
-0.348  0.253 -0.270
 0.294  0.203 -0.162
-0.822 -0.135 0.0399
-0.348 0.0408 -0.356
-0.426 -0.0589  0.265
 0.449 -0.165 -0.224
-0.295  0.327 0.0294
 0.792 -0.165 0.0294
 0.518 -0.0218 -0.169
 0.687 -0.165 0.0294
-0.927 -0.0910  0.228
-0.306  0.327 -0.0762
-0.886  0.164  0.145
-0.284 -0.167  0.241
-0.126 -0.169 -0.150
0.0519  0.319 0.0399
-0.901  0.117 -0.235
 0.553 -0.207  0.418
-0.906 0.0570 -0.287
-0.868 -0.128 0.0786
 0.212 -0.169 -0.0340
-0.295 -0.169 0.0188
-0.380 -0.00105 -0.355
 0.233 -0.0737  0.350
 0.666 -0.148 -0.171
-0.781  0.177 -0.0867
-0.547  0.280 0.0715
-0.370 -0.126 -0.350
0.0747  0.314 -0.107
-0.553  0.220  0.293
 0.550 -0.253  0.344
-0.854  0.167 -0.139
 0.602  0.128 0.0399
 0.860 0.00755  0.227
-0.606 0.00296 -0.174
 0.744 -0.0400 -0.213
 0.299  0.152 -0.308
 0.402 -0.169  0.304
-0.675 -0.0538 -0.354
-0.696 -0.150  0.114
-0.358  0.123 -0.340
-0.522 -0.254 -0.223
-0.895  0.116  0.253
 0.518 0.0311  0.361
 0.585 -0.223  0.350
-0.613 0.0989  0.346
-0.373 -0.0863 -0.224
 0.201 0.00941 -0.360
-0.211  0.294 -0.247
-0.569 -0.0200  0.293
-0.728 -0.000460 -0.357
-0.599 -0.0474 -0.245
-0.592 -0.181 -0.258
-0.518  0.292 0.0294
-0.876 -0.127 -0.256
 0.763 -0.0956 -0.192
 0.199  0.253 -0.174
-0.337  0.322  0.208
 0.742 -0.0767 -0.379
 0.532 0.0148 -0.340
 0.669 -0.0382 -0.365
 0.726 -0.0135  0.318
 0.328 -0.125  0.339
 0.607 -0.194 -0.276
-0.543  0.275  0.177
 0.706 0.0190 -0.361
-0.0805  0.252  0.279
-0.925 -0.116 -0.188
 0.621 -0.0975 -0.339
0.0215  0.296 -0.247
 0.509 -0.157 -0.219
0.0428  0.238  0.275
 0.454 -0.0653 -0.348
 0.250  0.219  0.203
 0.831 -0.159 -0.108
-0.538 0.0289  0.346
 0.875 -0.0104 -0.208
-0.714  0.199 0.0718
-0.411 -0.138 -0.171
-0.0839 -0.169 -0.319
 0.492 -0.220  0.327
 0.752 0.0117 -0.344
-0.190 0.0885 -0.350
-0.963 -0.0728 -0.147
-0.966 -0.109  0.135
 0.479  0.147 -0.0404
-0.623 -0.0875  0.314
-0.295  0.281 -0.255
-0.896  0.166 -0.0973
-0.435 -0.181 -0.267
 0.207  0.249  0.160
 0.466  0.133  0.294
 0.633 0.0219 -0.370
-0.540 -0.102 -0.264
-0.561 -0.216 -0.256
 0.823 -0.162  0.103
 0.759 -0.0695  0.328
-0.873  0.149 -0.262
-0.686 0.0749 -0.350
 0.592 0.0337  0.314
 0.651 -0.0607  0.196
-0.880 0.00823  0.325
 0.518 -0.166  0.124
-0.458 -0.0253  0.328
-0.526  0.255 -0.273
 0.336  0.153  0.261
-0.253  0.323 -0.202
 0.327  0.162  0.375
 0.542 -0.259  0.304
 0.176  0.276 -0.0445
 0.617  0.126  0.119
0.0716  0.306 -0.202
-0.0511 -0.0413 -0.352
-0.433 -0.0447 -0.222
 0.643 -0.260 -0.298
-0.612 -0.0535  0.167
-0.855  0.169 -0.0234
-0.376 -0.0770  0.170
-0.484  0.302  0.114
-0.549  0.277 -0.0649
-0.657 0.0896  0.346
 0.885 0.0156 0.0758
-0.603 -0.171  0.249
-0.0840  0.180 -0.312
 0.556  0.116 -0.308
 0.402 -0.166 -0.203
-0.449 0.0123 -0.238
 0.692 0.0137 -0.259
 0.686 0.0170  0.264
-0.473  0.297  0.188
-0.170 -0.117 -0.339
 0.689 -0.162  0.256
-0.0523  0.329 -0.129
-0.252  0.231 -0.284
 0.605 -0.142 -0.349
 0.861 -0.0129 -0.264
 0.748 -0.0466 -0.284
-0.545 -0.159 -0.0410
-0.442 0.0428 -0.354
0.0121  0.104  0.335
 0.813 0.0762  0.186
 0.275 -0.108  0.341
-0.399  0.178 -0.314
 0.412  0.150 -0.245
 0.665 -0.104 -0.332
 0.644 -0.0828 -0.406
 0.567 0.0838  0.337
-0.733  0.100 -0.339
-0.379 -0.0697  0.216
-0.485  0.114 -0.341
-0.595 -0.108 -0.340
 0.944 -0.165 0.0571
 0.634 0.0163  0.234
 0.759 0.0863  0.250
 0.876 0.0524  0.158
 0.482 -0.0277 -0.203
-0.945 -0.0196 -0.269
 0.345  0.184 -0.0129
-0.446 -0.0340 -0.305
-0.909  0.133  0.141
-0.661 -0.0726  0.198
 0.762  0.102 -0.0235
-0.843 -0.132  0.272
-0.242  0.317 -0.240
 0.518 -0.127  0.164
 0.148 -0.0226  0.353
 0.159 -0.0971 -0.345
 0.812 0.0893 -0.107
-0.0417  0.329 -0.0340
 0.633 -0.00622 -0.411
-0.470 0.0212 -0.270
0.0955 -0.169  0.293
-0.639 -0.198  0.283
 0.824 -0.160  0.145
-0.642 -0.127 -0.218
-0.489 -0.222 -0.256
-0.426 -0.175 -0.319
 0.889 -0.163  0.268
 0.656 0.0291 -0.317
 0.412  0.144 -0.0972
 0.718 -0.0535  0.164
 0.606 -0.0951  0.280
 0.328 -0.0533 -0.360
 0.528 0.0883 -0.344
-0.695 -0.152  0.251
 0.940 -0.0559 -0.0551
 0.285  0.207  0.169
-0.760 0.0311  0.349
 0.618 -0.149 -0.313
 0.537 -0.0957  0.353
-0.539 -0.150 -0.269
-0.682  0.198 -0.257
-0.312  0.123  0.335
 0.585 -0.243 -0.346
 0.909 -0.177 -0.119
-0.431 -0.233 -0.297
-0.371 -0.165 -0.199
 0.853 -0.0838 -0.326
-0.482 -0.220  0.325
-0.592  0.262 0.0188
 0.792 -0.148  0.339
-0.795 -0.138 -0.0269
-0.162  0.274  0.254
 0.848 0.0647 -0.174
-0.658  0.228 0.0512
 0.420  0.146 -0.176
-0.578 -0.249  0.262
-0.917 -0.118  0.253
 0.351  0.179 -0.0677
 0.603 -0.177  0.294
-0.564 -0.160 0.0144
-0.400  0.323 -0.0973
-0.867 0.0762 -0.311
0.0956 -0.148  0.331
-0.359 -0.164 -0.245
-0.570 -0.0218  0.168
 0.866 -0.179 -0.273
 0.635  0.123 0.0189
 0.475  0.133 -0.308
-0.517 -0.180  0.273
-0.0208 -0.0756  0.342
-0.506 -0.163 -0.140
-0.576  0.264 -0.103
 0.235  0.207 -0.278
-0.137  0.216  0.290
-0.930 -0.0534  0.296
 0.779 0.0864 -0.212
-0.738 -0.142  0.330
-0.564 -0.218  0.359
 0.450  0.148  0.173
-0.813  0.172 -0.0130
 0.276  0.135  0.320
-0.158 -0.169 -0.108
 0.718 -0.167 -0.0973
-0.728  0.192 -0.00230
 0.423 -0.169  0.145
 0.169 -0.167 0.0505
-0.327 -0.169 -0.308
-0.506 -0.0851 -0.168
 0.518 -0.134  0.379
-0.548 -0.0218 -0.168
-0.168  0.327 -0.0762
 0.104  0.297  0.195
 0.729 -0.0851 -0.171
 0.581 -0.168 -0.0340
-0.380 -0.168 0.0611
-0.292  0.315  0.242
 0.592 -0.0218  0.167
-0.601 -0.0534 -0.171
 0.285 0.0592  0.357
 0.746 -0.172 -0.362
-0.0311 -0.166  0.198
 0.296 -0.166 -0.0656
-0.0839 -0.169 0.0399
-0.0100 -0.167 -0.224
-0.221 -0.169 -0.00229
 0.391 -0.169  0.219
0.0111 -0.169  0.156
0.0533 -0.169 0.0927
-0.221  0.329 0.0822
-0.498 -0.0144  0.357
 0.338 -0.169 -0.0445
-0.0206 -0.167  0.272
 0.539 -0.0957  0.167
 0.201 -0.169  0.177
-0.517 0.00989 -0.168
 0.275 -0.167 -0.182
 0.275 -0.167  0.241
 0.655 -0.165 0.0927
-0.0839 -0.169 -0.0868
-0.570 -0.127  0.164
-0.475 -0.117  0.164
 0.735 -0.0668 -0.338
-0.0100 -0.167 -0.0445
 0.571 -0.168  0.114
 0.433 -0.169 -0.0973
 0.359 -0.169 0.0716
-0.0734 -0.169  0.283
 0.910 -0.110  0.101
-0.389 -0.160  0.357
-0.348 -0.169  0.304
-0.538 -0.000656  0.164
-0.232 -0.167 -0.203
 0.307 -0.169 -0.256
0.0850 -0.167 -0.192
-0.190  0.320  0.209
 0.750 -0.167 0.0505
-0.452 -0.244  0.348
-0.570  0.117 -0.343
-0.358  0.327 0.0611
-0.854 -0.130 -0.140
 0.370 -0.0853 -0.353
-0.218 -0.166 -0.334
0.000480 -0.0326  0.348
 0.524 0.00423  0.177
 0.720  0.111 -0.0235
 0.761 -0.0696  0.174
-0.483 -0.220 -0.362
-0.955 -0.0534 -0.254
-0.422 -0.167 -0.0128
 0.453 -0.148  0.251
-0.517 0.0303  0.304
-0.306 -0.0222  0.349
-0.498  0.211 -0.299
-0.623 -0.0637  0.361
 0.457 -0.0759 -0.287
 0.528 -0.159 -0.171
0.0850  0.238  0.275
-0.0523  0.329  0.124
 0.412 -0.000656 -0.361
-0.337  0.329 -0.0551
 0.692 -0.0561  0.213
-0.232 0.0520  0.352
 0.514 -0.0862 -0.209
 0.271  0.208 -0.200
 0.650 0.0224  0.358
 0.635 -0.181 -0.380
 0.592 0.0340 -0.256
 0.880 0.0498 -0.0556
 0.581 -0.231  0.293
-0.632  0.166 -0.314
-0.263 0.0518 -0.355
-0.370 -0.106  0.325
 0.613 -0.138  0.164
0.000412 0.00970  0.352
-0.0212  0.329 -0.108
-0.657 -0.137  0.351
-0.105 -0.0211 -0.355
 0.496 0.0859  0.340
 0.619 0.0564  0.359
-0.651 -0.0442  0.220
-0.487 -0.176  0.346
 0.816 0.0825 -0.152
-0.221 -0.167  0.304
-0.600 0.00628  0.304
 0.581 -0.175  0.377
 0.765 -0.138  0.262
-0.750 -0.143 -0.161
 0.704 0.0944  0.268
 0.454 0.0627 -0.360
-0.221 -0.0746  0.345
 0.178  0.236  0.285
 0.534 -0.0277  0.404
-0.544  0.262  0.252
 0.613 -0.240  0.377
 0.886 -0.00525  0.129
 0.434 -0.151  0.335
-0.616  0.177  0.305
 0.454 -0.169 -0.150
 0.823 -0.162 0.0505
-0.656 -0.164  0.245
-0.573 0.0203  0.230
-0.109 0.0987  0.349
 0.690 -0.0647  0.271
-0.445  0.313 0.0294
-0.342  0.172  0.307
-0.0315  0.330 0.0399
 0.860 -0.138 -0.268
 0.884 -0.164 -0.175
 0.666 -0.0218  0.167
 0.739 0.0795 -0.326
0.0535 -0.0421  0.350
-0.487 0.0257  0.209
 0.938 -0.0541 0.0614
-0.306 -0.0757  0.343
 0.718 -0.0964 -0.414
0.0108  0.326 -0.171
 0.580 -0.0847  0.374
 0.683 -0.177  0.195
-0.482 -0.220  0.241
 0.895 -0.000460 -0.169
-0.102  0.325  0.181
-0.707 -0.126 -0.345
-0.189  0.109  0.340
-0.936 0.0523  0.126
 0.820 -0.00222 -0.227
 0.671 -0.175 -0.427
 0.917 -0.161  0.145
 0.140  0.295 -0.0399
 0.831 -0.159 -0.0234
 0.687 -0.0112 -0.168
-0.614 -0.169  0.339
-0.780 -0.141 -0.0656
 0.180  0.210 -0.295
-0.0413  0.159  0.313
-0.910 -0.113  0.296
 0.841 0.0394  0.240
-0.761  0.176  0.135
 0.233  0.117 -0.338
-0.445 -0.148  0.267
 0.461 -0.0668  0.230
 0.485 -0.0346 -0.313
-0.645  0.221 -0.249
 0.493 -0.0650 -0.248
-0.738 0.0603  0.348
-0.134  0.302  0.248
 0.712 -0.103  0.293
 0.266  0.199  0.255
 0.921 -0.0761 -0.0129
-0.395 -0.0361  0.230
 0.678 -0.162 -0.394
-0.506 -0.00876 -0.329
-0.0243  0.310  0.247
-0.653  0.122  0.331
-0.822  0.167 -0.224
-0.365 -0.158  0.202
-0.925 0.0757  0.178
-0.922  0.116 -0.139
-0.592 -0.243 -0.301
 0.570 -0.162 -0.221
-0.764 -0.0327  0.345
-0.508 -0.146  0.292
-0.654 -0.120 -0.360
 0.687 -0.0320 -0.407
 0.338 0.0201 -0.365
 0.822 -0.0856  0.340
-0.651 -0.170 -0.350
-0.972 -0.0669 0.0601
-0.707 -0.0760 -0.348
 0.538 -0.165  0.352
-0.536 -0.169 -0.334
 0.661 -0.201  0.264
 0.761 -0.0772 -0.270
-0.935 -0.117 -0.0938
-0.0311  0.319  0.209
 0.531 -0.0957  0.390
 0.313  0.101 -0.341
 0.675 0.0975 -0.307
-0.861 -0.129 0.0435
 0.694 0.0402 -0.331
-0.410 -0.215  0.335
 0.605 0.0231  0.367
 0.272  0.226 0.00827
 0.501 -0.0369  0.374
-0.929 0.0794  0.103
 0.377  0.152  0.145
 0.469 -0.0452  0.337
-0.517 0.0123 -0.364
-0.927  0.118 -0.00864
 0.780 0.0857  0.196
-0.320  0.253  0.265
-0.760 0.0311 -0.353
-0.946 0.0199 -0.0656
-0.500  0.137 -0.317
-0.190 -0.0211  0.351
 0.735 -0.0683  0.261
-0.953 -0.00798  0.254
 0.467 -0.157  0.367
-0.794 0.0688 -0.340
-0.169  0.163 -0.313
 0.566 -0.117  0.307
-0.337  0.319 -0.232
 0.445  0.146  0.221
 0.784 0.0921 -0.130
-0.956 0.00589 -0.139
-0.527 -0.00876 -0.235
-0.432 -0.166  0.145
-0.917 -0.120 -0.0340
 0.762 0.0632 -0.282
 0.344  0.101  0.321
 0.694 -0.117 -0.441
 0.740 -0.0299  0.290
 0.370 -0.000656  0.359
-0.269  0.154 -0.320
-0.552 -0.159 -0.133
0.0940  0.311 0.0294
0.0324 -0.104  0.338
-0.517 -0.225  0.325
 0.603 -0.0177 -0.363
 0.268  0.181 -0.313
 0.709 -0.0417  0.247
-0.969 -0.0429 0.0929
-0.527 -0.160  0.135
 0.127  0.171  0.301
-0.391 -0.0422 -0.326
 0.699 0.00218  0.335
 0.159 -0.0631 -0.355
-0.553  0.275 -0.139
 0.824 0.0253  0.195
-0.369 -0.138  0.262
-0.284  0.218 -0.288
-0.489 -0.0886  0.337
-0.559 0.00989 -0.216
 0.906 -0.162 0.0470
-0.587  0.250  0.229
 0.328  0.182 -0.133
-0.482  0.298 -0.181
-0.587 0.0142  0.272
-0.253  0.285 -0.255
 0.835 -0.00642 -0.287
-0.697  0.122 -0.327
 0.244  0.241 0.0435
-0.475  0.287  0.247
 0.125  0.279 -0.244
-0.165  0.195  0.292
 0.844 0.0650  0.175
-0.583 -0.0452  0.268
-0.644  0.235 -0.00140
-0.239  0.260  0.262
-0.398 -0.0519 -0.211
-0.664 -0.0724 -0.298
 0.800 0.0294 -0.237
-0.491 -0.109 -0.307
-0.928  0.104 0.0364
-0.966 -0.0559  0.135
-0.567  0.258 -0.244
0.0315  0.323 -0.00229
 0.645 -0.000656 -0.171
 0.532  0.125  0.287
-0.834 -0.131  0.124
 0.295  0.211 -0.0375
 0.594 -0.102  0.340
 0.454 -0.0906  0.284
 0.668 -0.145  0.221
 0.709  0.113 0.0401
-0.695 -0.152  0.177
-0.474 -0.123  0.275
-0.0313  0.302 -0.253
 0.203  0.241  0.234
 0.371  0.149 -0.288
-0.435 -0.0458  0.234
 0.911 -0.172  0.215
-0.762  0.177 0.0610
 0.677  0.113 -0.151
 0.403  0.144  0.294
 0.493 -0.107  0.406
-0.557 -0.160  0.116
 0.753  0.104 -0.0936
 0.357  0.173 0.0725
-0.891 -0.0499 -0.330
 0.678 -0.253 -0.298
-0.449 -0.244 -0.236
 0.668 -0.103  0.235
-0.760 -0.141  0.145
 0.922 -0.0958 0.0286
 0.622 -0.147  0.304
 0.275  0.218 -0.114
 0.653 -0.0954  0.204
 0.588 0.0192  0.246
 0.690 -0.0865  0.192
 0.624 -0.123  0.334
-0.832 0.0817  0.318
 0.465 -0.0121 -0.360
 0.750 0.0108 -0.306
0.0851 -0.0215  0.353
-0.854  0.166 -0.192
-0.0101  0.127 -0.319
-0.306  0.323 -0.202
 0.317 -0.0534  0.355
 0.238  0.207  0.275
-0.411 -0.0982  0.321
 0.130  0.289 -0.172
 0.585 -0.0814 -0.336
-0.475 0.0396 -0.363
-0.599 -0.0435 -0.362
 0.454  0.147 0.0505
 0.857 -0.159  0.252
 0.433 -0.0986  0.345
 0.254 -0.0542 -0.355
-0.959 -0.0429  0.223
 0.837 -0.150 -0.300
-0.408 -0.140 -0.221
 0.709  0.111 -0.0975
 0.731 0.0441  0.310
-0.0938  0.211 -0.301
-0.158 -0.0422  0.348
 0.541 -0.192 -0.285
-0.618 -0.00544 -0.297
 0.906 -0.172  0.109
 0.127  0.225 -0.285
-0.473  0.294 -0.243
-0.348  0.329 -0.129
-0.623 -0.155  0.114
 0.583 -0.00847 -0.225
 0.805 -0.00144  0.292
 0.299  0.181 -0.237
-0.0594  0.300  0.241
 0.671 0.0233  0.312
-0.613 -0.192  0.215
 0.237  0.233 -0.195
-0.295 0.0419  0.349
-0.311 -0.120  0.335
-0.924  0.104 -0.0552
 0.803 -0.162 -0.150
-0.577 -0.117  0.261
-0.327 0.0951  0.348
-0.728 -0.148 -0.287
 0.423 -0.167 -0.287
-0.602 -0.150  0.155
-0.0839  0.324 -0.194
-0.931 -0.113 -0.247
-0.565 -0.122 -0.330
 0.913 -0.00329 -0.0341
 0.765 -0.127  0.209
 0.741 0.0995 -0.161
 0.148 0.0521  0.356
-0.157  0.326 -0.177
 0.740 -0.0299 -0.312
 0.486 0.0204  0.360
 0.857 0.0155  0.185
