ply
format ascii 1.0
element vertex 2048
property float x
property float y
property float z
end_header
-0.793 -0.185 -0.323
 0.878 -0.0785  0.357
 0.132  0.447 -0.274
-0.117 -0.236  0.415
 0.566 -0.322 -0.442
-0.826 0.0377  0.409
 0.813  0.310 -0.228
-0.106 -0.236 -0.360
 0.304  0.291  0.353
-0.315  0.338  0.167
 0.369 -0.236  0.125
-0.415  0.225 -0.369
-0.520 -0.238  0.115
 0.897 -0.159 -0.123
 0.770  0.390  0.281
-0.717  0.161 -0.0194
 0.328 0.0581 -0.417
 0.462  0.450 -0.00906
-0.953 -0.186 0.0736
-0.422 0.0331  0.425
0.0497  0.453  0.104
 0.589 -0.335  0.428
-0.0752 -0.236 0.0220
-0.0572  0.148  0.396
-0.668 -0.313  0.459
-0.0338  0.140 -0.396
 0.256 -0.0855  0.437
 0.725 0.000242 -0.434
 0.214 -0.236 -0.195
-0.454 -0.166 -0.429
 0.869  0.120 0.0736
 0.583 0.0729  0.435
-0.176  0.404 -0.143
 0.452  0.357 -0.326
 0.575 -0.216 -0.133
-0.720  0.134 -0.338
-0.333 -0.236 -0.143
-0.582  0.214  0.254
 0.688 -0.201  0.167
-0.452  0.269 -0.0813
-0.924 -0.00235 -0.143
-0.385 -0.236  0.363
 0.739  0.412 0.0116
 0.121 -0.236  0.260
 0.111 -0.0957 -0.430
-0.736 -0.158  0.247
-0.633 -0.242 -0.123
 0.492  0.444  0.249
-0.240 -0.0139 -0.417
-0.889 0.0554  0.124
 0.860 0.0593 -0.236
-0.0923  0.380  0.319
 0.471 -0.112  0.312
 0.754 -0.237 -0.309
 0.520 -0.0921 -0.340
 0.804  0.156  0.384
 0.307 -0.235 -0.422
-0.571 -0.0441 -0.244
-0.624 -0.331 -0.411
 0.910 -0.134  0.125
-0.282  0.212  0.376
 0.657  0.216 -0.372
 0.235  0.461 -0.0504
 0.235  0.258 -0.359
-0.639 -0.0844  0.452
 0.255  0.458  0.197
-0.550 -0.0327  0.252
0.0286 -0.0552  0.431
 0.162 -0.236 0.0220
 0.606  0.434 -0.185
 0.173  0.121  0.410
-0.916 -0.232 -0.140
-0.240 -0.236  0.198
-0.217 -0.0410  0.425
-0.199  0.274 -0.355
 0.586  0.275  0.357
 0.691 -0.146  0.437
-0.646 -0.0371 -0.444
-0.914 -0.192  0.358
-0.883 0.00401 -0.354
-0.757 -0.247 0.0633
 0.380 0.0785  0.418
-0.445 0.0335 -0.423
0.0970  0.322  0.342
0.0178 -0.236 -0.154
-0.593  0.215 -0.210
 0.390 -0.236 -0.0710
-0.154  0.413 0.0847
0.00780  0.449 -0.102
 0.690 -0.0209  0.290
-0.753  0.125  0.249
-0.0543  0.393 -0.309
 0.317  0.456 -0.226
-0.597 -0.302  0.278
 0.328 -0.236  0.322
 0.431 -0.235 -0.257
 0.545 0.0777 -0.428
 0.885 -0.106 -0.334
-0.292 -0.236 -0.350
-0.561  0.220 0.0633
 0.142 0.0892 -0.406
 0.653  0.573 0.00532
 0.730 -0.194 -0.0401
 0.855  0.209 -0.0845
-0.0648 -0.0555 -0.426
0.0695 -0.234  0.431
-0.595 0.0851  0.415
-0.950 -0.0760  0.228
-0.297  0.351 -0.00911
 0.842  0.217  0.222
 0.555 -0.218 0.0426
 0.738 -0.270  0.322
-0.365 -0.236 0.0323
-0.457  0.202  0.379
 0.641  0.431  0.159
 0.720 -0.0648 -0.273
0.0695 -0.236 -0.319
 0.874 0.00778 -0.0573
-0.320  0.332 -0.204
 0.810  0.140 -0.379
-0.0752 -0.236  0.249
 0.638 -0.168 -0.442
-0.499 -0.237 -0.226
 0.860 0.0387  0.238
-0.179 -0.236 -0.205
 0.496 -0.279  0.302
-0.561  0.147 -0.393
0.0591  0.282 -0.352
-0.789  0.112 -0.158
 0.832  0.278 0.0665
-0.729 -0.0288 -0.278
 0.503 -0.199  0.445
-0.933 -0.128 -0.273
 0.410  0.212 -0.377
 0.693  0.382 -0.307
 0.464 -0.199 -0.442
-0.601 -0.192 -0.482
-0.282  0.147 -0.392
-0.532 -0.179  0.350
-0.666 -0.313 -0.262
-0.771 -0.168  0.449
 0.617 -0.336 -0.297
-0.894 -0.239  0.204
 0.748 0.00411  0.428
-0.951 -0.0437 0.0209
0.0801  0.448  0.259
-0.247  0.349  0.321
-0.450  0.266  0.156
-0.365 -0.106  0.434
-0.396 -0.236  0.198
 0.617 -0.189 -0.273
 0.746  0.411 -0.137
 0.369 -0.0850 -0.435
 0.472 -0.0336  0.443
-0.693 -0.0125  0.280
-0.478 -0.237 -0.0607
-0.220 -0.236 0.00129
-0.778 -0.248 -0.0814
-0.261 -0.209  0.434
-0.733 -0.302  0.328
-0.664 -0.168 -0.244
-0.788 -0.0748 -0.428
 0.355  0.415  0.302
-0.846 0.0839 -0.00905
 0.469  0.187  0.394
-0.458  0.255 -0.226
 0.348  0.461 0.0736
-0.379  0.289  0.301
 0.768 -0.190 -0.174
 0.442  0.452 -0.163
0.0695 -0.236  0.125
 0.723  0.267  0.340
 0.782  0.393  0.142
 0.606  0.439 -0.0189
-0.0636  0.436  0.187
 0.849 -0.184  0.239
 0.224 -0.220  0.434
-0.664 -0.243  0.167
 0.214  0.387  0.316
0.00747 -0.189 -0.430
-0.675  0.180  0.125
 0.596 -0.147  0.277
 0.503 -0.226  0.167
 0.623  0.421  0.292
 0.617 0.000890 -0.340
 0.245 -0.236  0.208
 0.183  0.460 0.0736
-0.469 -0.121 -0.285
 0.704 -0.305 -0.412
-0.295 0.0860  0.417
 0.881 -0.0146 0.0736
-0.514 -0.272 -0.365
 0.472  0.345  0.334
 0.787 -0.155 -0.408
 0.861 -0.184 0.00129
-0.323 -0.137 -0.432
 0.204 -0.236 -0.340
-0.677 -0.148 -0.381
-0.197  0.394  0.207
-0.529 -0.0529  0.384
 0.132  0.457 -0.143
-0.600 -0.241 0.00371
-0.720  0.121  0.375
-0.199 -0.178 -0.431
 0.298  0.365 -0.323
-0.961 -0.134 -0.0710
-0.592  0.220 -0.0813
-0.779 -0.0743  0.353
-0.863 0.0589  0.258
-0.526 -0.0611 -0.393
-0.158  0.243  0.367
 0.576  0.327 -0.337
-0.0959 -0.0856  0.433
-0.187  0.388 -0.296
 0.348 -0.178  0.434
 0.235 -0.126 -0.434
 0.843  0.183 -0.257
 0.906 -0.0595 -0.218
 0.547 -0.0126  0.290
-0.168 0.0904  0.412
 0.835 0.0189 -0.352
 0.266 -0.236 -0.0504
 0.720 -0.271  0.446
-0.137 0.0698 -0.406
-0.0752  0.258 -0.359
-0.755 -0.302 -0.350
 0.532 -0.243 -0.347
-0.127 -0.236  0.136
 0.534  0.199 -0.384
 0.131 -0.236 -0.102
 0.472  0.449  0.115
-0.768 -0.247 -0.205
-0.322  0.301 -0.338
-0.903 -0.0418  0.353
 0.584 -0.0800  0.415
 0.741 -0.137  0.276
 0.156 5.78e-05  0.424
 0.617 -0.308  0.311
 0.648  0.170  0.398
-0.220 -0.236  0.322
0.0632  0.174  0.394
 0.811 -0.186  0.372
-0.654 -0.197  0.407
-0.413  0.291 0.0322
-0.781  0.121  0.114
 0.214 -0.00678 -0.424
0.0386 0.0269 -0.414
-0.406 -0.236 -0.309
-0.466 -0.137  0.259
 0.586 -0.0544 -0.442
 0.803 -0.188  0.115
-0.0982  0.431 -0.0195
 0.438 0.0129 -0.433
-0.816 0.0845 -0.287
 0.307  0.171  0.400
-0.889 -0.243 -0.00904
-0.894 -0.175 -0.384
-0.726 0.0479 -0.419
-0.0339  0.284  0.355
 0.142 -0.116  0.434
 0.819  0.316 -0.0501
0.0488 0.0590  0.412
 0.131 -0.220 -0.431
 0.607 -0.223  0.396
0.0904  0.455 -0.0195
-0.602 -0.137  0.247
 0.745  0.280 -0.329
-0.686  0.171 -0.153
 0.276 0.0281  0.423
0.0288  0.446 -0.215
 0.545  0.428 -0.291
 0.328 -0.236 -0.309
 0.695  0.116 -0.412
-0.705 0.00730  0.433
 0.908 -0.0662  0.217
 0.255 -0.236 0.0943
-0.509 -0.238  0.229
 0.369  0.458  0.187
-0.570  0.194  0.369
 0.152  0.344 -0.331
-0.887 -0.235 -0.287
 0.348  0.460 -0.102
 0.245  0.154 -0.401
 0.166  0.227  0.372
 0.853 -0.178 -0.246
-0.579 -0.330  0.385
0.0281 -0.236  0.322
 0.328 -0.236 -0.164
 0.410 -0.236  0.229
0.0281 -0.236 -0.0194
-0.0235 -0.236 -0.257
-0.817 -0.219  0.311
-0.106 -0.236 -0.123
-0.635 -0.00291 -0.341
 0.142  0.202 -0.377
-0.518  0.217 -0.308
 0.833 0.0559  0.356
 0.701 -0.0940 -0.385
-0.352  0.323 -0.102
-0.360  0.167  0.442
-0.334 0.0385 -0.416
 0.678 -0.201 0.0530
-0.920 -0.0234 -0.255
 0.867  0.110 -0.143
 0.919 -0.0957 -0.00906
-0.778 -0.116 -0.244
 0.420 -0.236  0.373
-0.627 -0.0109  0.362
-0.620  0.187 -0.308
-0.591 0.0501 -0.422
-0.461 -0.147  0.424
-0.643 -0.247 -0.350
 0.152  0.457  0.177
-0.949 -0.0486  0.125
 0.214 -0.236  0.332
 0.493 -0.227 -0.0401
 0.607 -0.0854 -0.273
 0.359 -0.0749  0.440
-0.323 -0.236  0.280
-0.323 -0.236 -0.247
0.0109  0.380  0.319
-0.0481  0.442 0.0737
-0.105  0.422 -0.215
-0.708 -0.228  0.505
 0.451 -0.233 0.0633
-0.575 -0.159 -0.379
-0.768 -0.247  0.208
 0.245  0.459 -0.154
-0.365 -0.235 -0.422
 0.731 -0.0843  0.368
 0.811  0.318  0.221
 0.645 -0.00254  0.391
 0.434 -0.146 -0.340
-0.661  0.171  0.301
-0.571 -0.0958 -0.483
-0.458  0.130 -0.397
 0.541  0.442 -0.0951
-0.583 -0.336 -0.320
 0.845  0.136  0.295
-0.499  0.108  0.406
-0.767 -0.260  0.413
 0.830 -0.0653 -0.405
-0.249  0.376 0.0735
-0.933 -0.132 -0.174
 0.596 -0.214  0.198
-0.506 -0.272  0.329
-0.917 -0.146  0.167
-0.208  0.396 -0.0504
0.00747 -0.158  0.433
-0.362  0.173 -0.442
-0.0235 -0.236  0.156
-0.106 -0.147 -0.430
 0.523 -0.223 -0.216
-0.230 -0.236 -0.123
 0.575  0.439 0.0736
 0.421  0.441 -0.286
 0.162 -0.236  0.156
 0.503 -0.106 -0.442
 0.121 -0.236 -0.236
-0.591  0.219  0.156
 0.679 -0.220 -0.368
-0.517  0.230 -0.143
 0.917 -0.0656 -0.105
-0.375 -0.0550 -0.426
 0.235  0.449 -0.277
-0.489  0.236  0.244
 0.754  0.409 -0.233
 0.379  0.234  0.370
0.0497  0.372 -0.319
 0.871 0.00652 -0.154
 0.786 -0.147 -0.309
 0.637 -0.207 -0.0607
 0.467 -0.231 -0.132
 0.709 0.0991  0.419
-0.708  0.152 -0.245
 0.861  0.141  0.166
-0.313 -0.236  0.136
-0.426 -0.236 -0.164
-0.850 -0.249 0.0840
-0.599 -0.237 -0.241
-0.168 -0.147  0.433
-0.179 -0.0858 -0.429
-0.179  0.186 -0.380
-0.914 0.0333 -0.0559
 0.439 -0.126  0.433
 0.869  0.104 -0.0194
 0.607 -0.116 -0.368
-0.546 -0.264 -0.456
-0.127 0.00652  0.418
-0.426 -0.236  0.105
-0.766 -0.0650  0.253
 0.678 -0.203 -0.154
-0.323 -0.0233  0.424
 0.338  0.150 -0.407
 0.473 0.0778  0.416
 0.328  0.258 -0.359
0.0590  0.142 -0.400
 0.673 -0.323  0.384
 0.506 -0.295  0.442
-0.189 -0.236 -0.319
-0.375 -0.236 -0.0607
-0.627 -0.216  0.293
-0.653  0.122 -0.399
-0.826 -0.235 -0.396
-0.838 -0.0957  0.420
-0.731 -0.0837  0.448
-0.929 -0.176  0.260
-0.881 0.0486 -0.215
-0.594 -0.113  0.349
-0.0407 0.0416  0.414
 0.694 -0.209  0.372
-0.442 -0.0590  0.436
 0.679 -0.202  0.274
-0.841 -0.210  0.410
 0.802 -0.0751  0.422
 0.825  0.221  0.317
 0.516 -0.199  0.337
 0.824 -0.188 -0.0814
 0.837  0.253 -0.164
 0.658  0.430 -0.112
-0.911 0.0393 0.0331
-0.437 -0.236  0.280
-0.793 0.0930  0.332
-0.0235 -0.236  0.394
-0.654 -0.243 0.0736
-0.772 -0.0916 -0.343
 0.541  0.394  0.313
 0.182  0.453  0.260
 0.804  0.353 0.0284
-0.706 -0.138  0.512
-0.392  0.284 -0.287
-0.914 0.00136  0.207
-0.117  0.336 -0.334
 0.688  0.346  0.326
-0.540 -0.239 -0.123
 0.855 0.0410  0.136
-0.451 -0.233  0.428
 0.754 -0.237 -0.431
-0.827 0.0555 -0.397
 0.524 -0.0209 -0.391
 0.705  0.422  0.101
 0.614 -0.0549  0.329
 0.555  0.440  0.167
 0.524 -0.0209  0.373
 0.658  0.299 -0.340
-0.635  0.204 0.0219
 0.524 -0.147 -0.273
-0.889 -0.0888 -0.388
-0.352  0.323 0.0838
-0.0128  0.438  0.259
 0.771 0.0693 -0.408
-0.709 -0.208 -0.310
-0.871 0.0669 -0.122
-0.648 -0.0793 -0.255
 0.596  0.142 -0.399
 0.121 -0.236  0.363
 0.516 -0.129  0.396
-0.210 -0.236  0.115
-0.0981  0.430 -0.123
 0.266  0.460 0.0942
 0.700 -0.147 -0.273
-0.210  0.162  0.391
-0.933 -0.209 -0.219
-0.664 -0.330  0.373
-0.245  0.370 -0.205
-0.929 -0.116  0.322
 0.610 -0.266 -0.385
 0.539 -0.0142 -0.309
 0.429 -0.228 -0.371
-0.688 -0.0703 -0.351
-0.250 0.0717 -0.413
-0.657 -0.258 -0.435
0.0453  0.251  0.364
 0.557 -0.190 -0.437
 0.379  0.459 -0.0194
-0.282  0.234 -0.366
0.0187  0.211 -0.373
0.0285  0.448  0.187
-0.582 -0.240  0.177
 0.472  0.265  0.361
 0.819  0.212 -0.337
-0.296  0.339  0.249
 0.224 -0.228 -0.431
 0.854  0.216 0.0151
-0.282 -0.0960  0.434
-0.344 -0.220  0.434
-0.0855 -0.236  0.332
0.0178 -0.0653 -0.428
-0.00232  0.447 -0.0195
-0.470 -0.122  0.346
 0.519  0.442 -0.213
 0.614 -0.211  0.105
 0.679 -0.0647  0.446
 0.698  0.423  0.218
-0.0441 0.0247 -0.414
-0.389  0.298 -0.174
 0.497 -0.288 -0.413
-0.581 -0.233  0.392
 0.121 -0.0146 -0.422
 0.637  0.428 -0.267
-0.953 -0.0527 -0.0814
-0.255  0.371 -0.112
 0.506 -0.169 -0.371
-0.953 -0.133 0.0116
-0.486  0.251 0.0734
-0.264  0.347 -0.303
 0.692 -0.314 -0.319
-0.850 -0.249 -0.185
-0.813 -0.147 -0.391
 0.567 -0.331 -0.360
-0.385  0.243  0.367
 0.193  0.315  0.345
 0.214 -0.236 -0.112
-0.168 -0.236 -0.0607
-0.0545 -0.236 -0.0607
-0.809 -0.249 0.00129
 0.338 -0.236 -0.00904
 0.551  0.207  0.384
-0.685 -0.0854  0.247
-0.808 0.0968  0.197
 0.740  0.180 -0.386
 0.441  0.282 -0.352
 0.882 -0.0252 -0.305
 0.131  0.408  0.306
 0.393  0.329  0.340
-0.551 0.00691  0.432
 0.797  0.356 -0.164
-0.421  0.275  0.233
 0.607 -0.147  0.371
-0.230  0.275  0.358
 0.543 -0.322  0.349
-0.446 -0.235 -0.391
-0.169  0.345  0.335
-0.665 -0.115  0.384
 0.576 -0.168  0.446
-0.453 -0.0497 -0.433
-0.396  0.107  0.407
 0.474 -0.0689 -0.281
 0.400 0.0886 -0.414
-0.781  0.122 -0.0811
 0.281 -0.0460 -0.434
-0.840 0.0877 0.0733
-0.519 -0.207 -0.410
-0.675  0.173  0.202
-0.516 -0.0498 -0.298
-0.944 -0.209 -0.0642
-0.534  0.226 -0.0297
 0.228  0.184  0.392
 0.725  0.176  0.394
 0.814  0.322  0.142
-0.528 -0.0836  0.306
 0.783 -0.189  0.198
 0.359 -0.178 -0.431
 0.691 -0.0185 -0.329
-0.685 -0.333 -0.362
-0.509 0.0749 -0.413
-0.235 0.0332  0.415
-0.756  0.138 0.0426
-0.158 -0.00368 -0.417
-0.146  0.405  0.269
-0.917 -0.0259  0.279
-0.0752 -0.228 -0.431
-0.662  0.189 -0.0812
 0.519 -0.307 -0.305
 0.755 -0.0703 -0.435
 0.906 -0.0405  0.141
-0.732 -0.277 -0.281
-0.650  0.144  0.393
 0.758 -0.190 0.0531
 0.545 0.00759  0.445
-0.459 -0.164 -0.347
 0.843 -0.166 -0.358
 0.280  0.422  0.299
-0.393  0.302 -0.0400
 0.904 -0.135 -0.195
 0.680 -0.240 -0.442
 0.255 0.0799 -0.410
 0.617 0.0572 -0.439
-0.516  0.229  0.166
 0.338  0.428 -0.293
 0.803  0.311  0.296
 0.843  0.237  0.149
-0.292 -0.236 0.0530
-0.148 -0.236 0.0426
-0.134  0.155  0.393
 0.369  0.344 -0.331
-0.788 -0.248  0.136
-0.547 -0.188  0.277
 0.111  0.457 0.0530
 0.848 0.0800 -0.307
-0.251 -0.106 -0.431
 0.445  0.452 -0.0883
 0.641 -0.334 -0.371
 0.586 -0.189 -0.368
 0.410 -0.236 -0.185
 0.472 -0.209  0.276
 0.720  0.418 -0.0607
-0.602 -0.145  0.425
-0.670 -0.320  0.275
-0.323  0.283  0.356
 0.349 -0.0132 -0.431
-0.646 -0.112 -0.444
-0.868 0.0429  0.331
-0.656 -0.256  0.361
-0.0649 -0.236 -0.185
0.0179  0.432 -0.288
 0.565 -0.215  0.274
-0.675 -0.244 -0.185
 0.307  0.460 0.0116
-0.719 -0.239 -0.378
 0.286 -0.236 -0.247
 0.173  0.456 -0.205
 0.862 0.0306 0.0125
-0.685 -0.244  0.238
-0.612 -0.0599 -0.382
-0.488  0.197 -0.373
-0.531 -0.169 -0.473
 0.651  0.235  0.362
-0.920 -0.0583 -0.328
 0.896 -0.132  0.264
 0.493  0.142 -0.405
 0.660 -0.0717 -0.442
-0.457  0.243  0.310
 0.215  0.379 -0.316
-0.530 -0.116 -0.244
 0.847 -0.0191  0.388
 0.287  0.100  0.411
 0.751 -0.193 -0.247
 0.402 -0.0153  0.440
-0.148 -0.235 -0.422
 0.512 -0.261  0.377
 0.647  0.493 0.00704
-0.189 -0.236  0.404
 0.317 -0.236  0.177
-0.272 -0.189 -0.431
-0.468 -0.236 0.0116
-0.0959 -0.168  0.433
0.0797 -0.236 0.0530
0.0901 -0.236 -0.164
-0.396 -0.236 -0.236
0.0488 -0.236  0.249
 0.400 -0.236  0.301
 0.410 -0.236 0.00129
-0.127 -0.236 -0.257
-0.620 -0.0339  0.274
-0.850 -0.249 -0.0917
 0.565  0.437  0.239
-0.709 -0.0536  0.349
-0.811 -0.139  0.342
 0.317  0.455  0.239
 0.866 -0.179 0.0736
 0.389  0.456 -0.215
-0.323 -0.236  0.208
 0.485 -0.200 -0.309
0.0694 -0.116  0.432
-0.251 -0.236 -0.205
 0.142 -0.189  0.435
 0.786  0.387 -0.0810
-0.0132  0.203  0.379
 0.844 -0.179 -0.174
 0.760 -0.211  0.443
 0.855 0.00865  0.304
 0.431 -0.171  0.342
-0.135  0.416  0.177
 0.782 -0.129  0.339
 0.717 -0.177 -0.419
-0.927 -0.224  0.129
-0.955 -0.0656 -0.154
-0.767  0.118 -0.226
 0.919 -0.0751 0.0736
 0.897 -0.0659  0.289
 0.435 -0.135 -0.430
-0.803 -0.125  0.259
-0.520  0.221 -0.237
 0.768 -0.0926 -0.350
-0.509 -0.00331 -0.430
-0.249  0.371  0.167
-0.0235  0.443 -0.164
-0.0430  0.435 -0.246
-0.775 0.0947 -0.358
 0.473 0.0749 -0.414
 0.648 -0.302  0.446
-0.715 -0.0212 -0.421
-0.0959  0.212  0.376
-0.177  0.405 0.0117
-0.390  0.299  0.166
-0.631 -0.197 -0.413
 0.800  0.316 -0.296
 0.900 -0.115 -0.266
-0.777 -0.0345  0.430
 0.585  0.345  0.334
-0.664 -0.178  0.247
-0.702 -0.251  0.436
 0.746 -0.0611  0.301
 0.658 -0.210  0.441
 0.276 -0.236 0.0220
 0.679 -0.106  0.276
 0.457 -0.0844  0.380
 0.183 -0.236 -0.0504
-0.282 -0.236  0.353
-0.261 -0.236 -0.278
 0.638 -0.0128 -0.275
 0.131 -0.236 -0.350
 0.173  0.460 -0.0814
 0.111 0.0892  0.408
 0.657 0.0575  0.440
-0.815 -0.246 -0.256
-0.593 -0.0550 -0.316
-0.348  0.220 -0.393
-0.313 -0.158  0.435
-0.455 -0.209  0.363
 0.688  0.425 -0.174
-0.766 0.0748  0.400
-0.606 -0.288 -0.478
-0.898 -0.127  0.382
-0.664 -0.243 -0.0194
-0.694 -0.128 -0.314
-0.677 0.0843  0.415
-0.106  0.130 -0.398
 0.778 0.0975  0.407
 0.856  0.140 -0.204
 0.457 -0.0839 -0.364
 0.421  0.142  0.413
 0.770  0.377 -0.291
-0.590 -0.250 -0.393
 0.105  0.453 -0.211
 0.596  0.265 -0.355
 0.649  0.431 0.0333
-0.586 -0.0539  0.420
-0.760 -0.189 -0.263
 0.431 -0.0542 -0.437
 0.435  0.452  0.171
 0.824 -0.188  0.301
 0.307  0.366  0.326
 0.742 -0.264 -0.371
-0.930 -0.189 -0.311
-0.572 -0.280  0.338
 0.659 -0.108  0.386
-0.497 -0.120 -0.380
 0.587  0.142  0.403
-0.123  0.298  0.350
 0.873 -0.143  0.341
 0.760 -0.209  0.303
-0.620 -0.00430 -0.265
 0.892 -0.153  0.186
0.0694 -0.236 -0.412
 0.534  0.443 0.0220
 0.514 -0.0750  0.277
 0.455  0.422  0.300
 0.755 -0.132  0.442
 0.628  0.365 -0.323
-0.730  0.133  0.311
-0.592 -0.241 -0.174
 0.183 -0.168 -0.432
0.0591 -0.236 -0.102
-0.240 -0.236 -0.391
 0.204 -0.236  0.260
 0.183 -0.0647  0.435
0.0178 -0.236 0.0840
-0.0545 -0.236 -0.319
 0.307  0.460  0.146
-0.0835  0.424  0.259
 0.338 0.00652  0.430
-0.701 -0.168  0.454
 0.901 -0.151 -0.0400
 0.688  0.416  0.286
-0.313 -0.0338 -0.421
 0.266  0.234  0.370
0.0542  0.453 -0.149
 0.400 -0.220  0.434
-0.570 -0.0165  0.313
-0.0236 -0.116 -0.430
-0.106  0.202 -0.376
 0.586 -0.271  0.443
 0.276 -0.178 -0.432
-0.396 -0.137 -0.433
 0.764 -0.198 -0.360
-0.612  0.210 -0.143
-0.623 0.0273  0.430
 0.173 -0.0751 -0.431
 0.286 -0.236 -0.112
 0.214  0.460 0.0116
0.00746  0.320 -0.340
-0.137 -0.236  0.229
-0.241 -0.147  0.434
 0.596 -0.214 -0.195
-0.777 0.00749 -0.420
-0.0132 -0.236  0.229
0.0902 -0.158 -0.430
 0.503  0.320 -0.340
-0.798 -0.189  0.247
-0.313 -0.236 -0.0400
 0.619 -0.209 0.00173
-0.485 -0.0103  0.434
-0.826 0.0841 -0.215
 0.658 -0.206 -0.216
-0.724 -0.306  0.393
-0.0132  0.100  0.409
 0.826  0.243 -0.277
0.0903 -0.0349  0.428
-0.782 -0.201  0.386
-0.478 -0.178 -0.244
-0.952 -0.0854 -0.215
-0.928 0.00210 0.0835
-0.819 -0.245 -0.324
-0.840 -0.0130 -0.400
 0.400 -0.228 -0.431
 0.297  0.205 -0.379
-0.870 -0.242  0.282
-0.116  0.412 -0.278
 0.203 -0.137  0.436
-0.657  0.182 -0.210
 0.628 -0.0122  0.278
-0.0481  0.442 -0.0707
 0.173  0.274 -0.355
 0.513  0.142  0.408
-0.959 -0.187 -0.123
-0.491 -0.208  0.302
-0.529  0.217  0.290
 0.614 -0.0549 -0.384
 0.776  0.397  0.217
 0.555 -0.218 -0.0297
-0.473  0.259 0.0116
-0.870 -0.247  0.146
 0.895 -0.0241 0.0116
 0.852  0.152  0.228
-0.569 -0.0172 -0.412
-0.966 -0.106  0.105
 0.483  0.408 -0.303
-0.322  0.153  0.393
-0.0338 -0.0452  0.428
 0.535  0.372 -0.319
-0.0959  0.100  0.410
 0.555 -0.219  0.125
 0.740 -0.193  0.115
 0.730 -0.141 -0.336
-0.653 0.0596 -0.421
 0.286 -0.209  0.434
-0.251 -0.236  0.260
0.0591 -0.236 -0.257
0.0797 -0.236  0.187
 0.805 -0.00256 -0.403
 0.441 -0.234  0.167
 0.596 -0.116 -0.442
-0.0442 -0.236 0.0943
 0.359 -0.236 0.0633
-0.551 -0.239 -0.0607
 0.909 -0.142 0.0323
 0.778  0.208  0.357
 0.606 -0.240 -0.442
 0.204 -0.236 -0.257
 0.255  0.457 -0.215
 0.111  0.387 -0.313
 0.152  0.458 0.00123
 0.617 0.00904  0.446
-0.554  0.202 -0.363
-0.323 0.0996 -0.409
-0.892 0.0181 -0.292
 0.869  0.120 -0.0812
 0.596  0.205 -0.380
-0.406  0.294 0.0940
 0.577 -0.00224  0.343
 0.359 -0.236  0.384
-0.304  0.348 -0.0710
-0.916 -0.233 0.0461
-0.461  0.236 -0.328
-0.683  0.179 0.0632
-0.354 -0.236 -0.350
 0.758 -0.229  0.384
-0.158 -0.0857  0.433
-0.582 -0.240  0.115
 0.719  0.231 -0.354
0.0807  0.211 -0.373
-0.837 -0.0343  0.413
-0.0545  0.336 -0.334
-0.352  0.323 0.00127
 0.648 -0.332 -0.432
-0.741  0.144 -0.122
-0.915 -0.158 -0.0297
 0.836  0.274 0.00135
0.0904  0.456 -0.0813
 0.462  0.447 -0.236
 0.431  0.451  0.249
 0.503  0.446 -0.143
 0.678 0.0582 -0.431
 0.111  0.265  0.360
-0.664 -0.230 -0.244
 0.534 -0.0750 -0.273
 0.245 -0.0239  0.433
-0.405  0.172  0.389
 0.493  0.251 -0.362
-0.608 -0.267  0.225
-0.757  0.128  0.187
 0.514 -0.137  0.277
 0.434 -0.178 -0.280
 0.586 -0.00125 -0.412
 0.690 -0.0837 -0.323
 0.479 -0.266 -0.326
-0.0451  0.345  0.335
-0.730  0.144 -0.184
 0.287 0.0135 -0.423
-0.642 -0.0294  0.423
 0.297 -0.236  0.270
-0.375 -0.168  0.435
-0.0339 -0.236 -0.123
 0.658 -0.147 -0.368
 0.860 -0.184  0.135
0.00746 -0.236 -0.309
0.0901 -0.236 -0.0504
-0.337  0.220  0.425
-0.375 -0.236  0.136
-0.489 -0.237 -0.154
-0.0339 -0.236  0.301
-0.907 -0.131 -0.345
 0.131 -0.236  0.105
 0.255 -0.236 -0.309
-0.706 -0.245 0.0323
-0.520 -0.238 0.0426
 0.204  0.111 -0.405
-0.758 -0.240 -0.332
 0.831  0.277 -0.109
 0.214  0.460  0.125
-0.746 -0.145 -0.351
-0.528 -0.134  0.259
 0.847 -0.139  0.395
-0.544  0.148  0.396
 0.553 -0.0692  0.353
-0.558 -0.261  0.259
 0.400  0.457  0.105
 0.634  0.432 0.0914
 0.101  0.456  0.135
-0.0752 0.0799 -0.405
-0.644 -0.244  0.448
 0.670 -0.00958 -0.412
-0.456 -0.199 -0.298
 0.854  0.193 -0.142
 0.729  0.416  0.156
 0.276 -0.236 -0.371
 0.547 -0.128 -0.386
 0.462 -0.127 -0.273
-0.196  0.383  0.298
-0.230  0.109  0.409
-0.814 -0.157 -0.267
-0.683 -0.0791  0.492
-0.511  0.214  0.357
-0.609  0.191  0.321
 0.531  0.322  0.341
-0.885 -0.223 -0.345
 0.678  0.428 -0.0194
-0.184  0.402  0.146
-0.882 0.0502  0.197
-0.261  0.305 -0.345
-0.596 -0.170  0.363
-0.577 -0.0913 -0.424
-0.661 -0.0369 -0.300
-0.00292 0.0901 -0.405
-0.411 0.0805 -0.412
 0.863  0.162 -0.00918
 0.803 -0.188 -0.00905
 0.390  0.394 -0.309
 0.531  0.443  0.112
 0.786  0.268  0.331
 0.621  0.432  0.223
-0.189  0.131 -0.399
 0.537 -0.237 -0.405
 0.865 0.0942  0.201
-0.385 -0.0446  0.429
 0.455 -0.188  0.415
-0.742 -0.0381  0.301
-0.364  0.264 -0.357
0.0977  0.452  0.204
-0.594 -0.0868  0.275
-0.127 -0.236 -0.0194
-0.127 -0.236  0.291
 0.349  0.131  0.412
-0.148 -0.236  0.363
 0.162 -0.236 -0.298
 0.359 -0.236  0.260
 0.880 -0.0161  0.240
-0.716 -0.245  0.105
 0.528 -0.0494  0.435
-0.468 -0.199  0.247
 0.679 -0.127 -0.439
 0.483 -0.0233 -0.440
 0.838  0.141 -0.328
 0.676 -0.0409  0.342
-0.660 -0.182 -0.336
-0.625 -0.329  0.423
 0.866 0.0553 0.0805
 0.297 -0.126  0.437
 0.673 -0.323  0.311
 0.545 -0.159 -0.329
 0.819 0.0799 -0.379
-0.369 0.0574  0.424
-0.345  0.317  0.228
0.0746  0.441 -0.280
-0.722 -0.0416  0.404
-0.627  0.206  0.104
 0.474 0.0259  0.441
 0.658 -0.250  0.390
 0.286  0.296 -0.348
-0.0649 -0.220  0.434
-0.714 -0.0208 -0.336
-0.624 -0.120 -0.392
 0.822  0.259  0.274
 0.718 -0.0354 -0.378
-0.945 -0.200  0.211
-0.658 -0.134  0.473
 0.742  0.328  0.320
-0.666 -0.298 -0.317
-0.722  0.156  0.104
 0.513 -0.225  0.239
-0.633  0.190  0.238
 0.380 0.0343 -0.423
-0.923 0.00183  0.141
-0.544 -0.297 -0.409
 0.520 -0.139  0.340
 0.110 0.0420 -0.413
-0.872 -0.231  0.358
 0.851  0.121 -0.267
-0.914 -0.211  0.303
 0.596  0.437 -0.0814
-0.697 -0.123 -0.256
-0.297  0.350  0.115
 0.552 -0.228  0.407
-0.840 -0.249  0.218
-0.843 0.0800  0.155
-0.154  0.413 -0.0396
 0.898 -0.200 -0.163
 0.648 -0.207  0.218
 0.868 0.0172  0.186
 0.761  0.407 0.0633
 0.695 -0.150  0.376
-0.189  0.327 -0.337
-0.604 -0.326  0.334
-0.242  0.379 -0.00910
 0.637  0.295  0.347
 0.638 -0.156  0.420
-0.0405  0.400  0.308
 0.724 -0.126  0.331
0.0352  0.452 0.0219
-0.696 -0.296 -0.402
-0.570  0.212 -0.288
 0.503 -0.106  0.446
-0.552 -0.228  0.330
-0.316  0.338 -0.142
-0.351  0.311 -0.246
 0.144  0.359  0.329
-0.198  0.392 -0.226
-0.753 -0.130  0.413
-0.106 0.0240 -0.413
-0.522 -0.103  0.360
 0.550 -0.0758 -0.405
 0.173  0.160 -0.395
 0.696 -0.200 -0.257
-0.695  0.159  0.258
-0.127 -0.236 -0.185
-0.179 -0.236 -0.143
-0.0442 -0.168 -0.430
 0.617 -0.0751  0.277
-0.00288 -0.236 0.0323
-0.199 -0.236  0.239
 0.348 -0.236 -0.257
 0.193  0.460 -0.133
 0.183 -0.236 0.0736
-0.592 -0.0957 -0.244
 0.297  0.459 -0.174
-0.951 -0.145  0.211
-0.564 -0.209 -0.444
 0.369  0.458 -0.164
 0.466 -0.239  0.435
 0.225 0.0477  0.418
 0.597 -0.0265  0.404
 0.416  0.163 -0.403
-0.872 0.0690 -0.0606
-0.641  0.166 -0.368
-0.569 -0.148 -0.508
-0.298  0.327  0.323
-0.672 -0.0741 -0.404
-0.816 -0.147  0.426
-0.609  0.217 -0.0289
-0.917 -0.171  0.115
 0.693 -0.200 -0.0810
 0.162 -0.236  0.415
 0.867 0.0399 -0.101
 0.372  0.185  0.394
-0.530 -0.150 -0.422
 0.690 -0.0109  0.443
0.0109  0.329  0.340
 0.379  0.454  0.268
-0.248  0.363  0.259
 0.668 -0.203  0.115
-0.935 -0.0355 -0.195
 0.786 -0.189  0.260
 0.528 0.0705  0.433
-0.600 -0.304 -0.361
 0.910 -0.0565 -0.164
-0.555 -0.0289 -0.345
 0.572 -0.298  0.391
-0.406  0.147 -0.392
0.00776  0.149  0.397
 0.866 -0.00173 -0.259
-0.766 0.0186  0.425
 0.507 -0.298 -0.360
 0.121  0.258 -0.359
-0.686 -0.213 -0.412
0.00753 0.0169  0.418
 0.242  0.452  0.275
-0.943 -0.186 0.0116
-0.751  0.124 -0.277
-0.182 0.0239  0.415
 0.725 -0.287  0.394
 0.564 -0.305  0.300
-0.448  0.139  0.398
 0.803 -0.188 -0.278
-0.648 -0.00358 -0.402
 0.798 0.00134  0.407
-0.0837  0.435 0.0324
 0.630  0.100  0.421
 0.696  0.421 -0.269
-0.729 -0.0828 -0.281
-0.947 -0.148 -0.224
 0.286  0.415 -0.300
 0.791  0.361 -0.217
-0.137  0.289 -0.350
-0.710  0.164 -0.0812
 0.428  0.373  0.322
-0.491 -0.0787 -0.336
-0.575 -0.210 -0.360
 0.545  0.126 -0.405
-0.638  0.196  0.166
-0.769  0.131 -0.0297
 0.669 -0.0854 -0.273
 0.834  0.243 -0.216
 0.490 -0.220 -0.371
-0.486 -0.0846  0.421
-0.599 -0.0620  0.366
 0.876 -0.0297  0.336
 0.752 -0.123 -0.439
-0.612 -0.288  0.383
-0.754 -0.217  0.461
 0.744 -0.102 -0.303
 0.541 -0.221 -0.266
-0.846 -0.0723 -0.414
 0.421 -0.0645  0.440
-0.959 -0.131 -0.129
 0.775 -0.189 -0.102
-0.530 0.0677  0.419
 0.183  0.453 -0.257
 0.586 -0.0234 -0.273
-0.00292 -0.106  0.432
 0.866 0.0657 -0.171
-0.956 -0.0854  0.176
 0.720 -0.195 0.0116
0.0901 -0.178  0.433
 0.639 -0.0587  0.384
-0.303 -0.236 -0.402
 0.142 -0.236 -0.174
 0.131 -0.236  0.208
 0.627 -0.0544  0.445
-0.943 -0.132 0.0633
 0.513  0.445 -0.0504
-0.520 -0.238  0.177
-0.849 0.0567 -0.349
-0.794 -0.121 -0.305
-0.117 -0.0957 -0.430
-0.323 -0.236 -0.0917
-0.407 -0.00309 -0.424
 0.262  0.322  0.342
-0.885 -0.0706  0.394
-0.685 -0.244 -0.112
-0.778 -0.248 -0.154
-0.282 -0.236 -0.133
-0.199 -0.236 0.0530
 0.863 -0.106 -0.382
 0.459 -0.218  0.342
-0.530 -0.189 -0.244
-0.469  0.254 -0.174
-0.122  0.423  0.125
-0.230  0.161 -0.388
-0.757 -0.265  0.357
-0.0545  0.193 -0.378
 0.204  0.458  0.187
-0.0235 -0.0234 -0.421
-0.582 -0.240 0.0530
-0.296  0.337 -0.262
-0.520 -0.0751  0.247
 0.723 -0.0400  0.414
-0.676  0.162 -0.329
 0.493 -0.227 0.0323
 0.255  0.336 -0.334
-0.685 -0.275 -0.225
-0.00237  0.447  0.105
-0.561 -0.113  0.393
-0.0543  0.440  0.136
-0.700 -0.276  0.482
 0.845  0.240 -0.0434
 0.349  0.198 -0.384
-0.465 -0.115 -0.431
 0.823  0.104  0.374
-0.562 -0.219 -0.504
-0.602 -0.220  0.247
 0.596  0.434 -0.236
 0.606 -0.212 0.0530
 0.390  0.289 -0.350
-0.161  0.410 -0.0912
-0.513  0.235 -0.0914
 0.504 -0.0340  0.311
-0.931 0.0138 -0.00759
 0.607 -0.337  0.353
-0.915 -0.158 -0.133
 0.109  0.154 -0.405
 0.570 -0.301 -0.312
 0.586  0.400 -0.306
 0.736 -0.189 -0.309
-0.333  0.234  0.370
-0.426 -0.236 -0.0194
-0.668 -0.0538  0.381
-0.458 -0.236 0.0633
-0.447 -0.236 -0.102
-0.861 0.0600 -0.262
-0.542 -0.309 -0.342
 0.225  0.198 -0.382
-0.297  0.352 0.0426
-0.240 -0.236  0.384
-0.621 -0.303 -0.284
0.0281 -0.236  0.198
0.0281 -0.116 -0.429
 0.162 -0.236 -0.391
-0.365 -0.236  0.249
 0.757 -0.129  0.384
 0.379 -0.236 -0.309
-0.416 -0.236 0.0323
 0.266 -0.236 -0.195
 0.276 -0.236  0.322
 0.724  0.381  0.301
 0.565 -0.106  0.276
-0.0752 -0.236  0.156
-0.323 -0.189 -0.431
-0.0959 -0.236 0.0943
-0.0752 -0.236 -0.257
-0.520 -0.238 -0.00904
0.0281 -0.236 -0.216
-0.333 -0.236 0.0840
 0.224 -0.236  0.136
-0.747 -0.246 -0.0400
0.0385 -0.236 -0.371
-0.530 -0.238 -0.185
 0.307 -0.236 0.0633
-0.840 -0.249 -0.0400
 0.379 -0.236 -0.143
-0.396 -0.236 -0.123
-0.354 -0.236 -0.288
-0.417  0.286 -0.133
 0.648  0.142 -0.398
 0.627 -0.189  0.277
-0.726 -0.246 -0.174
 0.524  0.265  0.361
-0.179 -0.236 -0.257
-0.333 -0.236  0.353
 0.879 -0.0559 -0.347
 0.503  0.446  0.156
 0.379 -0.236 -0.381
-0.437 -0.236 -0.267
 0.455 -0.188 -0.391
 0.307 -0.0751  0.438
 0.720 -0.197 -0.205
-0.561  0.220  0.208
 0.852 -0.0252 -0.381
-0.313 0.0380  0.418
-0.695 -0.151  0.405
-0.0959 0.0487  0.412
 0.435  0.298  0.350
-0.631 -0.203  0.345
-0.227  0.384 -0.153
 0.658  0.427 -0.216
 0.359  0.460  0.136
 0.338  0.461 -0.0504
-0.00288 -0.236 -0.412
-0.437 -0.236  0.229
-0.525  0.228  0.116
 0.570 -0.00325 -0.359
-0.714 -0.211 -0.260
0.0496  0.454 -0.0504
-0.879 0.00181  0.365
 0.441 -0.234 -0.0400
 0.534 -0.0114 -0.441
-0.429 -0.109  0.436
 0.801 -0.126  0.420
 0.712 -0.262 -0.296
 0.173 0.0476  0.417
 0.659 -0.285 -0.398
-0.561 0.0897 -0.410
 0.609 -0.121  0.441
 0.327 -0.139 -0.434
 0.914 -0.116 -0.143
 0.918 -0.0662 -0.0504
 0.766 -0.179  0.404
-0.0235  0.282 -0.352
-0.632 -0.0524  0.319
 0.881 -0.0151 -0.102
-0.330  0.211 -0.447
 0.505 -0.0673 -0.381
-0.440  0.256 -0.287
 0.631  0.380  0.319
 0.400 -0.158  0.435
0.0970  0.219  0.374
-0.460 -0.157  0.311
-0.859 -0.138 -0.408
 0.489 -0.146 -0.329
-0.481  0.235 -0.266
-0.635 -0.167 -0.454
 0.912 -0.106  0.187
 0.460 -0.232 -0.194
-0.703 -0.202  0.407
 0.712 -0.237  0.410
 0.855  0.198  0.120
 0.499  0.442 -0.269
-0.708 -0.275 -0.332
-0.686 -0.297  0.342
 0.495 -0.211  0.395
 0.792  0.382 -0.0105
 0.106  0.161  0.415
 0.491 -0.157 -0.442
 0.549 -0.289 -0.386
-0.966 -0.0790 0.0530
0.0456  0.432  0.291
 0.664 -0.0671 -0.367
-0.911 0.00788 -0.195
-0.426 -0.236  0.332
-0.706  0.160  0.166
-0.798 -0.239  0.246
 0.256 -0.170  0.435
-0.779 -0.0839  0.426
 0.741 -0.0548 -0.333
-0.342 0.0985  0.412
 0.857 0.0921 0.0349
 0.552 -0.162  0.402
 0.755 -0.0712  0.438
 0.607 -0.220  0.446
 0.834  0.147  0.346
-0.435  0.240  0.358
-0.730 -0.0613 -0.374
-0.824 0.0706  0.362
 0.840  0.183  0.280
 0.898 -0.0566 -0.267
-0.814  0.104 -0.0401
-0.632 -0.281 -0.401
-0.0125  0.446 0.0324
 0.834  0.259  0.192
 0.483  0.207 -0.381
 0.541 -0.221  0.198
 0.813 -0.198 -0.142
 0.756 -0.129 -0.381
-0.639 -0.293  0.303
 0.553 -0.271 -0.435
 0.533  0.435  0.286
 0.855 0.0900  0.136
-0.559 -0.130  0.320
-0.633 -0.0854  0.247
 0.794 -0.106 -0.421
-0.895 0.0230  0.269
-0.592  0.140  0.399
 0.204 0.0623 -0.412
-0.200  0.398 0.0950
 0.556 -0.0666  0.304
 0.761  0.407 -0.185
-0.819 0.0975 -0.122
 0.726 0.0538  0.425
-0.234  0.219  0.374
-0.608 -0.0646 -0.476
-0.562 -0.0241  0.362
-0.734 -0.139 -0.289
 0.621 -0.0557 -0.336
 0.348 -0.234  0.431
 0.484 -0.172  0.306
 0.794 0.0521  0.403
-0.939 -0.0665 -0.267
 0.589 -0.154 -0.412
0.00746 -0.234  0.431
 0.328  0.320 -0.340
-0.646 -0.0939 -0.354
 0.561 -0.201  0.354
0.0393 -0.0207 -0.422
-0.645  0.182 -0.267
 0.850 -0.0663  0.397
-0.573 -0.0753  0.327
-0.219  0.211 -0.373
 0.718 -0.0354  0.366
-0.912 -0.178 -0.268
 0.513 -0.225 -0.143
 0.710 -0.0854 -0.442
-0.137  0.243 -0.364
 0.740 -0.194  0.177
 0.857 0.0995  0.248
 0.874 0.000116  0.120
 0.627 -0.0300 -0.439
 0.307 -0.0854 -0.435
 0.824 -0.188  0.167
-0.673 -0.211  0.466
-0.743 -0.0852  0.383
0.0901  0.366  0.326
 0.400  0.457 -0.102
 0.714 -0.253 -0.412
-0.667 -0.269  0.409
-0.179  0.202  0.379
 0.304 -0.0280  0.436
-0.459 -0.164  0.377
-0.0545  0.234  0.370
-0.940 -0.179 -0.184
-0.427 -0.0135  0.430
-0.373  0.313 0.0426
-0.0545 -0.00346  0.421
-0.220 -0.0558 -0.424
-0.681 -0.0966  0.435
 0.704 -0.305  0.353
 0.696 -0.0887  0.325
-0.600 -0.238 -0.471
 0.562 -0.121  0.440
-0.713 -0.118 -0.374
-0.210  0.315  0.345
 0.600 -0.265  0.372
-0.963 -0.0725 -0.0400
 0.565 0.0283 -0.442
-0.633 -0.337 -0.360
-0.768 0.0645 -0.407
-0.894 -0.239 -0.198
-0.377  0.207  0.403
 0.853  0.193  0.167
 0.533 -0.222 -0.0711
-0.777  0.108  0.290
-0.670  0.162  0.346
-0.154 -0.0308  0.424
-0.792 -0.111  0.391
-0.428  0.276 -0.185
-0.910 -0.237 -0.0814
 0.487 -0.0478  0.363
 0.862 0.0783 -0.0618
-0.734 -0.189  0.492
 0.559 -0.203 -0.332
-0.497 -0.130  0.304
-0.865 -0.147  0.407
-0.551 0.0269 -0.425
 0.809  0.275 -0.317
-0.692 -0.0171 -0.381
-0.909 0.0372 -0.102
-0.530 -0.0478  0.338
-0.897 -0.241 0.0977
-0.592 -0.140 -0.469
-0.903 -0.142  0.293
 0.848  0.212 -0.184
-0.447 -0.236 -0.205
 0.771 -0.0997  0.304
 0.111 -0.236 -0.298
-0.812 -0.147 -0.340
 0.500  0.228  0.373
 0.761  0.141 -0.398
 0.817  0.314 -0.133
-0.148 -0.236 0.0943
-0.882 -0.199  0.391
-0.0235 -0.236 -0.205
-0.114  0.419  0.217
-0.799 -0.248 0.0840
 0.790 -0.178  0.332
 0.245 -0.236  0.280
-0.447 -0.236  0.146
-0.137 -0.189  0.434
 0.565 -0.127 -0.273
-0.850 -0.249 0.0220
0.00746 -0.236  0.270
-0.272 -0.236 -0.0194
-0.127 -0.236 -0.319
 0.142 -0.147 -0.431
 0.700 -0.158  0.276
 0.534 -0.178  0.277
0.0797 -0.236 -0.216
-0.726 -0.106  0.247
-0.168 -0.236 0.00129
 0.286  0.461 0.0530
0.0797 -0.236  0.384
 0.100 -0.236  0.301
-0.199 -0.236  0.177
 0.410 -0.236  0.105
 0.173 -0.236  0.311
 0.266 -0.236  0.167
 0.183 -0.236  0.198
 0.483 -0.168 -0.273
-0.720 0.0900 -0.401
-0.538 -0.247 -0.396
-0.706 -0.245  0.187
 0.465 -0.126 -0.381
 0.132  0.458 -0.0401
 0.483 -0.229  0.125
-0.493  0.248 -0.0297
-0.633 -0.242 -0.205
 0.485 -0.167  0.383
 0.513  0.445 0.0632
 0.586  0.438 0.0222
-0.746 -0.0596 -0.323
-0.882 -0.0438 -0.382
 0.658  0.430 -0.0607
-0.338  0.309  0.310
 0.307  0.212  0.379
 0.132 -0.0548  0.433
-0.116  0.423 -0.164
-0.106 -0.0348 -0.422
 0.565  0.439 -0.164
 0.389  0.458 0.0530
 0.650 -0.201  0.397
-0.770 -0.0635 -0.278
 0.487 -0.0477 -0.319
-0.344 -0.0653  0.429
 0.634 -0.335  0.404
-0.489 -0.0964 -0.247
-0.769 -0.228 -0.285
 0.555 -0.219 -0.174
-0.458 0.0898  0.412
 0.699 -0.113  0.407
-0.475 -0.192 -0.398
 0.867 -0.180 -0.0504
-0.467  0.252  0.207
 0.700  0.161 -0.395
 0.865  0.145 0.0357
 0.457 -0.0844 -0.415
-0.799 -0.108  0.301
 0.799  0.357 0.0735
-0.817 -0.199 -0.371
-0.915 -0.158 0.0323
 0.468 -0.0756  0.423
 0.866 0.0128 -0.198
 0.554 -0.116  0.376
 0.712  0.420 0.0564
 0.627 -0.290  0.407
-0.897 0.0538 -0.0194
 0.652 -0.0594  0.304
 0.781  0.202 -0.359
 0.751 -0.193  0.229
 0.696 -0.310  0.442
-0.261  0.193 -0.378
 0.193  0.313 -0.342
-0.582 -0.233  0.285
 0.727 -0.151  0.411
 0.496 -0.235  0.318
0.00750  0.387 -0.313
 0.628 -0.292 -0.431
-0.663 -0.306 -0.431
 0.128 0.0447  0.415
 0.579  0.429  0.290
-0.697 -0.187 -0.373
 0.653 -0.300 -0.301
 0.803 -0.188 -0.340
-0.445  0.273 0.0942
 0.183  0.182  0.390
-0.413  0.291 -0.0812
-0.333  0.314 -0.287
-0.403  0.271 -0.329
-0.822 0.0797  0.300
-0.615 -0.221  0.424
 0.795  0.364  0.173
 0.729 0.0437 -0.424
 0.508 -0.229 -0.439
-0.240  0.258 -0.359
-0.0912  0.433 0.0942
-0.744 -0.178 -0.321
 0.846 0.0969  0.317
0.0683  0.453  0.167
 0.556  0.234 -0.367
 0.351  0.359  0.329
 0.606 -0.212 -0.0918
 0.152 0.0172 -0.418
 0.520 -0.0925  0.332
-0.525 -0.254  0.288
 0.467 -0.0693  0.325
 0.736  0.228  0.355
-0.859 -0.188 -0.408
 0.528  0.442  0.202
-0.624 -0.242  0.189
-0.627 -0.188 -0.365
-0.539 -0.110 -0.456
-0.364  0.141  0.401
-0.728 -0.0297  0.259
 0.648 -0.104 -0.387
-0.654 -0.0236 -0.243
 0.469 -0.248  0.373
-0.0139  0.442  0.198
-0.686 -0.0847 -0.290
-0.590 -0.217  0.351
-0.688 -0.273 -0.284
 0.405 0.0430  0.425
 0.211 0.00304  0.425
 0.790  0.349 -0.263
-0.559 -0.186  0.384
 0.857 -0.169  0.280
-0.648  0.197 -0.0194
-0.594  0.193 -0.343
 0.507 -0.298  0.342
 0.876 -0.147 -0.322
-0.292 -0.236  0.239
-0.486 -0.0850 -0.407
-0.642 -0.154  0.409
 0.713 -0.133 -0.400
 0.854 0.0490  0.280
 0.328 0.0482  0.421
-0.556 -0.292  0.299
-0.302 -0.0761 -0.427
 0.318  0.100 -0.409
-0.240 -0.158 -0.430
-0.465  0.260 -0.122
 0.183 -0.236  0.363
 0.617 -0.220 -0.368
-0.354 -0.236 -0.216
 0.379 -0.236  0.198
 0.379 -0.236 -0.226
 0.245 -0.236 -0.143
-0.437 -0.236 -0.340
-0.669 -0.175 -0.426
 0.710 -0.0750  0.276
 0.679  0.428  0.136
-0.933 -0.219 -0.0228
0.0900  0.112 -0.405
-0.633 -0.242  0.136
-0.210 -0.236 -0.174
-0.323 -0.236 -0.319
-0.220 -0.236 -0.236
 0.861  0.162 -0.112
-0.261 -0.236 -0.0917
 0.678 -0.201 -0.0401
-0.711 -0.168 -0.252
 0.483 -0.229  0.208
-0.592 -0.313 -0.435
-0.647  0.194 -0.122
-0.199 0.0898 -0.410
 0.376  0.292  0.353
-0.841 0.0791 -0.175
 0.452  0.234 -0.367
 0.493 -0.227 -0.247
-0.934 -0.0134 -0.102
 0.475 0.0359 -0.433
-0.690  0.176 0.0116
 0.653 -0.300  0.353
-0.640 -0.0431  0.466
 0.680  0.297  0.340
-0.537 -0.112 -0.403
-0.137  0.419 0.0220
-0.437 -0.220 -0.431
-0.683  0.179 -0.0400
 0.777 -0.0343 -0.424
 0.183  0.275  0.358
 0.657 -0.119  0.435
-0.365 0.00739 -0.420
-0.426 -0.0955 -0.432
0.0350  0.291  0.353
 0.431 0.0887  0.416
 0.736 -0.178  0.322
 0.917 -0.122 0.0837
 0.223  0.345  0.335
 0.596 -0.306 -0.391
-0.286  0.351 -0.184
-0.694 -0.327  0.311
-0.591 -0.132 -0.418
 0.710 -0.199  0.208
-0.641 -0.302  0.348
-0.754 -0.125  0.456
 0.616  0.434 -0.123
-0.0959 -0.0235  0.423
-0.671 -0.223 -0.327
-0.469 -0.121 -0.347
 0.715 -0.296 -0.360
 0.535 -0.0547 -0.442
-0.396 -0.236 -0.391
 0.880 -0.152 -0.278
 0.661 -0.00610  0.322
 0.718 -0.247  0.353
-0.530  0.221 -0.195
-0.884 -0.240 -0.241
-0.908 -0.149 -0.301
0.0799 -0.0351 -0.425
-0.612 -0.162  0.281
 0.686 -0.0491 -0.297
 0.501 -0.157  0.435
-0.726 0.0664  0.416
-0.531 -0.0813 -0.356
-0.707 -0.312 -0.309
 0.476 -0.261 -0.374
 0.831  0.277  0.138
 0.909 -0.142 -0.0813
 0.511 -0.241  0.438
-0.591 -0.00654  0.431
-0.630 -0.0548 -0.343
-0.933 -0.0762  0.306
-0.859 0.0367  0.382
0.0385 0.0789 -0.406
-0.822 -0.249  0.280
-0.903 -0.0149 -0.317
-0.816 -0.178  0.322
-0.592 -0.241 -0.112
 0.163 -0.0249 -0.425
 0.503 -0.0957 -0.296
0.0902  0.428  0.296
-0.376  0.279  0.345
 0.649 -0.203 -0.394
 0.762  0.318 -0.317
-0.899 -0.00223  0.310
0.0283  0.171 -0.386
0.0801  0.455 0.0221
 0.785  0.395 0.0296
 0.762 -0.127 -0.273
-0.953 -0.133  0.135
 0.430 -0.189 -0.340
-0.623  0.172  0.375
-0.799 -0.108 -0.381
-0.127 -0.199 -0.431
 0.472  0.131  0.409
-0.617 -0.0102  0.320
-0.187  0.398 -0.184
 0.338 -0.236 -0.205
-0.416 -0.236 -0.0710
 0.348 -0.220 -0.431
 0.789  0.378 -0.123
 0.916 -0.0923  0.118
-0.550  0.221 0.0219
 0.617 -0.106  0.371
 0.245 -0.0850 -0.434
-0.158 -0.236 -0.102
-0.0649 -0.236  0.384
0.0385 -0.236 0.0220
-0.220 -0.199  0.434
-0.127 -0.137  0.433
-0.168 -0.236  0.146
-0.137 -0.236  0.177
 0.173 -0.236 -0.205
 0.317 -0.236  0.373
-0.385 -0.178 -0.432
-0.0752 -0.106 -0.430
-0.0132 -0.236 -0.0710
-0.385 -0.236 -0.00904
 0.193  0.460 -0.0401
 0.627 -0.147 -0.273
 0.816  0.189  0.356
-0.210 0.0718  0.413
-0.293 0.0493 -0.414
-0.652 -0.172  0.366
-0.345  0.154 -0.407
-0.292 -0.236  0.394
 0.338 -0.236 -0.391
-0.282 -0.236  0.291
 0.661 -0.00621 -0.371
0.0797 -0.236 -0.360
 0.811  0.339 -0.0155
-0.199 -0.0959  0.434
 0.224  0.460 -0.0917
 0.255  0.460  0.136
-0.0532  0.435  0.228
 0.508 -0.111 -0.382
 0.132  0.458 -0.0917
 0.648  0.430 -0.154
-0.747 -0.246  0.146
-0.427  0.264  0.290
-0.397  0.190 -0.382
 0.688  0.426  0.177
-0.643 -0.127  0.247
-0.390  0.289  0.259
-0.271 -0.0434 -0.422
 0.348 -0.116  0.437
-0.676 -0.119 -0.411
 0.637  0.337  0.337
-0.509 -0.189  0.247
 0.826  0.303 0.0303
 0.142  0.454  0.218
-0.519  0.115 -0.402
0.0597  0.455 0.0633
 0.380  0.450 -0.277
 0.152  0.306  0.348
 0.884 -0.155  0.228
-0.479 -0.0972  0.267
-0.757 -0.199  0.247
-0.932 -0.00556 -0.0604
 0.524 -0.311 -0.435
 0.863  0.152 -0.0504
 0.193 -0.116 -0.432
-0.540 -0.239 -0.235
 0.596 -0.214 -0.247
 0.838  0.172 -0.297
 0.865 -0.195 -0.136
-0.456 -0.189  0.424
 0.586 -0.000987  0.301
 0.369  0.121 -0.408
 0.545 -0.312  0.446
-0.755  0.109  0.354
-0.570 -0.273  0.384
-0.934 -0.0322  0.192
 0.611  0.226  0.373
-0.793 -0.0316 -0.422
-0.667 -0.0395  0.299
 0.918 -0.0661 0.0323
 0.858 -0.183  0.197
-0.719 -0.257 -0.243
 0.288  0.157 -0.402
 0.637 -0.208 -0.143
-0.644 -0.243  0.229
-0.716 -0.291  0.440
-0.251  0.366  0.217
-0.0546  0.440 -0.112
-0.717  0.143 -0.293
 0.554 -0.204  0.443
-0.0547 0.0911  0.409
 0.121  0.449  0.269
-0.414 -0.151  0.436
-0.231  0.367 -0.287
-0.615 -0.242 0.0881
-0.00280 0.0168 -0.415
-0.571  0.220 -0.174
 0.472  0.387  0.316
-0.468 0.0822 -0.411
-0.788 0.0974 -0.318
 0.369  0.251 -0.362
 0.790  0.360  0.231
 0.710 -0.301  0.311
 0.689 -0.178 -0.387
 0.197  0.422  0.299
 0.451 -0.233  0.249
-0.624 -0.0600 -0.288
-0.468 0.0274  0.428
-0.884 0.0518 -0.174
-0.739 -0.204 -0.365
-0.813 -0.147  0.383
-0.121  0.352  0.332
-0.0233  0.425 -0.291
 0.441 -0.119  0.363
-0.0401  0.442 0.00126
-0.393  0.292 -0.215
-0.768 -0.230 -0.244
 0.814  0.322 -0.188
-0.335  0.317  0.269
-0.0339  0.243 -0.364
-0.296  0.251  0.365
 0.723 -0.0401 -0.423
-0.271  0.109 -0.406
 0.614 -0.211  0.147
-0.904 0.0120 -0.236
 0.451 -0.233 0.0116
-0.565 -0.135  0.278
 0.235 -0.168 -0.432
-0.234  0.337 -0.330
-0.946 -0.125  0.248
-0.604 -0.260 -0.431
 0.617 -0.0439 -0.297
 0.566 -0.0365  0.445
 0.637  0.262 -0.351
-0.491  0.179  0.386
-0.747 -0.0648 -0.244
-0.584 -0.0107 -0.374
-0.468 -0.236  0.105
-0.780 -0.218  0.428
-0.627 -0.0748 -0.440
-0.665 -0.218  0.373
 0.657 -0.255 -0.369
-0.953 -0.0527 0.0840
-0.514 -0.249 -0.429
-0.848 0.0716  0.207
-0.478 -0.137 -0.244
-0.251 -0.236 -0.164
-0.0235 -0.236 -0.164
 0.596 -0.214  0.239
-0.638 -0.134  0.359
 0.565 -0.239  0.370
 0.111  0.296 -0.348
-0.726 -0.0969 -0.320
-0.683 -0.171  0.491
 0.699  0.296 -0.335
0.0695 -0.0957 -0.429
-0.660 -0.141 -0.337
 0.803 -0.188 0.0323
-0.600 -0.241 -0.0376
-0.634 -0.291  0.436
 0.255  0.387  0.316
 0.720 -0.197 -0.164
-0.199  0.243  0.367
 0.214  0.121  0.410
-0.165  0.298  0.350
-0.251  0.162  0.391
 0.297  0.458  0.197
 0.431 -0.171  0.301
 0.276  0.258 -0.359
-0.0339 -0.236  0.342
 0.235 -0.236 -0.371
-0.189 -0.235 -0.422
-0.757 -0.247 0.0220
0.0488 -0.189 -0.430
-0.240 -0.236 0.0530
-0.0752 -0.236  0.291
 0.786 -0.147 -0.350
0.0281 -0.236  0.156
 0.617  0.327 -0.337
-0.623 -0.168 -0.244
-0.230 -0.228 -0.431
 0.607  0.106 -0.415
-0.361  0.294 -0.327
-0.147 -0.147 -0.430
-0.788 -0.248 -0.0400
-0.757 -0.247  0.105
0.00778  0.449 -0.0607
-0.664 -0.243 0.0323
-0.0121  0.441 -0.215
 0.761  0.243 -0.337
 0.510  0.187  0.393
 0.520 -0.0923  0.373
 0.111  0.457 0.0942
 0.759 -0.0791 -0.388
-0.726 -0.244  0.243
-0.602 -0.000745 -0.430
-0.608 -0.264  0.266
-0.249  0.376 0.0323
 0.276 -0.236  0.404
-0.817 -0.178 -0.418
-0.157  0.369 -0.318
-0.351  0.322  0.125
 0.438  0.453 -0.0425
 0.298 -0.170  0.436
 0.553 -0.0692 -0.329
-0.588 -0.0514  0.254
-0.664 0.00730  0.433
 0.132  0.130  0.408
-0.158 -0.234  0.431
 0.100  0.351 -0.329
 0.863 0.0795 -0.111
 0.512 -0.177 -0.413
-0.914 -0.231  0.170
-0.808 -0.186  0.417
 0.865  0.104 -0.186
0.0522  0.380  0.318
-0.776 -0.153 -0.287
 0.204  0.428 -0.293
-0.353  0.320 -0.144
-0.631 -0.164  0.446
-0.537 -0.260  0.353
-0.825 -0.241  0.389
 0.878 -0.159 -0.215
-0.417  0.274 -0.256
-0.560 -0.0658  0.286
 0.803 -0.188 -0.195
 0.156  0.440  0.288
-0.684 0.0466  0.428
 0.731  0.388 -0.291
 0.421  0.180  0.397
-0.551  0.220  0.146
-0.965 -0.0784 -0.116
-0.528 -0.156  0.302
-0.829 -0.249  0.146
 0.617 -0.0709 -0.422
-0.488 0.0412 -0.422
 0.224  0.456  0.239
 0.530 -0.315  0.387
 0.570 -0.00331  0.384
0.0385  0.203  0.379
 0.596 -0.199 -0.442
 0.722 -0.216 -0.399
-0.105  0.372 -0.319
 0.776  0.402  0.101
-0.142  0.411 -0.205
-0.724 -0.325 -0.369
-0.272  0.346  0.290
-0.647 -0.334 -0.322
-0.839 -0.247  0.332
-0.468 -0.220 -0.244
 0.698  0.423 -0.216
 0.864 0.0153 0.0529
 0.667 -0.196 -0.440
-0.731 -0.280 -0.374
 0.830 -0.116 -0.405
-0.576 -0.0215 -0.302
 0.762 -0.214  0.343
 0.142  0.130 -0.405
-0.550  0.220 -0.123
 0.763 -0.151  0.308
 0.216 -0.0895  0.436
 0.764 -0.198 -0.432
 0.810 -0.185 -0.379
-0.623 -0.160 -0.400
-0.613  0.123 -0.401
 0.895 -0.155 0.0941
-0.251 -0.00338  0.420
-0.697 -0.165 -0.331
0.0591  0.320 -0.340
 0.391  0.388  0.316
 0.597  0.431 -0.276
 0.617 0.000900  0.342
-0.495 -0.168 -0.430
-0.128  0.397  0.304
 0.475 -0.0658  0.283
-0.200  0.387  0.259
 0.911 -0.0957 -0.194
 0.750 -0.192 -0.133
 0.712 -0.189  0.401
 0.658  0.428  0.208
 0.493 -0.227 -0.102
 0.890 -0.0274 -0.236
 0.648  0.534 0.00407
-0.507  0.241 0.0219
-0.201  0.398 0.0425
 0.524 -0.218  0.277
 0.658  0.409 -0.295
-0.458 -0.00355 -0.429
-0.675 -0.00106 -0.430
 0.589 -0.335  0.314
-0.942 -0.208 -0.157
-0.664 -0.0281 -0.350
-0.0737  0.436 -0.153
-0.676 -0.00765 -0.278
 0.735 -0.146 -0.297
-0.500 -0.0671  0.284
-0.299  0.123  0.404
-0.771 -0.0633  0.311
 0.677 -0.0125  0.370
-0.748  0.143 -0.0760
-0.385  0.304 -0.112
 0.771  0.141  0.400
-0.915 -0.158 0.0736
-0.242  0.379 -0.0607
-0.915 -0.172 -0.350
-0.735 -0.252  0.463
-0.354  0.315 -0.194
-0.754  0.116 -0.329
-0.0235 -0.209  0.434
-0.776  0.123 -0.123
-0.576 -0.266 -0.489
 0.561 -0.0336 -0.391
-0.139  0.409 -0.246
-0.460 -0.157 -0.298
-0.765 -0.0575 -0.402
 0.907 -0.103  0.232
 0.595 -0.213 -0.0298
-0.493 -0.0489  0.436
 0.444 -0.118  0.285
-0.294  0.329 -0.320
-0.707 -0.0777  0.407
-0.885 0.0615 0.0528
 0.900 -0.158 -0.164
 0.173  0.225 -0.369
-0.220  0.388  0.146
-0.492  0.225  0.300
-0.913 -0.220 -0.261
 0.805  0.343 -0.0741
 0.811  0.329 0.0977
-0.303  0.178 -0.383
 0.542 -0.269  0.401
-0.620 -0.0716  0.397
0.0696  0.450 -0.226
