ply
format ascii 1.0
element vertex 2048
property float x
property float y
property float z
end_header
-0.177 -0.0321  0.139
 0.443 -0.0786 -0.773
 0.155  0.272  0.950
-0.317 -0.305 -0.611
 0.252  0.316 -0.250
-0.0155 -0.330  0.717
 0.171  0.279  0.411
-0.0615  0.176 -0.661
-0.319 0.0626  0.804
 0.272 -0.0938 -0.00389
-0.326 0.0445 -0.307
 0.184 -0.0938 -0.431
 0.240 -0.0313  0.651
0.0862 -0.315 -0.717
-0.106 -0.0326  0.523
 0.272  0.322 -0.657
0.0801  0.237 0.0627
-0.0440 -0.0923 -0.174
 0.193 -0.0974  0.319
 0.445 0.0547 -0.320
-0.0392  0.184 -0.336
-0.0155 -0.00288  0.848
 0.373 -0.326 -0.592
-0.253 -0.0463 -0.773
-0.120 -0.0917 -0.497
0.0342  0.220  0.660
 0.137 -0.0383 -0.715
-0.0837  0.168  0.309
-0.325 0.0524  0.377
-0.163  0.133 -0.0796
-0.318 -0.0934 -0.0796
 0.439 -0.0874 -0.526
-0.311 0.0552 -0.554
0.0509 -0.0963 0.0912
-0.327 -0.0788  0.604
 0.145  0.266 -0.458
 0.193 -0.0330 -0.212
 0.245 0.0558  0.158
-0.0250 -0.0957  0.309
-0.176  0.127  0.651
 0.193 0.0518  0.848
 0.317 0.0538 -0.649
0.0809  0.240 -0.156
0.0415 -0.0963  0.660
-0.158 -0.0948  0.727
 0.251 0.0558  0.467
-0.0390  0.187  0.909
-0.0627 -0.0420 -0.696
-0.105  0.155  0.111
0.0415 0.0191 -0.516
-0.314 0.0659 0.0437
-0.327 -0.0866  0.243
-0.196 -0.0945 -0.307
 0.336 -0.0984 -0.317
-0.157  0.132 -0.478
-0.0521  0.179  0.499
0.0319 -0.0318 -0.336
 0.136 -0.0969  0.499
-0.196 -0.0911  0.376
-0.0344 -0.221 -0.619
-0.318 -0.0934 -0.440
 0.107  0.251 -0.649
-0.316 -0.117 -0.620
 0.112  0.251  0.243
-0.0785 -0.0310 -0.0100
 0.167  0.278  0.774
 0.250 -0.0977 -0.592
 0.108 -0.0323 -0.0606
-0.236 0.0974  0.234
 0.288 0.0551 -0.0860
0.00345 -0.183  0.802
-0.184  0.120 -0.259
-0.203  0.115  0.471
 0.165 -0.0971  0.784
-0.308 0.0688 -0.146
-0.186 0.0579 -0.661
-0.0107  0.199 -0.497
-0.169  0.130  0.831
-0.291 -0.0937  0.831
 0.300 0.0146 -0.490
 0.167  0.277  0.594
 0.186  0.285 -0.0474
 0.193 -0.0974  0.158
-0.186 -0.0302 -0.137
 0.288 -0.0980 -0.744
 0.128 -0.201 -0.622
-0.0237  0.193 -0.0512
 0.255 0.0446  0.310
-0.309 -0.0903 0.0722
-0.314 0.0659  0.642
 0.331 0.0256 -0.228
 0.423 -0.183 -0.639
-0.324 -0.0915 -0.228
0.0942  0.245 -0.317
 0.269  0.323 -0.403
 0.447 0.0512 -0.582
0.0414 0.0579 -0.657
-0.323 -0.0794  0.442
0.0130 -0.0335  0.442
-0.167 -0.0218  0.848
 0.311 -0.0946 -0.157
-0.0513  0.182  0.765
0.0414 -0.0928 -0.601
0.0475  0.225  0.376
-0.0439 -0.0331  0.177
-0.186 -0.0946 -0.658
0.0889 -0.0321  0.262
 0.174 -0.000109 -0.536
 0.444 -0.0693 -0.393
-0.0513  0.182 -0.203
-0.324 0.0351  0.509
0.00348 -0.0960 -0.450
0.0748  0.237  0.509
-0.0996 -0.0327 -0.372
0.0794 -0.0931 -0.231
-0.0599 -0.0183  0.689
 0.252 -0.0692  0.432
-0.215 -0.0318 0.00579
-0.0443 -0.313 -0.709
0.00184  0.205  0.196
-0.283 0.0768 -0.431
-0.205 -0.0319  0.604
-0.186 0.0145 -0.524
-0.129 -0.0305  0.271
0.0320 -0.0962 -0.763
-0.326 0.0161  0.167
 0.402 -0.0409 -0.658
0.0672  0.234  0.842
 0.421 0.0559 -0.459
 0.165 -0.0327 0.0532
 0.245  0.313 -0.526
-0.319 0.00665 -0.669
-0.297 -0.0280  0.721
 0.193 0.0539 -0.649
 0.336 -0.0984 -0.459
 0.271 0.0257 0.0434
-0.216  0.109  0.101
0.0889 0.0256  0.797
 0.239 0.0519  0.736
 0.222 -0.0331 -0.336
0.0889 -0.0965  0.376
 0.203 -0.0974 -0.108
-0.205 -0.0911  0.499
 0.171  0.279  0.145
-0.0629 -0.0125 -0.582
-0.224 -0.0318 -0.402
-0.113 -0.0326 -0.253
0.00348 -0.0960 -0.0606
 0.127 -0.0344  0.613
 0.247 -0.0875  0.546
0.0224 -0.0927  0.547
-0.217  0.106  0.357
0.0699 -0.0788  0.848
-0.0819 -0.0953  0.812
-0.0911 -0.0327  0.396
 0.261 -0.0502  0.243
-0.126 -0.0924 -0.774
-0.224 -0.0909 -0.535
-0.0914 -0.0952  0.613
-0.0820 -0.0920 0.0912
-0.138  0.141  0.215
 0.239 0.0569  0.575
-0.235  0.101  0.746
0.0320 -0.314 -0.623
-0.243 -0.0297  0.300
-0.156  0.136 -0.592
 0.117 -0.0934 -0.516
-0.0450 -0.171  0.706
 0.186  0.287 -0.156
-0.300 0.0161 -0.0512
-0.163  0.133 -0.364
-0.0771  0.171  0.604
 0.192  0.289 -0.336
-0.110 -0.0951 -0.0891
0.0204  0.211 -0.601
-0.111  0.155  0.414
0.0984 -0.0322 -0.431
 0.136 -0.0936 -0.326
0.0414 -0.0318 -0.156
-0.105  0.155 0.00658
-0.242 0.0979  0.575
 0.439 -0.0788 -0.290
 0.117 -0.0343  0.717
-0.101 0.0592  0.803
-0.224 -0.0318 -0.231
 0.358 -0.117 -0.579
0.0414 -0.0928  0.196
-0.324 0.0256  0.271
-0.0458 -0.278  0.799
0.0619  0.231 -0.412
-0.327 -0.0598 -0.535
 0.160  0.274 -0.564
 0.267 -0.0408  0.120
-0.324 -0.0692 -0.326
-0.234 -0.0909  0.205
-0.291 -0.0312 -0.156
-0.267 -0.202 -0.602
-0.230  0.100 -0.0132
-0.0819 0.0516 -0.656
-0.0113  0.199 0.0723
 0.165 -0.0324  0.404
0.0415 -0.0337 0.0153
 0.117 -0.0343  0.158
0.0670  0.231 -0.0512
 0.260 -0.0944 -0.250
-0.120 -0.0917  0.196
 0.165 -0.0937 -0.639
-0.0914 0.00115 -0.487
 0.373 -0.00595 -0.554
0.0888 -0.00772 -0.601
-0.0155 -0.0333 -0.250
 0.129 -0.312 -0.620
 0.234 -0.0408  0.821
 0.357 -0.221 -0.579
-0.204  0.112 -0.165
 0.196 -0.0940 -0.774
-0.249 0.0948 -0.335
-0.0424 -0.126 -0.634
-0.324 -0.0915 -0.712
 0.307 -0.0502 -0.659
-0.250 0.0914  0.862
-0.243 -0.0941  0.679
-0.0344 -0.0957 -0.545
-0.0629 -0.0921 -0.307
 0.145  0.266 -0.240
 0.355 -0.0340 -0.393
0.0812  0.239 -0.526
-0.151  0.135  0.556
-0.243 -0.0297  0.433
-0.120 -0.0917 -0.592
-0.324 -0.00281 -0.393
 0.269 -0.0945 -0.393
0.00104  0.202  0.290
0.0130 -0.0335  0.765
 0.132  0.260  0.690
 0.174 -0.0972  0.679
 0.160  0.274  0.319
-0.0440 -0.0956  0.480
0.0216  0.213 -0.250
-0.0771  0.171 -0.554
0.00831  0.208  0.566
0.0334  0.216  0.755
-0.205 -0.0944 0.0722
-0.224 -0.0909 -0.0796
 0.261 -0.0310 -0.0741
-0.211 -0.0189  0.748
-0.0250 -0.0313  0.594
-0.139 -0.0915 -0.184
 0.269 -0.00673 -0.573
-0.229  0.104 -0.526
 0.364 -0.0458 -0.744
-0.325 -0.0502  0.357
-0.276 0.0796 -0.241
-0.105  0.158 -0.279
-0.224 -0.00621 -0.611
 0.356 -0.0725 -0.231
-0.0982  0.158  0.690
-0.129 -0.0950  0.452
 0.146 -0.0313  0.846
 0.146 -0.0970  0.233
 0.226 -0.0398 -0.707
 0.289 -0.00615 -0.156
0.00931 -0.240  0.711
 0.376 -0.00935 -0.295
-0.158 -0.0914 -0.402
0.0889 -0.0965 -0.118
-0.272 -0.0295  0.537
-0.0578  0.179 -0.421
 0.108 -0.0967 0.0248
-0.253 -0.00284  0.846
0.0319 -0.0318  0.328
 0.203 -0.0323  0.736
-0.274 0.0808 -0.660
 0.159  0.272 0.0532
-0.158 -0.0948 -0.0132
 0.193  0.288 -0.649
0.0874  0.243  0.594
 0.411 0.0552 -0.661
-0.00599 -0.0315 0.0912
0.0736  0.234  0.158
 0.257 -0.0408  0.328
-0.262 -0.0315  0.129
-0.318 -0.0934  0.158
0.0699 -0.0320  0.509
-0.205 -0.0944  0.822
-0.327 -0.0503 -0.00368
-0.262 -0.0292 -0.487
 0.422 -0.268 -0.644
-0.120 -0.0951  0.338
 0.224 -0.0123  0.509
-0.124  0.150 -0.174
-0.139 -0.0324 0.0632
-0.110 -0.0307  0.755
-0.0345 -0.0313 -0.0986
-0.156  0.136  0.746
 0.408 -0.0344 -0.469
-0.186 -0.0911  0.281
-0.324 0.00668 -0.222
0.0594 -0.0422 -0.687
-0.270 0.0825  0.158
-0.0440 -0.0598 -0.774
-0.326 0.0256 -0.478
 0.222 -0.0331 -0.478
-0.262 -0.0598 -0.660
0.0493 -0.221 -0.632
-0.163 -0.0382 -0.725
-0.0155 -0.0314 -0.402
0.0699 -0.0964 -0.374
-0.111  0.156  0.887
-0.253 -0.0297 -0.307
-0.0724 -0.0920 -0.421
-0.243 -0.0941 -0.174
-0.167 -0.0947  0.642
-0.0465 -0.0944  0.733
 0.136 -0.0325 -0.136
-0.0155 -0.0309  0.262
 0.160  0.275  0.869
 0.279 -0.0946 -0.516
-0.0837  0.168 -0.0986
 0.184 -0.0174 -0.0402
-0.326 -0.0123 0.0817
-0.0478 -0.307 -0.629
0.0984 -0.0342 -0.288
-0.0915 -0.0308 -0.156
-0.0382  0.187  0.404
-0.0118  0.199  0.832
 0.155 -0.0937 -0.0417
 0.166  0.275  0.490
 0.165 -0.0142 -0.620
 0.217 0.0517  0.661
-0.224 -0.0943 -0.450
-0.0155 -0.0314 -0.497
 0.184 -0.0347  0.262
-0.253 -0.0940 -0.364
 0.193 -0.0974  0.604
-0.167 -0.0303 -0.0606
-0.177 0.0351  0.795
-0.00603 -0.0925  0.831
-0.270 0.0825  0.423
 0.117 -0.0968 -0.763
 0.235 0.0447  0.385
-0.270 0.0825 -0.0796
 0.427 -0.108 -0.620
 0.288 -0.0331 -0.288
-0.318 -0.0934  0.518
-0.00602 0.0523  0.795
 0.238 0.0445  0.234
0.0873  0.243  0.926
 0.133  0.263 -0.0986
-0.0119  0.196 -0.127
-0.0707  0.173  0.196
-0.0155 0.00661 -0.640
 0.436 -0.0990 -0.700
-0.0440 -0.0923  0.385
0.0889 -0.0932  0.774
 0.203 -0.0940 0.0817
-0.324 -0.00283  0.442
 0.184 -0.0938 -0.260
-0.262 -0.0940 -0.0132
 0.108 -0.0967  0.300
 0.155 -0.0345 -0.374
 0.114 0.0202 -0.494
-0.167 -0.0303  0.433
-0.229  0.104 -0.601
-0.324 -0.00281  0.585
-0.129 -0.0305  0.623
 0.139  0.263 -0.382
 0.108 -0.0967  0.575
-0.139 -0.00285 -0.663
-0.318 -0.0934  0.679
-0.216  0.109 -0.412
0.0801  0.237  0.309
 0.117 0.0256 -0.663
 0.446 -0.0218 -0.564
-0.303 0.0522  0.714
-0.291 -0.0937  0.755
0.0995  0.245  0.774
0.0415 -0.0963  0.471
-0.139 -0.0949  0.547
-0.169  0.130  0.281
-0.164  0.129 0.0437
-0.0327  0.187  0.670
-0.0155 -0.0958 -0.364
 0.136 -0.0969 -0.174
-0.0819 -0.0953  0.262
0.0306 -0.0231  0.657
-0.177 -0.0303  0.679
 0.412 0.0350 -0.383
-0.281 -0.0295  0.233
-0.297 -0.00790 -0.589
0.00868  0.207  0.471
 0.250  0.314 -0.177
0.0269  0.213 -0.326
-0.272 -0.0939 -0.279
0.00345 -0.0925 0.0343
-0.272 -0.0906  0.328
0.0129 -0.136  0.736
 0.108 -0.0323 -0.203
0.0984 -0.0322  0.442
 0.136 -0.0936  0.110
 0.234 -0.0934  0.765
0.0605 -0.0339  0.585
 0.155 -0.0345  0.547
0.0319 -0.0928 -0.516
-0.314 -0.237 -0.644
 0.106  0.248  0.414
-0.186 -0.0320 -0.469
0.0269  0.213 0.00580
-0.270 0.0825  0.509
0.0984 -0.136 -0.619
-0.283 0.0768  0.300
-0.281 -0.0314  0.651
-0.177 -0.0302  0.528
 0.250 0.00664 -0.659
0.0793 -0.0315 0.0817
-0.0439 -0.0331  0.338
-0.138  0.141  0.347
-0.224 -0.0943  0.575
-0.177 -0.0321 -0.336
 0.136 -0.0344  0.319
 0.203 -0.0330  0.186
-0.117  0.152  0.490
 0.298 -0.0356 -0.440
0.00350 -0.0786 -0.660
-0.255 0.0918  0.671
-0.205 -0.0944 -0.753
-0.130  0.147 -0.656
 0.250 0.0161 -0.0227
-0.326 -0.0409  0.803
 0.146 -0.0970  0.423
 0.227 -0.0338 -0.139
 0.381 -0.0987 -0.383
 0.364 -0.0986 -0.668
 0.269  0.323 -0.317
-0.148 -0.0304  0.357
 0.202 0.0129  0.791
-0.0344 -0.0957  0.148
 0.286 -0.0939 -0.0903
-0.120 -0.0693 -0.660
0.0604 -0.0930 -0.298
0.0509 0.0521  0.848
-0.0250 -0.0924  0.632
-0.101 -0.00286  0.848
-0.00599 -0.0315  0.528
-0.129 -0.0120 -0.564
-0.129 -0.0950 -0.326
 0.364 -0.221 -0.647
 0.174 -0.0972 -0.554
-0.0155 -0.0958  0.233
 0.346 -0.0117 -0.618
0.0889 -0.0338 -0.534
0.0136 -0.306  0.774
-0.203  0.115  0.177
-0.253 -0.0297 -0.0701
-0.0901  0.165 -0.488
0.0414 -0.0314  0.167
 0.250 -0.0481 -0.769
-0.0722 -0.0311  0.461
 0.264 -0.00282  0.186
 0.444 -0.0219 -0.326
 0.264 -0.0874  0.186
 0.245 -0.0218  0.584
-0.0914 -0.0952 0.00579
 0.410 0.0548 -0.526
 0.174 -0.0972 -0.706
0.0225 -0.0961  0.395
-0.205 -0.0300  0.205
-0.110 -0.0951  0.679
 0.380 0.0554 -0.263
 0.258  0.315 -0.592
0.0319 -0.0316 -0.0512
 0.165 -0.0324  0.480
 0.241 -0.0977 -0.658
0.0604 -0.0964 -0.0227
 0.231 -0.0351 0.0627
 0.174 -0.0328  0.120
0.0319 -0.0928 -0.184
-0.0440 -0.0923  0.556
 0.108 -0.0967 -0.696
-0.261 -0.0907 -0.592
-0.0534 -0.0280  0.790
 0.275 -0.0306 -0.217
 0.199  0.292 -0.402
-0.324 -0.0661 -0.774
 0.203 -0.0940 -0.174
 0.366 0.0141 -0.490
0.0699 -0.0964 -0.440
 0.108 -0.0934  0.660
 0.241 -0.0352 -0.402
 0.308 0.0565 -0.174
0.00482 -0.0397 -0.724
-0.308 0.0688  0.224
 0.235 -0.0807  0.699
0.0204 -0.313 -0.696
0.00222  0.205 -0.402
-0.196 -0.0945  0.148
0.0527  0.225  0.234
-0.101 -0.0307 -0.0796
 0.412 -0.0990 -0.457
-0.0534 0.0524  0.848
 0.444 0.00659 -0.630
-0.215 -0.0299 0.0722
-0.234 -0.0942  0.433
-0.324 -0.0218 -0.0986
-0.0849 -0.0310  0.126
 0.423 -0.224 -0.579
0.0604 -0.0123  0.846
0.0984 -0.0322  0.376
0.0865  0.240 -0.231
0.0342  0.220  0.898
0.0488  0.225 -0.660
0.0801  0.237 -0.592
 0.198  0.289 -0.488
 0.222 -0.0976 -0.336
 0.117 0.0520  0.848
-0.176  0.127  0.414
 0.266 -0.0946 0.0723
-0.0344 -0.0957 -0.250
 0.248 -0.0970  0.357
 0.446 -0.0123 -0.421
 0.250 -0.0977 -0.459
-0.167 -0.0947 -0.250
 0.193 -0.0939  0.471
 0.108 -0.0967  0.167
 0.165 -0.0327 -0.269
-0.124  0.150 -0.412
 0.174 -0.0328  0.679
-0.0155 -0.0314 -0.184
-0.276 0.0830 0.0912
-0.148 -0.0949  0.101
-0.148 -0.0949  0.793
 0.119  0.254  0.110
-0.324 -0.0915 -0.143
-0.295 0.0623 -0.364
-0.253 0.0351  0.795
 0.132  0.260 -0.00290
-0.319 0.0626 -0.620
-0.120 -0.0306 -0.440
-0.196 -0.0297 -0.668
 0.231 0.0177 -0.516
-0.0439 -0.0331 -0.317
-0.131  0.144 -0.535
 0.146 -0.0938  0.846
-0.177 -0.0912 -0.127
-0.323 0.0588  0.566
0.0101 -0.250  0.800
 0.249 -0.0892  0.291
 0.146 -0.0327  0.784
 0.112 -0.0298 0.000958
-0.0803 -0.0329  0.226
-0.0452 -0.145  0.799
0.00347 -0.00556 -0.582
 0.212 -0.0975  0.831
0.0463  0.222 -0.478
 0.155 -0.0484 -0.774
-0.0327  0.187  0.148
 0.317 -0.0234 -0.538
0.0368 -0.161 -0.634
 0.246 0.0350  0.100
-0.217  0.106 -0.0986
 0.411 -0.164 -0.578
-0.268 -0.268 -0.611
 0.193 -0.0974 0.00580
-0.101 -0.0951 -0.231
 0.184 -0.0973  0.537
 0.193 -0.0939  0.385
 0.265  0.321 -0.469
 0.373 -0.0952 -0.507
-0.301 -0.00285 -0.336
0.0510 -0.0338 -0.250
-0.272 -0.0906 -0.497
-0.185  0.121 -0.661
0.0319 -0.0318 -0.440
-0.0707  0.173  0.822
-0.0534 -0.0331 0.0532
-0.177 -0.0321 -0.269
 0.184 -0.0329 -0.431
-0.262 -0.0906  0.110
-0.0455 -0.265  0.706
 0.193 -0.0325  0.613
-0.302 -0.174 -0.642
 0.443 -0.0399 -0.727
 0.132  0.260  0.538
 0.255 -0.0123  0.385
-0.243 -0.0941 -0.706
-0.326 0.00661  0.840
-0.0716  0.170 0.0627
-0.262 0.0891 -0.183
0.0809  0.240  0.717
-0.326 -0.0314  0.290
 0.192  0.289 -0.269
0.0889 -0.0341 -0.355
 0.279 -0.0355 -0.355
 0.170  0.278  0.205
-0.0534 -0.0955 -0.478
0.0604 -0.0930  0.253
-0.148 -0.0304 -0.00369
 0.231 -0.0977 -0.725
-0.262 -0.0296  0.376
-0.158 -0.0304 -0.212
 0.127 -0.0935 -0.412
-0.326 0.00661  0.338
-0.120 -0.0144  0.699
-0.325 -0.0408 -0.260
-0.272 -0.0314  0.774
-0.224 -0.0315 -0.534
 0.136 -0.0344 -0.488
0.00222  0.205 -0.184
-0.253 0.0256 -0.660
-0.0513  0.182  0.262
-0.255 -0.0364 -0.715
-0.262 0.0146 -0.527
0.0406  0.222  0.110
-0.101 -0.0918  0.755
 0.238 0.00659  0.699
-0.327 -0.0598 -0.611
-0.0317  0.190 -0.260
-0.0327  0.187 -0.611
-0.223  0.103  0.290
-0.0901  0.165 -0.611
-0.324 -0.0915 -0.380
-0.324 0.0161  0.670
-0.0694 -0.0306 -0.209
-0.156  0.136  0.129
 0.279 -0.0946 -0.307
-0.272 -0.0295 0.0153
 0.260 -0.0978 -0.184
-0.215 -0.0910  0.765
-0.205 -0.0300  0.347
0.0320 -0.0962  0.604
 0.222 -0.0146 -0.611
-0.186 -0.0302  0.281
0.0794 -0.0931  0.717
 0.193 -0.0348  0.328
 0.222 -0.0331 0.00579
-0.101 -0.0951  0.395
0.0319 -0.0928  0.319
-0.139 -0.0949 0.0437
0.0414 -0.0318  0.385
0.0605 -0.0339  0.727
-0.167 -0.0913 -0.459
 0.203 -0.0974  0.215
0.0225 -0.0961 -0.241
-0.0317  0.190 0.00578
-0.300 -0.0937  0.385
-0.208 0.0533  0.839
 0.139  0.263 -0.183
0.0541  0.227  0.433
-0.276 0.0796 -0.488
-0.222  0.106 -0.469
-0.158 -0.0213  0.791
-0.111  0.156 -0.355
 0.125  0.257  0.177
-0.235  0.101 0.0437
-0.281 -0.0295 -0.212
0.0319 -0.0928 -0.118
-0.300 0.0256 0.00578
-0.262 -0.0906  0.509
-0.124  0.150  0.803
 0.184 -0.0973 -0.488
-0.272 -0.0939  0.271
 0.192  0.289 -0.212
0.00205  0.205  0.347
0.00345 -0.0925 -0.298
-0.272 -0.0314  0.594
-0.0629 -0.0954 -0.734
-0.0724 -0.0954 -0.364
-0.0534 0.0124 -0.528
 0.364 -0.164 -0.648
 0.345 -0.0985 -0.753
 0.222 -0.0331 -0.279
-0.0107  0.199 -0.554
 0.227 -0.0123  0.452
-0.0344 -0.0331  0.395
 0.225 -0.0335 -0.539
 0.242 -0.0937  0.632
-0.110 -0.0307 -0.317
 0.241 -0.0943 -0.0512
 0.407 -0.0225 -0.374
 0.117 -0.0968 -0.582
-0.281 0.0460  0.844
 0.131 -0.256 -0.633
-0.157  0.132 -0.307
-0.300 0.0161  0.765
0.0891 -0.0416 -0.744
-0.325 0.0524  0.453
 0.108 -0.0503 -0.660
-0.00916  0.200 -0.660
-0.269 0.0860  0.357
-0.281 -0.0938  0.575
-0.129 -0.0924  0.846
-0.268 -0.146 -0.594
0.0153 -0.126  0.792
-0.243 -0.0317 -0.127
-0.253 -0.0907  0.623
 0.136 -0.0344  0.233
0.0699 -0.0964  0.518
 0.298 -0.0981 -0.620
-0.326 -0.0314 -0.488
-0.314 0.0659 -0.203
0.0414 -0.0318  0.233
-0.0724 -0.0503  0.848
 0.446 -0.0503 -0.611
-0.148 -0.0304  0.186
 0.204  0.292 -0.592
0.0604 -0.0964 -0.668
-0.0344 -0.0331  0.736
-0.205 -0.0944 0.0153
-0.148 -0.0914 -0.545
-0.215 -0.0943 -0.222
-0.158 -0.0948 -0.706
-0.327 -0.0503  0.556
0.00750  0.205  0.708
-0.0722 -0.0311  0.290
-0.0628 -0.0330 -0.431
-0.00601 -0.0958  0.689
0.0819 -0.312 -0.649
-0.0722 -0.0311  0.623
-0.0780  0.167  0.547
 0.446 -0.0218 -0.507
-0.298 0.0162 -0.269
-0.272 -0.0906 -0.127
 0.203 -0.00284  0.846
0.0604 0.00663 -0.659
 0.383 -0.307 -0.647
 0.264 -0.0944  0.129
-0.242 0.0979 -0.279
 0.354 -0.274 -0.591
 0.159  0.272  0.262
-0.204  0.112  0.793
 0.198 -0.0302 -0.0934
-0.109 -0.0378 -0.733
-0.0344 -0.0331 -0.0417
-0.0979  0.161  0.746
 0.234 0.0560  0.799
-0.281 -0.0295 -0.412
-0.129 0.0244 -0.518
 0.237 -0.00282  0.290
-0.276 0.0796  0.774
-0.139 -0.0300  0.480
 0.247 -0.0940  0.480
-0.158 0.0350  0.846
-0.314 -0.174 -0.588
 0.274 -0.0313 -0.0135
-0.0415 -0.330  0.765
-0.308 0.0688 -0.0417
 0.423 -0.278 -0.584
0.0130 -0.259 -0.620
-0.0444 -0.221  0.736
 0.203 -0.0594 -0.660
0.0699 -0.0964 -0.554
 0.136 -0.0936  0.717
-0.326 0.0445 -0.0891
-0.0345 -0.0923 -0.0986
-0.110 -0.0917  0.139
 0.326 -0.0339 -0.326
-0.0820 -0.0920  0.518
0.0984 -0.0966 -0.0606
-0.0155 -0.0958  0.433
-0.205 -0.0300  0.471
 0.341 -0.0218 -0.205
0.0820 -0.0287  0.643
-0.190  0.118  0.709
-0.157  0.132 -0.137
-0.196 -0.0447 -0.770
 0.166  0.275  0.651
-0.326 -0.0314 -0.706
 0.139  0.266 -0.298
-0.118  0.149  0.642
0.0609  0.231 -0.107
 0.364 -0.0361 -0.507
-0.117  0.153  0.271
-0.269 0.0860 -0.564
 0.132  0.260  0.813
-0.324 -0.0915  0.322
-0.170  0.126 -0.203
-0.0871 -0.0321 -0.539
-0.196  0.117  0.604
-0.243 -0.0294  0.708
-0.0118  0.199  0.623
-0.0578  0.179 -0.146
-0.301 0.00663  0.385
 0.221 0.0256  0.613
-0.224 0.00683 -0.487
 0.204  0.292 -0.0960
-0.101 -0.0307  0.575
0.0410  0.222 -0.554
-0.327 -0.0503  0.186
 0.326 -0.0950 -0.545
-0.325 0.0524  0.130
 0.125  0.257  0.366
 0.344 -0.0399 -0.696
-0.159  0.132  0.882
-0.0642  0.176  0.357
 0.126  0.259 -0.601
 0.120  0.257  0.632
 0.421 -0.0956 -0.336
 0.266 0.0554 -0.638
-0.139 -0.0251 -0.488
-0.217  0.106 -0.222
-0.130  0.147 -0.0417
 0.364 0.0351 -0.663
-0.190  0.118  0.528
-0.327 -0.0598  0.120
-0.205 -0.0911 -0.611
-0.290 -0.0237  0.474
-0.224 -0.0294  0.651
-0.167 -0.0947  0.234
 0.317 -0.0949 -0.269
 0.269 -0.0354 -0.497
-0.0155 -0.0924  0.101
 0.136 -0.0969 -0.241
-0.0914 -0.0952 -0.156
0.0225 -0.0961  0.148
-0.224 -0.0219  0.797
 0.155 -0.0971 0.0437
 0.345 -0.0359 -0.459
 0.336 -0.0141 -0.260
0.0984 -0.0966  0.442
0.0605 -0.0339  0.784
-0.324 0.0445 -0.431
 0.222 -0.0976 -0.535
 0.317 -0.0982 -0.412
-0.177 -0.0946 -0.355
 0.136 -0.0344 -0.326
-0.205 -0.0300 -0.184
 0.113  0.254  0.869
 0.383 -0.0954 -0.298
0.0204  0.211 -0.0701
-0.156  0.135  0.461
 0.409 0.0161 -0.582
-0.101 -0.00288  0.797
0.0930  0.243 -0.450
-0.291 -0.0937 -0.545
0.0144 -0.193  0.727
-0.273 -0.126 -0.646
0.0414 -0.0479 -0.773
0.0142 -0.287  0.727
 0.260 0.0568 0.00575
 0.193 -0.0974  0.736
 0.181 0.00989 -0.488
 0.224 0.0517  0.528
 0.203 -0.0450 -0.751
-0.0461 -0.193  0.784
 0.165 0.0449  0.799
-0.281 -0.305 -0.646
-0.291 -0.0312 -0.0322
 0.171  0.279  0.714
-0.272 -0.0502  0.846
0.0130 0.00664  0.795
 0.447 -0.0503 -0.677
 0.285 -0.0397 -0.736
-0.0187 0.0203 -0.493
 0.279 -0.0150 -0.620
 0.120  0.256  0.490
-0.143 0.0570 -0.638
-0.298 0.0162 -0.118
-0.298 -0.00273 -0.450
-0.117  0.153 0.0627
-0.316 -0.259 -0.593
-0.00462  0.202  0.784
-0.291 0.0194 -0.631
-0.143  0.141 -0.241
-0.0724 -0.0906 -0.649
 0.408 -0.0344 -0.534
-0.0820 -0.0920 -0.554
 0.292 -0.0433 -0.125
-0.327 -0.0866 -0.488
-0.177 -0.0912  0.594
 0.418 -0.326 -0.611
0.0140  0.208  0.414
 0.373 -0.0955 -0.620
-0.326 -0.0314  0.679
-0.326 0.0161  0.224
0.0130 -0.0335 -0.108
-0.0440 -0.0923 -0.592
-0.300 -0.0937 0.0248
-0.00599 -0.0315 0.0248
 0.421 0.0256 -0.289
-0.190  0.121 -0.0322
-0.0384  0.188  0.566
-0.0185  0.193 -0.450
-0.186 -0.0946 -0.174
-0.0724 -0.0920  0.328
-0.243 -0.0908  0.385
-0.325 -0.0408  0.404
 0.236 -0.0313  0.774
0.0873  0.243 0.0153
 0.165 0.0161 -0.663
-0.0724 -0.0123 -0.659
0.0130 -0.0960 -0.0132
-0.167 -0.0947 -0.0606
0.0592  0.228 -0.288
 0.445 0.0256 -0.497
0.0320 -0.0336 -0.203
0.0889 -0.0321 -0.146
-0.215 -0.0910 -0.0322
 0.125  0.257 -0.0512
-0.325 -0.0502  0.755
 0.155 -0.0971 -0.0986
 0.184 -0.0973  0.271
-0.120 -0.0120 -0.611
-0.326 -0.0409  0.509
-0.234 -0.0298  0.253
-0.148 -0.0949  0.499
0.0414 -0.0319 -0.525
 0.147  0.269 -0.507
-0.224 -0.0318  0.518
 0.317 0.00665 -0.658
 0.212 -0.0331  0.395
-0.183  0.124 -0.554
-0.00601 0.0445  0.848
-0.323 0.0588  0.320
-0.176  0.127 -0.431
-0.0445  0.184  0.452
0.00205  0.205  0.518
-0.326 -0.00288 0.0343
-0.177 -0.0117 -0.611
 0.115 -0.0326 0.0505
-0.272 -0.0906  0.167
 0.242 0.00663  0.139
-0.324 -0.00281 -0.174
 0.394 -0.0495 -0.277
0.0414 0.0565  0.798
-0.0247 -0.0328 -0.669
 0.155 -0.0937  0.632
-0.110 -0.0307  0.319
 0.193 -0.0974 -0.601
-0.167 -0.0947  0.414
-0.167 -0.0322  0.234
 0.255 0.00660  0.338
-0.174 -0.0285 -0.540
-0.0846  0.164 -0.0512
-0.205 -0.0319  0.395
0.0130 -0.0316  0.717
0.0801  0.237  0.670
 0.222 -0.0941 -0.383
-0.224 -0.0943  0.253
0.0889 -0.0932  0.215
 0.117 -0.0934 -0.469
0.0414 -0.0318  0.281
-0.101 -0.0951 -0.279
 0.317 -0.0982 -0.364
0.0619  0.231 -0.364
 0.146 -0.0936  0.328
-0.255 0.0919 -0.392
-0.262 -0.0296  0.177
-0.110 -0.0917 -0.450
-0.148 -0.0304 -0.165
-0.167 -0.0913  0.338
-0.186 -0.0946  0.689
 0.117 -0.0343  0.110
-0.205 -0.0503  0.848
-0.120 -0.0917 -0.374
 0.239 -0.00283  0.243
-0.262 -0.0906  0.793
0.00348 -0.0960  0.499
-0.0250 -0.0957 -0.706
0.0319 -0.0318 0.0627
 0.108 -0.0323  0.537
-0.00604 0.0583 -0.656
-0.0392  0.184  0.309
-0.262 -0.0315 0.0722
-0.0534 -0.0955  0.205
0.00345 -0.0925 -0.573
0.0510 -0.0338 -0.383
0.0604 -0.0964 -0.725
 0.146 -0.0326 -0.0891
-0.0771  0.171  0.148
 0.108 -0.0934 -0.288
-0.253 -0.0940 -0.753
-0.196 -0.0911 -0.497
0.0889 -0.0341  0.196
-0.272 -0.0906 -0.450
-0.0155 -0.0314  0.215
 0.136 -0.0139 -0.582
-0.0344 -0.0331  0.651
-0.177 -0.0302 0.0343
-0.324 -0.0409 -0.364
0.0322 -0.0961  0.717
0.0445 -0.0133 -0.617
 0.146 0.0573 -0.642
 0.399 -0.0951 -0.771
0.0592  0.228  0.793
-0.0846  0.164 -0.231
 0.364 -0.164 -0.578
 0.250 -0.0406 -0.659
-0.295 0.0745 -0.288
-0.139 -0.0304  0.110
-0.281 -0.0938  0.708
-0.297 0.0446  0.414
 0.140  0.265  0.442
-0.204 -0.00265 -0.565
 0.241 -0.0352 -0.184
-0.101 0.0445  0.848
-0.156  0.136 -0.00369
 0.174  0.280 8.40e-05
 0.271 -0.0502 0.0434
 0.373 -0.0952 -0.431
0.0889 -0.0321 -0.488
 0.136 -0.0342 -0.534
 0.269 -0.0979 -0.137
-0.0440 0.0256  0.797
 0.411 0.0548 -0.611
 0.236 0.00659  0.746
-0.291 -0.0440 -0.744
 0.303 0.0446 -0.129
-0.143  0.141  0.604
-0.327 -0.0866  0.784
 0.439 -0.00108 -0.675
0.0463  0.222  0.594
-0.0578  0.179  0.708
 0.262 0.0150 -0.0732
-0.301 -0.0123  0.196
-0.298 -0.00271  0.129
-0.209  0.112  0.860
0.0225 -0.0597  0.846
-0.324 -0.0408 -0.203
-0.0123 -0.0932 -0.773
-0.324 -0.0123 -0.298
0.0223 -0.0318  0.613
0.0877  0.242  0.461
-0.298 0.0446 0.0817
0.0346  0.219  0.319
0.00831  0.208  0.139
-0.00542  0.199 -0.298
 0.245 -0.0692  0.594
-0.291 -0.0937  0.471
-0.0628 -0.0330  0.509
 0.395 -0.00870 -0.617
-0.203  0.115 -0.355
-0.196  0.118 0.0153
-0.282 0.0802  0.585
-0.190  0.121 -0.507
-0.0459 -0.171 -0.632
 0.230 0.0351  0.433
-0.0846  0.164  0.461
 0.447 0.0351 -0.412
0.0509 -0.00514 -0.573
-0.272 -0.0314 -0.355
-0.269 -0.0280 -0.540
 0.234 0.0351  0.840
-0.101 -0.0518 -0.774
-0.314 0.0659 -0.507
 0.114 -0.100 -0.641
-0.0780  0.167  0.651
0.0794 0.0445 -0.637
-0.0780  0.167 -0.383
-0.303 0.0522  0.183
-0.176  0.127  0.328
-0.326 0.0161  0.727
 0.193 -0.0331  0.784
 0.446 -0.00282 -0.374
-0.324 -0.00281 -0.554
 0.174 -0.0385 -0.687
0.00350 -0.136 -0.620
 0.275 -0.0693 -0.0406
 0.147  0.269 -0.649
 0.316 -0.0399 -0.174
 0.444 -0.0988 -0.427
-0.326 -0.0314 -0.649
0.0414 -0.0928  0.803
-0.125  0.147  0.158
-0.0722 -0.0311 -0.269
-0.0433 -0.108  0.775
0.0277  0.217 0.0627
 0.152 -0.0132 -0.00588
-0.300 -0.0896 -0.651
-0.309 -0.0903 -0.184
-0.00600 -0.0220 -0.543
 0.326 -0.0983 -0.212
 0.415 -0.0875 -0.656
 0.132  0.260  0.908
0.0410  0.222 -0.212
-0.118  0.149 -0.127
-0.276 0.0830  0.822
-0.0780  0.167 -0.326
 0.119  0.254 0.0532
 0.269 -0.0197 0.0769
-0.222  0.106  0.433
 0.184 -0.0347 -0.136
-0.0911 -0.0327 0.0831
 0.270 -0.00605 -0.110
 0.249 -0.0503  0.471
-0.138  0.141  0.689
-0.205 0.0256 -0.640
-0.000436 -0.318 -0.658
-0.324 -0.0409  0.846
-0.118  0.149 -0.459
-0.197  0.115  0.253
 0.272  0.322 -0.213
-0.0392  0.184 -0.526
0.0130 -0.202 -0.620
 0.212 -0.0123 -0.663
-0.0820 -0.0920  0.461
 0.155 -0.0937  0.177
 0.222 -0.0976 -0.279
0.0699 -0.0931 0.0438
 0.409 0.00657 -0.431
-0.262 -0.0906 -0.212
-0.0467 -0.259  0.755
 0.222 -0.0976 0.0438
0.0225 -0.0123 -0.663
 0.108 -0.0967  0.812
-0.300 -0.0903 -0.0322
-0.235  0.101 -0.0606
-0.0250 -0.0313  0.461
-0.215 -0.0318 -0.0891
 0.231 -0.0351 -0.231
 0.146 -0.0344  0.366
0.0794 -0.0319  0.129
-0.129 -0.0950 -0.127
 0.203 -0.0940 -0.222
-0.324 -0.0409 -0.412
 0.117 -0.0324  0.480
 0.108 -0.0123  0.848
-0.224 -0.0299  0.566
0.0604 -0.0930  0.414
 0.146 -0.0936 -0.374
 0.279 -0.0979 -0.677
0.0889 -0.0965  0.613
-0.205 -0.0911 -0.412
-0.0915 -0.0919 -0.0512
-0.326 -0.00288  0.632
0.0320 -0.0962 -0.393
 0.108 -0.0967  0.253
 0.166  0.275 -0.611
 0.388 -0.0237 -0.335
-0.0344 -0.0957 0.0532
 0.155 -0.0327  0.177
-0.00601 -0.0959  0.585
 0.127 0.00664  0.795
-0.215 -0.0318 -0.288
 0.364 -0.0218 -0.658
-0.139 -0.0304 -0.355
0.0604 -0.0964 -0.0796
 0.155 -0.0345 -0.193
-0.120 -0.0408  0.846
 0.326 0.0157 -0.524
-0.234 -0.0317 -0.0322
-0.167 -0.0692  0.846
 0.117 -0.0934 0.0722
 0.184 -0.0502  0.846
-0.255 0.0919  0.462
0.0699 -0.0964  0.148
0.00354 -0.0334  0.148
 0.446 0.00668 -0.459
0.0509 -0.0963 -0.478
0.0130 -0.0316 -0.298
0.0224 -0.0927 -0.336
-0.0250 -0.0313 -0.355
-0.253 -0.0316 -0.174
-0.0724 -0.0954  0.660
-0.224 -0.0299  0.158
-0.139 -0.0304 -0.402
 0.317 -0.0357 -0.374
0.0984 -0.0966 -0.193
-0.00601 -0.0959  0.347
 0.411 0.0161 -0.345
 0.402 -0.145 -0.648
 0.184 -0.0347 -0.317
-0.318 -0.0864 -0.579
-0.0914 -0.0952 -0.687
 0.270 -0.0123 0.0248
-0.234 0.0594 -0.642
-0.269 -0.310 -0.601
-0.243 -0.0938  0.840
0.0216  0.213 -0.146
-0.230  0.100  0.623
 0.407 0.0158 -0.478
0.0225 0.0256 -0.638
-0.0477 -0.0402 -0.738
-0.0440 0.0444 -0.640
-0.281 -0.0938  0.660
 0.261 0.0256  0.271
-0.00599 -0.297 -0.620
-0.309 -0.0903  0.205
 0.248 -0.0409  0.528
-0.0347 -0.231  0.797
-0.308 0.0688  0.490
 0.145 -0.0344 -0.0421
-0.324 -0.0313  0.224
 0.280 0.0496 -0.0456
-0.326 -0.0409 -0.0512
 0.120  0.256 -0.421
-0.324 -0.00284 -0.0227
-0.0456  0.181 -0.0891
-0.00542  0.199 -0.355
 0.126  0.259  0.300
 0.218  0.298 -0.553
-0.0118  0.199  0.234
 0.250 -0.0977  0.224
-0.110 -0.0307 -0.203
 0.249 0.0144  0.475
 0.409 0.00632 -0.527
-0.300 0.0161  0.480
 0.266 0.0570 0.0716
 0.120  0.256 -0.535
0.0736  0.234  0.556
0.0204  0.211  0.860
-0.314 -0.212 -0.611
 0.336 -0.0490 -0.773
-0.0464 -0.265 -0.632
 0.423 -0.221 -0.620
-0.105  0.155  0.367
 0.264 0.0514  0.194
 0.238 -0.0409  0.708
-0.278 0.0173 -0.489
-0.298 0.0256  0.566
-0.0440 -0.0312  0.129
 0.154  0.272 -0.336
-0.164 0.0168 -0.489
-0.139 -0.0324 -0.288
 0.445 0.0547 -0.633
-0.236 0.0975 -0.656
 0.355 -0.136 -0.620
-0.00602 -0.0459 -0.770
 0.411 -0.0533 -0.774
 0.272  0.322 -0.555
-0.0771  0.171  0.395
-0.0716  0.170 -0.0132
-0.249 0.0948 -0.145
0.0889 -0.212 -0.620
 0.107  0.251 -0.355
-0.282 0.0802 -0.620
-0.224 -0.0909 -0.279
-0.0250 -0.0924 -0.421
-0.0155 -0.0958 -0.203
-0.216  0.109 -0.317
0.0398  0.219  0.196
0.0605 -0.0339 -0.0796
 0.127 -0.0968 -0.0132
 0.212 -0.0941  0.509
 0.326 -0.0950 -0.592
 0.237 0.0562  0.695
0.0319 -0.0318  0.556
 0.136 0.0161  0.846
0.0414 -0.0318  0.480
-0.0437 -0.164  0.755
-0.110 -0.0951  0.575
-0.196 -0.0911 -0.564
-0.243 -0.0908  0.736
-0.281 -0.0938 -0.725
 0.155 -0.0971 -0.288
-0.310 -0.0937 -0.298
 0.184 -0.0326  0.518
-0.324 0.00665  0.537
0.0604 -0.0315 -0.0227
-0.0819 -0.0951 -0.770
-0.0440 -0.0312 -0.156
 0.323 0.0193 -0.175
-0.291 -0.0312  0.101
-0.0724 -0.0920 -0.203
 0.212 -0.0350  0.290
 0.212 -0.0975  0.566
-0.0819 -0.0953  0.177
 0.184 -0.0973 -0.0701
-0.0155 -0.0314  0.309
 0.160  0.275 -0.127
0.0700 -0.0339  0.414
-0.00597 -0.0333 -0.0701
-0.291 -0.0904 -0.402
 0.225  0.304 -0.431
 0.113  0.254 -0.136
-0.276 0.0830 -0.0227
 0.159  0.272 -0.421
-0.0155 -0.0315  0.689
-0.276 0.0830  0.243
0.0204  0.211 -0.450
-0.0521  0.179 -0.298
-0.0468 -0.307  0.710
-0.144  0.138 0.0912
-0.269 0.0860  0.708
-0.118  0.149 -0.0796
-0.205 -0.0367 -0.706
-0.296 -0.0148  0.309
-0.243 0.0946  0.385
 0.410 0.0511 -0.421
 0.108 -0.0331  0.796
 0.212 0.0446  0.765
 0.444 -0.0786 -0.469
0.0604 -0.00428 -0.488
-0.298 0.0351 -0.231
 0.245  0.309 -0.345
 0.117 0.00554 -0.531
0.0148 -0.174  0.765
-0.317 0.0474 -0.656
 0.223 0.0162  0.575
-0.298 0.0527 -0.459
 0.236 -0.0225  0.205
-0.234 -0.0218 -0.660
-0.243 -0.00306 -0.573
-0.298 0.0256  0.642
 0.117 0.0517  0.804
 0.414 0.0554 -0.345
-0.190  0.118  0.139
-0.190  0.118 -0.601
 0.402 -0.0955 -0.535
0.0509 -0.0929  0.366
-0.110 -0.0304  0.452
 0.231 -0.0942 -0.146
-0.224 -0.0943  0.120
 0.298 -0.0947 -0.450
-0.243 -0.0908 0.0248
 0.203 -0.0940  0.642
-0.129 -0.0950 -0.630
-0.249 0.0948 -0.439
-0.148 -0.0949  0.290
-0.120 -0.0917  0.642
-0.234 -0.0909  0.537
 0.212 -0.0975  0.120
-0.177 -0.0912  0.537
0.0907 -0.0183  0.604
-0.0345 -0.0923  0.271
 0.193 -0.0348 -0.393
-0.327 -0.0598  0.717
0.0984 -0.0342 -0.108
0.0984 -0.0322  0.328
 0.203 -0.0974  0.423
 0.108 -0.0323  0.755
0.0130 -0.0316 -0.374
0.0794 -0.0931  0.480
-0.298 -0.00271  0.262
-0.177 -0.0912 -0.212
-0.186 -0.0302  0.101
 0.146 -0.0936  0.585
-0.186 -0.0320  0.717
 0.410 -0.0343 -0.592
-0.0724 -0.0954 0.0437
 0.127 -0.0968  0.537
-0.0819 -0.0503 -0.660
 0.155 -0.0937  0.461
 0.165 -0.0937 -0.212
-0.327 -0.0503  0.471
-0.272 -0.0314  0.271
 0.222 -0.0350  0.357
 0.445 0.0350 -0.535
 0.356 0.0552 -0.229
-0.125  0.147  0.528
-0.0345 -0.0408  0.846
-0.177 -0.0321  0.319
-0.167 -0.0303  0.632
-0.253 -0.0940 -0.0512
-0.326 -0.0123 -0.136
 0.259 -0.0503  0.290
-0.164  0.129  0.167
 0.288 -0.0336 -0.402
 0.136 -0.0325 -0.440
 0.146 -0.0323  0.281
 0.174 -0.0347 -0.469
0.0463  0.222  0.717
 0.136 -0.0325  0.670
0.0889 -0.0965  0.101
-0.234 -0.0298 -0.364
 0.401 -0.0299 -0.412
 0.108 -0.0693  0.848
-0.325 -0.0408  0.594
-0.0155 -0.0958 -0.488
-0.270 0.0825 0.0438
-0.235  0.101  0.509
-0.120 -0.0951  0.252
-0.0820 -0.0920 -0.507
-0.177 -0.0946  0.452
-0.118  0.149 -0.317
-0.0780  0.167  0.233
 0.265 -0.0408  0.176
-0.0250 -0.0957 -0.0227
0.0939  0.246 -0.193
 0.184 -0.0324 0.0153
0.00354 -0.0334  0.490
0.0699 -0.0931  0.290
0.00354 -0.0334  0.404
-0.0629 0.00663  0.848
-0.215 0.00665  0.846
-0.177 0.00664 -0.663
-0.224 -0.0318 -0.478
-0.234 -0.0909 -0.488
-0.110 -0.0307  0.196
-0.139 -0.0304 -0.0891
 0.288 -0.0980 -0.222
0.0138 -0.268  0.765
-0.0723 -0.0329  0.746
-0.243 -0.0908 -0.402
 0.446 -0.0598 -0.573
-0.158 -0.0304  0.395
-0.234 -0.0317 -0.440
-0.196 -0.0319 -0.507
-0.234 -0.0942 -0.668
-0.326 -0.0409  0.642
 0.336 -0.0950 -0.630
-0.326 0.0351 -0.383
0.0794 0.0580  0.822
-0.00597 -0.0333  0.347
-0.291 -0.0937 -0.763
 0.423 -0.0990 -0.375
-0.243 -0.0317  0.215
-0.298 0.0351  0.243
 0.392 0.0256 -0.638
 0.251 -0.0313  0.423
 0.127 -0.0138 -0.630
-0.0155 -0.0218  0.797
-0.319 0.0626  0.680
0.0319 -0.0318 -0.488
 0.373 -0.0952 -0.336
0.0767 -0.103 -0.622
 0.336 -0.0107 -0.491
 0.254 -0.0881  0.395
0.0592  0.228 -0.0132
-0.272 -0.0906 0.0627
 0.191  0.286 -0.440
 0.410 -0.0415 -0.696
 0.279 0.0123 -0.523
 0.432 -0.0409 -0.295
-0.298 0.0256  0.319
-0.0456  0.181  0.850
-0.229  0.104  0.822
-0.139 -0.0324  0.585
 0.203 -0.0974 -0.668
 0.278 -0.0400 -0.686
-0.290 0.0698  0.385
-0.110 0.0256 -0.659
-0.230  0.100  0.698
0.0801  0.237  0.879
 0.153  0.269 0.0912
 0.279 -0.0294 -0.542
0.0801  0.237  0.120
-0.326 0.0256 -0.611
-0.130  0.147  0.841
-0.125  0.147 -0.497
-0.131  0.144  0.309
0.0628 -0.312 -0.687
 0.167  0.278  0.907
 0.174 -0.00680 -0.582
-0.0723 -0.0329 -0.345
 0.166  0.275  0.831
-0.327 -0.0788  0.840
-0.242 0.0979  0.196
-0.148 0.0593  0.804
-0.169  0.130  0.366
-0.0456  0.181  0.623
0.0672  0.234  0.756
-0.118  0.149 -0.212
0.0334  0.216  0.537
-0.263 0.0853 -0.526
-0.297 -0.0280  0.161
 0.133  0.263  0.765
0.0748  0.237  0.347
0.0877  0.242 -0.488
0.00342 -0.155  0.704
0.00750  0.205 -0.0322
-0.290 -0.0237 -0.285
-0.281 0.00663  0.797
-0.319 0.0626  0.282
 0.402 -0.00285 -0.663
-0.323 -0.0794  0.642
 0.103 -0.0409 -0.699
0.0281  0.216 -0.374
-0.243 0.0946  0.784
 0.166  0.278 -0.0796
-0.262 -0.0110 -0.611
 0.132 -0.164 -0.632
 0.167  0.277  0.528
-0.0534 -0.0922  0.433
-0.327 -0.0598 -0.0986
-0.190  0.121  0.755
-0.204  0.112  0.215
 0.355 -0.0360 -0.355
 0.446 0.00665 -0.592
-0.158 -0.0948 -0.592
 0.365 0.0130 -0.239
0.0812  0.239  0.271
 0.165 -0.0937 0.0817
-0.205 -0.0911  0.338
-0.196 -0.0911  0.205
-0.326 -0.0218 -0.611
-0.314 0.0659  0.604
 0.269 -0.0945 -0.355
 0.326 -0.0950 -0.507
-0.120 -0.0917 -0.412
-0.167 -0.0693 -0.774
 0.165 -0.0346  0.442
 0.125  0.257  0.575
-0.0344 -0.0331 -0.00368
0.0984 -0.0342 -0.393
-0.324 0.0257 -0.516
-0.326 -0.0123  0.755
-0.148 -0.0949  0.139
 0.248 -0.00285  0.537
-0.00599 -0.0315 -0.440
 0.108 -0.0934 -0.374
 0.255 -0.0502  0.385
-0.196 -0.0945 -0.706
-0.129 -0.0916 -0.0512
 0.444 -0.0598 -0.326
-0.0345 -0.0908 -0.649
 0.364 -0.0986 -0.706
 0.127 -0.0344  0.575
 0.184 -0.0938 -0.393
 0.108 -0.0323 -0.241
0.0984 -0.0966 -0.156
 0.155 -0.0345 -0.231
0.0334  0.216  0.499
 0.146 -0.0936  0.290
-0.101 -0.0307 -0.0417
-0.177 -0.0321 -0.374
-0.290 -0.0237  0.350
-0.290 -0.0237 -0.114
 0.203 -0.0328  0.651
-0.253 -0.0140  0.747
 0.203 -0.0178 -0.507
-0.0449  0.185  0.224
 0.391 0.0477 -0.298
-0.314 -0.136 -0.588
-0.324 0.0257 0.0627
 0.243 0.0559  0.619
-0.253 -0.0297  0.471
0.0319 -0.0928 -0.640
-0.297 -0.0280  0.436
 0.269 -0.0880 -0.774
 0.174 -0.0972  0.822
 0.354 -0.240 -0.611
-0.324 0.0351 -0.146
-0.0901  0.165 -0.440
-0.291 -0.0937 -0.364
 0.219 -0.0290  0.547
-0.318 -0.0864  0.559
-0.0263  0.190 -0.165
-0.291 -0.00287  0.848
-0.295 0.0745  0.129
-0.105  0.155  0.206
-0.295 0.0623 0.00581
-0.300 0.0161  0.698
0.0691 -0.175 -0.622
-0.243 0.0445  0.848
-0.255 0.0919  0.320
-0.00601 -0.287  0.799
 0.238  0.307 -0.307
-0.0119  0.196  0.110
-0.236 0.0974  0.158
 0.133  0.262  0.215
-0.111  0.156 -0.564
-0.0780  0.167 -0.174
-0.224 0.0582  0.797
-0.0724 -0.0871  0.848
0.0989 -0.0136 -0.563
-0.235  0.101 -0.564
 0.116 -0.320 -0.658
-0.301 0.0716  0.347
 0.212 0.0256 -0.663
-0.0982  0.158  0.576
-0.290 0.0446  0.791
-0.0392  0.184 0.0532
-0.157  0.132  0.518
-0.124  0.150 -0.601
 0.250 -0.0977 -0.0986
0.0216  0.213 -0.507
 0.262 0.0149 -0.490
0.0269  0.213  0.803
0.0592  0.228 0.0343
 0.213 -0.0304 -0.0599
 0.219 0.0161  0.670
-0.183  0.124 -0.393
-0.281 -0.221 -0.646
 0.326 -0.0732 -0.186
 0.253 0.00670  0.432
-0.0108  0.199 0.0342
-0.0534 -0.0312 -0.525
 0.412 -0.0990 -0.409
-0.327 -0.0598 0.0627
-0.0865 0.0257 -0.513
-0.196  0.118 0.0532
-0.267 -0.164 -0.638
-0.0155 -0.107  0.799
-0.129 -0.0212 -0.529
0.0281  0.216 -0.108
 0.351 -0.0348 -0.295
-0.0250 -0.0128 -0.611
-0.327 -0.0788  0.404
 0.138 -0.126 -0.633
 0.236 -0.0338  0.262
-0.0155 -0.193  0.707
 0.238 -0.0291  0.139
 0.172  0.277 -0.383
 0.236 0.0516  0.272
-0.0819 0.0161 -0.640
 0.230  0.305 -0.148
 0.248 0.00665 0.0626
-0.0534 0.00734 -0.492
-0.0785 -0.0310 0.0279
 0.249 0.0256  0.509
0.0995  0.245  0.831
0.0699 -0.0693 -0.774
-0.110 -0.0307  0.366
-0.0901  0.165  0.860
 0.357 -0.256 -0.645
 0.218  0.301 -0.374
-0.137  0.144 0.0248
0.0410  0.222 -0.174
0.0938  0.246 -0.108
0.0334  0.216  0.262
-0.170  0.126  0.215
 0.288 0.0351 -0.659
0.0801  0.237  0.215
0.0592  0.228 -0.250
-0.0914 -0.00333 -0.564
0.0984 0.00662 -0.640
 0.239  0.309 -0.656
-0.0384  0.188 -0.573
-0.209  0.112 -0.630
 0.222 -0.0693 -0.774
 0.418 -0.316 -0.577
-0.249 0.0917 -0.222
 0.406 -0.0989 -0.719
-0.0784  0.167  0.896
-0.0319  0.190  0.803
 0.368 0.0185 -0.275
 0.317 -0.0297 -0.234
 0.218  0.301 -0.184
 0.198  0.289 -0.526
-0.0578  0.179 -0.488
-0.0119  0.196 -0.231
-0.256 0.0888  0.281
-0.298 0.0257 -0.364
-0.315 0.0522  0.838
-0.0917  0.161  0.794
0.0414 -0.0318  0.689
-0.0463 -0.318 -0.674
-0.155 -0.0323 -0.436
-0.324 -0.0915  0.360
 0.336 -0.0786 -0.661
 0.402 -0.240 -0.647
-0.00623 -0.328  0.755
-0.298 0.0527 -0.326
-0.301 -0.0123 0.00579
-0.296 -0.0148  0.613
0.0320 -0.0933  0.846
-0.324 0.0445 -0.0227
-0.0996 -0.0327 -0.486
 0.354 -0.193 -0.630
-0.0719 -0.0280  0.658
 0.261 -0.0315 -0.147
 0.373 -0.0599 -0.774
0.00184  0.205  0.746
-0.301 0.0716 -0.0891
 0.221 -0.0123  0.613
-0.00601 -0.0992 -0.632
-0.290 -0.0237  0.398
-0.318 -0.0934  0.120
-0.318 -0.0934  0.717
 0.184 -0.0938 -0.137
-0.137 -0.0238  0.727
-0.165 -0.0126 -0.507
0.0129 -0.0926  0.632
 0.288 -0.0123 -0.663
-0.151  0.135  0.252
-0.148 -0.0949  0.366
-0.215 -0.0943  0.717
-0.295 -0.0148 -0.374
 0.146 -0.0123 -0.659
-0.0722 -0.0311 -0.127
 0.165 -0.0971 -0.345
-0.0723 -0.0329 -0.0606
 0.226 0.0517  0.490
 0.364 -0.0986 -0.269
-0.0392  0.184 -0.393
 0.231 -0.0942 -0.431
0.0212  0.214  0.224
0.0794 -0.0965 -0.269
 0.203 -0.0349  0.139
 0.136 -0.0325 -0.402
 0.345 -0.0951 -0.383
-0.0629 -0.0954  0.585
-0.0250 -0.0924  0.186
-0.177 -0.0946 -0.526
-0.167 -0.0913  0.167
-0.120 -0.0917  0.518
-0.224 0.0161  0.797
0.0604 -0.0930  0.632
-0.0629 -0.0954 -0.269
-0.139 -0.0408 -0.660
 0.146 0.00696 -0.493
0.0699 -0.0931 -0.507
0.0699 -0.0320 -0.307
 0.193 -0.0348 0.0912
-0.234 -0.0942 -0.630
-0.139 -0.0915 -0.269
0.0527  0.225  0.290
-0.326 0.0256  0.414
-0.120 0.0256  0.795
-0.295 0.0623 -0.402
0.0605 -0.0339  0.452
-0.243 -0.0941 -0.307
-0.148 -0.0914  0.670
-0.281 -0.0938  0.537
-0.0915 -0.0919  0.708
0.0619  0.231 -0.620
-0.0629 -0.0954  0.129
-0.177 -0.0302 -0.0227
0.0889 -0.0218 -0.659
-0.0345 -0.0313 -0.222
0.0509 -0.0929 -0.146
0.0604 -0.0319  0.357
 0.250 -0.0353 -0.260
 0.184 -0.0347 -0.355
-0.281 -0.0313 -0.660
-0.148 -0.0301  0.547
 0.411 -0.0123 -0.564
-0.110 -0.0951 0.0722
 0.174 -0.0347  0.585
-0.215 -0.0910  0.660
-0.253 -0.0940 -0.554
-0.234 -0.0942  0.480
-0.326 -0.0123  0.366
-0.300 0.0256 -0.582
 0.222 -0.0976  0.243
 0.269 -0.0979 -0.431
-0.158 -0.0304 -0.118
-0.253 -0.0940 -0.250
0.0889 -0.0408  0.846
0.0130 -0.0316 -0.231
 0.136 -0.0325 0.0817
 0.117 -0.0324 -0.165
0.0130 0.0161  0.846
-0.288 0.0773  0.679
0.0130 -0.0960  0.215
-0.110 -0.0917 -0.0227
-0.0439 -0.0331  0.234
 0.127 -0.0968  0.395
 0.117 -0.0324  0.414
0.0699 -0.0964  0.679
0.0509 -0.0929  0.746
0.0699 -0.0320 -0.412
-0.186 -0.0946 0.0438
-0.234 -0.0298  0.101
-0.327 -0.0693 0.0248
0.00350 -0.0316  0.575
0.0415 -0.278 -0.620
0.0889 -0.0341  0.566
-0.0534 -0.0331  0.433
 0.446 -0.0693 -0.649
-0.110 -0.0951  0.793
-0.0723 -0.0329  0.357
 0.260 -0.0353 -0.326
-0.186 -0.0302 -0.231
-0.327 -0.0598  0.309
 0.411 -0.00285 -0.317
 0.393 -0.202 -0.648
-0.272 -0.0906  0.404
-0.326 -0.0409 -0.564
-0.186 -0.0946  0.746
 0.203 -0.0349  0.234
 0.155 -0.0971 -0.469
 0.231 -0.0977 -0.203
-0.224 -0.0943 -0.146
-0.253 -0.0316  0.632
-0.0629 -0.0954  0.290
 0.174 -0.0328  0.205
-0.253 -0.0907 -0.0986
-0.101 -0.0951  0.309
-0.148 -0.0949 -0.658
 0.155 -0.0327  0.708
 0.155 -0.0971 -0.677
-0.234 -0.0313  0.846
-0.326 -0.0314  0.328
0.0889 -0.0965 -0.744
-0.301 -0.0123 -0.0701
-0.196 -0.0298 -0.421
 0.298 -0.00907 -0.591
0.0509 -0.0318  0.101
-0.167 -0.0947  0.822
-0.139 -0.0949 -0.231
-0.00601 0.0172 -0.525
0.00364 -0.324  0.802
-0.262 -0.0296 -0.241
 0.373 -0.0471 -0.250
-0.0215 -0.0412 -0.703
0.0204  0.211  0.613
0.0942  0.245 -0.402
 0.424 -0.136 -0.592
 0.216 0.0257  0.727
 0.243 -0.0597  0.632
-0.242 0.0979 0.0817
 0.436 -0.0990 -0.747
-0.150  0.139  0.784
0.0995  0.245 -0.0701
 0.278 0.0192 -0.131
-0.298 -0.00273 -0.241
-0.318 -0.0934 -0.00369
 0.193 -0.0426 -0.715
-0.298 0.0162 -0.165
-0.291 -0.0937 -0.231
-0.324 -0.0915  0.474
-0.323 -0.0794 -0.260
 0.264 -0.0598  0.148
-0.120 -0.0306  0.414
-0.00805 -0.319 -0.713
0.0957 -0.245 -0.622
-0.133 0.0574  0.846
-0.101 -0.0692  0.846
0.00348 -0.0960 -0.744
 0.273 -0.0278 -0.182
 0.146 -0.0344 0.0251
-0.00595 -0.0152  0.651
-0.0250 0.0588  0.822
-0.170  0.126  0.585
-0.177  0.123  0.490
 0.392 -0.0988 -0.687
-0.0263  0.190  0.186
-0.204  0.112  0.642
-0.123 0.0119 -0.487
 0.353 -0.00842 -0.522
 0.271 0.0256 0.00590
 0.119  0.254 -0.488
0.0619  0.231 -0.450
-0.326 0.0351 0.0248
-0.326 0.0256  0.784
 0.212 -0.0350  0.433
-0.0724 -0.0920  0.774
-0.0415 -0.231  0.705
 0.313 -0.00283 -0.197
 0.392 -0.0189 -0.507
 0.252 0.0559  0.420
-0.0771  0.171  0.101
 0.307 -0.0630 -0.148
-0.156  0.136 -0.639
-0.155 -0.0323  0.294
-0.215 0.0269 -0.513
-0.298 0.0257 -0.307
0.0983 -0.0524 -0.774
 0.159  0.272 -0.269
-0.156  0.136 -0.174
 0.125  0.257 -0.269
-0.262 0.0891  0.120
 0.162 0.0515  0.839
-0.300 -0.278 -0.646
 0.423 -0.259 -0.611
-0.124  0.150  0.717
 0.278 -0.00683 -0.0551
0.0913 -0.0280 0.0260
-0.0869 -0.0325  0.794
-0.203  0.115 -0.127
 0.132  0.260  0.139
-0.125  0.147  0.442
-0.300 -0.231 -0.588
0.0791  0.237 -0.661
 0.345 0.0256 -0.638
-0.263 0.0853 -0.307
0.0137 -0.321  0.706
-0.142 -0.0377 -0.699
 0.231 -0.00491 -0.554
 0.447 0.0512 -0.440
-0.206 -0.0397 -0.739
 0.258 0.0511  0.126
 0.270 -0.0786 0.0248
-0.295 0.0745  0.736
-0.0996 -0.0327  0.681
0.0509 0.0256  0.795
-0.156  0.136 -0.516
-0.0996 -0.0327  0.491
 0.239  0.310 -0.402
-0.0468 -0.288  0.736
 0.231 0.00667  0.376
0.0130 0.0237 -0.499
 0.370 0.0549 -0.638
 0.108 0.0541 -0.649
 0.222 -0.0693  0.844
-0.300 0.0444 -0.0701
 0.193 0.0230 -0.514
 0.421 0.0515 -0.495
0.0740 -0.0383 -0.715
-0.0263  0.190  0.746
 0.286 -0.0502 -0.0800
-0.300 -0.0937  0.613
 0.154  0.271  0.366
-0.290 0.0321 -0.515
 0.153  0.269  0.622
 0.247 0.0256  0.556
-0.324 -0.0915 -0.532
 0.242 -0.0814  0.667
 0.377 -0.0343 -0.539
0.0343  0.219 -0.0417
-0.291 -0.0105 -0.554
-0.0434 -0.125  0.727
-0.0449  0.185 -0.0227
-0.0723 -0.0329  0.196
-0.148 0.0256 -0.638
-0.281 -0.174 -0.586
 0.266 -0.0692 0.0915
-0.204  0.112  0.328
-0.300 0.0351 0.0437
 0.446 -0.0788 -0.725
 0.233  0.307 -0.497
0.0212  0.214  0.167
-0.301 0.00663 0.0722
0.00750  0.205  0.888
 0.251 -0.0122 -0.00413
-0.283 0.0768  0.537
-0.204  0.112  0.385
-0.0651  0.173 -0.355
-0.0945 -0.00731 -0.521
-0.324 0.0162 -0.326
-0.155 -0.0323 -0.247
 0.391 -0.0988 -0.480
 0.241 -0.0123  0.167
 0.415 -0.0989 -0.295
-0.290 0.0698 -0.535
-0.298 -0.00273 -0.412
 0.258  0.315 -0.431
-0.256 0.0888 -0.592
-0.0917  0.161  0.519
 0.248 0.0445 0.0346
-0.155 -0.00879 -0.636
 0.234 -0.00280  0.840
-0.300 0.0256  0.528
-0.255 0.0919  0.547
-0.325 0.0524  0.737
0.0668 -0.0124 -0.528
0.00184  0.205  0.651
-0.105  0.158  0.613
 0.165 -0.0499 -0.659
 0.231  0.303 -0.231
-0.0118  0.199  0.320
0.0463  0.222  0.148
-0.00599 0.0256 -0.663
-0.0578  0.179 -0.630
 0.211  0.295 -0.298
 0.223 0.0161  0.537
-0.0803 -0.0329 -0.239
-0.229 -0.0394 -0.687
 0.298 -0.0356 -0.516
 0.241 0.0567  0.357
 0.335 -0.0441 -0.734
-0.0917  0.161  0.339
-0.112  0.152 -0.630
-0.263 0.0853  0.642
 0.241 -0.0147 -0.582
-0.110 -0.0307  0.234
-0.143  0.141 -0.564
 0.421 -0.0957 -0.592
-0.0313 -0.0115 -0.515
-0.0263  0.190  0.594
-0.0450 -0.297  0.774
 0.345 -0.0357 -0.534
-0.167 -0.00432 -0.582
-0.00599 -0.297  0.704
 0.172  0.277 -0.469
0.0320 -0.0328  0.796
-0.327 -0.0788 -0.639
 0.445 -0.0951 -0.496
 0.146 0.0203 -0.520
-0.326 0.0445 -0.222
-0.276 0.0830 -0.345
 0.298 -0.00539 -0.554
-0.323 0.0588  0.528
-0.0250 -0.0128 -0.573
 0.440 0.00344 -0.299
 0.106  0.248 -0.0132
 0.320 -0.0143 -0.636
-0.288 0.0774  0.849
 0.233 0.0256  0.328
 0.295 -0.0693 -0.109
-0.0345 -0.307  0.802
-0.262 0.0445 -0.638
0.0225 0.0560  0.822
-0.319 0.0626  0.158
 0.153  0.269  0.167
 0.289 0.0319 -0.157
 0.236 0.0256  0.803
0.0984 -0.312 -0.620
-0.0766 -0.0379 -0.728
 0.298 -0.0481 -0.763
 0.184 -0.0330 -0.525
-0.272 -0.00223 -0.640
 0.329 0.0509 -0.211
-0.323 0.0588 0.0920
 0.170  0.278  0.290
-0.267 -0.231 -0.620
0.0699 0.0248 -0.507
 0.231 -0.00292  0.414
 0.412 0.0351 -0.317
-0.0979  0.161 -0.146
-0.234 -0.0942  0.357
 0.269 -0.0945 -0.630
 0.165 -0.0937 -0.592
-0.120 -0.0951 -0.535
 0.326 -0.0881 -0.774
-0.0911 -0.0327 -0.420
 0.132  0.260  0.405
-0.0820 -0.0920 -0.469
0.0320 -0.0962 0.0437
 0.254 0.0351 -0.0504
0.0509 -0.0963  0.556
 0.231 -0.0942 -0.630
 0.146 -0.0970 -0.507
-0.234 0.00636 -0.534
 0.203 -0.0940  0.347
-0.110 -0.0123 -0.659
0.0130 -0.0960 0.0912
0.0794 -0.0931 -0.402
 0.108 -0.0934 -0.250
-0.137  0.144 -0.288
-0.215 -0.0943 -0.108
 0.261 -0.0123  0.262
0.0509 -0.0963  0.224
-0.324 -0.00281 -0.639
 0.225  0.303 -0.611
 0.136 -0.0936  0.205
0.0319 -0.312 -0.668
 0.224 -0.0225  0.480
-0.0250 -0.0957 -0.127
-0.324 -0.0313 0.0532
 0.117 -0.0968  0.689
-0.0155 -0.0924  0.471
-0.196 -0.0121  0.795
-0.0629 -0.0954  0.357
-0.00610 -0.155  0.799
0.0123 -0.221  0.736
-0.262 -0.0906  0.243
0.0130 -0.0335  0.253
 0.127 -0.0935 -0.611
 0.373 -0.0338 -0.478
-0.0534 -0.0955  0.528
-0.120 -0.0917  0.423
-0.0440 -0.0956 0.0912
-0.177 -0.0912 0.0817
 0.193 -0.0788  0.848
-0.205 -0.0300  0.129
 0.100  0.249  0.139
 0.203 -0.0940 -0.564
-0.243 -0.0908  0.281
 0.298 -0.0981 -0.554
 0.444 -0.0409 -0.412
 0.212 -0.0350 -0.440
0.0225 -0.0961  0.290
 0.108 -0.0934 -0.0891
0.0983 -0.0933  0.404
0.0605 -0.0339  0.319
0.0319 -0.0928 -0.0512
 0.298 -0.0947 -0.193
-0.224 0.00664 -0.663
 0.127 -0.0968  0.623
 0.155 -0.0937  0.528
 0.136 -0.0936  0.803
0.0604 -0.0930  0.594
 0.127 -0.0935 -0.146
-0.301 -0.00285  0.651
 0.215 -0.0123  0.699
-0.325 -0.0502  0.148
