ply
format ascii 1.0
element vertex 2048
property float x
property float y
property float z
end_header
 0.127 -0.0355 -0.105
-0.981 -0.000664 -0.159
0.00239  0.379  0.826
 0.986 -0.00349 -0.164
0.00243 -0.0417 -0.907
-0.0308 -0.0577  0.449
-0.435 -0.0384 0.0122
 0.574 -0.0315 -0.00541
-0.0791 -0.00160 -0.482
-0.338  0.219  0.621
 0.335  0.217  0.612
-0.111 0.0339  0.124
 0.205 0.00644  0.224
-0.186 -0.0643 -0.180
-0.672 -0.0226 -0.200
0.00474  0.228  0.559
 0.391 -0.0389 -0.222
 0.738 -0.0215 -0.194
0.0785 -0.0493 -0.669
 0.337 -0.0479 0.0176
-0.418 -0.0390 -0.222
0.00756 0.0637 -0.278
0.00124 0.0630  0.713
0.00313  0.116  0.309
0.0140 -0.101  0.230
-0.808 -0.0149 -0.0423
 0.152  0.190  0.694
-0.0573 0.0397 -0.0667
-0.163  0.190  0.706
-0.173 -0.0166  0.303
0.0731 0.0244 0.0714
-0.246 -0.0468 0.0187
0.0607 -0.0784 -0.386
 0.273 -0.151 -0.133
-0.625 -0.0266 -0.0155
 0.839 -0.0140 -0.0473
-0.00182 -0.102 -0.217
-0.000275 -0.162 -0.561
 0.196 -0.0465 -0.265
 0.564 -0.0219 -0.186
0.00296  0.223  0.758
-0.00540 -0.102 0.000772
0.0418 0.0417  0.557
0.0771 0.0129 -0.519
0.00304  0.355  0.669
-0.0567 -0.0590 -0.749
0.0787 -0.00608  0.357
-0.240 -0.165 -0.0833
-0.0763 -0.0462 -0.337
-0.526 -0.0443 -0.121
 0.451 -0.0274 -0.0835
 0.196 -0.0498 0.0522
-0.826 -0.0151 -0.186
-0.327 -0.0327 -0.0997
-0.0281 0.0316 -0.616
-0.00133  0.125  0.451
 0.704 -0.0165 -0.0620
0.00179 0.0939  0.168
-0.119  0.180  0.579
0.0181 0.0627 -0.413
-0.0534 -0.0809  0.124
-0.0771 0.00608 -0.202
0.0470 0.0506 -0.155
 0.310 -0.0325 -0.105
 0.863 -0.0125 -0.183
-0.122 -0.0552 -0.00258
-0.0660 0.0222  0.359
0.0542 -0.0318 -0.795
0.0766 0.0181  0.237
 0.117  0.177  0.578
-0.294 -0.0472 -0.233
-0.192 -0.0310  0.185
-0.0606 -0.0733 -0.107
-0.0722 0.0183  0.235
-0.0190  0.159  0.651
-0.0571 -0.0796 -0.630
 0.265  0.208  0.705
 0.132 -0.0458  0.152
-0.0187 -0.0996 -0.467
-0.920 -0.00880 -0.0626
0.0884 -0.0268 -0.234
0.00257 -0.0905  0.346
 0.224  0.199  0.597
-0.0359 0.0546 0.0408
-0.225  0.201  0.602
0.0942 -0.0555 -0.00256
 0.184 0.0428  0.117
-0.716 -0.0122 -0.0998
 0.214 -0.0637 -0.158
-0.267  0.209  0.699
0.0786 0.0146 -0.339
-0.0477 0.0361  0.494
0.0619 0.0394 -0.0326
0.0462 -0.0901 0.0948
 0.229 -0.0573 -0.0456
 0.956 -0.00550 -0.0657
0.0602 -0.0781 -0.564
-0.224 -0.0369 -0.0887
-0.161 -0.0461 -0.278
0.0642 0.0166  0.456
 0.613 -0.0172 -0.0998
-0.570 -0.0297 -0.209
-0.00784 0.0623 -0.515
-0.00198  0.255  0.662
-0.424 -0.0266 -0.110
 0.286 -0.0520 -0.230
-0.527 -0.0365 -0.0190
-0.00281 0.0103 -0.709
-0.0248 0.0294  0.626
 0.479 -0.0376 0.00900
0.0319 -0.0967 -0.110
-0.0676 -0.0589  0.290
 0.157 0.0302  0.302
 0.472 -0.0465 -0.175
-0.0517 0.0441 -0.348
-0.624 -0.0157 -0.116
0.0491 -0.0879 -0.294
-0.163 0.0501  0.219
0.0101  0.131  0.543
-0.158 -0.0446 0.0997
-0.338 -0.0438 0.0190
0.00444  0.315  0.759
0.0173 0.0635  0.386
-0.0731  0.175  0.722
0.0627  0.174  0.704
-0.0105 -0.0316  0.541
0.0237 -0.117 -0.641
0.0725 -0.0637 -0.472
-0.0288 -0.0186 -0.828
 0.651 -0.0316 -0.191
0.0293 -0.0861 -0.731
0.0560 0.0123 -0.605
-0.0576 -0.0753 -0.540
 0.139 -0.0434  0.250
-0.0724 -0.0665 -0.250
-0.264 -0.0995 -0.133
-0.0699 -0.0606  0.204
 0.796 -0.0242 -0.132
-0.0809 -0.0150 0.0624
0.0467 -0.0583  0.418
-0.195 0.0266  0.122
-0.0271 -0.0967 -0.384
 0.532 -0.0425 -0.0940
0.0815 0.00596 -0.429
0.0631 -0.0707  0.289
-0.143 -0.0613 -0.110
-0.856 -0.00291 -0.111
 0.144 0.0522  0.186
 0.386 -0.0270 -0.132
-0.0324 0.0561 -0.159
0.0822 -0.0655 -0.164
0.0762 0.0179  0.151
-0.904 -0.00696 -0.178
0.0133 0.0656  0.242
 0.342  0.222  0.696
-0.0763 -0.0462 -0.418
-0.354 -0.0549 -0.170
0.0561  0.165  0.624
 0.370 -0.0339 -0.0513
0.0585 -0.0807  0.170
-0.748 -0.0146 -0.188
0.00233  0.138  0.734
-0.0641 -0.0130 -0.666
-0.0792 -0.00159 -0.126
-0.0271 -0.0967 -0.303
 0.156 -0.0313 -0.201
-0.100 -0.0651 -0.181
-0.0718 0.00164 -0.563
 0.269 -0.117 -0.0661
-0.0688 0.0248 -0.278
-0.0574 -0.0537  0.379
0.0563 0.0438  0.307
 0.915 0.000925 -0.132
0.0593 0.0419 -0.230
-0.278 -0.0319 -0.159
 0.204 -0.0178  0.154
-0.490 -0.0411 -0.208
-0.0597 0.0369 -0.423
-0.0414  0.169  0.582
0.0182 0.0630 -0.0887
-0.283 -0.0556 -0.0457
 0.265 -0.0471 0.0271
-0.339  0.222  0.693
0.00863 0.0667 0.0966
-0.111  0.176  0.651
 0.125 -0.0573 -0.288
-0.130 -0.0420  0.250
-0.723 -0.0210 -0.0289
 0.644 -0.0276 -0.0199
0.0175 0.0634  0.483
 0.119 -0.0490 0.0642
0.00739 0.0931  0.624
-0.0391 0.0531  0.289
-0.391 -0.0490 -0.0512
-0.0546 0.0422  0.171
-0.0991 0.00423  0.299
 0.682 -0.0329 -0.127
 0.164 -0.0410 -0.0244
-0.186 -0.0405 -0.0298
-0.120 -0.0423  0.160
-0.0738 0.0146 -0.00237
 0.407 -0.0422 0.0203
0.0305 -0.0479  0.485
-0.577 -0.0370 -0.0688
-0.226 -0.0412 -0.240
0.0265 0.0605 -0.344
-0.0300 -0.0892 -0.694
-0.0806 -0.0251 -0.0617
-0.0606 -0.0733 0.0336
 0.774 -0.0215 -0.0676
0.0766 0.0181 -0.103
0.0491 -0.0879 -0.0456
-0.982 -0.00353 -0.0889
 0.332 -0.0562 -0.180
0.0123 -0.0682 -0.844
-0.0637 0.0111  0.434
-0.0359 0.0546 -0.229
-0.0217 0.0573  0.564
 0.158  0.184  0.629
 0.272  0.211  0.640
0.0787 -0.0496  0.224
-0.00282 -0.0993 -0.580
 0.299 -0.0542 -0.0350
-0.791 -0.00524 -0.132
0.0265 0.0605 0.0174
0.00316  0.279  0.599
 0.240 -0.0357 -0.105
-0.143 -0.0321 -0.218
-0.00180 -0.102  0.166
0.0470 0.0506 -0.468
0.0841 -0.00160 -0.167
 0.855 -0.0188 -0.110
-0.661 -0.0302 -0.0672
-0.0137 -0.101 -0.0617
 0.267 -0.0878 -0.133
-0.00314 0.00134 -0.774
0.0583 -0.0809 -0.224
 0.214  0.202  0.662
0.0679 -0.0270 -0.726
-0.279  0.207  0.634
0.0424 0.0501 -0.554
-0.197 0.00626  0.250
 0.148 -0.00534  0.104
-0.176 -0.0480 0.0408
0.0580 -0.0655  0.354
 0.186 -0.0601 -0.0889
 0.267 -0.0332 -0.164
-0.480 -0.0254 -0.0859
-0.265 -0.112 -0.0661
0.0835 -0.0133  0.290
0.0817 0.00597 0.0138
-0.0250 0.0591 -0.0186
0.0241 0.000688  0.598
-0.174  0.196  0.647
-0.0120 -0.0806 -0.784
0.00618  0.368  0.732
-0.0271 -0.0967 -0.163
0.0440 0.0533  0.187
-0.111 0.0345  0.190
0.0509 -0.00697  0.523
 0.139 0.0461  0.245
0.00473  0.125  0.392
 0.737 -0.00896 -0.127
-0.921 0.00112 -0.121
-0.618 -0.0185 -0.175
0.00114  0.179  0.509
 0.229 -0.0604 -0.218
-0.462 -0.0247 -0.160
-0.0473 -0.0237  0.494
-0.00360  0.214  0.616
0.0207 0.0448  0.660
 0.893 -0.00678 -0.0676
-0.00143  0.206  0.694
 0.143 -0.0636 -0.154
0.0462 -0.0901 0.0246
0.0850 -0.0250 -0.0510
 0.179 -0.0445  0.208
 0.515 -0.0291 -0.0352
0.0838 -0.0303  0.106
-0.0806 -0.0252  0.122
-0.0377 -0.0911  0.253
0.00579  0.271  0.721
0.0832 -0.0256 -0.564
-0.0597 0.0369 0.0898
 0.105  0.184  0.662
0.0633 0.0306  0.400
 0.798 -0.0172 -0.189
0.0235 -0.0996 -0.348
-0.678 -0.0120 -0.143
 0.515 -0.0214 -0.148
-0.00917 -0.101 0.0889
0.0231 -0.0978 -0.526
0.0619 0.0394 -0.286
 0.235 -0.165 -0.0939
-0.351 -0.0448 -0.229
 0.173 -0.0233  0.294
-0.150 0.0343  0.271
-0.0586 0.0359 -0.521
-0.467 -0.0427 -0.0342
 0.439 -0.0446 -0.0296
-0.197 0.0245  0.182
-0.336 -0.0367 -0.0440
0.0356 -0.0952 -0.175
-0.575 -0.0399 -0.148
-0.213 -0.0330 -0.143
-0.0630 -0.0701 -0.481
0.0310 0.0119 -0.654
-0.0655 -0.0670 -0.0294
0.0319 -0.0967 -0.445
 0.120 0.0388  0.125
0.0768 -0.0584 -0.612
0.0835 -0.0349 -0.315
-0.240 -0.0615 -0.186
-0.0180 0.0618 -0.461
0.0792 -0.0631 -0.105
 0.196 0.0337  0.177
-0.173  0.189  0.586
-0.0777 -0.0363 -0.602
 0.418 -0.0504 -0.175
-0.408 -0.0274 -0.164
-0.143 -0.0378 -0.0619
-0.214  0.202  0.683
-0.00280 -0.0776  0.407
-0.0140 0.0542 -0.569
-0.378 -0.0532 -0.104
-0.154 0.0536  0.165
-0.149 -0.0321 -0.159
0.0434  0.163  0.570
 0.575 -0.0409 -0.137
-0.0360 0.0549  0.219
-0.111 -0.0407 -0.293
-0.758 -0.0224 -0.0675
-0.0446 -0.00639 -0.736
0.0838 -0.0303  0.176
 0.213 -0.0445 0.00274
 0.522 -0.0351 -0.215
0.0181 0.0627 -0.197
-0.0427 0.00765  0.553
 0.575 -0.0235 -0.0568
-0.0408 0.0494  0.408
 0.402 -0.0511 -0.0888
-0.000754  0.109  0.672
 0.969 -0.00983 -0.116
0.0225 -0.0145 -0.833
-0.105 -0.0224  0.208
-0.268 -0.151 -0.131
 0.123 -0.0587 -0.0586
0.0565 0.0441 -0.384
0.0153 -0.0963  0.297
-0.000522  0.309  0.640
 0.143 -0.0622 -0.240
0.00169  0.330  0.807
 0.194 -0.0270  0.100
 0.634 -0.0360 -0.143
0.0448 -0.0862 -0.682
-0.00565 0.0713  0.332
0.0100 0.0766  0.435
-0.0438 -0.0778  0.331
-0.149 0.00497 0.0969
-0.527 -0.0247 -0.0680
 0.936 -0.00641 -0.177
-0.0288 0.0579 -0.105
 0.486 -0.0476 -0.118
-0.0264  0.163  0.703
0.0823 -0.0422 -0.418
 0.653 -0.0320 -0.0754
 0.265 -0.0686 -0.0779
-0.193 -0.0275  0.129
-0.856 -0.0105 -0.0521
-0.273 -0.0357 -0.0945
-0.0177 0.0131 -0.660
-0.0736  0.177  0.618
-0.511 -0.0230 -0.164
-0.0738 0.0146 -0.380
-0.0474 -0.0855 -0.206
0.00273 -0.149 -0.610
-0.00148  0.320  0.710
-0.116 -0.0490 0.0615
-0.00644 0.0878  0.527
 0.175 -0.0338 -0.132
 0.110  0.181  0.719
 0.211  0.199  0.710
-0.578 -0.0311 -0.00754
 0.105 -0.0663 -0.208
-0.387 -0.0408 0.0179
0.0833 -0.0387 -0.369
 0.353 -0.0551 -0.105
 0.143 -0.0450 0.0189
-0.0790 -0.0340  0.250
0.00169  0.275  0.786
0.0475 0.0514  0.131
0.00249  0.109  0.261
-0.0906 -0.00148  0.165
-0.0717 -0.0571 0.0840
-0.0696 -0.0559 -0.687
0.0238  0.159  0.672
0.00957  0.152  0.613
-0.813 -0.00724 -0.0892
-0.0777 -0.0361 -0.515
-0.182 -0.0366  0.236
 0.454 -0.0408 -0.219
-0.230 -0.0569 -0.0402
-0.0278 -0.0470 -0.866
-0.742 -0.0274 -0.143
-0.0946 -0.0310 -0.229
0.0383 -0.0734 -0.779
-0.0224 -0.0972 -0.514
0.0720 -0.0139  0.413
-0.154 0.0508  0.107
-0.0369 0.0550 -0.294
0.0858 -0.0201 -0.483
 0.740 -0.0199 -0.0324
-0.0617  0.167  0.672
-0.0758 -0.0252  0.327
-0.316 -0.0590 -0.143
 0.375 -0.0308 -0.179
 0.699 -0.0138 -0.169
 0.157 -0.00176  0.336
-0.246 -0.0799 -0.0949
 0.235 -0.113 -0.110
-0.106 -0.0600 -0.0835
-0.0202 -0.118 -0.655
-0.295 -0.0430 -0.00254
-0.0573 0.0397 -0.471
-0.861 -0.00314 -0.159
 0.178 0.0463  0.218
-0.0134 0.0627  0.138
0.0719 -0.0633 0.0516
 0.434 -0.0511 -0.121
0.000505  0.378  0.780
-0.0442 -0.0879  0.176
0.0298 0.0510  0.600
-0.230 -0.125 -0.104
-0.181 -0.0603 -0.240
 0.181  0.188  0.588
0.0615 -0.0753 -0.518
 0.123 -0.0397  0.197
-0.0821 -0.0251 -0.170
-0.322 -0.0337 -0.196
-0.00411  0.115  0.586
-0.0214 0.0605 -0.391
-0.484 -0.0363 0.00713
-0.0662 -0.0668 -0.295
-0.116  0.181  0.710
 0.126 -0.00310  0.302
0.00664 -0.102 -0.261
 0.154 -0.0492  0.111
-0.0697 -0.0143  0.397
 0.815 -0.0205 -0.0914
-0.111 0.0125  0.256
-0.0806 -0.0395 0.00486
-0.0655 -0.0670 -0.375
-0.0468 -0.0193 -0.779
0.0319 -0.0967  0.138
-0.0414 -0.0901 -0.425
0.00756  0.128  0.499
-0.0688 0.0248  0.133
-0.0313 -0.0643 -0.820
 0.343 -0.0367 -0.218
-0.176 -0.0361 -0.0945
 0.185 -0.0639 -0.192
0.0692 -0.0108 -0.640
-0.149 -0.0509  0.192
-0.0947 -0.0628 -0.137
0.0830 0.00125 -0.288
0.0647 -0.0727 -0.332
-0.0381 -0.0919 -0.260
 0.113 0.0310  0.213
0.0943 -0.0336 -0.137
0.0532 0.0463  0.260
 0.310  0.213  0.662
-0.0656 0.0267  0.316
0.0334 0.0573 0.0624
0.0341 -0.0934 -0.602
-0.0443 -0.0875 -0.580
-0.0277 0.0571  0.462
-0.143 -0.0652 -0.186
-0.116 -0.0616 -0.256
 0.105  0.182  0.618
 0.182 -0.0375  0.250
-0.00918 -0.101 -0.122
 0.118 -0.00686  0.257
-0.0738 0.0146 -0.326
0.0533 -0.0859 -0.639
-0.0778 -0.0423  0.165
-0.00550  0.174  0.559
 0.568 -0.0194 -0.101
-0.354 -0.0284 -0.132
-0.0127 -0.0477  0.499
 0.602 -0.0367 -0.175
-0.484 -0.0476 -0.122
0.0841 -0.0641 -0.253
0.0387 0.00389 -0.704
 0.488 -0.0445 -0.0727
-0.565 -0.0199 -0.105
-0.710 -0.0281 -0.175
0.0547 0.0287  0.501
-0.446 -0.0471 -0.192
0.0696 -0.0664  0.122
 0.834 -0.0202 -0.154
0.0228 0.0617  0.289
 0.186 0.0236  0.257
-0.621 -0.0204 -0.0646
-0.311  0.219  0.662
0.0130 0.0477 -0.601
-0.661 -0.0333 -0.111
-0.0810 -0.0201 -0.272
-0.116 -0.0208  0.101
0.0792 0.0145  0.196
 0.690 -0.0240 -0.0236
-0.0287 -0.0913  0.295
0.0413 -0.00433 -0.748
0.0647 0.0320  0.350
-0.0180 0.0618 -0.332
-0.208 -0.0541 0.00271
0.00743  0.104  0.354
 0.332 -0.0342 -0.0674
-0.155 -0.000575  0.336
0.0457 -0.0892  0.257
-0.192 -0.0341 -0.207
 0.261 -0.0552 -0.0188
 0.461 -0.0245 -0.142
0.0419 0.0510  0.433
-0.0505 -0.0830 -0.333
-0.0137 -0.101 0.0408
-0.429 -0.0318 -0.0456
0.0228 0.0618 -0.240
-0.0134 -0.0888 -0.731
0.0308 -0.0155  0.558
-0.0271 0.00359  0.590
-0.0666 0.0279 0.0408
0.0235 -0.0996 0.0624
 0.293  0.210  0.605
-0.197 -0.0588 -0.0682
-0.0505 -0.0830 -0.0636
-0.942 -0.0110 -0.159
 0.397 -0.0471 -0.0240
0.0332 -0.0417 -0.867
 0.197 -0.0347 -0.218
-0.170 -0.0630 -0.143
-0.0666 0.0279 -0.170
0.0663 -0.0639 -0.709
 0.159 0.0529  0.149
0.00240 -0.102 -0.418
-0.244  0.201  0.652
-0.0442 -0.0879 -0.00238
0.00660  0.196  0.656
0.0404 0.0540 -0.508
-0.443 -0.0477 -0.0821
 0.612 -0.0326 -0.0459
0.0615 -0.0231  0.458
-0.664 -0.0260 -0.0250
-0.138  0.187  0.613
-0.0234 -0.0981  0.208
 0.299 -0.0346 -0.196
 0.109 -0.0311 -0.177
0.0282 -0.0981  0.192
-0.283 -0.0498 0.0349
-0.0628 -0.00455 -0.620
0.0595 0.0422 0.0293
0.0787  0.169  0.586
 0.294 -0.0608 -0.143
-0.0399 0.00270 -0.693
0.0277 0.0580  0.521
-0.251 -0.0625 -0.137
-0.0388 0.0435  0.532
-0.386 -0.0312 -0.197
 0.203 0.0114  0.103
-0.141  0.191  0.671
0.00811 0.0756  0.202
-0.769 -0.0246 -0.105
 0.348 -0.0384 -0.0188
-0.203 -0.0612 -0.110
-0.140 -0.0184  0.280
0.00356  0.185  0.726
0.0658 0.0217 -0.568
-0.262 -0.0372 -0.207
-0.159 -0.0505  0.154
 0.304  0.215  0.701
-0.0644 0.0308 -0.110
-0.0738 0.0146 -0.240
-0.372 -0.0479 -0.0172
0.00867 0.0771  0.580
 0.103 -0.00756  0.138
 0.109 0.0108  0.100
0.0731 0.0244 -0.193
0.0450 -0.0468 -0.830
-0.00278 0.0644 -0.0563
-0.445 -0.0503 -0.132
 0.188 -0.0307 -0.173
-0.0414 0.0498  0.348
-0.532 -0.0236 -0.196
 0.303 -0.0485 0.0361
-0.122 -0.0649 -0.218
-0.0308 -0.0789  0.368
-0.100 -0.0580 -0.0456
-0.0576 -0.0334  0.436
0.0622 0.0397 -0.0749
 0.173 -0.0484  0.170
 0.764 -0.0254 -0.105
-0.126 0.0447  0.227
-0.0809 -0.0150 -0.440
 0.272 -0.149 -0.0946
-0.959 0.00225 -0.122
0.00342  0.104  0.710
 0.197  0.191  0.630
0.0845 -0.0250 0.0678
 0.774 -0.00884 -0.159
-0.822 -0.0210 -0.147
 0.213 -0.0615 -0.116
 0.121 -0.0353 -0.256
 0.348 -0.0571 -0.143
0.0820 0.00608 -0.0294
0.0282 -0.0981 -0.386
0.0707 0.0273  0.113
0.0337 -0.0769  0.380
-0.702 -0.0262 -0.0601
0.0295 0.0591  0.339
-0.0187 -0.0996  0.133
0.0801 -0.0166 -0.601
 0.720 -0.0281 -0.0943
 0.103 -0.00517  0.217
0.0582 -0.0809  0.208
-0.786 -0.0145 -0.188
-0.0573 0.0397 -0.0289
0.0849 -0.0250 -0.0887
0.0412 -0.0846  0.322
-0.0209 -0.116 -0.618
0.0583 -0.0809 -0.423
-0.0285 0.0573 0.0948
0.0801 0.0107 -0.229
-0.232 -0.158 -0.124
 0.283 -0.0365 -0.0725
0.0745 0.0209  0.278
 0.893 -0.00252 -0.164
 0.115 0.0350  0.170
0.0628 -0.0756 -0.0132
0.0837 -0.0230 -0.526
0.0760 -0.0410  0.332
 0.652 -0.0144 -0.108
0.00723 0.0115  0.631
-0.0784 0.00199 0.0953
0.00580  0.288  0.678
0.0283 -0.0606  0.450
-0.0810 -0.0201 -0.391
0.0182 0.0630 -0.0186
 0.253 -0.0369 -0.203
-0.354 -0.0528 -0.0721
-0.0783  0.170  0.581
-0.0197 0.0594  0.500
-0.268 -0.136 -0.0937
 0.537 -0.0419 -0.170
0.0777 0.0142 -0.387
-0.261  0.206  0.601
 0.800 -0.0159 -0.0419
 0.251  0.202  0.672
 0.213 -0.0376 -0.0780
-0.0516 0.0441  0.251
 0.237 -0.148 -0.129
 0.229 -0.0514 0.0354
-0.544 -0.0195 -0.147
-0.0480 0.0406 -0.569
-0.0713 -0.0572 -0.569
-0.0490 -0.0570 -0.785
0.0565 0.0441  0.221
0.0620 -0.0513 -0.763
-0.000408 0.0700 0.0571
 0.143 -0.0652 -0.202
-0.176 0.0179  0.291
-0.300 -0.0581 -0.105
 0.479 -0.0314 -0.0385
 0.171 -0.0583 -0.0559
-0.116 -0.0335 -0.137
-0.0606 -0.0733 -0.145
-0.396 -0.0534 -0.142
0.0140 -0.101 -0.482
-0.190 -0.00406  0.102
-0.305  0.213  0.609
-0.00602 0.0635  0.640
-0.603 -0.0367 -0.0945
 0.154 -0.0610 -0.105
 0.731 -0.0278 -0.159
0.0334 0.0573 -0.121
0.0501 0.0482 -0.319
 0.181 -0.0455 0.0189
 0.203 -0.0176  0.197
0.00892 0.0981  0.478
 0.278 -0.0601 -0.111
 0.237 -0.131 -0.0717
 0.205 0.0166  0.144
-0.888 -0.00285 -0.0948
0.0607 -0.0784 -0.132
-0.00369 0.0865  0.290
 0.499 -0.0255 -0.187
-0.00883 0.0481  0.681
0.0202 -0.0377  0.523
-0.0753 0.0108 -0.0779
-0.0216 0.0605  0.187
-0.0254 -0.0952 -0.549
 0.140 0.0215  0.271
-0.00346  0.252  0.626
0.00239 0.0642 -0.159
 0.148 0.0502  0.106
 0.229 -0.0318 -0.164
 0.270 -0.112 -0.105
0.0140 -0.101 -0.0289
-0.0345 -0.0936 -0.0941
-0.500 -0.0286 -0.0460
-0.634 -0.0353 -0.148
 0.130 -0.0418 -0.0152
-0.200 -0.00887  0.219
-0.0187 -0.0996 -0.337
 0.245 -0.0622 -0.175
0.0671 -0.0696 -0.0725
0.00559  0.234  0.715
-0.559 -0.0271 -0.0403
0.0746 -0.0643 -0.288
-0.0778 -0.0423 -0.462
-0.283 -0.0593 -0.180
-0.638 -0.0276 -0.203
0.00252 0.0272 -0.632
-0.160 -0.0557 -0.0134
0.0674 -0.0408  0.391
-0.0784 0.00199 -0.0397
 0.936 -0.00122 -0.0945
-0.00420  0.185  0.597
-0.942 -0.0100 -0.0936
 0.180 -0.0611 -0.234
0.00432  0.136  0.694
-0.0622 0.0254  0.394
-0.405 -0.0359 -0.0158
-0.130 0.0205  0.302
0.0340  0.168  0.727
0.00225 -0.0968 -0.671
-0.226 -0.0501 0.0470
 0.823 -0.00479 -0.121
-0.0993 -0.0530 0.0315
0.0461 0.0498  0.373
 0.153 -0.0498 0.0585
-0.211  0.201  0.634
0.0832 -0.0324  0.262
-0.213 -0.0329 -0.180
0.0503 0.0485 0.0912
 0.182  0.197  0.673
-0.0629 -0.0700  0.242
-0.0806 -0.0252 -0.310
-0.0789 -0.00705  0.273
-0.596 -0.0329 -0.0405
-0.0847 -0.0318 -0.111
 0.426 -0.0480 -0.0646
0.0712 -0.0203 -0.686
 0.548 -0.0187 -0.137
-0.602 -0.0160 -0.143
 0.321 -0.0294 -0.137
0.00255  0.206  0.533
0.0830 -0.0385 0.0251
-0.0739 -0.0152  0.359
 0.341  0.222  0.651
-0.255 -0.0421 -0.0231
-0.132 -0.0636 -0.154
0.0845 -0.00999 -0.202
-0.0276 0.0485  0.597
 0.121 -0.0261 0.0993
-0.0676 -0.0278 -0.706
 0.197 -0.0404 -0.0351
 0.177 -0.0638 -0.158
 0.164 -0.0540 -0.276
 0.682 -0.0227 -0.199
0.0491 -0.0879 -0.477
-0.553 -0.0400 -0.175
0.0798 0.000728  0.321
 0.542 -0.0240 -0.0675
-0.387 -0.0302 -0.0792
0.0692 0.0308 -0.134
 0.235  0.204  0.629
-0.0325 0.0564 -0.429
-0.178 0.0393  0.252
-0.127 -0.0362 -0.0945
-0.0461 -0.0578  0.411
0.00248 -0.0164  0.578
 0.952 0.00110 -0.148
-0.0517 0.0442 -0.391
0.0356 -0.0951 -0.245
0.0285 -0.00530 -0.784
-0.0792 -0.00159 0.0305
-0.0775 -0.00422 -0.526
0.0127 -0.0767 -0.806
 0.137 -0.0256  0.279
-0.139 -0.0491  0.127
 0.188 -0.0385  0.133
 0.888 -0.0154 -0.0994
 0.586 -0.0305 -0.209
-0.202 -0.0482 -0.263
0.0503 0.0485 -0.416
-0.0360 0.0548 -0.499
-0.462 -0.0233 -0.116
0.0817 0.00597 -0.0725
-0.00408 0.0927  0.392
-0.0474 -0.0855 0.0912
-0.0454 0.0485  0.133
-0.0688 0.0248  0.203
0.0839 -0.0350 -0.450
 0.305 -0.0515 -0.00247
0.0628 -0.0756 -0.191
 0.521 -0.0332 -0.00276
0.0434 0.0401 -0.590
-0.264 -0.0601 -0.0741
0.0716 -0.0630  0.257
-0.0421 0.0506 0.00841
-0.143 -0.0461 0.0350
0.0470 0.0461  0.465
 0.283 -0.0600 -0.175
 0.247 -0.0474 -0.242
 0.445 -0.0281 -0.180
-0.0519 0.0444 -0.202
 0.132 -0.0325 -0.154
-0.181 -0.0317 -0.164
 0.596 -0.0162 -0.137
-0.232 -0.131 -0.0715
-0.694 -0.0314 -0.122
-0.0783 -0.0674 -0.218
0.0808 -0.0589 -0.0349
 0.245 -0.0383 -0.0727
 0.386 -0.0535 -0.158
-0.154 -0.0341 -0.127
0.00397  0.277  0.753
-0.0180 0.0618  0.251
 0.353 -0.0287 -0.127
-0.0187 -0.0996 -0.0294
-0.0436 -0.0868 -0.659
0.00941 -0.133 -0.583
0.0318 -0.0968 -0.208
 0.424 -0.0479 -0.207
0.0282 -0.0981 -0.0779
0.0182 0.0630 -0.477
-0.0531 0.0328  0.456
 0.683 -0.0306 -0.0887
 0.548 -0.0288 -0.0244
-0.0325 0.0560 -0.261
0.0667 0.0338 -0.449
 0.256  0.204  0.600
-0.0682 0.0245  0.284
0.0505 -0.0245  0.496
-0.0504 0.00689  0.521
 0.162 -0.0368 -0.249
-0.0242  0.160  0.608
0.0293 0.0356  0.631
-0.113 0.0377  0.156
0.0226 0.0619  0.149
-0.376 -0.0287 -0.164
0.0319 -0.0967 -0.143
-0.763 -0.00899 -0.160
 0.877 -0.00113 -0.127
0.0719 -0.0633 0.0840
-0.208 -0.0614 -0.213
-0.710 -0.0103 -0.143
-0.149 -0.0617 -0.240
0.00242 -0.100  0.267
-0.100 -0.0298 -0.197
 0.515 -0.0207 -0.116
 0.368 -0.0410 0.0121
 0.855 -0.0160 -0.0784
 0.186 0.00891  0.286
 0.830 -0.0145 -0.187
-0.0104 -0.0249 -0.881
-0.0573 0.0397 -0.315
 0.267 -0.0328 -0.132
-0.0850  0.181  0.693
-0.0518 -0.0744 -0.712
-0.106 -0.0179  0.243
-0.505 -0.0442 -0.0943
-0.202 -0.00393  0.149
 0.369 -0.0523 -0.202
-0.00148  0.363  0.699
-0.888 -0.000101 -0.127
 0.370 -0.0525 -0.0779
0.0132 -0.0846 -0.764
-0.109 0.0135 0.0993
-0.0578 0.00911  0.480
0.0181 -0.0928 -0.698
-0.327 -0.0407 -0.0137
-0.203 -0.0629 -0.143
0.0181 0.0627 -0.375
-0.235  0.204  0.707
0.0857 -0.0259 -0.272
-0.483 -0.0457 -0.170
-0.308 -0.0359 -0.0588
-0.606 -0.0292 -0.206
-0.0343 0.0532 -0.531
 0.424 -0.0271 -0.0997
0.0854 -0.0150 -0.348
-0.0125 0.0636  0.408
0.0185 -0.101  0.106
 0.305 -0.0568 -0.0834
-0.159 -0.0304 -0.191
0.00240 0.0871  0.126
 0.315 -0.0547 -0.217
0.0711  0.168  0.651
0.0102 0.0932  0.553
-0.00271  0.109  0.424
-0.678 -0.0308 -0.170
 0.742 -0.0124 -0.0784
 0.656 -0.0153 -0.164
-0.640 -0.0169 -0.0890
 0.213 -0.0334 -0.137
 0.105 -0.0625 -0.132
0.0184 0.0595 -0.537
0.00786  0.241  0.599
 0.134  0.179  0.651
 0.488 -0.0401 -0.212
0.00664  0.142  0.645
 0.704 -0.0107 -0.127
-0.00798 0.0634 -0.218
 0.148 -0.0495  0.213
-0.0754 -0.0516 -0.629
-0.0461  0.164  0.629
-0.00480  0.147  0.575
-0.0545 0.0421 -0.142
0.0422 0.0182  0.580
-0.338 -0.0296 -0.159
 0.251 -0.0619 -0.127
-0.132 -0.0376 -0.267
 0.181  0.195  0.705
-0.0707 0.0215 -0.450
-0.173 -0.00683  0.265
0.0733 -0.0603 -0.542
-0.189 0.0365  0.154
-0.429 -0.0498 -0.164
-0.313 -0.0312 -0.129
-0.263 -0.106 -0.0996
-0.0732 -0.0537  0.136
0.0132 0.0125 -0.683
-0.00587 -0.142 -0.643
-0.413 -0.0504 -0.0943
-0.00435  0.170  0.678
-0.0775 -0.0363 -0.548
-0.125 -0.0429  0.219
 0.121 -0.0648 -0.175
0.0341 -0.0934 -0.569
-0.00386  0.153  0.527
-0.0413 -0.0899 -0.490
-0.00279 -0.00675 -0.817
0.0849 -0.0250 -0.00237
-0.256 -0.0470 -0.236
 0.181 -0.0618 -0.121
0.0607 -0.0787 -0.596
-0.408 -0.0501 -0.186
-0.348 -0.0554 -0.110
-0.0278 -0.0809 -0.757
 0.126 -0.0298 -0.207
-0.0738 0.0146 0.0678
-0.0520 0.0228 -0.593
 0.326 -0.0577 -0.121
-0.00245  0.228  0.645
-0.0466 -0.0375  0.465
-0.365 -0.0523 -0.202
0.00383 0.0824  0.688
-0.0679 -0.0639 -0.441
-0.0809 -0.0150 -0.0132
 0.100 -0.00464  0.174
 0.402 -0.0274 -0.159
 0.623 -0.0186 -0.190
-0.386 -0.0264 -0.132
 0.110 -0.0373 -0.0780
-0.251 -0.0342 -0.127
 0.435 -0.0415 0.00890
0.0834  0.179  0.683
0.0636 0.0361 -0.501
-0.189  0.190  0.616
-0.246 -0.0391 -0.0620
 0.979 -0.00114 -0.0837
 0.510 -0.0241 -0.0837
-0.0187 -0.0996 -0.191
 0.432 -0.0255 -0.145
-0.0387 0.0331  0.569
-0.178  0.196  0.681
-0.00102  0.352  0.764
 0.353 -0.0291 -0.159
0.0356 -0.0951 -0.321
-0.159 -0.0333  0.262
-0.192  0.196  0.709
 0.163 -0.0364 -0.0907
-0.589 -0.0206 -0.176
-0.694 -0.0294 -0.0888
-0.386 -0.0407 -0.225
-0.188 0.0355  0.213
-0.0586 -0.0759 -0.405
 0.639 -0.0211 -0.0511
0.00241 0.0643 -0.310
 0.170 0.0172  0.113
-0.0725 -0.0589 -0.657
0.0671 -0.0696 0.0193
-0.0655 -0.0670  0.176
-0.802 -0.00682 -0.164
 0.672 -0.0188 -0.0569
-0.135 0.0512  0.190
 0.229 -0.0599 -0.0890
0.0846 -0.00534 0.0457
-0.0305 -0.0309  0.519
-0.00290 -0.0620 -0.871
0.0838 -0.0303  0.138
-0.0143 0.0325  0.654
-0.0809 -0.0150  0.192
-0.0359 0.0546 -0.0456
 0.109 -0.0640 -0.237
0.0300 0.0287 -0.622
-0.00437  0.217  0.587
-0.00182 -0.102 -0.363
-0.00275  0.120  0.618
-0.154 -0.0596 -0.0781
 0.542 -0.0435 -0.121
0.0519 0.0263  0.530
-0.0799 -0.0305 0.0354
-0.0286 0.0574  0.316
-0.165 -0.0370 -0.247
 0.252 -0.0891 -0.0943
-0.0518 -0.0792  0.276
 0.116 -0.0527 0.0354
0.0282 -0.0981 0.00302
 0.110 0.0198  0.240
0.0522 -0.0855 -0.359
0.0554 -0.0830 -0.0995
 0.169 0.0473  0.246
-0.467 -0.0271 -0.197
-0.288  0.210  0.677
-0.127 -0.0573 -0.0348
-0.179 0.0376 0.0999
 0.461 -0.0341 -0.0136
 0.148  0.189  0.602
 0.115  0.178  0.688
 0.380 -0.0541 -0.116
0.0816 -0.0365 -0.634
 0.186 -0.0551 -0.00799
 0.488 -0.0237 -0.159
-0.446 -0.0425 -0.0147
0.0709 0.0275 -0.163
-0.731 -0.0235 -0.0566
-0.818 -0.00470 -0.121
 0.461 -0.0455 -0.0619
 0.332 -0.0527 -0.0451
-0.160 -0.0635 -0.213
-0.202 -0.00395  0.181
 0.236 -0.0424 -0.0179
-0.00278 0.0644 -0.116
-0.00642 0.0767  0.462
 0.310 -0.0318 -0.170
-0.00805 0.0634 0.0300
 0.162 -0.0209  0.266
 0.769 -0.00729 -0.127
-0.181 -0.0441 0.00277
-0.694 -0.0210 -0.0295
0.0851 -0.0150 -0.116
-0.00254  0.282  0.629
-0.0369 0.0126 -0.636
0.0798 0.0106 -0.261
-0.00539 -0.0580  0.473
-0.884 -0.00855 -0.0579
-0.144 0.0528  0.138
 0.143 -0.0378 -0.0619
0.0534 0.0465 -0.101
-0.0442 -0.0879 -0.0348
0.0117 0.0824  0.505
0.00634  0.325  0.683
0.0667 0.0190  0.426
-0.0452 0.0482 0.0678
 0.124 -0.0384  0.226
0.00230  0.152  0.484
 0.273 -0.147 -0.0662
-0.321 -0.0540 -0.216
-0.0771 0.00608 -0.154
 0.769 -0.0159 -0.191
0.0639 0.0363  0.169
0.0343  0.161  0.597
0.0576 -0.0220 -0.763
-0.0290 -0.00305 -0.763
0.0164 0.0619  0.547
0.00277 -0.102 -0.611
0.0737 0.00593  0.391
0.0301  0.170  0.699
 0.283  0.209  0.683
-0.866 -0.0184 -0.132
 0.105 0.00656  0.279
0.0443 0.0533 -0.202
-0.102  0.174  0.617
0.00635  0.239  0.683
-0.651 -0.0166 -0.181
0.0581 -0.00266 -0.668
-0.0792 -0.00159 -0.412
-0.0687 -0.0658 -0.605
-0.0781 -0.0256  0.294
-0.0576  0.176  0.699
 0.678 -0.0318 -0.159
-0.0784  0.170  0.645
0.0645 0.0369 -0.349
-0.0792 -0.00159 -0.293
-0.0893 -0.000684  0.133
0.0762 -0.0568  0.170
-0.00795 -0.0995 -0.638
-0.0778 -0.0423 -0.370
0.0154 0.0612  0.622
0.0157 -0.0199 -0.864
 0.105 -0.0606 -0.0943
-0.187 -0.0366  0.158
 0.161  0.184  0.659
-0.00148  0.266  0.694
 0.617 -0.0269 -0.0148
-0.651 -0.0129 -0.127
-0.0781 -0.0609 -0.0781
0.0585 0.0411 -0.528
-0.105 -0.0354 -0.261
-0.108 -0.0294  0.181
-0.0809 -0.0150  0.230
-0.00730 0.000767  0.610
 0.205 -0.00894  0.122
-0.0892 -0.0613 -0.272
-0.257 -0.0349 -0.180
 0.547 -0.0385 -0.201
 0.118 -0.0346  0.131
0.000815  0.309  0.786
0.00662 -0.102 -0.455
 0.986 0.00236 -0.134
-0.00245  0.174  0.635
0.0368 0.0554  0.406
0.00753  0.201  0.565
-0.0414 -0.0901 -0.134
-0.106 -0.0257  0.133
-0.294 -0.0361 -0.208
0.0427 -0.0912 -0.504
 0.278 -0.0588 -0.202
0.0781 -0.0536 -0.585
-0.197 -0.0372 -0.234
0.0510  0.164  0.672
 0.627 -0.0142 -0.123
-0.596 -0.0390 -0.121
-0.447 -0.0411 -0.218
-0.548 -0.0412 -0.0996
-0.170 -0.0381 -0.0673
-0.157 -0.0476  0.236
 0.143 0.0228  0.113
-0.128 0.0378  0.255
-0.953 -0.00674 -0.0683
-0.0893 -0.0614 -0.110
0.00456 0.0770  0.661
 0.217 -0.0583 -0.243
-0.419 -0.0517 -0.121
-0.116 -0.0379 -0.0673
0.0228 0.0618 -0.440
-0.359 -0.0305 -0.105
0.0128 0.0561 -0.564
-0.133  0.188  0.640
 0.204 0.0165  0.197
-0.149 -0.0400 -0.0351
-0.219 -0.0341 -0.116
0.000297  0.158  0.715
 0.321 -0.0390 -0.0243
-0.327 -0.0542 -0.0674
 0.942 0.00174 -0.121
-0.500 -0.0228 -0.111
 0.143 -0.0333 -0.229
 0.456 -0.0489 -0.153
-0.742 -0.0267 -0.105
-0.0251 0.0594 -0.132
-0.0287 0.0576 -0.186
0.0102 -0.102 -0.288
0.0590 -0.0666 -0.736
0.0102 -0.102 -0.158
-0.516 -0.0444 -0.148
-0.00430 0.0669  0.602
-0.0997 0.0126  0.231
-0.0722 0.0183 -0.353
0.0319 -0.0967 -0.413
0.0554 -0.0830  0.143
-0.230 -0.0608 -0.105
0.0335 0.0575 -0.272
 0.472 -0.0249 -0.100
0.00152  0.245  0.774
 0.245 -0.0456 0.00802
0.0691 0.0307 0.00663
-0.116  0.177  0.677
 0.110 -0.0574 -0.0348
-0.0821 -0.0261 -0.137
-0.856 -0.00599 -0.0837
-0.834 -0.0196 -0.105
-0.316 -0.0576 -0.170
 0.791 -0.00841 -0.0946
-0.0395 -0.0428 -0.834
0.0182 0.00685 -0.726
-0.181 -0.0308 0.0993
0.0379 -0.0166 -0.810
0.0416 -0.0633 -0.808
0.0722 -0.0635 -0.445
-0.181 -0.0341 -0.127
0.0830 0.00125 -0.315
-0.0606 -0.0733 0.0606
0.00838 0.0765  0.268
 0.322 -0.0585 -0.151
-0.494 -0.0218 -0.143
0.00650  0.109  0.645
-0.0655 -0.0670 -0.00237
-0.0892 0.0106  0.192
0.00419  0.244  0.742
-0.235 -0.0603 -0.213
-0.240 -0.125 -0.129
 0.137 -0.0600 -0.0835
0.0107  0.109  0.527
-0.0665 0.0210 -0.542
0.0628 -0.0756 -0.267
 0.154 -0.00979  0.308
 0.191 -0.0351 -0.111
 0.159 -0.0324 -0.154
-0.0180 0.0618 -0.359
-0.0534 -0.0809  0.151
-0.100 -0.0565 -0.0187
-0.0216 -0.0907  0.323
 0.634 -0.0347 -0.0943
-0.00148  0.341  0.726
-0.308 -0.0533 -0.0359
 0.861 -0.0181 -0.153
 0.375 -0.0299 -0.105
 0.240 -0.0332 -0.132
 0.267 -0.0351 -0.105
-0.230 -0.0551 -0.0134
-0.0707 0.0215  0.165
0.0179 -0.0718  0.423
-0.118 -0.00362  0.278
0.000257  0.352  0.791
0.0622 -0.00434  0.478
 0.807 -0.0109 -0.0674
-0.267 -0.0617 -0.159
 0.456 -0.0487 -0.105
 0.407 -0.0309 -0.195
 0.488 -0.0215 -0.132
 0.574 -0.0385 -0.0836
-0.235 -0.0355 -0.196
-0.424 -0.0280 -0.0836
-0.0609 -0.0559  0.353
0.0243 -0.112 -0.672
-0.0308 -0.0951 0.0606
-0.278 -0.0578 -0.213
0.00272  0.163  0.743
0.0834 -0.00664  0.255
0.0708 0.0274 -0.308
-0.0359 0.0546 -0.0725
0.0801 0.000145 -0.542
 0.159 -0.0650 -0.181
-0.0372  0.169  0.727
-0.0132 -0.0693  0.432
-0.855 -0.0113 -0.183
0.0445 -0.0829 -0.709
-0.650 -0.0144 -0.153
-0.147 -0.00978  0.307
0.0662 0.0334 -0.260
 0.914 -0.0117 -0.0837
 0.279 -0.0528 0.00333
 0.580 -0.0193 -0.165
-0.551 -0.0424 -0.135
-0.133 0.0178  0.113
 0.183 0.0457  0.158
-0.0755 0.000787  0.321
0.0735 -0.0677 -0.650
-0.0584 -0.0137  0.466
 0.504 -0.0450 -0.0997
-0.0892 -0.0513 -0.314
 0.806 -0.0217 -0.164
0.0183  0.161  0.561
-0.0142 -0.0677 -0.840
-0.0597 0.0369 -0.239
-0.842 -0.00321 -0.141
-0.0345 -0.0936 -0.359
-0.429 -0.0254 -0.148
0.0630 -0.0758  0.235
 0.402 -0.0333 -0.0458
0.0197 -0.0303 -0.888
0.0229 0.0618 -0.0509
 0.207 -0.0333 -0.191
 0.445 -0.0245 -0.121
0.0783  0.178  0.618
 0.100 -0.0589 -0.294
 0.304  0.210  0.629
 0.369 -0.0492 -0.0296
 0.240  0.204  0.707
 0.510 -0.0446 -0.159
0.0430 -0.0919 -0.0186
 0.110 -0.0611 -0.267
-0.802 -0.0225 -0.111
0.0845 -0.0100 -0.380
0.0922 -0.0470 0.0491
-0.213 -0.0397 -0.0512
-0.0304 -0.0154  0.551
0.00229 -0.172 -0.585
-0.0799 -0.0524 0.0497
0.00673 0.0928  0.241
0.000985 0.0665 0.000772
0.0852 -0.00427  0.105
-0.775 -0.0249 -0.143
 0.499 -0.0273 -0.0566
0.0624 -0.0334  0.435
-0.159 -0.0538 0.0135
 0.366 -0.0452 -0.227
-0.982 -0.00358 -0.132
0.00244 -0.102  0.192
-0.748 -0.0202 -0.0357
 0.253 -0.131 -0.111
-0.0561 -0.0786 -0.182
0.0373 0.0562  0.233
-0.169 0.0490  0.127
-0.0137 -0.101 -0.240
 0.429 -0.0511 -0.148
-0.0236 -0.0238 -0.855
-0.829 -0.0111 -0.0566
-0.783 -0.0146 -0.0482
0.00154  0.121  0.335
 0.715 -0.0233 -0.0350
-0.0455 0.0486 -0.450
 0.181 -0.00884  0.114
-0.170 -0.0607 -0.0997
-0.0980 -0.0641 -0.238
0.00746 0.0894  0.313
-0.0611 -0.0629  0.319
 0.165 0.0331  0.269
-0.527 -0.0211 -0.110
0.0470 0.0506 -0.0149
-0.0491 -0.0365 -0.801
0.0762 -0.0569 -0.386
-0.170 0.0177  0.113
-0.132 -0.0408 0.0995
-0.904 -0.0144 -0.153
0.0611 -0.0686  0.321
-0.521 -0.0199 -0.137
-0.174 -0.0449  0.197
 0.677 -0.0123 -0.142
 0.185 -0.0123  0.270
 0.106 0.0171  0.133
-0.0505 -0.0830 -0.231
-0.134 -0.0502 -0.295
0.0375 0.0522  0.498
-0.0414 -0.0901 0.0228
-0.0197 0.0595  0.527
0.0265 0.0605 -0.166
0.0699 -0.0457  0.364
 0.614 -0.0196 -0.0746
-0.548 -0.0391 -0.0673
-0.387 -0.0527 -0.166
-0.0757 -0.0318 -0.644
-0.259 -0.0496 0.0415
-0.267  0.211  0.656
 0.144 -0.0499  0.186
-0.0238 0.0456 -0.595
0.0414 0.0550 -0.296
-0.109 -0.0313 -0.173
-0.148  0.183  0.587
-0.263 -0.0853 -0.0726
0.0462 -0.0901 0.0570
-0.737 -0.00835 -0.127
0.00585  0.298  0.721
 0.126  0.178  0.602
0.0268 -0.0964  0.273
 0.282 -0.0412 -0.0209
0.0434  0.162  0.645
0.0530 0.00798 -0.635
-0.0700 -0.00688 -0.596
 0.467 -0.0273 -0.202
-0.467 -0.0466 -0.0888
 0.521 -0.0233 -0.175
-0.0286 0.00382 -0.720
-0.181 0.0436  0.181
0.0233 0.0590  0.571
-0.505 -0.0373 -0.00724
-0.553 -0.0339 -0.0134
-0.252  0.208  0.624
0.0733 0.0247 -0.414
 0.593 -0.0318 -0.0215
 0.413 -0.0368 -0.00782
-0.125 0.0205  0.278
0.0820 -0.0420  0.198
-0.122 -0.00429  0.303
 0.544 -0.0196 -0.112
-0.507 -0.0250 -0.199
-0.780 -0.0111 -0.0728
 0.920 -0.0132 -0.159
-0.212  0.195  0.658
-0.00549  0.115  0.553
-0.348 -0.0331 -0.207
 0.752 -0.0275 -0.132
-0.0202 -0.107 -0.677
 0.148 -0.0578 -0.0456
0.0765 -0.0520  0.278
-0.197  0.195  0.593
-0.0249 0.0588  0.160
-0.316 -0.0497 0.00821
-0.0597 0.0369  0.225
-0.430 -0.0294 -0.196
-0.359 -0.0350 -0.0514
 0.194 0.0318  0.230
0.000746 -0.101 -0.506
-0.267 -0.128 -0.121
-0.224 -0.0592 -0.0782
-0.0601  0.174  0.598
0.0777 -0.0535  0.143
-0.0845 -0.0365 -0.0403
 0.194 -0.0337  0.181
 0.143 -0.0373 -0.267
0.0722 -0.0635 -0.353
-0.152 -0.0367 -0.0870
-0.0983 -0.0368 -0.0870
-0.0667 -0.0630  0.265
-0.0134 0.0627  0.224
 0.411 -0.0257 -0.132
-0.488 -0.0433 -0.0620
-0.00182 -0.102 -0.0982
 0.234 -0.0371 -0.224
 0.872 -0.00981 -0.0560
0.0248 -0.112 -0.615
 0.358 -0.0543 -0.180
-0.645 -0.0213 -0.0510
-0.161  0.185  0.622
0.0542 -0.0608  0.386
0.0334 0.0573  0.311
 0.120 -0.0376  0.172
-0.190 -0.0197  0.253
-0.678 -0.0143 -0.100
-0.0558 0.0333  0.418
-0.300 -0.0341 -0.0998
 0.332 -0.0324 -0.186
0.00776  0.196  0.629
 0.113 -0.0316 -0.227
-0.0427 0.0514 -0.369
-0.00217  0.309  0.667
-0.586 -0.0169 -0.121
 0.111 -0.0208  0.238
-0.00808 -0.0928 -0.704
-0.424 -0.0479 -0.0665
-0.00407 0.0981  0.446
0.00239 -0.0946  0.321
 0.126 0.0340 0.0990
 0.261 -0.0577 -0.0564
-0.942 -0.0123 -0.132
 0.149 0.0510  0.224
0.0832 -0.0674 -0.218
-0.305 -0.0303 -0.152
 0.526 -0.0408 -0.0618
-0.333  0.217  0.650
-0.694 -0.0170 -0.190
 0.213 -0.0557 -0.0187
-0.219 -0.0469 0.0241
-0.0442 -0.0879  0.230
 0.299 -0.0305 -0.148
-0.122 -0.0619 -0.121
0.00345  0.207  0.737
 0.553 -0.0419 -0.148
-0.132 -0.0602 -0.0889
0.0867  0.178  0.722
 0.391 -0.0514 -0.191
-0.00175 -0.131 -0.561
 0.310 -0.0549 -0.0566
-0.602 -0.0292 -0.0112
-0.0806 -0.0252 -0.348
 0.240 -0.0631 -0.148
0.0120 0.0600  0.679
 0.148 -0.0338 -0.132
 0.214 -0.0586 -0.0664
-0.343 -0.0569 -0.148
-0.122 -0.0455 0.0242
-0.0271 -0.0967  0.161
 0.645 -0.0356 -0.121
0.0631 -0.0753 -0.671
 0.218 -0.0621 -0.197
-0.596 -0.0376 -0.159
-0.456 -0.0485 -0.153
 0.110 -0.0443 0.0135
-0.0666 0.0279 -0.218
-0.0763 -0.0462  0.230
0.00243  0.248  0.571
0.0106 0.0714  0.408
-0.0650 -0.0466 -0.731
-0.263 -0.0642 -0.101
0.0129 -0.0992 -0.547
-0.154 0.0496  0.241
0.0851 -0.0150  0.230
 0.391 -0.0504 -0.0673
-0.0452 0.0482 -0.121
 0.812 -0.00599 -0.143
-0.0834 -0.0645 -0.164
-0.0308 -0.0951 -0.220
-0.159 0.0523  0.192
-0.0803 -0.00992 -0.0887
0.0819 0.00603 -0.127
 0.429 -0.0498 -0.0943
-0.0748 0.0133  0.262
-0.0170 -0.0507 -0.887
0.0739 -0.0600 -0.504
-0.316  0.218  0.700
 0.136 0.0497  0.138
-0.0765 -0.0410  0.273
 0.834 -0.00647 -0.0945
-0.261 -0.0535 0.00184
0.0513 -0.0848 -0.537
 0.677 -0.0122 -0.116
 0.121 -0.0388 -0.0458
-0.0587 -0.00526 -0.644
-0.327 -0.0558 -0.0943
 0.172 0.0503  0.195
 0.249 -0.155 -0.0782
-0.726 -0.0205 -0.195
-0.489 -0.0401 -0.0241
 0.110 -0.0263  0.152
 0.138  0.189  0.672
0.0456 0.00221  0.552
-0.00242  0.282  0.656
 0.178 -0.0434  0.106
-0.0733 0.00404  0.346
-0.343 -0.0325 -0.0781
0.0266 0.0608  0.125
 0.134  0.179  0.624
-0.569 -0.0197 -0.163
-0.0979  0.173  0.593
-0.0847 -0.0304 -0.251
 0.699 -0.0137 -0.0891
0.0816 -0.0254  0.311
0.0826 0.00115 -0.499
 0.202 -0.0469 0.0291
-0.00765 0.0639 0.0786
-0.00273 0.0641 -0.186
 0.715 -0.0278 -0.180
-0.0371 -0.0697  0.393
-0.164 -0.0645 -0.171
-0.203 -0.0503 0.0492
-0.0534 -0.0809 -0.281
-0.00360 0.0746  0.181
-0.410 -0.0250 -0.133
0.0832 -0.0330 -0.504
-0.0792 -0.00159 -0.180
0.00205  0.184  0.752
-0.0180 0.0619  0.284
0.0394 -0.0936  0.214
 0.931 -0.00883 -0.0672
0.0235 -0.0996  0.160
-0.0806 -0.0252 -0.477
-0.0707 0.0215  0.106
-0.0549 -0.0774 -0.677
 0.268 -0.102 -0.0833
-0.451 -0.0271 -0.180
 0.175 -0.0516 0.0407
-0.186 -0.0576 -0.0456
 0.558 -0.0412 -0.105
-0.451 -0.0487 -0.105
-0.300 -0.0572 -0.197
-0.153  0.184  0.651
 0.331 -0.0549 -0.0781
-0.381 -0.0355 -0.0353
 0.731 -0.0245 -0.0619
 0.601 -0.0375 -0.0998
-0.0771 0.00608 -0.267
-0.0569 -0.0385 -0.771
-0.251 -0.161 -0.111
-0.0481 0.0459  0.321
 0.754 -0.0261 -0.156
 0.164 -0.0596 -0.0782
0.0767 -0.0584 -0.318
0.00241 0.0643 -0.342
0.0140 -0.101 0.0413
-0.158 0.0302  0.299
 0.159 -0.0635 -0.218
 0.504 -0.0465 -0.132
0.0496 0.0476  0.339
-0.247 -0.117 -0.0878
0.0470 0.0506 -0.355
-0.0546 0.0422 -0.272
0.0761 -0.0416 -0.693
0.0688 0.0305 -0.0528
-0.138  0.189  0.694
-0.518 -0.0420 -0.188
-0.129 0.0471  0.117
-0.575 -0.0399 -0.110
-0.300  0.216  0.635
-0.00289 0.0985  0.332
0.00642  0.125  0.473
-0.479 -0.0474 -0.144
-0.134 -0.0310 -0.177
-0.00491  0.109  0.495
-0.131 0.0500  0.167
-0.715 -0.0300 -0.132
-0.785 -0.0229 -0.164
 0.267 -0.0411 -0.225
-0.0787 -0.0388  0.103
 0.305 -0.0587 -0.170
0.000548  0.336  0.657
-0.0803 -0.00992 -0.218
0.0886 -0.0660 -0.191
-0.211 -0.0584 -0.243
0.0752 0.0165  0.305
-0.753 -0.00995 -0.0942
-0.0983 -0.00291  0.111
-0.921 -0.00300 -0.0894
-0.0474 -0.0855 -0.303
0.0532 0.0463 -0.128
0.0565 0.0441 0.0696
0.0750 -0.0198  0.386
-0.268 -0.0391 -0.0458
 0.326  0.215  0.634
0.00606  0.341  0.699
-0.0292 -0.0720 -0.796
 0.271 -0.128 -0.133
0.0839 -0.00172 -0.469
-0.882 -0.0158 -0.158
-0.0424 0.0510  0.197
0.0854 -0.0200 -0.413
0.0993 0.0130  0.154
-0.0527 -0.0802 -0.507
-0.111 -0.0396 -0.0297
0.0706 0.0273 0.0427
0.0693 0.0216  0.375
 0.199 0.0265  0.122
0.0726 0.00271 -0.578
0.0664 0.0336  0.134
-0.0137 -0.101 -0.402
0.0862 -0.0320 -0.0241
-0.381 -0.0511 -0.0726
0.0228 -0.0763  0.402
-0.101 0.0186  0.151
-0.598 -0.0196 -0.0801
-0.0308 -0.0472  0.478
-0.354 -0.0378 -0.0294
-0.0242  0.161  0.563
 0.569 -0.0265 -0.0349
-0.00811 0.00431 -0.752
 0.202 -0.0374 -0.240
0.0553 -0.0831 -0.154
0.0138 0.0669  0.458
 0.202 -0.00935  0.240
0.00664 -0.102 -0.0721
 0.111 -0.0255  0.212
-0.467 -0.0276 -0.0674
 0.704 -0.0307 -0.116
-0.461 -0.0370 0.00811
 0.661 -0.0343 -0.137
-0.905 -0.0153 -0.122
-0.00796 -0.0819  0.386
 0.591 -0.0398 -0.121
 0.542 -0.0382 -0.0459
 0.186 0.0276  0.101
 0.105 -0.0370 -0.277
0.00875 0.0819  0.359
-0.0705 -0.0570 -0.537
-0.0620 0.0339 0.0624
-0.0368 0.00656 -0.671
0.00238 0.0642 -0.494
0.0502 0.0483 -0.443
 0.193 0.0358  0.201
-0.343 -0.0542 -0.196
-0.0271 -0.0967  0.102
-0.0133 0.0627 -0.294
 0.650 -0.0137 -0.142
-0.0186 0.0103 -0.693
-0.106 -0.0438 0.00821
-0.278 -0.0537 -0.0135
-0.0697 0.00593  0.386
-0.224 -0.0367 -0.218
-0.0597 0.0369  0.149
0.0185 -0.101 -0.0509
-0.921 -0.000684 -0.164
 0.666 -0.0159 -0.0834
0.00833  0.101  0.598
-0.413 -0.0385 0.00811
 0.159 -0.0554 -0.00797
 0.202  0.192  0.608
0.00893 -0.0908 -0.723
-0.511 -0.0423 -0.0728
0.0836 -0.00613 -0.247
0.0836 0.0125  0.124
-0.0620 0.0339 -0.00776
-0.0393 0.0535 -0.332
-0.365 -0.0403 0.00254
-0.0332 -0.0121 -0.795
0.0854 -0.0150  0.160
 0.247  0.207  0.651
 0.413 -0.0521 -0.116
 0.332 -0.0317 -0.0996
-0.521 -0.0335 -0.214
 0.127 -0.0644 -0.224
-0.408 -0.0320 -0.0511
-0.224 -0.0632 -0.148
0.0981 0.000698  0.239
-0.321 -0.0577 -0.121
 0.499 -0.0332 -0.00806
-0.640 -0.0346 -0.105
-0.0254 -0.0951  0.271
 0.159 -0.0622 -0.127
-0.176 -0.0618 -0.121
0.0391 -0.0884  0.300
0.0337 -0.0380  0.505
-0.397 -0.0527 -0.116
 0.310 -0.0577 -0.105
 0.866 -0.00523 -0.0942
-0.0835  0.171  0.672
0.0374 0.0564 -0.0797
 0.272 -0.0622 -0.148
 0.186 -0.0325 -0.197
-0.0810 -0.0201 0.0840
-0.602 -0.0345 -0.0619
-0.737 -0.0251 -0.0780
-0.0608 -0.0728 -0.582
 0.796 -0.00670 -0.116
-0.00135  0.131  0.667
-0.0187 -0.0996  0.230
 0.133  0.186  0.705
-0.00913 0.0669  0.440
-0.208 -0.0380 -0.0727
0.00621  0.373  0.753
0.0583 -0.0809 0.0786
-0.00715 -0.149 -0.590
-0.105 -0.0661 -0.202
-0.0565  0.166  0.651
 0.661 -0.0330 -0.0998
0.0319 -0.0967 -0.283
 0.127 -0.0549 0.00279
 0.461 -0.0496 -0.132
 0.209  0.196  0.689
-0.0603 -0.0115 -0.688
0.0118 -0.0566 -0.887
0.0486 -0.0499  0.440
 0.170  0.192  0.613
 0.272  0.205  0.661
-0.166 -0.0472  0.120
-0.0584 -0.0760  0.215
 0.710 -0.0120 -0.148
 0.174 -0.0450  0.229
-0.00971 -0.0738 -0.819
-0.00784 0.0401 -0.614
 0.192 -0.0584 -0.0607
-0.872 -0.0163 -0.0999
-0.0474 -0.0855 -0.157
-0.0358  0.172  0.656
-0.00534 -0.0416  0.519
-0.00284 0.0606 -0.542
-0.182 0.0136  0.264
0.0395 -0.0913 -0.656
-0.148 -0.0592 -0.266
 0.591 -0.0188 -0.0945
-0.0722 0.0183 -0.402
 0.612 -0.0377 -0.142
-0.121 -0.0589 -0.0624
-0.0378 0.0520  0.386
0.0491 -0.0879 -0.337
-0.920 -0.0140 -0.137
-0.0722 0.0183 -0.0240
-0.0545 0.0418  0.278
-0.162 -0.0500 0.0575
-0.332  0.222  0.672
 0.762 -0.0191 -0.0344
 0.271 -0.128 -0.0888
 0.192 -0.0365  0.154
-0.0358 0.0547  0.267
 0.154 -0.0352 -0.111
0.00963  0.109  0.570
-0.00273 0.0641 -0.402
-0.0216 0.0605 0.00303
-0.197 0.0191  0.225
 0.230  0.204  0.678
 0.440 -0.0298 -0.206
 0.170 -0.0481  0.127
 0.305 -0.0352 -0.0729
-0.0797 -0.00535 -0.461
-0.705 -0.0139 -0.0788
0.0775 -0.0298 -0.659
-0.0721 0.0182 -0.488
-0.253 -0.147 -0.0823
0.000440  0.374  0.802
 0.152  0.188  0.716
-0.0516 0.0441 0.0300
-0.548 -0.0390 -0.196
0.0438 0.0530 -0.180
 0.299 -0.0576 -0.197
-0.877 -0.0138 -0.0780
0.0430 -0.0919  0.235
 0.224 -0.0393 -0.0566
0.0607 -0.0784 -0.456
0.00892  0.136  0.522
-0.000256  0.130  0.419
0.0704 -0.0716 -0.628
-0.116 -0.0322 -0.229
-0.111 0.0338  0.215
 0.458 -0.0313 -0.0436
-0.456 -0.0232 -0.137
 0.107 -0.0141  0.111
 0.207 -0.0609 -0.224
 0.472 -0.0277 -0.0673
 0.553 -0.0398 -0.0781
-0.406 -0.0302 -0.206
 0.237 -0.114 -0.0846
0.00243  0.302  0.620
0.0140 -0.101 -0.131
 0.138  0.183  0.582
0.0111 -0.134 -0.623
-0.176 -0.0592 -0.0728
 0.191 -0.0372 -0.0780
-0.364 -0.0310 -0.0829
0.00764  0.104  0.376
 0.958 -0.00101 -0.0945
-0.00544 0.0713  0.311
0.0532 -0.0858 -0.618
-0.0191  0.159  0.629
0.0265 0.0605 0.0390
-0.0234 -0.0981  0.187
0.0183 -0.0801 -0.784
-0.0293 -0.0935 -0.645
 0.580 -0.0384 -0.175
0.0830 -0.0310 -0.585
-0.0666 0.0279 -0.191
0.0130 -0.0829  0.380
-0.0809 -0.0150 0.00841
 0.164 0.0530  0.176
 0.183 -0.00548  0.302
-0.294 -0.0604 -0.143
 0.596 -0.0224 -0.0567
 0.618 -0.0155 -0.143
-0.634 -0.0341 -0.170
 0.289 -0.0336 -0.105
 0.542 -0.0230 -0.186
-0.256 -0.0593 -0.213
 0.364 -0.0317 -0.0780
-0.175 -0.0454  0.176
 0.218 -0.0352 -0.105
-0.375 -0.0546 -0.148
-0.197 -0.0357 -0.0945
-0.586 -0.0355 -0.197
-0.200 0.0168  0.154
-0.0442 -0.0879  0.197
-0.0546 0.0422 -0.293
-0.295  0.216  0.699
 0.261  0.202  0.624
-0.267 -0.0374 -0.0672
-0.0791 -0.00140  0.246
-0.00702 0.0876  0.494
0.0140 -0.101 -0.196
-0.262 -0.0608 -0.180
0.00475 0.0325  0.668
-0.235 -0.0336 -0.175
-0.0432 -0.0870 -0.530
 0.456 -0.0374 0.00792
-0.0126 -0.0207  0.563
0.0102 -0.102 -0.331
 0.595 -0.0200 -0.193
0.0836 -0.0349 -0.337
0.0385 -0.0823  0.343
 0.251 -0.0677 -0.0956
-0.0738 0.0146 -0.0563
 0.542 -0.0321 -0.00371
-0.266 -0.133 -0.0685
0.0889 0.0108  0.219
-0.575 -0.0175 -0.143
-0.694 -0.0107 -0.127
0.0442 0.0535  0.165
 0.705 -0.0221 -0.198
-0.762 -0.0264 -0.125
0.0696 -0.0664  0.197
-0.161 -0.0140  0.282
0.0629 -0.0757 -0.488
0.0194  0.158  0.640
0.0307 -0.0587 -0.849
-0.0688 0.0248 -0.148
0.00242 -0.102  0.133
 0.688 -0.0264 -0.0454
0.0709 0.0274  0.258
0.00421 0.0965  0.203
0.0647 -0.0727 -0.0348
-0.629 -0.0155 -0.153
-0.166 -0.0471  0.217
-0.0674 -0.0635 -0.501
-0.0500 -0.0828 -0.559
 0.640 -0.0174 -0.0836
-0.536 -0.0426 -0.152
-0.263 -0.0825 -0.121
-0.138 -0.0427 -0.00775
0.0297 0.0588  0.269
 0.153 -0.0483  0.234
-0.0391 0.0480  0.477
-0.00268 -0.00254 -0.795
0.0993 0.00542  0.299
0.0996 -0.0393 -0.0457
-0.667 -0.0278 -0.0459
0.0831 -0.0611 -0.0834
-0.0683 -0.0503 -0.707
 0.986 -0.00390 -0.105
-0.472 -0.0359 -0.218
-0.0457 0.0255  0.540
-0.00787 -0.0866  0.364
0.0701 0.0216 -0.547
 0.191 0.0387  0.140
 0.737 -0.0106 -0.148
-0.621 -0.0315 -0.0468
-0.00646  0.120  0.532
 0.688 -0.0298 -0.180
-0.0452 0.0178 -0.612
 0.414 -0.0306 -0.0651
-0.121  0.178  0.624
-0.268  0.206  0.677
-0.0214 0.0545 -0.550
0.0714 -0.0469 -0.720
0.0667 -0.0438 -0.744
 0.197  0.199  0.651
-0.802 -0.0117 -0.0621
0.00760 -0.0248  0.560
-0.143  0.187  0.714
-0.197 -0.0600 -0.0889
 0.154 -0.0148  0.285
-0.483 -0.0254 -0.174
-0.362 -0.0305 -0.179
0.0624 -0.0140 -0.711
-0.0442 -0.0879 -0.396
0.0811 -0.0411 -0.542
-0.187 0.0182  0.101
0.0681  0.168  0.569
 0.137 0.0245  0.302
-0.00593 0.0708  0.564
-0.229 -0.0535 0.00723
0.00870  0.201  0.596
 0.164 -0.0386 -0.0565
0.0610 -0.0435  0.415
0.00268  0.117  0.726
-0.0426 -0.0703 -0.766
 0.325 -0.0411 -0.00409
 0.150 0.0103  0.310
-0.243 -0.110 -0.114
 0.234 -0.147 -0.104
0.0561  0.171  0.724
0.0178 -0.0302  0.542
-0.683 -0.0153 -0.0780
-0.780 -0.00801 -0.0998
-0.564 -0.0218 -0.191
-0.0497 -0.0722 -0.732
0.0341 0.0177  0.604
-0.0789 0.00760  0.300
 0.154 0.0525  0.127
 0.130 -0.0423  0.108
 0.591 -0.0365 -0.0722
-0.0505 -0.0830 -0.366
-0.186 -0.0555 -0.0134
 0.445 -0.0478 -0.186
-0.00460  0.148  0.595
-0.0807 -0.0586 -0.0521
-0.0413  0.171  0.608
-0.548 -0.0183 -0.127
-0.00864 -0.0845 -0.764
0.0335 0.0576 0.0840
-0.152 -0.0114  0.109
-0.423 -0.0482 -0.201
 0.161  0.184  0.587
-0.294  0.210  0.656
-0.0787 -0.0388 0.0763
-0.0254 -0.0948 -0.582
-0.616 -0.0370 -0.114
0.00227  0.349  0.815
-0.203 -0.0428 -0.0133
-0.473 -0.0335 -0.0135
-0.149 -0.0313  0.113
0.0363 -0.000506  0.574
-0.0430 -0.0543  0.431
-0.284 -0.0575 -0.0780
 0.159 -0.0442  0.254
-0.00156 0.0878  0.645
-0.0585 -0.0211 -0.736
0.0854 -0.0199 -0.175
0.0971 -0.0500 -0.315
-0.00540 -0.102 0.0223
-0.0620  0.169  0.569
0.0833 0.00199 -0.0928
 0.477 -0.0261 -0.175
-0.0641 -0.0143  0.434
 0.751 -0.00974 -0.112
0.0782 0.0144 -0.145
0.0786 0.0146 -0.00417
0.0996 -0.0322 -0.159
0.0668 0.0339 -0.114
0.0434 0.0537 -0.255
0.0743 0.0158  0.343
0.0218 0.0608 -0.511
 0.140 -0.0484  0.134
 0.123 0.0119  0.263
0.0687 0.0304 -0.468
 0.175  0.187  0.640
-0.0271 -0.0967 -0.438
 0.110 -0.0409 -0.0190
0.0988  0.173  0.602
 0.237 -0.123 -0.127
-0.182 -0.00128  0.288
 0.268 -0.0907 -0.105
 0.753 -0.0245 -0.180
0.0796 0.0105 0.0570
0.00631  0.190  0.548
0.0156 0.00128 -0.767
-0.250 -0.136 -0.114
 0.823 -0.00688 -0.164
-0.581 -0.0271 -0.0296
0.0710 0.0276 -0.222
0.0333 0.0572  0.359
-0.102 -0.0193  0.165
0.0936  0.172  0.651
0.0457 -0.0148 -0.780
-0.321 -0.0557 -0.197
-0.00222 -0.123 -0.638
-0.0717 -0.0571 -0.391
0.00849  0.124  0.599
-0.0699 -0.0607 0.0210
0.00408  0.336  0.775
0.0408 0.0548  0.108
-0.00918 -0.101 -0.284
 0.326 -0.0434 -0.229
-0.645 -0.0271 -0.0199
-0.129  0.179  0.660
-0.515 -0.0390 -0.0350
-0.00918 -0.101 -0.154
-0.127  0.185  0.596
0.0102 -0.102 0.0844
 0.424 -0.0338 -0.0351
0.0181 0.0627 -0.326
0.0845 -0.00998 -0.224
-0.0645 0.0163  0.413
-0.284 -0.0355 -0.191
-0.0773 -0.00960 -0.547
-0.160 0.00536  0.310
-0.0143  0.166  0.591
0.0354  0.171  0.629
-0.197  0.194  0.688
-0.235  0.198  0.624
-0.0707 0.0215 -0.429
 0.171 0.0410 0.0993
 0.561 -0.0374 -0.0539
-0.327 -0.0314 -0.175
0.0108  0.173  0.591
-0.0679 -0.0639  0.120
 0.493 -0.0441 -0.191
0.0687 0.0304  0.190
-0.0799 -0.0305  0.149
-0.245 -0.0584 -0.0666
-0.230 -0.143 -0.0872
0.0938 -0.0498 0.0686
-0.291 -0.0360 -0.0698
-0.0409 0.0399 -0.587
 0.133 0.0486  0.171
-0.0401 0.0445  0.510
0.0229 -0.0920  0.321
-0.0345 -0.0936 -0.456
 0.323 -0.0475 0.0319
0.0789 -0.0497 -0.488
 0.278 -0.0587 -0.0886
 0.136 -0.00657  0.274
0.0140 -0.101 -0.229
