ply
format ascii 1.0
element vertex 2048
property float x
property float y
property float z
end_header
 0.137 0.0191  0.793
-0.379 0.0864 -0.921
 0.242  0.329 -0.163
-0.359 -0.152  0.155
 0.296 -0.279 -0.806
 0.261 -0.165  0.221
-0.392 -0.286  0.775
-0.159 -0.165 -0.419
 0.151  0.289 -0.739
 0.118  0.330  0.351
 0.276 -0.131 -0.249
-0.201 0.0200  0.521
-0.249 -0.296 -0.806
-0.0493 0.0191 -0.0486
-0.329 0.0929  0.899
0.0207 -0.0314 -0.921
-0.0385 -0.289  0.794
-0.375 -0.0214 -0.179
 0.277 0.0186 -0.559
 0.237  0.332  0.691
 0.277 0.0487  0.482
 0.294 -0.286  0.782
-0.0593 -0.165  0.292
-0.375 -0.00163 -0.599
 0.276  0.159  0.131
 0.111  0.239 -0.429
0.0507 -0.165 -0.639
 0.298 0.0786 -0.909
0.0907 -0.165  0.542
-0.163 0.0914 -0.746
-0.0993 -0.0514  0.904
 0.151 -0.165 -0.0186
-0.00930 0.0191 -0.309
-0.375 -0.0414  0.692
-0.348 -0.165  0.436
 0.110 0.0217  0.294
 0.277 0.0887 -0.109
-0.219 -0.165 -0.0486
-0.214 0.0198  0.258
 0.132  0.333 0.0514
-0.209 -0.0914 -0.921
0.0907 -0.165 -0.409
 0.111 0.0487 -0.719
 0.111  0.199  0.542
 0.277 0.0987 -0.339
-0.169 -0.165  0.652
-0.0793 0.0912  0.728
-0.397 -0.101 -0.799
-0.298 0.0195 -0.385
-0.0193 -0.296 -0.806
-0.189 -0.165 -0.639
 0.277 -0.101  0.662
-0.00929 -0.165 -0.189
-0.0227 0.0196 -0.527
 0.276  0.256 -0.569
 0.265 -0.113  0.902
-0.299 -0.122  0.900
-0.0393 -0.165 0.0814
 0.276 -0.159  0.432
 0.277 -0.0814 -0.749
-0.250 0.0199 0.0381
0.000705 0.0191  0.482
 0.110 0.0217 0.0814
 0.276  0.199  0.342
 0.111  0.189 -0.229
-0.339 -0.165 -0.319
 0.295 0.0839  0.903
-0.179 0.0191 -0.209
 0.269 -0.165 -0.489
 0.151 -0.165 -0.869
 0.277  0.139  0.652
0.0808 -0.164  0.878
-0.363 0.0165  0.376
 0.247  0.317  0.492
-0.119 -0.165  0.472
-0.339 -0.165 -0.519
 0.111  0.199  0.221
 0.111  0.169 -0.0289
 0.277 -0.0614 0.0714
 0.242  0.329  0.197
0.0107 0.0929  0.899
-0.199 0.0191 -0.559
 0.101 0.0194 -0.168
-0.109 0.0927 -0.916
 0.275  0.119 -0.706
-0.179 -0.165 -0.239
-0.216 -0.295  0.766
-0.343 0.0914 -0.746
 0.116  0.189  0.716
 0.277 0.00865  0.232
 0.101 -0.165  0.362
 0.111 0.0386  0.622
-0.239 -0.165  0.302
-0.259 0.0930  0.742
-0.0909 0.0196  0.117
-0.374 -0.101 -0.0169
 0.276  0.256 -0.00860
 0.111  0.129 -0.569
 0.124  0.332 -0.569
0.0608 -0.165  0.712
 0.131 0.0930 -0.899
 0.247  0.309 -0.329
-0.372 0.0127  0.201
 0.111 0.0386 -0.429
 0.101 -0.165  0.181
-0.0644 0.0201  0.326
-0.129 -0.165 -0.789
-0.375 -0.0214  0.532
-0.169 0.0929  0.899
 0.121 -0.294  0.793
-0.329 -0.165  0.602
-0.131 0.0196 -0.405
 0.111  0.159  0.372
 0.274 -0.0814 -0.913
 0.276 -0.0914 -0.0986
 0.290 0.0187  0.763
-0.129 -0.165  0.802
-0.0393 0.0191 -0.689
-0.0293 -0.165 -0.509
-0.209 -0.165  0.131
-0.397 -0.262 -0.806
-0.329 -0.165 -0.169
 0.131 -0.296 -0.799
 0.276 -0.0414 -0.389
 0.141 -0.165 -0.199
0.000705 0.0930 -0.819
 0.201 -0.165 -0.619
 0.191 -0.165  0.782
-0.309 -0.165  0.762
-0.362 -0.134 -0.663
 0.114  0.325  0.612
-0.00929 -0.165 -0.869
-0.0793 0.0191  0.602
 0.114  0.325 -0.279
-0.239 0.0536 -0.859
-0.0293 -0.165 -0.329
 0.276 0.00859 -0.229
-0.349 -0.0514 -0.921
 0.277  0.149 -0.479
 0.124  0.332 -0.0886
-0.0393 -0.165  0.602
-0.0793 -0.165 -0.0686
-0.394 0.0908  0.772
-0.370 -0.123  0.305
-0.279 -0.165 -0.769
 0.277  0.179 -0.229
 0.211 0.0195 -0.819
 0.277 -0.0514  0.352
 0.277  0.179  0.512
 0.157 0.0914  0.903
 0.201  0.334 -0.449
-0.375 -0.00163 0.0714
-0.338 0.0195 -0.0584
0.0307 -0.0414  0.904
-0.189 0.0191 -0.0786
-0.375 -0.0314  0.822
 0.276  0.256 -0.699
 0.114  0.325  0.482
 0.277 0.0587 0.0214
 0.151 -0.0414 -0.921
-0.232 0.0201  0.395
 0.221 -0.165 -0.369
 0.111  0.149  0.101
0.00818 0.0198  0.791
-0.375 -0.0714 -0.439
 0.114  0.325  0.201
 0.111 0.0386  0.422
 0.277 -0.0814  0.532
-0.289 0.0191  0.622
0.0213 0.0201  0.175
-0.249 -0.00175  0.904
 0.242  0.329  0.357
-0.150 0.0192  0.800
 0.171 -0.165 -0.739
 0.274 -0.164 0.00140
 0.111  0.189 -0.679
 0.161 -0.165  0.642
 0.277 0.0186  0.602
 0.111 0.0289 -0.289
-0.289 0.0191 -0.259
 0.211 -0.165  0.111
 0.111  0.139 -0.339
0.0107 -0.165  0.442
 0.277 0.0687  0.342
-0.0593 0.0191 -0.169
 0.101 -0.165 -0.529
 0.151 -0.0514  0.904
0.0769 0.0195 -0.605
-0.0893 -0.0914 -0.921
 0.298 -0.111  0.782
-0.249 -0.165  0.502
 0.276  0.256  0.602
-0.348 -0.165 -0.885
-0.0593 -0.165 -0.679
-0.0993 -0.165  0.181
-0.179 0.0191  0.662
-0.311 0.0198 -0.504
-0.375 -0.0214 -0.719
-0.125 0.0198 -0.827
-0.269 0.0191  0.151
-0.289 -0.165 0.0414
 0.211 -0.165  0.332
0.0307 -0.165 -0.00861
 0.111 0.0487 -0.0586
 0.211  0.334 -0.649
 0.277  0.229 -0.119
0.0207 -0.165 -0.759
 0.277  0.249 -0.419
-0.00929 -0.165  0.812
-0.375 -0.0514 -0.329
-0.149 0.0191 -0.659
 0.277  0.129 -0.589
 0.238  0.219  0.719
-0.125 0.0195  0.425
-0.129 -0.282 -0.812
 0.211 0.0930  0.742
 0.252  0.270  0.105
-0.189 -0.117  0.903
 0.269 -0.172 -0.811
 0.123  0.309  0.720
 0.111 0.0787  0.191
-0.279 -0.165 -0.429
 0.161 -0.165  0.452
0.0808 -0.165 -0.289
 0.277  0.139  0.251
-0.200 0.0193 -0.319
 0.277 0.0487  0.131
-0.139 -0.165 0.0414
-0.229 -0.165 -0.539
0.0897 0.0196 -0.820
0.0608 0.0927  0.733
 0.277 0.0186 -0.669
-0.269 0.0193 -0.149
0.000705 0.0191  0.672
 0.111  0.129 -0.129
 0.277 -0.0914 -0.619
 0.111  0.139 -0.459
0.0155 0.0198 0.0392
0.000705 0.0786 -0.921
 0.211  0.333 -0.0290
 0.219 0.0195  0.861
 0.201 -0.165 -0.109
-0.149 -0.165  0.352
 0.211 -0.165  0.542
 0.111 0.0887  0.532
-0.128 0.0195 0.0221
-0.394 0.0556 -0.826
-0.309 0.0201  0.468
0.0740 -0.117 -0.920
 0.124  0.332 -0.379
0.0207 0.0191  0.382
 0.298 0.0606 -0.789
 0.111  0.229 -0.559
0.0907 -0.165 0.0814
-0.129 -0.165 -0.519
0.000715 -0.165  0.191
 0.276  0.239  0.241
 0.211  0.189 -0.739
 0.276 -0.0615 -0.499
 0.277  0.149 -0.0286
-0.209 -0.165 -0.849
-0.0793 0.0536  0.882
0.0608 -0.165 -0.119
 0.111  0.229  0.442
-0.375 -0.0614  0.442
-0.0993 0.0191 -0.269
-0.291 0.0198 -0.646
 0.277 0.0587 -0.429
-0.0493 -0.165  0.722
 0.181 -0.159  0.882
 0.111  0.139  0.632
 0.276  0.256  0.422
-0.286 0.0198  0.799
-0.397 -0.111  0.772
 0.274 -0.164 -0.699
-0.0685 0.00597 -0.920
-0.0393 -0.125  0.896
-0.375 -0.111 -0.249
 0.276 -0.0314 -0.0187
0.0707 -0.165  0.272
-0.209 0.0191 -0.459
-0.0593 -0.165 -0.419
-0.229 -0.165  0.832
-0.0627 0.0913 -0.746
-0.229 -0.165 -0.159
 0.277 -0.0714  0.181
-0.129 -0.165 -0.159
 0.111  0.269 -0.179
-0.229 -0.165 -0.349
0.0307 0.0191 -0.0986
-0.129 -0.165 -0.319
 0.277  0.199 -0.339
-0.229 -0.165  0.402
 0.113  0.269 -0.0202
 0.232 0.00597 -0.920
-0.375 -0.0814 -0.539
-0.375 -0.0314  0.292
 0.230  0.333 -0.549
-0.370 -0.123  0.515
-0.149 -0.165  0.562
-0.239 0.0930  0.832
 0.111  0.229 -0.319
 0.111  0.269  0.281
-0.179 -0.165  0.231
-0.309 -0.165 -0.0786
 0.171 -0.165  0.241
 0.111  0.239  0.121
0.0287 0.0195 -0.751
0.0307 0.0191  0.582
-0.259 0.0537 -0.751
-0.375 -0.0814  0.211
0.0744 0.0191 -0.514
-0.179 0.0156 -0.915
-0.129 -0.272  0.782
0.0899 0.0195  0.872
 0.191  0.333  0.562
-0.269 -0.165 -0.249
-0.239 -0.165  0.592
-0.0893 0.0191 -0.589
-0.219 -0.165  0.742
 0.276 -0.0514 -0.299
-0.289 -0.165 -0.619
-0.0892 0.0198  0.208
-0.169 0.0927  0.733
 0.277 -0.0514  0.442
-0.373 -0.118 0.0714
 0.161 0.0930 -0.779
 0.191  0.333  0.121
-0.351 0.00597  0.903
-0.299 -0.272  0.789
 0.276 -0.0114 -0.139
 0.277 0.0987  0.562
0.0307 0.0191 -0.229
-0.0893 -0.165 -0.239
 0.111  0.289 -0.659
0.0507 -0.165  0.622
 0.114  0.325 -0.469
0.0808 0.0923  0.822
 0.251 0.0923  0.822
 0.181 -0.165 -0.479
 0.181  0.333  0.422
-0.361 -0.141  0.694
-0.354 -0.161  0.844
 0.111  0.109  0.281
 0.171  0.334  0.281
-0.289 0.0116 -0.919
-0.0235 0.0201 -0.395
 0.282 -0.201  0.763
 0.269 -0.165 -0.169
-0.375 -0.0714 -0.0986
 0.230  0.325 -0.736
-0.319 -0.165  0.231
0.0289 0.0201  0.263
-0.319 0.0920 -0.849
 0.201  0.333 -0.239
 0.277 -0.0414  0.842
 0.260  0.263 -0.229
-0.109 0.0191 -0.489
 0.277 -0.101  0.281
0.0707 -0.165 -0.829
-0.279 -0.165  0.672
 0.111  0.249  0.652
 0.111  0.219 -0.109
 0.171 -0.165 -0.299
-0.109 0.0191 -0.739
 0.277  0.119  0.432
-0.0793 -0.165 -0.589
 0.201 -0.282  0.763
-0.0493 0.0930  0.812
 0.276 -0.0514 -0.829
 0.277 0.0987 -0.199
0.0407 -0.282  0.763
 0.111 0.0987 -0.209
 0.276  0.189 0.0514
 0.277 -0.0114  0.682
-0.389 -0.201  0.763
-0.375 -0.0814  0.592
-0.0825 0.0198  0.498
 0.104 0.0191  0.715
-0.372 0.0127 -0.439
-0.0342 0.0196 -0.845
-0.259 0.0191  0.702
-0.359 -0.151 -0.405
-0.372 -0.181 -0.799
 0.277  0.189 -0.649
-0.375 -0.0314 -0.839
-0.372 -0.0814  0.896
-0.397 0.0687  0.852
 0.221 0.0384 -0.739
 0.211 0.0912 -0.920
-0.159 0.0920 -0.849
 0.274 -0.164 -0.579
 0.111  0.109 -0.649
 0.241 -0.165  0.622
-0.375 -0.0614  0.131
-0.00929 -0.165  0.522
 0.211 -0.282 -0.812
-0.0993 0.0191  0.682
-0.372 0.0127 -0.259
 0.242  0.329 0.0472
 0.111 -0.165  0.802
 0.111  0.249  0.362
-0.313 0.0198  0.305
0.0808 0.0191  0.502
-0.373 0.0137  0.752
-0.164 0.0116  0.902
-0.116 -0.164 -0.896
 0.241 0.0927 -0.839
-0.319 -0.165  0.352
 0.261 -0.165  0.832
-0.144 0.0201  0.338
-0.286 -0.117 -0.920
-0.0793 -0.165  0.402
-0.319 0.0923  0.812
0.0107 -0.165  0.332
-0.179 -0.165 -0.719
0.0907 -0.165 -0.719
-0.119 -0.159  0.881
-0.304 0.0198 -0.808
-0.0699 0.0196  0.763
-0.189 0.0191  0.139
0.0507 0.0191 -0.366
0.0916 0.0116 -0.919
 0.276 -0.159 -0.889
 0.247  0.309  0.281
0.0707 0.0930 -0.769
 0.276 -0.0714 -0.189
-0.184 0.0201 -0.769
 0.211 -0.165  0.702
-0.129 0.0191 -0.129
0.0307 -0.165 -0.459
-0.366 0.0165  0.633
-0.129 0.0923  0.812
-0.326 -0.294 -0.811
-0.375 -0.0714  0.362
 0.276 -0.121 -0.399
 0.111 0.0787 0.0116
 0.121 -0.165 -0.609
-0.259 0.0191 -0.0486
-0.00930 0.0191 -0.619
0.0307 -0.165 -0.559
 0.211 -0.165 -0.229
-0.0593 -0.165 -0.759
-0.249 -0.165 -0.689
 0.277 0.0186  0.412
 0.111  0.129  0.442
 0.188 0.0225  0.725
 0.111  0.279  0.542
 0.131 0.0930  0.762
 0.277 -0.131  0.362
-0.215 0.0198  0.840
 0.277  0.229 -0.499
 0.290 0.0926  0.752
0.0507 -0.271 -0.799
 0.277 -0.131  0.101
 0.191  0.279  0.721
 0.174 -0.117 -0.920
-0.362 -0.134 -0.743
 0.245  0.324  0.611
-0.219 0.0191  0.592
-0.317 0.0201  0.545
-0.374 -0.0314 0.00361
 0.277 0.0287 -0.299
 0.277  0.159 -0.139
 0.277  0.169 -0.409
-0.279 -0.165  0.151
-0.0793 0.0191 -0.339
 0.276 0.0386 -0.0486
-0.0593 -0.165 0.00140
-0.119 -0.165  0.111
0.0608 0.0930 -0.879
0.0499 0.0195 -0.0287
 0.171 0.0920  0.832
 0.151 0.0536 -0.839
-0.339 0.0786  0.726
-0.149 -0.0514 -0.921
0.0407 -0.165 -0.349
 0.111 0.0787  0.362
-0.375 -0.0614 -0.659
 0.277  0.119 -0.269
 0.276  0.119 0.0714
 0.276  0.256  0.171
-0.239 0.0912 -0.920
 0.111  0.219 0.0314
-0.239 0.0786  0.904
0.0116 0.0195  0.872
-0.372 0.0127 -0.359
 0.151 0.0191 -0.769
-0.149 0.0191  0.582
-0.219 -0.165 -0.469
-0.139 -0.165  0.732
0.0907 -0.165  0.462
 0.277 0.0987  0.181
-0.339 -0.165 -0.00861
-0.0993 -0.165  0.642
0.0307 0.0191 -0.679
-0.209 -0.165 0.0314
-0.0193 -0.101 -0.921
 0.277 0.0587  0.672
 0.111 0.0887  0.682
-0.169 -0.165 -0.0986
0.0318 0.0198 -0.870
-0.226 0.0342  0.766
 0.276  0.249  0.522
 0.161  0.333 -0.149
 0.261 -0.165 -0.309
 0.277 -0.151  0.502
-0.279 -0.165 -0.869
 0.274 -0.164 -0.0986
 0.211 -0.165 0.0314
 0.111 0.0787 -0.509
 0.221 -0.0514  0.904
-0.00929 -0.165 -0.259
 0.111 0.0987 -0.279
0.0707 -0.165 -0.199
0.0874 0.0914  0.903
-0.209 0.0191 -0.389
-0.00931 0.0927  0.733
-0.375 -0.0914 -0.179
-0.139 -0.165 -0.0286
 0.277 -0.0114  0.532
 0.111  0.309  0.121
 0.277 0.00865  0.302
 0.131 -0.165  0.712
-0.309 -0.0514  0.903
 0.171  0.333  0.652
-0.239 0.0194  0.325
-0.355 -0.160 -0.596
0.0407 -0.110  0.904
 0.270 0.0163 -0.856
 0.277  0.219  0.662
 0.276 -0.00164 -0.749
-0.229 0.0930 -0.799
-0.218 0.0201 -0.654
-0.371 0.0124 -0.907
 0.201 -0.165 -0.819
-0.0593 0.0930 -0.869
0.0854 0.0191  0.150
-0.159 0.0191  0.732
-0.0393 0.0191 -0.759
-0.0492 0.0196 0.0601
 0.111  0.299  0.412
-0.0299 0.0201  0.551
 0.131  0.139 -0.739
 0.277 -0.0614  0.742
-0.239 -0.0714  0.904
-0.192 0.0201  0.449
 0.270 0.00142  0.900
 0.161 -0.165 -0.399
-0.209 -0.165 -0.779
 0.171 -0.165 -0.559
 0.277 -0.00136 -0.459
 0.131 -0.165 -0.799
-0.375 -0.0214 -0.509
-0.0893 0.0930 -0.809
 0.111 0.0787 -0.369
 0.121 -0.165 -0.0786
 0.131 -0.165  0.302
 0.111  0.199 -0.489
-0.179 -0.165  0.502
-0.374 0.00651  0.442
0.0423 0.0201 -0.455
-0.320 0.0196  0.103
 0.276  0.189  0.422
 0.260  0.263  0.342
 0.276 -0.131  0.722
 0.116  0.232 -0.733
 0.202 0.0327  0.789
0.0707 0.0319  0.772
 0.181  0.149  0.722
 0.231 -0.165 -0.0486
 0.247  0.308 -0.489
-0.190 -0.282 -0.781
 0.107 0.0187  0.228
-0.275 0.0196 -0.448
 0.160 0.0184  0.891
 0.237  0.332 -0.390
-0.375 -0.00163 -0.109
0.0207 0.0930  0.792
-0.0593 0.0191  0.422
 0.274 -0.164  0.302
 0.230  0.333 -0.0986
-0.149 0.0198  0.255
 0.221 0.0687  0.904
 0.246  0.317  0.422
0.0817 0.0201  0.353
0.00173 0.0201  0.113
-0.324 0.0193 -0.314
-0.362 -0.134 -0.112
-0.375 -0.111 -0.859
 0.111 0.0787  0.111
-0.319 -0.165 -0.699
0.000715 -0.165  0.682
-0.119 -0.165 -0.639
 0.277 -0.131  0.572
 0.111  0.229 -0.629
 0.277  0.239 -0.289
-0.279 -0.165  0.442
 0.277 0.0987 -0.519
 0.277 -0.0214  0.141
-0.0493 -0.0114  0.904
-0.249 -0.0414 -0.921
 0.277 0.0687 -0.629
-0.109 -0.165  0.252
 0.277  0.179 -0.549
0.0507 -0.165  0.131
-0.0793 -0.165  0.522
 0.101 0.0923 -0.829
 0.111  0.209  0.312
 0.151 -0.165  0.141
 0.111  0.149  0.181
 0.276 -0.111 -0.539
-0.244 0.0191 -0.514
-0.375 -0.101 -0.369
0.000705 0.0866 -0.744
 0.111  0.269 -0.499
 0.171  0.334 -0.699
 0.251  0.270 -0.0653
-0.179 -0.0514  0.903
 0.277 -0.0414  0.622
-0.0193 -0.165 -0.0486
0.000715 -0.165 -0.399
-0.129 0.0191 -0.0586
 0.276 -0.101 -0.339
-0.0293 -0.165 -0.129
 0.241 -0.165 -0.429
 0.111  0.249 -0.249
-0.289 -0.165  0.852
 0.277 0.0687  0.252
 0.277 -0.00136 0.0514
-0.0393 0.0191 -0.229
-0.229 -0.165  0.191
 0.151 -0.165 0.0614
-0.199 0.0191 -0.149
 0.276  0.179  0.191
-0.309 0.0191 -0.199
 0.276 -0.111 -0.0386
0.0107 0.0191 -0.159
 0.101 0.0194  0.562
 0.260  0.263 -0.629
-0.319 -0.165  0.492
 0.288 -0.111 -0.814
-0.0457 0.0193  0.842
-0.289 0.0536  0.852
 0.276 -0.159  0.161
 0.121 -0.122  0.900
 0.155 0.0184 -0.905
 0.161  0.334 -0.509
-0.139 0.0536  0.862
 0.181  0.333  0.352
-0.394 -0.0481  0.766
 0.252  0.269  0.685
-0.361 -0.141 -0.467
 0.111  0.119 -0.0686
-0.0493 -0.165  0.141
 0.277  0.129  0.352
-0.0693 -0.165  0.792
 0.277 -0.0514 -0.559
-0.0393 0.0191 -0.109
 0.201 -0.165  0.392
 0.277  0.189  0.572
-0.189 -0.165 -0.299
-0.279 -0.165 -0.0186
-0.0493 -0.165 -0.819
0.0107 -0.165 -0.699
-0.109 0.0191 -0.209
 0.181  0.334  0.181
-0.319 0.0191  0.692
-0.289 0.0930 -0.789
-0.329 -0.165 -0.239
 0.111  0.209 -0.169
0.0307 -0.165 0.0714
 0.111 0.0386 -0.229
 0.201  0.129 -0.739
 0.276 -0.0214 -0.0786
0.0670 0.0198  0.659
-0.349 0.0189  0.844
 0.247  0.308  0.552
 0.106 0.0184 -0.658
-0.169 0.0864 -0.921
 0.131  0.249  0.721
0.0207 -0.165  0.872
-0.374 0.00651  0.141
-0.139 0.0191 -0.319
 0.269 -0.165 -0.639
-0.329 -0.165  0.292
-0.299 0.0927 -0.916
-0.229 0.0195 -0.259
-0.0893 0.0191 -0.649
 0.111  0.149 0.0414
 0.277 -0.0414 -0.669
 0.181  0.333  0.482
-0.375 -0.0814 -0.599
-0.149 0.0191 -0.599
 0.171 -0.165 -0.679
0.0507 -0.165  0.802
 0.141 -0.165 -0.139
-0.255 0.0201 -0.599
-0.259 0.0191 -0.319
-0.120 0.0199 -0.893
 0.114  0.325 -0.199
 0.204 -0.164 -0.896
-0.363 0.0165 -0.654
-0.397 0.00865 -0.790
-0.187 0.0195  0.205
 0.111  0.279 0.0614
0.00731 0.0201  0.318
-0.215 0.0201 -0.713
 0.296 0.0554  0.832
-0.334 0.0189 -0.731
-0.179 -0.159 -0.899
0.0608 -0.165 -0.889
 0.244 0.0364  0.717
 0.277  0.209 -0.179
 0.121 -0.165 -0.459
 0.101 -0.165  0.652
-0.179 -0.165  0.862
 0.221 -0.0514 -0.921
-0.368 -0.113 -0.917
 0.277 -0.111 0.0414
 0.111  0.129 -0.399
-0.00929 -0.165  0.261
 0.211 -0.165  0.482
-0.289 -0.165 -0.349
 0.161 -0.165  0.512
-0.169 0.0191 -0.509
 0.111  0.179  0.472
0.0608 -0.165 -0.0586
 0.111  0.189 -0.369
-0.397 0.0687 -0.769
 0.277  0.199 -0.0686
 0.111  0.269  0.171
-0.109 -0.165 -0.729
-0.0793 -0.165 -0.479
 0.111  0.159 -0.619
-0.0493 -0.165  0.352
0.000715 -0.165 -0.609
 0.277 -0.0114 -0.619
-0.259 -0.165 0.0914
 0.276 -0.0914 -0.449
 0.111  0.279 -0.599
0.0608 -0.165  0.412
 0.211 -0.165 -0.169
-0.283 0.0201  0.363
 0.111 0.0687 -0.139
 0.108 0.0218 0.000136
 0.275  0.179 -0.706
 0.249  0.149  0.701
 0.296 -0.215 -0.783
-0.136 0.0201 0.0811
 0.251 0.0922 -0.779
-0.375 -0.0614 0.0614
-0.375 -0.111  0.412
0.0608 0.0191  0.442
 0.276 -0.111  0.842
-0.382 -0.0514 -0.776
-0.239 0.0318 -0.806
 0.269  0.260 -0.349
 0.274  0.260 0.0481
-0.308 0.0193  0.192
0.0407 0.0536  0.832
-0.375 -0.0314 -0.0586
-0.199 0.0920  0.792
-0.0493 -0.165  0.852
-0.309 0.0195 -0.109
 0.191 0.0536 -0.879
 0.277 -0.0614  0.241
-0.229 -0.165 -0.599
-0.189 -0.165  0.442
-0.289 -0.165  0.542
-0.375 -0.0814  0.652
-0.342 0.0189 -0.558
 0.111  0.299 -0.329
 0.277 -0.111  0.462
-0.329 0.0536 -0.889
-0.0700 0.0199 -0.427
 0.246  0.299 -0.679
-0.257 0.0201  0.518
 0.161  0.333 -0.309
 0.277 -0.111 -0.679
 0.171  0.333 0.0117
 0.298 -0.0414  0.789
 0.124  0.332  0.552
 0.111  0.279 -0.0986
 0.181  0.332  0.709
 0.101 0.0536 -0.869
-0.0605 0.0201  0.255
 0.251 -0.165 -0.759
0.0162 0.0191  0.725
-0.0693 -0.272 -0.807
 0.108 0.0226 -0.108
-0.348 -0.165 0.0556
-0.375 -0.111  0.832
-0.239 -0.142 -0.899
-0.364 -0.129  0.361
-0.0793 0.0317 -0.799
 0.110 0.0217 -0.556
-0.379 0.0687  0.904
 0.247  0.299  0.151
 0.247  0.317 -0.599
0.0507 0.0539 -0.916
 0.171  0.229 -0.739
-0.113 0.0914  0.903
-0.143 -0.122 -0.918
-0.362 -0.134  0.568
-0.329 -0.165  0.111
 0.276  0.219  0.131
-0.0293 0.0554  0.903
 0.247  0.279 -0.119
 0.161 -0.165  0.832
 0.211  0.334  0.241
 0.238  0.249 -0.736
-0.269 -0.165  0.252
 0.251 0.0346 -0.784
0.0808 -0.0615  0.904
 0.277 0.0587 -0.249
-0.129 0.0191  0.632
 0.111  0.179  0.592
 0.111 -0.165  0.592
 0.221 -0.165 -0.539
-0.289 -0.165 -0.499
 0.111  0.289 -0.409
-0.0693 -0.165 -0.189
 0.277 -0.111  0.221
 0.111  0.179 -0.299
-0.0593 -0.165  0.452
 0.277 0.0287  0.181
-0.209 -0.165 -0.399
 0.261 -0.165  0.672
-0.359 0.0930 -0.809
 0.277  0.169 -0.289
 0.111  0.189  0.652
-0.339 0.0424  0.796
 0.277 -0.0814  0.121
0.0507 0.0536  0.892
0.0407 0.0191 -0.289
0.0107 -0.165  0.582
-0.0293 0.0191  0.622
 0.277 0.0487 -0.499
0.000715 -0.165  0.742
 0.111 0.0887  0.602
-0.0793 -0.165 -0.349
-0.239 0.0191 -0.0986
-0.0393 -0.0514 -0.921
0.0507 -0.165  0.211
 0.111  0.149 -0.179
-0.149 -0.165 -0.839
 0.277  0.149 -0.359
-0.259 -0.165  0.782
 0.111  0.249 -0.369
 0.277 -0.00136  0.462
 0.111  0.259  0.492
 0.277 0.0787 -0.569
0.0507 -0.165 -0.509
-0.375 -0.00163  0.582
 0.111 0.0987 0.0614
-0.373 -0.118  0.251
-0.208 0.0195 -0.0287
-0.146 0.0193  0.475
 0.121 -0.0914 -0.921
-0.388 0.0920 -0.869
 0.274  0.259 -0.162
 0.181  0.334 -0.569
 0.118  0.329  0.281
-0.0693 0.0180 0.000155
 0.241 0.0536 -0.899
-0.172 0.0201  0.400
-0.157 0.0191 -0.717
 0.247  0.317 -0.259
 0.242 -0.294  0.793
-0.119 0.0396  0.763
-0.364 -0.129 -0.0596
 0.112  0.318 -0.139
 0.261 0.0687 -0.710
-0.319 0.0181 -0.00990
-0.139 0.0517 -0.770
-0.394 0.0630  0.728
-0.360 -0.142  0.793
-0.302 0.0201 -0.860
-0.0793 -0.275  0.766
-0.259 0.0196 -0.209
-0.0493 0.0912 -0.920
0.0274 0.0489 -0.820
 0.201 -0.117  0.903
 0.251 -0.159  0.882
-0.0949 0.0198  0.827
-0.0185 0.0156 -0.915
-0.349 0.0191 -0.148
 0.274  0.260  0.288
 0.111  0.179 -0.419
-0.189 0.0536 -0.869
 0.221 -0.165 -0.669
-0.189 0.0930  0.842
 0.111  0.239  0.602
 0.151 -0.165 -0.349
-0.209 0.0191  0.712
 0.298 -0.0114 -0.806
 0.277 0.0787  0.392
-0.0893 -0.165  0.572
 0.277  0.119 -0.419
-0.375 -0.0414 -0.379
-0.339 -0.290  0.763
-0.269 0.0923 -0.839
 0.111  0.249  0.231
-0.169 0.0191 -0.259
 0.151 -0.165  0.402
-0.209 -0.165  0.692
-0.149 -0.165  0.171
0.0107 0.0930 -0.869
-0.229 -0.165 -0.0986
 0.277 0.0987 -0.0586
 0.276  0.109 0.0114
 0.277 0.0987  0.492
 0.111 0.0887 -0.439
 0.111 0.0288 -0.479
 0.181  0.333 0.0714
-0.0293 0.0191  0.372
 0.111  0.159  0.292
0.0207 -0.165 -0.819
 0.251 -0.165  0.782
-0.189 -0.165  0.312
 0.121 -0.165  0.231
 0.276 -0.0614 -0.239
 0.101 -0.165 -0.359
 0.111  0.149 -0.509
-0.119 -0.165  0.302
 0.277 0.0387 -0.349
-0.0793 -0.165 -0.289
 0.277 -0.0114 -0.509
0.000715 -0.165  0.392
 0.181  0.229  0.721
 0.171  0.333 -0.359
 0.111  0.299  0.662
-0.199 -0.165  0.552
-0.279 -0.165 -0.549
 0.111 0.0517 -0.770
-0.221 0.0201 0.0995
 0.111  0.219 -0.0386
0.0990 0.0188 -0.382
-0.299 -0.0614 -0.921
 0.251  0.270  0.475
 0.247  0.289 -0.429
 0.277 -0.0414 -0.879
 0.246  0.299 -0.0170
-0.109 -0.00173  0.904
-0.309 0.0536 -0.759
 0.132  0.333 -0.0386
-0.341 0.0189 0.0404
 0.252 -0.294 -0.785
-0.364 -0.129  0.201
0.0207 -0.129 -0.907
-0.0893 -0.122  0.900
 0.261 0.0189  0.833
-0.375 -0.101 -0.699
-0.0526 -0.134 -0.902
 0.121 0.0536  0.852
 0.211 -0.165  0.272
-0.362 -0.134 -0.202
 0.277  0.109  0.292
-0.375 -0.0314  0.872
-0.179 -0.165 -0.189
 0.171 -0.165  0.191
-0.279 -0.165 -0.159
 0.101 -0.165  0.131
 0.211 -0.165  0.161
 0.277 0.0186  0.362
 0.277 0.0487  0.532
 0.277  0.179 -0.599
 0.277 0.0987  0.612
 0.121 -0.165 -0.659
-0.370 -0.123  0.465
 0.171 -0.165 -0.0686
 0.181 0.0923 -0.829
-0.375 -0.0714  0.532
 0.111  0.169 -0.0986
 0.111 0.0687  0.312
 0.111 0.0787  0.452
-0.0893 -0.165 -0.849
 0.181 -0.165  0.582
-0.169 -0.165 -0.369
-0.229 0.0191  0.662
 0.211  0.334  0.312
-0.299 -0.165 -0.289
-0.239 -0.165 -0.289
-0.0593 -0.165  0.672
 0.277 -0.0114 -0.349
 0.277 -0.0714  0.582
-0.375 -0.0414  0.241
 0.276  0.199 -0.0186
0.0608 -0.0614 -0.921
-0.0193 0.0930  0.852
 0.277 0.0687 -0.159
-0.0993 -0.165 -0.119
-0.00929 -0.165 0.0214
 0.277 -0.0914  0.412
-0.0393 0.0191 -0.579
 0.101 -0.165 -0.0286
 0.277 -0.0514  0.492
 0.111  0.179 -0.569
 0.181  0.333 -0.0886
-0.149 0.0191 -0.459
-0.169 -0.165 -0.549
 0.276  0.219  0.462
-0.179 -0.165  0.772
 0.111  0.149  0.682
 0.111  0.149  0.552
-0.219 -0.165  0.352
 0.111  0.189  0.412
-0.169 -0.165  0.101
0.0307 -0.165 -0.289
 0.111  0.179  0.141
-0.309 -0.165  0.402
 0.211 0.0930  0.792
 0.111  0.239 -0.679
-0.213 0.0914 -0.746
-0.159 -0.165 -0.469
-0.375 -0.0514 -0.279
 0.211 -0.165  0.832
 0.277  0.189  0.622
0.0707 -0.165 -0.589
-0.361 -0.135 -0.813
 0.290 0.0923 -0.829
-0.279 0.0536 -0.889
 0.276 -0.0614  0.692
-0.375 -0.0314 -0.559
-0.329 -0.165 -0.839
-0.293 0.0196  0.888
-0.170 0.0193 -0.359
-0.370 -0.123  0.625
 0.271 -0.0481  0.899
 0.111  0.289 -0.549
-0.0793 0.0191  0.552
-0.350 -0.134  0.885
 0.111 0.0587  0.261
 0.277 -0.131  0.622
 0.121 0.0554  0.903
-0.129 0.0930  0.762
 0.276 -0.241  0.793
0.0329 0.0199 -0.584
-0.283 0.0467  0.759
-0.109 0.0536 -0.859
 0.247  0.279 -0.289
-0.199 0.0536  0.872
 0.260  0.263 -0.469
-0.372 0.0127  0.682
0.0707 -0.0114  0.904
-0.343 0.0487 -0.820
-0.354 -0.160  0.744
-0.109 0.0930 -0.759
-0.366 0.0165 -0.208
 0.276 -0.121 -0.149
-0.370 -0.123 -0.295
-0.159 0.0184 -0.0199
 0.221 0.0922  0.862
 0.247 -0.122 -0.918
 0.276 -0.159 -0.369
 0.277 -0.101 -0.869
 0.124  0.332 -0.709
 0.277  0.129 -0.659
 0.247  0.279 -0.539
0.0419 0.0201 0.0864
 0.249 0.0876  0.713
 0.111  0.299 -0.239
-0.289 -0.289 -0.781
 0.251 -0.165  0.392
-0.209 0.0920 -0.849
0.0407 0.0930  0.862
-0.0193 0.0536  0.822
 0.237  0.332  0.111
-0.264 0.0196  0.575
-0.366 0.0155 -0.0203
-0.375 -0.0214  0.402
 0.201 -0.00173  0.904
-0.314 0.0198  0.258
0.0538 0.0196  0.223
-0.179 -0.289  0.794
-0.0593 0.0927  0.899
-0.363 0.0165  0.486
 0.247  0.289  0.382
-0.389 -0.221 -0.780
 0.245  0.324 -0.210
 0.101 0.0687  0.726
 0.296 0.0911  0.798
 0.192 0.0406 -0.782
-0.362 -0.134 0.0177
 0.221  0.333 -0.299
 0.251 0.0325  0.789
 0.114  0.325 -0.519
-0.322 0.0198 -0.444
-0.139 -0.122  0.900
 0.167 0.0468  0.759
-0.0126 0.0468  0.759
 0.251 0.0536  0.872
 0.117 -0.134 -0.902
0.0613 0.0201 -0.412
 0.296 -0.165  0.793
 0.166 -0.276  0.793
 0.111 0.0289 -0.339
0.00153 0.0406 -0.782
-0.373 -0.118  0.732
-0.375 -0.0314 -0.889
-0.00931 -0.0914  0.904
 0.121 0.0951 -0.749
-0.359 0.0930  0.842
-0.372 0.0127  0.331
 0.290 -0.141 -0.780
 0.269 -0.165 0.0714
 0.211 0.0536  0.832
 0.295 0.0747 -0.746
-0.0693 0.0486  0.803
 0.257 0.0234 -0.712
0.0808 -0.271  0.782
0.0907 0.0912 -0.920
 0.111 0.0487 -0.599
 0.277 -0.0114  0.732
0.0608 0.0554 -0.746
-0.375 -0.0314  0.191
-0.103 0.0195  0.357
-0.179 0.0536  0.822
-0.183 0.0467  0.759
-0.339 -0.165  0.662
-0.0493 0.0930  0.762
 0.261 0.0930 -0.889
-0.259 -0.151  0.882
 0.113  0.309 0.000182
 0.171 -0.165  0.352
-0.375 -0.0314 -0.239
-0.159 -0.165  0.272
-0.279 -0.165  0.612
-0.364 -0.129 -0.530
-0.0693 -0.165  0.231
-0.219 -0.165  0.252
 0.276 -0.0914 -0.279
 0.277 -0.0314  0.201
-0.139 0.0930 -0.809
-0.375 -0.0514  0.492
 0.111  0.129  0.221
 0.111  0.129  0.141
0.0207 -0.165 -0.139
 0.277 0.00865 -0.389
-0.259 0.0920  0.792
-0.119 -0.165  0.422
-0.0993 -0.165  0.752
 0.277 -0.0214  0.392
 0.141  0.334  0.442
 0.111  0.299 -0.0586
-0.189 -0.165 -0.00861
 0.111 0.0386  0.472
 0.201  0.189  0.722
-0.129 -0.165  0.522
-0.129 0.0191  0.542
-0.149 0.0191 -0.169
0.0107 0.0191 -0.0586
 0.276 -0.0114 -0.269
 0.277 0.0287 0.0914
 0.277  0.169  0.462
-0.299 -0.165  0.712
0.0808 -0.165  0.752
-0.319 -0.165 -0.569
 0.276  0.179  0.302
-0.229 -0.165 -0.729
-0.319 -0.165 -0.449
 0.276  0.219  0.382
-0.319 -0.165 -0.789
 0.181  0.334 -0.409
-0.259 -0.165 -0.199
-0.119 -0.165  0.692
-0.109 0.0191 -0.689
-0.169 -0.165 -0.599
 0.277  0.159 -0.189
 0.277 0.0587  0.432
-0.119 0.0191 -0.359
-0.189 0.0191 -0.619
0.0808 -0.165  0.322
-0.0793 -0.165 0.0614
-0.375 -0.0114 -0.309
 0.277 -0.0714 0.0214
-0.229 -0.165  0.462
 0.241 -0.165 -0.269
 0.141  0.334  0.161
 0.111  0.149 -0.249
-0.329 0.0191 -0.239
0.0907 -0.165 -0.779
 0.277  0.149  0.592
 0.111 -0.165 -0.849
0.0608 -0.165 -0.249
-0.109 -0.0314 -0.921
-0.329 -0.165 -0.369
 0.111  0.109  0.402
 0.141  0.129  0.722
0.0707 0.0191 -0.249
0.0707 -0.165 0.0114
0.0608 0.0191 -0.149
-0.119 -0.165 -0.439
-0.329 -0.165 -0.119
 0.217 0.0198 -0.866
 0.211  0.333  0.522
 0.132  0.333  0.682
0.000178 0.0199 -0.489
 0.161  0.333 -0.219
 0.277  0.209 -0.439
-0.209 0.0536 -0.909
 0.243  0.159 -0.732
 0.111 0.0289  0.672
-0.369 -0.296 -0.799
-0.375 -0.0914 -0.749
-0.397 0.0186  0.789
 0.271 0.0920  0.862
-0.189 0.0201  0.341
-0.00931 0.0536 -0.859
0.0608 0.0536 -0.849
0.0331 0.0201 -0.530
 0.161 0.0536  0.812
0.0833 0.0201 0.0364
 0.151 0.0606 -0.921
-0.339 0.0536  0.882
-0.360 0.0389 -0.781
-0.375 -0.0814  0.292
 0.131 0.0318 -0.806
-0.375 -0.0714  0.852
-0.279 0.0604  0.904
-0.209 0.0606  0.726
 0.112  0.318 -0.619
-0.259 -0.290  0.763
 0.251 0.0930  0.772
 0.276 -0.141 -0.849
 0.270 -0.0214 -0.917
0.000705 0.0191 -0.359
0.000715 -0.296  0.772
 0.120 0.00600  0.903
 0.180 0.0191  0.841
0.0707 0.0191 -0.199
0.0808 0.0930  0.772
-0.349 0.0920 -0.889
-0.257 0.0201  0.864
 0.172 -0.294 -0.785
-0.0393 0.0191  0.502
 0.277  0.239 -0.0486
0.0608 0.0191  0.702
 0.111  0.309  0.241
 0.247  0.289 -0.179
-0.375 -0.0214  0.652
-0.394 -0.171  0.793
 0.283 -0.0381 -0.776
-0.152 0.0193  0.160
 0.161 -0.101  0.904
-0.374 0.00651  0.272
-0.375 -0.0214 -0.639
-0.394 0.0555 -0.896
 0.251 -0.165  0.722
0.0234 0.0195  0.635
 0.151  0.333  0.592
-0.397 0.0607  0.802
0.0609 0.0201  0.291
-0.329 0.0191  0.762
-0.361 -0.141 -0.347
-0.331 0.0201  0.609
 0.211 0.0517  0.752
-0.0693 0.0539 -0.916
-0.260 0.0194  0.192
-0.149 0.0554  0.903
 0.111  0.209 -0.269
0.0507 0.0191  0.532
-0.375 -0.0914  0.161
 0.101 -0.165 -0.229
-0.289 -0.165 -0.669
 0.111  0.269 -0.709
 0.141  0.334 -0.669
 0.277  0.149  0.402
 0.276 -0.0614 -0.129
-0.00929 -0.165  0.632
-0.0293 -0.165 -0.639
 0.277 0.0787 -0.469
-0.249 -0.165 0.0114
-0.00930 0.0191 -0.259
 0.276  0.159 0.0214
-0.0193 -0.165 -0.729
-0.0593 0.0191  0.652
0.000715 -0.165  0.101
 0.151  0.334  0.392
 0.151  0.333  0.512
 0.276 -0.121 -0.589
0.0608 -0.165  0.572
 0.181  0.334 -0.619
 0.221 -0.165 -0.729
 0.181 -0.165  0.302
 0.111 -0.165 -0.169
 0.111  0.279 -0.279
-0.239 -0.165 -0.809
 0.111  0.299  0.312
0.0307 -0.165 -0.0886
-0.129 -0.165  0.612
-0.279 -0.165 -0.109
-0.00930 0.0191 -0.719
 0.121 -0.165 0.0114
 0.277 0.0387 -0.599
-0.375 -0.0614 -0.209
-0.129 0.0539 -0.916
0.0907 -0.0314 -0.921
0.0407 -0.165  0.302
0.0456 0.0201  0.129
0.0608 -0.165 -0.689
 0.251 -0.165  0.572
 0.191  0.309 -0.739
-0.375 -0.101 -0.469
-0.229 0.0191 -0.349
 0.247  0.279  0.251
-0.280 0.0201 0.0903
-0.119 0.0606  0.726
 0.181 0.0554  0.903
-0.219 -0.164  0.878
-0.0793 0.0930  0.862
-0.309 0.0930  0.862
-0.279 0.0198 -0.735
 0.268 0.0165 -0.899
-0.0985 -0.289 -0.782
0.0966 -0.276 -0.784
 0.141 0.0384  0.722
-0.299 0.0912  0.728
 0.277 -0.151 -0.0586
 0.277 -0.151  0.261
-0.249 0.0536  0.822
-0.322 0.0198  0.387
-0.375 -0.0814  0.712
 0.276 -0.0814  0.872
 0.277 -0.0814  0.812
0.000715 0.0180 0.000155
-0.296 0.0198 -0.601
0.0207 0.0606  0.726
-0.159 0.0318 -0.806
-0.369 0.0536 -0.859
-0.219 0.00597 -0.920
0.0103 -0.282 -0.781
 0.246  0.317  0.652
 0.276  0.219  0.281
-0.359 -0.151  0.395
0.0608 0.0191 -0.0686
-0.109 -0.165  0.842
-0.259 -0.165  0.342
-0.239 -0.165 -0.649
0.0521 0.0195  0.852
-0.259 -0.165 -0.0586
 0.211 0.0922 -0.789
 0.161  0.189 -0.739
 0.121 0.0930  0.802
-0.326 -0.125 -0.914
 0.211 -0.0914 -0.921
-0.375 -0.0314  0.352
 0.277 -0.0314  0.572
 0.167 0.0198 -0.866
-0.0993 0.0191 -0.159
-0.0593 0.0191 -0.279
-0.0493 -0.165 -0.229
0.0808 0.0191  0.602
 0.201  0.334 -0.519
-0.309 -0.165  0.191
 0.111  0.209  0.372
0.0307 -0.165  0.532
 0.111  0.209  0.261
-0.269 -0.165 -0.389
 0.161 -0.165 -0.829
 0.201  0.333 -0.139
 0.131 -0.165  0.552
 0.161  0.334 -0.459
 0.221 -0.165 -0.469
 0.276  0.169 0.0914
-0.139 0.0191  0.692
-0.219 -0.165 -0.229
-0.00929 -0.165 -0.549
-0.00929 -0.165 -0.449
-0.219 0.0930  0.752
 0.171 0.0930  0.782
 0.111 -0.165  0.412
-0.279 -0.165  0.292
-0.0793 0.0191 -0.0986
 0.276 0.00865 -0.00866
-0.0993 -0.165 -0.0186
-0.109 -0.165  0.362
0.0207 0.0191  0.432
-0.119 0.0930  0.852
-0.119 -0.165 -0.689
 0.277 0.0787 -0.669
 0.111  0.109 -0.169
-0.139 -0.0414  0.903
 0.276 0.0686 -0.0186
-0.0493 0.0930 -0.829
 0.277 0.00865  0.642
-0.0693 -0.165 -0.719
 0.277 -0.0414  0.312
 0.111 0.0887 -0.329
-0.0893 -0.165 -0.389
 0.276 -0.0514 -0.459
 0.277 0.0587  0.622
-0.0193 -0.165  0.302
-0.0893 -0.165 -0.529
 0.221  0.333 -0.349
-0.0493 0.0191 -0.629
0.0608 0.0925 -0.819
 0.276 -0.0714 -0.709
 0.171 -0.165  0.682
 0.277  0.139  0.502
-0.169 -0.165 -0.679
-0.169 -0.165  0.702
 0.211 -0.165 -0.769
 0.251 0.0536 -0.859
 0.101 -0.165 -0.129
-0.329 -0.165 -0.629
0.0507 -0.165 -0.399
 0.277  0.189 -0.489
 0.171 0.0930 -0.889
 0.141 0.0536 -0.879
 0.277  0.139  0.552
 0.277  0.139 -0.529
 0.221 -0.165  0.201
-0.149 0.0536 -0.879
 0.111  0.189 -0.529
 0.251 -0.165  0.342
 0.111  0.239  0.402
 0.151  0.333 -0.259
 0.161 -0.165 -0.519
-0.229 -0.165  0.632
0.0107 -0.165  0.141
 0.276  0.179  0.241
 0.276  0.239  0.562
 0.247  0.299  0.322
 0.111 0.0787 -0.0986
 0.111 0.0887 -0.709
-0.00930 -0.00173  0.904
-0.375 -0.0114 -0.759
-0.349 -0.0414  0.903
 0.276  0.239 0.0914
 0.241 -0.165  0.452
-0.224 0.0201  0.474
 0.276 -0.159 -0.209
-0.0985 0.0195 -0.0287
-0.381 -0.251  0.795
 0.247  0.308 -0.639
-0.219 0.0193 -0.219
 0.241 -0.165 -0.869
 0.230  0.100 -0.742
-0.239 0.0191 -0.429
 0.171 0.0517 -0.749
-0.257 0.0196 -0.888
0.0207 0.0930 -0.779
-0.189 0.0930 -0.779
-0.139 0.0196  0.839
-0.119 0.0486  0.803
-0.217 0.0184 0.0110
 0.121 -0.165  0.872
-0.0693 0.0536 -0.759
 0.276 -0.121 -0.739
 0.110 0.0201  0.832
-0.104 0.0201  0.317
-0.375 -0.111 -0.429
0.0129 0.0201  0.226
0.0707 0.0191  0.392
0.0808 -0.125  0.896
-0.259 -0.117  0.903
-0.0693 0.0536  0.742
 0.247  0.289 0.0414
-0.109 0.0925 -0.849
-0.0593 -0.0914  0.904
 0.111 0.0487 0.0414
-0.377 -0.0814  0.752
 0.296 0.0606  0.728
 0.211 -0.165 -0.299
-0.239 -0.165 -0.429
-0.219 -0.165 0.0914
-0.299 0.0191 -0.0686
 0.277 -0.0314 0.0214
-0.279 0.0536 -0.839
 0.276  0.139  0.181
-0.0793 -0.165  0.101
-0.333 0.0198 -0.403
-0.129 -0.165 -0.369
-0.169 -0.165 -0.0586
 0.111 0.0687 -0.649
 0.111  0.129  0.482
-0.279 0.0181 -0.00990
-0.204 0.0116  0.902
 0.171 -0.165 -0.259
 0.211 -0.165  0.662
 0.296 0.0554  0.872
 0.111 0.0787 -0.549
-0.149 -0.165  0.392
-0.289 0.0191  0.662
0.000715 -0.165 -0.359
-0.259 -0.165  0.712
 0.201 -0.165  0.622
 0.191 0.0536 -0.839
-0.0493 -0.165  0.181
-0.329 -0.165  0.562
-0.149 0.0191 -0.559
 0.151 -0.165  0.782
 0.221 -0.165 -0.579
-0.362 -0.134 -0.162
 0.111  0.109 -0.609
 0.277 -0.0514 -0.599
 0.111  0.159  0.332
 0.121 -0.165 -0.569
 0.191 -0.165 -0.0186
 0.251 -0.165  0.532
 0.277 0.0186  0.562
-0.259 0.0191  0.742
-0.169 -0.165  0.612
 0.277 0.0587 -0.209
 0.277  0.209 -0.399
-0.0193 0.0191  0.422
 0.277 0.0687 0.0914
-0.0693 0.0536 -0.859
-0.279 0.0930  0.832
 0.111  0.229  0.171
 0.111  0.289 -0.369
 0.111  0.239  0.542
 0.111 0.0687 -0.179
 0.121 -0.165  0.512
 0.111  0.219  0.492
-0.209 -0.165 -0.689
-0.372 0.0127 -0.479
-0.129 -0.165 -0.279
0.000705 0.0191  0.522
-0.341 0.0189  0.229
 0.111  0.139 -0.299
0.0614 0.0191 -0.728
 0.290 0.0537 -0.879
-0.0793 -0.164  0.878
-0.0972 0.0195 0.0712
 0.276 -0.0814 -0.389
-0.329 0.0536  0.842
-0.152 0.0191  0.120
 0.171 0.0930  0.742
 0.277 -0.111  0.502
 0.271 0.0221 -0.816
 0.111  0.189 -0.719
0.0478 0.0201  0.329
 0.298 -0.0814 -0.790
-0.303 0.0198 -0.548
-0.186 0.0201 -0.686
-0.220 0.0195 -0.853
-0.179 0.0554 -0.746
-0.375 -0.0214 -0.459
0.0207 -0.0914 -0.921
 0.277  0.229 -0.239
 0.211  0.333  0.382
-0.229 0.0201  0.435
-0.0393 0.0191 -0.359
-0.189 0.0193  0.802
-0.0693 0.0536  0.842
-0.119 0.0191 -0.779
-0.348 -0.165 -0.0544
-0.154 0.0195 -0.855
 0.251  0.270  0.555
0.00557 0.0195 -0.834
-0.231 0.0191  0.138
 0.231 -0.0914  0.903
-0.0493 -0.165 -0.879
-0.397 -0.0314 -0.806
-0.0263 0.0195  0.734
 0.121 0.0927  0.852
 0.191 -0.165 -0.859
-0.339 -0.101  0.904
-0.189 -0.0214 -0.921
-0.0788 0.0201 -0.378
0.0114 0.0198  0.833
 0.181 0.0930  0.872
 0.275 -0.251 -0.791
-0.169 0.0191 -0.399
 0.276  0.256 -0.529
-0.00620 0.0201 0.0714
0.0407 0.0912 -0.920
0.0299 0.00600  0.903
-0.348 -0.165  0.196
 0.276 -0.141 -0.459
-0.0376 0.0201  0.298
 0.243  0.209 -0.732
-0.319 -0.0114 -0.921
-0.109 0.0191  0.732
-0.369 0.0554 -0.746
-0.281 0.0195  0.278
-0.318 0.0196 -0.352
-0.0293 0.0606  0.726
 0.237  0.331 0.00917
 0.296 0.0911 -0.872
 0.276 -0.165  0.752
-0.269 0.0191 -0.359
-0.0326 0.0489 -0.820
-0.355 -0.160  0.245
-0.309 -0.0114  0.903
 0.276  0.219  0.181
 0.261 -0.275  0.766
 0.257 0.0914  0.903
 0.231 -0.165 0.0714
 0.290 0.0406  0.797
 0.251 -0.165 -0.129
0.0107 -0.129  0.890
0.0758 0.0201  0.103
-0.0621 0.0199  0.884
0.0622 0.0195 -0.658
-0.239 0.0201 -0.564
 0.141 -0.282  0.763
0.0305 0.0195  0.760
-0.130 0.0201  0.881
-0.329 -0.165  0.872
 0.277  0.249 -0.659
0.0545 0.0184 -0.905
-0.209 0.0468 -0.777
0.0872 0.0190 -0.452
 0.111  0.289 -0.459
0.0241 -0.164 -0.896
-0.340 0.0198  0.516
-0.249 -0.110 -0.921
 0.275 0.0255  0.689
 0.237  0.332 -0.700
 0.116  0.302 -0.733
-0.336 0.0193 -0.275
-0.359 -0.289  0.794
 0.111  0.259  0.692
-0.375 -0.0814 -0.899
 0.228 0.0199  0.760
 0.246  0.289  0.622
 0.124  0.332 -0.319
 0.137 0.0195 -0.843
-0.269 0.0687 -0.921
-0.0670 0.0191  0.364
 0.109 0.0187 -0.740
 0.274  0.260  0.638
0.0474 0.0914  0.903
-0.337 0.0198  0.443
-0.0959 0.0198  0.245
-0.378 -0.130 -0.776
0.0707 0.0536  0.742
-0.305 0.0198  0.154
-0.229 0.0930  0.872
-0.0884 0.0196 -0.458
-0.359 -0.151  0.485
-0.359 -0.151  0.325
-0.372 0.0127 0.0214
-0.355 -0.160 -0.286
-0.375 -0.0214  0.742
 0.238  0.308  0.719
-0.355 -0.160 -0.706
0.0811 0.0194  0.261
-0.239 -0.289  0.794
-0.369 0.0923  0.742
-0.394 0.0911  0.822
 0.242  0.329  0.457
-0.159 -0.0914  0.904
-0.180 0.0201  0.491
-0.169 0.0193 -0.298
 0.151  0.325 -0.736
-0.284 0.0201  0.399
 0.267 0.0468  0.759
 0.140 0.0195  0.851
 0.151  0.199  0.722
-0.159 0.0927  0.782
 0.276 -0.0914  0.712
-0.219 0.0191 -0.179
 0.211 -0.165  0.752
 0.181 -0.165  0.722
-0.166 0.0556  0.728
 0.277 -0.0214 -0.419
-0.109 0.0554  0.903
0.0479 0.0191 -0.821
0.0608 0.0191 -0.319
 0.231 -0.165 -0.0886
 0.161  0.334  0.322
0.0107 0.0536 -0.889
 0.111  0.239 -0.479
 0.181  0.334  0.221
-0.309 -0.165  0.642
-0.269 -0.165 -0.469
 0.211  0.334 -0.589
0.0608 -0.165  0.352
-0.239 0.0920 -0.869
0.0907 0.0536  0.832
 0.151  0.334 -0.599
 0.111  0.209 -0.399
-0.289 -0.165 -0.719
 0.277  0.199 -0.139
-0.249 -0.165 -0.849
-0.269 -0.165 -0.309
 0.277  0.199 -0.259
 0.111  0.199 -0.609
 0.276 -0.151 -0.279
-0.289 -0.165 -0.809
-0.179 -0.165 0.0514
0.0107 -0.165 -0.219
 0.121 -0.0114 -0.921
-0.109 -0.165 -0.209
 0.111 0.0587  0.221
0.0407 -0.165 -0.169
 0.171 -0.165  0.111
-0.189 -0.0614 -0.921
0.0707 -0.165 -0.549
0.0808 -0.165 -0.489
-0.375 -0.0914  0.111
0.0207 0.0930  0.832
-0.329 0.0930 -0.789
 0.277  0.149 -0.319
 0.277  0.209 -0.679
 0.277  0.169 -0.449
-0.339 -0.165 -0.759
-0.0393 -0.165  0.422
 0.111  0.249  0.312
-0.189 0.0191  0.612
-0.219 -0.165  0.522
 0.277 0.0487  0.221
 0.277 -0.0614  0.281
 0.277  0.169  0.672
 0.276 -0.0414 -0.169
-0.368 -0.126  0.662
0.0207 0.0191 -0.329
-0.0993 -0.165 -0.809
-0.0993 -0.165 -0.769
-0.0693 0.0191  0.702
-0.0893 -0.165  0.322
-0.0993 0.0930  0.782
-0.0393 -0.165 -0.469
-0.0393 -0.165  0.542
-0.109 0.0536  0.842
 0.277 0.0687 -0.319
0.000705 0.0191 -0.659
 0.111 0.0887 -0.0486
-0.0593 -0.165 -0.0986
0.000715 -0.165 -0.489
-0.0293 0.0930 -0.799
 0.277 0.0787  0.151
-0.0493 0.0191 -0.319
 0.111 0.0687 -0.409
-0.0493 -0.165 -0.369
 0.171 -0.165 0.0314
 0.277 -0.0114  0.342
 0.111 0.0587  0.582
-0.0893 -0.165 -0.659
0.0407 -0.165  0.462
-0.0293 0.0191 -0.149
-0.375 -0.0214  0.472
-0.00930 0.0930  0.772
-0.0193 0.0930 -0.889
 0.277 0.0887 -0.399
-0.00930 0.0930  0.812
-0.0693 0.0191 -0.209
0.0307 -0.165  0.662
-0.0693 -0.0314 -0.921
-0.139 0.0930 -0.879
-0.375 -0.0314 -0.679
-0.375 -0.0514  0.572
 0.277  0.129 -0.119
 0.277  0.129 -0.159
 0.276 -0.0314 -0.219
-0.199 -0.0814  0.904
-0.129 -0.165 -0.0986
-0.159 -0.165 0.0114
 0.277  0.239 -0.609
0.0407 -0.165 0.0314
0.0407 0.0930 -0.849
0.0407 -0.165 -0.849
0.0407 0.0191 -0.179
0.0707 -0.165 -0.329
 0.111 0.0587 0.0814
0.0507 -0.165 -0.779
 0.111  0.259 0.0914
-0.239 -0.165 0.0614
 0.161  0.299  0.722
 0.277  0.149  0.322
 0.277 0.0486 -0.129
 0.276 -0.0614 -0.0386
 0.276 -0.121 -0.299
 0.276  0.179  0.371
-0.0293 -0.165  0.782
-0.00929 -0.165 -0.669
-0.0293 -0.165  0.492
 0.276 0.0186 -0.159
 0.131 0.0922 -0.809
 0.111  0.209  0.682
 0.201  0.333  0.452
-0.279 -0.165  0.812
-0.249 0.0191  0.632
 0.111  0.119 -0.489
 0.151 -0.165 -0.769
0.0707 -0.165  0.832
-0.379 0.0930  0.872
-0.109 0.0191 -0.559
-0.0593 -0.165 -0.559
 0.111 0.0687  0.652
 0.277 -0.0714 -0.649
 0.141 -0.165  0.482
 0.276  0.189  0.151
 0.191 -0.165  0.432
-0.149 -0.165  0.842
-0.179 -0.165 -0.819
 0.181 -0.165 -0.139
 0.277  0.179 -0.109
 0.151 -0.165 -0.639
 0.277  0.239 -0.199
 0.191 -0.165 -0.329
-0.229 0.0536  0.852
 0.181 0.0536  0.852
 0.241 -0.165  0.141
 0.141 -0.165  0.261
 0.121 -0.165 -0.389
-0.375 -0.0414 -0.149
 0.111 -0.165 -0.269
 0.141 -0.165 -0.719
0.0907 -0.165  0.692
 0.111  0.279  0.632
 0.111 0.0987  0.332
0.0307 -0.165  0.171
-0.289 -0.165  0.372
-0.259 0.0191 -0.399
-0.299 -0.165 -0.189
 0.111  0.309 0.0814
-0.169 0.0191  0.552
 0.111  0.219  0.572
 0.131 -0.165  0.622
 0.111  0.299  0.512
 0.277 0.0487  0.281
 0.277 -0.0414  0.662
 0.111  0.249 0.0116
0.0307 -0.165  0.832
 0.131 -0.0814  0.904
 0.211  0.129  0.722
 0.221 0.0198 -0.772
 0.296 0.0252 -0.783
 0.277 -0.0214  0.812
-0.289 0.0930  0.892
 0.277 -0.0214 -0.699
 0.181  0.333 -0.0486
 0.269  0.109  0.692
-0.0193 -0.151  0.882
 0.111  0.189 -0.0586
-0.375 -0.00163 -0.539
 0.181 -0.0314  0.904
-0.380 -0.0614  0.803
-0.00864 0.0198 -0.870
 0.110 0.0217  0.124
-0.169 -0.296 -0.806
-0.375 -0.0914 -0.279
-0.0893 0.0191  0.392
-0.375 -0.101 -0.0786
 0.237  0.332  0.161
-0.0567 0.0198 -0.872
 0.110 0.0217 -0.516
-0.0593 0.0191  0.472
-0.375 -0.101  0.562
0.0207 0.0536  0.872
-0.289 0.0201  0.503
-0.363 0.0467  0.759
-0.289 0.0923  0.762
 0.251 -0.165 -0.609
 0.276  0.229 0.0314
-0.397 0.0863 -0.809
-0.387 -0.0714 -0.814
-0.375 -0.231 -0.811
-0.153 0.0191 -0.753
-0.269 -0.0814 -0.921
-0.279 -0.275 -0.811
 0.246  0.279  0.442
 0.252  0.270 -0.505
-0.249 0.0536  0.882
-0.0293 0.0687 -0.744
 0.121 0.0486  0.803
 0.260  0.263  0.141
 0.277 -0.141  0.402
-0.375 -0.101 0.0214
 0.274 -0.164 -0.419
 0.241 -0.165  0.292
-0.0944 0.0196  0.466
0.0107 0.0537 -0.751
0.0741 -0.294 -0.811
 0.274  0.259 -0.102
 0.290 -0.251  0.763
-0.0193 -0.151 -0.899
-0.362 -0.134 -0.0226
-0.289 -0.151 -0.899
 0.151 -0.142  0.882
-0.369 0.0536  0.822
-0.375 -0.101  0.332
-0.0285 0.0195  0.872
0.0808 0.0536 -0.899
 0.231 -0.129  0.890
-0.203 -0.134 -0.902
-0.349 0.0191 -0.0978
-0.0793 0.0930 -0.899
0.0965 0.0201 -0.877
 0.245  0.324  0.251
-0.163 0.0201  0.868
-0.336 0.0198 -0.887
-0.361 -0.141 -0.847
-0.259 0.0317  0.782
0.0537 0.0191  0.187
 0.230 0.0156  0.898
 0.276 -0.208 -0.811
 0.276  0.256  0.211
 0.141  0.334 -0.409
-0.277 0.0201 -0.831
0.0608 -0.0114 -0.921
-0.0193 0.0536 -0.909
 0.141  0.334  0.221
 0.141  0.334 -0.539
0.0510 -0.294  0.793
-0.372 0.0127 -0.719
-0.262 0.0194 -0.480
 0.242  0.329 -0.0429
 0.277 -0.131  0.141
-0.189 0.0604  0.904
-0.237 0.0195  0.554
-0.159 -0.275  0.766
-0.361 -0.141 0.0934
-0.273 0.0201  0.326
 0.296 0.0908  0.838
-0.375 -0.00163  0.852
 0.290 -0.181 -0.780
 0.103 0.0195 -0.777
-0.309 0.0606 -0.921
 0.277 -0.131  0.312
 0.283 -0.131  0.759
 0.277 -0.131 -0.0886
 0.277 -0.131 0.0114
-0.247 0.0200  0.825
 0.277 -0.151 0.0414
-0.375 -0.205  0.794
-0.364 -0.129  0.130
 0.296 0.00531  0.793
-0.223 0.0201 -0.610
 0.151  0.333 -0.0686
-0.394 -0.00803  0.766
0.0507 0.0468 -0.776
0.0939 0.0191  0.793
-0.0993 0.0468 -0.776
 0.195 0.0189 -0.747
 0.277  0.229 -0.549
-0.379 0.0292 -0.812
-0.279 0.0320 -0.789
-0.375 -0.00163  0.231
-0.375 -0.00163 -0.389
 0.108 0.0224  0.373
 0.269  0.229  0.693
 0.250 0.0193 -0.748
-0.0585 -0.294 -0.784
-0.0393 0.0320  0.772
 0.221  0.333  0.632
-0.229 -0.289 -0.782
-0.375 -0.231  0.766
-0.362 0.0165 0.0962
-0.306 -0.295  0.766
 0.132  0.333 0.0118
-0.0321 0.0201  0.339
 0.251  0.270  0.515
-0.341 0.0198  0.577
0.0315 0.0423  0.796
 0.269  0.260 -0.389
-0.192 0.0201 -0.801
-0.106 -0.294  0.766
 0.241 0.0536  0.812
 0.276 -0.159  0.552
 0.276 -0.159 -0.739
-0.328 0.0198  0.884
-0.276 0.0556  0.728
0.0207 -0.282  0.794
-0.329 -0.165 -0.409
-0.219 0.0194  0.352
-0.0393 0.0468 -0.776
 0.101 0.0687 -0.743
 0.276 -0.159  0.702
 0.261  0.229 -0.710
-0.158 0.0201 0.0571
 0.246  0.279 -0.726
0.0907 0.0201  0.321
0.0307 -0.296 -0.806
 0.274 -0.164  0.472
-0.0793 0.0191 -0.769
0.0808 -0.142 -0.899
0.0100 0.0201  0.351
-0.216 -0.164 -0.896
-0.189 -0.142  0.882
-0.219 0.0424  0.796
-0.199 -0.282 -0.812
-0.372 0.0127 -0.569
 0.298 0.0687  0.772
 0.274 -0.164 -0.249
0.0663 0.0197 0.00892
 0.124  0.332 -0.439
 0.122 0.0950  0.731
-0.355 -0.160 -0.0854
-0.375 -0.101  0.492
 0.259 -0.0514 -0.921
 0.171 -0.275 -0.811
-0.363 0.0214  0.798
 0.201 0.0606 -0.921
 0.106 0.0184 -0.618
 0.113  0.109 0.000200
 0.116  0.149  0.716
-0.359 -0.151  0.275
 0.247  0.309 -0.139
 0.168 0.0193  0.801
 0.242  0.329 -0.663
-0.397 0.0607  0.762
-0.389 -0.161 -0.780
-0.0633 0.0196 -0.824
-0.215 0.0201  0.304
 0.273 -0.129 -0.899
-0.348 -0.165 -0.195
0.0909 0.0193  0.532
 0.281 -0.138  0.803
 0.276 -0.141 -0.619
 0.276 -0.141 -0.509
-0.374 -0.0614 -0.00665
 0.276 -0.0615 -0.429
-0.199 0.0536 -0.839
 0.141 -0.165  0.332
-0.249 -0.165  0.372
 0.111  0.269  0.462
 0.151 -0.165  0.592
 0.131 -0.165  0.442
 0.191 -0.165 -0.379
-0.199 -0.165  0.201
-0.229 0.0191 -0.139
0.0907 -0.165  0.241
-0.249 -0.165  0.161
 0.111  0.259 -0.649
 0.277  0.229 -0.329
-0.259 -0.165  0.412
 0.111 -0.0614 -0.921
-0.375 -0.0614 -0.739
 0.241 -0.165  0.502
 0.241 -0.165 -0.789
-0.229 -0.0414  0.903
 0.277  0.149  0.281
 0.277  0.119 -0.469
 0.277  0.119 -0.309
 0.277 -0.0714  0.632
 0.276  0.129  0.151
-0.119 -0.165  0.221
-0.209 0.0191 -0.109
 0.277 -0.0114  0.111
-0.139 0.0191 -0.529
-0.0293 0.0930  0.882
 0.277 0.0387 -0.469
0.0107 0.0191  0.552
0.0107 -0.165 -0.519
 0.277 -0.0114  0.492
 0.111  0.249 -0.0486
0.0907 -0.165 -0.0886
-0.279 -0.0314 -0.921
-0.219 0.0191 -0.0686
-0.139 -0.165 -0.189
-0.319 -0.165 0.0314
